  0
SECTION
  2
HEADER
  9
$ACADVER
  1
AC1014
  9
$ACADMAINTVER
 70
     9
  9
$DWGCODEPAGE
  3
ANSI_1252
  9
$INSBASE
 10
0.0
 20
0.0
 30
0.0
  9
$EXTMIN
 10
1.000000000000000E+20
 20
1.000000000000000E+20
 30
1.000000000000000E+20
  9
$EXTMAX
 10
-1.000000000000000E+20
 20
-1.000000000000000E+20
 30
-1.000000000000000E+20
  9
$LIMMIN
 10
0.0
 20
0.0
  9
$LIMMAX
 10
420.0
 20
297.0
  9
$ORTHOMODE
 70
     0
  9
$REGENMODE
 70
     1
  9
$FILLMODE
 70
     1
  9
$QTEXTMODE
 70
     0
  9
$MIRRTEXT
 70
     1
  9
$DRAGMODE
 70
     2
  9
$LTSCALE
 40
12.7
  9
$OSMODE
 70
    23
  9
$ATTMODE
 70
     1
  9
$TEXTSIZE
 40
3.5
  9
$TRACEWID
 40
1.0
  9
$TEXTSTYLE
  7
ONSHAPE-STANDARD
  9
$CLAYER
  8
0
  9
$CELTYPE
  6
BYLAYER
  9
$CECOLOR
 62
   256
  9
$CELTSCALE
 40
1.0
  9
$DELOBJ
 70
     1
  9
$DISPSILH
 70
     0
  9
$DIMSCALE
 40
1.0
  9
$DIMASZ
 40
2.5
  9
$DIMEXO
 40
0.625
  9
$DIMDLI
 40
3.75
  9
$DIMRND
 40
0.0
  9
$DIMDLE
 40
0.0
  9
$DIMEXE
 40
1.25
  9
$DIMTP
 40
0.0
  9
$DIMTM
 40
0.0
  9
$DIMTXT
 40
3.5
  9
$DIMCEN
 40
2.5
  9
$DIMTSZ
 40
0.0
  9
$DIMTOL
 70
     0
  9
$DIMLIM
 70
     0
  9
$DIMTIH
 70
     0
  9
$DIMTOH
 70
     0
  9
$DIMSE1
 70
     0
  9
$DIMSE2
 70
     0
  9
$DIMTAD
 70
     1
  9
$DIMZIN
 70
     8
  9
$DIMBLK
  1

  9
$DIMASO
 70
     1
  9
$DIMSHO
 70
     1
  9
$DIMPOST
  1

  9
$DIMAPOST
  1

  9
$DIMALT
 70
     0
  9
$DIMALTD
 70
     3
  9
$DIMALTF
 40
0.03937
  9
$DIMLFAC
 40
1.0
  9
$DIMTOFL
 70
     1
  9
$DIMTVP
 40
0.0
  9
$DIMTIX
 70
     0
  9
$DIMSOXD
 70
     0
  9
$DIMSAH
 70
     0
  9
$DIMBLK1
  1

  9
$DIMBLK2
  1

  9
$DIMSTYLE
  2
ONSHAPE-ISO-25
  9
$DIMCLRD
 70
     7
  9
$DIMCLRE
 70
     7
  9
$DIMCLRT
 70
     7
  9
$DIMTFAC
 40
1.0
  9
$DIMGAP
 40
0.625
  9
$DIMJUST
 70
     0
  9
$DIMSD1
 70
     0
  9
$DIMSD2
 70
     0
  9
$DIMTOLJ
 70
     0
  9
$DIMTZIN
 70
     8
  9
$DIMALTZ
 70
     8
  9
$DIMALTTZ
 70
     0
  9
$DIMFIT
 70
     3
  9
$DIMUPT
 70
     1
  9
$DIMUNIT
 70
     2
  9
$DIMDEC
 70
     2
  9
$DIMTDEC
 70
     2
  9
$DIMALTU
 70
     2
  9
$DIMALTTD
 70
     3
  9
$DIMTXSTY
  7
ONSHAPE-STANDARD-DIMENSION
  9
$DIMAUNIT
 70
     0
  9
$LUNITS
 70
     2
  9
$LUPREC
 70
     4
  9
$SKETCHINC
 40
1.0
  9
$FILLETRAD
 40
10.0
  9
$AUNITS
 70
     0
  9
$AUPREC
 70
     0
  9
$MENU
  1
.
  9
$ELEVATION
 40
0.0
  9
$PELEVATION
 40
0.0
  9
$THICKNESS
 40
0.0
  9
$LIMCHECK
 70
     0
  9
$CHAMFERA
 40
0.0
  9
$CHAMFERB
 40
0.0
  9
$CHAMFERC
 40
0.0
  9
$CHAMFERD
 40
0.0
  9
$SKPOLY
 70
     0
  9
$TDCREATE
 40
2458999.041041655
  9
$TDUPDATE
 40
2458999.041041655
  9
$TDINDWG
 40
0.0
  9
$TDUSRTIMER
 40
0.0
  9
$USRTIMER
 70
     1
  9
$ANGBASE
 50
0.0
  9
$ANGDIR
 70
     0
  9
$PDMODE
 70
     0
  9
$PDSIZE
 40
0.0
  9
$PLINEWID
 40
0.0
  9
$COORDS
 70
     1
  9
$SPLFRAME
 70
     0
  9
$SPLINETYPE
 70
     6
  9
$SPLINESEGS
 70
     8
  9
$ATTDIA
 70
     0
  9
$ATTREQ
 70
     1
  9
$HANDLING
 70
     1
  9
$HANDSEED
  5
176
  9
$SURFTAB1
 70
     6
  9
$SURFTAB2
 70
     6
  9
$SURFTYPE
 70
     6
  9
$SURFU
 70
     6
  9
$SURFV
 70
     6
  9
$UCSNAME
  2

  9
$UCSORG
 10
0.0
 20
0.0
 30
0.0
  9
$UCSXDIR
 10
1.0
 20
0.0
 30
0.0
  9
$UCSYDIR
 10
0.0
 20
1.0
 30
0.0
  9
$PUCSNAME
  2

  9
$PUCSORG
 10
0.0
 20
0.0
 30
0.0
  9
$PUCSXDIR
 10
1.0
 20
0.0
 30
0.0
  9
$PUCSYDIR
 10
0.0
 20
1.0
 30
0.0
  9
$USERI1
 70
     0
  9
$USERI2
 70
     0
  9
$USERI3
 70
     0
  9
$USERI4
 70
     0
  9
$USERI5
 70
     0
  9
$USERR1
 40
0.0
  9
$USERR2
 40
0.0
  9
$USERR3
 40
0.0
  9
$USERR4
 40
0.0
  9
$USERR5
 40
0.0
  9
$WORLDVIEW
 70
     1
  9
$SHADEDGE
 70
     3
  9
$SHADEDIF
 70
    70
  9
$TILEMODE
 70
     1
  9
$MAXACTVP
 70
    64
  9
$PINSBASE
 10
0.0
 20
0.0
 30
0.0
  9
$PLIMCHECK
 70
     0
  9
$PEXTMIN
 10
1.000000000000000E+20
 20
1.000000000000000E+20
 30
1.000000000000000E+20
  9
$PEXTMAX
 10
-1.000000000000000E+20
 20
-1.000000000000000E+20
 30
-1.000000000000000E+20
  9
$PLIMMIN
 10
0.0
 20
0.0
  9
$PLIMMAX
 10
420.0
 20
297.0
  9
$UNITMODE
 70
     0
  9
$VISRETAIN
 70
     1
  9
$PLINEGEN
 70
     0
  9
$PSLTSCALE
 70
     1
  9
$TREEDEPTH
 70
  3020
  9
$PICKSTYLE
 70
     1
  9
$CMLSTYLE
  2
STANDARD
  9
$CMLJUST
 70
     0
  9
$CMLSCALE
 40
20.0
  9
$PROXYGRAPHICS
 70
     1
  9
$MEASUREMENT
 70
     1
  0
ENDSEC
  0
SECTION
  2
CLASSES
  0
CLASS
  1
ACDBDICTIONARYWDFLT
  2
AcDbDictionaryWithDefault
  3
ObjectDBX Classes
 90
        0
280
     0
281
     0
  0
CLASS
  1
VISUALSTYLE
  2
AcDbVisualStyle
  3
ObjectDBX Classes
 90
     4095
280
     0
281
     0
  0
CLASS
  1
MATERIAL
  2
AcDbMaterial
  3
ObjectDBX Classes
 90
     1153
280
     0
281
     0
  0
CLASS
  1
SCALE
  2
AcDbScale
  3
ObjectDBX Classes
 90
     1153
280
     0
281
     0
  0
CLASS
  1
SUN
  2
AcDbSun
  3
SCENEOE
 90
     1153
280
     0
281
     0
  0
CLASS
  1
TABLESTYLE
  2
AcDbTableStyle
  3
ObjectDBX Classes
 90
     4095
280
     0
281
     0
  0
CLASS
  1
DICTIONARYVAR
  2
AcDbDictionaryVar
  3
ObjectDBX Classes
 90
        0
280
     0
281
     0
  0
CLASS
  1
XRECORD
  2
AcDbXrecord
  3
ObjectDBX Classes
 90
        0
280
     0
281
     0
  0
CLASS
  1
LWPOLYLINE
  2
AcDbPolyline
  3
ObjectDBX Classes
 90
        0
280
     0
281
     1
  0
CLASS
  1
HATCH
  2
AcDbHatch
  3
ObjectDBX Classes
 90
        0
280
     0
281
     1
  0
CLASS
  1
ACDBPLACEHOLDER
  2
AcDbPlaceHolder
  3
ObjectDBX Classes
 90
        0
280
     0
281
     0
  0
CLASS
  1
LAYOUT
  2
AcDbLayout
  3
ObjectDBX Classes
 90
        0
280
     0
281
     0
  0
ENDSEC
  0
SECTION
  2
TABLES
  0
TABLE
  2
VPORT
  5
8
330
0
100
AcDbSymbolTable
 70
     1
  0
VPORT
  5
29
330
8
100
AcDbSymbolTableRecord
100
AcDbViewportTableRecord
  2
*ACTIVE
 70
     0
 10
0.0
 20
0.0
 11
1.0
 21
1.0
 12
385.5010526315789
 22
214.1873684210527
 13
0.0
 23
0.0
 14
10.0
 24
10.0
 15
10.0
 25
10.0
 16
0.0
 26
0.0
 36
1.0
 17
0.0
 27
0.0
 37
0.0
 40
238.4349911371937
 41
1.095278256473943
 42
50.0
 43
0.0
 44
0.0
 50
0.0
 51
0.0
 71
     0
 72
   100
 73
     1
 74
     3
 75
     0
 76
     0
 77
     0
 78
     0
  0
ENDTAB
  0
TABLE
  2
LTYPE
  5
5
330
0
100
AcDbSymbolTable
 70
     1
  0
LTYPE
  5
14
330
5
100
AcDbSymbolTableRecord
100
AcDbLinetypeTableRecord
  2
BYBLOCK
 70
     0
  3

 72
    65
 73
     0
 40
0.0
  0
LTYPE
  5
15
330
5
100
AcDbSymbolTableRecord
100
AcDbLinetypeTableRecord
  2
BYLAYER
 70
     0
  3

 72
    65
 73
     0
 40
0.0
  0
LTYPE
  5
16
330
5
100
AcDbSymbolTableRecord
100
AcDbLinetypeTableRecord
  2
CONTINUOUS
 70
     0
  3
Solid line
 72
    65
 73
     0
 40
0.0
  0
ENDTAB
  0
TABLE
  2
LAYER
  5
2
330
0
100
AcDbSymbolTable
 70
     3
  0
LAYER
  5
10
330
2
100
AcDbSymbolTableRecord
100
AcDbLayerTableRecord
  2
0
 70
     0
 62
     7
  6
CONTINUOUS
  0
LAYER
  5
74
330
2
100
AcDbSymbolTableRecord
100
AcDbLayerTableRecord
  2
ANNOTATION_TEXT
 70
     0
 62
     7
  6
CONTINUOUS
  0
LAYER
  5
77
330
2
100
AcDbSymbolTableRecord
100
AcDbLayerTableRecord
  2
VISIBLE
 70
     0
 62
     7
  6
CONTINUOUS
  0
ENDTAB
  0
TABLE
  2
STYLE
  5
3
330
0
100
AcDbSymbolTable
 70
    27
  0
STYLE
  5
11
330
3
100
AcDbSymbolTableRecord
100
AcDbTextStyleTableRecord
  2
STANDARD
 70
     0
 40
0.0
 41
1.0
 50
0.0
 71
     0
 42
3.5
  3
txt
  4

  0
STYLE
  5
6E
330
3
100
AcDbSymbolTableRecord
100
AcDbTextStyleTableRecord
  2
ONSHAPE-STANDARD
 70
     0
 40
0.0
 41
1.0
 50
0.0
 71
     0
 42
3.5
  3
NotoSans-Regular.ttf
  4

1001
ACAD
1000
Noto Sans
1071
        0
  0
STYLE
  5
70
330
3
100
AcDbSymbolTableRecord
100
AcDbTextStyleTableRecord
  2
ONSHAPE-STANDARD-DIMENSION
 70
     0
 40
0.0
 41
1.0
 50
0.0
 71
     0
 42
3.5
  3

  4

1001
ACAD
1000
Noto Sans
1071
        0
  0
STYLE
  5
76
330
3
100
AcDbSymbolTableRecord
100
AcDbTextStyleTableRecord
  2
ONSHAPE-STANDARD-VIEW-LABE
 70
     0
 40
3.5
 41
1.0
 50
0.0
 71
     0
 42
3.5
  3
NotoSans-Regular.ttf
  4

1001
ACAD
1000
Noto Sans
1071
        0
  0
STYLE
  5
106
330
3
100
AcDbSymbolTableRecord
100
AcDbTextStyleTableRecord
  2
ONSHAPE-STANDARD-BOLD
 70
     0
 40
0.0
 41
1.0
 50
0.0
 71
     0
 42
3.5
  3
NotoSans-Bold.ttf
  4

1001
ACAD
1000
Noto Sans
1071
 33554432
  0
STYLE
  5
107
330
3
100
AcDbSymbolTableRecord
100
AcDbTextStyleTableRecord
  2
ONSHAPE-STANDARD-FIELDS
 70
     0
 40
0.0
 41
1.0
 50
0.0
 71
     0
 42
3.5
  3

  4

1001
ACAD
1000
Noto Sans
1071
        0
  0
STYLE
  5
108
330
3
100
AcDbSymbolTableRecord
100
AcDbTextStyleTableRecord
  2
ONSHAPE-STANDARD-TCFIELDS
 70
     0
 40
0.0
 41
1.0
 50
0.0
 71
     0
 42
3.5
  3
NotoSansTC-Regular.otf
  4

1001
ACAD
1000
Noto Sans TC
1071
        0
  0
STYLE
  5
109
330
3
100
AcDbSymbolTableRecord
100
AcDbTextStyleTableRecord
  2
ONSHAPE-STANDARD-SCFIELDS
 70
     0
 40
0.0
 41
1.0
 50
0.0
 71
     0
 42
3.5
  3
NotoSansSC-Regular.otf
  4

1001
ACAD
1000
Noto Sans SC
1071
        0
  0
STYLE
  5
10A
330
3
100
AcDbSymbolTableRecord
100
AcDbTextStyleTableRecord
  2
ONSHAPE-STANDARD-KOREANFIE
 70
     0
 40
0.0
 41
1.0
 50
0.0
 71
     0
 42
3.5
  3
NotoSansKR-Regular.otf
  4

1001
ACAD
1000
Noto Sans KR
1071
        0
  0
STYLE
  5
10C
330
3
100
AcDbSymbolTableRecord
100
AcDbTextStyleTableRecord
  2
TTFSTYLE
 70
     0
 40
0.0
 41
1.0
 50
0.0
 71
     0
 42
3.5
  3
Verdana.ttf
  4

1001
ACAD
1000
Verdana
1071
       34
  0
STYLE
  5
10D
330
3
100
AcDbSymbolTableRecord
100
AcDbTextStyleTableRecord
  2
ONSHAPE-STANDARD-GTOLERANC
 70
     0
 40
0.0
 41
1.0
 50
0.0
 71
     0
 42
3.5
  3

  4

1001
ACAD
1000
Noto Sans
1071
        0
  0
STYLE
  5
10E
330
3
100
AcDbSymbolTableRecord
100
AcDbTextStyleTableRecord
  2
ONSHAPE-STANDARD-TABLE-DAT
 70
     0
 40
0.0
 41
1.0
 50
0.0
 71
     0
 42
3.5
  3
NotoSans-Regular.ttf
  4

1001
ACAD
1000
Noto Sans
1071
        0
  0
STYLE
  5
10F
330
3
100
AcDbSymbolTableRecord
100
AcDbTextStyleTableRecord
  2
ONSHAPE-STANDARD-TABLE-TIT
 70
     0
 40
0.0
 41
1.0
 50
0.0
 71
     0
 42
3.5
  3
NotoSans-Bold.ttf
  4

1001
ACAD
1000
Noto Sans
1071
 33554432
  0
STYLE
  5
110
330
3
100
AcDbSymbolTableRecord
100
AcDbTextStyleTableRecord
  2
ONSHAPE-STANDARD-TABLE-HEA
 70
     0
 40
0.0
 41
1.0
 50
0.0
 71
     0
 42
3.5
  3
NotoSans-Bold.ttf
  4

1001
ACAD
1000
Noto Sans
1071
 33554432
  0
STYLE
  5
111
330
3
100
AcDbSymbolTableRecord
100
AcDbTextStyleTableRecord
  2
ONSHAPE-STANDARD-BOMTABLE-
 70
     0
 40
0.0
 41
1.0
 50
0.0
 71
     0
 42
3.5
  3
NotoSans-Regular.ttf
  4

1001
ACAD
1000
Noto Sans
1071
        0
  0
STYLE
  5
112
330
3
100
AcDbSymbolTableRecord
100
AcDbTextStyleTableRecord
  2
ONSHAPE-STANDARD-BOMTABLE0
 70
     0
 40
0.0
 41
1.0
 50
0.0
 71
     0
 42
3.5
  3
NotoSans-Bold.ttf
  4

1001
ACAD
1000
Noto Sans
1071
 33554432
  0
STYLE
  5
113
330
3
100
AcDbSymbolTableRecord
100
AcDbTextStyleTableRecord
  2
ONSHAPE-STANDARD-BOMTABLE1
 70
     0
 40
0.0
 41
1.0
 50
0.0
 71
     0
 42
3.5
  3
NotoSans-Bold.ttf
  4

1001
ACAD
1000
Noto Sans
1071
 33554432
  0
STYLE
  5
114
330
3
100
AcDbSymbolTableRecord
100
AcDbTextStyleTableRecord
  2
ONSHAPE-STANDARD-NOTESTYLE
 70
     0
 40
3.5
 41
1.0
 50
0.0
 71
     0
 42
3.5
  3
Noto Sans
  4

1001
ACAD
1000
Noto Sans
1071
        0
  0
STYLE
  5
116
330
3
100
AcDbSymbolTableRecord
100
AcDbTextStyleTableRecord
  2
ONSHAPE-STANDARD-HOLE-CALL
 70
     0
 40
3.5
 41
1.0
 50
0.0
 71
     0
 42
3.5
  3
Noto Sans
  4

1001
ACAD
1000
Noto Sans
1071
        0
  0
STYLE
  5
117
330
3
100
AcDbSymbolTableRecord
100
AcDbTextStyleTableRecord
  2
ONSHAPE-STANDARD-HOLETABLE
 70
     0
 40
0.0
 41
1.0
 50
0.0
 71
     0
 42
3.5
  3
NotoSans-Regular.ttf
  4

1001
ACAD
1000
Noto Sans
1071
        0
  0
STYLE
  5
118
330
3
100
AcDbSymbolTableRecord
100
AcDbTextStyleTableRecord
  2
ONSHAPE-STANDARD-HOLETABL0
 70
     0
 40
0.0
 41
1.0
 50
0.0
 71
     0
 42
3.5
  3
NotoSans-Bold.ttf
  4

1001
ACAD
1000
Noto Sans
1071
 33554432
  0
STYLE
  5
119
330
3
100
AcDbSymbolTableRecord
100
AcDbTextStyleTableRecord
  2
ONSHAPE-STANDARD-HOLETABL1
 70
     0
 40
0.0
 41
1.0
 50
0.0
 71
     0
 42
3.5
  3
NotoSans-Bold.ttf
  4

1001
ACAD
1000
Noto Sans
1071
 33554432
  0
STYLE
  5
11A
330
3
100
AcDbSymbolTableRecord
100
AcDbTextStyleTableRecord
  2
ONSHAPE-STANDARD-HOLE-TAG
 70
     0
 40
3.5
 41
1.0
 50
0.0
 71
     0
 42
3.5
  3
Noto Sans
  4

1001
ACAD
1000
Noto Sans
1071
        0
  0
STYLE
  5
11B
330
3
100
AcDbSymbolTableRecord
100
AcDbTextStyleTableRecord
  2
ONSHAPE-STANDARD-REVISIONT
 70
     0
 40
0.0
 41
1.0
 50
0.0
 71
     0
 42
3.5
  3
NotoSans-Regular.ttf
  4

1001
ACAD
1000
Noto Sans
1071
        0
  0
STYLE
  5
11C
330
3
100
AcDbSymbolTableRecord
100
AcDbTextStyleTableRecord
  2
ONSHAPE-STANDARD-REVISION0
 70
     0
 40
0.0
 41
1.0
 50
0.0
 71
     0
 42
3.5
  3
NotoSans-Bold.ttf
  4

1001
ACAD
1000
Noto Sans
1071
 33554432
  0
STYLE
  5
11D
330
3
100
AcDbSymbolTableRecord
100
AcDbTextStyleTableRecord
  2
ONSHAPE-STANDARD-REVISION1
 70
     0
 40
0.0
 41
1.0
 50
0.0
 71
     0
 42
3.5
  3
NotoSans-Bold.ttf
  4

1001
ACAD
1000
Noto Sans
1071
 33554432
  0
STYLE
  5
11E
330
3
100
AcDbSymbolTableRecord
100
AcDbTextStyleTableRecord
  2
ONSHAPE-STANDARD-REVISION-
 70
     0
 40
3.5
 41
1.0
 50
0.0
 71
     0
 42
3.5
  3
Noto Sans
  4

1001
ACAD
1000
Noto Sans
1071
        0
  0
ENDTAB
  0
TABLE
  2
VIEW
  5
6
330
0
100
AcDbSymbolTable
 70
     0
  0
ENDTAB
  0
TABLE
  2
UCS
  5
7
330
0
100
AcDbSymbolTable
 70
     0
  0
ENDTAB
  0
TABLE
  2
APPID
  5
9
330
0
100
AcDbSymbolTable
 70
     1
  0
APPID
  5
12
330
9
100
AcDbSymbolTableRecord
100
AcDbRegAppTableRecord
  2
ACAD
 70
     0
  0
ENDTAB
  0
TABLE
  2
DIMSTYLE
  5
A
330
0
100
AcDbSymbolTable
 70
    18
  0
DIMSTYLE
105
27
330
A
100
AcDbSymbolTableRecord
100
AcDbDimStyleTableRecord
  2
ISO-25
 70
     0
  3

  4

  5

  6

  7

 40
1.0
 41
2.5
 42
0.625
 43
3.75
 44
1.25
 45
0.0
 46
0.0
 47
0.0
 48
0.0
140
2.5
141
2.5
142
0.0
143
0.03937007874016
144
1.0
145
0.0
146
1.0
147
0.625
 71
     0
 72
     0
 73
     0
 74
     0
 75
     0
 76
     0
 77
     1
 78
     8
170
     0
171
     3
172
     1
173
     0
174
     0
175
     0
176
     0
177
     0
178
     0
270
     2
271
     2
272
     2
273
     2
274
     3
340
11
275
     0
280
     0
281
     0
282
     0
283
     0
284
     8
285
     0
286
     0
287
     3
288
     0
  0
DIMSTYLE
105
6F
330
A
100
AcDbSymbolTableRecord
100
AcDbDimStyleTableRecord
  2
ONSHAPE-ISO-25
 70
     0
  3

  4

  5

  6

  7

 40
1.0
 41
2.5
 42
0.625
 43
3.75
 44
1.25
 45
0.0
 46
0.0
 47
0.0
 48
0.0
140
3.5
141
2.5
142
0.0
143
0.03937
144
1.0
145
0.0
146
1.0
147
0.625
 71
     0
 72
     0
 73
     0
 74
     0
 75
     0
 76
     0
 77
     1
 78
     8
170
     0
171
     3
172
     1
173
     0
174
     0
175
     0
176
     7
177
     7
178
     7
179
     1
270
     2
271
     2
272
     2
273
     2
274
     3
340
70
275
     0
280
     0
281
     0
282
     0
283
     0
284
     8
285
     8
286
     0
287
     3
288
     1
  0
DIMSTYLE
105
121
330
A
100
AcDbSymbolTableRecord
100
AcDbDimStyleTableRecord
  2
ISO
 70
     0
  3

  4
"
  5

  6

  7

 40
1.0
 41
3.5
 42
1.0
 43
10.0
 44
1.0
 45
0.0
 46
0.0
 47
0.1
 48
0.1
140
3.5
141
0.0
142
0.0
143
0.03937
144
1.0
145
0.0
146
0.71
147
1.5
 71
     0
 72
     0
 73
     0
 74
     0
 75
     0
 76
     0
 77
     1
 78
     8
170
     0
171
     3
172
     1
173
     0
174
     0
175
     0
176
     7
177
     7
178
     7
270
     2
271
     2
272
     3
273
     2
274
     3
340
11
275
     0
280
     0
281
     0
282
     0
283
     0
284
     8
285
     8
286
     0
287
     3
288
     1
  0
DIMSTYLE
105
122
330
A
100
AcDbSymbolTableRecord
100
AcDbDimStyleTableRecord
  2
ISO$3
 70
     0
  3

  4
"
  5

  6

  7

 40
1.0
 41
3.5
 42
1.0
 43
10.0
 44
1.0
 45
0.0
 46
0.0
 47
0.1
 48
0.1
140
3.5
141
0.0
142
0.0
143
0.03937
144
1.0
145
0.0
146
0.71
147
1.5
 71
     0
 72
     0
 73
     0
 74
     1
 75
     0
 76
     0
 77
     1
 78
     8
170
     0
171
     3
172
     0
173
     0
174
     0
175
     0
176
     7
177
     7
178
     7
270
     2
271
     2
272
     3
273
     2
274
     3
340
11
275
     0
280
     0
281
     0
282
     0
283
     0
284
     8
285
     8
286
     0
288
     1
  0
DIMSTYLE
105
123
330
A
100
AcDbSymbolTableRecord
100
AcDbDimStyleTableRecord
  2
ISO$4
 70
     0
  3

  4
"
  5

  6

  7

 40
1.0
 41
3.5
 42
1.0
 43
10.0
 44
1.0
 45
0.0
 46
0.0
 47
0.1
 48
0.1
140
3.5
141
0.0
142
0.0
143
0.03937
144
1.0
145
0.0
146
0.71
147
1.5
 71
     0
 72
     0
 73
     0
 74
     0
 75
     0
 76
     0
 77
     1
 78
     8
170
     0
171
     3
172
     1
173
     0
174
     0
175
     0
176
     7
177
     7
178
     7
270
     2
271
     2
272
     3
273
     2
274
     3
340
11
275
     0
280
     0
281
     0
282
     0
283
     0
284
     8
285
     8
286
     0
287
     3
288
     1
  0
DIMSTYLE
105
124
330
A
100
AcDbSymbolTableRecord
100
AcDbDimStyleTableRecord
  2
ISO$6
 70
     0
  3

  4
"
  5

  6

  7

 40
1.0
 41
0.5
 42
1.0
 43
10.0
 44
1.0
 45
0.0
 46
0.0
 47
0.1
 48
0.1
140
3.5
141
0.0
142
0.0
143
0.03937
144
1.0
145
0.0
146
0.71
147
1.5
 71
     0
 72
     0
 73
     0
 74
     0
 75
     0
 76
     0
 77
     0
 78
     8
170
     0
171
     3
172
     1
173
     0
174
     0
175
     0
176
     7
177
     7
178
     7
270
     2
271
     2
272
     3
273
     2
274
     3
340
11
275
     0
280
     0
281
     0
282
     0
283
     0
284
     8
285
     8
286
     0
287
     3
288
     1
  0
DIMSTYLE
105
125
330
A
100
AcDbSymbolTableRecord
100
AcDbDimStyleTableRecord
  2
ISO$7
 70
     0
  3

  4
"
  5

  6

  7

 40
1.0
 41
3.5
 42
1.0
 43
10.0
 44
1.0
 45
0.0
 46
0.0
 47
0.1
 48
0.1
140
3.5
141
0.0
142
0.0
143
0.03937
144
1.0
145
0.0
146
0.71
147
1.5
 71
     0
 72
     0
 73
     0
 74
     0
 75
     0
 76
     0
 77
     1
 78
     8
170
     0
171
     3
172
     1
173
     0
174
     0
175
     0
176
     7
177
     7
178
     7
270
     2
271
     2
272
     3
273
     2
274
     3
340
11
275
     0
280
     0
281
     0
282
     0
283
     0
284
     8
285
     8
286
     0
287
     3
288
     1
  0
DIMSTYLE
105
126
330
A
100
AcDbSymbolTableRecord
100
AcDbDimStyleTableRecord
  2
ISO$SF
 70
     0
  3

  4
"
  5

  6

  7

 40
1.0
 41
3.5
 42
1.0
 43
10.0
 44
1.0
 45
0.0
 46
0.0
 47
0.1
 48
0.1
140
3.5
141
0.0
142
0.0
143
0.03937
144
1.0
145
0.0
146
0.71
147
1.5
 71
     0
 72
     0
 73
     0
 74
     0
 75
     1
 76
     1
 77
     1
 78
     8
170
     0
171
     3
172
     1
173
     0
174
     0
175
     0
176
     7
177
     7
178
     7
270
     2
271
     2
272
     3
273
     2
274
     3
340
11
275
     0
280
     0
281
     0
282
     0
283
     0
284
     8
285
     8
286
     0
287
     3
288
     1
  0
DIMSTYLE
105
127
330
A
100
AcDbSymbolTableRecord
100
AcDbDimStyleTableRecord
  2
ISO$SH
 70
     0
  3

  4
"
  5

  6

  7

 40
1.0
 41
3.5
 42
1.0
 43
10.0
 44
1.0
 45
0.0
 46
0.0
 47
0.1
 48
0.1
140
3.5
141
0.0
142
0.0
143
0.03937
144
2.0
145
0.0
146
0.71
147
1.5
 71
     0
 72
     0
 73
     0
 74
     0
 75
     1
 76
     1
 77
     1
 78
     8
170
     0
171
     3
172
     1
173
     1
174
     0
175
     0
176
     7
177
     7
178
     7
270
     2
271
     2
272
     3
273
     2
274
     3
340
11
275
     0
280
     0
281
     0
282
     0
283
     0
284
     8
285
     8
286
     0
287
     3
288
     1
  0
DIMSTYLE
105
12A
330
A
100
AcDbSymbolTableRecord
100
AcDbDimStyleTableRecord
  2
ONSHAPE-ISO-25$0
 70
     0
  3

  4

  5

  6

  7

 40
1.0
 41
2.5
 42
0.625
 43
3.75
 44
1.25
 45
0.0
 46
0.0
 47
0.0
 48
0.0
140
3.5
141
2.5
142
0.0
143
0.03937
144
1.0
145
0.0
146
1.0
147
0.625
 71
     0
 72
     0
 73
     0
 74
     0
 75
     0
 76
     0
 77
     1
 78
     8
170
     0
171
     3
172
     1
173
     0
174
     0
175
     0
176
     7
177
     7
178
     7
179
     1
270
     2
271
     2
272
     2
273
     2
274
     3
340
70
275
     0
280
     0
281
     0
282
     0
283
     0
284
     8
285
     8
286
     0
287
     3
288
     1
  0
DIMSTYLE
105
12B
330
A
100
AcDbSymbolTableRecord
100
AcDbDimStyleTableRecord
  2
ONSHAPE-ISO-25$2
 70
     0
  3

  4

  5

  6

  7

 40
1.0
 41
2.5
 42
0.625
 43
3.75
 44
1.25
 45
0.0
 46
0.0
 47
0.0
 48
0.0
140
3.5
141
2.5
142
0.0
143
0.03937
144
1.0
145
0.0
146
1.0
147
0.625
 71
     0
 72
     0
 73
     0
 74
     0
 75
     0
 76
     0
 77
     1
 78
     8
170
     0
171
     3
172
     1
173
     0
174
     0
175
     0
176
     7
177
     7
178
     7
179
     1
270
     2
271
     2
272
     2
273
     2
274
     3
340
70
275
     0
280
     0
281
     0
282
     0
283
     0
284
     8
285
     8
286
     0
287
     3
288
     1
  0
DIMSTYLE
105
12C
330
A
100
AcDbSymbolTableRecord
100
AcDbDimStyleTableRecord
  2
ONSHAPE-ISO-25$3
 70
     0
  3

  4

  5

  6

  7

 40
1.0
 41
2.5
 42
0.625
 43
3.75
 44
1.25
 45
0.0
 46
0.0
 47
0.0
 48
0.0
140
3.5
141
0.0
142
0.0
143
0.03937
144
1.0
145
0.0
146
1.0
147
0.625
 71
     0
 72
     0
 73
     0
 74
     0
 75
     0
 76
     0
 77
     1
 78
     8
170
     0
171
     3
172
     1
173
     0
174
     0
175
     0
176
     7
177
     7
178
     7
179
     1
270
     2
271
     2
272
     2
273
     2
274
     3
340
70
275
     0
280
     0
281
     0
282
     0
283
     0
284
     8
285
     8
286
     0
287
     3
288
     1
  0
DIMSTYLE
105
12D
330
A
100
AcDbSymbolTableRecord
100
AcDbDimStyleTableRecord
  2
ONSHAPE-ISO-25$4
 70
     0
  3

  4

  5

  6

  7

 40
1.0
 41
2.5
 42
0.625
 43
3.75
 44
1.25
 45
0.0
 46
0.0
 47
0.0
 48
0.0
140
3.5
141
0.0
142
0.0
143
0.03937
144
1.0
145
0.0
146
1.0
147
0.625
 71
     0
 72
     0
 73
     0
 74
     0
 75
     0
 76
     0
 77
     1
 78
     8
170
     0
171
     3
172
     1
173
     0
174
     0
175
     0
176
     7
177
     7
178
     7
179
     1
270
     2
271
     2
272
     2
273
     2
274
     3
340
70
275
     0
280
     0
281
     0
282
     0
283
     0
284
     8
285
     8
286
     0
287
     3
288
     1
  0
DIMSTYLE
105
12E
330
A
100
AcDbSymbolTableRecord
100
AcDbDimStyleTableRecord
  2
ONSHAPE-ISO-25$6
 70
     0
  3

  4

  5

  6

  7

 40
1.0
 41
0.5
 42
0.625
 43
3.75
 44
1.25
 45
0.0
 46
0.0
 47
0.0
 48
0.0
140
3.5
141
2.5
142
0.0
143
0.03937
144
1.0
145
0.0
146
1.0
147
0.625
 71
     0
 72
     0
 73
     0
 74
     0
 75
     0
 76
     0
 77
     1
 78
     8
170
     0
171
     3
172
     1
173
     0
174
     0
175
     0
176
     7
177
     7
178
     7
179
     1
270
     2
271
     2
272
     2
273
     2
274
     3
340
70
275
     0
280
     0
281
     0
282
     0
283
     0
284
     8
285
     8
286
     0
287
     3
288
     1
  0
DIMSTYLE
105
12F
330
A
100
AcDbSymbolTableRecord
100
AcDbDimStyleTableRecord
  2
ONSHAPE-ISO-25$7
 70
     0
  3

  4

  5

  6

  7

 40
1.0
 41
2.5
 42
0.625
 43
3.75
 44
1.25
 45
0.0
 46
0.0
 47
0.0
 48
0.0
140
3.5
141
2.5
142
0.0
143
0.03937
144
1.0
145
0.0
146
1.0
147
0.625
 71
     0
 72
     0
 73
     0
 74
     0
 75
     0
 76
     0
 77
     1
 78
     8
170
     0
171
     3
172
     1
173
     0
174
     0
175
     0
176
     7
177
     7
178
     7
179
     1
270
     2
271
     2
272
     2
273
     2
274
     3
340
70
275
     0
280
     0
281
     0
282
     0
283
     0
284
     8
285
     8
286
     0
287
     3
288
     1
  0
DIMSTYLE
105
130
330
A
100
AcDbSymbolTableRecord
100
AcDbDimStyleTableRecord
  2
ONSHAPE-STANDARD-GTOLERANC
 70
     0
  3

  4

  5

  6

  7

 40
1.0
 41
2.5
 42
0.625
 43
3.75
 44
1.25
 45
0.0
 46
0.0
 47
0.0
 48
0.0
140
3.5
141
2.5
142
0.0
143
0.03937
144
1.0
145
0.0
146
1.0
147
0.625
 71
     0
 72
     0
 73
     0
 74
     0
 75
     0
 76
     0
 77
     1
 78
     8
170
     0
171
     3
172
     1
173
     0
174
     0
175
     0
176
     7
177
     7
178
     7
179
     1
270
     2
271
     2
272
     2
273
     2
274
     3
340
10D
275
     0
280
     0
281
     0
282
     0
283
     0
284
     8
285
     8
286
     0
287
     3
288
     1
  0
DIMSTYLE
105
132
330
A
100
AcDbSymbolTableRecord
100
AcDbDimStyleTableRecord
  2
ONSHAPE-ORDINATESTYLE
 70
     0
  3

  4

  5

  6

  7

 40
1.0
 41
2.5
 42
0.625
 43
3.75
 44
1.25
 45
0.0
 46
0.0
 47
0.0
 48
0.0
140
3.5
141
2.5
142
0.0
143
0.03937
144
1.0
145
0.0
146
1.0
147
0.625
 71
     0
 72
     0
 73
     0
 74
     0
 75
     0
 76
     0
 77
     1
 78
     8
170
     0
171
     3
172
     1
173
     0
174
     0
175
     0
176
     7
177
     7
178
     7
179
     1
270
     2
271
     2
272
     2
273
     2
274
     3
340
70
275
     0
280
     0
281
     0
282
     0
283
     0
284
     8
285
     8
286
     0
287
     3
288
     1
  0
DIMSTYLE
105
133
330
A
100
AcDbSymbolTableRecord
100
AcDbDimStyleTableRecord
  2
ONSHAPE-CHAMFERDIMSTYLE
 70
     0
  3

  4

  5

  6

  7

 40
1.0
 41
2.5
 42
0.625
 43
3.75
 44
1.25
 45
0.0
 46
0.0
 47
0.0
 48
0.0
140
3.5
141
2.5
142
0.0
143
0.03937
144
1.0
145
0.0
146
1.0
147
0.625
 71
     0
 72
     0
 73
     0
 74
     0
 75
     0
 76
     0
 77
     1
 78
     8
170
     0
171
     3
172
     1
173
     0
174
     0
175
     0
176
     7
177
     7
178
     7
179
     1
270
     2
271
     2
272
     2
273
     2
274
     3
340
70
275
     0
280
     0
281
     0
282
     0
283
     0
284
     8
285
     8
286
     0
287
     3
288
     1
  0
ENDTAB
  0
TABLE
  2
BLOCK_RECORD
  5
1
330
0
100
AcDbSymbolTable
 70
     1
  0
BLOCK_RECORD
  5
1F
330
1
100
AcDbSymbolTableRecord
100
AcDbBlockTableRecord
  2
*MODEL_SPACE
  0
BLOCK_RECORD
  5
1B
330
1
100
AcDbSymbolTableRecord
100
AcDbBlockTableRecord
  2
*PAPER_SPACE
  0
ENDTAB
  0
ENDSEC
  0
SECTION
  2
BLOCKS
  0
BLOCK
  5
20
330
1F
100
AcDbEntity
  8
0
100
AcDbBlockBegin
  2
*MODEL_SPACE
 70
     0
 10
0.0
 20
0.0
 30
0.0
  3
*MODEL_SPACE
  1

  0
ENDBLK
  5
21
330
1F
100
AcDbEntity
  8
0
100
AcDbBlockEnd
  0
BLOCK
  5
1C
330
1B
100
AcDbEntity
 67
     1
  8
0
100
AcDbBlockBegin
  2
*PAPER_SPACE
 70
     0
 10
0.0
 20
0.0
 30
0.0
  3
*PAPER_SPACE
  1

  0
ENDBLK
  5
1D
330
1B
100
AcDbEntity
 67
     1
  8
0
100
AcDbBlockEnd
  0
ENDSEC
  0
SECTION
  2
ENTITIES
  0
MTEXT
  5
71
102
{ACAD_XDICTIONARY
360
72
102
}
330
1F
100
AcDbEntity
  8
ANNOTATION_TEXT
 62
     7
 60
     1
100
AcDbMText
 10
385.5010526315789
 20
82.75586975698093
 30
0.0
 40
3.5
 41
0.0
 71
     2
 72
     1
  1

  7
ONSHAPE-STANDARD-VIEW-LABE
1001
ACAD
1000
ACAD_MTEXT_DEFINED_HEIGHT_BEGIN
1070
    46
1040
3.5
1000
ACAD_MTEXT_DEFINED_HEIGHT_END
  0
ARC
  5
79
330
1F
100
AcDbEntity
  8
VISIBLE
100
AcDbCircle
 10
352.7695791957043
 20
306.7495801874048
 30
-0.0000000000000003
 40
4.6015181
100
AcDbArc
 50
29.03066737975559
 51
84.49205789211626
  0
ARC
  5
7A
330
1F
100
AcDbEntity
  8
VISIBLE
100
AcDbCircle
 10
352.7842431827087
 20
305.5332927853561
 30
-0.0000000000000003
 40
5.8122664
100
AcDbArc
 50
85.78688377943108
 51
101.6736570103618
  0
ARC
  5
7B
330
1F
100
AcDbEntity
  8
VISIBLE
100
AcDbCircle
 10
353.2879018169459
 20
303.1460714253448
 30
-0.0000000000000003
 40
8.2520255
100
AcDbArc
 50
101.7446001993148
 51
116.7148810505332
  0
ARC
  5
7C
330
1F
100
AcDbEntity
  8
VISIBLE
100
AcDbCircle
 10
353.0880361984076
 20
303.1322361554626
 30
-0.0000000000000001
 40
8.176621599999999
100
AcDbArc
 50
115.4201742030883
 51
134.7368141550423
  0
ARC
  5
7D
330
1F
100
AcDbEntity
  8
VISIBLE
100
AcDbCircle
 10
351.5764952354709
 20
304.6946245371668
 30
0.0000000000000001
 40
6.0029392
100
AcDbArc
 50
134.984687624537
 51
146.9753931314562
  0
ARC
  5
7E
330
1F
100
AcDbEntity
  8
VISIBLE
100
AcDbCircle
 10
349.9796398443771
 20
305.7237291572292
 30
0.0000000000000002
 40
4.1032229
100
AcDbArc
 50
146.8714214817263
 51
193.4361201615038
  0
ARC
  5
7F
330
1F
100
AcDbEntity
  8
VISIBLE
100
AcDbCircle
 10
349.9637104977991
 20
305.7250632538676
 30
0.0000000000000003
 40
4.088042600000001
100
AcDbArc
 50
193.5061826366523
 51
218.3443946692782
  0
ARC
  5
80
330
1F
100
AcDbEntity
  8
VISIBLE
100
AcDbCircle
 10
349.5544730210647
 20
305.4177235639772
 30
0.0000000000000003
 40
3.5764328
100
AcDbArc
 50
218.550101711961
 51
248.2775669024253
  0
ARC
  5
81
330
1F
100
AcDbEntity
  8
VISIBLE
100
AcDbCircle
 10
349.9348851356681
 20
306.7625086004517
 30
0.0000000000000003
 40
4.9686126
100
AcDbArc
 50
249.9420438758026
 51
276.7481119101692
  0
ARC
  5
82
330
1F
100
AcDbEntity
  8
VISIBLE
100
AcDbCircle
 10
348.9980687168343
 20
314.8416535521352
 30
0.0000000000000007
 40
13.101882
100
AcDbArc
 50
276.6649757628074
 51
282.7020110729624
  0
LINE
  5
83
330
1F
100
AcDbEntity
  8
VISIBLE
100
AcDbLine
 10
351.8789163615218
 20
302.0604161981097
 30
0.0
 11
354.1076721569625
 21
302.6164094642455
 31
0.0
  0
LINE
  5
84
330
1F
100
AcDbEntity
  8
VISIBLE
100
AcDbLine
 10
354.1076721569625
 20
302.6164094642455
 30
0.0
 11
355.7064847722793
 21
302.9854218174062
 31
0.0
  0
ARC
  5
85
330
1F
100
AcDbEntity
  8
VISIBLE
100
AcDbCircle
 10
356.7841137275245
 20
297.6587446099866
 30
0.0
 40
5.434590500000001
100
AcDbArc
 50
90.36187799660519
 51
101.4370236864658
  0
ARC
  5
86
330
1F
100
AcDbEntity
  8
VISIBLE
100
AcDbCircle
 10
356.8130617204462
 20
300.4812497035434
 30
0.0
 40
2.6127433
100
AcDbArc
 50
67.7636689062954
 51
91.38765945209596
  0
ARC
  5
87
330
1F
100
AcDbEntity
  8
VISIBLE
100
AcDbCircle
 10
356.9903111778268
 20
301.0434320373506
 30
0.0
 40
2.0258788
100
AcDbArc
 50
40.13417387101747
 51
66.38683196002573
  0
ARC
  5
88
330
1F
100
AcDbEntity
  8
VISIBLE
100
AcDbCircle
 10
356.7540443704781
 20
300.8487536688714
 30
0.0
 40
2.3320018
100
AcDbArc
 50
339.1285650190305
 51
40.04931206740505
  0
ARC
  5
89
330
1F
100
AcDbEntity
  8
VISIBLE
100
AcDbCircle
 10
355.4677046860102
 20
301.4211371874538
 30
0.0
 40
3.7386426
100
AcDbArc
 50
312.7648635364454
 51
337.955517552721
  0
ARC
  5
8A
330
1F
100
AcDbEntity
  8
VISIBLE
100
AcDbCircle
 10
353.539943479545
 20
303.4220945399796
 30
0.0
 40
6.5168172
100
AcDbArc
 50
295.397515282136
 51
313.2627289891228
  0
ARC
  5
8B
330
1F
100
AcDbEntity
  8
VISIBLE
100
AcDbCircle
 10
353.7021888206885
 20
302.7124446450825
 30
0.0
 40
5.8083098
100
AcDbArc
 50
272.5006966091063
 51
296.9543269744953
  0
ARC
  5
8C
330
1F
100
AcDbEntity
  8
VISIBLE
100
AcDbCircle
 10
353.7778999904042
 20
301.0104794446364
 30
0.0
 40
4.1046622
100
AcDbArc
 50
259.2094509794765
 51
272.4814375434181
  0
ARC
  5
8D
330
1F
100
AcDbEntity
  8
VISIBLE
100
AcDbCircle
 10
353.5665020532395
 20
299.8763999117843
 30
0.0
 40
2.9510612
100
AcDbArc
 50
242.5753914111413
 51
259.1189459253261
  0
ARC
  5
8E
330
1F
100
AcDbEntity
  8
VISIBLE
100
AcDbCircle
 10
353.8758068060146
 20
300.3895355816142
 30
0.0
 40
3.549195
100
AcDbArc
 50
228.0293348254634
 51
241.9586436774308
  0
ARC
  5
8F
330
1F
100
AcDbEntity
  8
VISIBLE
100
AcDbCircle
 10
355.1412069611449
 20
301.750324794445
 30
0.0
 40
5.4072486
100
AcDbArc
 50
214.6234189472259
 51
227.7031729543981
  0
LINE
  5
90
330
1F
100
AcDbEntity
  8
VISIBLE
100
AcDbLine
 10
350.6915594153401
 20
298.678033531759
 30
0.0
 11
349.0161146030433
 21
297.5769122109209
 31
0.0
  0
ARC
  5
91
330
1F
100
AcDbEntity
  8
VISIBLE
100
AcDbCircle
 10
353.6056209860221
 20
300.0832569255751
 30
0.0000000000000004
 40
5.2292765
100
AcDbArc
 50
208.6391007712236
 51
267.6276167176931
  0
ARC
  5
92
330
1F
100
AcDbEntity
  8
VISIBLE
100
AcDbCircle
 10
353.5474478527443
 20
301.234829888762
 30
0.0000000000000003
 40
6.378331800000001
100
AcDbArc
 50
268.577973054218
 51
284.8448787770125
  0
ARC
  5
93
330
1F
100
AcDbEntity
  8
VISIBLE
100
AcDbCircle
 10
352.3617062125122
 20
305.4667959806142
 30
0.0000000000000004
 40
10.7730161
100
AcDbArc
 50
285.1742143270038
 51
299.0266946811851
  0
ARC
  5
94
330
1F
100
AcDbEntity
  8
VISIBLE
100
AcDbCircle
 10
354.1300812572723
 20
302.6696804085569
 30
0.0000000000000001
 40
7.4715821
100
AcDbArc
 50
297.576827641403
 51
319.3211502175601
  0
ARC
  5
95
330
1F
100
AcDbEntity
  8
VISIBLE
100
AcDbCircle
 10
355.364966013473
 20
301.5630186823212
 30
-0.0000000000000001
 40
5.8138352
100
AcDbArc
 50
319.6596134559369
 51
332.5036738342688
  0
ARC
  5
96
330
1F
100
AcDbEntity
  8
VISIBLE
100
AcDbCircle
 10
356.469626882614
 20
300.9892324846821
 30
-0.0000000000000002
 40
4.5690441
100
AcDbArc
 50
332.4906167605839
 51
351.438508855461
  0
ARC
  5
97
330
1F
100
AcDbEntity
  8
VISIBLE
100
AcDbCircle
 10
356.4081300113983
 20
300.9930908621452
 30
-0.0000000000000003
 40
4.6304332
100
AcDbArc
 50
351.5045809792963
 51
12.9235281478466
  0
ARC
  5
98
330
1F
100
AcDbEntity
  8
VISIBLE
100
AcDbCircle
 10
356.960023382437
 20
301.1651175129364
 30
-0.0000000000000003
 40
4.0542871
100
AcDbArc
 50
12.2983384327177
 51
73.64229147333333
  0
ARC
  5
99
330
1F
100
AcDbEntity
  8
VISIBLE
100
AcDbCircle
 10
356.7941404686711
 20
300.2056711660276
 30
-0.0000000000000003
 40
5.022842900000001
100
AcDbArc
 50
74.90907485967949
 51
88.4837429882873
  0
ARC
  5
9A
330
1F
100
AcDbEntity
  8
VISIBLE
100
AcDbCircle
 10
356.6933136790709
 20
299.2236743069192
 30
-0.0000000000000003
 40
6.0076296
100
AcDbArc
 50
87.77027495259328
 51
99.25891136506537
  0
LINE
  5
9B
330
1F
100
AcDbEntity
  8
VISIBLE
100
AcDbLine
 10
355.7267096646542
 20
305.153032619306
 30
0.0
 11
354.1997878833139
 21
304.8372204203509
 31
0.0
  0
LINE
  5
9C
330
1F
100
AcDbEntity
  8
VISIBLE
100
AcDbLine
 10
354.1997878833139
 20
304.8372204203509
 30
0.0
 11
351.6198362119251
 21
304.163932505284
 31
0.0
  0
LINE
  5
9D
330
1F
100
AcDbEntity
  8
VISIBLE
100
AcDbLine
 10
351.6198362119251
 20
304.163932505284
 30
0.0
 11
350.7456677587422
 21
303.9831086044277
 31
0.0
  0
LINE
  5
9E
330
1F
100
AcDbEntity
  8
VISIBLE
100
AcDbLine
 10
350.7456677587422
 20
303.9831086044277
 30
0.0
 11
350.0440622991562
 21
303.8922038474306
 31
0.0
  0
LINE
  5
9F
330
1F
100
AcDbEntity
  8
VISIBLE
100
AcDbLine
 10
350.0440622991562
 20
303.8922038474306
 30
0.0
 11
349.5150193611468
 21
303.8912180512924
 31
0.0
  0
LINE
  5
A0
330
1F
100
AcDbEntity
  8
VISIBLE
100
AcDbLine
 10
349.5150193611468
 20
303.8912180512924
 30
0.0
 11
349.1398049754224
 21
303.9747245799388
 31
0.0
  0
ARC
  5
A1
330
1F
100
AcDbEntity
  8
VISIBLE
100
AcDbCircle
 10
349.7992020100006
 20
305.8068821443238
 30
0.0
 40
1.9472046
100
AcDbArc
 50
183.5115400407584
 51
250.2060983721937
  0
ARC
  5
A2
330
1F
100
AcDbEntity
  8
VISIBLE
100
AcDbCircle
 10
350.3163095312716
 20
305.7987190329795
 30
0.0
 40
2.4631632
100
AcDbArc
 50
150.330153797417
 51
182.5852350698757
  0
ARC
  5
A3
330
1F
100
AcDbEntity
  8
VISIBLE
100
AcDbCircle
 10
350.8991736269462
 20
305.4181046986243
 30
0.0
 40
3.1582957
100
AcDbArc
 50
134.1104029440291
 51
149.5646702918253
  0
ARC
  5
A4
330
1F
100
AcDbEntity
  8
VISIBLE
100
AcDbCircle
 10
352.5651486421874
 20
303.661042172564
 30
0.0
 40
5.5795215
100
AcDbArc
 50
123.276812795422
 51
133.8349742242465
  0
ARC
  5
A5
330
1F
100
AcDbEntity
  8
VISIBLE
100
AcDbCircle
 10
354.4176769912287
 20
300.8659549304091
 30
0.0
 40
8.9327633
100
AcDbArc
 50
115.6629795461475
 51
123.3739686539832
  0
ARC
  5
A6
330
1F
100
AcDbEntity
  8
VISIBLE
100
AcDbCircle
 10
353.0409889765882
 20
303.8199942419162
 30
0.0
 40
5.6740378
100
AcDbArc
 50
105.2044482338277
 51
116.0511292069474
  0
ARC
  5
A7
330
1F
100
AcDbEntity
  8
VISIBLE
100
AcDbCircle
 10
352.516544906207
 20
305.8373777329564
 30
0.0
 40
3.5898013
100
AcDbArc
 50
90.86718774691793
 51
105.5715592214066
  0
ARC
  5
A8
330
1F
100
AcDbEntity
  8
VISIBLE
100
AcDbCircle
 10
352.5002659712021
 20
306.7241759387462
 30
0.0
 40
2.7028598
100
AcDbArc
 50
73.27298576157419
 51
90.80665323754758
  0
ARC
  5
A9
330
1F
100
AcDbEntity
  8
VISIBLE
100
AcDbCircle
 10
352.4398750751823
 20
306.5610688630103
 30
0.0
 40
2.8764672
100
AcDbArc
 50
51.14527537818743
 51
73.05604196805473
  0
ARC
  5
AA
330
1F
100
AcDbEntity
  8
VISIBLE
100
AcDbCircle
 10
351.6181293506394
 20
305.5723598534526
 30
0.0
 40
4.161980499999999
100
AcDbArc
 50
33.75868870196741
 51
50.87461132470892
  0
LINE
  5
AB
330
1F
100
AcDbEntity
  8
VISIBLE
100
AcDbLine
 10
355.0783389506191
 20
307.8851570680401
 30
0.0
 11
356.7929629570114
 21
308.9825942447858
 31
0.0
  0
LINE
  5
AC
330
1F
100
AcDbEntity
  8
VISIBLE
100
AcDbLine
 10
330.2599556894277
 20
299.8062988840542
 30
0.0
 11
338.6982535856748
 21
295.6499360972902
 31
0.0
  0
LINE
  5
AD
330
1F
100
AcDbEntity
  8
VISIBLE
100
AcDbLine
 10
338.6982535856748
 20
295.6499360972902
 30
0.0
 11
337.2057121610515
 21
285.3740024358846
 31
0.0
  0
LINE
  5
AE
330
1F
100
AcDbEntity
  8
VISIBLE
100
AcDbLine
 10
337.2057121610515
 20
285.3740024358846
 30
0.0
 11
339.4443938102066
 21
286.5802460427965
 31
0.0
  0
LINE
  5
AF
330
1F
100
AcDbEntity
  8
VISIBLE
100
AcDbLine
 10
339.4443938102066
 20
286.5802460427965
 30
0.0
 11
340.437807617562
 21
294.8143909270373
 31
0.0
  0
LINE
  5
B0
330
1F
100
AcDbEntity
  8
VISIBLE
100
AcDbLine
 10
340.437807617562
 20
294.8143909270373
 30
0.0
 11
347.8130270223433
 21
291.0894223763502
 31
0.0
  0
LINE
  5
B1
330
1F
100
AcDbEntity
  8
VISIBLE
100
AcDbLine
 10
347.8130270223433
 20
291.0894223763502
 30
0.0
 11
350.1189639405928
 21
292.3319043820543
 31
0.0
  0
LINE
  5
B2
330
1F
100
AcDbEntity
  8
VISIBLE
100
AcDbLine
 10
350.1189639405928
 20
292.3319043820543
 30
0.0
 11
340.7742997442929
 21
296.9049212747634
 31
0.0
  0
LINE
  5
B3
330
1F
100
AcDbEntity
  8
VISIBLE
100
AcDbLine
 10
340.7742997442929
 20
296.9049212747634
 30
0.0
 11
342.1451441711208
 21
306.2102610679502
 31
0.0
  0
LINE
  5
B4
330
1F
100
AcDbEntity
  8
VISIBLE
100
AcDbLine
 10
342.1451441711208
 20
306.2102610679502
 30
0.0
 11
340.1178395830638
 21
305.117911381018
 31
0.0
  0
LINE
  5
B5
330
1F
100
AcDbEntity
  8
VISIBLE
100
AcDbLine
 10
340.1178395830638
 20
305.117911381018
 30
0.0
 11
339.0473382432982
 21
297.6480708588878
 31
0.0
  0
LINE
  5
B6
330
1F
100
AcDbEntity
  8
VISIBLE
100
AcDbLine
 10
339.0473382432982
 20
297.6480708588878
 30
0.0
 11
332.4794215474143
 21
301.0021886627451
 31
0.0
  0
LINE
  5
B7
330
1F
100
AcDbEntity
  8
VISIBLE
100
AcDbLine
 10
332.4794215474143
 20
301.0021886627451
 30
0.0
 11
330.2599556894277
 21
299.8062988840542
 31
0.0
  0
LINE
  5
B8
330
1F
100
AcDbEntity
  8
VISIBLE
100
AcDbLine
 10
321.6725114953386
 20
289.9970494782332
 30
0.0
 11
323.5483683088092
 21
290.7722429703857
 31
0.0
  0
ARC
  5
B9
330
1F
100
AcDbEntity
  8
VISIBLE
100
AcDbCircle
 10
326.0138190113962
 20
292.3867715478224
 30
0.0
 40
2.9470578
100
AcDbArc
 50
137.1840290148988
 51
213.2192426561941
  0
ARC
  5
BA
330
1F
100
AcDbEntity
  8
VISIBLE
100
AcDbCircle
 10
326.5050368788336
 20
291.7958802010411
 30
0.0
 40
3.7103196
100
AcDbArc
 50
117.6386213850382
 51
135.6459705667834
  0
ARC
  5
BB
330
1F
100
AcDbEntity
  8
VISIBLE
100
AcDbCircle
 10
326.2935186726246
 20
292.7068927058842
 30
0.0
 40
2.8149854
100
AcDbArc
 50
34.24109518901304
 51
122.4320564605235
  0
ARC
  5
BC
330
1F
100
AcDbEntity
  8
VISIBLE
100
AcDbCircle
 10
326.0541368897425
 20
292.6371773242806
 30
0.0
 40
3.0530768
100
AcDbArc
 50
8.538262368821496
 51
32.7947451145509
  0
ARC
  5
BD
330
1F
100
AcDbEntity
  8
VISIBLE
100
AcDbCircle
 10
323.8361884406429
 20
292.3540231253291
 30
0.0
 40
5.2887131
100
AcDbArc
 50
351.3236454865724
 51
8.004348123281352
  0
ARC
  5
BE
330
1F
100
AcDbEntity
  8
VISIBLE
100
AcDbCircle
 10
319.095261513615
 20
293.1010259210756
 30
0.0
 40
10.0881003
100
AcDbArc
 50
344.2146091199983
 51
351.1914718913185
  0
ARC
  5
BF
330
1F
100
AcDbEntity
  8
VISIBLE
100
AcDbCircle
 10
298.3478052519653
 20
299.2868296761102
 30
0.0
 40
31.7373695
100
AcDbArc
 50
337.0287740563018
 51
343.6576824336871
  0
LINE
  5
C0
330
1F
100
AcDbEntity
  8
VISIBLE
100
AcDbLine
 10
327.5684319288379
 20
286.9007245693315
 30
0.0
 11
327.0770134500505
 21
285.6358703442056
 31
0.0
  0
LINE
  5
C1
330
1F
100
AcDbEntity
  8
VISIBLE
100
AcDbLine
 10
327.0770134500505
 20
285.6358703442056
 30
0.0
 11
326.7058785087735
 21
284.5184774661856
 31
0.0
  0
LINE
  5
C2
330
1F
100
AcDbEntity
  8
VISIBLE
100
AcDbLine
 10
326.7058785087735
 20
284.5184774661856
 30
0.0
 11
326.4550269614592
 21
283.5485459783015
 31
0.0
  0
ARC
  5
C3
330
1F
100
AcDbEntity
  8
VISIBLE
100
AcDbCircle
 10
333.7017009955889
 20
281.9128012423009
 30
0.0000000000000004
 40
7.4289936
100
AcDbArc
 50
167.2801657672283
 51
184.592848317214
  0
ARC
  5
C4
330
1F
100
AcDbEntity
  8
VISIBLE
100
AcDbCircle
 10
329.8701855578237
 20
281.5462273218728
 30
0.0000000000000003
 40
3.5809077
100
AcDbArc
 50
183.6553442573203
 51
210.0740071655514
  0
LINE
  5
C5
330
1F
100
AcDbEntity
  8
VISIBLE
100
AcDbLine
 10
326.7713437754933
 20
279.7517692961368
 30
0.0
 11
336.0815673886813
 21
284.7682921753739
 31
0.0
  0
LINE
  5
C6
330
1F
100
AcDbEntity
  8
VISIBLE
100
AcDbLine
 10
336.0815673886813
 20
284.7682921753739
 30
0.0
 11
335.1859445659277
 21
286.4304890702422
 31
0.0
  0
LINE
  5
C7
330
1F
100
AcDbEntity
  8
VISIBLE
100
AcDbLine
 10
335.1859445659277
 20
286.4304890702422
 30
0.0
 11
328.2777396078716
 21
282.7082188363246
 31
0.0
  0
LINE
  5
C8
330
1F
100
AcDbEntity
  8
VISIBLE
100
AcDbLine
 10
328.2777396078716
 20
282.7082188363246
 30
0.0
 11
328.3019541833472
 21
283.3535408920476
 31
0.0
  0
LINE
  5
C9
330
1F
100
AcDbEntity
  8
VISIBLE
100
AcDbLine
 10
328.3019541833472
 20
283.3535408920476
 30
0.0
 11
328.5396950417345
 21
284.3618656549841
 31
0.0
  0
LINE
  5
CA
330
1F
100
AcDbEntity
  8
VISIBLE
100
AcDbLine
 10
328.5396950417345
 20
284.3618656549841
 30
0.0
 11
328.9540667180999
 21
285.5025551653655
 31
0.0
  0
LINE
  5
CB
330
1F
100
AcDbEntity
  8
VISIBLE
100
AcDbLine
 10
328.9540667180999
 20
285.5025551653655
 30
0.0
 11
329.7634238355496
 21
287.4459486779824
 31
0.0
  0
LINE
  5
CC
330
1F
100
AcDbEntity
  8
VISIBLE
100
AcDbLine
 10
329.7634238355496
 20
287.4459486779824
 30
0.0
 11
330.4583890895915
 21
289.3705611210993
 31
0.0
  0
LINE
  5
CD
330
1F
100
AcDbEntity
  8
VISIBLE
100
AcDbLine
 10
330.4583890895915
 20
289.3705611210993
 30
0.0
 11
330.7983129479515
 21
290.4913402273173
 31
0.0
  0
ARC
  5
CE
330
1F
100
AcDbEntity
  8
VISIBLE
100
AcDbCircle
 10
320.7717665870052
 20
293.1957783260715
 30
-0.0000000000000005
 40
10.3848745
100
AcDbArc
 50
344.904963120769
 51
351.4778836092489
  0
ARC
  5
CF
330
1F
100
AcDbEntity
  8
VISIBLE
100
AcDbCircle
 10
326.0175292407015
 20
292.6102985490746
 30
-0.0000000000000003
 40
5.114117100000001
100
AcDbArc
 50
349.255004965348
 51
32.331439759736
  0
ARC
  5
D0
330
1F
100
AcDbEntity
  8
VISIBLE
100
AcDbCircle
 10
326.7820277726678
 20
293.0601842879452
 30
-0.0000000000000003
 40
4.2276314
100
AcDbArc
 50
32.72076871621736
 51
86.23785814390392
  0
ARC
  5
D1
330
1F
100
AcDbEntity
  8
VISIBLE
100
AcDbCircle
 10
326.7680272114014
 20
292.2661403834338
 30
-0.0000000000000002
 40
5.0210276
100
AcDbArc
 50
86.67297550078612
 51
111.3495905321391
  0
ARC
  5
D2
330
1F
100
AcDbEntity
  8
VISIBLE
100
AcDbCircle
 10
327.7559309271953
 20
289.6240494167891
 30
-0.0000000000000002
 40
7.841573900000001
100
AcDbArc
 50
111.0444427330743
 51
121.8179720554924
  0
ARC
  5
D3
330
1F
100
AcDbEntity
  8
VISIBLE
100
AcDbCircle
 10
326.8777328330289
 20
290.9304514362735
 30
-0.0000000000000001
 40
6.2687461
100
AcDbArc
 50
121.2927434152951
 51
133.8082615176663
  0
ARC
  5
D4
330
1F
100
AcDbEntity
  8
VISIBLE
100
AcDbCircle
 10
325.5177364394585
 20
292.2522584679792
 30
0.0000000000000001
 40
4.3739011
100
AcDbArc
 50
132.9379216105981
 51
170.1541876903126
  0
ARC
  5
D5
330
1F
100
AcDbEntity
  8
VISIBLE
100
AcDbCircle
 10
325.6654481555232
 20
292.2916590998927
 30
0.0000000000000003
 40
4.513154800000001
100
AcDbArc
 50
170.9677114198277
 51
186.6016393268978
  0
ARC
  5
D6
330
1F
100
AcDbEntity
  8
VISIBLE
100
AcDbCircle
 10
327.4869753534292
 20
292.5580126314953
 30
0.0000000000000005
 40
6.3534654
100
AcDbArc
 50
187.0992116706115
 51
203.7709479930104
  0
LINE
  5
D7
330
1F
100
AcDbEntity
  8
VISIBLE
100
AcDbLine
 10
366.8852369778357
 20
288.3009200682131
 30
0.0
 11
362.321616020228
 21
249.355180628887
 31
0.0
  0
ARC
  5
D8
330
1F
100
AcDbEntity
  8
VISIBLE
100
AcDbCircle
 10
392.1177494844738
 20
245.863700916571
 30
0.0000000000000015
 40
30.0
100
AcDbArc
 50
173.3166189853374
 51
290.7161308755331
  0
LINE
  5
D9
330
1F
100
AcDbEntity
  8
VISIBLE
100
AcDbLine
 10
402.7298952375583
 20
217.8033665900732
 30
0.0
 11
450.279110648731
 21
235.7860177772455
 31
0.0
  0
ARC
  5
DA
330
1F
100
AcDbEntity
  8
VISIBLE
100
AcDbCircle
 10
439.6669648956453
 20
263.8463521037336
 30
-0.0000000000000008
 40
30.0
100
AcDbArc
 50
290.7161308755419
 51
47.80342466494353
  0
SPLINE
  5
DB
330
1F
100
AcDbEntity
  8
VISIBLE
100
AcDbSpline
210
0.0
220
0.0
230
1.0
 70
     8
 71
     3
 72
    41
 73
    37
 74
     0
 42
0.000000001
 43
0.0000000461465995
 40
566.646226552678
 40
566.646226552678
 40
566.646226552678
 40
566.646226552678
 40
579.395136086435
 40
579.395136086435
 40
579.395136086435
 40
596.330933732958
 40
596.330933732958
 40
596.330933732958
 40
613.023901868288
 40
613.023901868288
 40
613.023901868288
 40
630.081114270408
 40
630.081114270408
 40
630.081114270408
 40
647.138326672527
 40
647.138326672527
 40
647.138326672527
 40
664.097551130919
 40
664.097551130919
 40
664.097551130919
 40
666.756552338839
 40
666.756552338839
 40
666.756552338839
 40
667.93803409747
 40
667.93803409747
 40
667.93803409747
 40
668.955678610159
 40
668.955678610159
 40
668.955678610159
 40
674.383882750883
 40
674.383882750883
 40
674.383882750883
 40
679.876721772582
 40
679.876721772582
 40
679.876721772582
 40
685.36956079428
 40
685.36956079428
 40
685.36956079428
 40
685.36956079428
 10
459.8184808493994
 20
286.0730474552138
 30
0.0
 10
458.0568033692536
 20
287.6720677374773
 30
0.0
 10
456.253801932119
 20
289.2150200785712
 30
0.0
 10
454.412573815587
 20
290.6964289293434
 30
0.0
 10
451.966665267872
 20
292.6643494375371
 30
0.0
 10
449.4532998477034
 20
294.5236682576121
 30
0.0
 10
446.87723058947
 20
296.2722678354982
 30
0.0
 10
444.3380976274675
 20
297.9957955750442
 30
0.0
 10
441.738045653691
 20
299.6117563992582
 30
0.0
 10
439.0815954283405
 20
301.1180792590447
 30
0.0
 10
436.367180869942
 20
302.6572704177038
 30
0.0
 10
433.5938797098017
 20
304.0819871008875
 30
0.0
 10
430.7664875579835
 20
305.3899708599502
 30
0.0
 10
427.9390954061673
 20
306.6979546190217
 30
0.0
 10
425.0576119004742
 20
307.8892056258451
 30
0.0
 10
422.1268101683199
 20
308.9614135022744
 30
0.0
 10
419.212844905596
 20
310.0274619053544
 30
0.0
 10
416.2501253150722
 20
310.9758308943487
 30
0.0
 10
413.2498957068841
 20
311.8059686330806
 30
0.0
 10
412.7794960036554
 20
311.9361241867972
 30
0.0
 10
412.3081742056887
 20
312.0633732232666
 30
0.0
 10
411.835973647998
 20
312.1877134994181
 30
0.0
 10
411.6261593975701
 20
312.2429619768182
 30
0.0
 10
411.4161716521016
 20
312.29763617219
 30
0.0
 10
411.2060142133038
 20
312.3517358867575
 30
0.0
 10
411.024999514743
 20
312.3983335403121
 30
0.0
 10
410.843861766286
 20
312.4445042980483
 30
0.0
 10
410.6625817725984
 20
312.4902534234919
 30
0.0
 10
409.6956185549992
 20
312.7342832286922
 30
0.0
 10
408.7247441348906
 20
312.9662766815242
 30
0.0
 10
407.7508324541202
 20
313.1860818793798
 30
0.0
 10
406.7653241819278
 20
313.408504348511
 30
0.0
 10
405.7767061324642
 20
313.6184464634109
 30
0.0
 10
404.7858968953444
 20
313.8158033594611
 30
0.0
 10
403.7950876582237
 20
314.0131602555016
 30
0.0
 10
402.8020875097727
 20
314.1979319304273
 30
0.0
 10
401.807824049108
 20
314.3700664635122
 30
0.0
  0
ARC
  5
DC
330
1F
100
AcDbEntity
  8
VISIBLE
100
AcDbCircle
 10
396.6813704420806
 20
284.8094403558977
 30
-0.0000000000000003
 40
30.0
100
AcDbArc
 50
80.16152054217999
 51
173.3166189853381
  0
LINE
  5
DD
330
1F
100
AcDbEntity
  8
VISIBLE
100
AcDbLine
 10
377.7586782593245
 20
173.5892432539697
 30
0.0
 11
374.7228713401889
 21
147.6818012558217
 31
0.0
  0
ARC
  5
DE
330
1F
100
AcDbEntity
  8
VISIBLE
100
AcDbCircle
 10
404.5190048044347
 20
144.1903215435057
 30
0.0000000000000019
 40
30.0
100
AcDbArc
 50
173.3166189853375
 51
255.3204207445016
  0
SPLINE
  5
DF
330
1F
100
AcDbEntity
  8
VISIBLE
100
AcDbSpline
210
0.0
220
0.0
230
1.0
 70
     8
 71
     3
 72
   158
 73
   154
 74
     0
 42
0.000000001
 43
0.0000000416865737
 40
105.284766828148
 40
105.284766828148
 40
105.284766828148
 40
105.284766828148
 40
111.926792137929
 40
111.926792137929
 40
111.926792137929
 40
118.652947033907
 40
118.652947033907
 40
118.652947033907
 40
122.244879723859
 40
122.244879723859
 40
122.244879723859
 40
129.060981156272
 40
129.060981156272
 40
129.060981156272
 40
135.738542326495
 40
135.738542326495
 40
135.738542326495
 40
139.161263393124
 40
139.161263393124
 40
139.161263393124
 40
140.573004527461
 40
140.573004527461
 40
140.573004527461
 40
141.516083258154
 40
141.516083258154
 40
141.516083258154
 40
142.12447536133
 40
142.12447536133
 40
142.12447536133
 40
147.23604331204
 40
147.23604331204
 40
147.23604331204
 40
152.289505498894
 40
152.289505498894
 40
152.289505498894
 40
157.471735806239
 40
157.471735806239
 40
157.471735806239
 40
159.464323158128
 40
159.464323158128
 40
159.464323158128
 40
160.470814452378
 40
160.470814452378
 40
160.470814452378
 40
165.486921446956
 40
165.486921446956
 40
165.486921446956
 40
170.433377504829
 40
170.433377504829
 40
170.433377504829
 40
173.018426728273
 40
173.018426728273
 40
173.018426728273
 40
177.25081921129
 40
177.25081921129
 40
177.25081921129
 40
177.871082393852
 40
177.871082393852
 40
177.871082393852
 40
178.381904272634
 40
178.381904272634
 40
178.381904272634
 40
184.495867134822
 40
184.495867134822
 40
184.495867134822
 40
189.947996660343
 40
189.947996660343
 40
189.947996660343
 40
194.180509428897
 40
194.180509428897
 40
194.180509428897
 40
196.225481625291
 40
196.225481625291
 40
196.225481625291
 40
196.912060296575
 40
196.912060296575
 40
196.912060296575
 40
201.98708979656
 40
201.98708979656
 40
201.98708979656
 40
206.878047734558
 40
206.878047734558
 40
206.878047734558
 40
211.111914306288
 40
211.111914306288
 40
211.111914306288
 40
212.96423093142
 40
212.96423093142
 40
212.96423093142
 40
214.113308251703
 40
214.113308251703
 40
214.113308251703
 40
215.02616897833
 40
215.02616897833
 40
215.02616897833
 40
223.141998076969
 40
223.141998076969
 40
223.141998076969
 40
231.41196715592
 40
231.41196715592
 40
231.41196715592
 40
239.702257894434
 40
239.702257894434
 40
239.702257894434
 40
240.748980308403
 40
240.748980308403
 40
240.748980308403
 40
248.700395971715
 40
248.700395971715
 40
248.700395971715
 40
250.393081125051
 40
250.393081125051
 40
250.393081125051
 40
251.393747689832
 40
251.393747689832
 40
251.393747689832
 40
257.675617049305
 40
257.675617049305
 40
257.675617049305
 40
268.967056371553
 40
268.967056371553
 40
268.967056371553
 40
274.611990856529
 40
274.611990856529
 40
274.611990856529
 40
283.082990160503
 40
283.082990160503
 40
283.082990160503
 40
286.962396232153
 40
286.962396232153
 40
286.962396232153
 40
288.252907964968
 40
288.252907964968
 40
288.252907964968
 40
299.962707472546
 40
299.962707472546
 40
299.962707472546
 40
308.495988072425
 40
308.495988072425
 40
308.495988072425
 40
320.142035746442
 40
320.142035746442
 40
320.142035746442
 40
332.284431556084
 40
332.284431556084
 40
332.284431556084
 40
344.669990075485
 40
344.669990075485
 40
344.669990075485
 40
357.230588875633
 40
357.230588875633
 40
357.230588875633
 40
360.024753389195
 40
360.024753389195
 40
360.024753389195
 40
360.024753389195
 10
396.9166092447639
 20
115.169577553137
 30
0.0
 10
398.0559761446554
 20
114.8704895666151
 30
0.0
 10
399.2050835174497
 20
114.5927840558188
 30
0.0
 10
400.3625959969467
 20
114.3367488975762
 30
0.0
 10
401.5347698246581
 20
114.0774707327315
 30
0.0
 10
402.7155627073418
 20
113.8404154996707
 30
0.0
 10
403.9035598790759
 20
113.6258365069727
 30
0.0
 10
404.5379796839592
 20
113.511246029892
 30
0.0
 10
405.1744535807765
 20
113.403064595642
 30
0.0
 10
405.8127634017059
 20
113.3013253526732
 30
0.0
 10
407.024028996109
 20
113.1082635501188
 30
0.0
 10
408.2419079562879
 20
112.9384020182243
 30
0.0
 10
409.4609414076087
 20
112.7938833914977
 30
0.0
 10
410.6551974673909
 20
112.6523021694844
 30
0.0
 10
411.8505597957261
 20
112.5350446399239
 30
0.0
 10
413.041879461192
 20
112.4440804952743
 30
0.0
 10
413.6525148132517
 20
112.3974549554652
 30
0.0
 10
414.2620879406125
 20
112.3577366578688
 30
0.0
 10
414.86990600269
 20
112.3251854559095
 30
0.0
 10
415.1206076356087
 20
112.3117593338636
 30
0.0
 10
415.3710107025857
 20
112.2995524644025
 30
0.0
 10
415.6211049458636
 20
112.2885705252893
 30
0.0
 10
415.7881742164032
 20
112.2812343126073
 30
0.0
 10
415.9551056725864
 20
112.2744447322165
 30
0.0
 10
416.1218962641807
 20
112.2682034479825
 30
0.0
 10
416.2294949995865
 20
112.2641771160128
 30
0.0
 10
416.3370364526595
 20
112.2603789049318
 30
0.0
 10
416.4445291265422
 20
112.2568090030481
 30
0.0
 10
417.3476573951186
 20
112.2268155236546
 30
0.0
 10
418.24715358879
 20
112.2129496025076
 30
0.0
 10
419.1423080736991
 20
112.2155150729218
 30
0.0
 10
420.0272868873427
 20
112.2180513803347
 30
0.0
 10
420.9080219881567
 20
112.236647679075
 30
0.0
 10
421.783840602164
 20
112.2715485042757
 30
0.0
 10
422.6819760976755
 20
112.3073386432672
 30
0.0
 10
423.5749411011458
 20
112.3602751828415
 30
0.0
 10
424.4620269915487
 20
112.4305663659138
 30
0.0
 10
424.8031149055205
 20
112.4575935943545
 30
0.0
 10
425.143333827563
 20
112.4871859875495
 30
0.0
 10
425.4826442409809
 20
112.5193531046894
 30
0.0
 10
425.6540359628187
 20
112.5356012874011
 30
0.0
 10
425.8251931579764
 20
112.5525060470677
 30
0.0
 10
425.9961367053696
 20
112.5700712963572
 30
0.0
 10
426.8480776298982
 20
112.6576122123287
 30
0.0
 10
427.6946017379617
 20
112.7615442174036
 30
0.0
 10
428.5357055400794
 20
112.8821438148298
 30
0.0
 10
429.3651302317325
 20
113.0010688317577
 30
0.0
 10
430.1892842224653
 20
113.136201769172
 30
0.0
 10
431.0081486754615
 20
113.287855900298
 30
0.0
 10
431.4360924181255
 20
113.3671113084779
 30
0.0
 10
431.8625912271519
 20
113.4508797435188
 30
0.0
 10
432.2876405219354
 20
113.5392112870715
 30
0.0
 10
432.9835558738893
 20
113.6838328120814
 30
0.0
 10
433.6755856639866
 20
113.840684976922
 30
0.0
 10
434.3645698718151
 20
114.0097495929556
 30
0.0
 10
434.4655414946484
 20
114.0345262546672
 30
0.0
 10
434.5664477007023
 20
114.0595652517193
 30
0.0
 10
434.6672911288318
 20
114.0848665726538
 30
0.0
 10
434.7503414063071
 20
114.1057036441764
 30
0.0
 10
434.8333502709077
 20
114.1267189545564
 30
0.0
 10
434.9163019655622
 20
114.1479080395428
 30
0.0
 10
435.9091403727216
 20
114.4015175345315
 30
0.0
 10
436.8943513799206
 20
114.680156287089
 30
0.0
 10
437.8741985201349
 20
114.9835050019017
 30
0.0
 10
438.7479777111572
 20
115.254016374294
 30
0.0
 10
439.6174907707682
 20
115.5441783069692
 30
0.0
 10
440.4843303251794
 20
115.8537969414106
 30
0.0
 10
441.1572617852918
 20
116.0941552853335
 30
0.0
 10
441.8285817548486
 20
116.3462397919707
 30
0.0
 10
442.4983137097552
 20
116.6095632564519
 30
0.0
 10
442.8219000287377
 20
116.7367900819734
 30
0.0
 10
443.1451156184416
 20
116.8666407098501
 30
0.0
 10
443.4679630068947
 20
116.999061055738
 30
0.0
 10
443.5763557426888
 20
117.043519843632
 30
0.0
 10
443.6847153940329
 20
117.0882717476002
 30
0.0
 10
443.7930442309059
 20
117.1333157936555
 30
0.0
 10
444.5937857421412
 20
117.4662708824942
 30
0.0
 10
445.392784236803
 20
117.8151685395614
 30
0.0
 10
446.1896175179184
 20
118.1790326397829
 30
0.0
 10
446.9575496179276
 20
118.5296993717316
 30
0.0
 10
447.7234707176354
 20
118.8942658703388
 30
0.0
 10
448.4870094782326
 20
119.2718131171918
 30
0.0
 10
449.1479681852376
 20
119.5986375732562
 30
0.0
 10
449.8071416654632
 20
119.9351883763387
 30
0.0
 10
450.4638569087858
 20
120.2809834698
 30
0.0
 10
450.7511698277382
 20
120.432268823178
 30
0.0
 10
451.038012295156
 20
120.5853233246681
 30
0.0
 10
451.3243283420484
 20
120.740105408832
 30
0.0
 10
451.501943373654
 20
120.8361238648942
 30
0.0
 10
451.6793558284274
 20
120.9328071312905
 30
0.0
 10
451.8565524016356
 20
121.0301451526389
 30
0.0
 10
451.9973225567154
 20
121.1074733318092
 30
0.0
 10
452.137955203311
 20
121.1852140028701
 30
0.0
 10
452.278461059923
 20
121.2633718354463
 30
0.0
 10
453.527634659319
 20
121.9582375399755
 30
0.0
 10
454.766509933678
 20
122.6859205528324
 30
0.0
 10
455.991888882056
 20
123.4438638028702
 30
0.0
 10
457.2405408546306
 20
124.216202299069
 30
0.0
 10
458.4751799220416
 20
125.0199619172679
 30
0.0
 10
459.6924070726142
 20
125.852489152828
 30
0.0
 10
460.9126252955272
 20
126.6870621439352
 30
0.0
 10
462.1153468710844
 20
127.5505450073155
 30
0.0
 10
463.2971181376136
 20
128.4403068773493
 30
0.0
 10
463.4463271957618
 20
128.5526471705751
 30
0.0
 10
463.5952022293612
 20
128.665406432065
 30
0.0
 10
463.743736241848
 20
128.7785794055142
 30
0.0
 10
464.8720732848442
 20
129.6382966922772
 30
0.0
 10
465.9807342751826
 20
130.5218851003312
 30
0.0
 10
467.0676761862036
 20
131.4297170691843
 30
0.0
 10
467.29906271072
 20
131.6229749443186
 30
0.0
 10
467.5294648435888
 20
131.8173315943461
 30
0.0
 10
467.7588626351486
 20
132.0127908135273
 30
0.0
 10
467.8944759827332
 20
132.1283406575336
 30
0.0
 10
468.0297411050816
 20
132.2442782683842
 30
0.0
 10
468.1646333639032
 20
132.3605866396474
 30
0.0
 10
469.0114444569788
 20
133.0907339428845
 30
0.0
 10
469.8437170389588
 20
133.8356238296012
 30
0.0
 10
470.660419636807
 20
134.5953452344484
 30
0.0
 10
472.12841384366
 20
135.9609177501567
 30
0.0
 10
473.5461058337016
 20
137.3744075430214
 30
0.0
 10
474.910339959172
 20
138.8396865791422
 30
0.0
 10
475.592362156756
 20
139.5722242056704
 30
0.0
 10
476.261023056222
 20
140.3177060501855
 30
0.0
 10
476.915924729889
 20
141.0766193360076
 30
0.0
 10
477.898694616159
 20
142.215472928203
 30
0.0
 10
478.8504807361624
 20
143.3845718818381
 30
0.0
 10
479.7706031077902
 20
144.5823408083356
 30
0.0
 10
480.1919853068756
 20
145.1308749161958
 30
0.0
 10
480.606726441917
 20
145.685422240697
 30
0.0
 10
481.0147600762636
 20
146.2458326969794
 30
0.0
 10
481.1504953364512
 20
146.4322571794064
 30
0.0
 10
481.2854900494503
 20
146.619332794628
 30
0.0
 10
481.419747397235
 20
146.8070622003306
 30
0.0
 10
482.637966949215
 20
148.5104746115283
 30
0.0
 10
483.795328420265
 20
150.2675193931507
 30
0.0
 10
484.8896147222374
 20
152.07384027415
 30
0.0
 10
485.6870538299942
 20
153.3901602436714
 30
0.0
 10
486.4509976129126
 20
154.732647135359
 30
0.0
 10
487.1805983413306
 20
156.0996010917011
 30
0.0
 10
488.1763425649868
 20
157.9651920279797
 30
0.0
 10
489.108116989685
 20
159.8763574385159
 30
0.0
 10
489.9753897146044
 20
161.8257590546462
 30
0.0
 10
490.8796251252482
 20
163.8582430936578
 30
0.0
 10
491.7137432838702
 20
165.9322914529353
 30
0.0
 10
492.4771838635456
 20
168.0395494734473
 30
0.0
 10
493.255913047137
 20
170.1890072853878
 30
0.0
 10
493.9611053326632
 20
172.3730173537235
 30
0.0
 10
494.5922133673154
 20
174.5826855728348
 30
0.0
 10
495.23224060633
 20
176.8235821733651
 30
0.0
 10
495.796074616249
 20
179.0908663181686
 30
0.0
 10
496.2831955341665
 20
181.3752473239377
 30
0.0
 10
496.391557882516
 20
181.8834186653973
 30
0.0
 10
496.4961242021565
 20
182.3924360422596
 30
0.0
 10
496.596889120252
 20
182.9021971614178
 30
0.0
  0
ARC
  5
E0
330
1F
100
AcDbEntity
  8
VISIBLE
100
AcDbCircle
 10
467.1666290506572
 20
188.716471921411
 30
-0.0000000000000015
 40
30.0
100
AcDbArc
 50
348.8244938703529
 51
110.7161308755498
  0
LINE
  5
E1
330
1F
100
AcDbEntity
  8
VISIBLE
100
AcDbLine
 10
456.554483297555
 20
216.776806247931
 30
0.0
 11
396.1925372327777
 21
193.9485048411718
 31
0.0
  0
ARC
  5
E2
330
1F
100
AcDbEntity
  8
VISIBLE
100
AcDbCircle
 10
406.8046829858808
 20
165.8881705146518
 30
0.0000000000000001
 40
30.0
100
AcDbArc
 50
110.7161308755513
 51
162.7362584306704
  0
ARC
  5
E3
330
1F
100
AcDbEntity
  8
VISIBLE
100
AcDbCircle
 10
344.7330112620007
 20
185.1782604410522
 30
0.0
 40
35.0
100
AcDbArc
 50
340.6635481320213
 51
342.7362584307179
  0
ELLIPSE
  5
E4
330
1F
100
AcDbEntity
  8
VISIBLE
100
AcDbEllipse
 10
348.6136347194426
 20
215.8604513563552
 30
0.0000000000139511
 11
-86.53400289586575
 21
-85.08994654370821
 31
1.001814343611250E-11
210
-1.824650842138109E-14
220
1.362920923064707E-13
230
1.0
 40
0.752267646998522
 41
4.018189293139306
 42
4.168194311395927
  0
ARC
  5
E5
330
1F
100
AcDbEntity
  8
VISIBLE
100
AcDbCircle
 10
338.9836351443075
 20
314.6953945026723
 30
0.0
 40
0.9705237
100
AcDbArc
 50
110.0398723789204
 51
207.9978124741823
  0
LINE
  5
E6
330
1F
100
AcDbEntity
  8
VISIBLE
100
AcDbLine
 10
338.1266961681833
 20
314.2397939331152
 30
0.0
 11
338.2101031198796
 21
314.0829122201648
 31
0.0
  0
ARC
  5
E7
330
1F
100
AcDbEntity
  8
VISIBLE
100
AcDbCircle
 10
339.1795027631637
 20
314.5982918339402
 30
0.0000000000000001
 40
1.0978852
100
AcDbArc
 50
207.9972666268833
 51
289.9752896474515
  0
ELLIPSE
  5
E8
330
1F
100
AcDbEntity
  8
VISIBLE
100
AcDbEllipse
 10
348.9988750621716
 20
204.1600262442923
 30
0.0000000000141216
 11
-82.92659495912061
 21
-98.1800310012319
 31
1.002441751364921E-11
210
2.831796002952195E-14
220
-1.260208352850357E-13
230
-1.0
 40
0.7589356412742998
 41
2.217985173081534
 42
2.361525233880957
  0
LINE
  5
E9
330
1F
100
AcDbEntity
  8
VISIBLE
100
AcDbLine
 10
355.5420262647158
 20
318.2174578174267
 30
0.0
 11
356.4362882268922
 21
315.740985644304
 31
0.0
  0
ARC
  5
EA
330
1F
100
AcDbEntity
  8
VISIBLE
100
AcDbCircle
 10
356.9349935986024
 20
315.9210697369319
 30
0.0
 40
0.5302238
100
AcDbArc
 50
199.8548120673213
 51
316.149773800439
  0
LINE
  5
EB
330
1F
100
AcDbEntity
  8
VISIBLE
100
AcDbLine
 10
357.3173662277674
 20
315.5537435867078
 30
0.0
 11
361.9645897112799
 21
320.3913274631382
 31
0.0
  0
ARC
  5
EC
330
1F
100
AcDbEntity
  8
VISIBLE
100
AcDbCircle
 10
361.4970381206267
 20
320.8404807568758
 30
0.0
 40
0.6483388
100
AcDbArc
 50
316.149773800655
 51
75.18083196533433
  0
LINE
  5
ED
330
1F
100
AcDbEntity
  8
VISIBLE
100
AcDbLine
 10
361.6628632046703
 20
321.4672544103787
 30
0.0
 11
354.5519078015897
 21
323.3485950998584
 31
0.0
  0
ARC
  5
EE
330
1F
100
AcDbEntity
  8
VISIBLE
100
AcDbCircle
 10
354.4196193947129
 20
322.8485809519732
 30
0.0
 40
0.5172179
100
AcDbArc
 50
75.18083196564739
 51
199.8548120671013
  0
LINE
  5
EF
330
1F
100
AcDbEntity
  8
VISIBLE
100
AcDbLine
 10
353.9331468351518
 20
322.6729141666416
 30
0.0
 11
354.779315993011
 21
320.3296249943102
 31
0.0
  0
CIRCLE
  5
F0
330
1F
100
AcDbEntity
  8
VISIBLE
100
AcDbCircle
 10
330.0947666150972
 20
195.5021961656452
 30
0.0
 40
3.2
  0
CIRCLE
  5
F1
330
1F
100
AcDbEntity
  8
VISIBLE
100
AcDbCircle
 10
359.5754786458374
 20
174.8409372951812
 30
0.0
 40
3.2
  0
ARC
  5
F2
330
1F
100
AcDbEntity
  8
VISIBLE
100
AcDbCircle
 10
344.7330112617481
 20
185.1782604411312
 30
0.0
 40
35.0
100
AcDbArc
 50
121.2964914302131
 51
172.8425441443052
  0
ARC
  5
F3
330
1F
100
AcDbEntity
  8
VISIBLE
100
AcDbCircle
 10
310.9676700948206
 20
240.7201521615349
 30
-0.0000000000000005
 40
30.0
100
AcDbArc
 50
301.2964914302067
 51
353.3166189853754
  0
LINE
  5
F4
330
1F
100
AcDbEntity
  8
VISIBLE
100
AcDbLine
 10
340.7638035590478
 20
237.2286724492411
 30
0.0
 11
341.8210831896266
 21
246.251450061484
 31
0.0
  0
ARC
  5
F5
330
1F
100
AcDbEntity
  8
VISIBLE
100
AcDbCircle
 10
312.0249497253984
 20
249.7429297737677
 30
-0.0000000000000007
 40
30.0
100
AcDbArc
 50
353.3166189853946
 51
146.2323875881691
  0
SPLINE
  5
F6
330
1F
100
AcDbEntity
  8
VISIBLE
100
AcDbSpline
210
0.0
220
0.0
230
1.0
 70
     8
 71
     3
 72
   122
 73
   118
 74
     0
 42
0.000000001
 43
0.0000000313421088
 40
928.478877958878
 40
928.478877958878
 40
928.478877958878
 40
928.478877958878
 40
934.3406584864309
 40
934.3406584864309
 40
934.3406584864309
 40
939.705359308928
 40
939.705359308928
 40
939.705359308928
 40
944.7801481864631
 40
944.7801481864631
 40
944.7801481864631
 40
945.961558824787
 40
945.961558824787
 40
945.961558824787
 40
946.723087236333
 40
946.723087236333
 40
946.723087236333
 40
951.9260000690921
 40
951.9260000690921
 40
951.9260000690921
 40
954.042434363352
 40
954.042434363352
 40
954.042434363352
 40
955.022142979089
 40
955.022142979089
 40
955.022142979089
 40
955.4970048498329
 40
955.4970048498329
 40
955.4970048498329
 40
959.5531582408611
 40
959.5531582408611
 40
959.5531582408611
 40
963.828870040199
 40
963.828870040199
 40
963.828870040199
 40
968.322672757148
 40
968.322672757148
 40
968.322672757148
 40
968.857474423174
 40
968.857474423174
 40
968.857474423174
 40
973.257152378473
 40
973.257152378473
 40
973.257152378473
 40
977.55643932839
 40
977.55643932839
 40
977.55643932839
 40
981.67546320595
 40
981.67546320595
 40
981.67546320595
 40
982.109753990812
 40
982.109753990812
 40
982.109753990812
 40
985.794487083509
 40
985.794487083509
 40
985.794487083509
 40
992.372714159688
 40
992.372714159688
 40
992.372714159688
 40
999.7207943066129
 40
999.7207943066129
 40
999.7207943066129
 40
1007.75728551384
 40
1007.75728551384
 40
1007.75728551384
 40
1013.7062642568
 40
1013.7062642568
 40
1013.7062642568
 40
1016.68075362827
 40
1016.68075362827
 40
1016.68075362827
 40
1017.70879237786
 40
1017.70879237786
 40
1017.70879237786
 40
1018.1789294045
 40
1018.1789294045
 40
1018.1789294045
 40
1019.65524299975
 40
1019.65524299975
 40
1019.65524299975
 40
1024.89875615106
 40
1024.89875615106
 40
1024.89875615106
 40
1028.10743433441
 40
1028.10743433441
 40
1028.10743433441
 40
1032.33889442821
 40
1032.33889442821
 40
1032.33889442821
 40
1036.55948667982
 40
1036.55948667982
 40
1036.55948667982
 40
1040.79834253721
 40
1040.79834253721
 40
1040.79834253721
 40
1043.97748443025
 40
1043.97748443025
 40
1043.97748443025
 40
1044.43222089424
 40
1044.43222089424
 40
1044.43222089424
 40
1044.79090500473
 40
1044.79090500473
 40
1044.79090500473
 40
1046.77943046252
 40
1046.77943046252
 40
1046.77943046252
 40
1048.74335349427
 40
1048.74335349427
 40
1048.74335349427
 40
1050.69040042748
 40
1050.69040042748
 40
1050.69040042748
 40
1052.60845342448
 40
1052.60845342448
 40
1052.60845342448
 40
1053.51491010938
 40
1053.51491010938
 40
1053.51491010938
 40
1053.51491010938
 10
287.0858841959307
 20
266.4177717614039
 30
0.0
 10
286.4990691657357
 20
265.5413716989534
 30
0.0
 10
285.9280826451647
 20
264.6657360704069
 30
0.0
 10
285.3745093821598
 20
263.7923746762879
 30
0.0
 10
284.8678791995036
 20
262.9930744351082
 30
0.0
 10
284.3758335897031
 20
262.1956775842215
 30
0.0
 10
283.8996275777749
 20
261.4013255717472
 30
0.0
 10
283.4491560505268
 20
260.6499008621341
 30
0.0
 10
283.0128579566085
 20
259.9011999158956
 30
0.0
 10
282.5918407519753
 20
259.1561899121526
 30
0.0
 10
282.4938279643559
 20
258.9827516144604
 30
0.0
 10
282.3966435551628
 20
258.8095133851326
 30
0.0
 10
282.3003019129351
 20
258.6364875088555
 30
0.0
 10
282.2382008149855
 20
258.5249563304255
 30
0.0
 10
282.1764521903893
 20
258.4135176010691
 30
0.0
 10
282.1150458447412
 20
258.302148945294
 30
0.0
 10
281.6955055374507
 20
257.5412562464061
 30
0.0
 10
281.2920567835229
 20
256.7838418895583
 30
0.0
 10
280.9062126801845
 20
256.0312580383895
 30
0.0
 10
280.7492595043772
 20
255.7251229323095
 30
0.0
 10
280.5952199481369
 20
255.4197876739913
 30
0.0
 10
280.4440213241921
 20
255.1149449794398
 30
0.0
 10
280.3740306824003
 20
254.9738316856796
 30
0.0
 10
280.3046488002165
 20
254.8328239129261
 30
0.0
 10
280.2358684713849
 20
254.6918910411259
 30
0.0
 10
280.2025308492651
 20
254.6235812946621
 30
0.0
 10
280.1693317674373
 20
254.5552833558473
 30
0.0
 10
280.1362856403994
 20
254.4870253135608
 30
0.0
 10
279.8540137451248
 20
253.9039818923605
 30
0.0
 10
279.582727398662
 20
253.3235003791262
 30
0.0
 10
279.3216725369882
 20
252.7431910625962
 30
0.0
 10
279.0464868512577
 20
252.1314697708307
 30
0.0
 10
278.7826702578584
 20
251.5199410811609
 30
0.0
 10
278.5293905210604
 20
250.9058361694471
 30
0.0
 10
278.2631917633366
 20
250.2604076536169
 30
0.0
 10
278.0086322563766
 20
249.612135275992
 30
0.0
 10
277.7648003305993
 20
248.9578124518983
 30
0.0
 10
277.735782207565
 20
248.8799423364343
 30
0.0
 10
277.7069160794765
 20
248.8019865164351
 30
0.0
 10
277.6782004567567
 20
248.7239395735016
 30
0.0
 10
277.4419642961837
 20
248.0818671266723
 30
0.0
 10
277.2159109963077
 20
247.4336300740721
 30
0.0
 10
276.9991073874202
 20
246.7775167219704
 30
0.0
 10
276.7872507615814
 20
246.1363744381422
 30
0.0
 10
276.5842271783052
 20
245.487711935902
 30
0.0
 10
276.3891977369731
 20
244.8298958168803
 30
0.0
 10
276.2023456066025
 20
244.1996610051876
 30
0.0
 10
276.0228318930058
 20
243.5610245211565
 30
0.0
 10
275.8499394226121
 20
242.912508076635
 30
0.0
 10
275.8317104419381
 20
242.8441315087803
 30
0.0
 10
275.8135545067907
 20
242.7756428818637
 30
0.0
 10
275.7954726156766
 20
242.7070473746072
 30
0.0
 10
275.6420571049456
 20
242.1250499102242
 30
0.0
 10
275.4941222331532
 20
241.5359321200214
 30
0.0
 10
275.3511620196525
 20
240.9388748413158
 30
0.0
 10
275.095940074505
 20
239.872969046247
 30
0.0
 10
274.8565728770955
 20
238.7817633178969
 30
0.0
 10
274.6330777235397
 20
237.6713037486625
 30
0.0
 10
274.3834268249386
 20
236.4308865632809
 30
0.0
 10
274.1535799927872
 20
235.1664449903247
 30
0.0
 10
273.9435826261685
 20
233.8863403438374
 30
0.0
 10
273.7139114798786
 20
232.4863080183649
 30
0.0
 10
273.5079827720717
 20
231.0675389214279
 30
0.0
 10
273.3258870865114
 20
229.6409105838522
 30
0.0
 10
273.191091522795
 20
228.5848549700974
 30
0.0
 10
273.0693562625947
 20
227.5244912498869
 30
0.0
 10
272.9607297112213
 20
226.4642215149345
 30
0.0
 10
272.9064164355347
 20
225.9340866474633
 30
0.0
 10
272.8553804929852
 20
225.4039752096353
 30
0.0
 10
272.8076288748712
 20
224.874437426526
 30
0.0
 10
272.7911250291209
 20
224.6914193375725
 30
0.0
 10
272.7750135086484
 20
224.5084697746669
 30
0.0
 10
272.7592946196249
 20
224.325611461381
 30
0.0
 10
272.7521061437535
 20
224.2419877032958
 30
0.0
 10
272.7449994518024
 20
224.1583792490368
 30
0.0
 10
272.7379739718992
 20
224.0747806782402
 30
0.0
 10
272.7159127197401
 20
223.812266348122
 30
0.0
 10
272.6946543581568
 20
223.5498733232795
 30
0.0
 10
272.6742025885629
 20
223.2876849553525
 30
0.0
 10
272.601562789553
 20
222.3564545177479
 30
0.0
 10
272.5391012819525
 20
221.4278050130395
 30
0.0
 10
272.4886104011408
 20
220.5064398847608
 30
0.0
 10
272.4577133702686
 20
219.9426262543425
 30
0.0
 10
272.4312981492946
 20
219.3815407735165
 30
0.0
 10
272.4097656750517
 20
218.8242585504917
 30
0.0
 10
272.3813696190193
 20
218.0893398852328
 30
0.0
 10
272.3614663844792
 20
217.3610372701787
 30
0.0
 10
272.3500702832794
 20
216.6419631961756
 30
0.0
 10
272.3387034511797
 20
215.9247359512518
 30
0.0
 10
272.3358001027239
 20
215.2166912039627
 30
0.0
 10
272.3413450625101
 20
214.5203788546216
 30
0.0
 10
272.3469140167871
 20
213.8210533797622
 30
0.0
 10
272.3610051248668
 20
213.1335610024017
 30
0.0
 10
272.3840447176007
 20
212.4583419016016
 30
0.0
 10
272.4013244121528
 20
211.951927576009
 30
0.0
 10
272.4236369385988
 20
211.4524161289824
 30
0.0
 10
272.4511478999674
 20
210.9599774321436
 30
0.0
 10
272.4550829987195
 20
210.8895402389526
 30
0.0
 10
272.4591244345033
 20
210.8192477291702
 30
0.0
 10
272.4632726701866
 20
210.7491003767204
 30
0.0
 10
272.4665446889134
 20
210.6937699981131
 30
0.0
 10
272.4698832729224
 20
210.6385282111859
 30
0.0
 10
272.4732874312601
 20
210.5833943430607
 30
0.0
 10
272.4921599023781
 20
210.2777351372541
 30
0.0
 10
272.5130539660704
 20
209.975237581217
 30
0.0
 10
272.5360479321908
 20
209.6753006684725
 30
0.0
 10
272.5587574124626
 20
209.3790746339031
 30
0.0
 10
272.5835150968998
 20
209.0853463002462
 30
0.0
 10
272.6104287118779
 20
208.793575776687
 30
0.0
 10
272.6371110566847
 20
208.5043124532687
 30
0.0
 10
272.6659123448234
 20
208.2169734161592
 30
0.0
 10
272.6969706482756
 20
207.9310712235652
 30
0.0
 10
272.7275664551885
 20
207.6494264681222
 30
0.0
 10
272.7603524861471
 20
207.3691760812922
 30
0.0
 10
272.7954941722547
 20
207.0898918543843
 30
0.0
 10
272.8121018553266
 20
206.9579043363768
 30
0.0
 10
272.8292361522037
 20
206.8261331545833
 30
0.0
 10
272.8469172636657
 20
206.6945361285342
 30
0.0
  0
ARC
  5
F7
330
1F
100
AcDbEntity
  8
VISIBLE
100
AcDbCircle
 10
302.5879704846596
 20
210.6276968557262
 30
0.0000000000000021
 40
30.0
100
AcDbArc
 50
187.5334713604829
 51
262.8068385556698
  0
ARC
  5
F8
330
1F
100
AcDbEntity
  8
VISIBLE
100
AcDbCircle
 10
300.0836741144343
 20
190.7851037870297
 30
0.0
 40
10.0
100
AcDbArc
 50
262.8068385556318
 51
352.8425441443764
  0
ARC
  5
F9
330
1F
100
AcDbEntity
  8
VISIBLE
100
AcDbCircle
 10
344.835122631329
 20
185.1715667300292
 30
-0.0000000000000005
 40
8.0
100
AcDbArc
 50
52.02725467328986
 51
114.5241371977147
  0
LINE
  5
FA
330
1F
100
AcDbEntity
  8
VISIBLE
100
AcDbLine
 10
334.6115448383122
 20
133.9020545764933
 30
0.0
 11
341.5145102434725
 21
192.4498586566843
 31
0.0
  0
ARC
  5
FB
330
1F
100
AcDbEntity
  8
VISIBLE
100
AcDbCircle
 10
336.0157210493672
 20
115.441211348173
 30
0.0
 40
18.5141687237723
100
AcDbArc
 50
94.3496795841504
 51
94.55461798250673
  0
SPLINE
  5
FC
330
1F
100
AcDbEntity
  8
VISIBLE
100
AcDbSpline
210
0.0
220
0.0
230
1.0
 70
     8
 71
     3
 72
    51
 73
    47
 74
     0
 42
0.000000001
 43
0.0000000513943157
 40
15.44769422182905
 40
15.44769422182905
 40
15.44769422182905
 40
15.44769422182905
 40
19.3448397527088
 40
58.0345192581265
 40
77.37935901083539
 40
96.72419876354421
 40
116.069038516253
 40
135.413878268962
 40
154.758718021671
 40
180.551837691949
 40
206.344957362228
 40
219.241517197367
 40
245.034636867645
 40
257.931196702785
 40
309.517436043342
 40
348.207115548759
 40
386.896795054177
 40
425.586474559595
 40
464.276154065012
 40
502.96583357043
 40
541.655513075848
 40
580.345192581265
 40
619.034872086683
 40
638.379711839392
 40
657.724551592101
 40
677.06939134481
 40
696.4142310975179
 40
735.103910602936
 40
773.793590108354
 40
793.138429861063
 40
812.483269613772
 40
831.82810936648
 40
851.1729491191891
 40
870.517788871898
 40
889.8626286246069
 40
909.207468377316
 40
918.8798882536701
 40
928.552308130025
 40
947.8971478827331
 40
967.241987635442
 40
986.5868273881509
 40
1005.93166714086
 40
1025.27650689357
 40
1044.62134664628
 40
1063.96618639899
 40
1083.3110261517
 40
1083.3110261517
 40
1083.3110261517
 40
1083.3110261517
 10
350.09802659239
 20
127.4604922802945
 30
0.0
 10
350.6637459546391
 20
126.7976711884349
 30
0.0
 10
356.9145702338367
 20
119.6571082474788
 30
0.0
 10
367.0446558622897
 20
110.9901080340682
 30
0.0
 10
382.996617644626
 20
103.521560135657
 30
0.0
 10
396.5139731358681
 20
99.50970274595227
 30
0.0
 10
410.8601021305405
 20
97.22187132789185
 30
0.0
 10
425.3639325983552
 20
97.02975872582155
 30
0.0
 10
440.9157038493997
 20
99.60643378707196
 30
0.0
 10
456.7266932252854
 20
106.0043566004155
 30
0.0
 10
469.9445967145336
 20
114.3561829959777
 30
0.0
 10
482.1945221177072
 20
124.3658279212908
 30
0.0
 10
490.9039559539692
 20
133.8413905516425
 30
0.0
 10
503.569153671602
 20
152.8170207454368
 30
0.0
 10
512.662287461079
 20
178.1733726051916
 30
0.0
 10
514.5309872411294
 20
211.1465408629164
 30
0.0
 10
509.0961239755035
 20
239.8114541071311
 30
0.0
 10
496.7511454124775
 20
266.2933792158425
 30
0.0
 10
478.681705461848
 20
289.9501332009555
 30
0.0
 10
456.4752021241598
 20
309.2055152033955
 30
0.0
 10
430.9614598394497
 20
322.7917019565299
 30
0.0
 10
403.0871815063679
 20
330.3885197326276
 30
0.0
 10
378.9222057488295
 20
331.7468806880402
 30
0.0
 10
359.8622687917614
 20
329.6914513290892
 30
0.0
 10
345.9450716930509
 20
326.5932415334032
 30
0.0
 10
332.6115554482194
 20
322.0673974648147
 30
0.0
 10
315.695033469269
 20
314.5075528613521
 30
0.0
 10
296.4601807572631
 20
302.0137488178461
 30
0.0
 10
280.5925256573222
 20
283.8650867337633
 30
0.0
 10
270.4019146149415
 20
268.5036733798048
 30
0.0
 10
264.5024533952561
 20
257.1700093259402
 30
0.0
 10
260.6171369920548
 20
245.11566652905
 30
0.0
 10
258.2536606996463
 20
231.6729855716214
 30
0.0
 10
257.1102472586168
 20
217.8118249146493
 30
0.0
 10
257.559894030944
 20
204.9515684543467
 30
0.0
 10
259.674041896507
 20
195.6814932610669
 30
0.0
 10
262.0862818071738
 20
188.1791548297245
 30
0.0
 10
264.9447860631415
 20
180.5399989635924
 30
0.0
 10
269.2712341670409
 20
170.9776920389126
 30
0.0
 10
276.1302235715847
 20
160.8829758581408
 30
0.0
 10
283.9417449259317
 20
152.6833090251004
 30
0.0
 10
292.2993283183887
 20
145.9084278652203
 30
0.0
 10
302.4101808211166
 20
140.2702152460667
 30
0.0
 10
313.4093825552902
 20
136.0302581285403
 30
0.0
 10
324.009442576171
 20
133.7570052380632
 30
0.0
 10
331.0021589836687
 20
133.6146462894571
 30
0.0
 10
334.5455222973145
 20
133.8969139671948
 30
0.0
  0
ARC
  5
FD
330
1F
100
AcDbEntity
  8
VISIBLE
100
AcDbCircle
 10
336.0157210493672
 20
115.441211348173
 30
0.0
 40
18.5141687237723
100
AcDbArc
 50
40.48083475184477
 51
68.4292786016694
  0
LINE
  5
FE
330
1F
100
AcDbEntity
  8
VISIBLE
100
AcDbLine
 10
342.8224437281543
 20
132.6587306208905
 30
0.0
 11
349.7574151253059
 21
191.477994927015
 31
0.0
  0
ENDSEC
  0
SECTION
  2
OBJECTS
  0
DICTIONARY
  5
C
330
0
100
AcDbDictionary
  3
ACAD_GROUP
350
D
  3
ACAD_LAYOUT
350
1A
  3
ACAD_MATERIAL
350
43
  3
ACAD_MLEADERSTYLE
350
167
  3
ACAD_MLINESTYLE
350
17
  3
ACAD_PLOTSETTINGS
350
19
  3
ACAD_SCALELIST
350
47
  3
ACAD_VISUALSTYLE
350
2A
  3
ACDBHEADERROUNDTRIPXREC
350
146
  3
ACDBVARIABLEDICTIONARY
350
6C
  3
ONSHAPE_DATA
350
FF
  0
DICTIONARY
  5
72
330
71
100
AcDbDictionary
280
     1
  3
ONSHAPE_VIEW_ID
360
73
  0
DICTIONARY
  5
D
102
{ACAD_REACTORS
330
C
102
}
330
C
100
AcDbDictionary
  0
DICTIONARY
  5
1A
102
{ACAD_REACTORS
330
C
102
}
330
C
100
AcDbDictionary
  0
DICTIONARY
  5
43
102
{ACAD_REACTORS
330
C
102
}
330
C
100
AcDbDictionary
  3
BYBLOCK
350
45
  3
BYLAYER
350
44
  3
GLOBAL
350
46
  0
DICTIONARY
  5
167
102
{ACAD_REACTORS
330
C
102
}
330
C
100
AcDbDictionary
  0
DICTIONARY
  5
17
102
{ACAD_REACTORS
330
C
102
}
330
C
100
AcDbDictionary
  3
STANDARD
350
18
  0
DICTIONARY
  5
19
102
{ACAD_REACTORS
330
C
102
}
330
C
100
AcDbDictionary
  0
DICTIONARY
  5
47
102
{ACAD_REACTORS
330
C
102
}
330
C
100
AcDbDictionary
  3
A0
350
48
  3
A1
350
49
  3
A2
350
4A
  3
A3
350
4B
  3
A4
350
4C
  3
A5
350
4D
  3
A6
350
4E
  3
A7
350
4F
  3
A8
350
50
  3
A9
350
51
  3
B0
350
52
  3
B1
350
53
  3
B2
350
54
  3
B3
350
55
  3
B4
350
56
  3
B5
350
57
  3
B6
350
58
  3
B7
350
59
  3
B8
350
5A
  3
B9
350
5B
  3
C0
350
5C
  3
C1
350
5D
  3
C2
350
5E
  3
C3
350
5F
  3
C4
350
60
  3
C5
350
61
  3
C6
350
62
  3
C7
350
63
  3
C8
350
64
  3
C9
350
65
  3
D0
350
66
  3
D1
350
67
  3
D2
350
68
  0
DICTIONARY
  5
2A
102
{ACAD_REACTORS
330
C
102
}
330
C
100
AcDbDictionary
  3
2DWIREFRAME
350
2F
  3
BASIC
350
32
  3
BRIGHTEN
350
36
  3
COLORCHANGE
350
3A
  3
CONCEPTUAL
350
34
  3
DIM
350
35
  3
EDGECOLOROFF
350
3D
  3
FACEPATTERN
350
39
  3
FLAT
350
2B
  3
FLATWITHEDGES
350
2C
  3
GOURAUD
350
2D
  3
GOURAUDWITHEDGES
350
2E
  3
HIDDEN
350
31
  3
JITTEROFF
350
3B
  3
LINEPATTERN
350
38
  3
OVERHANGOFF
350
3C
  3
REALISTIC
350
33
  3
SHADED
350
42
  3
SHADED_WITH_EDGES
350
41
  3
SHADES_OF_GRAY
350
3E
  3
SKETCHY
350
3F
  3
THICKEN
350
37
  3
WIREFRAME
350
30
  3
X-RAY
350
40
  0
DICTIONARY
  5
146
102
{ACAD_REACTORS
330
C
102
}
330
C
100
AcDbDictionary
  3
CEPSNTYPE
350
14F
  3
DIMSTYLEDATA
350
165
  3
FINGERPRINTGUID
350
150
  3
HYPERLINKBASE
350
149
  3
INSUNITS
350
14E
  3
LAYOUTDICT
350
14B
  3
LWETCUNION
350
14D
  3
PLOTSETDICT
350
14C
  3
PSVPSCALE
350
152
  3
PUCSBASE
350
155
  3
PUCSORGBACK
350
15B
  3
PUCSORGBOTTOM
350
157
  3
PUCSORGFRONT
350
15A
  3
PUCSORGLEFT
350
158
  3
PUCSORGRIGHT
350
159
  3
PUCSORGTOP
350
156
  3
PUCSORTHOREF
350
153
  3
PUCSORTHOVIEW
350
154
  3
STYLESHEET
350
14A
  3
TSTACKALIGN
350
147
  3
TSTACKSIZE
350
148
  3
UCSBASE
350
15E
  3
UCSORGBACK
350
164
  3
UCSORGBOTTOM
350
160
  3
UCSORGFRONT
350
163
  3
UCSORGLEFT
350
161
  3
UCSORGRIGHT
350
162
  3
UCSORGTOP
350
15F
  3
UCSORTHOREF
350
15C
  3
UCSORTHOVIEW
350
15D
  3
VERSIONGUID
350
151
  0
DICTIONARY
  5
6C
102
{ACAD_REACTORS
330
C
102
}
330
C
100
AcDbDictionary
  3
CANNOSCALE
350
16E
  3
CTABLESTYLE
350
166
  3
DIMASSOC
350
16C
  3
HIDETEXT
350
16D
  3
MSLTSCALE
350
16F
  3
OLEFRAME
350
6D
  3
PSOLHEIGHT
350
169
  3
PSOLWIDTH
350
168
  0
DICTIONARY
  5
FF
102
{ACAD_REACTORS
330
C
102
}
330
C
100
AcDbDictionary
280
     1
  3
DIM_UNITS
360
100
  3
ONSHAPE_ANG_TOL_PRECISION
360
103
  3
ONSHAPE_VSHARP_EXTENSION
360
102
  3
ONSHAPE_WELD_STANDARD
360
101
  0
XRECORD
  5
73
102
{ACAD_REACTORS
330
72
102
}
330
72
100
AcDbXrecord
330
0
  0
MATERIAL
  5
45
102
{ACAD_REACTORS
330
43
102
}
102
{ACAD_XDICTIONARY
360
172
102
}
330
43
100
AcDbMaterial
  1
BYBLOCK
  0
MATERIAL
  5
44
102
{ACAD_REACTORS
330
43
102
}
102
{ACAD_XDICTIONARY
360
170
102
}
330
43
100
AcDbMaterial
  1
BYLAYER
  0
MATERIAL
  5
46
102
{ACAD_REACTORS
330
43
102
}
102
{ACAD_XDICTIONARY
360
174
102
}
330
43
100
AcDbMaterial
  1
GLOBAL
  0
MLINESTYLE
  5
18
102
{ACAD_REACTORS
330
17
102
}
330
17
100
AcDbMlineStyle
  2
Standard
 70
     0
  3

 62
   256
 51
90.0
 52
90.0
 71
     2
 49
0.5
 62
   256
  6
BYLAYER
 49
-0.5
 62
   256
  6
BYLAYER
  0
ACAD_PROXY_OBJECT
  5
48
102
{ACAD_REACTORS
330
47
102
}
330
47
100
AcDbProxyObject
 90
      499
 91
      503
 93
       41
310
903313A31580
  0
ACAD_PROXY_OBJECT
  5
49
102
{ACAD_REACTORS
330
47
102
}
330
47
100
AcDbProxyObject
 90
      499
 91
      503
 93
      105
310
903313A324000000000000004000
  0
ACAD_PROXY_OBJECT
  5
4A
102
{ACAD_REACTORS
330
47
102
}
330
47
100
AcDbProxyObject
 90
      499
 91
      503
 93
      105
310
903313A344000000000000104000
  0
ACAD_PROXY_OBJECT
  5
4B
102
{ACAD_REACTORS
330
47
102
}
330
47
100
AcDbProxyObject
 90
      499
 91
      503
 93
      105
310
903313A354000000000000144000
  0
ACAD_PROXY_OBJECT
  5
4C
102
{ACAD_REACTORS
330
47
102
}
330
47
100
AcDbProxyObject
 90
      499
 91
      503
 93
      105
310
903313A384000000000000204000
  0
ACAD_PROXY_OBJECT
  5
4D
102
{ACAD_REACTORS
330
47
102
}
330
47
100
AcDbProxyObject
 90
      499
 91
      503
 93
      113
310
904313A31304000000000000244000
  0
ACAD_PROXY_OBJECT
  5
4E
102
{ACAD_REACTORS
330
47
102
}
330
47
100
AcDbProxyObject
 90
      499
 91
      503
 93
      113
310
904313A31364000000000000304000
  0
ACAD_PROXY_OBJECT
  5
4F
102
{ACAD_REACTORS
330
47
102
}
330
47
100
AcDbProxyObject
 90
      499
 91
      503
 93
      113
310
904313A32304000000000000344000
  0
ACAD_PROXY_OBJECT
  5
50
102
{ACAD_REACTORS
330
47
102
}
330
47
100
AcDbProxyObject
 90
      499
 91
      503
 93
      113
310
904313A333040000000000003E4000
  0
ACAD_PROXY_OBJECT
  5
51
102
{ACAD_REACTORS
330
47
102
}
330
47
100
AcDbProxyObject
 90
      499
 91
      503
 93
      113
310
904313A34304000000000000444000
  0
ACAD_PROXY_OBJECT
  5
52
102
{ACAD_REACTORS
330
47
102
}
330
47
100
AcDbProxyObject
 90
      499
 91
      503
 93
      113
310
904313A35304000000000000494000
  0
ACAD_PROXY_OBJECT
  5
53
102
{ACAD_REACTORS
330
47
102
}
330
47
100
AcDbProxyObject
 90
      499
 91
      503
 93
      121
310
905313A3130304000000000000594000
  0
ACAD_PROXY_OBJECT
  5
54
102
{ACAD_REACTORS
330
47
102
}
330
47
100
AcDbProxyObject
 90
      499
 91
      503
 93
      105
310
903323A310000000000000010100
  0
ACAD_PROXY_OBJECT
  5
55
102
{ACAD_REACTORS
330
47
102
}
330
47
100
AcDbProxyObject
 90
      499
 91
      503
 93
      105
310
903343A310000000000000410100
  0
ACAD_PROXY_OBJECT
  5
56
102
{ACAD_REACTORS
330
47
102
}
330
47
100
AcDbProxyObject
 90
      499
 91
      503
 93
      105
310
903383A310000000000000810100
  0
ACAD_PROXY_OBJECT
  5
57
102
{ACAD_REACTORS
330
47
102
}
330
47
100
AcDbProxyObject
 90
      499
 91
      503
 93
      113
310
90431303A310000000000000910100
  0
ACAD_PROXY_OBJECT
  5
58
102
{ACAD_REACTORS
330
47
102
}
330
47
100
AcDbProxyObject
 90
      499
 91
      503
 93
      121
310
9053130303A310000000000001650100
  0
ACAD_PROXY_OBJECT
  5
59
102
{ACAD_REACTORS
330
47
102
}
330
47
100
AcDbProxyObject
 90
      499
 91
      503
 93
      257
310
90E312F31323822203D2031272D3022000000000000200FC000000000000284000
  0
ACAD_PROXY_OBJECT
  5
5A
102
{ACAD_REACTORS
330
47
102
}
330
47
100
AcDbProxyObject
 90
      499
 91
      503
 93
      249
310
90D312F363422203D2031272D3022000000000000240FC000000000000284000
  0
ACAD_PROXY_OBJECT
  5
5B
102
{ACAD_REACTORS
330
47
102
}
330
47
100
AcDbProxyObject
 90
      499
 91
      503
 93
      249
310
90D312F333222203D2031272D3022000000000000280FC000000000000284000
  0
ACAD_PROXY_OBJECT
  5
5C
102
{ACAD_REACTORS
330
47
102
}
330
47
100
AcDbProxyObject
 90
      499
 91
      503
 93
      249
310
90D312F313622203D2031272D30220000000000002C0FC000000000000284000
  0
ACAD_PROXY_OBJECT
  5
5D
102
{ACAD_REACTORS
330
47
102
}
330
47
100
AcDbProxyObject
 90
      499
 91
      503
 93
      249
310
90D332F333222203D2031272D30220000000000002E0FC000000000000284000
  0
ACAD_PROXY_OBJECT
  5
5E
102
{ACAD_REACTORS
330
47
102
}
330
47
100
AcDbProxyObject
 90
      499
 91
      503
 93
      241
310
90C312F3822203D2031272D3022000000000000300FC000000000000284000
  0
ACAD_PROXY_OBJECT
  5
5F
102
{ACAD_REACTORS
330
47
102
}
330
47
100
AcDbProxyObject
 90
      499
 91
      503
 93
      249
310
90D332F313622203D2031272D3022000000000000320FC000000000000284000
  0
ACAD_PROXY_OBJECT
  5
60
102
{ACAD_REACTORS
330
47
102
}
330
47
100
AcDbProxyObject
 90
      499
 91
      503
 93
      241
310
90C312F3422203D2031272D3022000000000000340FC000000000000284000
  0
ACAD_PROXY_OBJECT
  5
61
102
{ACAD_REACTORS
330
47
102
}
330
47
100
AcDbProxyObject
 90
      499
 91
      503
 93
      241
310
90C332F3822203D2031272D3022000000000000360FC000000000000284000
  0
ACAD_PROXY_OBJECT
  5
62
102
{ACAD_REACTORS
330
47
102
}
330
47
100
AcDbProxyObject
 90
      499
 91
      503
 93
      241
310
90C312F3222203D2031272D3022000000000000380FC000000000000284000
  0
ACAD_PROXY_OBJECT
  5
63
102
{ACAD_REACTORS
330
47
102
}
330
47
100
AcDbProxyObject
 90
      499
 91
      503
 93
      241
310
90C332F3422203D2031272D30220000000000003A0FC000000000000284000
  0
ACAD_PROXY_OBJECT
  5
64
102
{ACAD_REACTORS
330
47
102
}
330
47
100
AcDbProxyObject
 90
      499
 91
      503
 93
      161
310
90A3122203D2031272D30224000000000000284000
  0
ACAD_PROXY_OBJECT
  5
65
102
{ACAD_REACTORS
330
47
102
}
330
47
100
AcDbProxyObject
 90
      499
 91
      503
 93
      257
310
90E312D312F3222203D2031272D30220000000000003E0FC000000000000284000
  0
ACAD_PROXY_OBJECT
  5
66
102
{ACAD_REACTORS
330
47
102
}
330
47
100
AcDbProxyObject
 90
      499
 91
      503
 93
      225
310
90A3322203D2031272D302200000000000002100000000000000284000
  0
ACAD_PROXY_OBJECT
  5
67
102
{ACAD_REACTORS
330
47
102
}
330
47
100
AcDbProxyObject
 90
      499
 91
      503
 93
      225
310
90A3622203D2031272D302200000000000006100000000000000284000
  0
ACAD_PROXY_OBJECT
  5
68
102
{ACAD_REACTORS
330
47
102
}
330
47
100
AcDbProxyObject
 90
      499
 91
      503
 93
      249
310
90D31272D3022203D2031272D30220000000000000A100000000000000284000
  0
ACAD_PROXY_OBJECT
  5
2F
102
{ACAD_REACTORS
330
2A
102
}
330
2A
100
AcDbProxyObject
 90
      499
 91
      501
 93
      436
310
42CC9915DA5C99599C985B595049028333333333333E33F0000000000000F90107901411070040501600405405064090741402480A0340
1001
ACAD
1000
AcDbSavedByObjectVersion
1070
     0
  0
ACAD_PROXY_OBJECT
  5
32
102
{ACAD_REACTORS
330
2A
102
}
330
2A
100
AcDbProxyObject
 90
      499
 91
      501
 93
      388
310
4150985CDA58D07406404333333333333E33F0000000000000F90107A41107004050150841D405064090741402480A0350
1001
ACAD
1000
AcDbSavedByObjectVersion
1070
     0
  0
ACAD_PROXY_OBJECT
  5
36
102
{ACAD_REACTORS
330
2A
102
}
330
2A
100
AcDbProxyObject
 90
      499
 91
      501
 93
      428
310
42109C9A59DA1D195B90C409028333333333333E33F0000000000000F9010790141107004050150841D405064090741402480A029950
1001
ACAD
1000
AcDbSavedByObjectVersion
1070
     0
  0
ACAD_PROXY_OBJECT
  5
3A
102
{ACAD_REACTORS
330
2A
102
}
330
2A
100
AcDbProxyObject
 90
      499
 91
      501
 93
      452
310
42D0DBDB1BDC90DA185B99D95104090240C333333333333E33F0000000000000F90108901411070040501508421405064090741402480A0350
1001
ACAD
1000
AcDbSavedByObjectVersion
1070
     0
  0
ACAD_PROXY_OBJECT
  5
34
102
{ACAD_REACTORS
330
2A
102
}
330
2A
100
AcDbProxyObject
 90
      499
 91
      501
 93
      500
310
4290DBDB98D95C1D1D585B10940D028333333333333E33F0000000000000F90107902409070040501000000000018199010841D405064090740C02480A0340
1001
ACAD
1000
AcDbSavedByObjectVersion
1070
     0
  0
ACAD_PROXY_OBJECT
  5
35
102
{ACAD_REACTORS
330
2A
102
}
330
2A
100
AcDbProxyObject
 90
      499
 91
      501
 93
      412
310
40D11A5B50B409028333333333333E33F0000000000000F9010790141107004050150841D405064090741402480A02677FFFFFD0
1001
ACAD
1000
AcDbSavedByObjectVersion
1070
     0
  0
ACAD_PROXY_OBJECT
  5
3D
102
{ACAD_REACTORS
330
2A
102
}
330
2A
100
AcDbProxyObject
 90
      499
 91
      501
 93
      452
310
43115919D950DBDB1BDC93D999916409028333333333333E33F0000000000000F9010790141107004050150841D405064090741402480A0350
1001
ACAD
1000
AcDbSavedByObjectVersion
1070
     0
  0
ACAD_PROXY_OBJECT
  5
39
102
{ACAD_REACTORS
330
2A
102
}
330
2A
100
AcDbProxyObject
 90
      499
 91
      501
 93
      444
310
42D19858D95C185D1D195C9B90F409028333333333333E33F0000000000000F9010790141107004050150841D405064090741402480A0350
1001
ACAD
1000
AcDbSavedByObjectVersion
1070
     0
  0
ACAD_PROXY_OBJECT
  5
2B
102
{ACAD_REACTORS
330
2A
102
}
330
2A
100
AcDbProxyObject
 90
      499
 91
      501
 93
      380
310
41119B185D240901404333333333333E33F0000000000000F9010740A907004050150841D405064090741402480A1B50
1001
ACAD
1000
AcDbSavedByObjectVersion
1070
     0
  0
ACAD_PROXY_OBJECT
  5
2C
102
{ACAD_REACTORS
330
2A
102
}
330
2A
100
AcDbProxyObject
 90
      499
 91
      501
 93
      468
310
43519B185D15DA5D1A115919D95CD0140901404333333333333E33F0000000000000F90107409019070040501600405405064090741402480A1B50
1001
ACAD
1000
AcDbSavedByObjectVersion
1070
     0
  0
ACAD_PROXY_OBJECT
  5
2D
102
{ACAD_REACTORS
330
2A
102
}
330
2A
100
AcDbProxyObject
 90
      499
 91
      501
 93
      404
310
41D1DBDD5C985D5910240902404333333333333E33F0000000000000F9010740A9070040501641D405064090741402480A1B50
1001
ACAD
1000
AcDbSavedByObjectVersion
1070
     0
  0
ACAD_PROXY_OBJECT
  5
2E
102
{ACAD_REACTORS
330
2A
102
}
330
2A
100
AcDbProxyObject
 90
      499
 91
      501
 93
      492
310
4411DBDD5C985D5915DA5D1A115919D95CD0340902404333333333333E33F0000000000000F90107409019070040501600405405064090741402480A1B50
1001
ACAD
1000
AcDbSavedByObjectVersion
1070
     0
  0
ACAD_PROXY_OBJECT
  5
31
102
{ACAD_REACTORS
330
2A
102
}
330
2A
100
AcDbProxyObject
 90
      499
 91
      501
 93
      476
310
41921A5919195B90640502408333333333333E33F0000000000000F901079024090700405020000000000001110200405405064090740C02480A0340
1001
ACAD
1000
AcDbSavedByObjectVersion
1070
     0
  0
ACAD_PROXY_OBJECT
  5
3B
102
{ACAD_REACTORS
330
2A
102
}
330
2A
100
AcDbProxyObject
 90
      499
 91
      501
 93
      428
310
42529A5D1D195C93D999914409028333333333333E33F0000000000000F9010790141107004050150A41D405064090741402480A0350
1001
ACAD
1000
AcDbSavedByObjectVersion
1070
     0
  0
ACAD_PROXY_OBJECT
  5
38
102
{ACAD_REACTORS
330
2A
102
}
330
2A
100
AcDbProxyObject
 90
      499
 91
      501
 93
      444
310
42D31A5B995C185D1D195C9B90E409028333333333333E33F0000000000000F9010790141107004050750841D405064090741402483A0350
1001
ACAD
1000
AcDbSavedByObjectVersion
1070
     0
  0
ACAD_PROXY_OBJECT
  5
3C
102
{ACAD_REACTORS
330
2A
102
}
330
2A
100
AcDbProxyObject
 90
      499
 91
      501
 93
      444
310
42D3DD995C9A185B99D3D999915409028333333333333E33F0000000000000F9010790141107004050150941D405064090741402480A0350
1001
ACAD
1000
AcDbSavedByObjectVersion
1070
     0
  0
ACAD_PROXY_OBJECT
  5
33
102
{ACAD_REACTORS
330
2A
102
}
330
2A
100
AcDbProxyObject
 90
      499
 91
      501
 93
      428
310
425499585B1A5CDD1A58D08409038333333333333E33F0000000000000F9010740A907004050150800405405064090740C02480A1B40
1001
ACAD
1000
AcDbSavedByObjectVersion
1070
     0
  0
ACAD_PROXY_OBJECT
  5
42
102
{ACAD_REACTORS
330
2A
102
}
330
2A
100
AcDbProxyObject
 90
      499
 91
      501
 93
      420
310
4194DA1859195911B40902404333333333333E33F0000000000000F9010740A41107004050150800405405064090840C02480A0B40
1001
ACAD
1000
AcDbSavedByObjectVersion
1070
     0
  0
ACAD_PROXY_OBJECT
  5
41
102
{ACAD_REACTORS
330
2A
102
}
330
2A
100
AcDbProxyObject
 90
      499
 91
      501
 93
      516
310
4454DA18591959081DDA5D1A08195919D95CD1A40902404333333333333E33F0000000000000F901074090142907004050250800405405064090740C02480A0B40
1001
ACAD
1000
AcDbSavedByObjectVersion
1070
     0
  0
ACAD_PROXY_OBJECT
  5
3E
102
{ACAD_REACTORS
330
2A
102
}
330
2A
100
AcDbProxyObject
 90
      499
 91
      501
 93
      532
310
4394DA1859195CC81BD98811DC985E5174090240C333333333333E33F0000000000000F901079024090741D01000000000000111010841D405064090740C02480A0340
1001
ACAD
1000
AcDbSavedByObjectVersion
1070
     0
  0
ACAD_PROXY_OBJECT
  5
3F
102
{ACAD_REACTORS
330
2A
102
}
330
2A
100
AcDbProxyObject
 90
      499
 91
      501
 93
      476
310
41D4DAD95D18DA1E51840502408333333333333E33F0000000000000F901079024090741D01000000000000111010B41D405064090741802480A0340
1001
ACAD
1000
AcDbSavedByObjectVersion
1070
     0
  0
ACAD_PROXY_OBJECT
  5
37
102
{ACAD_REACTORS
330
2A
102
}
330
2A
100
AcDbProxyObject
 90
      499
 91
      501
 93
      412
310
41D51A1A58DAD95B90D409028333333333333E33F0000000000000F9010790141107004050150C41D405064090741402480A0350
1001
ACAD
1000
AcDbSavedByObjectVersion
1070
     0
  0
ACAD_PROXY_OBJECT
  5
30
102
{ACAD_REACTORS
330
2A
102
}
330
2A
100
AcDbProxyObject
 90
      499
 91
      501
 93
      420
310
4255DA5C99599C985B595059028333333333333E33F0000000000000F90107901411070040501600405405064090740C02480A0340
1001
ACAD
1000
AcDbSavedByObjectVersion
1070
     0
  0
ACAD_PROXY_OBJECT
  5
40
102
{ACAD_REACTORS
330
2A
102
}
330
2A
100
AcDbProxyObject
 90
      499
 91
      501
 93
      404
310
41560B54985E51940902404000000000000E03F0000000000000F9010740501907004050150841D405064090740C02480A1B40
1001
ACAD
1000
AcDbSavedByObjectVersion
1070
     0
  0
XRECORD
  5
14F
102
{ACAD_REACTORS
330
146
102
}
330
146
100
AcDbXrecord
 90
        0
  0
XRECORD
  5
165
102
{ACAD_REACTORS
330
146
102
}
330
146
100
AcDbXrecord
1000
DSTYLE
1002
{
1070
   179
 70
     1
1070
   143
 40
0.03937
1070
   285
 70
     8
1070
   176
 70
     7
1070
   177
 70
     7
1070
   178
 70
     7
1070
   278
 70
    46
1070
   371
 70
    13
1070
   372
 70
    13
1070
   340
340
70
1070
   140
 40
3.5
1070
   288
 70
     1
1002
}
  0
XRECORD
  5
150
102
{ACAD_REACTORS
330
146
102
}
330
146
100
AcDbXrecord
  1
{523F3915-335B-0262-B800-3EB3860D8E68}
  0
XRECORD
  5
149
102
{ACAD_REACTORS
330
146
102
}
330
146
100
AcDbXrecord
  1

  0
XRECORD
  5
14E
102
{ACAD_REACTORS
330
146
102
}
330
146
100
AcDbXrecord
 90
        4
  0
XRECORD
  5
14B
102
{ACAD_REACTORS
330
146
102
}
330
146
100
AcDbXrecord
340
1A
  0
XRECORD
  5
14D
102
{ACAD_REACTORS
330
146
102
}
330
146
100
AcDbXrecord
 90
    10269
  0
XRECORD
  5
14C
102
{ACAD_REACTORS
330
146
102
}
330
146
100
AcDbXrecord
340
19
  0
XRECORD
  5
152
102
{ACAD_REACTORS
330
146
102
}
330
146
100
AcDbXrecord
 40
0.0
  0
XRECORD
  5
155
102
{ACAD_REACTORS
330
146
102
}
330
146
100
AcDbXrecord
340
0
  0
XRECORD
  5
15B
102
{ACAD_REACTORS
330
146
102
}
330
146
100
AcDbXrecord
 10
0.0
 20
0.0
 30
0.0
  0
XRECORD
  5
157
102
{ACAD_REACTORS
330
146
102
}
330
146
100
AcDbXrecord
 10
0.0
 20
0.0
 30
0.0
  0
XRECORD
  5
15A
102
{ACAD_REACTORS
330
146
102
}
330
146
100
AcDbXrecord
 10
0.0
 20
0.0
 30
0.0
  0
XRECORD
  5
158
102
{ACAD_REACTORS
330
146
102
}
330
146
100
AcDbXrecord
 10
0.0
 20
0.0
 30
0.0
  0
XRECORD
  5
159
102
{ACAD_REACTORS
330
146
102
}
330
146
100
AcDbXrecord
 10
0.0
 20
0.0
 30
0.0
  0
XRECORD
  5
156
102
{ACAD_REACTORS
330
146
102
}
330
146
100
AcDbXrecord
 10
0.0
 20
0.0
 30
0.0
  0
XRECORD
  5
153
102
{ACAD_REACTORS
330
146
102
}
330
146
100
AcDbXrecord
340
0
  0
XRECORD
  5
154
102
{ACAD_REACTORS
330
146
102
}
330
146
100
AcDbXrecord
 70
     0
  0
XRECORD
  5
14A
102
{ACAD_REACTORS
330
146
102
}
330
146
100
AcDbXrecord
  1

  0
XRECORD
  5
147
102
{ACAD_REACTORS
330
146
102
}
330
146
100
AcDbXrecord
 90
        1
  0
XRECORD
  5
148
102
{ACAD_REACTORS
330
146
102
}
330
146
100
AcDbXrecord
 90
       70
  0
XRECORD
  5
15E
102
{ACAD_REACTORS
330
146
102
}
330
146
100
AcDbXrecord
340
0
  0
XRECORD
  5
164
102
{ACAD_REACTORS
330
146
102
}
330
146
100
AcDbXrecord
 10
0.0
 20
0.0
 30
0.0
  0
XRECORD
  5
160
102
{ACAD_REACTORS
330
146
102
}
330
146
100
AcDbXrecord
 10
0.0
 20
0.0
 30
0.0
  0
XRECORD
  5
163
102
{ACAD_REACTORS
330
146
102
}
330
146
100
AcDbXrecord
 10
0.0
 20
0.0
 30
0.0
  0
XRECORD
  5
161
102
{ACAD_REACTORS
330
146
102
}
330
146
100
AcDbXrecord
 10
0.0
 20
0.0
 30
0.0
  0
XRECORD
  5
162
102
{ACAD_REACTORS
330
146
102
}
330
146
100
AcDbXrecord
 10
0.0
 20
0.0
 30
0.0
  0
XRECORD
  5
15F
102
{ACAD_REACTORS
330
146
102
}
330
146
100
AcDbXrecord
 10
0.0
 20
0.0
 30
0.0
  0
XRECORD
  5
15C
102
{ACAD_REACTORS
330
146
102
}
330
146
100
AcDbXrecord
340
0
  0
XRECORD
  5
15D
102
{ACAD_REACTORS
330
146
102
}
330
146
100
AcDbXrecord
 70
     0
  0
XRECORD
  5
151
102
{ACAD_REACTORS
330
146
102
}
330
146
100
AcDbXrecord
  1
{FAEB1C32-E019-11D5-929B-00C0DF256EC4}
  0
DICTIONARYVAR
  5
16E
102
{ACAD_REACTORS
330
6C
102
}
330
6C
100
DictionaryVariables
280
     0
  1
1:1
  0
DICTIONARYVAR
  5
166
102
{ACAD_REACTORS
330
6C
102
}
330
6C
100
DictionaryVariables
280
     0
  1
Onshape-Standard
  0
DICTIONARYVAR
  5
16C
102
{ACAD_REACTORS
330
6C
102
}
330
6C
100
DictionaryVariables
280
     0
  1
2
  0
DICTIONARYVAR
  5
16D
102
{ACAD_REACTORS
330
6C
102
}
330
6C
100
DictionaryVariables
280
     0
  1
1
  0
DICTIONARYVAR
  5
16F
102
{ACAD_REACTORS
330
6C
102
}
330
6C
100
DictionaryVariables
280
     0
  1
1
  0
DICTIONARYVAR
  5
6D
102
{ACAD_REACTORS
330
6C
102
}
330
6C
100
DictionaryVariables
280
     0
  1
0
  0
DICTIONARYVAR
  5
169
102
{ACAD_REACTORS
330
6C
102
}
330
6C
100
DictionaryVariables
280
     0
  1
80.000000
  0
DICTIONARYVAR
  5
168
102
{ACAD_REACTORS
330
6C
102
}
330
6C
100
DictionaryVariables
280
     0
  1
5.000000
  0
XRECORD
  5
100
102
{ACAD_REACTORS
330
FF
102
}
330
FF
100
AcDbXrecord
 70
     4
  0
XRECORD
  5
103
102
{ACAD_REACTORS
330
FF
102
}
330
FF
100
AcDbXrecord
 90
        0
  0
XRECORD
  5
102
102
{ACAD_REACTORS
330
FF
102
}
330
FF
100
AcDbXrecord
 90
        0
  0
XRECORD
  5
101
102
{ACAD_REACTORS
330
FF
102
}
330
FF
100
AcDbXrecord
 90
        1
  0
DICTIONARY
  5
172
330
45
100
AcDbDictionary
280
     1
  3
ACAD_XREC_ROUNDTRIP
360
173
  0
DICTIONARY
  5
170
330
44
100
AcDbDictionary
280
     1
  3
ACAD_XREC_ROUNDTRIP
360
171
  0
DICTIONARY
  5
174
330
46
100
AcDbDictionary
280
     1
  3
ACAD_XREC_ROUNDTRIP
360
175
  0
XRECORD
  5
173
102
{ACAD_REACTORS
330
172
102
}
330
172
100
AcDbXrecord
102
MATERIAL
148
0.0
149
0.0
149
0.0
 93
        0
 94
      127
282
     0
 72
     1
 77
     1
171
     1
175
     1
179
     1
273
     0
  0
XRECORD
  5
171
102
{ACAD_REACTORS
330
170
102
}
330
170
100
AcDbXrecord
102
MATERIAL
148
0.0
149
0.0
149
0.0
 93
        0
 94
      127
282
     0
 72
     1
 77
     1
171
     1
175
     1
179
     1
273
     0
  0
XRECORD
  5
175
102
{ACAD_REACTORS
330
174
102
}
330
174
100
AcDbXrecord
102
MATERIAL
148
0.0
149
0.0
149
0.0
 93
        0
 94
      127
282
     0
 72
     1
 77
     1
171
     1
175
     1
179
     1
273
     0
  0
ENDSEC
  0
EOF
