  0
SECTION
  2
HEADER
  9
$ACADVER
  1
AC1014
  9
$ACADMAINTVER
 70
     9
  9
$DWGCODEPAGE
  3
ANSI_1252
  9
$INSBASE
 10
0.0
 20
0.0
 30
0.0
  9
$EXTMIN
 10
1.000000000000000E+20
 20
1.000000000000000E+20
 30
1.000000000000000E+20
  9
$EXTMAX
 10
-1.000000000000000E+20
 20
-1.000000000000000E+20
 30
-1.000000000000000E+20
  9
$LIMMIN
 10
0.0
 20
0.0
  9
$LIMMAX
 10
420.0
 20
297.0
  9
$ORTHOMODE
 70
     0
  9
$REGENMODE
 70
     1
  9
$FILLMODE
 70
     1
  9
$QTEXTMODE
 70
     0
  9
$MIRRTEXT
 70
     1
  9
$DRAGMODE
 70
     2
  9
$LTSCALE
 40
12.7
  9
$OSMODE
 70
    23
  9
$ATTMODE
 70
     1
  9
$TEXTSIZE
 40
3.5
  9
$TRACEWID
 40
1.0
  9
$TEXTSTYLE
  7
ONSHAPE-STANDARD
  9
$CLAYER
  8
0
  9
$CELTYPE
  6
BYLAYER
  9
$CECOLOR
 62
   256
  9
$CELTSCALE
 40
1.0
  9
$DELOBJ
 70
     1
  9
$DISPSILH
 70
     0
  9
$DIMSCALE
 40
1.0
  9
$DIMASZ
 40
2.5
  9
$DIMEXO
 40
0.625
  9
$DIMDLI
 40
3.75
  9
$DIMRND
 40
0.0
  9
$DIMDLE
 40
0.0
  9
$DIMEXE
 40
1.25
  9
$DIMTP
 40
0.0
  9
$DIMTM
 40
0.0
  9
$DIMTXT
 40
2.5
  9
$DIMCEN
 40
2.5
  9
$DIMTSZ
 40
0.0
  9
$DIMTOL
 70
     0
  9
$DIMLIM
 70
     0
  9
$DIMTIH
 70
     0
  9
$DIMTOH
 70
     0
  9
$DIMSE1
 70
     0
  9
$DIMSE2
 70
     0
  9
$DIMTAD
 70
     1
  9
$DIMZIN
 70
     8
  9
$DIMBLK
  1

  9
$DIMASO
 70
     1
  9
$DIMSHO
 70
     1
  9
$DIMPOST
  1

  9
$DIMAPOST
  1

  9
$DIMALT
 70
     0
  9
$DIMALTD
 70
     3
  9
$DIMALTF
 40
0.03937
  9
$DIMLFAC
 40
1.0
  9
$DIMTOFL
 70
     1
  9
$DIMTVP
 40
0.0
  9
$DIMTIX
 70
     0
  9
$DIMSOXD
 70
     0
  9
$DIMSAH
 70
     0
  9
$DIMBLK1
  1

  9
$DIMBLK2
  1

  9
$DIMSTYLE
  2
ONSHAPE-ISO-25
  9
$DIMCLRD
 70
     7
  9
$DIMCLRE
 70
     7
  9
$DIMCLRT
 70
     7
  9
$DIMTFAC
 40
1.0
  9
$DIMGAP
 40
0.625
  9
$DIMJUST
 70
     0
  9
$DIMSD1
 70
     0
  9
$DIMSD2
 70
     0
  9
$DIMTOLJ
 70
     0
  9
$DIMTZIN
 70
     8
  9
$DIMALTZ
 70
     8
  9
$DIMALTTZ
 70
     0
  9
$DIMFIT
 70
     3
  9
$DIMUPT
 70
     1
  9
$DIMUNIT
 70
     2
  9
$DIMDEC
 70
     2
  9
$DIMTDEC
 70
     3
  9
$DIMALTU
 70
     2
  9
$DIMALTTD
 70
     3
  9
$DIMTXSTY
  7
ONSHAPE-STANDARD-DIMENSION
  9
$DIMAUNIT
 70
     0
  9
$LUNITS
 70
     2
  9
$LUPREC
 70
     4
  9
$SKETCHINC
 40
1.0
  9
$FILLETRAD
 40
10.0
  9
$AUNITS
 70
     0
  9
$AUPREC
 70
     0
  9
$MENU
  1
.
  9
$ELEVATION
 40
0.0
  9
$PELEVATION
 40
0.0
  9
$THICKNESS
 40
0.0
  9
$LIMCHECK
 70
     0
  9
$CHAMFERA
 40
0.0
  9
$CHAMFERB
 40
0.0
  9
$CHAMFERC
 40
0.0
  9
$CHAMFERD
 40
0.0
  9
$SKPOLY
 70
     0
  9
$TDCREATE
 40
2458999.763090266
  9
$TDUPDATE
 40
2458999.763090266
  9
$TDINDWG
 40
0.0
  9
$TDUSRTIMER
 40
0.0
  9
$USRTIMER
 70
     1
  9
$ANGBASE
 50
0.0
  9
$ANGDIR
 70
     0
  9
$PDMODE
 70
     0
  9
$PDSIZE
 40
0.0
  9
$PLINEWID
 40
0.0
  9
$COORDS
 70
     1
  9
$SPLFRAME
 70
     0
  9
$SPLINETYPE
 70
     6
  9
$SPLINESEGS
 70
     8
  9
$ATTDIA
 70
     0
  9
$ATTREQ
 70
     1
  9
$HANDLING
 70
     1
  9
$HANDSEED
  5
13D
  9
$SURFTAB1
 70
     6
  9
$SURFTAB2
 70
     6
  9
$SURFTYPE
 70
     6
  9
$SURFU
 70
     6
  9
$SURFV
 70
     6
  9
$UCSNAME
  2

  9
$UCSORG
 10
0.0
 20
0.0
 30
0.0
  9
$UCSXDIR
 10
1.0
 20
0.0
 30
0.0
  9
$UCSYDIR
 10
0.0
 20
1.0
 30
0.0
  9
$PUCSNAME
  2

  9
$PUCSORG
 10
0.0
 20
0.0
 30
0.0
  9
$PUCSXDIR
 10
1.0
 20
0.0
 30
0.0
  9
$PUCSYDIR
 10
0.0
 20
1.0
 30
0.0
  9
$USERI1
 70
     0
  9
$USERI2
 70
     0
  9
$USERI3
 70
     0
  9
$USERI4
 70
     0
  9
$USERI5
 70
     0
  9
$USERR1
 40
0.0
  9
$USERR2
 40
0.0
  9
$USERR3
 40
0.0
  9
$USERR4
 40
0.0
  9
$USERR5
 40
0.0
  9
$WORLDVIEW
 70
     1
  9
$SHADEDGE
 70
     3
  9
$SHADEDIF
 70
    70
  9
$TILEMODE
 70
     1
  9
$MAXACTVP
 70
    64
  9
$PINSBASE
 10
0.0
 20
0.0
 30
0.0
  9
$PLIMCHECK
 70
     0
  9
$PEXTMIN
 10
1.000000000000000E+20
 20
1.000000000000000E+20
 30
1.000000000000000E+20
  9
$PEXTMAX
 10
-1.000000000000000E+20
 20
-1.000000000000000E+20
 30
-1.000000000000000E+20
  9
$PLIMMIN
 10
0.0
 20
0.0
  9
$PLIMMAX
 10
420.0
 20
297.0
  9
$UNITMODE
 70
     0
  9
$VISRETAIN
 70
     1
  9
$PLINEGEN
 70
     0
  9
$PSLTSCALE
 70
     1
  9
$TREEDEPTH
 70
  3020
  9
$PICKSTYLE
 70
     1
  9
$CMLSTYLE
  2
STANDARD
  9
$CMLJUST
 70
     0
  9
$CMLSCALE
 40
20.0
  9
$PROXYGRAPHICS
 70
     1
  9
$MEASUREMENT
 70
     1
  0
ENDSEC
  0
SECTION
  2
CLASSES
  0
CLASS
  1
ACDBDICTIONARYWDFLT
  2
AcDbDictionaryWithDefault
  3
ObjectDBX Classes
 90
        0
280
     0
281
     0
  0
CLASS
  1
VISUALSTYLE
  2
AcDbVisualStyle
  3
ObjectDBX Classes
 90
     4095
280
     0
281
     0
  0
CLASS
  1
MATERIAL
  2
AcDbMaterial
  3
ObjectDBX Classes
 90
     1153
280
     0
281
     0
  0
CLASS
  1
SCALE
  2
AcDbScale
  3
ObjectDBX Classes
 90
     1153
280
     0
281
     0
  0
CLASS
  1
SUN
  2
AcDbSun
  3
SCENEOE
 90
     1153
280
     0
281
     0
  0
CLASS
  1
TABLESTYLE
  2
AcDbTableStyle
  3
ObjectDBX Classes
 90
     4095
280
     0
281
     0
  0
CLASS
  1
DICTIONARYVAR
  2
AcDbDictionaryVar
  3
ObjectDBX Classes
 90
        0
280
     0
281
     0
  0
CLASS
  1
XRECORD
  2
AcDbXrecord
  3
ObjectDBX Classes
 90
        0
280
     0
281
     0
  0
CLASS
  1
LWPOLYLINE
  2
AcDbPolyline
  3
ObjectDBX Classes
 90
        0
280
     0
281
     1
  0
CLASS
  1
HATCH
  2
AcDbHatch
  3
ObjectDBX Classes
 90
        0
280
     0
281
     1
  0
CLASS
  1
ACDBPLACEHOLDER
  2
AcDbPlaceHolder
  3
ObjectDBX Classes
 90
        0
280
     0
281
     0
  0
CLASS
  1
LAYOUT
  2
AcDbLayout
  3
ObjectDBX Classes
 90
        0
280
     0
281
     0
  0
ENDSEC
  0
SECTION
  2
TABLES
  0
TABLE
  2
VPORT
  5
8
330
0
100
AcDbSymbolTable
 70
     1
  0
VPORT
  5
29
330
8
100
AcDbSymbolTableRecord
100
AcDbViewportTableRecord
  2
*ACTIVE
 70
     0
 10
0.0
 20
0.0
 11
1.0
 21
1.0
 12
422.7451673784967
 22
218.3029891579417
 13
0.0
 23
0.0
 14
10.0
 24
10.0
 15
10.0
 25
10.0
 16
0.0
 26
0.0
 36
1.0
 17
0.0
 27
0.0
 37
0.0
 40
252.1122230073299
 41
1.078239617461719
 42
50.0
 43
0.0
 44
0.0
 50
0.0
 51
0.0
 71
     0
 72
   100
 73
     1
 74
     3
 75
     0
 76
     0
 77
     0
 78
     0
  0
ENDTAB
  0
TABLE
  2
LTYPE
  5
5
330
0
100
AcDbSymbolTable
 70
     1
  0
LTYPE
  5
14
330
5
100
AcDbSymbolTableRecord
100
AcDbLinetypeTableRecord
  2
BYBLOCK
 70
     0
  3

 72
    65
 73
     0
 40
0.0
  0
LTYPE
  5
15
330
5
100
AcDbSymbolTableRecord
100
AcDbLinetypeTableRecord
  2
BYLAYER
 70
     0
  3

 72
    65
 73
     0
 40
0.0
  0
LTYPE
  5
16
330
5
100
AcDbSymbolTableRecord
100
AcDbLinetypeTableRecord
  2
CONTINUOUS
 70
     0
  3
Solid line
 72
    65
 73
     0
 40
0.0
  0
ENDTAB
  0
TABLE
  2
LAYER
  5
2
330
0
100
AcDbSymbolTable
 70
     4
  0
LAYER
  5
10
330
2
100
AcDbSymbolTableRecord
100
AcDbLayerTableRecord
  2
0
 70
     0
 62
     7
  6
CONTINUOUS
  0
LAYER
  5
6E
330
2
100
AcDbSymbolTableRecord
100
AcDbLayerTableRecord
  2
DEFPOINTS
 70
     0
 62
     7
  6
CONTINUOUS
  0
LAYER
  5
75
330
2
100
AcDbSymbolTableRecord
100
AcDbLayerTableRecord
  2
ANNOTATION_TEXT
 70
     0
 62
     7
  6
CONTINUOUS
  0
LAYER
  5
78
330
2
100
AcDbSymbolTableRecord
100
AcDbLayerTableRecord
  2
VISIBLE
 70
     0
 62
     7
  6
CONTINUOUS
  0
ENDTAB
  0
TABLE
  2
STYLE
  5
3
330
0
100
AcDbSymbolTable
 70
    27
  0
STYLE
  5
11
330
3
100
AcDbSymbolTableRecord
100
AcDbTextStyleTableRecord
  2
STANDARD
 70
     0
 40
0.0
 41
1.0
 50
0.0
 71
     0
 42
3.5
  3
txt
  4

  0
STYLE
  5
6F
330
3
100
AcDbSymbolTableRecord
100
AcDbTextStyleTableRecord
  2
ONSHAPE-STANDARD
 70
     0
 40
0.0
 41
1.0
 50
0.0
 71
     0
 42
3.5
  3
NotoSans-Regular.ttf
  4

1001
ACAD
1000
Noto Sans
1071
        0
  0
STYLE
  5
71
330
3
100
AcDbSymbolTableRecord
100
AcDbTextStyleTableRecord
  2
ONSHAPE-STANDARD-DIMENSION
 70
     0
 40
0.0
 41
1.0
 50
0.0
 71
     0
 42
3.5
  3

  4

1001
ACAD
1000
Noto Sans
1071
        0
  0
STYLE
  5
77
330
3
100
AcDbSymbolTableRecord
100
AcDbTextStyleTableRecord
  2
ONSHAPE-STANDARD-VIEW-LABE
 70
     0
 40
2.5
 41
1.0
 50
0.0
 71
     0
 42
3.5
  3
Noto Sans
  4

1001
ACAD
1000
Noto Sans
1071
        0
  0
STYLE
  5
CD
330
3
100
AcDbSymbolTableRecord
100
AcDbTextStyleTableRecord
  2
ONSHAPE-STANDARD-BOLD
 70
     0
 40
0.0
 41
1.0
 50
0.0
 71
     0
 42
3.5
  3
NotoSans-Bold.ttf
  4

1001
ACAD
1000
Noto Sans
1071
 33554432
  0
STYLE
  5
CE
330
3
100
AcDbSymbolTableRecord
100
AcDbTextStyleTableRecord
  2
ONSHAPE-STANDARD-FIELDS
 70
     0
 40
0.0
 41
1.0
 50
0.0
 71
     0
 42
3.5
  3

  4

1001
ACAD
1000
Noto Sans
1071
        0
  0
STYLE
  5
CF
330
3
100
AcDbSymbolTableRecord
100
AcDbTextStyleTableRecord
  2
ONSHAPE-STANDARD-TCFIELDS
 70
     0
 40
0.0
 41
1.0
 50
0.0
 71
     0
 42
3.5
  3
NotoSansTC-Regular.otf
  4

1001
ACAD
1000
Noto Sans TC
1071
        0
  0
STYLE
  5
D0
330
3
100
AcDbSymbolTableRecord
100
AcDbTextStyleTableRecord
  2
ONSHAPE-STANDARD-SCFIELDS
 70
     0
 40
0.0
 41
1.0
 50
0.0
 71
     0
 42
3.5
  3
NotoSansSC-Regular.otf
  4

1001
ACAD
1000
Noto Sans SC
1071
        0
  0
STYLE
  5
D1
330
3
100
AcDbSymbolTableRecord
100
AcDbTextStyleTableRecord
  2
ONSHAPE-STANDARD-KOREANFIE
 70
     0
 40
0.0
 41
1.0
 50
0.0
 71
     0
 42
3.5
  3
NotoSansKR-Regular.otf
  4

1001
ACAD
1000
Noto Sans KR
1071
        0
  0
STYLE
  5
D3
330
3
100
AcDbSymbolTableRecord
100
AcDbTextStyleTableRecord
  2
TTFSTYLE
 70
     0
 40
0.0
 41
1.0
 50
0.0
 71
     0
 42
3.5
  3
Verdana.ttf
  4

1001
ACAD
1000
Verdana
1071
       34
  0
STYLE
  5
D4
330
3
100
AcDbSymbolTableRecord
100
AcDbTextStyleTableRecord
  2
ONSHAPE-STANDARD-GTOLERANC
 70
     0
 40
2.5
 41
1.0
 50
0.0
 71
     0
 42
3.5
  3

  4

1001
ACAD
1000
Noto Sans
1071
        0
  0
STYLE
  5
D5
330
3
100
AcDbSymbolTableRecord
100
AcDbTextStyleTableRecord
  2
ONSHAPE-STANDARD-TABLE-DAT
 70
     0
 40
0.0
 41
1.0
 50
0.0
 71
     0
 42
3.5
  3
Noto Sans
  4

1001
ACAD
1000
Noto Sans
1071
        0
  0
STYLE
  5
D6
330
3
100
AcDbSymbolTableRecord
100
AcDbTextStyleTableRecord
  2
ONSHAPE-STANDARD-TABLE-TIT
 70
     0
 40
0.0
 41
1.0
 50
0.0
 71
     0
 42
3.5
  3
Noto Sans
  4

1001
ACAD
1000
Noto Sans
1071
 33554432
  0
STYLE
  5
D7
330
3
100
AcDbSymbolTableRecord
100
AcDbTextStyleTableRecord
  2
ONSHAPE-STANDARD-TABLE-HEA
 70
     0
 40
0.0
 41
1.0
 50
0.0
 71
     0
 42
3.5
  3
Noto Sans
  4

1001
ACAD
1000
Noto Sans
1071
 33554432
  0
STYLE
  5
D8
330
3
100
AcDbSymbolTableRecord
100
AcDbTextStyleTableRecord
  2
ONSHAPE-STANDARD-BOMTABLE-
 70
     0
 40
0.0
 41
1.0
 50
0.0
 71
     0
 42
3.5
  3
Noto Sans
  4

1001
ACAD
1000
Noto Sans
1071
        0
  0
STYLE
  5
D9
330
3
100
AcDbSymbolTableRecord
100
AcDbTextStyleTableRecord
  2
ONSHAPE-STANDARD-BOMTABLE0
 70
     0
 40
0.0
 41
1.0
 50
0.0
 71
     0
 42
3.5
  3
Noto Sans
  4

1001
ACAD
1000
Noto Sans
1071
 33554432
  0
STYLE
  5
DA
330
3
100
AcDbSymbolTableRecord
100
AcDbTextStyleTableRecord
  2
ONSHAPE-STANDARD-BOMTABLE1
 70
     0
 40
0.0
 41
1.0
 50
0.0
 71
     0
 42
3.5
  3
Noto Sans
  4

1001
ACAD
1000
Noto Sans
1071
 33554432
  0
STYLE
  5
DB
330
3
100
AcDbSymbolTableRecord
100
AcDbTextStyleTableRecord
  2
ONSHAPE-STANDARD-NOTESTYLE
 70
     0
 40
2.5
 41
1.0
 50
0.0
 71
     0
 42
3.5
  3
Noto Sans
  4

1001
ACAD
1000
Noto Sans
1071
        0
  0
STYLE
  5
DD
330
3
100
AcDbSymbolTableRecord
100
AcDbTextStyleTableRecord
  2
ONSHAPE-STANDARD-HOLE-CALL
 70
     0
 40
2.5
 41
1.0
 50
0.0
 71
     0
 42
3.5
  3
Noto Sans
  4

1001
ACAD
1000
Noto Sans
1071
        0
  0
STYLE
  5
DE
330
3
100
AcDbSymbolTableRecord
100
AcDbTextStyleTableRecord
  2
ONSHAPE-STANDARD-HOLETABLE
 70
     0
 40
0.0
 41
1.0
 50
0.0
 71
     0
 42
3.5
  3
Noto Sans
  4

1001
ACAD
1000
Noto Sans
1071
        0
  0
STYLE
  5
DF
330
3
100
AcDbSymbolTableRecord
100
AcDbTextStyleTableRecord
  2
ONSHAPE-STANDARD-HOLETABL0
 70
     0
 40
0.0
 41
1.0
 50
0.0
 71
     0
 42
3.5
  3
Noto Sans
  4

1001
ACAD
1000
Noto Sans
1071
 33554432
  0
STYLE
  5
E0
330
3
100
AcDbSymbolTableRecord
100
AcDbTextStyleTableRecord
  2
ONSHAPE-STANDARD-HOLETABL1
 70
     0
 40
0.0
 41
1.0
 50
0.0
 71
     0
 42
3.5
  3
Noto Sans
  4

1001
ACAD
1000
Noto Sans
1071
 33554432
  0
STYLE
  5
E1
330
3
100
AcDbSymbolTableRecord
100
AcDbTextStyleTableRecord
  2
ONSHAPE-STANDARD-HOLE-TAG
 70
     0
 40
2.0
 41
1.0
 50
0.0
 71
     0
 42
3.5
  3
Noto Sans
  4

1001
ACAD
1000
Noto Sans
1071
        0
  0
STYLE
  5
E2
330
3
100
AcDbSymbolTableRecord
100
AcDbTextStyleTableRecord
  2
ONSHAPE-STANDARD-REVISIONT
 70
     0
 40
0.0
 41
1.0
 50
0.0
 71
     0
 42
3.5
  3
Noto Sans
  4

1001
ACAD
1000
Noto Sans
1071
        0
  0
STYLE
  5
E3
330
3
100
AcDbSymbolTableRecord
100
AcDbTextStyleTableRecord
  2
ONSHAPE-STANDARD-REVISION0
 70
     0
 40
0.0
 41
1.0
 50
0.0
 71
     0
 42
3.5
  3
Noto Sans
  4

1001
ACAD
1000
Noto Sans
1071
 33554432
  0
STYLE
  5
E4
330
3
100
AcDbSymbolTableRecord
100
AcDbTextStyleTableRecord
  2
ONSHAPE-STANDARD-REVISION1
 70
     0
 40
0.0
 41
1.0
 50
0.0
 71
     0
 42
3.5
  3
Noto Sans
  4

1001
ACAD
1000
Noto Sans
1071
 33554432
  0
STYLE
  5
E5
330
3
100
AcDbSymbolTableRecord
100
AcDbTextStyleTableRecord
  2
ONSHAPE-STANDARD-REVISION-
 70
     0
 40
2.0
 41
1.0
 50
0.0
 71
     0
 42
3.5
  3
Noto Sans
  4

1001
ACAD
1000
Noto Sans
1071
        0
  0
ENDTAB
  0
TABLE
  2
VIEW
  5
6
330
0
100
AcDbSymbolTable
 70
     0
  0
ENDTAB
  0
TABLE
  2
UCS
  5
7
330
0
100
AcDbSymbolTable
 70
     0
  0
ENDTAB
  0
TABLE
  2
APPID
  5
9
330
0
100
AcDbSymbolTable
 70
     1
  0
APPID
  5
12
330
9
100
AcDbSymbolTableRecord
100
AcDbRegAppTableRecord
  2
ACAD
 70
     0
  0
ENDTAB
  0
TABLE
  2
DIMSTYLE
  5
A
330
0
100
AcDbSymbolTable
 70
    18
  0
DIMSTYLE
105
27
330
A
100
AcDbSymbolTableRecord
100
AcDbDimStyleTableRecord
  2
ISO-25
 70
     0
  3

  4

  5

  6

  7

 40
1.0
 41
2.5
 42
0.625
 43
3.75
 44
1.25
 45
0.0
 46
0.0
 47
0.0
 48
0.0
140
2.5
141
2.5
142
0.0
143
0.03937007874016
144
1.0
145
0.0
146
1.0
147
0.625
 71
     0
 72
     0
 73
     0
 74
     0
 75
     0
 76
     0
 77
     1
 78
     8
170
     0
171
     3
172
     1
173
     0
174
     0
175
     0
176
     0
177
     0
178
     0
270
     2
271
     2
272
     2
273
     2
274
     3
340
11
275
     0
280
     0
281
     0
282
     0
283
     0
284
     8
285
     0
286
     0
287
     3
288
     0
  0
DIMSTYLE
105
70
330
A
100
AcDbSymbolTableRecord
100
AcDbDimStyleTableRecord
  2
ONSHAPE-ISO-25
 70
     0
  3

  4

  5

  6

  7

 40
1.0
 41
2.5
 42
0.625
 43
3.75
 44
1.25
 45
0.0
 46
0.0
 47
0.0
 48
0.0
140
2.5
141
2.5
142
0.0
143
0.03937
144
1.0
145
0.0
146
1.0
147
0.625
 71
     0
 72
     0
 73
     0
 74
     0
 75
     0
 76
     0
 77
     1
 78
     8
170
     0
171
     3
172
     1
173
     0
174
     0
175
     0
176
     7
177
     7
178
     7
179
     1
270
     2
271
     2
272
     3
273
     2
274
     3
340
71
275
     0
280
     0
281
     0
282
     0
283
     0
284
     8
285
     8
286
     0
287
     3
288
     1
  0
DIMSTYLE
105
E8
330
A
100
AcDbSymbolTableRecord
100
AcDbDimStyleTableRecord
  2
ISO
 70
     0
  3

  4
"
  5

  6

  7

 40
1.0
 41
3.5
 42
1.0
 43
10.0
 44
1.0
 45
0.0
 46
0.0
 47
0.1
 48
0.1
140
2.5
141
0.0
142
0.0
143
0.03937
144
1.0
145
0.0
146
0.71
147
1.5
 71
     0
 72
     0
 73
     0
 74
     0
 75
     0
 76
     0
 77
     1
 78
     8
170
     0
171
     3
172
     1
173
     0
174
     0
175
     0
176
     7
177
     7
178
     7
270
     2
271
     2
272
     3
273
     2
274
     3
340
11
275
     0
280
     0
281
     0
282
     0
283
     0
284
     8
285
     8
286
     0
287
     3
288
     1
  0
DIMSTYLE
105
E9
330
A
100
AcDbSymbolTableRecord
100
AcDbDimStyleTableRecord
  2
ISO$3
 70
     0
  3

  4
"
  5

  6

  7

 40
1.0
 41
3.5
 42
1.0
 43
10.0
 44
1.0
 45
0.0
 46
0.0
 47
0.1
 48
0.1
140
2.5
141
0.0
142
0.0
143
0.03937
144
1.0
145
0.0
146
0.71
147
1.5
 71
     0
 72
     0
 73
     0
 74
     0
 75
     0
 76
     0
 77
     1
 78
     8
170
     0
171
     3
172
     0
173
     0
174
     0
175
     0
176
     7
177
     7
178
     7
270
     2
271
     2
272
     3
273
     2
274
     3
340
11
275
     0
280
     0
281
     0
282
     0
283
     0
284
     8
285
     8
286
     0
288
     1
  0
DIMSTYLE
105
EA
330
A
100
AcDbSymbolTableRecord
100
AcDbDimStyleTableRecord
  2
ISO$4
 70
     0
  3

  4
"
  5

  6

  7

 40
1.0
 41
3.5
 42
1.0
 43
10.0
 44
1.0
 45
0.0
 46
0.0
 47
0.1
 48
0.1
140
2.5
141
0.0
142
0.0
143
0.03937
144
1.0
145
0.0
146
0.71
147
1.5
 71
     0
 72
     0
 73
     0
 74
     0
 75
     0
 76
     0
 77
     1
 78
     8
170
     0
171
     3
172
     1
173
     0
174
     0
175
     0
176
     7
177
     7
178
     7
270
     2
271
     2
272
     3
273
     2
274
     3
340
11
275
     0
280
     0
281
     0
282
     0
283
     0
284
     8
285
     8
286
     0
287
     3
288
     1
  0
DIMSTYLE
105
EB
330
A
100
AcDbSymbolTableRecord
100
AcDbDimStyleTableRecord
  2
ISO$6
 70
     0
  3

  4
"
  5

  6

  7

 40
1.0
 41
0.5
 42
1.0
 43
10.0
 44
1.0
 45
0.0
 46
0.0
 47
0.1
 48
0.1
140
2.5
141
0.0
142
0.0
143
0.03937
144
1.0
145
0.0
146
0.71
147
1.5
 71
     0
 72
     0
 73
     0
 74
     0
 75
     0
 76
     0
 77
     0
 78
     8
170
     0
171
     3
172
     1
173
     0
174
     0
175
     0
176
     7
177
     7
178
     7
270
     2
271
     2
272
     3
273
     2
274
     3
340
11
275
     0
280
     0
281
     0
282
     0
283
     0
284
     8
285
     8
286
     0
287
     3
288
     1
  0
DIMSTYLE
105
EC
330
A
100
AcDbSymbolTableRecord
100
AcDbDimStyleTableRecord
  2
ISO$7
 70
     0
  3

  4
"
  5

  6

  7

 40
1.0
 41
3.5
 42
1.0
 43
10.0
 44
1.0
 45
0.0
 46
0.0
 47
0.1
 48
0.1
140
2.5
141
0.0
142
0.0
143
0.03937
144
1.0
145
0.0
146
0.71
147
1.5
 71
     0
 72
     0
 73
     0
 74
     0
 75
     0
 76
     0
 77
     1
 78
     8
170
     0
171
     3
172
     1
173
     0
174
     0
175
     0
176
     7
177
     7
178
     7
270
     2
271
     2
272
     3
273
     2
274
     3
340
11
275
     0
280
     0
281
     0
282
     0
283
     0
284
     8
285
     8
286
     0
287
     3
288
     1
  0
DIMSTYLE
105
ED
330
A
100
AcDbSymbolTableRecord
100
AcDbDimStyleTableRecord
  2
ISO$SF
 70
     0
  3

  4
"
  5

  6

  7

 40
1.0
 41
3.5
 42
1.0
 43
10.0
 44
1.0
 45
0.0
 46
0.0
 47
0.1
 48
0.1
140
2.5
141
0.0
142
0.0
143
0.03937
144
1.0
145
0.0
146
0.71
147
1.5
 71
     0
 72
     0
 73
     0
 74
     0
 75
     1
 76
     1
 77
     1
 78
     8
170
     0
171
     3
172
     1
173
     0
174
     0
175
     0
176
     7
177
     7
178
     7
270
     2
271
     2
272
     3
273
     2
274
     3
340
11
275
     0
280
     0
281
     0
282
     0
283
     0
284
     8
285
     8
286
     0
287
     3
288
     1
  0
DIMSTYLE
105
EE
330
A
100
AcDbSymbolTableRecord
100
AcDbDimStyleTableRecord
  2
ISO$SH
 70
     0
  3

  4
"
  5

  6

  7

 40
1.0
 41
3.5
 42
1.0
 43
10.0
 44
1.0
 45
0.0
 46
0.0
 47
0.1
 48
0.1
140
2.5
141
0.0
142
0.0
143
0.03937
144
1.0
145
0.0
146
0.71
147
1.5
 71
     0
 72
     0
 73
     0
 74
     0
 75
     1
 76
     1
 77
     1
 78
     8
170
     0
171
     3
172
     1
173
     0
174
     0
175
     0
176
     7
177
     7
178
     7
270
     2
271
     2
272
     3
273
     2
274
     3
340
11
275
     0
280
     0
281
     0
282
     0
283
     0
284
     8
285
     8
286
     0
287
     3
288
     1
  0
DIMSTYLE
105
F1
330
A
100
AcDbSymbolTableRecord
100
AcDbDimStyleTableRecord
  2
ONSHAPE-ISO-25$0
 70
     0
  3

  4

  5

  6

  7

 40
1.0
 41
2.5
 42
0.625
 43
3.75
 44
1.25
 45
0.0
 46
0.0
 47
0.0
 48
0.0
140
2.5
141
2.5
142
0.0
143
0.03937
144
1.0
145
0.0
146
1.0
147
0.625
 71
     0
 72
     0
 73
     0
 74
     0
 75
     0
 76
     0
 77
     1
 78
     8
170
     0
171
     3
172
     1
173
     0
174
     0
175
     0
176
     7
177
     7
178
     7
179
     1
270
     2
271
     2
272
     3
273
     2
274
     3
340
71
275
     0
280
     0
281
     0
282
     0
283
     0
284
     8
285
     8
286
     0
287
     3
288
     1
  0
DIMSTYLE
105
F2
330
A
100
AcDbSymbolTableRecord
100
AcDbDimStyleTableRecord
  2
ONSHAPE-ISO-25$2
 70
     0
  3

  4

  5

  6

  7

 40
1.0
 41
2.5
 42
0.625
 43
3.75
 44
1.25
 45
0.0
 46
0.0
 47
0.0
 48
0.0
140
2.5
141
2.5
142
0.0
143
0.03937
144
1.0
145
0.0
146
1.0
147
0.625
 71
     0
 72
     0
 73
     0
 74
     0
 75
     0
 76
     0
 77
     1
 78
     8
170
     0
171
     3
172
     1
173
     0
174
     0
175
     0
176
     7
177
     7
178
     7
179
     1
270
     2
271
     2
272
     3
273
     2
274
     3
340
71
275
     0
280
     0
281
     0
282
     0
283
     0
284
     8
285
     8
286
     0
287
     3
288
     1
  0
DIMSTYLE
105
F3
330
A
100
AcDbSymbolTableRecord
100
AcDbDimStyleTableRecord
  2
ONSHAPE-ISO-25$3
 70
     0
  3

  4

  5

  6

  7

 40
1.0
 41
2.5
 42
0.625
 43
3.75
 44
1.25
 45
0.0
 46
0.0
 47
0.0
 48
0.0
140
2.5
141
0.0
142
0.0
143
0.03937
144
1.0
145
0.0
146
1.0
147
0.625
 71
     0
 72
     0
 73
     0
 74
     0
 75
     0
 76
     0
 77
     1
 78
     8
170
     0
171
     3
172
     1
173
     0
174
     0
175
     0
176
     7
177
     7
178
     7
179
     1
270
     2
271
     2
272
     3
273
     2
274
     3
340
71
275
     0
280
     0
281
     0
282
     0
283
     0
284
     8
285
     8
286
     0
287
     3
288
     1
  0
DIMSTYLE
105
F4
330
A
100
AcDbSymbolTableRecord
100
AcDbDimStyleTableRecord
  2
ONSHAPE-ISO-25$4
 70
     0
  3

  4

  5

  6

  7

 40
1.0
 41
2.5
 42
0.625
 43
3.75
 44
1.25
 45
0.0
 46
0.0
 47
0.0
 48
0.0
140
2.5
141
0.0
142
0.0
143
0.03937
144
1.0
145
0.0
146
1.0
147
0.625
 71
     0
 72
     0
 73
     0
 74
     0
 75
     0
 76
     0
 77
     1
 78
     8
170
     0
171
     3
172
     1
173
     0
174
     0
175
     0
176
     7
177
     7
178
     7
179
     1
270
     2
271
     2
272
     3
273
     2
274
     3
340
71
275
     0
280
     0
281
     0
282
     0
283
     0
284
     8
285
     8
286
     0
287
     3
288
     1
  0
DIMSTYLE
105
F5
330
A
100
AcDbSymbolTableRecord
100
AcDbDimStyleTableRecord
  2
ONSHAPE-ISO-25$6
 70
     0
  3

  4

  5

  6

  7

 40
1.0
 41
0.5
 42
0.625
 43
3.75
 44
1.25
 45
0.0
 46
0.0
 47
0.0
 48
0.0
140
2.5
141
2.5
142
0.0
143
0.03937
144
1.0
145
0.0
146
1.0
147
0.625
 71
     0
 72
     0
 73
     0
 74
     0
 75
     0
 76
     0
 77
     1
 78
     8
170
     0
171
     3
172
     1
173
     0
174
     0
175
     0
176
     7
177
     7
178
     7
179
     1
270
     2
271
     2
272
     3
273
     2
274
     3
340
71
275
     0
280
     0
281
     0
282
     0
283
     0
284
     8
285
     8
286
     0
287
     3
288
     1
  0
DIMSTYLE
105
F6
330
A
100
AcDbSymbolTableRecord
100
AcDbDimStyleTableRecord
  2
ONSHAPE-ISO-25$7
 70
     0
  3

  4

  5

  6

  7

 40
1.0
 41
2.5
 42
0.625
 43
3.75
 44
1.25
 45
0.0
 46
0.0
 47
0.0
 48
0.0
140
2.5
141
2.5
142
0.0
143
0.03937
144
1.0
145
0.0
146
1.0
147
0.625
 71
     0
 72
     0
 73
     0
 74
     0
 75
     0
 76
     0
 77
     1
 78
     8
170
     0
171
     3
172
     1
173
     0
174
     0
175
     0
176
     7
177
     7
178
     7
179
     1
270
     2
271
     2
272
     3
273
     2
274
     3
340
71
275
     0
280
     0
281
     0
282
     0
283
     0
284
     8
285
     8
286
     0
287
     3
288
     1
  0
DIMSTYLE
105
F7
330
A
100
AcDbSymbolTableRecord
100
AcDbDimStyleTableRecord
  2
ONSHAPE-STANDARD-GTOLERANC
 70
     0
  3

  4

  5

  6

  7

 40
1.0
 41
2.5
 42
0.625
 43
3.75
 44
1.25
 45
0.0
 46
0.0
 47
0.0
 48
0.0
140
2.5
141
2.5
142
0.0
143
0.03937
144
1.0
145
0.0
146
1.0
147
0.625
 71
     0
 72
     0
 73
     0
 74
     0
 75
     0
 76
     0
 77
     1
 78
     8
170
     0
171
     3
172
     1
173
     0
174
     0
175
     0
176
     7
177
     7
178
     7
179
     1
270
     2
271
     2
272
     3
273
     2
274
     3
340
D4
275
     0
280
     0
281
     0
282
     0
283
     0
284
     8
285
     8
286
     0
287
     3
288
     1
  0
DIMSTYLE
105
F9
330
A
100
AcDbSymbolTableRecord
100
AcDbDimStyleTableRecord
  2
ONSHAPE-ORDINATESTYLE
 70
     0
  3

  4

  5

  6

  7

 40
1.0
 41
2.5
 42
0.625
 43
3.75
 44
1.25
 45
0.0
 46
0.0
 47
0.0
 48
0.0
140
2.5
141
2.5
142
0.0
143
0.03937
144
1.0
145
0.0
146
1.0
147
0.625
 71
     0
 72
     0
 73
     0
 74
     0
 75
     0
 76
     0
 77
     1
 78
     8
170
     0
171
     3
172
     1
173
     0
174
     0
175
     0
176
     7
177
     7
178
     7
179
     1
270
     2
271
     2
272
     3
273
     2
274
     3
340
71
275
     0
280
     0
281
     0
282
     0
283
     0
284
     8
285
     8
286
     0
287
     3
288
     1
  0
DIMSTYLE
105
FA
330
A
100
AcDbSymbolTableRecord
100
AcDbDimStyleTableRecord
  2
ONSHAPE-CHAMFERDIMSTYLE
 70
     0
  3

  4

  5

  6

  7

 40
1.0
 41
2.5
 42
0.625
 43
3.75
 44
1.25
 45
0.0
 46
0.0
 47
0.0
 48
0.0
140
2.5
141
2.5
142
0.0
143
0.03937
144
1.0
145
0.0
146
1.0
147
0.625
 71
     0
 72
     0
 73
     0
 74
     0
 75
     0
 76
     0
 77
     1
 78
     8
170
     0
171
     3
172
     1
173
     0
174
     0
175
     0
176
     7
177
     7
178
     7
179
     1
270
     2
271
     2
272
     3
273
     2
274
     3
340
71
275
     0
280
     0
281
     0
282
     0
283
     0
284
     8
285
     8
286
     0
287
     3
288
     1
  0
ENDTAB
  0
TABLE
  2
BLOCK_RECORD
  5
1
330
0
100
AcDbSymbolTable
 70
     1
  0
BLOCK_RECORD
  5
1F
330
1
100
AcDbSymbolTableRecord
100
AcDbBlockTableRecord
  2
*MODEL_SPACE
  0
BLOCK_RECORD
  5
1B
330
1
100
AcDbSymbolTableRecord
100
AcDbBlockTableRecord
  2
*PAPER_SPACE
  0
ENDTAB
  0
ENDSEC
  0
SECTION
  2
BLOCKS
  0
BLOCK
  5
20
330
1F
100
AcDbEntity
  8
0
100
AcDbBlockBegin
  2
*MODEL_SPACE
 70
     0
 10
0.0
 20
0.0
 30
0.0
  3
*MODEL_SPACE
  1

  0
ENDBLK
  5
21
330
1F
100
AcDbEntity
  8
0
100
AcDbBlockEnd
  0
BLOCK
  5
1C
330
1B
100
AcDbEntity
 67
     1
  8
0
100
AcDbBlockBegin
  2
*PAPER_SPACE
 70
     0
 10
0.0
 20
0.0
 30
0.0
  3
*PAPER_SPACE
  1

  0
ENDBLK
  5
1D
330
1B
100
AcDbEntity
 67
     1
  8
0
100
AcDbBlockEnd
  0
ENDSEC
  0
SECTION
  2
ENTITIES
  0
MTEXT
  5
72
102
{ACAD_XDICTIONARY
360
73
102
}
330
1F
100
AcDbEntity
  8
ANNOTATION_TEXT
 62
     7
 60
     1
100
AcDbMText
 10
422.7451673784967
 20
80.14320401254244
 30
0.0
 40
2.5
 41
0.0
 71
     2
 72
     1
  1

  7
ONSHAPE-STANDARD-VIEW-LABE
1001
ACAD
1000
ACAD_MTEXT_DEFINED_HEIGHT_BEGIN
1070
    46
1040
2.5
1000
ACAD_MTEXT_DEFINED_HEIGHT_END
  0
CIRCLE
  5
7A
330
1F
100
AcDbEntity
  8
VISIBLE
100
AcDbCircle
 10
352.099035726878
 20
213.4205826792596
 30
0.0
 40
3.2
  0
CIRCLE
  5
7B
330
1F
100
AcDbEntity
  8
VISIBLE
100
AcDbCircle
 10
381.5797477581867
 20
192.7593238083932
 30
0.0
 40
3.2
  0
ARC
  5
7C
330
1F
100
AcDbEntity
  8
VISIBLE
100
AcDbCircle
 10
350.4466333862645
 20
244.9979175641588
 30
-0.0000000000000001
 40
10.0
100
AcDbArc
 50
291.3634958967677
 51
354.975695935444
  0
LINE
  5
7D
330
1F
100
AcDbEntity
  8
VISIBLE
100
AcDbLine
 10
360.4082097685431
 20
244.1221344972942
 30
0.0
 11
364.2523717693778
 21
287.8474756765306
 31
0.0
  0
SPLINE
  5
7E
330
1F
100
AcDbEntity
  8
VISIBLE
100
AcDbSpline
210
0.0
220
0.0
230
1.0
 70
     8
 71
     3
 72
    20
 73
    16
 74
     0
 42
0.000000001
 43
0.0000000379425244
 40
-3.5458406845314
 40
-3.5458406845314
 40
-3.5458406845314
 40
-3.5458406845314
 40
-3.03929201531263
 40
-3.03929201531263
 40
-3.03929201531263
 40
-2.53274334609386
 40
-2.53274334609386
 40
-2.53274334609386
 40
-1.51964600765632
 40
-1.51964600765632
 40
-1.51964600765632
 40
-0.506548669218772
 40
-0.506548669218772
 40
-0.506548669218772
 40
0.0
 40
0.0
 40
0.0
 40
0.0
 10
364.2523717693699
 20
287.8474756765423
 30
0.0
 10
364.3998413570814
 20
289.5248654522188
 30
0.0
 10
364.2583687380823
 20
291.2245190582612
 30
0.0
 10
363.844129125509
 20
292.8569702801805
 30
0.0
 10
363.4298895129359
 20
294.4894215020997
 30
0.0
 10
362.7428829067885
 20
296.0546703398958
 30
0.0
 10
361.8115355739567
 20
297.4569749047602
 30
0.0
 10
359.9488409082933
 20
300.2615840344887
 30
0.0
 10
357.1087833358924
 20
302.4144160724899
 30
0.0
 10
353.907281935602
 20
303.4452025475126
 30
0.0
 10
350.7057805353116
 20
304.4759890225353
 30
0.0
 10
347.1428353071317
 20
304.3847299345792
 30
0.0
 10
343.9937977555688
 20
303.1936527060524
 30
0.0
 10
342.4192789797873
 20
302.5981140917889
 30
0.0
 10
340.9482371231601
 20
301.7276209423827
 30
0.0
 10
339.6591757617031
 20
300.6442444864624
 30
0.0
  0
SPLINE
  5
7F
330
1F
100
AcDbEntity
  8
VISIBLE
100
AcDbSpline
210
0.0
220
0.0
230
1.0
 70
     8
 71
     3
 72
    29
 73
    25
 74
     0
 42
0.000000001
 43
0.0000000362014344
 40
-3.8944473914881
 40
-3.8944473914881
 40
-3.8944473914881
 40
-3.8944473914881
 40
-3.85976980218978
 40
-3.85976980218978
 40
-3.85976980218978
 40
-3.3365088708338
 40
-3.3365088708338
 40
-3.3365088708338
 40
-2.90703994540688
 40
-2.90703994540688
 40
-2.90703994540688
 40
-2.491478250467
 40
-2.491478250467
 40
-2.491478250467
 40
-1.99641138347389
 40
-1.99641138347389
 40
-1.99641138347389
 40
-1.6486159910795
 40
-1.6486159910795
 40
-1.6486159910795
 40
-1.2327890635308
 40
-1.2327890635308
 40
-1.2327890635308
 40
-1.05445815164733
 40
-1.05445815164733
 40
-1.05445815164733
 40
-1.05445815164733
 10
339.6591757617031
 20
300.6442444864624
 30
0.0
 10
339.3358879474417
 20
300.3725410463244
 30
0.0
 10
339.0136442204957
 20
300.0988869282841
 30
0.0
 10
338.6923952565353
 20
299.8232909552344
 30
0.0
 10
333.8449697151299
 20
295.6647375940041
 30
0.0
 10
329.2749252640555
 20
291.101653798546
 30
0.0
 10
325.3590075062594
 20
286.4583118565919
 30
0.0
 10
322.1449991774839
 20
282.6472666309661
 30
0.0
 10
319.3953644099404
 20
278.8089092547938
 30
0.0
 10
317.0378165509442
 20
274.8142042807156
 30
0.0
 10
314.7566117275393
 20
270.9488574033774
 30
0.0
 10
312.8046018852755
 20
266.8779454212616
 30
0.0
 10
311.0855629279935
 20
262.4782864556597
 30
0.0
 10
309.0376378155892
 20
257.2368857046741
 30
0.0
 10
307.3269191621789
 20
251.5179547784824
 30
0.0
 10
306.1766730558693
 20
246.1780173448849
 30
0.0
 10
305.368599798364
 20
242.4265935294321
 30
0.0
 10
304.8499513132774
 20
238.9181372597737
 30
0.0
 10
304.6141571959075
 20
235.7357245537134
 30
0.0
 10
304.3322398804278
 20
231.9308067005972
 30
0.0
 10
304.4274036473093
 20
228.5178771709149
 30
0.0
 10
304.8222531201577
 20
224.7895716015359
 30
0.0
 10
304.9915876723109
 20
223.1906560722145
 30
0.0
 10
305.2186545855542
 20
221.5274489604275
 30
0.0
 10
305.4945361286311
 20
219.8312773216059
 30
0.0
  0
SPLINE
  5
80
330
1F
100
AcDbEntity
  8
VISIBLE
100
AcDbSpline
210
0.0
220
0.0
230
1.0
 70
     8
 71
     3
 72
    14
 73
    10
 74
     0
 42
0.000000001
 43
0.0000000284750473
 40
-1.98772949968121
 40
-1.98772949968121
 40
-1.98772949968121
 40
-1.98772949968121
 40
-1.41980678548658
 40
-1.41980678548658
 40
-1.41980678548658
 40
-0.851884071291948
 40
-0.851884071291948
 40
-0.851884071291948
 40
0.0
 40
0.0
 40
0.0
 40
0.0
 10
305.4945361286311
 20
219.8312773216061
 30
0.0
 10
305.7976968936584
 20
217.9673878931644
 30
0.0
 10
306.4576714948328
 20
216.1635957359726
 30
0.0
 10
307.4266414557392
 20
214.5428957252366
 30
0.0
 10
308.3956114166493
 20
212.9221957145203
 30
0.0
 10
309.6735767372957
 20
211.4845878502794
 30
0.0
 10
311.1722097633964
 20
210.3367282330679
 30
0.0
 10
313.4201593025476
 20
208.6149388072507
 30
0.0
 10
316.1646111789714
 20
207.5450829372498
 30
0.0
 10
318.9863018619341
 20
207.2970108625898
 30
0.0
  0
LINE
  5
81
330
1F
100
AcDbEntity
  8
VISIBLE
100
AcDbLine
 10
318.9863018619458
 20
207.2970108625976
 30
0.0
 11
323.1331527441764
 21
206.9324358551837
 31
0.0
  0
ARC
  5
82
330
1F
100
AcDbEntity
  8
VISIBLE
100
AcDbCircle
 10
324.0089358110213
 20
216.8940122374661
 30
0.0000000000000001
 40
10.0
100
AcDbArc
 50
264.9756959355581
 51
342.1361075285526
  0
ARC
  5
83
330
1F
100
AcDbEntity
  8
VISIBLE
100
AcDbCircle
 10
366.8393917425324
 20
203.0899532438264
 30
0.0
 40
35.0
100
AcDbArc
 50
111.3634958967501
 51
162.136107528603
  0
ARC
  5
84
330
1F
100
AcDbEntity
  8
VISIBLE
100
AcDbCircle
 10
405.2641073026559
 20
226.5109104002892
 30
0.0000000000000007
 40
10.0
100
AcDbArc
 50
211.3634958967538
 51
274.975695935436
  0
LINE
  5
85
330
1F
100
AcDbEntity
  8
VISIBLE
100
AcDbLine
 10
406.131438933922
 20
216.5485946132073
 30
0.0
 11
497.3659849520971
 21
224.4915879209983
 31
0.0
  0
SPLINE
  5
86
330
1F
100
AcDbEntity
  8
VISIBLE
100
AcDbSpline
210
0.0
220
0.0
230
1.0
 70
     8
 71
     3
 72
    20
 73
    16
 74
     0
 42
0.000000001
 43
0.000000047313591
 40
-6.330567811181219
 40
-6.330567811181219
 40
-6.330567811181219
 40
-6.330567811181219
 40
-5.42620098101247
 40
-5.42620098101247
 40
-5.42620098101247
 40
-4.521834150843731
 40
-4.521834150843731
 40
-4.521834150843731
 40
-2.71310049050624
 40
-2.71310049050624
 40
-2.71310049050624
 40
-0.904366830168746
 40
-0.904366830168746
 40
-0.904366830168746
 40
0.0
 40
0.0
 40
0.0
 40
0.0
 10
497.3659849521089
 20
224.4915879210062
 30
0.0
 10
500.3609912876125
 20
224.7523369060996
 30
0.0
 10
503.3126952462177
 20
225.4710368383236
 30
0.0
 10
506.0969248314207
 20
226.6059597934884
 30
0.0
 10
508.8811544166234
 20
227.7408827486532
 30
0.0
 10
511.4979096284243
 20
229.2920287267588
 30
0.0
 10
513.8191511572944
 20
231.2016454365034
 30
0.0
 10
518.4616342150348
 20
235.0208788559928
 30
0.0
 10
521.9220625410574
 20
240.2739952020375
 30
0.0
 10
523.5906746677114
 20
246.0452229288579
 30
0.0
 10
525.2592867943658
 20
251.8164506556783
 30
0.0
 10
525.1360827216514
 20
258.1057897632743
 30
0.0
 10
523.2485446992123
 20
263.8133099694542
 30
0.0
 10
522.3047756879934
 20
266.667070072544
 30
0.0
 10
520.9199231893424
 20
269.3753754502798
 30
0.0
 10
519.1719604036829
 20
271.8213270202996
 30
0.0
  0
SPLINE
  5
87
330
1F
100
AcDbEntity
  8
VISIBLE
100
AcDbSpline
210
0.0
220
0.0
230
1.0
 70
     8
 71
     3
 72
    20
 73
    16
 74
     0
 42
0.000000001
 43
0.0000000502136686
 40
-9.468226381955152
 40
-9.468226381955152
 40
-9.468226381955152
 40
-9.468226381955152
 40
-8.11274693245195
 40
-8.11274693245195
 40
-8.11274693245195
 40
-6.3998102743312
 40
-6.3998102743312
 40
-6.3998102743312
 40
-4.89420581391996
 40
-4.89420581391996
 40
-4.89420581391996
 40
-3.49012794936397
 40
-3.49012794936397
 40
-3.49012794936397
 40
-2.73373620026979
 40
-2.73373620026979
 40
-2.73373620026979
 40
-2.73373620026979
 10
519.1719604036683
 20
271.8213270203195
 30
0.0
 10
514.3829870806219
 20
278.5226120330099
 30
0.0
 10
508.9669494549494
 20
284.7917203121926
 30
0.0
 10
502.9750092495208
 20
290.5950783993438
 30
0.0
 10
495.4029180349269
 20
297.9288559872851
 30
0.0
 10
486.9011482617967
 20
304.4690863300254
 30
0.0
 10
477.7352372890653
 20
309.7777832207883
 30
0.0
 10
469.6787593224968
 20
314.4439205702406
 30
0.0
 10
461.081489699623
 20
318.1498651416648
 30
0.0
 10
452.3503399175967
 20
320.8716677414905
 30
0.0
 10
444.2079529471721
 20
323.4099325265606
 30
0.0
 10
436.015216287602
 20
325.1040864874784
 30
0.0
 10
428.1607257077616
 20
326.032838187175
 30
0.0
 10
423.9294277022137
 20
326.5331666520982
 30
0.0
 10
419.7960929577461
 20
326.8137325838326
 30
0.0
 10
415.6981197744901
 20
326.8764104359904
 30
0.0
  0
SPLINE
  5
88
330
1F
100
AcDbEntity
  8
VISIBLE
100
AcDbSpline
210
0.0
220
0.0
230
1.0
 70
     8
 71
     3
 72
    17
 73
    13
 74
     0
 42
0.000000001
 43
0.0000000428961817
 40
-4.50835939226051
 40
-4.50835939226051
 40
-4.50835939226051
 40
-4.50835939226051
 40
-3.2202567087575
 40
-3.2202567087575
 40
-3.2202567087575
 40
-1.9321540252545
 40
-1.9321540252545
 40
-1.9321540252545
 40
-0.644051341751501
 40
-0.644051341751501
 40
-0.644051341751501
 40
0.0
 40
0.0
 40
0.0
 40
0.0
 10
415.69811977449
 20
326.8764104359904
 30
0.0
 10
411.4174794986615
 20
326.9418821524588
 30
0.0
 10
407.1240976707862
 20
326.076897936765
 30
0.0
 10
403.2032251594437
 20
324.3597202489136
 30
0.0
 10
399.2823526481013
 20
322.6425425610622
 30
0.0
 10
395.7339894532917
 20
320.0731714010536
 30
0.0
 10
392.8799602384894
 20
316.8833242215765
 30
0.0
 10
390.0259310236871
 20
313.6934770420983
 30
0.0
 10
387.8662357888722
 20
309.8831538431542
 30
0.0
 10
386.5933055526134
 20
305.7959889467156
 30
0.0
 10
385.956840434484
 20
303.7524064984968
 30
0.0
 10
385.5420665659886
 20
301.6396136259042
 30
0.0
 10
385.3545990290464
 20
299.5072680038796
 30
0.0
  0
LINE
  5
89
330
1F
100
AcDbEntity
  8
VISIBLE
100
AcDbLine
 10
385.3545990290542
 20
299.5072680038679
 30
0.0
 11
380.3313625330845
 21
242.3705683635886
 31
0.0
  0
ARC
  5
8A
330
1F
100
AcDbEntity
  8
VISIBLE
100
AcDbCircle
 10
390.292938915367
 20
241.4947852967436
 30
0.0000000000000007
 40
10.0
100
AcDbArc
 50
174.9756959355579
 51
238.5878959742301
  0
ARC
  5
8B
330
1F
100
AcDbEntity
  8
VISIBLE
100
AcDbCircle
 10
366.8393917425324
 20
203.0899532438264
 30
0.0
 40
35.0
100
AcDbArc
 50
31.36349589675008
 51
58.58789597426402
  0
ARC
  5
8C
330
1F
100
AcDbEntity
  8
VISIBLE
100
AcDbCircle
 10
400.1836609209606
 20
172.871420636207
 30
0.0000000000000004
 40
10.0
100
AcDbArc
 50
137.8152843423923
 51
214.9756959354264
  0
LINE
  5
8D
330
1F
100
AcDbEntity
  8
VISIBLE
100
AcDbLine
 10
391.9897081844627
 20
167.1391315164893
 30
0.0
 11
421.878322749574
 21
124.41520570075
 31
0.0
  0
SPLINE
  5
8E
330
1F
100
AcDbEntity
  8
VISIBLE
100
AcDbSpline
210
0.0
220
0.0
230
1.0
 70
     8
 71
     3
 72
    11
 73
     7
 74
     0
 42
0.000000001
 43
0.0000000324757804
 40
-2.02600553010835
 40
-2.02600553010835
 40
-2.02600553010835
 40
-2.02600553010835
 40
-0.868288084332151
 40
-0.868288084332151
 40
-0.868288084332151
 40
0.0
 40
0.0
 40
0.0
 40
0.0
 10
421.8783227495819
 20
124.4152057007382
 30
0.0
 10
424.0852419095589
 20
121.260551266462
 30
0.0
 10
426.906697737239
 20
118.5375458325333
 30
0.0
 10
430.1360264451162
 20
116.4421632408812
 30
0.0
 10
432.5580229760239
 20
114.8706262971421
 30
0.0
 10
435.2094480020427
 20
113.6521272021837
 30
0.0
 10
437.9791459469428
 20
112.8358320767233
 30
0.0
  0
SPLINE
  5
8F
330
1F
100
AcDbEntity
  8
VISIBLE
100
AcDbSpline
210
0.0
220
0.0
230
1.0
 70
     8
 71
     3
 72
    29
 73
    25
 74
     0
 42
0.000000001
 43
0.0000000428564818
 40
0.0
 40
0.0
 40
0.0
 40
0.0
 40
0.087164990262971
 40
0.087164990262971
 40
0.087164990262971
 40
0.223235614760548
 40
0.223235614760548
 40
0.223235614760548
 40
0.344893554974574
 40
0.344893554974574
 40
0.344893554974574
 40
0.487785341042817
 40
0.487785341042817
 40
0.487785341042817
 40
0.6558237055146819
 40
0.6558237055146819
 40
0.6558237055146819
 40
0.7837895009369
 40
0.7837895009369
 40
0.7837895009369
 40
0.942577735412074
 40
0.942577735412074
 40
0.942577735412074
 40
1.0
 40
1.0
 40
1.0
 40
1.0
 10
437.9791459469438
 20
112.8358320767324
 30
0.0
 10
441.550542215504
 20
111.7832575999812
 30
0.0
 10
445.0267353818135
 20
110.9775808435156
 30
0.0
 10
448.312448077654
 20
110.4563505640168
 30
0.0
 10
453.4416745835459
 20
109.6426737721709
 30
0.0
 10
458.102849393985
 20
109.4953762357429
 30
0.0
 10
462.7483762884459
 20
109.9721868304378
 30
0.0
 10
466.9018461154251
 20
110.3984933535174
 30
0.0
 10
471.1093671469118
 20
111.3353916021018
 30
0.0
 10
475.6103814033586
 20
112.8311188127438
 30
0.0
 10
480.8969904408863
 20
114.5879061808637
 30
0.0
 10
486.5802968504614
 20
117.130263043468
 30
0.0
 10
492.2431764564971
 20
120.243936637845
 30
0.0
 10
498.9026287132194
 20
123.9055650119803
 30
0.0
 10
505.4686959622799
 20
128.3290313511895
 30
0.0
 10
511.0583652010245
 20
132.9905583646577
 30
0.0
 10
515.3150507057383
 20
136.5404382628306
 30
0.0
 10
518.9893245824733
 20
140.2088973877051
 30
0.0
 10
522.0525130738754
 20
143.946591860516
 30
0.0
 10
525.8535154496234
 20
148.5845648781267
 30
0.0
 10
528.7698056683398
 20
153.3530221746975
 30
0.0
 10
531.2060232035213
 20
158.6658243487402
 30
0.0
 10
532.0870275698794
 20
160.587082136822
 30
0.0
 10
532.9065735305663
 20
162.5861962700522
 30
0.0
 10
533.6689472339119
 20
164.6599145748588
 30
0.0
  0
SPLINE
  5
90
330
1F
100
AcDbEntity
  8
VISIBLE
100
AcDbSpline
210
0.0
220
0.0
230
1.0
 70
     8
 71
     3
 72
    20
 73
    16
 74
     0
 42
0.000000001
 43
0.0000000447435012
 40
-6.0459703890085
 40
-6.0459703890085
 40
-6.0459703890085
 40
-6.0459703890085
 40
-5.18226033343586
 40
-5.18226033343586
 40
-5.18226033343586
 40
-4.31855027786321
 40
-4.31855027786321
 40
-4.31855027786321
 40
-2.59113016671793
 40
-2.59113016671793
 40
-2.59113016671793
 40
-0.863710055572643
 40
-0.863710055572643
 40
-0.863710055572643
 40
0.0
 40
0.0
 40
0.0
 40
0.0
 10
533.6689472339228
 20
164.6599145748551
 30
0.0
 10
534.6597218348984
 20
167.3549018454846
 30
0.0
 10
535.2563342125989
 20
170.1919222497389
 30
0.0
 10
535.4443841528108
 20
173.0573719391421
 30
0.0
 10
535.6324340930239
 20
175.922821628545
 30
0.0
 10
535.4119215957514
 20
178.8167006031165
 30
0.0
 10
534.7791457129873
 20
181.6170168568167
 30
0.0
 10
533.5135939474584
 20
187.2176493642168
 30
0.0
 10
530.5989886399578
 20
192.4440309881321
 30
0.0
 10
526.4975505848938
 20
196.4579207209027
 30
0.0
 10
522.3961125298289
 20
200.4718104536734
 30
0.0
 10
517.1078417271988
 20
203.2732082953
 30
0.0
 10
511.4812219305967
 20
204.4175375789658
 30
0.0
 10
508.667912032296
 20
204.9897022207986
 30
0.0
 10
505.7700148855015
 20
205.1475997231414
 30
0.0
 10
502.9094957721343
 20
204.8985593632566
 30
0.0
  0
LINE
  5
91
330
1F
100
AcDbEntity
  8
VISIBLE
100
AcDbLine
 10
502.9094957721225
 20
204.8985593632488
 30
0.0
 11
407.8661021964776
 21
196.6239630390592
 31
0.0
  0
ARC
  5
92
330
1F
100
AcDbEntity
  8
VISIBLE
100
AcDbCircle
 10
408.7334338277632
 20
186.6616472519733
 30
-0.0000000000000001
 40
10.0
100
AcDbArc
 50
94.97569593554617
 51
158.5878959742181
  0
ARC
  5
93
330
1F
100
AcDbEntity
  8
VISIBLE
100
AcDbCircle
 10
366.8393917425324
 20
203.0899532438264
 30
0.0
 40
35.0
100
AcDbArc
 50
317.8152843424112
 51
338.587895974264
  0
SPLINE
  5
94
330
1F
100
AcDbEntity
  8
VISIBLE
100
AcDbSpline
210
0.0
220
0.0
230
1.0
 70
     8
 71
     3
 72
    11
 73
     7
 74
     0
 42
0.000000001
 43
0.0000000379953964
 40
-0.297916670017219
 40
-0.297916670017219
 40
-0.297916670017219
 40
-0.297916670017219
 40
-0.146067675528172
 40
-0.146067675528172
 40
-0.146067675528172
 40
-0.0000000000000001
 40
-0.0000000000000001
 40
-0.0000000000000001
 40
-0.0000000000000001
 10
362.5708334148622
 20
303.1433359395762
 30
0.0
 10
363.0183121599196
 20
303.3421099675934
 30
0.0
 10
363.4657909049768
 20
303.540883995611
 30
0.0
 10
363.8187434492517
 20
303.8488513396716
 30
0.0
 10
364.1582580959405
 20
304.1450934994363
 30
0.0
 10
364.4103072798618
 20
304.5423726610032
 30
0.0
 10
364.6623564637832
 20
304.9396518225705
 30
0.0
  0
SPLINE
  5
95
330
1F
100
AcDbEntity
  8
VISIBLE
100
AcDbSpline
210
0.0
220
0.0
230
1.0
 70
     8
 71
     3
 72
    11
 73
     7
 74
     0
 42
0.000000001
 43
0.0000000382288697
 40
-0.277377269861698
 40
-0.277377269861698
 40
-0.277377269861698
 40
-0.277377269861698
 40
-0.13810447399656
 40
-0.13810447399656
 40
-0.13810447399656
 40
0.0
 40
0.0
 40
0.0
 40
0.0
 10
364.6623564637832
 20
304.9396518225705
 30
0.0
 10
364.8301425439514
 20
305.3685740221338
 30
0.0
 10
364.9979286241197
 20
305.797496221697
 30
0.0
 10
365.025616197321
 20
306.2354023039546
 30
0.0
 10
365.0530715069486
 20
306.6696349103609
 30
0.0
 10
364.942768947839
 20
307.1127013049343
 30
0.0
 10
364.8324663887292
 20
307.5557676995066
 30
0.0
  0
SPLINE
  5
96
330
1F
100
AcDbEntity
  8
VISIBLE
100
AcDbSpline
210
0.0
220
0.0
230
1.0
 70
     8
 71
     3
 72
    11
 73
     7
 74
     0
 42
0.000000001
 43
0.0000000383271658
 40
-0.189430521594275
 40
-0.189430521594275
 40
-0.189430521594275
 40
-0.189430521594275
 40
-0.0921843132495102
 40
-0.0921843132495102
 40
-0.0921843132495102
 40
0.0
 40
0.0
 40
0.0
 40
0.0
 10
364.8324663887292
 20
307.5557676995066
 30
0.0
 10
364.7099415889588
 20
307.8407766668817
 30
0.0
 10
364.5874167891885
 20
308.1257856342575
 30
0.0
 10
364.4011262227385
 20
308.3607164632176
 30
0.0
 10
364.2245325207801
 20
308.5834185870077
 30
0.0
 10
363.9906385999461
 20
308.7611202592776
 30
0.0
 10
363.7567446791124
 20
308.9388219315488
 30
0.0
  0
SPLINE
  5
97
330
1F
100
AcDbEntity
  8
VISIBLE
100
AcDbSpline
210
0.0
220
0.0
230
1.0
 70
     8
 71
     3
 72
    11
 73
     7
 74
     0
 42
0.000000001
 43
0.0000000382941502
 40
-0.178275938419637
 40
-0.178275938419637
 40
-0.178275938419637
 40
-0.178275938419637
 40
-0.0907559957292911
 40
-0.0907559957292911
 40
-0.0907559957292911
 40
0.0
 40
0.0
 40
0.0
 40
0.0
 10
363.7567446791124
 20
308.9388219315488
 30
0.0
 10
363.4959968776063
 20
309.0689314087826
 30
0.0
 10
363.2352490761002
 20
309.1990408860166
 30
0.0
 10
362.9595740241023
 20
309.2570128928638
 30
0.0
 10
362.6737058771097
 20
309.3171284167564
 30
0.0
 10
362.3717862005347
 20
309.2996732761426
 30
0.0
 10
362.0698665239597
 20
309.2822181355286
 30
0.0
  0
SPLINE
  5
98
330
1F
100
AcDbEntity
  8
VISIBLE
100
AcDbSpline
210
0.0
220
0.0
230
1.0
 70
     8
 71
     3
 72
    11
 73
     7
 74
     0
 42
0.000000001
 43
0.0000000384564699
 40
-0.240731366438886
 40
-0.240731366438886
 40
-0.240731366438886
 40
-0.240731366438886
 40
-0.112214834947006
 40
-0.112214834947006
 40
-0.112214834947006
 40
0.0
 40
0.0
 40
0.0
 40
0.0
 10
362.0698665239597
 20
309.2822181355286
 30
0.0
 10
362.3986746232787
 20
309.7024366569806
 30
0.0
 10
362.7274827225976
 20
310.1226551784326
 30
0.0
 10
362.8341063579791
 20
310.597432440762
 30
0.0
 10
362.927205304137
 20
311.0119865180502
 30
0.0
 10
362.8509109435091
 20
311.4681361478238
 30
0.0
 10
362.774616582881
 20
311.9242857775964
 30
0.0
  0
SPLINE
  5
99
330
1F
100
AcDbEntity
  8
VISIBLE
100
AcDbSpline
210
0.0
220
0.0
230
1.0
 70
     8
 71
     3
 72
    11
 73
     7
 74
     0
 42
0.000000001
 43
0.0000000385639198
 40
-0.202780039433865
 40
-0.202780039433865
 40
-0.202780039433865
 40
-0.202780039433865
 40
-0.104014966440803
 40
-0.104014966440803
 40
-0.104014966440803
 40
0.0
 40
0.0
 40
0.0
 40
0.0
 10
362.774616582881
 20
311.9242857775964
 30
0.0
 10
362.6330866862211
 20
312.2207776343022
 30
0.0
 10
362.4915567895609
 20
312.5172694910073
 30
0.0
 10
362.2817613148445
 20
312.7521480447671
 30
0.0
 10
362.0608140852141
 20
312.9995116536484
 30
0.0
 10
361.7641510302714
 20
313.1785377164998
 30
0.0
 10
361.4674879753284
 20
313.3575637793502
 30
0.0
  0
SPLINE
  5
9A
330
1F
100
AcDbEntity
  8
VISIBLE
100
AcDbSpline
210
0.0
220
0.0
230
1.0
 70
     8
 71
     3
 72
    11
 73
     7
 74
     0
 42
0.000000001
 43
0.0000000385166038
 40
-0.275526826666464
 40
-0.275526826666464
 40
-0.275526826666464
 40
-0.275526826666464
 40
-0.142819702855803
 40
-0.142819702855803
 40
-0.142819702855803
 40
0.0
 40
0.0
 40
0.0
 40
0.0
 10
361.4674879753284
 20
313.3575637793502
 30
0.0
 10
361.0540082641186
 20
313.5103091001026
 30
0.0
 10
360.6405285529086
 20
313.663054420855
 30
0.0
 10
360.2210216362379
 20
313.6858151838622
 30
0.0
 10
359.7695473561507
 20
313.7103103678144
 30
0.0
 10
359.3110922989271
 20
313.5842559754007
 30
0.0
 10
358.8526372417033
 20
313.4582015829868
 30
0.0
  0
SPLINE
  5
9B
330
1F
100
AcDbEntity
  8
VISIBLE
100
AcDbSpline
210
0.0
220
0.0
230
1.0
 70
     8
 71
     3
 72
    11
 73
     7
 74
     0
 42
0.000000001
 43
0.0000000383448734
 40
-0.174163990076435
 40
-0.174163990076435
 40
-0.174163990076435
 40
-0.174163990076435
 40
-0.0844356790143627
 40
-0.0844356790143627
 40
-0.0844356790143627
 40
0.0
 40
0.0
 40
0.0
 40
0.0
 10
358.8526372417033
 20
313.4582015829868
 30
0.0
 10
358.5885723974571
 20
313.3519502376242
 30
0.0
 10
358.3245075532109
 20
313.2456988922614
 30
0.0
 10
358.0854750457653
 20
313.0984925172792
 30
0.0
 10
357.8605418910701
 20
312.9599691228257
 30
0.0
 10
357.6577750976654
 20
312.7851796781658
 30
0.0
 10
357.4550083042607
 20
312.6103902335062
 30
0.0
  0
SPLINE
  5
9C
330
1F
100
AcDbEntity
  8
VISIBLE
100
AcDbSpline
210
0.0
220
0.0
230
1.0
 70
     8
 71
     3
 72
    11
 73
     7
 74
     0
 42
0.000000001
 43
0.0000000381951249
 40
-0.154317067542
 40
-0.154317067542
 40
-0.154317067542
 40
-0.154317067542
 40
-0.0749228273499145
 40
-0.0749228273499145
 40
-0.0749228273499145
 40
0.0
 40
0.0
 40
0.0
 40
0.0
 10
357.4550083042607
 20
312.6103902335062
 30
0.0
 10
357.28442628956
 20
312.4243651941869
 30
0.0
 10
357.1138442748595
 20
312.2383401548686
 30
0.0
 10
356.987877616879
 20
312.025652700721
 30
0.0
 10
356.8690052887996
 20
311.8249436144184
 30
0.0
 10
356.7898644360548
 20
311.6004907511976
 30
0.0
 10
356.7107235833098
 20
311.3760378879762
 30
0.0
  0
SPLINE
  5
9D
330
1F
100
AcDbEntity
  8
VISIBLE
100
AcDbSpline
210
0.0
220
0.0
230
1.0
 70
     8
 71
     3
 72
    11
 73
     7
 74
     0
 42
0.000000001
 43
0.0000000380513361
 40
-0.169726061162543
 40
-0.169726061162543
 40
-0.169726061162543
 40
-0.169726061162543
 40
-0.0922675657145574
 40
-0.0922675657145574
 40
-0.0922675657145574
 40
0.0
 40
0.0
 40
0.0
 40
0.0
 10
356.7107235833098
 20
311.3760378879762
 30
0.0
 10
356.6652343337436
 20
311.1238997265306
 30
0.0
 10
356.6197450841772
 20
310.8717615650842
 30
0.0
 10
356.6086951479671
 20
310.6184199965534
 30
0.0
 10
356.5955326057627
 20
310.3166427713762
 30
0.0
 10
356.6312369305136
 20
310.0131579995544
 30
0.0
 10
356.6669412552645
 20
309.7096732277329
 30
0.0
  0
LINE
  5
9E
330
1F
100
AcDbEntity
  8
VISIBLE
100
AcDbLine
 10
356.6669412552724
 20
309.7096732277211
 30
0.0
 11
358.5628058684197
 21
310.0383946298713
 31
0.0
  0
SPLINE
  5
9F
330
1F
100
AcDbEntity
  8
VISIBLE
100
AcDbSpline
210
0.0
220
0.0
230
1.0
 70
     8
 71
     3
 72
    11
 73
     7
 74
     0
 42
0.000000001
 43
0.0000000381476972
 40
-0.132174608158169
 40
-0.132174608158169
 40
-0.132174608158169
 40
-0.132174608158169
 40
-0.060686261274423
 40
-0.060686261274423
 40
-0.060686261274423
 40
0.0
 40
0.0
 40
0.0
 40
0.0
 10
358.5628058684118
 20
310.0383946298828
 30
0.0
 10
358.5227060102207
 20
310.2514750144516
 30
0.0
 10
358.4826061520293
 20
310.4645553990192
 30
0.0
 10
358.5014414535123
 20
310.6731578538236
 30
0.0
 10
358.5174306891961
 20
310.8502399046274
 30
0.0
 10
358.5758901654193
 20
311.024095040373
 30
0.0
 10
358.6343496416426
 20
311.1979501761184
 30
0.0
  0
SPLINE
  5
A0
330
1F
100
AcDbEntity
  8
VISIBLE
100
AcDbSpline
210
0.0
220
0.0
230
1.0
 70
     8
 71
     3
 72
    11
 73
     7
 74
     0
 42
0.000000001
 43
0.0000000382424331
 40
-0.101713847443501
 40
-0.101713847443501
 40
-0.101713847443501
 40
-0.101713847443501
 40
-0.0509718520805348
 40
-0.0509718520805348
 40
-0.0509718520805348
 40
0.0
 40
0.0
 40
0.0
 40
0.0
 10
358.6343496416426
 20
311.1979501761184
 30
0.0
 10
358.7223475933985
 20
311.3423697410326
 30
0.0
 10
358.8103455451543
 20
311.4867893059458
 30
0.0
 10
358.9311737412469
 20
311.5942658604686
 30
0.0
 10
359.0525492783012
 20
311.7022292742064
 30
0.0
 10
359.2070531695349
 20
311.7729142223894
 30
0.0
 10
359.3615570607686
 20
311.8435991705722
 30
0.0
  0
SPLINE
  5
A1
330
1F
100
AcDbEntity
  8
VISIBLE
100
AcDbSpline
210
0.0
220
0.0
230
1.0
 70
     8
 71
     3
 72
    11
 73
     7
 74
     0
 42
0.000000001
 43
0.0000000383028764
 40
-0.102368440842008
 40
-0.102368440842008
 40
-0.102368440842008
 40
-0.102368440842008
 40
-0.0488947580808461
 40
-0.0488947580808461
 40
-0.0488947580808461
 40
0.0
 40
0.0
 40
0.0
 40
0.0
 10
359.3615570607686
 20
311.8435991705722
 30
0.0
 10
359.5223441701735
 20
311.8889525795246
 30
0.0
 10
359.6831312795782
 20
311.9343059884768
 30
0.0
 10
359.8424282547427
 20
311.9282217728178
 30
0.0
 10
359.9880847096846
 20
311.9226585454994
 30
0.0
 10
360.132495303007
 20
311.8740896878384
 30
0.0
 10
360.2769058963295
 20
311.8255208301784
 30
0.0
  0
SPLINE
  5
A2
330
1F
100
AcDbEntity
  8
VISIBLE
100
AcDbSpline
210
0.0
220
0.0
230
1.0
 70
     8
 71
     3
 72
    11
 73
     7
 74
     0
 42
0.000000001
 43
0.0000000383284109
 40
-0.0968731051982775
 40
-0.0968731051982775
 40
-0.0968731051982775
 40
-0.0968731051982775
 40
-0.0507865771772127
 40
-0.0507865771772127
 40
-0.0507865771772127
 40
0.0
 40
0.0
 40
0.0
 40
0.0
 10
360.2769058963295
 20
311.8255208301784
 30
0.0
 10
360.4056761155583
 20
311.7431494911918
 30
0.0
 10
360.5344463347873
 20
311.6607781522063
 30
0.0
 10
360.6305482019735
 20
311.5505055411518
 30
0.0
 10
360.7364508399959
 20
311.4289869822082
 30
0.0
 10
360.8026821140575
 20
311.2735860432234
 30
0.0
 10
360.8689133881193
 20
311.1181851042394
 30
0.0
  0
SPLINE
  5
A3
330
1F
100
AcDbEntity
  8
VISIBLE
100
AcDbSpline
210
0.0
220
0.0
230
1.0
 70
     8
 71
     3
 72
    11
 73
     7
 74
     0
 42
0.000000001
 43
0.0000000382768601
 40
-0.122476583665882
 40
-0.122476583665882
 40
-0.122476583665882
 40
-0.122476583665882
 40
-0.0597065543266434
 40
-0.0597065543266434
 40
-0.0597065543266434
 40
0.0
 40
0.0
 40
0.0
 40
0.0
 10
360.8689133881193
 20
311.1181851042394
 30
0.0
 10
360.9201925064382
 20
310.9239951991258
 30
0.0
 10
360.9714716247572
 20
310.7298052940132
 30
0.0
 10
360.9567492554305
 20
310.5403687647572
 30
0.0
 10
360.9427454075228
 20
310.3601776362115
 30
0.0
 10
360.8690252338416
 20
310.184287231049
 30
0.0
 10
360.7953050601607
 20
310.0083968258874
 30
0.0
  0
SPLINE
  5
A4
330
1F
100
AcDbEntity
  8
VISIBLE
100
AcDbSpline
210
0.0
220
0.0
230
1.0
 70
     8
 71
     3
 72
    11
 73
     7
 74
     0
 42
0.000000001
 43
0.0000000381764265
 40
-0.139219886465038
 40
-0.139219886465038
 40
-0.139219886465038
 40
-0.139219886465038
 40
-0.0764363239935631
 40
-0.0764363239935631
 40
-0.0764363239935631
 40
0.0
 40
0.0
 40
0.0
 40
0.0
 10
360.7953050601607
 20
310.0083968258874
 30
0.0
 10
360.6677223611767
 20
309.8459102219384
 30
0.0
 10
360.5401396621929
 20
309.6834236179902
 30
0.0
 10
360.3821165418733
 20
309.5621841288003
 30
0.0
 10
360.1897300963173
 20
309.4145801937617
 30
0.0
 10
359.9522247682245
 20
309.3281128542133
 30
0.0
 10
359.7147194401318
 20
309.241645514666
 30
0.0
  0
LINE
  5
A5
330
1F
100
AcDbEntity
  8
VISIBLE
100
AcDbLine
 10
359.7147194401397
 20
309.2416455146542
 30
0.0
 11
360.0599388199824
 21
307.5846813943282
 31
0.0
  0
SPLINE
  5
A6
330
1F
100
AcDbEntity
  8
VISIBLE
100
AcDbSpline
210
0.0
220
0.0
230
1.0
 70
     8
 71
     3
 72
    11
 73
     7
 74
     0
 42
0.000000001
 43
0.0000000380232434
 40
-0.106641414927567
 40
-0.106641414927567
 40
-0.106641414927567
 40
-0.106641414927567
 40
-0.0484261692587344
 40
-0.0484261692587344
 40
-0.0484261692587344
 40
0.0
 40
0.0
 40
0.0
 40
0.0
 10
360.0599388199746
 20
307.5846813943398
 30
0.0
 10
360.2046339331711
 20
307.6833168032704
 30
0.0
 10
360.3493290463676
 20
307.7819522122008
 30
0.0
 10
360.5030999435069
 20
307.8637828418016
 30
0.0
 10
360.6310137813063
 20
307.9318533940092
 30
0.0
 10
360.7652077820322
 20
307.9882955565612
 30
0.0
 10
360.8994017827579
 20
308.0447377191122
 30
0.0
  0
SPLINE
  5
A7
330
1F
100
AcDbEntity
  8
VISIBLE
100
AcDbSpline
210
0.0
220
0.0
230
1.0
 70
     8
 71
     3
 72
    11
 73
     7
 74
     0
 42
0.000000001
 43
0.0000000380959342
 40
-0.11739650227135
 40
-0.11739650227135
 40
-0.11739650227135
 40
-0.11739650227135
 40
-0.0591442745738595
 40
-0.0591442745738595
 40
-0.0591442745738595
 40
0.0
 40
0.0
 40
0.0
 40
0.0
 10
360.8994017827579
 20
308.0447377191122
 30
0.0
 10
361.0879356628715
 20
308.0907478706371
 30
0.0
 10
361.2764695429848
 20
308.1367580221608
 30
0.0
 10
361.4603135162906
 20
308.1227101553458
 30
0.0
 10
361.6469727886607
 20
308.1084471661886
 30
0.0
 10
361.8287974164219
 20
308.0322726750574
 30
0.0
 10
362.0106220441829
 20
307.9560981839252
 30
0.0
  0
SPLINE
  5
A8
330
1F
100
AcDbEntity
  8
VISIBLE
100
AcDbSpline
210
0.0
220
0.0
230
1.0
 70
     8
 71
     3
 72
    11
 73
     7
 74
     0
 42
0.000000001
 43
0.0000000381286665
 40
-0.135956861098556
 40
-0.135956861098556
 40
-0.135956861098556
 40
-0.135956861098556
 40
-0.0722929810034798
 40
-0.0722929810034798
 40
-0.0722929810034798
 40
0.0
 40
0.0
 40
0.0
 40
0.0
 10
362.0106220441829
 20
307.9560981839252
 30
0.0
 10
362.1826902955557
 20
307.8343789588426
 30
0.0
 10
362.3547585469286
 20
307.7126597337602
 30
0.0
 10
362.4840969082508
 20
307.5564364742772
 30
0.0
 10
362.6309659913815
 20
307.3790384722516
 30
0.0
 10
362.7227368208458
 20
307.1571490840408
 30
0.0
 10
362.81450765031
 20
306.9352596958303
 30
0.0
  0
SPLINE
  5
A9
330
1F
100
AcDbEntity
  8
VISIBLE
100
AcDbSpline
210
0.0
220
0.0
230
1.0
 70
     8
 71
     3
 72
    11
 73
     7
 74
     0
 42
0.000000001
 43
0.0000000380547977
 40
-0.155408817321412
 40
-0.155408817321412
 40
-0.155408817321412
 40
-0.155408817321412
 40
-0.0727558265031781
 40
-0.0727558265031781
 40
-0.0727558265031781
 40
0.0
 40
0.0
 40
0.0
 40
0.0
 10
362.81450765031
 20
306.9352596958303
 30
0.0
 10
362.8867068747707
 20
306.6919610339186
 30
0.0
 10
362.9589060992313
 20
306.4486623720063
 30
0.0
 10
362.9572414667481
 20
306.2049746126062
 30
0.0
 10
362.9557761633038
 20
305.9904668958454
 30
0.0
 10
362.8970773483796
 20
305.7756576863594
 30
0.0
 10
362.8383785334555
 20
305.5608484768734
 30
0.0
  0
SPLINE
  5
AA
330
1F
100
AcDbEntity
  8
VISIBLE
100
AcDbSpline
210
0.0
220
0.0
230
1.0
 70
     8
 71
     3
 72
    11
 73
     7
 74
     0
 42
0.000000001
 43
0.0000000379368856
 40
-0.125486343888908
 40
-0.125486343888908
 40
-0.125486343888908
 40
-0.125486343888908
 40
-0.0623642744135976
 40
-0.0623642744135976
 40
-0.0623642744135976
 40
0.0
 40
0.0
 40
0.0
 40
0.0
 10
362.8383785334555
 20
305.5608484768734
 30
0.0
 10
362.7411407827391
 20
305.3769076768007
 30
0.0
 10
362.6439030320225
 20
305.1929668767278
 30
0.0
 10
362.5009479173899
 20
305.0569445057326
 30
0.0
 10
362.3597090120135
 20
304.9225551148011
 30
0.0
 10
362.1738438487611
 20
304.8349405155428
 30
0.0
 10
361.9879786855087
 20
304.7473259162846
 30
0.0
  0
SPLINE
  5
AB
330
1F
100
AcDbEntity
  8
VISIBLE
100
AcDbSpline
210
0.0
220
0.0
230
1.0
 70
     8
 71
     3
 72
    11
 73
     7
 74
     0
 42
0.000000001
 43
0.0000000378244105
 40
-0.115037358196946
 40
-0.115037358196946
 40
-0.115037358196946
 40
-0.115037358196946
 40
-0.0571593180990801
 40
-0.0571593180990801
 40
-0.0571593180990801
 40
0.0
 40
0.0
 40
0.0
 40
0.0
 10
361.9879786855087
 20
304.7473259162846
 30
0.0
 10
361.8034075230739
 20
304.6993992071687
 30
0.0
 10
361.6188363606391
 20
304.6514724980526
 30
0.0
 10
361.4365196729805
 20
304.6591013476292
 30
0.0
 10
361.2564669703141
 20
304.6666354631407
 30
0.0
 10
361.0786130985207
 20
304.728353940755
 30
0.0
 10
360.9007592267273
 20
304.7900724183692
 30
0.0
  0
SPLINE
  5
AC
330
1F
100
AcDbEntity
  8
VISIBLE
100
AcDbSpline
210
0.0
220
0.0
230
1.0
 70
     8
 71
     3
 72
    11
 73
     7
 74
     0
 42
0.000000001
 43
0.0000000378349894
 40
-0.132350797757253
 40
-0.132350797757253
 40
-0.132350797757253
 40
-0.132350797757253
 40
-0.0711896269330451
 40
-0.0711896269330451
 40
-0.0711896269330451
 40
0.0
 40
0.0
 40
0.0
 40
0.0
 10
360.9007592267273
 20
304.7900724183692
 30
0.0
 10
360.7288140481539
 20
304.8964824939516
 30
0.0
 10
360.5568688695806
 20
305.002892569534
 30
0.0
 10
360.4188859277473
 20
305.1420928260144
 30
0.0
 10
360.2582782412059
 20
305.3041174274782
 30
0.0
 10
360.1436832991224
 20
305.5105668477762
 30
0.0
 10
360.0290883570387
 20
305.7170162680742
 30
0.0
  0
LINE
  5
AD
330
1F
100
AcDbEntity
  8
VISIBLE
100
AcDbLine
 10
360.0290883570466
 20
305.7170162680624
 30
0.0
 11
358.2315115964861
 21
304.8248574607902
 31
0.0
  0
SPLINE
  5
AE
330
1F
100
AcDbEntity
  8
VISIBLE
100
AcDbSpline
210
0.0
220
0.0
230
1.0
 70
     8
 71
     3
 72
    11
 73
     7
 74
     0
 42
0.000000001
 43
0.0000000377105765
 40
-0.264697113619411
 40
-0.264697113619411
 40
-0.264697113619411
 40
-0.264697113619411
 40
-0.129863569778067
 40
-0.129863569778067
 40
-0.129863569778067
 40
0.0
 40
0.0
 40
0.0
 40
0.0
 10
358.2315115964783
 20
304.824857460802
 30
0.0
 10
358.4510963895765
 20
304.4491715399814
 30
0.0
 10
358.6706811826748
 20
304.0734856191608
 30
0.0
 10
358.9751779494464
 20
303.787575483618
 30
0.0
 10
359.2684509436308
 20
303.5122040161068
 30
0.0
 10
359.6404915555669
 20
303.3201120253547
 30
0.0
 10
360.0125321675029
 20
303.1280200346024
 30
0.0
  0
SPLINE
  5
AF
330
1F
100
AcDbEntity
  8
VISIBLE
100
AcDbSpline
210
0.0
220
0.0
230
1.0
 70
     8
 71
     3
 72
    11
 73
     7
 74
     0
 42
0.000000001
 43
0.0000000377265081
 40
-0.26628197864277
 40
-0.26628197864277
 40
-0.26628197864277
 40
-0.26628197864277
 40
-0.138059646229038
 40
-0.138059646229038
 40
-0.138059646229038
 40
0.0
 40
0.0
 40
0.0
 40
0.0
 10
360.0125321675029
 20
303.1280200346024
 30
0.0
 10
360.4230561971521
 20
303.013869309699
 30
0.0
 10
360.8335802268015
 20
302.8997185847954
 30
0.0
 10
361.2442065546431
 20
302.8965029183803
 30
0.0
 10
361.6863364433057
 20
302.8930405436183
 30
0.0
 10
362.128584929084
 20
303.0181882415972
 30
0.0
 10
362.5708334148622
 20
303.1433359395762
 30
0.0
  0
ARC
  5
B0
330
1F
100
AcDbEntity
  8
VISIBLE
100
AcDbCircle
 10
381.5067671268688
 20
331.6447755603321
 30
0.0
 40
0.7
100
AcDbArc
 50
74.68465071550533
 51
194.6846507174938
  0
LINE
  5
B1
330
1F
100
AcDbEntity
  8
VISIBLE
100
AcDbLine
 10
380.8296321377961
 20
331.4673263941825
 30
0.0
 11
381.3080621369855
 21
329.6416672528738
 31
0.0
  0
ARC
  5
B2
330
1F
100
AcDbEntity
  8
VISIBLE
100
AcDbCircle
 10
419.7765063675575
 20
182.848474977198
 30
-0.0000000000000056
 40
151.75
100
AcDbArc
 50
104.6846507163891
 51
114.2718209203677
  0
ARC
  5
B3
330
1F
100
AcDbEntity
  8
VISIBLE
100
AcDbCircle
 10
358.1165966816882
 20
319.589308445255
 30
0.0
 40
1.75
100
AcDbArc
 50
114.2718209202978
 51
294.2718209204368
  0
ARC
  5
B4
330
1F
100
AcDbEntity
  8
VISIBLE
100
AcDbCircle
 10
419.7765063675575
 20
182.848474977198
 30
0.0
 40
148.25
100
AcDbArc
 50
104.6846507163891
 51
114.2718209203677
  0
LINE
  5
B5
330
1F
100
AcDbEntity
  8
VISIBLE
100
AcDbLine
 10
382.195307967674
 20
326.2559923074712
 30
0.0
 11
382.6737379668635
 21
324.4303331661627
 31
0.0
  0
ARC
  5
B6
330
1F
100
AcDbEntity
  8
VISIBLE
100
AcDbCircle
 10
383.350872955936
 20
324.6077823323114
 30
0.0
 40
0.7
100
AcDbArc
 50
194.6846507174318
 51
314.6846507162092
  0
LINE
  5
B7
330
1F
100
AcDbEntity
  8
VISIBLE
100
AcDbLine
 10
383.8431159362398
 20
324.1100908130342
 30
0.0
 11
389.0152779234305
 21
329.2256299222832
 31
0.0
  0
ARC
  5
B8
330
1F
100
AcDbEntity
  8
VISIBLE
100
AcDbCircle
 10
388.5230349431268
 20
329.7233214415612
 30
0.0
 40
0.7
100
AcDbArc
 50
314.6846507161631
 51
74.68465071550533
  0
LINE
  5
B9
330
1F
100
AcDbEntity
  8
VISIBLE
100
AcDbLine
 10
388.7079269519193
 20
330.3984621269526
 30
0.0
 11
381.6916591356612
 21
332.3199162457237
 31
0.0
  0
LINE
  5
BA
330
1F
100
AcDbEntity
  8
VISIBLE
100
AcDbLine
 10
378.0505260770204
 20
310.7314914999474
 30
0.0
 11
372.9684161312192
 21
308.933994242812
 31
0.0
  0
LINE
  5
BB
330
1F
100
AcDbEntity
  8
VISIBLE
100
AcDbLine
 10
372.9684161312192
 20
308.933994242812
 30
0.0
 11
370.0206183195842
 21
317.2683783522982
 31
0.0
  0
LINE
  5
BC
330
1F
100
AcDbEntity
  8
VISIBLE
100
AcDbLine
 10
370.0206183195842
 20
317.2683783522982
 30
0.0
 11
367.9767262761641
 21
316.5454718467108
 31
0.0
  0
LINE
  5
BD
330
1F
100
AcDbEntity
  8
VISIBLE
100
AcDbLine
 10
367.9767262761641
 20
316.5454718467108
 30
0.0
 11
371.5277602596911
 21
306.5055426874789
 31
0.0
  0
LINE
  5
BE
330
1F
100
AcDbEntity
  8
VISIBLE
100
AcDbLine
 10
371.5277602596911
 20
306.5055426874789
 30
0.0
 11
378.6537622489125
 21
309.0259464502014
 31
0.0
  0
LINE
  5
BF
330
1F
100
AcDbEntity
  8
VISIBLE
100
AcDbLine
 10
378.6537622489125
 20
309.0259464502014
 30
0.0
 11
378.0505260770204
 21
310.7314914999474
 31
0.0
  0
ARC
  5
C0
330
1F
100
AcDbEntity
  8
VISIBLE
100
AcDbCircle
 10
366.8393917425278
 20
203.0899532438282
 30
-0.0000000000000005
 40
8.0
100
AcDbArc
 50
52.02725467328954
 51
114.5241371977144
  0
LINE
  5
C1
330
1F
100
AcDbEntity
  8
VISIBLE
100
AcDbLine
 10
356.6798065288822
 20
152.3631969610967
 30
0.0
 11
363.5187793546713
 21
210.3682451704834
 31
0.0
  0
ARC
  5
C2
330
1F
100
AcDbEntity
  8
VISIBLE
100
AcDbCircle
 10
357.0096926223381
 20
220.635422673766
 30
0.0
 40
68.2730227
100
AcDbArc
 50
269.2513141494784
 51
269.7231533968266
  0
SPLINE
  5
C3
330
1F
100
AcDbEntity
  8
VISIBLE
100
AcDbSpline
210
0.0
220
0.0
230
1.0
 70
     8
 71
     3
 72
  1127
 73
  1123
 74
     0
 42
0.000000001
 43
0.000000054003965
 40
-30.7486679932637
 40
-30.7486679932637
 40
-30.7486679932637
 40
-30.7486679932637
 40
-30.6654842413089
 40
-30.6654842413089
 40
-30.6654842413089
 40
-30.5813348238926
 40
-30.5813348238926
 40
-30.5813348238926
 40
-30.5021964920719
 40
-30.5021964920719
 40
-30.5021964920719
 40
-30.4280183540431
 40
-30.4280183540431
 40
-30.4280183540431
 40
-30.3575613065489
 40
-30.3575613065489
 40
-30.3575613065489
 40
-30.2900779335509
 40
-30.2900779335509
 40
-30.2900779335509
 40
-30.2251824623622
 40
-30.2251824623622
 40
-30.2251824623622
 40
-30.1628533298821
 40
-30.1628533298821
 40
-30.1628533298821
 40
-30.1026702644241
 40
-30.1026702644241
 40
-30.1026702644241
 40
-30.0438759865639
 40
-30.0438759865639
 40
-30.0438759865639
 40
-29.9851965412776
 40
-29.9851965412776
 40
-29.9851965412776
 40
-29.9259895353645
 40
-29.9259895353645
 40
-29.9259895353645
 40
-29.8632782480766
 40
-29.8632782480766
 40
-29.8632782480766
 40
-29.7953403114574
 40
-29.7953403114574
 40
-29.7953403114574
 40
-29.7178241559688
 40
-29.7178241559688
 40
-29.7178241559688
 40
-29.6017389053595
 40
-29.6017389053595
 40
-29.6017389053595
 40
-29.5249285375166
 40
-29.5249285375166
 40
-29.5249285375166
 40
-29.4586769139424
 40
-29.4586769139424
 40
-29.4586769139424
 40
-29.3982504633079
 40
-29.3982504633079
 40
-29.3982504633079
 40
-29.3408320053717
 40
-29.3408320053717
 40
-29.3408320053717
 40
-29.2835256928613
 40
-29.2835256928613
 40
-29.2835256928613
 40
-29.2306301011275
 40
-29.2306301011275
 40
-29.2306301011275
 40
-29.1793128963841
 40
-29.1793128963841
 40
-29.1793128963841
 40
-29.1285343905359
 40
-29.1285343905359
 40
-29.1285343905359
 40
-29.0782211068703
 40
-29.0782211068703
 40
-29.0782211068703
 40
-29.0283486642121
 40
-29.0283486642121
 40
-29.0283486642121
 40
-28.9788949188091
 40
-28.9788949188091
 40
-28.9788949188091
 40
-28.9295017091084
 40
-28.9295017091084
 40
-28.9295017091084
 40
-28.8781582628957
 40
-28.8781582628957
 40
-28.8781582628957
 40
-28.8217556100385
 40
-28.8217556100385
 40
-28.8217556100385
 40
-28.7606312032094
 40
-28.7606312032094
 40
-28.7606312032094
 40
-28.6941278044295
 40
-28.6941278044295
 40
-28.6941278044295
 40
-28.6103610005716
 40
-28.6103610005716
 40
-28.6103610005716
 40
-28.5372958486296
 40
-28.5372958486296
 40
-28.5372958486296
 40
-28.4743415539919
 40
-28.4743415539919
 40
-28.4743415539919
 40
-28.4166152835512
 40
-28.4166152835512
 40
-28.4166152835512
 40
-28.3611140818255
 40
-28.3611140818255
 40
-28.3611140818255
 40
-28.3057212808845
 40
-28.3057212808845
 40
-28.3057212808845
 40
-28.2550186404541
 40
-28.2550186404541
 40
-28.2550186404541
 40
-28.2060243624196
 40
-28.2060243624196
 40
-28.2060243624196
 40
-28.1580002670714
 40
-28.1580002670714
 40
-28.1580002670714
 40
-28.1089860370675
 40
-28.1089860370675
 40
-28.1089860370675
 40
-28.0586875542766
 40
-28.0586875542766
 40
-28.0586875542766
 40
-28.0068775148798
 40
-28.0068775148798
 40
-28.0068775148798
 40
-27.9521529395631
 40
-27.9521529395631
 40
-27.9521529395631
 40
-27.8950622091107
 40
-27.8950622091107
 40
-27.8950622091107
 40
-27.8351006077919
 40
-27.8351006077919
 40
-27.8351006077919
 40
-27.7712236080611
 40
-27.7712236080611
 40
-27.7712236080611
 40
-27.7015074789272
 40
-27.7015074789272
 40
-27.7015074789272
 40
-27.6219995665249
 40
-27.6219995665249
 40
-27.6219995665249
 40
-27.5398008780783
 40
-27.5398008780783
 40
-27.5398008780783
 40
-27.4700384216516
 40
-27.4700384216516
 40
-27.4700384216516
 40
-27.4069687704323
 40
-27.4069687704323
 40
-27.4069687704323
 40
-27.3476848446115
 40
-27.3476848446115
 40
-27.3476848446115
 40
-27.2910867362
 40
-27.2910867362
 40
-27.2910867362
 40
-27.2365833942691
 40
-27.2365833942691
 40
-27.2365833942691
 40
-27.1833869423271
 40
-27.1833869423271
 40
-27.1833869423271
 40
-27.1302943897054
 40
-27.1302943897054
 40
-27.1302943897054
 40
-27.0759658120095
 40
-27.0759658120095
 40
-27.0759658120095
 40
-27.019904174724
 40
-27.019904174724
 40
-27.019904174724
 40
-26.9617375074613
 40
-26.9617375074613
 40
-26.9617375074613
 40
-26.9009945548495
 40
-26.9009945548495
 40
-26.9009945548495
 40
-26.8373667350654
 40
-26.8373667350654
 40
-26.8373667350654
 40
-26.7701680966039
 40
-26.7701680966039
 40
-26.7701680966039
 40
-26.6982435759739
 40
-26.6982435759739
 40
-26.6982435759739
 40
-26.6203957384069
 40
-26.6203957384069
 40
-26.6203957384069
 40
-26.5405719835116
 40
-26.5405719835116
 40
-26.5405719835116
 40
-26.4678161181428
 40
-26.4678161181428
 40
-26.4678161181428
 40
-26.4012248497498
 40
-26.4012248497498
 40
-26.4012248497498
 40
-26.3378963916991
 40
-26.3378963916991
 40
-26.3378963916991
 40
-26.2765601079709
 40
-26.2765601079709
 40
-26.2765601079709
 40
-26.2169241320548
 40
-26.2169241320548
 40
-26.2169241320548
 40
-26.158722847396
 40
-26.158722847396
 40
-26.158722847396
 40
-26.1002852469432
 40
-26.1002852469432
 40
-26.1002852469432
 40
-26.03959991972
 40
-26.03959991972
 40
-26.03959991972
 40
-25.9759347568924
 40
-25.9759347568924
 40
-25.9759347568924
 40
-25.9082119385858
 40
-25.9082119385858
 40
-25.9082119385858
 40
-25.8352142192613
 40
-25.8352142192613
 40
-25.8352142192613
 40
-25.7562886110917
 40
-25.7562886110917
 40
-25.7562886110917
 40
-25.6700056072707
 40
-25.6700056072707
 40
-25.6700056072707
 40
-25.582203496075
 40
-25.582203496075
 40
-25.582203496075
 40
-25.5042644891058
 40
-25.5042644891058
 40
-25.5042644891058
 40
-25.4337548796085
 40
-25.4337548796085
 40
-25.4337548796085
 40
-25.3679310278579
 40
-25.3679310278579
 40
-25.3679310278579
 40
-25.3046216398955
 40
-25.3046216398955
 40
-25.3046216398955
 40
-25.2429989564357
 40
-25.2429989564357
 40
-25.2429989564357
 40
-25.1828337824661
 40
-25.1828337824661
 40
-25.1828337824661
 40
-25.1238777428262
 40
-25.1238777428262
 40
-25.1238777428262
 40
-25.0643052754995
 40
-25.0643052754995
 40
-25.0643052754995
 40
-25.0023764486827
 40
-25.0023764486827
 40
-25.0023764486827
 40
-24.9373783491251
 40
-24.9373783491251
 40
-24.9373783491251
 40
-24.8681399788678
 40
-24.8681399788678
 40
-24.8681399788678
 40
-24.7933146653833
 40
-24.7933146653833
 40
-24.7933146653833
 40
-24.7107223350866
 40
-24.7107223350866
 40
-24.7107223350866
 40
-24.6107913375833
 40
-24.6107913375833
 40
-24.6107913375833
 40
-24.5146554339209
 40
-24.5146554339209
 40
-24.5146554339209
 40
-24.4350862641163
 40
-24.4350862641163
 40
-24.4350862641163
 40
-24.3638751401245
 40
-24.3638751401245
 40
-24.3638751401245
 40
-24.2969907408547
 40
-24.2969907408547
 40
-24.2969907408547
 40
-24.2324837953372
 40
-24.2324837953372
 40
-24.2324837953372
 40
-24.1699013292838
 40
-24.1699013292838
 40
-24.1699013292838
 40
-24.1089400333798
 40
-24.1089400333798
 40
-24.1089400333798
 40
-24.0482878810188
 40
-24.0482878810188
 40
-24.0482878810188
 40
-23.986030665736
 40
-23.986030665736
 40
-23.986030665736
 40
-23.9217628798424
 40
-23.9217628798424
 40
-23.9217628798424
 40
-23.8550277103516
 40
-23.8550277103516
 40
-23.8550277103516
 40
-23.785376346865
 40
-23.785376346865
 40
-23.785376346865
 40
-23.7125410349263
 40
-23.7125410349263
 40
-23.7125410349263
 40
-23.6354739285972
 40
-23.6354739285972
 40
-23.6354739285972
 40
-23.5521999554071
 40
-23.5521999554071
 40
-23.5521999554071
 40
-23.4568576500689
 40
-23.4568576500689
 40
-23.4568576500689
 40
-23.3352483036145
 40
-23.3352483036145
 40
-23.3352483036145
 40
-23.2440949899285
 40
-23.2440949899285
 40
-23.2440949899285
 40
-23.1620936838575
 40
-23.1620936838575
 40
-23.1620936838575
 40
-23.0874343789027
 40
-23.0874343789027
 40
-23.0874343789027
 40
-23.016452997932
 40
-23.016452997932
 40
-23.016452997932
 40
-22.9459853898145
 40
-22.9459853898145
 40
-22.9459853898145
 40
-22.8758871026952
 40
-22.8758871026952
 40
-22.8758871026952
 40
-22.8061384327822
 40
-22.8061384327822
 40
-22.8061384327822
 40
-22.7352471501945
 40
-22.7352471501945
 40
-22.7352471501945
 40
-22.6616757063754
 40
-22.6616757063754
 40
-22.6616757063754
 40
-22.5847174995816
 40
-22.5847174995816
 40
-22.5847174995816
 40
-22.5034877199328
 40
-22.5034877199328
 40
-22.5034877199328
 40
-22.4155544667255
 40
-22.4155544667255
 40
-22.4155544667255
 40
-22.3217238386645
 40
-22.3217238386645
 40
-22.3217238386645
 40
-22.2206532277684
 40
-22.2206532277684
 40
-22.2206532277684
 40
-22.1172143839725
 40
-22.1172143839725
 40
-22.1172143839725
 40
-22.0214035635859
 40
-22.0214035635859
 40
-22.0214035635859
 40
-21.9338962659041
 40
-21.9338962659041
 40
-21.9338962659041
 40
-21.8482169836154
 40
-21.8482169836154
 40
-21.8482169836154
 40
-21.7688277742189
 40
-21.7688277742189
 40
-21.7688277742189
 40
-21.6899055333278
 40
-21.6899055333278
 40
-21.6899055333278
 40
-21.6051793398382
 40
-21.6051793398382
 40
-21.6051793398382
 40
-21.520784108042
 40
-21.520784108042
 40
-21.520784108042
 40
-21.43245740137
 40
-21.43245740137
 40
-21.43245740137
 40
-21.337943109027
 40
-21.337943109027
 40
-21.337943109027
 40
-21.2344128597947
 40
-21.2344128597947
 40
-21.2344128597947
 40
-21.1193547561167
 40
-21.1193547561167
 40
-21.1193547561167
 40
-21.0023031960257
 40
-21.0023031960257
 40
-21.0023031960257
 40
-20.8976509227806
 40
-20.8976509227806
 40
-20.8976509227806
 40
-20.8022504759352
 40
-20.8022504759352
 40
-20.8022504759352
 40
-20.7132369515202
 40
-20.7132369515202
 40
-20.7132369515202
 40
-20.6290565790593
 40
-20.6290565790593
 40
-20.6290565790593
 40
-20.5484612939414
 40
-20.5484612939414
 40
-20.5484612939414
 40
-20.4681938670119
 40
-20.4681938670119
 40
-20.4681938670119
 40
-20.3863422918789
 40
-20.3863422918789
 40
-20.3863422918789
 40
-20.3013897759172
 40
-20.3013897759172
 40
-20.3013897759172
 40
-20.2122453358156
 40
-20.2122453358156
 40
-20.2122453358156
 40
-20.1165053010909
 40
-20.1165053010909
 40
-20.1165053010909
 40
-20.0095405033253
 40
-20.0095405033253
 40
-20.0095405033253
 40
-19.875571327362
 40
-19.875571327362
 40
-19.875571327362
 40
-19.7456272228697
 40
-19.7456272228697
 40
-19.7456272228697
 40
-19.6424848875427
 40
-19.6424848875427
 40
-19.6424848875427
 40
-19.5488574405497
 40
-19.5488574405497
 40
-19.5488574405497
 40
-19.4612201611
 40
-19.4612201611
 40
-19.4612201611
 40
-19.3784181920448
 40
-19.3784181920448
 40
-19.3784181920448
 40
-19.2993026237662
 40
-19.2993026237662
 40
-19.2993026237662
 40
-19.2225846197114
 40
-19.2225846197114
 40
-19.2225846197114
 40
-19.1454747427491
 40
-19.1454747427491
 40
-19.1454747427491
 40
-19.066728383968
 40
-19.066728383968
 40
-19.066728383968
 40
-18.9860809470559
 40
-18.9860809470559
 40
-18.9860809470559
 40
-18.9025527653897
 40
-18.9025527653897
 40
-18.9025527653897
 40
-18.8145976729193
 40
-18.8145976729193
 40
-18.8145976729193
 40
-18.7203232168108
 40
-18.7203232168108
 40
-18.7203232168108
 40
-18.6163120247289
 40
-18.6163120247289
 40
-18.6163120247289
 40
-18.4892636732168
 40
-18.4892636732168
 40
-18.4892636732168
 40
-18.3448163007698
 40
-18.3448163007698
 40
-18.3448163007698
 40
-18.2355627933826
 40
-18.2355627933826
 40
-18.2355627933826
 40
-18.1393065870374
 40
-18.1393065870374
 40
-18.1393065870374
 40
-18.0507403635267
 40
-18.0507403635267
 40
-18.0507403635267
 40
-17.9671834620132
 40
-17.9671834620132
 40
-17.9671834620132
 40
-17.8865194657252
 40
-17.8865194657252
 40
-17.8865194657252
 40
-17.807339464582
 40
-17.807339464582
 40
-17.807339464582
 40
-17.7294502408749
 40
-17.7294502408749
 40
-17.7294502408749
 40
-17.6517597727195
 40
-17.6517597727195
 40
-17.6517597727195
 40
-17.571690289287
 40
-17.571690289287
 40
-17.571690289287
 40
-17.4882244412797
 40
-17.4882244412797
 40
-17.4882244412797
 40
-17.400494814824
 40
-17.400494814824
 40
-17.400494814824
 40
-17.3082490097099
 40
-17.3082490097099
 40
-17.3082490097099
 40
-17.2101272713273
 40
-17.2101272713273
 40
-17.2101272713273
 40
-17.1023992622146
 40
-17.1023992622146
 40
-17.1023992622146
 40
-16.9681644431232
 40
-16.9681644431232
 40
-16.9681644431232
 40
-16.8356006584113
 40
-16.8356006584113
 40
-16.8356006584113
 40
-16.7247851630478
 40
-16.7247851630478
 40
-16.7247851630478
 40
-16.6258838960295
 40
-16.6258838960295
 40
-16.6258838960295
 40
-16.5348012963719
 40
-16.5348012963719
 40
-16.5348012963719
 40
-16.4489884672074
 40
-16.4489884672074
 40
-16.4489884672074
 40
-16.3661650258595
 40
-16.3661650258595
 40
-16.3661650258595
 40
-16.2828486756619
 40
-16.2828486756619
 40
-16.2828486756619
 40
-16.1985178238237
 40
-16.1985178238237
 40
-16.1985178238237
 40
-16.1129227515165
 40
-16.1129227515165
 40
-16.1129227515165
 40
-16.0249228673307
 40
-16.0249228673307
 40
-16.0249228673307
 40
-15.9338464670156
 40
-15.9338464670156
 40
-15.9338464670156
 40
-15.8391457093016
 40
-15.8391457093016
 40
-15.8391457093016
 40
-15.7406639546928
 40
-15.7406639546928
 40
-15.7406639546928
 40
-15.6376942859181
 40
-15.6376942859181
 40
-15.6376942859181
 40
-15.5290728138982
 40
-15.5290728138982
 40
-15.5290728138982
 40
-15.4141996122794
 40
-15.4141996122794
 40
-15.4141996122794
 40
-15.2937761778085
 40
-15.2937761778085
 40
-15.2937761778085
 40
-15.1742935514194
 40
-15.1742935514194
 40
-15.1742935514194
 40
-15.0667083324154
 40
-15.0667083324154
 40
-15.0667083324154
 40
-14.9657019462252
 40
-14.9657019462252
 40
-14.9657019462252
 40
-14.8698973956186
 40
-14.8698973956186
 40
-14.8698973956186
 40
-14.7758939512614
 40
-14.7758939512614
 40
-14.7758939512614
 40
-14.6806392643738
 40
-14.6806392643738
 40
-14.6806392643738
 40
-14.5840320926114
 40
-14.5840320926114
 40
-14.5840320926114
 40
-14.4850776949513
 40
-14.4850776949513
 40
-14.4850776949513
 40
-14.3830221149766
 40
-14.3830221149766
 40
-14.3830221149766
 40
-14.2775297594883
 40
-14.2775297594883
 40
-14.2775297594883
 40
-14.1659865582423
 40
-14.1659865582423
 40
-14.1659865582423
 40
-14.0522557882797
 40
-14.0522557882797
 40
-14.0522557882797
 40
-13.935848758366
 40
-13.935848758366
 40
-13.935848758366
 40
-13.8185944214989
 40
-13.8185944214989
 40
-13.8185944214989
 40
-13.7024193207146
 40
-13.7024193207146
 40
-13.7024193207146
 40
-13.5888952073828
 40
-13.5888952073828
 40
-13.5888952073828
 40
-13.47964412472
 40
-13.47964412472
 40
-13.47964412472
 40
-13.3743344049956
 40
-13.3743344049956
 40
-13.3743344049956
 40
-13.2698474174566
 40
-13.2698474174566
 40
-13.2698474174566
 40
-13.1652824787041
 40
-13.1652824787041
 40
-13.1652824787041
 40
-13.0589277161141
 40
-13.0589277161141
 40
-13.0589277161141
 40
-12.9486312404718
 40
-12.9486312404718
 40
-12.9486312404718
 40
-12.832993691771
 40
-12.832993691771
 40
-12.832993691771
 40
-12.7123620196906
 40
-12.7123620196906
 40
-12.7123620196906
 40
-12.588297466133
 40
-12.588297466133
 40
-12.588297466133
 40
-12.4634411913692
 40
-12.4634411913692
 40
-12.4634411913692
 40
-12.3416754504683
 40
-12.3416754504683
 40
-12.3416754504683
 40
-12.2245067986705
 40
-12.2245067986705
 40
-12.2245067986705
 40
-12.111473452598
 40
-12.111473452598
 40
-12.111473452598
 40
-12.0027926159658
 40
-12.0027926159658
 40
-12.0027926159658
 40
-11.8989327018251
 40
-11.8989327018251
 40
-11.8989327018251
 40
-11.7987147278643
 40
-11.7987147278643
 40
-11.7987147278643
 40
-11.6986906571009
 40
-11.6986906571009
 40
-11.6986906571009
 40
-11.5971679135181
 40
-11.5971679135181
 40
-11.5971679135181
 40
-11.49341197152
 40
-11.49341197152
 40
-11.49341197152
 40
-11.3852402723921
 40
-11.3852402723921
 40
-11.3852402723921
 40
-11.2732250008285
 40
-11.2732250008285
 40
-11.2732250008285
 40
-11.1607728207593
 40
-11.1607728207593
 40
-11.1607728207593
 40
-11.0508300760239
 40
-11.0508300760239
 40
-11.0508300760239
 40
-10.9449518578743
 40
-10.9449518578743
 40
-10.9449518578743
 40
-10.8435789278897
 40
-10.8435789278897
 40
-10.8435789278897
 40
-10.7461299663628
 40
-10.7461299663628
 40
-10.7461299663628
 40
-10.6516076166751
 40
-10.6516076166751
 40
-10.6516076166751
 40
-10.5595311948276
 40
-10.5595311948276
 40
-10.5595311948276
 40
-10.4699286606181
 40
-10.4699286606181
 40
-10.4699286606181
 40
-10.3830618513588
 40
-10.3830618513588
 40
-10.3830618513588
 40
-10.2985804911808
 40
-10.2985804911808
 40
-10.2985804911808
 40
-10.2154444790685
 40
-10.2154444790685
 40
-10.2154444790685
 40
-10.1322812283024
 40
-10.1322812283024
 40
-10.1322812283024
 40
-10.0489155155216
 40
-10.0489155155216
 40
-10.0489155155216
 40
-9.96439264964914
 40
-9.96439264964914
 40
-9.96439264964914
 40
-9.87578906640218
 40
-9.87578906640218
 40
-9.87578906640218
 40
-9.78080368081359
 40
-9.78080368081359
 40
-9.78080368081359
 40
-9.67622840922023
 40
-9.67622840922023
 40
-9.67622840922023
 40
-9.55612068710758
 40
-9.55612068710758
 40
-9.55612068710758
 40
-9.40680630137152
 40
-9.40680630137152
 40
-9.40680630137152
 40
-9.29134371182144
 40
-9.29134371182144
 40
-9.29134371182144
 40
-9.1913736015506
 40
-9.1913736015506
 40
-9.1913736015506
 40
-9.098822119679461
 40
-9.098822119679461
 40
-9.098822119679461
 40
-9.01116995135695
 40
-9.01116995135695
 40
-9.01116995135695
 40
-8.92727216494556
 40
-8.92727216494556
 40
-8.92727216494556
 40
-8.846532813630569
 40
-8.846532813630569
 40
-8.846532813630569
 40
-8.76836440002811
 40
-8.76836440002811
 40
-8.76836440002811
 40
-8.69224973890532
 40
-8.69224973890532
 40
-8.69224973890532
 40
-8.617596527737419
 40
-8.617596527737419
 40
-8.617596527737419
 40
-8.54418174816679
 40
-8.54418174816679
 40
-8.54418174816679
 40
-8.47179934288475
 40
-8.47179934288475
 40
-8.47179934288475
 40
-8.39860608532671
 40
-8.39860608532671
 40
-8.39860608532671
 40
-8.322597778603349
 40
-8.322597778603349
 40
-8.322597778603349
 40
-8.24291040531046
 40
-8.24291040531046
 40
-8.24291040531046
 40
-8.158368605343439
 40
-8.158368605343439
 40
-8.158368605343439
 40
-8.06741339683442
 40
-8.06741339683442
 40
-8.06741339683442
 40
-7.9661849361506
 40
-7.9661849361506
 40
-7.9661849361506
 40
-7.84171329652324
 40
-7.84171329652324
 40
-7.84171329652324
 40
-7.73241631522066
 40
-7.73241631522066
 40
-7.73241631522066
 40
-7.63936303840985
 40
-7.63936303840985
 40
-7.63936303840985
 40
-7.5537910399735
 40
-7.5537910399735
 40
-7.5537910399735
 40
-7.47307332758229
 40
-7.47307332758229
 40
-7.47307332758229
 40
-7.39603406702306
 40
-7.39603406702306
 40
-7.39603406702306
 40
-7.32224398181958
 40
-7.32224398181958
 40
-7.32224398181958
 40
-7.25106891577466
 40
-7.25106891577466
 40
-7.25106891577466
 40
-7.18201723398441
 40
-7.18201723398441
 40
-7.18201723398441
 40
-7.11429866621793
 40
-7.11429866621793
 40
-7.11429866621793
 40
-7.04738718480171
 40
-7.04738718480171
 40
-7.04738718480171
 40
-6.98122257124776
 40
-6.98122257124776
 40
-6.98122257124776
 40
-6.91565931189702
 40
-6.91565931189702
 40
-6.91565931189702
 40
-6.849265601373419
 40
-6.849265601373419
 40
-6.849265601373419
 40
-6.780988928248201
 40
-6.780988928248201
 40
-6.780988928248201
 40
-6.7104608115592
 40
-6.7104608115592
 40
-6.7104608115592
 40
-6.63722597289153
 40
-6.63722597289153
 40
-6.63722597289153
 40
-6.56118775523001
 40
-6.56118775523001
 40
-6.56118775523001
 40
-6.48181898693968
 40
-6.48181898693968
 40
-6.48181898693968
 40
-6.3980819716394
 40
-6.3980819716394
 40
-6.3980819716394
 40
-6.30782807821906
 40
-6.30782807821906
 40
-6.30782807821906
 40
-6.20601371356615
 40
-6.20601371356615
 40
-6.20601371356615
 40
-6.094825261371891
 40
-6.094825261371891
 40
-6.094825261371891
 40
-5.99959361666295
 40
-5.99959361666295
 40
-5.99959361666295
 40
-5.90584996640259
 40
-5.90584996640259
 40
-5.90584996640259
 40
-5.82304057228653
 40
-5.82304057228653
 40
-5.82304057228653
 40
-5.7444827776519
 40
-5.7444827776519
 40
-5.7444827776519
 40
-5.669143199556809
 40
-5.669143199556809
 40
-5.669143199556809
 40
-5.59646756757507
 40
-5.59646756757507
 40
-5.59646756757507
 40
-5.52653660898165
 40
-5.52653660898165
 40
-5.52653660898165
 40
-5.45889168638744
 40
-5.45889168638744
 40
-5.45889168638744
 40
-5.39314405071205
 40
-5.39314405071205
 40
-5.39314405071205
 40
-5.32831027290233
 40
-5.32831027290233
 40
-5.32831027290233
 40
-5.262646413470501
 40
-5.262646413470501
 40
-5.262646413470501
 40
-5.19601254352834
 40
-5.19601254352834
 40
-5.19601254352834
 40
-5.12833439752771
 40
-5.12833439752771
 40
-5.12833439752771
 40
-5.05909761480885
 40
-5.05909761480885
 40
-5.05909761480885
 40
-4.987193447516621
 40
-4.987193447516621
 40
-4.987193447516621
 40
-4.90926854989918
 40
-4.90926854989918
 40
-4.90926854989918
 40
-4.82817485495741
 40
-4.82817485495741
 40
-4.82817485495741
 40
-4.74371792377326
 40
-4.74371792377326
 40
-4.74371792377326
 40
-4.65748279292373
 40
-4.65748279292373
 40
-4.65748279292373
 40
-4.57243416825003
 40
-4.57243416825003
 40
-4.57243416825003
 40
-4.4910338735001
 40
-4.4910338735001
 40
-4.4910338735001
 40
-4.41366388397749
 40
-4.41366388397749
 40
-4.41366388397749
 40
-4.33972735272716
 40
-4.33972735272716
 40
-4.33972735272716
 40
-4.26841885799293
 40
-4.26841885799293
 40
-4.26841885799293
 40
-4.19927868137998
 40
-4.19927868137998
 40
-4.19927868137998
 40
-4.13200532613146
 40
-4.13200532613146
 40
-4.13200532613146
 40
-4.06651981808508
 40
-4.06651981808508
 40
-4.06651981808508
 40
-4.00282201410665
 40
-4.00282201410665
 40
-4.00282201410665
 40
-3.94027792013623
 40
-3.94027792013623
 40
-3.94027792013623
 40
-3.8787110776341
 40
-3.8787110776341
 40
-3.8787110776341
 40
-3.81810621704607
 40
-3.81810621704607
 40
-3.81810621704607
 40
-3.75709155090846
 40
-3.75709155090846
 40
-3.75709155090846
 40
-3.69490572667906
 40
-3.69490572667906
 40
-3.69490572667906
 40
-3.63140101821841
 40
-3.63140101821841
 40
-3.63140101821841
 40
-3.56628737646637
 40
-3.56628737646637
 40
-3.56628737646637
 40
-3.49876164621935
 40
-3.49876164621935
 40
-3.49876164621935
 40
-3.4279903751985
 40
-3.4279903751985
 40
-3.4279903751985
 40
-3.35276873721156
 40
-3.35276873721156
 40
-3.35276873721156
 40
-3.27100159077771
 40
-3.27100159077771
 40
-3.27100159077771
 40
-3.17808407441154
 40
-3.17808407441154
 40
-3.17808407441154
 40
-3.03301952386691
 40
-3.03301952386691
 40
-3.03301952386691
 40
-2.93823766374607
 40
-2.93823766374607
 40
-2.93823766374607
 40
-2.85804081294761
 40
-2.85804081294761
 40
-2.85804081294761
 40
-2.78420371881087
 40
-2.78420371881087
 40
-2.78420371881087
 40
-2.71405339829711
 40
-2.71405339829711
 40
-2.71405339829711
 40
-2.64660150573036
 40
-2.64660150573036
 40
-2.64660150573036
 40
-2.58131814006093
 40
-2.58131814006093
 40
-2.58131814006093
 40
-2.51796825266755
 40
-2.51796825266755
 40
-2.51796825266755
 40
-2.45670519657803
 40
-2.45670519657803
 40
-2.45670519657803
 40
-2.39720718445117
 40
-2.39720718445117
 40
-2.39720718445117
 40
-2.33920455888302
 40
-2.33920455888302
 40
-2.33920455888302
 40
-2.28242242754602
 40
-2.28242242754602
 40
-2.28242242754602
 40
-2.22562204027513
 40
-2.22562204027513
 40
-2.22562204027513
 40
-2.16839606620688
 40
-2.16839606620688
 40
-2.16839606620688
 40
-2.11072476007489
 40
-2.11072476007489
 40
-2.11072476007489
 40
-2.05258663808111
 40
-2.05258663808111
 40
-2.05258663808111
 40
-1.99364973653094
 40
-1.99364973653094
 40
-1.99364973653094
 40
-1.93134818226435
 40
-1.93134818226435
 40
-1.93134818226435
 40
-1.86709933500017
 40
-1.86709933500017
 40
-1.86709933500017
 40
-1.79976108194456
 40
-1.79976108194456
 40
-1.79976108194456
 40
-1.72880135307255
 40
-1.72880135307255
 40
-1.72880135307255
 40
-1.65347498952932
 40
-1.65347498952932
 40
-1.65347498952932
 40
-1.57159645234106
 40
-1.57159645234106
 40
-1.57159645234106
 40
-1.47543270967778
 40
-1.47543270967778
 40
-1.47543270967778
 40
-1.37583131400787
 40
-1.37583131400787
 40
-1.37583131400787
 40
-1.28984185688238
 40
-1.28984185688238
 40
-1.28984185688238
 40
-1.20922674082723
 40
-1.20922674082723
 40
-1.20922674082723
 40
-1.13365006952553
 40
-1.13365006952553
 40
-1.13365006952553
 40
-1.06279694018018
 40
-1.06279694018018
 40
-1.06279694018018
 40
-0.996125881000742
 40
-0.996125881000742
 40
-0.996125881000742
 40
-0.928415603545898
 40
-0.928415603545898
 40
-0.928415603545898
 40
-0.859109451218895
 40
-0.859109451218895
 40
-0.859109451218895
 40
-0.787954278794372
 40
-0.787954278794372
 40
-0.787954278794372
 40
-0.7148593254165071
 40
-0.7148593254165071
 40
-0.7148593254165071
 40
-0.640178930896099
 40
-0.640178930896099
 40
-0.640178930896099
 40
-0.560156564534087
 40
-0.560156564534087
 40
-0.560156564534087
 40
-0.480344870840538
 40
-0.480344870840538
 40
-0.480344870840538
 40
-0.397440728629172
 40
-0.397440728629172
 40
-0.397440728629172
 40
-0.3957114399963208
 40
-0.3957114399963208
 40
-0.3957114399963208
 40
-0.3957114399963208
 10
356.1175921588822
 20
152.3682286055121
 30
0.0
 10
355.7644069305903
 20
152.372843951289
 30
0.0
 10
355.4042225550304
 20
152.3830447618805
 30
0.0
 10
355.0370444740379
 20
152.3988588104464
 30
0.0
 10
354.6656038876552
 20
152.4148564415047
 30
0.0
 10
354.2870046593286
 20
152.4365996751427
 30
0.0
 10
353.9012773976385
 20
152.464162566156
 30
0.0
 10
353.5385201384066
 20
152.4900840910093
 30
0.0
 10
353.1694576393422
 20
152.5211541300598
 30
0.0
 10
352.7941545417439
 20
152.5574545549615
 30
0.0
 10
352.442374508784
 20
152.5914797595231
 30
0.0
 10
352.0851112588245
 20
152.6301010650661
 30
0.0
 10
351.722462167164
 20
152.6733894462541
 30
0.0
 10
351.3780050945834
 20
152.7145062983397
 30
0.0
 10
351.0286887908776
 20
152.7598342187868
 30
0.0
 10
350.6746416571266
 20
152.8094285037905
 30
0.0
 10
350.3355372575598
 20
152.8569296374953
 30
0.0
 10
349.9920927973049
 20
152.9083449539054
 30
0.0
 10
349.6444657752177
 20
152.9637119761968
 30
0.0
 10
349.3101698087589
 20
153.0169557433694
 30
0.0
 10
348.9720058319866
 20
153.0738541941364
 30
0.0
 10
348.6301577600443
 20
153.1344260047857
 30
0.0
 10
348.30182831927
 20
153.1926024590338
 30
0.0
 10
347.970100293905
 20
153.2541677130839
 30
0.0
 10
347.6351790977625
 20
153.3191212122912
 30
0.0
 10
347.3117896413609
 20
153.3818382843727
 30
0.0
 10
346.9854230024577
 20
153.4477144888721
 30
0.0
 10
346.6563062788397
 20
153.5167299591197
 30
0.0
 10
346.3347842701224
 20
153.58415282473
 30
0.0
 10
346.0106374835981
 20
153.6545719285105
 30
0.0
 10
345.6841206677551
 20
153.7279471543767
 30
0.0
 10
345.358241580068
 20
153.8011790692549
 30
0.0
 10
345.0300014202265
 20
153.877355820341
 30
0.0
 10
344.6997003022835
 20
153.9564124295306
 30
0.0
 10
344.3664295948361
 20
154.0361798013067
 30
0.0
 10
344.0310606712842
 20
154.1188791200503
 30
0.0
 10
343.6939533522911
 20
154.2044147615582
 30
0.0
 10
343.3368936833861
 20
154.2950129957574
 30
0.0
 10
342.9778839991127
 20
154.38879309757
 30
0.0
 10
342.6174070398922
 20
154.4856101979163
 30
0.0
 10
342.2268862601829
 20
154.5904964841251
 30
0.0
 10
341.8346437881905
 20
154.6989469068584
 30
0.0
 10
341.4413519103599
 20
154.8107440524449
 30
0.0
 10
340.9926118415354
 20
154.938302900295
 30
0.0
 10
340.5425062200034
 20
155.0702183379494
 30
0.0
 10
340.0921002127147
 20
155.2061294136313
 30
0.0
 10
339.417589281381
 20
155.4096646790435
 30
0.0
 10
338.7424083316253
 20
155.6221590151621
 30
0.0
 10
338.0702627368872
 20
155.842325502831
 30
0.0
 10
337.6255227711735
 20
155.9880035180462
 30
0.0
 10
337.1821149720827
 20
156.1370385775443
 30
0.0
 10
336.7410958850597
 20
156.2890666597877
 30
0.0
 10
336.3607015273315
 20
156.4201961877455
 30
0.0
 10
335.9820848751355
 20
156.5535520857134
 30
0.0
 10
335.6058922528129
 20
156.6889182766958
 30
0.0
 10
335.2627763607715
 20
156.8123823975081
 30
0.0
 10
334.9216773570974
 20
156.9375186127117
 30
0.0
 10
334.5830512434538
 20
157.0641821926124
 30
0.0
 10
334.2612817359259
 20
157.1845405349972
 30
0.0
 10
333.9417454446906
 20
157.3062777289965
 30
0.0
 10
333.6247952645039
 20
157.4292912425923
 30
0.0
 10
333.3084641276378
 20
157.5520644954193
 30
0.0
 10
332.9947096662826
 20
157.6761087059675
 30
0.0
 10
332.6838353698296
 20
157.8013488244783
 30
0.0
 10
332.3968882754293
 20
157.9169495303557
 30
0.0
 10
332.1123949573222
 20
158.0335691844675
 30
0.0
 10
331.8305508923107
 20
158.1511733841332
 30
0.0
 10
331.5571169611295
 20
158.2652683133157
 30
0.0
 10
331.2861766896044
 20
158.380289818779
 30
0.0
 10
331.017865221525
 20
158.4962312496141
 30
0.0
 10
330.7523703349831
 20
158.6109555930995
 30
0.0
 10
330.4894493994577
 20
158.7265806377283
 30
0.0
 10
330.2291887717232
 20
158.8431252752418
 30
0.0
 10
329.9713125981044
 20
158.9586021548579
 30
0.0
 10
329.7160482568754
 20
159.0749818426592
 30
0.0
 10
329.4634350502092
 20
159.1923078878016
 30
0.0
 10
329.2130352204567
 20
159.3086059314269
 30
0.0
 10
328.9652403161882
 20
159.4258338098504
 30
0.0
 10
328.7200437953327
 20
159.544058957503
 30
0.0
 10
328.4769057882538
 20
159.6612915621361
 30
0.0
 10
328.2363227624082
 20
159.7795047502969
 30
0.0
 10
327.9982434107516
 20
159.8987891514713
 30
0.0
 10
327.7604554890081
 20
160.0179275381239
 30
0.0
 10
327.5251651814248
 20
160.1381344960641
 30
0.0
 10
327.292275345337
 20
160.2595256072998
 30
0.0
 10
327.0501901104415
 20
160.3857097129327
 30
0.0
 10
326.8106984782663
 20
160.5131735008969
 30
0.0
 10
326.5736417202606
 20
160.642073350023
 30
0.0
 10
326.3132262044446
 20
160.7836745470578
 30
0.0
 10
326.0557491648244
 20
160.9270088519965
 30
0.0
 10
325.800941339167
 20
161.0723131655504
 30
0.0
 10
325.5248022497851
 20
161.2297816448819
 30
0.0
 10
325.2517976452257
 20
161.3895642245751
 30
0.0
 10
324.9815206163584
 20
161.5519912732146
 30
0.0
 10
324.687459013731
 20
161.7287120194549
 30
0.0
 10
324.39662524584
 20
161.9085640912693
 30
0.0
 10
324.1084320776948
 20
162.0919947003579
 30
0.0
 10
323.745427764651
 20
162.3230414759355
 30
0.0
 10
323.3866117264686
 20
162.5597685135072
 30
0.0
 10
323.030729867835
 20
162.8030727742256
 30
0.0
 10
322.7203137975433
 20
163.0152936297294
 30
0.0
 10
322.412126649735
 20
163.2325200528593
 30
0.0
 10
322.1053234484804
 20
163.4553187019881
 30
0.0
 10
321.8409761007472
 20
163.6472861643056
 30
0.0
 10
321.5776550803711
 20
163.8433905997038
 30
0.0
 10
321.3148354369291
 20
164.0439623792098
 30
0.0
 10
321.0738415873157
 20
164.2278777237173
 30
0.0
 10
320.8332687758539
 20
164.4155494011974
 30
0.0
 10
320.5927365127228
 20
164.6072003962898
 30
0.0
 10
320.3614756057619
 20
164.7914641718353
 30
0.0
 10
320.1302516854955
 20
164.9794066765371
 30
0.0
 10
319.8987572857606
 20
165.1711921786631
 30
0.0
 10
319.6677150235251
 20
165.3626030997303
 30
0.0
 10
319.4364026920874
 20
165.5578424698883
 30
0.0
 10
319.2045544935917
 20
165.7570335735742
 30
0.0
 10
318.9923370999404
 20
165.9393589793225
 30
0.0
 10
318.7796708189782
 20
166.1249950650732
 30
0.0
 10
318.5663881175605
 20
166.3140020647559
 30
0.0
 10
318.3602917114464
 20
166.4966407087063
 30
0.0
 10
318.153619561979
 20
166.6824270061374
 30
0.0
 10
317.946256997732
 20
166.8713822078971
 30
0.0
 10
317.743000618486
 20
167.0565957264933
 30
0.0
 10
317.5390807390303
 20
167.244853972454
 30
0.0
 10
317.3344276462471
 20
167.4361432547157
 30
0.0
 10
317.1255551274012
 20
167.6313764352693
 30
0.0
 10
316.9159189220958
 20
167.8297668194594
 30
0.0
 10
316.7054860641297
 20
168.0312643658809
 30
0.0
 10
316.489539521988
 20
168.2380414767383
 30
0.0
 10
316.2727541157479
 20
168.4480905859012
 30
0.0
 10
316.0551358953271
 20
168.6613223982312
 30
0.0
 10
315.8309778701171
 20
168.8809621961826
 30
0.0
 10
315.6059363176332
 20
169.1039787185083
 30
0.0
 10
315.3800601762649
 20
169.3302395209189
 30
0.0
 10
315.1414775375624
 20
169.5692284594894
 30
0.0
 10
314.9019637394962
 20
169.8118368830353
 30
0.0
 10
314.6616227524033
 20
170.0578718745081
 30
0.0
 10
314.410890016126
 20
170.314544809816
 30
0.0
 10
314.1592571520447
 20
170.5749467887116
 30
0.0
 10
313.9068902622823
 20
170.8388223346866
 30
0.0
 10
313.6418328228332
 20
171.1159671559238
 30
0.0
 10
313.3759657945615
 20
171.3969433974724
 30
0.0
 10
313.109531620399
 20
171.681419711808
 30
0.0
 10
312.8256997130291
 20
171.9844718827738
 30
0.0
 10
312.54122431501
 20
172.2914957505207
 30
0.0
 10
312.256452107957
 20
172.6020567409456
 30
0.0
 10
311.9456482811597
 20
172.9410067574407
 30
0.0
 10
311.6344910987254
 20
173.284169440094
 30
0.0
 10
311.3234908610747
 20
173.6309489920535
 30
0.0
 10
310.9688099578258
 20
174.0264344927923
 30
0.0
 10
310.6143336317583
 20
174.4266225742857
 30
0.0
 10
310.2608891040476
 20
174.830609226722
 30
0.0
 10
309.8954829986848
 20
175.2482679474312
 30
0.0
 10
309.5311822648696
 20
175.6699835890653
 30
0.0
 10
309.1689456843004
 20
176.0947755213944
 30
0.0
 10
308.8615136054474
 20
176.4552986541785
 30
0.0
 10
308.5555700749009
 20
176.8180369047099
 30
0.0
 10
308.2517033288996
 20
177.1824266637826
 30
0.0
 10
307.9769886661842
 20
177.5118579394253
 30
0.0
 10
307.7039721117973
 20
177.8426387350989
 30
0.0
 10
307.4330756701377
 20
178.1743908412784
 30
0.0
 10
307.1784396567467
 20
178.4862296872748
 30
0.0
 10
306.9256772538332
 20
178.7989265418078
 30
0.0
 10
306.6751199304442
 20
179.1122065576549
 30
0.0
 10
306.4359139339427
 20
179.4112936382524
 30
0.0
 10
306.1987179948342
 20
179.7109120988164
 30
0.0
 10
305.9637983471158
 20
180.010862023163
 30
0.0
 10
305.7375733681329
 20
180.2997104272462
 30
0.0
 10
305.5134594953444
 20
180.5888660968704
 30
0.0
 10
305.2916702341955
 20
180.8781896226523
 30
0.0
 10
305.0751990719883
 20
181.1605757019214
 30
0.0
 10
304.8609425726137
 20
181.4431215295475
 30
0.0
 10
304.6490728347856
 20
181.725737544375
 30
0.0
 10
304.4376169050392
 20
182.0078015747986
 30
0.0
 10
304.2285386682111
 20
182.2899352769101
 30
0.0
 10
304.0219790453423
 20
182.5720933506866
 30
0.0
 10
303.810610595989
 20
182.860820226241
 30
0.0
 10
303.6018793656667
 20
183.1495727861006
 30
0.0
 10
303.3959029413945
 20
183.4383491207714
 30
0.0
 10
303.1833559527439
 20
183.7363373033739
 30
0.0
 10
302.9737423056754
 20
184.0343509870852
 30
0.0
 10
302.767156438145
 20
184.332434444222
 30
0.0
 10
302.5528135826804
 20
184.6417104858663
 30
0.0
 10
302.341730133295
 20
184.9510618676464
 30
0.0
 10
302.1339749966355
 20
185.2605840297511
 30
0.0
 10
301.9170180861772
 20
185.5838153735743
 30
0.0
 10
301.7036908290889
 20
185.9072332641044
 30
0.0
 10
301.4940327780861
 20
186.2309915616735
 30
0.0
 10
301.2744174299365
 20
186.5701261233893
 30
0.0
 10
301.0588280722208
 20
186.909634573275
 30
0.0
 10
300.8472687388141
 20
187.2497366891798
 30
0.0
 10
300.6238366110596
 20
187.6089254717631
 30
0.0
 10
300.4048995522483
 20
187.9687769009896
 30
0.0
 10
300.1904169248874
 20
188.3295901948154
 30
0.0
 10
299.9608503665523
 20
188.7157784240639
 30
0.0
 10
299.7363868382498
 20
189.1030693287839
 30
0.0
 10
299.5169252748084
 20
189.4918650652524
 30
0.0
 10
299.2793900365705
 20
189.9126799288654
 30
0.0
 10
299.0477145241678
 20
190.3352590862659
 30
0.0
 10
298.8217122667463
 20
190.7601352888362
 30
0.0
 10
298.5899736678845
 20
191.1957956092098
 30
0.0
 10
298.364199093591
 20
191.6338735564082
 30
0.0
 10
298.1441362498936
 20
192.0749362851086
 30
0.0
 10
297.9435585816325
 20
192.4769456938444
 30
0.0
 10
297.7477246961299
 20
192.881436095323
 30
0.0
 10
297.5564180740237
 20
193.2888042722872
 30
0.0
 10
297.3813208422961
 20
193.661656185593
 30
0.0
 10
297.2100154998184
 20
194.0369194488002
 30
0.0
 10
297.0423262398926
 20
194.4148571368248
 30
0.0
 10
296.8828533462379
 20
194.7742767964804
 30
0.0
 10
296.7266504789526
 20
195.1361156041057
 30
0.0
 10
296.5735644206611
 20
195.5005537184528
 30
0.0
 10
296.4252941138317
 20
195.8535274094448
 30
0.0
 10
296.2799473810406
 20
196.2089395944248
 30
0.0
 10
296.137387167017
 20
196.5669062758455
 30
0.0
 10
295.9987788755889
 20
196.9149497355135
 30
0.0
 10
295.8628045743134
 20
197.2654081544626
 30
0.0
 10
295.7293432608702
 20
197.6183403075464
 30
0.0
 10
295.5990926902151
 20
197.9627818026559
 30
0.0
 10
295.4712355003571
 20
198.3095795543719
 30
0.0
 10
295.3456663949884
 20
198.6587401952566
 30
0.0
 10
295.2195874389693
 20
199.0093185397986
 30
0.0
 10
295.0958150225862
 20
199.3622792666881
 30
0.0
 10
294.9742523360333
 20
199.717576647608
 30
0.0
 10
294.848013897863
 20
200.0865400830597
 30
0.0
 10
294.7241583923008
 20
200.4580231761114
 30
0.0
 10
294.6025896647802
 20
200.8319174860891
 30
0.0
 10
294.4750515400555
 20
201.2241711529024
 30
0.0
 10
294.3500302050141
 20
201.6190783651103
 30
0.0
 10
294.227428930235
 20
202.0164558666203
 30
0.0
 10
294.0970137473113
 20
202.4391599505907
 30
0.0
 10
293.9693368072849
 20
202.8646588523423
 30
0.0
 10
293.844299182988
 20
203.2926729399516
 30
0.0
 10
293.7095224322314
 20
203.7540248596668
 30
0.0
 10
293.5778119449016
 20
204.2182983829312
 30
0.0
 10
293.4490663620815
 20
204.685085017167
 30
0.0
 10
293.3098658018824
 20
205.1897777573425
 30
0.0
 10
293.1741308372908
 20
205.6974075705834
 30
0.0
 10
293.0417637174755
 20
206.2074039970852
 30
0.0
 10
292.8970574178388
 20
206.7649419703376
 30
0.0
 10
292.7563754699585
 20
207.3253067684937
 30
0.0
 10
292.619633812711
 20
207.8877093721124
 30
0.0
 10
292.480484667885
 20
208.460013693391
 30
0.0
 10
292.3454155984979
 20
209.0344255351005
 30
0.0
 10
292.2143871224918
 20
209.6101042750889
 30
0.0
 10
292.0980775125569
 20
210.1211151006488
 30
0.0
 10
291.9849523893964
 20
210.6331223581743
 30
0.0
 10
291.8750170615747
 20
211.1455615174073
 30
0.0
 10
291.7755611237063
 20
211.6091533235341
 30
0.0
 10
291.6787162261072
 20
212.0730978640015
 30
0.0
 10
291.5845081307997
 20
212.537013593845
 30
0.0
 10
291.4965606901112
 20
212.9700995298437
 30
0.0
 10
291.410911430087
 20
213.4031599099711
 30
0.0
 10
291.3275976168269
 20
213.8359257827971
 30
0.0
 10
291.2474663819324
 20
214.2521600475952
 30
0.0
 10
291.1694956746633
 20
214.6681215665955
 30
0.0
 10
291.0937323486901
 20
215.0836166390785
 30
0.0
 10
291.0199875281415
 20
215.4880419882222
 30
0.0
 10
290.948334110619
 20
215.8920252519445
 30
0.0
 10
290.8788272844143
 20
216.2954348638564
 30
0.0
 10
290.8109644446955
 20
216.689302967596
 30
0.0
 10
290.7451479141446
 20
217.0826240945792
 30
0.0
 10
290.6814396687529
 20
217.4753234898095
 30
0.0
 10
290.6190117624928
 20
217.8601308390488
 30
0.0
 10
290.558608300883
 20
218.2443410615826
 30
0.0
 10
290.5002971321591
 20
218.6279322041804
 30
0.0
 10
290.4413762783365
 20
219.0155340673451
 30
0.0
 10
290.3845917195097
 20
219.4025036103851
 30
0.0
 10
290.3300229251947
 20
219.7888717705026
 30
0.0
 10
290.2732956892016
 20
220.1905225321572
 30
0.0
 10
290.218963046454
 20
220.5915235918116
 30
0.0
 10
290.1671236757766
 20
220.9919670934311
 30
0.0
 10
290.1127150788519
 20
221.412257092828
 30
0.0
 10
290.0610531184312
 20
221.8319331455484
 30
0.0
 10
290.0122606863376
 20
222.2511604482387
 30
0.0
 10
289.9602851900996
 20
222.6977368159048
 30
0.0
 10
289.9115659805838
 20
223.1438043065188
 30
0.0
 10
289.866259421136
 20
223.5896232526566
 30
0.0
 10
289.8172970105394
 20
224.0714159678534
 30
0.0
 10
289.7723204554902
 20
224.5529189159792
 30
0.0
 10
289.7315328036269
 20
225.0345225225742
 30
0.0
 10
289.686511312131
 20
225.5661175443081
 30
0.0
 10
289.6465938954244
 20
226.0978358027364
 30
0.0
 10
289.612055165862
 20
226.6302667791684
 30
0.0
 10
289.5702656960012
 20
227.2744713728071
 30
0.0
 10
289.5363515789211
 20
227.9197208035624
 30
0.0
 10
289.5107873782335
 20
228.5671351480213
 30
0.0
 10
289.4861940328663
 20
229.1899625449611
 30
0.0
 10
289.4693294497915
 20
229.8147981462747
 30
0.0
 10
289.4605888026172
 20
230.4426515872755
 30
0.0
 10
289.4533543978554
 20
230.9623094378408
 30
0.0
 10
289.4516851200835
 20
231.4840362347018
 30
0.0
 10
289.4557819601449
 20
232.0083756631979
 30
0.0
 10
289.4594484629663
 20
232.477637817725
 30
0.0
 10
289.4677333053613
 20
232.9489931327865
 30
0.0
 10
289.4807611063733
 20
233.4227934062739
 30
0.0
 10
289.4929973497528
 20
233.867805995455
 30
0.0
 10
289.5094177289446
 20
234.3149758596825
 30
0.0
 10
289.5301072477297
 20
234.7645522837356
 30
0.0
 10
289.5500613427894
 20
235.1981481926313
 30
0.0
 10
289.5739864758419
 20
235.6339828111166
 30
0.0
 10
289.6019411871575
 20
236.0722351989337
 30
0.0
 10
289.6290619066075
 20
236.4974129059752
 30
0.0
 10
289.6599753636493
 20
236.9248664354289
 30
0.0
 10
289.694717939608
 20
237.3547139687452
 30
0.0
 10
289.7285605250324
 20
237.7734264983815
 30
0.0
 10
289.7660364247128
 20
238.1944107483818
 30
0.0
 10
289.8071626856195
 20
238.6177300511265
 30
0.0
 10
289.8480803893127
 20
239.0389026404994
 30
0.0
 10
289.8926115697246
 20
239.4623868848766
 30
0.0
 10
289.9407558322596
 20
239.8881959520915
 30
0.0
 10
289.9901741562695
 20
240.3252733802627
 30
0.0
 10
290.0433992601535
 20
240.7648001817786
 30
0.0
 10
290.1004126153442
 20
241.2067376299313
 30
0.0
 10
290.1592671928872
 20
241.6629472622956
 30
0.0
 10
290.2221585762784
 20
242.1217256030881
 30
0.0
 10
290.2890484128129
 20
242.5829764954595
 30
0.0
 10
290.358506299315
 20
243.0619358380324
 30
0.0
 10
290.43227545761
 20
243.5435610462064
 30
0.0
 10
290.5102951712655
 20
244.0276901631522
 30
0.0
 10
290.5917241910223
 20
244.5329747583084
 30
0.0
 10
290.6777832391602
 20
245.0409866348104
 30
0.0
 10
290.7683859905895
 20
245.5514869195331
 30
0.0
 10
290.8631304339503
 20
246.0853235254707
 30
0.0
 10
290.9628433442966
 20
246.6218810268917
 30
0.0
 10
291.0674095613057
 20
247.1608311985101
 30
0.0
 10
291.1780511656341
 20
247.7310948395456
 30
0.0
 10
291.2941262259806
 20
248.3040369791807
 30
0.0
 10
291.4154829102687
 20
248.8792122010175
 30
0.0
 10
291.5466134762809
 20
249.5007111554269
 30
0.0
 10
291.683910358532
 20
250.1248169679838
 30
0.0
 10
291.8271684917734
 20
250.7509085624407
 30
0.0
 10
291.9911880546503
 20
251.4677353653614
 30
0.0
 10
292.1630212699308
 20
252.1871645437129
 30
0.0
 10
292.3423509416855
 20
252.9081968374756
 30
0.0
 10
292.5710863818933
 20
253.8278753129014
 30
0.0
 10
292.8120148996065
 20
254.7501584281274
 30
0.0
 10
293.0644923912515
 20
255.6728983012782
 30
0.0
 10
293.2537390294875
 20
256.3645457737811
 30
0.0
 10
293.4494741985076
 20
257.056447092033
 30
0.0
 10
293.6514491060312
 20
257.7477086397172
 30
0.0
 10
293.8331452566241
 20
258.3695658981608
 30
0.0
 10
294.0198907820803
 20
258.990904278728
 30
0.0
 10
294.2115287711401
 20
259.6111056090521
 30
0.0
 10
294.3860084197171
 20
260.1757771060393
 30
0.0
 10
294.5645435833661
 20
260.7395056119726
 30
0.0
 10
294.7470392735491
 20
261.3018627060812
 30
0.0
 10
294.920544720971
 20
261.8365165333925
 30
0.0
 10
295.0976299962879
 20
262.3699303890068
 30
0.0
 10
295.2782371477235
 20
262.9017781015365
 30
0.0
 10
295.4575370401257
 20
263.4297762282603
 30
0.0
 10
295.6403080512507
 20
263.9562307441205
 30
0.0
 10
295.8265178315219
 20
264.4808679408771
 30
0.0
 10
296.0117516856367
 20
265.0027555121187
 30
0.0
 10
296.2003883998796
 20
265.5228447115289
 30
0.0
 10
296.392419667982
 20
266.0409119964971
 30
0.0
 10
296.5834931746583
 20
266.5563954061062
 30
0.0
 10
296.7779274983145
 20
267.0698769684445
 30
0.0
 10
296.9757372166455
 20
267.5811827885483
 30
0.0
 10
297.1767874253202
 20
268.1008647470276
 30
0.0
 10
297.3813245902161
 20
268.6182990698442
 30
0.0
 10
297.5893872669079
 20
269.1333526348088
 30
0.0
 10
297.8053160944073
 20
269.6678786447133
 30
0.0
 10
298.0250422322572
 20
270.1998406215458
 30
0.0
 10
298.2486314351989
 20
270.7291412190762
 30
0.0
 10
298.4825132679267
 20
271.2828074613884
 30
0.0
 10
298.7206222576442
 20
271.8335618366714
 30
0.0
 10
298.9630547044615
 20
272.3813457839825
 30
0.0
 10
299.2189433881397
 20
272.9595345332924
 30
0.0
 10
299.4796491433331
 20
273.5344141952368
 30
0.0
 10
299.7453035002272
 20
274.1059702768387
 30
0.0
 10
300.0328809371157
 20
274.724693925518
 30
0.0
 10
300.3262578224911
 20
275.3395227388073
 30
0.0
 10
300.625616064172
 20
275.9504990932118
 30
0.0
 10
300.9450512130787
 20
276.602451488615
 30
0.0
 10
301.2712976333855
 20
277.2500176530164
 30
0.0
 10
301.6045840716928
 20
277.8933137470243
 30
0.0
 10
301.9635869326906
 20
278.5862466469964
 30
0.0
 10
302.3307593692562
 20
279.2742257421144
 30
0.0
 10
302.706380484798
 20
279.9574617640521
 30
0.0
 10
303.0908029549158
 20
280.6567070097507
 30
0.0
 10
303.4840762145077
 20
281.3509860689751
 30
0.0
 10
303.8864709210092
 20
282.0405711492697
 30
0.0
 10
304.2591913182439
 20
282.6793032719888
 30
0.0
 10
304.639738082719
 20
283.3140099183621
 30
0.0
 10
305.0282876690144
 20
283.9449208284274
 30
0.0
 10
305.3831632892724
 20
284.5211533311348
 30
0.0
 10
305.7447149168057
 20
285.0942204688261
 30
0.0
 10
306.1130384540901
 20
285.6642914815436
 30
0.0
 10
306.4736677634223
 20
286.2224537893413
 30
0.0
 10
306.8407895650164
 20
286.7777446517017
 30
0.0
 10
307.214448936517
 20
287.3303044758519
 30
0.0
 10
307.5606764175907
 20
287.8422985823825
 30
0.0
 10
307.9125167816825
 20
288.3519482644425
 30
0.0
 10
308.2699639704973
 20
288.8593416392014
 30
0.0
 10
308.6253086496538
 20
289.363750518616
 30
0.0
 10
308.9861943475938
 20
289.8659297002943
 30
0.0
 10
309.3525707394965
 20
290.3659367513994
 30
0.0
 10
309.7458905023395
 20
290.9027143907535
 30
0.0
 10
310.1455384452188
 20
291.4369889865943
 30
0.0
 10
310.5513997725262
 20
291.9687949438523
 30
0.0
 10
310.9556757040241
 20
292.4985235340899
 30
0.0
 10
311.3661161243963
 20
293.0258025920231
 30
0.0
 10
311.7825600457916
 20
293.5506302582019
 30
0.0
 10
312.218403627325
 20
294.0999065423862
 30
0.0
 10
312.6608228187469
 20
294.6464977654992
 30
0.0
 10
313.1095853861609
 20
295.1903624301156
 30
0.0
 10
313.5897852949686
 20
295.7723266609058
 30
0.0
 10
314.0772479850484
 20
296.3511689331447
 30
0.0
 10
314.5716413372888
 20
296.926794115901
 30
0.0
 10
315.1131961191883
 20
297.5573296376488
 30
0.0
 10
315.6630660335898
 20
298.1840050216084
 30
0.0
 10
316.2207697104758
 20
298.8066435432922
 30
0.0
 10
316.8405724053657
 20
299.4986114281674
 30
0.0
 10
317.4700487371173
 20
300.1855933874663
 30
0.0
 10
318.1085066528008
 20
300.867286003598
 30
0.0
 10
318.7580262667543
 20
301.5607893872797
 30
0.0
 10
319.4168385488002
 20
302.2488174684286
 30
0.0
 10
320.0842212324665
 20
302.9310009568021
 30
0.0
 10
320.6809079824404
 20
303.540920660333
 30
0.0
 10
321.2844442641331
 20
304.1461671112132
 30
0.0
 10
321.8943464794539
 20
304.7464548457518
 30
0.0
 10
322.4503300435886
 20
305.2936739011535
 30
0.0
 10
323.0116031890636
 20
305.8367715766202
 30
0.0
 10
323.5778398499846
 20
306.3755252821664
 30
0.0
 10
324.1061677824857
 20
306.8782102035484
 30
0.0
 10
324.6388165697345
 20
307.3771129592218
 30
0.0
 10
325.1755637917503
 20
307.8720537755073
 30
0.0
 10
325.6831673425995
 20
308.340120875814
 30
0.0
 10
326.1944360832901
 20
308.8046443483967
 30
0.0
 10
326.7092251996081
 20
309.2654773439494
 30
0.0
 10
327.2020903936236
 20
309.7066843092142
 30
0.0
 10
327.6981822821141
 20
310.1445082662138
 30
0.0
 10
328.1974180728423
 20
310.5788282564146
 30
0.0
 10
328.694622993629
 20
311.0113814513865
 30
0.0
 10
329.1949458339646
 20
311.4404589207714
 30
0.0
 10
329.6983550892838
 20
311.8659521296435
 30
0.0
 10
330.211699568616
 20
312.2998428208846
 30
0.0
 10
330.7282536180091
 20
312.730006361907
 30
0.0
 10
331.248040204075
 20
313.1563412209978
 30
0.0
 10
331.7875188662468
 20
313.5988277444782
 30
0.0
 10
332.3304798295181
 20
314.0371899926496
 30
0.0
 10
332.8770060723138
 20
314.4713289186976
 30
0.0
 10
333.4505002809706
 20
314.9268901348764
 30
0.0
 10
334.0279205243233
 20
315.3778009392162
 30
0.0
 10
334.6094215199588
 20
315.8239626663716
 30
0.0
 10
335.2339464533268
 20
316.3031348862197
 30
0.0
 10
335.8631787010704
 20
316.7768292793313
 30
0.0
 10
336.4973721857931
 20
317.2449417510094
 30
0.0
 10
337.2059198485622
 20
317.7679367134472
 30
0.0
 10
337.9206609351291
 20
318.2839641130562
 30
0.0
 10
338.6420170321493
 20
318.7929012383894
 30
0.0
 10
339.5454869952826
 20
319.4303248461765
 30
0.0
 10
340.4593356730302
 20
320.0566258656296
 30
0.0
 10
341.384474117805
 20
320.6716014287862
 30
0.0
 10
342.2818170018928
 20
321.2681001999742
 30
0.0
 10
343.1897873063513
 20
321.8539450132382
 30
0.0
 10
344.109216974328
 20
322.4289738613375
 30
0.0
 10
344.8390086297052
 20
322.8853994799142
 30
0.0
 10
345.5760209962477
 20
323.3350113427392
 30
0.0
 10
346.3206348494139
 20
323.777732200079
 30
0.0
 10
346.9965580175931
 20
324.1796120244193
 30
0.0
 10
347.6787453610729
 20
324.5758137915842
 30
0.0
 10
348.3674405669225
 20
324.9662786145512
 30
0.0
 10
349.0120739105527
 20
325.3317619840604
 30
0.0
 10
349.6624093350089
 20
325.692219125813
 30
0.0
 10
350.3186034533617
 20
326.0475986462882
 30
0.0
 10
350.9385926340304
 20
326.3833704119342
 30
0.0
 10
351.5638121068691
 20
326.7146094905544
 30
0.0
 10
352.194350306524
 20
327.0412683364463
 30
0.0
 10
352.7968165106051
 20
327.3533841052
 30
0.0
 10
353.4041386355558
 20
327.661318460447
 30
0.0
 10
354.0163490358526
 20
327.9650248803788
 30
0.0
 10
354.610006655891
 20
328.2595276042126
 30
0.0
 10
355.208261014503
 20
328.5500548208472
 30
0.0
 10
355.8110949023811
 20
328.8365583343952
 30
0.0
 10
356.4170080448794
 20
329.1245252979679
 30
0.0
 10
357.0275478905608
 20
329.4084273971088
 30
0.0
 10
357.6426439330635
 20
329.6882087630324
 30
0.0
 10
358.2707939905629
 20
329.9739278523255
 30
0.0
 10
358.9036955796539
 20
330.2553494253768
 30
0.0
 10
359.5412181159992
 20
330.5324067159454
 30
0.0
 10
360.1941315881373
 20
330.8161526657015
 30
0.0
 10
360.8518917000241
 20
331.0953210430338
 30
0.0
 10
361.5143022640244
 20
331.3698329203082
 30
0.0
 10
362.2003742837436
 20
331.6541504241552
 30
0.0
 10
362.891434830102
 20
331.9334728009533
 30
0.0
 10
363.5872079817686
 20
332.2077050364699
 30
0.0
 10
364.3198564205638
 20
332.4964713085473
 30
0.0
 10
365.0577299657555
 20
332.7795935351006
 30
0.0
 10
365.8004458883934
 20
333.0569534450004
 30
0.0
 10
366.5965241788392
 20
333.3542410029759
 30
0.0
 10
367.3981653062681
 20
333.6449083888434
 30
0.0
 10
368.2048348212467
 20
333.9288029395414
 30
0.0
 10
369.0948177639488
 20
334.2420183306713
 30
0.0
 10
369.9909208186622
 20
334.5469894714544
 30
0.0
 10
370.8923591349514
 20
334.8435051032428
 30
0.0
 10
371.9934546015249
 20
335.205695185503
 30
0.0
 10
373.1025094600241
 20
335.5552689430347
 30
0.0
 10
374.2180073983474
 20
335.8918371146708
 30
0.0
 10
375.4862705772327
 20
336.2744976329965
 30
0.0
 10
376.762855693342
 20
336.6403450782312
 30
0.0
 10
378.0454964319049
 20
336.988817599449
 30
0.0
 10
379.0156283009161
 20
337.2523865694212
 30
0.0
 10
379.9892226186327
 20
337.5060158810338
 30
0.0
 10
380.9653286318385
 20
337.7494737084227
 30
0.0
 10
381.825312572572
 20
337.9639686700016
 30
0.0
 10
382.6872456058385
 20
338.1705682837642
 30
0.0
 10
383.5505164215435
 20
338.3691237849208
 30
0.0
 10
384.3448198635457
 20
338.5518165333942
 30
0.0
 10
385.1402554562133
 20
338.7276990957592
 30
0.0
 10
385.9363885907817
 20
338.8966647292023
 30
0.0
 10
386.687492287879
 20
339.0560736351387
 30
0.0
 10
387.4392165486383
 20
339.2093258997822
 30
0.0
 10
388.1912400984008
 20
339.3563408413693
 30
0.0
 10
388.9172271051916
 20
339.4982658348487
 30
0.0
 10
389.6434927373319
 20
339.6343778874574
 30
0.0
 10
390.3697944154389
 20
339.7646135471813
 30
0.0
 10
391.0827341450483
 20
339.8924532298195
 30
0.0
 10
391.7957085041803
 20
340.0146307432038
 30
0.0
 10
392.508536563263
 20
340.131095363899
 30
0.0
 10
393.2097442338485
 20
340.2456614003256
 30
0.0
 10
393.9108102479527
 20
340.3546992817098
 30
0.0
 10
394.6116111232724
 20
340.4581698787986
 30
0.0
 10
395.3106237144373
 20
340.5613764425007
 30
0.0
 10
396.0093723297129
 20
340.6590440739386
 30
0.0
 10
396.7077855618737
 20
340.751143381001
 30
0.0
 10
397.4275854041106
 20
340.8460629266806
 30
0.0
 10
398.1470290931849
 20
340.9350679303292
 30
0.0
 10
398.8660950904422
 20
341.0181365029642
 30
0.0
 10
399.6156622246535
 20
341.1047286546873
 30
0.0
 10
400.3648191583248
 20
341.1848701289308
 30
0.0
 10
401.1135994780309
 20
341.2585464488228
 30
0.0
 10
401.9006305729458
 20
341.3359864578455
 30
0.0
 10
402.6872458830221
 20
341.4062839830378
 30
0.0
 10
403.4735433518903
 20
341.4694323850715
 30
0.0
 10
404.3003181371636
 20
341.5358315642618
 30
0.0
 10
405.1267418094026
 20
341.5943267080154
 30
0.0
 10
405.9529866824358
 20
341.6449197187402
 30
0.0
 10
406.8318622385802
 20
341.6987354359558
 30
0.0
 10
407.7105358226333
 20
341.7436103525532
 30
0.0
 10
408.5892748380331
 20
341.7795559564896
 30
0.0
 10
409.5540437691491
 20
341.8190206909326
 30
0.0
 10
410.5188920542852
 20
341.8477223190248
 30
0.0
 10
411.4842379204852
 20
341.8656846289437
 30
0.0
 10
412.6871101240782
 20
341.8880666207976
 30
0.0
 10
413.8907563794205
 20
341.8937749217074
 30
0.0
 10
415.0960702826144
 20
341.8828619493577
 30
0.0
 10
416.2863797258328
 20
341.8720848281386
 30
0.0
 10
417.4783211352346
 20
341.8450988357129
 30
0.0
 10
418.6727663419269
 20
341.8019446138918
 30
0.0
 10
419.6712519958469
 20
341.7658702329549
 30
0.0
 10
420.6714887967526
 20
341.7184976291152
 30
0.0
 10
421.6739525573789
 20
341.6598370709436
 30
0.0
 10
422.5686373281382
 20
341.6074833499399
 30
0.0
 10
423.4650964370084
 20
341.5461384424262
 30
0.0
 10
424.3636274602237
 20
341.4757972651548
 30
0.0
 10
425.1911248617719
 20
341.4110169293502
 30
0.0
 10
426.0203799170026
 20
341.3386065558992
 30
0.0
 10
426.8515828920823
 20
341.2585505910037
 30
0.0
 10
427.6346949153403
 20
341.1831264280462
 30
0.0
 10
428.4195362727992
 20
341.1009158328068
 30
0.0
 10
429.2062221426064
 20
341.0118942989062
 30
0.0
 10
429.965502912529
 20
340.9259739317142
 30
0.0
 10
430.7265022353898
 20
340.8337089553536
 30
0.0
 10
431.4892769377411
 20
340.7350654467476
 30
0.0
 10
432.2565911568649
 20
340.6358348790012
 30
0.0
 10
433.0257019757904
 20
340.5301495829956
 30
0.0
 10
433.7966153658087
 20
340.4179623275533
 30
0.0
 10
434.5769157836671
 20
340.3044090238568
 30
0.0
 10
435.3590628899398
 20
340.1841943738837
 30
0.0
 10
436.1430104290073
 20
340.0572575332599
 30
0.0
 10
436.9387102805912
 20
339.9284177573668
 30
0.0
 10
437.7362649163562
 20
339.7926526472488
 30
0.0
 10
438.5355728508811
 20
339.6498876857374
 30
0.0
 10
439.3573375129233
 20
339.5031117120727
 30
0.0
 10
440.1809552640244
 20
339.3489368980854
 30
0.0
 10
441.0062607170078
 20
339.1872724208994
 30
0.0
 10
441.8604192254365
 20
339.0199560797806
 30
0.0
 10
442.7163853399197
 20
338.8446170481059
 30
0.0
 10
443.5739197078414
 20
338.6611468209342
 30
0.0
 10
444.4655793927554
 20
338.47037545238
 30
0.0
 10
445.3589344167532
 20
338.2708126057192
 30
0.0
 10
446.2536590664104
 20
338.0623314042584
 30
0.0
 10
447.1841062509623
 20
337.8455264386122
 30
0.0
 10
448.1160343938924
 20
337.6190764648662
 30
0.0
 10
449.0490206013241
 20
337.3828378852958
 30
0.0
 10
450.0245239433625
 20
337.135833672315
 30
0.0
 10
451.0011836909998
 20
336.8781279740961
 30
0.0
 10
451.978459625547
 20
336.6095610793241
 30
0.0
 10
453.0093763201738
 20
336.3262530742288
 30
0.0
 10
454.0409782436716
 20
336.0308582533806
 30
0.0
 10
455.072574975217
 20
335.7232017566619
 30
0.0
 10
456.1635454539681
 20
335.3978380314272
 30
0.0
 10
457.2545092455098
 20
335.058759644601
 30
0.0
 10
458.3445990672586
 20
334.7057856398894
 30
0.0
 10
459.4873578514392
 20
334.3357572840388
 30
0.0
 10
460.6291547455713
 20
333.9504568945202
 30
0.0
 10
461.7689547931058
 20
333.5497205110674
 30
0.0
 10
462.8998501527686
 20
333.1521148806098
 30
0.0
 10
464.0287780969102
 20
332.7393127653311
 30
0.0
 10
465.1547171344463
 20
332.3112109462398
 30
0.0
 10
466.1685415003748
 20
331.9257370965709
 30
0.0
 10
467.1799416025243
 20
331.5278590773828
 30
0.0
 10
468.1881807138278
 20
331.1175489712602
 30
0.0
 10
469.1347660346671
 20
330.7323293154338
 30
0.0
 10
470.0785644606482
 20
330.3361515086708
 30
0.0
 10
471.0189855956053
 20
329.9290349743342
 30
0.0
 10
471.9109749797798
 20
329.5428849684998
 30
0.0
 10
472.7999255318468
 20
329.1468939002822
 30
0.0
 10
473.685359129325
 20
328.7411181661415
 30
0.0
 10
474.5541467535612
 20
328.3429709340492
 30
0.0
 10
475.4195481053521
 20
327.935403446619
 30
0.0
 10
476.2811431006738
 20
327.5185095063852
 30
0.0
 10
477.1542064449441
 20
327.0960664564107
 30
0.0
 10
478.0233613644892
 20
326.6640471720513
 30
0.0
 10
478.8882056764517
 20
326.2225898258134
 30
0.0
 10
479.7653295820912
 20
325.774864395525
 30
0.0
 10
480.6380195300625
 20
325.3174311536968
 30
0.0
 10
481.5058926645088
 20
324.8504732685208
 30
0.0
 10
482.3948521661479
 20
324.372169893966
 30
0.0
 10
483.2787578991719
 20
323.8838736500456
 30
0.0
 10
484.1572379025114
 20
323.3858193249526
 30
0.0
 10
485.0632490385195
 20
322.8721562214608
 30
0.0
 10
485.963489001942
 20
322.3481141355151
 30
0.0
 10
486.8575918032229
 20
321.8139862508228
 30
0.0
 10
487.7818039881827
 20
321.2618713277373
 30
0.0
 10
488.6994586664895
 20
320.6989802737722
 30
0.0
 10
489.6101964428555
 20
320.1256688992466
 30
0.0
 10
490.5731724480959
 20
319.5194734481234
 30
0.0
 10
491.528415031325
 20
318.9016283929358
 30
0.0
 10
492.4755514346683
 20
318.2725836279158
 30
0.0
 10
493.4412629366565
 20
317.6312021302762
 30
0.0
 10
494.3985472303863
 20
316.9781780001152
 30
0.0
 10
495.3470632814265
 20
316.3140092510324
 30
0.0
 10
496.3178993740995
 20
315.6342115896996
 30
0.0
 10
497.2795497681428
 20
314.9427395041818
 30
0.0
 10
498.2317042078254
 20
314.2401371836984
 30
0.0
 10
499.1907892175792
 20
313.5324207405368
 30
0.0
 10
500.1402397631765
 20
312.8134124254057
 30
0.0
 10
501.0797918808222
 20
312.0836644268194
 30
0.0
 10
502.0106961430948
 20
311.3606331978842
 30
0.0
 10
502.9318837169299
 20
310.6270599309912
 30
0.0
 10
503.8431451449351
 20
309.8834639238995
 30
0.0
 10
504.7336125938922
 20
309.1568359561842
 30
0.0
 10
505.6146021534274
 20
308.4206380928982
 30
0.0
 10
506.4859578533749
 20
307.6753270692502
 30
0.0
 10
507.3245158549298
 20
306.9580694412068
 30
0.0
 10
508.1541519956691
 20
306.2323722601732
 30
0.0
 10
508.9747580950675
 20
305.4986087684237
 30
0.0
 10
509.7657598519875
 20
304.7913166686402
 30
0.0
 10
510.5483716610528
 20
304.0765302260617
 30
0.0
 10
511.322520773183
 20
303.3545445952373
 30
0.0
 10
512.0906218453745
 20
302.6381994771532
 30
0.0
 10
512.8503921100728
 20
301.914767782327
 30
0.0
 10
513.6017813704752
 20
301.184490668049
 30
0.0
 10
514.3537311954624
 20
300.4536687396403
 30
0.0
 10
515.0972877840169
 20
299.7159911374088
 30
0.0
 10
515.8324185081592
 20
298.9716478407726
 30
0.0
 10
516.5801323649398
 20
298.2145637211474
 30
0.0
 10
517.3191297108443
 20
297.4505837999903
 30
0.0
 10
518.0493903497119
 20
296.679854536046
 30
0.0
 10
518.8067158592239
 20
295.8805605559991
 30
0.0
 10
519.5546454138048
 20
295.0740076631984
 30
0.0
 10
520.2931669818859
 20
294.260301012325
 30
0.0
 10
521.0674512307548
 20
293.407190866053
 30
0.0
 10
521.8313948183009
 20
292.5462171002221
 30
0.0
 10
522.5849880810379
 20
291.6774405288186
 30
0.0
 10
523.3711273271028
 20
290.7711434683047
 30
0.0
 10
524.1460036690813
 20
289.8563546430202
 30
0.0
 10
524.9096004427954
 20
288.9330845373707
 30
0.0
 10
525.6949273075824
 20
287.9835404293016
 30
0.0
 10
526.4683243308843
 20
287.0250249208132
 30
0.0
 10
527.2297553000578
 20
286.0574962942225
 30
0.0
 10
527.9960453609533
 20
285.0837933582952
 30
0.0
 10
528.7502170108369
 20
284.1009610938291
 30
0.0
 10
529.4922025264614
 20
283.1089144086229
 30
0.0
 10
530.2158218737374
 20
282.1414235887892
 30
0.0
 10
530.9278515743979
 20
281.1651678642937
 30
0.0
 10
531.6281884839658
 20
280.1800417730574
 30
0.0
 10
532.3020851883358
 20
279.2321076898988
 30
0.0
 10
532.9651557268799
 20
278.2759595504793
 30
0.0
 10
533.6172628009529
 20
277.3114916827523
 30
0.0
 10
534.2463546565723
 20
276.3810633762407
 30
0.0
 10
534.8652434472374
 20
275.4428916682856
 30
0.0
 10
535.4737588231063
 20
274.4968804712815
 30
0.0
 10
536.0588424506459
 20
273.5872967782719
 30
0.0
 10
536.6343362410558
 20
272.6704652848703
 30
0.0
 10
537.2000427862848
 20
271.7463065659516
 30
0.0
 10
537.7406554189913
 20
270.8631421721759
 30
0.0
 10
538.2723299806064
 20
269.9732858500058
 30
0.0
 10
538.7948501347014
 20
269.0766791814801
 30
0.0
 10
539.2990476552784
 20
268.2115128225164
 30
0.0
 10
539.7947216866638
 20
267.3400609653066
 30
0.0
 10
540.2816335514783
 20
266.4622858260387
 30
0.0
 10
540.7676033321173
 20
265.5862090189107
 30
0.0
 10
541.2448450239568
 20
264.7038330856753
 30
0.0
 10
541.7130727106294
 20
263.8151397089127
 30
0.0
 10
542.1883159096878
 20
262.9131309311832
 30
0.0
 10
542.6542727420574
 20
262.0046137324347
 30
0.0
 10
543.1105950427109
 20
261.0895927581165
 30
0.0
 10
543.5769550768093
 20
260.1544440437691
 30
0.0
 10
544.0332518433534
 20
259.2125019657876
 30
0.0
 10
544.4790659209539
 20
258.2638005134671
 30
0.0
 10
544.9438534342333
 20
257.2747232029404
 30
0.0
 10
545.3972463741288
 20
256.2782985161106
 30
0.0
 10
545.8387234152314
 20
255.2746021675849
 30
0.0
 10
546.2958870823169
 20
254.2352423354476
 30
0.0
 10
546.7402719295608
 20
253.188084479295
 30
0.0
 10
547.1712645621553
 20
252.1332581742859
 30
0.0
 10
547.6039382543438
 20
251.0743175857685
 30
0.0
 10
548.0231138104664
 20
250.007648388957
 30
0.0
 10
548.4281548847994
 20
248.9334312980304
 30
0.0
 10
548.8241572336683
 20
247.8831859817948
 30
0.0
 10
549.2066478859189
 20
246.8257258751027
 30
0.0
 10
549.5750334602578
 20
245.7612686086033
 30
0.0
 10
549.9298000098559
 20
244.7361637784061
 30
0.0
 10
550.2714843307758
 20
243.7045697080378
 30
0.0
 10
550.5995705297969
 20
242.6667254861177
 30
0.0
 10
550.9136961343208
 20
241.6730432020537
 30
0.0
 10
551.2153555994029
 20
240.6736315085443
 30
0.0
 10
551.5041194666334
 20
239.6687400296311
 30
0.0
 10
551.7817057906393
 20
238.7027461387344
 30
0.0
 10
552.0473750617514
 20
237.7316885995431
 30
0.0
 10
552.3007756685373
 20
236.7558248162078
 30
0.0
 10
552.5465660842628
 20
235.8092684206276
 30
0.0
 10
552.7808133533754
 20
234.8581902184333
 30
0.0
 10
553.0032311462799
 20
233.9028579475022
 30
0.0
 10
553.2198934974979
 20
232.972246536831
 30
0.0
 10
553.4253304304384
 20
232.0375984473099
 30
0.0
 10
553.6193145201659
 20
231.0991916075193
 30
0.0
 10
553.8080866910128
 20
230.1859976619067
 30
0.0
 10
553.9860130014373
 20
229.2692443083759
 30
0.0
 10
554.1529225598593
 20
228.3492157585589
 30
0.0
 10
554.3147360721994
 20
227.4572773189257
 30
0.0
 10
554.4661950766258
 20
226.5622606709441
 30
0.0
 10
554.6071833091204
 20
225.6644505740838
 30
0.0
 10
554.7442998643594
 20
224.791295236492
 30
0.0
 10
554.8715126366453
 20
223.9154977927902
 30
0.0
 10
554.9887555748638
 20
223.0373444874103
 30
0.0
 10
555.1041314437098
 20
222.1731755905227
 30
0.0
 10
555.2098522571689
 20
221.3067252542708
 30
0.0
 10
555.3058984138823
 20
220.438290105378
 30
0.0
 10
555.4019760391228
 20
219.5695704226991
 30
0.0
 10
555.4883726042933
 20
218.6988646652545
 30
0.0
 10
555.5651149542364
 20
217.8264938775181
 30
0.0
 10
555.6420441344274
 20
216.9519992917625
 30
0.0
 10
555.7092720212559
 20
216.0758316170744
 30
0.0
 10
555.7668727008369
 20
215.1983376702252
 30
0.0
 10
555.8252729034139
 20
214.3086637179564
 30
0.0
 10
555.8737766778404
 20
213.4176264377828
 30
0.0
 10
555.9125105900243
 20
212.5256108233719
 30
0.0
 10
555.9531145541383
 20
211.5905291867843
 30
0.0
 10
555.9829826234044
 20
210.6543725831188
 30
0.0
 10
556.0023160811509
 20
209.7176098659092
 30
0.0
 10
556.0230420593954
 20
208.7133754474075
 30
0.0
 10
556.0316615337873
 20
207.7084446921571
 30
0.0
 10
556.0284813516889
 20
206.7034208746317
 30
0.0
 10
556.0249800929994
 20
205.5969281439424
 30
0.0
 10
556.0071767896134
 20
204.490323032331
 30
0.0
 10
555.9755437879824
 20
203.3844355708087
 30
0.0
 10
555.9392123712748
 20
202.1142918562135
 30
0.0
 10
555.8846386193294
 20
200.8450955973801
 30
0.0
 10
555.8126079181324
 20
199.5781259785191
 30
0.0
 10
555.7230614700443
 20
198.0030666313019
 30
0.0
 10
555.6065391476543
 20
196.4314518477434
 30
0.0
 10
555.4646226233529
 20
194.865738314249
 30
0.0
 10
555.3548806898139
 20
193.6549953695576
 30
0.0
 10
555.2299568897479
 20
192.4477819919948
 30
0.0
 10
555.0905713426658
 20
191.2452084229868
 30
0.0
 10
554.9698881970148
 20
190.2039931447657
 30
0.0
 10
554.8383645622189
 20
189.1662562427394
 30
0.0
 10
554.6964386173323
 20
188.132691665003
 30
0.0
 10
554.5650447789184
 20
187.1758263277548
 30
0.0
 10
554.4247356214684
 20
186.2225371782348
 30
0.0
 10
554.2758243932958
 20
185.2733482157826
 30
0.0
 10
554.1347959432574
 20
184.3744056054142
 30
0.0
 10
553.9860523103279
 20
183.4791406798002
 30
0.0
 10
553.8298228430849
 20
182.5879720410576
 30
0.0
 10
553.6802851108789
 20
181.7349745905589
 30
0.0
 10
553.5238892917583
 20
180.8857301133235
 30
0.0
 10
553.3607985156349
 20
180.0405793886859
 30
0.0
 10
553.2038474918594
 20
179.2272453999202
 30
0.0
 10
553.0406962909954
 20
178.4177028156557
 30
0.0
 10
552.8714515469749
 20
177.6122293090774
 30
0.0
 10
552.7075959680639
 20
176.8324040419358
 30
0.0
 10
552.5380288946063
 20
176.0563929094936
 30
0.0
 10
552.3628074933239
 20
175.2844218965282
 30
0.0
 10
552.1921897595694
 20
174.5327332112836
 30
0.0
 10
552.0162110579519
 20
173.7848752058422
 30
0.0
 10
551.8348837446888
 20
173.0410304424484
 30
0.0
 10
551.6570380312899
 20
172.3114679721091
 30
0.0
 10
551.4740472375609
 20
171.5857661638344
 30
0.0
 10
551.2858815725704
 20
170.864070860735
 30
0.0
 10
551.1008374116849
 20
170.1543478526377
 30
0.0
 10
550.9107887289468
 20
169.4484995640007
 30
0.0
 10
550.7156653959198
 20
168.7466382559311
 30
0.0
 10
550.5232859288178
 20
168.0546466712722
 30
0.0
 10
550.3259736128579
 20
167.3665307675431
 30
0.0
 10
550.1236190375979
 20
166.6823715807194
 30
0.0
 10
549.9189976176958
 20
165.9905482104496
 30
0.0
 10
549.7092205312769
 20
165.3027708254389
 30
0.0
 10
549.4941285344934
 20
164.6190943008007
 30
0.0
 10
549.2707639923124
 20
163.9091232362794
 30
0.0
 10
549.0416676492548
 20
163.2035744913774
 30
0.0
 10
548.8066117165233
 20
162.5024778878317
 30
0.0
 10
548.5601782586068
 20
161.7674457687176
 30
0.0
 10
548.3071940528373
 20
161.0373071628541
 30
0.0
 10
548.0473468384598
 20
160.3120630913503
 30
0.0
 10
547.7716701495178
 20
159.542638316926
 30
0.0
 10
547.4882684375139
 20
158.778722503568
 30
0.0
 10
547.1967190342564
 20
158.0202811097252
 30
0.0
 10
546.8830524601549
 20
157.204303745324
 30
0.0
 10
546.5599546281403
 20
156.394662836794
 30
0.0
 10
546.2268502177488
 20
155.5912761304032
 30
0.0
 10
545.8561221718938
 20
154.6971481199801
 30
0.0
 10
545.4729985324134
 20
153.8107668690148
 30
0.0
 10
545.0766382958659
 20
152.9319722968641
 30
0.0
 10
544.5892693465328
 20
151.8513967299504
 30
0.0
 10
544.0818843639594
 20
150.782291933317
 30
0.0
 10
543.5528802615358
 20
149.724289652112
 30
0.0
 10
543.0883684123744
 20
148.7952711552628
 30
0.0
 10
542.6071840552369
 20
147.8748106689142
 30
0.0
 10
542.1082658039019
 20
146.9626341437606
 30
0.0
 10
541.6834967243344
 20
146.1860251863693
 30
0.0
 10
541.2458725965548
 20
145.4154199592441
 30
0.0
 10
540.7947785332633
 20
144.6506492199942
 30
0.0
 10
540.3799514384893
 20
143.9473643626934
 30
0.0
 10
539.9537329052498
 20
143.2490131820348
 30
0.0
 10
539.5156881348664
 20
142.5554716208268
 30
0.0
 10
539.1024925517744
 20
141.9012729426158
 30
0.0
 10
538.6787741752094
 20
141.2513534594231
 30
0.0
 10
538.2442124539664
 20
140.6056200659269
 30
0.0
 10
537.8294544946523
 20
139.9893139085837
 30
0.0
 10
537.4048187908713
 20
139.3768208406252
 30
0.0
 10
536.9700713296334
 20
138.7680729447594
 30
0.0
 10
536.5536595939293
 20
138.1849993433605
 30
0.0
 10
536.1279708684353
 20
137.6053615308387
 30
0.0
 10
535.6928440008859
 20
137.0291141093199
 30
0.0
 10
535.2731374312248
 20
136.473288104082
 30
0.0
 10
534.8446496537804
 20
135.9206163362275
 30
0.0
 10
534.4072809254199
 20
135.3710734319235
 30
0.0
 10
533.9829603320704
 20
134.8379251839948
 30
0.0
 10
533.5502806387234
 20
134.3077218050556
 30
0.0
 10
533.1091959958469
 20
133.7804563113549
 30
0.0
 10
532.6766269474919
 20
133.2633702224952
 30
0.0
 10
532.2359742019609
 20
132.7491095892277
 30
0.0
 10
531.7872410019213
 20
132.2376850059848
 30
0.0
 10
531.3438559132294
 20
131.7323557052316
 30
0.0
 10
530.8925817819828
 20
131.2297952085211
 30
0.0
 10
530.4334688774918
 20
130.7300316093298
 30
0.0
 10
529.9794806043228
 20
130.2358463856741
 30
0.0
 10
529.5178275275989
 20
129.7443959260203
 30
0.0
 10
529.0486053425353
 20
129.255725650734
 30
0.0
 10
528.5836478046618
 20
128.7714967816349
 30
0.0
 10
528.1112580640569
 20
128.2899977437961
 30
0.0
 10
527.6315765210019
 20
127.8112914325771
 30
0.0
 10
527.1458191344948
 20
127.3265216305931
 30
0.0
 10
526.6525839752054
 20
126.8446156913318
 30
0.0
 10
526.1520673964809
 20
126.365659301706
 30
0.0
 10
525.6373558888729
 20
125.8731194421648
 30
0.0
 10
525.1149442506913
 20
125.3836988241745
 30
0.0
 10
524.5850980405284
 20
124.8975121791804
 30
0.0
 10
524.0377799943053
 20
124.3952933852463
 30
0.0
 10
523.4825291615418
 20
123.8965253805626
 30
0.0
 10
522.9196904143504
 20
123.401357050351
 30
0.0
 10
522.3352510902694
 20
122.8871851926747
 30
0.0
 10
521.7426304904814
 20
122.3768946258476
 30
0.0
 10
521.1422669232743
 20
121.8706755893442
 30
0.0
 10
520.5189218537714
 20
121.3450788380941
 30
0.0
 10
519.8872299254919
 20
120.8238712987163
 30
0.0
 10
519.2477329591578
 20
120.3072905332389
 30
0.0
 10
518.5802253806759
 20
119.7680830091891
 30
0.0
 10
517.9042143323219
 20
119.2339164363969
 30
0.0
 10
517.2203668931579
 20
118.705087485415
 30
0.0
 10
516.4988823002913
 20
118.1471531881655
 30
0.0
 10
515.7686753701366
 20
117.5951601835356
 30
0.0
 10
515.0305799263631
 20
117.0494862206091
 30
0.0
 10
514.2350418088714
 20
116.4613448888981
 30
0.0
 10
513.4303401455172
 20
115.8805443575522
 30
0.0
 10
512.6175687150923
 20
115.3075920157703
 30
0.0
 10
511.7006907427339
 20
114.6612511606089
 30
0.0
 10
510.773544591533
 20
114.0248975393366
 30
0.0
 10
509.8377470071769
 20
113.3993048983739
 30
0.0
 10
508.8157901808829
 20
112.7161137033999
 30
0.0
 10
507.7835187920034
 20
112.0457565362473
 30
0.0
 10
506.7430536510523
 20
111.3892917119092
 30
0.0
 10
505.8519070914983
 20
110.8270370561284
 30
0.0
 10
504.9547515295604
 20
110.2749746900458
 30
0.0
 10
504.0528960260459
 20
109.7337912179374
 30
0.0
 10
503.1651320147743
 20
109.2010637375805
 30
0.0
 10
502.2728154223836
 20
108.6788783447418
 30
0.0
 10
501.3771468151328
 20
108.1679014562416
 30
0.0
 10
500.5859489634469
 20
107.7165248944533
 30
0.0
 10
499.7921355142901
 20
107.273894976204
 30
0.0
 10
498.9964868831477
 20
106.8404741133932
 30
0.0
 10
498.2416884398822
 20
106.4293059422633
 30
0.0
 10
497.4852386697701
 20
106.0264256793753
 30
0.0
 10
496.7277561193306
 20
105.6322273026622
 30
0.0
 10
496.0013047718866
 20
105.2541777465941
 30
0.0
 10
495.273903726586
 20
104.8841134616846
 30
0.0
 10
494.5460502789366
 20
104.5223787934872
 30
0.0
 10
493.8439331363195
 20
104.1734347685053
 30
0.0
 10
493.1413951745794
 20
103.8322418255051
 30
0.0
 10
492.4388343319308
 20
103.4991042622123
 30
0.0
 10
491.7628064549522
 20
103.178547997213
 30
0.0
 10
491.0867575779229
 20
102.8654502408552
 30
0.0
 10
490.4109942246598
 20
102.5600762499682
 30
0.0
 10
489.7573215074124
 20
102.2646849041132
 30
0.0
 10
489.1039161129721
 20
101.9765206619246
 30
0.0
 10
488.4510070883758
 20
101.6958170020452
 30
0.0
 10
487.8164106836194
 20
101.4229864442632
 30
0.0
 10
487.1822833345806
 20
101.1572038844012
 30
0.0
 10
486.5487866586824
 20
100.8986765295722
 30
0.0
 10
485.9240952563766
 20
100.643742570221
 30
0.0
 10
485.3000172794955
 20
100.3958635877338
 30
0.0
 10
484.6766570685169
 20
100.155230364578
 30
0.0
 10
484.0453158347972
 20
99.91151625946583
 30
0.0
 10
483.4147107760808
 20
99.67523471602402
 30
0.0
 10
482.7848974341596
 20
99.44657473079005
 30
0.0
 10
482.145780259559
 20
99.21453689675343
 30
0.0
 10
481.5074782662484
 20
98.99034754746464
 30
0.0
 10
480.8699968613377
 20
98.77419351358523
 30
0.0
 10
480.2225249430514
 20
98.55465194596803
 30
0.0
 10
479.5758994244404
 20
98.34339962090964
 30
0.0
 10
478.9300736620174
 20
98.14061996471123
 30
0.0
 10
478.2693744462518
 20
97.93317026601744
 30
0.0
 10
477.6095121158625
 20
97.73458810816663
 30
0.0
 10
476.9503839486757
 20
97.54505534954085
 30
0.0
 10
476.2658625116676
 20
97.34822073868203
 30
0.0
 10
475.5821326010081
 20
97.16114640950124
 30
0.0
 10
474.8990262690779
 20
96.98401810846822
 30
0.0
 10
474.1587215971498
 20
96.79205837591104
 30
0.0
 10
473.4191491782234
 20
96.61178045726204
 30
0.0
 10
472.680037062305
 20
96.44339493789164
 30
0.0
 10
471.9108691289661
 20
96.26816206164884
 30
0.0
 10
471.1421989097558
 20
96.10580880255505
 30
0.0
 10
470.3736671040908
 20
95.95653959119183
 30
0.0
 10
469.5732616241031
 20
95.80107966892463
 30
0.0
 10
468.7730053800411
 20
95.65981202251604
 30
0.0
 10
467.9724498188963
 20
95.53292639434824
 30
0.0
 10
467.1550389492406
 20
95.40336925090824
 30
0.0
 10
466.3373148104745
 20
95.28880647180843
 30
0.0
 10
465.5187727456673
 20
95.18939195613804
 30
0.0
 10
464.711492972753
 20
95.09134528134223
 30
0.0
 10
463.9034163224163
 20
95.00803296406524
 30
0.0
 10
463.0940516270491
 20
94.93955354309023
 30
0.0
 10
462.3194062401806
 20
94.87401168308884
 30
0.0
 10
461.54357983196
 20
94.82205727822304
 30
0.0
 10
460.7661525110643
 20
94.78373247584624
 30
0.0
 10
460.0272173038007
 20
94.74730521759804
 30
0.0
 10
459.2868350347496
 20
94.72319111287584
 30
0.0
 10
458.5446681463391
 20
94.71138812711602
 30
0.0
 10
457.8354364962304
 20
94.70010892401864
 30
0.0
 10
457.1245745868675
 20
94.70007226702724
 30
0.0
 10
456.4118182906101
 20
94.71124301009422
 30
0.0
 10
455.7243965555228
 20
94.72201669476264
 30
0.0
 10
455.0352123482768
 20
94.74321511024162
 30
0.0
 10
454.3440640882994
 20
94.77477672552465
 30
0.0
 10
453.6739319681542
 20
94.80537862874803
 30
0.0
 10
453.0019531616304
 20
94.84572299151264
 30
0.0
 10
452.3279821755658
 20
94.89572634984863
 30
0.0
 10
451.6722087628585
 20
94.94437959104243
 30
0.0
 10
451.0145490836339
 20
95.00217720887643
 30
0.0
 10
450.3549093534592
 20
95.06901703975744
 30
0.0
 10
449.7128001157297
 20
95.13408054471904
 30
0.0
 10
449.0688145093106
 20
95.20771197938004
 30
0.0
 10
448.422907401792
 20
95.28979373265463
 30
0.0
 10
447.7946330621647
 20
95.36963471711485
 30
0.0
 10
447.1645405189118
 20
95.45747090157123
 30
0.0
 10
446.53263030494
 20
95.55317239387824
 30
0.0
 10
445.9121654013634
 20
95.64714051764564
 30
0.0
 10
445.2899478559567
 20
95.74869160602263
 30
0.0
 10
444.666022374567
 20
95.85768181812624
 30
0.0
 10
444.0518457288239
 20
95.96496905816603
 30
0.0
 10
443.4360138989874
 20
96.07946476448082
 30
0.0
 10
442.8186158831887
 20
96.20101136035463
 30
0.0
 10
442.2108647113868
 20
96.32065879066782
 30
0.0
 10
441.601595740436
 20
96.44713848775322
 30
0.0
 10
440.9909419148347
 20
96.58028028439404
 30
0.0
 10
440.3761588935851
 20
96.71432237593864
 30
0.0
 10
439.759972255551
 20
96.85511692994685
 30
0.0
 10
439.1425689056564
 20
97.00246999445923
 30
0.0
 10
438.5133146848989
 20
97.15265145654882
 30
0.0
 10
437.8827966857049
 20
97.30964557466724
 30
0.0
 10
437.2512645567647
 20
97.47322673691484
 30
0.0
 10
436.6063384143704
 20
97.64027725279882
 30
0.0
 10
435.9603547692631
 20
97.81419712786924
 30
0.0
 10
435.3136315397613
 20
97.99472591679164
 30
0.0
 10
434.6505231545841
 20
98.17982852056323
 30
0.0
 10
433.9866373333552
 20
98.37187910629562
 30
0.0
 10
433.3223694448463
 20
98.57057677034864
 30
0.0
 10
432.6334942253952
 20
98.77663504788524
 30
0.0
 10
431.9442082585242
 20
98.98984192595903
 30
0.0
 10
431.2550069488033
 20
99.20984125070802
 30
0.0
 10
430.5326800298681
 20
99.44041457111885
 30
0.0
 10
429.8104463389263
 20
99.67844886696523
 30
0.0
 10
429.0889318735698
 20
99.92351331817022
 30
0.0
 10
428.322045831642
 20
100.18398835509
 30
0.0
 10
427.5559726306877
 20
100.452405372043
 30
0.0
 10
426.7915212437399
 20
100.7282259453232
 30
0.0
 10
425.960550127304
 20
101.0280474037284
 30
0.0
 10
425.1314958374732
 20
101.3366167143982
 30
0.0
 10
424.3054570858902
 20
101.6532208862738
 30
0.0
 10
423.3667736101082
 20
102.012999533382
 30
0.0
 10
422.4319849110317
 20
102.3831534569752
 30
0.0
 10
421.5027682545792
 20
102.7626144813084
 30
0.0
 10
420.0520579698177
 20
103.3550360730259
 30
0.0
 10
418.6149332218279
 20
103.9701396436588
 30
0.0
 10
417.1979129355898
 20
104.6038288745092
 30
0.0
 10
416.2720642837012
 20
105.0178669273142
 30
0.0
 10
415.3548019095616
 20
105.4398383552606
 30
0.0
 10
414.4479196797365
 20
105.8686172981443
 30
0.0
 10
413.6805882643757
 20
106.2314158427614
 30
0.0
 10
412.9206887166836
 20
106.5990879032297
 30
0.0
 10
412.1692693429173
 20
106.9709699754222
 30
0.0
 10
411.4774388971512
 20
107.3133611204467
 30
0.0
 10
410.7927973470671
 20
107.6593209076741
 30
0.0
 10
410.1161215054391
 20
108.008350243296
 30
0.0
 10
409.4732328905891
 20
108.339952130516
 30
0.0
 10
408.837534613025
 20
108.6743246006367
 30
0.0
 10
408.2096493568506
 20
109.0110588515029
 30
0.0
 10
407.6059165651322
 20
109.3348401592235
 30
0.0
 10
407.0094074673764
 20
109.6608049752085
 30
0.0
 10
406.4206313081288
 20
109.9886091991566
 30
0.0
 10
405.8507838533138
 20
110.3058747673364
 30
0.0
 10
405.2881802723374
 20
110.6248633146739
 30
0.0
 10
404.733237380896
 20
110.9452822657905
 30
0.0
 10
404.194730070158
 20
111.256211462896
 30
0.0
 10
403.6634365265346
 20
111.5684875440665
 30
0.0
 10
403.1396926164398
 20
111.8818624864555
 30
0.0
 10
402.6332015418553
 20
112.1849144327582
 30
0.0
 10
402.1337710672317
 20
112.4889939772889
 30
0.0
 10
401.6416601573929
 20
112.7938959017295
 30
0.0
 10
401.1637274072121
 20
113.0900133264196
 30
0.0
 10
400.6926986744792
 20
113.3869063742597
 30
0.0
 10
400.228765929594
 20
113.6844062052426
 30
0.0
 10
399.7764933858829
 20
113.9744288578699
 30
0.0
 10
399.3309647454877
 20
114.2650281296499
 30
0.0
 10
398.8923122459171
 20
114.5560667873231
 30
0.0
 10
398.4628898948089
 20
114.8409813945891
 30
0.0
 10
398.0400574745417
 20
115.1263170454327
 30
0.0
 10
397.6238929263627
 20
115.4119643066342
 30
0.0
 10
397.2075945777732
 20
115.6977034058382
 30
0.0
 10
396.7979684105802
 20
115.9837543032792
 30
0.0
 10
396.3950439190755
 20
116.2700277520827
 30
0.0
 10
395.9891004456209
 20
116.5584461545756
 30
0.0
 10
395.5899594103441
 20
116.8470904650108
 30
0.0
 10
395.1976021982965
 20
117.1358899153315
 30
0.0
 10
394.802191665623
 20
117.4269368006206
 30
0.0
 10
394.4136709079309
 20
117.7181412590998
 30
0.0
 10
394.0319721427922
 20
118.0094514626954
 30
0.0
 10
393.6471837469527
 20
118.3031196538736
 30
0.0
 10
393.2693281865782
 20
118.5968953185521
 30
0.0
 10
392.8982873419048
 20
118.8907460775128
 30
0.0
 10
392.5221486400743
 20
119.1886341526242
 30
0.0
 10
392.1530131498887
 20
119.4865994088509
 30
0.0
 10
391.7907084643124
 20
119.7846292729927
 30
0.0
 10
391.4077201422973
 20
120.0996733839915
 30
0.0
 10
391.032364854201
 20
120.4147896442606
 30
0.0
 10
390.6643839653646
 20
120.7299871106503
 30
0.0
 10
390.2849014917522
 20
121.055036366877
 30
0.0
 10
389.9132613299086
 20
121.3801720678403
 30
0.0
 10
389.5491251482874
 20
121.7054284559282
 30
0.0
 10
389.1674794785388
 20
122.0463247972892
 30
0.0
 10
388.7940765328337
 20
122.3873537721291
 30
0.0
 10
388.4284716685784
 20
122.7285800760276
 30
0.0
 10
388.0432044413395
 20
123.0881576550396
 30
0.0
 10
387.6665962386263
 20
123.4479544479394
 30
0.0
 10
387.2980720911729
 20
123.8080723784678
 30
0.0
 10
386.9068701468194
 20
124.1903508142035
 30
0.0
 10
386.5247774402162
 20
124.5729911864783
 30
0.0
 10
386.1510517906439
 20
124.9561431467062
 30
0.0
 10
385.7448180624067
 20
125.3726231219577
 30
0.0
 10
385.3484697329927
 20
125.7897076202159
 30
0.0
 10
384.9609981920618
 20
126.2076198800662
 30
0.0
 10
384.5059251676652
 20
126.6984445624817
 30
0.0
 10
384.0630954510186
 20
127.1904109663286
 30
0.0
 10
383.6308134626271
 20
127.6839229514531
 30
0.0
 10
383.1830782957718
 20
128.195076959574
 30
0.0
 10
382.7466539670342
 20
128.7078905353545
 30
0.0
 10
382.3196418720661
 20
129.2228417080401
 30
0.0
 10
381.9509870155216
 20
129.6674175243483
 30
0.0
 10
381.5893454781144
 20
130.113587743442
 30
0.0
 10
381.2335280747426
 20
130.5616626345605
 30
0.0
 10
380.8999492590816
 20
130.9817328449842
 30
0.0
 10
380.5714881361598
 20
131.4034776365247
 30
0.0
 10
380.2472173092743
 20
131.8271442121783
 30
0.0
 10
379.9432134090694
 20
132.2243316268534
 30
0.0
 10
379.6428921287208
 20
132.6232083045255
 30
0.0
 10
379.3455455585435
 20
133.0239655557004
 30
0.0
 10
379.0667831490023
 20
133.399675478677
 30
0.0
 10
378.7906351835522
 20
133.7770383429699
 30
0.0
 10
378.51657136182
 20
134.1561986209472
 30
0.0
 10
378.2586840187134
 20
134.5129791550618
 30
0.0
 10
378.0026420907159
 20
134.8713512221107
 30
0.0
 10
377.7480522228417
 20
135.2314222525182
 30
0.0
 10
377.489493999782
 20
135.5971057990586
 30
0.0
 10
377.2324334315392
 20
135.9645417010927
 30
0.0
 10
376.9765118709431
 20
136.3338277184171
 30
0.0
 10
376.7145584522134
 20
136.7118174997466
 30
0.0
 10
376.4537985007941
 20
137.091745592111
 30
0.0
 10
376.1939014744069
 20
137.4737018998501
 30
0.0
 10
375.9270706505292
 20
137.8658484268652
 30
0.0
 10
375.6611495655453
 20
138.2601327844659
 30
0.0
 10
375.395834633997
 20
138.6566374170677
 30
0.0
 10
375.1232868782796
 20
139.0639512727805
 30
0.0
 10
374.8513789728729
 20
139.4736080463628
 30
0.0
 10
374.5798354271998
 20
139.885682525609
 30
0.0
 10
374.3024020589137
 20
140.3066949657266
 30
0.0
 10
374.0253491580885
 20
140.730231096426
 30
0.0
 10
373.7484355100344
 20
141.1563564208431
 30
0.0
 10
373.4517139201507
 20
141.6129629645766
 30
0.0
 10
373.1551519380953
 20
142.0725424455968
 30
0.0
 10
372.8585143318115
 20
142.5351587227244
 30
0.0
 10
372.5626576751413
 20
142.996557082787
 30
0.0
 10
372.2667262617357
 20
143.4609761464986
 30
0.0
 10
371.9705432566976
 20
143.9284638372618
 30
0.0
 10
371.6628841050883
 20
144.4140651846772
 30
0.0
 10
371.354953740656
 20
144.9029774947575
 30
0.0
 10
371.046610246975
 20
145.3952390795017
 30
0.0
 10
371.0401785430286
 20
145.4055071112331
 30
0.0
 10
371.033746659473
 20
145.4157766001715
 30
0.0
 10
371.0273145954607
 20
145.4260475465447
 30
0.0
  0
ARC
  5
C4
330
1F
100
AcDbEntity
  8
VISIBLE
100
AcDbCircle
 10
358.4759019827793
 20
137.5658706344178
 30
0.0
 40
14.8094679096624
100
AcDbArc
 50
32.05637987851515
 51
64.43062150240034
  0
LINE
  5
C5
330
1F
100
AcDbEntity
  8
VISIBLE
100
AcDbLine
 10
364.8677232208414
 20
150.9249484853767
 30
0.0
 11
371.7616842365048
 21
209.3963814408141
 31
0.0
  0
ENDSEC
  0
SECTION
  2
OBJECTS
  0
DICTIONARY
  5
C
330
0
100
AcDbDictionary
  3
ACAD_GROUP
350
D
  3
ACAD_LAYOUT
350
1A
  3
ACAD_MATERIAL
350
43
  3
ACAD_MLEADERSTYLE
350
12E
  3
ACAD_MLINESTYLE
350
17
  3
ACAD_PLOTSETTINGS
350
19
  3
ACAD_SCALELIST
350
47
  3
ACAD_VISUALSTYLE
350
2A
  3
ACDBHEADERROUNDTRIPXREC
350
10D
  3
ACDBVARIABLEDICTIONARY
350
6C
  3
ONSHAPE_DATA
350
C6
  0
DICTIONARY
  5
73
330
72
100
AcDbDictionary
280
     1
  3
ONSHAPE_VIEW_ID
360
74
  0
DICTIONARY
  5
D
102
{ACAD_REACTORS
330
C
102
}
330
C
100
AcDbDictionary
  0
DICTIONARY
  5
1A
102
{ACAD_REACTORS
330
C
102
}
330
C
100
AcDbDictionary
  0
DICTIONARY
  5
43
102
{ACAD_REACTORS
330
C
102
}
330
C
100
AcDbDictionary
  3
BYBLOCK
350
45
  3
BYLAYER
350
44
  3
GLOBAL
350
46
  0
DICTIONARY
  5
12E
102
{ACAD_REACTORS
330
C
102
}
330
C
100
AcDbDictionary
  0
DICTIONARY
  5
17
102
{ACAD_REACTORS
330
C
102
}
330
C
100
AcDbDictionary
  3
STANDARD
350
18
  0
DICTIONARY
  5
19
102
{ACAD_REACTORS
330
C
102
}
330
C
100
AcDbDictionary
  0
DICTIONARY
  5
47
102
{ACAD_REACTORS
330
C
102
}
330
C
100
AcDbDictionary
  3
A0
350
48
  3
A1
350
49
  3
A2
350
4A
  3
A3
350
4B
  3
A4
350
4C
  3
A5
350
4D
  3
A6
350
4E
  3
A7
350
4F
  3
A8
350
50
  3
A9
350
51
  3
B0
350
52
  3
B1
350
53
  3
B2
350
54
  3
B3
350
55
  3
B4
350
56
  3
B5
350
57
  3
B6
350
58
  3
B7
350
59
  3
B8
350
5A
  3
B9
350
5B
  3
C0
350
5C
  3
C1
350
5D
  3
C2
350
5E
  3
C3
350
5F
  3
C4
350
60
  3
C5
350
61
  3
C6
350
62
  3
C7
350
63
  3
C8
350
64
  3
C9
350
65
  3
D0
350
66
  3
D1
350
67
  3
D2
350
68
  0
DICTIONARY
  5
2A
102
{ACAD_REACTORS
330
C
102
}
330
C
100
AcDbDictionary
  3
2DWIREFRAME
350
2F
  3
BASIC
350
32
  3
BRIGHTEN
350
36
  3
COLORCHANGE
350
3A
  3
CONCEPTUAL
350
34
  3
DIM
350
35
  3
EDGECOLOROFF
350
3D
  3
FACEPATTERN
350
39
  3
FLAT
350
2B
  3
FLATWITHEDGES
350
2C
  3
GOURAUD
350
2D
  3
GOURAUDWITHEDGES
350
2E
  3
HIDDEN
350
31
  3
JITTEROFF
350
3B
  3
LINEPATTERN
350
38
  3
OVERHANGOFF
350
3C
  3
REALISTIC
350
33
  3
SHADED
350
42
  3
SHADED_WITH_EDGES
350
41
  3
SHADES_OF_GRAY
350
3E
  3
SKETCHY
350
3F
  3
THICKEN
350
37
  3
WIREFRAME
350
30
  3
X-RAY
350
40
  0
DICTIONARY
  5
10D
102
{ACAD_REACTORS
330
C
102
}
330
C
100
AcDbDictionary
  3
CEPSNTYPE
350
116
  3
DIMSTYLEDATA
350
12C
  3
FINGERPRINTGUID
350
117
  3
HYPERLINKBASE
350
110
  3
INSUNITS
350
115
  3
LAYOUTDICT
350
112
  3
LWETCUNION
350
114
  3
PLOTSETDICT
350
113
  3
PSVPSCALE
350
119
  3
PUCSBASE
350
11C
  3
PUCSORGBACK
350
122
  3
PUCSORGBOTTOM
350
11E
  3
PUCSORGFRONT
350
121
  3
PUCSORGLEFT
350
11F
  3
PUCSORGRIGHT
350
120
  3
PUCSORGTOP
350
11D
  3
PUCSORTHOREF
350
11A
  3
PUCSORTHOVIEW
350
11B
  3
STYLESHEET
350
111
  3
TSTACKALIGN
350
10E
  3
TSTACKSIZE
350
10F
  3
UCSBASE
350
125
  3
UCSORGBACK
350
12B
  3
UCSORGBOTTOM
350
127
  3
UCSORGFRONT
350
12A
  3
UCSORGLEFT
350
128
  3
UCSORGRIGHT
350
129
  3
UCSORGTOP
350
126
  3
UCSORTHOREF
350
123
  3
UCSORTHOVIEW
350
124
  3
VERSIONGUID
350
118
  0
DICTIONARY
  5
6C
102
{ACAD_REACTORS
330
C
102
}
330
C
100
AcDbDictionary
  3
CANNOSCALE
350
135
  3
CTABLESTYLE
350
12D
  3
DIMASSOC
350
133
  3
HIDETEXT
350
134
  3
MSLTSCALE
350
136
  3
OLEFRAME
350
6D
  3
PSOLHEIGHT
350
130
  3
PSOLWIDTH
350
12F
  0
DICTIONARY
  5
C6
102
{ACAD_REACTORS
330
C
102
}
330
C
100
AcDbDictionary
280
     1
  3
DIM_UNITS
360
C7
  3
ONSHAPE_ANG_TOL_PRECISION
360
CA
  3
ONSHAPE_VSHARP_EXTENSION
360
C9
  3
ONSHAPE_WELD_STANDARD
360
C8
  0
XRECORD
  5
74
102
{ACAD_REACTORS
330
73
102
}
330
73
100
AcDbXrecord
330
0
  0
MATERIAL
  5
45
102
{ACAD_REACTORS
330
43
102
}
102
{ACAD_XDICTIONARY
360
139
102
}
330
43
100
AcDbMaterial
  1
BYBLOCK
  0
MATERIAL
  5
44
102
{ACAD_REACTORS
330
43
102
}
102
{ACAD_XDICTIONARY
360
137
102
}
330
43
100
AcDbMaterial
  1
BYLAYER
  0
MATERIAL
  5
46
102
{ACAD_REACTORS
330
43
102
}
102
{ACAD_XDICTIONARY
360
13B
102
}
330
43
100
AcDbMaterial
  1
GLOBAL
  0
MLINESTYLE
  5
18
102
{ACAD_REACTORS
330
17
102
}
330
17
100
AcDbMlineStyle
  2
Standard
 70
     0
  3

 62
   256
 51
90.0
 52
90.0
 71
     2
 49
0.5
 62
   256
  6
BYLAYER
 49
-0.5
 62
   256
  6
BYLAYER
  0
ACAD_PROXY_OBJECT
  5
48
102
{ACAD_REACTORS
330
47
102
}
330
47
100
AcDbProxyObject
 90
      499
 91
      503
 93
       41
310
903313A31580
  0
ACAD_PROXY_OBJECT
  5
49
102
{ACAD_REACTORS
330
47
102
}
330
47
100
AcDbProxyObject
 90
      499
 91
      503
 93
      105
310
903313A324000000000000004000
  0
ACAD_PROXY_OBJECT
  5
4A
102
{ACAD_REACTORS
330
47
102
}
330
47
100
AcDbProxyObject
 90
      499
 91
      503
 93
      105
310
903313A344000000000000104000
  0
ACAD_PROXY_OBJECT
  5
4B
102
{ACAD_REACTORS
330
47
102
}
330
47
100
AcDbProxyObject
 90
      499
 91
      503
 93
      105
310
903313A354000000000000144000
  0
ACAD_PROXY_OBJECT
  5
4C
102
{ACAD_REACTORS
330
47
102
}
330
47
100
AcDbProxyObject
 90
      499
 91
      503
 93
      105
310
903313A384000000000000204000
  0
ACAD_PROXY_OBJECT
  5
4D
102
{ACAD_REACTORS
330
47
102
}
330
47
100
AcDbProxyObject
 90
      499
 91
      503
 93
      113
310
904313A31304000000000000244000
  0
ACAD_PROXY_OBJECT
  5
4E
102
{ACAD_REACTORS
330
47
102
}
330
47
100
AcDbProxyObject
 90
      499
 91
      503
 93
      113
310
904313A31364000000000000304000
  0
ACAD_PROXY_OBJECT
  5
4F
102
{ACAD_REACTORS
330
47
102
}
330
47
100
AcDbProxyObject
 90
      499
 91
      503
 93
      113
310
904313A32304000000000000344000
  0
ACAD_PROXY_OBJECT
  5
50
102
{ACAD_REACTORS
330
47
102
}
330
47
100
AcDbProxyObject
 90
      499
 91
      503
 93
      113
310
904313A333040000000000003E4000
  0
ACAD_PROXY_OBJECT
  5
51
102
{ACAD_REACTORS
330
47
102
}
330
47
100
AcDbProxyObject
 90
      499
 91
      503
 93
      113
310
904313A34304000000000000444000
  0
ACAD_PROXY_OBJECT
  5
52
102
{ACAD_REACTORS
330
47
102
}
330
47
100
AcDbProxyObject
 90
      499
 91
      503
 93
      113
310
904313A35304000000000000494000
  0
ACAD_PROXY_OBJECT
  5
53
102
{ACAD_REACTORS
330
47
102
}
330
47
100
AcDbProxyObject
 90
      499
 91
      503
 93
      121
310
905313A3130304000000000000594000
  0
ACAD_PROXY_OBJECT
  5
54
102
{ACAD_REACTORS
330
47
102
}
330
47
100
AcDbProxyObject
 90
      499
 91
      503
 93
      105
310
903323A310000000000000010100
  0
ACAD_PROXY_OBJECT
  5
55
102
{ACAD_REACTORS
330
47
102
}
330
47
100
AcDbProxyObject
 90
      499
 91
      503
 93
      105
310
903343A310000000000000410100
  0
ACAD_PROXY_OBJECT
  5
56
102
{ACAD_REACTORS
330
47
102
}
330
47
100
AcDbProxyObject
 90
      499
 91
      503
 93
      105
310
903383A310000000000000810100
  0
ACAD_PROXY_OBJECT
  5
57
102
{ACAD_REACTORS
330
47
102
}
330
47
100
AcDbProxyObject
 90
      499
 91
      503
 93
      113
310
90431303A310000000000000910100
  0
ACAD_PROXY_OBJECT
  5
58
102
{ACAD_REACTORS
330
47
102
}
330
47
100
AcDbProxyObject
 90
      499
 91
      503
 93
      121
310
9053130303A310000000000001650100
  0
ACAD_PROXY_OBJECT
  5
59
102
{ACAD_REACTORS
330
47
102
}
330
47
100
AcDbProxyObject
 90
      499
 91
      503
 93
      257
310
90E312F31323822203D2031272D3022000000000000200FC000000000000284000
  0
ACAD_PROXY_OBJECT
  5
5A
102
{ACAD_REACTORS
330
47
102
}
330
47
100
AcDbProxyObject
 90
      499
 91
      503
 93
      249
310
90D312F363422203D2031272D3022000000000000240FC000000000000284000
  0
ACAD_PROXY_OBJECT
  5
5B
102
{ACAD_REACTORS
330
47
102
}
330
47
100
AcDbProxyObject
 90
      499
 91
      503
 93
      249
310
90D312F333222203D2031272D3022000000000000280FC000000000000284000
  0
ACAD_PROXY_OBJECT
  5
5C
102
{ACAD_REACTORS
330
47
102
}
330
47
100
AcDbProxyObject
 90
      499
 91
      503
 93
      249
310
90D312F313622203D2031272D30220000000000002C0FC000000000000284000
  0
ACAD_PROXY_OBJECT
  5
5D
102
{ACAD_REACTORS
330
47
102
}
330
47
100
AcDbProxyObject
 90
      499
 91
      503
 93
      249
310
90D332F333222203D2031272D30220000000000002E0FC000000000000284000
  0
ACAD_PROXY_OBJECT
  5
5E
102
{ACAD_REACTORS
330
47
102
}
330
47
100
AcDbProxyObject
 90
      499
 91
      503
 93
      241
310
90C312F3822203D2031272D3022000000000000300FC000000000000284000
  0
ACAD_PROXY_OBJECT
  5
5F
102
{ACAD_REACTORS
330
47
102
}
330
47
100
AcDbProxyObject
 90
      499
 91
      503
 93
      249
310
90D332F313622203D2031272D3022000000000000320FC000000000000284000
  0
ACAD_PROXY_OBJECT
  5
60
102
{ACAD_REACTORS
330
47
102
}
330
47
100
AcDbProxyObject
 90
      499
 91
      503
 93
      241
310
90C312F3422203D2031272D3022000000000000340FC000000000000284000
  0
ACAD_PROXY_OBJECT
  5
61
102
{ACAD_REACTORS
330
47
102
}
330
47
100
AcDbProxyObject
 90
      499
 91
      503
 93
      241
310
90C332F3822203D2031272D3022000000000000360FC000000000000284000
  0
ACAD_PROXY_OBJECT
  5
62
102
{ACAD_REACTORS
330
47
102
}
330
47
100
AcDbProxyObject
 90
      499
 91
      503
 93
      241
310
90C312F3222203D2031272D3022000000000000380FC000000000000284000
  0
ACAD_PROXY_OBJECT
  5
63
102
{ACAD_REACTORS
330
47
102
}
330
47
100
AcDbProxyObject
 90
      499
 91
      503
 93
      241
310
90C332F3422203D2031272D30220000000000003A0FC000000000000284000
  0
ACAD_PROXY_OBJECT
  5
64
102
{ACAD_REACTORS
330
47
102
}
330
47
100
AcDbProxyObject
 90
      499
 91
      503
 93
      161
310
90A3122203D2031272D30224000000000000284000
  0
ACAD_PROXY_OBJECT
  5
65
102
{ACAD_REACTORS
330
47
102
}
330
47
100
AcDbProxyObject
 90
      499
 91
      503
 93
      257
310
90E312D312F3222203D2031272D30220000000000003E0FC000000000000284000
  0
ACAD_PROXY_OBJECT
  5
66
102
{ACAD_REACTORS
330
47
102
}
330
47
100
AcDbProxyObject
 90
      499
 91
      503
 93
      225
310
90A3322203D2031272D302200000000000002100000000000000284000
  0
ACAD_PROXY_OBJECT
  5
67
102
{ACAD_REACTORS
330
47
102
}
330
47
100
AcDbProxyObject
 90
      499
 91
      503
 93
      225
310
90A3622203D2031272D302200000000000006100000000000000284000
  0
ACAD_PROXY_OBJECT
  5
68
102
{ACAD_REACTORS
330
47
102
}
330
47
100
AcDbProxyObject
 90
      499
 91
      503
 93
      249
310
90D31272D3022203D2031272D30220000000000000A100000000000000284000
  0
ACAD_PROXY_OBJECT
  5
2F
102
{ACAD_REACTORS
330
2A
102
}
330
2A
100
AcDbProxyObject
 90
      499
 91
      501
 93
      436
310
42CC9915DA5C99599C985B595049028333333333333E33F0000000000000F90107901411070040501600405405064090741402480A0340
1001
ACAD
1000
AcDbSavedByObjectVersion
1070
     0
  0
ACAD_PROXY_OBJECT
  5
32
102
{ACAD_REACTORS
330
2A
102
}
330
2A
100
AcDbProxyObject
 90
      499
 91
      501
 93
      388
310
4150985CDA58D07406404333333333333E33F0000000000000F90107A41107004050150841D405064090741402480A0350
1001
ACAD
1000
AcDbSavedByObjectVersion
1070
     0
  0
ACAD_PROXY_OBJECT
  5
36
102
{ACAD_REACTORS
330
2A
102
}
330
2A
100
AcDbProxyObject
 90
      499
 91
      501
 93
      428
310
42109C9A59DA1D195B90C409028333333333333E33F0000000000000F9010790141107004050150841D405064090741402480A029950
1001
ACAD
1000
AcDbSavedByObjectVersion
1070
     0
  0
ACAD_PROXY_OBJECT
  5
3A
102
{ACAD_REACTORS
330
2A
102
}
330
2A
100
AcDbProxyObject
 90
      499
 91
      501
 93
      452
310
42D0DBDB1BDC90DA185B99D95104090240C333333333333E33F0000000000000F90108901411070040501508421405064090741402480A0350
1001
ACAD
1000
AcDbSavedByObjectVersion
1070
     0
  0
ACAD_PROXY_OBJECT
  5
34
102
{ACAD_REACTORS
330
2A
102
}
330
2A
100
AcDbProxyObject
 90
      499
 91
      501
 93
      500
310
4290DBDB98D95C1D1D585B10940D028333333333333E33F0000000000000F90107902409070040501000000000018199010841D405064090740C02480A0340
1001
ACAD
1000
AcDbSavedByObjectVersion
1070
     0
  0
ACAD_PROXY_OBJECT
  5
35
102
{ACAD_REACTORS
330
2A
102
}
330
2A
100
AcDbProxyObject
 90
      499
 91
      501
 93
      412
310
40D11A5B50B409028333333333333E33F0000000000000F9010790141107004050150841D405064090741402480A02677FFFFFD0
1001
ACAD
1000
AcDbSavedByObjectVersion
1070
     0
  0
ACAD_PROXY_OBJECT
  5
3D
102
{ACAD_REACTORS
330
2A
102
}
330
2A
100
AcDbProxyObject
 90
      499
 91
      501
 93
      452
310
43115919D950DBDB1BDC93D999916409028333333333333E33F0000000000000F9010790141107004050150841D405064090741402480A0350
1001
ACAD
1000
AcDbSavedByObjectVersion
1070
     0
  0
ACAD_PROXY_OBJECT
  5
39
102
{ACAD_REACTORS
330
2A
102
}
330
2A
100
AcDbProxyObject
 90
      499
 91
      501
 93
      444
310
42D19858D95C185D1D195C9B90F409028333333333333E33F0000000000000F9010790141107004050150841D405064090741402480A0350
1001
ACAD
1000
AcDbSavedByObjectVersion
1070
     0
  0
ACAD_PROXY_OBJECT
  5
2B
102
{ACAD_REACTORS
330
2A
102
}
330
2A
100
AcDbProxyObject
 90
      499
 91
      501
 93
      380
310
41119B185D240901404333333333333E33F0000000000000F9010740A907004050150841D405064090741402480A1B50
1001
ACAD
1000
AcDbSavedByObjectVersion
1070
     0
  0
ACAD_PROXY_OBJECT
  5
2C
102
{ACAD_REACTORS
330
2A
102
}
330
2A
100
AcDbProxyObject
 90
      499
 91
      501
 93
      468
310
43519B185D15DA5D1A115919D95CD0140901404333333333333E33F0000000000000F90107409019070040501600405405064090741402480A1B50
1001
ACAD
1000
AcDbSavedByObjectVersion
1070
     0
  0
ACAD_PROXY_OBJECT
  5
2D
102
{ACAD_REACTORS
330
2A
102
}
330
2A
100
AcDbProxyObject
 90
      499
 91
      501
 93
      404
310
41D1DBDD5C985D5910240902404333333333333E33F0000000000000F9010740A9070040501641D405064090741402480A1B50
1001
ACAD
1000
AcDbSavedByObjectVersion
1070
     0
  0
ACAD_PROXY_OBJECT
  5
2E
102
{ACAD_REACTORS
330
2A
102
}
330
2A
100
AcDbProxyObject
 90
      499
 91
      501
 93
      492
310
4411DBDD5C985D5915DA5D1A115919D95CD0340902404333333333333E33F0000000000000F90107409019070040501600405405064090741402480A1B50
1001
ACAD
1000
AcDbSavedByObjectVersion
1070
     0
  0
ACAD_PROXY_OBJECT
  5
31
102
{ACAD_REACTORS
330
2A
102
}
330
2A
100
AcDbProxyObject
 90
      499
 91
      501
 93
      476
310
41921A5919195B90640502408333333333333E33F0000000000000F901079024090700405020000000000001110200405405064090740C02480A0340
1001
ACAD
1000
AcDbSavedByObjectVersion
1070
     0
  0
ACAD_PROXY_OBJECT
  5
3B
102
{ACAD_REACTORS
330
2A
102
}
330
2A
100
AcDbProxyObject
 90
      499
 91
      501
 93
      428
310
42529A5D1D195C93D999914409028333333333333E33F0000000000000F9010790141107004050150A41D405064090741402480A0350
1001
ACAD
1000
AcDbSavedByObjectVersion
1070
     0
  0
ACAD_PROXY_OBJECT
  5
38
102
{ACAD_REACTORS
330
2A
102
}
330
2A
100
AcDbProxyObject
 90
      499
 91
      501
 93
      444
310
42D31A5B995C185D1D195C9B90E409028333333333333E33F0000000000000F9010790141107004050750841D405064090741402483A0350
1001
ACAD
1000
AcDbSavedByObjectVersion
1070
     0
  0
ACAD_PROXY_OBJECT
  5
3C
102
{ACAD_REACTORS
330
2A
102
}
330
2A
100
AcDbProxyObject
 90
      499
 91
      501
 93
      444
310
42D3DD995C9A185B99D3D999915409028333333333333E33F0000000000000F9010790141107004050150941D405064090741402480A0350
1001
ACAD
1000
AcDbSavedByObjectVersion
1070
     0
  0
ACAD_PROXY_OBJECT
  5
33
102
{ACAD_REACTORS
330
2A
102
}
330
2A
100
AcDbProxyObject
 90
      499
 91
      501
 93
      428
310
425499585B1A5CDD1A58D08409038333333333333E33F0000000000000F9010740A907004050150800405405064090740C02480A1B40
1001
ACAD
1000
AcDbSavedByObjectVersion
1070
     0
  0
ACAD_PROXY_OBJECT
  5
42
102
{ACAD_REACTORS
330
2A
102
}
330
2A
100
AcDbProxyObject
 90
      499
 91
      501
 93
      420
310
4194DA1859195911B40902404333333333333E33F0000000000000F9010740A41107004050150800405405064090840C02480A0B40
1001
ACAD
1000
AcDbSavedByObjectVersion
1070
     0
  0
ACAD_PROXY_OBJECT
  5
41
102
{ACAD_REACTORS
330
2A
102
}
330
2A
100
AcDbProxyObject
 90
      499
 91
      501
 93
      516
310
4454DA18591959081DDA5D1A08195919D95CD1A40902404333333333333E33F0000000000000F901074090142907004050250800405405064090740C02480A0B40
1001
ACAD
1000
AcDbSavedByObjectVersion
1070
     0
  0
ACAD_PROXY_OBJECT
  5
3E
102
{ACAD_REACTORS
330
2A
102
}
330
2A
100
AcDbProxyObject
 90
      499
 91
      501
 93
      532
310
4394DA1859195CC81BD98811DC985E5174090240C333333333333E33F0000000000000F901079024090741D01000000000000111010841D405064090740C02480A0340
1001
ACAD
1000
AcDbSavedByObjectVersion
1070
     0
  0
ACAD_PROXY_OBJECT
  5
3F
102
{ACAD_REACTORS
330
2A
102
}
330
2A
100
AcDbProxyObject
 90
      499
 91
      501
 93
      476
310
41D4DAD95D18DA1E51840502408333333333333E33F0000000000000F901079024090741D01000000000000111010B41D405064090741802480A0340
1001
ACAD
1000
AcDbSavedByObjectVersion
1070
     0
  0
ACAD_PROXY_OBJECT
  5
37
102
{ACAD_REACTORS
330
2A
102
}
330
2A
100
AcDbProxyObject
 90
      499
 91
      501
 93
      412
310
41D51A1A58DAD95B90D409028333333333333E33F0000000000000F9010790141107004050150C41D405064090741402480A0350
1001
ACAD
1000
AcDbSavedByObjectVersion
1070
     0
  0
ACAD_PROXY_OBJECT
  5
30
102
{ACAD_REACTORS
330
2A
102
}
330
2A
100
AcDbProxyObject
 90
      499
 91
      501
 93
      420
310
4255DA5C99599C985B595059028333333333333E33F0000000000000F90107901411070040501600405405064090740C02480A0340
1001
ACAD
1000
AcDbSavedByObjectVersion
1070
     0
  0
ACAD_PROXY_OBJECT
  5
40
102
{ACAD_REACTORS
330
2A
102
}
330
2A
100
AcDbProxyObject
 90
      499
 91
      501
 93
      404
310
41560B54985E51940902404000000000000E03F0000000000000F9010740501907004050150841D405064090740C02480A1B40
1001
ACAD
1000
AcDbSavedByObjectVersion
1070
     0
  0
XRECORD
  5
116
102
{ACAD_REACTORS
330
10D
102
}
330
10D
100
AcDbXrecord
 90
        0
  0
XRECORD
  5
12C
102
{ACAD_REACTORS
330
10D
102
}
330
10D
100
AcDbXrecord
1000
DSTYLE
1002
{
1070
   179
 70
     1
1070
   143
 40
0.03937
1070
   285
 70
     8
1070
   176
 70
     7
1070
   177
 70
     7
1070
   178
 70
     7
1070
   371
 70
    13
1070
   372
 70
    13
1070
   272
 70
     3
1070
   340
340
71
1070
   288
 70
     1
1002
}
  0
XRECORD
  5
117
102
{ACAD_REACTORS
330
10D
102
}
330
10D
100
AcDbXrecord
  1
{AB1ABEDA-8E71-105D-C23A-6D210F5D6F77}
  0
XRECORD
  5
110
102
{ACAD_REACTORS
330
10D
102
}
330
10D
100
AcDbXrecord
  1

  0
XRECORD
  5
115
102
{ACAD_REACTORS
330
10D
102
}
330
10D
100
AcDbXrecord
 90
        4
  0
XRECORD
  5
112
102
{ACAD_REACTORS
330
10D
102
}
330
10D
100
AcDbXrecord
340
1A
  0
XRECORD
  5
114
102
{ACAD_REACTORS
330
10D
102
}
330
10D
100
AcDbXrecord
 90
    10269
  0
XRECORD
  5
113
102
{ACAD_REACTORS
330
10D
102
}
330
10D
100
AcDbXrecord
340
19
  0
XRECORD
  5
119
102
{ACAD_REACTORS
330
10D
102
}
330
10D
100
AcDbXrecord
 40
0.0
  0
XRECORD
  5
11C
102
{ACAD_REACTORS
330
10D
102
}
330
10D
100
AcDbXrecord
340
0
  0
XRECORD
  5
122
102
{ACAD_REACTORS
330
10D
102
}
330
10D
100
AcDbXrecord
 10
0.0
 20
0.0
 30
0.0
  0
XRECORD
  5
11E
102
{ACAD_REACTORS
330
10D
102
}
330
10D
100
AcDbXrecord
 10
0.0
 20
0.0
 30
0.0
  0
XRECORD
  5
121
102
{ACAD_REACTORS
330
10D
102
}
330
10D
100
AcDbXrecord
 10
0.0
 20
0.0
 30
0.0
  0
XRECORD
  5
11F
102
{ACAD_REACTORS
330
10D
102
}
330
10D
100
AcDbXrecord
 10
0.0
 20
0.0
 30
0.0
  0
XRECORD
  5
120
102
{ACAD_REACTORS
330
10D
102
}
330
10D
100
AcDbXrecord
 10
0.0
 20
0.0
 30
0.0
  0
XRECORD
  5
11D
102
{ACAD_REACTORS
330
10D
102
}
330
10D
100
AcDbXrecord
 10
0.0
 20
0.0
 30
0.0
  0
XRECORD
  5
11A
102
{ACAD_REACTORS
330
10D
102
}
330
10D
100
AcDbXrecord
340
0
  0
XRECORD
  5
11B
102
{ACAD_REACTORS
330
10D
102
}
330
10D
100
AcDbXrecord
 70
     0
  0
XRECORD
  5
111
102
{ACAD_REACTORS
330
10D
102
}
330
10D
100
AcDbXrecord
  1

  0
XRECORD
  5
10E
102
{ACAD_REACTORS
330
10D
102
}
330
10D
100
AcDbXrecord
 90
        1
  0
XRECORD
  5
10F
102
{ACAD_REACTORS
330
10D
102
}
330
10D
100
AcDbXrecord
 90
       70
  0
XRECORD
  5
125
102
{ACAD_REACTORS
330
10D
102
}
330
10D
100
AcDbXrecord
340
0
  0
XRECORD
  5
12B
102
{ACAD_REACTORS
330
10D
102
}
330
10D
100
AcDbXrecord
 10
0.0
 20
0.0
 30
0.0
  0
XRECORD
  5
127
102
{ACAD_REACTORS
330
10D
102
}
330
10D
100
AcDbXrecord
 10
0.0
 20
0.0
 30
0.0
  0
XRECORD
  5
12A
102
{ACAD_REACTORS
330
10D
102
}
330
10D
100
AcDbXrecord
 10
0.0
 20
0.0
 30
0.0
  0
XRECORD
  5
128
102
{ACAD_REACTORS
330
10D
102
}
330
10D
100
AcDbXrecord
 10
0.0
 20
0.0
 30
0.0
  0
XRECORD
  5
129
102
{ACAD_REACTORS
330
10D
102
}
330
10D
100
AcDbXrecord
 10
0.0
 20
0.0
 30
0.0
  0
XRECORD
  5
126
102
{ACAD_REACTORS
330
10D
102
}
330
10D
100
AcDbXrecord
 10
0.0
 20
0.0
 30
0.0
  0
XRECORD
  5
123
102
{ACAD_REACTORS
330
10D
102
}
330
10D
100
AcDbXrecord
340
0
  0
XRECORD
  5
124
102
{ACAD_REACTORS
330
10D
102
}
330
10D
100
AcDbXrecord
 70
     0
  0
XRECORD
  5
118
102
{ACAD_REACTORS
330
10D
102
}
330
10D
100
AcDbXrecord
  1
{FAEB1C32-E019-11D5-929B-00C0DF256EC4}
  0
DICTIONARYVAR
  5
135
102
{ACAD_REACTORS
330
6C
102
}
330
6C
100
DictionaryVariables
280
     0
  1
1:1
  0
DICTIONARYVAR
  5
12D
102
{ACAD_REACTORS
330
6C
102
}
330
6C
100
DictionaryVariables
280
     0
  1
Onshape-Standard
  0
DICTIONARYVAR
  5
133
102
{ACAD_REACTORS
330
6C
102
}
330
6C
100
DictionaryVariables
280
     0
  1
2
  0
DICTIONARYVAR
  5
134
102
{ACAD_REACTORS
330
6C
102
}
330
6C
100
DictionaryVariables
280
     0
  1
1
  0
DICTIONARYVAR
  5
136
102
{ACAD_REACTORS
330
6C
102
}
330
6C
100
DictionaryVariables
280
     0
  1
1
  0
DICTIONARYVAR
  5
6D
102
{ACAD_REACTORS
330
6C
102
}
330
6C
100
DictionaryVariables
280
     0
  1
0
  0
DICTIONARYVAR
  5
130
102
{ACAD_REACTORS
330
6C
102
}
330
6C
100
DictionaryVariables
280
     0
  1
80.000000
  0
DICTIONARYVAR
  5
12F
102
{ACAD_REACTORS
330
6C
102
}
330
6C
100
DictionaryVariables
280
     0
  1
5.000000
  0
XRECORD
  5
C7
102
{ACAD_REACTORS
330
C6
102
}
330
C6
100
AcDbXrecord
 70
     4
  0
XRECORD
  5
CA
102
{ACAD_REACTORS
330
C6
102
}
330
C6
100
AcDbXrecord
 90
        0
  0
XRECORD
  5
C9
102
{ACAD_REACTORS
330
C6
102
}
330
C6
100
AcDbXrecord
 90
        0
  0
XRECORD
  5
C8
102
{ACAD_REACTORS
330
C6
102
}
330
C6
100
AcDbXrecord
 90
        1
  0
DICTIONARY
  5
139
330
45
100
AcDbDictionary
280
     1
  3
ACAD_XREC_ROUNDTRIP
360
13A
  0
DICTIONARY
  5
137
330
44
100
AcDbDictionary
280
     1
  3
ACAD_XREC_ROUNDTRIP
360
138
  0
DICTIONARY
  5
13B
330
46
100
AcDbDictionary
280
     1
  3
ACAD_XREC_ROUNDTRIP
360
13C
  0
XRECORD
  5
13A
102
{ACAD_REACTORS
330
139
102
}
330
139
100
AcDbXrecord
102
MATERIAL
148
0.0
149
0.0
149
0.0
 93
        0
 94
      127
282
     0
 72
     1
 77
     1
171
     1
175
     1
179
     1
273
     0
  0
XRECORD
  5
138
102
{ACAD_REACTORS
330
137
102
}
330
137
100
AcDbXrecord
102
MATERIAL
148
0.0
149
0.0
149
0.0
 93
        0
 94
      127
282
     0
 72
     1
 77
     1
171
     1
175
     1
179
     1
273
     0
  0
XRECORD
  5
13C
102
{ACAD_REACTORS
330
13B
102
}
330
13B
100
AcDbXrecord
102
MATERIAL
148
0.0
149
0.0
149
0.0
 93
        0
 94
      127
282
     0
 72
     1
 77
     1
171
     1
175
     1
179
     1
273
     0
  0
ENDSEC
  0
EOF
