  0
SECTION
  2
HEADER
  9
$ACADVER
  1
AC1015
  9
$ACADMAINTVER
 70
     6
  9
$DWGCODEPAGE
  3
ANSI_1252
  9
$INSBASE
 10
0.0
 20
0.0
 30
0.0
  9
$EXTMIN
 10
0.0
 20
0.0
 30
0.0
  9
$EXTMAX
 10
293.399994
 20
206.573776
 30
2.0
  9
$LIMMIN
 10
0.0
 20
0.0
  9
$LIMMAX
 10
420.0
 20
297.0
  9
$ORTHOMODE
 70
     0
  9
$REGENMODE
 70
     1
  9
$FILLMODE
 70
     1
  9
$QTEXTMODE
 70
     0
  9
$MIRRTEXT
 70
     1
  9
$LTSCALE
 40
1.0
  9
$ATTMODE
 70
     1
  9
$TEXTSIZE
 40
2.5
  9
$TRACEWID
 40
1.0
  9
$TEXTSTYLE
  7
Standard
  9
$CLAYER
  8
0
  9
$CELTYPE
  6
ByLayer
  9
$CECOLOR
 62
   256
  9
$CELTSCALE
 40
1.0
  9
$DISPSILH
 70
     0
  9
$DIMSCALE
 40
1.0
  9
$DIMASZ
 40
2.5
  9
$DIMEXO
 40
0.625
  9
$DIMDLI
 40
3.75
  9
$DIMRND
 40
0.0
  9
$DIMDLE
 40
0.0
  9
$DIMEXE
 40
1.25
  9
$DIMTP
 40
0.0
  9
$DIMTM
 40
0.0
  9
$DIMTXT
 40
2.5
  9
$DIMCEN
 40
2.5
  9
$DIMTSZ
 40
0.0
  9
$DIMTOL
 70
     0
  9
$DIMLIM
 70
     0
  9
$DIMTIH
 70
     0
  9
$DIMTOH
 70
     0
  9
$DIMSE1
 70
     0
  9
$DIMSE2
 70
     0
  9
$DIMTAD
 70
     1
  9
$DIMZIN
 70
     8
  9
$DIMBLK
  1

  9
$DIMASO
 70
     1
  9
$DIMSHO
 70
     1
  9
$DIMPOST
  1

  9
$DIMAPOST
  1

  9
$DIMALT
 70
     0
  9
$DIMALTD
 70
     3
  9
$DIMALTF
 40
0.03937
  9
$DIMLFAC
 40
1.0
  9
$DIMTOFL
 70
     1
  9
$DIMTVP
 40
0.0
  9
$DIMTIX
 70
     0
  9
$DIMSOXD
 70
     0
  9
$DIMSAH
 70
     0
  9
$DIMBLK1
  1

  9
$DIMBLK2
  1

  9
$DIMSTYLE
  2
STANDARD
  9
$DIMCLRD
 70
     0
  9
$DIMCLRE
 70
     0
  9
$DIMCLRT
 70
     0
  9
$DIMTFAC
 40
1.0
  9
$DIMGAP
 40
0.625
  9
$DIMJUST
 70
     0
  9
$DIMSD1
 70
     0
  9
$DIMSD2
 70
     0
  9
$DIMTOLJ
 70
     0
  9
$DIMTZIN
 70
     8
  9
$DIMALTZ
 70
     0
  9
$DIMALTTZ
 70
     0
  9
$DIMUPT
 70
     0
  9
$DIMDEC
 70
     2
  9
$DIMTDEC
 70
     2
  9
$DIMALTU
 70
     2
  9
$DIMALTTD
 70
     3
  9
$DIMTXSTY
  7
Standard
  9
$DIMAUNIT
 70
     0
  9
$DIMADEC
 70
     0
  9
$DIMALTRND
 40
0.0
  9
$DIMAZIN
 70
     0
  9
$DIMDSEP
 70
    44
  9
$DIMATFIT
 70
     0
  9
$DIMFRAC
 70
     0
  9
$DIMLDRBLK
  1

  9
$DIMLUNIT
 70
     2
  9
$DIMLWD
 70
    -2
  9
$DIMLWE
 70
    -2
  9
$DIMTMOVE
 70
     0
  9
$LUNITS
 70
     2
  9
$LUPREC
 70
     4
  9
$SKETCHINC
 40
1.0
  9
$FILLETRAD
 40
2.5
  9
$AUNITS
 70
     0
  9
$AUPREC
 70
     0
  9
$MENU
  1
.
  9
$ELEVATION
 40
0.0
  9
$PELEVATION
 40
0.0
  9
$THICKNESS
 40
0.0
  9
$LIMCHECK
 70
     0
  9
$CHAMFERA
 40
2.5
  9
$CHAMFERB
 40
2.5
  9
$CHAMFERC
 40
0.0
  9
$CHAMFERD
 40
0.0
  9
$SKPOLY
 70
     0
  9
$TDCREATE
 40
2447892.875
  9
$TDUCREATE
 40
0.0
  9
$TDUPDATE
 40
2458955.593938055
  9
$TDUUPDATE
 40
2458955.718938055
  9
$TDINDWG
 40
0.0
  9
$TDUSRTIMER
 40
0.0
  9
$USRTIMER
 70
     1
  9
$ANGBASE
 50
0.0
  9
$ANGDIR
 70
     0
  9
$PDMODE
 70
     0
  9
$PDSIZE
 40
0.0
  9
$PLINEWID
 40
0.0
  9
$SPLFRAME
 70
     0
  9
$SPLINETYPE
 70
     6
  9
$SPLINESEGS
 70
     8
  9
$HANDSEED
  5
280
  9
$SURFTAB1
 70
     6
  9
$SURFTAB2
 70
     6
  9
$SURFTYPE
 70
     6
  9
$SURFU
 70
     6
  9
$SURFV
 70
     6
  9
$UCSBASE
  2

  9
$UCSNAME
  2

  9
$UCSORG
 10
0.0
 20
0.0
 30
0.0
  9
$UCSXDIR
 10
1.0
 20
0.0
 30
0.0
  9
$UCSYDIR
 10
0.0
 20
1.0
 30
0.0
  9
$UCSORTHOREF
  2

  9
$UCSORTHOVIEW
 70
     1
  9
$UCSORGTOP
 10
0.0
 20
0.0
 30
0.0
  9
$UCSORGBOTTOM
 10
0.0
 20
0.0
 30
0.0
  9
$UCSORGLEFT
 10
0.0
 20
0.0
 30
0.0
  9
$UCSORGRIGHT
 10
0.0
 20
0.0
 30
0.0
  9
$UCSORGFRONT
 10
0.0
 20
0.0
 30
0.0
  9
$UCSORGBACK
 10
0.0
 20
0.0
 30
0.0
  9
$PUCSBASE
  2

  9
$PUCSNAME
  2

  9
$PUCSORG
 10
0.0
 20
0.0
 30
0.0
  9
$PUCSXDIR
 10
1.0
 20
0.0
 30
0.0
  9
$PUCSYDIR
 10
0.0
 20
1.0
 30
0.0
  9
$PUCSORTHOREF
  2

  9
$PUCSORTHOVIEW
 70
     0
  9
$PUCSORGTOP
 10
0.0
 20
0.0
 30
0.0
  9
$PUCSORGBOTTOM
 10
0.0
 20
0.0
 30
0.0
  9
$PUCSORGLEFT
 10
0.0
 20
0.0
 30
0.0
  9
$PUCSORGRIGHT
 10
0.0
 20
0.0
 30
0.0
  9
$PUCSORGFRONT
 10
0.0
 20
0.0
 30
0.0
  9
$PUCSORGBACK
 10
0.0
 20
0.0
 30
0.0
  9
$USERI1
 70
     0
  9
$USERI2
 70
     0
  9
$USERI3
 70
     0
  9
$USERI4
 70
     0
  9
$USERI5
 70
     0
  9
$USERR1
 40
0.0
  9
$USERR2
 40
0.0
  9
$USERR3
 40
0.0
  9
$USERR4
 40
0.0
  9
$USERR5
 40
0.0
  9
$WORLDVIEW
 70
     1
  9
$SHADEDGE
 70
     3
  9
$SHADEDIF
 70
    70
  9
$TILEMODE
 70
     1
  9
$MAXACTVP
 70
    64
  9
$PINSBASE
 10
0.0
 20
0.0
 30
0.0
  9
$PLIMCHECK
 70
     0
  9
$PEXTMIN
 10
0.0
 20
0.0
 30
0.0
  9
$PEXTMAX
 10
293.399994
 20
206.573776
 30
2.0
  9
$PLIMMIN
 10
0.0
 20
0.0
  9
$PLIMMAX
 10
420.0
 20
297.0
  9
$UNITMODE
 70
     0
  9
$VISRETAIN
 70
     0
  9
$PLINEGEN
 70
     0
  9
$PSLTSCALE
 70
     1
  9
$TREEDEPTH
 70
  3020
  9
$CMLSTYLE
  2
Standard
  9
$CMLJUST
 70
     0
  9
$CMLSCALE
 40
20.0
  9
$PROXYGRAPHICS
 70
     1
  9
$MEASUREMENT
 70
     1
  9
$CELWEIGHT
370
    -1
  9
$ENDCAPS
280
     0
  9
$JOINSTYLE
280
     0
  9
$LWDISPLAY
290
     0
  9
$INSUNITS
 70
     0
  9
$HYPERLINKBASE
  1

  9
$STYLESHEET
  1

  9
$XEDIT
290
     1
  9
$CEPSNTYPE
380
     0
  9
$PSTYLEMODE
290
     0
  9
$FINGERPRINTGUID
  2
{AA0C8DB2-9214-4393-9896-5B456FCD2FB7}
  9
$VERSIONGUID
  2
{FAEB1C32-E019-11D5-929B-00C0DF256EC4}
  9
$EXTNAMES
290
     1
  9
$PSVPSCALE
 40
0.0
  9
$OLESTARTUP
290
     0
  0
ENDSEC
  0
SECTION
  2
CLASSES
  0
CLASS
  1
ACDBDICTIONARYWDFLT
  2
AcDbDictionaryWithDefault
  3
ObjectDBX Classes
 90
        0
280
     0
281
     0
  0
CLASS
  1
VISUALSTYLE
  2
AcDbVisualStyle
  3
ObjectDBX Classes
 90
     4095
280
     0
281
     0
  0
CLASS
  1
MATERIAL
  2
AcDbMaterial
  3
ObjectDBX Classes
 90
     1153
280
     0
281
     0
  0
CLASS
  1
SCALE
  2
AcDbScale
  3
ObjectDBX Classes
 90
     1153
280
     0
281
     0
  0
CLASS
  1
TABLESTYLE
  2
AcDbTableStyle
  3
ObjectDBX Classes
 90
     4095
280
     0
281
     0
  0
CLASS
  1
MLEADERSTYLE
  2
AcDbMLeaderStyle
  3
ACDB_MLEADERSTYLE_CLASS
 90
     4095
280
     0
281
     0
  0
CLASS
  1
SUN
  2
AcDbSun
  3
SCENEOE
 90
     1153
280
     0
281
     0
  0
CLASS
  1
ACDBPLACEHOLDER
  2
AcDbPlaceHolder
  3
ObjectDBX Classes
 90
        0
280
     0
281
     0
  0
CLASS
  1
LAYOUT
  2
AcDbLayout
  3
ObjectDBX Classes
 90
        0
280
     0
281
     0
  0
ENDSEC
  0
SECTION
  2
TABLES
  0
TABLE
  2
VPORT
  5
8
330
0
100
AcDbSymbolTable
 70
     1
  0
VPORT
  5
29
330
8
100
AcDbSymbolTableRecord
100
AcDbViewportTableRecord
  2
*Active
 70
     0
 10
0.0
 20
0.0
 11
1.0
 21
1.0
 12
10.429907
 22
4.5
 13
0.0
 23
0.0
 14
0.5
 24
0.5
 15
0.5
 25
0.5
 16
0.0
 26
0.0
 36
1.0
 17
0.0
 27
0.0
 37
0.0
 40
9.0
 41
1.972973
 42
50.0
 43
0.0
 44
0.0
 50
0.0
 51
0.0
 71
     0
 72
   100
 73
     1
 74
     3
 75
     0
 76
     0
 77
     0
 78
     0
281
     0
 65
     1
110
0.0
120
0.0
130
0.0
111
1.0
121
0.0
131
0.0
112
0.0
122
1.0
132
0.0
 79
     0
146
0.0
  0
ENDTAB
  0
TABLE
  2
LTYPE
  5
5
330
0
100
AcDbSymbolTable
 70
     2
  0
LTYPE
  5
14
330
5
100
AcDbSymbolTableRecord
100
AcDbLinetypeTableRecord
  2
ByBlock
 70
     0
  3

 72
    65
 73
     0
 40
0.0
  0
LTYPE
  5
15
330
5
100
AcDbSymbolTableRecord
100
AcDbLinetypeTableRecord
  2
ByLayer
 70
     0
  3

 72
    65
 73
     0
 40
0.0
  0
LTYPE
  5
16
330
5
100
AcDbSymbolTableRecord
100
AcDbLinetypeTableRecord
  2
Continuous
 70
     0
  3
Solid line
 72
    65
 73
     0
 40
0.0
  0
LTYPE
  5
6F
330
5
100
AcDbSymbolTableRecord
100
AcDbLinetypeTableRecord
  2
DASHDOT
 70
     0
  3
 __ . __ . __ . __ . __ . __ . __ . 
 72
    65
 73
     4
 40
18.5
 49
12.0
 74
     0
 49
-3.0
 74
     0
 49
0.5
 74
     0
 49
-3.0
 74
     0
  0
ENDTAB
  0
TABLE
  2
LAYER
  5
2
330
0
100
AcDbSymbolTable
 70
     1
  0
LAYER
  5
10
330
2
100
AcDbSymbolTableRecord
100
AcDbLayerTableRecord
  2
0
 70
     0
 62
     7
  6
Continuous
370
    13
390
F
  0
ENDTAB
  0
TABLE
  2
STYLE
  5
3
330
0
100
AcDbSymbolTable
 70
     2
  0
STYLE
  5
11
330
3
100
AcDbSymbolTableRecord
100
AcDbTextStyleTableRecord
  2
Standard
 70
     0
 40
0.0
 41
1.0
 50
0.0
 71
     0
 42
2.5
  3
isocp.shx
  4

  0
STYLE
  5
6E
330
3
100
AcDbSymbolTableRecord
100
AcDbTextStyleTableRecord
  2
GDT
 70
     0
 40
0.0
 41
1.0
 50
0.0
 71
     0
 42
0.2
  3
gdt.shx
  4

  0
ENDTAB
  0
TABLE
  2
VIEW
  5
6
330
0
100
AcDbSymbolTable
 70
     0
  0
ENDTAB
  0
TABLE
  2
UCS
  5
7
330
0
100
AcDbSymbolTable
 70
     0
  0
ENDTAB
  0
TABLE
  2
APPID
  5
9
330
0
100
AcDbSymbolTable
 70
     1
  0
APPID
  5
12
330
9
100
AcDbSymbolTableRecord
100
AcDbRegAppTableRecord
  2
ACAD
 70
     0
  0
ENDTAB
  0
TABLE
  2
DIMSTYLE
  5
A
330
0
100
AcDbSymbolTable
 70
     1
100
AcDbDimStyleTable
  0
DIMSTYLE
105
27
102
{ACAD_REACTORS
330
271
330
273
330
279
102
}
330
A
100
AcDbSymbolTableRecord
100
AcDbDimStyleTableRecord
  2
STANDARD
 70
     0
 41
2.5
 42
0.625
 43
3.75
 44
1.25
 73
     0
 74
     0
 77
     1
 78
     8
140
2.5
141
2.5
143
0.03937
147
0.625
171
     3
172
     1
178
     0
271
     2
272
     2
274
     3
278
    44
283
     0
284
     8
289
     0
340
0
  0
ENDTAB
  0
TABLE
  2
BLOCK_RECORD
  5
1
330
0
100
AcDbSymbolTable
 70
    67
  0
BLOCK_RECORD
  5
1F
330
1
100
AcDbSymbolTableRecord
100
AcDbBlockTableRecord
  2
*Model_Space
340
22
  0
BLOCK_RECORD
  5
1B
330
1
100
AcDbSymbolTableRecord
100
AcDbBlockTableRecord
  2
*Paper_Space
340
1E
  0
BLOCK_RECORD
  5
23
330
1
100
AcDbSymbolTableRecord
100
AcDbBlockTableRecord
  2
*Paper_Space0
340
26
  0
BLOCK_RECORD
  5
70
330
1
100
AcDbSymbolTableRecord
100
AcDbBlockTableRecord
  2
BLOCK1309
340
0
102
{BLKREFS
331
203
102
}
  0
BLOCK_RECORD
  5
73
330
1
100
AcDbSymbolTableRecord
100
AcDbBlockTableRecord
  2
BLOCK1310
340
0
102
{BLKREFS
331
204
102
}
  0
BLOCK_RECORD
  5
76
330
1
100
AcDbSymbolTableRecord
100
AcDbBlockTableRecord
  2
BLOCK1311
340
0
102
{BLKREFS
331
205
102
}
  0
BLOCK_RECORD
  5
79
330
1
100
AcDbSymbolTableRecord
100
AcDbBlockTableRecord
  2
BLOCK1312
340
0
102
{BLKREFS
331
206
102
}
  0
BLOCK_RECORD
  5
7C
330
1
100
AcDbSymbolTableRecord
100
AcDbBlockTableRecord
  2
BLOCK1313
340
0
102
{BLKREFS
331
207
102
}
  0
BLOCK_RECORD
  5
7F
330
1
100
AcDbSymbolTableRecord
100
AcDbBlockTableRecord
  2
BLOCK1314
340
0
102
{BLKREFS
331
208
102
}
  0
BLOCK_RECORD
  5
82
330
1
100
AcDbSymbolTableRecord
100
AcDbBlockTableRecord
  2
BLOCK1315
340
0
102
{BLKREFS
331
209
102
}
  0
BLOCK_RECORD
  5
85
330
1
100
AcDbSymbolTableRecord
100
AcDbBlockTableRecord
  2
BLOCK1316
340
0
102
{BLKREFS
331
20A
102
}
  0
BLOCK_RECORD
  5
88
330
1
100
AcDbSymbolTableRecord
100
AcDbBlockTableRecord
  2
BLOCK1317
340
0
102
{BLKREFS
331
20B
102
}
  0
BLOCK_RECORD
  5
8B
330
1
100
AcDbSymbolTableRecord
100
AcDbBlockTableRecord
  2
BLOCK1318
340
0
102
{BLKREFS
331
20C
102
}
  0
BLOCK_RECORD
  5
8E
330
1
100
AcDbSymbolTableRecord
100
AcDbBlockTableRecord
  2
BLOCK1319
340
0
102
{BLKREFS
331
20D
102
}
  0
BLOCK_RECORD
  5
91
330
1
100
AcDbSymbolTableRecord
100
AcDbBlockTableRecord
  2
BLOCK1320
340
0
102
{BLKREFS
331
20E
102
}
  0
BLOCK_RECORD
  5
94
330
1
100
AcDbSymbolTableRecord
100
AcDbBlockTableRecord
  2
BLOCK1321
340
0
102
{BLKREFS
331
20F
102
}
  0
BLOCK_RECORD
  5
97
330
1
100
AcDbSymbolTableRecord
100
AcDbBlockTableRecord
  2
BLOCK1322
340
0
102
{BLKREFS
331
210
102
}
  0
BLOCK_RECORD
  5
9A
330
1
100
AcDbSymbolTableRecord
100
AcDbBlockTableRecord
  2
BLOCK1323
340
0
102
{BLKREFS
331
211
102
}
  0
BLOCK_RECORD
  5
9D
330
1
100
AcDbSymbolTableRecord
100
AcDbBlockTableRecord
  2
BLOCK1324
340
0
102
{BLKREFS
331
212
102
}
  0
BLOCK_RECORD
  5
A0
330
1
100
AcDbSymbolTableRecord
100
AcDbBlockTableRecord
  2
BLOCK1325
340
0
102
{BLKREFS
331
213
102
}
  0
BLOCK_RECORD
  5
A3
330
1
100
AcDbSymbolTableRecord
100
AcDbBlockTableRecord
  2
BLOCK1326
340
0
102
{BLKREFS
331
214
102
}
  0
BLOCK_RECORD
  5
A6
330
1
100
AcDbSymbolTableRecord
100
AcDbBlockTableRecord
  2
BLOCK1327
340
0
102
{BLKREFS
331
215
102
}
  0
BLOCK_RECORD
  5
A9
330
1
100
AcDbSymbolTableRecord
100
AcDbBlockTableRecord
  2
BLOCK1328
340
0
102
{BLKREFS
331
216
102
}
  0
BLOCK_RECORD
  5
AC
330
1
100
AcDbSymbolTableRecord
100
AcDbBlockTableRecord
  2
BLOCK1329
340
0
102
{BLKREFS
331
217
102
}
  0
BLOCK_RECORD
  5
AF
330
1
100
AcDbSymbolTableRecord
100
AcDbBlockTableRecord
  2
BLOCK1330
340
0
102
{BLKREFS
331
218
102
}
  0
BLOCK_RECORD
  5
B2
330
1
100
AcDbSymbolTableRecord
100
AcDbBlockTableRecord
  2
BLOCK1331
340
0
102
{BLKREFS
331
219
102
}
  0
BLOCK_RECORD
  5
B5
330
1
100
AcDbSymbolTableRecord
100
AcDbBlockTableRecord
  2
BLOCK1332
340
0
102
{BLKREFS
331
21A
102
}
  0
BLOCK_RECORD
  5
B8
330
1
100
AcDbSymbolTableRecord
100
AcDbBlockTableRecord
  2
BLOCK1333
340
0
102
{BLKREFS
331
21B
102
}
  0
BLOCK_RECORD
  5
BB
330
1
100
AcDbSymbolTableRecord
100
AcDbBlockTableRecord
  2
BLOCK1334
340
0
102
{BLKREFS
331
21C
102
}
  0
BLOCK_RECORD
  5
BE
330
1
100
AcDbSymbolTableRecord
100
AcDbBlockTableRecord
  2
BLOCK1335
340
0
102
{BLKREFS
331
21D
102
}
  0
BLOCK_RECORD
  5
C1
330
1
100
AcDbSymbolTableRecord
100
AcDbBlockTableRecord
  2
BLOCK1336
340
0
102
{BLKREFS
331
21E
102
}
  0
BLOCK_RECORD
  5
C4
330
1
100
AcDbSymbolTableRecord
100
AcDbBlockTableRecord
  2
BLOCK1337
340
0
102
{BLKREFS
331
21F
102
}
  0
BLOCK_RECORD
  5
C7
330
1
100
AcDbSymbolTableRecord
100
AcDbBlockTableRecord
  2
BLOCK1338
340
0
102
{BLKREFS
331
220
102
}
  0
BLOCK_RECORD
  5
CA
330
1
100
AcDbSymbolTableRecord
100
AcDbBlockTableRecord
  2
BLOCK1339
340
0
102
{BLKREFS
331
221
102
}
  0
BLOCK_RECORD
  5
CD
330
1
100
AcDbSymbolTableRecord
100
AcDbBlockTableRecord
  2
BLOCK1340
340
0
102
{BLKREFS
331
222
102
}
  0
BLOCK_RECORD
  5
D0
330
1
100
AcDbSymbolTableRecord
100
AcDbBlockTableRecord
  2
BLOCK1341
340
0
102
{BLKREFS
331
223
102
}
  0
BLOCK_RECORD
  5
D3
330
1
100
AcDbSymbolTableRecord
100
AcDbBlockTableRecord
  2
BLOCK1342
340
0
102
{BLKREFS
331
224
102
}
  0
BLOCK_RECORD
  5
D6
330
1
100
AcDbSymbolTableRecord
100
AcDbBlockTableRecord
  2
BLOCK1343
340
0
102
{BLKREFS
331
225
102
}
  0
BLOCK_RECORD
  5
D9
330
1
100
AcDbSymbolTableRecord
100
AcDbBlockTableRecord
  2
BLOCK1344
340
0
102
{BLKREFS
331
226
102
}
  0
BLOCK_RECORD
  5
DC
330
1
100
AcDbSymbolTableRecord
100
AcDbBlockTableRecord
  2
BLOCK1345
340
0
102
{BLKREFS
331
227
102
}
  0
BLOCK_RECORD
  5
DF
330
1
100
AcDbSymbolTableRecord
100
AcDbBlockTableRecord
  2
BLOCK1346
340
0
102
{BLKREFS
331
228
102
}
  0
BLOCK_RECORD
  5
E2
330
1
100
AcDbSymbolTableRecord
100
AcDbBlockTableRecord
  2
BLOCK1347
340
0
102
{BLKREFS
331
229
102
}
  0
BLOCK_RECORD
  5
E5
330
1
100
AcDbSymbolTableRecord
100
AcDbBlockTableRecord
  2
BLOCK1348
340
0
102
{BLKREFS
331
22A
102
}
  0
BLOCK_RECORD
  5
E8
330
1
100
AcDbSymbolTableRecord
100
AcDbBlockTableRecord
  2
BLOCK1349
340
0
102
{BLKREFS
331
22B
102
}
  0
BLOCK_RECORD
  5
EB
330
1
100
AcDbSymbolTableRecord
100
AcDbBlockTableRecord
  2
BLOCK1350
340
0
102
{BLKREFS
331
22C
102
}
  0
BLOCK_RECORD
  5
EE
330
1
100
AcDbSymbolTableRecord
100
AcDbBlockTableRecord
  2
BLOCK1351
340
0
102
{BLKREFS
331
22D
102
}
  0
BLOCK_RECORD
  5
F1
330
1
100
AcDbSymbolTableRecord
100
AcDbBlockTableRecord
  2
BLOCK1352
340
0
102
{BLKREFS
331
22E
102
}
  0
BLOCK_RECORD
  5
F4
330
1
100
AcDbSymbolTableRecord
100
AcDbBlockTableRecord
  2
BLOCK1353
340
0
102
{BLKREFS
331
22F
102
}
  0
BLOCK_RECORD
  5
F7
330
1
100
AcDbSymbolTableRecord
100
AcDbBlockTableRecord
  2
BLOCK1354
340
0
102
{BLKREFS
331
230
102
}
  0
BLOCK_RECORD
  5
FA
330
1
100
AcDbSymbolTableRecord
100
AcDbBlockTableRecord
  2
BLOCK1355
340
0
102
{BLKREFS
331
231
102
}
  0
BLOCK_RECORD
  5
FD
330
1
100
AcDbSymbolTableRecord
100
AcDbBlockTableRecord
  2
BLOCK1356
340
0
102
{BLKREFS
331
232
102
}
  0
BLOCK_RECORD
  5
100
330
1
100
AcDbSymbolTableRecord
100
AcDbBlockTableRecord
  2
BLOCK1357
340
0
102
{BLKREFS
331
233
102
}
  0
BLOCK_RECORD
  5
103
330
1
100
AcDbSymbolTableRecord
100
AcDbBlockTableRecord
  2
BLOCK1358
340
0
102
{BLKREFS
331
234
102
}
  0
BLOCK_RECORD
  5
106
330
1
100
AcDbSymbolTableRecord
100
AcDbBlockTableRecord
  2
BLOCK1359
340
0
102
{BLKREFS
331
235
102
}
  0
BLOCK_RECORD
  5
109
330
1
100
AcDbSymbolTableRecord
100
AcDbBlockTableRecord
  2
BLOCK1360
340
0
102
{BLKREFS
331
236
102
}
  0
BLOCK_RECORD
  5
10C
330
1
100
AcDbSymbolTableRecord
100
AcDbBlockTableRecord
  2
BLOCK1361
340
0
102
{BLKREFS
331
237
102
}
  0
BLOCK_RECORD
  5
10F
330
1
100
AcDbSymbolTableRecord
100
AcDbBlockTableRecord
  2
BLOCK1362
340
0
102
{BLKREFS
331
270
102
}
  0
BLOCK_RECORD
  5
112
330
1
100
AcDbSymbolTableRecord
100
AcDbBlockTableRecord
  2
*D55
340
0
  0
BLOCK_RECORD
  5
115
330
1
100
AcDbSymbolTableRecord
100
AcDbBlockTableRecord
  2
*D56
340
0
  0
BLOCK_RECORD
  5
118
330
1
100
AcDbSymbolTableRecord
100
AcDbBlockTableRecord
  2
BLOCK1363
340
0
102
{BLKREFS
331
275
102
}
  0
BLOCK_RECORD
  5
11B
330
1
100
AcDbSymbolTableRecord
100
AcDbBlockTableRecord
  2
BLOCK1364
340
0
102
{BLKREFS
331
276
102
}
  0
BLOCK_RECORD
  5
11E
330
1
100
AcDbSymbolTableRecord
100
AcDbBlockTableRecord
  2
BLOCK1365
340
0
102
{BLKREFS
331
277
102
}
  0
BLOCK_RECORD
  5
121
330
1
100
AcDbSymbolTableRecord
100
AcDbBlockTableRecord
  2
BLOCK1366
340
0
102
{BLKREFS
331
278
102
}
  0
BLOCK_RECORD
  5
124
330
1
100
AcDbSymbolTableRecord
100
AcDbBlockTableRecord
  2
*D61
340
0
  0
BLOCK_RECORD
  5
127
330
1
100
AcDbSymbolTableRecord
100
AcDbBlockTableRecord
  2
*D62
340
0
  0
BLOCK_RECORD
  5
12A
330
1
100
AcDbSymbolTableRecord
100
AcDbBlockTableRecord
  2
BLOCK1367
340
0
102
{BLKREFS
331
27B
102
}
  0
BLOCK_RECORD
  5
12D
330
1
100
AcDbSymbolTableRecord
100
AcDbBlockTableRecord
  2
BLOCK1368
340
0
102
{BLKREFS
331
27D
102
}
  0
BLOCK_RECORD
  5
130
330
1
100
AcDbSymbolTableRecord
100
AcDbBlockTableRecord
  2
BLOCK1369
340
0
102
{BLKREFS
331
27E
102
}
  0
BLOCK_RECORD
  5
133
330
1
100
AcDbSymbolTableRecord
100
AcDbBlockTableRecord
  2
BLOCK1370
340
0
102
{BLKREFS
331
27F
102
}
  0
ENDTAB
  0
ENDSEC
  0
SECTION
  2
BLOCKS
  0
BLOCK
  5
20
330
1F
100
AcDbEntity
  8
0
100
AcDbBlockBegin
  2
*Model_Space
 70
     0
 10
0.0
 20
0.0
 30
0.0
  3
*Model_Space
  1

  0
ENDBLK
  5
21
330
1F
100
AcDbEntity
  8
0
100
AcDbBlockEnd
  0
BLOCK
  5
1C
330
1B
100
AcDbEntity
 67
     1
  8
0
100
AcDbBlockBegin
  2
*Paper_Space
 70
     0
 10
0.0
 20
0.0
 30
0.0
  3
*Paper_Space
  1

  0
ENDBLK
  5
1D
330
1B
100
AcDbEntity
 67
     1
  8
0
100
AcDbBlockEnd
  0
BLOCK
  5
24
330
23
100
AcDbEntity
  8
0
100
AcDbBlockBegin
  2
*Paper_Space0
 70
     0
 10
0.0
 20
0.0
 30
0.0
  3
*Paper_Space0
  1

  0
ENDBLK
  5
25
330
23
100
AcDbEntity
  8
0
100
AcDbBlockEnd
  0
BLOCK
  5
71
330
70
100
AcDbEntity
  8
0
100
AcDbBlockBegin
  2
BLOCK1309
 70
     0
 10
0.0
 20
0.0
 30
0.0
  3
BLOCK1309
  1

  0
TEXT
  5
136
330
70
100
AcDbEntity
  8
0
 62
     7
370
    18
100
AcDbText
 10
258.226196
 20
3.076224
 30
0.0
 40
3.5
  1
A
 41
1.110901
 72
     5
 11
261.373749
 21
3.076224
 31
0.0
100
AcDbText
  0
ENDBLK
  5
72
330
70
100
AcDbEntity
  8
0
100
AcDbBlockEnd
  0
BLOCK
  5
74
330
73
100
AcDbEntity
  8
0
100
AcDbBlockBegin
  2
BLOCK1310
 70
     0
 10
0.0
 20
0.0
 30
0.0
  3
BLOCK1310
  1

  0
TEXT
  5
137
330
73
100
AcDbEntity
  8
0
 62
     7
370
    18
100
AcDbText
 10
35.799999
 20
3.076224
 30
0.0
 40
3.5
  1
D
 41
0.933333
 72
     5
 11
38.599998
 21
3.076224
 31
0.0
100
AcDbText
  0
ENDBLK
  5
75
330
73
100
AcDbEntity
  8
0
100
AcDbBlockEnd
  0
BLOCK
  5
77
330
76
100
AcDbEntity
  8
0
100
AcDbBlockBegin
  2
BLOCK1311
 70
     0
 10
0.0
 20
0.0
 30
0.0
  3
BLOCK1311
  1

  0
TEXT
  5
138
330
76
100
AcDbEntity
  8
0
 62
     7
370
    18
100
AcDbText
 10
187.523788
 20
203.600006
 30
0.0
 40
3.5
  1
B
 50
90.0
 41
0.933334
 72
     5
 11
187.523788
 21
206.400009
 31
0.0
100
AcDbText
  0
ENDBLK
  5
78
330
76
100
AcDbEntity
  8
0
100
AcDbBlockEnd
  0
BLOCK
  5
7A
330
79
100
AcDbEntity
  8
0
100
AcDbBlockBegin
  2
BLOCK1312
 70
     0
 10
0.0
 20
0.0
 30
0.0
  3
BLOCK1312
  1

  0
TEXT
  5
139
330
79
100
AcDbEntity
  8
0
 62
     7
370
    18
100
AcDbText
 10
113.323776
 20
203.77623
 30
0.0
 40
3.5
  1
C
 50
90.0
 41
0.815852
 72
     5
 11
113.323776
 21
206.223785
 31
0.0
100
AcDbText
  0
ENDBLK
  5
7B
330
79
100
AcDbEntity
  8
0
100
AcDbBlockEnd
  0
BLOCK
  5
7D
330
7C
100
AcDbEntity
  8
0
100
AcDbBlockBegin
  2
BLOCK1313
 70
     0
 10
0.0
 20
0.0
 30
0.0
  3
BLOCK1313
  1

  0
TEXT
  5
13A
330
7C
100
AcDbEntity
  8
0
 62
     7
370
    18
100
AcDbText
 10
261.723755
 20
203.426224
 30
0.0
 40
3.5
  1
A
 50
90.0
 41
1.110901
 72
     5
 11
261.723755
 21
206.573776
 31
0.0
100
AcDbText
  0
ENDBLK
  5
7E
330
7C
100
AcDbEntity
  8
0
100
AcDbBlockEnd
  0
BLOCK
  5
80
330
7F
100
AcDbEntity
  8
0
100
AcDbBlockBegin
  2
BLOCK1314
 70
     0
 10
0.0
 20
0.0
 30
0.0
  3
BLOCK1314
  1

  0
TEXT
  5
13B
330
7F
100
AcDbEntity
  8
0
 62
     7
370
    18
100
AcDbText
 10
39.123775
 20
203.600006
 30
0.0
 40
3.5
  1
D
 50
90.0
 41
0.933334
 72
     5
 11
39.123775
 21
206.400009
 31
0.0
100
AcDbText
  0
ENDBLK
  5
81
330
7F
100
AcDbEntity
  8
0
100
AcDbBlockEnd
  0
BLOCK
  5
83
330
82
100
AcDbEntity
  8
0
100
AcDbBlockBegin
  2
BLOCK1315
 70
     0
 10
0.0
 20
0.0
 30
0.0
  3
BLOCK1315
  1

  0
TEXT
  5
13C
330
82
100
AcDbEntity
  8
0
 62
     7
370
    18
100
AcDbText
 10
290.776215
 20
129.326218
 30
0.0
 40
3.5
  1
3
 41
0.863838
 72
     5
 11
293.223755
 21
129.326218
 31
0.0
100
AcDbText
  0
ENDBLK
  5
84
330
82
100
AcDbEntity
  8
0
100
AcDbBlockEnd
  0
BLOCK
  5
86
330
85
100
AcDbEntity
  8
0
100
AcDbBlockBegin
  2
BLOCK1316
 70
     0
 10
0.0
 20
0.0
 30
0.0
  3
BLOCK1316
  1

  0
TEXT
  5
13D
330
85
100
AcDbEntity
  8
0
 62
     7
370
    18
100
AcDbText
 10
6.923776
 20
130.02623
 30
0.0
 40
3.5
  1
3
 50
90.0
 41
0.863843
 72
     5
 11
6.923776
 21
132.473785
 31
0.0
100
AcDbText
  0
ENDBLK
  5
87
330
85
100
AcDbEntity
  8
0
100
AcDbBlockEnd
  0
BLOCK
  5
89
330
88
100
AcDbEntity
  8
0
100
AcDbBlockBegin
  2
BLOCK1317
 70
     0
 10
0.0
 20
0.0
 30
0.0
  3
BLOCK1317
  1

  0
TEXT
  5
13E
330
88
100
AcDbEntity
  8
0
 62
     7
370
    18
100
AcDbText
 10
290.776215
 20
76.826225
 30
0.0
 40
3.5
  1
2
 41
0.863838
 72
     5
 11
293.223755
 21
76.826225
 31
0.0
100
AcDbText
  0
ENDBLK
  5
8A
330
88
100
AcDbEntity
  8
0
100
AcDbBlockEnd
  0
BLOCK
  5
8C
330
8B
100
AcDbEntity
  8
0
100
AcDbBlockBegin
  2
BLOCK1318
 70
     0
 10
0.0
 20
0.0
 30
0.0
  3
BLOCK1318
  1

  0
TEXT
  5
13F
330
8B
100
AcDbEntity
  8
0
 62
     7
370
    18
100
AcDbText
 10
6.923776
 20
77.526222
 30
0.0
 40
3.5
  1
2
 50
90.0
 41
0.863843
 72
     5
 11
6.923776
 21
79.973778
 31
0.0
100
AcDbText
  0
ENDBLK
  5
8D
330
8B
100
AcDbEntity
  8
0
100
AcDbBlockEnd
  0
BLOCK
  5
8F
330
8E
100
AcDbEntity
  8
0
100
AcDbBlockBegin
  2
BLOCK1319
 70
     0
 10
0.0
 20
0.0
 30
0.0
  3
BLOCK1319
  1

  0
TEXT
  5
140
330
8E
100
AcDbEntity
  8
0
 62
     7
370
    18
100
AcDbText
 10
290.600006
 20
181.826218
 30
0.0
 40
3.5
  1
4
 41
0.933329
 72
     5
 11
293.399994
 21
181.826218
 31
0.0
100
AcDbText
  0
ENDBLK
  5
90
330
8E
100
AcDbEntity
  8
0
100
AcDbBlockEnd
  0
BLOCK
  5
92
330
91
100
AcDbEntity
  8
0
100
AcDbBlockBegin
  2
BLOCK1320
 70
     0
 10
0.0
 20
0.0
 30
0.0
  3
BLOCK1320
  1

  0
TEXT
  5
141
330
91
100
AcDbEntity
  8
0
 62
     7
370
    18
100
AcDbText
 10
6.923776
 20
182.350006
 30
0.0
 40
3.5
  1
4
 50
90.0
 41
0.933334
 72
     5
 11
6.923776
 21
185.150009
 31
0.0
100
AcDbText
  0
ENDBLK
  5
93
330
91
100
AcDbEntity
  8
0
100
AcDbBlockEnd
  0
BLOCK
  5
95
330
94
100
AcDbEntity
  8
0
100
AcDbBlockBegin
  2
BLOCK1321
 70
     0
 10
0.0
 20
0.0
 30
0.0
  3
BLOCK1321
  1

  0
TEXT
  5
142
330
94
100
AcDbEntity
  8
0
 62
     7
370
    18
100
AcDbText
 10
291.126221
 20
24.326223
 30
0.0
 40
3.5
  1
1
 41
0.953214
 72
     5
 11
292.873779
 21
24.326223
 31
0.0
100
AcDbText
  0
ENDBLK
  5
96
330
94
100
AcDbEntity
  8
0
100
AcDbBlockEnd
  0
BLOCK
  5
98
330
97
100
AcDbEntity
  8
0
100
AcDbBlockBegin
  2
BLOCK1322
 70
     0
 10
0.0
 20
0.0
 30
0.0
  3
BLOCK1322
  1

  0
TEXT
  5
143
330
97
100
AcDbEntity
  8
0
 62
     7
370
    18
100
AcDbText
 10
6.923776
 20
25.376225
 30
0.0
 40
3.5
  1
1
 50
90.0
 41
0.953211
 72
     5
 11
6.923776
 21
27.123777
 31
0.0
100
AcDbText
  0
ENDBLK
  5
99
330
97
100
AcDbEntity
  8
0
100
AcDbBlockEnd
  0
BLOCK
  5
9B
330
9A
100
AcDbEntity
  8
0
100
AcDbBlockBegin
  2
BLOCK1323
 70
     0
 10
0.0
 20
0.0
 30
0.0
  3
BLOCK1323
  1

  0
TEXT
  5
144
330
9A
100
AcDbEntity
  8
0
 62
     7
370
    18
100
AcDbText
 10
98.0
 20
11.175525
 30
0.0
 40
1.5
  1
This drawing is our property; it can't be reproduced or communicated without our written agreement.
 41
0.779092
 72
     5
 11
192.437073
 21
11.175525
 31
0.0
100
AcDbText
  0
ENDBLK
  5
9C
330
9A
100
AcDbEntity
  8
0
100
AcDbBlockEnd
  0
BLOCK
  5
9E
330
9D
100
AcDbEntity
  8
0
100
AcDbBlockBegin
  2
BLOCK1324
 70
     0
 10
0.0
 20
0.0
 30
0.0
  3
BLOCK1324
  1

  0
TEXT
  5
145
330
9D
100
AcDbEntity
  8
0
 62
     7
370
    18
100
AcDbText
 10
98.0
 20
24.751049
 30
0.0
 40
1.5
  1
SCALE
 41
0.857432
 72
     5
 11
103.695801
 21
24.751049
 31
0.0
100
AcDbText
  0
ENDBLK
  5
9F
330
9D
100
AcDbEntity
  8
0
100
AcDbBlockEnd
  0
BLOCK
  5
A1
330
A0
100
AcDbEntity
  8
0
100
AcDbBlockBegin
  2
BLOCK1325
 70
     0
 10
0.0
 20
0.0
 30
0.0
  3
BLOCK1325
  1

  0
TEXT
  5
146
330
A0
100
AcDbEntity
  8
0
 62
     7
370
    18
100
AcDbText
 10
96.755241
 20
16.0
 30
0.0
 40
5.0
  1
  1:1
 41
0.631999
 72
     5
 11
109.244751
 21
16.0
 31
0.0
100
AcDbText
  0
ENDBLK
  5
A2
330
A0
100
AcDbEntity
  8
0
100
AcDbBlockEnd
  0
BLOCK
  5
A4
330
A3
100
AcDbEntity
  8
0
100
AcDbBlockBegin
  2
BLOCK1326
 70
     0
 10
0.0
 20
0.0
 30
0.0
  3
BLOCK1326
  1

  0
TEXT
  5
147
330
A3
100
AcDbEntity
  8
0
 62
     7
370
    18
100
AcDbText
 10
118.0
 20
24.751049
 30
0.0
 40
1.5
  1
WEIGHT (kg)
 41
0.802234
 72
     5
 11
128.944763
 21
24.751049
 31
0.0
100
AcDbText
  0
ENDBLK
  5
A5
330
A3
100
AcDbEntity
  8
0
100
AcDbBlockEnd
  0
BLOCK
  5
A7
330
A6
100
AcDbEntity
  8
0
100
AcDbBlockBegin
  2
BLOCK1327
 70
     0
 10
0.0
 20
0.0
 30
0.0
  3
BLOCK1327
  1

  0
TEXT
  5
148
330
A6
100
AcDbEntity
  8
0
 62
     7
370
    18
100
AcDbText
 10
123.381119
 20
16.0
 30
0.0
 40
5.0
  1
0,02
 41
0.767143
 72
     5
 11
135.618881
 21
16.0
 31
0.0
100
AcDbText
  0
ENDBLK
  5
A8
330
A6
100
AcDbEntity
  8
0
100
AcDbBlockEnd
  0
BLOCK
  5
AA
330
A9
100
AcDbEntity
  8
0
100
AcDbBlockBegin
  2
BLOCK1328
 70
     0
 10
0.0
 20
0.0
 30
0.0
  3
BLOCK1328
  1

  0
TEXT
  5
149
330
A9
100
AcDbEntity
  8
0
 62
     7
370
    18
100
AcDbText
 10
143.0
 20
24.751049
 30
0.0
 40
1.5
  1
MATERIAL
 41
0.899371
 72
     5
 11
151.993713
 21
24.751049
 31
0.0
100
AcDbText
  0
ENDBLK
  5
AB
330
A9
100
AcDbEntity
  8
0
100
AcDbBlockEnd
  0
BLOCK
  5
AD
330
AC
100
AcDbEntity
  8
0
100
AcDbBlockBegin
  2
BLOCK1329
 70
     0
 10
0.0
 20
0.0
 30
0.0
  3
BLOCK1329
  1

  0
TEXT
  5
14A
330
AC
100
AcDbEntity
  8
0
 62
     7
370
    18
100
AcDbText
 10
142.433563
 20
15.6
 30
0.0
 40
4.0
  1
Polióxido de Metileno (POM)-POLIACETAL
 41
0.788557
 72
     5
 11
241.566437
 21
15.6
 31
0.0
100
AcDbText
  0
ENDBLK
  5
AE
330
AC
100
AcDbEntity
  8
0
100
AcDbBlockEnd
  0
BLOCK
  5
B0
330
AF
100
AcDbEntity
  8
0
100
AcDbBlockBegin
  2
BLOCK1330
 70
     0
 10
0.0
 20
0.0
 30
0.0
  3
BLOCK1330
  1

  0
TEXT
  5
14B
330
AF
100
AcDbEntity
  8
0
 62
     7
370
    18
100
AcDbText
 10
243.0
 20
24.751049
 30
0.0
 40
1.5
  1
SHEET
 41
0.839691
 72
     5
 11
248.697906
 21
24.751049
 31
0.0
100
AcDbText
  0
ENDBLK
  5
B1
330
AF
100
AcDbEntity
  8
0
100
AcDbBlockEnd
  0
BLOCK
  5
B3
330
B2
100
AcDbEntity
  8
0
100
AcDbBlockBegin
  2
BLOCK1331
 70
     0
 10
0.0
 20
0.0
 30
0.0
  3
BLOCK1331
  1

  0
TEXT
  5
14C
330
B2
100
AcDbEntity
  8
0
 62
     7
370
    18
100
AcDbText
 10
247.755249
 20
16.0
 30
0.0
 40
5.0
  1
1/1
 41
0.672753
 72
     5
 11
256.244751
 21
16.0
 31
0.0
100
AcDbText
  0
ENDBLK
  5
B4
330
B2
100
AcDbEntity
  8
0
100
AcDbBlockEnd
  0
BLOCK
  5
B6
330
B5
100
AcDbEntity
  8
0
100
AcDbBlockBegin
  2
BLOCK1332
 70
     0
 10
0.0
 20
0.0
 30
0.0
  3
BLOCK1332
  1

  0
TEXT
  5
14D
330
B5
100
AcDbEntity
  8
0
 62
     7
370
    18
100
AcDbText
 10
98.0
 20
37.751049
 30
0.0
 40
1.5
  1
SIZE
 41
0.839548
 72
     5
 11
101.897903
 21
37.751049
 31
0.0
100
AcDbText
  0
ENDBLK
  5
B7
330
B5
100
AcDbEntity
  8
0
100
AcDbBlockEnd
  0
BLOCK
  5
B9
330
B8
100
AcDbEntity
  8
0
100
AcDbBlockBegin
  2
BLOCK1333
 70
     0
 10
0.0
 20
0.0
 30
0.0
  3
BLOCK1333
  1

  0
TEXT
  5
14E
330
B8
100
AcDbEntity
  8
0
 62
     7
370
    18
100
AcDbText
 10
102.751747
 20
31.0
 30
0.0
 40
5.0
  1
A4
 41
0.991259
 72
     5
 11
111.248253
 21
31.0
 31
0.0
100
AcDbText
  0
ENDBLK
  5
BA
330
B8
100
AcDbEntity
  8
0
100
AcDbBlockEnd
  0
BLOCK
  5
BC
330
BB
100
AcDbEntity
  8
0
100
AcDbBlockBegin
  2
BLOCK1334
 70
     0
 10
0.0
 20
0.0
 30
0.0
  3
BLOCK1334
  1

  0
TEXT
  5
14F
330
BB
100
AcDbEntity
  8
0
 62
     7
370
    18
100
AcDbText
 10
177.510498
 20
30.751749
 30
0.0
 40
5.0
  1
OXYGEN BRASIL
 41
0.832842
 72
     5
 11
226.489517
 21
30.751749
 31
0.0
100
AcDbText
  0
ENDBLK
  5
BD
330
BB
100
AcDbEntity
  8
0
100
AcDbBlockEnd
  0
BLOCK
  5
BF
330
BE
100
AcDbEntity
  8
0
100
AcDbBlockBegin
  2
BLOCK1335
 70
     0
 10
0.0
 20
0.0
 30
0.0
  3
BLOCK1335
  1

  0
TEXT
  5
150
330
BE
100
AcDbEntity
  8
0
 62
     7
370
    18
100
AcDbText
 10
98.0
 20
52.751049
 30
0.0
 40
1.5
  1
CHECKED BY:
 41
0.77958
 72
     5
 11
109.693703
 21
52.751049
 31
0.0
100
AcDbText
  0
ENDBLK
  5
C0
330
BE
100
AcDbEntity
  8
0
100
AcDbBlockEnd
  0
BLOCK
  5
C2
330
C1
100
AcDbEntity
  8
0
100
AcDbBlockBegin
  2
BLOCK1336
 70
     0
 10
0.0
 20
0.0
 30
0.0
  3
BLOCK1336
  1

  0
TEXT
  5
151
330
C1
100
AcDbEntity
  8
0
 62
     7
370
    18
100
AcDbText
 10
115.453148
 20
48.700001
 30
0.0
 40
3.0
  1
XXX
 41
0.993964
 72
     5
 11
123.546852
 21
48.700001
 31
0.0
100
AcDbText
  0
ENDBLK
  5
C3
330
C1
100
AcDbEntity
  8
0
100
AcDbBlockEnd
  0
BLOCK
  5
C5
330
C4
100
AcDbEntity
  8
0
100
AcDbBlockBegin
  2
BLOCK1337
 70
     0
 10
0.0
 20
0.0
 30
0.0
  3
BLOCK1337
  1

  0
TEXT
  5
152
330
C4
100
AcDbEntity
  8
0
 62
     7
370
    18
100
AcDbText
 10
98.0
 20
45.251049
 30
0.0
 40
1.5
  1
DATE:
 41
0.9182
 72
     5
 11
103.246857
 21
45.251049
 31
0.0
100
AcDbText
  0
ENDBLK
  5
C6
330
C4
100
AcDbEntity
  8
0
100
AcDbBlockEnd
  0
BLOCK
  5
C8
330
C7
100
AcDbEntity
  8
0
100
AcDbBlockBegin
  2
BLOCK1338
 70
     0
 10
0.0
 20
0.0
 30
0.0
  3
BLOCK1338
  1

  0
TEXT
  5
153
330
C7
100
AcDbEntity
  8
0
 62
     7
370
    18
100
AcDbText
 10
115.453148
 20
41.200001
 30
0.0
 40
3.0
  1
XXX
 41
0.993964
 72
     5
 11
123.546852
 21
41.200001
 31
0.0
100
AcDbText
  0
ENDBLK
  5
C9
330
C7
100
AcDbEntity
  8
0
100
AcDbBlockEnd
  0
BLOCK
  5
CB
330
CA
100
AcDbEntity
  8
0
100
AcDbBlockBegin
  2
BLOCK1339
 70
     0
 10
0.0
 20
0.0
 30
0.0
  3
BLOCK1339
  1

  0
TEXT
  5
154
330
CA
100
AcDbEntity
  8
0
 62
     7
370
    18
100
AcDbText
 10
98.0
 20
67.751053
 30
0.0
 40
1.5
  1
DESIGNED BY:
 41
0.802887
 72
     5
 11
110.444756
 21
67.751053
 31
0.0
100
AcDbText
  0
ENDBLK
  5
CC
330
CA
100
AcDbEntity
  8
0
100
AcDbBlockEnd
  0
BLOCK
  5
CE
330
CD
100
AcDbEntity
  8
0
100
AcDbBlockBegin
  2
BLOCK1340
 70
     0
 10
0.0
 20
0.0
 30
0.0
  3
BLOCK1340
  1

  0
TEXT
  5
155
330
CD
100
AcDbEntity
  8
0
 62
     7
370
    18
100
AcDbText
 10
101.80629
 20
63.700001
 30
0.0
 40
3.0
  1
VOLUNT. ANONIMOS
 41
0.817531
 72
     5
 11
137.193695
 21
63.700001
 31
0.0
100
AcDbText
  0
ENDBLK
  5
CF
330
CD
100
AcDbEntity
  8
0
100
AcDbBlockEnd
  0
BLOCK
  5
D1
330
D0
100
AcDbEntity
  8
0
100
AcDbBlockBegin
  2
BLOCK1341
 70
     0
 10
0.0
 20
0.0
 30
0.0
  3
BLOCK1341
  1

  0
TEXT
  5
156
330
D0
100
AcDbEntity
  8
0
 62
     7
370
    18
100
AcDbText
 10
98.0
 20
60.251049
 30
0.0
 40
1.5
  1
DATE:
 41
0.9182
 72
     5
 11
103.246857
 21
60.251049
 31
0.0
100
AcDbText
  0
ENDBLK
  5
D2
330
D0
100
AcDbEntity
  8
0
100
AcDbBlockEnd
  0
BLOCK
  5
D4
330
D3
100
AcDbEntity
  8
0
100
AcDbBlockBegin
  2
BLOCK1342
 70
     0
 10
0.0
 20
0.0
 30
0.0
  3
BLOCK1342
  1

  0
TEXT
  5
157
330
D3
100
AcDbEntity
  8
0
 62
     7
370
    18
100
AcDbText
 10
108.859436
 20
56.200001
 30
0.0
 40
3.0
  1
09/04/2020
 41
0.741134
 72
     5
 11
130.140564
 21
56.200001
 31
0.0
100
AcDbText
  0
ENDBLK
  5
D5
330
D3
100
AcDbEntity
  8
0
100
AcDbBlockEnd
  0
BLOCK
  5
D7
330
D6
100
AcDbEntity
  8
0
100
AcDbBlockBegin
  2
BLOCK1343
 70
     0
 10
0.0
 20
0.0
 30
0.0
  3
BLOCK1343
  1

  0
TEXT
  5
158
330
D6
100
AcDbEntity
  8
0
 62
     7
370
    18
100
AcDbText
 10
164.914688
 20
51.152447
 30
0.0
 40
7.0
  1
ROLETE EXTERNO
 41
0.821077
 72
     5
 11
239.085312
 21
51.152447
 31
0.0
100
AcDbText
  0
ENDBLK
  5
D8
330
D6
100
AcDbEntity
  8
0
100
AcDbBlockEnd
  0
BLOCK
  5
DA
330
D9
100
AcDbEntity
  8
0
100
AcDbBlockBegin
  2
BLOCK1344
 70
     0
 10
0.0
 20
0.0
 30
0.0
  3
BLOCK1344
  1

  0
TEXT
  5
159
330
D9
100
AcDbEntity
  8
0
 62
     7
370
    18
100
AcDbText
 10
263.375885
 20
11.959208
 30
0.0
 40
2.5
  1
A
 41
1.110905
 72
     5
 11
265.624146
 21
11.959208
 31
0.0
100
AcDbText
  0
ENDBLK
  5
DB
330
D9
100
AcDbEntity
  8
0
100
AcDbBlockEnd
  0
BLOCK
  5
DD
330
DC
100
AcDbEntity
  8
0
100
AcDbBlockBegin
  2
BLOCK1345
 70
     0
 10
0.0
 20
0.0
 30
0.0
  3
BLOCK1345
  1

  0
TEXT
  5
15A
330
DC
100
AcDbEntity
  8
0
 62
     7
370
    18
100
AcDbText
 10
276.100708
 20
12.234033
 30
0.0
 40
2.0
  1
_
 41
1.180341
 72
     5
 11
277.899323
 21
12.234033
 31
0.0
100
AcDbText
  0
ENDBLK
  5
DE
330
DC
100
AcDbEntity
  8
0
100
AcDbBlockEnd
  0
BLOCK
  5
E0
330
DF
100
AcDbEntity
  8
0
100
AcDbBlockBegin
  2
BLOCK1346
 70
     0
 10
0.0
 20
0.0
 30
0.0
  3
BLOCK1346
  1

  0
TEXT
  5
15B
330
DF
100
AcDbEntity
  8
0
 62
     7
370
    18
100
AcDbText
 10
263.5
 20
18.625874
 30
0.0
 40
2.5
  1
B
 41
0.933333
 72
     5
 11
265.5
 21
18.625874
 31
0.0
100
AcDbText
  0
ENDBLK
  5
E1
330
DF
100
AcDbEntity
  8
0
100
AcDbBlockEnd
  0
BLOCK
  5
E3
330
E2
100
AcDbEntity
  8
0
100
AcDbBlockBegin
  2
BLOCK1347
 70
     0
 10
0.0
 20
0.0
 30
0.0
  3
BLOCK1347
  1

  0
TEXT
  5
15C
330
E2
100
AcDbEntity
  8
0
 62
     7
370
    18
100
AcDbText
 10
276.100708
 20
18.9007
 30
0.0
 40
2.0
  1
_
 41
1.180341
 72
     5
 11
277.899323
 21
18.9007
 31
0.0
100
AcDbText
  0
ENDBLK
  5
E4
330
E2
100
AcDbEntity
  8
0
100
AcDbBlockEnd
  0
BLOCK
  5
E6
330
E5
100
AcDbEntity
  8
0
100
AcDbBlockBegin
  2
BLOCK1348
 70
     0
 10
0.0
 20
0.0
 30
0.0
  3
BLOCK1348
  1

  0
TEXT
  5
15D
330
E5
100
AcDbEntity
  8
0
 62
     7
370
    18
100
AcDbText
 10
263.625885
 20
25.29254
 30
0.0
 40
2.5
  1
C
 41
0.815855
 72
     5
 11
265.374146
 21
25.29254
 31
0.0
100
AcDbText
  0
ENDBLK
  5
E7
330
E5
100
AcDbEntity
  8
0
100
AcDbBlockEnd
  0
BLOCK
  5
E9
330
E8
100
AcDbEntity
  8
0
100
AcDbBlockBegin
  2
BLOCK1349
 70
     0
 10
0.0
 20
0.0
 30
0.0
  3
BLOCK1349
  1

  0
TEXT
  5
15E
330
E8
100
AcDbEntity
  8
0
 62
     7
370
    18
100
AcDbText
 10
276.100708
 20
25.567366
 30
0.0
 40
2.0
  1
_
 41
1.180341
 72
     5
 11
277.899323
 21
25.567366
 31
0.0
100
AcDbText
  0
ENDBLK
  5
EA
330
E8
100
AcDbEntity
  8
0
100
AcDbBlockEnd
  0
BLOCK
  5
EC
330
EB
100
AcDbEntity
  8
0
100
AcDbBlockBegin
  2
BLOCK1350
 70
     0
 10
0.0
 20
0.0
 30
0.0
  3
BLOCK1350
  1

  0
TEXT
  5
15F
330
EB
100
AcDbEntity
  8
0
 62
     7
370
    18
100
AcDbText
 10
263.5
 20
31.959206
 30
0.0
 40
2.5
  1
D
 41
0.933333
 72
     5
 11
265.5
 21
31.959206
 31
0.0
100
AcDbText
  0
ENDBLK
  5
ED
330
EB
100
AcDbEntity
  8
0
100
AcDbBlockEnd
  0
BLOCK
  5
EF
330
EE
100
AcDbEntity
  8
0
100
AcDbBlockBegin
  2
BLOCK1351
 70
     0
 10
0.0
 20
0.0
 30
0.0
  3
BLOCK1351
  1

  0
TEXT
  5
160
330
EE
100
AcDbEntity
  8
0
 62
     7
370
    18
100
AcDbText
 10
276.100708
 20
32.234032
 30
0.0
 40
2.0
  1
_
 41
1.180341
 72
     5
 11
277.899323
 21
32.234032
 31
0.0
100
AcDbText
  0
ENDBLK
  5
F0
330
EE
100
AcDbEntity
  8
0
100
AcDbBlockEnd
  0
BLOCK
  5
F2
330
F1
100
AcDbEntity
  8
0
100
AcDbBlockBegin
  2
BLOCK1352
 70
     0
 10
0.0
 20
0.0
 30
0.0
  3
BLOCK1352
  1

  0
TEXT
  5
161
330
F1
100
AcDbEntity
  8
0
 62
     7
370
    18
100
AcDbText
 10
263.625885
 20
38.625874
 30
0.0
 40
2.5
  1
E
 41
0.863846
 72
     5
 11
265.374146
 21
38.625874
 31
0.0
100
AcDbText
  0
ENDBLK
  5
F3
330
F1
100
AcDbEntity
  8
0
100
AcDbBlockEnd
  0
BLOCK
  5
F5
330
F4
100
AcDbEntity
  8
0
100
AcDbBlockBegin
  2
BLOCK1353
 70
     0
 10
0.0
 20
0.0
 30
0.0
  3
BLOCK1353
  1

  0
TEXT
  5
162
330
F4
100
AcDbEntity
  8
0
 62
     7
370
    18
100
AcDbText
 10
276.100708
 20
38.9007
 30
0.0
 40
2.0
  1
_
 41
1.180341
 72
     5
 11
277.899323
 21
38.9007
 31
0.0
100
AcDbText
  0
ENDBLK
  5
F6
330
F4
100
AcDbEntity
  8
0
100
AcDbBlockEnd
  0
BLOCK
  5
F8
330
F7
100
AcDbEntity
  8
0
100
AcDbBlockBegin
  2
BLOCK1354
 70
     0
 10
0.0
 20
0.0
 30
0.0
  3
BLOCK1354
  1

  0
TEXT
  5
163
330
F7
100
AcDbEntity
  8
0
 62
     7
370
    18
100
AcDbText
 10
263.625885
 20
45.292542
 30
0.0
 40
2.5
  1
F
 41
0.863846
 72
     5
 11
265.374146
 21
45.292542
 31
0.0
100
AcDbText
  0
ENDBLK
  5
F9
330
F7
100
AcDbEntity
  8
0
100
AcDbBlockEnd
  0
BLOCK
  5
FB
330
FA
100
AcDbEntity
  8
0
100
AcDbBlockBegin
  2
BLOCK1355
 70
     0
 10
0.0
 20
0.0
 30
0.0
  3
BLOCK1355
  1

  0
TEXT
  5
164
330
FA
100
AcDbEntity
  8
0
 62
     7
370
    18
100
AcDbText
 10
276.100708
 20
45.567368
 30
0.0
 40
2.0
  1
_
 41
1.180341
 72
     5
 11
277.899323
 21
45.567368
 31
0.0
100
AcDbText
  0
ENDBLK
  5
FC
330
FA
100
AcDbEntity
  8
0
100
AcDbBlockEnd
  0
BLOCK
  5
FE
330
FD
100
AcDbEntity
  8
0
100
AcDbBlockBegin
  2
BLOCK1356
 70
     0
 10
0.0
 20
0.0
 30
0.0
  3
BLOCK1356
  1

  0
TEXT
  5
165
330
FD
100
AcDbEntity
  8
0
 62
     7
370
    18
100
AcDbText
 10
263.5
 20
51.959206
 30
0.0
 40
2.5
  1
G
 41
0.933333
 72
     5
 11
265.5
 21
51.959206
 31
0.0
100
AcDbText
  0
ENDBLK
  5
FF
330
FD
100
AcDbEntity
  8
0
100
AcDbBlockEnd
  0
BLOCK
  5
101
330
100
100
AcDbEntity
  8
0
100
AcDbBlockBegin
  2
BLOCK1357
 70
     0
 10
0.0
 20
0.0
 30
0.0
  3
BLOCK1357
  1

  0
TEXT
  5
166
330
100
100
AcDbEntity
  8
0
 62
     7
370
    18
100
AcDbText
 10
276.100708
 20
52.234032
 30
0.0
 40
2.0
  1
_
 41
1.180341
 72
     5
 11
277.899323
 21
52.234032
 31
0.0
100
AcDbText
  0
ENDBLK
  5
102
330
100
100
AcDbEntity
  8
0
100
AcDbBlockEnd
  0
BLOCK
  5
104
330
103
100
AcDbEntity
  8
0
100
AcDbBlockBegin
  2
BLOCK1358
 70
     0
 10
0.0
 20
0.0
 30
0.0
  3
BLOCK1358
  1

  0
TEXT
  5
167
330
103
100
AcDbEntity
  8
0
 62
     7
370
    18
100
AcDbText
 10
263.5
 20
58.625874
 30
0.0
 40
2.5
  1
H
 41
0.933333
 72
     5
 11
265.5
 21
58.625874
 31
0.0
100
AcDbText
  0
ENDBLK
  5
105
330
103
100
AcDbEntity
  8
0
100
AcDbBlockEnd
  0
BLOCK
  5
107
330
106
100
AcDbEntity
  8
0
100
AcDbBlockBegin
  2
BLOCK1359
 70
     0
 10
0.0
 20
0.0
 30
0.0
  3
BLOCK1359
  1

  0
TEXT
  5
168
330
106
100
AcDbEntity
  8
0
 62
     7
370
    18
100
AcDbText
 10
276.100708
 20
58.9007
 30
0.0
 40
2.0
  1
_
 41
1.180341
 72
     5
 11
277.899323
 21
58.9007
 31
0.0
100
AcDbText
  0
ENDBLK
  5
108
330
106
100
AcDbEntity
  8
0
100
AcDbBlockEnd
  0
BLOCK
  5
10A
330
109
100
AcDbEntity
  8
0
100
AcDbBlockBegin
  2
BLOCK1360
 70
     0
 10
0.0
 20
0.0
 30
0.0
  3
BLOCK1360
  1

  0
TEXT
  5
169
330
109
100
AcDbEntity
  8
0
 62
     7
370
    18
100
AcDbText
 10
264.125885
 20
65.292542
 30
0.0
 40
2.5
  1
I
 41
1.571347
 72
     5
 11
264.874146
 21
65.292542
 31
0.0
100
AcDbText
  0
ENDBLK
  5
10B
330
109
100
AcDbEntity
  8
0
100
AcDbBlockEnd
  0
BLOCK
  5
10D
330
10C
100
AcDbEntity
  8
0
100
AcDbBlockBegin
  2
BLOCK1361
 70
     0
 10
0.0
 20
0.0
 30
0.0
  3
BLOCK1361
  1

  0
TEXT
  5
16A
330
10C
100
AcDbEntity
  8
0
 62
     7
370
    18
100
AcDbText
 10
276.100708
 20
65.56736
 30
0.0
 40
2.0
  1
_
 41
1.180341
 72
     5
 11
277.899323
 21
65.56736
 31
0.0
100
AcDbText
  0
ENDBLK
  5
10E
330
10C
100
AcDbEntity
  8
0
100
AcDbBlockEnd
  0
BLOCK
  5
110
330
10F
100
AcDbEntity
  8
0
100
AcDbBlockBegin
  2
BLOCK1362
 70
     0
 10
0.0
 20
0.0
 30
0.0
  3
BLOCK1362
  1

  0
LINE
  5
16B
330
10F
100
AcDbEntity
  8
0
 62
     7
370
    35
100
AcDbLine
 10
0.0
 20
32.958099
 30
0.0
 11
0.0
 21
27.958099
 31
0.0
  0
LINE
  5
16C
330
10F
100
AcDbEntity
  8
0
 62
     7
370
    35
100
AcDbLine
 10
0.0
 20
-24.16362
 30
0.0
 11
0.0
 21
-19.16362
 31
0.0
  0
LINE
  5
16D
330
10F
100
AcDbEntity
  8
0
  6
DASHDOT
 62
     7
370
    18
100
AcDbLine
 10
0.0
 20
27.958099
 30
0.0
 11
0.0
 21
-19.16362
 31
0.0
  0
LINE
  5
16E
330
10F
100
AcDbEntity
  8
0
 62
     7
370
    18
100
AcDbLine
 10
-4.346666
 20
30.458099
 30
0.0
 11
-20.0
 21
30.458099
 31
0.0
  0
SOLID
  5
16F
330
10F
100
AcDbEntity
  8
0
 62
     7
370
    18
100
AcDbTrace
 10
-4.346666
 20
29.293413
 30
0.0
 11
0.0
 21
30.458099
 31
0.0
 12
-4.346666
 22
31.622786
 32
0.0
 13
-4.346666
 23
31.622786
 33
0.0
  0
TEXT
  5
170
330
10F
100
AcDbEntity
  8
0
 62
     7
370
    18
100
AcDbText
 10
-13.3332
 20
33.083099
 30
0.0
 40
5.0
  1
A
 41
1.110901
 72
     5
 11
-8.836697
 21
33.083099
 31
0.0
100
AcDbText
  0
LINE
  5
171
330
10F
100
AcDbEntity
  8
0
 62
     7
370
    18
100
AcDbLine
 10
-4.346666
 20
-21.66362
 30
0.0
 11
-20.0
 21
-21.66362
 31
0.0
  0
SOLID
  5
172
330
10F
100
AcDbEntity
  8
0
 62
     7
370
    18
100
AcDbTrace
 10
-4.346666
 20
-22.828306
 30
0.0
 11
0.0
 21
-21.66362
 31
0.0
 12
-4.346666
 22
-20.498934
 32
0.0
 13
-4.346666
 23
-20.498934
 33
0.0
  0
TEXT
  5
173
330
10F
100
AcDbEntity
  8
0
 62
     7
370
    18
100
AcDbText
 10
-13.3332
 20
-19.03862
 30
0.0
 40
5.0
  1
A
 41
1.110901
 72
     5
 11
-8.836697
 21
-19.03862
 31
0.0
100
AcDbText
  0
ENDBLK
  5
111
330
10F
100
AcDbEntity
  8
0
100
AcDbBlockEnd
  0
BLOCK
  5
113
330
112
100
AcDbEntity
  8
0
100
AcDbBlockBegin
  2
*D55
 70
     1
 10
0.0
 20
0.0
 30
0.0
  3
*D55
  1

  0
SOLID
  5
174
330
112
100
AcDbEntity
  8
0
 62
     7
370
    18
100
AcDbTrace
 10
54.152628
 20
146.67343
 30
0.0
 11
52.507884
 21
144.164484
 31
0.0
 12
54.152628
 22
146.67343
 32
0.0
 13
55.186748
 23
145.514923
 33
0.0
  0
SOLID
  5
175
330
112
100
AcDbEntity
  8
0
 62
     7
370
    18
100
AcDbTrace
 10
66.529592
 20
155.639894
 30
0.0
 11
68.174337
 21
158.14884
 31
0.0
 12
66.529592
 22
155.639894
 32
0.0
 13
65.495473
 23
156.798401
 33
0.0
  0
TEXT
  5
176
330
112
100
AcDbEntity
  8
0
 62
     7
370
    18
100
AcDbText
 10
89.668676
 20
172.688478
 30
0.0
 40
3.5
  1
21
 41
0.811956
 72
     5
 11
93.863781
 21
172.688478
 31
0.0
100
AcDbText
  0
TEXT
  5
177
330
112
100
AcDbEntity
  8
0
 62
     7
370
    18
100
AcDbText
 10
95.613785
 20
172.688478
 30
0.0
 40
3.5
  1
%%p0,1
 41
0.704457
 72
     5
 11
103.480217
 21
172.688478
 31
0.0
100
AcDbText
  0
TEXT
  5
178
330
112
100
AcDbEntity
  8
0
 62
     7
370
    18
100
AcDbText
 10
86.102011
 20
172.688478
 30
0.0
 40
3.5
  1
%%c
 41
0.905882
 72
     5
 11
88.668676
 21
172.688478
 31
0.0
100
AcDbText
  0
LINE
  5
179
330
112
100
AcDbEntity
  8
0
 62
     7
370
    18
100
AcDbLine
 10
81.102011
 20
169.688478
 30
0.0
 11
103.480217
 21
169.688478
 31
0.0
  0
LINE
  5
17A
330
112
100
AcDbEntity
  8
0
 62
     7
370
    18
100
AcDbLine
 10
54.669688
 20
146.094177
 30
0.0
 11
66.012532
 21
156.219147
 31
0.0
  0
LINE
  5
17B
330
112
100
AcDbEntity
  8
0
 62
     7
370
    18
100
AcDbLine
 10
68.174337
 20
158.14884
 30
0.0
 11
81.102011
 21
169.688478
 31
0.0
  0
POLYLINE
  5
17C
330
112
100
AcDbEntity
  8
0
 62
     7
370
    18
100
AcDb2dPolyline
 66
     1
 10
0.0
 20
0.0
 30
0.0
 70
     1
  0
VERTEX
  5
17D
330
17C
100
AcDbEntity
  8
0
370
     0
100
AcDbVertex
100
AcDb2dVertex
 10
54.152628
 20
146.67343
 30
0.0
  0
VERTEX
  5
17E
330
17C
100
AcDbEntity
  8
0
370
     0
100
AcDbVertex
100
AcDb2dVertex
 10
52.507884
 20
144.164484
 30
0.0
  0
VERTEX
  5
17F
330
17C
100
AcDbEntity
  8
0
370
     0
100
AcDbVertex
100
AcDb2dVertex
 10
55.186748
 20
145.514923
 30
0.0
  0
SEQEND
  5
180
330
17C
100
AcDbEntity
  8
0
 62
     7
370
    18
  0
POLYLINE
  5
181
330
112
100
AcDbEntity
  8
0
 62
     7
370
    18
100
AcDb2dPolyline
 66
     1
 10
0.0
 20
0.0
 30
0.0
 70
     1
  0
VERTEX
  5
182
330
181
100
AcDbEntity
  8
0
370
     0
100
AcDbVertex
100
AcDb2dVertex
 10
66.529592
 20
155.639894
 30
0.0
  0
VERTEX
  5
183
330
181
100
AcDbEntity
  8
0
370
     0
100
AcDbVertex
100
AcDb2dVertex
 10
68.174337
 20
158.14884
 30
0.0
  0
VERTEX
  5
184
330
181
100
AcDbEntity
  8
0
370
     0
100
AcDbVertex
100
AcDb2dVertex
 10
65.495473
 20
156.798401
 30
0.0
  0
SEQEND
  5
185
330
181
100
AcDbEntity
  8
0
 62
     7
370
    18
  0
ENDBLK
  5
114
330
112
100
AcDbEntity
  8
0
100
AcDbBlockEnd
  0
BLOCK
  5
116
330
115
100
AcDbEntity
  8
0
100
AcDbBlockBegin
  2
*D56
 70
     1
 10
0.0
 20
0.0
 30
0.0
  3
*D56
  1

  0
SOLID
  5
186
330
115
100
AcDbEntity
  8
0
 62
     7
370
    18
100
AcDbTrace
 10
58.833979
 20
153.977163
 30
0.0
 11
56.313139
 21
155.603622
 31
0.0
 12
58.833979
 22
153.977163
 32
0.0
 13
57.683021
 23
152.934647
 33
0.0
  0
SOLID
  5
187
330
115
100
AcDbEntity
  8
0
 62
     7
370
    18
100
AcDbTrace
 10
61.848241
 20
148.336161
 30
0.0
 11
64.369081
 21
146.709702
 31
0.0
 12
61.848241
 22
148.336161
 32
0.0
 13
62.999199
 23
149.378677
 33
0.0
  0
TEXT
  5
188
330
115
100
AcDbEntity
  8
0
 62
     7
370
    18
100
AcDbText
 10
90.041687
 20
130.824402
 30
0.0
 40
3.5
  1
12
 41
0.680288
 72
     5
 11
94.236794
 21
130.824402
 31
0.0
100
AcDbText
  0
TEXT
  5
189
330
115
100
AcDbEntity
  8
0
 62
     7
370
    18
100
AcDbText
 10
95.986794
 20
130.824402
 30
0.0
 40
3.5
  1
H7
 41
0.807316
 72
     5
 11
101.234344
 21
130.824402
 31
0.0
100
AcDbText
  0
TEXT
  5
18A
330
115
100
AcDbEntity
  8
0
 62
     7
370
    18
100
AcDbText
 10
108.234344
 20
136.074401
 30
0.0
 40
3.5
  1
+0,018
 41
0.677604
 72
     5
 11
120.995888
 21
136.074401
 31
0.0
100
AcDbText
  0
TEXT
  5
18B
330
115
100
AcDbEntity
  8
0
 62
     7
370
    18
100
AcDbText
 10
108.234344
 20
130.824402
 30
0.0
 40
3.5
  1
 0
 41
0.718035
 72
     5
 11
112.781898
 21
130.824402
 31
0.0
100
AcDbText
  0
TEXT
  5
18C
330
115
100
AcDbEntity
  8
0
 62
     7
370
    18
100
AcDbText
 10
99.484344
 20
130.824402
 30
0.0
 40
8.75
  1
(
 41
1.909091
 72
     5
 11
108.234344
 21
130.824402
 31
0.0
100
AcDbText
  0
TEXT
  5
18D
330
115
100
AcDbEntity
  8
0
 62
     7
370
    18
100
AcDbText
 10
120.995888
 20
130.824402
 30
0.0
 40
8.75
  1
)
 41
2.1
 72
     5
 11
129.745888
 21
130.824402
 31
0.0
100
AcDbText
  0
TEXT
  5
18E
330
115
100
AcDbEntity
  8
0
 62
     7
370
    18
100
AcDbText
 10
86.475021
 20
130.824402
 30
0.0
 40
3.5
  1
%%c
 41
0.905882
 72
     5
 11
89.041687
 21
130.824402
 31
0.0
100
AcDbText
  0
LINE
  5
18F
330
115
100
AcDbEntity
  8
0
 62
     7
370
    18
100
AcDbLine
 10
81.475021
 20
127.824402
 30
0.0
 11
129.745888
 21
127.824402
 31
0.0
  0
LINE
  5
190
330
115
100
AcDbEntity
  8
0
 62
     7
370
    18
100
AcDbLine
 10
58.2585
 20
153.455905
 30
0.0
 11
62.42372
 21
148.857419
 31
0.0
  0
LINE
  5
191
330
115
100
AcDbEntity
  8
0
 62
     7
370
    18
100
AcDbLine
 10
64.369081
 20
146.709702
 30
0.0
 11
81.475021
 21
127.824402
 31
0.0
  0
POLYLINE
  5
192
330
115
100
AcDbEntity
  8
0
 62
     7
370
    18
100
AcDb2dPolyline
 66
     1
 10
0.0
 20
0.0
 30
0.0
 70
     1
  0
VERTEX
  5
193
330
192
100
AcDbEntity
  8
0
370
     0
100
AcDbVertex
100
AcDb2dVertex
 10
58.833979
 20
153.977163
 30
0.0
  0
VERTEX
  5
194
330
192
100
AcDbEntity
  8
0
370
     0
100
AcDbVertex
100
AcDb2dVertex
 10
56.313139
 20
155.603622
 30
0.0
  0
VERTEX
  5
195
330
192
100
AcDbEntity
  8
0
370
     0
100
AcDbVertex
100
AcDb2dVertex
 10
57.683021
 20
152.934647
 30
0.0
  0
SEQEND
  5
196
330
192
100
AcDbEntity
  8
0
 62
     7
370
    18
  0
POLYLINE
  5
197
330
115
100
AcDbEntity
  8
0
 62
     7
370
    18
100
AcDb2dPolyline
 66
     1
 10
0.0
 20
0.0
 30
0.0
 70
     1
  0
VERTEX
  5
198
330
197
100
AcDbEntity
  8
0
370
     0
100
AcDbVertex
100
AcDb2dVertex
 10
61.848241
 20
148.336161
 30
0.0
  0
VERTEX
  5
199
330
197
100
AcDbEntity
  8
0
370
     0
100
AcDbVertex
100
AcDb2dVertex
 10
64.369081
 20
146.709702
 30
0.0
  0
VERTEX
  5
19A
330
197
100
AcDbEntity
  8
0
370
     0
100
AcDbVertex
100
AcDb2dVertex
 10
62.999199
 20
149.378677
 30
0.0
  0
SEQEND
  5
19B
330
197
100
AcDbEntity
  8
0
 62
     7
370
    18
  0
ENDBLK
  5
117
330
115
100
AcDbEntity
  8
0
100
AcDbBlockEnd
  0
BLOCK
  5
119
330
118
100
AcDbEntity
  8
0
100
AcDbBlockBegin
  2
BLOCK1363
 70
     0
 10
0.0
 20
0.0
 30
0.0
  3
BLOCK1363
  1

  0
LINE
  5
19C
330
118
100
AcDbEntity
  8
0
  6
DASHDOT
 62
     7
370
    18
100
AcDbLine
 10
13.65
 20
0.0
 30
0.0
 11
-13.65
 21
0.0
 31
0.0
  0
LINE
  5
19D
330
118
100
AcDbEntity
  8
0
  6
DASHDOT
 62
     7
370
    18
100
AcDbLine
 10
0.0
 20
13.65
 30
0.0
 11
0.0
 21
-13.65
 31
0.0
  0
ENDBLK
  5
11A
330
118
100
AcDbEntity
  8
0
100
AcDbBlockEnd
  0
BLOCK
  5
11C
330
11B
100
AcDbEntity
  8
0
100
AcDbBlockBegin
  2
BLOCK1364
 70
     0
 10
0.0
 20
0.0
 30
0.0
  3
BLOCK1364
  1

  0
CIRCLE
  5
19E
330
11B
100
AcDbEntity
  8
0
 62
     7
370
    35
100
AcDbCircle
 10
0.0
 20
0.0
 30
0.0
 40
6.0
  0
CIRCLE
  5
19F
330
11B
100
AcDbEntity
  8
0
 62
     7
370
    35
100
AcDbCircle
 10
0.0
 20
0.0
 30
0.0
 40
7.000000000000001
  0
CIRCLE
  5
1A0
330
11B
100
AcDbEntity
  8
0
 62
     7
370
    35
100
AcDbCircle
 10
0.0
 20
0.0
 30
0.0
 40
9.5
  0
CIRCLE
  5
1A1
330
11B
100
AcDbEntity
  8
0
 62
     7
370
    35
100
AcDbCircle
 10
0.0
 20
0.0
 30
0.0
 40
10.5
  0
ENDBLK
  5
11D
330
11B
100
AcDbEntity
  8
0
100
AcDbBlockEnd
  0
BLOCK
  5
11F
330
11E
100
AcDbEntity
  8
0
100
AcDbBlockBegin
  2
BLOCK1365
 70
     0
 10
0.0
 20
0.0
 30
0.0
  3
BLOCK1365
  1

  0
TEXT
  5
1A2
330
11E
100
AcDbEntity
  8
0
 62
     7
370
    18
100
AcDbText
 10
98.563599
 20
9.218924
 30
0.0
 40
3.5
  1
2x 1X45
 41
0.761678
 72
     5
 11
115.701363
 21
9.218924
 31
0.0
100
AcDbText
  0
TEXT
  5
1A3
330
11E
100
AcDbEntity
  8
0
 62
     7
370
    18
100
AcDbText
 10
115.701363
 20
9.218924
 30
0.0
 40
3.5
  1
%%d
 41
0.839996
 72
     5
 11
116.40136
 21
9.218924
 31
0.0
100
AcDbText
  0
POLYLINE
  5
1A4
330
11E
100
AcDbEntity
  8
0
 62
     7
370
    18
100
AcDb2dPolyline
 66
     1
 10
0.0
 20
0.0
 30
0.0
  0
VERTEX
  5
1A5
330
1A4
100
AcDbEntity
  8
0
370
     0
100
AcDbVertex
100
AcDb2dVertex
 10
83.822525
 20
-3.724453
 30
0.0
  0
VERTEX
  5
1A6
330
1A4
100
AcDbEntity
  8
0
370
     0
100
AcDbVertex
100
AcDb2dVertex
 10
95.365906
 20
7.818923
 30
0.0
  0
VERTEX
  5
1A7
330
1A4
100
AcDbEntity
  8
0
370
     0
100
AcDbVertex
100
AcDb2dVertex
 10
116.40136
 20
7.818923
 30
0.0
  0
SEQEND
  5
1A8
330
1A4
100
AcDbEntity
  8
0
 62
     7
370
    18
  0
SOLID
  5
1A9
330
11E
100
AcDbEntity
  8
0
 62
     7
370
    18
100
AcDbTrace
 10
83.273491
 20
-3.175415
 30
0.0
 11
81.773491
 21
-5.773491
 31
0.0
 12
84.371567
 22
-4.273491
 32
0.0
 13
84.371567
 23
-4.273491
 33
0.0
  0
LINE
  5
1AA
330
11E
100
AcDbEntity
  8
0
 62
     7
370
    18
100
AcDbLine
 10
82.480598
 20
-6.480597
 30
0.0
 11
81.292892
 21
-5.292893
 31
0.0
  0
ENDBLK
  5
120
330
11E
100
AcDbEntity
  8
0
100
AcDbBlockEnd
  0
BLOCK
  5
122
330
121
100
AcDbEntity
  8
0
100
AcDbBlockBegin
  2
BLOCK1366
 70
     0
 10
0.0
 20
0.0
 30
0.0
  3
BLOCK1366
  1

  0
TEXT
  5
1AB
330
121
100
AcDbEntity
  8
0
 62
     7
370
    18
100
AcDbText
 10
20.0
 20
-28.6
 30
0.0
 40
3.5
  1
Section view A-A
 41
0.799069
 72
     5
 11
57.423077
 21
-28.6
 31
0.0
100
AcDbText
  0
ENDBLK
  5
123
330
121
100
AcDbEntity
  8
0
100
AcDbBlockEnd
  0
BLOCK
  5
125
330
124
100
AcDbEntity
  8
0
100
AcDbBlockBegin
  2
*D61
 70
     1
 10
0.0
 20
0.0
 30
0.0
  3
*D61
  1

  0
SOLID
  5
1AC
330
124
100
AcDbEntity
  8
0
 62
     7
370
    18
100
AcDbTrace
 10
142.425626
 20
178.842695
 30
0.0
 11
139.527848
 21
178.066238
 31
0.0
 12
142.425626
 22
178.842695
 32
0.0
 13
142.425626
 23
177.289782
 33
0.0
  0
SOLID
  5
1AD
330
124
100
AcDbEntity
  8
0
 62
     7
370
    18
100
AcDbTrace
 10
219.630074
 20
177.289782
 30
0.0
 11
222.527848
 21
178.066238
 31
0.0
 12
219.630074
 22
177.289782
 32
0.0
 13
219.630074
 23
178.842695
 33
0.0
  0
TEXT
  5
1AE
330
124
100
AcDbEntity
  8
0
 62
     7
370
    18
100
AcDbText
 10
173.77208
 20
181.066238
 30
0.0
 40
3.5
  1
83
 41
0.793801
 72
     5
 11
178.667184
 21
181.066238
 31
0.0
100
AcDbText
  0
TEXT
  5
1AF
330
124
100
AcDbEntity
  8
0
 62
     7
370
    18
100
AcDbText
 10
180.417184
 20
181.066238
 30
0.0
 40
3.5
  1
%%p0,1
 41
0.704457
 72
     5
 11
188.283616
 21
181.066238
 31
0.0
100
AcDbText
  0
LINE
  5
1B0
330
124
100
AcDbEntity
  8
0
 62
     7
370
    18
100
AcDbLine
 10
139.527848
 20
158.156662
 30
0.0
 11
139.527848
 21
180.066238
 31
0.0
  0
LINE
  5
1B1
330
124
100
AcDbEntity
  8
0
 62
     7
370
    18
100
AcDbLine
 10
222.527848
 20
158.156662
 30
0.0
 11
222.527848
 21
180.066238
 31
0.0
  0
LINE
  5
1B2
330
124
100
AcDbEntity
  8
0
 62
     7
370
    18
100
AcDbLine
 10
142.425626
 20
178.066238
 30
0.0
 11
219.630074
 21
178.066238
 31
0.0
  0
POLYLINE
  5
1B3
330
124
100
AcDbEntity
  8
0
 62
     7
370
    18
100
AcDb2dPolyline
 66
     1
 10
0.0
 20
0.0
 30
0.0
 70
     1
  0
VERTEX
  5
1B4
330
1B3
100
AcDbEntity
  8
0
370
     0
100
AcDbVertex
100
AcDb2dVertex
 10
142.425626
 20
178.842695
 30
0.0
  0
VERTEX
  5
1B5
330
1B3
100
AcDbEntity
  8
0
370
     0
100
AcDbVertex
100
AcDb2dVertex
 10
139.527848
 20
178.066238
 30
0.0
  0
VERTEX
  5
1B6
330
1B3
100
AcDbEntity
  8
0
370
     0
100
AcDbVertex
100
AcDb2dVertex
 10
142.425626
 20
177.289782
 30
0.0
  0
SEQEND
  5
1B7
330
1B3
100
AcDbEntity
  8
0
 62
     7
370
    18
  0
POLYLINE
  5
1B8
330
124
100
AcDbEntity
  8
0
 62
     7
370
    18
100
AcDb2dPolyline
 66
     1
 10
0.0
 20
0.0
 30
0.0
 70
     1
  0
VERTEX
  5
1B9
330
1B8
100
AcDbEntity
  8
0
370
     0
100
AcDbVertex
100
AcDb2dVertex
 10
219.630074
 20
177.289782
 30
0.0
  0
VERTEX
  5
1BA
330
1B8
100
AcDbEntity
  8
0
370
     0
100
AcDbVertex
100
AcDb2dVertex
 10
222.527848
 20
178.066238
 30
0.0
  0
VERTEX
  5
1BB
330
1B8
100
AcDbEntity
  8
0
370
     0
100
AcDbVertex
100
AcDb2dVertex
 10
219.630074
 20
178.842695
 30
0.0
  0
SEQEND
  5
1BC
330
1B8
100
AcDbEntity
  8
0
 62
     7
370
    18
  0
ENDBLK
  5
126
330
124
100
AcDbEntity
  8
0
100
AcDbBlockEnd
  0
BLOCK
  5
128
330
127
100
AcDbEntity
  8
0
100
AcDbBlockBegin
  2
*D62
 70
     1
 10
0.0
 20
0.0
 30
0.0
  3
*D62
  1

  0
LINE
  5
1BD
330
127
100
AcDbEntity
  8
0
 62
     7
370
    18
100
AcDbLine
 10
84.645401
 20
11.952671
 30
0.0
 11
94.613541
 21
21.920807
 31
0.0
  0
LINE
  5
1BE
330
127
100
AcDbEntity
  8
0
 62
     7
370
    18
100
AcDbLine
 10
94.613541
 20
21.920807
 30
0.0
 11
123.534386
 21
21.920807
 31
0.0
  0
TEXT
  5
1BF
330
127
100
AcDbEntity
  8
0
 62
     7
370
    18
100
AcDbText
 10
112.470161
 20
24.795807
 30
0.0
 40
1.75
  1
×
 41
1.4
 72
     5
 11
114.220161
 21
24.795807
 31
0.0
100
AcDbText
  0
TEXT
  5
1C0
330
127
100
AcDbEntity
  8
0
 62
     7
370
    18
100
AcDbText
 10
120.96772
 20
24.620808
 30
0.0
 40
3.5
  1
%%d
 41
3.079999
 72
     5
 11
123.534386
 21
24.620808
 31
0.0
100
AcDbText
  0
TEXT
  5
1C1
330
127
100
AcDbEntity
  8
0
 62
     7
370
    18
100
AcDbText
 10
115.720161
 20
23.920807
 30
0.0
 40
3.5
  1
45
 41
0.850955
 72
     5
 11
120.96772
 21
23.920807
 31
0.0
100
AcDbText
  0
TEXT
  5
1C2
330
127
100
AcDbEntity
  8
0
 62
     7
370
    18
100
AcDbText
 10
101.227509
 20
23.920807
 30
0.0
 40
3.5
  1
2x 
 41
0.723631
 72
     5
 11
108.22261
 21
23.920807
 31
0.0
100
AcDbText
  0
TEXT
  5
1C3
330
127
100
AcDbEntity
  8
0
 62
     7
370
    18
100
AcDbText
 10
109.22261
 20
23.920807
 30
0.0
 40
3.5
  1
1
 41
0.953214
 72
     5
 11
110.970169
 21
23.920807
 31
0.0
100
AcDbText
  0
SOLID
  5
1C4
330
127
100
AcDbEntity
  8
0
 62
     7
370
    18
100
AcDbTrace
 10
84.096367
 20
12.501709
 30
0.0
 11
82.596367
 21
9.903633
 31
0.0
 12
84.096367
 22
12.501709
 32
0.0
 13
85.194443
 23
11.403633
 33
0.0
  0
ENDBLK
  5
129
330
127
100
AcDbEntity
  8
0
100
AcDbBlockEnd
  0
BLOCK
  5
12B
330
12A
100
AcDbEntity
  8
0
100
AcDbBlockBegin
  2
BLOCK1367
 70
     0
 10
0.0
 20
0.0
 30
0.0
  3
BLOCK1367
  1

  0
SOLID
  5
1C5
330
12A
100
AcDbEntity
  8
0
 62
     7
370
    18
100
AcDbTrace
 10
84.096367
 20
12.501709
 30
0.0
 11
82.596367
 21
9.903633
 31
0.0
 12
84.096367
 22
12.501709
 32
0.0
 13
85.194443
 23
11.403633
 33
0.0
  0
TEXT
  5
1C6
330
12A
100
AcDbEntity
  8
0
 62
     7
370
    18
100
AcDbText
 10
109.22261
 20
23.920807
 30
0.0
 40
3.5
  1
1
 41
0.953214
 72
     5
 11
110.970169
 21
23.920807
 31
0.0
100
AcDbText
  0
TEXT
  5
1C7
330
12A
100
AcDbEntity
  8
0
 62
     7
370
    18
100
AcDbText
 10
101.227509
 20
23.920807
 30
0.0
 40
3.5
  1
2x 
 41
0.723631
 72
     5
 11
108.22261
 21
23.920807
 31
0.0
100
AcDbText
  0
TEXT
  5
1C8
330
12A
100
AcDbEntity
  8
0
 62
     7
370
    18
100
AcDbText
 10
115.720161
 20
23.920807
 30
0.0
 40
3.5
  1
45
 41
0.850955
 72
     5
 11
120.96772
 21
23.920807
 31
0.0
100
AcDbText
  0
TEXT
  5
1C9
330
12A
100
AcDbEntity
  8
0
 62
     7
370
    18
100
AcDbText
 10
120.96772
 20
24.620808
 30
0.0
 40
3.5
  1
%%d
 41
3.079999
 72
     5
 11
123.534386
 21
24.620808
 31
0.0
100
AcDbText
  0
TEXT
  5
1CA
330
12A
100
AcDbEntity
  8
0
 62
     7
370
    18
100
AcDbText
 10
112.470161
 20
24.795807
 30
0.0
 40
1.75
  1
×
 41
1.4
 72
     5
 11
114.220161
 21
24.795807
 31
0.0
100
AcDbText
  0
LINE
  5
1CB
330
12A
100
AcDbEntity
  8
0
 62
     7
370
    18
100
AcDbLine
 10
94.613541
 20
21.920807
 30
0.0
 11
123.534386
 21
21.920807
 31
0.0
  0
LINE
  5
1CC
330
12A
100
AcDbEntity
  8
0
 62
     7
370
    18
100
AcDbLine
 10
84.645401
 20
11.952671
 30
0.0
 11
94.613541
 21
21.920807
 31
0.0
  0
POLYLINE
  5
1CD
330
12A
100
AcDbEntity
  8
0
 62
     7
370
    18
100
AcDb2dPolyline
 66
     1
 10
0.0
 20
0.0
 30
0.0
 70
     1
  0
VERTEX
  5
1CE
330
1CD
100
AcDbEntity
  8
0
370
     0
100
AcDbVertex
100
AcDb2dVertex
 10
84.096367
 20
12.501709
 30
0.0
  0
VERTEX
  5
1CF
330
1CD
100
AcDbEntity
  8
0
370
     0
100
AcDbVertex
100
AcDb2dVertex
 10
82.596367
 20
9.903633
 30
0.0
  0
VERTEX
  5
1D0
330
1CD
100
AcDbEntity
  8
0
370
     0
100
AcDbVertex
100
AcDb2dVertex
 10
85.194443
 20
11.403633
 30
0.0
  0
SEQEND
  5
1D1
330
1CD
100
AcDbEntity
  8
0
 62
     7
370
    18
  0
ENDBLK
  5
12C
330
12A
100
AcDbEntity
  8
0
100
AcDbBlockEnd
  0
BLOCK
  5
12E
330
12D
100
AcDbEntity
  8
0
100
AcDbBlockBegin
  2
BLOCK1368
 70
     0
 10
0.0
 20
0.0
 30
0.0
  3
BLOCK1368
  1

  0
LINE
  5
1D2
330
12D
100
AcDbEntity
  8
0
 62
     7
370
    35
100
AcDbLine
 10
1.0
 20
10.5
 30
0.0
 11
82.0
 21
10.5
 31
0.0
  0
LINE
  5
1D3
330
12D
100
AcDbEntity
  8
0
 62
     7
370
    35
100
AcDbLine
 10
83.0
 20
9.5
 30
0.0
 11
82.0
 21
10.5
 31
0.0
  0
LINE
  5
1D4
330
12D
100
AcDbEntity
  8
0
 62
     7
370
    35
100
AcDbLine
 10
83.0
 20
9.5
 30
0.0
 11
83.0
 21
7.0
 31
0.0
  0
LINE
  5
1D5
330
12D
100
AcDbEntity
  8
0
 62
     7
370
    35
100
AcDbLine
 10
82.0
 20
6.0
 30
0.0
 11
83.0
 21
7.0
 31
0.0
  0
LINE
  5
1D6
330
12D
100
AcDbEntity
  8
0
 62
     7
370
    35
100
AcDbLine
 10
1.0
 20
6.0
 30
0.0
 11
82.0
 21
6.0
 31
0.0
  0
LINE
  5
1D7
330
12D
100
AcDbEntity
  8
0
 62
     7
370
    35
100
AcDbLine
 10
1.0
 20
6.0
 30
0.0
 11
0.0
 21
7.0
 31
0.0
  0
LINE
  5
1D8
330
12D
100
AcDbEntity
  8
0
 62
     7
370
    35
100
AcDbLine
 10
0.0
 20
9.5
 30
0.0
 11
0.0
 21
7.0
 31
0.0
  0
LINE
  5
1D9
330
12D
100
AcDbEntity
  8
0
 62
     7
370
    35
100
AcDbLine
 10
0.0
 20
9.5
 30
0.0
 11
1.0
 21
10.5
 31
0.0
  0
LINE
  5
1DA
330
12D
100
AcDbEntity
  8
0
 62
     7
370
    35
100
AcDbLine
 10
0.0
 20
-9.5
 30
0.0
 11
1.0
 21
-10.5
 31
0.0
  0
LINE
  5
1DB
330
12D
100
AcDbEntity
  8
0
 62
     7
370
    35
100
AcDbLine
 10
0.0
 20
0.0
 30
0.0
 11
0.0
 21
7.0
 31
0.0
  0
LINE
  5
1DC
330
12D
100
AcDbEntity
  8
0
 62
     7
370
    35
100
AcDbLine
 10
0.0
 20
-7.0
 30
0.0
 11
0.0
 21
0.0
 31
0.0
  0
LINE
  5
1DD
330
12D
100
AcDbEntity
  8
0
 62
     7
370
    35
100
AcDbLine
 10
0.0
 20
-7.0
 30
0.0
 11
0.0
 21
-9.5
 31
0.0
  0
LINE
  5
1DE
330
12D
100
AcDbEntity
  8
0
 62
     7
370
    35
100
AcDbLine
 10
1.0
 20
-10.5
 30
0.0
 11
82.0
 21
-10.5
 31
0.0
  0
LINE
  5
1DF
330
12D
100
AcDbEntity
  8
0
 62
     7
370
    35
100
AcDbLine
 10
1.0
 20
0.0
 30
0.0
 11
1.0
 21
6.0
 31
0.0
  0
LINE
  5
1E0
330
12D
100
AcDbEntity
  8
0
 62
     7
370
    35
100
AcDbLine
 10
1.0
 20
-6.0
 30
0.0
 11
1.0
 21
0.0
 31
0.0
  0
LINE
  5
1E1
330
12D
100
AcDbEntity
  8
0
 62
     7
370
    35
100
AcDbLine
 10
1.0
 20
-6.0
 30
0.0
 11
0.0
 21
-7.0
 31
0.0
  0
LINE
  5
1E2
330
12D
100
AcDbEntity
  8
0
 62
     7
370
    35
100
AcDbLine
 10
83.0
 20
-9.5
 30
0.0
 11
82.0
 21
-10.5
 31
0.0
  0
LINE
  5
1E3
330
12D
100
AcDbEntity
  8
0
 62
     7
370
    35
100
AcDbLine
 10
83.0
 20
0.0
 30
0.0
 11
83.0
 21
7.0
 31
0.0
  0
LINE
  5
1E4
330
12D
100
AcDbEntity
  8
0
 62
     7
370
    35
100
AcDbLine
 10
83.0
 20
-7.0
 30
0.0
 11
83.0
 21
0.0
 31
0.0
  0
LINE
  5
1E5
330
12D
100
AcDbEntity
  8
0
 62
     7
370
    35
100
AcDbLine
 10
83.0
 20
-7.0
 30
0.0
 11
83.0
 21
-9.5
 31
0.0
  0
LINE
  5
1E6
330
12D
100
AcDbEntity
  8
0
 62
     7
370
    35
100
AcDbLine
 10
82.0
 20
0.0
 30
0.0
 11
82.0
 21
6.0
 31
0.0
  0
LINE
  5
1E7
330
12D
100
AcDbEntity
  8
0
 62
     7
370
    35
100
AcDbLine
 10
82.0
 20
-6.0
 30
0.0
 11
82.0
 21
0.0
 31
0.0
  0
LINE
  5
1E8
330
12D
100
AcDbEntity
  8
0
 62
     7
370
    35
100
AcDbLine
 10
1.0
 20
-6.0
 30
0.0
 11
82.0
 21
-6.0
 31
0.0
  0
LINE
  5
1E9
330
12D
100
AcDbEntity
  8
0
 62
     7
370
    35
100
AcDbLine
 10
82.0
 20
-6.0
 30
0.0
 11
83.0
 21
-7.0
 31
0.0
  0
ENDBLK
  5
12F
330
12D
100
AcDbEntity
  8
0
100
AcDbBlockEnd
  0
BLOCK
  5
131
330
130
100
AcDbEntity
  8
0
100
AcDbBlockBegin
  2
BLOCK1369
 70
     0
 10
0.0
 20
0.0
 30
0.0
  3
BLOCK1369
  1

  0
LINE
  5
1EA
330
130
100
AcDbEntity
  8
0
 62
     7
370
    18
100
AcDbLine
 10
81.423882
 20
-10.5
 30
0.0
 11
83.0
 21
-8.923882
 31
0.0
  0
LINE
  5
1EB
330
130
100
AcDbEntity
  8
0
 62
     7
370
    18
100
AcDbLine
 10
74.352814
 20
-10.5
 30
0.0
 11
78.852814
 21
-6.0
 31
0.0
  0
LINE
  5
1EC
330
130
100
AcDbEntity
  8
0
 62
     7
370
    18
100
AcDbLine
 10
67.281746
 20
-10.5
 30
0.0
 11
71.781746
 21
-6.0
 31
0.0
  0
LINE
  5
1ED
330
130
100
AcDbEntity
  8
0
 62
     7
370
    18
100
AcDbLine
 10
60.210678
 20
-10.5
 30
0.0
 11
64.710678
 21
-6.0
 31
0.0
  0
LINE
  5
1EE
330
130
100
AcDbEntity
  8
0
 62
     7
370
    18
100
AcDbLine
 10
53.13961
 20
-10.5
 30
0.0
 11
57.63961
 21
-6.0
 31
0.0
  0
LINE
  5
1EF
330
130
100
AcDbEntity
  8
0
 62
     7
370
    18
100
AcDbLine
 10
46.068542
 20
-10.5
 30
0.0
 11
50.568542
 21
-6.0
 31
0.0
  0
LINE
  5
1F0
330
130
100
AcDbEntity
  8
0
 62
     7
370
    18
100
AcDbLine
 10
38.997475
 20
-10.5
 30
0.0
 11
43.497475
 21
-6.0
 31
0.0
  0
LINE
  5
1F1
330
130
100
AcDbEntity
  8
0
 62
     7
370
    18
100
AcDbLine
 10
31.926407
 20
-10.5
 30
0.0
 11
36.426407
 21
-6.0
 31
0.0
  0
LINE
  5
1F2
330
130
100
AcDbEntity
  8
0
 62
     7
370
    18
100
AcDbLine
 10
24.855339
 20
-10.5
 30
0.0
 11
29.355339
 21
-6.0
 31
0.0
  0
LINE
  5
1F3
330
130
100
AcDbEntity
  8
0
 62
     7
370
    18
100
AcDbLine
 10
17.784271
 20
-10.5
 30
0.0
 11
22.284271
 21
-6.0
 31
0.0
  0
LINE
  5
1F4
330
130
100
AcDbEntity
  8
0
 62
     7
370
    18
100
AcDbLine
 10
10.713203
 20
-10.5
 30
0.0
 11
15.213203
 21
-6.0
 31
0.0
  0
LINE
  5
1F5
330
130
100
AcDbEntity
  8
0
 62
     7
370
    18
100
AcDbLine
 10
3.642136
 20
-10.5
 30
0.0
 11
8.142136
 21
-6.0
 31
0.0
  0
LINE
  5
1F6
330
130
100
AcDbEntity
  8
0
 62
     7
370
    18
100
AcDbLine
 10
0.0
 20
-7.071068
 30
0.0
 11
1.071068
 21
-6.0
 31
0.0
  0
ENDBLK
  5
132
330
130
100
AcDbEntity
  8
0
100
AcDbBlockEnd
  0
BLOCK
  5
134
330
133
100
AcDbEntity
  8
0
100
AcDbBlockBegin
  2
BLOCK1370
 70
     0
 10
0.0
 20
0.0
 30
0.0
  3
BLOCK1370
  1

  0
LINE
  5
1F7
330
133
100
AcDbEntity
  8
0
 62
     7
370
    18
100
AcDbLine
 10
76.710678
 20
6.0
 30
0.0
 11
81.210678
 21
10.5
 31
0.0
  0
LINE
  5
1F8
330
133
100
AcDbEntity
  8
0
 62
     7
370
    18
100
AcDbLine
 10
69.63961
 20
6.0
 30
0.0
 11
74.13961
 21
10.5
 31
0.0
  0
LINE
  5
1F9
330
133
100
AcDbEntity
  8
0
 62
     7
370
    18
100
AcDbLine
 10
62.568542
 20
6.0
 30
0.0
 11
67.068542
 21
10.5
 31
0.0
  0
LINE
  5
1FA
330
133
100
AcDbEntity
  8
0
 62
     7
370
    18
100
AcDbLine
 10
55.497475
 20
6.0
 30
0.0
 11
59.997475
 21
10.5
 31
0.0
  0
LINE
  5
1FB
330
133
100
AcDbEntity
  8
0
 62
     7
370
    18
100
AcDbLine
 10
48.426407
 20
6.0
 30
0.0
 11
52.926407
 21
10.5
 31
0.0
  0
LINE
  5
1FC
330
133
100
AcDbEntity
  8
0
 62
     7
370
    18
100
AcDbLine
 10
41.355339
 20
6.0
 30
0.0
 11
45.855339
 21
10.5
 31
0.0
  0
LINE
  5
1FD
330
133
100
AcDbEntity
  8
0
 62
     7
370
    18
100
AcDbLine
 10
34.284271
 20
6.0
 30
0.0
 11
38.784271
 21
10.5
 31
0.0
  0
LINE
  5
1FE
330
133
100
AcDbEntity
  8
0
 62
     7
370
    18
100
AcDbLine
 10
27.213203
 20
6.0
 30
0.0
 11
31.713203
 21
10.5
 31
0.0
  0
LINE
  5
1FF
330
133
100
AcDbEntity
  8
0
 62
     7
370
    18
100
AcDbLine
 10
20.142136
 20
6.0
 30
0.0
 11
24.642136
 21
10.5
 31
0.0
  0
LINE
  5
200
330
133
100
AcDbEntity
  8
0
 62
     7
370
    18
100
AcDbLine
 10
13.071068
 20
6.0
 30
0.0
 11
17.571068
 21
10.5
 31
0.0
  0
LINE
  5
201
330
133
100
AcDbEntity
  8
0
 62
     7
370
    18
100
AcDbLine
 10
6.0
 20
6.0
 30
0.0
 11
10.5
 21
10.5
 31
0.0
  0
LINE
  5
202
330
133
100
AcDbEntity
  8
0
 62
     7
370
    18
100
AcDbLine
 10
0.0
 20
7.071068
 30
0.0
 11
3.428932
 21
10.5
 31
0.0
  0
ENDBLK
  5
135
330
133
100
AcDbEntity
  8
0
100
AcDbBlockEnd
  0
ENDSEC
  0
SECTION
  2
ENTITIES
  0
INSERT
  5
203
330
1F
100
AcDbEntity
  8
0
370
     0
100
AcDbBlockReference
  2
BLOCK1309
 10
0.0
 20
0.0
 30
0.0
  0
INSERT
  5
204
330
1F
100
AcDbEntity
  8
0
370
     0
100
AcDbBlockReference
  2
BLOCK1310
 10
0.0
 20
0.0
 30
0.0
  0
INSERT
  5
205
330
1F
100
AcDbEntity
  8
0
370
     0
100
AcDbBlockReference
  2
BLOCK1311
 10
0.0
 20
0.0
 30
0.0
  0
INSERT
  5
206
330
1F
100
AcDbEntity
  8
0
370
     0
100
AcDbBlockReference
  2
BLOCK1312
 10
0.0
 20
0.0
 30
0.0
  0
INSERT
  5
207
330
1F
100
AcDbEntity
  8
0
370
     0
100
AcDbBlockReference
  2
BLOCK1313
 10
0.0
 20
0.0
 30
0.0
  0
INSERT
  5
208
330
1F
100
AcDbEntity
  8
0
370
     0
100
AcDbBlockReference
  2
BLOCK1314
 10
0.0
 20
0.0
 30
0.0
  0
INSERT
  5
209
330
1F
100
AcDbEntity
  8
0
370
     0
100
AcDbBlockReference
  2
BLOCK1315
 10
0.0
 20
0.0
 30
0.0
  0
INSERT
  5
20A
330
1F
100
AcDbEntity
  8
0
370
     0
100
AcDbBlockReference
  2
BLOCK1316
 10
0.0
 20
0.0
 30
0.0
  0
INSERT
  5
20B
330
1F
100
AcDbEntity
  8
0
370
     0
100
AcDbBlockReference
  2
BLOCK1317
 10
0.0
 20
0.0
 30
0.0
  0
INSERT
  5
20C
330
1F
100
AcDbEntity
  8
0
370
     0
100
AcDbBlockReference
  2
BLOCK1318
 10
0.0
 20
0.0
 30
0.0
  0
INSERT
  5
20D
330
1F
100
AcDbEntity
  8
0
370
     0
100
AcDbBlockReference
  2
BLOCK1319
 10
0.0
 20
0.0
 30
0.0
  0
INSERT
  5
20E
330
1F
100
AcDbEntity
  8
0
370
     0
100
AcDbBlockReference
  2
BLOCK1320
 10
0.0
 20
0.0
 30
0.0
  0
INSERT
  5
20F
330
1F
100
AcDbEntity
  8
0
370
     0
100
AcDbBlockReference
  2
BLOCK1321
 10
0.0
 20
0.0
 30
0.0
  0
INSERT
  5
210
330
1F
100
AcDbEntity
  8
0
370
     0
100
AcDbBlockReference
  2
BLOCK1322
 10
0.0
 20
0.0
 30
0.0
  0
INSERT
  5
211
330
1F
100
AcDbEntity
  8
0
370
     0
100
AcDbBlockReference
  2
BLOCK1323
 10
0.0
 20
0.0
 30
0.0
  0
INSERT
  5
212
330
1F
100
AcDbEntity
  8
0
370
     0
100
AcDbBlockReference
  2
BLOCK1324
 10
0.0
 20
0.0
 30
0.0
  0
INSERT
  5
213
330
1F
100
AcDbEntity
  8
0
370
     0
100
AcDbBlockReference
  2
BLOCK1325
 10
0.0
 20
0.0
 30
0.0
  0
INSERT
  5
214
330
1F
100
AcDbEntity
  8
0
370
     0
100
AcDbBlockReference
  2
BLOCK1326
 10
0.0
 20
0.0
 30
0.0
  0
INSERT
  5
215
330
1F
100
AcDbEntity
  8
0
370
     0
100
AcDbBlockReference
  2
BLOCK1327
 10
0.0
 20
0.0
 30
0.0
  0
INSERT
  5
216
330
1F
100
AcDbEntity
  8
0
370
     0
100
AcDbBlockReference
  2
BLOCK1328
 10
0.0
 20
0.0
 30
0.0
  0
INSERT
  5
217
330
1F
100
AcDbEntity
  8
0
370
     0
100
AcDbBlockReference
  2
BLOCK1329
 10
0.0
 20
0.0
 30
0.0
  0
INSERT
  5
218
330
1F
100
AcDbEntity
  8
0
370
     0
100
AcDbBlockReference
  2
BLOCK1330
 10
0.0
 20
0.0
 30
0.0
  0
INSERT
  5
219
330
1F
100
AcDbEntity
  8
0
370
     0
100
AcDbBlockReference
  2
BLOCK1331
 10
0.0
 20
0.0
 30
0.0
  0
INSERT
  5
21A
330
1F
100
AcDbEntity
  8
0
370
     0
100
AcDbBlockReference
  2
BLOCK1332
 10
0.0
 20
0.0
 30
0.0
  0
INSERT
  5
21B
330
1F
100
AcDbEntity
  8
0
370
     0
100
AcDbBlockReference
  2
BLOCK1333
 10
0.0
 20
0.0
 30
0.0
  0
INSERT
  5
21C
330
1F
100
AcDbEntity
  8
0
370
     0
100
AcDbBlockReference
  2
BLOCK1334
 10
0.0
 20
0.0
 30
0.0
  0
INSERT
  5
21D
330
1F
100
AcDbEntity
  8
0
370
     0
100
AcDbBlockReference
  2
BLOCK1335
 10
0.0
 20
0.0
 30
0.0
  0
INSERT
  5
21E
330
1F
100
AcDbEntity
  8
0
370
     0
100
AcDbBlockReference
  2
BLOCK1336
 10
0.0
 20
0.0
 30
0.0
  0
INSERT
  5
21F
330
1F
100
AcDbEntity
  8
0
370
     0
100
AcDbBlockReference
  2
BLOCK1337
 10
0.0
 20
0.0
 30
0.0
  0
INSERT
  5
220
330
1F
100
AcDbEntity
  8
0
370
     0
100
AcDbBlockReference
  2
BLOCK1338
 10
0.0
 20
0.0
 30
0.0
  0
INSERT
  5
221
330
1F
100
AcDbEntity
  8
0
370
     0
100
AcDbBlockReference
  2
BLOCK1339
 10
0.0
 20
0.0
 30
0.0
  0
INSERT
  5
222
330
1F
100
AcDbEntity
  8
0
370
     0
100
AcDbBlockReference
  2
BLOCK1340
 10
0.0
 20
0.0
 30
0.0
  0
INSERT
  5
223
330
1F
100
AcDbEntity
  8
0
370
     0
100
AcDbBlockReference
  2
BLOCK1341
 10
0.0
 20
0.0
 30
0.0
  0
INSERT
  5
224
330
1F
100
AcDbEntity
  8
0
370
     0
100
AcDbBlockReference
  2
BLOCK1342
 10
0.0
 20
0.0
 30
0.0
  0
INSERT
  5
225
330
1F
100
AcDbEntity
  8
0
370
     0
100
AcDbBlockReference
  2
BLOCK1343
 10
0.0
 20
0.0
 30
0.0
  0
INSERT
  5
226
330
1F
100
AcDbEntity
  8
0
370
     0
100
AcDbBlockReference
  2
BLOCK1344
 10
0.0
 20
0.0
 30
0.0
  0
INSERT
  5
227
330
1F
100
AcDbEntity
  8
0
370
     0
100
AcDbBlockReference
  2
BLOCK1345
 10
0.0
 20
0.0
 30
0.0
  0
INSERT
  5
228
330
1F
100
AcDbEntity
  8
0
370
     0
100
AcDbBlockReference
  2
BLOCK1346
 10
0.0
 20
0.0
 30
0.0
  0
INSERT
  5
229
330
1F
100
AcDbEntity
  8
0
370
     0
100
AcDbBlockReference
  2
BLOCK1347
 10
0.0
 20
0.0
 30
0.0
  0
INSERT
  5
22A
330
1F
100
AcDbEntity
  8
0
370
     0
100
AcDbBlockReference
  2
BLOCK1348
 10
0.0
 20
0.0
 30
0.0
  0
INSERT
  5
22B
330
1F
100
AcDbEntity
  8
0
370
     0
100
AcDbBlockReference
  2
BLOCK1349
 10
0.0
 20
0.0
 30
0.0
  0
INSERT
  5
22C
330
1F
100
AcDbEntity
  8
0
370
     0
100
AcDbBlockReference
  2
BLOCK1350
 10
0.0
 20
0.0
 30
0.0
  0
INSERT
  5
22D
330
1F
100
AcDbEntity
  8
0
370
     0
100
AcDbBlockReference
  2
BLOCK1351
 10
0.0
 20
0.0
 30
0.0
  0
INSERT
  5
22E
330
1F
100
AcDbEntity
  8
0
370
     0
100
AcDbBlockReference
  2
BLOCK1352
 10
0.0
 20
0.0
 30
0.0
  0
INSERT
  5
22F
330
1F
100
AcDbEntity
  8
0
370
     0
100
AcDbBlockReference
  2
BLOCK1353
 10
0.0
 20
0.0
 30
0.0
  0
INSERT
  5
230
330
1F
100
AcDbEntity
  8
0
370
     0
100
AcDbBlockReference
  2
BLOCK1354
 10
0.0
 20
0.0
 30
0.0
  0
INSERT
  5
231
330
1F
100
AcDbEntity
  8
0
370
     0
100
AcDbBlockReference
  2
BLOCK1355
 10
0.0
 20
0.0
 30
0.0
  0
INSERT
  5
232
330
1F
100
AcDbEntity
  8
0
370
     0
100
AcDbBlockReference
  2
BLOCK1356
 10
0.0
 20
0.0
 30
0.0
  0
INSERT
  5
233
330
1F
100
AcDbEntity
  8
0
370
     0
100
AcDbBlockReference
  2
BLOCK1357
 10
0.0
 20
0.0
 30
0.0
  0
INSERT
  5
234
330
1F
100
AcDbEntity
  8
0
370
     0
100
AcDbBlockReference
  2
BLOCK1358
 10
0.0
 20
0.0
 30
0.0
  0
INSERT
  5
235
330
1F
100
AcDbEntity
  8
0
370
     0
100
AcDbBlockReference
  2
BLOCK1359
 10
0.0
 20
0.0
 30
0.0
  0
INSERT
  5
236
330
1F
100
AcDbEntity
  8
0
370
     0
100
AcDbBlockReference
  2
BLOCK1360
 10
0.0
 20
0.0
 30
0.0
  0
INSERT
  5
237
330
1F
100
AcDbEntity
  8
0
370
     0
100
AcDbBlockReference
  2
BLOCK1361
 10
0.0
 20
0.0
 30
0.0
  0
LINE
  5
238
330
1F
100
AcDbEntity
  8
0
 62
     7
370
    35
100
AcDbLine
 10
10.0
 20
10.0
 30
0.0
 11
287.0
 21
10.0
 31
0.0
  0
LINE
  5
239
330
1F
100
AcDbEntity
  8
0
 62
     7
370
    35
100
AcDbLine
 10
287.0
 20
10.0
 30
0.0
 11
287.0
 21
200.0
 31
0.0
  0
LINE
  5
23A
330
1F
100
AcDbEntity
  8
0
 62
     7
370
    35
100
AcDbLine
 10
287.0
 20
200.0
 30
0.0
 11
10.0
 21
200.0
 31
0.0
  0
LINE
  5
23B
330
1F
100
AcDbEntity
  8
0
 62
     7
370
    35
100
AcDbLine
 10
10.0
 20
200.0
 30
0.0
 11
10.0
 21
10.0
 31
0.0
  0
LINE
  5
23C
330
1F
100
AcDbEntity
  8
0
 62
     7
370
    35
100
AcDbLine
 10
148.5
 20
200.0
 30
0.0
 11
148.5
 21
210.0
 31
0.0
  0
LINE
  5
23D
330
1F
100
AcDbEntity
  8
0
 62
     7
370
    35
100
AcDbLine
 10
148.5
 20
10.0
 30
0.0
 11
148.5
 21
0.0
 31
0.0
  0
LINE
  5
23E
330
1F
100
AcDbEntity
  8
0
 62
     7
370
    35
100
AcDbLine
 10
10.0
 20
105.0
 30
0.0
 11
0.0
 21
105.0
 31
0.0
  0
LINE
  5
23F
330
1F
100
AcDbEntity
  8
0
 62
     7
370
    35
100
AcDbLine
 10
287.0
 20
105.0
 30
0.0
 11
297.0
 21
105.0
 31
0.0
  0
LINE
  5
240
330
1F
100
AcDbEntity
  8
0
 62
     7
370
    35
100
AcDbLine
 10
222.7
 20
10.0
 30
0.0
 11
222.7
 21
2.5
 31
0.0
  0
LINE
  5
241
330
1F
100
AcDbEntity
  8
0
 62
     7
370
    35
100
AcDbLine
 10
74.3
 20
10.0
 30
0.0
 11
74.3
 21
2.5
 31
0.0
  0
LINE
  5
242
330
1F
100
AcDbEntity
  8
0
 62
     7
370
    35
100
AcDbLine
 10
222.7
 20
200.0
 30
0.0
 11
222.7
 21
207.5
 31
0.0
  0
LINE
  5
243
330
1F
100
AcDbEntity
  8
0
 62
     7
370
    35
100
AcDbLine
 10
74.3
 20
200.0
 30
0.0
 11
74.3
 21
207.5
 31
0.0
  0
LINE
  5
244
330
1F
100
AcDbEntity
  8
0
 62
     7
370
    35
100
AcDbLine
 10
10.0
 20
157.5
 30
0.0
 11
2.5
 21
157.5
 31
0.0
  0
LINE
  5
245
330
1F
100
AcDbEntity
  8
0
 62
     7
370
    35
100
AcDbLine
 10
287.0
 20
157.5
 30
0.0
 11
294.5
 21
157.5
 31
0.0
  0
LINE
  5
246
330
1F
100
AcDbEntity
  8
0
 62
     7
370
    35
100
AcDbLine
 10
10.0
 20
52.5
 30
0.0
 11
2.5
 21
52.5
 31
0.0
  0
LINE
  5
247
330
1F
100
AcDbEntity
  8
0
 62
     7
370
    35
100
AcDbLine
 10
287.0
 20
52.5
 30
0.0
 11
294.5
 21
52.5
 31
0.0
  0
LINE
  5
248
330
1F
100
AcDbEntity
  8
0
 62
     7
370
    35
100
AcDbLine
 10
98.5
 20
7.5
 30
0.0
 11
198.5
 21
7.5
 31
0.0
  0
LINE
  5
249
330
1F
100
AcDbEntity
  8
0
 62
     7
370
    35
100
AcDbLine
 10
98.5
 20
10.0
 30
0.0
 11
98.5
 21
5.0
 31
0.0
  0
LINE
  5
24A
330
1F
100
AcDbEntity
  8
0
 62
     7
370
    35
100
AcDbLine
 10
198.5
 20
10.0
 30
0.0
 11
198.5
 21
5.0
 31
0.0
  0
LINE
  5
24B
330
1F
100
AcDbEntity
  8
0
 62
     7
370
    35
100
AcDbLine
 10
108.5
 20
10.0
 30
0.0
 11
108.5
 21
7.5
 31
0.0
  0
LINE
  5
24C
330
1F
100
AcDbEntity
  8
0
 62
     7
370
    35
100
AcDbLine
 10
188.5
 20
10.0
 30
0.0
 11
188.5
 21
7.5
 31
0.0
  0
LINE
  5
24D
330
1F
100
AcDbEntity
  8
0
 62
     7
370
    35
100
AcDbLine
 10
118.5
 20
10.0
 30
0.0
 11
118.5
 21
7.5
 31
0.0
  0
LINE
  5
24E
330
1F
100
AcDbEntity
  8
0
 62
     7
370
    35
100
AcDbLine
 10
178.5
 20
10.0
 30
0.0
 11
178.5
 21
7.5
 31
0.0
  0
LINE
  5
24F
330
1F
100
AcDbEntity
  8
0
 62
     7
370
    35
100
AcDbLine
 10
128.5
 20
10.0
 30
0.0
 11
128.5
 21
7.5
 31
0.0
  0
LINE
  5
250
330
1F
100
AcDbEntity
  8
0
 62
     7
370
    35
100
AcDbLine
 10
168.5
 20
10.0
 30
0.0
 11
168.5
 21
7.5
 31
0.0
  0
LINE
  5
251
330
1F
100
AcDbEntity
  8
0
 62
     7
370
    35
100
AcDbLine
 10
138.5
 20
10.0
 30
0.0
 11
138.5
 21
7.5
 31
0.0
  0
LINE
  5
252
330
1F
100
AcDbEntity
  8
0
 62
     7
370
    35
100
AcDbLine
 10
158.5
 20
10.0
 30
0.0
 11
158.5
 21
7.5
 31
0.0
  0
LINE
  5
253
330
1F
100
AcDbEntity
  8
0
 62
     7
370
    35
100
AcDbLine
 10
97.0
 20
10.0
 30
0.0
 11
287.0
 21
10.0
 31
0.0
  0
LINE
  5
254
330
1F
100
AcDbEntity
  8
0
 62
     7
370
    35
100
AcDbLine
 10
97.0
 20
10.0
 30
0.0
 11
97.0
 21
70.0
 31
0.0
  0
LINE
  5
255
330
1F
100
AcDbEntity
  8
0
 62
     7
370
    35
100
AcDbLine
 10
97.0
 20
70.0
 30
0.0
 11
287.0
 21
70.0
 31
0.0
  0
LINE
  5
256
330
1F
100
AcDbEntity
  8
0
 62
     7
370
    35
100
AcDbLine
 10
287.0
 20
70.0
 30
0.0
 11
287.0
 21
10.0
 31
0.0
  0
LINE
  5
257
330
1F
100
AcDbEntity
  8
0
 62
     7
370
    35
100
AcDbLine
 10
97.0
 20
14.0
 30
0.0
 11
262.0
 21
14.0
 31
0.0
  0
LINE
  5
258
330
1F
100
AcDbEntity
  8
0
 62
     7
370
    35
100
AcDbLine
 10
97.0
 20
27.0
 30
0.0
 11
262.0
 21
27.0
 31
0.0
  0
LINE
  5
259
330
1F
100
AcDbEntity
  8
0
 62
     7
370
    35
100
AcDbLine
 10
97.0
 20
40.0
 30
0.0
 11
262.0
 21
40.0
 31
0.0
  0
LINE
  5
25A
330
1F
100
AcDbEntity
  8
0
 62
     7
370
    35
100
AcDbLine
 10
97.0
 20
55.0
 30
0.0
 11
142.0
 21
55.0
 31
0.0
  0
LINE
  5
25B
330
1F
100
AcDbEntity
  8
0
 62
     7
370
    35
100
AcDbLine
 10
262.0
 20
16.666667
 30
0.0
 11
287.0
 21
16.666667
 31
0.0
  0
LINE
  5
25C
330
1F
100
AcDbEntity
  8
0
 62
     7
370
    35
100
AcDbLine
 10
262.0
 20
23.333333
 30
0.0
 11
287.0
 21
23.333333
 31
0.0
  0
LINE
  5
25D
330
1F
100
AcDbEntity
  8
0
 62
     7
370
    35
100
AcDbLine
 10
262.0
 20
30.0
 30
0.0
 11
287.0
 21
30.0
 31
0.0
  0
LINE
  5
25E
330
1F
100
AcDbEntity
  8
0
 62
     7
370
    35
100
AcDbLine
 10
262.0
 20
36.666667
 30
0.0
 11
287.0
 21
36.666667
 31
0.0
  0
LINE
  5
25F
330
1F
100
AcDbEntity
  8
0
 62
     7
370
    35
100
AcDbLine
 10
262.0
 20
43.333333
 30
0.0
 11
287.0
 21
43.333333
 31
0.0
  0
LINE
  5
260
330
1F
100
AcDbEntity
  8
0
 62
     7
370
    35
100
AcDbLine
 10
262.0
 20
50.0
 30
0.0
 11
287.0
 21
50.0
 31
0.0
  0
LINE
  5
261
330
1F
100
AcDbEntity
  8
0
 62
     7
370
    35
100
AcDbLine
 10
262.0
 20
56.666667
 30
0.0
 11
287.0
 21
56.666667
 31
0.0
  0
LINE
  5
262
330
1F
100
AcDbEntity
  8
0
 62
     7
370
    35
100
AcDbLine
 10
262.0
 20
63.333333
 30
0.0
 11
287.0
 21
63.333333
 31
0.0
  0
LINE
  5
263
330
1F
100
AcDbEntity
  8
0
 62
     7
370
    35
100
AcDbLine
 10
117.0
 20
14.0
 30
0.0
 11
117.0
 21
40.0
 31
0.0
  0
LINE
  5
264
330
1F
100
AcDbEntity
  8
0
 62
     7
370
    35
100
AcDbLine
 10
142.0
 20
14.0
 30
0.0
 11
142.0
 21
70.0
 31
0.0
  0
LINE
  5
265
330
1F
100
AcDbEntity
  8
0
 62
     7
370
    35
100
AcDbLine
 10
242.0
 20
14.0
 30
0.0
 11
242.0
 21
27.0
 31
0.0
  0
LINE
  5
266
330
1F
100
AcDbEntity
  8
0
 62
     7
370
    35
100
AcDbLine
 10
262.0
 20
10.0
 30
0.0
 11
262.0
 21
70.0
 31
0.0
  0
LINE
  5
267
330
1F
100
AcDbEntity
  8
0
 62
     7
370
    35
100
AcDbLine
 10
267.0
 20
10.0
 30
0.0
 11
267.0
 21
70.0
 31
0.0
  0
LINE
  5
268
330
1F
100
AcDbEntity
  8
0
 62
     7
370
    35
100
AcDbLine
 10
119.0
 20
33.5
 30
0.0
 11
140.0
 21
33.5
 31
0.0
  0
LINE
  5
269
330
1F
100
AcDbEntity
  8
0
 62
     7
370
    35
100
AcDbLine
 10
134.5
 20
28.0
 30
0.0
 11
134.5
 21
39.0
 31
0.0
  0
LINE
  5
26A
330
1F
100
AcDbEntity
  8
0
 62
     7
370
    35
100
AcDbLine
 10
120.5
 20
31.5
 30
0.0
 11
120.5
 21
35.5
 31
0.0
  0
LINE
  5
26B
330
1F
100
AcDbEntity
  8
0
 62
     7
370
    35
100
AcDbLine
 10
120.5
 20
35.5
 30
0.0
 11
128.5
 21
37.5
 31
0.0
  0
LINE
  5
26C
330
1F
100
AcDbEntity
  8
0
 62
     7
370
    35
100
AcDbLine
 10
128.5
 20
37.5
 30
0.0
 11
128.5
 21
29.5
 31
0.0
  0
LINE
  5
26D
330
1F
100
AcDbEntity
  8
0
 62
     7
370
    35
100
AcDbLine
 10
128.5
 20
29.5
 30
0.0
 11
120.5
 21
31.5
 31
0.0
  0
CIRCLE
  5
26E
330
1F
100
AcDbEntity
  8
0
 62
     7
370
    35
100
AcDbCircle
 10
134.5
 20
33.5
 30
0.0
 40
2.0
  0
CIRCLE
  5
26F
330
1F
100
AcDbEntity
  8
0
 62
     7
370
    35
100
AcDbCircle
 10
134.5
 20
33.5
 30
0.0
 40
4.0
  0
INSERT
  5
270
330
1F
100
AcDbEntity
  8
0
370
     0
100
AcDbBlockReference
  2
BLOCK1362
 10
60.34111
 20
151.156662
 30
0.0
  0
DIMENSION
  5
271
102
{ACAD_XDICTIONARY
360
272
102
}
330
1F
100
AcDbEntity
  8
0
 62
     0
370
     0
100
AcDbDimension
  2
*D55
 10
52.507883
 20
144.164484
 30
0.0
 11
91.080419
 21
178.59551
 31
0.0
 70
   163
  1
<>{}{%%p0,1}
 71
     5
 42
-1.0
  3
STANDARD
100
AcDbDiametricDimension
 15
68.174337
 25
158.14884
 35
0.0
 40
0.0
1001
ACAD
1000
DSTYLE
1002
{
1070
    71
1070
     0
1070
    72
1070
     0
1070
    47
1040
0.1
1070
    48
1040
0.1
1002
}
  0
DIMENSION
  5
273
102
{ACAD_XDICTIONARY
360
274
102
}
330
1F
100
AcDbEntity
  8
0
 62
     0
370
     0
100
AcDbDimension
  2
*D56
 10
56.31314
 20
155.603622
 30
0.0
 11
89.80961
 21
118.62285
 31
0.0
 70
   163
  1
<>{}{ H7 {\H2x;\W0.5;(}\S+0,018^ 0;{\H2x;\W0.5;)}}
 71
     5
 42
-1.0
  3
STANDARD
100
AcDbDiametricDimension
 15
64.369081
 25
146.709702
 35
0.0
 40
0.0
1001
ACAD
1000
DSTYLE
1002
{
1070
    71
1070
     0
1070
    72
1070
     0
1070
    47
1040
0.018
1070
    48
1040
0.0
1002
}
  0
INSERT
  5
275
330
1F
100
AcDbEntity
  8
0
370
     0
100
AcDbBlockReference
  2
BLOCK1363
 10
60.34111
 20
151.156662
 30
0.0
  0
INSERT
  5
276
330
1F
100
AcDbEntity
  8
0
370
     0
100
AcDbBlockReference
  2
BLOCK1364
 10
60.34111
 20
151.156662
 30
0.0
  0
INSERT
  5
277
330
1F
100
AcDbEntity
  8
0
370
     0
100
AcDbBlockReference
  2
BLOCK1365
 10
139.527848
 20
151.156662
 30
0.0
  0
INSERT
  5
278
330
1F
100
AcDbEntity
  8
0
370
     0
100
AcDbBlockReference
  2
BLOCK1366
 10
139.527848
 20
151.156662
 30
0.0
  0
DIMENSION
  5
279
102
{ACAD_XDICTIONARY
360
27A
102
}
330
1F
100
AcDbEntity
  8
0
 62
     0
370
     0
100
AcDbDimension
  2
*D61
 10
139.527848
 20
178.066238
 30
0.0
 11
181.027848
 21
178.066238
 31
0.0
 70
   161
  1
<>{}{%%p0,1}
 71
     5
 42
-1.0
 52
5156.620156
  3
STANDARD
100
AcDbAlignedDimension
 13
222.527848
 23
158.156662
 33
0.0
 14
139.527848
 24
158.156662
 34
0.0
1001
ACAD
1000
DSTYLE
1002
{
1070
    71
1070
     0
1070
    72
1070
     0
1070
    47
1040
0.1
1070
    48
1040
0.1
1002
}
  0
INSERT
  5
27B
330
1F
100
AcDbEntity
  8
0
370
     0
100
AcDbBlockReference
  2
BLOCK1367
 10
139.527848
 20
151.156662
 30
0.0
  0
LINE
  5
27C
330
1F
100
AcDbEntity
  8
0
  6
DASHDOT
 62
     7
370
    18
100
AcDbLine
 10
230.827897
 20
151.156662
 30
0.0
 11
131.227298
 21
151.156662
 31
0.0
  0
INSERT
  5
27D
330
1F
100
AcDbEntity
  8
0
370
     0
100
AcDbBlockReference
  2
BLOCK1368
 10
139.527848
 20
151.156662
 30
0.0
  0
INSERT
  5
27E
330
1F
100
AcDbEntity
  8
0
370
     0
100
AcDbBlockReference
  2
BLOCK1369
 10
139.527848
 20
151.156662
 30
0.0
  0
INSERT
  5
27F
330
1F
100
AcDbEntity
  8
0
370
     0
100
AcDbBlockReference
  2
BLOCK1370
 10
139.527848
 20
151.156662
 30
0.0
  0
ENDSEC
  0
SECTION
  2
OBJECTS
  0
DICTIONARY
  5
C
330
0
100
AcDbDictionary
281
     1
  3
ACAD_GROUP
350
D
  3
ACAD_LAYOUT
350
1A
  3
ACAD_MLINESTYLE
350
17
  3
ACAD_PLOTSETTINGS
350
19
  3
ACAD_PLOTSTYLENAME
350
E
  3
ACAD_SCALELIST
350
47
  0
DICTIONARY
  5
272
330
271
100
AcDbDictionary
280
     1
281
     1
  0
DICTIONARY
  5
274
330
273
100
AcDbDictionary
280
     1
281
     1
  0
DICTIONARY
  5
27A
330
279
100
AcDbDictionary
280
     1
281
     1
  0
DICTIONARY
  5
D
102
{ACAD_REACTORS
330
C
102
}
330
C
100
AcDbDictionary
281
     1
  0
DICTIONARY
  5
1A
102
{ACAD_REACTORS
330
C
102
}
330
C
100
AcDbDictionary
281
     1
  3
Layout1
350
1E
  3
Layout2
350
26
  3
Model
350
22
  0
DICTIONARY
  5
17
102
{ACAD_REACTORS
330
C
102
}
330
C
100
AcDbDictionary
281
     1
  3
Standard
350
18
  0
DICTIONARY
  5
19
102
{ACAD_REACTORS
330
C
102
}
330
C
100
AcDbDictionary
281
     1
  0
ACDBDICTIONARYWDFLT
  5
E
102
{ACAD_REACTORS
330
C
102
}
330
C
100
AcDbDictionary
281
     1
  3
Normal
350
F
100
AcDbDictionaryWithDefault
340
F
  0
DICTIONARY
  5
47
102
{ACAD_REACTORS
330
C
102
}
330
C
100
AcDbDictionary
281
     1
  3
A0
350
48
  3
A1
350
49
  3
A2
350
4A
  3
A3
350
4B
  3
A4
350
4C
  3
A5
350
4D
  3
A6
350
4E
  3
A7
350
4F
  3
A8
350
50
  3
A9
350
51
  3
B0
350
52
  3
B1
350
53
  3
B2
350
54
  3
B3
350
55
  3
B4
350
56
  3
B5
350
57
  3
B6
350
58
  3
B7
350
59
  3
B8
350
5A
  3
B9
350
5B
  3
C0
350
5C
  3
C1
350
5D
  3
C2
350
5E
  3
C3
350
5F
  3
C4
350
60
  3
C5
350
61
  3
C6
350
62
  3
C7
350
63
  3
C8
350
64
  3
C9
350
65
  3
D0
350
66
  3
D1
350
67
  3
D2
350
68
  0
LAYOUT
  5
1E
102
{ACAD_REACTORS
330
1A
102
}
330
1A
100
AcDbPlotSettings
  1

  2
none_device
  4

  6

 40
0.0
 41
0.0
 42
0.0
 43
0.0
 44
0.0
 45
0.0
 46
0.0
 47
0.0
 48
0.0
 49
0.0
140
0.0
141
0.0
142
1.0
143
1.0
 70
  4784
 72
     0
 73
     0
 74
     5
  7

 75
    16
147
1.0
148
0.0
149
0.0
100
AcDbLayout
  1
Layout1
 70
     1
 71
     1
 10
0.0
 20
0.0
 11
420.0
 21
297.0
 12
0.0
 22
0.0
 32
0.0
 14
0.0
 24
0.0
 34
0.0
 15
293.399994
 25
206.573776
 35
2.0
146
0.0
 13
0.0
 23
0.0
 33
0.0
 16
1.0
 26
0.0
 36
0.0
 17
0.0
 27
1.0
 37
0.0
 76
     0
330
1B
  0
LAYOUT
  5
26
102
{ACAD_REACTORS
330
1A
102
}
330
1A
100
AcDbPlotSettings
  1

  2
none_device
  4

  6

 40
0.0
 41
0.0
 42
0.0
 43
0.0
 44
0.0
 45
0.0
 46
0.0
 47
0.0
 48
0.0
 49
0.0
140
0.0
141
0.0
142
1.0
143
1.0
 70
  4784
 72
     0
 73
     0
 74
     5
  7

 75
    16
147
1.0
148
0.0
149
0.0
100
AcDbLayout
  1
Layout2
 70
     1
 71
     2
 10
0.0
 20
0.0
 11
0.0
 21
0.0
 12
0.0
 22
0.0
 32
0.0
 14
0.0
 24
0.0
 34
0.0
 15
0.0
 25
0.0
 35
0.0
146
0.0
 13
0.0
 23
0.0
 33
0.0
 16
1.0
 26
0.0
 36
0.0
 17
0.0
 27
1.0
 37
0.0
 76
     0
330
23
  0
LAYOUT
  5
22
102
{ACAD_REACTORS
330
1A
102
}
330
1A
100
AcDbPlotSettings
  1

  2
none_device
  4
Letter_(8.50_x_11.00_Inches)
  6

 40
6.35
 41
6.35
 42
6.350005
 43
6.350005
 44
215.9
 45
279.4
 46
0.0
 47
0.0
 48
0.0
 49
0.0
140
0.0
141
0.0
142
1.0
143
1.0
 70
  5808
 72
     0
 73
     0
 74
     0
  7

 75
     0
147
1.0
148
0.0
149
0.0
100
AcDbLayout
  1
Model
 70
     1
 71
     0
 10
0.0
 20
0.0
 11
420.0
 21
297.0
 12
0.0
 22
0.0
 32
0.0
 14
0.0
 24
0.0
 34
0.0
 15
293.399994
 25
206.573776
 35
2.0
146
0.0
 13
0.0
 23
0.0
 33
0.0
 16
1.0
 26
0.0
 36
0.0
 17
0.0
 27
1.0
 37
0.0
 76
     0
330
1F
331
29
  0
MLINESTYLE
  5
18
102
{ACAD_REACTORS
330
17
102
}
330
17
100
AcDbMlineStyle
  2
Standard
 70
     0
  3

 62
   256
 51
90.0
 52
90.0
 71
     2
 49
0.5
 62
   256
  6
BYLAYER
 49
-0.5
 62
   256
  6
BYLAYER
  0
ACDBPLACEHOLDER
  5
F
102
{ACAD_REACTORS
330
E
102
}
330
E
  0
SCALE
  5
48
102
{ACAD_REACTORS
330
47
102
}
330
47
100
AcDbScale
 70
     0
300
1:1
140
1.0
141
1.0
290
     1
  0
SCALE
  5
49
102
{ACAD_REACTORS
330
47
102
}
330
47
100
AcDbScale
 70
     0
300
1:2
140
1.0
141
2.0
290
     0
  0
SCALE
  5
4A
102
{ACAD_REACTORS
330
47
102
}
330
47
100
AcDbScale
 70
     0
300
1:4
140
1.0
141
4.0
290
     0
  0
SCALE
  5
4B
102
{ACAD_REACTORS
330
47
102
}
330
47
100
AcDbScale
 70
     0
300
1:5
140
1.0
141
5.0
290
     0
  0
SCALE
  5
4C
102
{ACAD_REACTORS
330
47
102
}
330
47
100
AcDbScale
 70
     0
300
1:8
140
1.0
141
8.0
290
     0
  0
SCALE
  5
4D
102
{ACAD_REACTORS
330
47
102
}
330
47
100
AcDbScale
 70
     0
300
1:10
140
1.0
141
10.0
290
     0
  0
SCALE
  5
4E
102
{ACAD_REACTORS
330
47
102
}
330
47
100
AcDbScale
 70
     0
300
1:16
140
1.0
141
16.0
290
     0
  0
SCALE
  5
4F
102
{ACAD_REACTORS
330
47
102
}
330
47
100
AcDbScale
 70
     0
300
1:20
140
1.0
141
20.0
290
     0
  0
SCALE
  5
50
102
{ACAD_REACTORS
330
47
102
}
330
47
100
AcDbScale
 70
     0
300
1:30
140
1.0
141
30.0
290
     0
  0
SCALE
  5
51
102
{ACAD_REACTORS
330
47
102
}
330
47
100
AcDbScale
 70
     0
300
1:40
140
1.0
141
40.0
290
     0
  0
SCALE
  5
52
102
{ACAD_REACTORS
330
47
102
}
330
47
100
AcDbScale
 70
     0
300
1:50
140
1.0
141
50.0
290
     0
  0
SCALE
  5
53
102
{ACAD_REACTORS
330
47
102
}
330
47
100
AcDbScale
 70
     0
300
1:100
140
1.0
141
100.0
290
     0
  0
SCALE
  5
54
102
{ACAD_REACTORS
330
47
102
}
330
47
100
AcDbScale
 70
     0
300
2:1
140
2.0
141
1.0
290
     0
  0
SCALE
  5
55
102
{ACAD_REACTORS
330
47
102
}
330
47
100
AcDbScale
 70
     0
300
4:1
140
4.0
141
1.0
290
     0
  0
SCALE
  5
56
102
{ACAD_REACTORS
330
47
102
}
330
47
100
AcDbScale
 70
     0
300
8:1
140
8.0
141
1.0
290
     0
  0
SCALE
  5
57
102
{ACAD_REACTORS
330
47
102
}
330
47
100
AcDbScale
 70
     0
300
10:1
140
10.0
141
1.0
290
     0
  0
SCALE
  5
58
102
{ACAD_REACTORS
330
47
102
}
330
47
100
AcDbScale
 70
     0
300
100:1
140
100.0
141
1.0
290
     0
  0
SCALE
  5
59
102
{ACAD_REACTORS
330
47
102
}
330
47
100
AcDbScale
 70
     0
300
1/128" = 1'-0"
140
0.007812
141
12.0
290
     0
  0
SCALE
  5
5A
102
{ACAD_REACTORS
330
47
102
}
330
47
100
AcDbScale
 70
     0
300
1/64" = 1'-0"
140
0.015625
141
12.0
290
     0
  0
SCALE
  5
5B
102
{ACAD_REACTORS
330
47
102
}
330
47
100
AcDbScale
 70
     0
300
1/32" = 1'-0"
140
0.03125
141
12.0
290
     0
  0
SCALE
  5
5C
102
{ACAD_REACTORS
330
47
102
}
330
47
100
AcDbScale
 70
     0
300
1/16" = 1'-0"
140
0.0625
141
12.0
290
     0
  0
SCALE
  5
5D
102
{ACAD_REACTORS
330
47
102
}
330
47
100
AcDbScale
 70
     0
300
3/32" = 1'-0"
140
0.09375
141
12.0
290
     0
  0
SCALE
  5
5E
102
{ACAD_REACTORS
330
47
102
}
330
47
100
AcDbScale
 70
     0
300
1/8" = 1'-0"
140
0.125
141
12.0
290
     0
  0
SCALE
  5
5F
102
{ACAD_REACTORS
330
47
102
}
330
47
100
AcDbScale
 70
     0
300
3/16" = 1'-0"
140
0.1875
141
12.0
290
     0
  0
SCALE
  5
60
102
{ACAD_REACTORS
330
47
102
}
330
47
100
AcDbScale
 70
     0
300
1/4" = 1'-0"
140
0.25
141
12.0
290
     0
  0
SCALE
  5
61
102
{ACAD_REACTORS
330
47
102
}
330
47
100
AcDbScale
 70
     0
300
3/8" = 1'-0"
140
0.375
141
12.0
290
     0
  0
SCALE
  5
62
102
{ACAD_REACTORS
330
47
102
}
330
47
100
AcDbScale
 70
     0
300
1/2" = 1'-0"
140
0.5
141
12.0
290
     0
  0
SCALE
  5
63
102
{ACAD_REACTORS
330
47
102
}
330
47
100
AcDbScale
 70
     0
300
3/4" = 1'-0"
140
0.75
141
12.0
290
     0
  0
SCALE
  5
64
102
{ACAD_REACTORS
330
47
102
}
330
47
100
AcDbScale
 70
     0
300
1" = 1'-0"
140
1.0
141
12.0
290
     0
  0
SCALE
  5
65
102
{ACAD_REACTORS
330
47
102
}
330
47
100
AcDbScale
 70
     0
300
1-1/2" = 1'-0"
140
1.5
141
12.0
290
     0
  0
SCALE
  5
66
102
{ACAD_REACTORS
330
47
102
}
330
47
100
AcDbScale
 70
     0
300
3" = 1'-0"
140
3.0
141
12.0
290
     0
  0
SCALE
  5
67
102
{ACAD_REACTORS
330
47
102
}
330
47
100
AcDbScale
 70
     0
300
6" = 1'-0"
140
6.0
141
12.0
290
     0
  0
SCALE
  5
68
102
{ACAD_REACTORS
330
47
102
}
330
47
100
AcDbScale
 70
     0
300
1'-0" = 1'-0"
140
12.0
141
12.0
290
     0
  0
ENDSEC
  0
EOF
