  0
SECTION
  2
HEADER
  9
$ACADVER
  1
AC1015
  9
$ACADMAINTVER
 70
     6
  9
$DWGCODEPAGE
  3
ANSI_1252
  9
$INSBASE
 10
0.0
 20
0.0
 30
0.0
  9
$EXTMIN
 10
0.0
 20
0.0
 30
0.0
  9
$EXTMAX
 10
293.399994
 20
206.573776
 30
2.0
  9
$LIMMIN
 10
0.0
 20
0.0
  9
$LIMMAX
 10
420.0
 20
297.0
  9
$ORTHOMODE
 70
     0
  9
$REGENMODE
 70
     1
  9
$FILLMODE
 70
     1
  9
$QTEXTMODE
 70
     0
  9
$MIRRTEXT
 70
     1
  9
$LTSCALE
 40
1.0
  9
$ATTMODE
 70
     1
  9
$TEXTSIZE
 40
2.5
  9
$TRACEWID
 40
1.0
  9
$TEXTSTYLE
  7
Standard
  9
$CLAYER
  8
0
  9
$CELTYPE
  6
ByLayer
  9
$CECOLOR
 62
   256
  9
$CELTSCALE
 40
1.0
  9
$DISPSILH
 70
     0
  9
$DIMSCALE
 40
1.0
  9
$DIMASZ
 40
2.5
  9
$DIMEXO
 40
0.625
  9
$DIMDLI
 40
3.75
  9
$DIMRND
 40
0.0
  9
$DIMDLE
 40
0.0
  9
$DIMEXE
 40
1.25
  9
$DIMTP
 40
0.0
  9
$DIMTM
 40
0.0
  9
$DIMTXT
 40
2.5
  9
$DIMCEN
 40
2.5
  9
$DIMTSZ
 40
0.0
  9
$DIMTOL
 70
     0
  9
$DIMLIM
 70
     0
  9
$DIMTIH
 70
     0
  9
$DIMTOH
 70
     0
  9
$DIMSE1
 70
     0
  9
$DIMSE2
 70
     0
  9
$DIMTAD
 70
     1
  9
$DIMZIN
 70
     8
  9
$DIMBLK
  1

  9
$DIMASO
 70
     1
  9
$DIMSHO
 70
     1
  9
$DIMPOST
  1

  9
$DIMAPOST
  1

  9
$DIMALT
 70
     0
  9
$DIMALTD
 70
     3
  9
$DIMALTF
 40
0.03937
  9
$DIMLFAC
 40
1.0
  9
$DIMTOFL
 70
     1
  9
$DIMTVP
 40
0.0
  9
$DIMTIX
 70
     0
  9
$DIMSOXD
 70
     0
  9
$DIMSAH
 70
     0
  9
$DIMBLK1
  1

  9
$DIMBLK2
  1

  9
$DIMSTYLE
  2
STANDARD
  9
$DIMCLRD
 70
     0
  9
$DIMCLRE
 70
     0
  9
$DIMCLRT
 70
     0
  9
$DIMTFAC
 40
1.0
  9
$DIMGAP
 40
0.625
  9
$DIMJUST
 70
     0
  9
$DIMSD1
 70
     0
  9
$DIMSD2
 70
     0
  9
$DIMTOLJ
 70
     0
  9
$DIMTZIN
 70
     8
  9
$DIMALTZ
 70
     0
  9
$DIMALTTZ
 70
     0
  9
$DIMUPT
 70
     0
  9
$DIMDEC
 70
     2
  9
$DIMTDEC
 70
     2
  9
$DIMALTU
 70
     2
  9
$DIMALTTD
 70
     3
  9
$DIMTXSTY
  7
Standard
  9
$DIMAUNIT
 70
     0
  9
$DIMADEC
 70
     0
  9
$DIMALTRND
 40
0.0
  9
$DIMAZIN
 70
     0
  9
$DIMDSEP
 70
    44
  9
$DIMATFIT
 70
     0
  9
$DIMFRAC
 70
     0
  9
$DIMLDRBLK
  1

  9
$DIMLUNIT
 70
     2
  9
$DIMLWD
 70
    -2
  9
$DIMLWE
 70
    -2
  9
$DIMTMOVE
 70
     0
  9
$LUNITS
 70
     2
  9
$LUPREC
 70
     4
  9
$SKETCHINC
 40
1.0
  9
$FILLETRAD
 40
2.5
  9
$AUNITS
 70
     0
  9
$AUPREC
 70
     0
  9
$MENU
  1
.
  9
$ELEVATION
 40
0.0
  9
$PELEVATION
 40
0.0
  9
$THICKNESS
 40
0.0
  9
$LIMCHECK
 70
     0
  9
$CHAMFERA
 40
2.5
  9
$CHAMFERB
 40
2.5
  9
$CHAMFERC
 40
0.0
  9
$CHAMFERD
 40
0.0
  9
$SKPOLY
 70
     0
  9
$TDCREATE
 40
2447892.875
  9
$TDUCREATE
 40
0.0
  9
$TDUPDATE
 40
2458952.220707257
  9
$TDUUPDATE
 40
2458952.345707257
  9
$TDINDWG
 40
0.0
  9
$TDUSRTIMER
 40
0.0
  9
$USRTIMER
 70
     1
  9
$ANGBASE
 50
0.0
  9
$ANGDIR
 70
     0
  9
$PDMODE
 70
     0
  9
$PDSIZE
 40
0.0
  9
$PLINEWID
 40
0.0
  9
$SPLFRAME
 70
     0
  9
$SPLINETYPE
 70
     6
  9
$SPLINESEGS
 70
     8
  9
$HANDSEED
  5
218
  9
$SURFTAB1
 70
     6
  9
$SURFTAB2
 70
     6
  9
$SURFTYPE
 70
     6
  9
$SURFU
 70
     6
  9
$SURFV
 70
     6
  9
$UCSBASE
  2

  9
$UCSNAME
  2

  9
$UCSORG
 10
0.0
 20
0.0
 30
0.0
  9
$UCSXDIR
 10
1.0
 20
0.0
 30
0.0
  9
$UCSYDIR
 10
0.0
 20
1.0
 30
0.0
  9
$UCSORTHOREF
  2

  9
$UCSORTHOVIEW
 70
     1
  9
$UCSORGTOP
 10
0.0
 20
0.0
 30
0.0
  9
$UCSORGBOTTOM
 10
0.0
 20
0.0
 30
0.0
  9
$UCSORGLEFT
 10
0.0
 20
0.0
 30
0.0
  9
$UCSORGRIGHT
 10
0.0
 20
0.0
 30
0.0
  9
$UCSORGFRONT
 10
0.0
 20
0.0
 30
0.0
  9
$UCSORGBACK
 10
0.0
 20
0.0
 30
0.0
  9
$PUCSBASE
  2

  9
$PUCSNAME
  2

  9
$PUCSORG
 10
0.0
 20
0.0
 30
0.0
  9
$PUCSXDIR
 10
1.0
 20
0.0
 30
0.0
  9
$PUCSYDIR
 10
0.0
 20
1.0
 30
0.0
  9
$PUCSORTHOREF
  2

  9
$PUCSORTHOVIEW
 70
     0
  9
$PUCSORGTOP
 10
0.0
 20
0.0
 30
0.0
  9
$PUCSORGBOTTOM
 10
0.0
 20
0.0
 30
0.0
  9
$PUCSORGLEFT
 10
0.0
 20
0.0
 30
0.0
  9
$PUCSORGRIGHT
 10
0.0
 20
0.0
 30
0.0
  9
$PUCSORGFRONT
 10
0.0
 20
0.0
 30
0.0
  9
$PUCSORGBACK
 10
0.0
 20
0.0
 30
0.0
  9
$USERI1
 70
     0
  9
$USERI2
 70
     0
  9
$USERI3
 70
     0
  9
$USERI4
 70
     0
  9
$USERI5
 70
     0
  9
$USERR1
 40
0.0
  9
$USERR2
 40
0.0
  9
$USERR3
 40
0.0
  9
$USERR4
 40
0.0
  9
$USERR5
 40
0.0
  9
$WORLDVIEW
 70
     1
  9
$SHADEDGE
 70
     3
  9
$SHADEDIF
 70
    70
  9
$TILEMODE
 70
     1
  9
$MAXACTVP
 70
    64
  9
$PINSBASE
 10
0.0
 20
0.0
 30
0.0
  9
$PLIMCHECK
 70
     0
  9
$PEXTMIN
 10
0.0
 20
0.0
 30
0.0
  9
$PEXTMAX
 10
293.399994
 20
206.573776
 30
2.0
  9
$PLIMMIN
 10
0.0
 20
0.0
  9
$PLIMMAX
 10
420.0
 20
297.0
  9
$UNITMODE
 70
     0
  9
$VISRETAIN
 70
     0
  9
$PLINEGEN
 70
     0
  9
$PSLTSCALE
 70
     1
  9
$TREEDEPTH
 70
  3020
  9
$CMLSTYLE
  2
Standard
  9
$CMLJUST
 70
     0
  9
$CMLSCALE
 40
20.0
  9
$PROXYGRAPHICS
 70
     1
  9
$MEASUREMENT
 70
     1
  9
$CELWEIGHT
370
    -1
  9
$ENDCAPS
280
     0
  9
$JOINSTYLE
280
     0
  9
$LWDISPLAY
290
     0
  9
$INSUNITS
 70
     0
  9
$HYPERLINKBASE
  1

  9
$STYLESHEET
  1

  9
$XEDIT
290
     1
  9
$CEPSNTYPE
380
     0
  9
$PSTYLEMODE
290
     0
  9
$FINGERPRINTGUID
  2
{F20401A9-BC05-476A-AE21-60C4D1ED3A36}
  9
$VERSIONGUID
  2
{FAEB1C32-E019-11D5-929B-00C0DF256EC4}
  9
$EXTNAMES
290
     1
  9
$PSVPSCALE
 40
0.0
  9
$OLESTARTUP
290
     0
  0
ENDSEC
  0
SECTION
  2
CLASSES
  0
CLASS
  1
ACDBDICTIONARYWDFLT
  2
AcDbDictionaryWithDefault
  3
ObjectDBX Classes
 90
        0
280
     0
281
     0
  0
CLASS
  1
VISUALSTYLE
  2
AcDbVisualStyle
  3
ObjectDBX Classes
 90
     4095
280
     0
281
     0
  0
CLASS
  1
MATERIAL
  2
AcDbMaterial
  3
ObjectDBX Classes
 90
     1153
280
     0
281
     0
  0
CLASS
  1
SCALE
  2
AcDbScale
  3
ObjectDBX Classes
 90
     1153
280
     0
281
     0
  0
CLASS
  1
TABLESTYLE
  2
AcDbTableStyle
  3
ObjectDBX Classes
 90
     4095
280
     0
281
     0
  0
CLASS
  1
MLEADERSTYLE
  2
AcDbMLeaderStyle
  3
ACDB_MLEADERSTYLE_CLASS
 90
     4095
280
     0
281
     0
  0
CLASS
  1
SUN
  2
AcDbSun
  3
SCENEOE
 90
     1153
280
     0
281
     0
  0
CLASS
  1
ACDBPLACEHOLDER
  2
AcDbPlaceHolder
  3
ObjectDBX Classes
 90
        0
280
     0
281
     0
  0
CLASS
  1
LAYOUT
  2
AcDbLayout
  3
ObjectDBX Classes
 90
        0
280
     0
281
     0
  0
ENDSEC
  0
SECTION
  2
TABLES
  0
TABLE
  2
VPORT
  5
8
330
0
100
AcDbSymbolTable
 70
     1
  0
VPORT
  5
29
330
8
100
AcDbSymbolTableRecord
100
AcDbViewportTableRecord
  2
*Active
 70
     0
 10
0.0
 20
0.0
 11
1.0
 21
1.0
 12
10.429907
 22
4.5
 13
0.0
 23
0.0
 14
0.5
 24
0.5
 15
0.5
 25
0.5
 16
0.0
 26
0.0
 36
1.0
 17
0.0
 27
0.0
 37
0.0
 40
9.0
 41
1.972973
 42
50.0
 43
0.0
 44
0.0
 50
0.0
 51
0.0
 71
     0
 72
   100
 73
     1
 74
     3
 75
     0
 76
     0
 77
     0
 78
     0
281
     0
 65
     1
110
0.0
120
0.0
130
0.0
111
1.0
121
0.0
131
0.0
112
0.0
122
1.0
132
0.0
 79
     0
146
0.0
  0
ENDTAB
  0
TABLE
  2
LTYPE
  5
5
330
0
100
AcDbSymbolTable
 70
     2
  0
LTYPE
  5
14
330
5
100
AcDbSymbolTableRecord
100
AcDbLinetypeTableRecord
  2
ByBlock
 70
     0
  3

 72
    65
 73
     0
 40
0.0
  0
LTYPE
  5
15
330
5
100
AcDbSymbolTableRecord
100
AcDbLinetypeTableRecord
  2
ByLayer
 70
     0
  3

 72
    65
 73
     0
 40
0.0
  0
LTYPE
  5
16
330
5
100
AcDbSymbolTableRecord
100
AcDbLinetypeTableRecord
  2
Continuous
 70
     0
  3
Solid line
 72
    65
 73
     0
 40
0.0
  0
LTYPE
  5
6F
330
5
100
AcDbSymbolTableRecord
100
AcDbLinetypeTableRecord
  2
DASHDOT
 70
     0
  3
 __ . __ . __ . __ . __ . __ . __ . 
 72
    65
 73
     4
 40
18.5
 49
12.0
 74
     0
 49
-3.0
 74
     0
 49
0.5
 74
     0
 49
-3.0
 74
     0
  0
ENDTAB
  0
TABLE
  2
LAYER
  5
2
330
0
100
AcDbSymbolTable
 70
     1
  0
LAYER
  5
10
330
2
100
AcDbSymbolTableRecord
100
AcDbLayerTableRecord
  2
0
 70
     0
 62
     7
  6
Continuous
370
    13
390
F
  0
ENDTAB
  0
TABLE
  2
STYLE
  5
3
330
0
100
AcDbSymbolTable
 70
     2
  0
STYLE
  5
11
330
3
100
AcDbSymbolTableRecord
100
AcDbTextStyleTableRecord
  2
Standard
 70
     0
 40
0.0
 41
1.0
 50
0.0
 71
     0
 42
2.5
  3
isocp.shx
  4

  0
STYLE
  5
6E
330
3
100
AcDbSymbolTableRecord
100
AcDbTextStyleTableRecord
  2
GDT
 70
     0
 40
0.0
 41
1.0
 50
0.0
 71
     0
 42
0.2
  3
gdt.shx
  4

  0
ENDTAB
  0
TABLE
  2
VIEW
  5
6
330
0
100
AcDbSymbolTable
 70
     0
  0
ENDTAB
  0
TABLE
  2
UCS
  5
7
330
0
100
AcDbSymbolTable
 70
     0
  0
ENDTAB
  0
TABLE
  2
APPID
  5
9
330
0
100
AcDbSymbolTable
 70
     1
  0
APPID
  5
12
330
9
100
AcDbSymbolTableRecord
100
AcDbRegAppTableRecord
  2
ACAD
 70
     0
  0
ENDTAB
  0
TABLE
  2
DIMSTYLE
  5
A
330
0
100
AcDbSymbolTable
 70
     1
100
AcDbDimStyleTable
  0
DIMSTYLE
105
27
102
{ACAD_REACTORS
330
214
102
}
330
A
100
AcDbSymbolTableRecord
100
AcDbDimStyleTableRecord
  2
STANDARD
 70
     0
 41
2.5
 42
0.625
 43
3.75
 44
1.25
 73
     0
 74
     0
 77
     1
 78
     8
140
2.5
141
2.5
143
0.03937
147
0.625
171
     3
172
     1
178
     0
271
     2
272
     2
274
     3
278
    44
283
     0
284
     8
289
     0
340
0
  0
ENDTAB
  0
TABLE
  2
BLOCK_RECORD
  5
1
330
0
100
AcDbSymbolTable
 70
    61
  0
BLOCK_RECORD
  5
1F
330
1
100
AcDbSymbolTableRecord
100
AcDbBlockTableRecord
  2
*Model_Space
340
22
  0
BLOCK_RECORD
  5
1B
330
1
100
AcDbSymbolTableRecord
100
AcDbBlockTableRecord
  2
*Paper_Space
340
1E
  0
BLOCK_RECORD
  5
23
330
1
100
AcDbSymbolTableRecord
100
AcDbBlockTableRecord
  2
*Paper_Space0
340
26
  0
BLOCK_RECORD
  5
70
330
1
100
AcDbSymbolTableRecord
100
AcDbBlockTableRecord
  2
BLOCK673
340
0
102
{BLKREFS
331
1A2
102
}
  0
BLOCK_RECORD
  5
73
330
1
100
AcDbSymbolTableRecord
100
AcDbBlockTableRecord
  2
BLOCK674
340
0
102
{BLKREFS
331
1A3
102
}
  0
BLOCK_RECORD
  5
76
330
1
100
AcDbSymbolTableRecord
100
AcDbBlockTableRecord
  2
BLOCK675
340
0
102
{BLKREFS
331
1A4
102
}
  0
BLOCK_RECORD
  5
79
330
1
100
AcDbSymbolTableRecord
100
AcDbBlockTableRecord
  2
BLOCK676
340
0
102
{BLKREFS
331
1A5
102
}
  0
BLOCK_RECORD
  5
7C
330
1
100
AcDbSymbolTableRecord
100
AcDbBlockTableRecord
  2
BLOCK677
340
0
102
{BLKREFS
331
1A6
102
}
  0
BLOCK_RECORD
  5
7F
330
1
100
AcDbSymbolTableRecord
100
AcDbBlockTableRecord
  2
BLOCK678
340
0
102
{BLKREFS
331
1A7
102
}
  0
BLOCK_RECORD
  5
82
330
1
100
AcDbSymbolTableRecord
100
AcDbBlockTableRecord
  2
BLOCK679
340
0
102
{BLKREFS
331
1A8
102
}
  0
BLOCK_RECORD
  5
85
330
1
100
AcDbSymbolTableRecord
100
AcDbBlockTableRecord
  2
BLOCK680
340
0
102
{BLKREFS
331
1A9
102
}
  0
BLOCK_RECORD
  5
88
330
1
100
AcDbSymbolTableRecord
100
AcDbBlockTableRecord
  2
BLOCK681
340
0
102
{BLKREFS
331
1AA
102
}
  0
BLOCK_RECORD
  5
8B
330
1
100
AcDbSymbolTableRecord
100
AcDbBlockTableRecord
  2
BLOCK682
340
0
102
{BLKREFS
331
1AB
102
}
  0
BLOCK_RECORD
  5
8E
330
1
100
AcDbSymbolTableRecord
100
AcDbBlockTableRecord
  2
BLOCK683
340
0
102
{BLKREFS
331
1AC
102
}
  0
BLOCK_RECORD
  5
91
330
1
100
AcDbSymbolTableRecord
100
AcDbBlockTableRecord
  2
BLOCK684
340
0
102
{BLKREFS
331
1AD
102
}
  0
BLOCK_RECORD
  5
94
330
1
100
AcDbSymbolTableRecord
100
AcDbBlockTableRecord
  2
BLOCK685
340
0
102
{BLKREFS
331
1AE
102
}
  0
BLOCK_RECORD
  5
97
330
1
100
AcDbSymbolTableRecord
100
AcDbBlockTableRecord
  2
BLOCK686
340
0
102
{BLKREFS
331
1AF
102
}
  0
BLOCK_RECORD
  5
9A
330
1
100
AcDbSymbolTableRecord
100
AcDbBlockTableRecord
  2
BLOCK687
340
0
102
{BLKREFS
331
1B0
102
}
  0
BLOCK_RECORD
  5
9D
330
1
100
AcDbSymbolTableRecord
100
AcDbBlockTableRecord
  2
BLOCK688
340
0
102
{BLKREFS
331
1B1
102
}
  0
BLOCK_RECORD
  5
A0
330
1
100
AcDbSymbolTableRecord
100
AcDbBlockTableRecord
  2
BLOCK689
340
0
102
{BLKREFS
331
1B2
102
}
  0
BLOCK_RECORD
  5
A3
330
1
100
AcDbSymbolTableRecord
100
AcDbBlockTableRecord
  2
BLOCK690
340
0
102
{BLKREFS
331
1B3
102
}
  0
BLOCK_RECORD
  5
A6
330
1
100
AcDbSymbolTableRecord
100
AcDbBlockTableRecord
  2
BLOCK691
340
0
102
{BLKREFS
331
1B4
102
}
  0
BLOCK_RECORD
  5
A9
330
1
100
AcDbSymbolTableRecord
100
AcDbBlockTableRecord
  2
BLOCK692
340
0
102
{BLKREFS
331
1B5
102
}
  0
BLOCK_RECORD
  5
AC
330
1
100
AcDbSymbolTableRecord
100
AcDbBlockTableRecord
  2
BLOCK693
340
0
102
{BLKREFS
331
1B6
102
}
  0
BLOCK_RECORD
  5
AF
330
1
100
AcDbSymbolTableRecord
100
AcDbBlockTableRecord
  2
BLOCK694
340
0
102
{BLKREFS
331
1B7
102
}
  0
BLOCK_RECORD
  5
B2
330
1
100
AcDbSymbolTableRecord
100
AcDbBlockTableRecord
  2
BLOCK695
340
0
102
{BLKREFS
331
1B8
102
}
  0
BLOCK_RECORD
  5
B5
330
1
100
AcDbSymbolTableRecord
100
AcDbBlockTableRecord
  2
BLOCK696
340
0
102
{BLKREFS
331
1B9
102
}
  0
BLOCK_RECORD
  5
B8
330
1
100
AcDbSymbolTableRecord
100
AcDbBlockTableRecord
  2
BLOCK697
340
0
102
{BLKREFS
331
1BA
102
}
  0
BLOCK_RECORD
  5
BB
330
1
100
AcDbSymbolTableRecord
100
AcDbBlockTableRecord
  2
BLOCK698
340
0
102
{BLKREFS
331
1BB
102
}
  0
BLOCK_RECORD
  5
BE
330
1
100
AcDbSymbolTableRecord
100
AcDbBlockTableRecord
  2
BLOCK699
340
0
102
{BLKREFS
331
1BC
102
}
  0
BLOCK_RECORD
  5
C1
330
1
100
AcDbSymbolTableRecord
100
AcDbBlockTableRecord
  2
BLOCK700
340
0
102
{BLKREFS
331
1BD
102
}
  0
BLOCK_RECORD
  5
C4
330
1
100
AcDbSymbolTableRecord
100
AcDbBlockTableRecord
  2
BLOCK701
340
0
102
{BLKREFS
331
1BE
102
}
  0
BLOCK_RECORD
  5
C7
330
1
100
AcDbSymbolTableRecord
100
AcDbBlockTableRecord
  2
BLOCK702
340
0
102
{BLKREFS
331
1BF
102
}
  0
BLOCK_RECORD
  5
CA
330
1
100
AcDbSymbolTableRecord
100
AcDbBlockTableRecord
  2
BLOCK703
340
0
102
{BLKREFS
331
1C0
102
}
  0
BLOCK_RECORD
  5
CD
330
1
100
AcDbSymbolTableRecord
100
AcDbBlockTableRecord
  2
BLOCK704
340
0
102
{BLKREFS
331
1C1
102
}
  0
BLOCK_RECORD
  5
D0
330
1
100
AcDbSymbolTableRecord
100
AcDbBlockTableRecord
  2
BLOCK705
340
0
102
{BLKREFS
331
1C2
102
}
  0
BLOCK_RECORD
  5
D3
330
1
100
AcDbSymbolTableRecord
100
AcDbBlockTableRecord
  2
BLOCK706
340
0
102
{BLKREFS
331
1C3
102
}
  0
BLOCK_RECORD
  5
D6
330
1
100
AcDbSymbolTableRecord
100
AcDbBlockTableRecord
  2
BLOCK707
340
0
102
{BLKREFS
331
1C4
102
}
  0
BLOCK_RECORD
  5
D9
330
1
100
AcDbSymbolTableRecord
100
AcDbBlockTableRecord
  2
BLOCK708
340
0
102
{BLKREFS
331
1C5
102
}
  0
BLOCK_RECORD
  5
DC
330
1
100
AcDbSymbolTableRecord
100
AcDbBlockTableRecord
  2
BLOCK709
340
0
102
{BLKREFS
331
1C6
102
}
  0
BLOCK_RECORD
  5
DF
330
1
100
AcDbSymbolTableRecord
100
AcDbBlockTableRecord
  2
BLOCK710
340
0
102
{BLKREFS
331
1C7
102
}
  0
BLOCK_RECORD
  5
E2
330
1
100
AcDbSymbolTableRecord
100
AcDbBlockTableRecord
  2
BLOCK711
340
0
102
{BLKREFS
331
1C8
102
}
  0
BLOCK_RECORD
  5
E5
330
1
100
AcDbSymbolTableRecord
100
AcDbBlockTableRecord
  2
BLOCK712
340
0
102
{BLKREFS
331
1C9
102
}
  0
BLOCK_RECORD
  5
E8
330
1
100
AcDbSymbolTableRecord
100
AcDbBlockTableRecord
  2
BLOCK713
340
0
102
{BLKREFS
331
1CA
102
}
  0
BLOCK_RECORD
  5
EB
330
1
100
AcDbSymbolTableRecord
100
AcDbBlockTableRecord
  2
BLOCK714
340
0
102
{BLKREFS
331
1CB
102
}
  0
BLOCK_RECORD
  5
EE
330
1
100
AcDbSymbolTableRecord
100
AcDbBlockTableRecord
  2
BLOCK715
340
0
102
{BLKREFS
331
1CC
102
}
  0
BLOCK_RECORD
  5
F1
330
1
100
AcDbSymbolTableRecord
100
AcDbBlockTableRecord
  2
BLOCK716
340
0
102
{BLKREFS
331
1CD
102
}
  0
BLOCK_RECORD
  5
F4
330
1
100
AcDbSymbolTableRecord
100
AcDbBlockTableRecord
  2
BLOCK717
340
0
102
{BLKREFS
331
1CE
102
}
  0
BLOCK_RECORD
  5
F7
330
1
100
AcDbSymbolTableRecord
100
AcDbBlockTableRecord
  2
BLOCK718
340
0
102
{BLKREFS
331
1CF
102
}
  0
BLOCK_RECORD
  5
FA
330
1
100
AcDbSymbolTableRecord
100
AcDbBlockTableRecord
  2
BLOCK719
340
0
102
{BLKREFS
331
1D0
102
}
  0
BLOCK_RECORD
  5
FD
330
1
100
AcDbSymbolTableRecord
100
AcDbBlockTableRecord
  2
BLOCK720
340
0
102
{BLKREFS
331
1D1
102
}
  0
BLOCK_RECORD
  5
100
330
1
100
AcDbSymbolTableRecord
100
AcDbBlockTableRecord
  2
BLOCK721
340
0
102
{BLKREFS
331
1D2
102
}
  0
BLOCK_RECORD
  5
103
330
1
100
AcDbSymbolTableRecord
100
AcDbBlockTableRecord
  2
BLOCK722
340
0
102
{BLKREFS
331
1D3
102
}
  0
BLOCK_RECORD
  5
106
330
1
100
AcDbSymbolTableRecord
100
AcDbBlockTableRecord
  2
BLOCK723
340
0
102
{BLKREFS
331
1D4
102
}
  0
BLOCK_RECORD
  5
109
330
1
100
AcDbSymbolTableRecord
100
AcDbBlockTableRecord
  2
BLOCK724
340
0
102
{BLKREFS
331
1D5
102
}
  0
BLOCK_RECORD
  5
10C
330
1
100
AcDbSymbolTableRecord
100
AcDbBlockTableRecord
  2
BLOCK725
340
0
102
{BLKREFS
331
1D6
102
}
  0
BLOCK_RECORD
  5
10F
330
1
100
AcDbSymbolTableRecord
100
AcDbBlockTableRecord
  2
BLOCK726
340
0
102
{BLKREFS
331
20F
102
}
  0
BLOCK_RECORD
  5
112
330
1
100
AcDbSymbolTableRecord
100
AcDbBlockTableRecord
  2
BLOCK727
340
0
102
{BLKREFS
331
210
102
}
  0
BLOCK_RECORD
  5
115
330
1
100
AcDbSymbolTableRecord
100
AcDbBlockTableRecord
  2
BLOCK728
340
0
102
{BLKREFS
331
211
102
}
  0
BLOCK_RECORD
  5
118
330
1
100
AcDbSymbolTableRecord
100
AcDbBlockTableRecord
  2
BLOCK729
340
0
102
{BLKREFS
331
212
102
}
  0
BLOCK_RECORD
  5
11B
330
1
100
AcDbSymbolTableRecord
100
AcDbBlockTableRecord
  2
BLOCK730
340
0
102
{BLKREFS
331
213
102
}
  0
BLOCK_RECORD
  5
11E
330
1
100
AcDbSymbolTableRecord
100
AcDbBlockTableRecord
  2
*D59
340
0
  0
BLOCK_RECORD
  5
121
330
1
100
AcDbSymbolTableRecord
100
AcDbBlockTableRecord
  2
BLOCK731
340
0
102
{BLKREFS
331
217
102
}
  0
ENDTAB
  0
ENDSEC
  0
SECTION
  2
BLOCKS
  0
BLOCK
  5
20
330
1F
100
AcDbEntity
  8
0
100
AcDbBlockBegin
  2
*Model_Space
 70
     0
 10
0.0
 20
0.0
 30
0.0
  3
*Model_Space
  1

  0
ENDBLK
  5
21
330
1F
100
AcDbEntity
  8
0
100
AcDbBlockEnd
  0
BLOCK
  5
1C
330
1B
100
AcDbEntity
 67
     1
  8
0
100
AcDbBlockBegin
  2
*Paper_Space
 70
     0
 10
0.0
 20
0.0
 30
0.0
  3
*Paper_Space
  1

  0
ENDBLK
  5
1D
330
1B
100
AcDbEntity
 67
     1
  8
0
100
AcDbBlockEnd
  0
BLOCK
  5
24
330
23
100
AcDbEntity
  8
0
100
AcDbBlockBegin
  2
*Paper_Space0
 70
     0
 10
0.0
 20
0.0
 30
0.0
  3
*Paper_Space0
  1

  0
ENDBLK
  5
25
330
23
100
AcDbEntity
  8
0
100
AcDbBlockEnd
  0
BLOCK
  5
71
330
70
100
AcDbEntity
  8
0
100
AcDbBlockBegin
  2
BLOCK673
 70
     0
 10
0.0
 20
0.0
 30
0.0
  3
BLOCK673
  1

  0
TEXT
  5
124
330
70
100
AcDbEntity
  8
0
 62
     7
370
    18
100
AcDbText
 10
258.226196
 20
3.076224
 30
0.0
 40
3.5
  1
A
 41
1.110901
 72
     5
 11
261.373749
 21
3.076224
 31
0.0
100
AcDbText
  0
ENDBLK
  5
72
330
70
100
AcDbEntity
  8
0
100
AcDbBlockEnd
  0
BLOCK
  5
74
330
73
100
AcDbEntity
  8
0
100
AcDbBlockBegin
  2
BLOCK674
 70
     0
 10
0.0
 20
0.0
 30
0.0
  3
BLOCK674
  1

  0
TEXT
  5
125
330
73
100
AcDbEntity
  8
0
 62
     7
370
    18
100
AcDbText
 10
35.799999
 20
3.076224
 30
0.0
 40
3.5
  1
D
 41
0.933333
 72
     5
 11
38.599998
 21
3.076224
 31
0.0
100
AcDbText
  0
ENDBLK
  5
75
330
73
100
AcDbEntity
  8
0
100
AcDbBlockEnd
  0
BLOCK
  5
77
330
76
100
AcDbEntity
  8
0
100
AcDbBlockBegin
  2
BLOCK675
 70
     0
 10
0.0
 20
0.0
 30
0.0
  3
BLOCK675
  1

  0
TEXT
  5
126
330
76
100
AcDbEntity
  8
0
 62
     7
370
    18
100
AcDbText
 10
187.523788
 20
203.600006
 30
0.0
 40
3.5
  1
B
 50
90.0
 41
0.933334
 72
     5
 11
187.523788
 21
206.400009
 31
0.0
100
AcDbText
  0
ENDBLK
  5
78
330
76
100
AcDbEntity
  8
0
100
AcDbBlockEnd
  0
BLOCK
  5
7A
330
79
100
AcDbEntity
  8
0
100
AcDbBlockBegin
  2
BLOCK676
 70
     0
 10
0.0
 20
0.0
 30
0.0
  3
BLOCK676
  1

  0
TEXT
  5
127
330
79
100
AcDbEntity
  8
0
 62
     7
370
    18
100
AcDbText
 10
113.323776
 20
203.77623
 30
0.0
 40
3.5
  1
C
 50
90.0
 41
0.815852
 72
     5
 11
113.323776
 21
206.223785
 31
0.0
100
AcDbText
  0
ENDBLK
  5
7B
330
79
100
AcDbEntity
  8
0
100
AcDbBlockEnd
  0
BLOCK
  5
7D
330
7C
100
AcDbEntity
  8
0
100
AcDbBlockBegin
  2
BLOCK677
 70
     0
 10
0.0
 20
0.0
 30
0.0
  3
BLOCK677
  1

  0
TEXT
  5
128
330
7C
100
AcDbEntity
  8
0
 62
     7
370
    18
100
AcDbText
 10
261.723755
 20
203.426224
 30
0.0
 40
3.5
  1
A
 50
90.0
 41
1.110901
 72
     5
 11
261.723755
 21
206.573776
 31
0.0
100
AcDbText
  0
ENDBLK
  5
7E
330
7C
100
AcDbEntity
  8
0
100
AcDbBlockEnd
  0
BLOCK
  5
80
330
7F
100
AcDbEntity
  8
0
100
AcDbBlockBegin
  2
BLOCK678
 70
     0
 10
0.0
 20
0.0
 30
0.0
  3
BLOCK678
  1

  0
TEXT
  5
129
330
7F
100
AcDbEntity
  8
0
 62
     7
370
    18
100
AcDbText
 10
39.123775
 20
203.600006
 30
0.0
 40
3.5
  1
D
 50
90.0
 41
0.933334
 72
     5
 11
39.123775
 21
206.400009
 31
0.0
100
AcDbText
  0
ENDBLK
  5
81
330
7F
100
AcDbEntity
  8
0
100
AcDbBlockEnd
  0
BLOCK
  5
83
330
82
100
AcDbEntity
  8
0
100
AcDbBlockBegin
  2
BLOCK679
 70
     0
 10
0.0
 20
0.0
 30
0.0
  3
BLOCK679
  1

  0
TEXT
  5
12A
330
82
100
AcDbEntity
  8
0
 62
     7
370
    18
100
AcDbText
 10
290.776215
 20
129.326218
 30
0.0
 40
3.5
  1
3
 41
0.863838
 72
     5
 11
293.223755
 21
129.326218
 31
0.0
100
AcDbText
  0
ENDBLK
  5
84
330
82
100
AcDbEntity
  8
0
100
AcDbBlockEnd
  0
BLOCK
  5
86
330
85
100
AcDbEntity
  8
0
100
AcDbBlockBegin
  2
BLOCK680
 70
     0
 10
0.0
 20
0.0
 30
0.0
  3
BLOCK680
  1

  0
TEXT
  5
12B
330
85
100
AcDbEntity
  8
0
 62
     7
370
    18
100
AcDbText
 10
6.923776
 20
130.02623
 30
0.0
 40
3.5
  1
3
 50
90.0
 41
0.863843
 72
     5
 11
6.923776
 21
132.473785
 31
0.0
100
AcDbText
  0
ENDBLK
  5
87
330
85
100
AcDbEntity
  8
0
100
AcDbBlockEnd
  0
BLOCK
  5
89
330
88
100
AcDbEntity
  8
0
100
AcDbBlockBegin
  2
BLOCK681
 70
     0
 10
0.0
 20
0.0
 30
0.0
  3
BLOCK681
  1

  0
TEXT
  5
12C
330
88
100
AcDbEntity
  8
0
 62
     7
370
    18
100
AcDbText
 10
290.776215
 20
76.826225
 30
0.0
 40
3.5
  1
2
 41
0.863838
 72
     5
 11
293.223755
 21
76.826225
 31
0.0
100
AcDbText
  0
ENDBLK
  5
8A
330
88
100
AcDbEntity
  8
0
100
AcDbBlockEnd
  0
BLOCK
  5
8C
330
8B
100
AcDbEntity
  8
0
100
AcDbBlockBegin
  2
BLOCK682
 70
     0
 10
0.0
 20
0.0
 30
0.0
  3
BLOCK682
  1

  0
TEXT
  5
12D
330
8B
100
AcDbEntity
  8
0
 62
     7
370
    18
100
AcDbText
 10
6.923776
 20
77.526222
 30
0.0
 40
3.5
  1
2
 50
90.0
 41
0.863843
 72
     5
 11
6.923776
 21
79.973778
 31
0.0
100
AcDbText
  0
ENDBLK
  5
8D
330
8B
100
AcDbEntity
  8
0
100
AcDbBlockEnd
  0
BLOCK
  5
8F
330
8E
100
AcDbEntity
  8
0
100
AcDbBlockBegin
  2
BLOCK683
 70
     0
 10
0.0
 20
0.0
 30
0.0
  3
BLOCK683
  1

  0
TEXT
  5
12E
330
8E
100
AcDbEntity
  8
0
 62
     7
370
    18
100
AcDbText
 10
290.600006
 20
181.826218
 30
0.0
 40
3.5
  1
4
 41
0.933329
 72
     5
 11
293.399994
 21
181.826218
 31
0.0
100
AcDbText
  0
ENDBLK
  5
90
330
8E
100
AcDbEntity
  8
0
100
AcDbBlockEnd
  0
BLOCK
  5
92
330
91
100
AcDbEntity
  8
0
100
AcDbBlockBegin
  2
BLOCK684
 70
     0
 10
0.0
 20
0.0
 30
0.0
  3
BLOCK684
  1

  0
TEXT
  5
12F
330
91
100
AcDbEntity
  8
0
 62
     7
370
    18
100
AcDbText
 10
6.923776
 20
182.350006
 30
0.0
 40
3.5
  1
4
 50
90.0
 41
0.933334
 72
     5
 11
6.923776
 21
185.150009
 31
0.0
100
AcDbText
  0
ENDBLK
  5
93
330
91
100
AcDbEntity
  8
0
100
AcDbBlockEnd
  0
BLOCK
  5
95
330
94
100
AcDbEntity
  8
0
100
AcDbBlockBegin
  2
BLOCK685
 70
     0
 10
0.0
 20
0.0
 30
0.0
  3
BLOCK685
  1

  0
TEXT
  5
130
330
94
100
AcDbEntity
  8
0
 62
     7
370
    18
100
AcDbText
 10
291.126221
 20
24.326223
 30
0.0
 40
3.5
  1
1
 41
0.953214
 72
     5
 11
292.873779
 21
24.326223
 31
0.0
100
AcDbText
  0
ENDBLK
  5
96
330
94
100
AcDbEntity
  8
0
100
AcDbBlockEnd
  0
BLOCK
  5
98
330
97
100
AcDbEntity
  8
0
100
AcDbBlockBegin
  2
BLOCK686
 70
     0
 10
0.0
 20
0.0
 30
0.0
  3
BLOCK686
  1

  0
TEXT
  5
131
330
97
100
AcDbEntity
  8
0
 62
     7
370
    18
100
AcDbText
 10
6.923776
 20
25.376225
 30
0.0
 40
3.5
  1
1
 50
90.0
 41
0.953211
 72
     5
 11
6.923776
 21
27.123777
 31
0.0
100
AcDbText
  0
ENDBLK
  5
99
330
97
100
AcDbEntity
  8
0
100
AcDbBlockEnd
  0
BLOCK
  5
9B
330
9A
100
AcDbEntity
  8
0
100
AcDbBlockBegin
  2
BLOCK687
 70
     0
 10
0.0
 20
0.0
 30
0.0
  3
BLOCK687
  1

  0
TEXT
  5
132
330
9A
100
AcDbEntity
  8
0
 62
     7
370
    18
100
AcDbText
 10
98.0
 20
11.175525
 30
0.0
 40
1.5
  1
This drawing is our property; it can't be reproduced or communicated without our written agreement.
 41
0.779092
 72
     5
 11
192.437073
 21
11.175525
 31
0.0
100
AcDbText
  0
ENDBLK
  5
9C
330
9A
100
AcDbEntity
  8
0
100
AcDbBlockEnd
  0
BLOCK
  5
9E
330
9D
100
AcDbEntity
  8
0
100
AcDbBlockBegin
  2
BLOCK688
 70
     0
 10
0.0
 20
0.0
 30
0.0
  3
BLOCK688
  1

  0
TEXT
  5
133
330
9D
100
AcDbEntity
  8
0
 62
     7
370
    18
100
AcDbText
 10
98.0
 20
24.751049
 30
0.0
 40
1.5
  1
SCALE
 41
0.857432
 72
     5
 11
103.695801
 21
24.751049
 31
0.0
100
AcDbText
  0
ENDBLK
  5
9F
330
9D
100
AcDbEntity
  8
0
100
AcDbBlockEnd
  0
BLOCK
  5
A1
330
A0
100
AcDbEntity
  8
0
100
AcDbBlockBegin
  2
BLOCK689
 70
     0
 10
0.0
 20
0.0
 30
0.0
  3
BLOCK689
  1

  0
TEXT
  5
134
330
A0
100
AcDbEntity
  8
0
 62
     7
370
    18
100
AcDbText
 10
96.755241
 20
16.0
 30
0.0
 40
5.0
  1
  1:1
 41
0.631999
 72
     5
 11
109.244751
 21
16.0
 31
0.0
100
AcDbText
  0
ENDBLK
  5
A2
330
A0
100
AcDbEntity
  8
0
100
AcDbBlockEnd
  0
BLOCK
  5
A4
330
A3
100
AcDbEntity
  8
0
100
AcDbBlockBegin
  2
BLOCK690
 70
     0
 10
0.0
 20
0.0
 30
0.0
  3
BLOCK690
  1

  0
TEXT
  5
135
330
A3
100
AcDbEntity
  8
0
 62
     7
370
    18
100
AcDbText
 10
118.0
 20
24.751049
 30
0.0
 40
1.5
  1
WEIGHT (kg)
 41
0.802234
 72
     5
 11
128.944763
 21
24.751049
 31
0.0
100
AcDbText
  0
ENDBLK
  5
A5
330
A3
100
AcDbEntity
  8
0
100
AcDbBlockEnd
  0
BLOCK
  5
A7
330
A6
100
AcDbEntity
  8
0
100
AcDbBlockBegin
  2
BLOCK691
 70
     0
 10
0.0
 20
0.0
 30
0.0
  3
BLOCK691
  1

  0
TEXT
  5
136
330
A6
100
AcDbEntity
  8
0
 62
     7
370
    18
100
AcDbText
 10
123.381119
 20
16.0
 30
0.0
 40
5.0
  1
0,05
 41
0.767143
 72
     5
 11
135.618881
 21
16.0
 31
0.0
100
AcDbText
  0
ENDBLK
  5
A8
330
A6
100
AcDbEntity
  8
0
100
AcDbBlockEnd
  0
BLOCK
  5
AA
330
A9
100
AcDbEntity
  8
0
100
AcDbBlockBegin
  2
BLOCK692
 70
     0
 10
0.0
 20
0.0
 30
0.0
  3
BLOCK692
  1

  0
TEXT
  5
137
330
A9
100
AcDbEntity
  8
0
 62
     7
370
    18
100
AcDbText
 10
143.0
 20
24.751049
 30
0.0
 40
1.5
  1
DRAWING NUMBER
 41
0.811442
 72
     5
 11
159.344757
 21
24.751049
 31
0.0
100
AcDbText
  0
ENDBLK
  5
AB
330
A9
100
AcDbEntity
  8
0
100
AcDbBlockEnd
  0
BLOCK
  5
AD
330
AC
100
AcDbEntity
  8
0
100
AcDbBlockBegin
  2
BLOCK693
 70
     0
 10
0.0
 20
0.0
 30
0.0
  3
BLOCK693
  1

  0
TEXT
  5
138
330
AC
100
AcDbEntity
  8
0
 62
     7
370
    18
100
AcDbText
 10
169.211182
 20
15.6
 30
0.0
 40
4.0
  1
ALUMINIO + NYLON
 41
0.781969
 72
     5
 11
214.788803
 21
15.6
 31
0.0
100
AcDbText
  0
ENDBLK
  5
AE
330
AC
100
AcDbEntity
  8
0
100
AcDbBlockEnd
  0
BLOCK
  5
B0
330
AF
100
AcDbEntity
  8
0
100
AcDbBlockBegin
  2
BLOCK694
 70
     0
 10
0.0
 20
0.0
 30
0.0
  3
BLOCK694
  1

  0
TEXT
  5
139
330
AF
100
AcDbEntity
  8
0
 62
     7
370
    18
100
AcDbText
 10
243.0
 20
24.751049
 30
0.0
 40
1.5
  1
SHEET
 41
0.839691
 72
     5
 11
248.697906
 21
24.751049
 31
0.0
100
AcDbText
  0
ENDBLK
  5
B1
330
AF
100
AcDbEntity
  8
0
100
AcDbBlockEnd
  0
BLOCK
  5
B3
330
B2
100
AcDbEntity
  8
0
100
AcDbBlockBegin
  2
BLOCK695
 70
     0
 10
0.0
 20
0.0
 30
0.0
  3
BLOCK695
  1

  0
TEXT
  5
13A
330
B2
100
AcDbEntity
  8
0
 62
     7
370
    18
100
AcDbText
 10
247.755249
 20
16.0
 30
0.0
 40
5.0
  1
1/1
 41
0.672753
 72
     5
 11
256.244751
 21
16.0
 31
0.0
100
AcDbText
  0
ENDBLK
  5
B4
330
B2
100
AcDbEntity
  8
0
100
AcDbBlockEnd
  0
BLOCK
  5
B6
330
B5
100
AcDbEntity
  8
0
100
AcDbBlockBegin
  2
BLOCK696
 70
     0
 10
0.0
 20
0.0
 30
0.0
  3
BLOCK696
  1

  0
TEXT
  5
13B
330
B5
100
AcDbEntity
  8
0
 62
     7
370
    18
100
AcDbText
 10
98.0
 20
37.751049
 30
0.0
 40
1.5
  1
SIZE
 41
0.839548
 72
     5
 11
101.897903
 21
37.751049
 31
0.0
100
AcDbText
  0
ENDBLK
  5
B7
330
B5
100
AcDbEntity
  8
0
100
AcDbBlockEnd
  0
BLOCK
  5
B9
330
B8
100
AcDbEntity
  8
0
100
AcDbBlockBegin
  2
BLOCK697
 70
     0
 10
0.0
 20
0.0
 30
0.0
  3
BLOCK697
  1

  0
TEXT
  5
13C
330
B8
100
AcDbEntity
  8
0
 62
     7
370
    18
100
AcDbText
 10
102.751747
 20
31.0
 30
0.0
 40
5.0
  1
A4
 41
0.991259
 72
     5
 11
111.248253
 21
31.0
 31
0.0
100
AcDbText
  0
ENDBLK
  5
BA
330
B8
100
AcDbEntity
  8
0
100
AcDbBlockEnd
  0
BLOCK
  5
BC
330
BB
100
AcDbEntity
  8
0
100
AcDbBlockBegin
  2
BLOCK698
 70
     0
 10
0.0
 20
0.0
 30
0.0
  3
BLOCK698
  1

  0
TEXT
  5
13D
330
BB
100
AcDbEntity
  8
0
 62
     7
370
    18
100
AcDbText
 10
177.510498
 20
30.751749
 30
0.0
 40
5.0
  1
OXYGEN BRASIL
 41
0.832842
 72
     5
 11
226.489517
 21
30.751749
 31
0.0
100
AcDbText
  0
ENDBLK
  5
BD
330
BB
100
AcDbEntity
  8
0
100
AcDbBlockEnd
  0
BLOCK
  5
BF
330
BE
100
AcDbEntity
  8
0
100
AcDbBlockBegin
  2
BLOCK699
 70
     0
 10
0.0
 20
0.0
 30
0.0
  3
BLOCK699
  1

  0
TEXT
  5
13E
330
BE
100
AcDbEntity
  8
0
 62
     7
370
    18
100
AcDbText
 10
98.0
 20
52.751049
 30
0.0
 40
1.5
  1
CHECKED BY:
 41
0.77958
 72
     5
 11
109.693703
 21
52.751049
 31
0.0
100
AcDbText
  0
ENDBLK
  5
C0
330
BE
100
AcDbEntity
  8
0
100
AcDbBlockEnd
  0
BLOCK
  5
C2
330
C1
100
AcDbEntity
  8
0
100
AcDbBlockBegin
  2
BLOCK700
 70
     0
 10
0.0
 20
0.0
 30
0.0
  3
BLOCK700
  1

  0
TEXT
  5
13F
330
C1
100
AcDbEntity
  8
0
 62
     7
370
    18
100
AcDbText
 10
115.453148
 20
48.700001
 30
0.0
 40
3.0
  1
XXX
 41
0.993964
 72
     5
 11
123.546852
 21
48.700001
 31
0.0
100
AcDbText
  0
ENDBLK
  5
C3
330
C1
100
AcDbEntity
  8
0
100
AcDbBlockEnd
  0
BLOCK
  5
C5
330
C4
100
AcDbEntity
  8
0
100
AcDbBlockBegin
  2
BLOCK701
 70
     0
 10
0.0
 20
0.0
 30
0.0
  3
BLOCK701
  1

  0
TEXT
  5
140
330
C4
100
AcDbEntity
  8
0
 62
     7
370
    18
100
AcDbText
 10
98.0
 20
45.251049
 30
0.0
 40
1.5
  1
DATE:
 41
0.9182
 72
     5
 11
103.246857
 21
45.251049
 31
0.0
100
AcDbText
  0
ENDBLK
  5
C6
330
C4
100
AcDbEntity
  8
0
100
AcDbBlockEnd
  0
BLOCK
  5
C8
330
C7
100
AcDbEntity
  8
0
100
AcDbBlockBegin
  2
BLOCK702
 70
     0
 10
0.0
 20
0.0
 30
0.0
  3
BLOCK702
  1

  0
TEXT
  5
141
330
C7
100
AcDbEntity
  8
0
 62
     7
370
    18
100
AcDbText
 10
115.453148
 20
41.200001
 30
0.0
 40
3.0
  1
XXX
 41
0.993964
 72
     5
 11
123.546852
 21
41.200001
 31
0.0
100
AcDbText
  0
ENDBLK
  5
C9
330
C7
100
AcDbEntity
  8
0
100
AcDbBlockEnd
  0
BLOCK
  5
CB
330
CA
100
AcDbEntity
  8
0
100
AcDbBlockBegin
  2
BLOCK703
 70
     0
 10
0.0
 20
0.0
 30
0.0
  3
BLOCK703
  1

  0
TEXT
  5
142
330
CA
100
AcDbEntity
  8
0
 62
     7
370
    18
100
AcDbText
 10
98.0
 20
67.751053
 30
0.0
 40
1.5
  1
DESIGNED BY:
 41
0.802887
 72
     5
 11
110.444756
 21
67.751053
 31
0.0
100
AcDbText
  0
ENDBLK
  5
CC
330
CA
100
AcDbEntity
  8
0
100
AcDbBlockEnd
  0
BLOCK
  5
CE
330
CD
100
AcDbEntity
  8
0
100
AcDbBlockBegin
  2
BLOCK704
 70
     0
 10
0.0
 20
0.0
 30
0.0
  3
BLOCK704
  1

  0
TEXT
  5
143
330
CD
100
AcDbEntity
  8
0
 62
     7
370
    18
100
AcDbText
 10
101.80629
 20
63.700001
 30
0.0
 40
3.0
  1
VOLUNT. ANONIMOS
 41
0.817531
 72
     5
 11
137.193695
 21
63.700001
 31
0.0
100
AcDbText
  0
ENDBLK
  5
CF
330
CD
100
AcDbEntity
  8
0
100
AcDbBlockEnd
  0
BLOCK
  5
D1
330
D0
100
AcDbEntity
  8
0
100
AcDbBlockBegin
  2
BLOCK705
 70
     0
 10
0.0
 20
0.0
 30
0.0
  3
BLOCK705
  1

  0
TEXT
  5
144
330
D0
100
AcDbEntity
  8
0
 62
     7
370
    18
100
AcDbText
 10
98.0
 20
60.251049
 30
0.0
 40
1.5
  1
DATE:
 41
0.9182
 72
     5
 11
103.246857
 21
60.251049
 31
0.0
100
AcDbText
  0
ENDBLK
  5
D2
330
D0
100
AcDbEntity
  8
0
100
AcDbBlockEnd
  0
BLOCK
  5
D4
330
D3
100
AcDbEntity
  8
0
100
AcDbBlockBegin
  2
BLOCK706
 70
     0
 10
0.0
 20
0.0
 30
0.0
  3
BLOCK706
  1

  0
TEXT
  5
145
330
D3
100
AcDbEntity
  8
0
 62
     7
370
    18
100
AcDbText
 10
108.859436
 20
56.200001
 30
0.0
 40
3.0
  1
09/04/2020
 41
0.741134
 72
     5
 11
130.140564
 21
56.200001
 31
0.0
100
AcDbText
  0
ENDBLK
  5
D5
330
D3
100
AcDbEntity
  8
0
100
AcDbBlockEnd
  0
BLOCK
  5
D7
330
D6
100
AcDbEntity
  8
0
100
AcDbBlockBegin
  2
BLOCK707
 70
     0
 10
0.0
 20
0.0
 30
0.0
  3
BLOCK707
  1

  0
TEXT
  5
146
330
D6
100
AcDbEntity
  8
0
 62
     7
370
    18
100
AcDbText
 10
186.257339
 20
51.152447
 30
0.0
 40
7.0
  1
ROLETE
 41
0.843357
 72
     5
 11
217.742661
 21
51.152447
 31
0.0
100
AcDbText
  0
ENDBLK
  5
D8
330
D6
100
AcDbEntity
  8
0
100
AcDbBlockEnd
  0
BLOCK
  5
DA
330
D9
100
AcDbEntity
  8
0
100
AcDbBlockBegin
  2
BLOCK708
 70
     0
 10
0.0
 20
0.0
 30
0.0
  3
BLOCK708
  1

  0
TEXT
  5
147
330
D9
100
AcDbEntity
  8
0
 62
     7
370
    18
100
AcDbText
 10
263.375885
 20
11.959208
 30
0.0
 40
2.5
  1
A
 41
1.110905
 72
     5
 11
265.624146
 21
11.959208
 31
0.0
100
AcDbText
  0
ENDBLK
  5
DB
330
D9
100
AcDbEntity
  8
0
100
AcDbBlockEnd
  0
BLOCK
  5
DD
330
DC
100
AcDbEntity
  8
0
100
AcDbBlockBegin
  2
BLOCK709
 70
     0
 10
0.0
 20
0.0
 30
0.0
  3
BLOCK709
  1

  0
TEXT
  5
148
330
DC
100
AcDbEntity
  8
0
 62
     7
370
    18
100
AcDbText
 10
276.100708
 20
12.234033
 30
0.0
 40
2.0
  1
_
 41
1.180341
 72
     5
 11
277.899323
 21
12.234033
 31
0.0
100
AcDbText
  0
ENDBLK
  5
DE
330
DC
100
AcDbEntity
  8
0
100
AcDbBlockEnd
  0
BLOCK
  5
E0
330
DF
100
AcDbEntity
  8
0
100
AcDbBlockBegin
  2
BLOCK710
 70
     0
 10
0.0
 20
0.0
 30
0.0
  3
BLOCK710
  1

  0
TEXT
  5
149
330
DF
100
AcDbEntity
  8
0
 62
     7
370
    18
100
AcDbText
 10
263.5
 20
18.625874
 30
0.0
 40
2.5
  1
B
 41
0.933333
 72
     5
 11
265.5
 21
18.625874
 31
0.0
100
AcDbText
  0
ENDBLK
  5
E1
330
DF
100
AcDbEntity
  8
0
100
AcDbBlockEnd
  0
BLOCK
  5
E3
330
E2
100
AcDbEntity
  8
0
100
AcDbBlockBegin
  2
BLOCK711
 70
     0
 10
0.0
 20
0.0
 30
0.0
  3
BLOCK711
  1

  0
TEXT
  5
14A
330
E2
100
AcDbEntity
  8
0
 62
     7
370
    18
100
AcDbText
 10
276.100708
 20
18.9007
 30
0.0
 40
2.0
  1
_
 41
1.180341
 72
     5
 11
277.899323
 21
18.9007
 31
0.0
100
AcDbText
  0
ENDBLK
  5
E4
330
E2
100
AcDbEntity
  8
0
100
AcDbBlockEnd
  0
BLOCK
  5
E6
330
E5
100
AcDbEntity
  8
0
100
AcDbBlockBegin
  2
BLOCK712
 70
     0
 10
0.0
 20
0.0
 30
0.0
  3
BLOCK712
  1

  0
TEXT
  5
14B
330
E5
100
AcDbEntity
  8
0
 62
     7
370
    18
100
AcDbText
 10
263.625885
 20
25.29254
 30
0.0
 40
2.5
  1
C
 41
0.815855
 72
     5
 11
265.374146
 21
25.29254
 31
0.0
100
AcDbText
  0
ENDBLK
  5
E7
330
E5
100
AcDbEntity
  8
0
100
AcDbBlockEnd
  0
BLOCK
  5
E9
330
E8
100
AcDbEntity
  8
0
100
AcDbBlockBegin
  2
BLOCK713
 70
     0
 10
0.0
 20
0.0
 30
0.0
  3
BLOCK713
  1

  0
TEXT
  5
14C
330
E8
100
AcDbEntity
  8
0
 62
     7
370
    18
100
AcDbText
 10
276.100708
 20
25.567366
 30
0.0
 40
2.0
  1
_
 41
1.180341
 72
     5
 11
277.899323
 21
25.567366
 31
0.0
100
AcDbText
  0
ENDBLK
  5
EA
330
E8
100
AcDbEntity
  8
0
100
AcDbBlockEnd
  0
BLOCK
  5
EC
330
EB
100
AcDbEntity
  8
0
100
AcDbBlockBegin
  2
BLOCK714
 70
     0
 10
0.0
 20
0.0
 30
0.0
  3
BLOCK714
  1

  0
TEXT
  5
14D
330
EB
100
AcDbEntity
  8
0
 62
     7
370
    18
100
AcDbText
 10
263.5
 20
31.959206
 30
0.0
 40
2.5
  1
D
 41
0.933333
 72
     5
 11
265.5
 21
31.959206
 31
0.0
100
AcDbText
  0
ENDBLK
  5
ED
330
EB
100
AcDbEntity
  8
0
100
AcDbBlockEnd
  0
BLOCK
  5
EF
330
EE
100
AcDbEntity
  8
0
100
AcDbBlockBegin
  2
BLOCK715
 70
     0
 10
0.0
 20
0.0
 30
0.0
  3
BLOCK715
  1

  0
TEXT
  5
14E
330
EE
100
AcDbEntity
  8
0
 62
     7
370
    18
100
AcDbText
 10
276.100708
 20
32.234032
 30
0.0
 40
2.0
  1
_
 41
1.180341
 72
     5
 11
277.899323
 21
32.234032
 31
0.0
100
AcDbText
  0
ENDBLK
  5
F0
330
EE
100
AcDbEntity
  8
0
100
AcDbBlockEnd
  0
BLOCK
  5
F2
330
F1
100
AcDbEntity
  8
0
100
AcDbBlockBegin
  2
BLOCK716
 70
     0
 10
0.0
 20
0.0
 30
0.0
  3
BLOCK716
  1

  0
TEXT
  5
14F
330
F1
100
AcDbEntity
  8
0
 62
     7
370
    18
100
AcDbText
 10
263.625885
 20
38.625874
 30
0.0
 40
2.5
  1
E
 41
0.863846
 72
     5
 11
265.374146
 21
38.625874
 31
0.0
100
AcDbText
  0
ENDBLK
  5
F3
330
F1
100
AcDbEntity
  8
0
100
AcDbBlockEnd
  0
BLOCK
  5
F5
330
F4
100
AcDbEntity
  8
0
100
AcDbBlockBegin
  2
BLOCK717
 70
     0
 10
0.0
 20
0.0
 30
0.0
  3
BLOCK717
  1

  0
TEXT
  5
150
330
F4
100
AcDbEntity
  8
0
 62
     7
370
    18
100
AcDbText
 10
276.100708
 20
38.9007
 30
0.0
 40
2.0
  1
_
 41
1.180341
 72
     5
 11
277.899323
 21
38.9007
 31
0.0
100
AcDbText
  0
ENDBLK
  5
F6
330
F4
100
AcDbEntity
  8
0
100
AcDbBlockEnd
  0
BLOCK
  5
F8
330
F7
100
AcDbEntity
  8
0
100
AcDbBlockBegin
  2
BLOCK718
 70
     0
 10
0.0
 20
0.0
 30
0.0
  3
BLOCK718
  1

  0
TEXT
  5
151
330
F7
100
AcDbEntity
  8
0
 62
     7
370
    18
100
AcDbText
 10
263.625885
 20
45.292542
 30
0.0
 40
2.5
  1
F
 41
0.863846
 72
     5
 11
265.374146
 21
45.292542
 31
0.0
100
AcDbText
  0
ENDBLK
  5
F9
330
F7
100
AcDbEntity
  8
0
100
AcDbBlockEnd
  0
BLOCK
  5
FB
330
FA
100
AcDbEntity
  8
0
100
AcDbBlockBegin
  2
BLOCK719
 70
     0
 10
0.0
 20
0.0
 30
0.0
  3
BLOCK719
  1

  0
TEXT
  5
152
330
FA
100
AcDbEntity
  8
0
 62
     7
370
    18
100
AcDbText
 10
276.100708
 20
45.567368
 30
0.0
 40
2.0
  1
_
 41
1.180341
 72
     5
 11
277.899323
 21
45.567368
 31
0.0
100
AcDbText
  0
ENDBLK
  5
FC
330
FA
100
AcDbEntity
  8
0
100
AcDbBlockEnd
  0
BLOCK
  5
FE
330
FD
100
AcDbEntity
  8
0
100
AcDbBlockBegin
  2
BLOCK720
 70
     0
 10
0.0
 20
0.0
 30
0.0
  3
BLOCK720
  1

  0
TEXT
  5
153
330
FD
100
AcDbEntity
  8
0
 62
     7
370
    18
100
AcDbText
 10
263.5
 20
51.959206
 30
0.0
 40
2.5
  1
G
 41
0.933333
 72
     5
 11
265.5
 21
51.959206
 31
0.0
100
AcDbText
  0
ENDBLK
  5
FF
330
FD
100
AcDbEntity
  8
0
100
AcDbBlockEnd
  0
BLOCK
  5
101
330
100
100
AcDbEntity
  8
0
100
AcDbBlockBegin
  2
BLOCK721
 70
     0
 10
0.0
 20
0.0
 30
0.0
  3
BLOCK721
  1

  0
TEXT
  5
154
330
100
100
AcDbEntity
  8
0
 62
     7
370
    18
100
AcDbText
 10
276.100708
 20
52.234032
 30
0.0
 40
2.0
  1
_
 41
1.180341
 72
     5
 11
277.899323
 21
52.234032
 31
0.0
100
AcDbText
  0
ENDBLK
  5
102
330
100
100
AcDbEntity
  8
0
100
AcDbBlockEnd
  0
BLOCK
  5
104
330
103
100
AcDbEntity
  8
0
100
AcDbBlockBegin
  2
BLOCK722
 70
     0
 10
0.0
 20
0.0
 30
0.0
  3
BLOCK722
  1

  0
TEXT
  5
155
330
103
100
AcDbEntity
  8
0
 62
     7
370
    18
100
AcDbText
 10
263.5
 20
58.625874
 30
0.0
 40
2.5
  1
H
 41
0.933333
 72
     5
 11
265.5
 21
58.625874
 31
0.0
100
AcDbText
  0
ENDBLK
  5
105
330
103
100
AcDbEntity
  8
0
100
AcDbBlockEnd
  0
BLOCK
  5
107
330
106
100
AcDbEntity
  8
0
100
AcDbBlockBegin
  2
BLOCK723
 70
     0
 10
0.0
 20
0.0
 30
0.0
  3
BLOCK723
  1

  0
TEXT
  5
156
330
106
100
AcDbEntity
  8
0
 62
     7
370
    18
100
AcDbText
 10
276.100708
 20
58.9007
 30
0.0
 40
2.0
  1
_
 41
1.180341
 72
     5
 11
277.899323
 21
58.9007
 31
0.0
100
AcDbText
  0
ENDBLK
  5
108
330
106
100
AcDbEntity
  8
0
100
AcDbBlockEnd
  0
BLOCK
  5
10A
330
109
100
AcDbEntity
  8
0
100
AcDbBlockBegin
  2
BLOCK724
 70
     0
 10
0.0
 20
0.0
 30
0.0
  3
BLOCK724
  1

  0
TEXT
  5
157
330
109
100
AcDbEntity
  8
0
 62
     7
370
    18
100
AcDbText
 10
264.125885
 20
65.292542
 30
0.0
 40
2.5
  1
I
 41
1.571347
 72
     5
 11
264.874146
 21
65.292542
 31
0.0
100
AcDbText
  0
ENDBLK
  5
10B
330
109
100
AcDbEntity
  8
0
100
AcDbBlockEnd
  0
BLOCK
  5
10D
330
10C
100
AcDbEntity
  8
0
100
AcDbBlockBegin
  2
BLOCK725
 70
     0
 10
0.0
 20
0.0
 30
0.0
  3
BLOCK725
  1

  0
TEXT
  5
158
330
10C
100
AcDbEntity
  8
0
 62
     7
370
    18
100
AcDbText
 10
276.100708
 20
65.56736
 30
0.0
 40
2.0
  1
_
 41
1.180341
 72
     5
 11
277.899323
 21
65.56736
 31
0.0
100
AcDbText
  0
ENDBLK
  5
10E
330
10C
100
AcDbEntity
  8
0
100
AcDbBlockEnd
  0
BLOCK
  5
110
330
10F
100
AcDbEntity
  8
0
100
AcDbBlockBegin
  2
BLOCK726
 70
     0
 10
0.0
 20
0.0
 30
0.0
  3
BLOCK726
  1

  0
LINE
  5
159
330
10F
100
AcDbEntity
  8
0
  6
DASHDOT
 62
     7
370
    18
100
AcDbLine
 10
-124.925003
 20
102.400002
 30
0.0
 11
-152.225006
 21
102.400002
 31
0.0
  0
LINE
  5
15A
330
10F
100
AcDbEntity
  8
0
  6
DASHDOT
 62
     7
370
    18
100
AcDbLine
 10
-138.574997
 20
116.050003
 30
0.0
 11
-138.574997
 21
88.75
 31
0.0
  0
ENDBLK
  5
111
330
10F
100
AcDbEntity
  8
0
100
AcDbBlockEnd
  0
BLOCK
  5
113
330
112
100
AcDbEntity
  8
0
100
AcDbBlockBegin
  2
BLOCK727
 70
     0
 10
0.0
 20
0.0
 30
0.0
  3
BLOCK727
  1

  0
LINE
  5
15B
330
112
100
AcDbEntity
  8
0
  6
DASHDOT
 62
     7
 48
0.39
370
    18
100
AcDbLine
 10
-130.774994
 20
102.400002
 30
0.0
 11
-146.375
 21
102.400002
 31
0.0
  0
LINE
  5
15C
330
112
100
AcDbEntity
  8
0
  6
DASHDOT
 62
     7
 48
0.39
370
    18
100
AcDbLine
 10
-138.574997
 20
110.199997
 30
0.0
 11
-138.574997
 21
94.599998
 31
0.0
  0
ENDBLK
  5
114
330
112
100
AcDbEntity
  8
0
100
AcDbBlockEnd
  0
BLOCK
  5
116
330
115
100
AcDbEntity
  8
0
100
AcDbBlockBegin
  2
BLOCK728
 70
     0
 10
0.0
 20
0.0
 30
0.0
  3
BLOCK728
  1

  0
CIRCLE
  5
15D
330
115
100
AcDbEntity
  8
0
 62
     7
370
    35
100
AcDbCircle
 10
-138.575
 20
102.4
 30
0.0
 40
6.0
  0
CIRCLE
  5
15E
330
115
100
AcDbEntity
  8
0
 62
     7
370
    35
100
AcDbCircle
 10
-138.575
 20
102.4
 30
0.0
 40
7.000000000000001
  0
CIRCLE
  5
15F
330
115
100
AcDbEntity
  8
0
 62
     7
370
    35
100
AcDbCircle
 10
-138.575
 20
102.4
 30
0.0
 40
9.5
  0
CIRCLE
  5
160
330
115
100
AcDbEntity
  8
0
 62
     7
370
    35
100
AcDbCircle
 10
-138.575
 20
102.4
 30
0.0
 40
10.5
  0
CIRCLE
  5
161
330
115
100
AcDbEntity
  8
0
 62
     7
370
    35
100
AcDbCircle
 10
-138.575
 20
102.4
 30
0.0
 40
6.000000000000001
  0
CIRCLE
  5
162
330
115
100
AcDbEntity
  8
0
 62
     7
370
    18
100
AcDbCircle
 10
-138.575
 20
102.4
 30
0.0
 40
4.000000000000001
  0
ENDBLK
  5
117
330
115
100
AcDbEntity
  8
0
100
AcDbBlockEnd
  0
BLOCK
  5
119
330
118
100
AcDbEntity
  8
0
100
AcDbBlockBegin
  2
BLOCK729
 70
     0
 10
0.0
 20
0.0
 30
0.0
  3
BLOCK729
  1

  0
TEXT
  5
163
330
118
100
AcDbEntity
  8
0
 62
     7
370
    18
100
AcDbText
 10
30.0
 20
71.400002
 30
0.0
 40
3.5
  1
ROLETE EXTERNO
 41
0.821077
 72
     5
 11
67.085312
 21
71.400002
 31
0.0
100
AcDbText
  0
POLYLINE
  5
164
330
118
100
AcDbEntity
  8
0
 62
     7
370
    18
100
AcDb2dPolyline
 66
     1
 10
0.0
 20
0.0
 30
0.0
  0
VERTEX
  5
165
330
164
100
AcDbEntity
  8
0
370
     0
100
AcDbVertex
100
AcDb2dVertex
 10
13.020245
 20
89.543144
 30
0.0
  0
VERTEX
  5
166
330
164
100
AcDbEntity
  8
0
370
     0
100
AcDbVertex
100
AcDb2dVertex
 10
27.0
 20
70.0
 30
0.0
  0
VERTEX
  5
167
330
164
100
AcDbEntity
  8
0
370
     0
100
AcDbVertex
100
AcDb2dVertex
 10
67.085312
 20
70.0
 30
0.0
  0
SEQEND
  5
168
330
164
100
AcDbEntity
  8
0
 62
     7
370
    18
  0
SOLID
  5
169
330
118
100
AcDbEntity
  8
0
 62
     7
370
    18
100
AcDbTrace
 10
13.651762
 20
89.994888
 30
0.0
 11
11.33432
 21
91.900002
 31
0.0
 12
12.388727
 22
89.0914
 32
0.0
 13
12.388727
 23
89.0914
 33
0.0
  0
ENDBLK
  5
11A
330
118
100
AcDbEntity
  8
0
100
AcDbBlockEnd
  0
BLOCK
  5
11C
330
11B
100
AcDbEntity
  8
0
100
AcDbBlockBegin
  2
BLOCK730
 70
     0
 10
0.0
 20
0.0
 30
0.0
  3
BLOCK730
  1

  0
TEXT
  5
16A
330
11B
100
AcDbEntity
  8
0
 62
     7
370
    18
100
AcDbText
 10
40.0
 20
131.399994
 30
0.0
 40
3.5
  1
EIXO ROLETE
 41
0.810455
 72
     5
 11
67.285309
 21
131.399994
 31
0.0
100
AcDbText
  0
POLYLINE
  5
16B
330
11B
100
AcDbEntity
  8
0
 62
     7
370
    18
100
AcDb2dPolyline
 66
     1
 10
0.0
 20
0.0
 30
0.0
  0
VERTEX
  5
16C
330
16B
100
AcDbEntity
  8
0
370
     0
100
AcDbVertex
100
AcDb2dVertex
 10
31.283314
 20
111.172775
 30
0.0
  0
VERTEX
  5
16D
330
16B
100
AcDbEntity
  8
0
370
     0
100
AcDbVertex
100
AcDb2dVertex
 10
37.0
 20
130.0
 30
0.0
  0
VERTEX
  5
16E
330
16B
100
AcDbEntity
  8
0
370
     0
100
AcDbVertex
100
AcDb2dVertex
 10
67.285309
 20
130.0
 30
0.0
  0
SEQEND
  5
16F
330
16B
100
AcDbEntity
  8
0
 62
     7
370
    18
  0
SOLID
  5
170
330
11B
100
AcDbEntity
  8
0
 62
     7
370
    18
100
AcDbTrace
 10
30.54035
 20
111.398369
 30
0.0
 11
30.441389
 21
108.400002
 31
0.0
 12
32.026276
 22
110.947182
 32
0.0
 13
32.026276
 23
110.947182
 33
0.0
  0
ENDBLK
  5
11D
330
11B
100
AcDbEntity
  8
0
100
AcDbBlockEnd
  0
BLOCK
  5
11F
330
11E
100
AcDbEntity
  8
0
100
AcDbBlockBegin
  2
*D59
 70
     1
 10
0.0
 20
0.0
 30
0.0
  3
*D59
  1

  0
SOLID
  5
171
330
11E
100
AcDbEntity
  8
0
 62
     7
370
    18
100
AcDbTrace
 10
104.623326
 20
114.298181
 30
0.0
 11
107.521104
 21
115.07464
 31
0.0
 12
104.623326
 22
114.298181
 32
0.0
 13
104.623326
 23
115.851099
 33
0.0
  0
SOLID
  5
172
330
11E
100
AcDbEntity
  8
0
 62
     7
370
    18
100
AcDbTrace
 10
99.418877
 20
115.851099
 30
0.0
 11
96.521104
 21
115.07464
 31
0.0
 12
99.418877
 22
115.851099
 32
0.0
 13
99.418877
 23
114.298181
 33
0.0
  0
TEXT
  5
173
330
11E
100
AcDbEntity
  8
0
 62
     7
370
    18
100
AcDbText
 10
81.167489
 20
118.07464
 30
0.0
 40
3.5
  1
11
 41
0.676471
 72
     5
 11
84.662591
 21
118.07464
 31
0.0
100
AcDbText
  0
TEXT
  5
174
330
11E
100
AcDbEntity
  8
0
 62
     7
370
    18
100
AcDbText
 10
86.412591
 20
118.07464
 30
0.0
 40
3.5
  1
%%p0,5
 41
0.704091
 72
     5
 11
94.979028
 21
118.07464
 31
0.0
100
AcDbText
  0
TEXT
  5
175
330
11E
100
AcDbEntity
  8
0
 62
     7
370
    18
100
AcDbText
 10
73.172387
 20
118.07464
 30
0.0
 40
3.5
  1
2x 
 41
0.723631
 72
     5
 11
80.167489
 21
118.07464
 31
0.0
100
AcDbText
  0
LINE
  5
176
330
11E
100
AcDbEntity
  8
0
 62
     7
370
    18
100
AcDbLine
 10
96.521104
 20
138.866747
 30
0.0
 11
96.521104
 21
113.07464
 31
0.0
  0
LINE
  5
177
330
11E
100
AcDbEntity
  8
0
 62
     7
370
    18
100
AcDbLine
 10
107.521104
 20
132.866754
 30
0.0
 11
107.521104
 21
113.07464
 31
0.0
  0
LINE
  5
178
330
11E
100
AcDbEntity
  8
0
 62
     7
370
    18
100
AcDbLine
 10
73.172387
 20
115.07464
 30
0.0
 11
96.521104
 21
115.07464
 31
0.0
  0
LINE
  5
179
330
11E
100
AcDbEntity
  8
0
 62
     7
370
    18
100
AcDbLine
 10
99.418877
 20
115.07464
 30
0.0
 11
104.623326
 21
115.07464
 31
0.0
  0
POLYLINE
  5
17A
330
11E
100
AcDbEntity
  8
0
 62
     7
370
    18
100
AcDb2dPolyline
 66
     1
 10
0.0
 20
0.0
 30
0.0
 70
     1
  0
VERTEX
  5
17B
330
17A
100
AcDbEntity
  8
0
370
     0
100
AcDbVertex
100
AcDb2dVertex
 10
104.623326
 20
114.298181
 30
0.0
  0
VERTEX
  5
17C
330
17A
100
AcDbEntity
  8
0
370
     0
100
AcDbVertex
100
AcDb2dVertex
 10
107.521104
 20
115.07464
 30
0.0
  0
VERTEX
  5
17D
330
17A
100
AcDbEntity
  8
0
370
     0
100
AcDbVertex
100
AcDb2dVertex
 10
104.623326
 20
115.851099
 30
0.0
  0
SEQEND
  5
17E
330
17A
100
AcDbEntity
  8
0
 62
     7
370
    18
  0
POLYLINE
  5
17F
330
11E
100
AcDbEntity
  8
0
 62
     7
370
    18
100
AcDb2dPolyline
 66
     1
 10
0.0
 20
0.0
 30
0.0
 70
     1
  0
VERTEX
  5
180
330
17F
100
AcDbEntity
  8
0
370
     0
100
AcDbVertex
100
AcDb2dVertex
 10
99.418877
 20
115.851099
 30
0.0
  0
VERTEX
  5
181
330
17F
100
AcDbEntity
  8
0
370
     0
100
AcDbVertex
100
AcDb2dVertex
 10
96.521104
 20
115.07464
 30
0.0
  0
VERTEX
  5
182
330
17F
100
AcDbEntity
  8
0
370
     0
100
AcDbVertex
100
AcDb2dVertex
 10
99.418877
 20
114.298181
 30
0.0
  0
SEQEND
  5
183
330
17F
100
AcDbEntity
  8
0
 62
     7
370
    18
  0
ENDBLK
  5
120
330
11E
100
AcDbEntity
  8
0
100
AcDbBlockEnd
  0
BLOCK
  5
122
330
121
100
AcDbEntity
  8
0
100
AcDbBlockBegin
  2
BLOCK731
 70
     0
 10
0.0
 20
0.0
 30
0.0
  3
BLOCK731
  1

  0
LINE
  5
184
330
121
100
AcDbEntity
  8
0
 62
     7
370
    35
100
AcDbLine
 10
24.0
 20
92.9
 30
0.0
 11
24.0
 21
102.4
 31
0.0
  0
LINE
  5
185
330
121
100
AcDbEntity
  8
0
 62
     7
370
    35
100
AcDbLine
 10
24.0
 20
102.4
 30
0.0
 11
24.0
 21
111.9
 31
0.0
  0
LINE
  5
186
330
121
100
AcDbEntity
  8
0
 62
     7
370
    35
100
AcDbLine
 10
23.0
 20
91.9
 30
0.0
 11
23.0
 21
102.4
 31
0.0
  0
LINE
  5
187
330
121
100
AcDbEntity
  8
0
 62
     7
370
    35
100
AcDbLine
 10
23.0
 20
102.4
 30
0.0
 11
23.0
 21
112.9
 31
0.0
  0
LINE
  5
188
330
121
100
AcDbEntity
  8
0
 62
     7
370
    35
100
AcDbLine
 10
-59.0
 20
92.9
 30
0.0
 11
-59.0
 21
102.4
 31
0.0
  0
LINE
  5
189
330
121
100
AcDbEntity
  8
0
 62
     7
370
    35
100
AcDbLine
 10
-59.0
 20
102.4
 30
0.0
 11
-59.0
 21
111.9
 31
0.0
  0
LINE
  5
18A
330
121
100
AcDbEntity
  8
0
 62
     7
370
    35
100
AcDbLine
 10
-58.0
 20
102.4
 30
0.0
 11
-58.0
 21
112.9
 31
0.0
  0
LINE
  5
18B
330
121
100
AcDbEntity
  8
0
 62
     7
370
    35
100
AcDbLine
 10
-58.0
 20
91.9
 30
0.0
 11
-58.0
 21
102.4
 31
0.0
  0
LINE
  5
18C
330
121
100
AcDbEntity
  8
0
 62
     7
370
    35
100
AcDbLine
 10
24.0
 20
92.9
 30
0.0
 11
23.0
 21
91.9
 31
0.0
  0
LINE
  5
18D
330
121
100
AcDbEntity
  8
0
 62
     7
370
    35
100
AcDbLine
 10
24.0
 20
111.9
 30
0.0
 11
23.0
 21
112.9
 31
0.0
  0
LINE
  5
18E
330
121
100
AcDbEntity
  8
0
 62
     7
370
    35
100
AcDbLine
 10
-58.0
 20
112.9
 30
0.0
 11
23.0
 21
112.9
 31
0.0
  0
LINE
  5
18F
330
121
100
AcDbEntity
  8
0
 62
     7
370
    35
100
AcDbLine
 10
-58.0
 20
91.9
 30
0.0
 11
23.0
 21
91.9
 31
0.0
  0
LINE
  5
190
330
121
100
AcDbEntity
  8
0
 62
     7
370
    35
100
AcDbLine
 10
-59.0
 20
92.9
 30
0.0
 11
-58.0
 21
91.9
 31
0.0
  0
LINE
  5
191
330
121
100
AcDbEntity
  8
0
 62
     7
370
    35
100
AcDbLine
 10
-59.0
 20
111.9
 30
0.0
 11
-58.0
 21
112.9
 31
0.0
  0
LINE
  5
192
330
121
100
AcDbEntity
  8
0
 62
     7
370
    18
100
AcDbLine
 10
-68.0
 20
102.4
 30
0.0
 11
-68.0
 21
108.4
 31
0.0
  0
LINE
  5
193
330
121
100
AcDbEntity
  8
0
 62
     7
370
    18
100
AcDbLine
 10
33.0
 20
102.4
 30
0.0
 11
33.0
 21
108.4
 31
0.0
  0
LINE
  5
194
330
121
100
AcDbEntity
  8
0
 62
     7
370
    35
100
AcDbLine
 10
-70.0
 20
102.4
 30
0.0
 11
-70.0
 21
106.4
 31
0.0
  0
LINE
  5
195
330
121
100
AcDbEntity
  8
0
 62
     7
370
    35
100
AcDbLine
 10
35.0
 20
102.4
 30
0.0
 11
35.0
 21
106.4
 31
0.0
  0
LINE
  5
196
330
121
100
AcDbEntity
  8
0
 62
     7
370
    18
100
AcDbLine
 10
-68.0
 20
96.4
 30
0.0
 11
-68.0
 21
102.4
 31
0.0
  0
LINE
  5
197
330
121
100
AcDbEntity
  8
0
 62
     7
370
    18
100
AcDbLine
 10
33.0
 20
96.4
 30
0.0
 11
33.0
 21
102.4
 31
0.0
  0
LINE
  5
198
330
121
100
AcDbEntity
  8
0
 62
     7
370
    35
100
AcDbLine
 10
-70.0
 20
98.4
 30
0.0
 11
-70.0
 21
102.4
 31
0.0
  0
LINE
  5
199
330
121
100
AcDbEntity
  8
0
 62
     7
370
    35
100
AcDbLine
 10
35.0
 20
98.4
 30
0.0
 11
35.0
 21
102.4
 31
0.0
  0
LINE
  5
19A
330
121
100
AcDbEntity
  8
0
 62
     7
370
    35
100
AcDbLine
 10
-68.0
 20
108.4
 30
0.0
 11
-59.0
 21
108.4
 31
0.0
  0
LINE
  5
19B
330
121
100
AcDbEntity
  8
0
 62
     7
370
    35
100
AcDbLine
 10
24.0
 20
108.4
 30
0.0
 11
33.0
 21
108.4
 31
0.0
  0
ARC
  5
19C
330
121
100
AcDbEntity
  8
0
 62
     7
370
    35
100
AcDbCircle
 10
-68.0
 20
106.4
 30
0.0
 40
2.0
100
AcDbArc
 50
90.0
 51
180.0
  0
ARC
  5
19D
330
121
100
AcDbEntity
  8
0
 62
     7
370
    35
100
AcDbCircle
 10
33.0
 20
106.4
 30
0.0
 40
2.0
100
AcDbArc
 50
0.0
 51
90.0
  0
LINE
  5
19E
330
121
100
AcDbEntity
  8
0
 62
     7
370
    35
100
AcDbLine
 10
-68.0
 20
96.4
 30
0.0
 11
-59.0
 21
96.4
 31
0.0
  0
LINE
  5
19F
330
121
100
AcDbEntity
  8
0
 62
     7
370
    35
100
AcDbLine
 10
24.0
 20
96.4
 30
0.0
 11
33.0
 21
96.4
 31
0.0
  0
ARC
  5
1A0
330
121
100
AcDbEntity
  8
0
 62
     7
370
    35
100
AcDbCircle
 10
-68.0
 20
98.4
 30
0.0
 40
2.0
100
AcDbArc
 50
180.0
 51
270.0
  0
ARC
  5
1A1
330
121
100
AcDbEntity
  8
0
 62
     7
370
    35
100
AcDbCircle
 10
33.0
 20
98.4
 30
0.0
 40
2.0
100
AcDbArc
 50
270.0
 51
360.0
  0
ENDBLK
  5
123
330
121
100
AcDbEntity
  8
0
100
AcDbBlockEnd
  0
ENDSEC
  0
SECTION
  2
ENTITIES
  0
INSERT
  5
1A2
330
1F
100
AcDbEntity
  8
0
370
     0
100
AcDbBlockReference
  2
BLOCK673
 10
0.0
 20
0.0
 30
0.0
  0
INSERT
  5
1A3
330
1F
100
AcDbEntity
  8
0
370
     0
100
AcDbBlockReference
  2
BLOCK674
 10
0.0
 20
0.0
 30
0.0
  0
INSERT
  5
1A4
330
1F
100
AcDbEntity
  8
0
370
     0
100
AcDbBlockReference
  2
BLOCK675
 10
0.0
 20
0.0
 30
0.0
  0
INSERT
  5
1A5
330
1F
100
AcDbEntity
  8
0
370
     0
100
AcDbBlockReference
  2
BLOCK676
 10
0.0
 20
0.0
 30
0.0
  0
INSERT
  5
1A6
330
1F
100
AcDbEntity
  8
0
370
     0
100
AcDbBlockReference
  2
BLOCK677
 10
0.0
 20
0.0
 30
0.0
  0
INSERT
  5
1A7
330
1F
100
AcDbEntity
  8
0
370
     0
100
AcDbBlockReference
  2
BLOCK678
 10
0.0
 20
0.0
 30
0.0
  0
INSERT
  5
1A8
330
1F
100
AcDbEntity
  8
0
370
     0
100
AcDbBlockReference
  2
BLOCK679
 10
0.0
 20
0.0
 30
0.0
  0
INSERT
  5
1A9
330
1F
100
AcDbEntity
  8
0
370
     0
100
AcDbBlockReference
  2
BLOCK680
 10
0.0
 20
0.0
 30
0.0
  0
INSERT
  5
1AA
330
1F
100
AcDbEntity
  8
0
370
     0
100
AcDbBlockReference
  2
BLOCK681
 10
0.0
 20
0.0
 30
0.0
  0
INSERT
  5
1AB
330
1F
100
AcDbEntity
  8
0
370
     0
100
AcDbBlockReference
  2
BLOCK682
 10
0.0
 20
0.0
 30
0.0
  0
INSERT
  5
1AC
330
1F
100
AcDbEntity
  8
0
370
     0
100
AcDbBlockReference
  2
BLOCK683
 10
0.0
 20
0.0
 30
0.0
  0
INSERT
  5
1AD
330
1F
100
AcDbEntity
  8
0
370
     0
100
AcDbBlockReference
  2
BLOCK684
 10
0.0
 20
0.0
 30
0.0
  0
INSERT
  5
1AE
330
1F
100
AcDbEntity
  8
0
370
     0
100
AcDbBlockReference
  2
BLOCK685
 10
0.0
 20
0.0
 30
0.0
  0
INSERT
  5
1AF
330
1F
100
AcDbEntity
  8
0
370
     0
100
AcDbBlockReference
  2
BLOCK686
 10
0.0
 20
0.0
 30
0.0
  0
INSERT
  5
1B0
330
1F
100
AcDbEntity
  8
0
370
     0
100
AcDbBlockReference
  2
BLOCK687
 10
0.0
 20
0.0
 30
0.0
  0
INSERT
  5
1B1
330
1F
100
AcDbEntity
  8
0
370
     0
100
AcDbBlockReference
  2
BLOCK688
 10
0.0
 20
0.0
 30
0.0
  0
INSERT
  5
1B2
330
1F
100
AcDbEntity
  8
0
370
     0
100
AcDbBlockReference
  2
BLOCK689
 10
0.0
 20
0.0
 30
0.0
  0
INSERT
  5
1B3
330
1F
100
AcDbEntity
  8
0
370
     0
100
AcDbBlockReference
  2
BLOCK690
 10
0.0
 20
0.0
 30
0.0
  0
INSERT
  5
1B4
330
1F
100
AcDbEntity
  8
0
370
     0
100
AcDbBlockReference
  2
BLOCK691
 10
0.0
 20
0.0
 30
0.0
  0
INSERT
  5
1B5
330
1F
100
AcDbEntity
  8
0
370
     0
100
AcDbBlockReference
  2
BLOCK692
 10
0.0
 20
0.0
 30
0.0
  0
INSERT
  5
1B6
330
1F
100
AcDbEntity
  8
0
370
     0
100
AcDbBlockReference
  2
BLOCK693
 10
0.0
 20
0.0
 30
0.0
  0
INSERT
  5
1B7
330
1F
100
AcDbEntity
  8
0
370
     0
100
AcDbBlockReference
  2
BLOCK694
 10
0.0
 20
0.0
 30
0.0
  0
INSERT
  5
1B8
330
1F
100
AcDbEntity
  8
0
370
     0
100
AcDbBlockReference
  2
BLOCK695
 10
0.0
 20
0.0
 30
0.0
  0
INSERT
  5
1B9
330
1F
100
AcDbEntity
  8
0
370
     0
100
AcDbBlockReference
  2
BLOCK696
 10
0.0
 20
0.0
 30
0.0
  0
INSERT
  5
1BA
330
1F
100
AcDbEntity
  8
0
370
     0
100
AcDbBlockReference
  2
BLOCK697
 10
0.0
 20
0.0
 30
0.0
  0
INSERT
  5
1BB
330
1F
100
AcDbEntity
  8
0
370
     0
100
AcDbBlockReference
  2
BLOCK698
 10
0.0
 20
0.0
 30
0.0
  0
INSERT
  5
1BC
330
1F
100
AcDbEntity
  8
0
370
     0
100
AcDbBlockReference
  2
BLOCK699
 10
0.0
 20
0.0
 30
0.0
  0
INSERT
  5
1BD
330
1F
100
AcDbEntity
  8
0
370
     0
100
AcDbBlockReference
  2
BLOCK700
 10
0.0
 20
0.0
 30
0.0
  0
INSERT
  5
1BE
330
1F
100
AcDbEntity
  8
0
370
     0
100
AcDbBlockReference
  2
BLOCK701
 10
0.0
 20
0.0
 30
0.0
  0
INSERT
  5
1BF
330
1F
100
AcDbEntity
  8
0
370
     0
100
AcDbBlockReference
  2
BLOCK702
 10
0.0
 20
0.0
 30
0.0
  0
INSERT
  5
1C0
330
1F
100
AcDbEntity
  8
0
370
     0
100
AcDbBlockReference
  2
BLOCK703
 10
0.0
 20
0.0
 30
0.0
  0
INSERT
  5
1C1
330
1F
100
AcDbEntity
  8
0
370
     0
100
AcDbBlockReference
  2
BLOCK704
 10
0.0
 20
0.0
 30
0.0
  0
INSERT
  5
1C2
330
1F
100
AcDbEntity
  8
0
370
     0
100
AcDbBlockReference
  2
BLOCK705
 10
0.0
 20
0.0
 30
0.0
  0
INSERT
  5
1C3
330
1F
100
AcDbEntity
  8
0
370
     0
100
AcDbBlockReference
  2
BLOCK706
 10
0.0
 20
0.0
 30
0.0
  0
INSERT
  5
1C4
330
1F
100
AcDbEntity
  8
0
370
     0
100
AcDbBlockReference
  2
BLOCK707
 10
0.0
 20
0.0
 30
0.0
  0
INSERT
  5
1C5
330
1F
100
AcDbEntity
  8
0
370
     0
100
AcDbBlockReference
  2
BLOCK708
 10
0.0
 20
0.0
 30
0.0
  0
INSERT
  5
1C6
330
1F
100
AcDbEntity
  8
0
370
     0
100
AcDbBlockReference
  2
BLOCK709
 10
0.0
 20
0.0
 30
0.0
  0
INSERT
  5
1C7
330
1F
100
AcDbEntity
  8
0
370
     0
100
AcDbBlockReference
  2
BLOCK710
 10
0.0
 20
0.0
 30
0.0
  0
INSERT
  5
1C8
330
1F
100
AcDbEntity
  8
0
370
     0
100
AcDbBlockReference
  2
BLOCK711
 10
0.0
 20
0.0
 30
0.0
  0
INSERT
  5
1C9
330
1F
100
AcDbEntity
  8
0
370
     0
100
AcDbBlockReference
  2
BLOCK712
 10
0.0
 20
0.0
 30
0.0
  0
INSERT
  5
1CA
330
1F
100
AcDbEntity
  8
0
370
     0
100
AcDbBlockReference
  2
BLOCK713
 10
0.0
 20
0.0
 30
0.0
  0
INSERT
  5
1CB
330
1F
100
AcDbEntity
  8
0
370
     0
100
AcDbBlockReference
  2
BLOCK714
 10
0.0
 20
0.0
 30
0.0
  0
INSERT
  5
1CC
330
1F
100
AcDbEntity
  8
0
370
     0
100
AcDbBlockReference
  2
BLOCK715
 10
0.0
 20
0.0
 30
0.0
  0
INSERT
  5
1CD
330
1F
100
AcDbEntity
  8
0
370
     0
100
AcDbBlockReference
  2
BLOCK716
 10
0.0
 20
0.0
 30
0.0
  0
INSERT
  5
1CE
330
1F
100
AcDbEntity
  8
0
370
     0
100
AcDbBlockReference
  2
BLOCK717
 10
0.0
 20
0.0
 30
0.0
  0
INSERT
  5
1CF
330
1F
100
AcDbEntity
  8
0
370
     0
100
AcDbBlockReference
  2
BLOCK718
 10
0.0
 20
0.0
 30
0.0
  0
INSERT
  5
1D0
330
1F
100
AcDbEntity
  8
0
370
     0
100
AcDbBlockReference
  2
BLOCK719
 10
0.0
 20
0.0
 30
0.0
  0
INSERT
  5
1D1
330
1F
100
AcDbEntity
  8
0
370
     0
100
AcDbBlockReference
  2
BLOCK720
 10
0.0
 20
0.0
 30
0.0
  0
INSERT
  5
1D2
330
1F
100
AcDbEntity
  8
0
370
     0
100
AcDbBlockReference
  2
BLOCK721
 10
0.0
 20
0.0
 30
0.0
  0
INSERT
  5
1D3
330
1F
100
AcDbEntity
  8
0
370
     0
100
AcDbBlockReference
  2
BLOCK722
 10
0.0
 20
0.0
 30
0.0
  0
INSERT
  5
1D4
330
1F
100
AcDbEntity
  8
0
370
     0
100
AcDbBlockReference
  2
BLOCK723
 10
0.0
 20
0.0
 30
0.0
  0
INSERT
  5
1D5
330
1F
100
AcDbEntity
  8
0
370
     0
100
AcDbBlockReference
  2
BLOCK724
 10
0.0
 20
0.0
 30
0.0
  0
INSERT
  5
1D6
330
1F
100
AcDbEntity
  8
0
370
     0
100
AcDbBlockReference
  2
BLOCK725
 10
0.0
 20
0.0
 30
0.0
  0
LINE
  5
1D7
330
1F
100
AcDbEntity
  8
0
 62
     7
370
    35
100
AcDbLine
 10
10.0
 20
10.0
 30
0.0
 11
287.0
 21
10.0
 31
0.0
  0
LINE
  5
1D8
330
1F
100
AcDbEntity
  8
0
 62
     7
370
    35
100
AcDbLine
 10
287.0
 20
10.0
 30
0.0
 11
287.0
 21
200.0
 31
0.0
  0
LINE
  5
1D9
330
1F
100
AcDbEntity
  8
0
 62
     7
370
    35
100
AcDbLine
 10
287.0
 20
200.0
 30
0.0
 11
10.0
 21
200.0
 31
0.0
  0
LINE
  5
1DA
330
1F
100
AcDbEntity
  8
0
 62
     7
370
    35
100
AcDbLine
 10
10.0
 20
200.0
 30
0.0
 11
10.0
 21
10.0
 31
0.0
  0
LINE
  5
1DB
330
1F
100
AcDbEntity
  8
0
 62
     7
370
    35
100
AcDbLine
 10
148.5
 20
200.0
 30
0.0
 11
148.5
 21
210.0
 31
0.0
  0
LINE
  5
1DC
330
1F
100
AcDbEntity
  8
0
 62
     7
370
    35
100
AcDbLine
 10
148.5
 20
10.0
 30
0.0
 11
148.5
 21
0.0
 31
0.0
  0
LINE
  5
1DD
330
1F
100
AcDbEntity
  8
0
 62
     7
370
    35
100
AcDbLine
 10
10.0
 20
105.0
 30
0.0
 11
0.0
 21
105.0
 31
0.0
  0
LINE
  5
1DE
330
1F
100
AcDbEntity
  8
0
 62
     7
370
    35
100
AcDbLine
 10
287.0
 20
105.0
 30
0.0
 11
297.0
 21
105.0
 31
0.0
  0
LINE
  5
1DF
330
1F
100
AcDbEntity
  8
0
 62
     7
370
    35
100
AcDbLine
 10
222.7
 20
10.0
 30
0.0
 11
222.7
 21
2.5
 31
0.0
  0
LINE
  5
1E0
330
1F
100
AcDbEntity
  8
0
 62
     7
370
    35
100
AcDbLine
 10
74.3
 20
10.0
 30
0.0
 11
74.3
 21
2.5
 31
0.0
  0
LINE
  5
1E1
330
1F
100
AcDbEntity
  8
0
 62
     7
370
    35
100
AcDbLine
 10
222.7
 20
200.0
 30
0.0
 11
222.7
 21
207.5
 31
0.0
  0
LINE
  5
1E2
330
1F
100
AcDbEntity
  8
0
 62
     7
370
    35
100
AcDbLine
 10
74.3
 20
200.0
 30
0.0
 11
74.3
 21
207.5
 31
0.0
  0
LINE
  5
1E3
330
1F
100
AcDbEntity
  8
0
 62
     7
370
    35
100
AcDbLine
 10
10.0
 20
157.5
 30
0.0
 11
2.5
 21
157.5
 31
0.0
  0
LINE
  5
1E4
330
1F
100
AcDbEntity
  8
0
 62
     7
370
    35
100
AcDbLine
 10
287.0
 20
157.5
 30
0.0
 11
294.5
 21
157.5
 31
0.0
  0
LINE
  5
1E5
330
1F
100
AcDbEntity
  8
0
 62
     7
370
    35
100
AcDbLine
 10
10.0
 20
52.5
 30
0.0
 11
2.5
 21
52.5
 31
0.0
  0
LINE
  5
1E6
330
1F
100
AcDbEntity
  8
0
 62
     7
370
    35
100
AcDbLine
 10
287.0
 20
52.5
 30
0.0
 11
294.5
 21
52.5
 31
0.0
  0
LINE
  5
1E7
330
1F
100
AcDbEntity
  8
0
 62
     7
370
    35
100
AcDbLine
 10
98.5
 20
7.5
 30
0.0
 11
198.5
 21
7.5
 31
0.0
  0
LINE
  5
1E8
330
1F
100
AcDbEntity
  8
0
 62
     7
370
    35
100
AcDbLine
 10
98.5
 20
10.0
 30
0.0
 11
98.5
 21
5.0
 31
0.0
  0
LINE
  5
1E9
330
1F
100
AcDbEntity
  8
0
 62
     7
370
    35
100
AcDbLine
 10
198.5
 20
10.0
 30
0.0
 11
198.5
 21
5.0
 31
0.0
  0
LINE
  5
1EA
330
1F
100
AcDbEntity
  8
0
 62
     7
370
    35
100
AcDbLine
 10
108.5
 20
10.0
 30
0.0
 11
108.5
 21
7.5
 31
0.0
  0
LINE
  5
1EB
330
1F
100
AcDbEntity
  8
0
 62
     7
370
    35
100
AcDbLine
 10
188.5
 20
10.0
 30
0.0
 11
188.5
 21
7.5
 31
0.0
  0
LINE
  5
1EC
330
1F
100
AcDbEntity
  8
0
 62
     7
370
    35
100
AcDbLine
 10
118.5
 20
10.0
 30
0.0
 11
118.5
 21
7.5
 31
0.0
  0
LINE
  5
1ED
330
1F
100
AcDbEntity
  8
0
 62
     7
370
    35
100
AcDbLine
 10
178.5
 20
10.0
 30
0.0
 11
178.5
 21
7.5
 31
0.0
  0
LINE
  5
1EE
330
1F
100
AcDbEntity
  8
0
 62
     7
370
    35
100
AcDbLine
 10
128.5
 20
10.0
 30
0.0
 11
128.5
 21
7.5
 31
0.0
  0
LINE
  5
1EF
330
1F
100
AcDbEntity
  8
0
 62
     7
370
    35
100
AcDbLine
 10
168.5
 20
10.0
 30
0.0
 11
168.5
 21
7.5
 31
0.0
  0
LINE
  5
1F0
330
1F
100
AcDbEntity
  8
0
 62
     7
370
    35
100
AcDbLine
 10
138.5
 20
10.0
 30
0.0
 11
138.5
 21
7.5
 31
0.0
  0
LINE
  5
1F1
330
1F
100
AcDbEntity
  8
0
 62
     7
370
    35
100
AcDbLine
 10
158.5
 20
10.0
 30
0.0
 11
158.5
 21
7.5
 31
0.0
  0
LINE
  5
1F2
330
1F
100
AcDbEntity
  8
0
 62
     7
370
    35
100
AcDbLine
 10
97.0
 20
10.0
 30
0.0
 11
287.0
 21
10.0
 31
0.0
  0
LINE
  5
1F3
330
1F
100
AcDbEntity
  8
0
 62
     7
370
    35
100
AcDbLine
 10
97.0
 20
10.0
 30
0.0
 11
97.0
 21
70.0
 31
0.0
  0
LINE
  5
1F4
330
1F
100
AcDbEntity
  8
0
 62
     7
370
    35
100
AcDbLine
 10
97.0
 20
70.0
 30
0.0
 11
287.0
 21
70.0
 31
0.0
  0
LINE
  5
1F5
330
1F
100
AcDbEntity
  8
0
 62
     7
370
    35
100
AcDbLine
 10
287.0
 20
70.0
 30
0.0
 11
287.0
 21
10.0
 31
0.0
  0
LINE
  5
1F6
330
1F
100
AcDbEntity
  8
0
 62
     7
370
    35
100
AcDbLine
 10
97.0
 20
14.0
 30
0.0
 11
262.0
 21
14.0
 31
0.0
  0
LINE
  5
1F7
330
1F
100
AcDbEntity
  8
0
 62
     7
370
    35
100
AcDbLine
 10
97.0
 20
27.0
 30
0.0
 11
262.0
 21
27.0
 31
0.0
  0
LINE
  5
1F8
330
1F
100
AcDbEntity
  8
0
 62
     7
370
    35
100
AcDbLine
 10
97.0
 20
40.0
 30
0.0
 11
262.0
 21
40.0
 31
0.0
  0
LINE
  5
1F9
330
1F
100
AcDbEntity
  8
0
 62
     7
370
    35
100
AcDbLine
 10
97.0
 20
55.0
 30
0.0
 11
142.0
 21
55.0
 31
0.0
  0
LINE
  5
1FA
330
1F
100
AcDbEntity
  8
0
 62
     7
370
    35
100
AcDbLine
 10
262.0
 20
16.666667
 30
0.0
 11
287.0
 21
16.666667
 31
0.0
  0
LINE
  5
1FB
330
1F
100
AcDbEntity
  8
0
 62
     7
370
    35
100
AcDbLine
 10
262.0
 20
23.333333
 30
0.0
 11
287.0
 21
23.333333
 31
0.0
  0
LINE
  5
1FC
330
1F
100
AcDbEntity
  8
0
 62
     7
370
    35
100
AcDbLine
 10
262.0
 20
30.0
 30
0.0
 11
287.0
 21
30.0
 31
0.0
  0
LINE
  5
1FD
330
1F
100
AcDbEntity
  8
0
 62
     7
370
    35
100
AcDbLine
 10
262.0
 20
36.666667
 30
0.0
 11
287.0
 21
36.666667
 31
0.0
  0
LINE
  5
1FE
330
1F
100
AcDbEntity
  8
0
 62
     7
370
    35
100
AcDbLine
 10
262.0
 20
43.333333
 30
0.0
 11
287.0
 21
43.333333
 31
0.0
  0
LINE
  5
1FF
330
1F
100
AcDbEntity
  8
0
 62
     7
370
    35
100
AcDbLine
 10
262.0
 20
50.0
 30
0.0
 11
287.0
 21
50.0
 31
0.0
  0
LINE
  5
200
330
1F
100
AcDbEntity
  8
0
 62
     7
370
    35
100
AcDbLine
 10
262.0
 20
56.666667
 30
0.0
 11
287.0
 21
56.666667
 31
0.0
  0
LINE
  5
201
330
1F
100
AcDbEntity
  8
0
 62
     7
370
    35
100
AcDbLine
 10
262.0
 20
63.333333
 30
0.0
 11
287.0
 21
63.333333
 31
0.0
  0
LINE
  5
202
330
1F
100
AcDbEntity
  8
0
 62
     7
370
    35
100
AcDbLine
 10
117.0
 20
14.0
 30
0.0
 11
117.0
 21
40.0
 31
0.0
  0
LINE
  5
203
330
1F
100
AcDbEntity
  8
0
 62
     7
370
    35
100
AcDbLine
 10
142.0
 20
14.0
 30
0.0
 11
142.0
 21
70.0
 31
0.0
  0
LINE
  5
204
330
1F
100
AcDbEntity
  8
0
 62
     7
370
    35
100
AcDbLine
 10
242.0
 20
14.0
 30
0.0
 11
242.0
 21
27.0
 31
0.0
  0
LINE
  5
205
330
1F
100
AcDbEntity
  8
0
 62
     7
370
    35
100
AcDbLine
 10
262.0
 20
10.0
 30
0.0
 11
262.0
 21
70.0
 31
0.0
  0
LINE
  5
206
330
1F
100
AcDbEntity
  8
0
 62
     7
370
    35
100
AcDbLine
 10
267.0
 20
10.0
 30
0.0
 11
267.0
 21
70.0
 31
0.0
  0
LINE
  5
207
330
1F
100
AcDbEntity
  8
0
 62
     7
370
    35
100
AcDbLine
 10
119.0
 20
33.5
 30
0.0
 11
140.0
 21
33.5
 31
0.0
  0
LINE
  5
208
330
1F
100
AcDbEntity
  8
0
 62
     7
370
    35
100
AcDbLine
 10
134.5
 20
28.0
 30
0.0
 11
134.5
 21
39.0
 31
0.0
  0
LINE
  5
209
330
1F
100
AcDbEntity
  8
0
 62
     7
370
    35
100
AcDbLine
 10
120.5
 20
31.5
 30
0.0
 11
120.5
 21
35.5
 31
0.0
  0
LINE
  5
20A
330
1F
100
AcDbEntity
  8
0
 62
     7
370
    35
100
AcDbLine
 10
120.5
 20
35.5
 30
0.0
 11
128.5
 21
37.5
 31
0.0
  0
LINE
  5
20B
330
1F
100
AcDbEntity
  8
0
 62
     7
370
    35
100
AcDbLine
 10
128.5
 20
37.5
 30
0.0
 11
128.5
 21
29.5
 31
0.0
  0
LINE
  5
20C
330
1F
100
AcDbEntity
  8
0
 62
     7
370
    35
100
AcDbLine
 10
128.5
 20
29.5
 30
0.0
 11
120.5
 21
31.5
 31
0.0
  0
CIRCLE
  5
20D
330
1F
100
AcDbEntity
  8
0
 62
     7
370
    35
100
AcDbCircle
 10
134.5
 20
33.5
 30
0.0
 40
2.0
  0
CIRCLE
  5
20E
330
1F
100
AcDbEntity
  8
0
 62
     7
370
    35
100
AcDbCircle
 10
134.5
 20
33.5
 30
0.0
 40
4.0
  0
INSERT
  5
20F
330
1F
100
AcDbEntity
  8
0
370
     0
100
AcDbBlockReference
  2
BLOCK726
 10
179.38058
 20
40.466745
 30
0.0
  0
INSERT
  5
210
330
1F
100
AcDbEntity
  8
0
370
     0
100
AcDbBlockReference
  2
BLOCK727
 10
179.38058
 20
40.466745
 30
0.0
  0
INSERT
  5
211
330
1F
100
AcDbEntity
  8
0
370
     0
100
AcDbBlockReference
  2
BLOCK728
 10
179.38058
 20
40.466745
 30
0.0
  0
INSERT
  5
212
330
1F
100
AcDbEntity
  8
0
370
     0
100
AcDbBlockReference
  2
BLOCK729
 10
166.521104
 20
40.466745
 30
0.0
  0
INSERT
  5
213
330
1F
100
AcDbEntity
  8
0
370
     0
100
AcDbBlockReference
  2
BLOCK730
 10
166.521104
 20
40.466745
 30
0.0
  0
DIMENSION
  5
214
102
{ACAD_XDICTIONARY
360
215
102
}
330
1F
100
AcDbEntity
  8
0
 62
     0
370
     0
100
AcDbDimension
  2
*D59
 10
107.521104
 20
115.07464
 30
0.0
 11
84.075708
 21
115.07464
 31
0.0
 70
   160
  1
2x <>{}{%%p0,5}
 71
     5
 42
-1.0
 52
5156.620156
  3
STANDARD
100
AcDbAlignedDimension
 13
96.521104
 23
138.866745
 33
0.0
 14
107.521104
 24
132.866754
 34
0.0
 50
360.0
100
AcDbRotatedDimension
1001
ACAD
1000
DSTYLE
1002
{
1070
    71
1070
     0
1070
    72
1070
     0
1070
    47
1040
0.5
1070
    48
1040
0.5
1002
}
  0
LINE
  5
216
330
1F
100
AcDbEntity
  8
0
  6
DASHDOT
 62
     7
370
    18
100
AcDbLine
 10
88.421105
 20
142.866747
 30
0.0
 11
209.621102
 21
142.866747
 31
0.0
  0
INSERT
  5
217
330
1F
100
AcDbEntity
  8
0
370
     0
100
AcDbBlockReference
  2
BLOCK731
 10
166.521104
 20
40.466745
 30
0.0
  0
ENDSEC
  0
SECTION
  2
OBJECTS
  0
DICTIONARY
  5
C
330
0
100
AcDbDictionary
281
     1
  3
ACAD_GROUP
350
D
  3
ACAD_LAYOUT
350
1A
  3
ACAD_MLINESTYLE
350
17
  3
ACAD_PLOTSETTINGS
350
19
  3
ACAD_PLOTSTYLENAME
350
E
  3
ACAD_SCALELIST
350
47
  0
DICTIONARY
  5
215
330
214
100
AcDbDictionary
280
     1
281
     1
  0
DICTIONARY
  5
D
102
{ACAD_REACTORS
330
C
102
}
330
C
100
AcDbDictionary
281
     1
  0
DICTIONARY
  5
1A
102
{ACAD_REACTORS
330
C
102
}
330
C
100
AcDbDictionary
281
     1
  3
Layout1
350
1E
  3
Layout2
350
26
  3
Model
350
22
  0
DICTIONARY
  5
17
102
{ACAD_REACTORS
330
C
102
}
330
C
100
AcDbDictionary
281
     1
  3
Standard
350
18
  0
DICTIONARY
  5
19
102
{ACAD_REACTORS
330
C
102
}
330
C
100
AcDbDictionary
281
     1
  0
ACDBDICTIONARYWDFLT
  5
E
102
{ACAD_REACTORS
330
C
102
}
330
C
100
AcDbDictionary
281
     1
  3
Normal
350
F
100
AcDbDictionaryWithDefault
340
F
  0
DICTIONARY
  5
47
102
{ACAD_REACTORS
330
C
102
}
330
C
100
AcDbDictionary
281
     1
  3
A0
350
48
  3
A1
350
49
  3
A2
350
4A
  3
A3
350
4B
  3
A4
350
4C
  3
A5
350
4D
  3
A6
350
4E
  3
A7
350
4F
  3
A8
350
50
  3
A9
350
51
  3
B0
350
52
  3
B1
350
53
  3
B2
350
54
  3
B3
350
55
  3
B4
350
56
  3
B5
350
57
  3
B6
350
58
  3
B7
350
59
  3
B8
350
5A
  3
B9
350
5B
  3
C0
350
5C
  3
C1
350
5D
  3
C2
350
5E
  3
C3
350
5F
  3
C4
350
60
  3
C5
350
61
  3
C6
350
62
  3
C7
350
63
  3
C8
350
64
  3
C9
350
65
  3
D0
350
66
  3
D1
350
67
  3
D2
350
68
  0
LAYOUT
  5
1E
102
{ACAD_REACTORS
330
1A
102
}
330
1A
100
AcDbPlotSettings
  1

  2
none_device
  4

  6

 40
0.0
 41
0.0
 42
0.0
 43
0.0
 44
0.0
 45
0.0
 46
0.0
 47
0.0
 48
0.0
 49
0.0
140
0.0
141
0.0
142
1.0
143
1.0
 70
  4784
 72
     0
 73
     0
 74
     5
  7

 75
    16
147
1.0
148
0.0
149
0.0
100
AcDbLayout
  1
Layout1
 70
     1
 71
     1
 10
0.0
 20
0.0
 11
420.0
 21
297.0
 12
0.0
 22
0.0
 32
0.0
 14
0.0
 24
0.0
 34
0.0
 15
293.399994
 25
206.573776
 35
2.0
146
0.0
 13
0.0
 23
0.0
 33
0.0
 16
1.0
 26
0.0
 36
0.0
 17
0.0
 27
1.0
 37
0.0
 76
     0
330
1B
  0
LAYOUT
  5
26
102
{ACAD_REACTORS
330
1A
102
}
330
1A
100
AcDbPlotSettings
  1

  2
none_device
  4

  6

 40
0.0
 41
0.0
 42
0.0
 43
0.0
 44
0.0
 45
0.0
 46
0.0
 47
0.0
 48
0.0
 49
0.0
140
0.0
141
0.0
142
1.0
143
1.0
 70
  4784
 72
     0
 73
     0
 74
     5
  7

 75
    16
147
1.0
148
0.0
149
0.0
100
AcDbLayout
  1
Layout2
 70
     1
 71
     2
 10
0.0
 20
0.0
 11
0.0
 21
0.0
 12
0.0
 22
0.0
 32
0.0
 14
0.0
 24
0.0
 34
0.0
 15
0.0
 25
0.0
 35
0.0
146
0.0
 13
0.0
 23
0.0
 33
0.0
 16
1.0
 26
0.0
 36
0.0
 17
0.0
 27
1.0
 37
0.0
 76
     0
330
23
  0
LAYOUT
  5
22
102
{ACAD_REACTORS
330
1A
102
}
330
1A
100
AcDbPlotSettings
  1

  2
none_device
  4
Letter_(8.50_x_11.00_Inches)
  6

 40
6.35
 41
6.35
 42
6.350005
 43
6.350005
 44
215.9
 45
279.4
 46
0.0
 47
0.0
 48
0.0
 49
0.0
140
0.0
141
0.0
142
1.0
143
1.0
 70
  5808
 72
     0
 73
     0
 74
     0
  7

 75
     0
147
1.0
148
0.0
149
0.0
100
AcDbLayout
  1
Model
 70
     1
 71
     0
 10
0.0
 20
0.0
 11
420.0
 21
297.0
 12
0.0
 22
0.0
 32
0.0
 14
0.0
 24
0.0
 34
0.0
 15
293.399994
 25
206.573776
 35
2.0
146
0.0
 13
0.0
 23
0.0
 33
0.0
 16
1.0
 26
0.0
 36
0.0
 17
0.0
 27
1.0
 37
0.0
 76
     0
330
1F
331
29
  0
MLINESTYLE
  5
18
102
{ACAD_REACTORS
330
17
102
}
330
17
100
AcDbMlineStyle
  2
Standard
 70
     0
  3

 62
   256
 51
90.0
 52
90.0
 71
     2
 49
0.5
 62
   256
  6
BYLAYER
 49
-0.5
 62
   256
  6
BYLAYER
  0
ACDBPLACEHOLDER
  5
F
102
{ACAD_REACTORS
330
E
102
}
330
E
  0
SCALE
  5
48
102
{ACAD_REACTORS
330
47
102
}
330
47
100
AcDbScale
 70
     0
300
1:1
140
1.0
141
1.0
290
     1
  0
SCALE
  5
49
102
{ACAD_REACTORS
330
47
102
}
330
47
100
AcDbScale
 70
     0
300
1:2
140
1.0
141
2.0
290
     0
  0
SCALE
  5
4A
102
{ACAD_REACTORS
330
47
102
}
330
47
100
AcDbScale
 70
     0
300
1:4
140
1.0
141
4.0
290
     0
  0
SCALE
  5
4B
102
{ACAD_REACTORS
330
47
102
}
330
47
100
AcDbScale
 70
     0
300
1:5
140
1.0
141
5.0
290
     0
  0
SCALE
  5
4C
102
{ACAD_REACTORS
330
47
102
}
330
47
100
AcDbScale
 70
     0
300
1:8
140
1.0
141
8.0
290
     0
  0
SCALE
  5
4D
102
{ACAD_REACTORS
330
47
102
}
330
47
100
AcDbScale
 70
     0
300
1:10
140
1.0
141
10.0
290
     0
  0
SCALE
  5
4E
102
{ACAD_REACTORS
330
47
102
}
330
47
100
AcDbScale
 70
     0
300
1:16
140
1.0
141
16.0
290
     0
  0
SCALE
  5
4F
102
{ACAD_REACTORS
330
47
102
}
330
47
100
AcDbScale
 70
     0
300
1:20
140
1.0
141
20.0
290
     0
  0
SCALE
  5
50
102
{ACAD_REACTORS
330
47
102
}
330
47
100
AcDbScale
 70
     0
300
1:30
140
1.0
141
30.0
290
     0
  0
SCALE
  5
51
102
{ACAD_REACTORS
330
47
102
}
330
47
100
AcDbScale
 70
     0
300
1:40
140
1.0
141
40.0
290
     0
  0
SCALE
  5
52
102
{ACAD_REACTORS
330
47
102
}
330
47
100
AcDbScale
 70
     0
300
1:50
140
1.0
141
50.0
290
     0
  0
SCALE
  5
53
102
{ACAD_REACTORS
330
47
102
}
330
47
100
AcDbScale
 70
     0
300
1:100
140
1.0
141
100.0
290
     0
  0
SCALE
  5
54
102
{ACAD_REACTORS
330
47
102
}
330
47
100
AcDbScale
 70
     0
300
2:1
140
2.0
141
1.0
290
     0
  0
SCALE
  5
55
102
{ACAD_REACTORS
330
47
102
}
330
47
100
AcDbScale
 70
     0
300
4:1
140
4.0
141
1.0
290
     0
  0
SCALE
  5
56
102
{ACAD_REACTORS
330
47
102
}
330
47
100
AcDbScale
 70
     0
300
8:1
140
8.0
141
1.0
290
     0
  0
SCALE
  5
57
102
{ACAD_REACTORS
330
47
102
}
330
47
100
AcDbScale
 70
     0
300
10:1
140
10.0
141
1.0
290
     0
  0
SCALE
  5
58
102
{ACAD_REACTORS
330
47
102
}
330
47
100
AcDbScale
 70
     0
300
100:1
140
100.0
141
1.0
290
     0
  0
SCALE
  5
59
102
{ACAD_REACTORS
330
47
102
}
330
47
100
AcDbScale
 70
     0
300
1/128" = 1'-0"
140
0.007812
141
12.0
290
     0
  0
SCALE
  5
5A
102
{ACAD_REACTORS
330
47
102
}
330
47
100
AcDbScale
 70
     0
300
1/64" = 1'-0"
140
0.015625
141
12.0
290
     0
  0
SCALE
  5
5B
102
{ACAD_REACTORS
330
47
102
}
330
47
100
AcDbScale
 70
     0
300
1/32" = 1'-0"
140
0.03125
141
12.0
290
     0
  0
SCALE
  5
5C
102
{ACAD_REACTORS
330
47
102
}
330
47
100
AcDbScale
 70
     0
300
1/16" = 1'-0"
140
0.0625
141
12.0
290
     0
  0
SCALE
  5
5D
102
{ACAD_REACTORS
330
47
102
}
330
47
100
AcDbScale
 70
     0
300
3/32" = 1'-0"
140
0.09375
141
12.0
290
     0
  0
SCALE
  5
5E
102
{ACAD_REACTORS
330
47
102
}
330
47
100
AcDbScale
 70
     0
300
1/8" = 1'-0"
140
0.125
141
12.0
290
     0
  0
SCALE
  5
5F
102
{ACAD_REACTORS
330
47
102
}
330
47
100
AcDbScale
 70
     0
300
3/16" = 1'-0"
140
0.1875
141
12.0
290
     0
  0
SCALE
  5
60
102
{ACAD_REACTORS
330
47
102
}
330
47
100
AcDbScale
 70
     0
300
1/4" = 1'-0"
140
0.25
141
12.0
290
     0
  0
SCALE
  5
61
102
{ACAD_REACTORS
330
47
102
}
330
47
100
AcDbScale
 70
     0
300
3/8" = 1'-0"
140
0.375
141
12.0
290
     0
  0
SCALE
  5
62
102
{ACAD_REACTORS
330
47
102
}
330
47
100
AcDbScale
 70
     0
300
1/2" = 1'-0"
140
0.5
141
12.0
290
     0
  0
SCALE
  5
63
102
{ACAD_REACTORS
330
47
102
}
330
47
100
AcDbScale
 70
     0
300
3/4" = 1'-0"
140
0.75
141
12.0
290
     0
  0
SCALE
  5
64
102
{ACAD_REACTORS
330
47
102
}
330
47
100
AcDbScale
 70
     0
300
1" = 1'-0"
140
1.0
141
12.0
290
     0
  0
SCALE
  5
65
102
{ACAD_REACTORS
330
47
102
}
330
47
100
AcDbScale
 70
     0
300
1-1/2" = 1'-0"
140
1.5
141
12.0
290
     0
  0
SCALE
  5
66
102
{ACAD_REACTORS
330
47
102
}
330
47
100
AcDbScale
 70
     0
300
3" = 1'-0"
140
3.0
141
12.0
290
     0
  0
SCALE
  5
67
102
{ACAD_REACTORS
330
47
102
}
330
47
100
AcDbScale
 70
     0
300
6" = 1'-0"
140
6.0
141
12.0
290
     0
  0
SCALE
  5
68
102
{ACAD_REACTORS
330
47
102
}
330
47
100
AcDbScale
 70
     0
300
1'-0" = 1'-0"
140
12.0
141
12.0
290
     0
  0
ENDSEC
  0
EOF
