  0
SECTION
  2
HEADER
  9
$ACADVER
  1
AC1015
  9
$ACADMAINTVER
 70
     6
  9
$DWGCODEPAGE
  3
ANSI_1252
  9
$INSBASE
 10
0.0
 20
0.0
 30
0.0
  9
$EXTMIN
 10
0.0
 20
0.0
 30
0.0
  9
$EXTMAX
 10
293.399994
 20
295.116608
 30
2.0
  9
$LIMMIN
 10
0.0
 20
0.0
  9
$LIMMAX
 10
420.0
 20
297.0
  9
$ORTHOMODE
 70
     0
  9
$REGENMODE
 70
     1
  9
$FILLMODE
 70
     1
  9
$QTEXTMODE
 70
     0
  9
$MIRRTEXT
 70
     1
  9
$LTSCALE
 40
1.0
  9
$ATTMODE
 70
     1
  9
$TEXTSIZE
 40
2.5
  9
$TRACEWID
 40
1.0
  9
$TEXTSTYLE
  7
Standard
  9
$CLAYER
  8
0
  9
$CELTYPE
  6
ByLayer
  9
$CECOLOR
 62
   256
  9
$CELTSCALE
 40
1.0
  9
$DISPSILH
 70
     0
  9
$DIMSCALE
 40
1.0
  9
$DIMASZ
 40
2.5
  9
$DIMEXO
 40
0.625
  9
$DIMDLI
 40
3.75
  9
$DIMRND
 40
0.0
  9
$DIMDLE
 40
0.0
  9
$DIMEXE
 40
1.25
  9
$DIMTP
 40
0.0
  9
$DIMTM
 40
0.0
  9
$DIMTXT
 40
2.5
  9
$DIMCEN
 40
2.5
  9
$DIMTSZ
 40
0.0
  9
$DIMTOL
 70
     0
  9
$DIMLIM
 70
     0
  9
$DIMTIH
 70
     0
  9
$DIMTOH
 70
     0
  9
$DIMSE1
 70
     0
  9
$DIMSE2
 70
     0
  9
$DIMTAD
 70
     1
  9
$DIMZIN
 70
     8
  9
$DIMBLK
  1

  9
$DIMASO
 70
     1
  9
$DIMSHO
 70
     1
  9
$DIMPOST
  1

  9
$DIMAPOST
  1

  9
$DIMALT
 70
     0
  9
$DIMALTD
 70
     3
  9
$DIMALTF
 40
0.03937
  9
$DIMLFAC
 40
1.0
  9
$DIMTOFL
 70
     1
  9
$DIMTVP
 40
0.0
  9
$DIMTIX
 70
     0
  9
$DIMSOXD
 70
     0
  9
$DIMSAH
 70
     0
  9
$DIMBLK1
  1

  9
$DIMBLK2
  1

  9
$DIMSTYLE
  2
STANDARD
  9
$DIMCLRD
 70
     0
  9
$DIMCLRE
 70
     0
  9
$DIMCLRT
 70
     0
  9
$DIMTFAC
 40
1.0
  9
$DIMGAP
 40
0.625
  9
$DIMJUST
 70
     0
  9
$DIMSD1
 70
     0
  9
$DIMSD2
 70
     0
  9
$DIMTOLJ
 70
     0
  9
$DIMTZIN
 70
     8
  9
$DIMALTZ
 70
     0
  9
$DIMALTTZ
 70
     0
  9
$DIMUPT
 70
     0
  9
$DIMDEC
 70
     2
  9
$DIMTDEC
 70
     2
  9
$DIMALTU
 70
     2
  9
$DIMALTTD
 70
     3
  9
$DIMTXSTY
  7
Standard
  9
$DIMAUNIT
 70
     0
  9
$DIMADEC
 70
     0
  9
$DIMALTRND
 40
0.0
  9
$DIMAZIN
 70
     0
  9
$DIMDSEP
 70
    44
  9
$DIMATFIT
 70
     0
  9
$DIMFRAC
 70
     0
  9
$DIMLDRBLK
  1

  9
$DIMLUNIT
 70
     2
  9
$DIMLWD
 70
    -2
  9
$DIMLWE
 70
    -2
  9
$DIMTMOVE
 70
     0
  9
$LUNITS
 70
     2
  9
$LUPREC
 70
     4
  9
$SKETCHINC
 40
1.0
  9
$FILLETRAD
 40
2.5
  9
$AUNITS
 70
     0
  9
$AUPREC
 70
     0
  9
$MENU
  1
.
  9
$ELEVATION
 40
0.0
  9
$PELEVATION
 40
0.0
  9
$THICKNESS
 40
0.0
  9
$LIMCHECK
 70
     0
  9
$CHAMFERA
 40
2.5
  9
$CHAMFERB
 40
2.5
  9
$CHAMFERC
 40
0.0
  9
$CHAMFERD
 40
0.0
  9
$SKPOLY
 70
     0
  9
$TDCREATE
 40
2447892.875
  9
$TDUCREATE
 40
0.0
  9
$TDUPDATE
 40
2458949.161303113
  9
$TDUUPDATE
 40
2458949.286303113
  9
$TDINDWG
 40
0.0
  9
$TDUSRTIMER
 40
0.0
  9
$USRTIMER
 70
     1
  9
$ANGBASE
 50
0.0
  9
$ANGDIR
 70
     0
  9
$PDMODE
 70
     0
  9
$PDSIZE
 40
0.0
  9
$PLINEWID
 40
0.0
  9
$SPLFRAME
 70
     0
  9
$SPLINETYPE
 70
     6
  9
$SPLINESEGS
 70
     8
  9
$HANDSEED
  5
21E
  9
$SURFTAB1
 70
     6
  9
$SURFTAB2
 70
     6
  9
$SURFTYPE
 70
     6
  9
$SURFU
 70
     6
  9
$SURFV
 70
     6
  9
$UCSBASE
  2

  9
$UCSNAME
  2

  9
$UCSORG
 10
0.0
 20
0.0
 30
0.0
  9
$UCSXDIR
 10
1.0
 20
0.0
 30
0.0
  9
$UCSYDIR
 10
0.0
 20
1.0
 30
0.0
  9
$UCSORTHOREF
  2

  9
$UCSORTHOVIEW
 70
     1
  9
$UCSORGTOP
 10
0.0
 20
0.0
 30
0.0
  9
$UCSORGBOTTOM
 10
0.0
 20
0.0
 30
0.0
  9
$UCSORGLEFT
 10
0.0
 20
0.0
 30
0.0
  9
$UCSORGRIGHT
 10
0.0
 20
0.0
 30
0.0
  9
$UCSORGFRONT
 10
0.0
 20
0.0
 30
0.0
  9
$UCSORGBACK
 10
0.0
 20
0.0
 30
0.0
  9
$PUCSBASE
  2

  9
$PUCSNAME
  2

  9
$PUCSORG
 10
0.0
 20
0.0
 30
0.0
  9
$PUCSXDIR
 10
1.0
 20
0.0
 30
0.0
  9
$PUCSYDIR
 10
0.0
 20
1.0
 30
0.0
  9
$PUCSORTHOREF
  2

  9
$PUCSORTHOVIEW
 70
     0
  9
$PUCSORGTOP
 10
0.0
 20
0.0
 30
0.0
  9
$PUCSORGBOTTOM
 10
0.0
 20
0.0
 30
0.0
  9
$PUCSORGLEFT
 10
0.0
 20
0.0
 30
0.0
  9
$PUCSORGRIGHT
 10
0.0
 20
0.0
 30
0.0
  9
$PUCSORGFRONT
 10
0.0
 20
0.0
 30
0.0
  9
$PUCSORGBACK
 10
0.0
 20
0.0
 30
0.0
  9
$USERI1
 70
     0
  9
$USERI2
 70
     0
  9
$USERI3
 70
     0
  9
$USERI4
 70
     0
  9
$USERI5
 70
     0
  9
$USERR1
 40
0.0
  9
$USERR2
 40
0.0
  9
$USERR3
 40
0.0
  9
$USERR4
 40
0.0
  9
$USERR5
 40
0.0
  9
$WORLDVIEW
 70
     1
  9
$SHADEDGE
 70
     3
  9
$SHADEDIF
 70
    70
  9
$TILEMODE
 70
     1
  9
$MAXACTVP
 70
    64
  9
$PINSBASE
 10
0.0
 20
0.0
 30
0.0
  9
$PLIMCHECK
 70
     0
  9
$PEXTMIN
 10
0.0
 20
0.0
 30
0.0
  9
$PEXTMAX
 10
293.399994
 20
295.116608
 30
2.0
  9
$PLIMMIN
 10
0.0
 20
0.0
  9
$PLIMMAX
 10
420.0
 20
297.0
  9
$UNITMODE
 70
     0
  9
$VISRETAIN
 70
     0
  9
$PLINEGEN
 70
     0
  9
$PSLTSCALE
 70
     1
  9
$TREEDEPTH
 70
  3020
  9
$CMLSTYLE
  2
Standard
  9
$CMLJUST
 70
     0
  9
$CMLSCALE
 40
20.0
  9
$PROXYGRAPHICS
 70
     1
  9
$MEASUREMENT
 70
     1
  9
$CELWEIGHT
370
    -1
  9
$ENDCAPS
280
     0
  9
$JOINSTYLE
280
     0
  9
$LWDISPLAY
290
     0
  9
$INSUNITS
 70
     0
  9
$HYPERLINKBASE
  1

  9
$STYLESHEET
  1

  9
$XEDIT
290
     1
  9
$CEPSNTYPE
380
     0
  9
$PSTYLEMODE
290
     0
  9
$FINGERPRINTGUID
  2
{095BCF6E-0530-48DC-9624-044D4A0057B8}
  9
$VERSIONGUID
  2
{FAEB1C32-E019-11D5-929B-00C0DF256EC4}
  9
$EXTNAMES
290
     1
  9
$PSVPSCALE
 40
0.0
  9
$OLESTARTUP
290
     0
  0
ENDSEC
  0
SECTION
  2
CLASSES
  0
CLASS
  1
ACDBDICTIONARYWDFLT
  2
AcDbDictionaryWithDefault
  3
ObjectDBX Classes
 90
        0
280
     0
281
     0
  0
CLASS
  1
VISUALSTYLE
  2
AcDbVisualStyle
  3
ObjectDBX Classes
 90
     4095
280
     0
281
     0
  0
CLASS
  1
MATERIAL
  2
AcDbMaterial
  3
ObjectDBX Classes
 90
     1153
280
     0
281
     0
  0
CLASS
  1
SCALE
  2
AcDbScale
  3
ObjectDBX Classes
 90
     1153
280
     0
281
     0
  0
CLASS
  1
TABLESTYLE
  2
AcDbTableStyle
  3
ObjectDBX Classes
 90
     4095
280
     0
281
     0
  0
CLASS
  1
MLEADERSTYLE
  2
AcDbMLeaderStyle
  3
ACDB_MLEADERSTYLE_CLASS
 90
     4095
280
     0
281
     0
  0
CLASS
  1
SUN
  2
AcDbSun
  3
SCENEOE
 90
     1153
280
     0
281
     0
  0
CLASS
  1
ACDBPLACEHOLDER
  2
AcDbPlaceHolder
  3
ObjectDBX Classes
 90
        0
280
     0
281
     0
  0
CLASS
  1
LAYOUT
  2
AcDbLayout
  3
ObjectDBX Classes
 90
        0
280
     0
281
     0
  0
ENDSEC
  0
SECTION
  2
TABLES
  0
TABLE
  2
VPORT
  5
8
330
0
100
AcDbSymbolTable
 70
     1
  0
VPORT
  5
29
330
8
100
AcDbSymbolTableRecord
100
AcDbViewportTableRecord
  2
*Active
 70
     0
 10
0.0
 20
0.0
 11
1.0
 21
1.0
 12
10.429907
 22
4.5
 13
0.0
 23
0.0
 14
0.5
 24
0.5
 15
0.5
 25
0.5
 16
0.0
 26
0.0
 36
1.0
 17
0.0
 27
0.0
 37
0.0
 40
9.0
 41
1.972973
 42
50.0
 43
0.0
 44
0.0
 50
0.0
 51
0.0
 71
     0
 72
   100
 73
     1
 74
     3
 75
     0
 76
     0
 77
     0
 78
     0
281
     0
 65
     1
110
0.0
120
0.0
130
0.0
111
1.0
121
0.0
131
0.0
112
0.0
122
1.0
132
0.0
 79
     0
146
0.0
  0
ENDTAB
  0
TABLE
  2
LTYPE
  5
5
330
0
100
AcDbSymbolTable
 70
     2
  0
LTYPE
  5
14
330
5
100
AcDbSymbolTableRecord
100
AcDbLinetypeTableRecord
  2
ByBlock
 70
     0
  3

 72
    65
 73
     0
 40
0.0
  0
LTYPE
  5
15
330
5
100
AcDbSymbolTableRecord
100
AcDbLinetypeTableRecord
  2
ByLayer
 70
     0
  3

 72
    65
 73
     0
 40
0.0
  0
LTYPE
  5
16
330
5
100
AcDbSymbolTableRecord
100
AcDbLinetypeTableRecord
  2
Continuous
 70
     0
  3
Solid line
 72
    65
 73
     0
 40
0.0
  0
LTYPE
  5
6F
330
5
100
AcDbSymbolTableRecord
100
AcDbLinetypeTableRecord
  2
DASHDOT
 70
     0
  3
 __ . __ . __ . __ . __ . __ . __ . 
 72
    65
 73
     4
 40
18.5
 49
12.0
 74
     0
 49
-3.0
 74
     0
 49
0.5
 74
     0
 49
-3.0
 74
     0
  0
ENDTAB
  0
TABLE
  2
LAYER
  5
2
330
0
100
AcDbSymbolTable
 70
     1
  0
LAYER
  5
10
330
2
100
AcDbSymbolTableRecord
100
AcDbLayerTableRecord
  2
0
 70
     0
 62
     7
  6
Continuous
370
    13
390
F
  0
ENDTAB
  0
TABLE
  2
STYLE
  5
3
330
0
100
AcDbSymbolTable
 70
     2
  0
STYLE
  5
11
330
3
100
AcDbSymbolTableRecord
100
AcDbTextStyleTableRecord
  2
Standard
 70
     0
 40
0.0
 41
1.0
 50
0.0
 71
     0
 42
2.5
  3
isocp.shx
  4

  0
STYLE
  5
6E
330
3
100
AcDbSymbolTableRecord
100
AcDbTextStyleTableRecord
  2
GDT
 70
     0
 40
0.0
 41
1.0
 50
0.0
 71
     0
 42
0.2
  3
gdt.shx
  4

  0
ENDTAB
  0
TABLE
  2
VIEW
  5
6
330
0
100
AcDbSymbolTable
 70
     0
  0
ENDTAB
  0
TABLE
  2
UCS
  5
7
330
0
100
AcDbSymbolTable
 70
     0
  0
ENDTAB
  0
TABLE
  2
APPID
  5
9
330
0
100
AcDbSymbolTable
 70
     1
  0
APPID
  5
12
330
9
100
AcDbSymbolTableRecord
100
AcDbRegAppTableRecord
  2
ACAD
 70
     0
  0
ENDTAB
  0
TABLE
  2
DIMSTYLE
  5
A
330
0
100
AcDbSymbolTable
 70
     1
100
AcDbDimStyleTable
  0
DIMSTYLE
105
27
102
{ACAD_REACTORS
330
212
330
214
330
218
102
}
330
A
100
AcDbSymbolTableRecord
100
AcDbDimStyleTableRecord
  2
STANDARD
 70
     0
 41
2.5
 42
0.625
 43
3.75
 44
1.25
 73
     0
 74
     0
 77
     1
 78
     8
140
2.5
141
2.5
143
0.03937
147
0.625
171
     3
172
     1
178
     0
271
     2
272
     2
274
     3
278
    44
283
     0
284
     8
289
     0
340
0
  0
ENDTAB
  0
TABLE
  2
BLOCK_RECORD
  5
1
330
0
100
AcDbSymbolTable
 70
    62
  0
BLOCK_RECORD
  5
1F
330
1
100
AcDbSymbolTableRecord
100
AcDbBlockTableRecord
  2
*Model_Space
340
22
  0
BLOCK_RECORD
  5
1B
330
1
100
AcDbSymbolTableRecord
100
AcDbBlockTableRecord
  2
*Paper_Space
340
1E
  0
BLOCK_RECORD
  5
23
330
1
100
AcDbSymbolTableRecord
100
AcDbBlockTableRecord
  2
*Paper_Space0
340
26
  0
BLOCK_RECORD
  5
70
330
1
100
AcDbSymbolTableRecord
100
AcDbBlockTableRecord
  2
BLOCK78
340
0
102
{BLKREFS
331
1A5
102
}
  0
BLOCK_RECORD
  5
73
330
1
100
AcDbSymbolTableRecord
100
AcDbBlockTableRecord
  2
BLOCK79
340
0
102
{BLKREFS
331
1A6
102
}
  0
BLOCK_RECORD
  5
76
330
1
100
AcDbSymbolTableRecord
100
AcDbBlockTableRecord
  2
BLOCK80
340
0
102
{BLKREFS
331
1A7
102
}
  0
BLOCK_RECORD
  5
79
330
1
100
AcDbSymbolTableRecord
100
AcDbBlockTableRecord
  2
BLOCK81
340
0
102
{BLKREFS
331
1A8
102
}
  0
BLOCK_RECORD
  5
7C
330
1
100
AcDbSymbolTableRecord
100
AcDbBlockTableRecord
  2
BLOCK82
340
0
102
{BLKREFS
331
1A9
102
}
  0
BLOCK_RECORD
  5
7F
330
1
100
AcDbSymbolTableRecord
100
AcDbBlockTableRecord
  2
BLOCK83
340
0
102
{BLKREFS
331
1AA
102
}
  0
BLOCK_RECORD
  5
82
330
1
100
AcDbSymbolTableRecord
100
AcDbBlockTableRecord
  2
BLOCK84
340
0
102
{BLKREFS
331
1AB
102
}
  0
BLOCK_RECORD
  5
85
330
1
100
AcDbSymbolTableRecord
100
AcDbBlockTableRecord
  2
BLOCK85
340
0
102
{BLKREFS
331
1AC
102
}
  0
BLOCK_RECORD
  5
88
330
1
100
AcDbSymbolTableRecord
100
AcDbBlockTableRecord
  2
BLOCK86
340
0
102
{BLKREFS
331
1AD
102
}
  0
BLOCK_RECORD
  5
8B
330
1
100
AcDbSymbolTableRecord
100
AcDbBlockTableRecord
  2
BLOCK87
340
0
102
{BLKREFS
331
1AE
102
}
  0
BLOCK_RECORD
  5
8E
330
1
100
AcDbSymbolTableRecord
100
AcDbBlockTableRecord
  2
BLOCK88
340
0
102
{BLKREFS
331
1AF
102
}
  0
BLOCK_RECORD
  5
91
330
1
100
AcDbSymbolTableRecord
100
AcDbBlockTableRecord
  2
BLOCK89
340
0
102
{BLKREFS
331
1B0
102
}
  0
BLOCK_RECORD
  5
94
330
1
100
AcDbSymbolTableRecord
100
AcDbBlockTableRecord
  2
BLOCK90
340
0
102
{BLKREFS
331
1B1
102
}
  0
BLOCK_RECORD
  5
97
330
1
100
AcDbSymbolTableRecord
100
AcDbBlockTableRecord
  2
BLOCK91
340
0
102
{BLKREFS
331
1B2
102
}
  0
BLOCK_RECORD
  5
9A
330
1
100
AcDbSymbolTableRecord
100
AcDbBlockTableRecord
  2
BLOCK92
340
0
102
{BLKREFS
331
1B3
102
}
  0
BLOCK_RECORD
  5
9D
330
1
100
AcDbSymbolTableRecord
100
AcDbBlockTableRecord
  2
BLOCK93
340
0
102
{BLKREFS
331
1B4
102
}
  0
BLOCK_RECORD
  5
A0
330
1
100
AcDbSymbolTableRecord
100
AcDbBlockTableRecord
  2
BLOCK94
340
0
102
{BLKREFS
331
1B5
102
}
  0
BLOCK_RECORD
  5
A3
330
1
100
AcDbSymbolTableRecord
100
AcDbBlockTableRecord
  2
BLOCK95
340
0
102
{BLKREFS
331
1B6
102
}
  0
BLOCK_RECORD
  5
A6
330
1
100
AcDbSymbolTableRecord
100
AcDbBlockTableRecord
  2
BLOCK96
340
0
102
{BLKREFS
331
1B7
102
}
  0
BLOCK_RECORD
  5
A9
330
1
100
AcDbSymbolTableRecord
100
AcDbBlockTableRecord
  2
BLOCK97
340
0
102
{BLKREFS
331
1B8
102
}
  0
BLOCK_RECORD
  5
AC
330
1
100
AcDbSymbolTableRecord
100
AcDbBlockTableRecord
  2
BLOCK98
340
0
102
{BLKREFS
331
1B9
102
}
  0
BLOCK_RECORD
  5
AF
330
1
100
AcDbSymbolTableRecord
100
AcDbBlockTableRecord
  2
BLOCK99
340
0
102
{BLKREFS
331
1BA
102
}
  0
BLOCK_RECORD
  5
B2
330
1
100
AcDbSymbolTableRecord
100
AcDbBlockTableRecord
  2
BLOCK100
340
0
102
{BLKREFS
331
1BB
102
}
  0
BLOCK_RECORD
  5
B5
330
1
100
AcDbSymbolTableRecord
100
AcDbBlockTableRecord
  2
BLOCK101
340
0
102
{BLKREFS
331
1BC
102
}
  0
BLOCK_RECORD
  5
B8
330
1
100
AcDbSymbolTableRecord
100
AcDbBlockTableRecord
  2
BLOCK102
340
0
102
{BLKREFS
331
1BD
102
}
  0
BLOCK_RECORD
  5
BB
330
1
100
AcDbSymbolTableRecord
100
AcDbBlockTableRecord
  2
BLOCK103
340
0
102
{BLKREFS
331
1BE
102
}
  0
BLOCK_RECORD
  5
BE
330
1
100
AcDbSymbolTableRecord
100
AcDbBlockTableRecord
  2
BLOCK104
340
0
102
{BLKREFS
331
1BF
102
}
  0
BLOCK_RECORD
  5
C1
330
1
100
AcDbSymbolTableRecord
100
AcDbBlockTableRecord
  2
BLOCK105
340
0
102
{BLKREFS
331
1C0
102
}
  0
BLOCK_RECORD
  5
C4
330
1
100
AcDbSymbolTableRecord
100
AcDbBlockTableRecord
  2
BLOCK106
340
0
102
{BLKREFS
331
1C1
102
}
  0
BLOCK_RECORD
  5
C7
330
1
100
AcDbSymbolTableRecord
100
AcDbBlockTableRecord
  2
BLOCK107
340
0
102
{BLKREFS
331
1C2
102
}
  0
BLOCK_RECORD
  5
CA
330
1
100
AcDbSymbolTableRecord
100
AcDbBlockTableRecord
  2
BLOCK108
340
0
102
{BLKREFS
331
1C3
102
}
  0
BLOCK_RECORD
  5
CD
330
1
100
AcDbSymbolTableRecord
100
AcDbBlockTableRecord
  2
BLOCK109
340
0
102
{BLKREFS
331
1C4
102
}
  0
BLOCK_RECORD
  5
D0
330
1
100
AcDbSymbolTableRecord
100
AcDbBlockTableRecord
  2
BLOCK110
340
0
102
{BLKREFS
331
1C5
102
}
  0
BLOCK_RECORD
  5
D3
330
1
100
AcDbSymbolTableRecord
100
AcDbBlockTableRecord
  2
BLOCK111
340
0
102
{BLKREFS
331
1C6
102
}
  0
BLOCK_RECORD
  5
D6
330
1
100
AcDbSymbolTableRecord
100
AcDbBlockTableRecord
  2
BLOCK112
340
0
102
{BLKREFS
331
1C7
102
}
  0
BLOCK_RECORD
  5
D9
330
1
100
AcDbSymbolTableRecord
100
AcDbBlockTableRecord
  2
BLOCK113
340
0
102
{BLKREFS
331
1C8
102
}
  0
BLOCK_RECORD
  5
DC
330
1
100
AcDbSymbolTableRecord
100
AcDbBlockTableRecord
  2
BLOCK114
340
0
102
{BLKREFS
331
1C9
102
}
  0
BLOCK_RECORD
  5
DF
330
1
100
AcDbSymbolTableRecord
100
AcDbBlockTableRecord
  2
BLOCK115
340
0
102
{BLKREFS
331
1CA
102
}
  0
BLOCK_RECORD
  5
E2
330
1
100
AcDbSymbolTableRecord
100
AcDbBlockTableRecord
  2
BLOCK116
340
0
102
{BLKREFS
331
1CB
102
}
  0
BLOCK_RECORD
  5
E5
330
1
100
AcDbSymbolTableRecord
100
AcDbBlockTableRecord
  2
BLOCK117
340
0
102
{BLKREFS
331
1CC
102
}
  0
BLOCK_RECORD
  5
E8
330
1
100
AcDbSymbolTableRecord
100
AcDbBlockTableRecord
  2
BLOCK118
340
0
102
{BLKREFS
331
1CD
102
}
  0
BLOCK_RECORD
  5
EB
330
1
100
AcDbSymbolTableRecord
100
AcDbBlockTableRecord
  2
BLOCK119
340
0
102
{BLKREFS
331
1CE
102
}
  0
BLOCK_RECORD
  5
EE
330
1
100
AcDbSymbolTableRecord
100
AcDbBlockTableRecord
  2
BLOCK120
340
0
102
{BLKREFS
331
1CF
102
}
  0
BLOCK_RECORD
  5
F1
330
1
100
AcDbSymbolTableRecord
100
AcDbBlockTableRecord
  2
BLOCK121
340
0
102
{BLKREFS
331
1D0
102
}
  0
BLOCK_RECORD
  5
F4
330
1
100
AcDbSymbolTableRecord
100
AcDbBlockTableRecord
  2
BLOCK122
340
0
102
{BLKREFS
331
1D1
102
}
  0
BLOCK_RECORD
  5
F7
330
1
100
AcDbSymbolTableRecord
100
AcDbBlockTableRecord
  2
BLOCK123
340
0
102
{BLKREFS
331
1D2
102
}
  0
BLOCK_RECORD
  5
FA
330
1
100
AcDbSymbolTableRecord
100
AcDbBlockTableRecord
  2
BLOCK124
340
0
102
{BLKREFS
331
1D3
102
}
  0
BLOCK_RECORD
  5
FD
330
1
100
AcDbSymbolTableRecord
100
AcDbBlockTableRecord
  2
BLOCK125
340
0
102
{BLKREFS
331
1D4
102
}
  0
BLOCK_RECORD
  5
100
330
1
100
AcDbSymbolTableRecord
100
AcDbBlockTableRecord
  2
BLOCK126
340
0
102
{BLKREFS
331
1D5
102
}
  0
BLOCK_RECORD
  5
103
330
1
100
AcDbSymbolTableRecord
100
AcDbBlockTableRecord
  2
BLOCK127
340
0
102
{BLKREFS
331
1D6
102
}
  0
BLOCK_RECORD
  5
106
330
1
100
AcDbSymbolTableRecord
100
AcDbBlockTableRecord
  2
BLOCK128
340
0
102
{BLKREFS
331
1D7
102
}
  0
BLOCK_RECORD
  5
109
330
1
100
AcDbSymbolTableRecord
100
AcDbBlockTableRecord
  2
BLOCK129
340
0
102
{BLKREFS
331
1D8
102
}
  0
BLOCK_RECORD
  5
10C
330
1
100
AcDbSymbolTableRecord
100
AcDbBlockTableRecord
  2
BLOCK130
340
0
102
{BLKREFS
331
1D9
102
}
  0
BLOCK_RECORD
  5
10F
330
1
100
AcDbSymbolTableRecord
100
AcDbBlockTableRecord
  2
*D54
340
0
  0
BLOCK_RECORD
  5
112
330
1
100
AcDbSymbolTableRecord
100
AcDbBlockTableRecord
  2
*D55
340
0
  0
BLOCK_RECORD
  5
115
330
1
100
AcDbSymbolTableRecord
100
AcDbBlockTableRecord
  2
BLOCK131
340
0
102
{BLKREFS
331
217
102
}
  0
BLOCK_RECORD
  5
118
330
1
100
AcDbSymbolTableRecord
100
AcDbBlockTableRecord
  2
*D57
340
0
  0
BLOCK_RECORD
  5
11B
330
1
100
AcDbSymbolTableRecord
100
AcDbBlockTableRecord
  2
BLOCK132
340
0
102
{BLKREFS
331
21A
102
}
  0
BLOCK_RECORD
  5
11E
330
1
100
AcDbSymbolTableRecord
100
AcDbBlockTableRecord
  2
BLOCK133
340
0
102
{BLKREFS
331
21B
102
}
  0
BLOCK_RECORD
  5
121
330
1
100
AcDbSymbolTableRecord
100
AcDbBlockTableRecord
  2
BLOCK134
340
0
102
{BLKREFS
331
21C
102
}
  0
BLOCK_RECORD
  5
124
330
1
100
AcDbSymbolTableRecord
100
AcDbBlockTableRecord
  2
BLOCK135
340
0
102
{BLKREFS
331
21D
102
}
  0
ENDTAB
  0
ENDSEC
  0
SECTION
  2
BLOCKS
  0
BLOCK
  5
20
330
1F
100
AcDbEntity
  8
0
100
AcDbBlockBegin
  2
*Model_Space
 70
     0
 10
0.0
 20
0.0
 30
0.0
  3
*Model_Space
  1

  0
ENDBLK
  5
21
330
1F
100
AcDbEntity
  8
0
100
AcDbBlockEnd
  0
BLOCK
  5
1C
330
1B
100
AcDbEntity
 67
     1
  8
0
100
AcDbBlockBegin
  2
*Paper_Space
 70
     0
 10
0.0
 20
0.0
 30
0.0
  3
*Paper_Space
  1

  0
ENDBLK
  5
1D
330
1B
100
AcDbEntity
 67
     1
  8
0
100
AcDbBlockEnd
  0
BLOCK
  5
24
330
23
100
AcDbEntity
  8
0
100
AcDbBlockBegin
  2
*Paper_Space0
 70
     0
 10
0.0
 20
0.0
 30
0.0
  3
*Paper_Space0
  1

  0
ENDBLK
  5
25
330
23
100
AcDbEntity
  8
0
100
AcDbBlockEnd
  0
BLOCK
  5
71
330
70
100
AcDbEntity
  8
0
100
AcDbBlockBegin
  2
BLOCK78
 70
     0
 10
0.0
 20
0.0
 30
0.0
  3
BLOCK78
  1

  0
TEXT
  5
127
330
70
100
AcDbEntity
  8
0
 62
     7
370
    18
100
AcDbText
 10
258.226196
 20
3.076224
 30
0.0
 40
3.5
  1
A
 41
1.110901
 72
     5
 11
261.373749
 21
3.076224
 31
0.0
100
AcDbText
  0
ENDBLK
  5
72
330
70
100
AcDbEntity
  8
0
100
AcDbBlockEnd
  0
BLOCK
  5
74
330
73
100
AcDbEntity
  8
0
100
AcDbBlockBegin
  2
BLOCK79
 70
     0
 10
0.0
 20
0.0
 30
0.0
  3
BLOCK79
  1

  0
TEXT
  5
128
330
73
100
AcDbEntity
  8
0
 62
     7
370
    18
100
AcDbText
 10
35.799999
 20
3.076224
 30
0.0
 40
3.5
  1
D
 41
0.933333
 72
     5
 11
38.599998
 21
3.076224
 31
0.0
100
AcDbText
  0
ENDBLK
  5
75
330
73
100
AcDbEntity
  8
0
100
AcDbBlockEnd
  0
BLOCK
  5
77
330
76
100
AcDbEntity
  8
0
100
AcDbBlockBegin
  2
BLOCK80
 70
     0
 10
0.0
 20
0.0
 30
0.0
  3
BLOCK80
  1

  0
TEXT
  5
129
330
76
100
AcDbEntity
  8
0
 62
     7
370
    18
100
AcDbText
 10
187.523788
 20
203.600006
 30
0.0
 40
3.5
  1
B
 50
90.0
 41
0.933334
 72
     5
 11
187.523788
 21
206.400009
 31
0.0
100
AcDbText
  0
ENDBLK
  5
78
330
76
100
AcDbEntity
  8
0
100
AcDbBlockEnd
  0
BLOCK
  5
7A
330
79
100
AcDbEntity
  8
0
100
AcDbBlockBegin
  2
BLOCK81
 70
     0
 10
0.0
 20
0.0
 30
0.0
  3
BLOCK81
  1

  0
TEXT
  5
12A
330
79
100
AcDbEntity
  8
0
 62
     7
370
    18
100
AcDbText
 10
113.323776
 20
203.77623
 30
0.0
 40
3.5
  1
C
 50
90.0
 41
0.815852
 72
     5
 11
113.323776
 21
206.223785
 31
0.0
100
AcDbText
  0
ENDBLK
  5
7B
330
79
100
AcDbEntity
  8
0
100
AcDbBlockEnd
  0
BLOCK
  5
7D
330
7C
100
AcDbEntity
  8
0
100
AcDbBlockBegin
  2
BLOCK82
 70
     0
 10
0.0
 20
0.0
 30
0.0
  3
BLOCK82
  1

  0
TEXT
  5
12B
330
7C
100
AcDbEntity
  8
0
 62
     7
370
    18
100
AcDbText
 10
261.723755
 20
203.426224
 30
0.0
 40
3.5
  1
A
 50
90.0
 41
1.110901
 72
     5
 11
261.723755
 21
206.573776
 31
0.0
100
AcDbText
  0
ENDBLK
  5
7E
330
7C
100
AcDbEntity
  8
0
100
AcDbBlockEnd
  0
BLOCK
  5
80
330
7F
100
AcDbEntity
  8
0
100
AcDbBlockBegin
  2
BLOCK83
 70
     0
 10
0.0
 20
0.0
 30
0.0
  3
BLOCK83
  1

  0
TEXT
  5
12C
330
7F
100
AcDbEntity
  8
0
 62
     7
370
    18
100
AcDbText
 10
39.123775
 20
203.600006
 30
0.0
 40
3.5
  1
D
 50
90.0
 41
0.933334
 72
     5
 11
39.123775
 21
206.400009
 31
0.0
100
AcDbText
  0
ENDBLK
  5
81
330
7F
100
AcDbEntity
  8
0
100
AcDbBlockEnd
  0
BLOCK
  5
83
330
82
100
AcDbEntity
  8
0
100
AcDbBlockBegin
  2
BLOCK84
 70
     0
 10
0.0
 20
0.0
 30
0.0
  3
BLOCK84
  1

  0
TEXT
  5
12D
330
82
100
AcDbEntity
  8
0
 62
     7
370
    18
100
AcDbText
 10
290.776215
 20
129.326218
 30
0.0
 40
3.5
  1
3
 41
0.863838
 72
     5
 11
293.223755
 21
129.326218
 31
0.0
100
AcDbText
  0
ENDBLK
  5
84
330
82
100
AcDbEntity
  8
0
100
AcDbBlockEnd
  0
BLOCK
  5
86
330
85
100
AcDbEntity
  8
0
100
AcDbBlockBegin
  2
BLOCK85
 70
     0
 10
0.0
 20
0.0
 30
0.0
  3
BLOCK85
  1

  0
TEXT
  5
12E
330
85
100
AcDbEntity
  8
0
 62
     7
370
    18
100
AcDbText
 10
6.923776
 20
130.02623
 30
0.0
 40
3.5
  1
3
 50
90.0
 41
0.863843
 72
     5
 11
6.923776
 21
132.473785
 31
0.0
100
AcDbText
  0
ENDBLK
  5
87
330
85
100
AcDbEntity
  8
0
100
AcDbBlockEnd
  0
BLOCK
  5
89
330
88
100
AcDbEntity
  8
0
100
AcDbBlockBegin
  2
BLOCK86
 70
     0
 10
0.0
 20
0.0
 30
0.0
  3
BLOCK86
  1

  0
TEXT
  5
12F
330
88
100
AcDbEntity
  8
0
 62
     7
370
    18
100
AcDbText
 10
290.776215
 20
76.826225
 30
0.0
 40
3.5
  1
2
 41
0.863838
 72
     5
 11
293.223755
 21
76.826225
 31
0.0
100
AcDbText
  0
ENDBLK
  5
8A
330
88
100
AcDbEntity
  8
0
100
AcDbBlockEnd
  0
BLOCK
  5
8C
330
8B
100
AcDbEntity
  8
0
100
AcDbBlockBegin
  2
BLOCK87
 70
     0
 10
0.0
 20
0.0
 30
0.0
  3
BLOCK87
  1

  0
TEXT
  5
130
330
8B
100
AcDbEntity
  8
0
 62
     7
370
    18
100
AcDbText
 10
6.923776
 20
77.526222
 30
0.0
 40
3.5
  1
2
 50
90.0
 41
0.863843
 72
     5
 11
6.923776
 21
79.973778
 31
0.0
100
AcDbText
  0
ENDBLK
  5
8D
330
8B
100
AcDbEntity
  8
0
100
AcDbBlockEnd
  0
BLOCK
  5
8F
330
8E
100
AcDbEntity
  8
0
100
AcDbBlockBegin
  2
BLOCK88
 70
     0
 10
0.0
 20
0.0
 30
0.0
  3
BLOCK88
  1

  0
TEXT
  5
131
330
8E
100
AcDbEntity
  8
0
 62
     7
370
    18
100
AcDbText
 10
290.600006
 20
181.826218
 30
0.0
 40
3.5
  1
4
 41
0.933329
 72
     5
 11
293.399994
 21
181.826218
 31
0.0
100
AcDbText
  0
ENDBLK
  5
90
330
8E
100
AcDbEntity
  8
0
100
AcDbBlockEnd
  0
BLOCK
  5
92
330
91
100
AcDbEntity
  8
0
100
AcDbBlockBegin
  2
BLOCK89
 70
     0
 10
0.0
 20
0.0
 30
0.0
  3
BLOCK89
  1

  0
TEXT
  5
132
330
91
100
AcDbEntity
  8
0
 62
     7
370
    18
100
AcDbText
 10
6.923776
 20
182.350006
 30
0.0
 40
3.5
  1
4
 50
90.0
 41
0.933334
 72
     5
 11
6.923776
 21
185.150009
 31
0.0
100
AcDbText
  0
ENDBLK
  5
93
330
91
100
AcDbEntity
  8
0
100
AcDbBlockEnd
  0
BLOCK
  5
95
330
94
100
AcDbEntity
  8
0
100
AcDbBlockBegin
  2
BLOCK90
 70
     0
 10
0.0
 20
0.0
 30
0.0
  3
BLOCK90
  1

  0
TEXT
  5
133
330
94
100
AcDbEntity
  8
0
 62
     7
370
    18
100
AcDbText
 10
291.126221
 20
24.326223
 30
0.0
 40
3.5
  1
1
 41
0.953214
 72
     5
 11
292.873779
 21
24.326223
 31
0.0
100
AcDbText
  0
ENDBLK
  5
96
330
94
100
AcDbEntity
  8
0
100
AcDbBlockEnd
  0
BLOCK
  5
98
330
97
100
AcDbEntity
  8
0
100
AcDbBlockBegin
  2
BLOCK91
 70
     0
 10
0.0
 20
0.0
 30
0.0
  3
BLOCK91
  1

  0
TEXT
  5
134
330
97
100
AcDbEntity
  8
0
 62
     7
370
    18
100
AcDbText
 10
6.923776
 20
25.376225
 30
0.0
 40
3.5
  1
1
 50
90.0
 41
0.953211
 72
     5
 11
6.923776
 21
27.123777
 31
0.0
100
AcDbText
  0
ENDBLK
  5
99
330
97
100
AcDbEntity
  8
0
100
AcDbBlockEnd
  0
BLOCK
  5
9B
330
9A
100
AcDbEntity
  8
0
100
AcDbBlockBegin
  2
BLOCK92
 70
     0
 10
0.0
 20
0.0
 30
0.0
  3
BLOCK92
  1

  0
TEXT
  5
135
330
9A
100
AcDbEntity
  8
0
 62
     7
370
    18
100
AcDbText
 10
98.0
 20
11.175525
 30
0.0
 40
1.5
  1
This drawing is our property; it can't be reproduced or communicated without our written agreement.
 41
0.779092
 72
     5
 11
192.437073
 21
11.175525
 31
0.0
100
AcDbText
  0
ENDBLK
  5
9C
330
9A
100
AcDbEntity
  8
0
100
AcDbBlockEnd
  0
BLOCK
  5
9E
330
9D
100
AcDbEntity
  8
0
100
AcDbBlockBegin
  2
BLOCK93
 70
     0
 10
0.0
 20
0.0
 30
0.0
  3
BLOCK93
  1

  0
TEXT
  5
136
330
9D
100
AcDbEntity
  8
0
 62
     7
370
    18
100
AcDbText
 10
98.0
 20
24.751049
 30
0.0
 40
1.5
  1
SCALE
 41
0.857432
 72
     5
 11
103.695801
 21
24.751049
 31
0.0
100
AcDbText
  0
ENDBLK
  5
9F
330
9D
100
AcDbEntity
  8
0
100
AcDbBlockEnd
  0
BLOCK
  5
A1
330
A0
100
AcDbEntity
  8
0
100
AcDbBlockBegin
  2
BLOCK94
 70
     0
 10
0.0
 20
0.0
 30
0.0
  3
BLOCK94
  1

  0
TEXT
  5
137
330
A0
100
AcDbEntity
  8
0
 62
     7
370
    18
100
AcDbText
 10
94.755241
 20
16.0
 30
0.0
 40
5.0
  1
   2:1
 41
0.665923
 72
     5
 11
111.244751
 21
16.0
 31
0.0
100
AcDbText
  0
ENDBLK
  5
A2
330
A0
100
AcDbEntity
  8
0
100
AcDbBlockEnd
  0
BLOCK
  5
A4
330
A3
100
AcDbEntity
  8
0
100
AcDbBlockBegin
  2
BLOCK95
 70
     0
 10
0.0
 20
0.0
 30
0.0
  3
BLOCK95
  1

  0
TEXT
  5
138
330
A3
100
AcDbEntity
  8
0
 62
     7
370
    18
100
AcDbText
 10
118.0
 20
24.751049
 30
0.0
 40
1.5
  1
WEIGHT (kg)
 41
0.802234
 72
     5
 11
128.944763
 21
24.751049
 31
0.0
100
AcDbText
  0
ENDBLK
  5
A5
330
A3
100
AcDbEntity
  8
0
100
AcDbBlockEnd
  0
BLOCK
  5
A7
330
A6
100
AcDbEntity
  8
0
100
AcDbBlockBegin
  2
BLOCK96
 70
     0
 10
0.0
 20
0.0
 30
0.0
  3
BLOCK96
  1

  0
TEXT
  5
139
330
A6
100
AcDbEntity
  8
0
 62
     7
370
    18
100
AcDbText
 10
121.632866
 20
16.0
 30
0.0
 40
5.0
  1
0,005
 41
0.759585
 72
     5
 11
137.367126
 21
16.0
 31
0.0
100
AcDbText
  0
ENDBLK
  5
A8
330
A6
100
AcDbEntity
  8
0
100
AcDbBlockEnd
  0
BLOCK
  5
AA
330
A9
100
AcDbEntity
  8
0
100
AcDbBlockBegin
  2
BLOCK97
 70
     0
 10
0.0
 20
0.0
 30
0.0
  3
BLOCK97
  1

  0
TEXT
  5
13A
330
A9
100
AcDbEntity
  8
0
 62
     7
370
    18
100
AcDbText
 10
143.0
 20
24.751049
 30
0.0
 40
1.5
  1
MATERIAL
 41
0.899371
 72
     5
 11
151.993713
 21
24.751049
 31
0.0
100
AcDbText
  0
ENDBLK
  5
AB
330
A9
100
AcDbEntity
  8
0
100
AcDbBlockEnd
  0
BLOCK
  5
AD
330
AC
100
AcDbEntity
  8
0
100
AcDbBlockBegin
  2
BLOCK98
 70
     0
 10
0.0
 20
0.0
 30
0.0
  3
BLOCK98
  1

  0
TEXT
  5
13B
330
AC
100
AcDbEntity
  8
0
 62
     7
370
    18
100
AcDbText
 10
180.405594
 20
15.6
 30
0.0
 40
4.0
  1
AÇO INOX
 41
0.822576
 72
     5
 11
203.594406
 21
15.6
 31
0.0
100
AcDbText
  0
ENDBLK
  5
AE
330
AC
100
AcDbEntity
  8
0
100
AcDbBlockEnd
  0
BLOCK
  5
B0
330
AF
100
AcDbEntity
  8
0
100
AcDbBlockBegin
  2
BLOCK99
 70
     0
 10
0.0
 20
0.0
 30
0.0
  3
BLOCK99
  1

  0
TEXT
  5
13C
330
AF
100
AcDbEntity
  8
0
 62
     7
370
    18
100
AcDbText
 10
243.0
 20
24.751049
 30
0.0
 40
1.5
  1
SHEET
 41
0.839691
 72
     5
 11
248.697906
 21
24.751049
 31
0.0
100
AcDbText
  0
ENDBLK
  5
B1
330
AF
100
AcDbEntity
  8
0
100
AcDbBlockEnd
  0
BLOCK
  5
B3
330
B2
100
AcDbEntity
  8
0
100
AcDbBlockBegin
  2
BLOCK100
 70
     0
 10
0.0
 20
0.0
 30
0.0
  3
BLOCK100
  1

  0
TEXT
  5
13D
330
B2
100
AcDbEntity
  8
0
 62
     7
370
    18
100
AcDbText
 10
247.755249
 20
16.0
 30
0.0
 40
5.0
  1
1/1
 41
0.672753
 72
     5
 11
256.244751
 21
16.0
 31
0.0
100
AcDbText
  0
ENDBLK
  5
B4
330
B2
100
AcDbEntity
  8
0
100
AcDbBlockEnd
  0
BLOCK
  5
B6
330
B5
100
AcDbEntity
  8
0
100
AcDbBlockBegin
  2
BLOCK101
 70
     0
 10
0.0
 20
0.0
 30
0.0
  3
BLOCK101
  1

  0
TEXT
  5
13E
330
B5
100
AcDbEntity
  8
0
 62
     7
370
    18
100
AcDbText
 10
98.0
 20
37.751049
 30
0.0
 40
1.5
  1
SIZE
 41
0.839548
 72
     5
 11
101.897903
 21
37.751049
 31
0.0
100
AcDbText
  0
ENDBLK
  5
B7
330
B5
100
AcDbEntity
  8
0
100
AcDbBlockEnd
  0
BLOCK
  5
B9
330
B8
100
AcDbEntity
  8
0
100
AcDbBlockBegin
  2
BLOCK102
 70
     0
 10
0.0
 20
0.0
 30
0.0
  3
BLOCK102
  1

  0
TEXT
  5
13F
330
B8
100
AcDbEntity
  8
0
 62
     7
370
    18
100
AcDbText
 10
102.751747
 20
31.0
 30
0.0
 40
5.0
  1
A4
 41
0.991259
 72
     5
 11
111.248253
 21
31.0
 31
0.0
100
AcDbText
  0
ENDBLK
  5
BA
330
B8
100
AcDbEntity
  8
0
100
AcDbBlockEnd
  0
BLOCK
  5
BC
330
BB
100
AcDbEntity
  8
0
100
AcDbBlockBegin
  2
BLOCK103
 70
     0
 10
0.0
 20
0.0
 30
0.0
  3
BLOCK103
  1

  0
TEXT
  5
140
330
BB
100
AcDbEntity
  8
0
 62
     7
370
    18
100
AcDbText
 10
175.510498
 20
30.751749
 30
0.0
 40
5.0
  1
OXYGEN BGRASIL
 41
0.830268
 72
     5
 11
228.489517
 21
30.751749
 31
0.0
100
AcDbText
  0
ENDBLK
  5
BD
330
BB
100
AcDbEntity
  8
0
100
AcDbBlockEnd
  0
BLOCK
  5
BF
330
BE
100
AcDbEntity
  8
0
100
AcDbBlockBegin
  2
BLOCK104
 70
     0
 10
0.0
 20
0.0
 30
0.0
  3
BLOCK104
  1

  0
TEXT
  5
141
330
BE
100
AcDbEntity
  8
0
 62
     7
370
    18
100
AcDbText
 10
98.0
 20
52.751049
 30
0.0
 40
1.5
  1
CHECKED BY:
 41
0.77958
 72
     5
 11
109.693703
 21
52.751049
 31
0.0
100
AcDbText
  0
ENDBLK
  5
C0
330
BE
100
AcDbEntity
  8
0
100
AcDbBlockEnd
  0
BLOCK
  5
C2
330
C1
100
AcDbEntity
  8
0
100
AcDbBlockBegin
  2
BLOCK105
 70
     0
 10
0.0
 20
0.0
 30
0.0
  3
BLOCK105
  1

  0
TEXT
  5
142
330
C1
100
AcDbEntity
  8
0
 62
     7
370
    18
100
AcDbText
 10
115.453148
 20
48.700001
 30
0.0
 40
3.0
  1
XXX
 41
0.993964
 72
     5
 11
123.546852
 21
48.700001
 31
0.0
100
AcDbText
  0
ENDBLK
  5
C3
330
C1
100
AcDbEntity
  8
0
100
AcDbBlockEnd
  0
BLOCK
  5
C5
330
C4
100
AcDbEntity
  8
0
100
AcDbBlockBegin
  2
BLOCK106
 70
     0
 10
0.0
 20
0.0
 30
0.0
  3
BLOCK106
  1

  0
TEXT
  5
143
330
C4
100
AcDbEntity
  8
0
 62
     7
370
    18
100
AcDbText
 10
98.0
 20
45.251049
 30
0.0
 40
1.5
  1
DATE:
 41
0.9182
 72
     5
 11
103.246857
 21
45.251049
 31
0.0
100
AcDbText
  0
ENDBLK
  5
C6
330
C4
100
AcDbEntity
  8
0
100
AcDbBlockEnd
  0
BLOCK
  5
C8
330
C7
100
AcDbEntity
  8
0
100
AcDbBlockBegin
  2
BLOCK107
 70
     0
 10
0.0
 20
0.0
 30
0.0
  3
BLOCK107
  1

  0
TEXT
  5
144
330
C7
100
AcDbEntity
  8
0
 62
     7
370
    18
100
AcDbText
 10
115.453148
 20
41.200001
 30
0.0
 40
3.0
  1
XXX
 41
0.993964
 72
     5
 11
123.546852
 21
41.200001
 31
0.0
100
AcDbText
  0
ENDBLK
  5
C9
330
C7
100
AcDbEntity
  8
0
100
AcDbBlockEnd
  0
BLOCK
  5
CB
330
CA
100
AcDbEntity
  8
0
100
AcDbBlockBegin
  2
BLOCK108
 70
     0
 10
0.0
 20
0.0
 30
0.0
  3
BLOCK108
  1

  0
TEXT
  5
145
330
CA
100
AcDbEntity
  8
0
 62
     7
370
    18
100
AcDbText
 10
98.0
 20
67.751053
 30
0.0
 40
1.5
  1
DESIGNED BY:
 41
0.802887
 72
     5
 11
110.444756
 21
67.751053
 31
0.0
100
AcDbText
  0
ENDBLK
  5
CC
330
CA
100
AcDbEntity
  8
0
100
AcDbBlockEnd
  0
BLOCK
  5
CE
330
CD
100
AcDbEntity
  8
0
100
AcDbBlockBegin
  2
BLOCK109
 70
     0
 10
0.0
 20
0.0
 30
0.0
  3
BLOCK109
  1

  0
TEXT
  5
146
330
CD
100
AcDbEntity
  8
0
 62
     7
370
    18
100
AcDbText
 10
101.80629
 20
63.700001
 30
0.0
 40
3.0
  1
VOLUNT. ANONIMOS
 41
0.817531
 72
     5
 11
137.193695
 21
63.700001
 31
0.0
100
AcDbText
  0
ENDBLK
  5
CF
330
CD
100
AcDbEntity
  8
0
100
AcDbBlockEnd
  0
BLOCK
  5
D1
330
D0
100
AcDbEntity
  8
0
100
AcDbBlockBegin
  2
BLOCK110
 70
     0
 10
0.0
 20
0.0
 30
0.0
  3
BLOCK110
  1

  0
TEXT
  5
147
330
D0
100
AcDbEntity
  8
0
 62
     7
370
    18
100
AcDbText
 10
98.0
 20
60.251049
 30
0.0
 40
1.5
  1
DATE:
 41
0.9182
 72
     5
 11
103.246857
 21
60.251049
 31
0.0
100
AcDbText
  0
ENDBLK
  5
D2
330
D0
100
AcDbEntity
  8
0
100
AcDbBlockEnd
  0
BLOCK
  5
D4
330
D3
100
AcDbEntity
  8
0
100
AcDbBlockBegin
  2
BLOCK111
 70
     0
 10
0.0
 20
0.0
 30
0.0
  3
BLOCK111
  1

  0
TEXT
  5
148
330
D3
100
AcDbEntity
  8
0
 62
     7
370
    18
100
AcDbText
 10
108.859436
 20
56.200001
 30
0.0
 40
3.0
  1
09/04/2020
 41
0.741134
 72
     5
 11
130.140564
 21
56.200001
 31
0.0
100
AcDbText
  0
ENDBLK
  5
D5
330
D3
100
AcDbEntity
  8
0
100
AcDbBlockEnd
  0
BLOCK
  5
D7
330
D6
100
AcDbEntity
  8
0
100
AcDbBlockBegin
  2
BLOCK112
 70
     0
 10
0.0
 20
0.0
 30
0.0
  3
BLOCK112
  1

  0
TEXT
  5
149
330
D6
100
AcDbEntity
  8
0
 62
     7
370
    18
100
AcDbText
 10
195.704895
 20
51.152447
 30
0.0
 40
7.0
  1
Pin
 41
0.858423
 72
     5
 11
208.295105
 21
51.152447
 31
0.0
100
AcDbText
  0
ENDBLK
  5
D8
330
D6
100
AcDbEntity
  8
0
100
AcDbBlockEnd
  0
BLOCK
  5
DA
330
D9
100
AcDbEntity
  8
0
100
AcDbBlockBegin
  2
BLOCK113
 70
     0
 10
0.0
 20
0.0
 30
0.0
  3
BLOCK113
  1

  0
TEXT
  5
14A
330
D9
100
AcDbEntity
  8
0
 62
     7
370
    18
100
AcDbText
 10
263.375885
 20
11.959208
 30
0.0
 40
2.5
  1
A
 41
1.110905
 72
     5
 11
265.624146
 21
11.959208
 31
0.0
100
AcDbText
  0
ENDBLK
  5
DB
330
D9
100
AcDbEntity
  8
0
100
AcDbBlockEnd
  0
BLOCK
  5
DD
330
DC
100
AcDbEntity
  8
0
100
AcDbBlockBegin
  2
BLOCK114
 70
     0
 10
0.0
 20
0.0
 30
0.0
  3
BLOCK114
  1

  0
TEXT
  5
14B
330
DC
100
AcDbEntity
  8
0
 62
     7
370
    18
100
AcDbText
 10
276.100708
 20
12.234033
 30
0.0
 40
2.0
  1
_
 41
1.180341
 72
     5
 11
277.899323
 21
12.234033
 31
0.0
100
AcDbText
  0
ENDBLK
  5
DE
330
DC
100
AcDbEntity
  8
0
100
AcDbBlockEnd
  0
BLOCK
  5
E0
330
DF
100
AcDbEntity
  8
0
100
AcDbBlockBegin
  2
BLOCK115
 70
     0
 10
0.0
 20
0.0
 30
0.0
  3
BLOCK115
  1

  0
TEXT
  5
14C
330
DF
100
AcDbEntity
  8
0
 62
     7
370
    18
100
AcDbText
 10
263.5
 20
18.625874
 30
0.0
 40
2.5
  1
B
 41
0.933333
 72
     5
 11
265.5
 21
18.625874
 31
0.0
100
AcDbText
  0
ENDBLK
  5
E1
330
DF
100
AcDbEntity
  8
0
100
AcDbBlockEnd
  0
BLOCK
  5
E3
330
E2
100
AcDbEntity
  8
0
100
AcDbBlockBegin
  2
BLOCK116
 70
     0
 10
0.0
 20
0.0
 30
0.0
  3
BLOCK116
  1

  0
TEXT
  5
14D
330
E2
100
AcDbEntity
  8
0
 62
     7
370
    18
100
AcDbText
 10
276.100708
 20
18.9007
 30
0.0
 40
2.0
  1
_
 41
1.180341
 72
     5
 11
277.899323
 21
18.9007
 31
0.0
100
AcDbText
  0
ENDBLK
  5
E4
330
E2
100
AcDbEntity
  8
0
100
AcDbBlockEnd
  0
BLOCK
  5
E6
330
E5
100
AcDbEntity
  8
0
100
AcDbBlockBegin
  2
BLOCK117
 70
     0
 10
0.0
 20
0.0
 30
0.0
  3
BLOCK117
  1

  0
TEXT
  5
14E
330
E5
100
AcDbEntity
  8
0
 62
     7
370
    18
100
AcDbText
 10
263.625885
 20
25.29254
 30
0.0
 40
2.5
  1
C
 41
0.815855
 72
     5
 11
265.374146
 21
25.29254
 31
0.0
100
AcDbText
  0
ENDBLK
  5
E7
330
E5
100
AcDbEntity
  8
0
100
AcDbBlockEnd
  0
BLOCK
  5
E9
330
E8
100
AcDbEntity
  8
0
100
AcDbBlockBegin
  2
BLOCK118
 70
     0
 10
0.0
 20
0.0
 30
0.0
  3
BLOCK118
  1

  0
TEXT
  5
14F
330
E8
100
AcDbEntity
  8
0
 62
     7
370
    18
100
AcDbText
 10
276.100708
 20
25.567366
 30
0.0
 40
2.0
  1
_
 41
1.180341
 72
     5
 11
277.899323
 21
25.567366
 31
0.0
100
AcDbText
  0
ENDBLK
  5
EA
330
E8
100
AcDbEntity
  8
0
100
AcDbBlockEnd
  0
BLOCK
  5
EC
330
EB
100
AcDbEntity
  8
0
100
AcDbBlockBegin
  2
BLOCK119
 70
     0
 10
0.0
 20
0.0
 30
0.0
  3
BLOCK119
  1

  0
TEXT
  5
150
330
EB
100
AcDbEntity
  8
0
 62
     7
370
    18
100
AcDbText
 10
263.5
 20
31.959206
 30
0.0
 40
2.5
  1
D
 41
0.933333
 72
     5
 11
265.5
 21
31.959206
 31
0.0
100
AcDbText
  0
ENDBLK
  5
ED
330
EB
100
AcDbEntity
  8
0
100
AcDbBlockEnd
  0
BLOCK
  5
EF
330
EE
100
AcDbEntity
  8
0
100
AcDbBlockBegin
  2
BLOCK120
 70
     0
 10
0.0
 20
0.0
 30
0.0
  3
BLOCK120
  1

  0
TEXT
  5
151
330
EE
100
AcDbEntity
  8
0
 62
     7
370
    18
100
AcDbText
 10
276.100708
 20
32.234032
 30
0.0
 40
2.0
  1
_
 41
1.180341
 72
     5
 11
277.899323
 21
32.234032
 31
0.0
100
AcDbText
  0
ENDBLK
  5
F0
330
EE
100
AcDbEntity
  8
0
100
AcDbBlockEnd
  0
BLOCK
  5
F2
330
F1
100
AcDbEntity
  8
0
100
AcDbBlockBegin
  2
BLOCK121
 70
     0
 10
0.0
 20
0.0
 30
0.0
  3
BLOCK121
  1

  0
TEXT
  5
152
330
F1
100
AcDbEntity
  8
0
 62
     7
370
    18
100
AcDbText
 10
263.625885
 20
38.625874
 30
0.0
 40
2.5
  1
E
 41
0.863846
 72
     5
 11
265.374146
 21
38.625874
 31
0.0
100
AcDbText
  0
ENDBLK
  5
F3
330
F1
100
AcDbEntity
  8
0
100
AcDbBlockEnd
  0
BLOCK
  5
F5
330
F4
100
AcDbEntity
  8
0
100
AcDbBlockBegin
  2
BLOCK122
 70
     0
 10
0.0
 20
0.0
 30
0.0
  3
BLOCK122
  1

  0
TEXT
  5
153
330
F4
100
AcDbEntity
  8
0
 62
     7
370
    18
100
AcDbText
 10
276.100708
 20
38.9007
 30
0.0
 40
2.0
  1
_
 41
1.180341
 72
     5
 11
277.899323
 21
38.9007
 31
0.0
100
AcDbText
  0
ENDBLK
  5
F6
330
F4
100
AcDbEntity
  8
0
100
AcDbBlockEnd
  0
BLOCK
  5
F8
330
F7
100
AcDbEntity
  8
0
100
AcDbBlockBegin
  2
BLOCK123
 70
     0
 10
0.0
 20
0.0
 30
0.0
  3
BLOCK123
  1

  0
TEXT
  5
154
330
F7
100
AcDbEntity
  8
0
 62
     7
370
    18
100
AcDbText
 10
263.625885
 20
45.292542
 30
0.0
 40
2.5
  1
F
 41
0.863846
 72
     5
 11
265.374146
 21
45.292542
 31
0.0
100
AcDbText
  0
ENDBLK
  5
F9
330
F7
100
AcDbEntity
  8
0
100
AcDbBlockEnd
  0
BLOCK
  5
FB
330
FA
100
AcDbEntity
  8
0
100
AcDbBlockBegin
  2
BLOCK124
 70
     0
 10
0.0
 20
0.0
 30
0.0
  3
BLOCK124
  1

  0
TEXT
  5
155
330
FA
100
AcDbEntity
  8
0
 62
     7
370
    18
100
AcDbText
 10
276.100708
 20
45.567368
 30
0.0
 40
2.0
  1
_
 41
1.180341
 72
     5
 11
277.899323
 21
45.567368
 31
0.0
100
AcDbText
  0
ENDBLK
  5
FC
330
FA
100
AcDbEntity
  8
0
100
AcDbBlockEnd
  0
BLOCK
  5
FE
330
FD
100
AcDbEntity
  8
0
100
AcDbBlockBegin
  2
BLOCK125
 70
     0
 10
0.0
 20
0.0
 30
0.0
  3
BLOCK125
  1

  0
TEXT
  5
156
330
FD
100
AcDbEntity
  8
0
 62
     7
370
    18
100
AcDbText
 10
263.5
 20
51.959206
 30
0.0
 40
2.5
  1
G
 41
0.933333
 72
     5
 11
265.5
 21
51.959206
 31
0.0
100
AcDbText
  0
ENDBLK
  5
FF
330
FD
100
AcDbEntity
  8
0
100
AcDbBlockEnd
  0
BLOCK
  5
101
330
100
100
AcDbEntity
  8
0
100
AcDbBlockBegin
  2
BLOCK126
 70
     0
 10
0.0
 20
0.0
 30
0.0
  3
BLOCK126
  1

  0
TEXT
  5
157
330
100
100
AcDbEntity
  8
0
 62
     7
370
    18
100
AcDbText
 10
276.100708
 20
52.234032
 30
0.0
 40
2.0
  1
_
 41
1.180341
 72
     5
 11
277.899323
 21
52.234032
 31
0.0
100
AcDbText
  0
ENDBLK
  5
102
330
100
100
AcDbEntity
  8
0
100
AcDbBlockEnd
  0
BLOCK
  5
104
330
103
100
AcDbEntity
  8
0
100
AcDbBlockBegin
  2
BLOCK127
 70
     0
 10
0.0
 20
0.0
 30
0.0
  3
BLOCK127
  1

  0
TEXT
  5
158
330
103
100
AcDbEntity
  8
0
 62
     7
370
    18
100
AcDbText
 10
263.5
 20
58.625874
 30
0.0
 40
2.5
  1
H
 41
0.933333
 72
     5
 11
265.5
 21
58.625874
 31
0.0
100
AcDbText
  0
ENDBLK
  5
105
330
103
100
AcDbEntity
  8
0
100
AcDbBlockEnd
  0
BLOCK
  5
107
330
106
100
AcDbEntity
  8
0
100
AcDbBlockBegin
  2
BLOCK128
 70
     0
 10
0.0
 20
0.0
 30
0.0
  3
BLOCK128
  1

  0
TEXT
  5
159
330
106
100
AcDbEntity
  8
0
 62
     7
370
    18
100
AcDbText
 10
276.100708
 20
58.9007
 30
0.0
 40
2.0
  1
_
 41
1.180341
 72
     5
 11
277.899323
 21
58.9007
 31
0.0
100
AcDbText
  0
ENDBLK
  5
108
330
106
100
AcDbEntity
  8
0
100
AcDbBlockEnd
  0
BLOCK
  5
10A
330
109
100
AcDbEntity
  8
0
100
AcDbBlockBegin
  2
BLOCK129
 70
     0
 10
0.0
 20
0.0
 30
0.0
  3
BLOCK129
  1

  0
TEXT
  5
15A
330
109
100
AcDbEntity
  8
0
 62
     7
370
    18
100
AcDbText
 10
264.125885
 20
65.292542
 30
0.0
 40
2.5
  1
I
 41
1.571347
 72
     5
 11
264.874146
 21
65.292542
 31
0.0
100
AcDbText
  0
ENDBLK
  5
10B
330
109
100
AcDbEntity
  8
0
100
AcDbBlockEnd
  0
BLOCK
  5
10D
330
10C
100
AcDbEntity
  8
0
100
AcDbBlockBegin
  2
BLOCK130
 70
     0
 10
0.0
 20
0.0
 30
0.0
  3
BLOCK130
  1

  0
TEXT
  5
15B
330
10C
100
AcDbEntity
  8
0
 62
     7
370
    18
100
AcDbText
 10
276.100708
 20
65.56736
 30
0.0
 40
2.0
  1
_
 41
1.180341
 72
     5
 11
277.899323
 21
65.56736
 31
0.0
100
AcDbText
  0
ENDBLK
  5
10E
330
10C
100
AcDbEntity
  8
0
100
AcDbBlockEnd
  0
BLOCK
  5
110
330
10F
100
AcDbEntity
  8
0
100
AcDbBlockBegin
  2
*D54
 70
     1
 10
0.0
 20
0.0
 30
0.0
  3
*D54
  1

  0
SOLID
  5
15C
330
10F
100
AcDbEntity
  8
0
 62
     7
370
    18
100
AcDbTrace
 10
45.95059
 20
143.260071
 30
0.0
 11
43.052816
 21
142.483612
 31
0.0
 12
45.95059
 22
143.260071
 32
0.0
 13
45.95059
 23
141.707153
 33
0.0
  0
SOLID
  5
15D
330
10F
100
AcDbEntity
  8
0
 62
     7
370
    18
100
AcDbTrace
 10
86.155039
 20
141.707153
 30
0.0
 11
89.052816
 21
142.483612
 31
0.0
 12
86.155039
 22
141.707153
 32
0.0
 13
86.155039
 23
143.260071
 33
0.0
  0
TEXT
  5
15E
330
10F
100
AcDbEntity
  8
0
 62
     7
370
    18
100
AcDbText
 10
63.605261
 20
145.483612
 30
0.0
 40
3.5
  1
23
 41
0.793802
 72
     5
 11
68.500372
 21
145.483612
 31
0.0
100
AcDbText
  0
LINE
  5
15F
330
10F
100
AcDbEntity
  8
0
 62
     7
370
    18
100
AcDbLine
 10
43.052816
 20
160.345352
 30
0.0
 11
43.052816
 21
140.483612
 31
0.0
  0
LINE
  5
160
330
10F
100
AcDbEntity
  8
0
 62
     7
370
    18
100
AcDbLine
 10
89.052816
 20
160.345352
 30
0.0
 11
89.052816
 21
140.483612
 31
0.0
  0
LINE
  5
161
330
10F
100
AcDbEntity
  8
0
 62
     7
370
    18
100
AcDbLine
 10
45.95059
 20
142.483612
 30
0.0
 11
86.155039
 21
142.483612
 31
0.0
  0
POLYLINE
  5
162
330
10F
100
AcDbEntity
  8
0
 62
     7
370
    18
100
AcDb2dPolyline
 66
     1
 10
0.0
 20
0.0
 30
0.0
 70
     1
  0
VERTEX
  5
163
330
162
100
AcDbEntity
  8
0
370
     0
100
AcDbVertex
100
AcDb2dVertex
 10
45.95059
 20
143.260071
 30
0.0
  0
VERTEX
  5
164
330
162
100
AcDbEntity
  8
0
370
     0
100
AcDbVertex
100
AcDb2dVertex
 10
43.052816
 20
142.483612
 30
0.0
  0
VERTEX
  5
165
330
162
100
AcDbEntity
  8
0
370
     0
100
AcDbVertex
100
AcDb2dVertex
 10
45.95059
 20
141.707153
 30
0.0
  0
SEQEND
  5
166
330
162
100
AcDbEntity
  8
0
 62
     7
370
    18
  0
POLYLINE
  5
167
330
10F
100
AcDbEntity
  8
0
 62
     7
370
    18
100
AcDb2dPolyline
 66
     1
 10
0.0
 20
0.0
 30
0.0
 70
     1
  0
VERTEX
  5
168
330
167
100
AcDbEntity
  8
0
370
     0
100
AcDbVertex
100
AcDb2dVertex
 10
86.155039
 20
141.707153
 30
0.0
  0
VERTEX
  5
169
330
167
100
AcDbEntity
  8
0
370
     0
100
AcDbVertex
100
AcDb2dVertex
 10
89.052816
 20
142.483612
 30
0.0
  0
VERTEX
  5
16A
330
167
100
AcDbEntity
  8
0
370
     0
100
AcDbVertex
100
AcDb2dVertex
 10
86.155039
 20
143.260071
 30
0.0
  0
SEQEND
  5
16B
330
167
100
AcDbEntity
  8
0
 62
     7
370
    18
  0
ENDBLK
  5
111
330
10F
100
AcDbEntity
  8
0
100
AcDbBlockEnd
  0
BLOCK
  5
113
330
112
100
AcDbEntity
  8
0
100
AcDbBlockBegin
  2
*D55
 70
     1
 10
0.0
 20
0.0
 30
0.0
  3
*D55
  1

  0
SOLID
  5
16C
330
112
100
AcDbEntity
  8
0
 62
     7
370
    18
100
AcDbTrace
 10
88.844091
 20
168.969467
 30
0.0
 11
88.058359
 21
166.074188
 31
0.0
 12
88.844091
 22
168.969467
 32
0.0
 13
90.18646
 23
168.188705
 33
0.0
  0
TEXT
  5
16D
330
112
100
AcDbEntity
  8
0
 62
     7
370
    18
100
AcDbText
 10
99.508219
 20
173.630127
 30
0.0
 40
3.5
  1
1
 41
0.95321
 72
     5
 11
101.25577
 21
173.630127
 31
0.0
100
AcDbText
  0
TEXT
  5
16E
330
112
100
AcDbEntity
  8
0
 62
     7
370
    18
100
AcDbText
 10
95.70822
 20
173.630127
 30
0.0
 40
3.5
  1
R
 41
0.933334
 72
     5
 11
98.508223
 21
173.630127
 31
0.0
100
AcDbText
  0
TEXT
  5
16F
330
112
100
AcDbEntity
  8
0
 62
     7
370
    18
100
AcDbText
 10
89.813116
 20
173.630127
 30
0.0
 40
3.5
  1
2x
 41
0.863842
 72
     5
 11
94.70822
 21
173.630127
 31
0.0
100
AcDbText
  0
LINE
  5
170
330
112
100
AcDbEntity
  8
0
 62
     7
370
    18
100
AcDbLine
 10
90.70822
 20
170.630127
 30
0.0
 11
101.255774
 21
170.630127
 31
0.0
  0
LINE
  5
171
330
112
100
AcDbEntity
  8
0
 62
     7
370
    18
100
AcDbLine
 10
89.515276
 20
168.579086
 30
0.0
 11
90.70822
 21
170.630127
 31
0.0
  0
POLYLINE
  5
172
330
112
100
AcDbEntity
  8
0
 62
     7
370
    18
100
AcDb2dPolyline
 66
     1
 10
0.0
 20
0.0
 30
0.0
 70
     1
  0
VERTEX
  5
173
330
172
100
AcDbEntity
  8
0
370
     0
100
AcDbVertex
100
AcDb2dVertex
 10
88.844091
 20
168.969467
 30
0.0
  0
VERTEX
  5
174
330
172
100
AcDbEntity
  8
0
370
     0
100
AcDbVertex
100
AcDb2dVertex
 10
88.058359
 20
166.074188
 30
0.0
  0
VERTEX
  5
175
330
172
100
AcDbEntity
  8
0
370
     0
100
AcDbVertex
100
AcDb2dVertex
 10
90.18646
 20
168.188705
 30
0.0
  0
SEQEND
  5
176
330
172
100
AcDbEntity
  8
0
 62
     7
370
    18
  0
ENDBLK
  5
114
330
112
100
AcDbEntity
  8
0
100
AcDbBlockEnd
  0
BLOCK
  5
116
330
115
100
AcDbEntity
  8
0
100
AcDbBlockBegin
  2
BLOCK131
 70
     0
 10
0.0
 20
0.0
 30
0.0
  3
BLOCK131
  1

  0
LINE
  5
177
330
115
100
AcDbEntity
  8
0
 62
     7
370
    35
100
AcDbLine
 10
-47.0
 20
113.0
 30
0.0
 11
-47.0
 21
111.0
 31
0.0
  0
LINE
  5
178
330
115
100
AcDbEntity
  8
0
 62
     7
370
    35
100
AcDbLine
 10
-47.0
 20
111.0
 30
0.0
 11
-47.0
 21
109.0
 31
0.0
  0
LINE
  5
179
330
115
100
AcDbEntity
  8
0
 62
     7
370
    35
100
AcDbLine
 10
-24.0
 20
113.0
 30
0.0
 11
-24.0
 21
111.0
 31
0.0
  0
LINE
  5
17A
330
115
100
AcDbEntity
  8
0
 62
     7
370
    35
100
AcDbLine
 10
-24.0
 20
111.0
 30
0.0
 11
-24.0
 21
109.0
 31
0.0
  0
ARC
  5
17B
330
115
100
AcDbEntity
  8
0
 62
     7
370
    35
100
AcDbCircle
 10
-46.0
 20
113.0
 30
0.0
 40
1.0
100
AcDbArc
 50
90.0
 51
180.0
  0
ARC
  5
17C
330
115
100
AcDbEntity
  8
0
 62
     7
370
    35
100
AcDbCircle
 10
-46.0
 20
109.0
 30
0.0
 40
1.0
100
AcDbArc
 50
180.0
 51
270.0
  0
ARC
  5
17D
330
115
100
AcDbEntity
  8
0
 62
     7
370
    35
100
AcDbCircle
 10
-25.0
 20
109.0
 30
0.0
 40
1.0
100
AcDbArc
 50
270.0
 51
0.0
  0
ARC
  5
17E
330
115
100
AcDbEntity
  8
0
 62
     7
370
    35
100
AcDbCircle
 10
-25.0
 20
113.0
 30
0.0
 40
1.0
100
AcDbArc
 50
0.0
 51
90.0
  0
LINE
  5
17F
330
115
100
AcDbEntity
  8
0
 62
     7
370
    35
100
AcDbLine
 10
-25.0
 20
108.0
 30
0.0
 11
-46.0
 21
108.0
 31
0.0
  0
LINE
  5
180
330
115
100
AcDbEntity
  8
0
 62
     7
370
    35
100
AcDbLine
 10
-25.0
 20
114.0
 30
0.0
 11
-46.0
 21
114.0
 31
0.0
  0
ENDBLK
  5
117
330
115
100
AcDbEntity
  8
0
100
AcDbBlockEnd
  0
BLOCK
  5
119
330
118
100
AcDbEntity
  8
0
100
AcDbBlockBegin
  2
*D57
 70
     1
 10
0.0
 20
0.0
 30
0.0
  3
*D57
  1

  0
SOLID
  5
181
330
118
100
AcDbEntity
  8
0
 62
     7
370
    18
100
AcDbTrace
 10
144.156448
 20
152.73822
 30
0.0
 11
145.260269
 21
155.527756
 31
0.0
 12
144.156448
 22
152.73822
 32
0.0
 13
142.909561
 23
153.663864
 33
0.0
  0
SOLID
  5
182
330
118
100
AcDbEntity
  8
0
 62
     7
370
    18
100
AcDbTrace
 10
153.516983
 20
167.952484
 30
0.0
 11
152.413101
 21
165.162949
 31
0.0
 12
153.516983
 22
167.952484
 32
0.0
 13
154.76387
 23
167.02684
 33
0.0
  0
TEXT
  5
183
330
118
100
AcDbEntity
  8
0
 62
     7
370
    18
100
AcDbText
 10
166.415726
 20
175.485382
 30
0.0
 40
3.5
  1
6
 41
0.863827
 72
     5
 11
168.863235
 21
175.485382
 31
0.0
100
AcDbText
  0
TEXT
  5
184
330
118
100
AcDbEntity
  8
0
 62
     7
370
    18
100
AcDbText
 10
170.613235
 20
175.485382
 30
0.0
 40
3.5
  1
n6
 41
0.815857
 72
     5
 11
175.508377
 21
175.485382
 31
0.0
100
AcDbText
  0
TEXT
  5
185
330
118
100
AcDbEntity
  8
0
 62
     7
370
    18
100
AcDbText
 10
182.508377
 20
180.735382
 30
0.0
 40
3.5
  1
+0,016
 41
0.677607
 72
     5
 11
195.269974
 21
180.735382
 31
0.0
100
AcDbText
  0
TEXT
  5
186
330
118
100
AcDbEntity
  8
0
 62
     7
370
    18
100
AcDbText
 10
182.508377
 20
175.485382
 30
0.0
 40
3.5
  1
+0,008
 41
0.714772
 72
     5
 11
195.969925
 21
175.485382
 31
0.0
100
AcDbText
  0
TEXT
  5
187
330
118
100
AcDbEntity
  8
0
 62
     7
370
    18
100
AcDbText
 10
173.758377
 20
175.485382
 30
0.0
 40
8.75
  1
(
 41
1.909091
 72
     5
 11
182.508377
 21
175.485382
 31
0.0
100
AcDbText
  0
TEXT
  5
188
330
118
100
AcDbEntity
  8
0
 62
     7
370
    18
100
AcDbText
 10
195.969925
 20
175.485382
 30
0.0
 40
8.75
  1
)
 41
2.1
 72
     5
 11
204.719925
 21
175.485382
 31
0.0
100
AcDbText
  0
TEXT
  5
189
330
118
100
AcDbEntity
  8
0
 62
     7
370
    18
100
AcDbText
 10
162.849075
 20
175.485382
 30
0.0
 40
3.5
  1
%%c
 41
0.905877
 72
     5
 11
165.415726
 21
175.485382
 31
0.0
100
AcDbText
  0
LINE
  5
18A
330
118
100
AcDbEntity
  8
0
 62
     7
370
    18
100
AcDbLine
 10
157.849075
 20
172.485382
 30
0.0
 11
204.719925
 21
172.485382
 31
0.0
  0
LINE
  5
18B
330
118
100
AcDbEntity
  8
0
 62
     7
370
    18
100
AcDbLine
 10
142.279922
 20
151.513092
 30
0.0
 11
143.532974
 21
153.20105
 31
0.0
  0
LINE
  5
18C
330
118
100
AcDbEntity
  8
0
 62
     7
370
    18
100
AcDbLine
 10
145.260269
 20
155.527756
 30
0.0
 11
152.413101
 21
165.162933
 31
0.0
  0
LINE
  5
18D
330
118
100
AcDbEntity
  8
0
 62
     7
370
    18
100
AcDbLine
 10
154.140396
 20
167.48967
 30
0.0
 11
157.849075
 21
172.485382
 31
0.0
  0
POLYLINE
  5
18E
330
118
100
AcDbEntity
  8
0
 62
     7
370
    18
100
AcDb2dPolyline
 66
     1
 10
0.0
 20
0.0
 30
0.0
 70
     1
  0
VERTEX
  5
18F
330
18E
100
AcDbEntity
  8
0
370
     0
100
AcDbVertex
100
AcDb2dVertex
 10
144.156448
 20
152.73822
 30
0.0
  0
VERTEX
  5
190
330
18E
100
AcDbEntity
  8
0
370
     0
100
AcDbVertex
100
AcDb2dVertex
 10
145.260269
 20
155.527756
 30
0.0
  0
VERTEX
  5
191
330
18E
100
AcDbEntity
  8
0
370
     0
100
AcDbVertex
100
AcDb2dVertex
 10
142.909561
 20
153.663864
 30
0.0
  0
SEQEND
  5
192
330
18E
100
AcDbEntity
  8
0
 62
     7
370
    18
  0
POLYLINE
  5
193
330
118
100
AcDbEntity
  8
0
 62
     7
370
    18
100
AcDb2dPolyline
 66
     1
 10
0.0
 20
0.0
 30
0.0
 70
     1
  0
VERTEX
  5
194
330
193
100
AcDbEntity
  8
0
370
     0
100
AcDbVertex
100
AcDb2dVertex
 10
153.516983
 20
167.952484
 30
0.0
  0
VERTEX
  5
195
330
193
100
AcDbEntity
  8
0
370
     0
100
AcDbVertex
100
AcDb2dVertex
 10
152.413101
 20
165.162949
 30
0.0
  0
VERTEX
  5
196
330
193
100
AcDbEntity
  8
0
370
     0
100
AcDbVertex
100
AcDb2dVertex
 10
154.76387
 20
167.02684
 30
0.0
  0
SEQEND
  5
197
330
193
100
AcDbEntity
  8
0
 62
     7
370
    18
  0
ENDBLK
  5
11A
330
118
100
AcDbEntity
  8
0
100
AcDbBlockEnd
  0
BLOCK
  5
11C
330
11B
100
AcDbEntity
  8
0
100
AcDbBlockBegin
  2
BLOCK132
 70
     0
 10
0.0
 20
0.0
 30
0.0
  3
BLOCK132
  1

  0
LINE
  5
198
330
11B
100
AcDbEntity
  8
0
  6
DASHDOT
 62
     7
 48
0.195
370
    18
100
AcDbLine
 10
-275.688446
 20
111.0
 30
0.0
 11
-283.488464
 21
111.0
 31
0.0
  0
LINE
  5
199
330
11B
100
AcDbEntity
  8
0
  6
DASHDOT
 62
     7
 48
0.195
370
    18
100
AcDbLine
 10
-279.58847
 20
114.900002
 30
0.0
 11
-279.58847
 21
107.099998
 31
0.0
  0
ENDBLK
  5
11D
330
11B
100
AcDbEntity
  8
0
100
AcDbBlockEnd
  0
BLOCK
  5
11F
330
11E
100
AcDbEntity
  8
0
100
AcDbBlockBegin
  2
BLOCK133
 70
     0
 10
0.0
 20
0.0
 30
0.0
  3
BLOCK133
  1

  0
CIRCLE
  5
19A
330
11E
100
AcDbEntity
  8
0
 62
     7
370
    35
100
AcDbCircle
 10
-279.588457
 20
111.0
 30
0.0
 40
3.0
  0
ENDBLK
  5
120
330
11E
100
AcDbEntity
  8
0
100
AcDbBlockEnd
  0
BLOCK
  5
122
330
121
100
AcDbEntity
  8
0
100
AcDbBlockBegin
  2
BLOCK134
 70
     0
 10
0.0
 20
0.0
 30
0.0
  3
BLOCK134
  1

  0
TEXT
  5
19B
330
121
100
AcDbEntity
  8
0
 62
     7
370
    18
100
AcDbText
 10
-60.0
 20
270.700012
 30
0.0
 40
1.75
  1
Isometric view
 41
0.802014
 72
     5
 11
-44.962238
 21
270.700012
 31
0.0
100
AcDbText
  0
ENDBLK
  5
123
330
121
100
AcDbEntity
  8
0
100
AcDbBlockEnd
  0
BLOCK
  5
125
330
124
100
AcDbEntity
  8
0
100
AcDbBlockBegin
  2
BLOCK135
 70
     0
 10
0.0
 20
0.0
 30
0.0
  3
BLOCK135
  1

  0
ELLIPSE
  5
19C
330
124
100
AcDbEntity
  8
0
 62
     7
370
    18
100
AcDbEllipse
 10
-45.961941
 20
292.377991
 30
0.0
 11
1.5
 21
-2.598076105117798
 31
0.0
210
0.0
220
0.0
230
1.0
 40
0.57735
 41
0.0
 42
3.141592653588834
  0
ELLIPSE
  5
19D
330
124
100
AcDbEntity
  8
0
 62
     7
370
    18
100
AcDbEllipse
 10
-61.518291
 20
283.396545
 30
0.0
 11
0.9999999999999999
 21
-1.732050776481628
 31
0.0
210
0.0
220
0.0
230
1.0
 40
0.57735
 41
2.356194490192351
 42
8.639379797371937
  0
ELLIPSE
  5
19E
330
124
100
AcDbEntity
  8
0
 62
     7
370
    18
100
AcDbEllipse
 10
-60.811184
 20
283.804779
 30
0.0
 11
1.5
 21
-2.598076105117798
 31
0.0
210
0.0
220
0.0
230
1.0
 40
0.57735
 41
0.0
 42
3.141592653589733
  0
SPLINE
  5
19F
330
124
100
AcDbEntity
  8
0
 62
     7
370
    35
100
AcDbSpline
210
0.0
220
0.0
230
1.0
 70
     8
 71
     3
 72
    36
 73
    32
 74
     0
 42
0.000000001
 43
0.0
 40
0.0
 40
0.0
 40
0.0
 40
0.0
 40
0.0792115414058215
 40
0.1581907829049079
 40
0.2369534747564009
 40
0.3155161050814572
 40
0.3424315061665251
 40
0.4295677070282946
 40
0.5165084703877545
 40
0.6032866919560242
 40
0.6898984247283396
 40
0.7945869449344807
 40
0.8578652571753165
 40
0.9210979354114057
 40
0.9842861101768505
 40
1.047427854897267
 40
1.110259340338245
 40
1.173055653033655
 40
1.234562391577791
 40
1.296047508088999
 40
1.357510844828986
 40
1.418946669603426
 40
1.502256713307835
 40
1.578291224809337
 40
1.654304715137489
 40
1.730298891795338
 40
1.806277510476494
 40
1.879582373236138
 40
1.952878415760778
 40
2.026175914476498
 40
2.099454458467868
 40
2.099454458467868
 40
2.099454458467868
 40
2.099454458467868
 10
-45.46194077712374
 20
294.877019594645
 30
0.0
 10
-45.48480867975822
 20
294.8902223843869
 30
0.0
 10
-45.53083674347999
 20
294.9159609972028
 30
0.0
 10
-45.60084746504934
 20
294.9525514836375
 30
0.0
 10
-45.67169808180059
 20
294.9869945150249
 30
0.0
 10
-45.72772030449027
 20
295.0121832770194
 30
0.0
 10
-45.78681172240899
 20
295.0372930896167
 30
0.0
 10
-45.84906531351379
 20
295.0620973235592
 30
0.0
 10
-45.93095882409433
 20
295.0913763541784
 30
0.0
 10
-46.01371409121104
 20
295.117557260842
 30
0.0
 10
-46.10311218017893
 20
295.1421318868495
 30
0.0
 10
-46.18587261355957
 20
295.1610560122382
 30
0.0
 10
-46.26163170606387
 20
295.1752471269465
 30
0.0
 10
-46.32412004101829
 20
295.1849904657823
 30
0.0
 10
-46.38683611713878
 20
295.1927790310514
 30
0.0
 10
-46.44963503651896
 20
295.1985618867031
 30
0.0
 10
-46.51245759705897
 20
295.2023090127765
 30
0.0
 10
-46.57482471053459
 20
295.2039825017662
 30
0.0
 10
-46.63676407153543
 20
295.2036024666474
 30
0.0
 10
-46.69821309384513
 20
295.2011883479147
 30
0.0
 10
-46.75952331929012
 20
295.196712314382
 30
0.0
 10
-46.82787946960642
 20
295.1893747530096
 30
0.0
 10
-46.90070187831494
 20
295.178550556809
 30
0.0
 10
-46.97772200460146
 20
295.1635003487979
 30
0.0
 10
-47.05163818396467
 20
295.1456589507094
 30
0.0
 10
-47.12467342810123
 20
295.1245647951057
 30
0.0
 10
-47.19583774410656
 20
295.1005160353276
 30
0.0
 10
-47.26502847562966
 20
295.0736693368285
 30
0.0
 10
-47.33216230133243
 20
295.0441862206976
 30
0.0
 10
-47.39793264268538
 20
295.0117915415541
 30
0.0
 10
-47.44078362646875
 20
294.9882923269867
 30
0.0
 10
-47.46194077712413
 20
294.9760772403604
 30
0.0
  0
SPLINE
  5
1A0
330
124
100
AcDbEntity
  8
0
 62
     7
370
    35
100
AcDbSpline
210
0.0
220
0.0
230
1.0
 70
     8
 71
     3
 72
    81
 73
    77
 74
     0
 42
0.000000001
 43
0.0
 40
0.0
 40
0.0
 40
0.0
 40
0.0
 40
0.0848844560543268
 40
0.1700650273109303
 40
0.2555540461668294
 40
0.3413537783434022
 40
0.4230052466282334
 40
0.4880581216535037
 40
0.5532932083563502
 40
0.6187152047167578
 40
0.6843335178227815
 40
0.7703101769604048
 40
0.856603695971694
 40
0.9431928123759139
 40
1.030067065599169
 40
1.116876631299512
 40
1.203937346532286
 40
1.291227826395095
 40
1.378724651663081
 40
1.466233244947757
 40
1.55390079250924
 40
1.641704960994015
 40
1.729617913711043
 40
1.817547508308192
 40
1.905530984730347
 40
1.993542557173746
 40
2.081555006218369
 40
2.169561173835496
 40
2.257511813220009
 40
2.34537893676385
 40
2.433138540470728
 40
2.520877954622033
 40
2.608457952040865
 40
2.695852073277677
 40
2.78303898755102
 40
2.870240349162896
 40
2.957193101445053
 40
3.043879046296468
 40
3.130276073524618
 40
3.216817856741014
 40
3.303045427099458
 40
3.388958151572916
 40
3.474542988952947
 40
3.563857455584827
 40
3.627268576647386
 40
3.690516408768768
 40
3.753589593983752
 40
3.81650359435174
 40
3.902287839454285
 40
3.987783350147145
 40
4.072993898156155
 40
4.15792349995612
 40
4.230304052345038
 40
4.302512972880518
 40
4.402554034994668
 40
4.502348381996039
 40
4.572324444863668
 40
4.642207475498192
 40
4.712001629448856
 40
4.781718779445351
 40
4.854270508314882
 40
4.930821448980729
 40
5.007320589293418
 40
5.083765618752441
 40
5.160164604923275
 40
5.218461969045133
 40
5.286215344320372
 40
5.353951203485014
 40
5.421663171928743
 40
5.489354278244374
 40
5.597362639371665
 40
5.695371129018632
 40
5.793356551994603
 40
5.890664263678241
 40
5.987952487913813
 40
6.08651234609166
 40
6.08651234609166
 40
6.08651234609166
 40
6.08651234609166
 10
-45.46194077712374
 20
294.877019594645
 30
0.0
 10
-45.43743502956772
 20
294.8628711946969
 30
0.0
 10
-45.3887580638542
 20
294.8338047625059
 30
0.0
 10
-45.31688492524231
 20
294.7880588548971
 30
0.0
 10
-45.24605450394618
 20
294.7401699973076
 30
0.0
 10
-45.17749599601171
 20
294.6910766095787
 30
0.0
 10
-45.11564984698558
 20
294.6443567382453
 30
0.0
 10
-45.06021537912792
 20
294.6005558067642
 30
0.0
 10
-45.00979889852844
 20
294.559149274711
 30
0.0
 10
-44.96001566985717
 20
294.5166926510793
 30
0.0
 10
-44.90583645788568
 20
294.4687543267598
 30
0.0
 10
-44.84754302489794
 20
294.4149869353146
 30
0.0
 10
-44.78546896649931
 20
294.3550417805752
 30
0.0
 10
-44.72454752529498
 20
294.2935040463214
 30
0.0
 10
-44.66488094588068
 20
294.2305120686307
 30
0.0
 10
-44.60648730106393
 20
294.1661262748694
 30
0.0
 10
-44.54938663836055
 20
294.100407403248
 30
0.0
 10
-44.49353164330661
 20
294.0333284253603
 30
0.0
 10
-44.43898612601566
 20
293.9649894305885
 30
0.0
 10
-44.38577532496449
 20
293.8954479865353
 30
0.0
 10
-44.33392402657116
 20
293.8247600844375
 30
0.0
 10
-44.28342639589321
 20
293.7529341663021
 30
0.0
 10
-44.23432396347815
 20
293.6800420571986
 30
0.0
 10
-44.18664589091684
 20
293.6061393562118
 30
0.0
 10
-44.14042097942738
 20
293.5312805343902
 30
0.0
 10
-44.09566770266376
 20
293.4555006713437
 30
0.0
 10
-44.05241314602611
 20
293.3788467855163
 30
0.0
 10
-44.01068891616949
 20
293.3013723257967
 30
0.0
 10
-43.97052704749512
 20
293.2231309685387
 30
0.0
 10
-43.93196217726315
 20
293.1441816490693
 30
0.0
 10
-43.89500988938939
 20
293.0645423630237
 30
0.0
 10
-43.85970436813334
 20
292.9842639169093
 30
0.0
 10
-43.82608085426134
 20
292.9033984013556
 30
0.0
 10
-43.79418738890667
 20
292.822032710376
 30
0.0
 10
-43.76402901807565
 20
292.7401424135513
 30
0.0
 10
-43.73564453789926
 20
292.657775865705
 30
0.0
 10
-43.7090737532222
 20
292.5749816470935
 30
0.0
 10
-43.68437839586434
 20
292.491888271244
 30
0.0
 10
-43.66155493247506
 20
292.4084031438814
 30
0.0
 10
-43.64065105562533
 20
292.3245739001963
 30
0.0
 10
-43.62171501166156
 20
292.2404435405476
 30
0.0
 10
-43.60482157360023
 20
292.1562042556675
 30
0.0
 10
-43.58977658402264
 20
292.07057017889
 30
0.0
 10
-43.57800153543077
 20
291.9920012482814
 30
0.0
 10
-43.56894454582899
 20
291.9205780361114
 30
0.0
 10
-43.56219296250252
 20
291.8576913749734
 30
0.0
 10
-43.55668750954572
 20
291.794849564677
 30
0.0
 10
-43.55193183864699
 20
291.7244150124094
 30
0.0
 10
-43.54855294034562
 20
291.6464127003784
 30
0.0
 10
-43.54730638805657
 20
291.5609130327492
 30
0.0
 10
-43.54858513493463
 20
291.4756979844484
 30
0.0
 10
-43.55226275527929
 20
291.3949282056213
 30
0.0
 10
-43.55797084091122
 20
291.3186256731557
 30
0.0
 10
-43.56629669673194
 20
291.2374983338828
 30
0.0
 10
-43.57860499861648
 20
291.1476308818944
 30
0.0
 10
-43.59444381414923
 20
291.0590717356823
 30
0.0
 10
-43.61133958557551
 20
290.980982844921
 30
0.0
 10
-43.62820063871048
 20
290.9131512898778
 30
0.0
 10
-43.64715480614819
 20
290.8459639028629
 30
0.0
 10
-43.66852485179696
 20
290.7785708751085
 30
0.0
 10
-43.69289728771896
 20
290.7098079437129
 30
0.0
 10
-43.72056553809364
 20
290.6398632050714
 30
0.0
 10
-43.75139115788708
 20
290.5698298911187
 30
0.0
 10
-43.78489095590916
 20
290.5010913957613
 30
0.0
 10
-43.81822006566732
 20
290.4390803302555
 30
0.0
 10
-43.8522755477962
 20
290.3808088702935
 30
0.0
 10
-43.88674998486437
 20
290.3261641223233
 30
0.0
 10
-43.92499758452409
 20
290.2702438754277
 30
0.0
 10
-43.96530939773143
 20
290.2158170682744
 30
0.0
 10
-44.01606117718109
 20
290.1524900013827
 30
0.0
 10
-44.07665237446557
 20
290.0841940120693
 30
0.0
 10
-44.14834594883832
 20
290.0125043665496
 30
0.0
 10
-44.22138161097555
 20
289.947427208857
 30
0.0
 10
-44.29787046184579
 20
289.8868346923289
 30
0.0
 10
-44.37790796960623
 20
289.8306719091972
 30
0.0
 10
-44.43348056969973
 20
289.7963563260714
 30
0.0
 10
-44.46194077712705
 20
289.779924817652
 30
0.0
  0
SPLINE
  5
1A1
330
124
100
AcDbEntity
  8
0
 62
     7
370
    35
100
AcDbSpline
210
0.0
220
0.0
230
1.0
 70
     8
 71
     3
 72
    36
 73
    32
 74
     0
 42
0.000000001
 43
0.0
 40
0.0
 40
0.0
 40
0.0
 40
0.0
 40
0.0737075007201655
 40
0.1474342917899852
 40
0.2211595956842862
 40
0.2948947203551551
 40
0.3704434925691674
 40
0.4460085630630619
 40
0.5215927645380649
 40
0.5971977565401709
 40
0.6805078002420095
 40
0.7419436250171122
 40
0.8034069617577221
 40
0.8648920782695687
 40
0.9263988168143371
 40
0.9891951295085022
 40
1.052026614948268
 40
1.115168359669297
 40
1.178356534435355
 40
1.241589212672078
 40
1.304867524913521
 40
1.409556045117264
 40
1.496167777889619
 40
1.582945999457919
 40
1.669886762817387
 40
1.757022963679146
 40
1.783938364766531
 40
1.86250099509107
 40
1.941263686942024
 40
2.020242928440557
 40
2.099454469845948
 40
2.099454469845948
 40
2.099454469845948
 40
2.099454469845948
 10
-59.31118318204317
 20
281.2067107179117
 30
0.0
 10
-59.33246422221116
 20
281.1944241036421
 30
0.0
 10
-59.37556928859227
 20
281.1707927722214
 30
0.0
 10
-59.4417375933638
 20
281.138233793462
 30
0.0
 10
-59.5092841226452
 20
281.1086210735223
 30
0.0
 10
-59.57863273760947
 20
281.0817844070936
 30
0.0
 10
-59.64968257965591
 20
281.0578445680807
 30
0.0
 10
-59.72231803987722
 20
281.0369153249397
 30
0.0
 10
-59.79582310698419
 20
281.0192021859845
 30
0.0
 10
-59.87256373075464
 20
281.0042163487601
 30
0.0
 10
-59.94524449417835
 20
280.9934132041991
 30
0.0
 10
-60.01360063880071
 20
280.9860756441371
 30
0.0
 10
-60.07491086561077
 20
280.9815996102905
 30
0.0
 10
-60.13635988755534
 20
280.9791854916417
 30
0.0
 10
-60.19829924865466
 20
280.9788054565004
 30
0.0
 10
-60.26066636210277
 20
280.9804789454963
 30
0.0
 10
-60.32348892264942
 20
280.9842260715679
 30
0.0
 10
-60.38628784202769
 20
280.9900089272197
 30
0.0
 10
-60.44900391814928
 20
280.9977974924889
 30
0.0
 10
-60.51149225310419
 20
281.0075408313247
 30
0.0
 10
-60.58725134560817
 20
281.0217319460331
 30
0.0
 10
-60.67001177898822
 20
281.0406560714216
 30
0.0
 10
-60.75940986795538
 20
281.0652306974288
 30
0.0
 10
-60.84216513507217
 20
281.0914116040924
 30
0.0
 10
-60.92405864565268
 20
281.1206906347115
 30
0.0
 10
-60.98631223675832
 20
281.1454948686541
 30
0.0
 10
-61.04540365467754
 20
281.1706046812517
 30
0.0
 10
-61.1014258773676
 20
281.1957934432464
 30
0.0
 10
-61.1722764941184
 20
281.2302364746334
 30
0.0
 10
-61.24228721568729
 20
281.2668269610679
 30
0.0
 10
-61.28831527940883
 20
281.2925655738835
 30
0.0
 10
-61.3111831820432
 20
281.3057683636252
 30
0.0
  0
SPLINE
  5
1A2
330
124
100
AcDbEntity
  8
0
 62
     7
370
    35
100
AcDbSpline
210
0.0
220
0.0
230
1.0
 70
     8
 71
     3
 72
    81
 73
    77
 74
     0
 42
0.000000001
 43
0.0
 40
0.0
 40
0.0
 40
0.0
 40
0.0
 40
0.0985598581788707
 40
0.1958480824131144
 40
0.2931557940954308
 40
0.3911412170726959
 40
0.4891497067209989
 40
0.5971580678456281
 40
0.6648491741619421
 40
0.7325611426062398
 40
0.8002970017715318
 40
0.8680503770474438
 40
0.9263477411667698
 40
1.002746727338183
 40
1.079191756797829
 40
1.155690897111112
 40
1.232241837777651
 40
1.304793566644646
 40
1.374510716641791
 40
1.444304870592982
 40
1.51418790122819
 40
1.584163964096386
 40
1.683958311096534
 40
1.783999373209531
 40
1.856208293746208
 40
1.928588846136264
 40
2.013518447936226
 40
2.098728995945292
 40
2.184224506638153
 40
2.270008751740701
 40
2.332922752108064
 40
2.395995937322424
 40
2.459243769443237
 40
2.522654890505223
 40
2.611969357139463
 40
2.697554194519505
 40
2.783466918992975
 40
2.869694489351485
 40
2.956236272567835
 40
3.042633299795949
 40
3.129319244647433
 40
3.216271996929501
 40
3.303473358541335
 40
3.390660272814748
 40
3.478054394051578
 40
3.565634391470482
 40
3.653373805621706
 40
3.74113340932855
 40
3.82900053287247
 40
3.916951172256996
 40
4.004957339874093
 40
4.092969788918745
 40
4.18098136136215
 40
4.268964837784379
 40
4.35689443238146
 40
4.444807385098516
 40
4.532611553583218
 40
4.620279101144776
 40
4.707787694429366
 40
4.795284519697339
 40
4.882574999560136
 40
4.969635714792976
 40
5.056445280493291
 40
5.143319533716525
 40
5.22990865012079
 40
5.31620216913201
 40
5.402178828269626
 40
5.467797141375094
 40
5.533219137734823
 40
5.598454224437138
 40
5.663507099461742
 40
5.745158567749051
 40
5.830958299925591
 40
5.916447318781403
 40
6.001627890037915
 40
6.086512346092074
 40
6.086512346092074
 40
6.086512346092074
 40
6.086512346092074
 10
-62.31118318204306
 20
286.4028631406185
 30
0.0
 10
-62.33964338947065
 20
286.386431632199
 30
0.0
 10
-62.39521598956405
 20
286.3521160490732
 30
0.0
 10
-62.47525349732403
 20
286.2959532659417
 30
0.0
 10
-62.55174234819377
 20
286.2353607494139
 30
0.0
 10
-62.62477801033141
 20
286.170283591721
 30
0.0
 10
-62.69647158470401
 20
286.0985939462012
 30
0.0
 10
-62.75706278198835
 20
286.0302979568878
 30
0.0
 10
-62.80781456143761
 20
285.9669708899966
 30
0.0
 10
-62.84812637464538
 20
285.9125440828427
 30
0.0
 10
-62.8863739743054
 20
285.8566238359465
 30
0.0
 10
-62.92084841137326
 20
285.8019790879766
 30
0.0
 10
-62.95490389350188
 20
285.7437076280149
 30
0.0
 10
-62.98823300325983
 20
285.6816965625097
 30
0.0
 10
-63.02173280128216
 20
285.6129580671516
 30
0.0
 10
-63.05255842107579
 20
285.5429247531983
 30
0.0
 10
-63.08022667145018
 20
285.4729800145572
 30
0.0
 10
-63.10459910737211
 20
285.4042170831619
 30
0.0
 10
-63.12596915302066
 20
285.336824055408
 30
0.0
 10
-63.14492332045856
 20
285.2696366683924
 30
0.0
 10
-63.16178437359358
 20
285.2018051133488
 30
0.0
 10
-63.1786801450198
 20
285.1237162225873
 30
0.0
 10
-63.19451896055241
 20
285.0351570763758
 30
0.0
 10
-63.20682726243682
 20
284.9452896243878
 30
0.0
 10
-63.21515311825759
 20
284.8641622851145
 30
0.0
 10
-63.22086120388956
 20
284.7878597526482
 30
0.0
 10
-63.22453882423414
 20
284.7070899738205
 30
0.0
 10
-63.22581757111212
 20
284.6218749255197
 30
0.0
 10
-63.22457101882298
 20
284.5363752578906
 30
0.0
 10
-63.22119212052158
 20
284.4583729458599
 30
0.0
 10
-63.21643644962285
 20
284.3879383935925
 30
0.0
 10
-63.21093099666607
 20
284.3250965832968
 30
0.0
 10
-63.20417941333962
 20
284.2622099221594
 30
0.0
 10
-63.19512242373778
 20
284.1907867099891
 30
0.0
 10
-63.18334737514581
 20
284.1122177793799
 30
0.0
 10
-63.16830238556803
 20
284.0265837026016
 30
0.0
 10
-63.15140894750665
 20
283.9423444177214
 30
0.0
 10
-63.13247290354283
 20
283.8582140580727
 30
0.0
 10
-63.11156902669305
 20
283.7743848143876
 30
0.0
 10
-63.08874556330367
 20
283.690899687025
 30
0.0
 10
-63.06405020594582
 20
283.6078063111755
 30
0.0
 10
-63.03747942126864
 20
283.5250120925641
 30
0.0
 10
-63.00909494109221
 20
283.4426455447179
 30
0.0
 10
-62.97893657026119
 20
283.3607552478932
 30
0.0
 10
-62.94704310490644
 20
283.2793895569135
 30
0.0
 10
-62.91341959103443
 20
283.1985240413599
 30
0.0
 10
-62.87811406977827
 20
283.1182455952455
 30
0.0
 10
-62.84116178190446
 20
283.0386063091998
 30
0.0
 10
-62.80259691167247
 20
282.9596569897305
 30
0.0
 10
-62.76243504299809
 20
282.8814156324725
 30
0.0
 10
-62.72071081314138
 20
282.803941172753
 30
0.0
 10
-62.67745625650367
 20
282.7272872869257
 30
0.0
 10
-62.63270297974003
 20
282.6515074238789
 30
0.0
 10
-62.5864780682506
 20
282.5766486020574
 30
0.0
 10
-62.53879999568915
 20
282.5027459010706
 30
0.0
 10
-62.48969756327414
 20
282.4298537919672
 30
0.0
 10
-62.43919993259603
 20
282.3580278738319
 30
0.0
 10
-62.38734863420277
 20
282.2873399717341
 30
0.0
 10
-62.33413783315152
 20
282.217798527681
 30
0.0
 10
-62.27959231586053
 20
282.1494595329092
 30
0.0
 10
-62.22373732080651
 20
282.0823805550216
 30
0.0
 10
-62.1666366581032
 20
282.0166616834002
 30
0.0
 10
-62.10824301328634
 20
281.9522758896389
 30
0.0
 10
-62.04857643387202
 20
281.8892839119482
 30
0.0
 10
-61.98765499266769
 20
281.8277461776945
 30
0.0
 10
-61.92558093426897
 20
281.7678010229552
 30
0.0
 10
-61.86728750128131
 20
281.7140336315102
 30
0.0
 10
-61.81310828931026
 20
281.6660953071909
 30
0.0
 10
-61.76332506063925
 20
281.6236386835598
 30
0.0
 10
-61.71290858004039
 20
281.5822321515068
 30
0.0
 10
-61.65747411218229
 20
281.5384312200255
 30
0.0
 10
-61.59562796315571
 20
281.4917113486918
 30
0.0
 10
-61.52706945522058
 20
281.4426179609624
 30
0.0
 10
-61.45623903392443
 20
281.394729103373
 30
0.0
 10
-61.38436589531261
 20
281.3489831957644
 30
0.0
 10
-61.33568892959918
 20
281.3199167635735
 30
0.0
 10
-61.3111831820432
 20
281.3057683636252
 30
0.0
  0
LINE
  5
1A3
330
124
100
AcDbEntity
  8
0
 62
     7
370
    35
100
AcDbLine
 10
-59.311183
 20
281.206711
 30
0.0
 11
-44.461941
 21
289.779925
 31
0.0
  0
LINE
  5
1A4
330
124
100
AcDbEntity
  8
0
 62
     7
370
    35
100
AcDbLine
 10
-62.311183
 20
286.402863
 30
0.0
 11
-47.461941
 21
294.976077
 31
0.0
  0
ENDBLK
  5
126
330
124
100
AcDbEntity
  8
0
100
AcDbBlockEnd
  0
ENDSEC
  0
SECTION
  2
ENTITIES
  0
INSERT
  5
1A5
330
1F
100
AcDbEntity
  8
0
370
     0
100
AcDbBlockReference
  2
BLOCK78
 10
0.0
 20
0.0
 30
0.0
  0
INSERT
  5
1A6
330
1F
100
AcDbEntity
  8
0
370
     0
100
AcDbBlockReference
  2
BLOCK79
 10
0.0
 20
0.0
 30
0.0
  0
INSERT
  5
1A7
330
1F
100
AcDbEntity
  8
0
370
     0
100
AcDbBlockReference
  2
BLOCK80
 10
0.0
 20
0.0
 30
0.0
  0
INSERT
  5
1A8
330
1F
100
AcDbEntity
  8
0
370
     0
100
AcDbBlockReference
  2
BLOCK81
 10
0.0
 20
0.0
 30
0.0
  0
INSERT
  5
1A9
330
1F
100
AcDbEntity
  8
0
370
     0
100
AcDbBlockReference
  2
BLOCK82
 10
0.0
 20
0.0
 30
0.0
  0
INSERT
  5
1AA
330
1F
100
AcDbEntity
  8
0
370
     0
100
AcDbBlockReference
  2
BLOCK83
 10
0.0
 20
0.0
 30
0.0
  0
INSERT
  5
1AB
330
1F
100
AcDbEntity
  8
0
370
     0
100
AcDbBlockReference
  2
BLOCK84
 10
0.0
 20
0.0
 30
0.0
  0
INSERT
  5
1AC
330
1F
100
AcDbEntity
  8
0
370
     0
100
AcDbBlockReference
  2
BLOCK85
 10
0.0
 20
0.0
 30
0.0
  0
INSERT
  5
1AD
330
1F
100
AcDbEntity
  8
0
370
     0
100
AcDbBlockReference
  2
BLOCK86
 10
0.0
 20
0.0
 30
0.0
  0
INSERT
  5
1AE
330
1F
100
AcDbEntity
  8
0
370
     0
100
AcDbBlockReference
  2
BLOCK87
 10
0.0
 20
0.0
 30
0.0
  0
INSERT
  5
1AF
330
1F
100
AcDbEntity
  8
0
370
     0
100
AcDbBlockReference
  2
BLOCK88
 10
0.0
 20
0.0
 30
0.0
  0
INSERT
  5
1B0
330
1F
100
AcDbEntity
  8
0
370
     0
100
AcDbBlockReference
  2
BLOCK89
 10
0.0
 20
0.0
 30
0.0
  0
INSERT
  5
1B1
330
1F
100
AcDbEntity
  8
0
370
     0
100
AcDbBlockReference
  2
BLOCK90
 10
0.0
 20
0.0
 30
0.0
  0
INSERT
  5
1B2
330
1F
100
AcDbEntity
  8
0
370
     0
100
AcDbBlockReference
  2
BLOCK91
 10
0.0
 20
0.0
 30
0.0
  0
INSERT
  5
1B3
330
1F
100
AcDbEntity
  8
0
370
     0
100
AcDbBlockReference
  2
BLOCK92
 10
0.0
 20
0.0
 30
0.0
  0
INSERT
  5
1B4
330
1F
100
AcDbEntity
  8
0
370
     0
100
AcDbBlockReference
  2
BLOCK93
 10
0.0
 20
0.0
 30
0.0
  0
INSERT
  5
1B5
330
1F
100
AcDbEntity
  8
0
370
     0
100
AcDbBlockReference
  2
BLOCK94
 10
0.0
 20
0.0
 30
0.0
  0
INSERT
  5
1B6
330
1F
100
AcDbEntity
  8
0
370
     0
100
AcDbBlockReference
  2
BLOCK95
 10
0.0
 20
0.0
 30
0.0
  0
INSERT
  5
1B7
330
1F
100
AcDbEntity
  8
0
370
     0
100
AcDbBlockReference
  2
BLOCK96
 10
0.0
 20
0.0
 30
0.0
  0
INSERT
  5
1B8
330
1F
100
AcDbEntity
  8
0
370
     0
100
AcDbBlockReference
  2
BLOCK97
 10
0.0
 20
0.0
 30
0.0
  0
INSERT
  5
1B9
330
1F
100
AcDbEntity
  8
0
370
     0
100
AcDbBlockReference
  2
BLOCK98
 10
0.0
 20
0.0
 30
0.0
  0
INSERT
  5
1BA
330
1F
100
AcDbEntity
  8
0
370
     0
100
AcDbBlockReference
  2
BLOCK99
 10
0.0
 20
0.0
 30
0.0
  0
INSERT
  5
1BB
330
1F
100
AcDbEntity
  8
0
370
     0
100
AcDbBlockReference
  2
BLOCK100
 10
0.0
 20
0.0
 30
0.0
  0
INSERT
  5
1BC
330
1F
100
AcDbEntity
  8
0
370
     0
100
AcDbBlockReference
  2
BLOCK101
 10
0.0
 20
0.0
 30
0.0
  0
INSERT
  5
1BD
330
1F
100
AcDbEntity
  8
0
370
     0
100
AcDbBlockReference
  2
BLOCK102
 10
0.0
 20
0.0
 30
0.0
  0
INSERT
  5
1BE
330
1F
100
AcDbEntity
  8
0
370
     0
100
AcDbBlockReference
  2
BLOCK103
 10
0.0
 20
0.0
 30
0.0
  0
INSERT
  5
1BF
330
1F
100
AcDbEntity
  8
0
370
     0
100
AcDbBlockReference
  2
BLOCK104
 10
0.0
 20
0.0
 30
0.0
  0
INSERT
  5
1C0
330
1F
100
AcDbEntity
  8
0
370
     0
100
AcDbBlockReference
  2
BLOCK105
 10
0.0
 20
0.0
 30
0.0
  0
INSERT
  5
1C1
330
1F
100
AcDbEntity
  8
0
370
     0
100
AcDbBlockReference
  2
BLOCK106
 10
0.0
 20
0.0
 30
0.0
  0
INSERT
  5
1C2
330
1F
100
AcDbEntity
  8
0
370
     0
100
AcDbBlockReference
  2
BLOCK107
 10
0.0
 20
0.0
 30
0.0
  0
INSERT
  5
1C3
330
1F
100
AcDbEntity
  8
0
370
     0
100
AcDbBlockReference
  2
BLOCK108
 10
0.0
 20
0.0
 30
0.0
  0
INSERT
  5
1C4
330
1F
100
AcDbEntity
  8
0
370
     0
100
AcDbBlockReference
  2
BLOCK109
 10
0.0
 20
0.0
 30
0.0
  0
INSERT
  5
1C5
330
1F
100
AcDbEntity
  8
0
370
     0
100
AcDbBlockReference
  2
BLOCK110
 10
0.0
 20
0.0
 30
0.0
  0
INSERT
  5
1C6
330
1F
100
AcDbEntity
  8
0
370
     0
100
AcDbBlockReference
  2
BLOCK111
 10
0.0
 20
0.0
 30
0.0
  0
INSERT
  5
1C7
330
1F
100
AcDbEntity
  8
0
370
     0
100
AcDbBlockReference
  2
BLOCK112
 10
0.0
 20
0.0
 30
0.0
  0
INSERT
  5
1C8
330
1F
100
AcDbEntity
  8
0
370
     0
100
AcDbBlockReference
  2
BLOCK113
 10
0.0
 20
0.0
 30
0.0
  0
INSERT
  5
1C9
330
1F
100
AcDbEntity
  8
0
370
     0
100
AcDbBlockReference
  2
BLOCK114
 10
0.0
 20
0.0
 30
0.0
  0
INSERT
  5
1CA
330
1F
100
AcDbEntity
  8
0
370
     0
100
AcDbBlockReference
  2
BLOCK115
 10
0.0
 20
0.0
 30
0.0
  0
INSERT
  5
1CB
330
1F
100
AcDbEntity
  8
0
370
     0
100
AcDbBlockReference
  2
BLOCK116
 10
0.0
 20
0.0
 30
0.0
  0
INSERT
  5
1CC
330
1F
100
AcDbEntity
  8
0
370
     0
100
AcDbBlockReference
  2
BLOCK117
 10
0.0
 20
0.0
 30
0.0
  0
INSERT
  5
1CD
330
1F
100
AcDbEntity
  8
0
370
     0
100
AcDbBlockReference
  2
BLOCK118
 10
0.0
 20
0.0
 30
0.0
  0
INSERT
  5
1CE
330
1F
100
AcDbEntity
  8
0
370
     0
100
AcDbBlockReference
  2
BLOCK119
 10
0.0
 20
0.0
 30
0.0
  0
INSERT
  5
1CF
330
1F
100
AcDbEntity
  8
0
370
     0
100
AcDbBlockReference
  2
BLOCK120
 10
0.0
 20
0.0
 30
0.0
  0
INSERT
  5
1D0
330
1F
100
AcDbEntity
  8
0
370
     0
100
AcDbBlockReference
  2
BLOCK121
 10
0.0
 20
0.0
 30
0.0
  0
INSERT
  5
1D1
330
1F
100
AcDbEntity
  8
0
370
     0
100
AcDbBlockReference
  2
BLOCK122
 10
0.0
 20
0.0
 30
0.0
  0
INSERT
  5
1D2
330
1F
100
AcDbEntity
  8
0
370
     0
100
AcDbBlockReference
  2
BLOCK123
 10
0.0
 20
0.0
 30
0.0
  0
INSERT
  5
1D3
330
1F
100
AcDbEntity
  8
0
370
     0
100
AcDbBlockReference
  2
BLOCK124
 10
0.0
 20
0.0
 30
0.0
  0
INSERT
  5
1D4
330
1F
100
AcDbEntity
  8
0
370
     0
100
AcDbBlockReference
  2
BLOCK125
 10
0.0
 20
0.0
 30
0.0
  0
INSERT
  5
1D5
330
1F
100
AcDbEntity
  8
0
370
     0
100
AcDbBlockReference
  2
BLOCK126
 10
0.0
 20
0.0
 30
0.0
  0
INSERT
  5
1D6
330
1F
100
AcDbEntity
  8
0
370
     0
100
AcDbBlockReference
  2
BLOCK127
 10
0.0
 20
0.0
 30
0.0
  0
INSERT
  5
1D7
330
1F
100
AcDbEntity
  8
0
370
     0
100
AcDbBlockReference
  2
BLOCK128
 10
0.0
 20
0.0
 30
0.0
  0
INSERT
  5
1D8
330
1F
100
AcDbEntity
  8
0
370
     0
100
AcDbBlockReference
  2
BLOCK129
 10
0.0
 20
0.0
 30
0.0
  0
INSERT
  5
1D9
330
1F
100
AcDbEntity
  8
0
370
     0
100
AcDbBlockReference
  2
BLOCK130
 10
0.0
 20
0.0
 30
0.0
  0
LINE
  5
1DA
330
1F
100
AcDbEntity
  8
0
 62
     7
370
    35
100
AcDbLine
 10
10.0
 20
10.0
 30
0.0
 11
287.0
 21
10.0
 31
0.0
  0
LINE
  5
1DB
330
1F
100
AcDbEntity
  8
0
 62
     7
370
    35
100
AcDbLine
 10
287.0
 20
10.0
 30
0.0
 11
287.0
 21
200.0
 31
0.0
  0
LINE
  5
1DC
330
1F
100
AcDbEntity
  8
0
 62
     7
370
    35
100
AcDbLine
 10
287.0
 20
200.0
 30
0.0
 11
10.0
 21
200.0
 31
0.0
  0
LINE
  5
1DD
330
1F
100
AcDbEntity
  8
0
 62
     7
370
    35
100
AcDbLine
 10
10.0
 20
200.0
 30
0.0
 11
10.0
 21
10.0
 31
0.0
  0
LINE
  5
1DE
330
1F
100
AcDbEntity
  8
0
 62
     7
370
    35
100
AcDbLine
 10
148.5
 20
200.0
 30
0.0
 11
148.5
 21
210.0
 31
0.0
  0
LINE
  5
1DF
330
1F
100
AcDbEntity
  8
0
 62
     7
370
    35
100
AcDbLine
 10
148.5
 20
10.0
 30
0.0
 11
148.5
 21
0.0
 31
0.0
  0
LINE
  5
1E0
330
1F
100
AcDbEntity
  8
0
 62
     7
370
    35
100
AcDbLine
 10
10.0
 20
105.0
 30
0.0
 11
0.0
 21
105.0
 31
0.0
  0
LINE
  5
1E1
330
1F
100
AcDbEntity
  8
0
 62
     7
370
    35
100
AcDbLine
 10
287.0
 20
105.0
 30
0.0
 11
297.0
 21
105.0
 31
0.0
  0
LINE
  5
1E2
330
1F
100
AcDbEntity
  8
0
 62
     7
370
    35
100
AcDbLine
 10
222.7
 20
10.0
 30
0.0
 11
222.7
 21
2.5
 31
0.0
  0
LINE
  5
1E3
330
1F
100
AcDbEntity
  8
0
 62
     7
370
    35
100
AcDbLine
 10
74.3
 20
10.0
 30
0.0
 11
74.3
 21
2.5
 31
0.0
  0
LINE
  5
1E4
330
1F
100
AcDbEntity
  8
0
 62
     7
370
    35
100
AcDbLine
 10
222.7
 20
200.0
 30
0.0
 11
222.7
 21
207.5
 31
0.0
  0
LINE
  5
1E5
330
1F
100
AcDbEntity
  8
0
 62
     7
370
    35
100
AcDbLine
 10
74.3
 20
200.0
 30
0.0
 11
74.3
 21
207.5
 31
0.0
  0
LINE
  5
1E6
330
1F
100
AcDbEntity
  8
0
 62
     7
370
    35
100
AcDbLine
 10
10.0
 20
157.5
 30
0.0
 11
2.5
 21
157.5
 31
0.0
  0
LINE
  5
1E7
330
1F
100
AcDbEntity
  8
0
 62
     7
370
    35
100
AcDbLine
 10
287.0
 20
157.5
 30
0.0
 11
294.5
 21
157.5
 31
0.0
  0
LINE
  5
1E8
330
1F
100
AcDbEntity
  8
0
 62
     7
370
    35
100
AcDbLine
 10
10.0
 20
52.5
 30
0.0
 11
2.5
 21
52.5
 31
0.0
  0
LINE
  5
1E9
330
1F
100
AcDbEntity
  8
0
 62
     7
370
    35
100
AcDbLine
 10
287.0
 20
52.5
 30
0.0
 11
294.5
 21
52.5
 31
0.0
  0
LINE
  5
1EA
330
1F
100
AcDbEntity
  8
0
 62
     7
370
    35
100
AcDbLine
 10
98.5
 20
7.5
 30
0.0
 11
198.5
 21
7.5
 31
0.0
  0
LINE
  5
1EB
330
1F
100
AcDbEntity
  8
0
 62
     7
370
    35
100
AcDbLine
 10
98.5
 20
10.0
 30
0.0
 11
98.5
 21
5.0
 31
0.0
  0
LINE
  5
1EC
330
1F
100
AcDbEntity
  8
0
 62
     7
370
    35
100
AcDbLine
 10
198.5
 20
10.0
 30
0.0
 11
198.5
 21
5.0
 31
0.0
  0
LINE
  5
1ED
330
1F
100
AcDbEntity
  8
0
 62
     7
370
    35
100
AcDbLine
 10
108.5
 20
10.0
 30
0.0
 11
108.5
 21
7.5
 31
0.0
  0
LINE
  5
1EE
330
1F
100
AcDbEntity
  8
0
 62
     7
370
    35
100
AcDbLine
 10
188.5
 20
10.0
 30
0.0
 11
188.5
 21
7.5
 31
0.0
  0
LINE
  5
1EF
330
1F
100
AcDbEntity
  8
0
 62
     7
370
    35
100
AcDbLine
 10
118.5
 20
10.0
 30
0.0
 11
118.5
 21
7.5
 31
0.0
  0
LINE
  5
1F0
330
1F
100
AcDbEntity
  8
0
 62
     7
370
    35
100
AcDbLine
 10
178.5
 20
10.0
 30
0.0
 11
178.5
 21
7.5
 31
0.0
  0
LINE
  5
1F1
330
1F
100
AcDbEntity
  8
0
 62
     7
370
    35
100
AcDbLine
 10
128.5
 20
10.0
 30
0.0
 11
128.5
 21
7.5
 31
0.0
  0
LINE
  5
1F2
330
1F
100
AcDbEntity
  8
0
 62
     7
370
    35
100
AcDbLine
 10
168.5
 20
10.0
 30
0.0
 11
168.5
 21
7.5
 31
0.0
  0
LINE
  5
1F3
330
1F
100
AcDbEntity
  8
0
 62
     7
370
    35
100
AcDbLine
 10
138.5
 20
10.0
 30
0.0
 11
138.5
 21
7.5
 31
0.0
  0
LINE
  5
1F4
330
1F
100
AcDbEntity
  8
0
 62
     7
370
    35
100
AcDbLine
 10
158.5
 20
10.0
 30
0.0
 11
158.5
 21
7.5
 31
0.0
  0
LINE
  5
1F5
330
1F
100
AcDbEntity
  8
0
 62
     7
370
    35
100
AcDbLine
 10
97.0
 20
10.0
 30
0.0
 11
287.0
 21
10.0
 31
0.0
  0
LINE
  5
1F6
330
1F
100
AcDbEntity
  8
0
 62
     7
370
    35
100
AcDbLine
 10
97.0
 20
10.0
 30
0.0
 11
97.0
 21
70.0
 31
0.0
  0
LINE
  5
1F7
330
1F
100
AcDbEntity
  8
0
 62
     7
370
    35
100
AcDbLine
 10
97.0
 20
70.0
 30
0.0
 11
287.0
 21
70.0
 31
0.0
  0
LINE
  5
1F8
330
1F
100
AcDbEntity
  8
0
 62
     7
370
    35
100
AcDbLine
 10
287.0
 20
70.0
 30
0.0
 11
287.0
 21
10.0
 31
0.0
  0
LINE
  5
1F9
330
1F
100
AcDbEntity
  8
0
 62
     7
370
    35
100
AcDbLine
 10
97.0
 20
14.0
 30
0.0
 11
262.0
 21
14.0
 31
0.0
  0
LINE
  5
1FA
330
1F
100
AcDbEntity
  8
0
 62
     7
370
    35
100
AcDbLine
 10
97.0
 20
27.0
 30
0.0
 11
262.0
 21
27.0
 31
0.0
  0
LINE
  5
1FB
330
1F
100
AcDbEntity
  8
0
 62
     7
370
    35
100
AcDbLine
 10
97.0
 20
40.0
 30
0.0
 11
262.0
 21
40.0
 31
0.0
  0
LINE
  5
1FC
330
1F
100
AcDbEntity
  8
0
 62
     7
370
    35
100
AcDbLine
 10
97.0
 20
55.0
 30
0.0
 11
142.0
 21
55.0
 31
0.0
  0
LINE
  5
1FD
330
1F
100
AcDbEntity
  8
0
 62
     7
370
    35
100
AcDbLine
 10
262.0
 20
16.666667
 30
0.0
 11
287.0
 21
16.666667
 31
0.0
  0
LINE
  5
1FE
330
1F
100
AcDbEntity
  8
0
 62
     7
370
    35
100
AcDbLine
 10
262.0
 20
23.333333
 30
0.0
 11
287.0
 21
23.333333
 31
0.0
  0
LINE
  5
1FF
330
1F
100
AcDbEntity
  8
0
 62
     7
370
    35
100
AcDbLine
 10
262.0
 20
30.0
 30
0.0
 11
287.0
 21
30.0
 31
0.0
  0
LINE
  5
200
330
1F
100
AcDbEntity
  8
0
 62
     7
370
    35
100
AcDbLine
 10
262.0
 20
36.666667
 30
0.0
 11
287.0
 21
36.666667
 31
0.0
  0
LINE
  5
201
330
1F
100
AcDbEntity
  8
0
 62
     7
370
    35
100
AcDbLine
 10
262.0
 20
43.333333
 30
0.0
 11
287.0
 21
43.333333
 31
0.0
  0
LINE
  5
202
330
1F
100
AcDbEntity
  8
0
 62
     7
370
    35
100
AcDbLine
 10
262.0
 20
50.0
 30
0.0
 11
287.0
 21
50.0
 31
0.0
  0
LINE
  5
203
330
1F
100
AcDbEntity
  8
0
 62
     7
370
    35
100
AcDbLine
 10
262.0
 20
56.666667
 30
0.0
 11
287.0
 21
56.666667
 31
0.0
  0
LINE
  5
204
330
1F
100
AcDbEntity
  8
0
 62
     7
370
    35
100
AcDbLine
 10
262.0
 20
63.333333
 30
0.0
 11
287.0
 21
63.333333
 31
0.0
  0
LINE
  5
205
330
1F
100
AcDbEntity
  8
0
 62
     7
370
    35
100
AcDbLine
 10
117.0
 20
14.0
 30
0.0
 11
117.0
 21
40.0
 31
0.0
  0
LINE
  5
206
330
1F
100
AcDbEntity
  8
0
 62
     7
370
    35
100
AcDbLine
 10
142.0
 20
14.0
 30
0.0
 11
142.0
 21
70.0
 31
0.0
  0
LINE
  5
207
330
1F
100
AcDbEntity
  8
0
 62
     7
370
    35
100
AcDbLine
 10
242.0
 20
14.0
 30
0.0
 11
242.0
 21
27.0
 31
0.0
  0
LINE
  5
208
330
1F
100
AcDbEntity
  8
0
 62
     7
370
    35
100
AcDbLine
 10
262.0
 20
10.0
 30
0.0
 11
262.0
 21
70.0
 31
0.0
  0
LINE
  5
209
330
1F
100
AcDbEntity
  8
0
 62
     7
370
    35
100
AcDbLine
 10
267.0
 20
10.0
 30
0.0
 11
267.0
 21
70.0
 31
0.0
  0
LINE
  5
20A
330
1F
100
AcDbEntity
  8
0
 62
     7
370
    35
100
AcDbLine
 10
119.0
 20
33.5
 30
0.0
 11
140.0
 21
33.5
 31
0.0
  0
LINE
  5
20B
330
1F
100
AcDbEntity
  8
0
 62
     7
370
    35
100
AcDbLine
 10
134.5
 20
28.0
 30
0.0
 11
134.5
 21
39.0
 31
0.0
  0
LINE
  5
20C
330
1F
100
AcDbEntity
  8
0
 62
     7
370
    35
100
AcDbLine
 10
120.5
 20
31.5
 30
0.0
 11
120.5
 21
35.5
 31
0.0
  0
LINE
  5
20D
330
1F
100
AcDbEntity
  8
0
 62
     7
370
    35
100
AcDbLine
 10
120.5
 20
35.5
 30
0.0
 11
128.5
 21
37.5
 31
0.0
  0
LINE
  5
20E
330
1F
100
AcDbEntity
  8
0
 62
     7
370
    35
100
AcDbLine
 10
128.5
 20
37.5
 30
0.0
 11
128.5
 21
29.5
 31
0.0
  0
LINE
  5
20F
330
1F
100
AcDbEntity
  8
0
 62
     7
370
    35
100
AcDbLine
 10
128.5
 20
29.5
 30
0.0
 11
120.5
 21
31.5
 31
0.0
  0
CIRCLE
  5
210
330
1F
100
AcDbEntity
  8
0
 62
     7
370
    35
100
AcDbCircle
 10
134.5
 20
33.5
 30
0.0
 40
2.0
  0
CIRCLE
  5
211
330
1F
100
AcDbEntity
  8
0
 62
     7
370
    35
100
AcDbCircle
 10
134.5
 20
33.5
 30
0.0
 40
4.0
  0
DIMENSION
  5
212
102
{ACAD_XDICTIONARY
360
213
102
}
330
1F
100
AcDbEntity
  8
0
 62
     0
370
     0
100
AcDbDimension
  2
*D54
 10
43.052816
 20
142.483612
 30
0.0
 11
66.052816
 21
142.483612
 31
0.0
 70
   160
 71
     5
 42
-1.0
 52
5156.620156
  3
STANDARD
100
AcDbAlignedDimension
 13
89.052816
 23
160.345352
 33
0.0
 14
43.052816
 24
160.345352
 34
0.0
 50
180.0
100
AcDbRotatedDimension
1001
ACAD
1000
DSTYLE
1002
{
1070
   144
1040
0.5
1002
}
  0
DIMENSION
  5
214
102
{ACAD_XDICTIONARY
360
215
102
}
330
1F
100
AcDbEntity
  8
0
 62
     0
370
     0
100
AcDbDimension
  2
*D55
 10
87.052816
 20
164.345352
 30
0.0
 11
93.99256
 21
176.27693
 31
0.0
 70
   164
  1
2x<>
 71
     5
 42
-1.0
  3
STANDARD
100
AcDbRadialDimension
 15
88.058358
 25
166.074191
 35
0.0
 40
0.0
1001
ACAD
1000
DSTYLE
1002
{
1070
   144
1040
0.5
1002
}
  0
LINE
  5
216
330
1F
100
AcDbEntity
  8
0
  6
DASHDOT
 62
     7
370
    18
100
AcDbLine
 10
93.652918
 20
160.345352
 30
0.0
 11
38.451719
 21
160.345352
 31
0.0
  0
INSERT
  5
217
330
1F
100
AcDbEntity
  8
0
370
     0
100
AcDbBlockReference
  2
BLOCK131
 10
137.052816
 20
-61.654648
 30
0.0
 41
2.0
 42
2.0
 43
2.0
  0
DIMENSION
  5
218
102
{ACAD_XDICTIONARY
360
219
102
}
330
1F
100
AcDbEntity
  8
0
 62
     0
370
     0
100
AcDbDimension
  2
*D57
 10
145.260292
 20
155.527757
 30
0.0
 11
170.593608
 21
189.652849
 31
0.0
 70
   163
  1
<>{}{ n6 {\H2x;\W0.5;(}\S+0,016^ +0,008;{\H2x;\W0.5;)}}
 71
     5
 42
-1.0
  3
STANDARD
100
AcDbDiametricDimension
 15
152.413131
 25
165.162947
 35
0.0
 40
0.0
1001
ACAD
1000
DSTYLE
1002
{
1070
   144
1040
0.5
1070
    71
1070
     0
1070
    72
1070
     0
1070
    47
1040
0.016
1070
    48
1040
-0.008
1002
}
  0
INSERT
  5
21A
330
1F
100
AcDbEntity
  8
0
370
     0
100
AcDbBlockReference
  2
BLOCK132
 10
708.013626
 20
-61.654648
 30
0.0
 41
2.0
 42
2.0
 43
2.0
  0
INSERT
  5
21B
330
1F
100
AcDbEntity
  8
0
370
     0
100
AcDbBlockReference
  2
BLOCK133
 10
708.013626
 20
-61.654648
 30
0.0
 41
2.0
 42
2.0
 43
2.0
  0
INSERT
  5
21C
330
1F
100
AcDbEntity
  8
0
370
     0
100
AcDbBlockReference
  2
BLOCK134
 10
352.336649
 20
-407.029122
 30
0.0
 41
2.0
 42
2.0
 43
2.0
  0
INSERT
  5
21D
330
1F
100
AcDbEntity
  8
0
370
     0
100
AcDbBlockReference
  2
BLOCK135
 10
352.336649
 20
-407.029122
 30
0.0
 41
2.0
 42
2.0
 43
2.0
  0
ENDSEC
  0
SECTION
  2
OBJECTS
  0
DICTIONARY
  5
C
330
0
100
AcDbDictionary
281
     1
  3
ACAD_GROUP
350
D
  3
ACAD_LAYOUT
350
1A
  3
ACAD_MLINESTYLE
350
17
  3
ACAD_PLOTSETTINGS
350
19
  3
ACAD_PLOTSTYLENAME
350
E
  3
ACAD_SCALELIST
350
47
  0
DICTIONARY
  5
213
330
212
100
AcDbDictionary
280
     1
281
     1
  0
DICTIONARY
  5
215
330
214
100
AcDbDictionary
280
     1
281
     1
  0
DICTIONARY
  5
219
330
218
100
AcDbDictionary
280
     1
281
     1
  0
DICTIONARY
  5
D
102
{ACAD_REACTORS
330
C
102
}
330
C
100
AcDbDictionary
281
     1
  0
DICTIONARY
  5
1A
102
{ACAD_REACTORS
330
C
102
}
330
C
100
AcDbDictionary
281
     1
  3
Layout1
350
1E
  3
Layout2
350
26
  3
Model
350
22
  0
DICTIONARY
  5
17
102
{ACAD_REACTORS
330
C
102
}
330
C
100
AcDbDictionary
281
     1
  3
Standard
350
18
  0
DICTIONARY
  5
19
102
{ACAD_REACTORS
330
C
102
}
330
C
100
AcDbDictionary
281
     1
  0
ACDBDICTIONARYWDFLT
  5
E
102
{ACAD_REACTORS
330
C
102
}
330
C
100
AcDbDictionary
281
     1
  3
Normal
350
F
100
AcDbDictionaryWithDefault
340
F
  0
DICTIONARY
  5
47
102
{ACAD_REACTORS
330
C
102
}
330
C
100
AcDbDictionary
281
     1
  3
A0
350
48
  3
A1
350
49
  3
A2
350
4A
  3
A3
350
4B
  3
A4
350
4C
  3
A5
350
4D
  3
A6
350
4E
  3
A7
350
4F
  3
A8
350
50
  3
A9
350
51
  3
B0
350
52
  3
B1
350
53
  3
B2
350
54
  3
B3
350
55
  3
B4
350
56
  3
B5
350
57
  3
B6
350
58
  3
B7
350
59
  3
B8
350
5A
  3
B9
350
5B
  3
C0
350
5C
  3
C1
350
5D
  3
C2
350
5E
  3
C3
350
5F
  3
C4
350
60
  3
C5
350
61
  3
C6
350
62
  3
C7
350
63
  3
C8
350
64
  3
C9
350
65
  3
D0
350
66
  3
D1
350
67
  3
D2
350
68
  0
LAYOUT
  5
1E
102
{ACAD_REACTORS
330
1A
102
}
330
1A
100
AcDbPlotSettings
  1

  2
none_device
  4

  6

 40
0.0
 41
0.0
 42
0.0
 43
0.0
 44
0.0
 45
0.0
 46
0.0
 47
0.0
 48
0.0
 49
0.0
140
0.0
141
0.0
142
1.0
143
1.0
 70
  4784
 72
     0
 73
     0
 74
     5
  7

 75
    16
147
1.0
148
0.0
149
0.0
100
AcDbLayout
  1
Layout1
 70
     1
 71
     1
 10
0.0
 20
0.0
 11
420.0
 21
297.0
 12
0.0
 22
0.0
 32
0.0
 14
0.0
 24
0.0
 34
0.0
 15
293.399994
 25
295.116608
 35
2.0
146
0.0
 13
0.0
 23
0.0
 33
0.0
 16
1.0
 26
0.0
 36
0.0
 17
0.0
 27
1.0
 37
0.0
 76
     0
330
1B
  0
LAYOUT
  5
26
102
{ACAD_REACTORS
330
1A
102
}
330
1A
100
AcDbPlotSettings
  1

  2
none_device
  4

  6

 40
0.0
 41
0.0
 42
0.0
 43
0.0
 44
0.0
 45
0.0
 46
0.0
 47
0.0
 48
0.0
 49
0.0
140
0.0
141
0.0
142
1.0
143
1.0
 70
  4784
 72
     0
 73
     0
 74
     5
  7

 75
    16
147
1.0
148
0.0
149
0.0
100
AcDbLayout
  1
Layout2
 70
     1
 71
     2
 10
0.0
 20
0.0
 11
0.0
 21
0.0
 12
0.0
 22
0.0
 32
0.0
 14
0.0
 24
0.0
 34
0.0
 15
0.0
 25
0.0
 35
0.0
146
0.0
 13
0.0
 23
0.0
 33
0.0
 16
1.0
 26
0.0
 36
0.0
 17
0.0
 27
1.0
 37
0.0
 76
     0
330
23
  0
LAYOUT
  5
22
102
{ACAD_REACTORS
330
1A
102
}
330
1A
100
AcDbPlotSettings
  1

  2
none_device
  4
Letter_(8.50_x_11.00_Inches)
  6

 40
6.35
 41
6.35
 42
6.350005
 43
6.350005
 44
215.9
 45
279.4
 46
0.0
 47
0.0
 48
0.0
 49
0.0
140
0.0
141
0.0
142
1.0
143
1.0
 70
  5808
 72
     0
 73
     0
 74
     0
  7

 75
     0
147
1.0
148
0.0
149
0.0
100
AcDbLayout
  1
Model
 70
     1
 71
     0
 10
0.0
 20
0.0
 11
420.0
 21
297.0
 12
0.0
 22
0.0
 32
0.0
 14
0.0
 24
0.0
 34
0.0
 15
293.399994
 25
295.116608
 35
2.0
146
0.0
 13
0.0
 23
0.0
 33
0.0
 16
1.0
 26
0.0
 36
0.0
 17
0.0
 27
1.0
 37
0.0
 76
     0
330
1F
331
29
  0
MLINESTYLE
  5
18
102
{ACAD_REACTORS
330
17
102
}
330
17
100
AcDbMlineStyle
  2
Standard
 70
     0
  3

 62
   256
 51
90.0
 52
90.0
 71
     2
 49
0.5
 62
   256
  6
BYLAYER
 49
-0.5
 62
   256
  6
BYLAYER
  0
ACDBPLACEHOLDER
  5
F
102
{ACAD_REACTORS
330
E
102
}
330
E
  0
SCALE
  5
48
102
{ACAD_REACTORS
330
47
102
}
330
47
100
AcDbScale
 70
     0
300
1:1
140
1.0
141
1.0
290
     1
  0
SCALE
  5
49
102
{ACAD_REACTORS
330
47
102
}
330
47
100
AcDbScale
 70
     0
300
1:2
140
1.0
141
2.0
290
     0
  0
SCALE
  5
4A
102
{ACAD_REACTORS
330
47
102
}
330
47
100
AcDbScale
 70
     0
300
1:4
140
1.0
141
4.0
290
     0
  0
SCALE
  5
4B
102
{ACAD_REACTORS
330
47
102
}
330
47
100
AcDbScale
 70
     0
300
1:5
140
1.0
141
5.0
290
     0
  0
SCALE
  5
4C
102
{ACAD_REACTORS
330
47
102
}
330
47
100
AcDbScale
 70
     0
300
1:8
140
1.0
141
8.0
290
     0
  0
SCALE
  5
4D
102
{ACAD_REACTORS
330
47
102
}
330
47
100
AcDbScale
 70
     0
300
1:10
140
1.0
141
10.0
290
     0
  0
SCALE
  5
4E
102
{ACAD_REACTORS
330
47
102
}
330
47
100
AcDbScale
 70
     0
300
1:16
140
1.0
141
16.0
290
     0
  0
SCALE
  5
4F
102
{ACAD_REACTORS
330
47
102
}
330
47
100
AcDbScale
 70
     0
300
1:20
140
1.0
141
20.0
290
     0
  0
SCALE
  5
50
102
{ACAD_REACTORS
330
47
102
}
330
47
100
AcDbScale
 70
     0
300
1:30
140
1.0
141
30.0
290
     0
  0
SCALE
  5
51
102
{ACAD_REACTORS
330
47
102
}
330
47
100
AcDbScale
 70
     0
300
1:40
140
1.0
141
40.0
290
     0
  0
SCALE
  5
52
102
{ACAD_REACTORS
330
47
102
}
330
47
100
AcDbScale
 70
     0
300
1:50
140
1.0
141
50.0
290
     0
  0
SCALE
  5
53
102
{ACAD_REACTORS
330
47
102
}
330
47
100
AcDbScale
 70
     0
300
1:100
140
1.0
141
100.0
290
     0
  0
SCALE
  5
54
102
{ACAD_REACTORS
330
47
102
}
330
47
100
AcDbScale
 70
     0
300
2:1
140
2.0
141
1.0
290
     0
  0
SCALE
  5
55
102
{ACAD_REACTORS
330
47
102
}
330
47
100
AcDbScale
 70
     0
300
4:1
140
4.0
141
1.0
290
     0
  0
SCALE
  5
56
102
{ACAD_REACTORS
330
47
102
}
330
47
100
AcDbScale
 70
     0
300
8:1
140
8.0
141
1.0
290
     0
  0
SCALE
  5
57
102
{ACAD_REACTORS
330
47
102
}
330
47
100
AcDbScale
 70
     0
300
10:1
140
10.0
141
1.0
290
     0
  0
SCALE
  5
58
102
{ACAD_REACTORS
330
47
102
}
330
47
100
AcDbScale
 70
     0
300
100:1
140
100.0
141
1.0
290
     0
  0
SCALE
  5
59
102
{ACAD_REACTORS
330
47
102
}
330
47
100
AcDbScale
 70
     0
300
1/128" = 1'-0"
140
0.007812
141
12.0
290
     0
  0
SCALE
  5
5A
102
{ACAD_REACTORS
330
47
102
}
330
47
100
AcDbScale
 70
     0
300
1/64" = 1'-0"
140
0.015625
141
12.0
290
     0
  0
SCALE
  5
5B
102
{ACAD_REACTORS
330
47
102
}
330
47
100
AcDbScale
 70
     0
300
1/32" = 1'-0"
140
0.03125
141
12.0
290
     0
  0
SCALE
  5
5C
102
{ACAD_REACTORS
330
47
102
}
330
47
100
AcDbScale
 70
     0
300
1/16" = 1'-0"
140
0.0625
141
12.0
290
     0
  0
SCALE
  5
5D
102
{ACAD_REACTORS
330
47
102
}
330
47
100
AcDbScale
 70
     0
300
3/32" = 1'-0"
140
0.09375
141
12.0
290
     0
  0
SCALE
  5
5E
102
{ACAD_REACTORS
330
47
102
}
330
47
100
AcDbScale
 70
     0
300
1/8" = 1'-0"
140
0.125
141
12.0
290
     0
  0
SCALE
  5
5F
102
{ACAD_REACTORS
330
47
102
}
330
47
100
AcDbScale
 70
     0
300
3/16" = 1'-0"
140
0.1875
141
12.0
290
     0
  0
SCALE
  5
60
102
{ACAD_REACTORS
330
47
102
}
330
47
100
AcDbScale
 70
     0
300
1/4" = 1'-0"
140
0.25
141
12.0
290
     0
  0
SCALE
  5
61
102
{ACAD_REACTORS
330
47
102
}
330
47
100
AcDbScale
 70
     0
300
3/8" = 1'-0"
140
0.375
141
12.0
290
     0
  0
SCALE
  5
62
102
{ACAD_REACTORS
330
47
102
}
330
47
100
AcDbScale
 70
     0
300
1/2" = 1'-0"
140
0.5
141
12.0
290
     0
  0
SCALE
  5
63
102
{ACAD_REACTORS
330
47
102
}
330
47
100
AcDbScale
 70
     0
300
3/4" = 1'-0"
140
0.75
141
12.0
290
     0
  0
SCALE
  5
64
102
{ACAD_REACTORS
330
47
102
}
330
47
100
AcDbScale
 70
     0
300
1" = 1'-0"
140
1.0
141
12.0
290
     0
  0
SCALE
  5
65
102
{ACAD_REACTORS
330
47
102
}
330
47
100
AcDbScale
 70
     0
300
1-1/2" = 1'-0"
140
1.5
141
12.0
290
     0
  0
SCALE
  5
66
102
{ACAD_REACTORS
330
47
102
}
330
47
100
AcDbScale
 70
     0
300
3" = 1'-0"
140
3.0
141
12.0
290
     0
  0
SCALE
  5
67
102
{ACAD_REACTORS
330
47
102
}
330
47
100
AcDbScale
 70
     0
300
6" = 1'-0"
140
6.0
141
12.0
290
     0
  0
SCALE
  5
68
102
{ACAD_REACTORS
330
47
102
}
330
47
100
AcDbScale
 70
     0
300
1'-0" = 1'-0"
140
12.0
141
12.0
290
     0
  0
ENDSEC
  0
EOF
