  0
SECTION
  2
HEADER
  9
$ACADVER
  1
AC1014
  9
$ACADMAINTVER
 70
     9
  9
$DWGCODEPAGE
  3
ANSI_1252
  9
$INSBASE
 10
0.0
 20
0.0
 30
0.0
  9
$EXTMIN
 10
1.000000000000000E+20
 20
1.000000000000000E+20
 30
1.000000000000000E+20
  9
$EXTMAX
 10
-1.000000000000000E+20
 20
-1.000000000000000E+20
 30
-1.000000000000000E+20
  9
$LIMMIN
 10
0.0
 20
0.0
  9
$LIMMAX
 10
420.0
 20
297.0
  9
$ORTHOMODE
 70
     0
  9
$REGENMODE
 70
     1
  9
$FILLMODE
 70
     1
  9
$QTEXTMODE
 70
     0
  9
$MIRRTEXT
 70
     1
  9
$DRAGMODE
 70
     2
  9
$LTSCALE
 40
12.7
  9
$OSMODE
 70
    23
  9
$ATTMODE
 70
     1
  9
$TEXTSIZE
 40
3.5
  9
$TRACEWID
 40
1.0
  9
$TEXTSTYLE
  7
ONSHAPE-STANDARD
  9
$CLAYER
  8
0
  9
$CELTYPE
  6
BYLAYER
  9
$CECOLOR
 62
   256
  9
$CELTSCALE
 40
1.0
  9
$DELOBJ
 70
     1
  9
$DISPSILH
 70
     0
  9
$DIMSCALE
 40
1.0
  9
$DIMASZ
 40
2.5
  9
$DIMEXO
 40
0.625
  9
$DIMDLI
 40
3.75
  9
$DIMRND
 40
0.0
  9
$DIMDLE
 40
0.0
  9
$DIMEXE
 40
1.25
  9
$DIMTP
 40
0.0
  9
$DIMTM
 40
0.0
  9
$DIMTXT
 40
2.5
  9
$DIMCEN
 40
2.5
  9
$DIMTSZ
 40
0.0
  9
$DIMTOL
 70
     0
  9
$DIMLIM
 70
     0
  9
$DIMTIH
 70
     0
  9
$DIMTOH
 70
     0
  9
$DIMSE1
 70
     0
  9
$DIMSE2
 70
     0
  9
$DIMTAD
 70
     1
  9
$DIMZIN
 70
     8
  9
$DIMBLK
  1

  9
$DIMASO
 70
     1
  9
$DIMSHO
 70
     1
  9
$DIMPOST
  1

  9
$DIMAPOST
  1

  9
$DIMALT
 70
     0
  9
$DIMALTD
 70
     3
  9
$DIMALTF
 40
0.03937
  9
$DIMLFAC
 40
1.0
  9
$DIMTOFL
 70
     1
  9
$DIMTVP
 40
0.0
  9
$DIMTIX
 70
     0
  9
$DIMSOXD
 70
     0
  9
$DIMSAH
 70
     0
  9
$DIMBLK1
  1

  9
$DIMBLK2
  1

  9
$DIMSTYLE
  2
ONSHAPE-ISO-25
  9
$DIMCLRD
 70
     7
  9
$DIMCLRE
 70
     7
  9
$DIMCLRT
 70
     7
  9
$DIMTFAC
 40
1.0
  9
$DIMGAP
 40
0.625
  9
$DIMJUST
 70
     0
  9
$DIMSD1
 70
     0
  9
$DIMSD2
 70
     0
  9
$DIMTOLJ
 70
     0
  9
$DIMTZIN
 70
     8
  9
$DIMALTZ
 70
     8
  9
$DIMALTTZ
 70
     0
  9
$DIMFIT
 70
     3
  9
$DIMUPT
 70
     1
  9
$DIMUNIT
 70
     2
  9
$DIMDEC
 70
     2
  9
$DIMTDEC
 70
     3
  9
$DIMALTU
 70
     2
  9
$DIMALTTD
 70
     3
  9
$DIMTXSTY
  7
ONSHAPE-STANDARD-DIMENSION
  9
$DIMAUNIT
 70
     0
  9
$LUNITS
 70
     2
  9
$LUPREC
 70
     4
  9
$SKETCHINC
 40
1.0
  9
$FILLETRAD
 40
10.0
  9
$AUNITS
 70
     0
  9
$AUPREC
 70
     0
  9
$MENU
  1
.
  9
$ELEVATION
 40
0.0
  9
$PELEVATION
 40
0.0
  9
$THICKNESS
 40
0.0
  9
$LIMCHECK
 70
     0
  9
$CHAMFERA
 40
0.0
  9
$CHAMFERB
 40
0.0
  9
$CHAMFERC
 40
0.0
  9
$CHAMFERD
 40
0.0
  9
$SKPOLY
 70
     0
  9
$TDCREATE
 40
2458999.761145833
  9
$TDUPDATE
 40
2458999.761145833
  9
$TDINDWG
 40
0.0
  9
$TDUSRTIMER
 40
0.0
  9
$USRTIMER
 70
     1
  9
$ANGBASE
 50
0.0
  9
$ANGDIR
 70
     0
  9
$PDMODE
 70
     0
  9
$PDSIZE
 40
0.0
  9
$PLINEWID
 40
0.0
  9
$COORDS
 70
     1
  9
$SPLFRAME
 70
     0
  9
$SPLINETYPE
 70
     6
  9
$SPLINESEGS
 70
     8
  9
$ATTDIA
 70
     0
  9
$ATTREQ
 70
     1
  9
$HANDLING
 70
     1
  9
$HANDSEED
  5
135
  9
$SURFTAB1
 70
     6
  9
$SURFTAB2
 70
     6
  9
$SURFTYPE
 70
     6
  9
$SURFU
 70
     6
  9
$SURFV
 70
     6
  9
$UCSNAME
  2

  9
$UCSORG
 10
0.0
 20
0.0
 30
0.0
  9
$UCSXDIR
 10
1.0
 20
0.0
 30
0.0
  9
$UCSYDIR
 10
0.0
 20
1.0
 30
0.0
  9
$PUCSNAME
  2

  9
$PUCSORG
 10
0.0
 20
0.0
 30
0.0
  9
$PUCSXDIR
 10
1.0
 20
0.0
 30
0.0
  9
$PUCSYDIR
 10
0.0
 20
1.0
 30
0.0
  9
$USERI1
 70
     0
  9
$USERI2
 70
     0
  9
$USERI3
 70
     0
  9
$USERI4
 70
     0
  9
$USERI5
 70
     0
  9
$USERR1
 40
0.0
  9
$USERR2
 40
0.0
  9
$USERR3
 40
0.0
  9
$USERR4
 40
0.0
  9
$USERR5
 40
0.0
  9
$WORLDVIEW
 70
     1
  9
$SHADEDGE
 70
     3
  9
$SHADEDIF
 70
    70
  9
$TILEMODE
 70
     1
  9
$MAXACTVP
 70
    64
  9
$PINSBASE
 10
0.0
 20
0.0
 30
0.0
  9
$PLIMCHECK
 70
     0
  9
$PEXTMIN
 10
1.000000000000000E+20
 20
1.000000000000000E+20
 30
1.000000000000000E+20
  9
$PEXTMAX
 10
-1.000000000000000E+20
 20
-1.000000000000000E+20
 30
-1.000000000000000E+20
  9
$PLIMMIN
 10
0.0
 20
0.0
  9
$PLIMMAX
 10
420.0
 20
297.0
  9
$UNITMODE
 70
     0
  9
$VISRETAIN
 70
     1
  9
$PLINEGEN
 70
     0
  9
$PSLTSCALE
 70
     1
  9
$TREEDEPTH
 70
  3020
  9
$PICKSTYLE
 70
     1
  9
$CMLSTYLE
  2
STANDARD
  9
$CMLJUST
 70
     0
  9
$CMLSCALE
 40
20.0
  9
$PROXYGRAPHICS
 70
     1
  9
$MEASUREMENT
 70
     1
  0
ENDSEC
  0
SECTION
  2
CLASSES
  0
CLASS
  1
ACDBDICTIONARYWDFLT
  2
AcDbDictionaryWithDefault
  3
ObjectDBX Classes
 90
        0
280
     0
281
     0
  0
CLASS
  1
VISUALSTYLE
  2
AcDbVisualStyle
  3
ObjectDBX Classes
 90
     4095
280
     0
281
     0
  0
CLASS
  1
MATERIAL
  2
AcDbMaterial
  3
ObjectDBX Classes
 90
     1153
280
     0
281
     0
  0
CLASS
  1
SCALE
  2
AcDbScale
  3
ObjectDBX Classes
 90
     1153
280
     0
281
     0
  0
CLASS
  1
SUN
  2
AcDbSun
  3
SCENEOE
 90
     1153
280
     0
281
     0
  0
CLASS
  1
TABLESTYLE
  2
AcDbTableStyle
  3
ObjectDBX Classes
 90
     4095
280
     0
281
     0
  0
CLASS
  1
DICTIONARYVAR
  2
AcDbDictionaryVar
  3
ObjectDBX Classes
 90
        0
280
     0
281
     0
  0
CLASS
  1
XRECORD
  2
AcDbXrecord
  3
ObjectDBX Classes
 90
        0
280
     0
281
     0
  0
CLASS
  1
LWPOLYLINE
  2
AcDbPolyline
  3
ObjectDBX Classes
 90
        0
280
     0
281
     1
  0
CLASS
  1
HATCH
  2
AcDbHatch
  3
ObjectDBX Classes
 90
        0
280
     0
281
     1
  0
CLASS
  1
ACDBPLACEHOLDER
  2
AcDbPlaceHolder
  3
ObjectDBX Classes
 90
        0
280
     0
281
     0
  0
CLASS
  1
LAYOUT
  2
AcDbLayout
  3
ObjectDBX Classes
 90
        0
280
     0
281
     0
  0
ENDSEC
  0
SECTION
  2
TABLES
  0
TABLE
  2
VPORT
  5
8
330
0
100
AcDbSymbolTable
 70
     1
  0
VPORT
  5
29
330
8
100
AcDbSymbolTableRecord
100
AcDbViewportTableRecord
  2
*ACTIVE
 70
     0
 10
0.0
 20
0.0
 11
1.0
 21
1.0
 12
419.0266059562003
 22
218.6271474590356
 13
0.0
 23
0.0
 14
10.0
 24
10.0
 15
10.0
 25
10.0
 16
0.0
 26
0.0
 36
1.0
 17
0.0
 27
0.0
 37
0.0
 40
251.3510464363233
 41
1.034497585580346
 42
50.0
 43
0.0
 44
0.0
 50
0.0
 51
0.0
 71
     0
 72
   100
 73
     1
 74
     3
 75
     0
 76
     0
 77
     0
 78
     0
  0
ENDTAB
  0
TABLE
  2
LTYPE
  5
5
330
0
100
AcDbSymbolTable
 70
     1
  0
LTYPE
  5
14
330
5
100
AcDbSymbolTableRecord
100
AcDbLinetypeTableRecord
  2
BYBLOCK
 70
     0
  3

 72
    65
 73
     0
 40
0.0
  0
LTYPE
  5
15
330
5
100
AcDbSymbolTableRecord
100
AcDbLinetypeTableRecord
  2
BYLAYER
 70
     0
  3

 72
    65
 73
     0
 40
0.0
  0
LTYPE
  5
16
330
5
100
AcDbSymbolTableRecord
100
AcDbLinetypeTableRecord
  2
CONTINUOUS
 70
     0
  3
Solid line
 72
    65
 73
     0
 40
0.0
  0
ENDTAB
  0
TABLE
  2
LAYER
  5
2
330
0
100
AcDbSymbolTable
 70
     4
  0
LAYER
  5
10
330
2
100
AcDbSymbolTableRecord
100
AcDbLayerTableRecord
  2
0
 70
     0
 62
     7
  6
CONTINUOUS
  0
LAYER
  5
6E
330
2
100
AcDbSymbolTableRecord
100
AcDbLayerTableRecord
  2
DEFPOINTS
 70
     0
 62
     7
  6
CONTINUOUS
  0
LAYER
  5
75
330
2
100
AcDbSymbolTableRecord
100
AcDbLayerTableRecord
  2
ANNOTATION_TEXT
 70
     0
 62
     7
  6
CONTINUOUS
  0
LAYER
  5
78
330
2
100
AcDbSymbolTableRecord
100
AcDbLayerTableRecord
  2
VISIBLE
 70
     0
 62
     7
  6
CONTINUOUS
  0
ENDTAB
  0
TABLE
  2
STYLE
  5
3
330
0
100
AcDbSymbolTable
 70
    27
  0
STYLE
  5
11
330
3
100
AcDbSymbolTableRecord
100
AcDbTextStyleTableRecord
  2
STANDARD
 70
     0
 40
0.0
 41
1.0
 50
0.0
 71
     0
 42
3.5
  3
txt
  4

  0
STYLE
  5
6F
330
3
100
AcDbSymbolTableRecord
100
AcDbTextStyleTableRecord
  2
ONSHAPE-STANDARD
 70
     0
 40
0.0
 41
1.0
 50
0.0
 71
     0
 42
3.5
  3
NotoSans-Regular.ttf
  4

1001
ACAD
1000
Noto Sans
1071
        0
  0
STYLE
  5
71
330
3
100
AcDbSymbolTableRecord
100
AcDbTextStyleTableRecord
  2
ONSHAPE-STANDARD-DIMENSION
 70
     0
 40
0.0
 41
1.0
 50
0.0
 71
     0
 42
3.5
  3

  4

1001
ACAD
1000
Noto Sans
1071
        0
  0
STYLE
  5
77
330
3
100
AcDbSymbolTableRecord
100
AcDbTextStyleTableRecord
  2
ONSHAPE-STANDARD-VIEW-LABE
 70
     0
 40
2.5
 41
1.0
 50
0.0
 71
     0
 42
3.5
  3
Noto Sans
  4

1001
ACAD
1000
Noto Sans
1071
        0
  0
STYLE
  5
C5
330
3
100
AcDbSymbolTableRecord
100
AcDbTextStyleTableRecord
  2
ONSHAPE-STANDARD-BOLD
 70
     0
 40
0.0
 41
1.0
 50
0.0
 71
     0
 42
3.5
  3
NotoSans-Bold.ttf
  4

1001
ACAD
1000
Noto Sans
1071
 33554432
  0
STYLE
  5
C6
330
3
100
AcDbSymbolTableRecord
100
AcDbTextStyleTableRecord
  2
ONSHAPE-STANDARD-FIELDS
 70
     0
 40
0.0
 41
1.0
 50
0.0
 71
     0
 42
3.5
  3

  4

1001
ACAD
1000
Noto Sans
1071
        0
  0
STYLE
  5
C7
330
3
100
AcDbSymbolTableRecord
100
AcDbTextStyleTableRecord
  2
ONSHAPE-STANDARD-TCFIELDS
 70
     0
 40
0.0
 41
1.0
 50
0.0
 71
     0
 42
3.5
  3
NotoSansTC-Regular.otf
  4

1001
ACAD
1000
Noto Sans TC
1071
        0
  0
STYLE
  5
C8
330
3
100
AcDbSymbolTableRecord
100
AcDbTextStyleTableRecord
  2
ONSHAPE-STANDARD-SCFIELDS
 70
     0
 40
0.0
 41
1.0
 50
0.0
 71
     0
 42
3.5
  3
NotoSansSC-Regular.otf
  4

1001
ACAD
1000
Noto Sans SC
1071
        0
  0
STYLE
  5
C9
330
3
100
AcDbSymbolTableRecord
100
AcDbTextStyleTableRecord
  2
ONSHAPE-STANDARD-KOREANFIE
 70
     0
 40
0.0
 41
1.0
 50
0.0
 71
     0
 42
3.5
  3
NotoSansKR-Regular.otf
  4

1001
ACAD
1000
Noto Sans KR
1071
        0
  0
STYLE
  5
CB
330
3
100
AcDbSymbolTableRecord
100
AcDbTextStyleTableRecord
  2
TTFSTYLE
 70
     0
 40
0.0
 41
1.0
 50
0.0
 71
     0
 42
3.5
  3
Verdana.ttf
  4

1001
ACAD
1000
Verdana
1071
       34
  0
STYLE
  5
CC
330
3
100
AcDbSymbolTableRecord
100
AcDbTextStyleTableRecord
  2
ONSHAPE-STANDARD-GTOLERANC
 70
     0
 40
2.5
 41
1.0
 50
0.0
 71
     0
 42
3.5
  3

  4

1001
ACAD
1000
Noto Sans
1071
        0
  0
STYLE
  5
CD
330
3
100
AcDbSymbolTableRecord
100
AcDbTextStyleTableRecord
  2
ONSHAPE-STANDARD-TABLE-DAT
 70
     0
 40
0.0
 41
1.0
 50
0.0
 71
     0
 42
3.5
  3
Noto Sans
  4

1001
ACAD
1000
Noto Sans
1071
        0
  0
STYLE
  5
CE
330
3
100
AcDbSymbolTableRecord
100
AcDbTextStyleTableRecord
  2
ONSHAPE-STANDARD-TABLE-TIT
 70
     0
 40
0.0
 41
1.0
 50
0.0
 71
     0
 42
3.5
  3
Noto Sans
  4

1001
ACAD
1000
Noto Sans
1071
 33554432
  0
STYLE
  5
CF
330
3
100
AcDbSymbolTableRecord
100
AcDbTextStyleTableRecord
  2
ONSHAPE-STANDARD-TABLE-HEA
 70
     0
 40
0.0
 41
1.0
 50
0.0
 71
     0
 42
3.5
  3
Noto Sans
  4

1001
ACAD
1000
Noto Sans
1071
 33554432
  0
STYLE
  5
D0
330
3
100
AcDbSymbolTableRecord
100
AcDbTextStyleTableRecord
  2
ONSHAPE-STANDARD-BOMTABLE-
 70
     0
 40
0.0
 41
1.0
 50
0.0
 71
     0
 42
3.5
  3
Noto Sans
  4

1001
ACAD
1000
Noto Sans
1071
        0
  0
STYLE
  5
D1
330
3
100
AcDbSymbolTableRecord
100
AcDbTextStyleTableRecord
  2
ONSHAPE-STANDARD-BOMTABLE0
 70
     0
 40
0.0
 41
1.0
 50
0.0
 71
     0
 42
3.5
  3
Noto Sans
  4

1001
ACAD
1000
Noto Sans
1071
 33554432
  0
STYLE
  5
D2
330
3
100
AcDbSymbolTableRecord
100
AcDbTextStyleTableRecord
  2
ONSHAPE-STANDARD-BOMTABLE1
 70
     0
 40
0.0
 41
1.0
 50
0.0
 71
     0
 42
3.5
  3
Noto Sans
  4

1001
ACAD
1000
Noto Sans
1071
 33554432
  0
STYLE
  5
D3
330
3
100
AcDbSymbolTableRecord
100
AcDbTextStyleTableRecord
  2
ONSHAPE-STANDARD-NOTESTYLE
 70
     0
 40
2.5
 41
1.0
 50
0.0
 71
     0
 42
3.5
  3
Noto Sans
  4

1001
ACAD
1000
Noto Sans
1071
        0
  0
STYLE
  5
D5
330
3
100
AcDbSymbolTableRecord
100
AcDbTextStyleTableRecord
  2
ONSHAPE-STANDARD-HOLE-CALL
 70
     0
 40
2.5
 41
1.0
 50
0.0
 71
     0
 42
3.5
  3
Noto Sans
  4

1001
ACAD
1000
Noto Sans
1071
        0
  0
STYLE
  5
D6
330
3
100
AcDbSymbolTableRecord
100
AcDbTextStyleTableRecord
  2
ONSHAPE-STANDARD-HOLETABLE
 70
     0
 40
0.0
 41
1.0
 50
0.0
 71
     0
 42
3.5
  3
Noto Sans
  4

1001
ACAD
1000
Noto Sans
1071
        0
  0
STYLE
  5
D7
330
3
100
AcDbSymbolTableRecord
100
AcDbTextStyleTableRecord
  2
ONSHAPE-STANDARD-HOLETABL0
 70
     0
 40
0.0
 41
1.0
 50
0.0
 71
     0
 42
3.5
  3
Noto Sans
  4

1001
ACAD
1000
Noto Sans
1071
 33554432
  0
STYLE
  5
D8
330
3
100
AcDbSymbolTableRecord
100
AcDbTextStyleTableRecord
  2
ONSHAPE-STANDARD-HOLETABL1
 70
     0
 40
0.0
 41
1.0
 50
0.0
 71
     0
 42
3.5
  3
Noto Sans
  4

1001
ACAD
1000
Noto Sans
1071
 33554432
  0
STYLE
  5
D9
330
3
100
AcDbSymbolTableRecord
100
AcDbTextStyleTableRecord
  2
ONSHAPE-STANDARD-HOLE-TAG
 70
     0
 40
2.0
 41
1.0
 50
0.0
 71
     0
 42
3.5
  3
Noto Sans
  4

1001
ACAD
1000
Noto Sans
1071
        0
  0
STYLE
  5
DA
330
3
100
AcDbSymbolTableRecord
100
AcDbTextStyleTableRecord
  2
ONSHAPE-STANDARD-REVISIONT
 70
     0
 40
0.0
 41
1.0
 50
0.0
 71
     0
 42
3.5
  3
Noto Sans
  4

1001
ACAD
1000
Noto Sans
1071
        0
  0
STYLE
  5
DB
330
3
100
AcDbSymbolTableRecord
100
AcDbTextStyleTableRecord
  2
ONSHAPE-STANDARD-REVISION0
 70
     0
 40
0.0
 41
1.0
 50
0.0
 71
     0
 42
3.5
  3
Noto Sans
  4

1001
ACAD
1000
Noto Sans
1071
 33554432
  0
STYLE
  5
DC
330
3
100
AcDbSymbolTableRecord
100
AcDbTextStyleTableRecord
  2
ONSHAPE-STANDARD-REVISION1
 70
     0
 40
0.0
 41
1.0
 50
0.0
 71
     0
 42
3.5
  3
Noto Sans
  4

1001
ACAD
1000
Noto Sans
1071
 33554432
  0
STYLE
  5
DD
330
3
100
AcDbSymbolTableRecord
100
AcDbTextStyleTableRecord
  2
ONSHAPE-STANDARD-REVISION-
 70
     0
 40
2.0
 41
1.0
 50
0.0
 71
     0
 42
3.5
  3
Noto Sans
  4

1001
ACAD
1000
Noto Sans
1071
        0
  0
ENDTAB
  0
TABLE
  2
VIEW
  5
6
330
0
100
AcDbSymbolTable
 70
     0
  0
ENDTAB
  0
TABLE
  2
UCS
  5
7
330
0
100
AcDbSymbolTable
 70
     0
  0
ENDTAB
  0
TABLE
  2
APPID
  5
9
330
0
100
AcDbSymbolTable
 70
     1
  0
APPID
  5
12
330
9
100
AcDbSymbolTableRecord
100
AcDbRegAppTableRecord
  2
ACAD
 70
     0
  0
ENDTAB
  0
TABLE
  2
DIMSTYLE
  5
A
330
0
100
AcDbSymbolTable
 70
    18
  0
DIMSTYLE
105
27
330
A
100
AcDbSymbolTableRecord
100
AcDbDimStyleTableRecord
  2
ISO-25
 70
     0
  3

  4

  5

  6

  7

 40
1.0
 41
2.5
 42
0.625
 43
3.75
 44
1.25
 45
0.0
 46
0.0
 47
0.0
 48
0.0
140
2.5
141
2.5
142
0.0
143
0.03937007874016
144
1.0
145
0.0
146
1.0
147
0.625
 71
     0
 72
     0
 73
     0
 74
     0
 75
     0
 76
     0
 77
     1
 78
     8
170
     0
171
     3
172
     1
173
     0
174
     0
175
     0
176
     0
177
     0
178
     0
270
     2
271
     2
272
     2
273
     2
274
     3
340
11
275
     0
280
     0
281
     0
282
     0
283
     0
284
     8
285
     0
286
     0
287
     3
288
     0
  0
DIMSTYLE
105
70
330
A
100
AcDbSymbolTableRecord
100
AcDbDimStyleTableRecord
  2
ONSHAPE-ISO-25
 70
     0
  3

  4

  5

  6

  7

 40
1.0
 41
2.5
 42
0.625
 43
3.75
 44
1.25
 45
0.0
 46
0.0
 47
0.0
 48
0.0
140
2.5
141
2.5
142
0.0
143
0.03937
144
1.0
145
0.0
146
1.0
147
0.625
 71
     0
 72
     0
 73
     0
 74
     0
 75
     0
 76
     0
 77
     1
 78
     8
170
     0
171
     3
172
     1
173
     0
174
     0
175
     0
176
     7
177
     7
178
     7
179
     1
270
     2
271
     2
272
     3
273
     2
274
     3
340
71
275
     0
280
     0
281
     0
282
     0
283
     0
284
     8
285
     8
286
     0
287
     3
288
     1
  0
DIMSTYLE
105
E0
330
A
100
AcDbSymbolTableRecord
100
AcDbDimStyleTableRecord
  2
ISO
 70
     0
  3

  4
"
  5

  6

  7

 40
1.0
 41
3.5
 42
1.0
 43
10.0
 44
1.0
 45
0.0
 46
0.0
 47
0.1
 48
0.1
140
2.5
141
0.0
142
0.0
143
0.03937
144
1.0
145
0.0
146
0.71
147
1.5
 71
     0
 72
     0
 73
     0
 74
     0
 75
     0
 76
     0
 77
     1
 78
     8
170
     0
171
     3
172
     1
173
     0
174
     0
175
     0
176
     7
177
     7
178
     7
270
     2
271
     2
272
     3
273
     2
274
     3
340
11
275
     0
280
     0
281
     0
282
     0
283
     0
284
     8
285
     8
286
     0
287
     3
288
     1
  0
DIMSTYLE
105
E1
330
A
100
AcDbSymbolTableRecord
100
AcDbDimStyleTableRecord
  2
ISO$3
 70
     0
  3

  4
"
  5

  6

  7

 40
1.0
 41
3.5
 42
1.0
 43
10.0
 44
1.0
 45
0.0
 46
0.0
 47
0.1
 48
0.1
140
2.5
141
0.0
142
0.0
143
0.03937
144
1.0
145
0.0
146
0.71
147
1.5
 71
     0
 72
     0
 73
     0
 74
     0
 75
     0
 76
     0
 77
     1
 78
     8
170
     0
171
     3
172
     0
173
     0
174
     0
175
     0
176
     7
177
     7
178
     7
270
     2
271
     2
272
     3
273
     2
274
     3
340
11
275
     0
280
     0
281
     0
282
     0
283
     0
284
     8
285
     8
286
     0
288
     1
  0
DIMSTYLE
105
E2
330
A
100
AcDbSymbolTableRecord
100
AcDbDimStyleTableRecord
  2
ISO$4
 70
     0
  3

  4
"
  5

  6

  7

 40
1.0
 41
3.5
 42
1.0
 43
10.0
 44
1.0
 45
0.0
 46
0.0
 47
0.1
 48
0.1
140
2.5
141
0.0
142
0.0
143
0.03937
144
1.0
145
0.0
146
0.71
147
1.5
 71
     0
 72
     0
 73
     0
 74
     0
 75
     0
 76
     0
 77
     1
 78
     8
170
     0
171
     3
172
     1
173
     0
174
     0
175
     0
176
     7
177
     7
178
     7
270
     2
271
     2
272
     3
273
     2
274
     3
340
11
275
     0
280
     0
281
     0
282
     0
283
     0
284
     8
285
     8
286
     0
287
     3
288
     1
  0
DIMSTYLE
105
E3
330
A
100
AcDbSymbolTableRecord
100
AcDbDimStyleTableRecord
  2
ISO$6
 70
     0
  3

  4
"
  5

  6

  7

 40
1.0
 41
0.5
 42
1.0
 43
10.0
 44
1.0
 45
0.0
 46
0.0
 47
0.1
 48
0.1
140
2.5
141
0.0
142
0.0
143
0.03937
144
1.0
145
0.0
146
0.71
147
1.5
 71
     0
 72
     0
 73
     0
 74
     0
 75
     0
 76
     0
 77
     0
 78
     8
170
     0
171
     3
172
     1
173
     0
174
     0
175
     0
176
     7
177
     7
178
     7
270
     2
271
     2
272
     3
273
     2
274
     3
340
11
275
     0
280
     0
281
     0
282
     0
283
     0
284
     8
285
     8
286
     0
287
     3
288
     1
  0
DIMSTYLE
105
E4
330
A
100
AcDbSymbolTableRecord
100
AcDbDimStyleTableRecord
  2
ISO$7
 70
     0
  3

  4
"
  5

  6

  7

 40
1.0
 41
3.5
 42
1.0
 43
10.0
 44
1.0
 45
0.0
 46
0.0
 47
0.1
 48
0.1
140
2.5
141
0.0
142
0.0
143
0.03937
144
1.0
145
0.0
146
0.71
147
1.5
 71
     0
 72
     0
 73
     0
 74
     0
 75
     0
 76
     0
 77
     1
 78
     8
170
     0
171
     3
172
     1
173
     0
174
     0
175
     0
176
     7
177
     7
178
     7
270
     2
271
     2
272
     3
273
     2
274
     3
340
11
275
     0
280
     0
281
     0
282
     0
283
     0
284
     8
285
     8
286
     0
287
     3
288
     1
  0
DIMSTYLE
105
E5
330
A
100
AcDbSymbolTableRecord
100
AcDbDimStyleTableRecord
  2
ISO$SF
 70
     0
  3

  4
"
  5

  6

  7

 40
1.0
 41
3.5
 42
1.0
 43
10.0
 44
1.0
 45
0.0
 46
0.0
 47
0.1
 48
0.1
140
2.5
141
0.0
142
0.0
143
0.03937
144
1.0
145
0.0
146
0.71
147
1.5
 71
     0
 72
     0
 73
     0
 74
     0
 75
     1
 76
     1
 77
     1
 78
     8
170
     0
171
     3
172
     1
173
     0
174
     0
175
     0
176
     7
177
     7
178
     7
270
     2
271
     2
272
     3
273
     2
274
     3
340
11
275
     0
280
     0
281
     0
282
     0
283
     0
284
     8
285
     8
286
     0
287
     3
288
     1
  0
DIMSTYLE
105
E6
330
A
100
AcDbSymbolTableRecord
100
AcDbDimStyleTableRecord
  2
ISO$SH
 70
     0
  3

  4
"
  5

  6

  7

 40
1.0
 41
3.5
 42
1.0
 43
10.0
 44
1.0
 45
0.0
 46
0.0
 47
0.1
 48
0.1
140
2.5
141
0.0
142
0.0
143
0.03937
144
1.0
145
0.0
146
0.71
147
1.5
 71
     0
 72
     0
 73
     0
 74
     0
 75
     1
 76
     1
 77
     1
 78
     8
170
     0
171
     3
172
     1
173
     0
174
     0
175
     0
176
     7
177
     7
178
     7
270
     2
271
     2
272
     3
273
     2
274
     3
340
11
275
     0
280
     0
281
     0
282
     0
283
     0
284
     8
285
     8
286
     0
287
     3
288
     1
  0
DIMSTYLE
105
E9
330
A
100
AcDbSymbolTableRecord
100
AcDbDimStyleTableRecord
  2
ONSHAPE-ISO-25$0
 70
     0
  3

  4

  5

  6

  7

 40
1.0
 41
2.5
 42
0.625
 43
3.75
 44
1.25
 45
0.0
 46
0.0
 47
0.0
 48
0.0
140
2.5
141
2.5
142
0.0
143
0.03937
144
1.0
145
0.0
146
1.0
147
0.625
 71
     0
 72
     0
 73
     0
 74
     0
 75
     0
 76
     0
 77
     1
 78
     8
170
     0
171
     3
172
     1
173
     0
174
     0
175
     0
176
     7
177
     7
178
     7
179
     1
270
     2
271
     2
272
     3
273
     2
274
     3
340
71
275
     0
280
     0
281
     0
282
     0
283
     0
284
     8
285
     8
286
     0
287
     3
288
     1
  0
DIMSTYLE
105
EA
330
A
100
AcDbSymbolTableRecord
100
AcDbDimStyleTableRecord
  2
ONSHAPE-ISO-25$2
 70
     0
  3

  4

  5

  6

  7

 40
1.0
 41
2.5
 42
0.625
 43
3.75
 44
1.25
 45
0.0
 46
0.0
 47
0.0
 48
0.0
140
2.5
141
2.5
142
0.0
143
0.03937
144
1.0
145
0.0
146
1.0
147
0.625
 71
     0
 72
     0
 73
     0
 74
     0
 75
     0
 76
     0
 77
     1
 78
     8
170
     0
171
     3
172
     1
173
     0
174
     0
175
     0
176
     7
177
     7
178
     7
179
     1
270
     2
271
     2
272
     3
273
     2
274
     3
340
71
275
     0
280
     0
281
     0
282
     0
283
     0
284
     8
285
     8
286
     0
287
     3
288
     1
  0
DIMSTYLE
105
EB
330
A
100
AcDbSymbolTableRecord
100
AcDbDimStyleTableRecord
  2
ONSHAPE-ISO-25$3
 70
     0
  3

  4

  5

  6

  7

 40
1.0
 41
2.5
 42
0.625
 43
3.75
 44
1.25
 45
0.0
 46
0.0
 47
0.0
 48
0.0
140
2.5
141
0.0
142
0.0
143
0.03937
144
1.0
145
0.0
146
1.0
147
0.625
 71
     0
 72
     0
 73
     0
 74
     0
 75
     0
 76
     0
 77
     1
 78
     8
170
     0
171
     3
172
     1
173
     0
174
     0
175
     0
176
     7
177
     7
178
     7
179
     1
270
     2
271
     2
272
     3
273
     2
274
     3
340
71
275
     0
280
     0
281
     0
282
     0
283
     0
284
     8
285
     8
286
     0
287
     3
288
     1
  0
DIMSTYLE
105
EC
330
A
100
AcDbSymbolTableRecord
100
AcDbDimStyleTableRecord
  2
ONSHAPE-ISO-25$4
 70
     0
  3

  4

  5

  6

  7

 40
1.0
 41
2.5
 42
0.625
 43
3.75
 44
1.25
 45
0.0
 46
0.0
 47
0.0
 48
0.0
140
2.5
141
0.0
142
0.0
143
0.03937
144
1.0
145
0.0
146
1.0
147
0.625
 71
     0
 72
     0
 73
     0
 74
     0
 75
     0
 76
     0
 77
     1
 78
     8
170
     0
171
     3
172
     1
173
     0
174
     0
175
     0
176
     7
177
     7
178
     7
179
     1
270
     2
271
     2
272
     3
273
     2
274
     3
340
71
275
     0
280
     0
281
     0
282
     0
283
     0
284
     8
285
     8
286
     0
287
     3
288
     1
  0
DIMSTYLE
105
ED
330
A
100
AcDbSymbolTableRecord
100
AcDbDimStyleTableRecord
  2
ONSHAPE-ISO-25$6
 70
     0
  3

  4

  5

  6

  7

 40
1.0
 41
0.5
 42
0.625
 43
3.75
 44
1.25
 45
0.0
 46
0.0
 47
0.0
 48
0.0
140
2.5
141
2.5
142
0.0
143
0.03937
144
1.0
145
0.0
146
1.0
147
0.625
 71
     0
 72
     0
 73
     0
 74
     0
 75
     0
 76
     0
 77
     1
 78
     8
170
     0
171
     3
172
     1
173
     0
174
     0
175
     0
176
     7
177
     7
178
     7
179
     1
270
     2
271
     2
272
     3
273
     2
274
     3
340
71
275
     0
280
     0
281
     0
282
     0
283
     0
284
     8
285
     8
286
     0
287
     3
288
     1
  0
DIMSTYLE
105
EE
330
A
100
AcDbSymbolTableRecord
100
AcDbDimStyleTableRecord
  2
ONSHAPE-ISO-25$7
 70
     0
  3

  4

  5

  6

  7

 40
1.0
 41
2.5
 42
0.625
 43
3.75
 44
1.25
 45
0.0
 46
0.0
 47
0.0
 48
0.0
140
2.5
141
2.5
142
0.0
143
0.03937
144
1.0
145
0.0
146
1.0
147
0.625
 71
     0
 72
     0
 73
     0
 74
     0
 75
     0
 76
     0
 77
     1
 78
     8
170
     0
171
     3
172
     1
173
     0
174
     0
175
     0
176
     7
177
     7
178
     7
179
     1
270
     2
271
     2
272
     3
273
     2
274
     3
340
71
275
     0
280
     0
281
     0
282
     0
283
     0
284
     8
285
     8
286
     0
287
     3
288
     1
  0
DIMSTYLE
105
EF
330
A
100
AcDbSymbolTableRecord
100
AcDbDimStyleTableRecord
  2
ONSHAPE-STANDARD-GTOLERANC
 70
     0
  3

  4

  5

  6

  7

 40
1.0
 41
2.5
 42
0.625
 43
3.75
 44
1.25
 45
0.0
 46
0.0
 47
0.0
 48
0.0
140
2.5
141
2.5
142
0.0
143
0.03937
144
1.0
145
0.0
146
1.0
147
0.625
 71
     0
 72
     0
 73
     0
 74
     0
 75
     0
 76
     0
 77
     1
 78
     8
170
     0
171
     3
172
     1
173
     0
174
     0
175
     0
176
     7
177
     7
178
     7
179
     1
270
     2
271
     2
272
     3
273
     2
274
     3
340
CC
275
     0
280
     0
281
     0
282
     0
283
     0
284
     8
285
     8
286
     0
287
     3
288
     1
  0
DIMSTYLE
105
F1
330
A
100
AcDbSymbolTableRecord
100
AcDbDimStyleTableRecord
  2
ONSHAPE-ORDINATESTYLE
 70
     0
  3

  4

  5

  6

  7

 40
1.0
 41
2.5
 42
0.625
 43
3.75
 44
1.25
 45
0.0
 46
0.0
 47
0.0
 48
0.0
140
2.5
141
2.5
142
0.0
143
0.03937
144
1.0
145
0.0
146
1.0
147
0.625
 71
     0
 72
     0
 73
     0
 74
     0
 75
     0
 76
     0
 77
     1
 78
     8
170
     0
171
     3
172
     1
173
     0
174
     0
175
     0
176
     7
177
     7
178
     7
179
     1
270
     2
271
     2
272
     3
273
     2
274
     3
340
71
275
     0
280
     0
281
     0
282
     0
283
     0
284
     8
285
     8
286
     0
287
     3
288
     1
  0
DIMSTYLE
105
F2
330
A
100
AcDbSymbolTableRecord
100
AcDbDimStyleTableRecord
  2
ONSHAPE-CHAMFERDIMSTYLE
 70
     0
  3

  4

  5

  6

  7

 40
1.0
 41
2.5
 42
0.625
 43
3.75
 44
1.25
 45
0.0
 46
0.0
 47
0.0
 48
0.0
140
2.5
141
2.5
142
0.0
143
0.03937
144
1.0
145
0.0
146
1.0
147
0.625
 71
     0
 72
     0
 73
     0
 74
     0
 75
     0
 76
     0
 77
     1
 78
     8
170
     0
171
     3
172
     1
173
     0
174
     0
175
     0
176
     7
177
     7
178
     7
179
     1
270
     2
271
     2
272
     3
273
     2
274
     3
340
71
275
     0
280
     0
281
     0
282
     0
283
     0
284
     8
285
     8
286
     0
287
     3
288
     1
  0
ENDTAB
  0
TABLE
  2
BLOCK_RECORD
  5
1
330
0
100
AcDbSymbolTable
 70
     1
  0
BLOCK_RECORD
  5
1F
330
1
100
AcDbSymbolTableRecord
100
AcDbBlockTableRecord
  2
*MODEL_SPACE
  0
BLOCK_RECORD
  5
1B
330
1
100
AcDbSymbolTableRecord
100
AcDbBlockTableRecord
  2
*PAPER_SPACE
  0
ENDTAB
  0
ENDSEC
  0
SECTION
  2
BLOCKS
  0
BLOCK
  5
20
330
1F
100
AcDbEntity
  8
0
100
AcDbBlockBegin
  2
*MODEL_SPACE
 70
     0
 10
0.0
 20
0.0
 30
0.0
  3
*MODEL_SPACE
  1

  0
ENDBLK
  5
21
330
1F
100
AcDbEntity
  8
0
100
AcDbBlockEnd
  0
BLOCK
  5
1C
330
1B
100
AcDbEntity
 67
     1
  8
0
100
AcDbBlockBegin
  2
*PAPER_SPACE
 70
     0
 10
0.0
 20
0.0
 30
0.0
  3
*PAPER_SPACE
  1

  0
ENDBLK
  5
1D
330
1B
100
AcDbEntity
 67
     1
  8
0
100
AcDbBlockEnd
  0
ENDSEC
  0
SECTION
  2
ENTITIES
  0
MTEXT
  5
72
102
{ACAD_XDICTIONARY
360
73
102
}
330
1F
100
AcDbEntity
  8
ANNOTATION_TEXT
 62
     7
 60
     1
100
AcDbMText
 10
419.0266059562003
 20
81.41967123184426
 30
0.0
 40
2.5
 41
0.0
 71
     2
 72
     1
  1

  7
ONSHAPE-STANDARD-VIEW-LABE
1001
ACAD
1000
ACAD_MTEXT_DEFINED_HEIGHT_BEGIN
1070
    46
1040
2.5
1000
ACAD_MTEXT_DEFINED_HEIGHT_END
  0
CIRCLE
  5
7A
330
1F
100
AcDbEntity
  8
VISIBLE
100
AcDbCircle
 10
404.5513712458103
 20
158.0731477375312
 30
0.0
 40
3.2
  0
CIRCLE
  5
7B
330
1F
100
AcDbEntity
  8
VISIBLE
100
AcDbCircle
 10
434.0320832771213
 20
137.4118888666657
 30
0.0
 40
3.2
  0
ARC
  5
7C
330
1F
100
AcDbEntity
  8
VISIBLE
100
AcDbCircle
 10
381.8155748150206
 20
172.6531184115309
 30
0.0
 40
10.0
100
AcDbArc
 50
326.3877999612268
 51
29.9999999999211
  0
LINE
  5
7D
330
1F
100
AcDbEntity
  8
VISIBLE
100
AcDbLine
 10
360.7256869764249
 20
229.1818756738843
 30
0.0
 11
390.475828852875
 21
177.6531184115208
 31
0.0
  0
SPLINE
  5
7E
330
1F
100
AcDbEntity
  8
VISIBLE
100
AcDbSpline
210
0.0
220
0.0
230
1.0
 70
     8
 71
     3
 72
    26
 73
    22
 74
     0
 42
0.000000001
 43
0.0000000329580746
 40
0.0
 40
0.0
 40
0.0
 40
0.0
 40
1.07374390597295
 40
1.07374390597295
 40
1.07374390597295
 40
2.1474878119459
 40
2.1474878119459
 40
2.1474878119459
 40
3.22123171791885
 40
3.22123171791885
 40
3.22123171791885
 40
4.2949756238918
 40
4.2949756238918
 40
4.2949756238918
 40
5.36871952986475
 40
5.36871952986475
 40
5.36871952986475
 40
6.4424634358377
 40
6.4424634358377
 40
6.4424634358377
 40
7.516207341810651
 40
7.516207341810651
 40
7.516207341810651
 40
7.516207341810651
 10
360.7256869764149
 20
229.1818756738944
 30
0.0
 10
358.9412753144966
 20
232.2725673339569
 30
0.0
 10
356.5801064493958
 20
235.0293561081581
 30
0.0
 10
353.8010598091458
 20
237.2679524200898
 30
0.0
 10
351.0220131688959
 20
239.5065487320217
 30
0.0
 10
347.8250887534965
 20
241.2269525816841
 30
0.0
 10
344.4254913914713
 20
242.3114647933861
 30
0.0
 10
341.025894029446
 20
243.3959770050881
 30
0.0
 10
337.4236237207949
 20
243.8445975788296
 30
0.0
 10
333.8614505379387
 20
243.629274487684
 30
0.0
 10
330.2992773550824
 20
243.4139513965385
 30
0.0
 10
326.7772012980212
 20
242.5346846405059
 30
0.0
 10
323.5330561593545
 20
241.0485842372333
 30
0.0
 10
320.2889110206877
 20
239.5624838339606
 30
0.0
 10
317.3226968004158
 20
237.4695497834481
 30
0.0
 10
314.8332420676788
 20
234.9126175061708
 30
0.0
 10
312.3437873349428
 20
232.3556852288935
 30
0.0
 10
310.3310920897428
 20
229.3347547248518
 30
0.0
 10
308.9320308995378
 20
226.0520894060173
 30
0.0
 10
307.5329697093318
 20
222.7694240871828
 30
0.0
 10
306.7475425741208
 20
219.2250239535556
 30
0.0
 10
306.6273903689448
 20
215.6582237959407
 30
0.0
  0
SPLINE
  5
7F
330
1F
100
AcDbEntity
  8
VISIBLE
100
AcDbSpline
210
0.0
220
0.0
230
1.0
 70
     8
 71
     3
 72
    26
 73
    22
 74
     0
 42
0.000000001
 43
0.000000029509236
 40
-0.185949697350682
 40
-0.185949697350682
 40
-0.185949697350682
 40
-0.185949697350682
 40
-0.183173132282056
 40
-0.183173132282056
 40
-0.183173132282056
 40
-0.165885737663811
 40
-0.165885737663811
 40
-0.165885737663811
 40
-0.145150020455834
 40
-0.145150020455834
 40
-0.145150020455834
 40
-0.125247834595181
 40
-0.125247834595181
 40
-0.125247834595181
 40
-0.100126794055457
 40
-0.100126794055457
 40
-0.100126794055457
 40
-0.0759980926475729
 40
-0.0759980926475729
 40
-0.0759980926475729
 40
-0.0569695972434229
 40
-0.0569695972434229
 40
-0.0569695972434229
 40
-0.0569695972434229
 10
340.4200374619999
 20
136.2058918851854
 30
0.0
 10
339.9374949058085
 20
136.6218572049846
 30
0.0
 10
339.461639377537
 20
137.0369274190419
 30
0.0
 10
338.9938129393595
 20
137.4501072208124
 30
0.0
 10
336.0810412053171
 20
140.0226391460341
 30
0.0
 10
333.4939794028705
 20
142.5106274133401
 30
0.0
 10
331.2090555806136
 20
144.9920257954981
 30
0.0
 10
328.4683572124462
 20
147.968389572073
 30
0.0
 10
326.1078669695887
 20
150.9776742908512
 30
0.0
 10
323.7907564302537
 20
154.5193112741071
 30
0.0
 10
321.5667887636911
 20
157.9185820485277
 30
0.0
 10
319.3832551569253
 20
161.831521370806
 30
0.0
 10
317.3289288592939
 20
166.1623782771946
 30
0.0
 10
314.7359064362328
 20
171.6288950044964
 30
0.0
 10
312.3873721751258
 20
177.6943033343898
 30
0.0
 10
310.6146121430328
 20
183.7669495883368
 30
0.0
 10
308.9118802273468
 20
189.5997122872187
 30
0.0
 10
307.7392165791678
 20
195.4193557217747
 30
0.0
 10
307.1145700629078
 20
201.3258258802553
 30
0.0
 10
306.6219582491608
 20
205.9838154821604
 30
0.0
 10
306.4616526441108
 20
210.7381863967807
 30
0.0
 10
306.6273903689448
 20
215.6582237959403
 30
0.0
  0
SPLINE
  5
80
330
1F
100
AcDbEntity
  8
VISIBLE
100
AcDbSpline
210
0.0
220
0.0
230
1.0
 70
     8
 71
     3
 72
    14
 73
    10
 74
     0
 42
0.000000001
 43
0.0000000271495506
 40
0.0
 40
0.0
 40
0.0
 40
0.0
 40
1.53863320015758
 40
1.53863320015758
 40
1.53863320015758
 40
2.5643886669293
 40
2.5643886669293
 40
2.5643886669293
 40
3.59014413370102
 40
3.59014413370102
 40
3.59014413370102
 40
3.59014413370102
 10
340.4200374620747
 20
136.2058918851208
 30
0.0
 10
344.2954578538938
 20
132.865169990328
 30
0.0
 10
349.0718462507431
 20
130.5799363633476
 30
0.0
 10
354.1021424481211
 20
129.6512427541184
 30
0.0
 10
357.4556732463732
 20
129.0321136812989
 30
0.0
 10
360.9220519559714
 20
129.0158912830354
 30
0.0
 10
364.2833135231887
 20
129.5956034470233
 30
0.0
 10
367.644575090406
 20
130.1753156110112
 30
0.0
 10
370.9007195152424
 20
131.3509623372505
 30
0.0
 10
373.8547735652829
 20
133.0564862382411
 30
0.0
  0
LINE
  5
81
330
1F
100
AcDbEntity
  8
VISIBLE
100
AcDbLine
 10
379.3811271520434
 20
136.2471279691965
 30
0.0
 11
373.8547735652929
 21
133.0564862382511
 31
0.0
  0
ARC
  5
82
330
1F
100
AcDbEntity
  8
VISIBLE
100
AcDbCircle
 10
374.3811271520334
 20
144.9073820070309
 30
0.0
 40
10.0
100
AcDbArc
 50
300.0000000000786
 51
3.61220003881059
  0
ARC
  5
83
330
1F
100
AcDbEntity
  8
VISIBLE
100
AcDbCircle
 10
419.2917272614558
 20
147.7425183020885
 30
0.0000000000000014
 40
35.0
100
AcDbArc
 50
146.3877999612203
 51
183.6122000387417
  0
ARC
  5
84
330
1F
100
AcDbEntity
  8
VISIBLE
100
AcDbCircle
 10
422.1268635565335
 20
192.6531184115308
 30
0.0
 40
10.0
100
AcDbArc
 50
266.3877999611891
 51
329.9999999999224
  0
LINE
  5
85
330
1F
100
AcDbEntity
  8
VISIBLE
100
AcDbLine
 10
481.0754625478236
 20
274.7550868994565
 30
0.0
 11
430.7871175943678
 21
187.6531184115209
 31
0.0
  0
SPLINE
  5
86
330
1F
100
AcDbEntity
  8
VISIBLE
100
AcDbSpline
210
0.0
220
0.0
230
1.0
 70
     8
 71
     3
 72
    17
 73
    13
 74
     0
 42
0.000000001
 43
0.0000000468210318
 40
0.0
 40
0.0
 40
0.0
 40
0.0
 40
0.674700518966207
 40
0.674700518966207
 40
0.674700518966207
 40
2.02410155689862
 40
2.02410155689862
 40
2.02410155689862
 40
3.37350259483103
 40
3.37350259483103
 40
3.37350259483103
 40
4.72290363276344
 40
4.72290363276344
 40
4.72290363276344
 40
4.72290363276344
 10
481.0754625478338
 20
274.7550868994664
 30
0.0
 10
482.1970826109637
 20
276.6977898355965
 30
0.0
 10
483.0946602667281
 20
278.7704992783445
 30
0.0
 10
483.7388421215849
 20
280.9190191138424
 30
0.0
 10
485.0272058312987
 20
285.2160587848375
 30
0.0
 10
485.3019863373827
 20
289.8163400268314
 30
0.0
 10
484.5317556940849
 20
294.2348822081944
 30
0.0
 10
483.761525050787
 20
298.6534243895585
 30
0.0
 10
481.9462832581074
 20
302.8902275102915
 30
0.0
 10
479.2793898230925
 20
306.4966332420664
 30
0.0
 10
476.6124963880775
 20
310.1030389738405
 30
0.0
 10
473.0939513107272
 20
313.0790473166564
 30
0.0
 10
469.0939068274257
 20
315.1108320463615
 30
0.0
  0
SPLINE
  5
87
330
1F
100
AcDbEntity
  8
VISIBLE
100
AcDbSpline
210
0.0
220
0.0
230
1.0
 70
     8
 71
     3
 72
    20
 73
    16
 74
     0
 42
0.000000001
 43
0.0000000464720882
 40
-0.903997743913963
 40
-0.903997743913963
 40
-0.903997743913963
 40
-0.903997743913963
 40
-0.892247596325926
 40
-0.892247596325926
 40
-0.892247596325926
 40
-0.858080289576275
 40
-0.858080289576275
 40
-0.858080289576275
 40
-0.8319034904116119
 40
-0.8319034904116119
 40
-0.8319034904116119
 40
-0.80096706762133
 40
-0.80096706762133
 40
-0.80096706762133
 40
-0.783137869995808
 40
-0.783137869995808
 40
-0.783137869995808
 40
-0.783137869995808
 10
370.1911667498966
 20
315.0745067205864
 30
0.0
 10
373.1709387128457
 20
316.5124747479884
 30
0.0
 10
376.2490831374647
 20
317.8391140859235
 30
0.0
 10
379.4226453308594
 20
319.0448502870585
 30
0.0
 10
388.6507909467675
 20
322.5509133670905
 30
0.0
 10
398.6598734963239
 20
325.0057633865045
 30
0.0
 10
408.5055918609144
 20
326.1409651405045
 30
0.0
 10
416.0487498320751
 20
327.0106839200245
 30
0.0
 10
423.4510558522537
 20
327.1123823279174
 30
0.0
 10
430.5989713759328
 20
326.4575827428284
 30
0.0
 10
439.0465640444922
 20
325.6837235448495
 30
0.0
 10
447.2119567781223
 20
323.8621970300854
 30
0.0
 10
455.2910184354469
 20
321.0219372484664
 30
0.0
 10
459.9471219511532
 20
319.3850462188345
 30
0.0
 10
464.5754997453503
 20
317.4059141511485
 30
0.0
 10
469.093906827537
 20
315.1108320463055
 30
0.0
  0
SPLINE
  5
88
330
1F
100
AcDbEntity
  8
VISIBLE
100
AcDbSpline
210
0.0
220
0.0
230
1.0
 70
     8
 71
     3
 72
    17
 73
    13
 74
     0
 42
0.000000001
 43
0.0000000390797007
 40
0.0
 40
0.0
 40
0.0
 40
0.0
 40
0.683167272277166
 40
0.683167272277166
 40
0.683167272277166
 40
2.0495018168315
 40
2.0495018168315
 40
2.0495018168315
 40
3.41583636138583
 40
3.41583636138583
 40
3.41583636138583
 40
4.78217090594016
 40
4.78217090594016
 40
4.78217090594016
 40
4.78217090594016
 10
370.1911667499758
 20
315.0745067206244
 30
0.0
 10
368.1455374600772
 20
314.0873340270895
 30
0.0
 10
366.2147670954121
 20
312.8607548491515
 30
0.0
 10
364.4557215067102
 20
311.4241698111515
 30
0.0
 10
360.9376303293063
 20
308.5509997351535
 30
0.0
 10
358.1064382557547
 20
304.8378062189084
 30
0.0
 10
356.2701278020033
 20
300.6842820732714
 30
0.0
 10
354.433817348252
 20
296.5307579276355
 30
0.0
 10
353.5923885143009
 20
291.9369031526085
 30
0.0
 10
353.8361663607333
 20
287.4019064410795
 30
0.0
 10
354.0799442071659
 20
282.8669097295515
 30
0.0
 10
355.4089287339818
 20
278.3907710815234
 30
0.0
 10
357.6802959694901
 20
274.4566476269695
 30
0.0
  0
LINE
  5
89
330
1F
100
AcDbEntity
  8
VISIBLE
100
AcDbLine
 10
407.7963369285638
 20
187.6531184115208
 30
0.0
 11
357.6802959695002
 21
274.4566476269595
 31
0.0
  0
ARC
  5
8A
330
1F
100
AcDbEntity
  8
VISIBLE
100
AcDbCircle
 10
416.4565909663982
 20
192.6531184115309
 30
0.0
 40
10.0
100
AcDbArc
 50
210.0000000000788
 51
273.6122000388106
  0
ARC
  5
8B
330
1F
100
AcDbEntity
  8
VISIBLE
100
AcDbCircle
 10
419.2917272614558
 20
147.7425183020885
 30
-0.0000000000000021
 40
35.0
100
AcDbArc
 50
86.38779996122769
 51
93.61220003873967
  0
ARC
  5
8C
330
1F
100
AcDbEntity
  8
VISIBLE
100
AcDbCircle
 10
464.2023273708982
 20
144.9073820070309
 30
0.0
 40
10.0
100
AcDbArc
 50
176.3877999611894
 51
239.9999999999218
  0
LINE
  5
8D
330
1F
100
AcDbEntity
  8
VISIBLE
100
AcDbLine
 10
465.3084305738826
 20
132.721767641248
 30
0.0
 11
459.2023273708882
 21
136.2471279691965
 31
0.0
  0
SPLINE
  5
8E
330
1F
100
AcDbEntity
  8
VISIBLE
100
AcDbSpline
210
0.0
220
0.0
230
1.0
 70
     8
 71
     3
 72
    14
 73
    10
 74
     0
 42
0.000000001
 43
0.0000000385460246
 40
0.0
 40
0.0
 40
0.0
 40
0.0
 40
1.58066482873596
 40
1.58066482873596
 40
1.58066482873596
 40
2.63444138122659
 40
2.63444138122659
 40
2.63444138122659
 40
3.68821793371723
 40
3.68821793371723
 40
3.68821793371723
 40
3.68821793371723
 10
465.3084305738926
 20
132.721767641238
 30
0.0
 10
469.8604244345321
 20
130.0936727604482
 30
0.0
 10
475.1389412344678
 20
128.7393420245793
 30
0.0
 10
480.3926653444827
 20
128.8427502696589
 30
0.0
 10
483.8951480844926
 20
128.9116890997118
 30
0.0
 10
487.3866118512045
 20
129.6285119212974
 30
0.0
 10
490.6370774309321
 20
130.9369875726576
 30
0.0
 10
493.8875430106598
 20
132.2454632240178
 30
0.0
 10
496.8970104034033
 20
134.1455917051526
 30
0.0
 10
499.4725266633184
 20
136.5216427519562
 30
0.0
  0
SPLINE
  5
8F
330
1F
100
AcDbEntity
  8
VISIBLE
100
AcDbSpline
210
0.0
220
0.0
230
1.0
 70
     8
 71
     3
 72
    20
 73
    16
 74
     0
 42
0.000000001
 43
0.0000000446407761
 40
-0.630279558271852
 40
-0.630279558271852
 40
-0.630279558271852
 40
-0.630279558271852
 40
-0.603721381855033
 40
-0.603721381855033
 40
-0.603721381855033
 40
-0.585783384607926
 40
-0.585783384607926
 40
-0.585783384607926
 40
-0.557293347938909
 40
-0.557293347938909
 40
-0.557293347938909
 40
-0.531592989667515
 40
-0.531592989667515
 40
-0.531592989667515
 40
-0.509511300126811
 40
-0.509511300126811
 40
-0.509511300126811
 40
-0.509511300126811
 10
531.4494832382029
 20
212.7493639677822
 30
0.0
 10
531.1626421648898
 20
204.9084764102475
 30
0.0
 10
530.1125294962299
 20
196.7294285362718
 30
0.0
 10
528.5702352097248
 20
189.4657986276784
 30
0.0
 10
527.5285345209668
 20
184.5597775492944
 30
0.0
 10
526.2771206468539
 20
180.0995994989071
 30
0.0
 10
524.9141226989578
 20
176.1824070201922
 30
0.0
 10
522.7493402552759
 20
169.9609233271796
 30
0.0
 10
520.3212924692098
 20
165.0245082342886
 30
0.0
 10
517.4724329974167
 20
160.0623434081021
 30
0.0
 10
514.9025272461353
 20
155.5860622675658
 30
0.0
 10
512.0170856353216
 20
151.0952047555449
 30
0.0
 10
508.8005117145
 20
146.8539328344164
 30
0.0
 10
506.0368386966277
 20
143.2098416186196
 30
0.0
 10
502.978925677525
 20
139.7564827636015
 30
0.0
 10
499.4725266633184
 20
136.5216427519562
 30
0.0
  0
SPLINE
  5
90
330
1F
100
AcDbEntity
  8
VISIBLE
100
AcDbSpline
210
0.0
220
0.0
230
1.0
 70
     8
 71
     3
 72
    26
 73
    22
 74
     0
 42
0.000000001
 43
0.0000000461717122
 40
0.0
 40
0.0
 40
0.0
 40
0.0
 40
1.10304817615237
 40
1.10304817615237
 40
1.10304817615237
 40
2.20609635230474
 40
2.20609635230474
 40
2.20609635230474
 40
3.3091445284571
 40
3.3091445284571
 40
3.3091445284571
 40
4.41219270460947
 40
4.41219270460947
 40
4.41219270460947
 40
5.515240880761841
 40
5.515240880761841
 40
5.515240880761841
 40
6.618289056914199
 40
6.618289056914199
 40
6.618289056914199
 40
7.72133723306657
 40
7.72133723306657
 40
7.72133723306657
 40
7.72133723306657
 10
531.4494832382029
 20
212.7493639677822
 30
0.0
 10
531.5834993453268
 20
216.4127348188371
 30
0.0
 10
531.0152453063888
 20
220.1018024567294
 30
0.0
 10
529.7836588540208
 20
223.553995552242
 30
0.0
 10
528.5520724016518
 20
227.0061886477547
 30
0.0
 10
526.6571535358528
 20
230.2215072008877
 30
0.0
 10
524.2349888002459
 20
232.9728589292897
 30
0.0
 10
521.8128240646379
 20
235.7242106576916
 30
0.0
 10
518.8634134592221
 20
238.0115955613624
 30
0.0
 10
515.5950806724011
 20
239.6705456256993
 30
0.0
 10
512.3267478855801
 20
241.3294956900361
 30
0.0
 10
508.7394929173539
 20
242.3600109150393
 30
0.0
 10
505.0888335731901
 20
242.6912158726111
 30
0.0
 10
501.4381742290265
 20
243.0224208301829
 30
0.0
 10
497.724110508925
 20
242.6543155203233
 30
0.0
 10
494.2105090624258
 20
241.6106417651277
 30
0.0
 10
490.6969076159265
 20
240.5669680099319
 30
0.0
 10
487.3837684430295
 20
238.8477258093999
 30
0.0
 10
484.5063023018431
 20
236.5770459032323
 30
0.0
 10
481.6288361606569
 20
234.3063659970645
 30
0.0
 10
479.1870430511815
 20
231.484248385261
 30
0.0
 10
477.3541323666876
 20
228.3095539539818
 30
0.0
  0
LINE
  5
91
330
1F
100
AcDbEntity
  8
VISIBLE
100
AcDbLine
 10
448.1076256700566
 20
177.6531184115208
 30
0.0
 11
477.3541323666776
 21
228.3095539539718
 31
0.0
  0
ARC
  5
92
330
1F
100
AcDbEntity
  8
VISIBLE
100
AcDbCircle
 10
456.767879707911
 20
172.6531184115308
 30
0.0
 40
10.0
100
AcDbArc
 50
150.0000000000784
 51
213.6122000387726
  0
ARC
  5
93
330
1F
100
AcDbEntity
  8
VISIBLE
100
AcDbCircle
 10
419.2917272614558
 20
147.7425183020885
 30
-0.0000000000000025
 40
35.0
100
AcDbArc
 50
356.3877999612604
 51
33.61220003876161
  0
ARC
  5
94
330
1F
100
AcDbEntity
  8
VISIBLE
100
AcDbCircle
 10
386.7355254449549
 20
232.4497815074124
 30
0.0000000000000002
 40
80.0
100
AcDbArc
 50
127.6732890272521
 51
145.2639386387242
  0
LINE
  5
95
330
1F
100
AcDbEntity
  8
VISIBLE
100
AcDbLine
 10
338.9786768368054
 20
294.2994940336625
 30
0.0
 11
337.8428766650187
 21
295.7704645050944
 31
0.0
  0
ARC
  5
96
330
1F
100
AcDbEntity
  8
VISIBLE
100
AcDbCircle
 10
339.5723082398829
 20
294.7578626159725
 30
0.0
 40
0.75
100
AcDbArc
 50
217.6732890283424
 51
337.6732890264253
  0
LINE
  5
97
330
1F
100
AcDbEntity
  8
VISIBLE
100
AcDbLine
 10
343.0076842654551
 20
301.1487956326525
 30
0.0
 11
340.2660827780027
 21
294.4729470315494
 31
0.0
  0
ARC
  5
98
330
1F
100
AcDbEntity
  8
VISIBLE
100
AcDbCircle
 10
342.3139097353799
 20
301.4337112137724
 30
0.0
 40
0.75
100
AcDbArc
 50
337.6732890263768
 51
97.67328902615718
  0
LINE
  5
99
330
1F
100
AcDbEntity
  8
VISIBLE
100
AcDbLine
 10
335.0615113774314
 20
301.2133676064875
 30
0.0
 11
342.2137666015324
 21
302.1769953718525
 31
0.0
  0
ARC
  5
9A
330
1F
100
AcDbEntity
  8
VISIBLE
100
AcDbCircle
 10
335.1616545124451
 20
300.4700834397524
 30
0.0
 40
0.75
100
AcDbArc
 50
97.67328902615718
 51
217.6732890282773
  0
LINE
  5
9B
330
1F
100
AcDbEntity
  8
VISIBLE
100
AcDbLine
 10
335.7038232811258
 20
298.5407443859895
 30
0.0
 11
334.5680231093392
 21
300.0117148574215
 31
0.0
  0
ARC
  5
9C
330
1F
100
AcDbEntity
  8
VISIBLE
100
AcDbCircle
 10
386.7355254449549
 20
232.4497815074124
 30
0.0
 40
83.5
100
AcDbArc
 50
127.6732890272338
 51
145.2639386387417
  0
ARC
  5
9D
330
1F
100
AcDbEntity
  8
VISIBLE
100
AcDbCircle
 10
319.5545543070971
 20
279.0306747680685
 30
0.0
 40
1.75
100
AcDbArc
 50
145.2639386392288
 51
325.2639386390564
  0
LINE
  5
9E
330
1F
100
AcDbEntity
  8
VISIBLE
100
AcDbLine
 10
333.2691824724802
 20
272.0078276746225
 30
0.0
 11
334.316842226205
 21
267.7191587847284
 31
0.0
  0
LINE
  5
9F
330
1F
100
AcDbEntity
  8
VISIBLE
100
AcDbLine
 10
337.6008566730437
 20
271.1759935171635
 30
0.0
 11
333.2691824724802
 21
272.0078276746225
 31
0.0
  0
LINE
  5
A0
330
1F
100
AcDbEntity
  8
VISIBLE
100
AcDbLine
 10
339.4017678213102
 20
273.0716770801105
 30
0.0
 11
337.6008566730437
 21
271.1759935171635
 31
0.0
  0
LINE
  5
A1
330
1F
100
AcDbEntity
  8
VISIBLE
100
AcDbLine
 10
332.8706700853321
 20
274.2149531046375
 30
0.0
 11
339.4017678213102
 21
273.0716770801105
 31
0.0
  0
LINE
  5
A2
330
1F
100
AcDbEntity
  8
VISIBLE
100
AcDbLine
 10
331.3902465189191
 20
280.2280635871865
 30
0.0
 11
332.8706700853321
 21
274.2149531046375
 31
0.0
  0
LINE
  5
A3
330
1F
100
AcDbEntity
  8
VISIBLE
100
AcDbLine
 10
329.6599593372515
 20
278.4067205561184
 30
0.0
 11
331.3902465189191
 21
280.2280635871865
 31
0.0
  0
LINE
  5
A4
330
1F
100
AcDbEntity
  8
VISIBLE
100
AcDbLine
 10
330.7081513469089
 20
274.5014375954395
 30
0.0
 11
329.6599593372515
 21
278.4067205561184
 31
0.0
  0
LINE
  5
A5
330
1F
100
AcDbEntity
  8
VISIBLE
100
AcDbLine
 10
326.7240201543634
 20
275.3162784450944
 30
0.0
 11
330.7081513469089
 21
274.5014375954395
 31
0.0
  0
LINE
  5
A6
330
1F
100
AcDbEntity
  8
VISIBLE
100
AcDbLine
 10
324.9785992655674
 20
273.4790053000524
 30
0.0
 11
326.7240201543634
 21
275.3162784450944
 31
0.0
  0
LINE
  5
A7
330
1F
100
AcDbEntity
  8
VISIBLE
100
AcDbLine
 10
330.9911702429887
 20
272.3535196491945
 30
0.0
 11
324.9785992655674
 21
273.4790053000524
 31
0.0
  0
LINE
  5
A8
330
1F
100
AcDbEntity
  8
VISIBLE
100
AcDbLine
 10
332.5260202160242
 20
265.8340952977634
 30
0.0
 11
330.9911702429887
 21
272.3535196491945
 31
0.0
  0
LINE
  5
A9
330
1F
100
AcDbEntity
  8
VISIBLE
100
AcDbLine
 10
334.316842226205
 20
267.7191587847284
 30
0.0
 11
332.5260202160242
 21
265.8340952977634
 31
0.0
  0
LINE
  5
AA
330
1F
100
AcDbEntity
  8
VISIBLE
100
AcDbLine
 10
344.1033147363952
 20
280.6472509194825
 30
0.0
 11
345.4148941202835
 21
279.4012423659204
 31
0.0
  0
LINE
  5
AB
330
1F
100
AcDbEntity
  8
VISIBLE
100
AcDbLine
 10
340.3905119209218
 20
276.7390629577745
 30
0.0
 11
344.1033147363952
 21
280.6472509194825
 31
0.0
  0
LINE
  5
AC
330
1F
100
AcDbEntity
  8
VISIBLE
100
AcDbLine
 10
333.9812960652408
 20
282.8278577923895
 30
0.0
 11
340.3905119209218
 21
276.7390629577745
 31
0.0
  0
LINE
  5
AD
330
1F
100
AcDbEntity
  8
VISIBLE
100
AcDbLine
 10
332.488103628583
 20
281.2560865469204
 30
0.0
 11
333.9812960652408
 21
282.8278577923895
 31
0.0
  0
LINE
  5
AE
330
1F
100
AcDbEntity
  8
VISIBLE
100
AcDbLine
 10
340.2088988681522
 20
273.9212831587434
 30
0.0
 11
332.488103628583
 21
281.2560865469204
 31
0.0
  0
LINE
  5
AF
330
1F
100
AcDbEntity
  8
VISIBLE
100
AcDbLine
 10
345.4148941202835
 20
279.4012423659204
 30
0.0
 11
340.2088988681522
 21
273.9212831587434
 31
0.0
  0
LINE
  5
B0
330
1F
100
AcDbEntity
  8
VISIBLE
100
AcDbLine
 10
319.0092812742868
 20
267.2593579983715
 30
0.0
 11
320.1594430160366
 21
268.4700466604224
 31
0.0
  0
SPLINE
  5
B1
330
1F
100
AcDbEntity
  8
VISIBLE
100
AcDbSpline
210
0.0
220
0.0
230
1.0
 70
     8
 71
     3
 72
     9
 73
     5
 74
     0
 42
0.000000001
 43
0.0000000322455409
 40
0.0
 40
0.0
 40
0.0
 40
0.0
 40
0.112708109355529
 40
0.217420626261201
 40
0.217420626261201
 40
0.217420626261201
 40
0.217420626261201
 10
319.3615964627028
 20
265.1365298333675
 30
0.0
 10
319.3792174216562
 20
265.5168030100525
 30
0.0
 10
319.4132092963566
 20
266.2503725171455
 30
0.0
 10
319.1405820135449
 20
266.9313774366085
 30
0.0
 10
319.0092812742768
 20
267.2593579983815
 30
0.0
  0
SPLINE
  5
B2
330
1F
100
AcDbEntity
  8
VISIBLE
100
AcDbSpline
210
0.0
220
0.0
230
1.0
 70
     8
 71
     3
 72
     9
 73
     5
 74
     0
 42
0.000000001
 43
0.0000000320669121
 40
0.0
 40
0.0
 40
0.0
 40
0.0
 40
0.0923100846545386
 40
0.202312933320051
 40
0.202312933320051
 40
0.202312933320051
 40
0.202312933320051
 10
318.8807646473159
 20
263.1788470790734
 30
0.0
 10
318.9930222057898
 20
263.4666733537904
 30
0.0
 10
319.2390533520859
 20
264.0974925989744
 30
0.0
 10
319.3184347269543
 20
264.7705635189974
 30
0.0
 10
319.3615964627028
 20
265.1365298333675
 30
0.0
  0
LINE
  5
B3
330
1F
100
AcDbEntity
  8
VISIBLE
100
AcDbLine
 10
320.2348243351454
 20
261.8924819731585
 30
0.0
 11
318.8807646473259
 21
263.1788470790635
 31
0.0
  0
SPLINE
  5
B4
330
1F
100
AcDbEntity
  8
VISIBLE
100
AcDbSpline
210
0.0
220
0.0
230
1.0
 70
     8
 71
     3
 72
     9
 73
     5
 74
     0
 42
0.000000001
 43
0.0000000321357181
 40
0.0
 40
0.0
 40
0.0
 40
0.0
 40
0.153332873759238
 40
0.310116710847786
 40
0.310116710847786
 40
0.310116710847786
 40
0.310116710847786
 10
320.9349648054794
 20
264.8945189701735
 30
0.0
 10
320.9014830714472
 20
264.3807496854895
 30
0.0
 10
320.833766051757
 20
263.3416480447605
 30
0.0
 10
320.4359472101019
 20
262.3791076973985
 30
0.0
 10
320.2348243351354
 20
261.8924819731685
 30
0.0
  0
LINE
  5
B5
330
1F
100
AcDbEntity
  8
VISIBLE
100
AcDbLine
 10
326.5582950384355
 20
259.5523203538775
 30
0.0
 11
320.9349648054894
 21
264.8945189701635
 31
0.0
  0
LINE
  5
B6
330
1F
100
AcDbEntity
  8
VISIBLE
100
AcDbLine
 10
327.9758189394519
 20
261.0444410294755
 30
0.0
 11
326.5582950384355
 21
259.5523203538775
 31
0.0
  0
LINE
  5
B7
330
1F
100
AcDbEntity
  8
VISIBLE
100
AcDbLine
 10
320.1594430160366
 20
268.4700466604224
 30
0.0
 11
327.9758189394519
 21
261.0444410294755
 31
0.0
  0
LINE
  5
B8
330
1F
100
AcDbEntity
  8
VISIBLE
100
AcDbLine
 10
415.9711148736093
 20
155.0208102287536
 30
0.0
 11
409.1175430918793
 21
96.89194033375227
 31
0.0
  0
SPLINE
  5
B9
330
1F
100
AcDbEntity
  8
VISIBLE
100
AcDbSpline
210
0.0
220
0.0
230
1.0
 70
     8
 71
     5
 72
    51
 73
    45
 74
     0
 42
0.000000001
 43
0.0000000379983156
 40
0.0
 40
0.0
 40
0.0
 40
0.0
 40
0.0
 40
0.0
 40
0.0083333333333333
 40
0.0166666666666667
 40
0.025
 40
0.0333333333333333
 40
0.0416666666666667
 40
0.05
 40
0.0583333333333333
 40
0.0666666666666667
 40
0.075
 40
0.0833333333333333
 40
0.0916666666666667
 40
0.1
 40
0.108333333333333
 40
0.116666666666667
 40
0.125
 40
0.133333333333333
 40
0.141666666666667
 40
0.15
 40
0.158333333333333
 40
0.166666666666667
 40
0.175
 40
0.183333333333333
 40
0.191666666666667
 40
0.2
 40
0.208333333333333
 40
0.216666666666667
 40
0.225
 40
0.233333333333333
 40
0.241666666666667
 40
0.25
 40
0.258333333333333
 40
0.266666666666667
 40
0.275
 40
0.283333333333333
 40
0.291666666666667
 40
0.3
 40
0.308333333333333
 40
0.316666666666667
 40
0.325
 40
0.3294463080710415
 40
0.3294463080710415
 40
0.3294463080710415
 40
0.3294463080710415
 40
0.3294463080710415
 40
0.3294463080710415
 10
303.1761500948888
 20
267.2502797131415
 30
0.0
 10
302.5434124685459
 20
265.8313579031175
 30
0.0
 10
301.3212109094428
 20
262.9663519294265
 30
0.0
 10
299.6188991101859
 20
258.5921737771945
 30
0.0
 10
297.6134135454398
 20
252.6314299411785
 30
0.0
 10
295.5442818417858
 20
245.0454492492292
 30
0.0
 10
293.9053234154538
 20
237.4097644357853
 30
0.0
 10
292.6876619589828
 20
229.80529351456
 30
0.0
 10
291.8847645634128
 20
222.2974697194492
 30
0.0
 10
291.4957460387328
 20
214.9261332187658
 30
0.0
 10
291.5296220208688
 20
207.6929323477385
 30
0.0
 10
291.9997102653928
 20
200.574665409659
 30
0.0
 10
292.9169164036708
 20
193.5396467815268
 30
0.0
 10
294.2831704740088
 20
186.5634662143879
 30
0.0
 10
296.0853460966499
 20
179.6439425065894
 30
0.0
 10
298.2876519288458
 20
172.8189691789315
 30
0.0
 10
300.8286991037738
 20
166.1753607547297
 30
0.0
 10
303.6385724637788
 20
159.8193580149776
 30
0.0
 10
306.6525597847358
 20
153.8533393270954
 30
0.0
 10
309.8270235408398
 20
148.3489240443729
 30
0.0
 10
313.1524338996738
 20
143.3243397076292
 30
0.0
 10
316.6726969650078
 20
138.7127742739162
 30
0.0
 10
320.4608113191467
 20
134.3922803296936
 30
0.0
 10
324.583808088972
 20
130.2304018257734
 30
0.0
 10
329.0727779836388
 20
126.1223815875752
 30
0.0
 10
333.8875072905419
 20
122.035209419861
 30
0.0
 10
338.892714975688
 20
118.0401310225756
 30
0.0
 10
343.9152309399066
 20
114.2645903269282
 30
0.0
 10
348.7961269050883
 20
110.8502595490074
 30
0.0
 10
353.4395858170014
 20
107.91170141323
 30
0.0
 10
357.8754559189197
 20
105.4877993009827
 30
0.0
 10
362.2761577553662
 20
103.5185917633995
 30
0.0
 10
366.8368108968155
 20
101.8951590204977
 30
0.0
 10
371.6910391393882
 20
100.4939321250081
 30
0.0
 10
376.7899014417956
 20
99.22158279423306
 30
0.0
 10
381.8714721062246
 20
98.04143731876806
 30
0.0
 10
386.6383764217366
 20
96.96974490221666
 30
0.0
 10
390.8754943643393
 20
96.07235406790396
 30
0.0
 10
394.6311960919862
 20
95.47335028055466
 30
0.0
 10
398.2392155357695
 20
95.31946027634456
 30
0.0
 10
401.7355818755887
 20
95.64856825508248
 30
0.0
 10
404.7792703421225
 20
96.1591321962226
 30
0.0
 10
407.1256910692233
 20
96.56771814255505
 30
0.0
 10
408.5989429651031
 20
96.8094070207535
 30
0.0
 10
409.1175430918806
 20
96.89194033374409
 30
0.0
  0
SPLINE
  5
BA
330
1F
100
AcDbEntity
  8
VISIBLE
100
AcDbSpline
210
0.0
220
0.0
230
1.0
 70
     8
 71
     5
 72
    90
 73
    84
 74
     0
 42
0.000000001
 43
0.0000000532110329
 40
0.345570688331513
 40
0.345570688331513
 40
0.345570688331513
 40
0.345570688331513
 40
0.345570688331513
 40
0.345570688331513
 40
0.35
 40
0.358333333333334
 40
0.366666666666667
 40
0.375
 40
0.383333333333334
 40
0.391666666666667
 40
0.4
 40
0.408333333333334
 40
0.416666666666667
 40
0.425
 40
0.433333333333334
 40
0.441666666666667
 40
0.45
 40
0.458333333333334
 40
0.466666666666667
 40
0.475
 40
0.483333333333334
 40
0.491666666666667
 40
0.5
 40
0.5083333333333341
 40
0.516666666666667
 40
0.525
 40
0.533333333333334
 40
0.5416666666666671
 40
0.55
 40
0.558333333333334
 40
0.5666666666666671
 40
0.575
 40
0.583333333333334
 40
0.591666666666667
 40
0.6
 40
0.6083333333333341
 40
0.616666666666667
 40
0.625
 40
0.6333333333333341
 40
0.641666666666667
 40
0.65
 40
0.658333333333333
 40
0.6666666666666671
 40
0.675
 40
0.683333333333333
 40
0.6916666666666671
 40
0.7
 40
0.708333333333333
 40
0.716666666666667
 40
0.725
 40
0.7333333333333331
 40
0.7416666666666659
 40
0.75
 40
0.7583333333333331
 40
0.7666666666666659
 40
0.775
 40
0.783333333333333
 40
0.791666666666666
 40
0.8
 40
0.808333333333333
 40
0.816666666666666
 40
0.825
 40
0.833333333333333
 40
0.8416666666666659
 40
0.85
 40
0.8583333333333331
 40
0.8666666666666659
 40
0.875
 40
0.8833333333333331
 40
0.8916666666666659
 40
0.9
 40
0.908333333333333
 40
0.916666666666666
 40
0.925
 40
0.933333333333332
 40
0.941666666666666
 40
0.95
 40
0.958333333333332
 40
0.9666666666666659
 40
0.975
 40
0.9833333333333321
 40
0.9916666666666659
 40
1.0
 40
1.0
 40
1.0
 40
1.0
 40
1.0
 40
1.0
 10
419.0681958550984
 20
97.81380098244726
 30
0.0
 10
419.6290153188129
 20
97.81706797100456
 30
0.0
 10
421.2436415671961
 20
97.80404915903915
 30
0.0
 10
423.8968455160014
 20
97.67502703514926
 30
0.0
 10
427.4999028353786
 20
97.25926864556135
 30
0.0
 10
431.784681848653
 20
96.48494045908285
 30
0.0
 10
435.9675538222552
 20
95.69251610127387
 30
0.0
 10
439.6581372131129
 20
95.29829474283827
 30
0.0
 10
443.1943339850131
 20
95.43084392675377
 30
0.0
 10
447.0435291573028
 20
96.03854821432157
 30
0.0
 10
451.5707472195729
 20
96.98889178774195
 30
0.0
 10
456.7689414047334
 20
98.15784900815136
 30
0.0
 10
462.2929082871744
 20
99.46469198067206
 30
0.0
 10
467.6983393393504
 20
100.8648786232379
 30
0.0
 10
472.5987753104952
 20
102.3550710874333
 30
0.0
 10
476.899878332543
 20
103.9759550365803
 30
0.0
 10
480.8462068279312
 20
105.8058786408979
 30
0.0
 10
484.7993321542996
 20
107.9351995644241
 30
0.0
 10
489.0936858244041
 20
110.4467928222777
 30
0.0
 10
493.8273447412902
 20
113.3908903761942
 30
0.0
 10
498.8877702415207
 20
116.7817642434953
 30
0.0
 10
504.0506583897335
 20
120.601291757886
 30
0.0
 10
509.0548978226548
 20
124.8003396413728
 30
0.0
 10
513.6879097268105
 20
129.3008919053586
 30
0.0
 10
517.8652897917093
 20
133.9982289352246
 30
0.0
 10
521.5959664907168
 20
138.7864686650997
 30
0.0
 10
524.9474316733748
 20
143.5847329560533
 30
0.0
 10
528.0120575990388
 20
148.3611882595257
 30
0.0
 10
530.8705533318468
 20
153.1624465004957
 30
0.0
 10
533.5639558155168
 20
158.1273702268394
 30
0.0
 10
536.1033464782959
 20
163.43475580285
 30
0.0
 10
538.4742670331278
 20
169.2582233062764
 30
0.0
 10
540.6431456860988
 20
175.7226763033969
 30
0.0
 10
542.5629588645459
 20
182.8495177694703
 30
0.0
 10
544.1788363284599
 20
190.546441786676
 30
0.0
 10
545.4330332628679
 20
198.6511265350178
 30
0.0
 10
546.2700351382639
 20
206.9606299606974
 30
0.0
 10
546.6417313699349
 20
215.2672074764965
 30
0.0
 10
546.5122774899378
 20
223.3899263292915
 30
0.0
 10
545.8637800791208
 20
231.2115600799796
 30
0.0
 10
544.6995514240858
 20
238.7026789278635
 30
0.0
 10
543.0368752742868
 20
245.8930728022392
 30
0.0
 10
540.9013823250009
 20
252.8509929562545
 30
0.0
 10
538.3206104670098
 20
259.6588114526065
 30
0.0
 10
535.3183550185269
 20
266.3914922462554
 30
0.0
 10
531.9076170729838
 20
273.0907796260535
 30
0.0
 10
528.0875931945948
 20
279.7511775862284
 30
0.0
 10
523.8506358858808
 20
286.3346784059535
 30
0.0
 10
519.1872584691362
 20
292.7799192728725
 30
0.0
 10
514.0919907578059
 20
299.0136252023834
 30
0.0
 10
508.568698982084
 20
304.9608671278704
 30
0.0
 10
502.6365540140234
 20
310.5563067462615
 30
0.0
 10
496.3345272517029
 20
315.7536275462035
 30
0.0
 10
489.7140558327504
 20
320.5211756160065
 30
0.0
 10
482.8326949657783
 20
324.8387903277464
 30
0.0
 10
475.7475340405094
 20
328.6942371385614
 30
0.0
 10
468.5084028910811
 20
332.0797014811365
 30
0.0
 10
461.1518948365784
 20
334.9885234315154
 30
0.0
 10
453.693156104974
 20
337.4111507340015
 30
0.0
 10
446.1303074555622
 20
339.3356471082085
 30
0.0
 10
438.4533727135661
 20
340.7498164759664
 30
0.0
 10
430.6515409545131
 20
341.6427627080225
 30
0.0
 10
422.7215165265836
 20
342.0067564178485
 30
0.0
 10
414.6744904756768
 20
341.8388078973644
 30
0.0
 10
406.5459800684562
 20
341.1427754308475
 30
0.0
 10
398.3951014550892
 20
339.9295738788475
 30
0.0
 10
390.2945725384241
 20
338.2157326827895
 30
0.0
 10
382.3233422036541
 20
336.0224166336054
 30
0.0
 10
374.558088086479
 20
333.3742624575905
 30
0.0
 10
367.0653345774117
 20
330.2982903198865
 30
0.0
 10
359.8929782836772
 20
326.8227996502985
 30
0.0
 10
353.062979490823
 20
322.9762305383385
 30
0.0
 10
346.5787306965426
 20
318.7853473901125
 30
0.0
 10
340.4315314596554
 20
314.2734638910244
 30
0.0
 10
334.6073874267007
 20
309.4586560229205
 30
0.0
 10
329.0936831782601
 20
304.3519669562024
 30
0.0
 10
323.8858726733384
 20
298.9556390260345
 30
0.0
 10
318.9942643469918
 20
293.2612572289574
 30
0.0
 10
314.4396274479898
 20
287.2560984062525
 30
0.0
 10
310.2486750970209
 20
280.9295683187744
 30
0.0
 10
307.2094117092659
 20
275.6095997587365
 30
0.0
 10
305.1176366674998
 20
271.4798827895705
 30
0.0
 10
303.8088877212318
 20
268.6692015231654
 30
0.0
 10
303.1761500948888
 20
267.2502797131415
 30
0.0
  0
LINE
  5
BB
330
1F
100
AcDbEntity
  8
VISIBLE
100
AcDbLine
 10
417.569312698104
 20
97.69157193184245
 30
0.0
 11
419.0681958551084
 21
97.81380098245725
 31
0.0
  0
LINE
  5
BC
330
1F
100
AcDbEntity
  8
VISIBLE
100
AcDbLine
 10
424.2140197554428
 20
154.0489464990843
 30
0.0
 11
417.569312698104
 21
97.69157193184245
 31
0.0
  0
ARC
  5
BD
330
1F
100
AcDbEntity
  8
VISIBLE
100
AcDbCircle
 10
419.2917272614658
 20
147.7425183020985
 30
0.0
 40
8.0
100
AcDbArc
 50
52.02725467328954
 51
114.5241371977147
  0
ENDSEC
  0
SECTION
  2
OBJECTS
  0
DICTIONARY
  5
C
330
0
100
AcDbDictionary
  3
ACAD_GROUP
350
D
  3
ACAD_LAYOUT
350
1A
  3
ACAD_MATERIAL
350
43
  3
ACAD_MLEADERSTYLE
350
126
  3
ACAD_MLINESTYLE
350
17
  3
ACAD_PLOTSETTINGS
350
19
  3
ACAD_SCALELIST
350
47
  3
ACAD_VISUALSTYLE
350
2A
  3
ACDBHEADERROUNDTRIPXREC
350
105
  3
ACDBVARIABLEDICTIONARY
350
6C
  3
ONSHAPE_DATA
350
BE
  0
DICTIONARY
  5
73
330
72
100
AcDbDictionary
280
     1
  3
ONSHAPE_VIEW_ID
360
74
  0
DICTIONARY
  5
D
102
{ACAD_REACTORS
330
C
102
}
330
C
100
AcDbDictionary
  0
DICTIONARY
  5
1A
102
{ACAD_REACTORS
330
C
102
}
330
C
100
AcDbDictionary
  0
DICTIONARY
  5
43
102
{ACAD_REACTORS
330
C
102
}
330
C
100
AcDbDictionary
  3
BYBLOCK
350
45
  3
BYLAYER
350
44
  3
GLOBAL
350
46
  0
DICTIONARY
  5
126
102
{ACAD_REACTORS
330
C
102
}
330
C
100
AcDbDictionary
  0
DICTIONARY
  5
17
102
{ACAD_REACTORS
330
C
102
}
330
C
100
AcDbDictionary
  3
STANDARD
350
18
  0
DICTIONARY
  5
19
102
{ACAD_REACTORS
330
C
102
}
330
C
100
AcDbDictionary
  0
DICTIONARY
  5
47
102
{ACAD_REACTORS
330
C
102
}
330
C
100
AcDbDictionary
  3
A0
350
48
  3
A1
350
49
  3
A2
350
4A
  3
A3
350
4B
  3
A4
350
4C
  3
A5
350
4D
  3
A6
350
4E
  3
A7
350
4F
  3
A8
350
50
  3
A9
350
51
  3
B0
350
52
  3
B1
350
53
  3
B2
350
54
  3
B3
350
55
  3
B4
350
56
  3
B5
350
57
  3
B6
350
58
  3
B7
350
59
  3
B8
350
5A
  3
B9
350
5B
  3
C0
350
5C
  3
C1
350
5D
  3
C2
350
5E
  3
C3
350
5F
  3
C4
350
60
  3
C5
350
61
  3
C6
350
62
  3
C7
350
63
  3
C8
350
64
  3
C9
350
65
  3
D0
350
66
  3
D1
350
67
  3
D2
350
68
  0
DICTIONARY
  5
2A
102
{ACAD_REACTORS
330
C
102
}
330
C
100
AcDbDictionary
  3
2DWIREFRAME
350
2F
  3
BASIC
350
32
  3
BRIGHTEN
350
36
  3
COLORCHANGE
350
3A
  3
CONCEPTUAL
350
34
  3
DIM
350
35
  3
EDGECOLOROFF
350
3D
  3
FACEPATTERN
350
39
  3
FLAT
350
2B
  3
FLATWITHEDGES
350
2C
  3
GOURAUD
350
2D
  3
GOURAUDWITHEDGES
350
2E
  3
HIDDEN
350
31
  3
JITTEROFF
350
3B
  3
LINEPATTERN
350
38
  3
OVERHANGOFF
350
3C
  3
REALISTIC
350
33
  3
SHADED
350
42
  3
SHADED_WITH_EDGES
350
41
  3
SHADES_OF_GRAY
350
3E
  3
SKETCHY
350
3F
  3
THICKEN
350
37
  3
WIREFRAME
350
30
  3
X-RAY
350
40
  0
DICTIONARY
  5
105
102
{ACAD_REACTORS
330
C
102
}
330
C
100
AcDbDictionary
  3
CEPSNTYPE
350
10E
  3
DIMSTYLEDATA
350
124
  3
FINGERPRINTGUID
350
10F
  3
HYPERLINKBASE
350
108
  3
INSUNITS
350
10D
  3
LAYOUTDICT
350
10A
  3
LWETCUNION
350
10C
  3
PLOTSETDICT
350
10B
  3
PSVPSCALE
350
111
  3
PUCSBASE
350
114
  3
PUCSORGBACK
350
11A
  3
PUCSORGBOTTOM
350
116
  3
PUCSORGFRONT
350
119
  3
PUCSORGLEFT
350
117
  3
PUCSORGRIGHT
350
118
  3
PUCSORGTOP
350
115
  3
PUCSORTHOREF
350
112
  3
PUCSORTHOVIEW
350
113
  3
STYLESHEET
350
109
  3
TSTACKALIGN
350
106
  3
TSTACKSIZE
350
107
  3
UCSBASE
350
11D
  3
UCSORGBACK
350
123
  3
UCSORGBOTTOM
350
11F
  3
UCSORGFRONT
350
122
  3
UCSORGLEFT
350
120
  3
UCSORGRIGHT
350
121
  3
UCSORGTOP
350
11E
  3
UCSORTHOREF
350
11B
  3
UCSORTHOVIEW
350
11C
  3
VERSIONGUID
350
110
  0
DICTIONARY
  5
6C
102
{ACAD_REACTORS
330
C
102
}
330
C
100
AcDbDictionary
  3
CANNOSCALE
350
12D
  3
CTABLESTYLE
350
125
  3
DIMASSOC
350
12B
  3
HIDETEXT
350
12C
  3
MSLTSCALE
350
12E
  3
OLEFRAME
350
6D
  3
PSOLHEIGHT
350
128
  3
PSOLWIDTH
350
127
  0
DICTIONARY
  5
BE
102
{ACAD_REACTORS
330
C
102
}
330
C
100
AcDbDictionary
280
     1
  3
DIM_UNITS
360
BF
  3
ONSHAPE_ANG_TOL_PRECISION
360
C2
  3
ONSHAPE_VSHARP_EXTENSION
360
C1
  3
ONSHAPE_WELD_STANDARD
360
C0
  0
XRECORD
  5
74
102
{ACAD_REACTORS
330
73
102
}
330
73
100
AcDbXrecord
330
0
  0
MATERIAL
  5
45
102
{ACAD_REACTORS
330
43
102
}
102
{ACAD_XDICTIONARY
360
131
102
}
330
43
100
AcDbMaterial
  1
BYBLOCK
  0
MATERIAL
  5
44
102
{ACAD_REACTORS
330
43
102
}
102
{ACAD_XDICTIONARY
360
12F
102
}
330
43
100
AcDbMaterial
  1
BYLAYER
  0
MATERIAL
  5
46
102
{ACAD_REACTORS
330
43
102
}
102
{ACAD_XDICTIONARY
360
133
102
}
330
43
100
AcDbMaterial
  1
GLOBAL
  0
MLINESTYLE
  5
18
102
{ACAD_REACTORS
330
17
102
}
330
17
100
AcDbMlineStyle
  2
Standard
 70
     0
  3

 62
   256
 51
90.0
 52
90.0
 71
     2
 49
0.5
 62
   256
  6
BYLAYER
 49
-0.5
 62
   256
  6
BYLAYER
  0
ACAD_PROXY_OBJECT
  5
48
102
{ACAD_REACTORS
330
47
102
}
330
47
100
AcDbProxyObject
 90
      499
 91
      503
 93
       41
310
903313A31580
  0
ACAD_PROXY_OBJECT
  5
49
102
{ACAD_REACTORS
330
47
102
}
330
47
100
AcDbProxyObject
 90
      499
 91
      503
 93
      105
310
903313A324000000000000004000
  0
ACAD_PROXY_OBJECT
  5
4A
102
{ACAD_REACTORS
330
47
102
}
330
47
100
AcDbProxyObject
 90
      499
 91
      503
 93
      105
310
903313A344000000000000104000
  0
ACAD_PROXY_OBJECT
  5
4B
102
{ACAD_REACTORS
330
47
102
}
330
47
100
AcDbProxyObject
 90
      499
 91
      503
 93
      105
310
903313A354000000000000144000
  0
ACAD_PROXY_OBJECT
  5
4C
102
{ACAD_REACTORS
330
47
102
}
330
47
100
AcDbProxyObject
 90
      499
 91
      503
 93
      105
310
903313A384000000000000204000
  0
ACAD_PROXY_OBJECT
  5
4D
102
{ACAD_REACTORS
330
47
102
}
330
47
100
AcDbProxyObject
 90
      499
 91
      503
 93
      113
310
904313A31304000000000000244000
  0
ACAD_PROXY_OBJECT
  5
4E
102
{ACAD_REACTORS
330
47
102
}
330
47
100
AcDbProxyObject
 90
      499
 91
      503
 93
      113
310
904313A31364000000000000304000
  0
ACAD_PROXY_OBJECT
  5
4F
102
{ACAD_REACTORS
330
47
102
}
330
47
100
AcDbProxyObject
 90
      499
 91
      503
 93
      113
310
904313A32304000000000000344000
  0
ACAD_PROXY_OBJECT
  5
50
102
{ACAD_REACTORS
330
47
102
}
330
47
100
AcDbProxyObject
 90
      499
 91
      503
 93
      113
310
904313A333040000000000003E4000
  0
ACAD_PROXY_OBJECT
  5
51
102
{ACAD_REACTORS
330
47
102
}
330
47
100
AcDbProxyObject
 90
      499
 91
      503
 93
      113
310
904313A34304000000000000444000
  0
ACAD_PROXY_OBJECT
  5
52
102
{ACAD_REACTORS
330
47
102
}
330
47
100
AcDbProxyObject
 90
      499
 91
      503
 93
      113
310
904313A35304000000000000494000
  0
ACAD_PROXY_OBJECT
  5
53
102
{ACAD_REACTORS
330
47
102
}
330
47
100
AcDbProxyObject
 90
      499
 91
      503
 93
      121
310
905313A3130304000000000000594000
  0
ACAD_PROXY_OBJECT
  5
54
102
{ACAD_REACTORS
330
47
102
}
330
47
100
AcDbProxyObject
 90
      499
 91
      503
 93
      105
310
903323A310000000000000010100
  0
ACAD_PROXY_OBJECT
  5
55
102
{ACAD_REACTORS
330
47
102
}
330
47
100
AcDbProxyObject
 90
      499
 91
      503
 93
      105
310
903343A310000000000000410100
  0
ACAD_PROXY_OBJECT
  5
56
102
{ACAD_REACTORS
330
47
102
}
330
47
100
AcDbProxyObject
 90
      499
 91
      503
 93
      105
310
903383A310000000000000810100
  0
ACAD_PROXY_OBJECT
  5
57
102
{ACAD_REACTORS
330
47
102
}
330
47
100
AcDbProxyObject
 90
      499
 91
      503
 93
      113
310
90431303A310000000000000910100
  0
ACAD_PROXY_OBJECT
  5
58
102
{ACAD_REACTORS
330
47
102
}
330
47
100
AcDbProxyObject
 90
      499
 91
      503
 93
      121
310
9053130303A310000000000001650100
  0
ACAD_PROXY_OBJECT
  5
59
102
{ACAD_REACTORS
330
47
102
}
330
47
100
AcDbProxyObject
 90
      499
 91
      503
 93
      257
310
90E312F31323822203D2031272D3022000000000000200FC000000000000284000
  0
ACAD_PROXY_OBJECT
  5
5A
102
{ACAD_REACTORS
330
47
102
}
330
47
100
AcDbProxyObject
 90
      499
 91
      503
 93
      249
310
90D312F363422203D2031272D3022000000000000240FC000000000000284000
  0
ACAD_PROXY_OBJECT
  5
5B
102
{ACAD_REACTORS
330
47
102
}
330
47
100
AcDbProxyObject
 90
      499
 91
      503
 93
      249
310
90D312F333222203D2031272D3022000000000000280FC000000000000284000
  0
ACAD_PROXY_OBJECT
  5
5C
102
{ACAD_REACTORS
330
47
102
}
330
47
100
AcDbProxyObject
 90
      499
 91
      503
 93
      249
310
90D312F313622203D2031272D30220000000000002C0FC000000000000284000
  0
ACAD_PROXY_OBJECT
  5
5D
102
{ACAD_REACTORS
330
47
102
}
330
47
100
AcDbProxyObject
 90
      499
 91
      503
 93
      249
310
90D332F333222203D2031272D30220000000000002E0FC000000000000284000
  0
ACAD_PROXY_OBJECT
  5
5E
102
{ACAD_REACTORS
330
47
102
}
330
47
100
AcDbProxyObject
 90
      499
 91
      503
 93
      241
310
90C312F3822203D2031272D3022000000000000300FC000000000000284000
  0
ACAD_PROXY_OBJECT
  5
5F
102
{ACAD_REACTORS
330
47
102
}
330
47
100
AcDbProxyObject
 90
      499
 91
      503
 93
      249
310
90D332F313622203D2031272D3022000000000000320FC000000000000284000
  0
ACAD_PROXY_OBJECT
  5
60
102
{ACAD_REACTORS
330
47
102
}
330
47
100
AcDbProxyObject
 90
      499
 91
      503
 93
      241
310
90C312F3422203D2031272D3022000000000000340FC000000000000284000
  0
ACAD_PROXY_OBJECT
  5
61
102
{ACAD_REACTORS
330
47
102
}
330
47
100
AcDbProxyObject
 90
      499
 91
      503
 93
      241
310
90C332F3822203D2031272D3022000000000000360FC000000000000284000
  0
ACAD_PROXY_OBJECT
  5
62
102
{ACAD_REACTORS
330
47
102
}
330
47
100
AcDbProxyObject
 90
      499
 91
      503
 93
      241
310
90C312F3222203D2031272D3022000000000000380FC000000000000284000
  0
ACAD_PROXY_OBJECT
  5
63
102
{ACAD_REACTORS
330
47
102
}
330
47
100
AcDbProxyObject
 90
      499
 91
      503
 93
      241
310
90C332F3422203D2031272D30220000000000003A0FC000000000000284000
  0
ACAD_PROXY_OBJECT
  5
64
102
{ACAD_REACTORS
330
47
102
}
330
47
100
AcDbProxyObject
 90
      499
 91
      503
 93
      161
310
90A3122203D2031272D30224000000000000284000
  0
ACAD_PROXY_OBJECT
  5
65
102
{ACAD_REACTORS
330
47
102
}
330
47
100
AcDbProxyObject
 90
      499
 91
      503
 93
      257
310
90E312D312F3222203D2031272D30220000000000003E0FC000000000000284000
  0
ACAD_PROXY_OBJECT
  5
66
102
{ACAD_REACTORS
330
47
102
}
330
47
100
AcDbProxyObject
 90
      499
 91
      503
 93
      225
310
90A3322203D2031272D302200000000000002100000000000000284000
  0
ACAD_PROXY_OBJECT
  5
67
102
{ACAD_REACTORS
330
47
102
}
330
47
100
AcDbProxyObject
 90
      499
 91
      503
 93
      225
310
90A3622203D2031272D302200000000000006100000000000000284000
  0
ACAD_PROXY_OBJECT
  5
68
102
{ACAD_REACTORS
330
47
102
}
330
47
100
AcDbProxyObject
 90
      499
 91
      503
 93
      249
310
90D31272D3022203D2031272D30220000000000000A100000000000000284000
  0
ACAD_PROXY_OBJECT
  5
2F
102
{ACAD_REACTORS
330
2A
102
}
330
2A
100
AcDbProxyObject
 90
      499
 91
      501
 93
      436
310
42CC9915DA5C99599C985B595049028333333333333E33F0000000000000F90107901411070040501600405405064090741402480A0340
1001
ACAD
1000
AcDbSavedByObjectVersion
1070
     0
  0
ACAD_PROXY_OBJECT
  5
32
102
{ACAD_REACTORS
330
2A
102
}
330
2A
100
AcDbProxyObject
 90
      499
 91
      501
 93
      388
310
4150985CDA58D07406404333333333333E33F0000000000000F90107A41107004050150841D405064090741402480A0350
1001
ACAD
1000
AcDbSavedByObjectVersion
1070
     0
  0
ACAD_PROXY_OBJECT
  5
36
102
{ACAD_REACTORS
330
2A
102
}
330
2A
100
AcDbProxyObject
 90
      499
 91
      501
 93
      428
310
42109C9A59DA1D195B90C409028333333333333E33F0000000000000F9010790141107004050150841D405064090741402480A029950
1001
ACAD
1000
AcDbSavedByObjectVersion
1070
     0
  0
ACAD_PROXY_OBJECT
  5
3A
102
{ACAD_REACTORS
330
2A
102
}
330
2A
100
AcDbProxyObject
 90
      499
 91
      501
 93
      452
310
42D0DBDB1BDC90DA185B99D95104090240C333333333333E33F0000000000000F90108901411070040501508421405064090741402480A0350
1001
ACAD
1000
AcDbSavedByObjectVersion
1070
     0
  0
ACAD_PROXY_OBJECT
  5
34
102
{ACAD_REACTORS
330
2A
102
}
330
2A
100
AcDbProxyObject
 90
      499
 91
      501
 93
      500
310
4290DBDB98D95C1D1D585B10940D028333333333333E33F0000000000000F90107902409070040501000000000018199010841D405064090740C02480A0340
1001
ACAD
1000
AcDbSavedByObjectVersion
1070
     0
  0
ACAD_PROXY_OBJECT
  5
35
102
{ACAD_REACTORS
330
2A
102
}
330
2A
100
AcDbProxyObject
 90
      499
 91
      501
 93
      412
310
40D11A5B50B409028333333333333E33F0000000000000F9010790141107004050150841D405064090741402480A02677FFFFFD0
1001
ACAD
1000
AcDbSavedByObjectVersion
1070
     0
  0
ACAD_PROXY_OBJECT
  5
3D
102
{ACAD_REACTORS
330
2A
102
}
330
2A
100
AcDbProxyObject
 90
      499
 91
      501
 93
      452
310
43115919D950DBDB1BDC93D999916409028333333333333E33F0000000000000F9010790141107004050150841D405064090741402480A0350
1001
ACAD
1000
AcDbSavedByObjectVersion
1070
     0
  0
ACAD_PROXY_OBJECT
  5
39
102
{ACAD_REACTORS
330
2A
102
}
330
2A
100
AcDbProxyObject
 90
      499
 91
      501
 93
      444
310
42D19858D95C185D1D195C9B90F409028333333333333E33F0000000000000F9010790141107004050150841D405064090741402480A0350
1001
ACAD
1000
AcDbSavedByObjectVersion
1070
     0
  0
ACAD_PROXY_OBJECT
  5
2B
102
{ACAD_REACTORS
330
2A
102
}
330
2A
100
AcDbProxyObject
 90
      499
 91
      501
 93
      380
310
41119B185D240901404333333333333E33F0000000000000F9010740A907004050150841D405064090741402480A1B50
1001
ACAD
1000
AcDbSavedByObjectVersion
1070
     0
  0
ACAD_PROXY_OBJECT
  5
2C
102
{ACAD_REACTORS
330
2A
102
}
330
2A
100
AcDbProxyObject
 90
      499
 91
      501
 93
      468
310
43519B185D15DA5D1A115919D95CD0140901404333333333333E33F0000000000000F90107409019070040501600405405064090741402480A1B50
1001
ACAD
1000
AcDbSavedByObjectVersion
1070
     0
  0
ACAD_PROXY_OBJECT
  5
2D
102
{ACAD_REACTORS
330
2A
102
}
330
2A
100
AcDbProxyObject
 90
      499
 91
      501
 93
      404
310
41D1DBDD5C985D5910240902404333333333333E33F0000000000000F9010740A9070040501641D405064090741402480A1B50
1001
ACAD
1000
AcDbSavedByObjectVersion
1070
     0
  0
ACAD_PROXY_OBJECT
  5
2E
102
{ACAD_REACTORS
330
2A
102
}
330
2A
100
AcDbProxyObject
 90
      499
 91
      501
 93
      492
310
4411DBDD5C985D5915DA5D1A115919D95CD0340902404333333333333E33F0000000000000F90107409019070040501600405405064090741402480A1B50
1001
ACAD
1000
AcDbSavedByObjectVersion
1070
     0
  0
ACAD_PROXY_OBJECT
  5
31
102
{ACAD_REACTORS
330
2A
102
}
330
2A
100
AcDbProxyObject
 90
      499
 91
      501
 93
      476
310
41921A5919195B90640502408333333333333E33F0000000000000F901079024090700405020000000000001110200405405064090740C02480A0340
1001
ACAD
1000
AcDbSavedByObjectVersion
1070
     0
  0
ACAD_PROXY_OBJECT
  5
3B
102
{ACAD_REACTORS
330
2A
102
}
330
2A
100
AcDbProxyObject
 90
      499
 91
      501
 93
      428
310
42529A5D1D195C93D999914409028333333333333E33F0000000000000F9010790141107004050150A41D405064090741402480A0350
1001
ACAD
1000
AcDbSavedByObjectVersion
1070
     0
  0
ACAD_PROXY_OBJECT
  5
38
102
{ACAD_REACTORS
330
2A
102
}
330
2A
100
AcDbProxyObject
 90
      499
 91
      501
 93
      444
310
42D31A5B995C185D1D195C9B90E409028333333333333E33F0000000000000F9010790141107004050750841D405064090741402483A0350
1001
ACAD
1000
AcDbSavedByObjectVersion
1070
     0
  0
ACAD_PROXY_OBJECT
  5
3C
102
{ACAD_REACTORS
330
2A
102
}
330
2A
100
AcDbProxyObject
 90
      499
 91
      501
 93
      444
310
42D3DD995C9A185B99D3D999915409028333333333333E33F0000000000000F9010790141107004050150941D405064090741402480A0350
1001
ACAD
1000
AcDbSavedByObjectVersion
1070
     0
  0
ACAD_PROXY_OBJECT
  5
33
102
{ACAD_REACTORS
330
2A
102
}
330
2A
100
AcDbProxyObject
 90
      499
 91
      501
 93
      428
310
425499585B1A5CDD1A58D08409038333333333333E33F0000000000000F9010740A907004050150800405405064090740C02480A1B40
1001
ACAD
1000
AcDbSavedByObjectVersion
1070
     0
  0
ACAD_PROXY_OBJECT
  5
42
102
{ACAD_REACTORS
330
2A
102
}
330
2A
100
AcDbProxyObject
 90
      499
 91
      501
 93
      420
310
4194DA1859195911B40902404333333333333E33F0000000000000F9010740A41107004050150800405405064090840C02480A0B40
1001
ACAD
1000
AcDbSavedByObjectVersion
1070
     0
  0
ACAD_PROXY_OBJECT
  5
41
102
{ACAD_REACTORS
330
2A
102
}
330
2A
100
AcDbProxyObject
 90
      499
 91
      501
 93
      516
310
4454DA18591959081DDA5D1A08195919D95CD1A40902404333333333333E33F0000000000000F901074090142907004050250800405405064090740C02480A0B40
1001
ACAD
1000
AcDbSavedByObjectVersion
1070
     0
  0
ACAD_PROXY_OBJECT
  5
3E
102
{ACAD_REACTORS
330
2A
102
}
330
2A
100
AcDbProxyObject
 90
      499
 91
      501
 93
      532
310
4394DA1859195CC81BD98811DC985E5174090240C333333333333E33F0000000000000F901079024090741D01000000000000111010841D405064090740C02480A0340
1001
ACAD
1000
AcDbSavedByObjectVersion
1070
     0
  0
ACAD_PROXY_OBJECT
  5
3F
102
{ACAD_REACTORS
330
2A
102
}
330
2A
100
AcDbProxyObject
 90
      499
 91
      501
 93
      476
310
41D4DAD95D18DA1E51840502408333333333333E33F0000000000000F901079024090741D01000000000000111010B41D405064090741802480A0340
1001
ACAD
1000
AcDbSavedByObjectVersion
1070
     0
  0
ACAD_PROXY_OBJECT
  5
37
102
{ACAD_REACTORS
330
2A
102
}
330
2A
100
AcDbProxyObject
 90
      499
 91
      501
 93
      412
310
41D51A1A58DAD95B90D409028333333333333E33F0000000000000F9010790141107004050150C41D405064090741402480A0350
1001
ACAD
1000
AcDbSavedByObjectVersion
1070
     0
  0
ACAD_PROXY_OBJECT
  5
30
102
{ACAD_REACTORS
330
2A
102
}
330
2A
100
AcDbProxyObject
 90
      499
 91
      501
 93
      420
310
4255DA5C99599C985B595059028333333333333E33F0000000000000F90107901411070040501600405405064090740C02480A0340
1001
ACAD
1000
AcDbSavedByObjectVersion
1070
     0
  0
ACAD_PROXY_OBJECT
  5
40
102
{ACAD_REACTORS
330
2A
102
}
330
2A
100
AcDbProxyObject
 90
      499
 91
      501
 93
      404
310
41560B54985E51940902404000000000000E03F0000000000000F9010740501907004050150841D405064090740C02480A1B40
1001
ACAD
1000
AcDbSavedByObjectVersion
1070
     0
  0
XRECORD
  5
10E
102
{ACAD_REACTORS
330
105
102
}
330
105
100
AcDbXrecord
 90
        0
  0
XRECORD
  5
124
102
{ACAD_REACTORS
330
105
102
}
330
105
100
AcDbXrecord
1000
DSTYLE
1002
{
1070
   179
 70
     1
1070
   143
 40
0.03937
1070
   285
 70
     8
1070
   176
 70
     7
1070
   177
 70
     7
1070
   178
 70
     7
1070
   371
 70
    13
1070
   372
 70
    13
1070
   272
 70
     3
1070
   340
340
71
1070
   288
 70
     1
1002
}
  0
XRECORD
  5
10F
102
{ACAD_REACTORS
330
105
102
}
330
105
100
AcDbXrecord
  1
{C077F34D-0B4F-1CF9-61C9-72D6901DC9EA}
  0
XRECORD
  5
108
102
{ACAD_REACTORS
330
105
102
}
330
105
100
AcDbXrecord
  1

  0
XRECORD
  5
10D
102
{ACAD_REACTORS
330
105
102
}
330
105
100
AcDbXrecord
 90
        4
  0
XRECORD
  5
10A
102
{ACAD_REACTORS
330
105
102
}
330
105
100
AcDbXrecord
340
1A
  0
XRECORD
  5
10C
102
{ACAD_REACTORS
330
105
102
}
330
105
100
AcDbXrecord
 90
    10269
  0
XRECORD
  5
10B
102
{ACAD_REACTORS
330
105
102
}
330
105
100
AcDbXrecord
340
19
  0
XRECORD
  5
111
102
{ACAD_REACTORS
330
105
102
}
330
105
100
AcDbXrecord
 40
0.0
  0
XRECORD
  5
114
102
{ACAD_REACTORS
330
105
102
}
330
105
100
AcDbXrecord
340
0
  0
XRECORD
  5
11A
102
{ACAD_REACTORS
330
105
102
}
330
105
100
AcDbXrecord
 10
0.0
 20
0.0
 30
0.0
  0
XRECORD
  5
116
102
{ACAD_REACTORS
330
105
102
}
330
105
100
AcDbXrecord
 10
0.0
 20
0.0
 30
0.0
  0
XRECORD
  5
119
102
{ACAD_REACTORS
330
105
102
}
330
105
100
AcDbXrecord
 10
0.0
 20
0.0
 30
0.0
  0
XRECORD
  5
117
102
{ACAD_REACTORS
330
105
102
}
330
105
100
AcDbXrecord
 10
0.0
 20
0.0
 30
0.0
  0
XRECORD
  5
118
102
{ACAD_REACTORS
330
105
102
}
330
105
100
AcDbXrecord
 10
0.0
 20
0.0
 30
0.0
  0
XRECORD
  5
115
102
{ACAD_REACTORS
330
105
102
}
330
105
100
AcDbXrecord
 10
0.0
 20
0.0
 30
0.0
  0
XRECORD
  5
112
102
{ACAD_REACTORS
330
105
102
}
330
105
100
AcDbXrecord
340
0
  0
XRECORD
  5
113
102
{ACAD_REACTORS
330
105
102
}
330
105
100
AcDbXrecord
 70
     0
  0
XRECORD
  5
109
102
{ACAD_REACTORS
330
105
102
}
330
105
100
AcDbXrecord
  1

  0
XRECORD
  5
106
102
{ACAD_REACTORS
330
105
102
}
330
105
100
AcDbXrecord
 90
        1
  0
XRECORD
  5
107
102
{ACAD_REACTORS
330
105
102
}
330
105
100
AcDbXrecord
 90
       70
  0
XRECORD
  5
11D
102
{ACAD_REACTORS
330
105
102
}
330
105
100
AcDbXrecord
340
0
  0
XRECORD
  5
123
102
{ACAD_REACTORS
330
105
102
}
330
105
100
AcDbXrecord
 10
0.0
 20
0.0
 30
0.0
  0
XRECORD
  5
11F
102
{ACAD_REACTORS
330
105
102
}
330
105
100
AcDbXrecord
 10
0.0
 20
0.0
 30
0.0
  0
XRECORD
  5
122
102
{ACAD_REACTORS
330
105
102
}
330
105
100
AcDbXrecord
 10
0.0
 20
0.0
 30
0.0
  0
XRECORD
  5
120
102
{ACAD_REACTORS
330
105
102
}
330
105
100
AcDbXrecord
 10
0.0
 20
0.0
 30
0.0
  0
XRECORD
  5
121
102
{ACAD_REACTORS
330
105
102
}
330
105
100
AcDbXrecord
 10
0.0
 20
0.0
 30
0.0
  0
XRECORD
  5
11E
102
{ACAD_REACTORS
330
105
102
}
330
105
100
AcDbXrecord
 10
0.0
 20
0.0
 30
0.0
  0
XRECORD
  5
11B
102
{ACAD_REACTORS
330
105
102
}
330
105
100
AcDbXrecord
340
0
  0
XRECORD
  5
11C
102
{ACAD_REACTORS
330
105
102
}
330
105
100
AcDbXrecord
 70
     0
  0
XRECORD
  5
110
102
{ACAD_REACTORS
330
105
102
}
330
105
100
AcDbXrecord
  1
{FAEB1C32-E019-11D5-929B-00C0DF256EC4}
  0
DICTIONARYVAR
  5
12D
102
{ACAD_REACTORS
330
6C
102
}
330
6C
100
DictionaryVariables
280
     0
  1
1:1
  0
DICTIONARYVAR
  5
125
102
{ACAD_REACTORS
330
6C
102
}
330
6C
100
DictionaryVariables
280
     0
  1
Onshape-Standard
  0
DICTIONARYVAR
  5
12B
102
{ACAD_REACTORS
330
6C
102
}
330
6C
100
DictionaryVariables
280
     0
  1
2
  0
DICTIONARYVAR
  5
12C
102
{ACAD_REACTORS
330
6C
102
}
330
6C
100
DictionaryVariables
280
     0
  1
1
  0
DICTIONARYVAR
  5
12E
102
{ACAD_REACTORS
330
6C
102
}
330
6C
100
DictionaryVariables
280
     0
  1
1
  0
DICTIONARYVAR
  5
6D
102
{ACAD_REACTORS
330
6C
102
}
330
6C
100
DictionaryVariables
280
     0
  1
0
  0
DICTIONARYVAR
  5
128
102
{ACAD_REACTORS
330
6C
102
}
330
6C
100
DictionaryVariables
280
     0
  1
80.000000
  0
DICTIONARYVAR
  5
127
102
{ACAD_REACTORS
330
6C
102
}
330
6C
100
DictionaryVariables
280
     0
  1
5.000000
  0
XRECORD
  5
BF
102
{ACAD_REACTORS
330
BE
102
}
330
BE
100
AcDbXrecord
 70
     4
  0
XRECORD
  5
C2
102
{ACAD_REACTORS
330
BE
102
}
330
BE
100
AcDbXrecord
 90
        0
  0
XRECORD
  5
C1
102
{ACAD_REACTORS
330
BE
102
}
330
BE
100
AcDbXrecord
 90
        0
  0
XRECORD
  5
C0
102
{ACAD_REACTORS
330
BE
102
}
330
BE
100
AcDbXrecord
 90
        1
  0
DICTIONARY
  5
131
330
45
100
AcDbDictionary
280
     1
  3
ACAD_XREC_ROUNDTRIP
360
132
  0
DICTIONARY
  5
12F
330
44
100
AcDbDictionary
280
     1
  3
ACAD_XREC_ROUNDTRIP
360
130
  0
DICTIONARY
  5
133
330
46
100
AcDbDictionary
280
     1
  3
ACAD_XREC_ROUNDTRIP
360
134
  0
XRECORD
  5
132
102
{ACAD_REACTORS
330
131
102
}
330
131
100
AcDbXrecord
102
MATERIAL
148
0.0
149
0.0
149
0.0
 93
        0
 94
      127
282
     0
 72
     1
 77
     1
171
     1
175
     1
179
     1
273
     0
  0
XRECORD
  5
130
102
{ACAD_REACTORS
330
12F
102
}
330
12F
100
AcDbXrecord
102
MATERIAL
148
0.0
149
0.0
149
0.0
 93
        0
 94
      127
282
     0
 72
     1
 77
     1
171
     1
175
     1
179
     1
273
     0
  0
XRECORD
  5
134
102
{ACAD_REACTORS
330
133
102
}
330
133
100
AcDbXrecord
102
MATERIAL
148
0.0
149
0.0
149
0.0
 93
        0
 94
      127
282
     0
 72
     1
 77
     1
171
     1
175
     1
179
     1
273
     0
  0
ENDSEC
  0
EOF
