  0
SECTION
  2
HEADER
  9
$ACADVER
  1
AC1014
  9
$ACADMAINTVER
 70
     9
  9
$DWGCODEPAGE
  3
ANSI_1252
  9
$INSBASE
 10
0.0
 20
0.0
 30
0.0
  9
$EXTMIN
 10
1.000000000000000E+20
 20
1.000000000000000E+20
 30
1.000000000000000E+20
  9
$EXTMAX
 10
-1.000000000000000E+20
 20
-1.000000000000000E+20
 30
-1.000000000000000E+20
  9
$LIMMIN
 10
0.0
 20
0.0
  9
$LIMMAX
 10
420.0
 20
297.0
  9
$ORTHOMODE
 70
     0
  9
$REGENMODE
 70
     1
  9
$FILLMODE
 70
     1
  9
$QTEXTMODE
 70
     0
  9
$MIRRTEXT
 70
     1
  9
$DRAGMODE
 70
     2
  9
$LTSCALE
 40
12.7
  9
$OSMODE
 70
    23
  9
$ATTMODE
 70
     1
  9
$TEXTSIZE
 40
3.5
  9
$TRACEWID
 40
1.0
  9
$TEXTSTYLE
  7
ONSHAPE-STANDARD
  9
$CLAYER
  8
0
  9
$CELTYPE
  6
BYLAYER
  9
$CECOLOR
 62
   256
  9
$CELTSCALE
 40
1.0
  9
$DELOBJ
 70
     1
  9
$DISPSILH
 70
     0
  9
$DIMSCALE
 40
1.0
  9
$DIMASZ
 40
2.5
  9
$DIMEXO
 40
0.625
  9
$DIMDLI
 40
3.75
  9
$DIMRND
 40
0.0
  9
$DIMDLE
 40
0.0
  9
$DIMEXE
 40
1.25
  9
$DIMTP
 40
0.0
  9
$DIMTM
 40
0.0
  9
$DIMTXT
 40
2.5
  9
$DIMCEN
 40
2.5
  9
$DIMTSZ
 40
0.0
  9
$DIMTOL
 70
     0
  9
$DIMLIM
 70
     0
  9
$DIMTIH
 70
     0
  9
$DIMTOH
 70
     0
  9
$DIMSE1
 70
     0
  9
$DIMSE2
 70
     0
  9
$DIMTAD
 70
     1
  9
$DIMZIN
 70
     8
  9
$DIMBLK
  1

  9
$DIMASO
 70
     1
  9
$DIMSHO
 70
     1
  9
$DIMPOST
  1

  9
$DIMAPOST
  1

  9
$DIMALT
 70
     0
  9
$DIMALTD
 70
     3
  9
$DIMALTF
 40
0.03937
  9
$DIMLFAC
 40
1.0
  9
$DIMTOFL
 70
     1
  9
$DIMTVP
 40
0.0
  9
$DIMTIX
 70
     0
  9
$DIMSOXD
 70
     0
  9
$DIMSAH
 70
     0
  9
$DIMBLK1
  1

  9
$DIMBLK2
  1

  9
$DIMSTYLE
  2
ONSHAPE-ISO-25
  9
$DIMCLRD
 70
     7
  9
$DIMCLRE
 70
     7
  9
$DIMCLRT
 70
     7
  9
$DIMTFAC
 40
1.0
  9
$DIMGAP
 40
0.625
  9
$DIMJUST
 70
     0
  9
$DIMSD1
 70
     0
  9
$DIMSD2
 70
     0
  9
$DIMTOLJ
 70
     0
  9
$DIMTZIN
 70
     8
  9
$DIMALTZ
 70
     8
  9
$DIMALTTZ
 70
     0
  9
$DIMFIT
 70
     3
  9
$DIMUPT
 70
     1
  9
$DIMUNIT
 70
     2
  9
$DIMDEC
 70
     2
  9
$DIMTDEC
 70
     3
  9
$DIMALTU
 70
     2
  9
$DIMALTTD
 70
     3
  9
$DIMTXSTY
  7
ONSHAPE-STANDARD-DIMENSION
  9
$DIMAUNIT
 70
     0
  9
$LUNITS
 70
     2
  9
$LUPREC
 70
     4
  9
$SKETCHINC
 40
1.0
  9
$FILLETRAD
 40
10.0
  9
$AUNITS
 70
     0
  9
$AUPREC
 70
     0
  9
$MENU
  1
.
  9
$ELEVATION
 40
0.0
  9
$PELEVATION
 40
0.0
  9
$THICKNESS
 40
0.0
  9
$LIMCHECK
 70
     0
  9
$CHAMFERA
 40
0.0
  9
$CHAMFERB
 40
0.0
  9
$CHAMFERC
 40
0.0
  9
$CHAMFERD
 40
0.0
  9
$SKPOLY
 70
     0
  9
$TDCREATE
 40
2458999.765972211
  9
$TDUPDATE
 40
2458999.765972211
  9
$TDINDWG
 40
0.0
  9
$TDUSRTIMER
 40
0.0
  9
$USRTIMER
 70
     1
  9
$ANGBASE
 50
0.0
  9
$ANGDIR
 70
     0
  9
$PDMODE
 70
     0
  9
$PDSIZE
 40
0.0
  9
$PLINEWID
 40
0.0
  9
$COORDS
 70
     1
  9
$SPLFRAME
 70
     0
  9
$SPLINETYPE
 70
     6
  9
$SPLINESEGS
 70
     8
  9
$ATTDIA
 70
     0
  9
$ATTREQ
 70
     1
  9
$HANDLING
 70
     1
  9
$HANDSEED
  5
144
  9
$SURFTAB1
 70
     6
  9
$SURFTAB2
 70
     6
  9
$SURFTYPE
 70
     6
  9
$SURFU
 70
     6
  9
$SURFV
 70
     6
  9
$UCSNAME
  2

  9
$UCSORG
 10
0.0
 20
0.0
 30
0.0
  9
$UCSXDIR
 10
1.0
 20
0.0
 30
0.0
  9
$UCSYDIR
 10
0.0
 20
1.0
 30
0.0
  9
$PUCSNAME
  2

  9
$PUCSORG
 10
0.0
 20
0.0
 30
0.0
  9
$PUCSXDIR
 10
1.0
 20
0.0
 30
0.0
  9
$PUCSYDIR
 10
0.0
 20
1.0
 30
0.0
  9
$USERI1
 70
     0
  9
$USERI2
 70
     0
  9
$USERI3
 70
     0
  9
$USERI4
 70
     0
  9
$USERI5
 70
     0
  9
$USERR1
 40
0.0
  9
$USERR2
 40
0.0
  9
$USERR3
 40
0.0
  9
$USERR4
 40
0.0
  9
$USERR5
 40
0.0
  9
$WORLDVIEW
 70
     1
  9
$SHADEDGE
 70
     3
  9
$SHADEDIF
 70
    70
  9
$TILEMODE
 70
     1
  9
$MAXACTVP
 70
    64
  9
$PINSBASE
 10
0.0
 20
0.0
 30
0.0
  9
$PLIMCHECK
 70
     0
  9
$PEXTMIN
 10
1.000000000000000E+20
 20
1.000000000000000E+20
 30
1.000000000000000E+20
  9
$PEXTMAX
 10
-1.000000000000000E+20
 20
-1.000000000000000E+20
 30
-1.000000000000000E+20
  9
$PLIMMIN
 10
0.0
 20
0.0
  9
$PLIMMAX
 10
420.0
 20
297.0
  9
$UNITMODE
 70
     0
  9
$VISRETAIN
 70
     1
  9
$PLINEGEN
 70
     0
  9
$PSLTSCALE
 70
     1
  9
$TREEDEPTH
 70
  3020
  9
$PICKSTYLE
 70
     1
  9
$CMLSTYLE
  2
STANDARD
  9
$CMLJUST
 70
     0
  9
$CMLSCALE
 40
20.0
  9
$PROXYGRAPHICS
 70
     1
  9
$MEASUREMENT
 70
     1
  0
ENDSEC
  0
SECTION
  2
CLASSES
  0
CLASS
  1
ACDBDICTIONARYWDFLT
  2
AcDbDictionaryWithDefault
  3
ObjectDBX Classes
 90
        0
280
     0
281
     0
  0
CLASS
  1
VISUALSTYLE
  2
AcDbVisualStyle
  3
ObjectDBX Classes
 90
     4095
280
     0
281
     0
  0
CLASS
  1
MATERIAL
  2
AcDbMaterial
  3
ObjectDBX Classes
 90
     1153
280
     0
281
     0
  0
CLASS
  1
SCALE
  2
AcDbScale
  3
ObjectDBX Classes
 90
     1153
280
     0
281
     0
  0
CLASS
  1
SUN
  2
AcDbSun
  3
SCENEOE
 90
     1153
280
     0
281
     0
  0
CLASS
  1
TABLESTYLE
  2
AcDbTableStyle
  3
ObjectDBX Classes
 90
     4095
280
     0
281
     0
  0
CLASS
  1
DICTIONARYVAR
  2
AcDbDictionaryVar
  3
ObjectDBX Classes
 90
        0
280
     0
281
     0
  0
CLASS
  1
XRECORD
  2
AcDbXrecord
  3
ObjectDBX Classes
 90
        0
280
     0
281
     0
  0
CLASS
  1
LWPOLYLINE
  2
AcDbPolyline
  3
ObjectDBX Classes
 90
        0
280
     0
281
     1
  0
CLASS
  1
HATCH
  2
AcDbHatch
  3
ObjectDBX Classes
 90
        0
280
     0
281
     1
  0
CLASS
  1
ACDBPLACEHOLDER
  2
AcDbPlaceHolder
  3
ObjectDBX Classes
 90
        0
280
     0
281
     0
  0
CLASS
  1
LAYOUT
  2
AcDbLayout
  3
ObjectDBX Classes
 90
        0
280
     0
281
     0
  0
ENDSEC
  0
SECTION
  2
TABLES
  0
TABLE
  2
VPORT
  5
8
330
0
100
AcDbSymbolTable
 70
     1
  0
VPORT
  5
29
330
8
100
AcDbSymbolTableRecord
100
AcDbViewportTableRecord
  2
*ACTIVE
 70
     0
 10
0.0
 20
0.0
 11
1.0
 21
1.0
 12
412.2223375647308
 22
212.1291532925265
 13
0.0
 23
0.0
 14
10.0
 24
10.0
 15
10.0
 25
10.0
 16
0.0
 26
0.0
 36
1.0
 17
0.0
 27
0.0
 37
0.0
 40
242.9618913391139
 41
1.081306019511598
 42
50.0
 43
0.0
 44
0.0
 50
0.0
 51
0.0
 71
     0
 72
   100
 73
     1
 74
     3
 75
     0
 76
     0
 77
     0
 78
     0
  0
ENDTAB
  0
TABLE
  2
LTYPE
  5
5
330
0
100
AcDbSymbolTable
 70
     1
  0
LTYPE
  5
14
330
5
100
AcDbSymbolTableRecord
100
AcDbLinetypeTableRecord
  2
BYBLOCK
 70
     0
  3

 72
    65
 73
     0
 40
0.0
  0
LTYPE
  5
15
330
5
100
AcDbSymbolTableRecord
100
AcDbLinetypeTableRecord
  2
BYLAYER
 70
     0
  3

 72
    65
 73
     0
 40
0.0
  0
LTYPE
  5
16
330
5
100
AcDbSymbolTableRecord
100
AcDbLinetypeTableRecord
  2
CONTINUOUS
 70
     0
  3
Solid line
 72
    65
 73
     0
 40
0.0
  0
ENDTAB
  0
TABLE
  2
LAYER
  5
2
330
0
100
AcDbSymbolTable
 70
     4
  0
LAYER
  5
10
330
2
100
AcDbSymbolTableRecord
100
AcDbLayerTableRecord
  2
0
 70
     0
 62
     7
  6
CONTINUOUS
  0
LAYER
  5
6E
330
2
100
AcDbSymbolTableRecord
100
AcDbLayerTableRecord
  2
DEFPOINTS
 70
     0
 62
     7
  6
CONTINUOUS
  0
LAYER
  5
75
330
2
100
AcDbSymbolTableRecord
100
AcDbLayerTableRecord
  2
ANNOTATION_TEXT
 70
     0
 62
     7
  6
CONTINUOUS
  0
LAYER
  5
78
330
2
100
AcDbSymbolTableRecord
100
AcDbLayerTableRecord
  2
VISIBLE
 70
     0
 62
     7
  6
CONTINUOUS
  0
ENDTAB
  0
TABLE
  2
STYLE
  5
3
330
0
100
AcDbSymbolTable
 70
    27
  0
STYLE
  5
11
330
3
100
AcDbSymbolTableRecord
100
AcDbTextStyleTableRecord
  2
STANDARD
 70
     0
 40
0.0
 41
1.0
 50
0.0
 71
     0
 42
3.5
  3
txt
  4

  0
STYLE
  5
6F
330
3
100
AcDbSymbolTableRecord
100
AcDbTextStyleTableRecord
  2
ONSHAPE-STANDARD
 70
     0
 40
0.0
 41
1.0
 50
0.0
 71
     0
 42
3.5
  3
NotoSans-Regular.ttf
  4

1001
ACAD
1000
Noto Sans
1071
        0
  0
STYLE
  5
71
330
3
100
AcDbSymbolTableRecord
100
AcDbTextStyleTableRecord
  2
ONSHAPE-STANDARD-DIMENSION
 70
     0
 40
0.0
 41
1.0
 50
0.0
 71
     0
 42
3.5
  3

  4

1001
ACAD
1000
Noto Sans
1071
        0
  0
STYLE
  5
77
330
3
100
AcDbSymbolTableRecord
100
AcDbTextStyleTableRecord
  2
ONSHAPE-STANDARD-VIEW-LABE
 70
     0
 40
2.5
 41
1.0
 50
0.0
 71
     0
 42
3.5
  3
Noto Sans
  4

1001
ACAD
1000
Noto Sans
1071
        0
  0
STYLE
  5
D4
330
3
100
AcDbSymbolTableRecord
100
AcDbTextStyleTableRecord
  2
ONSHAPE-STANDARD-BOLD
 70
     0
 40
0.0
 41
1.0
 50
0.0
 71
     0
 42
3.5
  3
NotoSans-Bold.ttf
  4

1001
ACAD
1000
Noto Sans
1071
 33554432
  0
STYLE
  5
D5
330
3
100
AcDbSymbolTableRecord
100
AcDbTextStyleTableRecord
  2
ONSHAPE-STANDARD-FIELDS
 70
     0
 40
0.0
 41
1.0
 50
0.0
 71
     0
 42
3.5
  3

  4

1001
ACAD
1000
Noto Sans
1071
        0
  0
STYLE
  5
D6
330
3
100
AcDbSymbolTableRecord
100
AcDbTextStyleTableRecord
  2
ONSHAPE-STANDARD-TCFIELDS
 70
     0
 40
0.0
 41
1.0
 50
0.0
 71
     0
 42
3.5
  3
NotoSansTC-Regular.otf
  4

1001
ACAD
1000
Noto Sans TC
1071
        0
  0
STYLE
  5
D7
330
3
100
AcDbSymbolTableRecord
100
AcDbTextStyleTableRecord
  2
ONSHAPE-STANDARD-SCFIELDS
 70
     0
 40
0.0
 41
1.0
 50
0.0
 71
     0
 42
3.5
  3
NotoSansSC-Regular.otf
  4

1001
ACAD
1000
Noto Sans SC
1071
        0
  0
STYLE
  5
D8
330
3
100
AcDbSymbolTableRecord
100
AcDbTextStyleTableRecord
  2
ONSHAPE-STANDARD-KOREANFIE
 70
     0
 40
0.0
 41
1.0
 50
0.0
 71
     0
 42
3.5
  3
NotoSansKR-Regular.otf
  4

1001
ACAD
1000
Noto Sans KR
1071
        0
  0
STYLE
  5
DA
330
3
100
AcDbSymbolTableRecord
100
AcDbTextStyleTableRecord
  2
TTFSTYLE
 70
     0
 40
0.0
 41
1.0
 50
0.0
 71
     0
 42
3.5
  3
Verdana.ttf
  4

1001
ACAD
1000
Verdana
1071
       34
  0
STYLE
  5
DB
330
3
100
AcDbSymbolTableRecord
100
AcDbTextStyleTableRecord
  2
ONSHAPE-STANDARD-GTOLERANC
 70
     0
 40
2.5
 41
1.0
 50
0.0
 71
     0
 42
3.5
  3

  4

1001
ACAD
1000
Noto Sans
1071
        0
  0
STYLE
  5
DC
330
3
100
AcDbSymbolTableRecord
100
AcDbTextStyleTableRecord
  2
ONSHAPE-STANDARD-TABLE-DAT
 70
     0
 40
0.0
 41
1.0
 50
0.0
 71
     0
 42
3.5
  3
Noto Sans
  4

1001
ACAD
1000
Noto Sans
1071
        0
  0
STYLE
  5
DD
330
3
100
AcDbSymbolTableRecord
100
AcDbTextStyleTableRecord
  2
ONSHAPE-STANDARD-TABLE-TIT
 70
     0
 40
0.0
 41
1.0
 50
0.0
 71
     0
 42
3.5
  3
Noto Sans
  4

1001
ACAD
1000
Noto Sans
1071
 33554432
  0
STYLE
  5
DE
330
3
100
AcDbSymbolTableRecord
100
AcDbTextStyleTableRecord
  2
ONSHAPE-STANDARD-TABLE-HEA
 70
     0
 40
0.0
 41
1.0
 50
0.0
 71
     0
 42
3.5
  3
Noto Sans
  4

1001
ACAD
1000
Noto Sans
1071
 33554432
  0
STYLE
  5
DF
330
3
100
AcDbSymbolTableRecord
100
AcDbTextStyleTableRecord
  2
ONSHAPE-STANDARD-BOMTABLE-
 70
     0
 40
0.0
 41
1.0
 50
0.0
 71
     0
 42
3.5
  3
Noto Sans
  4

1001
ACAD
1000
Noto Sans
1071
        0
  0
STYLE
  5
E0
330
3
100
AcDbSymbolTableRecord
100
AcDbTextStyleTableRecord
  2
ONSHAPE-STANDARD-BOMTABLE0
 70
     0
 40
0.0
 41
1.0
 50
0.0
 71
     0
 42
3.5
  3
Noto Sans
  4

1001
ACAD
1000
Noto Sans
1071
 33554432
  0
STYLE
  5
E1
330
3
100
AcDbSymbolTableRecord
100
AcDbTextStyleTableRecord
  2
ONSHAPE-STANDARD-BOMTABLE1
 70
     0
 40
0.0
 41
1.0
 50
0.0
 71
     0
 42
3.5
  3
Noto Sans
  4

1001
ACAD
1000
Noto Sans
1071
 33554432
  0
STYLE
  5
E2
330
3
100
AcDbSymbolTableRecord
100
AcDbTextStyleTableRecord
  2
ONSHAPE-STANDARD-NOTESTYLE
 70
     0
 40
2.5
 41
1.0
 50
0.0
 71
     0
 42
3.5
  3
Noto Sans
  4

1001
ACAD
1000
Noto Sans
1071
        0
  0
STYLE
  5
E4
330
3
100
AcDbSymbolTableRecord
100
AcDbTextStyleTableRecord
  2
ONSHAPE-STANDARD-HOLE-CALL
 70
     0
 40
2.5
 41
1.0
 50
0.0
 71
     0
 42
3.5
  3
Noto Sans
  4

1001
ACAD
1000
Noto Sans
1071
        0
  0
STYLE
  5
E5
330
3
100
AcDbSymbolTableRecord
100
AcDbTextStyleTableRecord
  2
ONSHAPE-STANDARD-HOLETABLE
 70
     0
 40
0.0
 41
1.0
 50
0.0
 71
     0
 42
3.5
  3
Noto Sans
  4

1001
ACAD
1000
Noto Sans
1071
        0
  0
STYLE
  5
E6
330
3
100
AcDbSymbolTableRecord
100
AcDbTextStyleTableRecord
  2
ONSHAPE-STANDARD-HOLETABL0
 70
     0
 40
0.0
 41
1.0
 50
0.0
 71
     0
 42
3.5
  3
Noto Sans
  4

1001
ACAD
1000
Noto Sans
1071
 33554432
  0
STYLE
  5
E7
330
3
100
AcDbSymbolTableRecord
100
AcDbTextStyleTableRecord
  2
ONSHAPE-STANDARD-HOLETABL1
 70
     0
 40
0.0
 41
1.0
 50
0.0
 71
     0
 42
3.5
  3
Noto Sans
  4

1001
ACAD
1000
Noto Sans
1071
 33554432
  0
STYLE
  5
E8
330
3
100
AcDbSymbolTableRecord
100
AcDbTextStyleTableRecord
  2
ONSHAPE-STANDARD-HOLE-TAG
 70
     0
 40
2.0
 41
1.0
 50
0.0
 71
     0
 42
3.5
  3
Noto Sans
  4

1001
ACAD
1000
Noto Sans
1071
        0
  0
STYLE
  5
E9
330
3
100
AcDbSymbolTableRecord
100
AcDbTextStyleTableRecord
  2
ONSHAPE-STANDARD-REVISIONT
 70
     0
 40
0.0
 41
1.0
 50
0.0
 71
     0
 42
3.5
  3
Noto Sans
  4

1001
ACAD
1000
Noto Sans
1071
        0
  0
STYLE
  5
EA
330
3
100
AcDbSymbolTableRecord
100
AcDbTextStyleTableRecord
  2
ONSHAPE-STANDARD-REVISION0
 70
     0
 40
0.0
 41
1.0
 50
0.0
 71
     0
 42
3.5
  3
Noto Sans
  4

1001
ACAD
1000
Noto Sans
1071
 33554432
  0
STYLE
  5
EB
330
3
100
AcDbSymbolTableRecord
100
AcDbTextStyleTableRecord
  2
ONSHAPE-STANDARD-REVISION1
 70
     0
 40
0.0
 41
1.0
 50
0.0
 71
     0
 42
3.5
  3
Noto Sans
  4

1001
ACAD
1000
Noto Sans
1071
 33554432
  0
STYLE
  5
EC
330
3
100
AcDbSymbolTableRecord
100
AcDbTextStyleTableRecord
  2
ONSHAPE-STANDARD-REVISION-
 70
     0
 40
2.0
 41
1.0
 50
0.0
 71
     0
 42
3.5
  3
Noto Sans
  4

1001
ACAD
1000
Noto Sans
1071
        0
  0
ENDTAB
  0
TABLE
  2
VIEW
  5
6
330
0
100
AcDbSymbolTable
 70
     0
  0
ENDTAB
  0
TABLE
  2
UCS
  5
7
330
0
100
AcDbSymbolTable
 70
     0
  0
ENDTAB
  0
TABLE
  2
APPID
  5
9
330
0
100
AcDbSymbolTable
 70
     1
  0
APPID
  5
12
330
9
100
AcDbSymbolTableRecord
100
AcDbRegAppTableRecord
  2
ACAD
 70
     0
  0
ENDTAB
  0
TABLE
  2
DIMSTYLE
  5
A
330
0
100
AcDbSymbolTable
 70
    18
  0
DIMSTYLE
105
27
330
A
100
AcDbSymbolTableRecord
100
AcDbDimStyleTableRecord
  2
ISO-25
 70
     0
  3

  4

  5

  6

  7

 40
1.0
 41
2.5
 42
0.625
 43
3.75
 44
1.25
 45
0.0
 46
0.0
 47
0.0
 48
0.0
140
2.5
141
2.5
142
0.0
143
0.03937007874016
144
1.0
145
0.0
146
1.0
147
0.625
 71
     0
 72
     0
 73
     0
 74
     0
 75
     0
 76
     0
 77
     1
 78
     8
170
     0
171
     3
172
     1
173
     0
174
     0
175
     0
176
     0
177
     0
178
     0
270
     2
271
     2
272
     2
273
     2
274
     3
340
11
275
     0
280
     0
281
     0
282
     0
283
     0
284
     8
285
     0
286
     0
287
     3
288
     0
  0
DIMSTYLE
105
70
330
A
100
AcDbSymbolTableRecord
100
AcDbDimStyleTableRecord
  2
ONSHAPE-ISO-25
 70
     0
  3

  4

  5

  6

  7

 40
1.0
 41
2.5
 42
0.625
 43
3.75
 44
1.25
 45
0.0
 46
0.0
 47
0.0
 48
0.0
140
2.5
141
2.5
142
0.0
143
0.03937
144
1.0
145
0.0
146
1.0
147
0.625
 71
     0
 72
     0
 73
     0
 74
     0
 75
     0
 76
     0
 77
     1
 78
     8
170
     0
171
     3
172
     1
173
     0
174
     0
175
     0
176
     7
177
     7
178
     7
179
     1
270
     2
271
     2
272
     3
273
     2
274
     3
340
71
275
     0
280
     0
281
     0
282
     0
283
     0
284
     8
285
     8
286
     0
287
     3
288
     1
  0
DIMSTYLE
105
EF
330
A
100
AcDbSymbolTableRecord
100
AcDbDimStyleTableRecord
  2
ISO
 70
     0
  3

  4
"
  5

  6

  7

 40
1.0
 41
3.5
 42
1.0
 43
10.0
 44
1.0
 45
0.0
 46
0.0
 47
0.1
 48
0.1
140
2.5
141
0.0
142
0.0
143
0.03937
144
1.0
145
0.0
146
0.71
147
1.5
 71
     0
 72
     0
 73
     0
 74
     0
 75
     0
 76
     0
 77
     1
 78
     8
170
     0
171
     3
172
     1
173
     0
174
     0
175
     0
176
     7
177
     7
178
     7
270
     2
271
     2
272
     3
273
     2
274
     3
340
11
275
     0
280
     0
281
     0
282
     0
283
     0
284
     8
285
     8
286
     0
287
     3
288
     1
  0
DIMSTYLE
105
F0
330
A
100
AcDbSymbolTableRecord
100
AcDbDimStyleTableRecord
  2
ISO$3
 70
     0
  3

  4
"
  5

  6

  7

 40
1.0
 41
3.5
 42
1.0
 43
10.0
 44
1.0
 45
0.0
 46
0.0
 47
0.1
 48
0.1
140
2.5
141
0.0
142
0.0
143
0.03937
144
1.0
145
0.0
146
0.71
147
1.5
 71
     0
 72
     0
 73
     0
 74
     0
 75
     0
 76
     0
 77
     1
 78
     8
170
     0
171
     3
172
     0
173
     0
174
     0
175
     0
176
     7
177
     7
178
     7
270
     2
271
     2
272
     3
273
     2
274
     3
340
11
275
     0
280
     0
281
     0
282
     0
283
     0
284
     8
285
     8
286
     0
288
     1
  0
DIMSTYLE
105
F1
330
A
100
AcDbSymbolTableRecord
100
AcDbDimStyleTableRecord
  2
ISO$4
 70
     0
  3

  4
"
  5

  6

  7

 40
1.0
 41
3.5
 42
1.0
 43
10.0
 44
1.0
 45
0.0
 46
0.0
 47
0.1
 48
0.1
140
2.5
141
0.0
142
0.0
143
0.03937
144
1.0
145
0.0
146
0.71
147
1.5
 71
     0
 72
     0
 73
     0
 74
     0
 75
     0
 76
     0
 77
     1
 78
     8
170
     0
171
     3
172
     1
173
     0
174
     0
175
     0
176
     7
177
     7
178
     7
270
     2
271
     2
272
     3
273
     2
274
     3
340
11
275
     0
280
     0
281
     0
282
     0
283
     0
284
     8
285
     8
286
     0
287
     3
288
     1
  0
DIMSTYLE
105
F2
330
A
100
AcDbSymbolTableRecord
100
AcDbDimStyleTableRecord
  2
ISO$6
 70
     0
  3

  4
"
  5

  6

  7

 40
1.0
 41
0.5
 42
1.0
 43
10.0
 44
1.0
 45
0.0
 46
0.0
 47
0.1
 48
0.1
140
2.5
141
0.0
142
0.0
143
0.03937
144
1.0
145
0.0
146
0.71
147
1.5
 71
     0
 72
     0
 73
     0
 74
     0
 75
     0
 76
     0
 77
     0
 78
     8
170
     0
171
     3
172
     1
173
     0
174
     0
175
     0
176
     7
177
     7
178
     7
270
     2
271
     2
272
     3
273
     2
274
     3
340
11
275
     0
280
     0
281
     0
282
     0
283
     0
284
     8
285
     8
286
     0
287
     3
288
     1
  0
DIMSTYLE
105
F3
330
A
100
AcDbSymbolTableRecord
100
AcDbDimStyleTableRecord
  2
ISO$7
 70
     0
  3

  4
"
  5

  6

  7

 40
1.0
 41
3.5
 42
1.0
 43
10.0
 44
1.0
 45
0.0
 46
0.0
 47
0.1
 48
0.1
140
2.5
141
0.0
142
0.0
143
0.03937
144
1.0
145
0.0
146
0.71
147
1.5
 71
     0
 72
     0
 73
     0
 74
     0
 75
     0
 76
     0
 77
     1
 78
     8
170
     0
171
     3
172
     1
173
     0
174
     0
175
     0
176
     7
177
     7
178
     7
270
     2
271
     2
272
     3
273
     2
274
     3
340
11
275
     0
280
     0
281
     0
282
     0
283
     0
284
     8
285
     8
286
     0
287
     3
288
     1
  0
DIMSTYLE
105
F4
330
A
100
AcDbSymbolTableRecord
100
AcDbDimStyleTableRecord
  2
ISO$SF
 70
     0
  3

  4
"
  5

  6

  7

 40
1.0
 41
3.5
 42
1.0
 43
10.0
 44
1.0
 45
0.0
 46
0.0
 47
0.1
 48
0.1
140
2.5
141
0.0
142
0.0
143
0.03937
144
1.0
145
0.0
146
0.71
147
1.5
 71
     0
 72
     0
 73
     0
 74
     0
 75
     1
 76
     1
 77
     1
 78
     8
170
     0
171
     3
172
     1
173
     0
174
     0
175
     0
176
     7
177
     7
178
     7
270
     2
271
     2
272
     3
273
     2
274
     3
340
11
275
     0
280
     0
281
     0
282
     0
283
     0
284
     8
285
     8
286
     0
287
     3
288
     1
  0
DIMSTYLE
105
F5
330
A
100
AcDbSymbolTableRecord
100
AcDbDimStyleTableRecord
  2
ISO$SH
 70
     0
  3

  4
"
  5

  6

  7

 40
1.0
 41
3.5
 42
1.0
 43
10.0
 44
1.0
 45
0.0
 46
0.0
 47
0.1
 48
0.1
140
2.5
141
0.0
142
0.0
143
0.03937
144
1.0
145
0.0
146
0.71
147
1.5
 71
     0
 72
     0
 73
     0
 74
     0
 75
     1
 76
     1
 77
     1
 78
     8
170
     0
171
     3
172
     1
173
     0
174
     0
175
     0
176
     7
177
     7
178
     7
270
     2
271
     2
272
     3
273
     2
274
     3
340
11
275
     0
280
     0
281
     0
282
     0
283
     0
284
     8
285
     8
286
     0
287
     3
288
     1
  0
DIMSTYLE
105
F8
330
A
100
AcDbSymbolTableRecord
100
AcDbDimStyleTableRecord
  2
ONSHAPE-ISO-25$0
 70
     0
  3

  4

  5

  6

  7

 40
1.0
 41
2.5
 42
0.625
 43
3.75
 44
1.25
 45
0.0
 46
0.0
 47
0.0
 48
0.0
140
2.5
141
2.5
142
0.0
143
0.03937
144
1.0
145
0.0
146
1.0
147
0.625
 71
     0
 72
     0
 73
     0
 74
     0
 75
     0
 76
     0
 77
     1
 78
     8
170
     0
171
     3
172
     1
173
     0
174
     0
175
     0
176
     7
177
     7
178
     7
179
     1
270
     2
271
     2
272
     3
273
     2
274
     3
340
71
275
     0
280
     0
281
     0
282
     0
283
     0
284
     8
285
     8
286
     0
287
     3
288
     1
  0
DIMSTYLE
105
F9
330
A
100
AcDbSymbolTableRecord
100
AcDbDimStyleTableRecord
  2
ONSHAPE-ISO-25$2
 70
     0
  3

  4

  5

  6

  7

 40
1.0
 41
2.5
 42
0.625
 43
3.75
 44
1.25
 45
0.0
 46
0.0
 47
0.0
 48
0.0
140
2.5
141
2.5
142
0.0
143
0.03937
144
1.0
145
0.0
146
1.0
147
0.625
 71
     0
 72
     0
 73
     0
 74
     0
 75
     0
 76
     0
 77
     1
 78
     8
170
     0
171
     3
172
     1
173
     0
174
     0
175
     0
176
     7
177
     7
178
     7
179
     1
270
     2
271
     2
272
     3
273
     2
274
     3
340
71
275
     0
280
     0
281
     0
282
     0
283
     0
284
     8
285
     8
286
     0
287
     3
288
     1
  0
DIMSTYLE
105
FA
330
A
100
AcDbSymbolTableRecord
100
AcDbDimStyleTableRecord
  2
ONSHAPE-ISO-25$3
 70
     0
  3

  4

  5

  6

  7

 40
1.0
 41
2.5
 42
0.625
 43
3.75
 44
1.25
 45
0.0
 46
0.0
 47
0.0
 48
0.0
140
2.5
141
0.0
142
0.0
143
0.03937
144
1.0
145
0.0
146
1.0
147
0.625
 71
     0
 72
     0
 73
     0
 74
     0
 75
     0
 76
     0
 77
     1
 78
     8
170
     0
171
     3
172
     1
173
     0
174
     0
175
     0
176
     7
177
     7
178
     7
179
     1
270
     2
271
     2
272
     3
273
     2
274
     3
340
71
275
     0
280
     0
281
     0
282
     0
283
     0
284
     8
285
     8
286
     0
287
     3
288
     1
  0
DIMSTYLE
105
FB
330
A
100
AcDbSymbolTableRecord
100
AcDbDimStyleTableRecord
  2
ONSHAPE-ISO-25$4
 70
     0
  3

  4

  5

  6

  7

 40
1.0
 41
2.5
 42
0.625
 43
3.75
 44
1.25
 45
0.0
 46
0.0
 47
0.0
 48
0.0
140
2.5
141
0.0
142
0.0
143
0.03937
144
1.0
145
0.0
146
1.0
147
0.625
 71
     0
 72
     0
 73
     0
 74
     0
 75
     0
 76
     0
 77
     1
 78
     8
170
     0
171
     3
172
     1
173
     0
174
     0
175
     0
176
     7
177
     7
178
     7
179
     1
270
     2
271
     2
272
     3
273
     2
274
     3
340
71
275
     0
280
     0
281
     0
282
     0
283
     0
284
     8
285
     8
286
     0
287
     3
288
     1
  0
DIMSTYLE
105
FC
330
A
100
AcDbSymbolTableRecord
100
AcDbDimStyleTableRecord
  2
ONSHAPE-ISO-25$6
 70
     0
  3

  4

  5

  6

  7

 40
1.0
 41
0.5
 42
0.625
 43
3.75
 44
1.25
 45
0.0
 46
0.0
 47
0.0
 48
0.0
140
2.5
141
2.5
142
0.0
143
0.03937
144
1.0
145
0.0
146
1.0
147
0.625
 71
     0
 72
     0
 73
     0
 74
     0
 75
     0
 76
     0
 77
     1
 78
     8
170
     0
171
     3
172
     1
173
     0
174
     0
175
     0
176
     7
177
     7
178
     7
179
     1
270
     2
271
     2
272
     3
273
     2
274
     3
340
71
275
     0
280
     0
281
     0
282
     0
283
     0
284
     8
285
     8
286
     0
287
     3
288
     1
  0
DIMSTYLE
105
FD
330
A
100
AcDbSymbolTableRecord
100
AcDbDimStyleTableRecord
  2
ONSHAPE-ISO-25$7
 70
     0
  3

  4

  5

  6

  7

 40
1.0
 41
2.5
 42
0.625
 43
3.75
 44
1.25
 45
0.0
 46
0.0
 47
0.0
 48
0.0
140
2.5
141
2.5
142
0.0
143
0.03937
144
1.0
145
0.0
146
1.0
147
0.625
 71
     0
 72
     0
 73
     0
 74
     0
 75
     0
 76
     0
 77
     1
 78
     8
170
     0
171
     3
172
     1
173
     0
174
     0
175
     0
176
     7
177
     7
178
     7
179
     1
270
     2
271
     2
272
     3
273
     2
274
     3
340
71
275
     0
280
     0
281
     0
282
     0
283
     0
284
     8
285
     8
286
     0
287
     3
288
     1
  0
DIMSTYLE
105
FE
330
A
100
AcDbSymbolTableRecord
100
AcDbDimStyleTableRecord
  2
ONSHAPE-STANDARD-GTOLERANC
 70
     0
  3

  4

  5

  6

  7

 40
1.0
 41
2.5
 42
0.625
 43
3.75
 44
1.25
 45
0.0
 46
0.0
 47
0.0
 48
0.0
140
2.5
141
2.5
142
0.0
143
0.03937
144
1.0
145
0.0
146
1.0
147
0.625
 71
     0
 72
     0
 73
     0
 74
     0
 75
     0
 76
     0
 77
     1
 78
     8
170
     0
171
     3
172
     1
173
     0
174
     0
175
     0
176
     7
177
     7
178
     7
179
     1
270
     2
271
     2
272
     3
273
     2
274
     3
340
DB
275
     0
280
     0
281
     0
282
     0
283
     0
284
     8
285
     8
286
     0
287
     3
288
     1
  0
DIMSTYLE
105
100
330
A
100
AcDbSymbolTableRecord
100
AcDbDimStyleTableRecord
  2
ONSHAPE-ORDINATESTYLE
 70
     0
  3

  4

  5

  6

  7

 40
1.0
 41
2.5
 42
0.625
 43
3.75
 44
1.25
 45
0.0
 46
0.0
 47
0.0
 48
0.0
140
2.5
141
2.5
142
0.0
143
0.03937
144
1.0
145
0.0
146
1.0
147
0.625
 71
     0
 72
     0
 73
     0
 74
     0
 75
     0
 76
     0
 77
     1
 78
     8
170
     0
171
     3
172
     1
173
     0
174
     0
175
     0
176
     7
177
     7
178
     7
179
     1
270
     2
271
     2
272
     3
273
     2
274
     3
340
71
275
     0
280
     0
281
     0
282
     0
283
     0
284
     8
285
     8
286
     0
287
     3
288
     1
  0
DIMSTYLE
105
101
330
A
100
AcDbSymbolTableRecord
100
AcDbDimStyleTableRecord
  2
ONSHAPE-CHAMFERDIMSTYLE
 70
     0
  3

  4

  5

  6

  7

 40
1.0
 41
2.5
 42
0.625
 43
3.75
 44
1.25
 45
0.0
 46
0.0
 47
0.0
 48
0.0
140
2.5
141
2.5
142
0.0
143
0.03937
144
1.0
145
0.0
146
1.0
147
0.625
 71
     0
 72
     0
 73
     0
 74
     0
 75
     0
 76
     0
 77
     1
 78
     8
170
     0
171
     3
172
     1
173
     0
174
     0
175
     0
176
     7
177
     7
178
     7
179
     1
270
     2
271
     2
272
     3
273
     2
274
     3
340
71
275
     0
280
     0
281
     0
282
     0
283
     0
284
     8
285
     8
286
     0
287
     3
288
     1
  0
ENDTAB
  0
TABLE
  2
BLOCK_RECORD
  5
1
330
0
100
AcDbSymbolTable
 70
     1
  0
BLOCK_RECORD
  5
1F
330
1
100
AcDbSymbolTableRecord
100
AcDbBlockTableRecord
  2
*MODEL_SPACE
  0
BLOCK_RECORD
  5
1B
330
1
100
AcDbSymbolTableRecord
100
AcDbBlockTableRecord
  2
*PAPER_SPACE
  0
ENDTAB
  0
ENDSEC
  0
SECTION
  2
BLOCKS
  0
BLOCK
  5
20
330
1F
100
AcDbEntity
  8
0
100
AcDbBlockBegin
  2
*MODEL_SPACE
 70
     0
 10
0.0
 20
0.0
 30
0.0
  3
*MODEL_SPACE
  1

  0
ENDBLK
  5
21
330
1F
100
AcDbEntity
  8
0
100
AcDbBlockEnd
  0
BLOCK
  5
1C
330
1B
100
AcDbEntity
 67
     1
  8
0
100
AcDbBlockBegin
  2
*PAPER_SPACE
 70
     0
 10
0.0
 20
0.0
 30
0.0
  3
*PAPER_SPACE
  1

  0
ENDBLK
  5
1D
330
1B
100
AcDbEntity
 67
     1
  8
0
100
AcDbBlockEnd
  0
ENDSEC
  0
SECTION
  2
ENTITIES
  0
MTEXT
  5
72
102
{ACAD_XDICTIONARY
360
73
102
}
330
1F
100
AcDbEntity
  8
ANNOTATION_TEXT
 62
     7
 60
     1
100
AcDbMText
 10
412.2223375647307
 20
78.90194402742623
 30
0.0
 40
2.5
 41
0.0
 71
     2
 72
     1
  1

  7
ONSHAPE-STANDARD-VIEW-LABE
1001
ACAD
1000
ACAD_MTEXT_DEFINED_HEIGHT_BEGIN
1070
    46
1040
2.5
1000
ACAD_MTEXT_DEFINED_HEIGHT_END
  0
LINE
  5
7A
330
1F
100
AcDbEntity
  8
VISIBLE
100
AcDbLine
 10
362.2886385500979
 20
305.9944781098905
 30
0.0
 11
367.1094588205021
 21
298.7343141521661
 31
0.0
  0
LINE
  5
7B
330
1F
100
AcDbEntity
  8
VISIBLE
100
AcDbLine
 10
367.1094588205021
 20
298.7343141521661
 30
0.0
 11
369.0773954163626
 21
299.4303558889645
 31
0.0
  0
LINE
  5
7C
330
1F
100
AcDbEntity
  8
VISIBLE
100
AcDbLine
 10
369.0773954163626
 20
299.4303558889645
 30
0.0
 11
368.2684037852392
 21
308.1094680890755
 31
0.0
  0
LINE
  5
7D
330
1F
100
AcDbEntity
  8
VISIBLE
100
AcDbLine
 10
368.2684037852392
 20
308.1094680890755
 30
0.0
 11
371.0867622563467
 21
300.1410511360119
 31
0.0
  0
LINE
  5
7E
330
1F
100
AcDbEntity
  8
VISIBLE
100
AcDbLine
 10
371.0867622563467
 20
300.1410511360119
 30
0.0
 11
372.9856484453348
 21
300.8126703557295
 31
0.0
  0
LINE
  5
7F
330
1F
100
AcDbEntity
  8
VISIBLE
100
AcDbLine
 10
372.9856484453348
 20
300.8126703557295
 30
0.0
 11
369.4053074413113
 21
310.9354600032095
 31
0.0
  0
LINE
  5
80
330
1F
100
AcDbEntity
  8
VISIBLE
100
AcDbLine
 10
369.4053074413113
 20
310.9354600032095
 30
0.0
 11
366.339469376181
 21
309.8511002448279
 31
0.0
  0
LINE
  5
81
330
1F
100
AcDbEntity
  8
VISIBLE
100
AcDbLine
 10
366.339469376181
 20
309.8511002448279
 30
0.0
 11
366.9656953835047
 21
302.3037473583765
 31
0.0
  0
LINE
  5
82
330
1F
100
AcDbEntity
  8
VISIBLE
100
AcDbLine
 10
366.9656953835047
 20
302.3037473583765
 30
0.0
 11
362.6867028526362
 21
308.5591490912617
 31
0.0
  0
LINE
  5
83
330
1F
100
AcDbEntity
  8
VISIBLE
100
AcDbLine
 10
362.6867028526362
 20
308.5591490912617
 30
0.0
 11
359.6277698281933
 21
307.4772315845885
 31
0.0
  0
LINE
  5
84
330
1F
100
AcDbEntity
  8
VISIBLE
100
AcDbLine
 10
359.6277698281933
 20
307.4772315845885
 30
0.0
 11
363.2081108322171
 21
297.3544419371093
 31
0.0
  0
LINE
  5
85
330
1F
100
AcDbEntity
  8
VISIBLE
100
AcDbLine
 10
363.2081108322171
 20
297.3544419371093
 30
0.0
 11
365.1069970212053
 21
298.0260611568269
 31
0.0
  0
LINE
  5
86
330
1F
100
AcDbEntity
  8
VISIBLE
100
AcDbLine
 10
365.1069970212053
 20
298.0260611568269
 30
0.0
 11
362.2886385500979
 21
305.9944781098905
 31
0.0
  0
ARC
  5
87
330
1F
100
AcDbEntity
  8
VISIBLE
100
AcDbCircle
 10
380.2862460038996
 20
320.6015277116885
 30
0.0
 40
0.7
100
AcDbArc
 50
314.68465071615
 51
74.68465071551553
  0
LINE
  5
88
330
1F
100
AcDbEntity
  8
VISIBLE
100
AcDbLine
 10
380.4711380126921
 20
321.2766683970809
 30
0.0
 11
373.4548701964341
 21
323.1981225158517
 31
0.0
  0
ARC
  5
89
330
1F
100
AcDbEntity
  8
VISIBLE
100
AcDbCircle
 10
373.2699781876415
 20
322.5229818304591
 30
0.0
 40
0.7
100
AcDbArc
 50
74.68465071552001
 51
194.6846507174893
  0
LINE
  5
8A
330
1F
100
AcDbEntity
  8
VISIBLE
100
AcDbLine
 10
372.5928431985689
 20
322.3455326643095
 30
0.0
 11
373.0712731977583
 21
320.5198735230009
 31
0.0
  0
ARC
  5
8B
330
1F
100
AcDbEntity
  8
VISIBLE
100
AcDbCircle
 10
411.5397174283303
 20
173.7266812473256
 30
-0.0000000000000056
 40
151.75
100
AcDbArc
 50
104.6846507163892
 51
114.2718209203676
  0
ARC
  5
8C
330
1F
100
AcDbEntity
  8
VISIBLE
100
AcDbCircle
 10
349.8798077424609
 20
310.4675147153821
 30
0.0
 40
1.75
100
AcDbArc
 50
114.2718209202753
 51
294.2718209204568
  0
ARC
  5
8D
330
1F
100
AcDbEntity
  8
VISIBLE
100
AcDbCircle
 10
411.5397174283303
 20
173.7266812473256
 30
0.0
 40
148.25
100
AcDbArc
 50
104.6846507163892
 51
114.2718209203676
  0
LINE
  5
8E
330
1F
100
AcDbEntity
  8
VISIBLE
100
AcDbLine
 10
373.9585190284468
 20
317.1341985775985
 30
0.0
 11
374.4369490276362
 21
315.3085394362899
 31
0.0
  0
ARC
  5
8F
330
1F
100
AcDbEntity
  8
VISIBLE
100
AcDbCircle
 10
375.1140840167088
 20
315.4859886024395
 30
0.0
 40
0.7
100
AcDbArc
 50
194.6846507174938
 51
314.6846507161599
  0
LINE
  5
90
330
1F
100
AcDbEntity
  8
VISIBLE
100
AcDbLine
 10
375.6063269970125
 20
314.9882970831615
 30
0.0
 11
380.7784889842032
 21
320.1038361924103
 31
0.0
  0
SPLINE
  5
91
330
1F
100
AcDbEntity
  8
VISIBLE
100
AcDbSpline
210
0.0
220
0.0
230
1.0
 70
     8
 71
     3
 72
    11
 73
     7
 74
     0
 42
0.000000001
 43
0.0000000369511146
 40
-0.297916670017173
 40
-0.297916670017173
 40
-0.297916670017173
 40
-0.297916670017173
 40
-0.14606767552815
 40
-0.14606767552815
 40
-0.14606767552815
 40
-0.0000000000000001
 40
-0.0000000000000001
 40
-0.0000000000000001
 40
-0.0000000000000001
 10
354.3340444756351
 20
294.0215422097038
 30
0.0
 10
354.7815232206923
 20
294.2203162377212
 30
0.0
 10
355.2290019657495
 20
294.4190902657386
 30
0.0
 10
355.5819545100245
 20
294.7270576097992
 30
0.0
 10
355.9214691567132
 20
295.0232997695638
 30
0.0
 10
356.1735183406346
 20
295.4205789311309
 30
0.0
 10
356.425567524556
 20
295.817858092698
 30
0.0
  0
SPLINE
  5
92
330
1F
100
AcDbEntity
  8
VISIBLE
100
AcDbSpline
210
0.0
220
0.0
230
1.0
 70
     8
 71
     3
 72
    11
 73
     7
 74
     0
 42
0.000000001
 43
0.0000000371841767
 40
-0.277377269861732
 40
-0.277377269861732
 40
-0.277377269861732
 40
-0.277377269861732
 40
-0.138104473996577
 40
-0.138104473996577
 40
-0.138104473996577
 40
0.0000000000000001
 40
0.0000000000000001
 40
0.0000000000000001
 40
0.0000000000000001
 10
356.425567524556
 20
295.817858092698
 30
0.0
 10
356.5933536047242
 20
296.2467802922614
 30
0.0
 10
356.7611396848925
 20
296.6757024918249
 30
0.0
 10
356.7888272580938
 20
297.1136085740822
 30
0.0
 10
356.8162825677215
 20
297.5478411804887
 30
0.0
 10
356.7059800086117
 20
297.9909075750616
 30
0.0
 10
356.5956774495019
 20
298.4339739696339
 30
0.0
  0
SPLINE
  5
93
330
1F
100
AcDbEntity
  8
VISIBLE
100
AcDbSpline
210
0.0
220
0.0
230
1.0
 70
     8
 71
     3
 72
    11
 73
     7
 74
     0
 42
0.000000001
 43
0.0000000372821532
 40
-0.189430521594595
 40
-0.189430521594595
 40
-0.189430521594595
 40
-0.189430521594595
 40
-0.0921843132496656
 40
-0.0921843132496656
 40
-0.0921843132496656
 40
0.0
 40
0.0
 40
0.0
 40
0.0
 10
356.5956774495019
 20
298.4339739696339
 30
0.0
 10
356.4731526497317
 20
298.7189829370095
 30
0.0
 10
356.3506278499613
 20
299.0039919043847
 30
0.0
 10
356.1643372835115
 20
299.2389227333453
 30
0.0
 10
355.9877435815528
 20
299.4616248571349
 30
0.0
 10
355.753849660719
 20
299.6393265294055
 30
0.0
 10
355.5199557398852
 20
299.8170282016759
 30
0.0
  0
SPLINE
  5
94
330
1F
100
AcDbEntity
  8
VISIBLE
100
AcDbSpline
210
0.0
220
0.0
230
1.0
 70
     8
 71
     3
 72
    11
 73
     7
 74
     0
 42
0.000000001
 43
0.0000000372487973
 40
-0.178275938419828
 40
-0.178275938419828
 40
-0.178275938419828
 40
-0.178275938419828
 40
-0.0907559957293885
 40
-0.0907559957293885
 40
-0.0907559957293885
 40
0.0
 40
0.0
 40
0.0
 40
0.0
 10
355.5199557398852
 20
299.8170282016759
 30
0.0
 10
355.2592079383789
 20
299.9471376789099
 30
0.0
 10
354.9984601368729
 20
300.0772471561437
 30
0.0
 10
354.7227850848749
 20
300.1352191629909
 30
0.0
 10
354.4369169378825
 20
300.1953346868847
 30
0.0
 10
354.1349972613074
 20
300.1778795462697
 30
0.0
 10
353.8330775847325
 20
300.1604244056557
 30
0.0
  0
SPLINE
  5
95
330
1F
100
AcDbEntity
  8
VISIBLE
100
AcDbSpline
210
0.0
220
0.0
230
1.0
 70
     8
 71
     3
 72
    11
 73
     7
 74
     0
 42
0.000000001
 43
0.0000000374104569
 40
-0.240731366440364
 40
-0.240731366440364
 40
-0.240731366440364
 40
-0.240731366440364
 40
-0.112214834947695
 40
-0.112214834947695
 40
-0.112214834947695
 40
0.0
 40
0.0
 40
0.0
 40
0.0
 10
353.8330775847325
 20
300.1604244056557
 30
0.0
 10
354.1618856840514
 20
300.5806429271079
 30
0.0
 10
354.4906937833705
 20
301.000861448561
 30
0.0
 10
354.5973174187519
 20
301.4756387108901
 30
0.0
 10
354.6904163649098
 20
301.8901927881775
 30
0.0
 10
354.6141220042819
 20
302.3463424179511
 30
0.0
 10
354.5378276436539
 20
302.8024920477247
 30
0.0
  0
SPLINE
  5
96
330
1F
100
AcDbEntity
  8
VISIBLE
100
AcDbSpline
210
0.0
220
0.0
230
1.0
 70
     8
 71
     3
 72
    11
 73
     7
 74
     0
 42
0.000000001
 43
0.0000000375176307
 40
-0.202780039433774
 40
-0.202780039433774
 40
-0.202780039433774
 40
-0.202780039433774
 40
-0.104014966440756
 40
-0.104014966440756
 40
-0.104014966440756
 40
0.0
 40
0.0
 40
0.0
 40
0.0
 10
354.5378276436539
 20
302.8024920477247
 30
0.0
 10
354.3962977469938
 20
303.0989839044295
 30
0.0
 10
354.2547678503336
 20
303.3954757611343
 30
0.0
 10
354.0449723756172
 20
303.6303543148941
 30
0.0
 10
353.8240251459868
 20
303.8777179237757
 30
0.0
 10
353.5273620910441
 20
304.0567439866269
 30
0.0
 10
353.2306990361013
 20
304.2357700494785
 30
0.0
  0
SPLINE
  5
97
330
1F
100
AcDbEntity
  8
VISIBLE
100
AcDbSpline
210
0.0
220
0.0
230
1.0
 70
     8
 71
     3
 72
    11
 73
     7
 74
     0
 42
0.000000001
 43
0.0000000374699616
 40
-0.275526826666371
 40
-0.275526826666371
 40
-0.275526826666371
 40
-0.275526826666371
 40
-0.142819702855755
 40
-0.142819702855755
 40
-0.142819702855755
 40
0.0
 40
0.0
 40
0.0
 40
0.0
 10
353.2306990361013
 20
304.2357700494785
 30
0.0
 10
352.8172193248914
 20
304.3885153702307
 30
0.0
 10
352.4037396136816
 20
304.5412606909831
 30
0.0
 10
351.9842326970108
 20
304.5640214539905
 30
0.0
 10
351.5327584169237
 20
304.5885166379425
 30
0.0
 10
351.0743033596999
 20
304.4624622455287
 30
0.0
 10
350.6158483024763
 20
304.3364078531149
 30
0.0
  0
SPLINE
  5
98
330
1F
100
AcDbEntity
  8
VISIBLE
100
AcDbSpline
210
0.0
220
0.0
230
1.0
 70
     8
 71
     3
 72
    11
 73
     7
 74
     0
 42
0.000000001
 43
0.0000000372977001
 40
-0.174163990076155
 40
-0.174163990076155
 40
-0.174163990076155
 40
-0.174163990076155
 40
-0.084435679014227
 40
-0.084435679014227
 40
-0.084435679014227
 40
0.0
 40
0.0
 40
0.0
 40
0.0
 10
350.6158483024763
 20
304.3364078531149
 30
0.0
 10
350.3517834582298
 20
304.2301565077513
 30
0.0
 10
350.0877186139836
 20
304.1239051623885
 30
0.0
 10
349.848686106538
 20
303.9766987874063
 30
0.0
 10
349.6237529518428
 20
303.8381753929527
 30
0.0
 10
349.4209861584381
 20
303.6633859482929
 30
0.0
 10
349.2182193650334
 20
303.4885965036331
 30
0.0
  0
SPLINE
  5
99
330
1F
100
AcDbEntity
  8
VISIBLE
100
AcDbSpline
210
0.0
220
0.0
230
1.0
 70
     8
 71
     3
 72
    11
 73
     7
 74
     0
 42
0.000000001
 43
0.0000000371477824
 40
-0.154317067542138
 40
-0.154317067542138
 40
-0.154317067542138
 40
-0.154317067542138
 40
-0.0749228273499817
 40
-0.0749228273499817
 40
-0.0749228273499817
 40
0.0
 40
0.0
 40
0.0
 40
0.0
 10
349.2182193650334
 20
303.4885965036331
 30
0.0
 10
349.0476373503328
 20
303.3025714643151
 30
0.0
 10
348.8770553356322
 20
303.1165464249959
 30
0.0
 10
348.7510886776518
 20
302.9038589708481
 30
0.0
 10
348.6322163495724
 20
302.7031498845465
 30
0.0
 10
348.5530754968274
 20
302.4786970213249
 30
0.0
 10
348.4739346440825
 20
302.2542441581033
 30
0.0
  0
SPLINE
  5
9A
330
1F
100
AcDbEntity
  8
VISIBLE
100
AcDbSpline
210
0.0
220
0.0
230
1.0
 70
     8
 71
     3
 72
    11
 73
     7
 74
     0
 42
0.000000001
 43
0.0000000370040199
 40
-0.169726061162452
 40
-0.169726061162452
 40
-0.169726061162452
 40
-0.169726061162452
 40
-0.0922675657145078
 40
-0.0922675657145078
 40
-0.0922675657145078
 40
0.0
 40
0.0
 40
0.0
 40
0.0
 10
348.4739346440825
 20
302.2542441581033
 30
0.0
 10
348.4284453945163
 20
302.0021059966577
 30
0.0
 10
348.3829561449501
 20
301.7499678352123
 30
0.0
 10
348.3719062087398
 20
301.4966262666805
 30
0.0
 10
348.3587436665354
 20
301.1948490415033
 30
0.0
 10
348.3944479912863
 20
300.8913642696815
 30
0.0
 10
348.4301523160373
 20
300.5878794978601
 30
0.0
  0
LINE
  5
9B
330
1F
100
AcDbEntity
  8
VISIBLE
100
AcDbLine
 10
348.4301523160451
 20
300.5878794978483
 30
0.0
 11
350.3260169291926
 21
300.9166008999993
 31
0.0
  0
SPLINE
  5
9C
330
1F
100
AcDbEntity
  8
VISIBLE
100
AcDbSpline
210
0.0
220
0.0
230
1.0
 70
     8
 71
     3
 72
    11
 73
     7
 74
     0
 42
0.000000001
 43
0.0000000371008239
 40
-0.132174608158191
 40
-0.132174608158191
 40
-0.132174608158191
 40
-0.132174608158191
 40
-0.060686261274433
 40
-0.060686261274433
 40
-0.060686261274433
 40
0.0
 40
0.0
 40
0.0
 40
0.0
 10
350.3260169291847
 20
300.9166009000111
 30
0.0
 10
350.2859170709934
 20
301.1296812845787
 30
0.0
 10
350.2458172128021
 20
301.3427616691465
 30
0.0
 10
350.264652514285
 20
301.5513641239507
 30
0.0
 10
350.2806417499688
 20
301.7284461747547
 30
0.0
 10
350.339101226192
 20
301.9023013105001
 30
0.0
 10
350.3975607024155
 20
302.0761564462465
 30
0.0
  0
SPLINE
  5
9D
330
1F
100
AcDbEntity
  8
VISIBLE
100
AcDbSpline
210
0.0
220
0.0
230
1.0
 70
     8
 71
     3
 72
    11
 73
     7
 74
     0
 42
0.000000001
 43
0.0000000371956189
 40
-0.101713847443421
 40
-0.101713847443421
 40
-0.101713847443421
 40
-0.101713847443421
 40
-0.0509718520804946
 40
-0.0509718520804946
 40
-0.0509718520804946
 40
0.0
 40
0.0
 40
0.0
 40
0.0
 10
350.3975607024155
 20
302.0761564462465
 30
0.0
 10
350.4855586541712
 20
302.2205760111597
 30
0.0
 10
350.573556605927
 20
302.3649955760729
 30
0.0
 10
350.6943848020196
 20
302.4724721305957
 30
0.0
 10
350.8157603390741
 20
302.5804355443347
 30
0.0
 10
350.9702642303079
 20
302.6511204925175
 30
0.0
 10
351.1247681215415
 20
302.7218054407005
 30
0.0
  0
SPLINE
  5
9E
330
1F
100
AcDbEntity
  8
VISIBLE
100
AcDbSpline
210
0.0
220
0.0
230
1.0
 70
     8
 71
     3
 72
    11
 73
     7
 74
     0
 42
0.000000001
 43
0.0000000372562518
 40
-0.102368440841706
 40
-0.102368440841706
 40
-0.102368440841706
 40
-0.102368440841706
 40
-0.0488947580807016
 40
-0.0488947580807016
 40
-0.0488947580807016
 40
0.0
 40
0.0
 40
0.0
 40
0.0
 10
351.1247681215415
 20
302.7218054407005
 30
0.0
 10
351.2855552309463
 20
302.7671588496527
 30
0.0
 10
351.4463423403512
 20
302.8125122586051
 30
0.0
 10
351.6056393155156
 20
302.8064280429461
 30
0.0
 10
351.7512957704575
 20
302.8008648156277
 30
0.0
 10
351.8957063637799
 20
302.7522959579665
 30
0.0
 10
352.0401169571022
 20
302.7037271003055
 30
0.0
  0
SPLINE
  5
9F
330
1F
100
AcDbEntity
  8
VISIBLE
100
AcDbSpline
210
0.0
220
0.0
230
1.0
 70
     8
 71
     3
 72
    11
 73
     7
 74
     0
 42
0.000000001
 43
0.0000000372819377
 40
-0.0968731051983188
 40
-0.0968731051983188
 40
-0.0968731051983188
 40
-0.0968731051983188
 40
-0.0507865771772343
 40
-0.0507865771772343
 40
-0.0507865771772343
 40
0.0
 40
0.0
 40
0.0
 40
0.0
 10
352.0401169571022
 20
302.7037271003055
 30
0.0
 10
352.1688871763312
 20
302.6213557613199
 30
0.0
 10
352.29765739556
 20
302.5389844223333
 30
0.0
 10
352.3937592627462
 20
302.4287118112791
 30
0.0
 10
352.4996619007686
 20
302.3071932523355
 30
0.0
 10
352.5658931748304
 20
302.1517923133515
 30
0.0
 10
352.6321244488922
 20
301.9963913743677
 30
0.0
  0
SPLINE
  5
A0
330
1F
100
AcDbEntity
  8
VISIBLE
100
AcDbSpline
210
0.0
220
0.0
230
1.0
 70
     8
 71
     3
 72
    11
 73
     7
 74
     0
 42
0.000000001
 43
0.0000000372305268
 40
-0.122476583665849
 40
-0.122476583665849
 40
-0.122476583665849
 40
-0.122476583665849
 40
-0.0597065543266271
 40
-0.0597065543266271
 40
-0.0597065543266271
 40
0.0
 40
0.0
 40
0.0
 40
0.0
 10
352.6321244488922
 20
301.9963913743677
 30
0.0
 10
352.683403567211
 20
301.8022014692539
 30
0.0
 10
352.7346826855299
 20
301.6080115641403
 30
0.0
 10
352.7199603162032
 20
301.4185750348843
 30
0.0
 10
352.7059564682958
 20
301.2383839063397
 30
0.0
 10
352.6322362946145
 20
301.0624935011771
 30
0.0
 10
352.5585161209333
 20
300.8866030960147
 30
0.0
  0
SPLINE
  5
A1
330
1F
100
AcDbEntity
  8
VISIBLE
100
AcDbSpline
210
0.0
220
0.0
230
1.0
 70
     8
 71
     3
 72
    11
 73
     7
 74
     0
 42
0.000000001
 43
0.0000000371302378
 40
-0.139219886464911
 40
-0.139219886464911
 40
-0.139219886464911
 40
-0.139219886464911
 40
-0.0764363239934931
 40
-0.0764363239934931
 40
-0.0764363239934931
 40
0.0
 40
0.0
 40
0.0
 40
0.0
 10
352.5585161209333
 20
300.8866030960147
 30
0.0
 10
352.4309334219497
 20
300.7241164920665
 30
0.0
 10
352.3033507229657
 20
300.5616298881175
 30
0.0
 10
352.1453276026459
 20
300.4403903989275
 30
0.0
 10
351.9529411570901
 20
300.2927864638891
 30
0.0
 10
351.7154358289973
 20
300.2063191243411
 30
0.0
 10
351.4779305009046
 20
300.1198517847935
 30
0.0
  0
LINE
  5
A2
330
1F
100
AcDbEntity
  8
VISIBLE
100
AcDbLine
 10
351.4779305009124
 20
300.1198517847817
 30
0.0
 11
351.8231498807553
 21
298.4628876644559
 31
0.0
  0
SPLINE
  5
A3
330
1F
100
AcDbEntity
  8
VISIBLE
100
AcDbSpline
210
0.0
220
0.0
230
1.0
 70
     8
 71
     3
 72
    11
 73
     7
 74
     0
 42
0.000000001
 43
0.0000000369774174
 40
-0.106641414927221
 40
-0.106641414927221
 40
-0.106641414927221
 40
-0.106641414927221
 40
-0.0484261692585772
 40
-0.0484261692585772
 40
-0.0484261692585772
 40
0.0
 40
0.0
 40
0.0
 40
0.0
 10
351.8231498807474
 20
298.4628876644678
 30
0.0
 10
351.9678449939439
 20
298.5615230733979
 30
0.0
 10
352.1125401071403
 20
298.6601584823281
 30
0.0
 10
352.2663110042797
 20
298.7419891119291
 30
0.0
 10
352.3942248420791
 20
298.8100596641373
 30
0.0
 10
352.528418842805
 20
298.8665018266885
 30
0.0
 10
352.6626128435307
 20
298.9229439892399
 30
0.0
  0
SPLINE
  5
A4
330
1F
100
AcDbEntity
  8
VISIBLE
100
AcDbSpline
210
0.0
220
0.0
230
1.0
 70
     8
 71
     3
 72
    11
 73
     7
 74
     0
 42
0.000000001
 43
0.0000000370503629
 40
-0.117396502271378
 40
-0.117396502271378
 40
-0.117396502271378
 40
-0.117396502271378
 40
-0.0591442745738736
 40
-0.0591442745738736
 40
-0.0591442745738736
 40
0.0
 40
0.0
 40
0.0
 40
0.0
 10
352.6626128435307
 20
298.9229439892399
 30
0.0
 10
352.8511467236442
 20
298.9689541407643
 30
0.0
 10
353.0396806037577
 20
299.0149642922885
 30
0.0
 10
353.2235245770634
 20
299.0009164254739
 30
0.0
 10
353.4101838494335
 20
298.9866534363161
 30
0.0
 10
353.5920084771946
 20
298.9104789451845
 30
0.0
 10
353.7738331049558
 20
298.8343044540527
 30
0.0
  0
SPLINE
  5
A5
330
1F
100
AcDbEntity
  8
VISIBLE
100
AcDbSpline
210
0.0
220
0.0
230
1.0
 70
     8
 71
     3
 72
    11
 73
     7
 74
     0
 42
0.000000001
 43
0.0000000370833273
 40
-0.135956861098745
 40
-0.135956861098745
 40
-0.135956861098745
 40
-0.135956861098745
 40
-0.0722929810035805
 40
-0.0722929810035805
 40
-0.0722929810035805
 40
0.0
 40
0.0
 40
0.0
 40
0.0
 10
353.7738331049558
 20
298.8343044540527
 30
0.0
 10
353.9459013563286
 20
298.7125852289701
 30
0.0
 10
354.1179696077013
 20
298.5908660038875
 30
0.0
 10
354.2473079690237
 20
298.4346427444047
 30
0.0
 10
354.3941770521542
 20
298.2572447423791
 30
0.0
 10
354.4859478816186
 20
298.0353553541685
 30
0.0
 10
354.5777187110829
 20
297.8134659659579
 30
0.0
  0
SPLINE
  5
A6
330
1F
100
AcDbEntity
  8
VISIBLE
100
AcDbSpline
210
0.0
220
0.0
230
1.0
 70
     8
 71
     3
 72
    11
 73
     7
 74
     0
 42
0.000000001
 43
0.0000000370096838
 40
-0.155408817321433
 40
-0.155408817321433
 40
-0.155408817321433
 40
-0.155408817321433
 40
-0.0727558265031879
 40
-0.0727558265031879
 40
-0.0727558265031879
 40
0.0
 40
0.0
 40
0.0
 40
0.0
 10
354.5777187110829
 20
297.8134659659579
 30
0.0
 10
354.6499179355435
 20
297.5701673040457
 30
0.0
 10
354.722117160004
 20
297.3268686421337
 30
0.0
 10
354.7204525275209
 20
297.0831808827338
 30
0.0
 10
354.7189872240766
 20
296.8686731659732
 30
0.0
 10
354.6602884091525
 20
296.6538639564871
 30
0.0
 10
354.6015895942282
 20
296.439054747001
 30
0.0
  0
SPLINE
  5
A7
330
1F
100
AcDbEntity
  8
VISIBLE
100
AcDbSpline
210
0.0
220
0.0
230
1.0
 70
     8
 71
     3
 72
    11
 73
     7
 74
     0
 42
0.000000001
 43
0.0000000368920007
 40
-0.125486343888711
 40
-0.125486343888711
 40
-0.125486343888711
 40
-0.125486343888711
 40
-0.0623642744134998
 40
-0.0623642744134998
 40
-0.0623642744134998
 40
0.0
 40
0.0
 40
0.0
 40
0.0
 10
354.6015895942282
 20
296.439054747001
 30
0.0
 10
354.5043518435118
 20
296.2551139469282
 30
0.0
 10
354.4071140927953
 20
296.0711731468554
 30
0.0
 10
354.2641589781626
 20
295.9351507758603
 30
0.0
 10
354.1229200727863
 20
295.8007613849287
 30
0.0
 10
353.9370549095339
 20
295.7131467856705
 30
0.0
 10
353.7511897462815
 20
295.6255321864123
 30
0.0
  0
SPLINE
  5
A8
330
1F
100
AcDbEntity
  8
VISIBLE
100
AcDbSpline
210
0.0
220
0.0
230
1.0
 70
     8
 71
     3
 72
    11
 73
     7
 74
     0
 42
0.000000001
 43
0.0000000367794527
 40
-0.115037358196946
 40
-0.115037358196946
 40
-0.115037358196946
 40
-0.115037358196946
 40
-0.0571593180990801
 40
-0.0571593180990801
 40
-0.0571593180990801
 40
0.0
 40
0.0
 40
0.0
 40
0.0
 10
353.7511897462815
 20
295.6255321864123
 30
0.0
 10
353.5666185838467
 20
295.5776054772963
 30
0.0
 10
353.3820474214119
 20
295.5296787681802
 30
0.0
 10
353.1997307337532
 20
295.5373076177568
 30
0.0
 10
353.0196780310869
 20
295.5448417332682
 30
0.0
 10
352.8418241592934
 20
295.6065602108826
 30
0.0
 10
352.6639702875001
 20
295.6682786884969
 30
0.0
  0
SPLINE
  5
A9
330
1F
100
AcDbEntity
  8
VISIBLE
100
AcDbSpline
210
0.0
220
0.0
230
1.0
 70
     8
 71
     3
 72
    11
 73
     7
 74
     0
 42
0.000000001
 43
0.0000000367895814
 40
-0.132350797757092
 40
-0.132350797757092
 40
-0.132350797757092
 40
-0.132350797757092
 40
-0.0711896269329583
 40
-0.0711896269329583
 40
-0.0711896269329583
 40
0.0
 40
0.0
 40
0.0
 40
0.0
 10
352.6639702875001
 20
295.6682786884969
 30
0.0
 10
352.4920251089267
 20
295.7746887640792
 30
0.0
 10
352.3200799303534
 20
295.8810988396616
 30
0.0
 10
352.1820969885201
 20
296.0202990961421
 30
0.0
 10
352.0214893019787
 20
296.1823236976056
 30
0.0
 10
351.9068943598951
 20
296.3887731179038
 30
0.0
 10
351.7922994178115
 20
296.595222538202
 30
0.0
  0
LINE
  5
AA
330
1F
100
AcDbEntity
  8
VISIBLE
100
AcDbLine
 10
351.7922994178194
 20
296.5952225381902
 30
0.0
 11
349.994722657259
 21
295.7030637309178
 31
0.0
  0
SPLINE
  5
AB
330
1F
100
AcDbEntity
  8
VISIBLE
100
AcDbSpline
210
0.0
220
0.0
230
1.0
 70
     8
 71
     3
 72
    11
 73
     7
 74
     0
 42
0.000000001
 43
0.0000000366651094
 40
-0.264697113619634
 40
-0.264697113619634
 40
-0.264697113619634
 40
-0.264697113619634
 40
-0.129863569778177
 40
-0.129863569778177
 40
-0.129863569778177
 40
0.0
 40
0.0
 40
0.0
 40
0.0
 10
349.994722657251
 20
295.7030637309296
 30
0.0
 10
350.2143074503493
 20
295.327377810109
 30
0.0
 10
350.4338922434475
 20
294.9516918892884
 30
0.0
 10
350.7383890102192
 20
294.6657817537456
 30
0.0
 10
351.0316620044036
 20
294.3904102862344
 30
0.0
 10
351.4037026163396
 20
294.1983182954823
 30
0.0
 10
351.7757432282757
 20
294.0062263047301
 30
0.0
  0
SPLINE
  5
AC
330
1F
100
AcDbEntity
  8
VISIBLE
100
AcDbSpline
210
0.0
220
0.0
230
1.0
 70
     8
 71
     3
 72
    11
 73
     7
 74
     0
 42
0.000000001
 43
0.0000000366820243
 40
-0.2662819786429469
 40
-0.2662819786429469
 40
-0.2662819786429469
 40
-0.2662819786429469
 40
-0.13805964622913
 40
-0.13805964622913
 40
-0.13805964622913
 40
0.0
 40
0.0
 40
0.0
 40
0.0
 10
351.7757432282757
 20
294.0062263047301
 30
0.0
 10
352.1862672579249
 20
293.8920755798265
 30
0.0
 10
352.5967912875742
 20
293.777924854923
 30
0.0
 10
353.0074176154159
 20
293.7747091885079
 30
0.0
 10
353.4495475040784
 20
293.7712468137459
 30
0.0
 10
353.8917959898568
 20
293.8963945117248
 30
0.0
 10
354.3340444756351
 20
294.0215422097038
 30
0.0
  0
ARC
  5
AD
330
1F
100
AcDbEntity
  8
VISIBLE
100
AcDbCircle
 10
396.7846564883397
 20
220.6300448113015
 30
0.0000000000000007
 40
10.0
100
AcDbArc
 50
211.3634958967536
 51
274.9756959354357
  0
LINE
  5
AE
330
1F
100
AcDbEntity
  8
VISIBLE
100
AcDbLine
 10
397.6519881196057
 20
210.6677290242195
 30
0.0
 11
482.0805029513425
 21
218.0181807726356
 31
0.0
  0
SPLINE
  5
AF
330
1F
100
AcDbEntity
  8
VISIBLE
100
AcDbSpline
210
0.0
220
0.0
230
1.0
 70
     8
 71
     3
 72
    23
 73
    19
 74
     0
 42
0.000000001
 43
0.0000000459702366
 40
-6.39611456120072
 40
-6.39611456120072
 40
-6.39611456120072
 40
-6.39611456120072
 40
-5.48238390960062
 40
-5.48238390960062
 40
-5.48238390960062
 40
-4.56865325800052
 40
-4.56865325800052
 40
-4.56865325800052
 40
-3.65492260640041
 40
-3.65492260640041
 40
-3.65492260640041
 40
-2.74119195480031
 40
-2.74119195480031
 40
-2.74119195480031
 40
-0.9137306516001039
 40
-0.9137306516001039
 40
-0.9137306516001039
 40
0.0
 40
0.0
 40
0.0
 40
0.0
 10
482.080502951354
 20
218.0181807726435
 30
0.0
 10
485.106454463174
 20
218.2816238833626
 30
0.0
 10
488.0912674297666
 20
219.0081851760038
 30
0.0
 10
490.900436171749
 20
220.1644363122012
 30
0.0
 10
493.7096049137326
 20
221.3206874483984
 30
0.0
 10
496.3431294311048
 20
222.9066284281519
 30
0.0
 10
498.6764723408467
 20
224.8500222606246
 30
0.0
 10
501.0098152505873
 20
226.7934160930974
 30
0.0
 10
503.0429765526973
 20
229.0942627782896
 30
0.0
 10
504.6904517795218
 20
231.6469785987994
 30
0.0
 10
506.3379270063455
 20
234.1996944193094
 30
0.0
 10
507.5997161578824
 20
237.0042793751374
 30
0.0
 10
508.4047135039726
 20
239.9321959112174
 30
0.0
 10
510.0147081961511
 20
245.7880289833776
 30
0.0
 10
509.7975356665402
 20
252.1371883765463
 30
0.0
 10
507.7837472937224
 20
257.8671126344544
 30
0.0
 10
506.7768531073136
 20
260.7320747634084
 30
0.0
 10
505.3208049601029
 20
263.4422281085473
 30
0.0
 10
503.5014702548671
 20
265.8744711175391
 30
0.0
  0
SPLINE
  5
B0
330
1F
100
AcDbEntity
  8
VISIBLE
100
AcDbSpline
210
0.0
220
0.0
230
1.0
 70
     8
 71
     3
 72
    23
 73
    19
 74
     0
 42
0.000000001
 43
0.0000000485558952
 40
-13.1129421164651
 40
-13.1129421164651
 40
-13.1129421164651
 40
-13.1129421164651
 40
-12.326776394813
 40
-12.326776394813
 40
-12.326776394813
 40
-9.88670829630172
 40
-9.88670829630172
 40
-9.88670829630172
 40
-7.768795494511419
 40
-7.768795494511419
 40
-7.768795494511419
 40
-5.86954119391862
 40
-5.86954119391862
 40
-5.86954119391862
 40
-4.25488079505712
 40
-4.25488079505712
 40
-4.25488079505712
 40
-2.96153353158823
 40
-2.96153353158823
 40
-2.96153353158823
 40
-2.96153353158823
 10
503.5014702548671
 20
265.8744711175391
 30
0.0
 10
501.6923963093033
 20
268.2929966610691
 30
0.0
 10
499.7831952811721
 20
270.643292598443
 30
0.0
 10
497.7778227841592
 20
272.9211066595719
 30
0.0
 10
491.5536319795665
 20
279.9908901312042
 30
0.0
 10
484.3823637527033
 20
286.3748996815662
 30
0.0
 10
476.7744096799648
 20
291.9123514223031
 30
0.0
 10
470.1709122874473
 20
296.7187090555835
 30
0.0
 10
463.2971546821194
 20
300.8716626391625
 30
0.0
 10
456.5057054354195
 20
304.2526488347011
 30
0.0
 10
450.4154220308574
 20
307.2845737405289
 30
0.0
 10
444.4054924452971
 20
309.6915285257059
 30
0.0
 10
438.1617252769519
 20
311.5373817913951
 30
0.0
 10
432.8535558636763
 20
313.1066430373937
 30
0.0
 10
427.3218570870991
 20
314.2793064484539
 30
0.0
 10
421.4791890750561
 20
315.0639503616905
 30
0.0
 10
416.7991964957735
 20
315.6924522179925
 30
0.0
 10
411.9273228177865
 20
316.0656852234265
 30
0.0
 10
407.0773091113816
 20
316.1853283775541
 30
0.0
  0
SPLINE
  5
B1
330
1F
100
AcDbEntity
  8
VISIBLE
100
AcDbSpline
210
0.0
220
0.0
230
1.0
 70
     8
 71
     3
 72
    17
 73
    13
 74
     0
 42
0.000000001
 43
0.0000000417213874
 40
-4.536698563580829
 40
-4.536698563580829
 40
-4.536698563580829
 40
-4.536698563580829
 40
-3.24049897398631
 40
-3.24049897398631
 40
-3.24049897398631
 40
-1.94429938439178
 40
-1.94429938439178
 40
-1.94429938439178
 40
-0.648099794797261
 40
-0.648099794797261
 40
-0.648099794797261
 40
0.0
 40
0.0
 40
0.0
 40
0.0
 10
407.0773091113816
 20
316.1853283775541
 30
0.0
 10
402.7707070039249
 20
316.2915663164337
 30
0.0
 10
398.4423992574023
 20
315.4556670146261
 30
0.0
 10
394.4855492682612
 20
313.7542060865665
 30
0.0
 10
390.5286992791198
 20
312.0527451585057
 30
0.0
 10
386.9433070473603
 20
309.4857226041953
 30
0.0
 10
384.0585773002088
 20
306.2875033359619
 30
0.0
 10
381.1738475530573
 20
303.0892840677297
 30
0.0
 10
378.9897802905139
 20
299.2598680855745
 30
0.0
 10
377.7033754502314
 20
295.1488722223695
 30
0.0
 10
377.0601730300705
 20
293.0933742907704
 30
0.0
 10
376.6413862154945
 20
290.9674813889047
 30
0.0
 10
376.4527463841014
 20
288.8218015276665
 30
0.0
  0
LINE
  5
B2
330
1F
100
AcDbEntity
  8
VISIBLE
100
AcDbLine
 10
376.4527463840897
 20
288.8218015276587
 30
0.0
 11
371.8519117187683
 21
236.4897027746009
 31
0.0
  0
ARC
  5
B3
330
1F
100
AcDbEntity
  8
VISIBLE
100
AcDbCircle
 10
381.8134881010508
 20
235.6139197077559
 30
0.0000000000000007
 40
10.0
100
AcDbArc
 50
174.975695935558
 51
238.5878959742301
  0
ARC
  5
B4
330
1F
100
AcDbEntity
  8
VISIBLE
100
AcDbCircle
 10
358.3599409282161
 20
197.2090876548387
 30
0.0
 40
35.0
100
AcDbArc
 50
31.36349589675008
 51
58.58789597426395
  0
ARC
  5
B5
330
1F
100
AcDbEntity
  8
VISIBLE
100
AcDbCircle
 10
391.7042101066444
 20
166.9905550472193
 30
0.0000000000000004
 40
10.0
100
AcDbArc
 50
137.8152843423924
 51
214.9756959354261
  0
LINE
  5
B6
330
1F
100
AcDbEntity
  8
VISIBLE
100
AcDbLine
 10
383.5102573701465
 20
161.2582659275017
 30
0.0
 11
410.8589777334099
 21
122.1649617728359
 31
0.0
  0
SPLINE
  5
B7
330
1F
100
AcDbEntity
  8
VISIBLE
100
AcDbSpline
210
0.0
220
0.0
230
1.0
 70
     8
 71
     3
 72
    11
 73
     7
 74
     0
 42
0.000000001
 43
0.0000000317114473
 40
-2.09686468269021
 40
-2.09686468269021
 40
-2.09686468269021
 40
-2.09686468269021
 40
-0.8986562925815179
 40
-0.8986562925815179
 40
-0.8986562925815179
 40
0.0
 40
0.0
 40
0.0
 40
0.0
 10
410.8589777334179
 20
122.1649617728241
 30
0.0
 10
413.142704009578
 20
118.9005163167266
 30
0.0
 10
416.0849932044995
 20
116.0988383501384
 30
0.0
 10
419.4553639647934
 20
113.9754562598101
 30
0.0
 10
421.9831420350139
 20
112.3829196920638
 30
0.0
 10
424.7517159857563
 20
111.1719245547137
 30
0.0
 10
427.6368245504303
 20
110.394651047387
 30
0.0
  0
SPLINE
  5
B8
330
1F
100
AcDbEntity
  8
VISIBLE
100
AcDbSpline
210
0.0
220
0.0
230
1.0
 70
     8
 71
     3
 72
    23
 73
    19
 74
     0
 42
0.000000001
 43
0.0000000411859878
 40
-16.6371561887808
 40
-16.6371561887808
 40
-16.6371561887808
 40
-16.6371561887808
 40
-15.8414699151912
 40
-15.8414699151912
 40
-15.8414699151912
 40
-14.1300772618577
 40
-14.1300772618577
 40
-14.1300772618577
 40
-12.5692713059725
 40
-12.5692713059725
 40
-12.5692713059725
 40
-10.1948107909566
 40
-10.1948107909566
 40
-10.1948107909566
 40
-7.71303349837582
 40
-7.71303349837582
 40
-7.71303349837582
 40
-5.48713196711624
 40
-5.48713196711624
 40
-5.48713196711624
 40
-5.48713196711624
 10
427.6368245504302
 20
110.3946510473871
 30
0.0
 10
430.3185394597517
 20
109.6721735715858
 30
0.0
 10
432.9439003312066
 20
109.1077295658471
 30
0.0
 10
435.4586690346118
 20
108.7178040630719
 30
0.0
 10
440.8675303241561
 20
107.8791372883062
 30
0.0
 10
445.7655596152089
 20
107.8157203324457
 30
0.0
 10
450.5540438371272
 20
108.370591128605
 30
0.0
 10
454.921185812801
 20
108.8766384355777
 30
0.0
 10
459.2666526443375
 20
109.9062588765099
 30
0.0
 10
463.7788530186401
 20
111.3899386136004
 30
0.0
 10
470.6432819915207
 20
113.6470666950041
 30
0.0
 10
477.8123363031559
 20
116.8943692184058
 30
0.0
 10
484.540447521812
 20
120.9101332272475
 30
0.0
 10
491.5726443256012
 20
125.107394822663
 30
0.0
 10
498.0811506567844
 20
130.1871908059744
 30
0.0
 10
503.7027986489624
 20
136.3164549019862
 30
0.0
 10
508.7448444890131
 20
141.8137807005551
 30
0.0
 10
513.0982850417572
 20
148.1853815282941
 30
0.0
 10
516.5451631771996
 20
155.0833560476728
 30
0.0
  0
SPLINE
  5
B9
330
1F
100
AcDbEntity
  8
VISIBLE
100
AcDbSpline
210
0.0
220
0.0
230
1.0
 70
     8
 71
     3
 72
    23
 73
    19
 74
     0
 42
0.000000001
 43
0.0000000433081391
 40
-6.38062720943211
 40
-6.38062720943211
 40
-6.38062720943211
 40
-6.38062720943211
 40
-5.4691090366561
 40
-5.4691090366561
 40
-5.4691090366561
 40
-4.557590863880081
 40
-4.557590863880081
 40
-4.557590863880081
 40
-3.64607269110407
 40
-3.64607269110407
 40
-3.64607269110407
 40
-2.73455451832805
 40
-2.73455451832805
 40
-2.73455451832805
 40
-0.911518172776017
 40
-0.911518172776017
 40
-0.911518172776017
 40
0.0
 40
0.0
 40
0.0
 40
0.0
 10
516.5451631771996
 20
155.0833560476728
 30
0.0
 10
517.8995838824582
 20
157.7938549821515
 30
0.0
 10
518.8397419934441
 20
160.7104128428117
 30
0.0
 10
519.3240804652077
 20
163.701921774974
 30
0.0
 10
519.8084189369747
 20
166.6934307071559
 30
0.0
 10
519.8369377695146
 20
169.7598907108203
 30
0.0
 10
519.4059423401121
 20
172.7583932578245
 30
0.0
 10
518.9749469107091
 20
175.7568958048287
 30
0.0
 10
518.0844372193632
 20
178.6874408951726
 30
0.0
 10
516.7791627470667
 20
181.4228041998563
 30
0.0
 10
515.4738882747712
 20
184.1581675045399
 30
0.0
 10
513.7538490215256
 20
186.6983490235631
 30
0.0
 10
511.6905610561602
 20
188.9162638491736
 30
0.0
 10
507.5639851254276
 20
193.3520935003949
 30
0.0
 10
502.0644143462116
 20
196.4988563779661
 30
0.0
 10
496.1472610155006
 20
197.8014286120831
 30
0.0
 10
493.1886843501438
 20
198.4527147291418
 30
0.0
 10
490.1257120469139
 20
198.6429531853369
 30
0.0
 10
487.107071194982
 20
198.3801465497808
 30
0.0
  0
LINE
  5
BA
330
1F
100
AcDbEntity
  8
VISIBLE
100
AcDbLine
 10
487.1070711949704
 20
198.380146549773
 30
0.0
 11
399.3866513821614
 21
190.7430974500714
 31
0.0
  0
ARC
  5
BB
330
1F
100
AcDbEntity
  8
VISIBLE
100
AcDbCircle
 10
400.2539830134471
 20
180.7807816629856
 30
-0.0000000000000001
 40
10.0
100
AcDbArc
 50
94.97569593554617
 51
158.587895974218
  0
ARC
  5
BC
330
1F
100
AcDbEntity
  8
VISIBLE
100
AcDbCircle
 10
358.3599409282161
 20
197.2090876548387
 30
0.0
 40
35.0
100
AcDbArc
 50
317.8152843424113
 51
338.5878959742641
  0
ARC
  5
BD
330
1F
100
AcDbEntity
  8
VISIBLE
100
AcDbCircle
 10
341.9671825719483
 20
239.1170519751711
 30
-0.0000000000000001
 40
10.0
100
AcDbArc
 50
291.3634958967675
 51
354.975695935444
  0
LINE
  5
BE
330
1F
100
AcDbEntity
  8
VISIBLE
100
AcDbLine
 10
351.9287589542269
 20
238.2412689083065
 30
0.0
 11
355.3578274748352
 21
277.2451378810596
 31
0.0
  0
SPLINE
  5
BF
330
1F
100
AcDbEntity
  8
VISIBLE
100
AcDbSpline
210
0.0
220
0.0
230
1.0
 70
     8
 71
     3
 72
    20
 73
    16
 74
     0
 42
0.000000001
 43
0.000000036741087
 40
-3.55685741102844
 40
-3.55685741102844
 40
-3.55685741102844
 40
-3.55685741102844
 40
-3.04873492373866
 40
-3.04873492373866
 40
-3.04873492373866
 40
-2.54061243644888
 40
-2.54061243644888
 40
-2.54061243644888
 40
-1.52436746186933
 40
-1.52436746186933
 40
-1.52436746186933
 40
-0.5081224872897769
 40
-0.5081224872897769
 40
-0.5081224872897769
 40
0.0
 40
0.0
 40
0.0
 40
0.0
 10
355.3578274748273
 20
277.2451378810714
 30
0.0
 10
355.5057552785311
 20
278.9277396250769
 30
0.0
 10
355.3629123834244
 20
280.6327166794492
 30
0.0
 10
354.9456841477704
 20
282.2698110792641
 30
0.0
 10
354.5284559121164
 20
283.9069054790789
 30
0.0
 10
353.8368423359149
 20
285.4761172243364
 30
0.0
 10
352.8996577206099
 20
286.8808111697737
 30
0.0
 10
351.0252884899999
 20
289.6901990606483
 30
0.0
 10
348.1686351029758
 20
291.8415157522425
 30
0.0
 10
344.952935094671
 20
292.8620379000493
 30
0.0
 10
341.7372350863661
 20
293.8825600478562
 30
0.0
 10
338.1624884567806
 20
293.7722876518758
 30
0.0
 10
335.0112330362296
 20
292.5577264045675
 30
0.0
 10
333.4356053259539
 20
291.9504457809134
 30
0.0
 10
331.965850417937
 20
291.0670929444272
 30
0.0
 10
330.680778598414
 20
289.9709078858232
 30
0.0
  0
SPLINE
  5
C0
330
1F
100
AcDbEntity
  8
VISIBLE
100
AcDbSpline
210
0.0
220
0.0
230
1.0
 70
     8
 71
     3
 72
    23
 73
    19
 74
     0
 42
0.000000001
 43
0.0000000349821518
 40
0.0
 40
0.0
 40
0.0
 40
0.0
 40
0.223065862671199
 40
0.223065862671199
 40
0.223065862671199
 40
0.397912412129688
 40
0.397912412129688
 40
0.397912412129688
 40
0.574653342142749
 40
0.574653342142749
 40
0.574653342142749
 40
0.788446639589628
 40
0.788446639589628
 40
0.788446639589628
 40
0.969885712504224
 40
0.969885712504224
 40
0.969885712504224
 40
1.0
 40
1.0
 40
1.0
 40
1.0
 10
330.6807785984232
 20
289.9709078858125
 30
0.0
 10
325.0343329165792
 20
285.1544071294935
 30
0.0
 10
320.1652917288138
 20
279.8563681314729
 30
0.0
 10
316.0561412015847
 20
274.4158034387269
 30
0.0
 10
312.8352503745979
 20
270.1513052665682
 30
0.0
 10
310.1009316252818
 20
265.8599346290137
 30
0.0
 10
307.8304298302394
 20
261.5456050277898
 30
0.0
 10
305.5353282105908
 20
257.1845316839649
 30
0.0
 10
303.6873222289519
 20
252.7294859025908
 30
0.0
 10
302.2263305354913
 20
248.0484369117646
 30
0.0
 10
300.459053246273
 20
242.386042246391
 30
0.0
 10
299.2910008456229
 20
236.4759154124299
 30
0.0
 10
298.7669349839902
 20
230.8396440902784
 30
0.0
 10
298.3221781781579
 20
226.0563330342321
 30
0.0
 10
298.3261000639894
 20
221.4231794061361
 30
0.0
 10
298.7478654400883
 20
216.733993825055
 30
0.0
 10
298.8178678027965
 20
215.955707866902
 30
0.0
 10
298.8997391868546
 20
215.1753398782604
 30
0.0
 10
298.9930055243605
 20
214.3955270161467
 30
0.0
  0
SPLINE
  5
C1
330
1F
100
AcDbEntity
  8
VISIBLE
100
AcDbSpline
210
0.0
220
0.0
230
1.0
 70
     8
 71
     3
 72
    14
 73
    10
 74
     0
 42
0.000000001
 43
0.0000000278385844
 40
-2.05134665198628
 40
-2.05134665198628
 40
-2.05134665198628
 40
-2.05134665198628
 40
-1.46524760856163
 40
-1.46524760856163
 40
-1.46524760856163
 40
-0.879148565136979
 40
-0.879148565136979
 40
-0.879148565136979
 40
0.0
 40
0.0
 40
0.0
 40
0.0
 10
298.9930055243539
 20
214.3955270161471
 30
0.0
 10
299.2244192178558
 20
212.4606448337017
 30
0.0
 10
299.8385718501029
 20
210.5743647155946
 30
0.0
 10
300.7876245178555
 20
208.8726365095942
 30
0.0
 10
301.7366771856042
 20
207.1709083035742
 30
0.0
 10
303.0206298888625
 20
205.6537320096806
 30
0.0
 10
304.5453775513275
 20
204.441427139802
 30
0.0
 10
306.8324990450253
 20
202.622969834984
 30
0.0
 10
309.6614091969388
 20
201.4904732341998
 30
0.0
 10
312.5731854803209
 20
201.2344811837862
 30
0.0
  0
LINE
  5
C2
330
1F
100
AcDbEntity
  8
VISIBLE
100
AcDbLine
 10
312.5731854803327
 20
201.2344811837941
 30
0.0
 11
314.6537019298602
 21
201.0515702661959
 31
0.0
  0
ARC
  5
C3
330
1F
100
AcDbEntity
  8
VISIBLE
100
AcDbCircle
 10
315.5294849967051
 20
211.0131466484784
 30
0.0000000000000001
 40
10.0
100
AcDbArc
 50
264.9756959355578
 51
342.1361075285526
  0
ARC
  5
C4
330
1F
100
AcDbEntity
  8
VISIBLE
100
AcDbCircle
 10
358.3599409282161
 20
197.2090876548387
 30
0.0
 40
35.0
100
AcDbArc
 50
111.3634958967501
 51
162.1361075286029
  0
CIRCLE
  5
C5
330
1F
100
AcDbEntity
  8
VISIBLE
100
AcDbCircle
 10
373.1002969438705
 20
186.8784582194054
 30
0.0
 40
3.2
  0
CIRCLE
  5
C6
330
1F
100
AcDbEntity
  8
VISIBLE
100
AcDbCircle
 10
343.6195849125618
 20
207.5397170902719
 30
0.0
 40
3.2
  0
ARC
  5
C7
330
1F
100
AcDbEntity
  8
VISIBLE
100
AcDbCircle
 10
358.3599409282116
 20
197.2090876548405
 30
-0.0000000000000005
 40
8.0
100
AcDbArc
 50
52.02725467328954
 51
114.5241371977144
  0
LINE
  5
C8
330
1F
100
AcDbEntity
  8
VISIBLE
100
AcDbLine
 10
348.30505008784
 20
147.3703012944499
 30
0.0
 11
355.0393285403551
 21
204.4873795814957
 31
0.0
  0
ARC
  5
C9
330
1F
100
AcDbEntity
  8
VISIBLE
100
AcDbCircle
 10
347.941296035606
 20
258.675572108157
 30
0.0
 40
111.3058652
100
AcDbArc
 50
270.1073232526427
 51
270.1872462788481
  0
ARC
  5
CA
330
1F
100
AcDbEntity
  8
VISIBLE
100
AcDbCircle
 10
350.0742049381311
 20
131.8973230166614
 30
0.0
 40
15.49032458143145
100
AcDbArc
 50
33.48772992270151
 51
65.49149334132372
  0
LINE
  5
CB
330
1F
100
AcDbEntity
  8
VISIBLE
100
AcDbLine
 10
356.5000305596059
 20
145.9919645772154
 30
0.0
 11
363.2822334221886
 21
203.5155158518264
 31
0.0
  0
SPLINE
  5
CC
330
1F
100
AcDbEntity
  8
VISIBLE
100
AcDbSpline
210
0.0
220
0.0
230
1.0
 70
     8
 71
     3
 72
  1046
 73
  1042
 74
     0
 42
0.000000001
 43
0.000000052409928
 40
-51.3204836987268
 40
-51.3204836987268
 40
-51.3204836987268
 40
-51.3204836987268
 40
-51.2077853348695
 40
-51.2077853348695
 40
-51.2077853348695
 40
-51.0870883499574
 40
-51.0870883499574
 40
-51.0870883499574
 40
-50.95328211991851
 40
-50.95328211991851
 40
-50.95328211991851
 40
-50.7896560193223
 40
-50.7896560193223
 40
-50.7896560193223
 40
-50.5912589254968
 40
-50.5912589254968
 40
-50.5912589254968
 40
-50.4463492276447
 40
-50.4463492276447
 40
-50.4463492276447
 40
-50.3232386330892
 40
-50.3232386330892
 40
-50.3232386330892
 40
-50.210946703947
 40
-50.210946703947
 40
-50.210946703947
 40
-50.1053711217209
 40
-50.1053711217209
 40
-50.1053711217209
 40
-50.0024594332404
 40
-50.0024594332404
 40
-50.0024594332404
 40
-49.898135230098
 40
-49.898135230098
 40
-49.898135230098
 40
-49.7917722497408
 40
-49.7917722497408
 40
-49.7917722497408
 40
-49.6831053957874
 40
-49.6831053957874
 40
-49.6831053957874
 40
-49.5699750510314
 40
-49.5699750510314
 40
-49.5699750510314
 40
-49.444905399931
 40
-49.444905399931
 40
-49.444905399931
 40
-49.296695542172
 40
-49.296695542172
 40
-49.296695542172
 40
-49.120493881146
 40
-49.120493881146
 40
-49.120493881146
 40
-48.9955937966311
 40
-48.9955937966311
 40
-48.9955937966311
 40
-48.8831465657092
 40
-48.8831465657092
 40
-48.8831465657092
 40
-48.7779144985871
 40
-48.7779144985871
 40
-48.7779144985871
 40
-48.6768391467809
 40
-48.6768391467809
 40
-48.6768391467809
 40
-48.5786124971895
 40
-48.5786124971895
 40
-48.5786124971895
 40
-48.4828040174682
 40
-48.4828040174682
 40
-48.4828040174682
 40
-48.3881110408716
 40
-48.3881110408716
 40
-48.3881110408716
 40
-48.29360301149489
 40
-48.29360301149489
 40
-48.29360301149489
 40
-48.1952474821179
 40
-48.1952474821179
 40
-48.1952474821179
 40
-48.0907620342802
 40
-48.0907620342802
 40
-48.0907620342802
 40
-47.9769474650255
 40
-47.9769474650255
 40
-47.9769474650255
 40
-47.847162143237
 40
-47.847162143237
 40
-47.847162143237
 40
-47.6863580368832
 40
-47.6863580368832
 40
-47.6863580368832
 40
-47.5291439568851
 40
-47.5291439568851
 40
-47.5291439568851
 40
-47.4058804266261
 40
-47.4058804266261
 40
-47.4058804266261
 40
-47.2971697038138
 40
-47.2971697038138
 40
-47.2971697038138
 40
-47.1964053849763
 40
-47.1964053849763
 40
-47.1964053849763
 40
-47.1009246239003
 40
-47.1009246239003
 40
-47.1009246239003
 40
-47.0073403428974
 40
-47.0073403428974
 40
-47.0073403428974
 40
-46.9125756528438
 40
-46.9125756528438
 40
-46.9125756528438
 40
-46.8162257859709
 40
-46.8162257859709
 40
-46.8162257859709
 40
-46.7181188951901
 40
-46.7181188951901
 40
-46.7181188951901
 40
-46.6177531525289
 40
-46.6177531525289
 40
-46.6177531525289
 40
-46.512919490581
 40
-46.512919490581
 40
-46.512919490581
 40
-46.4011425451071
 40
-46.4011425451071
 40
-46.4011425451071
 40
-46.2784323357238
 40
-46.2784323357238
 40
-46.2784323357238
 40
-46.1338730799557
 40
-46.1338730799557
 40
-46.1338730799557
 40
-45.9536626382371
 40
-45.9536626382371
 40
-45.9536626382371
 40
-45.8112972941807
 40
-45.8112972941807
 40
-45.8112972941807
 40
-45.6896787781859
 40
-45.6896787781859
 40
-45.6896787781859
 40
-45.5789155784717
 40
-45.5789155784717
 40
-45.5789155784717
 40
-45.4748998766416
 40
-45.4748998766416
 40
-45.4748998766416
 40
-45.375613709053
 40
-45.375613709053
 40
-45.375613709053
 40
-45.2772721774001
 40
-45.2772721774001
 40
-45.2772721774001
 40
-45.1765461346417
 40
-45.1765461346417
 40
-45.1765461346417
 40
-45.0728623519966
 40
-45.0728623519966
 40
-45.0728623519966
 40
-44.9656186612971
 40
-44.9656186612971
 40
-44.9656186612971
 40
-44.85374397486419
 40
-44.85374397486419
 40
-44.85374397486419
 40
-44.7351765251254
 40
-44.7351765251254
 40
-44.7351765251254
 40
-44.6065233315557
 40
-44.6065233315557
 40
-44.6065233315557
 40
-44.4592743542317
 40
-44.4592743542317
 40
-44.4592743542317
 40
-44.2717466304922
 40
-44.2717466304922
 40
-44.2717466304922
 40
-44.1217770277957
 40
-44.1217770277957
 40
-44.1217770277957
 40
-43.9938187024528
 40
-43.9938187024528
 40
-43.9938187024528
 40
-43.8751716102821
 40
-43.8751716102821
 40
-43.8751716102821
 40
-43.76270682460419
 40
-43.76270682460419
 40
-43.76270682460419
 40
-43.6548031510652
 40
-43.6548031510652
 40
-43.6548031510652
 40
-43.5472793378616
 40
-43.5472793378616
 40
-43.5472793378616
 40
-43.4362713430404
 40
-43.4362713430404
 40
-43.4362713430404
 40
-43.3208777765546
 40
-43.3208777765546
 40
-43.3208777765546
 40
-43.1998532879153
 40
-43.1998532879153
 40
-43.1998532879153
 40
-43.0721576774666
 40
-43.0721576774666
 40
-43.0721576774666
 40
-42.9357705931212
 40
-42.9357705931212
 40
-42.9357705931212
 40
-42.7854978706514
 40
-42.7854978706514
 40
-42.7854978706514
 40
-42.6068490621855
 40
-42.6068490621855
 40
-42.6068490621855
 40
-42.4321888973888
 40
-42.4321888973888
 40
-42.4321888973888
 40
-42.2775325192929
 40
-42.2775325192929
 40
-42.2775325192929
 40
-42.1409444473774
 40
-42.1409444473774
 40
-42.1409444473774
 40
-42.0141163377995
 40
-42.0141163377995
 40
-42.0141163377995
 40
-41.8933613337395
 40
-41.8933613337395
 40
-41.8933613337395
 40
-41.77116631807949
 40
-41.77116631807949
 40
-41.77116631807949
 40
-41.644929787686
 40
-41.644929787686
 40
-41.644929787686
 40
-41.5137069676787
 40
-41.5137069676787
 40
-41.5137069676787
 40
-41.3757837797106
 40
-41.3757837797106
 40
-41.3757837797106
 40
-41.227881388835
 40
-41.227881388835
 40
-41.227881388835
 40
-41.0622313791364
 40
-41.0622313791364
 40
-41.0622313791364
 40
-40.8468392853242
 40
-40.8468392853242
 40
-40.8468392853242
 40
-40.6539098210285
 40
-40.6539098210285
 40
-40.6539098210285
 40
-40.4951054857902
 40
-40.4951054857902
 40
-40.4951054857902
 40
-40.3482780164017
 40
-40.3482780164017
 40
-40.3482780164017
 40
-40.212937811527
 40
-40.212937811527
 40
-40.212937811527
 40
-40.0806110507819
 40
-40.0806110507819
 40
-40.0806110507819
 40
-39.9460452675443
 40
-39.9460452675443
 40
-39.9460452675443
 40
-39.808988017671
 40
-39.808988017671
 40
-39.808988017671
 40
-39.6674395477401
 40
-39.6674395477401
 40
-39.6674395477401
 40
-39.507502313174
 40
-39.507502313174
 40
-39.507502313174
 40
-39.3337692787714
 40
-39.3337692787714
 40
-39.3337692787714
 40
-39.1017894710283
 40
-39.1017894710283
 40
-39.1017894710283
 40
-38.8924102269903
 40
-38.8924102269903
 40
-38.8924102269903
 40
-38.7279957399188
 40
-38.7279957399188
 40
-38.7279957399188
 40
-38.5767145065597
 40
-38.5767145065597
 40
-38.5767145065597
 40
-38.4335897534098
 40
-38.4335897534098
 40
-38.4335897534098
 40
-38.2951659466591
 40
-38.2951659466591
 40
-38.2951659466591
 40
-38.1602229071613
 40
-38.1602229071613
 40
-38.1602229071613
 40
-38.0279821129617
 40
-38.0279821129617
 40
-38.0279821129617
 40
-37.8919641163776
 40
-37.8919641163776
 40
-37.8919641163776
 40
-37.743948631548
 40
-37.743948631548
 40
-37.743948631548
 40
-37.5850934607702
 40
-37.5850934607702
 40
-37.5850934607702
 40
-37.41114372547329
 40
-37.41114372547329
 40
-37.41114372547329
 40
-37.2098589206537
 40
-37.2098589206537
 40
-37.2098589206537
 40
-36.97615699928
 40
-36.97615699928
 40
-36.97615699928
 40
-36.7930193067174
 40
-36.7930193067174
 40
-36.7930193067174
 40
-36.6329647672706
 40
-36.6329647672706
 40
-36.6329647672706
 40
-36.4857150901551
 40
-36.4857150901551
 40
-36.4857150901551
 40
-36.34319276558421
 40
-36.34319276558421
 40
-36.34319276558421
 40
-36.20122716884369
 40
-36.20122716884369
 40
-36.20122716884369
 40
-36.0593327036697
 40
-36.0593327036697
 40
-36.0593327036697
 40
-35.9154725535685
 40
-35.9154725535685
 40
-35.9154725535685
 40
-35.7668598886593
 40
-35.7668598886593
 40
-35.7668598886593
 40
-35.6120852176868
 40
-35.6120852176868
 40
-35.6120852176868
 40
-35.45129635421181
 40
-35.45129635421181
 40
-35.45129635421181
 40
-35.2868960481059
 40
-35.2868960481059
 40
-35.2868960481059
 40
-35.1217907168039
 40
-35.1217907168039
 40
-35.1217907168039
 40
-34.9585266178122
 40
-34.9585266178122
 40
-34.9585266178122
 40
-34.7988463471238
 40
-34.7988463471238
 40
-34.7988463471238
 40
-34.6441210628772
 40
-34.6441210628772
 40
-34.6441210628772
 40
-34.4959450644322
 40
-34.4959450644322
 40
-34.4959450644322
 40
-34.353814721871
 40
-34.353814721871
 40
-34.353814721871
 40
-34.2155432101758
 40
-34.2155432101758
 40
-34.2155432101758
 40
-34.07622656719479
 40
-34.07622656719479
 40
-34.07622656719479
 40
-33.9342359456946
 40
-33.9342359456946
 40
-33.9342359456946
 40
-33.7887788941021
 40
-33.7887788941021
 40
-33.7887788941021
 40
-33.6356863617051
 40
-33.6356863617051
 40
-33.6356863617051
 40
-33.4705642789844
 40
-33.4705642789844
 40
-33.4705642789844
 40
-33.2903690743748
 40
-33.2903690743748
 40
-33.2903690743748
 40
-33.1045812259006
 40
-33.1045812259006
 40
-33.1045812259006
 40
-32.93037557245729
 40
-32.93037557245729
 40
-32.93037557245729
 40
-32.7690396936029
 40
-32.7690396936029
 40
-32.7690396936029
 40
-32.6174089739925
 40
-32.6174089739925
 40
-32.6174089739925
 40
-32.4735099983868
 40
-32.4735099983868
 40
-32.4735099983868
 40
-32.3365241571014
 40
-32.3365241571014
 40
-32.3365241571014
 40
-32.2050250487489
 40
-32.2050250487489
 40
-32.2050250487489
 40
-32.0774289646746
 40
-32.0774289646746
 40
-32.0774289646746
 40
-31.9514189454867
 40
-31.9514189454867
 40
-31.9514189454867
 40
-31.8263555225591
 40
-31.8263555225591
 40
-31.8263555225591
 40
-31.7019798094
 40
-31.7019798094
 40
-31.7019798094
 40
-31.5752130290129
 40
-31.5752130290129
 40
-31.5752130290129
 40
-31.4423028827032
 40
-31.4423028827032
 40
-31.4423028827032
 40
-31.3007239738585
 40
-31.3007239738585
 40
-31.3007239738585
 40
-31.1469302298109
 40
-31.1469302298109
 40
-31.1469302298109
 40
-30.9749490118005
 40
-30.9749490118005
 40
-30.9749490118005
 40
-30.7561957249101
 40
-30.7561957249101
 40
-30.7561957249101
 40
-30.5488399477061
 40
-30.5488399477061
 40
-30.5488399477061
 40
-30.3877091643807
 40
-30.3877091643807
 40
-30.3877091643807
 40
-30.2419809054831
 40
-30.2419809054831
 40
-30.2419809054831
 40
-30.1054907817239
 40
-30.1054907817239
 40
-30.1054907817239
 40
-29.9754876580721
 40
-29.9754876580721
 40
-29.9754876580721
 40
-29.8501674778868
 40
-29.8501674778868
 40
-29.8501674778868
 40
-29.7284810613799
 40
-29.7284810613799
 40
-29.7284810613799
 40
-29.6098652213991
 40
-29.6098652213991
 40
-29.6098652213991
 40
-29.4925264186621
 40
-29.4925264186621
 40
-29.4925264186621
 40
-29.3728586702192
 40
-29.3728586702192
 40
-29.3728586702192
 40
-29.2496475030503
 40
-29.2496475030503
 40
-29.2496475030503
 40
-29.1221819896278
 40
-29.1221819896278
 40
-29.1221819896278
 40
-28.9898223776681
 40
-28.9898223776681
 40
-28.9898223776681
 40
-28.8516334129305
 40
-28.8516334129305
 40
-28.8516334129305
 40
-28.7056890564273
 40
-28.7056890564273
 40
-28.7056890564273
 40
-28.5479592659063
 40
-28.5479592659063
 40
-28.5479592659063
 40
-28.3678818273908
 40
-28.3678818273908
 40
-28.3678818273908
 40
-28.1154872523061
 40
-28.1154872523061
 40
-28.1154872523061
 40
-27.9270104059093
 40
-27.9270104059093
 40
-27.9270104059093
 40
-27.7670059523676
 40
-27.7670059523676
 40
-27.7670059523676
 40
-27.6215544686419
 40
-27.6215544686419
 40
-27.6215544686419
 40
-27.4852755182243
 40
-27.4852755182243
 40
-27.4852755182243
 40
-27.3551449457712
 40
-27.3551449457712
 40
-27.3551449457712
 40
-27.2282801806287
 40
-27.2282801806287
 40
-27.2282801806287
 40
-27.103878691199
 40
-27.103878691199
 40
-27.103878691199
 40
-26.9815620314122
 40
-26.9815620314122
 40
-26.9815620314122
 40
-26.8584046960514
 40
-26.8584046960514
 40
-26.8584046960514
 40
-26.7315770263026
 40
-26.7315770263026
 40
-26.7315770263026
 40
-26.6002423888449
 40
-26.6002423888449
 40
-26.6002423888449
 40
-26.4636782136648
 40
-26.4636782136648
 40
-26.4636782136648
 40
-26.3219655198887
 40
-26.3219655198887
 40
-26.3219655198887
 40
-26.173940165678
 40
-26.173940165678
 40
-26.173940165678
 40
-26.0170972071767
 40
-26.0170972071767
 40
-26.0170972071767
 40
-25.8446677024506
 40
-25.8446677024506
 40
-25.8446677024506
 40
-25.6301146192589
 40
-25.6301146192589
 40
-25.6301146192589
 40
-25.4082748655569
 40
-25.4082748655569
 40
-25.4082748655569
 40
-25.2097727181697
 40
-25.2097727181697
 40
-25.2097727181697
 40
-25.0471214090653
 40
-25.0471214090653
 40
-25.0471214090653
 40
-24.8982934353613
 40
-24.8982934353613
 40
-24.8982934353613
 40
-24.7571994937287
 40
-24.7571994937287
 40
-24.7571994937287
 40
-24.6171823933744
 40
-24.6171823933744
 40
-24.6171823933744
 40
-24.4774149383682
 40
-24.4774149383682
 40
-24.4774149383682
 40
-24.3374666961813
 40
-24.3374666961813
 40
-24.3374666961813
 40
-24.1943123189984
 40
-24.1943123189984
 40
-24.1943123189984
 40
-24.0467200903047
 40
-24.0467200903047
 40
-24.0467200903047
 40
-23.8939462972889
 40
-23.8939462972889
 40
-23.8939462972889
 40
-23.7365658182337
 40
-23.7365658182337
 40
-23.7365658182337
 40
-23.5739863811256
 40
-23.5739863811256
 40
-23.5739863811256
 40
-23.4045455450798
 40
-23.4045455450798
 40
-23.4045455450798
 40
-23.2169947422794
 40
-23.2169947422794
 40
-23.2169947422794
 40
-23.0093326992303
 40
-23.0093326992303
 40
-23.0093326992303
 40
-22.7778979351437
 40
-22.7778979351437
 40
-22.7778979351437
 40
-22.5092211684253
 40
-22.5092211684253
 40
-22.5092211684253
 40
-22.3046123936014
 40
-22.3046123936014
 40
-22.3046123936014
 40
-22.1145395706847
 40
-22.1145395706847
 40
-22.1145395706847
 40
-21.9285485090052
 40
-21.9285485090052
 40
-21.9285485090052
 40
-21.7437847854541
 40
-21.7437847854541
 40
-21.7437847854541
 40
-21.5562369943995
 40
-21.5562369943995
 40
-21.5562369943995
 40
-21.3655374360049
 40
-21.3655374360049
 40
-21.3655374360049
 40
-21.1730777477475
 40
-21.1730777477475
 40
-21.1730777477475
 40
-20.9791824577066
 40
-20.9791824577066
 40
-20.9791824577066
 40
-20.7831499733831
 40
-20.7831499733831
 40
-20.7831499733831
 40
-20.5844839001016
 40
-20.5844839001016
 40
-20.5844839001016
 40
-20.383115787663
 40
-20.383115787663
 40
-20.383115787663
 40
-20.1789666197487
 40
-20.1789666197487
 40
-20.1789666197487
 40
-19.972098901783
 40
-19.972098901783
 40
-19.972098901783
 40
-19.7627566271461
 40
-19.7627566271461
 40
-19.7627566271461
 40
-19.5494760449274
 40
-19.5494760449274
 40
-19.5494760449274
 40
-19.3288346551738
 40
-19.3288346551738
 40
-19.3288346551738
 40
-19.0961433980965
 40
-19.0961433980965
 40
-19.0961433980965
 40
-18.8371632055634
 40
-18.8371632055634
 40
-18.8371632055634
 40
-18.5090395081025
 40
-18.5090395081025
 40
-18.5090395081025
 40
-18.2096491562079
 40
-18.2096491562079
 40
-18.2096491562079
 40
-17.9437864186718
 40
-17.9437864186718
 40
-17.9437864186718
 40
-17.7075808916744
 40
-17.7075808916744
 40
-17.7075808916744
 40
-17.4872327242113
 40
-17.4872327242113
 40
-17.4872327242113
 40
-17.2800976718993
 40
-17.2800976718993
 40
-17.2800976718993
 40
-17.0825966132202
 40
-17.0825966132202
 40
-17.0825966132202
 40
-16.8887345627438
 40
-16.8887345627438
 40
-16.8887345627438
 40
-16.6967085674318
 40
-16.6967085674318
 40
-16.6967085674318
 40
-16.4972010360564
 40
-16.4972010360564
 40
-16.4972010360564
 40
-16.2787607270328
 40
-16.2787607270328
 40
-16.2787607270328
 40
-16.0399566731128
 40
-16.0399566731128
 40
-16.0399566731128
 40
-15.8032554850807
 40
-15.8032554850807
 40
-15.8032554850807
 40
-15.5875783626271
 40
-15.5875783626271
 40
-15.5875783626271
 40
-15.3892463248554
 40
-15.3892463248554
 40
-15.3892463248554
 40
-15.2027847518994
 40
-15.2027847518994
 40
-15.2027847518994
 40
-15.0250056343283
 40
-15.0250056343283
 40
-15.0250056343283
 40
-14.8540186155708
 40
-14.8540186155708
 40
-14.8540186155708
 40
-14.6885637000319
 40
-14.6885637000319
 40
-14.6885637000319
 40
-14.5277387019246
 40
-14.5277387019246
 40
-14.5277387019246
 40
-14.370935037572
 40
-14.370935037572
 40
-14.370935037572
 40
-14.2176420108608
 40
-14.2176420108608
 40
-14.2176420108608
 40
-14.0663170815152
 40
-14.0663170815152
 40
-14.0663170815152
 40
-13.9116842587887
 40
-13.9116842587887
 40
-13.9116842587887
 40
-13.7525857855107
 40
-13.7525857855107
 40
-13.7525857855107
 40
-13.5888193738278
 40
-13.5888193738278
 40
-13.5888193738278
 40
-13.4206381320363
 40
-13.4206381320363
 40
-13.4206381320363
 40
-13.2493860884521
 40
-13.2493860884521
 40
-13.2493860884521
 40
-13.0774288978583
 40
-13.0774288978583
 40
-13.0774288978583
 40
-12.907357490351
 40
-12.907357490351
 40
-12.907357490351
 40
-12.741210798259
 40
-12.741210798259
 40
-12.741210798259
 40
-12.5802751468589
 40
-12.5802751468589
 40
-12.5802751468589
 40
-12.4244961153269
 40
-12.4244961153269
 40
-12.4244961153269
 40
-12.2729169307496
 40
-12.2729169307496
 40
-12.2729169307496
 40
-12.1246834057765
 40
-12.1246834057765
 40
-12.1246834057765
 40
-11.9795551453678
 40
-11.9795551453678
 40
-11.9795551453678
 40
-11.8383534149197
 40
-11.8383534149197
 40
-11.8383534149197
 40
-11.7011754152949
 40
-11.7011754152949
 40
-11.7011754152949
 40
-11.5674233973375
 40
-11.5674233973375
 40
-11.5674233973375
 40
-11.4340142854518
 40
-11.4340142854518
 40
-11.4340142854518
 40
-11.2983442346106
 40
-11.2983442346106
 40
-11.2983442346106
 40
-11.1602119947305
 40
-11.1602119947305
 40
-11.1602119947305
 40
-11.0177922298759
 40
-11.0177922298759
 40
-11.0177922298759
 40
-10.8665478062172
 40
-10.8665478062172
 40
-10.8665478062172
 40
-10.6959955196069
 40
-10.6959955196069
 40
-10.6959955196069
 40
-10.5161123344995
 40
-10.5161123344995
 40
-10.5161123344995
 40
-10.3405417166884
 40
-10.3405417166884
 40
-10.3405417166884
 40
-10.1779832066281
 40
-10.1779832066281
 40
-10.1779832066281
 40
-10.0189522190246
 40
-10.0189522190246
 40
-10.0189522190246
 40
-9.87305778731537
 40
-9.87305778731537
 40
-9.87305778731537
 40
-9.7341935436703
 40
-9.7341935436703
 40
-9.7341935436703
 40
-9.59996432767511
 40
-9.59996432767511
 40
-9.59996432767511
 40
-9.469605720346081
 40
-9.469605720346081
 40
-9.469605720346081
 40
-9.34288527290428
 40
-9.34288527290428
 40
-9.34288527290428
 40
-9.22057016420035
 40
-9.22057016420035
 40
-9.22057016420035
 40
-9.10197077357549
 40
-9.10197077357549
 40
-9.10197077357549
 40
-8.98648277998784
 40
-8.98648277998784
 40
-8.98648277998784
 40
-8.87116349529963
 40
-8.87116349529963
 40
-8.87116349529963
 40
-8.753829230374429
 40
-8.753829230374429
 40
-8.753829230374429
 40
-8.634253299279301
 40
-8.634253299279301
 40
-8.634253299279301
 40
-8.51193608882123
 40
-8.51193608882123
 40
-8.51193608882123
 40
-8.37737334552657
 40
-8.37737334552657
 40
-8.37737334552657
 40
-8.22760583272201
 40
-8.22760583272201
 40
-8.22760583272201
 40
-8.055424892015719
 40
-8.055424892015719
 40
-8.055424892015719
 40
-7.84149230012428
 40
-7.84149230012428
 40
-7.84149230012428
 40
-7.686602758556329
 40
-7.686602758556329
 40
-7.686602758556329
 40
-7.549400679632869
 40
-7.549400679632869
 40
-7.549400679632869
 40
-7.42217599477015
 40
-7.42217599477015
 40
-7.42217599477015
 40
-7.301624418350779
 40
-7.301624418350779
 40
-7.301624418350779
 40
-7.185739044533239
 40
-7.185739044533239
 40
-7.185739044533239
 40
-7.073436377312349
 40
-7.073436377312349
 40
-7.073436377312349
 40
-6.96291393391685
 40
-6.96291393391685
 40
-6.96291393391685
 40
-6.8541184036994
 40
-6.8541184036994
 40
-6.8541184036994
 40
-6.7470228036416
 40
-6.7470228036416
 40
-6.7470228036416
 40
-6.6416005723347
 40
-6.6416005723347
 40
-6.6416005723347
 40
-6.53782556339197
 40
-6.53782556339197
 40
-6.53782556339197
 40
-6.43567203896397
 40
-6.43567203896397
 40
-6.43567203896397
 40
-6.33511466335515
 40
-6.33511466335515
 40
-6.33511466335515
 40
-6.235017096026611
 40
-6.235017096026611
 40
-6.235017096026611
 40
-6.13290901819045
 40
-6.13290901819045
 40
-6.13290901819045
 40
-6.02850958582842
 40
-6.02850958582842
 40
-6.02850958582842
 40
-5.92104332109074
 40
-5.92104332109074
 40
-5.92104332109074
 40
-5.80936642966613
 40
-5.80936642966613
 40
-5.80936642966613
 40
-5.69227887214121
 40
-5.69227887214121
 40
-5.69227887214121
 40
-5.56786330881374
 40
-5.56786330881374
 40
-5.56786330881374
 40
-5.43341993705412
 40
-5.43341993705412
 40
-5.43341993705412
 40
-5.28366508495904
 40
-5.28366508495904
 40
-5.28366508495904
 40
-5.11582645584897
 40
-5.11582645584897
 40
-5.11582645584897
 40
-4.95595687910369
 40
-4.95595687910369
 40
-4.95595687910369
 40
-4.82251380158444
 40
-4.82251380158444
 40
-4.82251380158444
 40
-4.699880261145849
 40
-4.699880261145849
 40
-4.699880261145849
 40
-4.58371220886097
 40
-4.58371220886097
 40
-4.58371220886097
 40
-4.47210600850489
 40
-4.47210600850489
 40
-4.47210600850489
 40
-4.36416775047032
 40
-4.36416775047032
 40
-4.36416775047032
 40
-4.25933840408078
 40
-4.25933840408078
 40
-4.25933840408078
 40
-4.15790664128959
 40
-4.15790664128959
 40
-4.15790664128959
 40
-4.05950925252413
 40
-4.05950925252413
 40
-4.05950925252413
 40
-3.96366931941029
 40
-3.96366931941029
 40
-3.96366931941029
 40
-3.8700305233676
 40
-3.8700305233676
 40
-3.8700305233676
 40
-3.77730921833774
 40
-3.77730921833774
 40
-3.77730921833774
 40
-3.68412450034345
 40
-3.68412450034345
 40
-3.68412450034345
 40
-3.59044590773305
 40
-3.59044590773305
 40
-3.59044590773305
 40
-3.49625792402287
 40
-3.49625792402287
 40
-3.49625792402287
 40
-3.40148521073269
 40
-3.40148521073269
 40
-3.40148521073269
 40
-3.30457881881338
 40
-3.30457881881338
 40
-3.30457881881338
 40
-3.20131073072547
 40
-3.20131073072547
 40
-3.20131073072547
 40
-3.09510389705477
 40
-3.09510389705477
 40
-3.09510389705477
 40
-2.98361385832316
 40
-2.98361385832316
 40
-2.98361385832316
 40
-2.86632408973346
 40
-2.86632408973346
 40
-2.86632408973346
 40
-2.74152088823707
 40
-2.74152088823707
 40
-2.74152088823707
 40
-2.60527185777393
 40
-2.60527185777393
 40
-2.60527185777393
 40
-2.44220714540017
 40
-2.44220714540017
 40
-2.44220714540017
 40
-2.28956919881265
 40
-2.28956919881265
 40
-2.28956919881265
 40
-2.14647112388686
 40
-2.14647112388686
 40
-2.14647112388686
 40
-2.02291034829601
 40
-2.02291034829601
 40
-2.02291034829601
 40
-1.90574007892913
 40
-1.90574007892913
 40
-1.90574007892913
 40
-1.79337582188762
 40
-1.79337582188762
 40
-1.79337582188762
 40
-1.68128983301964
 40
-1.68128983301964
 40
-1.68128983301964
 40
-1.57068403311406
 40
-1.57068403311406
 40
-1.57068403311406
 40
-1.45752773127641
 40
-1.45752773127641
 40
-1.45752773127641
 40
-1.34142632268591
 40
-1.34142632268591
 40
-1.34142632268591
 40
-1.2222598430647
 40
-1.2222598430647
 40
-1.2222598430647
 40
-1.100556897901
 40
-1.100556897901
 40
-1.100556897901
 40
-0.9760560308813999
 40
-0.9760560308813999
 40
-0.9760560308813999
 40
-0.846272117861514
 40
-0.846272117861514
 40
-0.846272117861514
 40
-0.71171812826217
 40
-0.71171812826217
 40
-0.71171812826217
 40
-0.698822858504339
 40
-0.698822858504339
 40
-0.698822858504339
 40
-0.698822858504339
 10
348.1497878409363
 20
147.3699021452321
 30
0.0
 10
347.7754654519895
 20
147.3692009846292
 30
0.0
 10
347.4022215496162
 20
147.3719557031153
 30
0.0
 10
347.0300576951346
 20
147.3781945014771
 30
0.0
 10
346.6314799909713
 20
147.384876090508
 30
0.0
 10
346.2341411086969
 20
147.3955542195895
 30
0.0
 10
345.8380464757392
 20
147.410327639012
 30
0.0
 10
345.3989308705457
 20
147.426705641819
 30
0.0
 10
344.9613445143447
 20
147.4481174039646
 30
0.0
 10
344.525298513233
 20
147.47476708613
 30
0.0
 10
343.9920759060216
 20
147.5073558794439
 30
0.0
 10
343.4611568184329
 20
147.5477786310138
 30
0.0
 10
342.9325658721068
 20
147.596495762919
 30
0.0
 10
342.2916479061379
 20
147.6555654183975
 30
0.0
 10
341.6541531474497
 20
147.7268359555845
 30
0.0
 10
341.0201267403702
 20
147.8111804457549
 30
0.0
 10
340.5570323809288
 20
147.8727858571569
 30
0.0
 10
340.0957884217729
 20
147.9413680751655
 30
0.0
 10
339.6364100580558
 20
148.0172387915483
 30
0.0
 10
339.2461370513392
 20
148.0816960993866
 30
0.0
 10
338.8572105941215
 20
148.1514146474838
 30
0.0
 10
338.4696375225703
 20
148.2265494263318
 30
0.0
 10
338.1161234481303
 20
148.2950815400217
 30
0.0
 10
337.7637353694353
 20
148.3681202514692
 30
0.0
 10
337.4124758562774
 20
148.445742519704
 30
0.0
 10
337.0822256958485
 20
148.518722084889
 30
0.0
 10
336.7529731529658
 20
148.5957536350517
 30
0.0
 10
336.4247176571491
 20
148.6768579243957
 30
0.0
 10
336.1047447371307
 20
148.755915782126
 30
0.0
 10
335.7857192083545
 20
148.8388438805519
 30
0.0
 10
335.4676375685324
 20
148.9256132368605
 30
0.0
 10
335.1451900982923
 20
149.0135735462064
 30
0.0
 10
334.8237126080121
 20
149.1054812827673
 30
0.0
 10
334.5031980727701
 20
149.2012514568645
 30
0.0
 10
334.1764198162461
 20
149.2988932393032
 30
0.0
 10
333.8506425176486
 20
149.4005497989921
 30
0.0
 10
333.5258552678018
 20
149.5060756795308
 30
0.0
 10
333.1940329690422
 20
149.6138873016788
 30
0.0
 10
332.8632440710256
 20
149.7257375717427
 30
0.0
 10
332.5334733936417
 20
149.841415713168
 30
0.0
 10
332.1901573863624
 20
149.9618453340143
 30
0.0
 10
331.8479449713416
 20
150.0864237552762
 30
0.0
 10
331.5068151622792
 20
150.2148539244252
 30
0.0
 10
331.1296839311191
 20
150.3568380797891
 30
0.0
 10
330.7538758596185
 20
150.5035294127703
 30
0.0
 10
330.3793578277947
 20
150.654456283723
 30
0.0
 10
329.9355470092918
 20
150.8333074268985
 30
0.0
 10
329.4935477074528
 20
151.0181048019883
 30
0.0
 10
329.053298762468
 20
151.2079843913559
 30
0.0
 10
328.5299017594332
 20
151.433725779597
 30
0.0
 10
328.0089783635037
 20
151.6666424687804
 30
0.0
 10
327.4904209701622
 20
151.9052548503639
 30
0.0
 10
327.1228429242061
 20
152.0743946101853
 30
0.0
 10
326.7564535917604
 20
152.246395303505
 30
0.0
 10
326.3912153421455
 20
152.4207632983938
 30
0.0
 10
326.0623922676418
 20
152.5777463642004
 30
0.0
 10
325.7345021497025
 20
152.7366476866235
 30
0.0
 10
325.4075189823925
 20
152.8971469864146
 30
0.0
 10
325.1015166528724
 20
153.047347866865
 30
0.0
 10
324.7963085961051
 20
153.1989478738247
 30
0.0
 10
324.4918752459121
 20
153.3517274867661
 30
0.0
 10
324.199467153837
 20
153.4984722343435
 30
0.0
 10
323.9077737548241
 20
153.6463049345666
 30
0.0
 10
323.616779689117
 20
153.7950771033438
 30
0.0
 10
323.3339869843219
 20
153.9396562854123
 30
0.0
 10
323.051854732154
 20
154.0851225746283
 30
0.0
 10
322.7703710009171
 20
154.2313870987747
 30
0.0
 10
322.4958169112859
 20
154.3740508438369
 30
0.0
 10
322.2218797909753
 20
154.5174738726495
 30
0.0
 10
321.9485508765086
 20
154.6616215618833
 30
0.0
 10
321.678404344844
 20
154.8040909320558
 30
0.0
 10
321.4088519219945
 20
154.947267975862
 30
0.0
 10
321.1398876616316
 20
155.0911692666035
 30
0.0
 10
320.8714487220899
 20
155.2347895001364
 30
0.0
 10
320.6035956297708
 20
155.3791308843393
 30
0.0
 10
320.336325273308
 20
155.5242637519723
 30
0.0
 10
320.0581741196966
 20
155.6753050986199
 30
0.0
 10
319.7806540838295
 20
155.8272038571807
 30
0.0
 10
319.5037651382409
 20
155.9801002409431
 30
0.0
 10
319.2096193422254
 20
156.1425257520592
 30
0.0
 10
318.916185699741
 20
156.306077424338
 30
0.0
 10
318.6234686988913
 20
156.4709868079135
 30
0.0
 10
318.3046160734326
 20
156.6506203439336
 30
0.0
 10
317.9866136748853
 20
156.8318653172766
 30
0.0
 10
317.6694737744504
 20
157.0150885003953
 30
0.0
 10
317.3078319890492
 20
157.2240220309256
 30
0.0
 10
316.9473114925358
 20
157.4355288422578
 30
0.0
 10
316.5879415170621
 20
157.6502268066484
 30
0.0
 10
316.1426818608844
 20
157.9162377378079
 30
0.0
 10
315.6991875057468
 20
158.1871494842087
 30
0.0
 10
315.2575399636436
 20
158.4642201489009
 30
0.0
 10
314.82575240803
 20
158.7351050823254
 30
0.0
 10
314.3957301573195
 20
159.0118826626895
 30
0.0
 10
313.9675768869894
 20
159.2957335764891
 30
0.0
 10
313.6318837760832
 20
159.518286580028
 30
0.0
 10
313.2973401128602
 20
159.7451887969933
 30
0.0
 10
312.9640079818794
 20
159.9769781180977
 30
0.0
 10
312.6700298942865
 20
160.1814017994941
 30
0.0
 10
312.3769942865093
 20
160.3896273867737
 30
0.0
 10
312.0849509333927
 20
160.6019864021464
 30
0.0
 10
311.8142550095084
 20
160.7988226569283
 30
0.0
 10
311.5444116347716
 20
160.9992105539019
 30
0.0
 10
311.2754658787168
 20
161.2033726658473
 30
0.0
 10
311.0206222418768
 20
161.3968295765507
 30
0.0
 10
310.7665845875762
 20
161.5936755800647
 30
0.0
 10
310.513395784354
 20
161.7940563768534
 30
0.0
 10
310.2652359263831
 20
161.9904571237992
 30
0.0
 10
310.0178915381229
 20
162.1902540620708
 30
0.0
 10
309.7714072519883
 20
162.3935356604457
 30
0.0
 10
309.5218139791832
 20
162.5993813159035
 30
0.0
 10
309.2731026590303
 20
162.808800078202
 30
0.0
 10
309.0253239648011
 20
163.0218292836095
 30
0.0
 10
308.7734005512444
 20
163.2384219360991
 30
0.0
 10
308.5224412461901
 20
163.458746744821
 30
0.0
 10
308.2725034634113
 20
163.6827879900472
 30
0.0
 10
308.0180078470407
 20
163.9109148229029
 30
0.0
 10
307.7645713725486
 20
164.1428947808856
 30
0.0
 10
307.5122585907544
 20
164.3786560860408
 30
0.0
 10
307.254136459616
 20
164.6198456527912
 30
0.0
 10
306.9971903865044
 20
164.8649926219726
 30
0.0
 10
306.7414932040488
 20
165.1139641341713
 30
0.0
 10
306.4744133092973
 20
165.3740189561898
 30
0.0
 10
306.2086960041976
 20
165.6382462966497
 30
0.0
 10
305.9444279130049
 20
165.9064348538631
 30
0.0
 10
305.6626569677675
 20
166.1923859231989
 30
0.0
 10
305.3825336178874
 20
166.4828399670898
 30
0.0
 10
305.1041661844774
 20
166.7774779054156
 30
0.0
 10
304.7985707336948
 20
167.1009353317292
 30
0.0
 10
304.4950916037337
 20
167.4294346579431
 30
0.0
 10
304.1938747467235
 20
167.7624863181937
 30
0.0
 10
303.8390250166718
 20
168.1548391662588
 30
0.0
 10
303.487315168888
 20
168.5535086900138
 30
0.0
 10
303.1389843301451
 20
168.9576161528545
 30
0.0
 10
302.7047481826186
 20
169.4613845486818
 30
0.0
 10
302.2757642632592
 20
169.9735989780343
 30
0.0
 10
301.8524855642121
 20
170.4924916370198
 30
0.0
 10
301.5180975173992
 20
170.9024142320721
 30
0.0
 10
301.1872700093439
 20
171.316501475095
 30
0.0
 10
300.8602158307517
 20
171.7339044130459
 30
0.0
 10
300.5808230886912
 20
172.0904794364264
 30
0.0
 10
300.3041839839159
 20
172.4494735449859
 30
0.0
 10
300.0304231722852
 20
172.810394962911
 30
0.0
 10
299.7810974573267
 20
173.1391015810422
 30
0.0
 10
299.5341591481671
 20
173.4694063428853
 30
0.0
 10
299.2896954932473
 20
173.8009788072734
 30
0.0
 10
299.0601241310616
 20
174.1123524645878
 30
0.0
 10
298.8327351111917
 20
174.424843749655
 30
0.0
 10
298.6075942178562
 20
174.7382224933823
 30
0.0
 10
298.3926903516758
 20
175.0373520855593
 30
0.0
 10
298.1798348284245
 20
175.337290008764
 30
0.0
 10
297.969078629263
 20
175.6378811715102
 30
0.0
 10
297.7603276226099
 20
175.9356124271696
 30
0.0
 10
297.5536362189712
 20
176.2339841533158
 30
0.0
 10
297.3490472776659
 20
176.5328963879945
 30
0.0
 10
297.1394976183972
 20
176.8390564205385
 30
0.0
 10
296.9321536117519
 20
177.1457836060877
 30
0.0
 10
296.7270539895486
 20
177.4530263773474
 30
0.0
 10
296.5159317805671
 20
177.7692910874678
 30
0.0
 10
296.307187695789
 20
178.0861022591587
 30
0.0
 10
296.1008563809181
 20
178.4034600021645
 30
0.0
 10
295.8874408288509
 20
178.7317139948694
 30
0.0
 10
295.6766065685659
 20
179.06055291382
 30
0.0
 10
295.4683839800148
 20
179.3900338184996
 30
0.0
 10
295.251169926205
 20
179.7337423635543
 30
0.0
 10
295.0367979683375
 20
180.0781497403751
 30
0.0
 10
294.8252940885926
 20
180.4233788085132
 30
0.0
 10
294.6011372535584
 20
180.7892607742199
 30
0.0
 10
294.3802019211736
 20
181.156066001598
 30
0.0
 10
294.1625096054491
 20
181.5240008666356
 30
0.0
 10
293.9262996532642
 20
181.9232335018738
 30
0.0
 10
293.6939079231423
 20
182.3237966001206
 30
0.0
 10
293.4653509170636
 20
182.7260167258197
 30
0.0
 10
293.203757835139
 20
183.1863745336988
 30
0.0
 10
292.947188230948
 20
183.648903899188
 30
0.0
 10
292.6956520053394
 20
184.114163896589
 30
0.0
 10
292.3753101144578
 20
184.7066919388561
 30
0.0
 10
292.0631321944074
 20
185.3036532577458
 30
0.0
 10
291.7591118667563
 20
185.9062710600624
 30
0.0
 10
291.5159808414322
 20
186.3881963487031
 30
0.0
 10
291.2780662382216
 20
186.8737428037664
 30
0.0
 10
291.0453566469827
 20
187.363512587658
 30
0.0
 10
290.8468022129455
 20
187.7813980806077
 30
0.0
 10
290.6520368023438
 20
188.2023588304826
 30
0.0
 10
290.4610518963474
 20
188.6267285695904
 30
0.0
 10
290.2839645229059
 20
189.0202178983654
 30
0.0
 10
290.1101273865302
 20
189.4166385031112
 30
0.0
 10
289.9395342554675
 20
189.816211993872
 30
0.0
 10
289.7778301667107
 20
190.1949650351718
 30
0.0
 10
289.6190407660644
 20
190.5765512172927
 30
0.0
 10
289.4631622549707
 20
190.9611133771189
 30
0.0
 10
289.313605539316
 20
191.3300792671901
 30
0.0
 10
289.1667283523465
 20
191.7017848611372
 30
0.0
 10
289.0225294526605
 20
192.0763093883751
 30
0.0
 10
288.8788381857605
 20
192.4495154525072
 30
0.0
 10
288.737806343777
 20
192.8255209544574
 30
0.0
 10
288.5994354866714
 20
193.2043517728048
 30
0.0
 10
288.4565808860825
 20
193.5954581544362
 30
0.0
 10
288.3165625176682
 20
193.9895757502141
 30
0.0
 10
288.1793853219889
 20
194.3866762599096
 30
0.0
 10
288.0367886930215
 20
194.7994649436516
 30
0.0
 10
287.8972621633197
 20
195.2154766794955
 30
0.0
 10
287.7608147003273
 20
195.634622179856
 30
0.0
 10
287.6177089368284
 20
196.0742209494534
 30
0.0
 10
287.4779900730362
 20
196.5172665220642
 30
0.0
 10
287.3416721502788
 20
196.9635974079219
 30
0.0
 10
287.1978400997799
 20
197.434530981552
 30
0.0
 10
287.0577942524453
 20
197.9091217049998
 30
0.0
 10
286.9215551524089
 20
198.3871211919864
 30
0.0
 10
286.7760430744095
 20
198.8976552355581
 30
0.0
 10
286.6348735648456
 20
199.4120774822294
 30
0.0
 10
286.4980763845944
 20
199.9300252895481
 30
0.0
 10
286.3473518141469
 20
200.5007056254216
 30
0.0
 10
286.2019351454579
 20
201.0756653371057
 30
0.0
 10
286.0618723264697
 20
201.6543561521929
 30
0.0
 10
285.8953613635258
 20
202.3423214920519
 30
0.0
 10
285.7364169354195
 20
203.035558406124
 30
0.0
 10
285.5851264643765
 20
203.7330761235905
 30
0.0
 10
285.4372138147963
 20
204.4150205514738
 30
0.0
 10
285.2966173421663
 20
205.1010523724605
 30
0.0
 10
285.1634269595575
 20
205.7902367699815
 30
0.0
 10
285.0454908394611
 20
206.4004890440755
 30
0.0
 10
284.9333616995544
 20
207.0132110963226
 30
0.0
 10
284.8271059062625
 20
207.6277883439785
 30
0.0
 10
284.7332638409416
 20
208.170565320486
 30
0.0
 10
284.6440030206095
 20
208.7147888235582
 30
0.0
 10
284.5593708203481
 20
209.260078645022
 30
0.0
 10
284.4807860521613
 20
209.766404536137
 30
0.0
 10
284.4061920967175
 20
210.2736494546596
 30
0.0
 10
284.3356276187646
 20
210.7815544522608
 30
0.0
 10
284.2684420882853
 20
211.2651386533619
 30
0.0
 10
284.2049094001908
 20
211.7493209303935
 30
0.0
 10
284.1450631794634
 20
212.2339252252622
 30
0.0
 10
284.0845032884974
 20
212.7243084591413
 30
0.0
 10
284.0277183306064
 20
213.2151238015924
 30
0.0
 10
283.9747430861842
 20
213.7062434663583
 30
0.0
 10
283.9200157225803
 20
214.2136065707631
 30
0.0
 10
283.8693542685272
 20
214.7212946386806
 30
0.0
 10
283.8227967008501
 20
215.2292227719814
 30
0.0
 10
283.7744001289211
 20
215.7572138519407
 30
0.0
 10
283.7304380781642
 20
216.2854645517369
 30
0.0
 10
283.6909524242856
 20
216.8139360741229
 30
0.0
 10
283.6494505935701
 20
217.3693918790945
 30
0.0
 10
283.6128940103874
 20
217.9250919070951
 30
0.0
 10
283.5813299048892
 20
218.4810488112881
 30
0.0
 10
283.5474820310268
 20
219.0772310527616
 30
0.0
 10
283.5193752854958
 20
219.6737091070274
 30
0.0
 10
283.4970654514988
 20
220.2705580764589
 30
0.0
 10
283.4720785381967
 20
220.939026226227
 30
0.0
 10
283.4543633692267
 20
221.6079603041429
 30
0.0
 10
283.443993456887
 20
222.2775301233136
 30
0.0
 10
283.4305096234992
 20
223.1481611940094
 30
0.0
 10
283.4294455222071
 20
224.0198688341833
 30
0.0
 10
283.4409465489499
 20
224.893114754211
 30
0.0
 10
283.451248166289
 20
225.6752923382042
 30
0.0
 10
283.4716306936623
 20
226.4587088893421
 30
0.0
 10
283.5021836656587
 20
227.2436993801627
 30
0.0
 10
283.5273324651183
 20
227.8898417074551
 30
0.0
 10
283.5593718192656
 20
228.5370516069145
 30
0.0
 10
283.5983433118068
 20
229.1854868607763
 30
0.0
 10
283.6343756129371
 20
229.785017769324
 30
0.0
 10
283.6763338265258
 20
230.3855971172277
 30
0.0
 10
283.7242441758115
 20
230.9873076503787
 30
0.0
 10
283.7684061879675
 20
231.5419424688572
 30
0.0
 10
283.8176253861199
 20
232.0975387660175
 30
0.0
 10
283.8719168601029
 20
232.6541158136961
 30
0.0
 10
283.924999496522
 20
233.1983002849147
 30
0.0
 10
283.9829310393668
 20
233.7434225464208
 30
0.0
 10
284.0457203246447
 20
234.2894492751404
 30
0.0
 10
284.1095720301104
 20
234.8447149976981
 30
0.0
 10
284.1784472460332
 20
235.4009159641621
 30
0.0
 10
284.2523499617672
 20
235.9579635849351
 30
0.0
 10
284.3276209759355
 20
236.525324864413
 30
0.0
 10
284.4081073661978
 20
237.09356434132
 30
0.0
 10
284.4938080951941
 20
237.6625347526559
 30
0.0
 10
284.5823171457744
 20
238.2501497181903
 30
0.0
 10
284.6763878582178
 20
238.8385441833565
 30
0.0
 10
284.7760137007887
 20
239.4275002805812
 30
0.0
 10
284.8885820793793
 20
240.0929685086516
 30
0.0
 10
285.0082427217231
 20
240.7591537741601
 30
0.0
 10
285.1349791865626
 20
241.4256717748429
 30
0.0
 10
285.2726476329739
 20
242.1496820095871
 30
0.0
 10
285.418665166735
 20
242.8740836012782
 30
0.0
 10
285.5730032436289
 20
243.5983165320777
 30
0.0
 10
285.7790856247281
 20
244.5653601149279
 30
0.0
 10
286.0000030861353
 20
245.5321012446783
 30
0.0
 10
286.2356741704756
 20
246.4971131699754
 30
0.0
 10
286.4483850695873
 20
247.3681090957506
 30
0.0
 10
286.6731143464199
 20
248.2376909975321
 30
0.0
 10
286.9097976541668
 20
249.1048083780607
 30
0.0
 10
287.0956525836771
 20
249.7857099641057
 30
0.0
 10
287.2888783725008
 20
250.4650908747414
 30
0.0
 10
287.4894445941569
 20
251.1424719296829
 30
0.0
 10
287.6739898001341
 20
251.7657445090698
 30
0.0
 10
287.8647495119977
 20
252.3873232010949
 30
0.0
 10
288.0617020917821
 20
253.0068747073463
 30
0.0
 10
288.2480357746717
 20
253.5930224695438
 30
0.0
 10
288.4399124909741
 20
254.1773552247787
 30
0.0
 10
288.637316662865
 20
254.7596370191761
 30
0.0
 10
288.8282370755836
 20
255.3227937115594
 30
0.0
 10
289.024327776521
 20
255.8840318044807
 30
0.0
 10
289.2255778815947
 20
256.443187445637
 30
0.0
 10
289.4217674064705
 20
256.9882827116979
 30
0.0
 10
289.6228600976402
 20
257.5313988135851
 30
0.0
 10
289.8288493838828
 20
258.0724338210919
 30
0.0
 10
290.0307137179803
 20
258.6026345587424
 30
0.0
 10
290.2372804772687
 20
259.1308365871798
 30
0.0
 10
290.448547264521
 20
259.6569944110326
 30
0.0
 10
290.6658484787249
 20
260.1981809149451
 30
0.0
 10
290.8881220166575
 20
260.7372049347986
 30
0.0
 10
291.1153698441951
 20
261.2740725108901
 30
0.0
 10
291.3626621012064
 20
261.858294573853
 30
0.0
 10
291.6158447712409
 20
262.4399629972035
 30
0.0
 10
291.8749267723869
 20
263.0191492255992
 30
0.0
 10
292.1529822446564
 20
263.6407512649387
 30
0.0
 10
292.4378326346796
 20
264.2594947299473
 30
0.0
 10
292.7294976469888
 20
264.8755342905812
 30
0.0
 10
293.0488769371823
 20
265.550110497198
 30
0.0
 10
293.3764272092087
 20
266.2214450904375
 30
0.0
 10
293.7121871439849
 20
266.8898092380315
 30
0.0
 10
294.1007095687091
 20
267.6632024643403
 30
0.0
 10
294.5002239332986
 20
268.4326194554859
 30
0.0
 10
294.9108140660211
 20
269.198555613376
 30
0.0
 10
295.3875301450137
 20
270.0878465457392
 30
0.0
 10
295.8791756388894
 20
270.9724501257921
 30
0.0
 10
296.3859277346237
 20
271.853188354203
 30
0.0
 10
296.7830379037165
 20
272.5433682464122
 30
0.0
 10
297.1894258500654
 20
273.2311767551485
 30
0.0
 10
297.6051982048857
 20
273.916987674083
 30
0.0
 10
297.9685655261308
 20
274.5163571934961
 30
0.0
 10
298.3391009187393
 20
275.1142016397396
 30
0.0
 10
298.7168874307071
 20
275.7107362805315
 30
0.0
 10
299.0644498434829
 20
276.2595462895974
 30
0.0
 10
299.4181496241411
 20
276.8072481621095
 30
0.0
 10
299.7780605343718
 20
277.3539703940851
 30
0.0
 10
300.1264167451923
 20
277.8831404739262
 30
0.0
 10
300.4805916718175
 20
278.4113933697253
 30
0.0
 10
300.840660807665
 20
278.9387996592856
 30
0.0
 10
301.1993234234507
 20
279.4641457680273
 30
0.0
 10
301.5638343899396
 20
279.9886521027703
 30
0.0
 10
301.9342767605622
 20
280.512334594873
 30
0.0
 10
302.3045335218063
 20
281.0357546969535
 30
0.0
 10
302.6807159464097
 20
281.5583516721974
 30
0.0
 10
303.0629128151265
 20
282.0800877940099
 30
0.0
 10
303.4504043133637
 20
282.6090516031704
 30
0.0
 10
303.8440782520177
 20
283.1371305567992
 30
0.0
 10
304.2440301159114
 20
283.6642307313522
 30
0.0
 10
304.6571946530458
 20
284.2087440073311
 30
0.0
 10
305.0770590666806
 20
284.7522126922721
 30
0.0
 10
305.5037280113085
 20
285.2944747944068
 30
0.0
 10
305.948088157594
 20
285.8592209988439
 30
0.0
 10
306.399829284104
 20
286.4226581901098
 30
0.0
 10
306.8590627323297
 20
286.9845443264757
 30
0.0
 10
307.3361409502705
 20
287.5682640830803
 30
0.0
 10
307.8213056866928
 20
288.1503094169196
 30
0.0
 10
308.314666010097
 20
288.73035264255
 30
0.0
 10
308.8191075891671
 20
289.3234240890882
 30
0.0
 10
309.3321177252749
 20
289.9144018755561
 30
0.0
 10
309.8537868751743
 20
290.5028869274869
 30
0.0
 10
310.3776931857175
 20
291.0938956778153
 30
0.0
 10
310.9103335703455
 20
291.6823895156801
 30
0.0
 10
311.4517637624579
 20
292.2679258977388
 30
0.0
 10
311.9871559983418
 20
292.8469324573081
 30
0.0
 10
312.5311435803644
 20
293.4230463485946
 30
0.0
 10
313.0837370898442
 20
293.9958140289513
 30
0.0
 10
313.6242005580487
 20
294.5560088225753
 30
0.0
 10
314.1728965486008
 20
295.113001936952
 30
0.0
 10
314.7297879966348
 20
295.6663559717126
 30
0.0
 10
315.2693987276296
 20
296.2025390577524
 30
0.0
 10
315.8167043167777
 20
296.7353047757125
 30
0.0
 10
316.371623714894
 20
297.2642528578209
 30
0.0
 10
316.9030542194348
 20
297.7708113726345
 30
0.0
 10
317.441467688045
 20
298.2738680949179
 30
0.0
 10
317.9867477886837
 20
298.7730772432321
 30
0.0
 10
318.5097801846782
 20
299.251918405122
 30
0.0
 10
319.0391304266157
 20
299.7272191547419
 30
0.0
 10
319.5746517864365
 20
300.1986862976907
 30
0.0
 10
320.095633771234
 20
300.6573531340285
 30
0.0
 10
320.6224564823181
 20
301.1123913678669
 30
0.0
 10
321.1549402429434
 20
301.5635479049451
 30
0.0
 10
321.6914488054281
 20
302.0181145284963
 30
0.0
 10
322.2337044126505
 20
302.4687402979469
 30
0.0
 10
322.7814742336725
 20
302.9151887740661
 30
0.0
 10
323.3397576925743
 20
303.3702061735357
 30
0.0
 10
323.9037688917302
 20
303.8208842661295
 30
0.0
 10
324.4732120698742
 20
304.2669983459217
 30
0.0
 10
325.0565571166605
 20
304.7240034497437
 30
0.0
 10
325.6456024213097
 20
305.1762188177911
 30
0.0
 10
326.23998152912
 20
305.6234316922681
 30
0.0
 10
326.8655613949453
 20
306.0941201238335
 30
0.0
 10
327.497049451279
 20
306.5592668830695
 30
0.0
 10
328.1339678523939
 20
307.0186589828161
 30
0.0
 10
328.8209333840797
 20
307.5141487307989
 30
0.0
 10
329.5142154426038
 20
308.0029437357519
 30
0.0
 10
330.2131655201601
 20
308.4848195143589
 30
0.0
 10
330.9759190547684
 20
309.0106831849945
 30
0.0
 10
331.7454211444795
 20
309.5283065038931
 30
0.0
 10
332.5207906750902
 20
310.0374503837001
 30
0.0
 10
333.3202250283892
 20
310.5623963510367
 30
0.0
 10
334.1258944194524
 20
311.0783285286489
 30
0.0
 10
334.9368248394246
 20
311.5850380126913
 30
0.0
 10
335.6972010689169
 20
312.0601587350556
 30
0.0
 10
336.4622011514686
 20
312.5271715826457
 30
0.0
 10
337.2310431994964
 20
312.9859424504529
 30
0.0
 10
337.9430855762342
 20
313.4108207462353
 30
0.0
 10
338.6584223972729
 20
313.8286304462355
 30
0.0
 10
339.3764677979244
 20
314.2392896615929
 30
0.0
 10
340.05131917994
 20
314.6252456732455
 30
0.0
 10
340.728562606074
 20
315.0048859731176
 30
0.0
 10
341.4077527259001
 20
315.3781587111552
 30
0.0
 10
342.0523105222072
 20
315.7323980418341
 30
0.0
 10
342.6986212496748
 20
316.0809028749951
 30
0.0
 10
343.3463477050252
 20
316.4236396214109
 30
0.0
 10
343.962956357279
 20
316.7499107525951
 30
0.0
 10
344.5808477093248
 20
317.0709548798995
 30
0.0
 10
345.1997750594703
 20
317.3867500301579
 30
0.0
 10
345.7939123361077
 20
317.689896547283
 30
0.0
 10
346.3890040519729
 20
317.9882062728597
 30
0.0
 10
346.984877445214
 20
318.2816642244065
 30
0.0
 10
347.5630647236995
 20
318.5664120521831
 30
0.0
 10
348.1419877434377
 20
318.8465919390259
 30
0.0
 10
348.7215357229576
 20
319.1221928801554
 30
0.0
 10
349.2938797141497
 20
319.3943680031755
 30
0.0
 10
349.8668330551902
 20
319.6620773759631
 30
0.0
 10
350.4403391303674
 20
319.9253118383141
 30
0.0
 10
351.0095369869641
 20
320.1865688645915
 30
0.0
 10
351.5792792643006
 20
320.4434180093719
 30
0.0
 10
352.149561385706
 20
320.6958509174765
 30
0.0
 10
352.716707589539
 20
320.9468957252657
 30
0.0
 10
353.2843876626659
 20
321.1935727790457
 30
0.0
 10
353.8526482361145
 20
321.4358737336771
 30
0.0
 10
354.43183336388
 20
321.6828328153447
 30
0.0
 10
355.0116213055919
 20
321.9252459711543
 30
0.0
 10
355.592117340391
 20
322.1631034878085
 30
0.0
 10
356.2007453475221
 20
322.4124880445741
 30
0.0
 10
356.8101519705224
 20
322.6568647114455
 30
0.0
 10
357.4205198093175
 20
322.8962209628971
 30
0.0
 10
358.0706975046243
 20
323.1511886824177
 30
0.0
 10
358.7219662144454
 20
323.4004597355095
 30
0.0
 10
359.3746103592047
 20
323.6440175494545
 30
0.0
 10
360.0835619069478
 20
323.9085885113611
 30
0.0
 10
360.7941369984513
 20
324.1664178741737
 30
0.0
 10
361.5067665411431
 20
324.4174828205541
 30
0.0
 10
362.3036708463302
 20
324.6982384231023
 30
0.0
 10
363.1031448861122
 20
324.9705351438981
 30
0.0
 10
363.905861502418
 20
325.2343389394528
 30
0.0
 10
364.9268851949453
 20
325.5698869024175
 30
0.0
 10
365.9531568184236
 20
325.8916945179433
 30
0.0
 10
366.9861542828136
 20
326.1996862258399
 30
0.0
 10
367.9653303908536
 20
326.4916309132585
 30
0.0
 10
368.9505561654063
 20
326.7711617905875
 30
0.0
 10
369.9430921583863
 20
327.0382093585089
 30
0.0
 10
370.7143660731232
 20
327.2457250804461
 30
0.0
 10
371.4900551199328
 20
327.4457027232959
 30
0.0
 10
372.2707156724684
 20
327.6381078148245
 30
0.0
 10
372.9767527236349
 20
327.8121208644293
 30
0.0
 10
373.6868567512237
 20
327.979939866974
 30
0.0
 10
374.4013984301697
 20
328.1415383077575
 30
0.0
 10
375.0706432487667
 20
328.2928925567461
 30
0.0
 10
375.7437812621616
 20
328.4387899140251
 30
0.0
 10
376.4210734835906
 20
328.5792078787483
 30
0.0
 10
377.0661758689195
 20
328.7129521638881
 30
0.0
 10
377.7150472303475
 20
328.8417255139183
 30
0.0
 10
378.3678679906872
 20
328.9655079286621
 30
0.0
 10
378.9971729874929
 20
329.0848314809261
 30
0.0
 10
379.6301481994038
 20
329.1995171820707
 30
0.0
 10
380.2669087378046
 20
329.3095466602189
 30
0.0
 10
380.8852058706084
 20
329.4163857414131
 30
0.0
 10
381.5070721526287
 20
329.5188347029512
 30
0.0
 10
382.1325655989068
 20
329.6168763492149
 30
0.0
 10
382.7422756443049
 20
329.7124440597155
 30
0.0
 10
383.3554322485459
 20
329.8038240695429
 30
0.0
 10
383.9720412975986
 20
329.8910001425221
 30
0.0
 10
384.5820118343049
 20
329.9772376638512
 30
0.0
 10
385.1953611037614
 20
330.0593612792971
 30
0.0
 10
385.8120445263054
 20
330.1373550041275
 30
0.0
 10
386.440967908482
 20
330.2168967518305
 30
0.0
 10
387.073359148618
 20
330.2921430392739
 30
0.0
 10
387.709114814905
 20
330.3630766605463
 30
0.0
 10
388.363695507671
 20
330.4361106599515
 30
0.0
 10
389.0218426704818
 20
330.5045728087713
 30
0.0
 10
389.6833859641976
 20
330.5684441052285
 30
0.0
 10
390.3677716211335
 20
330.6345208073905
 30
0.0
 10
391.0557918095863
 20
330.6956841458507
 30
0.0
 10
391.7471998108685
 20
330.7519128997477
 30
0.0
 10
392.4651547486266
 20
330.8103005831841
 30
0.0
 10
393.1867624194848
 20
330.8633674710953
 30
0.0
 10
393.911688114645
 20
330.9110896776637
 30
0.0
 10
394.6685408270606
 20
330.9609136551091
 30
0.0
 10
395.4290100359966
 20
331.0049117989945
 30
0.0
 10
396.1926556931566
 20
331.0430568831659
 30
0.0
 10
396.9991583993771
 20
331.0833427321403
 30
0.0
 10
397.809203801404
 20
331.1171001099301
 30
0.0
 10
398.6222128503911
 20
331.1442970270407
 30
0.0
 10
399.5008747600457
 20
331.1736901748227
 30
0.0
 10
400.3829978864051
 20
331.1954205113641
 30
0.0
 10
401.2677873296063
 20
331.2094479614299
 30
0.0
 10
402.2779364969322
 20
331.2254628643116
 30
0.0
 10
403.291560233463
 20
331.2314374729925
 30
0.0
 10
404.3074039291769
 20
331.2273130141033
 30
0.0
 10
405.7311993809884
 20
331.2215322174787
 30
0.0
 10
407.1593513167631
 20
331.1959119727355
 30
0.0
 10
408.5883021981188
 20
331.1502950233963
 30
0.0
 10
409.655378048237
 20
331.1162303500545
 30
0.0
 10
410.7228955341295
 20
331.0710147544965
 30
0.0
 10
411.7893956330998
 20
331.0145853844011
 30
0.0
 10
412.6947841134372
 20
330.9666805584321
 30
0.0
 10
413.5994387284836
 20
330.9106941113485
 30
0.0
 10
414.5025063404981
 20
330.8465891736961
 30
0.0
 10
415.3234367656502
 20
330.7883148063927
 30
0.0
 10
416.143055304232
 20
330.7233316073861
 30
0.0
 10
416.9607633187753
 20
330.6516130955515
 30
0.0
 10
417.7269046266226
 20
330.5844173319341
 30
0.0
 10
418.4913684476581
 20
330.5113089648044
 30
0.0
 10
419.2537068385479
 20
330.4322672581603
 30
0.0
 10
419.981651476407
 20
330.3567916069185
 30
0.0
 10
420.7076578657691
 20
330.2759059188649
 30
0.0
 10
421.4313822139542
 20
330.1895930944526
 30
0.0
 10
422.1369436952384
 20
330.1054464101529
 30
0.0
 10
422.840336063487
 20
330.0161415736869
 30
0.0
 10
423.541289512778
 20
329.9216636715355
 30
0.0
 10
424.2286328662667
 20
329.8290202040387
 30
0.0
 10
424.9136309889096
 20
329.7314026059217
 30
0.0
 10
425.5960787580668
 20
329.6287977329043
 30
0.0
 10
426.267089466902
 20
329.5279124026497
 30
0.0
 10
426.9356344858608
 20
329.4222055581087
 30
0.0
 10
427.6015684718247
 20
329.3116656139599
 30
0.0
 10
428.2720793848958
 20
329.2003659349465
 30
0.0
 10
428.9399430509702
 20
329.0841664885929
 30
0.0
 10
429.6050648047473
 20
328.9630564239105
 30
0.0
 10
430.2900085142206
 20
328.8383370375933
 30
0.0
 10
430.9720446018828
 20
328.7084099727919
 30
0.0
 10
431.6511265293125
 20
328.5732644928305
 30
0.0
 10
432.3543404172573
 20
328.4333164621695
 30
0.0
 10
433.0543866409681
 20
328.2877725331696
 30
0.0
 10
433.7512710074213
 20
328.1366220764237
 30
0.0
 10
434.4759042080967
 20
327.9794530473441
 30
0.0
 10
435.1971189871595
 20
327.8162221041407
 30
0.0
 10
435.9149796191554
 20
327.6469188241791
 30
0.0
 10
436.659903855558
 20
327.4712327495789
 30
0.0
 10
437.4012164801802
 20
327.2890078356335
 30
0.0
 10
438.1390464667397
 20
327.1002342381734
 30
0.0
 10
438.9097434466469
 20
326.9030516295799
 30
0.0
 10
439.6766408458172
 20
326.6987238957689
 30
0.0
 10
440.4399435748149
 20
326.4872420019827
 30
0.0
 10
441.2487148754248
 20
326.2631625119003
 30
0.0
 10
442.053450794314
 20
326.0310511251405
 30
0.0
 10
442.8544547311151
 20
325.7908998890895
 30
0.0
 10
443.7350598499297
 20
325.5268831994831
 30
0.0
 10
444.6111549662006
 20
325.2531492457271
 30
0.0
 10
445.4832072105534
 20
324.9696915573091
 30
0.0
 10
446.5682970159637
 20
324.6169867165637
 30
0.0
 10
447.6471285441089
 20
324.2492265980159
 30
0.0
 10
448.7206858502935
 20
323.8664082116445
 30
0.0
 10
449.8307034032744
 20
323.4705885138713
 30
0.0
 10
450.9350876868207
 20
323.0586702710457
 30
0.0
 10
452.0349486701533
 20
322.6306622830657
 30
0.0
 10
453.0191039596158
 20
322.2476808593349
 30
0.0
 10
453.999640507977
 20
321.8518170670765
 30
0.0
 10
454.9773156084831
 20
321.4430857978309
 30
0.0
 10
455.7784159344458
 20
321.1081741765235
 30
0.0
 10
456.5775953700561
 20
320.7646234106185
 30
0.0
 10
457.3752287043089
 20
320.4124458504823
 30
0.0
 10
458.1050731399258
 20
320.0901989964749
 30
0.0
 10
458.8336235172101
 20
319.7607294182707
 30
0.0
 10
459.5611227682487
 20
319.4240493734939
 30
0.0
 10
460.250816609461
 20
319.1048653289597
 30
0.0
 10
460.9395660868627
 20
318.7792007662349
 30
0.0
 10
461.6275311261699
 20
318.4470683807401
 30
0.0
 10
462.3102455562466
 20
318.1174708586035
 30
0.0
 10
462.9921875361164
 20
317.7815038620487
 30
0.0
 10
463.6734617030933
 20
317.4391819722267
 30
0.0
 10
464.3535211832486
 20
317.0974704297637
 30
0.0
 10
465.032915239012
 20
316.7494266316843
 30
0.0
 10
465.7116960771668
 20
316.3950672910481
 30
0.0
 10
466.3913549085146
 20
316.0402495917325
 30
0.0
 10
467.070398968335
 20
315.6790999967751
 30
0.0
 10
467.7488282424106
 20
315.3116375604875
 30
0.0
 10
468.4427999470586
 20
314.9357567678253
 30
0.0
 10
469.1361282683511
 20
314.5532705586663
 30
0.0
 10
469.8287580829258
 20
314.1642018628807
 30
0.0
 10
470.5428597402026
 20
313.7630718586439
 30
0.0
 10
471.2562187427206
 20
313.3549449005675
 30
0.0
 10
471.9687190559087
 20
312.9398490650429
 30
0.0
 10
472.7062333297577
 20
312.5101803364155
 30
0.0
 10
473.4428273533657
 20
312.0730447970249
 30
0.0
 10
474.1783166336285
 20
311.6284770732331
 30
0.0
 10
474.935983593273
 20
311.1705040140995
 30
0.0
 10
475.692478014268
 20
310.7046437701251
 30
0.0
 10
476.4475432191367
 20
310.2309382586493
 30
0.0
 10
477.2275514941421
 20
309.7415842048731
 30
0.0
 10
478.0060343819453
 20
309.2438579612447
 30
0.0
 10
478.782653688247
 20
308.7378105009735
 30
0.0
 10
479.5920489407446
 20
308.2104061362361
 30
0.0
 10
480.3994197656918
 20
307.6739633165995
 30
0.0
 10
481.2043272822656
 20
307.1285455129885
 30
0.0
 10
482.0952639327002
 20
306.5248330354297
 30
0.0
 10
482.9831825386941
 20
305.9101243836127
 30
0.0
 10
483.8674219185572
 20
305.2845143189185
 30
0.0
 10
484.8464790776046
 20
304.5918195277117
 30
0.0
 10
485.8210249879534
 20
303.8857597889187
 30
0.0
 10
486.790090388337
 20
303.1664772465841
 30
0.0
 10
487.8700923907709
 20
302.3648527269919
 30
0.0
 10
488.9432856942998
 20
301.5468042593419
 30
0.0
 10
490.0082620365558
 20
300.7125501552639
 30
0.0
 10
491.2446121648456
 20
299.7440496095921
 30
0.0
 10
492.4698834422317
 20
298.7537072125765
 30
0.0
 10
493.6818353956717
 20
297.7419044400051
 30
0.0
 10
494.6047883080772
 20
296.9713736338337
 30
0.0
 10
495.52001470173
 20
296.1883977992059
 30
0.0
 10
496.4265483957471
 20
295.3931627743522
 30
0.0
 10
497.268679523501
 20
294.6544233620948
 30
0.0
 10
498.1033082442378
 20
293.9051048653859
 30
0.0
 10
498.9297011872314
 20
293.1453683006727
 30
0.0
 10
499.7383475706176
 20
292.4019468683009
 30
0.0
 10
500.5391079698024
 20
291.6485500414429
 30
0.0
 10
501.3313427674822
 20
290.885339682123
 30
0.0
 10
502.1183496796667
 20
290.1271656786655
 30
0.0
 10
502.8969429295948
 20
289.359307232963
 30
0.0
 10
503.6665455353402
 20
288.5819338296089
 30
0.0
 10
504.4477447119057
 20
287.7928467630473
 30
0.0
 10
505.2196803111298
 20
286.9939557937963
 30
0.0
 10
505.9818025496472
 20
286.1854496922668
 30
0.0
 10
506.7567323609278
 20
285.3633565305507
 30
0.0
 10
507.5215163396532
 20
284.5313223109341
 30
0.0
 10
508.2756299545006
 20
283.6895579043648
 30
0.0
 10
509.0367039309986
 20
282.8400241317739
 30
0.0
 10
509.7869097593411
 20
281.9805796979299
 30
0.0
 10
510.5257600895491
 20
281.111454438469
 30
0.0
 10
511.2701216770056
 20
280.2358461706235
 30
0.0
 10
512.0029577715031
 20
279.3504120894104
 30
0.0
 10
512.7238215643187
 20
278.4554008287446
 30
0.0
 10
513.4526310167537
 20
277.5505243828612
 30
0.0
 10
514.1692028321946
 20
276.6358584290351
 30
0.0
 10
514.8731271984236
 20
275.7116742690373
 30
0.0
 10
515.5865084026086
 20
274.7750742015049
 30
0.0
 10
516.2869001415706
 20
273.8286984163686
 30
0.0
 10
516.9739277831231
 20
272.8728446422479
 30
0.0
 10
517.6702996250151
 20
271.9039903880581
 30
0.0
 10
518.3529414684356
 20
270.9253985222125
 30
0.0
 10
519.0215147210656
 20
269.9373955268665
 30
0.0
 10
519.6993215076571
 20
268.9357474160808
 30
0.0
 10
520.3626685153087
 20
267.9244263883106
 30
0.0
 10
521.0112541126962
 20
266.9037901148015
 30
0.0
 10
521.6684765927481
 20
265.8695625500699
 30
0.0
 10
522.3105420126411
 20
264.8257699471473
 30
0.0
 10
522.9371871801061
 20
263.7728029385229
 30
0.0
 10
523.5713282922972
 20
262.7072403129445
 30
0.0
 10
524.1896781350437
 20
261.6322823929341
 30
0.0
 10
524.7920138724171
 20
260.5483538461485
 30
0.0
 10
525.4056812120937
 20
259.4440336034127
 30
0.0
 10
526.0027263235492
 20
258.3304019300052
 30
0.0
 10
526.5829637846216
 20
257.2079299637786
 30
0.0
 10
527.1832265861672
 20
256.0467188867494
 30
0.0
 10
527.7655017798311
 20
254.8760467950614
 30
0.0
 10
528.3296352679162
 20
253.696459514848
 30
0.0
 10
528.9245777247627
 20
252.4524515462072
 30
0.0
 10
529.4993430484031
 20
251.1985280281521
 30
0.0
 10
530.0538035692576
 20
249.9353559116429
 30
0.0
 10
530.6709057940961
 20
248.5294734472787
 30
0.0
 10
531.2628566863141
 20
247.1121348337063
 30
0.0
 10
531.8295384579661
 20
245.6842902193689
 30
0.0
 10
532.5475150583351
 20
243.8752342847297
 30
0.0
 10
533.2249300065731
 20
242.0493141135313
 30
0.0
 10
533.8616179572186
 20
240.2085039139461
 30
0.0
 10
534.4425520106441
 20
238.5288909579487
 30
0.0
 10
534.9895836551997
 20
236.8368835467306
 30
0.0
 10
535.5025923767712
 20
235.1339899448938
 30
0.0
 10
535.9581511555816
 20
233.6217970774482
 30
0.0
 10
536.3868823433942
 20
232.10102066549
 30
0.0
 10
536.7886690236387
 20
230.5727055586164
 30
0.0
 10
537.1456360639527
 20
229.2148752790414
 30
0.0
 10
537.4813351161986
 20
227.8510946337674
 30
0.0
 10
537.7956435899846
 20
226.4820796471557
 30
0.0
 10
538.0888513616112
 20
225.2049717514856
 30
0.0
 10
538.3634444954241
 20
223.9233088592929
 30
0.0
 10
538.6192811499357
 20
222.637654427695
 30
0.0
 10
538.8597766322702
 20
221.429093898192
 30
0.0
 10
539.0836978959401
 20
220.2170063376897
 30
0.0
 10
539.2908848675281
 20
219.0018416126852
 30
0.0
 10
539.4884354306837
 20
217.8431950341405
 30
0.0
 10
539.6707723711942
 20
216.6817510181344
 30
0.0
 10
539.8377137512111
 20
215.5178802255617
 30
0.0
 10
540.0015791930251
 20
214.3754540540429
 30
0.0
 10
540.1506113255857
 20
213.2306897334212
 30
0.0
 10
540.2845920756091
 20
212.0839170653516
 30
0.0
 10
540.4173039024611
 20
210.9480054083694
 30
0.0
 10
540.5352481821317
 20
209.810123226488
 30
0.0
 10
540.6381660370176
 20
208.6705708901053
 30
0.0
 10
540.7450936804836
 20
207.4866203883231
 30
0.0
 10
540.8358013000477
 20
206.30086684328
 30
0.0
 10
540.9099442277292
 20
205.1136257680001
 30
0.0
 10
540.9911231382337
 20
203.8137184132161
 30
0.0
 10
541.0524439185466
 20
202.5120267830297
 30
0.0
 10
541.0933928213601
 20
201.2089504175793
 30
0.0
 10
541.1381591194821
 20
199.7843968632107
 30
0.0
 10
541.1585772642092
 20
198.3581864508965
 30
0.0
 10
541.1539170288942
 20
196.9308487435202
 30
0.0
 10
541.1492978307812
 20
195.5160799173088
 30
0.0
 10
541.1200382246807
 20
194.1002018497871
 30
0.0
 10
541.0653935554872
 20
192.683764650005
 30
0.0
 10
541.0156024872322
 20
191.3931369944148
 30
0.0
 10
540.9447341572811
 20
190.1020445074529
 30
0.0
 10
540.8522192295302
 20
188.8109467985159
 30
0.0
 10
540.7671444940356
 20
187.6236811457531
 30
0.0
 10
540.6637641173496
 20
186.4364108364994
 30
0.0
 10
540.5416440901771
 20
185.249537360866
 30
0.0
 10
540.4268331266437
 20
184.1337000122825
 30
0.0
 10
540.2954581375146
 20
183.0182132597922
 30
0.0
 10
540.1471745153511
 20
181.9034542184136
 30
0.0
 10
540.0057956184521
 20
180.8406031679858
 30
0.0
 10
539.8490458085956
 20
179.7784135134787
 30
0.0
 10
539.6766465412861
 20
178.7172549007158
 30
0.0
 10
539.5108338341706
 20
177.6966381370362
 30
0.0
 10
539.3305443871492
 20
176.6769750347746
 30
0.0
 10
539.1355531444636
 20
175.6586366784022
 30
0.0
 10
538.9468706361431
 20
174.6732455769731
 30
0.0
 10
538.7444220842631
 20
173.6890947975875
 30
0.0
 10
538.5280282307397
 20
172.7065622814272
 30
0.0
 10
538.3176897166492
 20
171.7515239283069
 30
0.0
 10
538.0941752938502
 20
170.7980144591577
 30
0.0
 10
537.8573464053071
 20
169.8464222890858
 30
0.0
 10
537.6264392827492
 20
168.9186241172065
 30
0.0
 10
537.3828750850256
 20
167.9926484882202
 30
0.0
 10
537.1265525254527
 20
167.0688963604166
 30
0.0
 10
536.8759687069331
 20
166.165825885715
 30
0.0
 10
536.6131913099401
 20
165.2648803954864
 30
0.0
 10
536.3381536857081
 20
164.3664752218426
 30
0.0
 10
536.0666472124692
 20
163.4796044858272
 30
0.0
 10
535.7831931704507
 20
162.595209145443
 30
0.0
 10
535.4877568835891
 20
161.7137302974029
 30
0.0
 10
535.1858624953336
 20
160.8129827270418
 30
0.0
 10
534.8714561299266
 20
159.91528077874
 30
0.0
 10
534.5445344109957
 20
159.0211391246166
 30
0.0
 10
534.2081715001576
 20
158.1011755000965
 30
0.0
 10
533.8585597592502
 20
157.184981160837
 30
0.0
 10
533.4957331960286
 20
156.2731576406307
 30
0.0
 10
533.1222613260746
 20
155.3345812802442
 30
0.0
 10
532.7347876141371
 20
154.4006364789679
 30
0.0
 10
532.3333914326366
 20
153.472015257181
 30
0.0
 10
531.9211743756626
 20
152.5183601784069
 30
0.0
 10
531.4942738791742
 20
151.5703202419118
 30
0.0
 10
531.0528229821546
 20
150.628673316704
 30
0.0
 10
530.6033116843927
 20
149.6698329694754
 30
0.0
 10
530.1387136356516
 20
148.7176220487109
 30
0.0
 10
529.6592201084457
 20
147.7728793034106
 30
0.0
 10
529.1777522198256
 20
146.8242464876178
 30
0.0
 10
528.6812659043467
 20
145.883144366378
 30
0.0
 10
528.1700067844911
 20
144.9504264303878
 30
0.0
 10
527.6643544310512
 20
144.0279372245949
 30
0.0
 10
527.1442516147802
 20
143.1136501538233
 30
0.0
 10
526.6099859283931
 20
142.2083823717257
 30
0.0
 10
526.0880494207087
 20
141.3240053347065
 30
0.0
 10
525.5525963581391
 20
140.448236813514
 30
0.0
 10
525.0039405220837
 20
139.5818193185796
 30
0.0
 10
524.4724927799812
 20
138.742576224564
 30
0.0
 10
523.9286576665806
 20
137.9121073532324
 30
0.0
 10
523.3727607647277
 20
137.0910600072982
 30
0.0
 10
522.8346756341241
 20
136.296320250888
 30
0.0
 10
522.2852894711096
 20
135.5104083627707
 30
0.0
 10
521.7249332340407
 20
134.7338780368554
 30
0.0
 10
521.1796843603481
 20
133.9782831891775
 30
0.0
 10
520.6240491013241
 20
133.2315711911161
 30
0.0
 10
520.0583643800742
 20
132.4942144605057
 30
0.0
 10
519.5051654663307
 20
131.773132686344
 30
0.0
 10
518.9423559545281
 20
131.0609979936043
 30
0.0
 10
518.3702798819356
 20
130.358211688239
 30
0.0
 10
517.8101879239797
 20
129.6701476760313
 30
0.0
 10
517.2412136970136
 20
128.9910446821011
 30
0.0
 10
516.6637062704806
 20
128.321236883008
 30
0.0
 10
516.1018236451166
 20
127.6695511256421
 30
0.0
 10
515.5318634119907
 20
127.0266645736184
 30
0.0
 10
514.9541704424646
 20
126.3928419561876
 30
0.0
 10
514.3929396012742
 20
125.7770809559493
 30
0.0
 10
513.8244105122017
 20
125.1698748653413
 30
0.0
 10
513.2489207512317
 20
124.5714222960507
 30
0.0
 10
512.6878036839606
 20
123.9879159100898
 30
0.0
 10
512.1200693294886
 20
123.4127314367525
 30
0.0
 10
511.5460504650042
 20
122.8460077973913
 30
0.0
 10
510.9735032385321
 20
122.2807370929459
 30
0.0
 10
510.3947037284731
 20
121.7238840539513
 30
0.0
 10
509.8100018809006
 20
121.1755378246206
 30
0.0
 10
509.2153908512212
 20
120.6178985467604
 30
0.0
 10
508.6146758858921
 20
120.069056816879
 30
0.0
 10
508.0082436743764
 20
119.5290556006626
 30
0.0
 10
507.3908057122558
 20
118.9792542475162
 30
0.0
 10
506.7674412810946
 20
118.4386171545191
 30
0.0
 10
506.1385751317067
 20
117.9071381253427
 30
0.0
 10
505.4901894311739
 20
117.3591623709046
 30
0.0
 10
504.8359553969444
 20
116.8209219854411
 30
0.0
 10
504.1763531910887
 20
116.2923560415476
 30
0.0
 10
503.475880503394
 20
115.7310389263889
 30
0.0
 10
502.7693542744439
 20
115.1806320167144
 30
0.0
 10
502.0573601623679
 20
114.6410046057698
 30
0.0
 10
501.2544728827556
 20
114.0324883601602
 30
0.0
 10
500.4446335153826
 20
113.437679397706
 30
0.0
 10
499.6286833591042
 20
112.8563211514142
 30
0.0
 10
498.7680926516015
 20
112.2431568537678
 30
0.0
 10
497.9007056954753
 20
111.6449540072504
 30
0.0
 10
497.0274909772651
 20
111.0613521947466
 30
0.0
 10
496.175210940826
 20
110.4917418072284
 30
0.0
 10
495.3173802627545
 20
109.936039044582
 30
0.0
 10
494.4548640348967
 20
109.3938768452176
 30
0.0
 10
493.656271681283
 20
108.8918960443385
 30
0.0
 10
492.8536629170775
 20
108.4015218452342
 30
0.0
 10
492.047684763261
 20
107.9224559407904
 30
0.0
 10
491.2591963492081
 20
107.4537857746902
 30
0.0
 10
490.4674838554913
 20
106.995937356471
 30
0.0
 10
489.6731058519842
 20
106.5486411613967
 30
0.0
 10
488.9443464502442
 20
106.1382933092618
 30
0.0
 10
488.2133436670653
 20
105.7368258477896
 30
0.0
 10
487.4804852881416
 20
105.3440497970267
 30
0.0
 10
486.7829410207158
 20
104.9702003733571
 30
0.0
 10
486.0837157532486
 20
104.6042245477949
 30
0.0
 10
485.3831021419327
 20
104.2459837971596
 30
0.0
 10
484.7058736971296
 20
103.8997004499632
 30
0.0
 10
484.0273480856458
 20
103.5606441955476
 30
0.0
 10
483.3477488470396
 20
103.2287175232748
 30
0.0
 10
482.6877464054726
 20
102.9063622266871
 30
0.0
 10
482.0267314031126
 20
102.5907310746778
 30
0.0
 10
481.3648688283099
 20
102.2817643160757
 30
0.0
 10
480.7214780822558
 20
101.9814204669284
 30
0.0
 10
480.0772864440887
 20
101.6873740560568
 30
0.0
 10
479.4324068509168
 20
101.3996010070071
 30
0.0
 10
478.8099460000277
 20
101.1218321663254
 30
0.0
 10
478.186844272411
 20
100.8499079041453
 30
0.0
 10
477.5631659687147
 20
100.5838381491679
 30
0.0
 10
476.958433916002
 20
100.3258511258279
 30
0.0
 10
476.353159855605
 20
100.0733681571419
 30
0.0
 10
475.7473656305916
 20
99.82643103621221
 30
0.0
 10
475.157464120936
 20
99.58597218993812
 30
0.0
 10
474.5670694453896
 20
99.350771889783
 30
0.0
 10
473.9761653598695
 20
99.12090237291602
 30
0.0
 10
473.3861244877004
 20
98.89136865747732
 30
0.0
 10
472.7955757220208
 20
98.66715007950093
 30
0.0
 10
472.2044646292017
 20
98.44835491955932
 30
0.0
 10
471.6030250195763
 20
98.22573673969171
 30
0.0
 10
471.0010031680141
 20
98.00873320256842
 30
0.0
 10
470.3983030258116
 20
97.79749587955493
 30
0.0
 10
469.7840883228782
 20
97.58222287641732
 30
0.0
 10
469.169169061873
 20
97.37293856323132
 30
0.0
 10
468.5534051976795
 20
97.16984134806013
 30
0.0
 10
467.9235249410165
 20
96.96208812729031
 30
0.0
 10
467.292760803221
 20
96.76080897592452
 30
0.0
 10
466.6609246669893
 20
96.56625502810132
 30
0.0
 10
465.9658335715873
 20
96.35222371689092
 30
0.0
 10
465.2694450374959
 20
96.14633149814352
 30
0.0
 10
464.5714627488949
 20
95.94896082051052
 30
0.0
 10
463.7946127175574
 20
95.72928845975231
 30
0.0
 10
463.0157878968548
 20
95.52017246387352
 30
0.0
 10
462.2345299077642
 20
95.32219577257771
 30
0.0
 10
461.3363529067772
 20
95.09459091818131
 30
0.0
 10
460.4349583792806
 20
94.88170992118852
 30
0.0
 10
459.5296035470107
 20
94.68449945471492
 30
0.0
 10
458.4047118775013
 20
94.43946800078132
 30
0.0
 10
457.2737009170123
 20
94.21863149308251
 30
0.0
 10
456.1351366557834
 20
94.02386099255051
 30
0.0
 10
455.3108036501949
 20
93.88284501517332
 30
0.0
 10
454.482510536062
 20
93.75549434195052
 30
0.0
 10
453.6497423876103
 20
93.64251096885312
 30
0.0
 10
452.9120713991624
 20
93.54242962368353
 30
0.0
 10
452.1708886865463
 20
93.45362214381392
 30
0.0
 10
451.425869108388
 20
93.37655766536493
 30
0.0
 10
450.7350276736848
 20
93.30509734886152
 30
0.0
 10
450.0408868435047
 20
93.24373455204052
 30
0.0
 10
449.3432219393158
 20
93.19282031250312
 30
0.0
 10
448.6821505119975
 20
93.14457659435152
 30
0.0
 10
448.0179147915591
 20
93.10571432882952
 30
0.0
 10
447.3503593121382
 20
93.07650677343092
 30
0.0
 10
446.7086429731715
 20
93.04842975796372
 30
0.0
 10
446.0638587226208
 20
93.02927468989652
 30
0.0
 10
445.4159051749385
 20
93.01925717535292
 30
0.0
 10
444.787983727712
 20
93.00954936180291
 30
0.0
 10
444.1570857964894
 20
93.0084229725211
 30
0.0
 10
443.5231563887986
 20
93.01604601438093
 30
0.0
 10
442.8992760410562
 20
93.02354821564893
 30
0.0
 10
442.2724593819734
 20
93.03952482553531
 30
0.0
 10
441.6426930310045
 20
93.06410592979691
 30
0.0
 10
441.0227667792703
 20
93.08830295430411
 30
0.0
 10
440.3999821348572
 20
93.12083783222891
 30
0.0
 10
439.7743669760223
 20
93.16180293690351
 30
0.0
 10
439.1585270540447
 20
93.20212796181771
 30
0.0
 10
438.5399442192427
 20
93.25062197430952
 30
0.0
 10
437.9186870188553
 20
93.30734000472353
 30
0.0
 10
437.307136962224
 20
93.36317181591232
 30
0.0
 10
436.6929952825174
 20
93.4269728097971
 30
0.0
 10
436.0763709510069
 20
93.49876084129451
 30
0.0
 10
435.4693813746765
 20
93.56942718480012
 30
0.0
 10
434.8599859707751
 20
93.64783305606811
 30
0.0
 10
434.248333681685
 20
93.73395951028871
 30
0.0
 10
433.6462384596118
 20
93.81874023866231
 30
0.0
 10
433.041956199751
 20
93.91100228171972
 30
0.0
 10
432.435674988916
 20
94.01069059663091
 30
0.0
 10
431.8388669220002
 20
94.10882128162152
 30
0.0
 10
431.2401218938151
 20
94.21414798937572
 30
0.0
 10
430.6396655351506
 20
94.32658089553732
 30
0.0
 10
430.04195482099
 20
94.43849969141192
 30
0.0
 10
429.4425486544836
 20
94.55745967254751
 30
0.0
 10
428.84171313861
 20
94.68333661439672
 30
0.0
 10
428.228809536066
 20
94.81174185859152
 30
0.0
 10
427.6144186944566
 20
94.94734467544072
 30
0.0
 10
426.9988659487161
 20
95.08997746698071
 30
0.0
 10
426.3694999024045
 20
95.23581100717212
 30
0.0
 10
425.7389193373181
 20
95.38899353229513
 30
0.0
 10
425.1075146726051
 20
95.54930952382772
 30
0.0
 10
424.4575618968148
 20
95.71433494971312
 30
0.0
 10
423.8067360128049
 20
95.88691907336552
 30
0.0
 10
423.1555058832593
 20
96.06678914540251
 30
0.0
 10
422.4787599607388
 20
96.2537066916153
 30
0.0
 10
421.8015777097299
 20
96.44849223782492
 30
0.0
 10
421.1245285506359
 20
96.65080032683333
 30
0.0
 10
420.4146768404802
 20
96.86291009911793
 30
0.0
 10
419.7049717127902
 20
97.08328891036511
 30
0.0
 10
418.9961122799684
 20
97.31149731060161
 30
0.0
 10
418.2428883890718
 20
97.55398829146843
 30
0.0
 10
417.4906197624099
 20
97.80531946823842
 30
0.0
 10
416.7401871999161
 20
98.06491936337552
 30
0.0
 10
415.9292702914397
 20
98.34544283067501
 30
0.0
 10
415.1204979676447
 20
98.6356215070502
 30
0.0
 10
414.3150211218392
 20
98.93468590258571
 30
0.0
 10
413.4178101672875
 20
99.26781012979141
 30
0.0
 10
412.524689209166
 20
99.61195911135522
 30
0.0
 10
411.6372823127251
 20
99.96601331258401
 30
0.0
 10
410.6427158270469
 20
100.3628216358773
 30
0.0
 10
409.6553296095057
 20
100.7720709231246
 30
0.0
 10
408.6774174496578
 20
101.1921265715902
 30
0.0
 10
407.7459369918043
 20
101.592237792027
 30
0.0
 10
406.8230551704257
 20
102.0021512711078
 30
0.0
 10
405.9107172208049
 20
102.4204308160497
 30
0.0
 10
405.1491890663332
 20
102.7695685999655
 30
0.0
 10
404.3950073205306
 20
103.1245342385947
 30
0.0
 10
403.6492603633877
 20
103.4844956331906
 30
0.0
 10
402.9639225300144
 20
103.8152984073858
 30
0.0
 10
402.2857086089867
 20
104.1503199187074
 30
0.0
 10
401.6154198104078
 20
104.4889258945471
 30
0.0
 10
400.9804699922684
 20
104.8096798788537
 30
0.0
 10
400.3526318751438
 20
105.1336500675588
 30
0.0
 10
399.7325419823339
 20
105.4603130273802
 30
0.0
 10
399.1368026593915
 20
105.7741481225348
 30
0.0
 10
398.5482151212443
 20
106.0904684739201
 30
0.0
 10
397.9672991256387
 20
106.4088278884946
 30
0.0
 10
397.405474957895
 20
106.7167244079392
 30
0.0
 10
396.8508264941423
 20
107.0265280220052
 30
0.0
 10
396.3037792479054
 20
107.3378545749815
 30
0.0
 10
395.7724884311792
 20
107.6402140873221
 30
0.0
 10
395.2483673726309
 20
107.9440099564536
 30
0.0
 10
394.7317613216379
 20
108.2489108323764
 30
0.0
 10
394.2318987905286
 20
108.5439296833621
 30
0.0
 10
393.7390721512397
 20
108.8399829566529
 30
0.0
 10
393.2535504219308
 20
109.1367915775482
 30
0.0
 10
392.7825532802244
 20
109.4247210431862
 30
0.0
 10
392.3184306502432
 20
109.713361231236
 30
0.0
 10
391.8613843522022
 20
110.002479256305
 30
0.0
 10
391.4162171868562
 20
110.2840827879867
 30
0.0
 10
390.9777633988733
 20
110.5661395485528
 30
0.0
 10
390.546165607488
 20
110.8484568867287
 30
0.0
 10
390.1244802384885
 20
111.1242902976031
 30
0.0
 10
389.7093396584434
 20
111.4003723743405
 30
0.0
 10
389.3008329334498
 20
111.6765465040778
 30
0.0
 10
388.8963288362633
 20
111.9500146263404
 30
0.0
 10
388.4983293316093
 20
112.2235729297208
 30
0.0
 10
388.1068754366401
 20
112.4970936186309
 30
0.0
 10
387.7134650893772
 20
112.7719813399966
 30
0.0
 10
387.3266659111895
 20
113.046831069294
 30
0.0
 10
386.946473174824
 20
113.3215381291475
 30
0.0
 10
386.564265434864
 20
113.5977011234787
 30
0.0
 10
386.1887343164004
 20
113.8737199310515
 30
0.0
 10
385.8198287802371
 20
114.1495134607286
 30
0.0
 10
385.4489172660639
 20
114.4268066582111
 30
0.0
 10
385.0847035505974
 20
114.7038721199499
 30
0.0
 10
384.727089653621
 20
114.9806529101072
 30
0.0
 10
384.3672556494127
 20
115.2591519864918
 30
0.0
 10
384.0141036312281
 20
115.5373628419568
 30
0.0
 10
383.6674877208347
 20
115.8152532507754
 30
0.0
 10
383.3130682250542
 20
116.0993999838665
 30
0.0
 10
382.9654823339644
 20
116.3832117193141
 30
0.0
 10
382.6245266016448
 20
116.6666809456792
 30
0.0
 10
382.2611878589479
 20
116.9687593169682
 30
0.0
 10
381.9053784347707
 20
117.2704486482424
 30
0.0
 10
381.5567989129468
 20
117.5717705889723
 30
0.0
 10
381.1982997097481
 20
117.8816673812242
 30
0.0
 10
380.8474474215797
 20
118.1911757128757
 30
0.0
 10
380.5038642444272
 20
118.500349974889
 30
0.0
 10
380.143189696431
 20
118.8249039537184
 30
0.0
 10
379.7905251468479
 20
119.1490898943359
 30
0.0
 10
379.4453816039551
 20
119.4730025703981
 30
0.0
 10
379.0822836381037
 20
119.8137652362902
 30
0.0
 10
378.7275091761276
 20
120.1542255633536
 30
0.0
 10
378.3804381912582
 20
120.4945266057102
 30
0.0
 10
378.0111342819827
 20
120.8566268985946
 30
0.0
 10
377.6505520163873
 20
121.2185469205663
 30
0.0
 10
377.2978938609778
 20
121.5804940410641
 30
0.0
 10
376.9128930662598
 20
121.9756357013379
 30
0.0
 10
376.5373358473931
 20
122.3708097417907
 30
0.0
 10
376.1701339394279
 20
122.7663254991721
 30
0.0
 10
375.730661648859
 20
123.2396841938906
 30
0.0
 10
375.3031555754444
 20
123.7135322805241
 30
0.0
 10
374.8856963159758
 20
124.1884561827758
 30
0.0
 10
374.4949304462691
 20
124.6330122621981
 30
0.0
 10
374.1129639307472
 20
125.078513042343
 30
0.0
 10
373.7382252444793
 20
125.5254645862551
 30
0.0
 10
373.3869077261031
 20
125.9444816586728
 30
0.0
 10
373.041940567122
 20
126.3647751049588
 30
0.0
 10
372.702071469316
 20
126.7867619435743
 30
0.0
 10
372.4086049824605
 20
127.151134567703
 30
0.0
 10
372.1189394129755
 20
127.5167701075633
 30
0.0
 10
371.8323141144223
 20
127.8839270922936
 30
0.0
 10
371.560512943879
 20
128.2320948874137
 30
0.0
 10
371.291445469115
 20
128.5816310162391
 30
0.0
 10
371.0245092284103
 20
128.9327429068013
 30
0.0
 10
370.768522001221
 20
129.2694531229224
 30
0.0
 10
370.5144945767717
 20
129.6076126304094
 30
0.0
 10
370.26194218043
 20
129.9473896381825
 30
0.0
 10
370.010015225807
 20
130.2863251939685
 30
0.0
 10
369.759555550118
 20
130.6268704726488
 30
0.0
 10
369.5101343989841
 20
130.9691746076993
 30
0.0
 10
369.2640070621675
 20
131.3069583311659
 30
0.0
 10
369.0188912679304
 20
131.6464546776973
 30
0.0
 10
368.774428283306
 20
131.9877881909577
 30
0.0
 10
368.5243281321392
 20
132.3369926457581
 30
0.0
 10
368.2749113734209
 20
132.6881199196843
 30
0.0
 10
368.0258468682681
 20
133.0412847529629
 30
0.0
 10
367.770299988346
 20
133.4036413689213
 30
0.0
 10
367.5151240837477
 20
133.7681429269847
 30
0.0
 10
367.2600145448341
 20
134.134894835409
 30
0.0
 10
366.9981701276199
 20
134.5113289747695
 30
0.0
 10
366.7363958145787
 20
134.8901337755989
 30
0.0
 10
366.4744148004129
 20
135.2714050103046
 30
0.0
 10
366.2068575049192
 20
135.6607916257137
 30
0.0
 10
365.9390847412692
 20
136.0527507477567
 30
0.0
 10
365.6708532547005
 20
136.4473665882024
 30
0.0
 10
365.3964551898482
 20
136.8510545532641
 30
0.0
 10
365.1215772059221
 20
137.2575227516667
 30
0.0
 10
364.8460103516509
 20
137.6668435261759
 30
0.0
 10
364.5587501461437
 20
138.0935333402138
 30
0.0
 10
364.2707413953178
 20
138.5233229535666
 30
0.0
 10
363.9818016443529
 20
138.9562754726991
 30
0.0
 10
363.6822422048081
 20
139.4051407241841
 30
0.0
 10
363.3816822923627
 20
139.8574055766304
 30
0.0
 10
363.0799739144759
 20
140.3131210697775
 30
0.0
 10
363.051059045934
 20
140.3567955400363
 30
0.0
 10
363.0221336317328
 20
140.4005017026077
 30
0.0
 10
362.993197584023
 20
140.4442395876675
 30
0.0
  0
ENDSEC
  0
SECTION
  2
OBJECTS
  0
DICTIONARY
  5
C
330
0
100
AcDbDictionary
  3
ACAD_GROUP
350
D
  3
ACAD_LAYOUT
350
1A
  3
ACAD_MATERIAL
350
43
  3
ACAD_MLEADERSTYLE
350
135
  3
ACAD_MLINESTYLE
350
17
  3
ACAD_PLOTSETTINGS
350
19
  3
ACAD_SCALELIST
350
47
  3
ACAD_VISUALSTYLE
350
2A
  3
ACDBHEADERROUNDTRIPXREC
350
114
  3
ACDBVARIABLEDICTIONARY
350
6C
  3
ONSHAPE_DATA
350
CD
  0
DICTIONARY
  5
73
330
72
100
AcDbDictionary
280
     1
  3
ONSHAPE_VIEW_ID
360
74
  0
DICTIONARY
  5
D
102
{ACAD_REACTORS
330
C
102
}
330
C
100
AcDbDictionary
  0
DICTIONARY
  5
1A
102
{ACAD_REACTORS
330
C
102
}
330
C
100
AcDbDictionary
  0
DICTIONARY
  5
43
102
{ACAD_REACTORS
330
C
102
}
330
C
100
AcDbDictionary
  3
BYBLOCK
350
45
  3
BYLAYER
350
44
  3
GLOBAL
350
46
  0
DICTIONARY
  5
135
102
{ACAD_REACTORS
330
C
102
}
330
C
100
AcDbDictionary
  0
DICTIONARY
  5
17
102
{ACAD_REACTORS
330
C
102
}
330
C
100
AcDbDictionary
  3
STANDARD
350
18
  0
DICTIONARY
  5
19
102
{ACAD_REACTORS
330
C
102
}
330
C
100
AcDbDictionary
  0
DICTIONARY
  5
47
102
{ACAD_REACTORS
330
C
102
}
330
C
100
AcDbDictionary
  3
A0
350
48
  3
A1
350
49
  3
A2
350
4A
  3
A3
350
4B
  3
A4
350
4C
  3
A5
350
4D
  3
A6
350
4E
  3
A7
350
4F
  3
A8
350
50
  3
A9
350
51
  3
B0
350
52
  3
B1
350
53
  3
B2
350
54
  3
B3
350
55
  3
B4
350
56
  3
B5
350
57
  3
B6
350
58
  3
B7
350
59
  3
B8
350
5A
  3
B9
350
5B
  3
C0
350
5C
  3
C1
350
5D
  3
C2
350
5E
  3
C3
350
5F
  3
C4
350
60
  3
C5
350
61
  3
C6
350
62
  3
C7
350
63
  3
C8
350
64
  3
C9
350
65
  3
D0
350
66
  3
D1
350
67
  3
D2
350
68
  0
DICTIONARY
  5
2A
102
{ACAD_REACTORS
330
C
102
}
330
C
100
AcDbDictionary
  3
2DWIREFRAME
350
2F
  3
BASIC
350
32
  3
BRIGHTEN
350
36
  3
COLORCHANGE
350
3A
  3
CONCEPTUAL
350
34
  3
DIM
350
35
  3
EDGECOLOROFF
350
3D
  3
FACEPATTERN
350
39
  3
FLAT
350
2B
  3
FLATWITHEDGES
350
2C
  3
GOURAUD
350
2D
  3
GOURAUDWITHEDGES
350
2E
  3
HIDDEN
350
31
  3
JITTEROFF
350
3B
  3
LINEPATTERN
350
38
  3
OVERHANGOFF
350
3C
  3
REALISTIC
350
33
  3
SHADED
350
42
  3
SHADED_WITH_EDGES
350
41
  3
SHADES_OF_GRAY
350
3E
  3
SKETCHY
350
3F
  3
THICKEN
350
37
  3
WIREFRAME
350
30
  3
X-RAY
350
40
  0
DICTIONARY
  5
114
102
{ACAD_REACTORS
330
C
102
}
330
C
100
AcDbDictionary
  3
CEPSNTYPE
350
11D
  3
DIMSTYLEDATA
350
133
  3
FINGERPRINTGUID
350
11E
  3
HYPERLINKBASE
350
117
  3
INSUNITS
350
11C
  3
LAYOUTDICT
350
119
  3
LWETCUNION
350
11B
  3
PLOTSETDICT
350
11A
  3
PSVPSCALE
350
120
  3
PUCSBASE
350
123
  3
PUCSORGBACK
350
129
  3
PUCSORGBOTTOM
350
125
  3
PUCSORGFRONT
350
128
  3
PUCSORGLEFT
350
126
  3
PUCSORGRIGHT
350
127
  3
PUCSORGTOP
350
124
  3
PUCSORTHOREF
350
121
  3
PUCSORTHOVIEW
350
122
  3
STYLESHEET
350
118
  3
TSTACKALIGN
350
115
  3
TSTACKSIZE
350
116
  3
UCSBASE
350
12C
  3
UCSORGBACK
350
132
  3
UCSORGBOTTOM
350
12E
  3
UCSORGFRONT
350
131
  3
UCSORGLEFT
350
12F
  3
UCSORGRIGHT
350
130
  3
UCSORGTOP
350
12D
  3
UCSORTHOREF
350
12A
  3
UCSORTHOVIEW
350
12B
  3
VERSIONGUID
350
11F
  0
DICTIONARY
  5
6C
102
{ACAD_REACTORS
330
C
102
}
330
C
100
AcDbDictionary
  3
CANNOSCALE
350
13C
  3
CTABLESTYLE
350
134
  3
DIMASSOC
350
13A
  3
HIDETEXT
350
13B
  3
MSLTSCALE
350
13D
  3
OLEFRAME
350
6D
  3
PSOLHEIGHT
350
137
  3
PSOLWIDTH
350
136
  0
DICTIONARY
  5
CD
102
{ACAD_REACTORS
330
C
102
}
330
C
100
AcDbDictionary
280
     1
  3
DIM_UNITS
360
CE
  3
ONSHAPE_ANG_TOL_PRECISION
360
D1
  3
ONSHAPE_VSHARP_EXTENSION
360
D0
  3
ONSHAPE_WELD_STANDARD
360
CF
  0
XRECORD
  5
74
102
{ACAD_REACTORS
330
73
102
}
330
73
100
AcDbXrecord
330
0
  0
MATERIAL
  5
45
102
{ACAD_REACTORS
330
43
102
}
102
{ACAD_XDICTIONARY
360
140
102
}
330
43
100
AcDbMaterial
  1
BYBLOCK
  0
MATERIAL
  5
44
102
{ACAD_REACTORS
330
43
102
}
102
{ACAD_XDICTIONARY
360
13E
102
}
330
43
100
AcDbMaterial
  1
BYLAYER
  0
MATERIAL
  5
46
102
{ACAD_REACTORS
330
43
102
}
102
{ACAD_XDICTIONARY
360
142
102
}
330
43
100
AcDbMaterial
  1
GLOBAL
  0
MLINESTYLE
  5
18
102
{ACAD_REACTORS
330
17
102
}
330
17
100
AcDbMlineStyle
  2
Standard
 70
     0
  3

 62
   256
 51
90.0
 52
90.0
 71
     2
 49
0.5
 62
   256
  6
BYLAYER
 49
-0.5
 62
   256
  6
BYLAYER
  0
ACAD_PROXY_OBJECT
  5
48
102
{ACAD_REACTORS
330
47
102
}
330
47
100
AcDbProxyObject
 90
      499
 91
      503
 93
       41
310
903313A31580
  0
ACAD_PROXY_OBJECT
  5
49
102
{ACAD_REACTORS
330
47
102
}
330
47
100
AcDbProxyObject
 90
      499
 91
      503
 93
      105
310
903313A324000000000000004000
  0
ACAD_PROXY_OBJECT
  5
4A
102
{ACAD_REACTORS
330
47
102
}
330
47
100
AcDbProxyObject
 90
      499
 91
      503
 93
      105
310
903313A344000000000000104000
  0
ACAD_PROXY_OBJECT
  5
4B
102
{ACAD_REACTORS
330
47
102
}
330
47
100
AcDbProxyObject
 90
      499
 91
      503
 93
      105
310
903313A354000000000000144000
  0
ACAD_PROXY_OBJECT
  5
4C
102
{ACAD_REACTORS
330
47
102
}
330
47
100
AcDbProxyObject
 90
      499
 91
      503
 93
      105
310
903313A384000000000000204000
  0
ACAD_PROXY_OBJECT
  5
4D
102
{ACAD_REACTORS
330
47
102
}
330
47
100
AcDbProxyObject
 90
      499
 91
      503
 93
      113
310
904313A31304000000000000244000
  0
ACAD_PROXY_OBJECT
  5
4E
102
{ACAD_REACTORS
330
47
102
}
330
47
100
AcDbProxyObject
 90
      499
 91
      503
 93
      113
310
904313A31364000000000000304000
  0
ACAD_PROXY_OBJECT
  5
4F
102
{ACAD_REACTORS
330
47
102
}
330
47
100
AcDbProxyObject
 90
      499
 91
      503
 93
      113
310
904313A32304000000000000344000
  0
ACAD_PROXY_OBJECT
  5
50
102
{ACAD_REACTORS
330
47
102
}
330
47
100
AcDbProxyObject
 90
      499
 91
      503
 93
      113
310
904313A333040000000000003E4000
  0
ACAD_PROXY_OBJECT
  5
51
102
{ACAD_REACTORS
330
47
102
}
330
47
100
AcDbProxyObject
 90
      499
 91
      503
 93
      113
310
904313A34304000000000000444000
  0
ACAD_PROXY_OBJECT
  5
52
102
{ACAD_REACTORS
330
47
102
}
330
47
100
AcDbProxyObject
 90
      499
 91
      503
 93
      113
310
904313A35304000000000000494000
  0
ACAD_PROXY_OBJECT
  5
53
102
{ACAD_REACTORS
330
47
102
}
330
47
100
AcDbProxyObject
 90
      499
 91
      503
 93
      121
310
905313A3130304000000000000594000
  0
ACAD_PROXY_OBJECT
  5
54
102
{ACAD_REACTORS
330
47
102
}
330
47
100
AcDbProxyObject
 90
      499
 91
      503
 93
      105
310
903323A310000000000000010100
  0
ACAD_PROXY_OBJECT
  5
55
102
{ACAD_REACTORS
330
47
102
}
330
47
100
AcDbProxyObject
 90
      499
 91
      503
 93
      105
310
903343A310000000000000410100
  0
ACAD_PROXY_OBJECT
  5
56
102
{ACAD_REACTORS
330
47
102
}
330
47
100
AcDbProxyObject
 90
      499
 91
      503
 93
      105
310
903383A310000000000000810100
  0
ACAD_PROXY_OBJECT
  5
57
102
{ACAD_REACTORS
330
47
102
}
330
47
100
AcDbProxyObject
 90
      499
 91
      503
 93
      113
310
90431303A310000000000000910100
  0
ACAD_PROXY_OBJECT
  5
58
102
{ACAD_REACTORS
330
47
102
}
330
47
100
AcDbProxyObject
 90
      499
 91
      503
 93
      121
310
9053130303A310000000000001650100
  0
ACAD_PROXY_OBJECT
  5
59
102
{ACAD_REACTORS
330
47
102
}
330
47
100
AcDbProxyObject
 90
      499
 91
      503
 93
      257
310
90E312F31323822203D2031272D3022000000000000200FC000000000000284000
  0
ACAD_PROXY_OBJECT
  5
5A
102
{ACAD_REACTORS
330
47
102
}
330
47
100
AcDbProxyObject
 90
      499
 91
      503
 93
      249
310
90D312F363422203D2031272D3022000000000000240FC000000000000284000
  0
ACAD_PROXY_OBJECT
  5
5B
102
{ACAD_REACTORS
330
47
102
}
330
47
100
AcDbProxyObject
 90
      499
 91
      503
 93
      249
310
90D312F333222203D2031272D3022000000000000280FC000000000000284000
  0
ACAD_PROXY_OBJECT
  5
5C
102
{ACAD_REACTORS
330
47
102
}
330
47
100
AcDbProxyObject
 90
      499
 91
      503
 93
      249
310
90D312F313622203D2031272D30220000000000002C0FC000000000000284000
  0
ACAD_PROXY_OBJECT
  5
5D
102
{ACAD_REACTORS
330
47
102
}
330
47
100
AcDbProxyObject
 90
      499
 91
      503
 93
      249
310
90D332F333222203D2031272D30220000000000002E0FC000000000000284000
  0
ACAD_PROXY_OBJECT
  5
5E
102
{ACAD_REACTORS
330
47
102
}
330
47
100
AcDbProxyObject
 90
      499
 91
      503
 93
      241
310
90C312F3822203D2031272D3022000000000000300FC000000000000284000
  0
ACAD_PROXY_OBJECT
  5
5F
102
{ACAD_REACTORS
330
47
102
}
330
47
100
AcDbProxyObject
 90
      499
 91
      503
 93
      249
310
90D332F313622203D2031272D3022000000000000320FC000000000000284000
  0
ACAD_PROXY_OBJECT
  5
60
102
{ACAD_REACTORS
330
47
102
}
330
47
100
AcDbProxyObject
 90
      499
 91
      503
 93
      241
310
90C312F3422203D2031272D3022000000000000340FC000000000000284000
  0
ACAD_PROXY_OBJECT
  5
61
102
{ACAD_REACTORS
330
47
102
}
330
47
100
AcDbProxyObject
 90
      499
 91
      503
 93
      241
310
90C332F3822203D2031272D3022000000000000360FC000000000000284000
  0
ACAD_PROXY_OBJECT
  5
62
102
{ACAD_REACTORS
330
47
102
}
330
47
100
AcDbProxyObject
 90
      499
 91
      503
 93
      241
310
90C312F3222203D2031272D3022000000000000380FC000000000000284000
  0
ACAD_PROXY_OBJECT
  5
63
102
{ACAD_REACTORS
330
47
102
}
330
47
100
AcDbProxyObject
 90
      499
 91
      503
 93
      241
310
90C332F3422203D2031272D30220000000000003A0FC000000000000284000
  0
ACAD_PROXY_OBJECT
  5
64
102
{ACAD_REACTORS
330
47
102
}
330
47
100
AcDbProxyObject
 90
      499
 91
      503
 93
      161
310
90A3122203D2031272D30224000000000000284000
  0
ACAD_PROXY_OBJECT
  5
65
102
{ACAD_REACTORS
330
47
102
}
330
47
100
AcDbProxyObject
 90
      499
 91
      503
 93
      257
310
90E312D312F3222203D2031272D30220000000000003E0FC000000000000284000
  0
ACAD_PROXY_OBJECT
  5
66
102
{ACAD_REACTORS
330
47
102
}
330
47
100
AcDbProxyObject
 90
      499
 91
      503
 93
      225
310
90A3322203D2031272D302200000000000002100000000000000284000
  0
ACAD_PROXY_OBJECT
  5
67
102
{ACAD_REACTORS
330
47
102
}
330
47
100
AcDbProxyObject
 90
      499
 91
      503
 93
      225
310
90A3622203D2031272D302200000000000006100000000000000284000
  0
ACAD_PROXY_OBJECT
  5
68
102
{ACAD_REACTORS
330
47
102
}
330
47
100
AcDbProxyObject
 90
      499
 91
      503
 93
      249
310
90D31272D3022203D2031272D30220000000000000A100000000000000284000
  0
ACAD_PROXY_OBJECT
  5
2F
102
{ACAD_REACTORS
330
2A
102
}
330
2A
100
AcDbProxyObject
 90
      499
 91
      501
 93
      436
310
42CC9915DA5C99599C985B595049028333333333333E33F0000000000000F90107901411070040501600405405064090741402480A0340
1001
ACAD
1000
AcDbSavedByObjectVersion
1070
     0
  0
ACAD_PROXY_OBJECT
  5
32
102
{ACAD_REACTORS
330
2A
102
}
330
2A
100
AcDbProxyObject
 90
      499
 91
      501
 93
      388
310
4150985CDA58D07406404333333333333E33F0000000000000F90107A41107004050150841D405064090741402480A0350
1001
ACAD
1000
AcDbSavedByObjectVersion
1070
     0
  0
ACAD_PROXY_OBJECT
  5
36
102
{ACAD_REACTORS
330
2A
102
}
330
2A
100
AcDbProxyObject
 90
      499
 91
      501
 93
      428
310
42109C9A59DA1D195B90C409028333333333333E33F0000000000000F9010790141107004050150841D405064090741402480A029950
1001
ACAD
1000
AcDbSavedByObjectVersion
1070
     0
  0
ACAD_PROXY_OBJECT
  5
3A
102
{ACAD_REACTORS
330
2A
102
}
330
2A
100
AcDbProxyObject
 90
      499
 91
      501
 93
      452
310
42D0DBDB1BDC90DA185B99D95104090240C333333333333E33F0000000000000F90108901411070040501508421405064090741402480A0350
1001
ACAD
1000
AcDbSavedByObjectVersion
1070
     0
  0
ACAD_PROXY_OBJECT
  5
34
102
{ACAD_REACTORS
330
2A
102
}
330
2A
100
AcDbProxyObject
 90
      499
 91
      501
 93
      500
310
4290DBDB98D95C1D1D585B10940D028333333333333E33F0000000000000F90107902409070040501000000000018199010841D405064090740C02480A0340
1001
ACAD
1000
AcDbSavedByObjectVersion
1070
     0
  0
ACAD_PROXY_OBJECT
  5
35
102
{ACAD_REACTORS
330
2A
102
}
330
2A
100
AcDbProxyObject
 90
      499
 91
      501
 93
      412
310
40D11A5B50B409028333333333333E33F0000000000000F9010790141107004050150841D405064090741402480A02677FFFFFD0
1001
ACAD
1000
AcDbSavedByObjectVersion
1070
     0
  0
ACAD_PROXY_OBJECT
  5
3D
102
{ACAD_REACTORS
330
2A
102
}
330
2A
100
AcDbProxyObject
 90
      499
 91
      501
 93
      452
310
43115919D950DBDB1BDC93D999916409028333333333333E33F0000000000000F9010790141107004050150841D405064090741402480A0350
1001
ACAD
1000
AcDbSavedByObjectVersion
1070
     0
  0
ACAD_PROXY_OBJECT
  5
39
102
{ACAD_REACTORS
330
2A
102
}
330
2A
100
AcDbProxyObject
 90
      499
 91
      501
 93
      444
310
42D19858D95C185D1D195C9B90F409028333333333333E33F0000000000000F9010790141107004050150841D405064090741402480A0350
1001
ACAD
1000
AcDbSavedByObjectVersion
1070
     0
  0
ACAD_PROXY_OBJECT
  5
2B
102
{ACAD_REACTORS
330
2A
102
}
330
2A
100
AcDbProxyObject
 90
      499
 91
      501
 93
      380
310
41119B185D240901404333333333333E33F0000000000000F9010740A907004050150841D405064090741402480A1B50
1001
ACAD
1000
AcDbSavedByObjectVersion
1070
     0
  0
ACAD_PROXY_OBJECT
  5
2C
102
{ACAD_REACTORS
330
2A
102
}
330
2A
100
AcDbProxyObject
 90
      499
 91
      501
 93
      468
310
43519B185D15DA5D1A115919D95CD0140901404333333333333E33F0000000000000F90107409019070040501600405405064090741402480A1B50
1001
ACAD
1000
AcDbSavedByObjectVersion
1070
     0
  0
ACAD_PROXY_OBJECT
  5
2D
102
{ACAD_REACTORS
330
2A
102
}
330
2A
100
AcDbProxyObject
 90
      499
 91
      501
 93
      404
310
41D1DBDD5C985D5910240902404333333333333E33F0000000000000F9010740A9070040501641D405064090741402480A1B50
1001
ACAD
1000
AcDbSavedByObjectVersion
1070
     0
  0
ACAD_PROXY_OBJECT
  5
2E
102
{ACAD_REACTORS
330
2A
102
}
330
2A
100
AcDbProxyObject
 90
      499
 91
      501
 93
      492
310
4411DBDD5C985D5915DA5D1A115919D95CD0340902404333333333333E33F0000000000000F90107409019070040501600405405064090741402480A1B50
1001
ACAD
1000
AcDbSavedByObjectVersion
1070
     0
  0
ACAD_PROXY_OBJECT
  5
31
102
{ACAD_REACTORS
330
2A
102
}
330
2A
100
AcDbProxyObject
 90
      499
 91
      501
 93
      476
310
41921A5919195B90640502408333333333333E33F0000000000000F901079024090700405020000000000001110200405405064090740C02480A0340
1001
ACAD
1000
AcDbSavedByObjectVersion
1070
     0
  0
ACAD_PROXY_OBJECT
  5
3B
102
{ACAD_REACTORS
330
2A
102
}
330
2A
100
AcDbProxyObject
 90
      499
 91
      501
 93
      428
310
42529A5D1D195C93D999914409028333333333333E33F0000000000000F9010790141107004050150A41D405064090741402480A0350
1001
ACAD
1000
AcDbSavedByObjectVersion
1070
     0
  0
ACAD_PROXY_OBJECT
  5
38
102
{ACAD_REACTORS
330
2A
102
}
330
2A
100
AcDbProxyObject
 90
      499
 91
      501
 93
      444
310
42D31A5B995C185D1D195C9B90E409028333333333333E33F0000000000000F9010790141107004050750841D405064090741402483A0350
1001
ACAD
1000
AcDbSavedByObjectVersion
1070
     0
  0
ACAD_PROXY_OBJECT
  5
3C
102
{ACAD_REACTORS
330
2A
102
}
330
2A
100
AcDbProxyObject
 90
      499
 91
      501
 93
      444
310
42D3DD995C9A185B99D3D999915409028333333333333E33F0000000000000F9010790141107004050150941D405064090741402480A0350
1001
ACAD
1000
AcDbSavedByObjectVersion
1070
     0
  0
ACAD_PROXY_OBJECT
  5
33
102
{ACAD_REACTORS
330
2A
102
}
330
2A
100
AcDbProxyObject
 90
      499
 91
      501
 93
      428
310
425499585B1A5CDD1A58D08409038333333333333E33F0000000000000F9010740A907004050150800405405064090740C02480A1B40
1001
ACAD
1000
AcDbSavedByObjectVersion
1070
     0
  0
ACAD_PROXY_OBJECT
  5
42
102
{ACAD_REACTORS
330
2A
102
}
330
2A
100
AcDbProxyObject
 90
      499
 91
      501
 93
      420
310
4194DA1859195911B40902404333333333333E33F0000000000000F9010740A41107004050150800405405064090840C02480A0B40
1001
ACAD
1000
AcDbSavedByObjectVersion
1070
     0
  0
ACAD_PROXY_OBJECT
  5
41
102
{ACAD_REACTORS
330
2A
102
}
330
2A
100
AcDbProxyObject
 90
      499
 91
      501
 93
      516
310
4454DA18591959081DDA5D1A08195919D95CD1A40902404333333333333E33F0000000000000F901074090142907004050250800405405064090740C02480A0B40
1001
ACAD
1000
AcDbSavedByObjectVersion
1070
     0
  0
ACAD_PROXY_OBJECT
  5
3E
102
{ACAD_REACTORS
330
2A
102
}
330
2A
100
AcDbProxyObject
 90
      499
 91
      501
 93
      532
310
4394DA1859195CC81BD98811DC985E5174090240C333333333333E33F0000000000000F901079024090741D01000000000000111010841D405064090740C02480A0340
1001
ACAD
1000
AcDbSavedByObjectVersion
1070
     0
  0
ACAD_PROXY_OBJECT
  5
3F
102
{ACAD_REACTORS
330
2A
102
}
330
2A
100
AcDbProxyObject
 90
      499
 91
      501
 93
      476
310
41D4DAD95D18DA1E51840502408333333333333E33F0000000000000F901079024090741D01000000000000111010B41D405064090741802480A0340
1001
ACAD
1000
AcDbSavedByObjectVersion
1070
     0
  0
ACAD_PROXY_OBJECT
  5
37
102
{ACAD_REACTORS
330
2A
102
}
330
2A
100
AcDbProxyObject
 90
      499
 91
      501
 93
      412
310
41D51A1A58DAD95B90D409028333333333333E33F0000000000000F9010790141107004050150C41D405064090741402480A0350
1001
ACAD
1000
AcDbSavedByObjectVersion
1070
     0
  0
ACAD_PROXY_OBJECT
  5
30
102
{ACAD_REACTORS
330
2A
102
}
330
2A
100
AcDbProxyObject
 90
      499
 91
      501
 93
      420
310
4255DA5C99599C985B595059028333333333333E33F0000000000000F90107901411070040501600405405064090740C02480A0340
1001
ACAD
1000
AcDbSavedByObjectVersion
1070
     0
  0
ACAD_PROXY_OBJECT
  5
40
102
{ACAD_REACTORS
330
2A
102
}
330
2A
100
AcDbProxyObject
 90
      499
 91
      501
 93
      404
310
41560B54985E51940902404000000000000E03F0000000000000F9010740501907004050150841D405064090740C02480A1B40
1001
ACAD
1000
AcDbSavedByObjectVersion
1070
     0
  0
XRECORD
  5
11D
102
{ACAD_REACTORS
330
114
102
}
330
114
100
AcDbXrecord
 90
        0
  0
XRECORD
  5
133
102
{ACAD_REACTORS
330
114
102
}
330
114
100
AcDbXrecord
1000
DSTYLE
1002
{
1070
   179
 70
     1
1070
   143
 40
0.03937
1070
   285
 70
     8
1070
   176
 70
     7
1070
   177
 70
     7
1070
   178
 70
     7
1070
   371
 70
    13
1070
   372
 70
    13
1070
   272
 70
     3
1070
   340
340
71
1070
   288
 70
     1
1002
}
  0
XRECORD
  5
11E
102
{ACAD_REACTORS
330
114
102
}
330
114
100
AcDbXrecord
  1
{490C7EBF-F58C-EFC8-34DB-4EA2E9F1C537}
  0
XRECORD
  5
117
102
{ACAD_REACTORS
330
114
102
}
330
114
100
AcDbXrecord
  1

  0
XRECORD
  5
11C
102
{ACAD_REACTORS
330
114
102
}
330
114
100
AcDbXrecord
 90
        4
  0
XRECORD
  5
119
102
{ACAD_REACTORS
330
114
102
}
330
114
100
AcDbXrecord
340
1A
  0
XRECORD
  5
11B
102
{ACAD_REACTORS
330
114
102
}
330
114
100
AcDbXrecord
 90
    10269
  0
XRECORD
  5
11A
102
{ACAD_REACTORS
330
114
102
}
330
114
100
AcDbXrecord
340
19
  0
XRECORD
  5
120
102
{ACAD_REACTORS
330
114
102
}
330
114
100
AcDbXrecord
 40
0.0
  0
XRECORD
  5
123
102
{ACAD_REACTORS
330
114
102
}
330
114
100
AcDbXrecord
340
0
  0
XRECORD
  5
129
102
{ACAD_REACTORS
330
114
102
}
330
114
100
AcDbXrecord
 10
0.0
 20
0.0
 30
0.0
  0
XRECORD
  5
125
102
{ACAD_REACTORS
330
114
102
}
330
114
100
AcDbXrecord
 10
0.0
 20
0.0
 30
0.0
  0
XRECORD
  5
128
102
{ACAD_REACTORS
330
114
102
}
330
114
100
AcDbXrecord
 10
0.0
 20
0.0
 30
0.0
  0
XRECORD
  5
126
102
{ACAD_REACTORS
330
114
102
}
330
114
100
AcDbXrecord
 10
0.0
 20
0.0
 30
0.0
  0
XRECORD
  5
127
102
{ACAD_REACTORS
330
114
102
}
330
114
100
AcDbXrecord
 10
0.0
 20
0.0
 30
0.0
  0
XRECORD
  5
124
102
{ACAD_REACTORS
330
114
102
}
330
114
100
AcDbXrecord
 10
0.0
 20
0.0
 30
0.0
  0
XRECORD
  5
121
102
{ACAD_REACTORS
330
114
102
}
330
114
100
AcDbXrecord
340
0
  0
XRECORD
  5
122
102
{ACAD_REACTORS
330
114
102
}
330
114
100
AcDbXrecord
 70
     0
  0
XRECORD
  5
118
102
{ACAD_REACTORS
330
114
102
}
330
114
100
AcDbXrecord
  1

  0
XRECORD
  5
115
102
{ACAD_REACTORS
330
114
102
}
330
114
100
AcDbXrecord
 90
        1
  0
XRECORD
  5
116
102
{ACAD_REACTORS
330
114
102
}
330
114
100
AcDbXrecord
 90
       70
  0
XRECORD
  5
12C
102
{ACAD_REACTORS
330
114
102
}
330
114
100
AcDbXrecord
340
0
  0
XRECORD
  5
132
102
{ACAD_REACTORS
330
114
102
}
330
114
100
AcDbXrecord
 10
0.0
 20
0.0
 30
0.0
  0
XRECORD
  5
12E
102
{ACAD_REACTORS
330
114
102
}
330
114
100
AcDbXrecord
 10
0.0
 20
0.0
 30
0.0
  0
XRECORD
  5
131
102
{ACAD_REACTORS
330
114
102
}
330
114
100
AcDbXrecord
 10
0.0
 20
0.0
 30
0.0
  0
XRECORD
  5
12F
102
{ACAD_REACTORS
330
114
102
}
330
114
100
AcDbXrecord
 10
0.0
 20
0.0
 30
0.0
  0
XRECORD
  5
130
102
{ACAD_REACTORS
330
114
102
}
330
114
100
AcDbXrecord
 10
0.0
 20
0.0
 30
0.0
  0
XRECORD
  5
12D
102
{ACAD_REACTORS
330
114
102
}
330
114
100
AcDbXrecord
 10
0.0
 20
0.0
 30
0.0
  0
XRECORD
  5
12A
102
{ACAD_REACTORS
330
114
102
}
330
114
100
AcDbXrecord
340
0
  0
XRECORD
  5
12B
102
{ACAD_REACTORS
330
114
102
}
330
114
100
AcDbXrecord
 70
     0
  0
XRECORD
  5
11F
102
{ACAD_REACTORS
330
114
102
}
330
114
100
AcDbXrecord
  1
{FAEB1C32-E019-11D5-929B-00C0DF256EC4}
  0
DICTIONARYVAR
  5
13C
102
{ACAD_REACTORS
330
6C
102
}
330
6C
100
DictionaryVariables
280
     0
  1
1:1
  0
DICTIONARYVAR
  5
134
102
{ACAD_REACTORS
330
6C
102
}
330
6C
100
DictionaryVariables
280
     0
  1
Onshape-Standard
  0
DICTIONARYVAR
  5
13A
102
{ACAD_REACTORS
330
6C
102
}
330
6C
100
DictionaryVariables
280
     0
  1
2
  0
DICTIONARYVAR
  5
13B
102
{ACAD_REACTORS
330
6C
102
}
330
6C
100
DictionaryVariables
280
     0
  1
1
  0
DICTIONARYVAR
  5
13D
102
{ACAD_REACTORS
330
6C
102
}
330
6C
100
DictionaryVariables
280
     0
  1
1
  0
DICTIONARYVAR
  5
6D
102
{ACAD_REACTORS
330
6C
102
}
330
6C
100
DictionaryVariables
280
     0
  1
0
  0
DICTIONARYVAR
  5
137
102
{ACAD_REACTORS
330
6C
102
}
330
6C
100
DictionaryVariables
280
     0
  1
80.000000
  0
DICTIONARYVAR
  5
136
102
{ACAD_REACTORS
330
6C
102
}
330
6C
100
DictionaryVariables
280
     0
  1
5.000000
  0
XRECORD
  5
CE
102
{ACAD_REACTORS
330
CD
102
}
330
CD
100
AcDbXrecord
 70
     4
  0
XRECORD
  5
D1
102
{ACAD_REACTORS
330
CD
102
}
330
CD
100
AcDbXrecord
 90
        0
  0
XRECORD
  5
D0
102
{ACAD_REACTORS
330
CD
102
}
330
CD
100
AcDbXrecord
 90
        0
  0
XRECORD
  5
CF
102
{ACAD_REACTORS
330
CD
102
}
330
CD
100
AcDbXrecord
 90
        1
  0
DICTIONARY
  5
140
330
45
100
AcDbDictionary
280
     1
  3
ACAD_XREC_ROUNDTRIP
360
141
  0
DICTIONARY
  5
13E
330
44
100
AcDbDictionary
280
     1
  3
ACAD_XREC_ROUNDTRIP
360
13F
  0
DICTIONARY
  5
142
330
46
100
AcDbDictionary
280
     1
  3
ACAD_XREC_ROUNDTRIP
360
143
  0
XRECORD
  5
141
102
{ACAD_REACTORS
330
140
102
}
330
140
100
AcDbXrecord
102
MATERIAL
148
0.0
149
0.0
149
0.0
 93
        0
 94
      127
282
     0
 72
     1
 77
     1
171
     1
175
     1
179
     1
273
     0
  0
XRECORD
  5
13F
102
{ACAD_REACTORS
330
13E
102
}
330
13E
100
AcDbXrecord
102
MATERIAL
148
0.0
149
0.0
149
0.0
 93
        0
 94
      127
282
     0
 72
     1
 77
     1
171
     1
175
     1
179
     1
273
     0
  0
XRECORD
  5
143
102
{ACAD_REACTORS
330
142
102
}
330
142
100
AcDbXrecord
102
MATERIAL
148
0.0
149
0.0
149
0.0
 93
        0
 94
      127
282
     0
 72
     1
 77
     1
171
     1
175
     1
179
     1
273
     0
  0
ENDSEC
  0
EOF
