  0
SECTION
  2
HEADER
  9
$ACADVER
  1
AC1014
  9
$ACADMAINTVER
 70
     9
  9
$DWGCODEPAGE
  3
ANSI_1252
  9
$INSBASE
 10
0.0
 20
0.0
 30
0.0
  9
$EXTMIN
 10
1.000000000000000E+20
 20
1.000000000000000E+20
 30
1.000000000000000E+20
  9
$EXTMAX
 10
-1.000000000000000E+20
 20
-1.000000000000000E+20
 30
-1.000000000000000E+20
  9
$LIMMIN
 10
0.0
 20
0.0
  9
$LIMMAX
 10
420.0
 20
297.0
  9
$ORTHOMODE
 70
     0
  9
$REGENMODE
 70
     1
  9
$FILLMODE
 70
     1
  9
$QTEXTMODE
 70
     0
  9
$MIRRTEXT
 70
     1
  9
$DRAGMODE
 70
     2
  9
$LTSCALE
 40
12.7
  9
$OSMODE
 70
    23
  9
$ATTMODE
 70
     1
  9
$TEXTSIZE
 40
3.5
  9
$TRACEWID
 40
1.0
  9
$TEXTSTYLE
  7
ONSHAPE-STANDARD
  9
$CLAYER
  8
0
  9
$CELTYPE
  6
BYLAYER
  9
$CECOLOR
 62
   256
  9
$CELTSCALE
 40
1.0
  9
$DELOBJ
 70
     1
  9
$DISPSILH
 70
     0
  9
$DIMSCALE
 40
1.0
  9
$DIMASZ
 40
2.5
  9
$DIMEXO
 40
0.625
  9
$DIMDLI
 40
3.75
  9
$DIMRND
 40
0.0
  9
$DIMDLE
 40
0.0
  9
$DIMEXE
 40
1.25
  9
$DIMTP
 40
0.0
  9
$DIMTM
 40
0.0
  9
$DIMTXT
 40
3.5
  9
$DIMCEN
 40
2.5
  9
$DIMTSZ
 40
0.0
  9
$DIMTOL
 70
     0
  9
$DIMLIM
 70
     0
  9
$DIMTIH
 70
     0
  9
$DIMTOH
 70
     0
  9
$DIMSE1
 70
     0
  9
$DIMSE2
 70
     0
  9
$DIMTAD
 70
     1
  9
$DIMZIN
 70
     8
  9
$DIMBLK
  1

  9
$DIMASO
 70
     1
  9
$DIMSHO
 70
     1
  9
$DIMPOST
  1

  9
$DIMAPOST
  1

  9
$DIMALT
 70
     0
  9
$DIMALTD
 70
     3
  9
$DIMALTF
 40
0.03937
  9
$DIMLFAC
 40
1.0
  9
$DIMTOFL
 70
     1
  9
$DIMTVP
 40
0.0
  9
$DIMTIX
 70
     0
  9
$DIMSOXD
 70
     0
  9
$DIMSAH
 70
     0
  9
$DIMBLK1
  1

  9
$DIMBLK2
  1

  9
$DIMSTYLE
  2
ONSHAPE-ISO-25
  9
$DIMCLRD
 70
     7
  9
$DIMCLRE
 70
     7
  9
$DIMCLRT
 70
     7
  9
$DIMTFAC
 40
1.0
  9
$DIMGAP
 40
0.625
  9
$DIMJUST
 70
     0
  9
$DIMSD1
 70
     0
  9
$DIMSD2
 70
     0
  9
$DIMTOLJ
 70
     0
  9
$DIMTZIN
 70
     8
  9
$DIMALTZ
 70
     8
  9
$DIMALTTZ
 70
     0
  9
$DIMFIT
 70
     3
  9
$DIMUPT
 70
     1
  9
$DIMUNIT
 70
     2
  9
$DIMDEC
 70
     2
  9
$DIMTDEC
 70
     2
  9
$DIMALTU
 70
     2
  9
$DIMALTTD
 70
     3
  9
$DIMTXSTY
  7
ONSHAPE-STANDARD-DIMENSION
  9
$DIMAUNIT
 70
     0
  9
$LUNITS
 70
     2
  9
$LUPREC
 70
     4
  9
$SKETCHINC
 40
1.0
  9
$FILLETRAD
 40
10.0
  9
$AUNITS
 70
     0
  9
$AUPREC
 70
     0
  9
$MENU
  1
.
  9
$ELEVATION
 40
0.0
  9
$PELEVATION
 40
0.0
  9
$THICKNESS
 40
0.0
  9
$LIMCHECK
 70
     0
  9
$CHAMFERA
 40
0.0
  9
$CHAMFERB
 40
0.0
  9
$CHAMFERC
 40
0.0
  9
$CHAMFERD
 40
0.0
  9
$SKPOLY
 70
     0
  9
$TDCREATE
 40
2458999.009745371
  9
$TDUPDATE
 40
2458999.009745371
  9
$TDINDWG
 40
0.0
  9
$TDUSRTIMER
 40
0.0
  9
$USRTIMER
 70
     1
  9
$ANGBASE
 50
0.0
  9
$ANGDIR
 70
     0
  9
$PDMODE
 70
     0
  9
$PDSIZE
 40
0.0
  9
$PLINEWID
 40
0.0
  9
$COORDS
 70
     1
  9
$SPLFRAME
 70
     0
  9
$SPLINETYPE
 70
     6
  9
$SPLINESEGS
 70
     8
  9
$ATTDIA
 70
     0
  9
$ATTREQ
 70
     1
  9
$HANDLING
 70
     1
  9
$HANDSEED
  5
13D
  9
$SURFTAB1
 70
     6
  9
$SURFTAB2
 70
     6
  9
$SURFTYPE
 70
     6
  9
$SURFU
 70
     6
  9
$SURFV
 70
     6
  9
$UCSNAME
  2

  9
$UCSORG
 10
0.0
 20
0.0
 30
0.0
  9
$UCSXDIR
 10
1.0
 20
0.0
 30
0.0
  9
$UCSYDIR
 10
0.0
 20
1.0
 30
0.0
  9
$PUCSNAME
  2

  9
$PUCSORG
 10
0.0
 20
0.0
 30
0.0
  9
$PUCSXDIR
 10
1.0
 20
0.0
 30
0.0
  9
$PUCSYDIR
 10
0.0
 20
1.0
 30
0.0
  9
$USERI1
 70
     0
  9
$USERI2
 70
     0
  9
$USERI3
 70
     0
  9
$USERI4
 70
     0
  9
$USERI5
 70
     0
  9
$USERR1
 40
0.0
  9
$USERR2
 40
0.0
  9
$USERR3
 40
0.0
  9
$USERR4
 40
0.0
  9
$USERR5
 40
0.0
  9
$WORLDVIEW
 70
     1
  9
$SHADEDGE
 70
     3
  9
$SHADEDIF
 70
    70
  9
$TILEMODE
 70
     1
  9
$MAXACTVP
 70
    64
  9
$PINSBASE
 10
0.0
 20
0.0
 30
0.0
  9
$PLIMCHECK
 70
     0
  9
$PEXTMIN
 10
1.000000000000000E+20
 20
1.000000000000000E+20
 30
1.000000000000000E+20
  9
$PEXTMAX
 10
-1.000000000000000E+20
 20
-1.000000000000000E+20
 30
-1.000000000000000E+20
  9
$PLIMMIN
 10
0.0
 20
0.0
  9
$PLIMMAX
 10
420.0
 20
297.0
  9
$UNITMODE
 70
     0
  9
$VISRETAIN
 70
     1
  9
$PLINEGEN
 70
     0
  9
$PSLTSCALE
 70
     1
  9
$TREEDEPTH
 70
  3020
  9
$PICKSTYLE
 70
     1
  9
$CMLSTYLE
  2
STANDARD
  9
$CMLJUST
 70
     0
  9
$CMLSCALE
 40
20.0
  9
$PROXYGRAPHICS
 70
     1
  9
$MEASUREMENT
 70
     1
  0
ENDSEC
  0
SECTION
  2
CLASSES
  0
CLASS
  1
ACDBDICTIONARYWDFLT
  2
AcDbDictionaryWithDefault
  3
ObjectDBX Classes
 90
        0
280
     0
281
     0
  0
CLASS
  1
VISUALSTYLE
  2
AcDbVisualStyle
  3
ObjectDBX Classes
 90
     4095
280
     0
281
     0
  0
CLASS
  1
MATERIAL
  2
AcDbMaterial
  3
ObjectDBX Classes
 90
     1153
280
     0
281
     0
  0
CLASS
  1
SCALE
  2
AcDbScale
  3
ObjectDBX Classes
 90
     1153
280
     0
281
     0
  0
CLASS
  1
SUN
  2
AcDbSun
  3
SCENEOE
 90
     1153
280
     0
281
     0
  0
CLASS
  1
TABLESTYLE
  2
AcDbTableStyle
  3
ObjectDBX Classes
 90
     4095
280
     0
281
     0
  0
CLASS
  1
DICTIONARYVAR
  2
AcDbDictionaryVar
  3
ObjectDBX Classes
 90
        0
280
     0
281
     0
  0
CLASS
  1
XRECORD
  2
AcDbXrecord
  3
ObjectDBX Classes
 90
        0
280
     0
281
     0
  0
CLASS
  1
LWPOLYLINE
  2
AcDbPolyline
  3
ObjectDBX Classes
 90
        0
280
     0
281
     1
  0
CLASS
  1
HATCH
  2
AcDbHatch
  3
ObjectDBX Classes
 90
        0
280
     0
281
     1
  0
CLASS
  1
ACDBPLACEHOLDER
  2
AcDbPlaceHolder
  3
ObjectDBX Classes
 90
        0
280
     0
281
     0
  0
CLASS
  1
LAYOUT
  2
AcDbLayout
  3
ObjectDBX Classes
 90
        0
280
     0
281
     0
  0
ENDSEC
  0
SECTION
  2
TABLES
  0
TABLE
  2
VPORT
  5
8
330
0
100
AcDbSymbolTable
 70
     1
  0
VPORT
  5
29
330
8
100
AcDbSymbolTableRecord
100
AcDbViewportTableRecord
  2
*ACTIVE
 70
     0
 10
0.0
 20
0.0
 11
1.0
 21
1.0
 12
420.3368421052633
 22
218.6968421052632
 13
0.0
 23
0.0
 14
10.0
 24
10.0
 15
10.0
 25
10.0
 16
0.0
 26
0.0
 36
1.0
 17
0.0
 27
0.0
 37
0.0
 40
260.4239316357939
 41
1.09590392587563
 42
50.0
 43
0.0
 44
0.0
 50
0.0
 51
0.0
 71
     0
 72
   100
 73
     1
 74
     3
 75
     0
 76
     0
 77
     0
 78
     0
  0
ENDTAB
  0
TABLE
  2
LTYPE
  5
5
330
0
100
AcDbSymbolTable
 70
     1
  0
LTYPE
  5
14
330
5
100
AcDbSymbolTableRecord
100
AcDbLinetypeTableRecord
  2
BYBLOCK
 70
     0
  3

 72
    65
 73
     0
 40
0.0
  0
LTYPE
  5
15
330
5
100
AcDbSymbolTableRecord
100
AcDbLinetypeTableRecord
  2
BYLAYER
 70
     0
  3

 72
    65
 73
     0
 40
0.0
  0
LTYPE
  5
16
330
5
100
AcDbSymbolTableRecord
100
AcDbLinetypeTableRecord
  2
CONTINUOUS
 70
     0
  3
Solid line
 72
    65
 73
     0
 40
0.0
  0
ENDTAB
  0
TABLE
  2
LAYER
  5
2
330
0
100
AcDbSymbolTable
 70
     3
  0
LAYER
  5
10
330
2
100
AcDbSymbolTableRecord
100
AcDbLayerTableRecord
  2
0
 70
     0
 62
     7
  6
CONTINUOUS
  0
LAYER
  5
74
330
2
100
AcDbSymbolTableRecord
100
AcDbLayerTableRecord
  2
ANNOTATION_TEXT
 70
     0
 62
     7
  6
CONTINUOUS
  0
LAYER
  5
77
330
2
100
AcDbSymbolTableRecord
100
AcDbLayerTableRecord
  2
VISIBLE
 70
     0
 62
     7
  6
CONTINUOUS
  0
ENDTAB
  0
TABLE
  2
STYLE
  5
3
330
0
100
AcDbSymbolTable
 70
    27
  0
STYLE
  5
11
330
3
100
AcDbSymbolTableRecord
100
AcDbTextStyleTableRecord
  2
STANDARD
 70
     0
 40
0.0
 41
1.0
 50
0.0
 71
     0
 42
3.5
  3
txt
  4

  0
STYLE
  5
6E
330
3
100
AcDbSymbolTableRecord
100
AcDbTextStyleTableRecord
  2
ONSHAPE-STANDARD
 70
     0
 40
0.0
 41
1.0
 50
0.0
 71
     0
 42
3.5
  3
NotoSans-Regular.ttf
  4

1001
ACAD
1000
Noto Sans
1071
        0
  0
STYLE
  5
70
330
3
100
AcDbSymbolTableRecord
100
AcDbTextStyleTableRecord
  2
ONSHAPE-STANDARD-DIMENSION
 70
     0
 40
0.0
 41
1.0
 50
0.0
 71
     0
 42
3.5
  3

  4

1001
ACAD
1000
Noto Sans
1071
        0
  0
STYLE
  5
76
330
3
100
AcDbSymbolTableRecord
100
AcDbTextStyleTableRecord
  2
ONSHAPE-STANDARD-VIEW-LABE
 70
     0
 40
3.5
 41
1.0
 50
0.0
 71
     0
 42
3.5
  3
NotoSans-Regular.ttf
  4

1001
ACAD
1000
Noto Sans
1071
        0
  0
STYLE
  5
CD
330
3
100
AcDbSymbolTableRecord
100
AcDbTextStyleTableRecord
  2
ONSHAPE-STANDARD-BOLD
 70
     0
 40
0.0
 41
1.0
 50
0.0
 71
     0
 42
3.5
  3
NotoSans-Bold.ttf
  4

1001
ACAD
1000
Noto Sans
1071
 33554432
  0
STYLE
  5
CE
330
3
100
AcDbSymbolTableRecord
100
AcDbTextStyleTableRecord
  2
ONSHAPE-STANDARD-FIELDS
 70
     0
 40
0.0
 41
1.0
 50
0.0
 71
     0
 42
3.5
  3

  4

1001
ACAD
1000
Noto Sans
1071
        0
  0
STYLE
  5
CF
330
3
100
AcDbSymbolTableRecord
100
AcDbTextStyleTableRecord
  2
ONSHAPE-STANDARD-TCFIELDS
 70
     0
 40
0.0
 41
1.0
 50
0.0
 71
     0
 42
3.5
  3
NotoSansTC-Regular.otf
  4

1001
ACAD
1000
Noto Sans TC
1071
        0
  0
STYLE
  5
D0
330
3
100
AcDbSymbolTableRecord
100
AcDbTextStyleTableRecord
  2
ONSHAPE-STANDARD-SCFIELDS
 70
     0
 40
0.0
 41
1.0
 50
0.0
 71
     0
 42
3.5
  3
NotoSansSC-Regular.otf
  4

1001
ACAD
1000
Noto Sans SC
1071
        0
  0
STYLE
  5
D1
330
3
100
AcDbSymbolTableRecord
100
AcDbTextStyleTableRecord
  2
ONSHAPE-STANDARD-KOREANFIE
 70
     0
 40
0.0
 41
1.0
 50
0.0
 71
     0
 42
3.5
  3
NotoSansKR-Regular.otf
  4

1001
ACAD
1000
Noto Sans KR
1071
        0
  0
STYLE
  5
D3
330
3
100
AcDbSymbolTableRecord
100
AcDbTextStyleTableRecord
  2
TTFSTYLE
 70
     0
 40
0.0
 41
1.0
 50
0.0
 71
     0
 42
3.5
  3
Verdana.ttf
  4

1001
ACAD
1000
Verdana
1071
       34
  0
STYLE
  5
D4
330
3
100
AcDbSymbolTableRecord
100
AcDbTextStyleTableRecord
  2
ONSHAPE-STANDARD-GTOLERANC
 70
     0
 40
0.0
 41
1.0
 50
0.0
 71
     0
 42
3.5
  3

  4

1001
ACAD
1000
Noto Sans
1071
        0
  0
STYLE
  5
D5
330
3
100
AcDbSymbolTableRecord
100
AcDbTextStyleTableRecord
  2
ONSHAPE-STANDARD-TABLE-DAT
 70
     0
 40
0.0
 41
1.0
 50
0.0
 71
     0
 42
3.5
  3
NotoSans-Regular.ttf
  4

1001
ACAD
1000
Noto Sans
1071
        0
  0
STYLE
  5
D6
330
3
100
AcDbSymbolTableRecord
100
AcDbTextStyleTableRecord
  2
ONSHAPE-STANDARD-TABLE-TIT
 70
     0
 40
0.0
 41
1.0
 50
0.0
 71
     0
 42
3.5
  3
NotoSans-Bold.ttf
  4

1001
ACAD
1000
Noto Sans
1071
 33554432
  0
STYLE
  5
D7
330
3
100
AcDbSymbolTableRecord
100
AcDbTextStyleTableRecord
  2
ONSHAPE-STANDARD-TABLE-HEA
 70
     0
 40
0.0
 41
1.0
 50
0.0
 71
     0
 42
3.5
  3
NotoSans-Bold.ttf
  4

1001
ACAD
1000
Noto Sans
1071
 33554432
  0
STYLE
  5
D8
330
3
100
AcDbSymbolTableRecord
100
AcDbTextStyleTableRecord
  2
ONSHAPE-STANDARD-BOMTABLE-
 70
     0
 40
0.0
 41
1.0
 50
0.0
 71
     0
 42
3.5
  3
NotoSans-Regular.ttf
  4

1001
ACAD
1000
Noto Sans
1071
        0
  0
STYLE
  5
D9
330
3
100
AcDbSymbolTableRecord
100
AcDbTextStyleTableRecord
  2
ONSHAPE-STANDARD-BOMTABLE0
 70
     0
 40
0.0
 41
1.0
 50
0.0
 71
     0
 42
3.5
  3
NotoSans-Bold.ttf
  4

1001
ACAD
1000
Noto Sans
1071
 33554432
  0
STYLE
  5
DA
330
3
100
AcDbSymbolTableRecord
100
AcDbTextStyleTableRecord
  2
ONSHAPE-STANDARD-BOMTABLE1
 70
     0
 40
0.0
 41
1.0
 50
0.0
 71
     0
 42
3.5
  3
NotoSans-Bold.ttf
  4

1001
ACAD
1000
Noto Sans
1071
 33554432
  0
STYLE
  5
DB
330
3
100
AcDbSymbolTableRecord
100
AcDbTextStyleTableRecord
  2
ONSHAPE-STANDARD-NOTESTYLE
 70
     0
 40
3.5
 41
1.0
 50
0.0
 71
     0
 42
3.5
  3
Noto Sans
  4

1001
ACAD
1000
Noto Sans
1071
        0
  0
STYLE
  5
DD
330
3
100
AcDbSymbolTableRecord
100
AcDbTextStyleTableRecord
  2
ONSHAPE-STANDARD-HOLE-CALL
 70
     0
 40
3.5
 41
1.0
 50
0.0
 71
     0
 42
3.5
  3
Noto Sans
  4

1001
ACAD
1000
Noto Sans
1071
        0
  0
STYLE
  5
DE
330
3
100
AcDbSymbolTableRecord
100
AcDbTextStyleTableRecord
  2
ONSHAPE-STANDARD-HOLETABLE
 70
     0
 40
0.0
 41
1.0
 50
0.0
 71
     0
 42
3.5
  3
NotoSans-Regular.ttf
  4

1001
ACAD
1000
Noto Sans
1071
        0
  0
STYLE
  5
DF
330
3
100
AcDbSymbolTableRecord
100
AcDbTextStyleTableRecord
  2
ONSHAPE-STANDARD-HOLETABL0
 70
     0
 40
0.0
 41
1.0
 50
0.0
 71
     0
 42
3.5
  3
NotoSans-Bold.ttf
  4

1001
ACAD
1000
Noto Sans
1071
 33554432
  0
STYLE
  5
E0
330
3
100
AcDbSymbolTableRecord
100
AcDbTextStyleTableRecord
  2
ONSHAPE-STANDARD-HOLETABL1
 70
     0
 40
0.0
 41
1.0
 50
0.0
 71
     0
 42
3.5
  3
NotoSans-Bold.ttf
  4

1001
ACAD
1000
Noto Sans
1071
 33554432
  0
STYLE
  5
E1
330
3
100
AcDbSymbolTableRecord
100
AcDbTextStyleTableRecord
  2
ONSHAPE-STANDARD-HOLE-TAG
 70
     0
 40
3.5
 41
1.0
 50
0.0
 71
     0
 42
3.5
  3
Noto Sans
  4

1001
ACAD
1000
Noto Sans
1071
        0
  0
STYLE
  5
E2
330
3
100
AcDbSymbolTableRecord
100
AcDbTextStyleTableRecord
  2
ONSHAPE-STANDARD-REVISIONT
 70
     0
 40
0.0
 41
1.0
 50
0.0
 71
     0
 42
3.5
  3
NotoSans-Regular.ttf
  4

1001
ACAD
1000
Noto Sans
1071
        0
  0
STYLE
  5
E3
330
3
100
AcDbSymbolTableRecord
100
AcDbTextStyleTableRecord
  2
ONSHAPE-STANDARD-REVISION0
 70
     0
 40
0.0
 41
1.0
 50
0.0
 71
     0
 42
3.5
  3
NotoSans-Bold.ttf
  4

1001
ACAD
1000
Noto Sans
1071
 33554432
  0
STYLE
  5
E4
330
3
100
AcDbSymbolTableRecord
100
AcDbTextStyleTableRecord
  2
ONSHAPE-STANDARD-REVISION1
 70
     0
 40
0.0
 41
1.0
 50
0.0
 71
     0
 42
3.5
  3
NotoSans-Bold.ttf
  4

1001
ACAD
1000
Noto Sans
1071
 33554432
  0
STYLE
  5
E5
330
3
100
AcDbSymbolTableRecord
100
AcDbTextStyleTableRecord
  2
ONSHAPE-STANDARD-REVISION-
 70
     0
 40
3.5
 41
1.0
 50
0.0
 71
     0
 42
3.5
  3
Noto Sans
  4

1001
ACAD
1000
Noto Sans
1071
        0
  0
ENDTAB
  0
TABLE
  2
VIEW
  5
6
330
0
100
AcDbSymbolTable
 70
     0
  0
ENDTAB
  0
TABLE
  2
UCS
  5
7
330
0
100
AcDbSymbolTable
 70
     0
  0
ENDTAB
  0
TABLE
  2
APPID
  5
9
330
0
100
AcDbSymbolTable
 70
     1
  0
APPID
  5
12
330
9
100
AcDbSymbolTableRecord
100
AcDbRegAppTableRecord
  2
ACAD
 70
     0
  0
ENDTAB
  0
TABLE
  2
DIMSTYLE
  5
A
330
0
100
AcDbSymbolTable
 70
    18
  0
DIMSTYLE
105
27
330
A
100
AcDbSymbolTableRecord
100
AcDbDimStyleTableRecord
  2
ISO-25
 70
     0
  3

  4

  5

  6

  7

 40
1.0
 41
2.5
 42
0.625
 43
3.75
 44
1.25
 45
0.0
 46
0.0
 47
0.0
 48
0.0
140
2.5
141
2.5
142
0.0
143
0.03937007874016
144
1.0
145
0.0
146
1.0
147
0.625
 71
     0
 72
     0
 73
     0
 74
     0
 75
     0
 76
     0
 77
     1
 78
     8
170
     0
171
     3
172
     1
173
     0
174
     0
175
     0
176
     0
177
     0
178
     0
270
     2
271
     2
272
     2
273
     2
274
     3
340
11
275
     0
280
     0
281
     0
282
     0
283
     0
284
     8
285
     0
286
     0
287
     3
288
     0
  0
DIMSTYLE
105
6F
330
A
100
AcDbSymbolTableRecord
100
AcDbDimStyleTableRecord
  2
ONSHAPE-ISO-25
 70
     0
  3

  4

  5

  6

  7

 40
1.0
 41
2.5
 42
0.625
 43
3.75
 44
1.25
 45
0.0
 46
0.0
 47
0.0
 48
0.0
140
3.5
141
2.5
142
0.0
143
0.03937
144
1.0
145
0.0
146
1.0
147
0.625
 71
     0
 72
     0
 73
     0
 74
     0
 75
     0
 76
     0
 77
     1
 78
     8
170
     0
171
     3
172
     1
173
     0
174
     0
175
     0
176
     7
177
     7
178
     7
179
     1
270
     2
271
     2
272
     2
273
     2
274
     3
340
70
275
     0
280
     0
281
     0
282
     0
283
     0
284
     8
285
     8
286
     0
287
     3
288
     1
  0
DIMSTYLE
105
E8
330
A
100
AcDbSymbolTableRecord
100
AcDbDimStyleTableRecord
  2
ISO
 70
     0
  3

  4
"
  5

  6

  7

 40
1.0
 41
3.5
 42
1.0
 43
10.0
 44
1.0
 45
0.0
 46
0.0
 47
0.1
 48
0.1
140
3.5
141
0.0
142
0.0
143
0.03937
144
1.0
145
0.0
146
0.71
147
1.5
 71
     0
 72
     0
 73
     0
 74
     0
 75
     0
 76
     0
 77
     1
 78
     8
170
     0
171
     3
172
     1
173
     0
174
     0
175
     0
176
     7
177
     7
178
     7
270
     2
271
     2
272
     3
273
     2
274
     3
340
11
275
     0
280
     0
281
     0
282
     0
283
     0
284
     8
285
     8
286
     0
287
     3
288
     1
  0
DIMSTYLE
105
E9
330
A
100
AcDbSymbolTableRecord
100
AcDbDimStyleTableRecord
  2
ISO$3
 70
     0
  3

  4
"
  5

  6

  7

 40
1.0
 41
3.5
 42
1.0
 43
10.0
 44
1.0
 45
0.0
 46
0.0
 47
0.1
 48
0.1
140
3.5
141
0.0
142
0.0
143
0.03937
144
1.0
145
0.0
146
0.71
147
1.5
 71
     0
 72
     0
 73
     0
 74
     1
 75
     0
 76
     0
 77
     1
 78
     8
170
     0
171
     3
172
     0
173
     0
174
     0
175
     0
176
     7
177
     7
178
     7
270
     2
271
     2
272
     3
273
     2
274
     3
340
11
275
     0
280
     0
281
     0
282
     0
283
     0
284
     8
285
     8
286
     0
288
     1
  0
DIMSTYLE
105
EA
330
A
100
AcDbSymbolTableRecord
100
AcDbDimStyleTableRecord
  2
ISO$4
 70
     0
  3

  4
"
  5

  6

  7

 40
1.0
 41
3.5
 42
1.0
 43
10.0
 44
1.0
 45
0.0
 46
0.0
 47
0.1
 48
0.1
140
3.5
141
0.0
142
0.0
143
0.03937
144
1.0
145
0.0
146
0.71
147
1.5
 71
     0
 72
     0
 73
     0
 74
     0
 75
     0
 76
     0
 77
     1
 78
     8
170
     0
171
     3
172
     1
173
     0
174
     0
175
     0
176
     7
177
     7
178
     7
270
     2
271
     2
272
     3
273
     2
274
     3
340
11
275
     0
280
     0
281
     0
282
     0
283
     0
284
     8
285
     8
286
     0
287
     3
288
     1
  0
DIMSTYLE
105
EB
330
A
100
AcDbSymbolTableRecord
100
AcDbDimStyleTableRecord
  2
ISO$6
 70
     0
  3

  4
"
  5

  6

  7

 40
1.0
 41
0.5
 42
1.0
 43
10.0
 44
1.0
 45
0.0
 46
0.0
 47
0.1
 48
0.1
140
3.5
141
0.0
142
0.0
143
0.03937
144
1.0
145
0.0
146
0.71
147
1.5
 71
     0
 72
     0
 73
     0
 74
     0
 75
     0
 76
     0
 77
     0
 78
     8
170
     0
171
     3
172
     1
173
     0
174
     0
175
     0
176
     7
177
     7
178
     7
270
     2
271
     2
272
     3
273
     2
274
     3
340
11
275
     0
280
     0
281
     0
282
     0
283
     0
284
     8
285
     8
286
     0
287
     3
288
     1
  0
DIMSTYLE
105
EC
330
A
100
AcDbSymbolTableRecord
100
AcDbDimStyleTableRecord
  2
ISO$7
 70
     0
  3

  4
"
  5

  6

  7

 40
1.0
 41
3.5
 42
1.0
 43
10.0
 44
1.0
 45
0.0
 46
0.0
 47
0.1
 48
0.1
140
3.5
141
0.0
142
0.0
143
0.03937
144
1.0
145
0.0
146
0.71
147
1.5
 71
     0
 72
     0
 73
     0
 74
     0
 75
     0
 76
     0
 77
     1
 78
     8
170
     0
171
     3
172
     1
173
     0
174
     0
175
     0
176
     7
177
     7
178
     7
270
     2
271
     2
272
     3
273
     2
274
     3
340
11
275
     0
280
     0
281
     0
282
     0
283
     0
284
     8
285
     8
286
     0
287
     3
288
     1
  0
DIMSTYLE
105
ED
330
A
100
AcDbSymbolTableRecord
100
AcDbDimStyleTableRecord
  2
ISO$SF
 70
     0
  3

  4
"
  5

  6

  7

 40
1.0
 41
3.5
 42
1.0
 43
10.0
 44
1.0
 45
0.0
 46
0.0
 47
0.1
 48
0.1
140
3.5
141
0.0
142
0.0
143
0.03937
144
1.0
145
0.0
146
0.71
147
1.5
 71
     0
 72
     0
 73
     0
 74
     0
 75
     1
 76
     1
 77
     1
 78
     8
170
     0
171
     3
172
     1
173
     0
174
     0
175
     0
176
     7
177
     7
178
     7
270
     2
271
     2
272
     3
273
     2
274
     3
340
11
275
     0
280
     0
281
     0
282
     0
283
     0
284
     8
285
     8
286
     0
287
     3
288
     1
  0
DIMSTYLE
105
EE
330
A
100
AcDbSymbolTableRecord
100
AcDbDimStyleTableRecord
  2
ISO$SH
 70
     0
  3

  4
"
  5

  6

  7

 40
1.0
 41
3.5
 42
1.0
 43
10.0
 44
1.0
 45
0.0
 46
0.0
 47
0.1
 48
0.1
140
3.5
141
0.0
142
0.0
143
0.03937
144
2.0
145
0.0
146
0.71
147
1.5
 71
     0
 72
     0
 73
     0
 74
     0
 75
     1
 76
     1
 77
     1
 78
     8
170
     0
171
     3
172
     1
173
     1
174
     0
175
     0
176
     7
177
     7
178
     7
270
     2
271
     2
272
     3
273
     2
274
     3
340
11
275
     0
280
     0
281
     0
282
     0
283
     0
284
     8
285
     8
286
     0
287
     3
288
     1
  0
DIMSTYLE
105
F1
330
A
100
AcDbSymbolTableRecord
100
AcDbDimStyleTableRecord
  2
ONSHAPE-ISO-25$0
 70
     0
  3

  4

  5

  6

  7

 40
1.0
 41
2.5
 42
0.625
 43
3.75
 44
1.25
 45
0.0
 46
0.0
 47
0.0
 48
0.0
140
3.5
141
2.5
142
0.0
143
0.03937
144
1.0
145
0.0
146
1.0
147
0.625
 71
     0
 72
     0
 73
     0
 74
     0
 75
     0
 76
     0
 77
     1
 78
     8
170
     0
171
     3
172
     1
173
     0
174
     0
175
     0
176
     7
177
     7
178
     7
179
     1
270
     2
271
     2
272
     2
273
     2
274
     3
340
70
275
     0
280
     0
281
     0
282
     0
283
     0
284
     8
285
     8
286
     0
287
     3
288
     1
  0
DIMSTYLE
105
F2
330
A
100
AcDbSymbolTableRecord
100
AcDbDimStyleTableRecord
  2
ONSHAPE-ISO-25$2
 70
     0
  3

  4

  5

  6

  7

 40
1.0
 41
2.5
 42
0.625
 43
3.75
 44
1.25
 45
0.0
 46
0.0
 47
0.0
 48
0.0
140
3.5
141
2.5
142
0.0
143
0.03937
144
1.0
145
0.0
146
1.0
147
0.625
 71
     0
 72
     0
 73
     0
 74
     0
 75
     0
 76
     0
 77
     1
 78
     8
170
     0
171
     3
172
     1
173
     0
174
     0
175
     0
176
     7
177
     7
178
     7
179
     1
270
     2
271
     2
272
     2
273
     2
274
     3
340
70
275
     0
280
     0
281
     0
282
     0
283
     0
284
     8
285
     8
286
     0
287
     3
288
     1
  0
DIMSTYLE
105
F3
330
A
100
AcDbSymbolTableRecord
100
AcDbDimStyleTableRecord
  2
ONSHAPE-ISO-25$3
 70
     0
  3

  4

  5

  6

  7

 40
1.0
 41
2.5
 42
0.625
 43
3.75
 44
1.25
 45
0.0
 46
0.0
 47
0.0
 48
0.0
140
3.5
141
0.0
142
0.0
143
0.03937
144
1.0
145
0.0
146
1.0
147
0.625
 71
     0
 72
     0
 73
     0
 74
     0
 75
     0
 76
     0
 77
     1
 78
     8
170
     0
171
     3
172
     1
173
     0
174
     0
175
     0
176
     7
177
     7
178
     7
179
     1
270
     2
271
     2
272
     2
273
     2
274
     3
340
70
275
     0
280
     0
281
     0
282
     0
283
     0
284
     8
285
     8
286
     0
287
     3
288
     1
  0
DIMSTYLE
105
F4
330
A
100
AcDbSymbolTableRecord
100
AcDbDimStyleTableRecord
  2
ONSHAPE-ISO-25$4
 70
     0
  3

  4

  5

  6

  7

 40
1.0
 41
2.5
 42
0.625
 43
3.75
 44
1.25
 45
0.0
 46
0.0
 47
0.0
 48
0.0
140
3.5
141
0.0
142
0.0
143
0.03937
144
1.0
145
0.0
146
1.0
147
0.625
 71
     0
 72
     0
 73
     0
 74
     0
 75
     0
 76
     0
 77
     1
 78
     8
170
     0
171
     3
172
     1
173
     0
174
     0
175
     0
176
     7
177
     7
178
     7
179
     1
270
     2
271
     2
272
     2
273
     2
274
     3
340
70
275
     0
280
     0
281
     0
282
     0
283
     0
284
     8
285
     8
286
     0
287
     3
288
     1
  0
DIMSTYLE
105
F5
330
A
100
AcDbSymbolTableRecord
100
AcDbDimStyleTableRecord
  2
ONSHAPE-ISO-25$6
 70
     0
  3

  4

  5

  6

  7

 40
1.0
 41
0.5
 42
0.625
 43
3.75
 44
1.25
 45
0.0
 46
0.0
 47
0.0
 48
0.0
140
3.5
141
2.5
142
0.0
143
0.03937
144
1.0
145
0.0
146
1.0
147
0.625
 71
     0
 72
     0
 73
     0
 74
     0
 75
     0
 76
     0
 77
     1
 78
     8
170
     0
171
     3
172
     1
173
     0
174
     0
175
     0
176
     7
177
     7
178
     7
179
     1
270
     2
271
     2
272
     2
273
     2
274
     3
340
70
275
     0
280
     0
281
     0
282
     0
283
     0
284
     8
285
     8
286
     0
287
     3
288
     1
  0
DIMSTYLE
105
F6
330
A
100
AcDbSymbolTableRecord
100
AcDbDimStyleTableRecord
  2
ONSHAPE-ISO-25$7
 70
     0
  3

  4

  5

  6

  7

 40
1.0
 41
2.5
 42
0.625
 43
3.75
 44
1.25
 45
0.0
 46
0.0
 47
0.0
 48
0.0
140
3.5
141
2.5
142
0.0
143
0.03937
144
1.0
145
0.0
146
1.0
147
0.625
 71
     0
 72
     0
 73
     0
 74
     0
 75
     0
 76
     0
 77
     1
 78
     8
170
     0
171
     3
172
     1
173
     0
174
     0
175
     0
176
     7
177
     7
178
     7
179
     1
270
     2
271
     2
272
     2
273
     2
274
     3
340
70
275
     0
280
     0
281
     0
282
     0
283
     0
284
     8
285
     8
286
     0
287
     3
288
     1
  0
DIMSTYLE
105
F7
330
A
100
AcDbSymbolTableRecord
100
AcDbDimStyleTableRecord
  2
ONSHAPE-STANDARD-GTOLERANC
 70
     0
  3

  4

  5

  6

  7

 40
1.0
 41
2.5
 42
0.625
 43
3.75
 44
1.25
 45
0.0
 46
0.0
 47
0.0
 48
0.0
140
3.5
141
2.5
142
0.0
143
0.03937
144
1.0
145
0.0
146
1.0
147
0.625
 71
     0
 72
     0
 73
     0
 74
     0
 75
     0
 76
     0
 77
     1
 78
     8
170
     0
171
     3
172
     1
173
     0
174
     0
175
     0
176
     7
177
     7
178
     7
179
     1
270
     2
271
     2
272
     2
273
     2
274
     3
340
D4
275
     0
280
     0
281
     0
282
     0
283
     0
284
     8
285
     8
286
     0
287
     3
288
     1
  0
DIMSTYLE
105
F9
330
A
100
AcDbSymbolTableRecord
100
AcDbDimStyleTableRecord
  2
ONSHAPE-ORDINATESTYLE
 70
     0
  3

  4

  5

  6

  7

 40
1.0
 41
2.5
 42
0.625
 43
3.75
 44
1.25
 45
0.0
 46
0.0
 47
0.0
 48
0.0
140
3.5
141
2.5
142
0.0
143
0.03937
144
1.0
145
0.0
146
1.0
147
0.625
 71
     0
 72
     0
 73
     0
 74
     0
 75
     0
 76
     0
 77
     1
 78
     8
170
     0
171
     3
172
     1
173
     0
174
     0
175
     0
176
     7
177
     7
178
     7
179
     1
270
     2
271
     2
272
     2
273
     2
274
     3
340
70
275
     0
280
     0
281
     0
282
     0
283
     0
284
     8
285
     8
286
     0
287
     3
288
     1
  0
DIMSTYLE
105
FA
330
A
100
AcDbSymbolTableRecord
100
AcDbDimStyleTableRecord
  2
ONSHAPE-CHAMFERDIMSTYLE
 70
     0
  3

  4

  5

  6

  7

 40
1.0
 41
2.5
 42
0.625
 43
3.75
 44
1.25
 45
0.0
 46
0.0
 47
0.0
 48
0.0
140
3.5
141
2.5
142
0.0
143
0.03937
144
1.0
145
0.0
146
1.0
147
0.625
 71
     0
 72
     0
 73
     0
 74
     0
 75
     0
 76
     0
 77
     1
 78
     8
170
     0
171
     3
172
     1
173
     0
174
     0
175
     0
176
     7
177
     7
178
     7
179
     1
270
     2
271
     2
272
     2
273
     2
274
     3
340
70
275
     0
280
     0
281
     0
282
     0
283
     0
284
     8
285
     8
286
     0
287
     3
288
     1
  0
ENDTAB
  0
TABLE
  2
BLOCK_RECORD
  5
1
330
0
100
AcDbSymbolTable
 70
     1
  0
BLOCK_RECORD
  5
1F
330
1
100
AcDbSymbolTableRecord
100
AcDbBlockTableRecord
  2
*MODEL_SPACE
  0
BLOCK_RECORD
  5
1B
330
1
100
AcDbSymbolTableRecord
100
AcDbBlockTableRecord
  2
*PAPER_SPACE
  0
ENDTAB
  0
ENDSEC
  0
SECTION
  2
BLOCKS
  0
BLOCK
  5
20
330
1F
100
AcDbEntity
  8
0
100
AcDbBlockBegin
  2
*MODEL_SPACE
 70
     0
 10
0.0
 20
0.0
 30
0.0
  3
*MODEL_SPACE
  1

  0
ENDBLK
  5
21
330
1F
100
AcDbEntity
  8
0
100
AcDbBlockEnd
  0
BLOCK
  5
1C
330
1B
100
AcDbEntity
 67
     1
  8
0
100
AcDbBlockBegin
  2
*PAPER_SPACE
 70
     0
 10
0.0
 20
0.0
 30
0.0
  3
*PAPER_SPACE
  1

  0
ENDBLK
  5
1D
330
1B
100
AcDbEntity
 67
     1
  8
0
100
AcDbBlockEnd
  0
ENDSEC
  0
SECTION
  2
ENTITIES
  0
MTEXT
  5
71
102
{ACAD_XDICTIONARY
360
72
102
}
330
1F
100
AcDbEntity
  8
ANNOTATION_TEXT
 62
     7
 60
     1
100
AcDbMText
 10
420.3368421052633
 20
75.29787517244097
 30
0.0
 40
3.5
 41
0.0
 71
     2
 72
     1
  1

  7
ONSHAPE-STANDARD-VIEW-LABE
1001
ACAD
1000
ACAD_MTEXT_DEFINED_HEIGHT_BEGIN
1070
    46
1040
3.5
1000
ACAD_MTEXT_DEFINED_HEIGHT_END
  0
LINE
  5
79
330
1F
100
AcDbEntity
  8
VISIBLE
100
AcDbLine
 10
379.2518913937549
 20
311.7868528585478
 30
0.0
 11
384.2801766629324
 21
296.5975030616736
 31
0.0
  0
LINE
  5
7A
330
1F
100
AcDbEntity
  8
VISIBLE
100
AcDbLine
 10
384.2801766629324
 20
296.5975030616736
 30
0.0
 11
393.7709300630368
 21
299.7393238870112
 31
0.0
  0
LINE
  5
7B
330
1F
100
AcDbEntity
  8
VISIBLE
100
AcDbLine
 10
393.7709300630368
 20
299.7393238870112
 30
0.0
 11
393.1775512251318
 21
301.5317915471592
 31
0.0
  0
LINE
  5
7C
330
1F
100
AcDbEntity
  8
VISIBLE
100
AcDbLine
 10
393.1775512251318
 20
301.5317915471592
 30
0.0
 11
385.6968479468102
 21
299.0553780995462
 31
0.0
  0
LINE
  5
7D
330
1F
100
AcDbEntity
  8
VISIBLE
100
AcDbLine
 10
385.6968479468102
 20
299.0553780995462
 30
0.0
 11
381.2619415155376
 21
312.4522602362706
 31
0.0
  0
LINE
  5
7E
330
1F
100
AcDbEntity
  8
VISIBLE
100
AcDbLine
 10
381.2619415155376
 20
312.4522602362706
 30
0.0
 11
379.2518913937549
 21
311.7868528585478
 31
0.0
  0
LINE
  5
7F
330
1F
100
AcDbEntity
  8
VISIBLE
100
AcDbLine
 10
368.5734969421462
 20
303.4463251509774
 30
0.0
 11
370.5554662128441
 21
303.8840025949082
 31
0.0
  0
ARC
  5
80
330
1F
100
AcDbEntity
  8
VISIBLE
100
AcDbCircle
 10
373.2638211246854
 20
305.045881833798
 30
0.0
 40
2.9470578
100
AcDbArc
 50
127.1840290150445
 51
203.2192426562262
  0
ARC
  5
81
330
1F
100
AcDbEntity
  8
VISIBLE
100
AcDbCircle
 10
373.6449690833873
 20
304.3786683667822
 30
0.0
 40
3.7103196
100
AcDbArc
 50
107.6386213850974
 51
125.645970566888
  0
ARC
  5
82
330
1F
100
AcDbEntity
  8
VISIBLE
100
AcDbCircle
 10
373.5948599753081
 20
305.312570295693
 30
0.0
 40
2.8149854
100
AcDbArc
 50
24.24109518897891
 51
112.432056460617
  0
ARC
  5
83
330
1F
100
AcDbEntity
  8
VISIBLE
100
AcDbCircle
 10
373.3470089906265
 20
305.2854822577452
 30
0.0
 40
3.0530768
100
AcDbArc
 50
358.5382623689528
 51
22.79474511460605
  0
ARC
  5
84
330
1F
100
AcDbEntity
  8
VISIBLE
100
AcDbCircle
 10
371.1135869515225
 20
305.3917725136643
 30
0.0
 40
5.2887131
100
AcDbArc
 50
341.3236454865469
 51
358.0043481233685
  0
ARC
  5
85
330
1F
100
AcDbEntity
  8
VISIBLE
100
AcDbCircle
 10
366.5744010315174
 20
306.9506799797715
 30
0.0
 40
10.0881003
100
AcDbArc
 50
334.2146091199604
 51
341.1914718912793
  0
ARC
  5
86
330
1F
100
AcDbEntity
  8
VISIBLE
100
AcDbCircle
 10
347.2162987992263
 20
316.6452654474026
 30
0.0
 40
31.7373695
100
AcDbArc
 50
327.0287740562928
 51
333.657682433676
  0
LINE
  5
87
330
1F
100
AcDbEntity
  8
VISIBLE
100
AcDbLine
 10
373.8421739183021
 20
299.3732245358926
 30
0.0
 11
373.1385815592118
 21
298.2129202118742
 31
0.0
  0
LINE
  5
88
330
1F
100
AcDbEntity
  8
VISIBLE
100
AcDbLine
 10
373.1385815592118
 20
298.2129202118742
 30
0.0
 11
372.5790517546228
 21
297.1769499486662
 31
0.0
  0
LINE
  5
89
330
1F
100
AcDbEntity
  8
VISIBLE
100
AcDbLine
 10
372.5790517546228
 20
297.1769499486662
 30
0.0
 11
372.1635843706404
 21
296.265313813564
 31
0.0
  0
ARC
  5
8A
330
1F
100
AcDbEntity
  8
VISIBLE
100
AcDbCircle
 10
379.0161210504687
 20
293.3960479754284
 30
0.0000000000000003
 40
7.4289936
100
AcDbArc
 50
157.2801657672244
 51
174.5928483172858
  0
ARC
  5
8B
330
1F
100
AcDbEntity
  8
VISIBLE
100
AcDbCircle
 10
375.1791600483073
 20
293.7003788100048
 30
0.0000000000000002
 40
3.5809077
100
AcDbArc
 50
173.6553442573961
 51
200.0740071655485
  0
LINE
  5
8C
330
1F
100
AcDbEntity
  8
VISIBLE
100
AcDbLine
 10
371.8157922696414
 20
292.471290862185
 30
0.0
 11
381.8556827223921
 21
295.7948981227226
 31
0.0
  0
LINE
  5
8D
330
1F
100
AcDbEntity
  8
VISIBLE
100
AcDbLine
 10
381.8556827223921
 20
295.7948981227226
 30
0.0
 11
381.2623038844871
 21
297.5873657828704
 31
0.0
  0
LINE
  5
8E
330
1F
100
AcDbEntity
  8
VISIBLE
100
AcDbLine
 10
381.2623038844871
 20
297.5873657828704
 30
0.0
 11
373.8126846394905
 21
295.1212423996096
 31
0.0
  0
LINE
  5
8F
330
1F
100
AcDbEntity
  8
VISIBLE
100
AcDbLine
 10
373.8126846394905
 20
295.1212423996096
 30
0.0
 11
373.9485903401408
 21
295.7525557463786
 31
0.0
  0
LINE
  5
90
330
1F
100
AcDbEntity
  8
VISIBLE
100
AcDbLine
 10
373.9485903401408
 20
295.7525557463786
 30
0.0
 11
374.3578131382683
 21
296.704278523654
 31
0.0
  0
LINE
  5
91
330
1F
100
AcDbEntity
  8
VISIBLE
100
AcDbLine
 10
374.3578131382683
 20
296.704278523654
 30
0.0
 11
374.9639682325436
 21
297.755683510779
 31
0.0
  0
LINE
  5
92
330
1F
100
AcDbEntity
  8
VISIBLE
100
AcDbLine
 10
374.9639682325436
 20
297.755683510779
 30
0.0
 11
376.0984961387197
 21
299.5290091206322
 31
0.0
  0
LINE
  5
93
330
1F
100
AcDbEntity
  8
VISIBLE
100
AcDbLine
 10
376.0984961387197
 20
299.5290091206322
 30
0.0
 11
377.1171087524356
 21
301.3037029262476
 31
0.0
  0
LINE
  5
94
330
1F
100
AcDbEntity
  8
VISIBLE
100
AcDbLine
 10
377.1171087524356
 20
301.3037029262476
 30
0.0
 11
377.646489652945
 21
302.34842772092
 31
0.0
  0
ARC
  5
95
330
1F
100
AcDbEntity
  8
VISIBLE
100
AcDbCircle
 10
368.2418898081813
 20
306.7528708319982
 30
-0.0000000000000004
 40
10.3848745
100
AcDbArc
 50
334.9049631207764
 51
341.4778836092277
  0
ARC
  5
96
330
1F
100
AcDbEntity
  8
VISIBLE
100
AcDbCircle
 10
373.3062900436994
 20
305.2653686830826
 30
-0.0000000000000003
 40
5.114117100000001
100
AcDbArc
 50
339.2550049652895
 51
22.3314397596667
  0
ARC
  5
97
330
1F
100
AcDbEntity
  8
VISIBLE
100
AcDbCircle
 10
374.1372959638579
 20
305.5756658697876
 30
-0.0000000000000003
 40
4.2276314
100
AcDbArc
 50
22.7207687161192
 51
76.23785814391584
  0
ARC
  5
98
330
1F
100
AcDbEntity
  8
VISIBLE
100
AcDbCircle
 10
373.985623825569
 20
304.7961164483402
 30
-0.0000000000000003
 40
5.0210276
100
AcDbArc
 50
76.6729755007889
 51
101.3495905321507
  0
ARC
  5
99
330
1F
100
AcDbEntity
  8
VISIBLE
100
AcDbCircle
 10
374.4997247825142
 20
302.022617100298
 30
-0.0000000000000003
 40
7.841573900000001
100
AcDbArc
 50
101.0444427330538
 51
111.8179720555374
  0
ARC
  5
9A
330
1F
100
AcDbEntity
  8
VISIBLE
100
AcDbCircle
 10
373.8617228206929
 20
303.4616694362828
 30
-0.0000000000000002
 40
6.2687461
100
AcDbArc
 50
111.2927434153154
 51
123.8082615176291
  0
ARC
  5
9B
330
1F
100
AcDbEntity
  8
VISIBLE
100
AcDbCircle
 10
372.7519172105186
 20
304.9995561444722
 30
0.0
 40
4.3739011
100
AcDbArc
 50
122.9379216105574
 51
160.1541876902889
  0
ARC
  5
9C
330
1F
100
AcDbEntity
  8
VISIBLE
100
AcDbCircle
 10
372.9042267016366
 20
305.012708321939
 30
0.0000000000000002
 40
4.513154800000001
100
AcDbArc
 50
160.9677114197811
 51
176.6016393269223
  0
ARC
  5
9D
330
1F
100
AcDbEntity
  8
VISIBLE
100
AcDbCircle
 10
374.7443326138335
 20
304.9587104664148
 30
0.0000000000000004
 40
6.3534654
100
AcDbArc
 50
177.099211670615
 51
193.7709479929693
  0
ARC
  5
9E
330
1F
100
AcDbEntity
  8
VISIBLE
100
AcDbCircle
 10
436.9654615648145
 20
167.0910838851407
 30
0.0000000000000001
 40
30.0
100
AcDbArc
 50
110.7161308755562
 51
162.7362584306813
  0
ARC
  5
9F
330
1F
100
AcDbEntity
  8
VISIBLE
100
AcDbCircle
 10
374.8937898403614
 20
186.3811738117229
 30
0.0
 40
35.0
100
AcDbArc
 50
340.6635481320414
 51
342.7362584307027
  0
LINE
  5
A0
330
1F
100
AcDbEntity
  8
VISIBLE
100
AcDbLine
 10
407.9194568382575
 20
174.7921566244525
 30
0.0
 11
404.2028756821295
 21
143.0750173930728
 31
0.0
  0
ARC
  5
A1
330
1F
100
AcDbEntity
  8
VISIBLE
100
AcDbCircle
 10
433.9990091463765
 20
139.5835376807667
 30
0.000000000000002
 40
30.0
100
AcDbArc
 50
173.3166189853565
 51
249.4772546868179
  0
SPLINE
  5
A2
330
1F
100
AcDbEntity
  8
VISIBLE
100
AcDbSpline
210
0.0
220
0.0
230
1.0
 70
     8
 71
     3
 72
   179
 73
   175
 74
     0
 42
0.000000001
 43
0.0000000454326172
 40
103.316162643462
 40
103.316162643462
 40
103.316162643462
 40
103.316162643462
 40
116.057714136006
 40
116.057714136006
 40
116.057714136006
 40
129.400752072481
 40
129.400752072481
 40
129.400752072481
 40
141.719340590639
 40
141.719340590639
 40
141.719340590639
 40
146.574024344021
 40
146.574024344021
 40
146.574024344021
 40
147.757015361115
 40
147.757015361115
 40
147.757015361115
 40
157.259799836628
 40
157.259799836628
 40
157.259799836628
 40
166.703447200544
 40
166.703447200544
 40
166.703447200544
 40
175.958590035265
 40
175.958590035265
 40
175.958590035265
 40
180.125300560384
 40
180.125300560384
 40
180.125300560384
 40
189.727245166519
 40
189.727245166519
 40
189.727245166519
 40
191.138348719408
 40
191.138348719408
 40
191.138348719408
 40
191.936284267484
 40
191.936284267484
 40
191.936284267484
 40
192.681780591572
 40
192.681780591572
 40
192.681780591572
 40
198.774976560221
 40
198.774976560221
 40
198.774976560221
 40
205.055640564593
 40
205.055640564593
 40
205.055640564593
 40
211.45686133695
 40
211.45686133695
 40
211.45686133695
 40
213.567451769244
 40
213.567451769244
 40
213.567451769244
 40
214.813928060652
 40
214.813928060652
 40
214.813928060652
 40
218.533078984925
 40
218.533078984925
 40
218.533078984925
 40
225.002855512348
 40
225.002855512348
 40
225.002855512348
 40
231.446089985739
 40
231.446089985739
 40
231.446089985739
 40
234.633774123081
 40
234.633774123081
 40
234.633774123081
 40
236.804040566927
 40
236.804040566927
 40
236.804040566927
 40
242.647678351953
 40
242.647678351953
 40
242.647678351953
 40
248.458294512835
 40
248.458294512835
 40
248.458294512835
 40
254.187117816222
 40
254.187117816222
 40
254.187117816222
 40
256.94756308448
 40
256.94756308448
 40
256.94756308448
 40
258.338204496821
 40
258.338204496821
 40
258.338204496821
 40
259.151868935276
 40
259.151868935276
 40
259.151868935276
 40
266.946534885627
 40
266.946534885627
 40
266.946534885627
 40
274.460163775735
 40
274.460163775735
 40
274.460163775735
 40
276.139398190321
 40
276.139398190321
 40
276.139398190321
 40
279.8657133013691
 40
279.8657133013691
 40
279.8657133013691
 40
281.724296791515
 40
281.724296791515
 40
281.724296791515
 40
290.747824449179
 40
290.747824449179
 40
290.747824449179
 40
295.340515471923
 40
295.340515471923
 40
295.340515471923
 40
300.141318833095
 40
300.141318833095
 40
300.141318833095
 40
302.432776669406
 40
302.432776669406
 40
302.432776669406
 40
303.140370949906
 40
303.140370949906
 40
303.140370949906
 40
309.871081367904
 40
309.871081367904
 40
309.871081367904
 40
316.8955006043061
 40
316.8955006043061
 40
316.8955006043061
 40
321.108361043553
 40
321.108361043553
 40
321.108361043553
 40
323.998823790563
 40
323.998823790563
 40
323.998823790563
 40
325.832510924107
 40
325.832510924107
 40
325.832510924107
 40
333.746942361296
 40
333.746942361296
 40
333.746942361296
 40
343.915905034557
 40
343.915905034557
 40
343.915905034557
 40
354.205394293443
 40
354.205394293443
 40
354.205394293443
 40
363.184403076272
 40
363.184403076272
 40
363.184403076272
 40
368.725405159696
 40
368.725405159696
 40
368.725405159696
 40
369.910395499739
 40
369.910395499739
 40
369.910395499739
 40
372.163411859101
 40
372.163411859101
 40
372.163411859101
 40
379.893699392007
 40
379.893699392007
 40
379.893699392007
 40
387.559896073266
 40
387.559896073266
 40
387.559896073266
 40
394.867333129143
 40
394.867333129143
 40
394.867333129143
 40
402.041527213063
 40
402.041527213063
 40
402.041527213063
 40
409.045428550513
 40
409.045428550513
 40
409.045428550513
 40
410.558486117045
 40
410.558486117045
 40
410.558486117045
 40
413.494515496212
 40
413.494515496212
 40
413.494515496212
 40
413.494515496212
 10
423.4816333159954
 20
111.4875449835354
 30
0.0
 10
425.5057133896771
 20
110.7281541994813
 30
0.0
 10
427.6036391324809
 20
110.0399385716683
 30
0.0
 10
429.754141871733
 20
109.4282247970716
 30
0.0
 10
432.0061627224975
 20
108.7876340412569
 30
0.0
 10
434.3158416026442
 20
108.2309385499078
 30
0.0
 10
436.6586942213128
 20
107.7642562199716
 30
0.0
 10
438.8216677139664
 20
107.3334047438312
 30
0.0
 10
441.0129154921265
 20
106.9792751078617
 30
0.0
 10
443.2131315769035
 20
106.7066803961318
 30
0.0
 10
444.0802238793169
 20
106.5992524131016
 30
0.0
 10
444.9487086412123
 20
106.5044876219738
 30
0.0
 10
445.8180194771968
 20
106.422564602264
 30
0.0
 10
446.0298534425538
 20
106.4026015724721
 30
0.0
 10
446.2417387485147
 20
106.3834008897403
 30
0.0
 10
446.453659875715
 20
106.3649657703653
 30
0.0
 10
448.155989621662
 20
106.2168792982975
 30
0.0
 10
449.8601487952247
 20
106.1182285991379
 30
0.0
 10
451.5621363611124
 20
106.0702150245684
 30
0.0
 10
453.2535322284435
 20
106.0225002449628
 30
0.0
 10
454.9427841925331
 20
106.024794132667
 30
0.0
 10
456.6259755814993
 20
106.0783258727195
 30
0.0
 10
458.2755688077962
 20
106.1307890663667
 30
0.0
 10
459.9193416820051
 20
106.2324649684016
 30
0.0
 10
461.5536065082086
 20
106.3845603279813
 30
0.0
 10
462.2893605180363
 20
106.453034402004
 30
0.0
 10
463.023187320204
 20
106.531728397259
 30
0.0
 10
463.7547497948991
 20
106.6207558571563
 30
0.0
 10
465.4405934155661
 20
106.8259145148404
 30
0.0
 10
467.1144134800325
 20
107.0859450759904
 30
0.0
 10
468.7754372438561
 20
107.3975172715901
 30
0.0
 10
469.0195416029953
 20
107.4433059790113
 30
0.0
 10
469.2633695681923
 20
107.4902079374888
 30
0.0
 10
469.5069186566176
 20
107.5382126685095
 30
0.0
 10
469.644638156336
 20
107.5653578636821
 30
0.0
 10
469.7822684835591
 20
107.5928556766989
 30
0.0
 10
469.9198091881992
 20
107.6207042160126
 30
0.0
 10
470.0483109073774
 20
107.6467225877248
 30
0.0
 10
470.1767249865196
 20
107.6730451960951
 30
0.0
 10
470.3050513937735
 20
107.6996704304422
 30
0.0
 10
471.3539069307988
 20
107.9172875606208
 30
0.0
 10
472.3969105539306
 20
108.1551177437163
 30
0.0
 10
473.4341324867409
 20
108.4123298489605
 30
0.0
 10
474.5032664012688
 20
108.6774555431357
 30
0.0
 10
475.5662575720463
 20
108.9631742724141
 30
0.0
 10
476.6231679706873
 20
109.268629199795
 30
0.0
 10
477.7003656672343
 20
109.5799473064169
 30
0.0
 10
478.7712470968417
 20
109.9117668243396
 30
0.0
 10
479.8358597568933
 20
110.2632320294664
 30
0.0
 10
480.1868805034531
 20
110.37911603435
 30
0.0
 10
480.5372195958183
 20
110.4971361753945
 30
0.0
 10
480.8868782630489
 20
110.6172628901746
 30
0.0
 10
481.0933803072721
 20
110.6882075413193
 30
0.0
 10
481.2996477355223
 20
110.7598879375352
 30
0.0
 10
481.5056586467593
 20
110.8322901911961
 30
0.0
 10
482.1203399497387
 20
111.048319096425
 30
0.0
 10
482.7327686967473
 20
111.2707854621352
 30
0.0
 10
483.3428194956147
 20
111.4994714512913
 30
0.0
 10
484.4040542826407
 20
111.8972900058278
 30
0.0
 10
485.4580918535587
 20
112.3139326715238
 30
0.0
 10
486.5032799142479
 20
112.7486741000562
 30
0.0
 10
487.5441801239011
 20
113.1816320156004
 30
0.0
 10
488.5763027447383
 20
113.632540215381
 30
0.0
 10
489.5980405697377
 20
114.100637112495
 30
0.0
 10
490.1035285309039
 20
114.3322203429053
 30
0.0
 10
490.6064751301967
 20
114.5680100305399
 30
0.0
 10
491.1066886271459
 20
114.8079101697325
 30
0.0
 10
491.4472482686947
 20
114.971241039264
 30
0.0
 10
491.7865390706687
 20
115.1364761659034
 30
0.0
 10
492.1245079804721
 20
115.3035880354215
 30
0.0
 10
493.0345196968161
 20
115.7535517888574
 30
0.0
 10
493.9349834700753
 20
116.2171347105118
 30
0.0
 10
494.8253181191525
 20
116.6940540992961
 30
0.0
 10
495.7106216048971
 20
117.1682784796943
 30
0.0
 10
496.5859105860917
 20
117.6556892938857
 30
0.0
 10
497.4505854589757
 20
118.1560514014836
 30
0.0
 10
498.3030887778109
 20
118.6493701860573
 30
0.0
 10
499.1452750919187
 20
119.1552785105857
 30
0.0
 10
499.9765359978005
 20
119.6735884906953
 30
0.0
 10
500.3770807716237
 20
119.9233372185408
 30
0.0
 10
500.7750883273413
 20
120.1759659135317
 30
0.0
 10
501.1704873324777
 20
120.4314564264647
 30
0.0
 10
501.3696791937547
 20
120.5601659835126
 30
0.0
 10
501.5682089947299
 20
120.6896018605192
 30
0.0
 10
501.7660906524707
 20
120.819789481598
 30
0.0
 10
501.8818712314867
 20
120.8959622725515
 30
0.0
 10
501.9974232747731
 20
120.9723880604631
 30
0.0
 10
502.1127441270081
 20
121.0490681783011
 30
0.0
 10
503.2174839654537
 20
121.7836411488424
 30
0.0
 10
504.3011324711829
 20
122.5416413771915
 30
0.0
 10
505.3652455811551
 20
123.326767356479
 30
0.0
 10
506.3909920411529
 20
124.0835855803787
 30
0.0
 10
507.3985870540781
 20
124.8656095044859
 30
0.0
 10
508.3894552571137
 20
125.6761146852051
 30
0.0
 10
508.6109061713371
 20
125.8572559436483
 30
0.0
 10
508.8315217106165
 20
126.0398196248568
 30
0.0
 10
509.0513179520467
 20
126.2238419729604
 30
0.0
 10
509.5390581083223
 20
126.6321978585802
 30
0.0
 10
510.0227637751591
 20
127.0477367139879
 30
0.0
 10
510.5025066623169
 20
127.4705022812929
 30
0.0
 10
510.7417892197535
 20
127.6813661186743
 30
0.0
 10
510.9800850491609
 20
127.8940268172294
 30
0.0
 10
511.2174173104963
 20
128.1085025617649
 30
0.0
 10
512.3696788234017
 20
129.149794396653
 30
0.0
 10
513.4991558514239
 20
130.233812445871
 30
0.0
 10
514.6070457612961
 20
131.3613278023002
 30
0.0
 10
515.1709267883507
 20
131.9351975627729
 30
0.0
 10
515.7292160122415
 20
132.5203344876675
 30
0.0
 10
516.2820731082527
 20
133.116835371005
 30
0.0
 10
516.8599822668763
 20
133.7403659833357
 30
0.0
 10
517.4319557578657
 20
134.3763136366231
 30
0.0
 10
517.9977847674577
 20
135.0239769503513
 30
0.0
 10
518.2678590072248
 20
135.3331112897264
 30
0.0
 10
518.5365334309674
 20
135.6449146867821
 30
0.0
 10
518.8037855165577
 20
135.959310730163
 30
0.0
 10
518.8863120392899
 20
136.0563951445456
 30
0.0
 10
518.9687019291109
 20
136.153725557079
 30
0.0
 10
519.050966679218
 20
136.2513142246295
 30
0.0
 10
519.8334775414903
 20
137.1795877839309
 30
0.0
 10
520.6044156832189
 20
138.1309412249384
 30
0.0
 10
521.3630355954317
 20
139.1034050394339
 30
0.0
 10
522.1547594958118
 20
140.1183043741293
 30
0.0
 10
522.9330663000557
 20
141.156196420528
 30
0.0
 10
523.6971314331319
 20
142.2147899731072
 30
0.0
 10
524.1553756898911
 20
142.8496761820356
 30
0.0
 10
524.6084977628373
 20
143.4920076150067
 30
0.0
 10
525.0563242436547
 20
144.1412822409193
 30
0.0
 10
525.3635800330632
 20
144.5867525207549
 30
0.0
 10
525.6683430488767
 20
145.0354911178712
 30
0.0
 10
525.9705582666652
 20
145.487334536275
 30
0.0
 10
526.1622812553092
 20
145.7739804941091
 30
0.0
 10
526.3529802310077
 20
146.0618780831315
 30
0.0
 10
526.5426309748522
 20
146.350969401509
 30
0.0
 10
527.3611881767367
 20
147.5987250172465
 30
0.0
 10
528.1602708412652
 20
148.8687935707131
 30
0.0
 10
528.9390979644322
 20
150.1582730585637
 30
0.0
 10
529.9397843696742
 20
151.815077957812
 30
0.0
 10
530.9070323670702
 20
153.5039269088771
 30
0.0
 10
531.8372713353012
 20
155.2188501069835
 30
0.0
 10
532.7785358653582
 20
156.9540992561539
 30
0.0
 10
533.6819096610047
 20
158.7160455024698
 30
0.0
 10
534.5436571226337
 20
160.4985439928234
 30
0.0
 10
535.2956514959077
 20
162.0540215483743
 30
0.0
 10
536.0159472118032
 20
163.6251507042807
 30
0.0
 10
536.7020325620751
 20
165.2078622674555
 30
0.0
 10
537.1254200926162
 20
166.1845634024157
 30
0.0
 10
537.5357790650007
 20
167.1656755656283
 30
0.0
 10
537.9325130367262
 20
168.1502433690071
 30
0.0
 10
538.0173579649506
 20
168.360801552988
 30
0.0
 10
538.1015794201007
 20
168.5715169371071
 30
0.0
 10
538.1851772321647
 20
168.782394738816
 30
0.0
 10
538.3441213448897
 20
169.1833356756506
 30
0.0
 10
538.5008055806612
 20
169.584850357997
 30
0.0
 10
538.6551841486128
 20
169.9868637264991
 30
0.0
 10
539.1848699248521
 20
171.3662052113864
 30
0.0
 10
539.6874088360197
 20
172.7514183853968
 30
0.0
 10
540.1611998368182
 20
174.1409376651115
 30
0.0
 10
540.6310626954087
 20
175.518936613449
 30
0.0
 10
541.0726519764222
 20
176.9011701572671
 30
0.0
 10
541.4844578046286
 20
178.2861012139778
 30
0.0
 10
541.8769921073587
 20
179.6062208175341
 30
0.0
 10
542.2424653455797
 20
180.9287910110506
 30
0.0
 10
542.5796189774667
 20
182.2524768720057
 30
0.0
 10
542.9106249885701
 20
183.5520267962842
 30
0.0
 10
543.2143345614667
 20
184.8526517919628
 30
0.0
 10
543.4896066393142
 20
186.1530895561978
 30
0.0
 10
543.7583446259982
 20
187.4226590283443
 30
0.0
 10
543.9999790442478
 20
188.6920498180359
 30
0.0
 10
544.2134979290472
 20
189.9600920288508
 30
0.0
 10
544.2596245588612
 20
190.2340280495495
 30
0.0
 10
544.3044392488177
 20
190.5079011579571
 30
0.0
 10
544.3479321170157
 20
190.7816996045297
 30
0.0
 10
544.4323283367197
 20
191.3129948446368
 30
0.0
 10
544.5117473152467
 20
191.8440089671644
 30
0.0
 10
544.5862301267061
 20
192.3747544156622
 30
0.0
  0
ARC
  5
A3
330
1F
100
AcDbEntity
  8
VISIBLE
100
AcDbCircle
 10
514.8778112046487
 20
196.5567773698788
 30
-0.0000000000000015
 40
30.0
100
AcDbArc
 50
351.9871824106046
 51
110.7161308755565
  0
LINE
  5
A4
330
1F
100
AcDbEntity
  8
VISIBLE
100
AcDbLine
 10
504.2656654515453
 20
224.6171116963919
 30
0.0
 11
426.3533158117106
 21
195.1514182116558
 31
0.0
  0
ARC
  5
A5
330
1F
100
AcDbEntity
  8
VISIBLE
100
AcDbCircle
 10
487.0164190638815
 20
271.5498555432407
 30
-0.0000000000000008
 40
30.0
100
AcDbArc
 50
290.7161308755391
 51
46.37743809678857
  0
SPLINE
  5
A6
330
1F
100
AcDbEntity
  8
VISIBLE
100
AcDbSpline
210
0.0
220
0.0
230
1.0
 70
     8
 71
     3
 72
    89
 73
    85
 74
     0
 42
0.000000001
 43
0.0000000499562355
 40
613.585505543292
 40
613.585505543292
 40
613.585505543292
 40
613.585505543292
 40
620.075426458277
 40
620.075426458277
 40
620.075426458277
 40
626.7703718752899
 40
626.7703718752899
 40
626.7703718752899
 40
633.885743261097
 40
633.885743261097
 40
633.885743261097
 40
641.0011146469051
 40
641.0011146469051
 40
641.0011146469051
 40
648.2598898179191
 40
648.2598898179191
 40
648.2598898179191
 40
655.5202541342941
 40
655.5202541342941
 40
655.5202541342941
 40
657.038386382155
 40
657.038386382155
 40
657.038386382155
 40
657.572612013456
 40
657.572612013456
 40
657.572612013456
 40
665.8557825196369
 40
665.8557825196369
 40
665.8557825196369
 40
674.383320531045
 40
674.383320531045
 40
674.383320531045
 40
679.395046637775
 40
679.395046637775
 40
679.395046637775
 40
687.7183818848811
 40
687.7183818848811
 40
687.7183818848811
 40
695.242135974504
 40
695.242135974504
 40
695.242135974504
 40
700.884951541722
 40
700.884951541722
 40
700.884951541722
 40
702.0027088368889
 40
702.0027088368889
 40
702.0027088368889
 40
707.777582963295
 40
707.777582963295
 40
707.777582963295
 40
713.396662815346
 40
713.396662815346
 40
713.396662815346
 40
717.813398243375
 40
717.813398243375
 40
717.813398243375
 40
722.616482365837
 40
722.616482365837
 40
722.616482365837
 40
723.289673298846
 40
723.289673298846
 40
723.289673298846
 40
723.791239717684
 40
723.791239717684
 40
723.791239717684
 40
731.09602585072
 40
731.09602585072
 40
731.09602585072
 40
738.533103434459
 40
738.533103434459
 40
738.533103434459
 40
745.975574104773
 40
745.975574104773
 40
745.975574104773
 40
753.3257294751551
 40
753.3257294751551
 40
753.3257294751551
 40
756.238071223078
 40
756.238071223078
 40
756.238071223078
 40
764.02196638436
 40
764.02196638436
 40
764.02196638436
 40
767.3635878910641
 40
767.3635878910641
 40
767.3635878910641
 40
767.3635878910641
 10
507.7143125100051
 20
293.2676548519218
 30
0.0
 10
506.8437838637387
 20
294.0969683084782
 30
0.0
 10
505.9565938462869
 20
294.9170489818832
 30
0.0
 10
505.0538639462841
 20
295.727641935104
 30
0.0
 10
504.1226157098267
 20
296.5638425064706
 30
0.0
 10
503.1748303840769
 20
297.3899463066524
 30
0.0
 10
502.2117878901392
 20
298.2057001188956
 30
0.0
 10
501.1882687159183
 20
299.0726812474858
 30
0.0
 10
500.1475159826941
 20
299.9279713559192
 30
0.0
 10
499.0911195974127
 20
300.7712997331176
 30
0.0
 10
498.0347232121309
 20
301.6146281103156
 30
0.0
 10
496.9626837590797
 20
302.4459947799736
 30
0.0
 10
495.8766376163227
 20
303.2651629918898
 30
0.0
 10
494.7687032095049
 20
304.1008407879086
 30
0.0
 10
493.6461926020175
 20
304.9238229977416
 30
0.0
 10
492.5116476037679
 20
305.7327684755416
 30
0.0
 10
491.3768542224401
 20
306.5418910537376
 30
0.0
 10
490.2300222017277
 20
307.3369702447686
 30
0.0
 10
489.0737195748057
 20
308.1167094556932
 30
0.0
 10
488.8319382771009
 20
308.2797518581736
 30
0.0
 10
488.5897429579905
 20
308.4421237359726
 30
0.0
 10
488.3471571662211
 20
308.603813518318
 30
0.0
 10
488.2617920421123
 20
308.6607116088306
 30
0.0
 10
488.1763801645871
 20
308.7175241742626
 30
0.0
 10
488.0909174984413
 20
308.7742540727088
 30
0.0
 10
486.7658185250511
 20
309.653851370359
 30
0.0
 10
485.4269680220817
 20
310.5145924771644
 30
0.0
 10
484.0777847864939
 20
311.3546125433936
 30
0.0
 10
482.6887983691265
 20
312.2194146188516
 30
0.0
 10
481.2888615080077
 20
313.062254247114
 30
0.0
 10
479.8817456240603
 20
313.88113314926
 30
0.0
 10
479.0547684354117
 20
314.362397116262
 30
0.0
 10
478.2253122817949
 20
314.8353856961156
 30
0.0
 10
477.3941469484393
 20
315.29970049939
 30
0.0
 10
476.0137706932393
 20
316.0708216032882
 30
0.0
 10
474.628680002594
 20
316.8180161910354
 30
0.0
 10
473.2398139638805
 20
317.5394627636548
 30
0.0
 10
471.9843693339959
 20
318.1916035750056
 30
0.0
 10
470.7258400981958
 20
318.8227060185332
 30
0.0
 10
469.4649247167522
 20
319.4314632140042
 30
0.0
 10
468.5192381806686
 20
319.8880311106074
 30
0.0
 10
467.5722095418808
 20
320.3320305282038
 30
0.0
 10
466.6241345294516
 20
320.7629253556938
 30
0.0
 10
466.436335061458
 20
320.8482791708482
 30
0.0
 10
466.2484904442572
 20
320.9331206503703
 30
0.0
 10
466.0606272461663
 20
321.0174348698512
 30
0.0
 10
465.0900352163496
 20
321.4530428561926
 30
0.0
 10
464.1188224360087
 20
321.8746386599116
 30
0.0
 10
463.1467120857575
 20
322.2819350160442
 30
0.0
 10
462.2008272814308
 20
322.6782433508171
 30
0.0
 10
461.2540925417123
 20
323.0610134647974
 30
0.0
 10
460.3062476106941
 20
323.4299322348559
 30
0.0
 10
459.5612181045601
 20
323.7199114920788
 30
0.0
 10
458.8155025639689
 20
324.0013320175536
 30
0.0
 10
458.0689730459629
 20
324.2740191114492
 30
0.0
 10
457.2571417435639
 20
324.5705591855452
 30
0.0
 10
456.444348220934
 20
324.856771272632
 30
0.0
 10
455.6297691800787
 20
325.1329559565936
 30
0.0
 10
455.515599365322
 20
325.1716654649712
 30
0.0
 10
455.4013944647708
 20
325.2101779499186
 30
0.0
 10
455.2871522004116
 20
325.2484941980192
 30
0.0
 10
455.2020350655754
 20
325.277042032521
 30
0.0
 10
455.1168984497051
 20
325.305480499882
 30
0.0
 10
455.031753465512
 20
325.3338059542134
 30
0.0
 10
453.7917065316023
 20
325.7463363355176
 30
0.0
 10
452.549205655144
 20
326.135128214481
 30
0.0
 10
451.3020137279732
 20
326.5011734352356
 30
0.0
 10
450.0322348521433
 20
326.8738478238256
 30
0.0
 10
448.7575942141049
 20
327.2229440361342
 30
0.0
 10
447.4757245185893
 20
327.549455467985
 30
0.0
 10
446.1929252597918
 20
327.8762036735424
 30
0.0
 10
444.9028871996545
 20
328.1803340120885
 30
0.0
 10
443.6032203165829
 20
328.4627929995609
 30
0.0
 10
442.3196743083454
 20
328.7417484077386
 30
0.0
 10
441.026737521938
 20
328.9995663500858
 30
0.0
 10
439.7220802949115
 20
329.237116223357
 30
0.0
 10
439.2051377926739
 20
329.3312402762895
 30
0.0
 10
438.6863548560412
 20
329.422181862149
 30
0.0
 10
438.1655850014756
 20
329.5099933979882
 30
0.0
 10
436.7737092183572
 20
329.7446896830006
 30
0.0
 10
435.3676397351581
 20
329.9570303770188
 30
0.0
 10
433.949236747114
 20
330.1471334886322
 30
0.0
 10
433.3403171982485
 20
330.228744640002
 30
0.0
 10
432.7291245641805
 20
330.306256794518
 30
0.0
 10
432.1158061032617
 20
330.379676346733
 30
0.0
  0
ARC
  5
A7
330
1F
100
AcDbEntity
  8
VISIBLE
100
AcDbCircle
 10
428.5504307066109
 20
300.5907540874652
 30
-0.0000000000000002
 40
30.0
100
AcDbArc
 50
83.17485204073058
 51
173.3166189853374
  0
LINE
  5
A8
330
1F
100
AcDbEntity
  8
VISIBLE
100
AcDbLine
 10
398.7542972423652
 20
304.0822337997812
 30
0.0
 11
392.4823945991612
 21
250.5580939993697
 31
0.0
  0
ARC
  5
A9
330
1F
100
AcDbEntity
  8
VISIBLE
100
AcDbCircle
 10
422.2785280634059
 20
247.0666142870549
 30
0.0000000000000015
 40
30.0
100
AcDbArc
 50
173.3166189853394
 51
290.7161308755413
  0
LINE
  5
AA
330
1F
100
AcDbEntity
  8
VISIBLE
100
AcDbLine
 10
432.8906738164924
 20
219.006279960564
 30
0.0
 11
497.6285648169659
 21
243.489521216752
 31
0.0
  0
ELLIPSE
  5
AB
330
1F
100
AcDbEntity
  8
VISIBLE
100
AcDbEllipse
 10
378.774413303961
 20
217.0633646795554
 30
0.0000000000139511
 11
-86.53400293594959
 21
-85.08994664557052
 31
1.001814344142667E-11
210
-1.824650845673516E-14
220
1.362920922503167E-13
230
1.0
 40
0.7522676463786614
 41
4.018189293260779
 42
4.168194311435909
  0
ARC
  5
AC
330
1F
100
AcDbEntity
  8
VISIBLE
100
AcDbCircle
 10
369.1444137232403
 20
315.8983078731536
 30
0.0
 40
0.9705237
100
AcDbArc
 50
110.0398723787421
 51
207.9978124741132
  0
LINE
  5
AD
330
1F
100
AcDbEntity
  8
VISIBLE
100
AcDbLine
 10
368.2874747471166
 20
315.442707303598
 30
0.0
 11
368.3708816988129
 21
315.2858255906496
 31
0.0
  0
ARC
  5
AE
330
1F
100
AcDbEntity
  8
VISIBLE
100
AcDbCircle
 10
369.3402813420964
 20
315.8012052044208
 30
0.0000000000000001
 40
1.0978852
100
AcDbArc
 50
207.9972666267002
 51
289.9752896475171
  0
ELLIPSE
  5
AF
330
1F
100
AcDbEntity
  8
VISIBLE
100
AcDbEllipse
 10
379.1596536454272
 20
205.3629398741321
 30
0.0000000000141216
 11
-82.92659503191217
 21
-98.18003067795455
 31
1.002441751472211E-11
210
2.831795982507650E-14
220
-1.260208355592251E-13
230
-1.0
 40
0.7589356408991464
 41
2.217985170632778
 42
2.361525231589172
  0
LINE
  5
B0
330
1F
100
AcDbEntity
  8
VISIBLE
100
AcDbLine
 10
385.7028048436497
 20
319.4203711879167
 30
0.0
 11
386.5970668058255
 21
316.9438990147878
 31
0.0
  0
ARC
  5
B1
330
1F
100
AcDbEntity
  8
VISIBLE
100
AcDbCircle
 10
387.0957721775358
 20
317.1239831074166
 30
0.0
 40
0.5302238
100
AcDbArc
 50
199.8548120674068
 51
316.1497738007866
  0
LINE
  5
B2
330
1F
100
AcDbEntity
  8
VISIBLE
100
AcDbLine
 10
387.478144806701
 20
316.7566569571966
 30
0.0
 11
392.1253682902127
 21
321.594240833619
 31
0.0
  0
ARC
  5
B3
330
1F
100
AcDbEntity
  8
VISIBLE
100
AcDbCircle
 10
391.6578166995595
 20
322.0433941273566
 30
0.0
 40
0.6483388
100
AcDbArc
 50
316.1497738006479
 51
75.1808319653612
  0
LINE
  5
B4
330
1F
100
AcDbEntity
  8
VISIBLE
100
AcDbLine
 10
391.8236417836034
 20
322.6701677808618
 30
0.0
 11
384.7126863805229
 21
324.5515084703428
 31
0.0
  0
ARC
  5
B5
330
1F
100
AcDbEntity
  8
VISIBLE
100
AcDbCircle
 10
384.5803979736463
 20
324.0514943224579
 30
0.0
 40
0.5172179
100
AcDbArc
 50
75.18083196565509
 51
199.8548120674101
  0
LINE
  5
B6
330
1F
100
AcDbEntity
  8
VISIBLE
100
AcDbLine
 10
384.0939254140847
 20
323.8758275371232
 30
0.0
 11
384.9400945719441
 21
321.532538364793
 31
0.0
  0
CIRCLE
  5
B7
330
1F
100
AcDbEntity
  8
VISIBLE
100
AcDbCircle
 10
360.2555451940406
 20
196.7051095361298
 30
0.0
 40
3.2
  0
CIRCLE
  5
B8
330
1F
100
AcDbEntity
  8
VISIBLE
100
AcDbCircle
 10
389.7362572247756
 20
176.0438506656654
 30
0.0
 40
3.2
  0
ARC
  5
B9
330
1F
100
AcDbEntity
  8
VISIBLE
100
AcDbCircle
 10
374.8937898406826
 20
186.3811738116189
 30
0.0
 40
35.0
100
AcDbArc
 50
121.2964914302158
 51
175.6103887189369
  0
ARC
  5
BA
330
1F
100
AcDbEntity
  8
VISIBLE
100
AcDbCircle
 10
341.1284486737531
 20
241.9230655320216
 30
-0.0000000000000005
 40
30.0
100
AcDbArc
 50
301.296491430208
 51
353.3166189853773
  0
LINE
  5
BB
330
1F
100
AcDbEntity
  8
VISIBLE
100
AcDbLine
 10
370.9245821379812
 20
238.4315858197287
 30
0.0
 11
374.2682682655512
 21
266.9664553675983
 31
0.0
  0
ARC
  5
BC
330
1F
100
AcDbEntity
  8
VISIBLE
100
AcDbCircle
 10
344.4721348013239
 20
270.4579350798898
 30
-0.0000000000000008
 40
30.0
100
AcDbArc
 50
353.3166189853798
 51
141.170092447546
  0
SPLINE
  5
BD
330
1F
100
AcDbEntity
  8
VISIBLE
100
AcDbSpline
210
0.0
220
0.0
230
1.0
 70
     8
 71
     3
 72
   179
 73
   175
 74
     0
 42
0.000000001
 43
0.0000000345049842
 40
992.890622671468
 40
992.890622671468
 40
992.890622671468
 40
992.890622671468
 40
998.5325350787441
 40
998.5325350787441
 40
998.5325350787441
 40
1004.61427318644
 40
1004.61427318644
 40
1004.61427318644
 40
1005.84625024893
 40
1005.84625024893
 40
1005.84625024893
 40
1012.23745015726
 40
1012.23745015726
 40
1012.23745015726
 40
1015.4553740791
 40
1015.4553740791
 40
1015.4553740791
 40
1018.45820041663
 40
1018.45820041663
 40
1018.45820041663
 40
1019.3070652887
 40
1019.3070652887
 40
1019.3070652887
 40
1019.82842460549
 40
1019.82842460549
 40
1019.82842460549
 40
1025.05392258598
 40
1025.05392258598
 40
1025.05392258598
 40
1035.73351859012
 40
1035.73351859012
 40
1035.73351859012
 40
1044.25793350931
 40
1044.25793350931
 40
1044.25793350931
 40
1045.59206449388
 40
1045.59206449388
 40
1045.59206449388
 40
1046.31028652227
 40
1046.31028652227
 40
1046.31028652227
 40
1050.08421980782
 40
1050.08421980782
 40
1050.08421980782
 40
1053.85367695715
 40
1053.85367695715
 40
1053.85367695715
 40
1057.69260996557
 40
1057.69260996557
 40
1057.69260996557
 40
1058.91801273551
 40
1058.91801273551
 40
1058.91801273551
 40
1059.7855276057
 40
1059.7855276057
 40
1059.7855276057
 40
1063.01871217343
 40
1063.01871217343
 40
1063.01871217343
 40
1063.45985521644
 40
1063.45985521644
 40
1063.45985521644
 40
1066.98381386092
 40
1066.98381386092
 40
1066.98381386092
 40
1070.43618052015
 40
1070.43618052015
 40
1070.43618052015
 40
1071.99160499588
 40
1071.99160499588
 40
1071.99160499588
 40
1072.45956669473
 40
1072.45956669473
 40
1072.45956669473
 40
1072.81367370852
 40
1072.81367370852
 40
1072.81367370852
 40
1076.56269502856
 40
1076.56269502856
 40
1076.56269502856
 40
1079.84442413875
 40
1079.84442413875
 40
1079.84442413875
 40
1082.6486444234
 40
1082.6486444234
 40
1082.6486444234
 40
1085.05139644508
 40
1085.05139644508
 40
1085.05139644508
 40
1085.67932025339
 40
1085.67932025339
 40
1085.67932025339
 40
1085.95658310989
 40
1085.95658310989
 40
1085.95658310989
 40
1089.71050984168
 40
1089.71050984168
 40
1089.71050984168
 40
1093.7960285984
 40
1093.7960285984
 40
1093.7960285984
 40
1097.83334459762
 40
1097.83334459762
 40
1097.83334459762
 40
1098.81671281592
 40
1098.81671281592
 40
1098.81671281592
 40
1099.53979110482
 40
1099.53979110482
 40
1099.53979110482
 40
1101.87066059684
 40
1101.87066059684
 40
1101.87066059684
 40
1108.40932963412
 40
1108.40932963412
 40
1108.40932963412
 40
1114.99018278636
 40
1114.99018278636
 40
1114.99018278636
 40
1120.86605204466
 40
1120.86605204466
 40
1120.86605204466
 40
1123.36167174012
 40
1123.36167174012
 40
1123.36167174012
 40
1124.61106980987
 40
1124.61106980987
 40
1124.61106980987
 40
1125.30218797973
 40
1125.30218797973
 40
1125.30218797973
 40
1125.88934580252
 40
1125.88934580252
 40
1125.88934580252
 40
1133.61548457787
 40
1133.61548457787
 40
1133.61548457787
 40
1140.26519117832
 40
1140.26519117832
 40
1140.26519117832
 40
1146.63198185618
 40
1146.63198185618
 40
1146.63198185618
 40
1149.83881640268
 40
1149.83881640268
 40
1149.83881640268
 40
1151.04137935762
 40
1151.04137935762
 40
1151.04137935762
 40
1151.83452606891
 40
1151.83452606891
 40
1151.83452606891
 40
1152.45365797044
 40
1152.45365797044
 40
1152.45365797044
 40
1156.79463811422
 40
1156.79463811422
 40
1156.79463811422
 40
1159.45932004219
 40
1159.45932004219
 40
1159.45932004219
 40
1163.7599301741
 40
1163.7599301741
 40
1163.7599301741
 40
1168.26877018282
 40
1168.26877018282
 40
1168.26877018282
 40
1172.87031957104
 40
1172.87031957104
 40
1172.87031957104
 40
1177.50649733383
 40
1177.50649733383
 40
1177.50649733383
 40
1178.67445753771
 40
1178.67445753771
 40
1178.67445753771
 40
1178.67445753771
 10
321.1020222112819
 20
289.2680809975436
 30
0.0
 10
320.4321831466556
 20
288.4362145902228
 30
0.0
 10
319.7686889782063
 20
287.5941781300726
 30
0.0
 10
319.1121832669852
 20
286.7436863799498
 30
0.0
 10
318.4044984407009
 20
285.8268929748754
 30
0.0
 10
317.7049332989087
 20
284.9002739231478
 30
0.0
 10
317.0143111542088
 20
283.9659197225629
 30
0.0
 10
316.8744118974412
 20
283.7766476883216
 30
0.0
 10
316.7348796905496
 20
283.5870580922366
 30
0.0
 10
316.5957215055324
 20
283.3971680981155
 30
0.0
 10
315.8738023997284
 20
282.4120646006819
 30
0.0
 10
315.1619458105213
 20
281.4188787528278
 30
0.0
 10
314.4614673898443
 20
280.420005028085
 30
0.0
 10
314.1087814624824
 20
279.9170791769389
 30
0.0
 10
313.758980636521
 20
279.4127109742384
 30
0.0
 10
313.4122376987029
 20
278.9072046097225
 30
0.0
 10
313.0886723033357
 20
278.4354881049115
 30
0.0
 10
312.7677696444308
 20
277.9627804764213
 30
0.0
 10
312.4497384189585
 20
277.4892904880418
 30
0.0
 10
312.3598346066221
 20
277.3554402505533
 30
0.0
 10
312.2701602802825
 20
277.2215274948956
 30
0.0
 10
312.180720207193
 20
277.0875569448739
 30
0.0
 10
312.1257875354168
 20
277.0052743617117
 30
0.0
 10
312.0709442354899
 20
276.9229714740976
 30
0.0
 10
312.0161966376865
 20
276.8406572742298
 30
0.0
 10
311.4674705431418
 20
276.015635698278
 30
0.0
 10
310.928214577404
 20
275.1892625162307
 30
0.0
 10
310.3996728876386
 20
274.3629120305586
 30
0.0
 10
309.3194673762943
 20
272.6740606755773
 30
0.0
 10
308.2840158698167
 20
270.9853077617502
 30
0.0
 10
307.3113322673364
 20
269.3183313037252
 30
0.0
 10
306.5349397325042
 20
267.9877567217649
 30
0.0
 10
305.7985368466597
 20
266.6710547145556
 30
0.0
 10
305.1112805932054
 20
265.3792322979251
 30
0.0
 10
305.0037201482054
 20
265.1770529895586
 30
0.0
 10
304.8973635261058
 20
264.975483074317
 30
0.0
 10
304.7922383423862
 20
264.7745411316435
 30
0.0
 10
304.7356447818145
 20
264.6663651494325
 30
0.0
 10
304.6794109393443
 20
264.5583766648712
 30
0.0
 10
304.6235255214023
 20
264.4505483417963
 30
0.0
 10
304.3298728198545
 20
263.8839590678769
 30
0.0
 10
304.045915559411
 20
263.3219295836705
 30
0.0
 10
303.7724887697379
 20
262.7652323973367
 30
0.0
 10
303.4993862824473
 20
262.2091954909407
 30
0.0
 10
303.2367897824865
 20
261.6584785674336
 30
0.0
 10
302.9854851027102
 20
261.1138277590349
 30
0.0
 10
302.7295485600886
 20
260.5591383479093
 30
0.0
 10
302.4853238073696
 20
260.0107400751021
 30
0.0
 10
302.2523260852225
 20
259.4676688407577
 30
0.0
 10
302.1779522804488
 20
259.2943183307636
 30
0.0
 10
302.1047220289412
 20
259.1215104646177
 30
0.0
 10
302.0326185288351
 20
258.9492135914152
 30
0.0
 10
301.981573386724
 20
258.8272372883921
 30
0.0
 10
301.9310933655776
 20
258.7055180758725
 30
0.0
 10
301.8811735554056
 20
258.5840477146041
 30
0.0
 10
301.6951249176032
 20
258.1313337485575
 30
0.0
 10
301.516834532616
 20
257.6820285686242
 30
0.0
 10
301.3457848414248
 20
257.2350198481313
 30
0.0
 10
301.3224464332091
 20
257.174028963424
 30
0.0
 10
301.2992428939757
 20
257.1130808617971
 30
0.0
 10
301.2761729767649
 20
257.0521727447785
 30
0.0
 10
301.0918848292586
 20
256.5656237922566
 30
0.0
 10
300.9161187330806
 20
256.0816259422733
 30
0.0
 10
300.7477441315199
 20
255.5974460054288
 30
0.0
 10
300.5827901921196
 20
255.1231025639558
 30
0.0
 10
300.4249317291766
 20
254.6485869104483
 30
0.0
 10
300.2731485918391
 20
254.1713105550396
 30
0.0
 10
300.2047644281282
 20
253.9562791293058
 30
0.0
 10
300.1376139371885
 20
253.7406868403439
 30
0.0
 10
300.0716057380902
 20
253.5242936154683
 30
0.0
 10
300.0517466517323
 20
253.4591900101741
 30
0.0
 10
300.0319909667209
 20
253.3940138890382
 30
0.0
 10
300.0123362094575
 20
253.3287586627961
 30
0.0
 10
299.9974634379921
 20
253.2793799778404
 30
0.0
 10
299.9826498525616
 20
253.2299606024541
 30
0.0
 10
299.9678968052375
 20
253.1805060026296
 30
0.0
 10
299.811702528377
 20
252.6569175339162
 30
0.0
 10
299.6622194008558
 20
252.1291215617136
 30
0.0
 10
299.5183415209618
 20
251.5946932362813
 30
0.0
 10
299.3923971246894
 20
251.1268780804933
 30
0.0
 10
299.2707466747373
 20
250.6539800762614
 30
0.0
 10
299.1526334482506
 20
250.1744075786573
 30
0.0
 10
299.0517063167062
 20
249.7646153988077
 30
0.0
 10
298.9533615060274
 20
249.3499498539999
 30
0.0
 10
298.8571238211947
 20
248.929448212239
 30
0.0
 10
298.7746640754099
 20
248.5691479978114
 30
0.0
 10
298.6937515066302
 20
248.2045647869375
 30
0.0
 10
298.6143492347273
 20
247.8362175526272
 30
0.0
 10
298.5935986218826
 20
247.7399554348296
 30
0.0
 10
298.5729511430368
 20
247.6434362728044
 30
0.0
 10
298.5524061122132
 20
247.5466693747242
 30
0.0
 10
298.5433343524597
 20
247.5039414733117
 30
0.0
 10
298.5342827444849
 20
247.4611661429886
 30
0.0
 10
298.5252478018387
 20
247.4183278475692
 30
0.0
 10
298.4029215979361
 20
246.8383301358246
 30
0.0
 10
298.2837994422927
 20
246.2474810250872
 30
0.0
 10
298.1677637843435
 20
245.6474070339508
 30
0.0
 10
298.0414784594365
 20
244.9943272800378
 30
0.0
 10
297.9188490824583
 20
244.3303212044127
 30
0.0
 10
297.7997071816243
 20
243.6575455654869
 30
0.0
 10
297.6819709696381
 20
242.9927076311493
 30
0.0
 10
297.567640246375
 20
242.319307093473
 30
0.0
 10
297.4565376577747
 20
241.6394684780067
 30
0.0
 10
297.429476423375
 20
241.4738803278215
 30
0.0
 10
297.4026066396745
 20
241.3079103848327
 30
0.0
 10
297.3759256274396
 20
241.1415896148449
 30
0.0
 10
297.356306871908
 20
241.0192926608306
 30
0.0
 10
297.336790174201
 20
240.8968060562834
 30
0.0
 10
297.3173720396181
 20
240.7741266767544
 30
0.0
 10
297.2547769677066
 20
240.3786651791089
 30
0.0
 10
297.1932121263003
 20
239.9812376054162
 30
0.0
 10
297.1326367280036
 20
239.5822169446442
 30
0.0
 10
296.9627076596365
 20
238.4628646819957
 30
0.0
 10
296.8005667195411
 20
237.3309721742149
 30
0.0
 10
296.648415597145
 20
236.1918808348244
 30
0.0
 10
296.4952828743025
 20
235.0454406665323
 30
0.0
 10
296.3522707140529
 20
233.8917116152472
 30
0.0
 10
296.2215843602863
 20
232.7361676980998
 30
0.0
 10
296.1048979807532
 20
231.7044131789955
 30
0.0
 10
295.9980381544882
 20
230.6712137255588
 30
0.0
 10
295.9025343907247
 20
229.6404539682501
 30
0.0
 10
295.861971698915
 20
229.2026660872492
 30
0.0
 10
295.8234569856517
 20
228.7653179942272
 30
0.0
 10
295.7871048086967
 20
228.3287054252058
 30
0.0
 10
295.7689055855542
 20
228.1101212787697
 30
0.0
 10
295.7512483470559
 20
227.8917214593971
 30
0.0
 10
295.7341473011122
 20
227.6735429253791
 30
0.0
 10
295.7246876710227
 20
227.5528550895444
 30
0.0
 10
295.7153982265948
 20
227.4322349622495
 30
0.0
 10
295.7062813572826
 20
227.3116887841093
 30
0.0
 10
295.6985358784782
 20
227.2092755723198
 30
0.0
 10
295.6909153149241
 20
227.1069207364111
 30
0.0
 10
295.6834189293082
 20
227.0045976168144
 30
0.0
 10
295.5847774510991
 20
225.6581749153867
 30
0.0
 10
295.5077090716763
 20
224.3181289300992
 30
0.0
 10
295.4558301087272
 20
222.9929311860572
 30
0.0
 10
295.4111791009747
 20
221.8523645405849
 30
0.0
 10
295.3851878223823
 20
220.7227997093872
 30
0.0
 10
295.3801333677096
 20
219.6096497388566
 30
0.0
 10
295.3752939579699
 20
218.5438594294066
 30
0.0
 10
295.3896482971407
 20
217.4931191880569
 30
0.0
 10
295.424503746562
 20
216.4565914667129
 30
0.0
 10
295.4420597908849
 20
215.9345116507749
 30
0.0
 10
295.464816255905
 20
215.4160369400543
 30
0.0
 10
295.4929361896506
 20
214.9010572813356
 30
0.0
 10
295.5034811648051
 20
214.7079399093165
 30
0.0
 10
295.5147803489064
 20
214.5153140101125
 30
0.0
 10
295.5268422339331
 20
214.3231737143229
 30
0.0
 10
295.5347976132356
 20
214.1964481711089
 30
0.0
 10
295.5430847678807
 20
214.0699338657108
 30
0.0
 10
295.5517061199132
 20
213.9436291061063
 30
0.0
 10
295.558435964469
 20
213.8450353593599
 30
0.0
 10
295.5653697680207
 20
213.7465651862711
 30
0.0
 10
295.5725066596078
 20
213.6482447062695
 30
0.0
 10
295.6225462466428
 20
212.9588806945588
 30
0.0
 10
295.6825824490796
 20
212.276622312044
 30
0.0
 10
295.7529875154135
 20
211.6006873000391
 30
0.0
 10
295.7962051993647
 20
211.1857690669862
 30
0.0
 10
295.8433306856459
 20
210.7732341483341
 30
0.0
 10
295.8944580306295
 20
210.3629072370867
 30
0.0
 10
295.9769739870551
 20
209.7006683209197
 30
0.0
 10
296.0699113365181
 20
209.0441794910296
 30
0.0
 10
296.1730170318144
 20
208.3920487678758
 30
0.0
 10
296.2811149690414
 20
207.7083427342492
 30
0.0
 10
296.4003896117338
 20
207.0294277747968
 30
0.0
 10
296.530602348628
 20
206.3537217508921
 30
0.0
 10
296.6634924797117
 20
205.664122067845
 30
0.0
 10
296.8077752411838
 20
204.9778656372993
 30
0.0
 10
296.9632509957223
 20
204.2932795831164
 30
0.0
 10
297.1198967632746
 20
203.6035417636687
 30
0.0
 10
297.2879048459566
 20
202.9155006618006
 30
0.0
 10
297.4671226757338
 20
202.2274382390822
 30
0.0
 10
297.5122717842697
 20
202.0540994309871
 30
0.0
 10
297.5581325664823
 20
201.8807591878
 30
0.0
 10
297.6047030677794
 20
201.7073898399643
 30
0.0
  0
ARC
  5
BE
330
1F
100
AcDbEntity
  8
VISIBLE
100
AcDbCircle
 10
326.5684056238864
 20
209.5242903920571
 30
0.0000000000000019
 40
30.0
100
AcDbArc
 50
195.1034920602855
 51
279.9546857926883
  0
ARC
  5
BF
330
1F
100
AcDbEntity
  8
VISIBLE
100
AcDbCircle
 10
330.0257907559119
 20
189.8253947872554
 30
0.0
 40
10.0
100
AcDbArc
 50
279.954685792663
 51
355.6103887190181
  0
ARC
  5
C0
330
1F
100
AcDbEntity
  8
VISIBLE
100
AcDbCircle
 10
374.9959012096897
 20
186.3744801007016
 30
-0.0000000000000005
 40
8.0
100
AcDbArc
 50
52.02725467328986
 51
114.5241371977147
  0
LINE
  5
C1
330
1F
100
AcDbEntity
  8
VISIBLE
100
AcDbLine
 10
364.7628714377132
 20
135.0248005727372
 30
0.0
 11
371.6752888218332
 21
193.6527720273568
 31
0.0
  0
ARC
  5
C2
330
1F
100
AcDbEntity
  8
VISIBLE
100
AcDbCircle
 10
366.6013760446181
 20
121.207701714249
 30
0.0
 40
13.93887800559448
100
AcDbArc
 50
97.57926136150671
 51
97.85476279504886
  0
SPLINE
  5
C3
330
1F
100
AcDbEntity
  8
VISIBLE
100
AcDbSpline
210
0.0
220
0.0
230
1.0
 70
     8
 71
     3
 72
    61
 73
    57
 74
     0
 42
0.000000001
 43
0.0000000550402496
 40
12.12298845020228
 40
12.12298845020228
 40
12.12298845020228
 40
12.12298845020228
 40
21.1637993418865
 40
31.7456990128298
 40
42.3275986837731
 40
74.0732976966029
 40
84.6551973675462
 40
126.982796051319
 40
148.146595393206
 40
169.310394735092
 40
183.41959429635
 40
197.528793857608
 40
225.747192980123
 40
239.856392541381
 40
253.965592102638
 40
282.183991225154
 40
310.402390347669
 40
338.620789470185
 40
359.784588812071
 40
380.948388153958
 40
423.275986837731
 40
444.439786179617
 40
465.603585521504
 40
486.76738486339
 40
507.931184205277
 40
550.25878288905
 40
571.422582230937
 40
592.5863815728229
 40
613.75018091471
 40
634.913980256596
 40
656.077779598483
 40
677.241578940369
 40
698.405378282256
 40
719.569177624142
 40
761.8967763079161
 40
777.76962581433
 40
804.224374991689
 40
825.3881743335751
 40
846.551973675462
 40
867.715773017348
 40
888.879572359235
 40
910.043371701121
 40
920.625271372065
 40
931.207171043008
 40
952.370970384894
 40
973.534769726781
 40
994.698569068667
 40
1005.28046873961
 40
1015.86236841055
 40
1058.18996709433
 40
1079.35376643621
 40
1100.5175657781
 40
1121.68136511999
 40
1132.26326479093
 40
1142.84516446187
 40
1185.17276314565
 40
1185.17276314565
 40
1185.17276314565
 40
1185.17276314565
 10
377.8932771973089
 20
129.3799283638657
 30
0.0
 10
379.1000237402629
 20
127.7125171106513
 30
0.0
 10
381.7891705818082
 20
124.1834620380399
 30
0.0
 10
386.1876684558015
 20
119.0730141159912
 30
0.0
 10
394.3379151440902
 20
110.7857404232841
 30
0.0
 10
403.712515702612
 20
103.9267785577049
 30
0.0
 10
421.3246815438618
 20
95.60255185082762
 30
0.0
 10
439.338607057125
 20
91.14817789309602
 30
0.0
 10
460.64818816186
 20
90.8132610460632
 30
0.0
 10
474.4709194247854
 20
92.96067757318342
 30
0.0
 10
485.9758910397853
 20
96.32074121964841
 30
0.0
 10
498.4834508611343
 20
101.3540341919904
 30
0.0
 10
509.9783178100323
 20
107.7901482463287
 30
0.0
 10
520.4540984067959
 20
115.9945220475337
 30
0.0
 10
530.2231120583301
 20
125.5950567750825
 30
0.0
 10
541.0173984929552
 20
140.04622218858
 30
0.0
 10
551.3911006831737
 20
159.9083066926172
 30
0.0
 10
557.8556451270052
 20
179.2517946382503
 30
0.0
 10
560.6087027926362
 20
197.1587973226052
 30
0.0
 10
560.4517866369351
 20
218.4968027269065
 30
0.0
 10
555.8518612988503
 20
239.4831355347118
 30
0.0
 10
548.5045924377822
 20
259.55250453529
 30
0.0
 10
541.6622991734932
 20
273.8274630952228
 30
0.0
 10
533.3591945434167
 20
287.1547881855688
 30
0.0
 10
520.0009748932068
 20
303.3436644650536
 30
0.0
 10
503.2134943867209
 20
317.217321994838
 30
0.0
 10
484.7627093207761
 20
328.6485273353126
 30
0.0
 10
470.5537027300637
 20
335.74047121146
 30
0.0
 10
456.1380907858395
 20
341.0480304706461
 30
0.0
 10
441.3533477617062
 20
344.4697174177461
 30
0.0
 10
425.8430280200296
 20
346.2855280767772
 30
0.0
 10
409.7776484482751
 20
346.5439431862021
 30
0.0
 10
393.5508554747649
 20
345.1021298896736
 30
0.0
 10
372.2954951794355
 20
340.6047047443426
 30
0.0
 10
353.8839399962854
 20
333.201779268975
 30
0.0
 10
336.6276036332858
 20
323.9029202299153
 30
0.0
 10
324.8852073477992
 20
315.5940064064446
 30
0.0
 10
313.1767222376063
 20
303.6143093677063
 30
0.0
 10
303.2097989181835
 20
290.8616290216496
 30
0.0
 10
294.4139238352925
 20
277.4825706376464
 30
0.0
 10
287.6564240476481
 20
264.5316551350116
 30
0.0
 10
284.5985745727165
 20
254.5194245233527
 30
0.0
 10
282.9132110754642
 20
245.8719381023795
 30
0.0
 10
281.5059661335923
 20
236.7511591030124
 30
0.0
 10
280.230603031552
 20
224.603778737723
 30
0.0
 10
280.3883866220575
 20
210.2156364206564
 30
0.0
 10
282.5637749273347
 20
199.1282179948232
 30
0.0
 10
285.2781348504993
 20
190.7394223995284
 30
0.0
 10
290.1169702485366
 20
178.4529846009086
 30
0.0
 10
297.916443920244
 20
165.2106765091827
 30
0.0
 10
309.9227763636133
 20
152.7595780658212
 30
0.0
 10
320.1207446186599
 20
144.8509115780565
 30
0.0
 10
329.1654324547713
 20
140.3134769878875
 30
0.0
 10
336.4884555897731
 20
137.8581935996605
 30
0.0
 10
347.6481180819284
 20
134.9154225963109
 30
0.0
 10
356.9813305827818
 20
133.9514466509425
 30
0.0
 10
364.696454711145
 20
135.0158005974453
 30
0.0
  0
ARC
  5
C4
330
1F
100
AcDbEntity
  8
VISIBLE
100
AcDbCircle
 10
366.6013760446181
 20
121.207701714249
 30
0.0
 40
13.93887800559448
100
AcDbArc
 50
35.89418442302993
 51
62.88636501479971
  0
LINE
  5
C5
330
1F
100
AcDbEntity
  8
VISIBLE
100
AcDbLine
 10
372.9541136864607
 20
133.6147579528884
 30
0.0
 11
379.9181937036666
 21
192.6809082976875
 31
0.0
  0
ENDSEC
  0
SECTION
  2
OBJECTS
  0
DICTIONARY
  5
C
330
0
100
AcDbDictionary
  3
ACAD_GROUP
350
D
  3
ACAD_LAYOUT
350
1A
  3
ACAD_MATERIAL
350
43
  3
ACAD_MLEADERSTYLE
350
12E
  3
ACAD_MLINESTYLE
350
17
  3
ACAD_PLOTSETTINGS
350
19
  3
ACAD_SCALELIST
350
47
  3
ACAD_VISUALSTYLE
350
2A
  3
ACDBHEADERROUNDTRIPXREC
350
10D
  3
ACDBVARIABLEDICTIONARY
350
6C
  3
ONSHAPE_DATA
350
C6
  0
DICTIONARY
  5
72
330
71
100
AcDbDictionary
280
     1
  3
ONSHAPE_VIEW_ID
360
73
  0
DICTIONARY
  5
D
102
{ACAD_REACTORS
330
C
102
}
330
C
100
AcDbDictionary
  0
DICTIONARY
  5
1A
102
{ACAD_REACTORS
330
C
102
}
330
C
100
AcDbDictionary
  0
DICTIONARY
  5
43
102
{ACAD_REACTORS
330
C
102
}
330
C
100
AcDbDictionary
  3
BYBLOCK
350
45
  3
BYLAYER
350
44
  3
GLOBAL
350
46
  0
DICTIONARY
  5
12E
102
{ACAD_REACTORS
330
C
102
}
330
C
100
AcDbDictionary
  0
DICTIONARY
  5
17
102
{ACAD_REACTORS
330
C
102
}
330
C
100
AcDbDictionary
  3
STANDARD
350
18
  0
DICTIONARY
  5
19
102
{ACAD_REACTORS
330
C
102
}
330
C
100
AcDbDictionary
  0
DICTIONARY
  5
47
102
{ACAD_REACTORS
330
C
102
}
330
C
100
AcDbDictionary
  3
A0
350
48
  3
A1
350
49
  3
A2
350
4A
  3
A3
350
4B
  3
A4
350
4C
  3
A5
350
4D
  3
A6
350
4E
  3
A7
350
4F
  3
A8
350
50
  3
A9
350
51
  3
B0
350
52
  3
B1
350
53
  3
B2
350
54
  3
B3
350
55
  3
B4
350
56
  3
B5
350
57
  3
B6
350
58
  3
B7
350
59
  3
B8
350
5A
  3
B9
350
5B
  3
C0
350
5C
  3
C1
350
5D
  3
C2
350
5E
  3
C3
350
5F
  3
C4
350
60
  3
C5
350
61
  3
C6
350
62
  3
C7
350
63
  3
C8
350
64
  3
C9
350
65
  3
D0
350
66
  3
D1
350
67
  3
D2
350
68
  0
DICTIONARY
  5
2A
102
{ACAD_REACTORS
330
C
102
}
330
C
100
AcDbDictionary
  3
2DWIREFRAME
350
2F
  3
BASIC
350
32
  3
BRIGHTEN
350
36
  3
COLORCHANGE
350
3A
  3
CONCEPTUAL
350
34
  3
DIM
350
35
  3
EDGECOLOROFF
350
3D
  3
FACEPATTERN
350
39
  3
FLAT
350
2B
  3
FLATWITHEDGES
350
2C
  3
GOURAUD
350
2D
  3
GOURAUDWITHEDGES
350
2E
  3
HIDDEN
350
31
  3
JITTEROFF
350
3B
  3
LINEPATTERN
350
38
  3
OVERHANGOFF
350
3C
  3
REALISTIC
350
33
  3
SHADED
350
42
  3
SHADED_WITH_EDGES
350
41
  3
SHADES_OF_GRAY
350
3E
  3
SKETCHY
350
3F
  3
THICKEN
350
37
  3
WIREFRAME
350
30
  3
X-RAY
350
40
  0
DICTIONARY
  5
10D
102
{ACAD_REACTORS
330
C
102
}
330
C
100
AcDbDictionary
  3
CEPSNTYPE
350
116
  3
DIMSTYLEDATA
350
12C
  3
FINGERPRINTGUID
350
117
  3
HYPERLINKBASE
350
110
  3
INSUNITS
350
115
  3
LAYOUTDICT
350
112
  3
LWETCUNION
350
114
  3
PLOTSETDICT
350
113
  3
PSVPSCALE
350
119
  3
PUCSBASE
350
11C
  3
PUCSORGBACK
350
122
  3
PUCSORGBOTTOM
350
11E
  3
PUCSORGFRONT
350
121
  3
PUCSORGLEFT
350
11F
  3
PUCSORGRIGHT
350
120
  3
PUCSORGTOP
350
11D
  3
PUCSORTHOREF
350
11A
  3
PUCSORTHOVIEW
350
11B
  3
STYLESHEET
350
111
  3
TSTACKALIGN
350
10E
  3
TSTACKSIZE
350
10F
  3
UCSBASE
350
125
  3
UCSORGBACK
350
12B
  3
UCSORGBOTTOM
350
127
  3
UCSORGFRONT
350
12A
  3
UCSORGLEFT
350
128
  3
UCSORGRIGHT
350
129
  3
UCSORGTOP
350
126
  3
UCSORTHOREF
350
123
  3
UCSORTHOVIEW
350
124
  3
VERSIONGUID
350
118
  0
DICTIONARY
  5
6C
102
{ACAD_REACTORS
330
C
102
}
330
C
100
AcDbDictionary
  3
CANNOSCALE
350
135
  3
CTABLESTYLE
350
12D
  3
DIMASSOC
350
133
  3
HIDETEXT
350
134
  3
MSLTSCALE
350
136
  3
OLEFRAME
350
6D
  3
PSOLHEIGHT
350
130
  3
PSOLWIDTH
350
12F
  0
DICTIONARY
  5
C6
102
{ACAD_REACTORS
330
C
102
}
330
C
100
AcDbDictionary
280
     1
  3
DIM_UNITS
360
C7
  3
ONSHAPE_ANG_TOL_PRECISION
360
CA
  3
ONSHAPE_VSHARP_EXTENSION
360
C9
  3
ONSHAPE_WELD_STANDARD
360
C8
  0
XRECORD
  5
73
102
{ACAD_REACTORS
330
72
102
}
330
72
100
AcDbXrecord
330
0
  0
MATERIAL
  5
45
102
{ACAD_REACTORS
330
43
102
}
102
{ACAD_XDICTIONARY
360
139
102
}
330
43
100
AcDbMaterial
  1
BYBLOCK
  0
MATERIAL
  5
44
102
{ACAD_REACTORS
330
43
102
}
102
{ACAD_XDICTIONARY
360
137
102
}
330
43
100
AcDbMaterial
  1
BYLAYER
  0
MATERIAL
  5
46
102
{ACAD_REACTORS
330
43
102
}
102
{ACAD_XDICTIONARY
360
13B
102
}
330
43
100
AcDbMaterial
  1
GLOBAL
  0
MLINESTYLE
  5
18
102
{ACAD_REACTORS
330
17
102
}
330
17
100
AcDbMlineStyle
  2
Standard
 70
     0
  3

 62
   256
 51
90.0
 52
90.0
 71
     2
 49
0.5
 62
   256
  6
BYLAYER
 49
-0.5
 62
   256
  6
BYLAYER
  0
ACAD_PROXY_OBJECT
  5
48
102
{ACAD_REACTORS
330
47
102
}
330
47
100
AcDbProxyObject
 90
      499
 91
      503
 93
       41
310
903313A31580
  0
ACAD_PROXY_OBJECT
  5
49
102
{ACAD_REACTORS
330
47
102
}
330
47
100
AcDbProxyObject
 90
      499
 91
      503
 93
      105
310
903313A324000000000000004000
  0
ACAD_PROXY_OBJECT
  5
4A
102
{ACAD_REACTORS
330
47
102
}
330
47
100
AcDbProxyObject
 90
      499
 91
      503
 93
      105
310
903313A344000000000000104000
  0
ACAD_PROXY_OBJECT
  5
4B
102
{ACAD_REACTORS
330
47
102
}
330
47
100
AcDbProxyObject
 90
      499
 91
      503
 93
      105
310
903313A354000000000000144000
  0
ACAD_PROXY_OBJECT
  5
4C
102
{ACAD_REACTORS
330
47
102
}
330
47
100
AcDbProxyObject
 90
      499
 91
      503
 93
      105
310
903313A384000000000000204000
  0
ACAD_PROXY_OBJECT
  5
4D
102
{ACAD_REACTORS
330
47
102
}
330
47
100
AcDbProxyObject
 90
      499
 91
      503
 93
      113
310
904313A31304000000000000244000
  0
ACAD_PROXY_OBJECT
  5
4E
102
{ACAD_REACTORS
330
47
102
}
330
47
100
AcDbProxyObject
 90
      499
 91
      503
 93
      113
310
904313A31364000000000000304000
  0
ACAD_PROXY_OBJECT
  5
4F
102
{ACAD_REACTORS
330
47
102
}
330
47
100
AcDbProxyObject
 90
      499
 91
      503
 93
      113
310
904313A32304000000000000344000
  0
ACAD_PROXY_OBJECT
  5
50
102
{ACAD_REACTORS
330
47
102
}
330
47
100
AcDbProxyObject
 90
      499
 91
      503
 93
      113
310
904313A333040000000000003E4000
  0
ACAD_PROXY_OBJECT
  5
51
102
{ACAD_REACTORS
330
47
102
}
330
47
100
AcDbProxyObject
 90
      499
 91
      503
 93
      113
310
904313A34304000000000000444000
  0
ACAD_PROXY_OBJECT
  5
52
102
{ACAD_REACTORS
330
47
102
}
330
47
100
AcDbProxyObject
 90
      499
 91
      503
 93
      113
310
904313A35304000000000000494000
  0
ACAD_PROXY_OBJECT
  5
53
102
{ACAD_REACTORS
330
47
102
}
330
47
100
AcDbProxyObject
 90
      499
 91
      503
 93
      121
310
905313A3130304000000000000594000
  0
ACAD_PROXY_OBJECT
  5
54
102
{ACAD_REACTORS
330
47
102
}
330
47
100
AcDbProxyObject
 90
      499
 91
      503
 93
      105
310
903323A310000000000000010100
  0
ACAD_PROXY_OBJECT
  5
55
102
{ACAD_REACTORS
330
47
102
}
330
47
100
AcDbProxyObject
 90
      499
 91
      503
 93
      105
310
903343A310000000000000410100
  0
ACAD_PROXY_OBJECT
  5
56
102
{ACAD_REACTORS
330
47
102
}
330
47
100
AcDbProxyObject
 90
      499
 91
      503
 93
      105
310
903383A310000000000000810100
  0
ACAD_PROXY_OBJECT
  5
57
102
{ACAD_REACTORS
330
47
102
}
330
47
100
AcDbProxyObject
 90
      499
 91
      503
 93
      113
310
90431303A310000000000000910100
  0
ACAD_PROXY_OBJECT
  5
58
102
{ACAD_REACTORS
330
47
102
}
330
47
100
AcDbProxyObject
 90
      499
 91
      503
 93
      121
310
9053130303A310000000000001650100
  0
ACAD_PROXY_OBJECT
  5
59
102
{ACAD_REACTORS
330
47
102
}
330
47
100
AcDbProxyObject
 90
      499
 91
      503
 93
      257
310
90E312F31323822203D2031272D3022000000000000200FC000000000000284000
  0
ACAD_PROXY_OBJECT
  5
5A
102
{ACAD_REACTORS
330
47
102
}
330
47
100
AcDbProxyObject
 90
      499
 91
      503
 93
      249
310
90D312F363422203D2031272D3022000000000000240FC000000000000284000
  0
ACAD_PROXY_OBJECT
  5
5B
102
{ACAD_REACTORS
330
47
102
}
330
47
100
AcDbProxyObject
 90
      499
 91
      503
 93
      249
310
90D312F333222203D2031272D3022000000000000280FC000000000000284000
  0
ACAD_PROXY_OBJECT
  5
5C
102
{ACAD_REACTORS
330
47
102
}
330
47
100
AcDbProxyObject
 90
      499
 91
      503
 93
      249
310
90D312F313622203D2031272D30220000000000002C0FC000000000000284000
  0
ACAD_PROXY_OBJECT
  5
5D
102
{ACAD_REACTORS
330
47
102
}
330
47
100
AcDbProxyObject
 90
      499
 91
      503
 93
      249
310
90D332F333222203D2031272D30220000000000002E0FC000000000000284000
  0
ACAD_PROXY_OBJECT
  5
5E
102
{ACAD_REACTORS
330
47
102
}
330
47
100
AcDbProxyObject
 90
      499
 91
      503
 93
      241
310
90C312F3822203D2031272D3022000000000000300FC000000000000284000
  0
ACAD_PROXY_OBJECT
  5
5F
102
{ACAD_REACTORS
330
47
102
}
330
47
100
AcDbProxyObject
 90
      499
 91
      503
 93
      249
310
90D332F313622203D2031272D3022000000000000320FC000000000000284000
  0
ACAD_PROXY_OBJECT
  5
60
102
{ACAD_REACTORS
330
47
102
}
330
47
100
AcDbProxyObject
 90
      499
 91
      503
 93
      241
310
90C312F3422203D2031272D3022000000000000340FC000000000000284000
  0
ACAD_PROXY_OBJECT
  5
61
102
{ACAD_REACTORS
330
47
102
}
330
47
100
AcDbProxyObject
 90
      499
 91
      503
 93
      241
310
90C332F3822203D2031272D3022000000000000360FC000000000000284000
  0
ACAD_PROXY_OBJECT
  5
62
102
{ACAD_REACTORS
330
47
102
}
330
47
100
AcDbProxyObject
 90
      499
 91
      503
 93
      241
310
90C312F3222203D2031272D3022000000000000380FC000000000000284000
  0
ACAD_PROXY_OBJECT
  5
63
102
{ACAD_REACTORS
330
47
102
}
330
47
100
AcDbProxyObject
 90
      499
 91
      503
 93
      241
310
90C332F3422203D2031272D30220000000000003A0FC000000000000284000
  0
ACAD_PROXY_OBJECT
  5
64
102
{ACAD_REACTORS
330
47
102
}
330
47
100
AcDbProxyObject
 90
      499
 91
      503
 93
      161
310
90A3122203D2031272D30224000000000000284000
  0
ACAD_PROXY_OBJECT
  5
65
102
{ACAD_REACTORS
330
47
102
}
330
47
100
AcDbProxyObject
 90
      499
 91
      503
 93
      257
310
90E312D312F3222203D2031272D30220000000000003E0FC000000000000284000
  0
ACAD_PROXY_OBJECT
  5
66
102
{ACAD_REACTORS
330
47
102
}
330
47
100
AcDbProxyObject
 90
      499
 91
      503
 93
      225
310
90A3322203D2031272D302200000000000002100000000000000284000
  0
ACAD_PROXY_OBJECT
  5
67
102
{ACAD_REACTORS
330
47
102
}
330
47
100
AcDbProxyObject
 90
      499
 91
      503
 93
      225
310
90A3622203D2031272D302200000000000006100000000000000284000
  0
ACAD_PROXY_OBJECT
  5
68
102
{ACAD_REACTORS
330
47
102
}
330
47
100
AcDbProxyObject
 90
      499
 91
      503
 93
      249
310
90D31272D3022203D2031272D30220000000000000A100000000000000284000
  0
ACAD_PROXY_OBJECT
  5
2F
102
{ACAD_REACTORS
330
2A
102
}
330
2A
100
AcDbProxyObject
 90
      499
 91
      501
 93
      436
310
42CC9915DA5C99599C985B595049028333333333333E33F0000000000000F90107901411070040501600405405064090741402480A0340
1001
ACAD
1000
AcDbSavedByObjectVersion
1070
     0
  0
ACAD_PROXY_OBJECT
  5
32
102
{ACAD_REACTORS
330
2A
102
}
330
2A
100
AcDbProxyObject
 90
      499
 91
      501
 93
      388
310
4150985CDA58D07406404333333333333E33F0000000000000F90107A41107004050150841D405064090741402480A0350
1001
ACAD
1000
AcDbSavedByObjectVersion
1070
     0
  0
ACAD_PROXY_OBJECT
  5
36
102
{ACAD_REACTORS
330
2A
102
}
330
2A
100
AcDbProxyObject
 90
      499
 91
      501
 93
      428
310
42109C9A59DA1D195B90C409028333333333333E33F0000000000000F9010790141107004050150841D405064090741402480A029950
1001
ACAD
1000
AcDbSavedByObjectVersion
1070
     0
  0
ACAD_PROXY_OBJECT
  5
3A
102
{ACAD_REACTORS
330
2A
102
}
330
2A
100
AcDbProxyObject
 90
      499
 91
      501
 93
      452
310
42D0DBDB1BDC90DA185B99D95104090240C333333333333E33F0000000000000F90108901411070040501508421405064090741402480A0350
1001
ACAD
1000
AcDbSavedByObjectVersion
1070
     0
  0
ACAD_PROXY_OBJECT
  5
34
102
{ACAD_REACTORS
330
2A
102
}
330
2A
100
AcDbProxyObject
 90
      499
 91
      501
 93
      500
310
4290DBDB98D95C1D1D585B10940D028333333333333E33F0000000000000F90107902409070040501000000000018199010841D405064090740C02480A0340
1001
ACAD
1000
AcDbSavedByObjectVersion
1070
     0
  0
ACAD_PROXY_OBJECT
  5
35
102
{ACAD_REACTORS
330
2A
102
}
330
2A
100
AcDbProxyObject
 90
      499
 91
      501
 93
      412
310
40D11A5B50B409028333333333333E33F0000000000000F9010790141107004050150841D405064090741402480A02677FFFFFD0
1001
ACAD
1000
AcDbSavedByObjectVersion
1070
     0
  0
ACAD_PROXY_OBJECT
  5
3D
102
{ACAD_REACTORS
330
2A
102
}
330
2A
100
AcDbProxyObject
 90
      499
 91
      501
 93
      452
310
43115919D950DBDB1BDC93D999916409028333333333333E33F0000000000000F9010790141107004050150841D405064090741402480A0350
1001
ACAD
1000
AcDbSavedByObjectVersion
1070
     0
  0
ACAD_PROXY_OBJECT
  5
39
102
{ACAD_REACTORS
330
2A
102
}
330
2A
100
AcDbProxyObject
 90
      499
 91
      501
 93
      444
310
42D19858D95C185D1D195C9B90F409028333333333333E33F0000000000000F9010790141107004050150841D405064090741402480A0350
1001
ACAD
1000
AcDbSavedByObjectVersion
1070
     0
  0
ACAD_PROXY_OBJECT
  5
2B
102
{ACAD_REACTORS
330
2A
102
}
330
2A
100
AcDbProxyObject
 90
      499
 91
      501
 93
      380
310
41119B185D240901404333333333333E33F0000000000000F9010740A907004050150841D405064090741402480A1B50
1001
ACAD
1000
AcDbSavedByObjectVersion
1070
     0
  0
ACAD_PROXY_OBJECT
  5
2C
102
{ACAD_REACTORS
330
2A
102
}
330
2A
100
AcDbProxyObject
 90
      499
 91
      501
 93
      468
310
43519B185D15DA5D1A115919D95CD0140901404333333333333E33F0000000000000F90107409019070040501600405405064090741402480A1B50
1001
ACAD
1000
AcDbSavedByObjectVersion
1070
     0
  0
ACAD_PROXY_OBJECT
  5
2D
102
{ACAD_REACTORS
330
2A
102
}
330
2A
100
AcDbProxyObject
 90
      499
 91
      501
 93
      404
310
41D1DBDD5C985D5910240902404333333333333E33F0000000000000F9010740A9070040501641D405064090741402480A1B50
1001
ACAD
1000
AcDbSavedByObjectVersion
1070
     0
  0
ACAD_PROXY_OBJECT
  5
2E
102
{ACAD_REACTORS
330
2A
102
}
330
2A
100
AcDbProxyObject
 90
      499
 91
      501
 93
      492
310
4411DBDD5C985D5915DA5D1A115919D95CD0340902404333333333333E33F0000000000000F90107409019070040501600405405064090741402480A1B50
1001
ACAD
1000
AcDbSavedByObjectVersion
1070
     0
  0
ACAD_PROXY_OBJECT
  5
31
102
{ACAD_REACTORS
330
2A
102
}
330
2A
100
AcDbProxyObject
 90
      499
 91
      501
 93
      476
310
41921A5919195B90640502408333333333333E33F0000000000000F901079024090700405020000000000001110200405405064090740C02480A0340
1001
ACAD
1000
AcDbSavedByObjectVersion
1070
     0
  0
ACAD_PROXY_OBJECT
  5
3B
102
{ACAD_REACTORS
330
2A
102
}
330
2A
100
AcDbProxyObject
 90
      499
 91
      501
 93
      428
310
42529A5D1D195C93D999914409028333333333333E33F0000000000000F9010790141107004050150A41D405064090741402480A0350
1001
ACAD
1000
AcDbSavedByObjectVersion
1070
     0
  0
ACAD_PROXY_OBJECT
  5
38
102
{ACAD_REACTORS
330
2A
102
}
330
2A
100
AcDbProxyObject
 90
      499
 91
      501
 93
      444
310
42D31A5B995C185D1D195C9B90E409028333333333333E33F0000000000000F9010790141107004050750841D405064090741402483A0350
1001
ACAD
1000
AcDbSavedByObjectVersion
1070
     0
  0
ACAD_PROXY_OBJECT
  5
3C
102
{ACAD_REACTORS
330
2A
102
}
330
2A
100
AcDbProxyObject
 90
      499
 91
      501
 93
      444
310
42D3DD995C9A185B99D3D999915409028333333333333E33F0000000000000F9010790141107004050150941D405064090741402480A0350
1001
ACAD
1000
AcDbSavedByObjectVersion
1070
     0
  0
ACAD_PROXY_OBJECT
  5
33
102
{ACAD_REACTORS
330
2A
102
}
330
2A
100
AcDbProxyObject
 90
      499
 91
      501
 93
      428
310
425499585B1A5CDD1A58D08409038333333333333E33F0000000000000F9010740A907004050150800405405064090740C02480A1B40
1001
ACAD
1000
AcDbSavedByObjectVersion
1070
     0
  0
ACAD_PROXY_OBJECT
  5
42
102
{ACAD_REACTORS
330
2A
102
}
330
2A
100
AcDbProxyObject
 90
      499
 91
      501
 93
      420
310
4194DA1859195911B40902404333333333333E33F0000000000000F9010740A41107004050150800405405064090840C02480A0B40
1001
ACAD
1000
AcDbSavedByObjectVersion
1070
     0
  0
ACAD_PROXY_OBJECT
  5
41
102
{ACAD_REACTORS
330
2A
102
}
330
2A
100
AcDbProxyObject
 90
      499
 91
      501
 93
      516
310
4454DA18591959081DDA5D1A08195919D95CD1A40902404333333333333E33F0000000000000F901074090142907004050250800405405064090740C02480A0B40
1001
ACAD
1000
AcDbSavedByObjectVersion
1070
     0
  0
ACAD_PROXY_OBJECT
  5
3E
102
{ACAD_REACTORS
330
2A
102
}
330
2A
100
AcDbProxyObject
 90
      499
 91
      501
 93
      532
310
4394DA1859195CC81BD98811DC985E5174090240C333333333333E33F0000000000000F901079024090741D01000000000000111010841D405064090740C02480A0340
1001
ACAD
1000
AcDbSavedByObjectVersion
1070
     0
  0
ACAD_PROXY_OBJECT
  5
3F
102
{ACAD_REACTORS
330
2A
102
}
330
2A
100
AcDbProxyObject
 90
      499
 91
      501
 93
      476
310
41D4DAD95D18DA1E51840502408333333333333E33F0000000000000F901079024090741D01000000000000111010B41D405064090741802480A0340
1001
ACAD
1000
AcDbSavedByObjectVersion
1070
     0
  0
ACAD_PROXY_OBJECT
  5
37
102
{ACAD_REACTORS
330
2A
102
}
330
2A
100
AcDbProxyObject
 90
      499
 91
      501
 93
      412
310
41D51A1A58DAD95B90D409028333333333333E33F0000000000000F9010790141107004050150C41D405064090741402480A0350
1001
ACAD
1000
AcDbSavedByObjectVersion
1070
     0
  0
ACAD_PROXY_OBJECT
  5
30
102
{ACAD_REACTORS
330
2A
102
}
330
2A
100
AcDbProxyObject
 90
      499
 91
      501
 93
      420
310
4255DA5C99599C985B595059028333333333333E33F0000000000000F90107901411070040501600405405064090740C02480A0340
1001
ACAD
1000
AcDbSavedByObjectVersion
1070
     0
  0
ACAD_PROXY_OBJECT
  5
40
102
{ACAD_REACTORS
330
2A
102
}
330
2A
100
AcDbProxyObject
 90
      499
 91
      501
 93
      404
310
41560B54985E51940902404000000000000E03F0000000000000F9010740501907004050150841D405064090740C02480A1B40
1001
ACAD
1000
AcDbSavedByObjectVersion
1070
     0
  0
XRECORD
  5
116
102
{ACAD_REACTORS
330
10D
102
}
330
10D
100
AcDbXrecord
 90
        0
  0
XRECORD
  5
12C
102
{ACAD_REACTORS
330
10D
102
}
330
10D
100
AcDbXrecord
1000
DSTYLE
1002
{
1070
   179
 70
     1
1070
   143
 40
0.03937
1070
   285
 70
     8
1070
   176
 70
     7
1070
   177
 70
     7
1070
   178
 70
     7
1070
   371
 70
    13
1070
   372
 70
    13
1070
   340
340
70
1070
   140
 40
3.5
1070
   288
 70
     1
1002
}
  0
XRECORD
  5
117
102
{ACAD_REACTORS
330
10D
102
}
330
10D
100
AcDbXrecord
  1
{EEEE5A5F-500C-AF21-EAD5-95FB94EEDF6B}
  0
XRECORD
  5
110
102
{ACAD_REACTORS
330
10D
102
}
330
10D
100
AcDbXrecord
  1

  0
XRECORD
  5
115
102
{ACAD_REACTORS
330
10D
102
}
330
10D
100
AcDbXrecord
 90
        4
  0
XRECORD
  5
112
102
{ACAD_REACTORS
330
10D
102
}
330
10D
100
AcDbXrecord
340
1A
  0
XRECORD
  5
114
102
{ACAD_REACTORS
330
10D
102
}
330
10D
100
AcDbXrecord
 90
    10269
  0
XRECORD
  5
113
102
{ACAD_REACTORS
330
10D
102
}
330
10D
100
AcDbXrecord
340
19
  0
XRECORD
  5
119
102
{ACAD_REACTORS
330
10D
102
}
330
10D
100
AcDbXrecord
 40
0.0
  0
XRECORD
  5
11C
102
{ACAD_REACTORS
330
10D
102
}
330
10D
100
AcDbXrecord
340
0
  0
XRECORD
  5
122
102
{ACAD_REACTORS
330
10D
102
}
330
10D
100
AcDbXrecord
 10
0.0
 20
0.0
 30
0.0
  0
XRECORD
  5
11E
102
{ACAD_REACTORS
330
10D
102
}
330
10D
100
AcDbXrecord
 10
0.0
 20
0.0
 30
0.0
  0
XRECORD
  5
121
102
{ACAD_REACTORS
330
10D
102
}
330
10D
100
AcDbXrecord
 10
0.0
 20
0.0
 30
0.0
  0
XRECORD
  5
11F
102
{ACAD_REACTORS
330
10D
102
}
330
10D
100
AcDbXrecord
 10
0.0
 20
0.0
 30
0.0
  0
XRECORD
  5
120
102
{ACAD_REACTORS
330
10D
102
}
330
10D
100
AcDbXrecord
 10
0.0
 20
0.0
 30
0.0
  0
XRECORD
  5
11D
102
{ACAD_REACTORS
330
10D
102
}
330
10D
100
AcDbXrecord
 10
0.0
 20
0.0
 30
0.0
  0
XRECORD
  5
11A
102
{ACAD_REACTORS
330
10D
102
}
330
10D
100
AcDbXrecord
340
0
  0
XRECORD
  5
11B
102
{ACAD_REACTORS
330
10D
102
}
330
10D
100
AcDbXrecord
 70
     0
  0
XRECORD
  5
111
102
{ACAD_REACTORS
330
10D
102
}
330
10D
100
AcDbXrecord
  1

  0
XRECORD
  5
10E
102
{ACAD_REACTORS
330
10D
102
}
330
10D
100
AcDbXrecord
 90
        1
  0
XRECORD
  5
10F
102
{ACAD_REACTORS
330
10D
102
}
330
10D
100
AcDbXrecord
 90
       70
  0
XRECORD
  5
125
102
{ACAD_REACTORS
330
10D
102
}
330
10D
100
AcDbXrecord
340
0
  0
XRECORD
  5
12B
102
{ACAD_REACTORS
330
10D
102
}
330
10D
100
AcDbXrecord
 10
0.0
 20
0.0
 30
0.0
  0
XRECORD
  5
127
102
{ACAD_REACTORS
330
10D
102
}
330
10D
100
AcDbXrecord
 10
0.0
 20
0.0
 30
0.0
  0
XRECORD
  5
12A
102
{ACAD_REACTORS
330
10D
102
}
330
10D
100
AcDbXrecord
 10
0.0
 20
0.0
 30
0.0
  0
XRECORD
  5
128
102
{ACAD_REACTORS
330
10D
102
}
330
10D
100
AcDbXrecord
 10
0.0
 20
0.0
 30
0.0
  0
XRECORD
  5
129
102
{ACAD_REACTORS
330
10D
102
}
330
10D
100
AcDbXrecord
 10
0.0
 20
0.0
 30
0.0
  0
XRECORD
  5
126
102
{ACAD_REACTORS
330
10D
102
}
330
10D
100
AcDbXrecord
 10
0.0
 20
0.0
 30
0.0
  0
XRECORD
  5
123
102
{ACAD_REACTORS
330
10D
102
}
330
10D
100
AcDbXrecord
340
0
  0
XRECORD
  5
124
102
{ACAD_REACTORS
330
10D
102
}
330
10D
100
AcDbXrecord
 70
     0
  0
XRECORD
  5
118
102
{ACAD_REACTORS
330
10D
102
}
330
10D
100
AcDbXrecord
  1
{FAEB1C32-E019-11D5-929B-00C0DF256EC4}
  0
DICTIONARYVAR
  5
135
102
{ACAD_REACTORS
330
6C
102
}
330
6C
100
DictionaryVariables
280
     0
  1
1:1
  0
DICTIONARYVAR
  5
12D
102
{ACAD_REACTORS
330
6C
102
}
330
6C
100
DictionaryVariables
280
     0
  1
Onshape-Standard
  0
DICTIONARYVAR
  5
133
102
{ACAD_REACTORS
330
6C
102
}
330
6C
100
DictionaryVariables
280
     0
  1
2
  0
DICTIONARYVAR
  5
134
102
{ACAD_REACTORS
330
6C
102
}
330
6C
100
DictionaryVariables
280
     0
  1
1
  0
DICTIONARYVAR
  5
136
102
{ACAD_REACTORS
330
6C
102
}
330
6C
100
DictionaryVariables
280
     0
  1
1
  0
DICTIONARYVAR
  5
6D
102
{ACAD_REACTORS
330
6C
102
}
330
6C
100
DictionaryVariables
280
     0
  1
0
  0
DICTIONARYVAR
  5
130
102
{ACAD_REACTORS
330
6C
102
}
330
6C
100
DictionaryVariables
280
     0
  1
80.000000
  0
DICTIONARYVAR
  5
12F
102
{ACAD_REACTORS
330
6C
102
}
330
6C
100
DictionaryVariables
280
     0
  1
5.000000
  0
XRECORD
  5
C7
102
{ACAD_REACTORS
330
C6
102
}
330
C6
100
AcDbXrecord
 70
     4
  0
XRECORD
  5
CA
102
{ACAD_REACTORS
330
C6
102
}
330
C6
100
AcDbXrecord
 90
        0
  0
XRECORD
  5
C9
102
{ACAD_REACTORS
330
C6
102
}
330
C6
100
AcDbXrecord
 90
        0
  0
XRECORD
  5
C8
102
{ACAD_REACTORS
330
C6
102
}
330
C6
100
AcDbXrecord
 90
        1
  0
DICTIONARY
  5
139
330
45
100
AcDbDictionary
280
     1
  3
ACAD_XREC_ROUNDTRIP
360
13A
  0
DICTIONARY
  5
137
330
44
100
AcDbDictionary
280
     1
  3
ACAD_XREC_ROUNDTRIP
360
138
  0
DICTIONARY
  5
13B
330
46
100
AcDbDictionary
280
     1
  3
ACAD_XREC_ROUNDTRIP
360
13C
  0
XRECORD
  5
13A
102
{ACAD_REACTORS
330
139
102
}
330
139
100
AcDbXrecord
102
MATERIAL
148
0.0
149
0.0
149
0.0
 93
        0
 94
      127
282
     0
 72
     1
 77
     1
171
     1
175
     1
179
     1
273
     0
  0
XRECORD
  5
138
102
{ACAD_REACTORS
330
137
102
}
330
137
100
AcDbXrecord
102
MATERIAL
148
0.0
149
0.0
149
0.0
 93
        0
 94
      127
282
     0
 72
     1
 77
     1
171
     1
175
     1
179
     1
273
     0
  0
XRECORD
  5
13C
102
{ACAD_REACTORS
330
13B
102
}
330
13B
100
AcDbXrecord
102
MATERIAL
148
0.0
149
0.0
149
0.0
 93
        0
 94
      127
282
     0
 72
     1
 77
     1
171
     1
175
     1
179
     1
273
     0
  0
ENDSEC
  0
EOF
