  0
SECTION
  2
HEADER
  9
$ACADVER
  1
AC1014
  9
$ACADMAINTVER
 70
     9
  9
$DWGCODEPAGE
  3
ANSI_1252
  9
$INSBASE
 10
0.0
 20
0.0
 30
0.0
  9
$EXTMIN
 10
1.000000000000000E+20
 20
1.000000000000000E+20
 30
1.000000000000000E+20
  9
$EXTMAX
 10
-1.000000000000000E+20
 20
-1.000000000000000E+20
 30
-1.000000000000000E+20
  9
$LIMMIN
 10
0.0
 20
0.0
  9
$LIMMAX
 10
420.0
 20
297.0
  9
$ORTHOMODE
 70
     0
  9
$REGENMODE
 70
     1
  9
$FILLMODE
 70
     1
  9
$QTEXTMODE
 70
     0
  9
$MIRRTEXT
 70
     1
  9
$DRAGMODE
 70
     2
  9
$LTSCALE
 40
12.7
  9
$OSMODE
 70
    23
  9
$ATTMODE
 70
     1
  9
$TEXTSIZE
 40
3.5
  9
$TRACEWID
 40
1.0
  9
$TEXTSTYLE
  7
ONSHAPE-STANDARD
  9
$CLAYER
  8
0
  9
$CELTYPE
  6
BYLAYER
  9
$CECOLOR
 62
   256
  9
$CELTSCALE
 40
1.0
  9
$DELOBJ
 70
     1
  9
$DISPSILH
 70
     0
  9
$DIMSCALE
 40
1.0
  9
$DIMASZ
 40
2.5
  9
$DIMEXO
 40
0.625
  9
$DIMDLI
 40
3.75
  9
$DIMRND
 40
0.0
  9
$DIMDLE
 40
0.0
  9
$DIMEXE
 40
1.25
  9
$DIMTP
 40
0.0
  9
$DIMTM
 40
0.0
  9
$DIMTXT
 40
2.5
  9
$DIMCEN
 40
2.5
  9
$DIMTSZ
 40
0.0
  9
$DIMTOL
 70
     0
  9
$DIMLIM
 70
     0
  9
$DIMTIH
 70
     0
  9
$DIMTOH
 70
     0
  9
$DIMSE1
 70
     0
  9
$DIMSE2
 70
     0
  9
$DIMTAD
 70
     1
  9
$DIMZIN
 70
     8
  9
$DIMBLK
  1

  9
$DIMASO
 70
     1
  9
$DIMSHO
 70
     1
  9
$DIMPOST
  1

  9
$DIMAPOST
  1

  9
$DIMALT
 70
     0
  9
$DIMALTD
 70
     3
  9
$DIMALTF
 40
0.03937
  9
$DIMLFAC
 40
1.0
  9
$DIMTOFL
 70
     1
  9
$DIMTVP
 40
0.0
  9
$DIMTIX
 70
     0
  9
$DIMSOXD
 70
     0
  9
$DIMSAH
 70
     0
  9
$DIMBLK1
  1

  9
$DIMBLK2
  1

  9
$DIMSTYLE
  2
ONSHAPE-ISO-25
  9
$DIMCLRD
 70
     7
  9
$DIMCLRE
 70
     7
  9
$DIMCLRT
 70
     7
  9
$DIMTFAC
 40
1.0
  9
$DIMGAP
 40
0.625
  9
$DIMJUST
 70
     0
  9
$DIMSD1
 70
     0
  9
$DIMSD2
 70
     0
  9
$DIMTOLJ
 70
     0
  9
$DIMTZIN
 70
     8
  9
$DIMALTZ
 70
     8
  9
$DIMALTTZ
 70
     0
  9
$DIMFIT
 70
     3
  9
$DIMUPT
 70
     1
  9
$DIMUNIT
 70
     2
  9
$DIMDEC
 70
     2
  9
$DIMTDEC
 70
     3
  9
$DIMALTU
 70
     2
  9
$DIMALTTD
 70
     3
  9
$DIMTXSTY
  7
ONSHAPE-STANDARD-DIMENSION
  9
$DIMAUNIT
 70
     0
  9
$LUNITS
 70
     2
  9
$LUPREC
 70
     4
  9
$SKETCHINC
 40
1.0
  9
$FILLETRAD
 40
10.0
  9
$AUNITS
 70
     0
  9
$AUPREC
 70
     0
  9
$MENU
  1
.
  9
$ELEVATION
 40
0.0
  9
$PELEVATION
 40
0.0
  9
$THICKNESS
 40
0.0
  9
$LIMCHECK
 70
     0
  9
$CHAMFERA
 40
0.0
  9
$CHAMFERB
 40
0.0
  9
$CHAMFERC
 40
0.0
  9
$CHAMFERD
 40
0.0
  9
$SKPOLY
 70
     0
  9
$TDCREATE
 40
2458999.763888889
  9
$TDUPDATE
 40
2458999.763888889
  9
$TDINDWG
 40
0.0
  9
$TDUSRTIMER
 40
0.0
  9
$USRTIMER
 70
     1
  9
$ANGBASE
 50
0.0
  9
$ANGDIR
 70
     0
  9
$PDMODE
 70
     0
  9
$PDSIZE
 40
0.0
  9
$PLINEWID
 40
0.0
  9
$COORDS
 70
     1
  9
$SPLFRAME
 70
     0
  9
$SPLINETYPE
 70
     6
  9
$SPLINESEGS
 70
     8
  9
$ATTDIA
 70
     0
  9
$ATTREQ
 70
     1
  9
$HANDLING
 70
     1
  9
$HANDSEED
  5
156
  9
$SURFTAB1
 70
     6
  9
$SURFTAB2
 70
     6
  9
$SURFTYPE
 70
     6
  9
$SURFU
 70
     6
  9
$SURFV
 70
     6
  9
$UCSNAME
  2

  9
$UCSORG
 10
0.0
 20
0.0
 30
0.0
  9
$UCSXDIR
 10
1.0
 20
0.0
 30
0.0
  9
$UCSYDIR
 10
0.0
 20
1.0
 30
0.0
  9
$PUCSNAME
  2

  9
$PUCSORG
 10
0.0
 20
0.0
 30
0.0
  9
$PUCSXDIR
 10
1.0
 20
0.0
 30
0.0
  9
$PUCSYDIR
 10
0.0
 20
1.0
 30
0.0
  9
$USERI1
 70
     0
  9
$USERI2
 70
     0
  9
$USERI3
 70
     0
  9
$USERI4
 70
     0
  9
$USERI5
 70
     0
  9
$USERR1
 40
0.0
  9
$USERR2
 40
0.0
  9
$USERR3
 40
0.0
  9
$USERR4
 40
0.0
  9
$USERR5
 40
0.0
  9
$WORLDVIEW
 70
     1
  9
$SHADEDGE
 70
     3
  9
$SHADEDIF
 70
    70
  9
$TILEMODE
 70
     1
  9
$MAXACTVP
 70
    64
  9
$PINSBASE
 10
0.0
 20
0.0
 30
0.0
  9
$PLIMCHECK
 70
     0
  9
$PEXTMIN
 10
1.000000000000000E+20
 20
1.000000000000000E+20
 30
1.000000000000000E+20
  9
$PEXTMAX
 10
-1.000000000000000E+20
 20
-1.000000000000000E+20
 30
-1.000000000000000E+20
  9
$PLIMMIN
 10
0.0
 20
0.0
  9
$PLIMMAX
 10
420.0
 20
297.0
  9
$UNITMODE
 70
     0
  9
$VISRETAIN
 70
     1
  9
$PLINEGEN
 70
     0
  9
$PSLTSCALE
 70
     1
  9
$TREEDEPTH
 70
  3020
  9
$PICKSTYLE
 70
     1
  9
$CMLSTYLE
  2
STANDARD
  9
$CMLJUST
 70
     0
  9
$CMLSCALE
 40
20.0
  9
$PROXYGRAPHICS
 70
     1
  9
$MEASUREMENT
 70
     1
  0
ENDSEC
  0
SECTION
  2
CLASSES
  0
CLASS
  1
ACDBDICTIONARYWDFLT
  2
AcDbDictionaryWithDefault
  3
ObjectDBX Classes
 90
        0
280
     0
281
     0
  0
CLASS
  1
VISUALSTYLE
  2
AcDbVisualStyle
  3
ObjectDBX Classes
 90
     4095
280
     0
281
     0
  0
CLASS
  1
MATERIAL
  2
AcDbMaterial
  3
ObjectDBX Classes
 90
     1153
280
     0
281
     0
  0
CLASS
  1
SCALE
  2
AcDbScale
  3
ObjectDBX Classes
 90
     1153
280
     0
281
     0
  0
CLASS
  1
SUN
  2
AcDbSun
  3
SCENEOE
 90
     1153
280
     0
281
     0
  0
CLASS
  1
TABLESTYLE
  2
AcDbTableStyle
  3
ObjectDBX Classes
 90
     4095
280
     0
281
     0
  0
CLASS
  1
DICTIONARYVAR
  2
AcDbDictionaryVar
  3
ObjectDBX Classes
 90
        0
280
     0
281
     0
  0
CLASS
  1
XRECORD
  2
AcDbXrecord
  3
ObjectDBX Classes
 90
        0
280
     0
281
     0
  0
CLASS
  1
LWPOLYLINE
  2
AcDbPolyline
  3
ObjectDBX Classes
 90
        0
280
     0
281
     1
  0
CLASS
  1
HATCH
  2
AcDbHatch
  3
ObjectDBX Classes
 90
        0
280
     0
281
     1
  0
CLASS
  1
ACDBPLACEHOLDER
  2
AcDbPlaceHolder
  3
ObjectDBX Classes
 90
        0
280
     0
281
     0
  0
CLASS
  1
LAYOUT
  2
AcDbLayout
  3
ObjectDBX Classes
 90
        0
280
     0
281
     0
  0
ENDSEC
  0
SECTION
  2
TABLES
  0
TABLE
  2
VPORT
  5
8
330
0
100
AcDbSymbolTable
 70
     1
  0
VPORT
  5
29
330
8
100
AcDbSymbolTableRecord
100
AcDbViewportTableRecord
  2
*ACTIVE
 70
     0
 10
0.0
 20
0.0
 11
1.0
 21
1.0
 12
470.9324926770522
 22
206.5734171308787
 13
0.0
 23
0.0
 14
10.0
 24
10.0
 15
10.0
 25
10.0
 16
0.0
 26
0.0
 36
1.0
 17
0.0
 27
0.0
 37
0.0
 40
238.0072914488374
 41
1.082267951814663
 42
50.0
 43
0.0
 44
0.0
 50
0.0
 51
0.0
 71
     0
 72
   100
 73
     1
 74
     3
 75
     0
 76
     0
 77
     0
 78
     0
  0
ENDTAB
  0
TABLE
  2
LTYPE
  5
5
330
0
100
AcDbSymbolTable
 70
     1
  0
LTYPE
  5
14
330
5
100
AcDbSymbolTableRecord
100
AcDbLinetypeTableRecord
  2
BYBLOCK
 70
     0
  3

 72
    65
 73
     0
 40
0.0
  0
LTYPE
  5
15
330
5
100
AcDbSymbolTableRecord
100
AcDbLinetypeTableRecord
  2
BYLAYER
 70
     0
  3

 72
    65
 73
     0
 40
0.0
  0
LTYPE
  5
16
330
5
100
AcDbSymbolTableRecord
100
AcDbLinetypeTableRecord
  2
CONTINUOUS
 70
     0
  3
Solid line
 72
    65
 73
     0
 40
0.0
  0
ENDTAB
  0
TABLE
  2
LAYER
  5
2
330
0
100
AcDbSymbolTable
 70
     4
  0
LAYER
  5
10
330
2
100
AcDbSymbolTableRecord
100
AcDbLayerTableRecord
  2
0
 70
     0
 62
     7
  6
CONTINUOUS
  0
LAYER
  5
6E
330
2
100
AcDbSymbolTableRecord
100
AcDbLayerTableRecord
  2
DEFPOINTS
 70
     0
 62
     7
  6
CONTINUOUS
  0
LAYER
  5
75
330
2
100
AcDbSymbolTableRecord
100
AcDbLayerTableRecord
  2
ANNOTATION_TEXT
 70
     0
 62
     7
  6
CONTINUOUS
  0
LAYER
  5
78
330
2
100
AcDbSymbolTableRecord
100
AcDbLayerTableRecord
  2
VISIBLE
 70
     0
 62
     7
  6
CONTINUOUS
  0
ENDTAB
  0
TABLE
  2
STYLE
  5
3
330
0
100
AcDbSymbolTable
 70
    27
  0
STYLE
  5
11
330
3
100
AcDbSymbolTableRecord
100
AcDbTextStyleTableRecord
  2
STANDARD
 70
     0
 40
0.0
 41
1.0
 50
0.0
 71
     0
 42
3.5
  3
txt
  4

  0
STYLE
  5
6F
330
3
100
AcDbSymbolTableRecord
100
AcDbTextStyleTableRecord
  2
ONSHAPE-STANDARD
 70
     0
 40
0.0
 41
1.0
 50
0.0
 71
     0
 42
3.5
  3
NotoSans-Regular.ttf
  4

1001
ACAD
1000
Noto Sans
1071
        0
  0
STYLE
  5
71
330
3
100
AcDbSymbolTableRecord
100
AcDbTextStyleTableRecord
  2
ONSHAPE-STANDARD-DIMENSION
 70
     0
 40
0.0
 41
1.0
 50
0.0
 71
     0
 42
3.5
  3

  4

1001
ACAD
1000
Noto Sans
1071
        0
  0
STYLE
  5
77
330
3
100
AcDbSymbolTableRecord
100
AcDbTextStyleTableRecord
  2
ONSHAPE-STANDARD-VIEW-LABE
 70
     0
 40
2.5
 41
1.0
 50
0.0
 71
     0
 42
3.5
  3
Noto Sans
  4

1001
ACAD
1000
Noto Sans
1071
        0
  0
STYLE
  5
E6
330
3
100
AcDbSymbolTableRecord
100
AcDbTextStyleTableRecord
  2
ONSHAPE-STANDARD-BOLD
 70
     0
 40
0.0
 41
1.0
 50
0.0
 71
     0
 42
3.5
  3
NotoSans-Bold.ttf
  4

1001
ACAD
1000
Noto Sans
1071
 33554432
  0
STYLE
  5
E7
330
3
100
AcDbSymbolTableRecord
100
AcDbTextStyleTableRecord
  2
ONSHAPE-STANDARD-FIELDS
 70
     0
 40
0.0
 41
1.0
 50
0.0
 71
     0
 42
3.5
  3

  4

1001
ACAD
1000
Noto Sans
1071
        0
  0
STYLE
  5
E8
330
3
100
AcDbSymbolTableRecord
100
AcDbTextStyleTableRecord
  2
ONSHAPE-STANDARD-TCFIELDS
 70
     0
 40
0.0
 41
1.0
 50
0.0
 71
     0
 42
3.5
  3
NotoSansTC-Regular.otf
  4

1001
ACAD
1000
Noto Sans TC
1071
        0
  0
STYLE
  5
E9
330
3
100
AcDbSymbolTableRecord
100
AcDbTextStyleTableRecord
  2
ONSHAPE-STANDARD-SCFIELDS
 70
     0
 40
0.0
 41
1.0
 50
0.0
 71
     0
 42
3.5
  3
NotoSansSC-Regular.otf
  4

1001
ACAD
1000
Noto Sans SC
1071
        0
  0
STYLE
  5
EA
330
3
100
AcDbSymbolTableRecord
100
AcDbTextStyleTableRecord
  2
ONSHAPE-STANDARD-KOREANFIE
 70
     0
 40
0.0
 41
1.0
 50
0.0
 71
     0
 42
3.5
  3
NotoSansKR-Regular.otf
  4

1001
ACAD
1000
Noto Sans KR
1071
        0
  0
STYLE
  5
EC
330
3
100
AcDbSymbolTableRecord
100
AcDbTextStyleTableRecord
  2
TTFSTYLE
 70
     0
 40
0.0
 41
1.0
 50
0.0
 71
     0
 42
3.5
  3
Verdana.ttf
  4

1001
ACAD
1000
Verdana
1071
       34
  0
STYLE
  5
ED
330
3
100
AcDbSymbolTableRecord
100
AcDbTextStyleTableRecord
  2
ONSHAPE-STANDARD-GTOLERANC
 70
     0
 40
2.5
 41
1.0
 50
0.0
 71
     0
 42
3.5
  3

  4

1001
ACAD
1000
Noto Sans
1071
        0
  0
STYLE
  5
EE
330
3
100
AcDbSymbolTableRecord
100
AcDbTextStyleTableRecord
  2
ONSHAPE-STANDARD-TABLE-DAT
 70
     0
 40
0.0
 41
1.0
 50
0.0
 71
     0
 42
3.5
  3
Noto Sans
  4

1001
ACAD
1000
Noto Sans
1071
        0
  0
STYLE
  5
EF
330
3
100
AcDbSymbolTableRecord
100
AcDbTextStyleTableRecord
  2
ONSHAPE-STANDARD-TABLE-TIT
 70
     0
 40
0.0
 41
1.0
 50
0.0
 71
     0
 42
3.5
  3
Noto Sans
  4

1001
ACAD
1000
Noto Sans
1071
 33554432
  0
STYLE
  5
F0
330
3
100
AcDbSymbolTableRecord
100
AcDbTextStyleTableRecord
  2
ONSHAPE-STANDARD-TABLE-HEA
 70
     0
 40
0.0
 41
1.0
 50
0.0
 71
     0
 42
3.5
  3
Noto Sans
  4

1001
ACAD
1000
Noto Sans
1071
 33554432
  0
STYLE
  5
F1
330
3
100
AcDbSymbolTableRecord
100
AcDbTextStyleTableRecord
  2
ONSHAPE-STANDARD-BOMTABLE-
 70
     0
 40
0.0
 41
1.0
 50
0.0
 71
     0
 42
3.5
  3
Noto Sans
  4

1001
ACAD
1000
Noto Sans
1071
        0
  0
STYLE
  5
F2
330
3
100
AcDbSymbolTableRecord
100
AcDbTextStyleTableRecord
  2
ONSHAPE-STANDARD-BOMTABLE0
 70
     0
 40
0.0
 41
1.0
 50
0.0
 71
     0
 42
3.5
  3
Noto Sans
  4

1001
ACAD
1000
Noto Sans
1071
 33554432
  0
STYLE
  5
F3
330
3
100
AcDbSymbolTableRecord
100
AcDbTextStyleTableRecord
  2
ONSHAPE-STANDARD-BOMTABLE1
 70
     0
 40
0.0
 41
1.0
 50
0.0
 71
     0
 42
3.5
  3
Noto Sans
  4

1001
ACAD
1000
Noto Sans
1071
 33554432
  0
STYLE
  5
F4
330
3
100
AcDbSymbolTableRecord
100
AcDbTextStyleTableRecord
  2
ONSHAPE-STANDARD-NOTESTYLE
 70
     0
 40
2.5
 41
1.0
 50
0.0
 71
     0
 42
3.5
  3
Noto Sans
  4

1001
ACAD
1000
Noto Sans
1071
        0
  0
STYLE
  5
F6
330
3
100
AcDbSymbolTableRecord
100
AcDbTextStyleTableRecord
  2
ONSHAPE-STANDARD-HOLE-CALL
 70
     0
 40
2.5
 41
1.0
 50
0.0
 71
     0
 42
3.5
  3
Noto Sans
  4

1001
ACAD
1000
Noto Sans
1071
        0
  0
STYLE
  5
F7
330
3
100
AcDbSymbolTableRecord
100
AcDbTextStyleTableRecord
  2
ONSHAPE-STANDARD-HOLETABLE
 70
     0
 40
0.0
 41
1.0
 50
0.0
 71
     0
 42
3.5
  3
Noto Sans
  4

1001
ACAD
1000
Noto Sans
1071
        0
  0
STYLE
  5
F8
330
3
100
AcDbSymbolTableRecord
100
AcDbTextStyleTableRecord
  2
ONSHAPE-STANDARD-HOLETABL0
 70
     0
 40
0.0
 41
1.0
 50
0.0
 71
     0
 42
3.5
  3
Noto Sans
  4

1001
ACAD
1000
Noto Sans
1071
 33554432
  0
STYLE
  5
F9
330
3
100
AcDbSymbolTableRecord
100
AcDbTextStyleTableRecord
  2
ONSHAPE-STANDARD-HOLETABL1
 70
     0
 40
0.0
 41
1.0
 50
0.0
 71
     0
 42
3.5
  3
Noto Sans
  4

1001
ACAD
1000
Noto Sans
1071
 33554432
  0
STYLE
  5
FA
330
3
100
AcDbSymbolTableRecord
100
AcDbTextStyleTableRecord
  2
ONSHAPE-STANDARD-HOLE-TAG
 70
     0
 40
2.0
 41
1.0
 50
0.0
 71
     0
 42
3.5
  3
Noto Sans
  4

1001
ACAD
1000
Noto Sans
1071
        0
  0
STYLE
  5
FB
330
3
100
AcDbSymbolTableRecord
100
AcDbTextStyleTableRecord
  2
ONSHAPE-STANDARD-REVISIONT
 70
     0
 40
0.0
 41
1.0
 50
0.0
 71
     0
 42
3.5
  3
Noto Sans
  4

1001
ACAD
1000
Noto Sans
1071
        0
  0
STYLE
  5
FC
330
3
100
AcDbSymbolTableRecord
100
AcDbTextStyleTableRecord
  2
ONSHAPE-STANDARD-REVISION0
 70
     0
 40
0.0
 41
1.0
 50
0.0
 71
     0
 42
3.5
  3
Noto Sans
  4

1001
ACAD
1000
Noto Sans
1071
 33554432
  0
STYLE
  5
FD
330
3
100
AcDbSymbolTableRecord
100
AcDbTextStyleTableRecord
  2
ONSHAPE-STANDARD-REVISION1
 70
     0
 40
0.0
 41
1.0
 50
0.0
 71
     0
 42
3.5
  3
Noto Sans
  4

1001
ACAD
1000
Noto Sans
1071
 33554432
  0
STYLE
  5
FE
330
3
100
AcDbSymbolTableRecord
100
AcDbTextStyleTableRecord
  2
ONSHAPE-STANDARD-REVISION-
 70
     0
 40
2.0
 41
1.0
 50
0.0
 71
     0
 42
3.5
  3
Noto Sans
  4

1001
ACAD
1000
Noto Sans
1071
        0
  0
ENDTAB
  0
TABLE
  2
VIEW
  5
6
330
0
100
AcDbSymbolTable
 70
     0
  0
ENDTAB
  0
TABLE
  2
UCS
  5
7
330
0
100
AcDbSymbolTable
 70
     0
  0
ENDTAB
  0
TABLE
  2
APPID
  5
9
330
0
100
AcDbSymbolTable
 70
     1
  0
APPID
  5
12
330
9
100
AcDbSymbolTableRecord
100
AcDbRegAppTableRecord
  2
ACAD
 70
     0
  0
ENDTAB
  0
TABLE
  2
DIMSTYLE
  5
A
330
0
100
AcDbSymbolTable
 70
    18
  0
DIMSTYLE
105
27
330
A
100
AcDbSymbolTableRecord
100
AcDbDimStyleTableRecord
  2
ISO-25
 70
     0
  3

  4

  5

  6

  7

 40
1.0
 41
2.5
 42
0.625
 43
3.75
 44
1.25
 45
0.0
 46
0.0
 47
0.0
 48
0.0
140
2.5
141
2.5
142
0.0
143
0.03937007874016
144
1.0
145
0.0
146
1.0
147
0.625
 71
     0
 72
     0
 73
     0
 74
     0
 75
     0
 76
     0
 77
     1
 78
     8
170
     0
171
     3
172
     1
173
     0
174
     0
175
     0
176
     0
177
     0
178
     0
270
     2
271
     2
272
     2
273
     2
274
     3
340
11
275
     0
280
     0
281
     0
282
     0
283
     0
284
     8
285
     0
286
     0
287
     3
288
     0
  0
DIMSTYLE
105
70
330
A
100
AcDbSymbolTableRecord
100
AcDbDimStyleTableRecord
  2
ONSHAPE-ISO-25
 70
     0
  3

  4

  5

  6

  7

 40
1.0
 41
2.5
 42
0.625
 43
3.75
 44
1.25
 45
0.0
 46
0.0
 47
0.0
 48
0.0
140
2.5
141
2.5
142
0.0
143
0.03937
144
1.0
145
0.0
146
1.0
147
0.625
 71
     0
 72
     0
 73
     0
 74
     0
 75
     0
 76
     0
 77
     1
 78
     8
170
     0
171
     3
172
     1
173
     0
174
     0
175
     0
176
     7
177
     7
178
     7
179
     1
270
     2
271
     2
272
     3
273
     2
274
     3
340
71
275
     0
280
     0
281
     0
282
     0
283
     0
284
     8
285
     8
286
     0
287
     3
288
     1
  0
DIMSTYLE
105
101
330
A
100
AcDbSymbolTableRecord
100
AcDbDimStyleTableRecord
  2
ISO
 70
     0
  3

  4
"
  5

  6

  7

 40
1.0
 41
3.5
 42
1.0
 43
10.0
 44
1.0
 45
0.0
 46
0.0
 47
0.1
 48
0.1
140
2.5
141
0.0
142
0.0
143
0.03937
144
1.0
145
0.0
146
0.71
147
1.5
 71
     0
 72
     0
 73
     0
 74
     0
 75
     0
 76
     0
 77
     1
 78
     8
170
     0
171
     3
172
     1
173
     0
174
     0
175
     0
176
     7
177
     7
178
     7
270
     2
271
     2
272
     3
273
     2
274
     3
340
11
275
     0
280
     0
281
     0
282
     0
283
     0
284
     8
285
     8
286
     0
287
     3
288
     1
  0
DIMSTYLE
105
102
330
A
100
AcDbSymbolTableRecord
100
AcDbDimStyleTableRecord
  2
ISO$3
 70
     0
  3

  4
"
  5

  6

  7

 40
1.0
 41
3.5
 42
1.0
 43
10.0
 44
1.0
 45
0.0
 46
0.0
 47
0.1
 48
0.1
140
2.5
141
0.0
142
0.0
143
0.03937
144
1.0
145
0.0
146
0.71
147
1.5
 71
     0
 72
     0
 73
     0
 74
     0
 75
     0
 76
     0
 77
     1
 78
     8
170
     0
171
     3
172
     0
173
     0
174
     0
175
     0
176
     7
177
     7
178
     7
270
     2
271
     2
272
     3
273
     2
274
     3
340
11
275
     0
280
     0
281
     0
282
     0
283
     0
284
     8
285
     8
286
     0
288
     1
  0
DIMSTYLE
105
103
330
A
100
AcDbSymbolTableRecord
100
AcDbDimStyleTableRecord
  2
ISO$4
 70
     0
  3

  4
"
  5

  6

  7

 40
1.0
 41
3.5
 42
1.0
 43
10.0
 44
1.0
 45
0.0
 46
0.0
 47
0.1
 48
0.1
140
2.5
141
0.0
142
0.0
143
0.03937
144
1.0
145
0.0
146
0.71
147
1.5
 71
     0
 72
     0
 73
     0
 74
     0
 75
     0
 76
     0
 77
     1
 78
     8
170
     0
171
     3
172
     1
173
     0
174
     0
175
     0
176
     7
177
     7
178
     7
270
     2
271
     2
272
     3
273
     2
274
     3
340
11
275
     0
280
     0
281
     0
282
     0
283
     0
284
     8
285
     8
286
     0
287
     3
288
     1
  0
DIMSTYLE
105
104
330
A
100
AcDbSymbolTableRecord
100
AcDbDimStyleTableRecord
  2
ISO$6
 70
     0
  3

  4
"
  5

  6

  7

 40
1.0
 41
0.5
 42
1.0
 43
10.0
 44
1.0
 45
0.0
 46
0.0
 47
0.1
 48
0.1
140
2.5
141
0.0
142
0.0
143
0.03937
144
1.0
145
0.0
146
0.71
147
1.5
 71
     0
 72
     0
 73
     0
 74
     0
 75
     0
 76
     0
 77
     0
 78
     8
170
     0
171
     3
172
     1
173
     0
174
     0
175
     0
176
     7
177
     7
178
     7
270
     2
271
     2
272
     3
273
     2
274
     3
340
11
275
     0
280
     0
281
     0
282
     0
283
     0
284
     8
285
     8
286
     0
287
     3
288
     1
  0
DIMSTYLE
105
105
330
A
100
AcDbSymbolTableRecord
100
AcDbDimStyleTableRecord
  2
ISO$7
 70
     0
  3

  4
"
  5

  6

  7

 40
1.0
 41
3.5
 42
1.0
 43
10.0
 44
1.0
 45
0.0
 46
0.0
 47
0.1
 48
0.1
140
2.5
141
0.0
142
0.0
143
0.03937
144
1.0
145
0.0
146
0.71
147
1.5
 71
     0
 72
     0
 73
     0
 74
     0
 75
     0
 76
     0
 77
     1
 78
     8
170
     0
171
     3
172
     1
173
     0
174
     0
175
     0
176
     7
177
     7
178
     7
270
     2
271
     2
272
     3
273
     2
274
     3
340
11
275
     0
280
     0
281
     0
282
     0
283
     0
284
     8
285
     8
286
     0
287
     3
288
     1
  0
DIMSTYLE
105
106
330
A
100
AcDbSymbolTableRecord
100
AcDbDimStyleTableRecord
  2
ISO$SF
 70
     0
  3

  4
"
  5

  6

  7

 40
1.0
 41
3.5
 42
1.0
 43
10.0
 44
1.0
 45
0.0
 46
0.0
 47
0.1
 48
0.1
140
2.5
141
0.0
142
0.0
143
0.03937
144
1.0
145
0.0
146
0.71
147
1.5
 71
     0
 72
     0
 73
     0
 74
     0
 75
     1
 76
     1
 77
     1
 78
     8
170
     0
171
     3
172
     1
173
     0
174
     0
175
     0
176
     7
177
     7
178
     7
270
     2
271
     2
272
     3
273
     2
274
     3
340
11
275
     0
280
     0
281
     0
282
     0
283
     0
284
     8
285
     8
286
     0
287
     3
288
     1
  0
DIMSTYLE
105
107
330
A
100
AcDbSymbolTableRecord
100
AcDbDimStyleTableRecord
  2
ISO$SH
 70
     0
  3

  4
"
  5

  6

  7

 40
1.0
 41
3.5
 42
1.0
 43
10.0
 44
1.0
 45
0.0
 46
0.0
 47
0.1
 48
0.1
140
2.5
141
0.0
142
0.0
143
0.03937
144
1.0
145
0.0
146
0.71
147
1.5
 71
     0
 72
     0
 73
     0
 74
     0
 75
     1
 76
     1
 77
     1
 78
     8
170
     0
171
     3
172
     1
173
     0
174
     0
175
     0
176
     7
177
     7
178
     7
270
     2
271
     2
272
     3
273
     2
274
     3
340
11
275
     0
280
     0
281
     0
282
     0
283
     0
284
     8
285
     8
286
     0
287
     3
288
     1
  0
DIMSTYLE
105
10A
330
A
100
AcDbSymbolTableRecord
100
AcDbDimStyleTableRecord
  2
ONSHAPE-ISO-25$0
 70
     0
  3

  4

  5

  6

  7

 40
1.0
 41
2.5
 42
0.625
 43
3.75
 44
1.25
 45
0.0
 46
0.0
 47
0.0
 48
0.0
140
2.5
141
2.5
142
0.0
143
0.03937
144
1.0
145
0.0
146
1.0
147
0.625
 71
     0
 72
     0
 73
     0
 74
     0
 75
     0
 76
     0
 77
     1
 78
     8
170
     0
171
     3
172
     1
173
     0
174
     0
175
     0
176
     7
177
     7
178
     7
179
     1
270
     2
271
     2
272
     3
273
     2
274
     3
340
71
275
     0
280
     0
281
     0
282
     0
283
     0
284
     8
285
     8
286
     0
287
     3
288
     1
  0
DIMSTYLE
105
10B
330
A
100
AcDbSymbolTableRecord
100
AcDbDimStyleTableRecord
  2
ONSHAPE-ISO-25$2
 70
     0
  3

  4

  5

  6

  7

 40
1.0
 41
2.5
 42
0.625
 43
3.75
 44
1.25
 45
0.0
 46
0.0
 47
0.0
 48
0.0
140
2.5
141
2.5
142
0.0
143
0.03937
144
1.0
145
0.0
146
1.0
147
0.625
 71
     0
 72
     0
 73
     0
 74
     0
 75
     0
 76
     0
 77
     1
 78
     8
170
     0
171
     3
172
     1
173
     0
174
     0
175
     0
176
     7
177
     7
178
     7
179
     1
270
     2
271
     2
272
     3
273
     2
274
     3
340
71
275
     0
280
     0
281
     0
282
     0
283
     0
284
     8
285
     8
286
     0
287
     3
288
     1
  0
DIMSTYLE
105
10C
330
A
100
AcDbSymbolTableRecord
100
AcDbDimStyleTableRecord
  2
ONSHAPE-ISO-25$3
 70
     0
  3

  4

  5

  6

  7

 40
1.0
 41
2.5
 42
0.625
 43
3.75
 44
1.25
 45
0.0
 46
0.0
 47
0.0
 48
0.0
140
2.5
141
0.0
142
0.0
143
0.03937
144
1.0
145
0.0
146
1.0
147
0.625
 71
     0
 72
     0
 73
     0
 74
     0
 75
     0
 76
     0
 77
     1
 78
     8
170
     0
171
     3
172
     1
173
     0
174
     0
175
     0
176
     7
177
     7
178
     7
179
     1
270
     2
271
     2
272
     3
273
     2
274
     3
340
71
275
     0
280
     0
281
     0
282
     0
283
     0
284
     8
285
     8
286
     0
287
     3
288
     1
  0
DIMSTYLE
105
10D
330
A
100
AcDbSymbolTableRecord
100
AcDbDimStyleTableRecord
  2
ONSHAPE-ISO-25$4
 70
     0
  3

  4

  5

  6

  7

 40
1.0
 41
2.5
 42
0.625
 43
3.75
 44
1.25
 45
0.0
 46
0.0
 47
0.0
 48
0.0
140
2.5
141
0.0
142
0.0
143
0.03937
144
1.0
145
0.0
146
1.0
147
0.625
 71
     0
 72
     0
 73
     0
 74
     0
 75
     0
 76
     0
 77
     1
 78
     8
170
     0
171
     3
172
     1
173
     0
174
     0
175
     0
176
     7
177
     7
178
     7
179
     1
270
     2
271
     2
272
     3
273
     2
274
     3
340
71
275
     0
280
     0
281
     0
282
     0
283
     0
284
     8
285
     8
286
     0
287
     3
288
     1
  0
DIMSTYLE
105
10E
330
A
100
AcDbSymbolTableRecord
100
AcDbDimStyleTableRecord
  2
ONSHAPE-ISO-25$6
 70
     0
  3

  4

  5

  6

  7

 40
1.0
 41
0.5
 42
0.625
 43
3.75
 44
1.25
 45
0.0
 46
0.0
 47
0.0
 48
0.0
140
2.5
141
2.5
142
0.0
143
0.03937
144
1.0
145
0.0
146
1.0
147
0.625
 71
     0
 72
     0
 73
     0
 74
     0
 75
     0
 76
     0
 77
     1
 78
     8
170
     0
171
     3
172
     1
173
     0
174
     0
175
     0
176
     7
177
     7
178
     7
179
     1
270
     2
271
     2
272
     3
273
     2
274
     3
340
71
275
     0
280
     0
281
     0
282
     0
283
     0
284
     8
285
     8
286
     0
287
     3
288
     1
  0
DIMSTYLE
105
10F
330
A
100
AcDbSymbolTableRecord
100
AcDbDimStyleTableRecord
  2
ONSHAPE-ISO-25$7
 70
     0
  3

  4

  5

  6

  7

 40
1.0
 41
2.5
 42
0.625
 43
3.75
 44
1.25
 45
0.0
 46
0.0
 47
0.0
 48
0.0
140
2.5
141
2.5
142
0.0
143
0.03937
144
1.0
145
0.0
146
1.0
147
0.625
 71
     0
 72
     0
 73
     0
 74
     0
 75
     0
 76
     0
 77
     1
 78
     8
170
     0
171
     3
172
     1
173
     0
174
     0
175
     0
176
     7
177
     7
178
     7
179
     1
270
     2
271
     2
272
     3
273
     2
274
     3
340
71
275
     0
280
     0
281
     0
282
     0
283
     0
284
     8
285
     8
286
     0
287
     3
288
     1
  0
DIMSTYLE
105
110
330
A
100
AcDbSymbolTableRecord
100
AcDbDimStyleTableRecord
  2
ONSHAPE-STANDARD-GTOLERANC
 70
     0
  3

  4

  5

  6

  7

 40
1.0
 41
2.5
 42
0.625
 43
3.75
 44
1.25
 45
0.0
 46
0.0
 47
0.0
 48
0.0
140
2.5
141
2.5
142
0.0
143
0.03937
144
1.0
145
0.0
146
1.0
147
0.625
 71
     0
 72
     0
 73
     0
 74
     0
 75
     0
 76
     0
 77
     1
 78
     8
170
     0
171
     3
172
     1
173
     0
174
     0
175
     0
176
     7
177
     7
178
     7
179
     1
270
     2
271
     2
272
     3
273
     2
274
     3
340
ED
275
     0
280
     0
281
     0
282
     0
283
     0
284
     8
285
     8
286
     0
287
     3
288
     1
  0
DIMSTYLE
105
112
330
A
100
AcDbSymbolTableRecord
100
AcDbDimStyleTableRecord
  2
ONSHAPE-ORDINATESTYLE
 70
     0
  3

  4

  5

  6

  7

 40
1.0
 41
2.5
 42
0.625
 43
3.75
 44
1.25
 45
0.0
 46
0.0
 47
0.0
 48
0.0
140
2.5
141
2.5
142
0.0
143
0.03937
144
1.0
145
0.0
146
1.0
147
0.625
 71
     0
 72
     0
 73
     0
 74
     0
 75
     0
 76
     0
 77
     1
 78
     8
170
     0
171
     3
172
     1
173
     0
174
     0
175
     0
176
     7
177
     7
178
     7
179
     1
270
     2
271
     2
272
     3
273
     2
274
     3
340
71
275
     0
280
     0
281
     0
282
     0
283
     0
284
     8
285
     8
286
     0
287
     3
288
     1
  0
DIMSTYLE
105
113
330
A
100
AcDbSymbolTableRecord
100
AcDbDimStyleTableRecord
  2
ONSHAPE-CHAMFERDIMSTYLE
 70
     0
  3

  4

  5

  6

  7

 40
1.0
 41
2.5
 42
0.625
 43
3.75
 44
1.25
 45
0.0
 46
0.0
 47
0.0
 48
0.0
140
2.5
141
2.5
142
0.0
143
0.03937
144
1.0
145
0.0
146
1.0
147
0.625
 71
     0
 72
     0
 73
     0
 74
     0
 75
     0
 76
     0
 77
     1
 78
     8
170
     0
171
     3
172
     1
173
     0
174
     0
175
     0
176
     7
177
     7
178
     7
179
     1
270
     2
271
     2
272
     3
273
     2
274
     3
340
71
275
     0
280
     0
281
     0
282
     0
283
     0
284
     8
285
     8
286
     0
287
     3
288
     1
  0
ENDTAB
  0
TABLE
  2
BLOCK_RECORD
  5
1
330
0
100
AcDbSymbolTable
 70
     1
  0
BLOCK_RECORD
  5
1F
330
1
100
AcDbSymbolTableRecord
100
AcDbBlockTableRecord
  2
*MODEL_SPACE
  0
BLOCK_RECORD
  5
1B
330
1
100
AcDbSymbolTableRecord
100
AcDbBlockTableRecord
  2
*PAPER_SPACE
  0
ENDTAB
  0
ENDSEC
  0
SECTION
  2
BLOCKS
  0
BLOCK
  5
20
330
1F
100
AcDbEntity
  8
0
100
AcDbBlockBegin
  2
*MODEL_SPACE
 70
     0
 10
0.0
 20
0.0
 30
0.0
  3
*MODEL_SPACE
  1

  0
ENDBLK
  5
21
330
1F
100
AcDbEntity
  8
0
100
AcDbBlockEnd
  0
BLOCK
  5
1C
330
1B
100
AcDbEntity
 67
     1
  8
0
100
AcDbBlockBegin
  2
*PAPER_SPACE
 70
     0
 10
0.0
 20
0.0
 30
0.0
  3
*PAPER_SPACE
  1

  0
ENDBLK
  5
1D
330
1B
100
AcDbEntity
 67
     1
  8
0
100
AcDbBlockEnd
  0
ENDSEC
  0
SECTION
  2
ENTITIES
  0
MTEXT
  5
72
102
{ACAD_XDICTIONARY
360
73
102
}
330
1F
100
AcDbEntity
  8
ANNOTATION_TEXT
 62
     7
 60
     1
100
AcDbMText
 10
470.9324926770522
 20
76.02632995824811
 30
0.0
 40
2.5
 41
0.0
 71
     2
 72
     1
  1

  7
ONSHAPE-STANDARD-VIEW-LABE
1001
ACAD
1000
ACAD_MTEXT_DEFINED_HEIGHT_BEGIN
1070
    46
1040
2.5
1000
ACAD_MTEXT_DEFINED_HEIGHT_END
  0
CIRCLE
  5
7A
330
1F
100
AcDbEntity
  8
VISIBLE
100
AcDbCircle
 10
405.1377922597945
 20
202.0015866498091
 30
0.0
 40
3.2
  0
CIRCLE
  5
7B
330
1F
100
AcDbEntity
  8
VISIBLE
100
AcDbCircle
 10
434.6185042911032
 20
181.3403277789427
 30
0.0
 40
3.2
  0
ARC
  5
7C
330
1F
100
AcDbEntity
  8
VISIBLE
100
AcDbCircle
 10
403.4853899191809
 20
233.5789215347083
 30
-0.0000000000000001
 40
10.0
100
AcDbArc
 50
291.3634958967675
 51
354.975695935444
  0
LINE
  5
7D
330
1F
100
AcDbEntity
  8
VISIBLE
100
AcDbLine
 10
413.4469663014596
 20
232.7031384678437
 30
0.0
 11
416.7179313906695
 21
269.9086632302152
 31
0.0
  0
SPLINE
  5
7E
330
1F
100
AcDbEntity
  8
VISIBLE
100
AcDbSpline
210
0.0
220
0.0
230
1.0
 70
     8
 71
     3
 72
    20
 73
    16
 74
     0
 42
0.000000001
 43
0.000000038085845
 40
-3.57830573831462
 40
-3.57830573831462
 40
-3.57830573831462
 40
-3.57830573831462
 40
-3.06711920426967
 40
-3.06711920426967
 40
-3.06711920426967
 40
-2.55593267022473
 40
-2.55593267022473
 40
-2.55593267022473
 40
-1.53355960213484
 40
-1.53355960213484
 40
-1.53355960213484
 40
-0.5111865340449461
 40
-0.5111865340449461
 40
-0.5111865340449461
 40
0.0
 40
0.0
 40
0.0
 40
0.0
 10
416.7179313906616
 20
269.908663230227
 30
0.0
 10
416.8667511637805
 20
271.6014106619161
 30
0.0
 10
416.7212133314671
 20
273.3167477288278
 30
0.0
 10
416.2981322973253
 20
274.9628680219419
 30
0.0
 10
415.8750512631835
 20
276.608988315056
 30
0.0
 10
415.1744270272135
 20
278.1858918343723
 30
0.0
 10
414.2258387856867
 20
279.5951865239412
 30
0.0
 10
412.3286623026331
 20
282.4137759030789
 30
0.0
 10
409.4396297973526
 20
284.5619299632266
 30
0.0
 10
406.1963846010702
 20
285.5621851647965
 30
0.0
 10
402.9531394047877
 20
286.5624403663664
 30
0.0
 10
399.3556815175033
 20
286.4147967093586
 30
0.0
 10
396.2006035301176
 20
285.1542997608306
 30
0.0
 10
394.6230645364249
 20
284.5240512865664
 30
0.0
 10
393.1561205177067
 20
283.6155894894223
 30
0.0
 10
391.8791553844213
 20
282.4944734201704
 30
0.0
  0
SPLINE
  5
7F
330
1F
100
AcDbEntity
  8
VISIBLE
100
AcDbSpline
210
0.0
220
0.0
230
1.0
 70
     8
 71
     3
 72
    20
 73
    16
 74
     0
 42
0.000000001
 43
0.0000000361698107
 40
-4.94058096398342
 40
-4.94058096398342
 40
-4.94058096398342
 40
-4.94058096398342
 40
-4.074116332079909
 40
-4.074116332079909
 40
-4.074116332079909
 40
-3.10009471842187
 40
-3.10009471842187
 40
-3.10009471842187
 40
-1.63533957398114
 40
-1.63533957398114
 40
-1.63533957398114
 40
-0.6212497184380129
 40
-0.6212497184380129
 40
-0.6212497184380129
 40
0.0
 40
0.0
 40
0.0
 40
0.0
 10
391.8791553844213
 20
282.4944734201704
 30
0.0
 10
388.6157475677561
 20
279.6293529494396
 30
0.0
 10
385.51124789549
 20
276.5423076705548
 30
0.0
 10
382.6375058930154
 20
273.3673480806446
 30
0.0
 10
379.4070372513374
 20
269.7982707643903
 30
0.0
 10
376.495219514607
 20
266.1562529960669
 30
0.0
 10
374.0283966274159
 20
262.6108095980848
 30
0.0
 10
370.3187340657535
 20
257.279093767864
 30
0.0
 10
367.6041542652373
 20
252.1644726460065
 30
0.0
 10
365.3982773717415
 20
246.2081924137793
 30
0.0
 10
363.8710887567971
 20
242.0844974855189
 30
0.0
 10
362.5971056193104
 20
237.5370063601954
 30
0.0
 10
361.64019356044
 20
233.0454552046909
 30
0.0
 10
361.0539719905331
 20
230.2938500333594
 30
0.0
 10
360.589979364392
 20
227.5909000701729
 30
0.0
 10
360.260512998015
 20
225.0316628757985
 30
0.0
  0
SPLINE
  5
80
330
1F
100
AcDbEntity
  8
VISIBLE
100
AcDbSpline
210
0.0
220
0.0
230
1.0
 70
     8
 71
     3
 72
    11
 73
     7
 74
     0
 42
0.000000001
 43
0.0000000297447241
 40
0.0
 40
0.0
 40
0.0
 40
0.0
 40
0.855316734434073
 40
0.855316734434073
 40
0.855316734434073
 40
1.0
 40
1.0
 40
1.0
 40
1.0
 10
360.2605129980241
 20
225.0316628758005
 30
0.0
 10
359.8406810487775
 20
220.3438275670049
 30
0.0
 10
359.8522433645465
 20
215.7968170718054
 30
0.0
 10
360.266072787321
 20
211.1958633845922
 30
0.0
 10
360.3360751500292
 20
210.4175774264396
 30
0.0
 10
360.4179465340872
 20
209.6372094377984
 30
0.0
 10
360.5112128715929
 20
208.8573965756851
 30
0.0
  0
SPLINE
  5
81
330
1F
100
AcDbEntity
  8
VISIBLE
100
AcDbSpline
210
0.0
220
0.0
230
1.0
 70
     8
 71
     3
 72
    14
 73
    10
 74
     0
 42
0.000000001
 43
0.000000029482951
 40
-2.05134665198628
 40
-2.05134665198628
 40
-2.05134665198628
 40
-2.05134665198628
 40
-1.46524760856163
 40
-1.46524760856163
 40
-1.46524760856163
 40
-0.879148565136979
 40
-0.879148565136979
 40
-0.879148565136979
 40
0.0
 40
0.0
 40
0.0
 40
0.0
 10
360.5112128715865
 20
208.8573965756843
 30
0.0
 10
360.7426265650885
 20
206.9225143932389
 30
0.0
 10
361.3567791973355
 20
205.0362342751318
 30
0.0
 10
362.3058318650882
 20
203.3345060691314
 30
0.0
 10
363.2548845328369
 20
201.6327778631114
 30
0.0
 10
364.538837236095
 20
200.1156015692178
 30
0.0
 10
366.0635848985602
 20
198.9032966993392
 30
0.0
 10
368.350706392258
 20
197.0848393945212
 30
0.0
 10
371.1796165441715
 20
195.952342793737
 30
0.0
 10
374.0913928275535
 20
195.6963507433234
 30
0.0
  0
LINE
  5
82
330
1F
100
AcDbEntity
  8
VISIBLE
100
AcDbLine
 10
374.0913928275652
 20
195.6963507433313
 30
0.0
 11
376.1719092770928
 21
195.5134398257331
 31
0.0
  0
ARC
  5
83
330
1F
100
AcDbEntity
  8
VISIBLE
100
AcDbCircle
 10
377.0476923439377
 20
205.4750162080156
 30
0.0000000000000001
 40
10.0
100
AcDbArc
 50
264.9756959355578
 51
342.1361075285527
  0
ARC
  5
84
330
1F
100
AcDbEntity
  8
VISIBLE
100
AcDbCircle
 10
419.8781482754488
 20
191.6709572143759
 30
0.0
 40
35.0
100
AcDbArc
 50
111.3634958967501
 51
162.1361075286029
  0
ARC
  5
85
330
1F
100
AcDbEntity
  8
VISIBLE
100
AcDbCircle
 10
458.3028638355724
 20
215.0919143708387
 30
0.0000000000000007
 40
10.0
100
AcDbArc
 50
211.3634958967535
 51
274.9756959354357
  0
LINE
  5
86
330
1F
100
AcDbEntity
  8
VISIBLE
100
AcDbLine
 10
459.1701954668384
 20
205.1295985837567
 30
0.0
 11
538.1019709025682
 21
212.0014973482137
 31
0.0
  0
SPLINE
  5
87
330
1F
100
AcDbEntity
  8
VISIBLE
100
AcDbSpline
210
0.0
220
0.0
230
1.0
 70
     8
 71
     3
 72
    23
 73
    19
 74
     0
 42
0.000000001
 43
0.0000000477095003
 40
-6.40980043043669
 40
-6.40980043043669
 40
-6.40980043043669
 40
-6.40980043043669
 40
-5.49411465466002
 40
-5.49411465466002
 40
-5.49411465466002
 40
-4.57842887888335
 40
-4.57842887888335
 40
-4.57842887888335
 40
-3.66274310310668
 40
-3.66274310310668
 40
-3.66274310310668
 40
-2.74705732733001
 40
-2.74705732733001
 40
-2.74705732733001
 40
-0.91568577577667
 40
-0.91568577577667
 40
-0.91568577577667
 40
0.0
 40
0.0
 40
0.0
 40
0.0
 10
538.1019709025799
 20
212.0014973482215
 30
0.0
 10
541.1343821523351
 20
212.2655028517779
 30
0.0
 10
544.1254686662239
 20
212.9946188254609
 30
0.0
 10
546.9398836000763
 20
214.155163870296
 30
0.0
 10
549.7542985339285
 20
215.3157089151312
 30
0.0
 10
552.3920418877443
 20
216.9076830311186
 30
0.0
 10
554.7278316017748
 20
218.8582540325221
 30
0.0
 10
557.0636213158054
 20
220.8088250339256
 30
0.0
 10
559.0974573900509
 20
223.117992920745
 30
0.0
 10
560.7434795332205
 20
225.679367025925
 30
0.0
 10
562.389501676389
 20
228.2407411311052
 30
0.0
 10
563.6477098884804
 20
231.054321454646
 30
0.0
 10
564.4468006264657
 20
233.990567706415
 30
0.0
 10
566.044982102437
 20
239.8630602099527
 30
0.0
 10
565.8066936819813
 20
246.2262164264029
 30
0.0
 10
563.7663056382513
 20
251.9604734890858
 30
0.0
 10
562.7461116163869
 20
254.8276020204273
 30
0.0
 10
561.2753926887035
 20
257.537505763327
 30
0.0
 10
559.4411295979667
 20
259.9666405491117
 30
0.0
  0
SPLINE
  5
88
330
1F
100
AcDbEntity
  8
VISIBLE
100
AcDbSpline
210
0.0
220
0.0
230
1.0
 70
     8
 71
     3
 72
    23
 73
    19
 74
     0
 42
0.000000001
 43
0.0000000499613553
 40
0.0
 40
0.0
 40
0.0
 40
0.0
 40
0.110352675105332
 40
0.110352675105332
 40
0.110352675105332
 40
0.304833556431459
 40
0.304833556431459
 40
0.304833556431459
 40
0.521696772746701
 40
0.521696772746701
 40
0.521696772746701
 40
0.709011378535201
 40
0.709011378535201
 40
0.709011378535201
 40
0.903462628152776
 40
0.903462628152776
 40
0.903462628152776
 40
1.0
 40
1.0
 40
1.0
 40
1.0
 10
559.4411295979558
 20
259.9666405491032
 30
0.0
 10
557.0222618105155
 20
263.1699737646912
 30
0.0
 10
554.4666190597623
 20
266.2450816932089
 30
0.0
 10
551.8154758541557
 20
269.1575048837452
 30
0.0
 10
547.1432133407545
 20
274.2902361777495
 30
0.0
 10
542.208392798347
 20
278.8957982698005
 30
0.0
 10
537.0151169897831
 20
282.9401185348248
 30
0.0
 10
531.2241596094083
 20
287.4498898527127
 30
0.0
 10
525.0512854796017
 20
291.300766076325
 30
0.0
 10
518.2238549701516
 20
294.6346280844475
 30
0.0
 10
512.3266932653883
 20
297.5142360623027
 30
0.0
 10
505.919891694315
 20
300.0068621086539
 30
0.0
 10
499.374198550154
 20
302.0432540385106
 30
0.0
 10
492.5791159876526
 20
304.1572320372089
 30
0.0
 10
485.6990632107822
 20
305.7652608148647
 30
0.0
 10
479.2672099091345
 20
306.7990610227802
 30
0.0
 10
476.0740485637119
 20
307.3123020293747
 30
0.0
 10
472.997383952877
 20
307.6850220691467
 30
0.0
 10
470.0068829240254
 20
307.9233344753325
 30
0.0
  0
SPLINE
  5
89
330
1F
100
AcDbEntity
  8
VISIBLE
100
AcDbSpline
210
0.0
220
0.0
230
1.0
 70
     8
 71
     3
 72
    17
 73
    13
 74
     0
 42
0.000000001
 43
0.0000000432962479
 40
-4.7027376784117
 40
-4.7027376784117
 40
-4.7027376784117
 40
-4.7027376784117
 40
-3.35909834172264
 40
-3.35909834172264
 40
-3.35909834172264
 40
-2.01545900503359
 40
-2.01545900503359
 40
-2.01545900503359
 40
-0.671819668344529
 40
-0.671819668344529
 40
-0.671819668344529
 40
0.0
 40
0.0
 40
0.0
 40
0.0
 10
470.0068829240162
 20
307.9233344753425
 30
0.0
 10
465.5563422807996
 20
308.2779971353047
 30
0.0
 10
461.0271258068508
 20
307.6223754204281
 30
0.0
 10
456.8604940657505
 20
306.0210579998605
 30
0.0
 10
452.6938623246501
 20
304.4197405792927
 30
0.0
 10
448.8898153163979
 20
301.8727274530331
 30
0.0
 10
445.8231195743009
 20
298.6294606069453
 30
0.0
 10
442.7564238322037
 20
295.3861937608567
 30
0.0
 10
440.4270793562613
 20
291.4466731949386
 30
0.0
 10
439.0604583807152
 20
287.1967547354443
 30
0.0
 10
438.377147892942
 20
285.0717955056969
 30
0.0
 10
437.934518280268
 20
282.8692368025553
 30
0.0
 10
437.7390150466205
 20
280.6454893145395
 30
0.0
  0
LINE
  5
8A
330
1F
100
AcDbEntity
  8
VISIBLE
100
AcDbLine
 10
437.7390150466085
 20
280.6454893145315
 30
0.0
 11
433.3701190660009
 21
230.9515723341381
 31
0.0
  0
ARC
  5
8B
330
1F
100
AcDbEntity
  8
VISIBLE
100
AcDbCircle
 10
443.3316954482835
 20
230.0757892672931
 30
0.0000000000000007
 40
10.0
100
AcDbArc
 50
174.975695935558
 51
238.5878959742301
  0
ARC
  5
8C
330
1F
100
AcDbEntity
  8
VISIBLE
100
AcDbCircle
 10
419.8781482754488
 20
191.6709572143759
 30
0.0
 40
35.0
100
AcDbArc
 50
31.36349589675008
 51
58.58789597426395
  0
ARC
  5
8D
330
1F
100
AcDbEntity
  8
VISIBLE
100
AcDbCircle
 10
453.2224174538771
 20
161.4524246067565
 30
0.0000000000000004
 40
10.0
100
AcDbArc
 50
137.8152843423924
 51
214.9756959354264
  0
LINE
  5
8E
330
1F
100
AcDbEntity
  8
VISIBLE
100
AcDbLine
 10
445.0284647173792
 20
155.7201354870388
 30
0.0
 11
470.9219979414004
 21
118.7069313400053
 31
0.0
  0
SPLINE
  5
8F
330
1F
100
AcDbEntity
  8
VISIBLE
100
AcDbSpline
210
0.0
220
0.0
230
1.0
 70
     8
 71
     3
 72
    11
 73
     7
 74
     0
 42
0.000000001
 43
0.0000000343142389
 40
-2.12335458008254
 40
-2.12335458008254
 40
-2.12335458008254
 40
-2.12335458008254
 40
-0.910009105749658
 40
-0.910009105749658
 40
-0.910009105749658
 40
0.0
 40
0.0
 40
0.0
 40
0.0
 10
470.9219979414083
 20
118.7069313399936
 30
0.0
 10
473.2344278550897
 20
115.40145580947
 30
0.0
 10
476.2222761115746
 20
112.5706691813942
 30
0.0
 10
479.6456917007614
 20
110.4376976668787
 30
0.0
 10
482.2132533926513
 20
108.8379690309921
 30
0.0
 10
485.0258217091862
 20
107.630761396483
 30
0.0
 10
487.9539770610482
 20
106.8693480288323
 30
0.0
  0
SPLINE
  5
90
330
1F
100
AcDbEntity
  8
VISIBLE
100
AcDbSpline
210
0.0
220
0.0
230
1.0
 70
     8
 71
     3
 72
    26
 73
    22
 74
     0
 42
0.000000001
 43
0.0000000433625271
 40
-13.1776727606001
 40
-13.1776727606001
 40
-13.1776727606001
 40
-13.1776727606001
 40
-12.7068430699237
 40
-12.7068430699237
 40
-12.7068430699237
 40
-11.2922514762923
 40
-11.2922514762923
 40
-11.2922514762923
 40
-10.1492676859151
 40
-10.1492676859151
 40
-10.1492676859151
 40
-8.547674268850221
 40
-8.547674268850221
 40
-8.547674268850221
 40
-7.170553199986729
 40
-7.170553199986729
 40
-7.170553199986729
 40
-5.47855295338215
 40
-5.47855295338215
 40
-5.47855295338215
 40
-5.06187417412187
 40
-5.06187417412187
 40
-5.06187417412187
 40
-5.06187417412187
 10
487.9539770610481
 20
106.8693480288324
 30
0.0
 10
489.9769164509188
 20
106.3433195541427
 30
0.0
 10
491.9612228850524
 20
105.9164156506932
 30
0.0
 10
493.8834449021035
 20
105.5988186848977
 30
0.0
 10
499.6586947647592
 20
104.6446095369326
 30
0.0
 10
504.8827142430713
 20
104.6285809640324
 30
0.0
 10
510.1985861259271
 20
105.391236869271
 30
0.0
 10
514.4937872434659
 20
106.007459488752
 30
0.0
 10
518.9083686625203
 20
107.1508018187807
 30
0.0
 10
523.5076529383185
 20
108.743327792008
 30
0.0
 10
529.9523492510243
 20
110.9748372295862
 30
0.0
 10
536.6807381147962
 20
114.040958228508
 30
0.0
 10
542.8899089130795
 20
117.6623032186981
 30
0.0
 10
548.2288294127407
 20
120.7760962890725
 30
0.0
 10
553.1530590816069
 20
124.306362588366
 30
0.0
 10
557.421832151984
 20
128.2470801093452
 30
0.0
 10
562.6666615653753
 20
133.0888439658801
 30
0.0
 10
566.9865940845093
 20
138.6051509686802
 30
0.0
 10
570.5142795943568
 20
144.8909581501218
 30
0.0
 10
571.3830216024073
 20
146.4389262832734
 30
0.0
 10
572.2035598814477
 20
148.0333474653181
 30
0.0
 10
572.9760044451758
 20
149.6676566746967
 30
0.0
  0
SPLINE
  5
91
330
1F
100
AcDbEntity
  8
VISIBLE
100
AcDbSpline
210
0.0
220
0.0
230
1.0
 70
     8
 71
     3
 72
    20
 73
    16
 74
     0
 42
0.000000001
 43
0.0000000452976548
 40
-6.31467622062632
 40
-6.31467622062632
 40
-6.31467622062632
 40
-6.31467622062632
 40
-5.4125796176797
 40
-5.4125796176797
 40
-5.4125796176797
 40
-4.510483014733079
 40
-4.510483014733079
 40
-4.510483014733079
 40
-2.70628980883985
 40
-2.70628980883985
 40
-2.70628980883985
 40
-0.902096602946617
 40
-0.902096602946617
 40
-0.902096602946617
 40
0.0
 40
0.0
 40
0.0
 40
0.0
 10
572.9760044451758
 20
149.6676566746967
 30
0.0
 10
574.2574445549733
 20
152.3788795521071
 30
0.0
 10
575.1248537565323
 20
155.282690688261
 30
0.0
 10
575.5495067472718
 20
158.2515865097971
 30
0.0
 10
575.9741597380138
 20
161.220482331353
 30
0.0
 10
575.9560565179318
 20
164.2544628382714
 30
0.0
 10
575.4821491463583
 20
167.2150700980518
 30
0.0
 10
574.5343344032103
 20
173.1362846176127
 30
0.0
 10
571.7633030540962
 20
178.7640061486218
 30
0.0
 10
567.6440058219769
 20
183.1160824978687
 30
0.0
 10
563.5247085898575
 20
187.4681588471156
 30
0.0
 10
558.0571454747329
 20
190.5445900146003
 30
0.0
 10
552.1968888909323
 20
191.8151386353327
 30
0.0
 10
549.2667605990323
 20
192.4504129456986
 30
0.0
 10
546.2384589399627
 20
192.6342166193767
 30
0.0
 10
543.2509568901759
 20
192.3741209667527
 30
0.0
  0
LINE
  5
92
330
1F
100
AcDbEntity
  8
VISIBLE
100
AcDbLine
 10
543.250956890164
 20
192.3741209667448
 30
0.0
 11
460.904858729394
 21
185.2049670096086
 31
0.0
  0
ARC
  5
93
330
1F
100
AcDbEntity
  8
VISIBLE
100
AcDbCircle
 10
461.7721903606797
 20
175.2426512225228
 30
-0.0000000000000001
 40
10.0
100
AcDbArc
 50
94.97569593554617
 51
158.5878959742181
  0
ARC
  5
94
330
1F
100
AcDbEntity
  8
VISIBLE
100
AcDbCircle
 10
419.8781482754488
 20
191.6709572143759
 30
0.0
 40
35.0
100
AcDbArc
 50
317.8152843424112
 51
338.5878959742641
  0
ARC
  5
95
330
1F
100
AcDbEntity
  8
VISIBLE
100
AcDbCircle
 10
473.300586650652
 20
164.9476226659781
 30
0.0
 40
148.25
100
AcDbArc
 50
104.6846507163891
 51
114.2718209061149
  0
LINE
  5
96
330
1F
100
AcDbEntity
  8
VISIBLE
100
AcDbLine
 10
435.7193882507685
 20
308.3551399962518
 30
0.0
 11
436.1978182499577
 21
306.5294808549419
 31
0.0
  0
ARC
  5
97
330
1F
100
AcDbEntity
  8
VISIBLE
100
AcDbCircle
 10
436.8749532390304
 20
306.7069300210917
 30
0.0
 40
0.7
100
AcDbArc
 50
194.684650717504
 51
314.68465071615
  0
LINE
  5
98
330
1F
100
AcDbEntity
  8
VISIBLE
100
AcDbLine
 10
437.3671962193341
 20
306.2092385018135
 30
0.0
 11
442.539358206525
 21
311.3247776110633
 31
0.0
  0
ARC
  5
99
330
1F
100
AcDbEntity
  8
VISIBLE
100
AcDbCircle
 10
442.0471152262213
 20
311.8224691303415
 30
0.0
 40
0.7
100
AcDbArc
 50
314.68465071615
 51
74.68465071550533
  0
LINE
  5
9A
330
1F
100
AcDbEntity
  8
VISIBLE
100
AcDbLine
 10
442.2320072350137
 20
312.4976098157329
 30
0.0
 11
435.2157394187557
 21
314.4190639345037
 31
0.0
  0
ARC
  5
9B
330
1F
100
AcDbEntity
  8
VISIBLE
100
AcDbCircle
 10
435.0308474099633
 20
313.7439232491123
 30
0.0
 40
0.7
100
AcDbArc
 50
74.68465071550084
 51
194.6846507174893
  0
LINE
  5
9C
330
1F
100
AcDbEntity
  8
VISIBLE
100
AcDbLine
 10
434.3537124208906
 20
313.5664740829627
 30
0.0
 11
434.8321424200801
 21
311.7408149416539
 31
0.0
  0
ARC
  5
9D
330
1F
100
AcDbEntity
  8
VISIBLE
100
AcDbCircle
 10
473.300586650652
 20
164.9476226659781
 30
-0.0000000000000056
 40
151.75
100
AcDbArc
 50
104.6846507163891
 51
114.2718209203677
  0
ARC
  5
9E
330
1F
100
AcDbEntity
  8
VISIBLE
100
AcDbCircle
 10
411.6406769647824
 20
301.6884561340343
 30
0.0
 40
1.75
100
AcDbArc
 50
114.2718209202811
 51
294.2718221278765
  0
SPLINE
  5
9F
330
1F
100
AcDbEntity
  8
VISIBLE
100
AcDbSpline
210
0.0
220
0.0
230
1.0
 70
     8
 71
     3
 72
    11
 73
     7
 74
     0
 42
0.000000001
 43
0.0000000393338284
 40
-0.263919091406471
 40
-0.263919091406471
 40
-0.263919091406471
 40
-0.263919091406471
 40
-0.121193986509359
 40
-0.121193986509359
 40
-0.121193986509359
 40
0.0
 40
0.0
 40
0.0
 40
0.0
 10
428.713993586548
 20
289.7163474329179
 30
0.0
 10
429.1176424746199
 20
289.8700281214412
 30
0.0
 10
429.5212913626917
 20
290.0237088099643
 30
0.0
 10
429.8914368503897
 20
290.2367069639481
 30
0.0
 10
430.2057432036757
 20
290.4175727998432
 30
0.0
 10
430.4958921515343
 20
290.6412091022004
 30
0.0
 10
430.7860410993929
 20
290.8648454045576
 30
0.0
  0
SPLINE
  5
A0
330
1F
100
AcDbEntity
  8
VISIBLE
100
AcDbSpline
210
0.0
220
0.0
230
1.0
 70
     8
 71
     3
 72
    11
 73
     7
 74
     0
 42
0.000000001
 43
0.0000000395182455
 40
-0.199004972748099
 40
-0.199004972748099
 40
-0.199004972748099
 40
-0.199004972748099
 40
-0.0978482636508638
 40
-0.0978482636508638
 40
-0.0978482636508638
 40
0.0
 40
0.0
 40
0.0
 40
0.0
 10
430.7860410993929
 20
290.8648454045576
 30
0.0
 10
431.0140383934403
 20
291.0998819032658
 30
0.0
 10
431.2420356874877
 20
291.3349184019741
 30
0.0
 10
431.4046059456356
 20
291.6089943498972
 30
0.0
 10
431.5618591582304
 20
291.8741063316139
 30
0.0
 10
431.6578950797131
 20
292.1757458633654
 30
0.0
 10
431.7539310011958
 20
292.4773853951167
 30
0.0
  0
SPLINE
  5
A1
330
1F
100
AcDbEntity
  8
VISIBLE
100
AcDbSpline
210
0.0
220
0.0
230
1.0
 70
     8
 71
     3
 72
    11
 73
     7
 74
     0
 42
0.000000001
 43
0.0000000396584295
 40
-0.187705147742288
 40
-0.187705147742288
 40
-0.187705147742288
 40
-0.187705147742288
 40
-0.0930001945032197
 40
-0.0930001945032197
 40
-0.0930001945032197
 40
0.0
 40
0.0
 40
0.0
 40
0.0
 10
431.7539310011958
 20
292.4773853951167
 30
0.0
 10
431.8042022293149
 20
292.7836947004467
 30
0.0
 10
431.8544734574339
 20
293.0900040057759
 30
0.0
 10
431.8380289425559
 20
293.3927782481341
 30
0.0
 10
431.8218804410271
 20
293.6901023316887
 30
0.0
 10
431.7413964436128
 20
293.9840174742779
 30
0.0
 10
431.6609124461984
 20
294.2779326168673
 30
0.0
  0
SPLINE
  5
A2
330
1F
100
AcDbEntity
  8
VISIBLE
100
AcDbSpline
210
0.0
220
0.0
230
1.0
 70
     8
 71
     3
 72
    11
 73
     7
 74
     0
 42
0.000000001
 43
0.0000000397546523
 40
-0.195298390654915
 40
-0.195298390654915
 40
-0.195298390654915
 40
-0.195298390654915
 40
-0.0918912653473191
 40
-0.0918912653473191
 40
-0.0918912653473191
 40
0.0
 40
0.0
 40
0.0
 40
0.0
 10
431.6609124461984
 20
294.2779326168673
 30
0.0
 10
431.5423808513231
 20
294.5733351251251
 30
0.0
 10
431.4238492564476
 20
294.8687376333831
 30
0.0
 10
431.2476232889788
 20
295.1251967635167
 30
0.0
 10
431.0910225993302
 20
295.3530955075127
 30
0.0
 10
430.8888621957462
 20
295.5502416999631
 30
0.0
 10
430.6867017921622
 20
295.7473878924137
 30
0.0
  0
SPLINE
  5
A3
330
1F
100
AcDbEntity
  8
VISIBLE
100
AcDbSpline
210
0.0
220
0.0
230
1.0
 70
     8
 71
     3
 72
    11
 73
     7
 74
     0
 42
0.000000001
 43
0.0000000397368226
 40
-0.164591579591429
 40
-0.164591579591429
 40
-0.164591579591429
 40
-0.164591579591429
 40
-0.0834049134879649
 40
-0.0834049134879649
 40
-0.0834049134879649
 40
0.0
 40
0.0
 40
0.0
 40
0.0
 10
430.6867017921622
 20
295.7473878924137
 30
0.0
 10
430.4643892202606
 20
295.9014495185758
 30
0.0
 10
430.2420766483589
 20
296.0555111447369
 30
0.0
 10
429.9987049348963
 20
296.1605167738469
 30
0.0
 10
429.7486836237506
 20
296.2683914512059
 30
0.0
 10
429.47643666004
 20
296.3244928146557
 30
0.0
 10
429.2041896963292
 20
296.3805941781043
 30
0.0
  0
SPLINE
  5
A4
330
1F
100
AcDbEntity
  8
VISIBLE
100
AcDbSpline
210
0.0
220
0.0
230
1.0
 70
     8
 71
     3
 72
    11
 73
     7
 74
     0
 42
0.000000001
 43
0.000000039641945
 40
-0.252105999320604
 40
-0.252105999320604
 40
-0.252105999320604
 40
-0.252105999320604
 40
-0.145791443991957
 40
-0.145791443991957
 40
-0.145791443991957
 40
0.0
 40
0.0
 40
0.0
 40
0.0
 10
429.2041896963292
 20
296.3805941781043
 30
0.0
 10
428.8574742509119
 20
296.4054574160209
 30
0.0
 10
428.5107588054943
 20
296.4303206539367
 30
0.0
 10
428.1643479680275
 20
296.4294156038829
 30
0.0
 10
427.6893073110581
 20
296.4281744892141
 30
0.0
 10
427.2148394763082
 20
296.3784755195471
 30
0.0
 10
426.7403716415583
 20
296.3287765498801
 30
0.0
  0
SPLINE
  5
A5
330
1F
100
AcDbEntity
  8
VISIBLE
100
AcDbSpline
210
0.0
220
0.0
230
1.0
 70
     8
 71
     3
 72
    11
 73
     7
 74
     0
 42
0.000000001
 43
0.0000000394720959
 40
-0.231441445383223
 40
-0.231441445383223
 40
-0.231441445383223
 40
-0.231441445383223
 40
-0.0855710200754188
 40
-0.0855710200754188
 40
-0.0855710200754188
 40
0.0
 40
0.0
 40
0.0
 40
0.0
 10
426.7403716415583
 20
296.3287765498801
 30
0.0
 10
426.293777002333
 20
296.2743297026259
 30
0.0
 10
425.8471823631075
 20
296.2198828553707
 30
0.0
 10
425.4029718952025
 20
296.2441922836227
 30
0.0
 10
425.1423875938503
 20
296.2584527656131
 30
0.0
 10
424.8826237505457
 20
296.2998154191239
 30
0.0
 10
424.6228599072414
 20
296.3411780726357
 30
0.0
  0
SPLINE
  5
A6
330
1F
100
AcDbEntity
  8
VISIBLE
100
AcDbSpline
210
0.0
220
0.0
230
1.0
 70
     8
 71
     3
 72
    11
 73
     7
 74
     0
 42
0.000000001
 43
0.0000000393707604
 40
-0.0807148936472345
 40
-0.0807148936472345
 40
-0.0807148936472345
 40
-0.0807148936472345
 40
-0.0391900650660064
 40
-0.0391900650660064
 40
-0.0391900650660064
 40
0.0
 40
0.0
 40
0.0
 40
0.0
 10
424.6228599072414
 20
296.3411780726357
 30
0.0
 10
424.5032656211344
 20
296.3974946449989
 30
0.0
 10
424.3836713350273
 20
296.4538112173615
 30
0.0
 10
424.2954718074591
 20
296.5419641742737
 30
0.0
 10
424.2122313621089
 20
296.6251606674363
 30
0.0
 10
424.1569545385471
 20
296.7367141430399
 30
0.0
 10
424.1016777149853
 20
296.8482676186437
 30
0.0
  0
SPLINE
  5
A7
330
1F
100
AcDbEntity
  8
VISIBLE
100
AcDbSpline
210
0.0
220
0.0
230
1.0
 70
     8
 71
     3
 72
    11
 73
     7
 74
     0
 42
0.000000001
 43
0.0000000393993577
 40
-0.0782832426757069
 40
-0.0782832426757069
 40
-0.0782832426757069
 40
-0.0782832426757069
 40
-0.0393447870455599
 40
-0.0393447870455599
 40
-0.0393447870455599
 40
0.0
 40
0.0
 40
0.0
 40
0.0
 10
424.1016777149853
 20
296.8482676186437
 30
0.0
 10
424.0713454069094
 20
296.9779279804189
 30
0.0
 10
424.0410130988334
 20
297.1075883421943
 30
0.0
 10
424.057646543022
 20
297.2308474114341
 30
0.0
 10
424.0744535608875
 20
297.3553927163827
 30
0.0
 10
424.1392116413693
 20
297.4734024339217
 30
0.0
 10
424.2039697218513
 20
297.5914121514608
 30
0.0
  0
SPLINE
  5
A8
330
1F
100
AcDbEntity
  8
VISIBLE
100
AcDbSpline
210
0.0
220
0.0
230
1.0
 70
     8
 71
     3
 72
    11
 73
     7
 74
     0
 42
0.000000001
 43
0.0000000395472087
 40
-0.158655309564946
 40
-0.158655309564946
 40
-0.158655309564946
 40
-0.158655309564946
 40
-0.0868735272014728
 40
-0.0868735272014728
 40
-0.0868735272014728
 40
0.0
 40
0.0
 40
0.0
 40
0.0
 10
424.2039697218513
 20
297.5914121514608
 30
0.0
 10
424.3623749014979
 20
297.7672485288869
 30
0.0
 10
424.5207800811447
 20
297.9430849063139
 30
0.0
 10
424.7076287562447
 20
298.0783634173802
 30
0.0
 10
424.933761389406
 20
298.2420835288619
 30
0.0
 10
425.2015549947751
 20
298.3463988408873
 30
0.0
 10
425.4693486001443
 20
298.4507141529137
 30
0.0
  0
SPLINE
  5
A9
330
1F
100
AcDbEntity
  8
VISIBLE
100
AcDbSpline
210
0.0
220
0.0
230
1.0
 70
     8
 71
     3
 72
    11
 73
     7
 74
     0
 42
0.000000001
 43
0.0000000396545647
 40
-0.163516358695351
 40
-0.163516358695351
 40
-0.163516358695351
 40
-0.163516358695351
 40
-0.0719525472270722
 40
-0.0719525472270722
 40
-0.0719525472270722
 40
0.0
 40
0.0
 40
0.0
 40
0.0
 10
425.4693486001443
 20
298.4507141529137
 30
0.0
 10
425.7296377479869
 20
298.5360111988633
 30
0.0
 10
425.9899268958293
 20
298.6213082448127
 30
0.0
 10
426.2548102901973
 20
298.6323855549781
 30
0.0
 10
426.4629605914716
 20
298.6410903114767
 30
0.0
 10
426.6739478900104
 20
298.6039635728173
 30
0.0
 10
426.8849351885493
 20
298.5668368341579
 30
0.0
  0
SPLINE
  5
AA
330
1F
100
AcDbEntity
  8
VISIBLE
100
AcDbSpline
210
0.0
220
0.0
230
1.0
 70
     8
 71
     3
 72
    11
 73
     7
 74
     0
 42
0.000000001
 43
0.0000000397121808
 40
-0.139745094671214
 40
-0.139745094671214
 40
-0.139745094671214
 40
-0.139745094671214
 40
-0.0767930469826107
 40
-0.0767930469826107
 40
-0.0767930469826107
 40
0.0
 40
0.0
 40
0.0
 40
0.0
 10
426.8849351885493
 20
298.5668368341579
 30
0.0
 10
427.0684355929641
 20
298.4707517627519
 30
0.0
 10
427.2519359973791
 20
298.3746666913459
 30
0.0
 10
427.4010701194421
 20
298.2415010436587
 30
0.0
 10
427.5829937273756
 20
298.0790568307259
 30
0.0
 10
427.7137778172472
 20
297.8614340337077
 30
0.0
 10
427.844561907119
 20
297.6438112366903
 30
0.0
  0
LINE
  5
AB
330
1F
100
AcDbEntity
  8
VISIBLE
100
AcDbLine
 10
427.8445619071269
 20
297.6438112366787
 30
0.0
 11
429.8567046783422
 21
298.4564832711997
 31
0.0
  0
SPLINE
  5
AC
330
1F
100
AcDbEntity
  8
VISIBLE
100
AcDbSpline
210
0.0
220
0.0
230
1.0
 70
     8
 71
     3
 72
     9
 73
     5
 74
     0
 42
0.000000001
 43
0.0000000399773538
 40
0.0
 40
0.0
 40
0.0
 40
0.0
 40
0.512813220950052
 40
1.0
 40
1.0
 40
1.0
 40
1.0
 10
429.8567046783423
 20
298.4564832711985
 30
0.0
 10
429.6518877907614
 20
298.8766621631313
 30
0.0
 10
429.252489180871
 20
299.6960226530071
 30
0.0
 10
428.4481381190107
 20
300.1216577473031
 30
0.0
 10
428.0562689159578
 20
300.3290215379437
 30
0.0
  0
SPLINE
  5
AD
330
1F
100
AcDbEntity
  8
VISIBLE
100
AcDbSpline
210
0.0
220
0.0
230
1.0
 70
     8
 71
     3
 72
    11
 73
     7
 74
     0
 42
0.000000001
 43
0.0000000398746329
 40
-0.332343760658295
 40
-0.332343760658295
 40
-0.332343760658295
 40
-0.332343760658295
 40
-0.184255879459094
 40
-0.184255879459094
 40
-0.184255879459094
 40
-0.0000000000000001
 40
-0.0000000000000001
 40
-0.0000000000000001
 40
-0.0000000000000001
 10
428.05626891595
 20
300.3290215379556
 30
0.0
 10
427.581363344336
 20
300.4343903780679
 30
0.0
 10
427.1064577727219
 20
300.5397592181807
 30
0.0
 10
426.6357468841228
 20
300.5316180275085
 30
0.0
 10
426.0500727016884
 20
300.5214884866243
 30
0.0
 10
425.4708923777091
 20
300.3356321815165
 30
0.0
 10
424.8917120537299
 20
300.1497758764087
 30
0.0
  0
SPLINE
  5
AE
330
1F
100
AcDbEntity
  8
VISIBLE
100
AcDbSpline
210
0.0
220
0.0
230
1.0
 70
     8
 71
     3
 72
    11
 73
     7
 74
     0
 42
0.000000001
 43
0.0000000396378363
 40
-0.23691355109303
 40
-0.23691355109303
 40
-0.23691355109303
 40
-0.23691355109303
 40
-0.110478100972626
 40
-0.110478100972626
 40
-0.110478100972626
 40
0.0
 40
0.0
 40
0.0
 40
0.0
 10
424.8917120537299
 20
300.1497758764087
 30
0.0
 10
424.5313493637506
 20
300.0107396306601
 30
0.0
 10
424.1709866737712
 20
299.8717033849107
 30
0.0
 10
423.8413487653704
 20
299.6792189338711
 30
0.0
 10
423.5533142774635
 20
299.5110278403336
 30
0.0
 10
423.2887384650194
 20
299.3020285119585
 30
0.0
 10
423.0241626525754
 20
299.0930291835837
 30
0.0
  0
SPLINE
  5
AF
330
1F
100
AcDbEntity
  8
VISIBLE
100
AcDbSpline
210
0.0
220
0.0
230
1.0
 70
     8
 71
     3
 72
    11
 73
     7
 74
     0
 42
0.000000001
 43
0.000000039435905
 40
-0.185774938140786
 40
-0.185774938140786
 40
-0.185774938140786
 40
-0.185774938140786
 40
-0.0901549988270639
 40
-0.0901549988270639
 40
-0.0901549988270639
 40
0.0
 40
0.0
 40
0.0
 40
0.0
 10
423.0241626525754
 20
299.0930291835837
 30
0.0
 10
422.8125527648552
 20
298.8749741524997
 30
0.0
 10
422.6009428771347
 20
298.6569191214147
 30
0.0
 10
422.4486268732902
 20
298.4029434553445
 30
0.0
 10
422.3050161447488
 20
298.1634831917117
 30
0.0
 10
422.2141153651044
 20
297.8920908853327
 30
0.0
 10
422.1232145854599
 20
297.6206985789535
 30
0.0
  0
SPLINE
  5
B0
330
1F
100
AcDbEntity
  8
VISIBLE
100
AcDbSpline
210
0.0
220
0.0
230
1.0
 70
     8
 71
     3
 72
    11
 73
     7
 74
     0
 42
0.000000001
 43
0.0000000392703035
 40
-0.167388393674709
 40
-0.167388393674709
 40
-0.167388393674709
 40
-0.167388393674709
 40
-0.0828444913730309
 40
-0.0828444913730309
 40
-0.0828444913730309
 40
0.0
 40
0.0
 40
0.0
 40
0.0
 10
422.1232145854599
 20
297.6206985789535
 30
0.0
 10
422.075707963775
 20
297.3482163423618
 30
0.0
 10
422.0282013420899
 20
297.0757341057699
 30
0.0
 10
422.0413347267088
 20
296.8061141018609
 30
0.0
 10
422.0542041181034
 20
296.5419137103515
 30
0.0
 10
422.125300176382
 20
296.2804616409339
 30
0.0
 10
422.1963962346605
 20
296.0190095715167
 30
0.0
  0
SPLINE
  5
B1
330
1F
100
AcDbEntity
  8
VISIBLE
100
AcDbSpline
210
0.0
220
0.0
230
1.0
 70
     8
 71
     3
 72
    11
 73
     7
 74
     0
 42
0.000000001
 43
0.0000000392574046
 40
-0.25071111456582
 40
-0.25071111456582
 40
-0.25071111456582
 40
-0.25071111456582
 40
-0.126824745132238
 40
-0.126824745132238
 40
-0.126824745132238
 40
0.0
 40
0.0
 40
0.0
 40
0.0
 10
422.1963962346605
 20
296.0190095715167
 30
0.0
 10
422.3738460298265
 20
295.6465462497523
 30
0.0
 10
422.5512958249925
 20
295.2740829279879
 30
0.0
 10
422.822033319926
 20
294.9914502761917
 30
0.0
 10
423.0991922515314
 20
294.7021140546681
 30
0.0
 10
423.4741166164238
 20
294.5069203020207
 30
0.0
 10
423.849040981316
 20
294.3117265493731
 30
0.0
  0
SPLINE
  5
B2
330
1F
100
AcDbEntity
  8
VISIBLE
100
AcDbSpline
210
0.0
220
0.0
230
1.0
 70
     8
 71
     3
 72
    11
 73
     7
 74
     0
 42
0.000000001
 43
0.0000000393046519
 40
-0.276363468603634
 40
-0.276363468603634
 40
-0.276363468603634
 40
-0.276363468603634
 40
-0.160570545491111
 40
-0.160570545491111
 40
-0.160570545491111
 40
0.0
 40
0.0
 40
0.0
 40
0.0
 10
423.849040981316
 20
294.3117265493731
 30
0.0
 10
424.2146514306437
 20
294.2185417920783
 30
0.0
 10
424.5802618799714
 20
294.1253570347833
 30
0.0
 10
424.9506022795508
 20
294.0856581745203
 30
0.0
 10
425.4641549076341
 20
294.0306075939109
 30
0.0
 10
425.9868029880771
 20
294.0784076570643
 30
0.0
 10
426.5094510685202
 20
294.1262077202179
 30
0.0
  0
SPLINE
  5
B3
330
1F
100
AcDbEntity
  8
VISIBLE
100
AcDbSpline
210
0.0
220
0.0
230
1.0
 70
     8
 71
     3
 72
    11
 73
     7
 74
     0
 42
0.000000001
 43
0.0000000394200763
 40
-0.193211991776841
 40
-0.193211991776841
 40
-0.193211991776841
 40
-0.193211991776841
 40
-0.0699122958978762
 40
-0.0699122958978762
 40
-0.0699122958978762
 40
0.0
 40
0.0
 40
0.0
 40
0.0
 10
426.5094510685202
 20
294.1262077202179
 30
0.0
 10
426.8901862704198
 20
294.1640819443491
 30
0.0
 10
427.2709214723193
 20
294.2019561684807
 30
0.0
 10
427.652538809422
 20
294.2275228301153
 30
0.0
 10
427.8689200746074
 20
294.2420194109914
 30
0.0
 10
428.0855849476586
 20
294.2525590910187
 30
0.0
 10
428.30224982071
 20
294.2630987710471
 30
0.0
  0
SPLINE
  5
B4
330
1F
100
AcDbEntity
  8
VISIBLE
100
AcDbSpline
210
0.0
220
0.0
230
1.0
 70
     8
 71
     3
 72
    11
 73
     7
 74
     0
 42
0.000000001
 43
0.0000000394793844
 40
-0.103634750899162
 40
-0.103634750899162
 40
-0.103634750899162
 40
-0.103634750899162
 40
-0.0447834025858726
 40
-0.0447834025858726
 40
-0.0447834025858726
 40
0.0
 40
0.0
 40
0.0
 40
0.0
 10
428.30224982071
 20
294.2630987710471
 30
0.0
 10
428.4776048802147
 20
294.2604250913983
 30
0.0
 10
428.6529599397192
 20
294.2577514117487
 30
0.0
 10
428.8202292190467
 20
294.2180937174935
 30
0.0
 10
428.9475141104053
 20
294.1879158789499
 30
0.0
 10
429.0701168738837
 20
294.1363221866331
 30
0.0
 10
429.1927196373622
 20
294.0847284943171
 30
0.0
  0
SPLINE
  5
B5
330
1F
100
AcDbEntity
  8
VISIBLE
100
AcDbSpline
210
0.0
220
0.0
230
1.0
 70
     8
 71
     3
 72
     9
 73
     5
 74
     0
 42
0.000000001
 43
0.0000000394945627
 40
0.0
 40
0.0
 40
0.0
 40
0.0
 40
0.487803517347969
 40
1.0
 40
1.0
 40
1.0
 40
1.0
 10
429.19271963737
 20
294.0847284943054
 30
0.0
 10
429.2859204340116
 20
294.0165844937441
 30
0.0
 10
429.476982600083
 20
293.8768889029223
 30
0.0
 10
429.5712031964447
 20
293.6594781126499
 30
0.0
 10
429.6194626544944
 20
293.5481210705817
 30
0.0
  0
SPLINE
  5
B6
330
1F
100
AcDbEntity
  8
VISIBLE
100
AcDbSpline
210
0.0
220
0.0
230
1.0
 70
     8
 71
     3
 72
    11
 73
     7
 74
     0
 42
0.000000001
 43
0.0000000394600387
 40
-0.123758615771825
 40
-0.123758615771825
 40
-0.123758615771825
 40
-0.123758615771825
 40
-0.0646144102321909
 40
-0.0646144102321909
 40
-0.0646144102321909
 40
0.0
 40
0.0
 40
0.0
 40
0.0
 10
429.6194626544865
 20
293.5481210705933
 30
0.0
 10
429.6599931578008
 20
293.3561889360737
 30
0.0
 10
429.7005236611152
 20
293.1642568015551
 30
0.0
 10
429.6796146403798
 20
292.9799352962405
 30
0.0
 10
429.6567717594751
 20
292.7785660285273
 30
0.0
 10
429.5605987904144
 20
292.5862802965217
 30
0.0
 10
429.4644258213535
 20
292.3939945645155
 30
0.0
  0
SPLINE
  5
B7
330
1F
100
AcDbEntity
  8
VISIBLE
100
AcDbSpline
210
0.0
220
0.0
230
1.0
 70
     8
 71
     3
 72
    11
 73
     7
 74
     0
 42
0.000000001
 43
0.0000000393584491
 40
-0.171603088226867
 40
-0.171603088226867
 40
-0.171603088226867
 40
-0.171603088226867
 40
-0.095387196513891
 40
-0.095387196513891
 40
-0.095387196513891
 40
0.0
 40
0.0
 40
0.0
 40
0.0
 10
429.4644258213535
 20
292.3939945645155
 30
0.0
 10
429.3050819559196
 20
292.2009880666197
 30
0.0
 10
429.1457380904858
 20
292.0079815687251
 30
0.0
 10
428.9529262006703
 20
291.8605704081423
 30
0.0
 10
428.7116145108025
 20
291.6760795227539
 30
0.0
 10
428.4178801461979
 20
291.5630069413019
 30
0.0
 10
428.1241457815934
 20
291.4499343598497
 30
0.0
  0
SPLINE
  5
B8
330
1F
100
AcDbEntity
  8
VISIBLE
100
AcDbSpline
210
0.0
220
0.0
230
1.0
 70
     8
 71
     3
 72
    11
 73
     7
 74
     0
 42
0.000000001
 43
0.0000000391986138
 40
-0.186611917665072
 40
-0.186611917665072
 40
-0.186611917665072
 40
-0.186611917665072
 40
-0.086812201429894
 40
-0.086812201429894
 40
-0.086812201429894
 40
0.0
 40
0.0
 40
0.0
 40
0.0
 10
428.1241457815934
 20
291.4499343598497
 30
0.0
 10
427.8320959976818
 20
291.3618353620802
 30
0.0
 10
427.5400462137701
 20
291.2737363643107
 30
0.0
 10
427.2462544493155
 20
291.2715023133932
 30
0.0
 10
426.9906955079035
 20
291.2695589924543
 30
0.0
 10
426.7338184729687
 20
291.3325865638278
 30
0.0
 10
426.476941438034
 20
291.3956141352014
 30
0.0
  0
SPLINE
  5
B9
330
1F
100
AcDbEntity
  8
VISIBLE
100
AcDbSpline
210
0.0
220
0.0
230
1.0
 70
     8
 71
     3
 72
    11
 73
     7
 74
     0
 42
0.000000001
 43
0.0000000391751332
 40
-0.181579054463419
 40
-0.181579054463419
 40
-0.181579054463419
 40
-0.181579054463419
 40
-0.0991795584223727
 40
-0.0991795584223727
 40
-0.0991795584223727
 40
0.0
 40
0.0
 40
0.0
 40
0.0
 10
426.476941438034
 20
291.3956141352014
 30
0.0
 10
426.2394464799942
 20
291.5274374264038
 30
0.0
 10
426.0019515219543
 20
291.6592607176063
 30
0.0
 10
425.8072591610623
 20
291.8365850409663
 30
0.0
 10
425.5729191067023
 20
292.0500201823613
 30
0.0
 10
425.4005895692078
 20
292.3293752143709
 30
0.0
 10
425.2282600317134
 20
292.6087302463803
 30
0.0
  0
LINE
  5
BA
330
1F
100
AcDbEntity
  8
VISIBLE
100
AcDbLine
 10
425.2282600317213
 20
292.6087302463687
 30
0.0
 11
423.3079913616248
 21
291.7120206152035
 31
0.0
  0
SPLINE
  5
BB
330
1F
100
AcDbEntity
  8
VISIBLE
100
AcDbSpline
210
0.0
220
0.0
230
1.0
 70
     8
 71
     3
 72
    11
 73
     7
 74
     0
 42
0.000000001
 43
0.0000000390399915
 40
-0.343607368813473
 40
-0.343607368813473
 40
-0.343607368813473
 40
-0.343607368813473
 40
-0.160892284303298
 40
-0.160892284303298
 40
-0.160892284303298
 40
0.0
 40
0.0
 40
0.0
 40
0.0
 10
423.3079913616169
 20
291.7120206152151
 30
0.0
 10
423.581627298214
 20
291.2221210584891
 30
0.0
 10
423.855263234811
 20
290.7322215017628
 30
0.0
 10
424.2444415384232
 20
290.3603090271199
 30
0.0
 10
424.5871378540409
 20
290.0328163750128
 30
0.0
 10
425.0194248613276
 20
289.7968100284479
 30
0.0
 10
425.4517118686143
 20
289.5608036818831
 30
0.0
  0
SPLINE
  5
BC
330
1F
100
AcDbEntity
  8
VISIBLE
100
AcDbSpline
210
0.0
220
0.0
230
1.0
 70
     8
 71
     3
 72
    11
 73
     7
 74
     0
 42
0.000000001
 43
0.0000000391094879
 40
-0.341671728781957
 40
-0.341671728781957
 40
-0.341671728781957
 40
-0.341671728781957
 40
-0.186882348751807
 40
-0.186882348751807
 40
-0.186882348751807
 40
0.0
 40
0.0
 40
0.0
 40
0.0
 10
425.4517118686143
 20
289.5608036818831
 30
0.0
 10
425.9485886151778
 20
289.4460457559001
 30
0.0
 10
426.4454653617412
 20
289.3312878299171
 30
0.0
 10
426.9386225015397
 20
289.3379885077383
 30
0.0
 10
427.5340274613069
 20
289.3460784581546
 30
0.0
 10
428.1240105239274
 20
289.5312129455363
 30
0.0
 10
428.713993586548
 20
289.7163474329179
 30
0.0
  0
SPLINE
  5
BD
330
1F
100
AcDbEntity
  8
VISIBLE
100
AcDbSpline
210
0.0
220
0.0
230
1.0
 70
     8
 71
     3
 72
    11
 73
     7
 74
     0
 42
0.000000001
 43
0.000000038209519
 40
-0.297916670017137
 40
-0.297916670017137
 40
-0.297916670017137
 40
-0.297916670017137
 40
-0.146067675528132
 40
-0.146067675528132
 40
-0.146067675528132
 40
0.0
 40
0.0
 40
0.0
 40
0.0
 10
416.0891369585833
 20
285.2588163512617
 30
0.0
 10
416.5366157036405
 20
285.4575903792792
 30
0.0
 10
416.9840944486978
 20
285.6563644072966
 30
0.0
 10
417.3370469929727
 20
285.9643317513572
 30
0.0
 10
417.6765616396614
 20
286.2605739111217
 30
0.0
 10
417.9286108235827
 20
286.6578530726889
 30
0.0
 10
418.1806600075041
 20
287.055132234256
 30
0.0
  0
SPLINE
  5
BE
330
1F
100
AcDbEntity
  8
VISIBLE
100
AcDbSpline
210
0.0
220
0.0
230
1.0
 70
     8
 71
     3
 72
    11
 73
     7
 74
     0
 42
0.000000001
 43
0.0000000384321131
 40
-0.277377269861696
 40
-0.277377269861696
 40
-0.277377269861696
 40
-0.277377269861696
 40
-0.138104473996559
 40
-0.138104473996559
 40
-0.138104473996559
 40
0.0
 40
0.0
 40
0.0
 40
0.0
 10
418.1806600075041
 20
287.055132234256
 30
0.0
 10
418.3484460876724
 20
287.4840544338194
 30
0.0
 10
418.5162321678407
 20
287.9129766333828
 30
0.0
 10
418.5439197410419
 20
288.3508827156402
 30
0.0
 10
418.5713750506696
 20
288.7851153220468
 30
0.0
 10
418.4610724915599
 20
289.2281817166194
 30
0.0
 10
418.3507699324501
 20
289.6712481111919
 30
0.0
  0
SPLINE
  5
BF
330
1F
100
AcDbEntity
  8
VISIBLE
100
AcDbSpline
210
0.0
220
0.0
230
1.0
 70
     8
 71
     3
 72
    11
 73
     7
 74
     0
 42
0.000000001
 43
0.000000038522009
 40
-0.189430521594603
 40
-0.189430521594603
 40
-0.189430521594603
 40
-0.189430521594603
 40
-0.0921843132496698
 40
-0.0921843132496698
 40
-0.0921843132496698
 40
0.0
 40
0.0
 40
0.0
 40
0.0
 10
418.3507699324501
 20
289.6712481111919
 30
0.0
 10
418.2282451326797
 20
289.9562570785674
 30
0.0
 10
418.1057203329094
 20
290.2412660459427
 30
0.0
 10
417.9194297664595
 20
290.4761968749033
 30
0.0
 10
417.7428360645009
 20
290.6988989986929
 30
0.0
 10
417.5089421436671
 20
290.8766006709636
 30
0.0
 10
417.2750482228334
 20
291.0543023432342
 30
0.0
  0
SPLINE
  5
C0
330
1F
100
AcDbEntity
  8
VISIBLE
100
AcDbSpline
210
0.0
220
0.0
230
1.0
 70
     8
 71
     3
 72
    11
 73
     7
 74
     0
 42
0.000000001
 43
0.0000000384802697
 40
-0.178275938419707
 40
-0.178275938419707
 40
-0.178275938419707
 40
-0.178275938419707
 40
-0.0907559957293265
 40
-0.0907559957293265
 40
-0.0907559957293265
 40
0.0
 40
0.0
 40
0.0
 40
0.0
 10
417.2750482228334
 20
291.0543023432342
 30
0.0
 10
417.0143004213272
 20
291.1844118204679
 30
0.0
 10
416.753552619821
 20
291.3145212977016
 30
0.0
 10
416.4778775678233
 20
291.3724933045495
 30
0.0
 10
416.1920094208306
 20
291.4326088284423
 30
0.0
 10
415.8900897442555
 20
291.4151536878281
 30
0.0
 10
415.5881700676807
 20
291.397698547214
 30
0.0
  0
SPLINE
  5
C1
330
1F
100
AcDbEntity
  8
VISIBLE
100
AcDbSpline
210
0.0
220
0.0
230
1.0
 70
     8
 71
     3
 72
    11
 73
     7
 74
     0
 42
0.000000001
 43
0.0000000386242588
 40
-0.240731366439375
 40
-0.240731366439375
 40
-0.240731366439375
 40
-0.240731366439375
 40
-0.112214834947234
 40
-0.112214834947234
 40
-0.112214834947234
 40
0.0
 40
0.0
 40
0.0
 40
0.0
 10
415.5881700676807
 20
291.397698547214
 30
0.0
 10
415.9169781669996
 20
291.8179170686664
 30
0.0
 10
416.2457862663186
 20
292.2381355901185
 30
0.0
 10
416.3524099017
 20
292.7129128524477
 30
0.0
 10
416.4455088478579
 20
293.1274669297358
 30
0.0
 10
416.36921448723
 20
293.5836165595091
 30
0.0
 10
416.2929201266021
 20
294.0397661892827
 30
0.0
  0
SPLINE
  5
C2
330
1F
100
AcDbEntity
  8
VISIBLE
100
AcDbSpline
210
0.0
220
0.0
230
1.0
 70
     8
 71
     3
 72
    11
 73
     7
 74
     0
 42
0.000000001
 43
0.0000000387236189
 40
-0.202780039433854
 40
-0.202780039433854
 40
-0.202780039433854
 40
-0.202780039433854
 40
-0.104014966440797
 40
-0.104014966440797
 40
-0.104014966440797
 40
0.0
 40
0.0
 40
0.0
 40
0.0
 10
416.2929201266021
 20
294.0397661892827
 30
0.0
 10
416.151390229942
 20
294.3362580459877
 30
0.0
 10
416.0098603332818
 20
294.6327499026924
 30
0.0
 10
415.8000648585653
 20
294.8676284564523
 30
0.0
 10
415.579117628935
 20
295.1149920653337
 30
0.0
 10
415.2824545739923
 20
295.2940181281851
 30
0.0
 10
414.9857915190494
 20
295.4730441910356
 30
0.0
  0
SPLINE
  5
C3
330
1F
100
AcDbEntity
  8
VISIBLE
100
AcDbSpline
210
0.0
220
0.0
230
1.0
 70
     8
 71
     3
 72
    11
 73
     7
 74
     0
 42
0.000000001
 43
0.0000000386662415
 40
-0.27552682666623
 40
-0.27552682666623
 40
-0.27552682666623
 40
-0.27552682666623
 40
-0.142819702855682
 40
-0.142819702855682
 40
-0.142819702855682
 40
0.0
 40
0.0
 40
0.0
 40
0.0
 10
414.9857915190494
 20
295.4730441910356
 30
0.0
 10
414.5723118078396
 20
295.6257895117889
 30
0.0
 10
414.1588320966297
 20
295.7785348325413
 30
0.0
 10
413.739325179959
 20
295.8012955955487
 30
0.0
 10
413.2878508998718
 20
295.8257907795007
 30
0.0
 10
412.8293958426482
 20
295.6997363870869
 30
0.0
 10
412.3709407854244
 20
295.5736819946731
 30
0.0
  0
SPLINE
  5
C4
330
1F
100
AcDbEntity
  8
VISIBLE
100
AcDbSpline
210
0.0
220
0.0
230
1.0
 70
     8
 71
     3
 72
    11
 73
     7
 74
     0
 42
0.000000001
 43
0.0000000384790127
 40
-0.174163990076187
 40
-0.174163990076187
 40
-0.174163990076187
 40
-0.174163990076187
 40
-0.0844356790142422
 40
-0.0844356790142422
 40
-0.0844356790142422
 40
0.0
 40
0.0
 40
0.0
 40
0.0
 10
412.3709407854244
 20
295.5736819946731
 30
0.0
 10
412.106875941178
 20
295.4674306493093
 30
0.0
 10
411.8428110969317
 20
295.3611793039468
 30
0.0
 10
411.6037785894862
 20
295.2139729289643
 30
0.0
 10
411.378845434791
 20
295.0754495345111
 30
0.0
 10
411.1760786413863
 20
294.9006600898513
 30
0.0
 10
410.9733118479816
 20
294.7258706451913
 30
0.0
  0
SPLINE
  5
C5
330
1F
100
AcDbEntity
  8
VISIBLE
100
AcDbSpline
210
0.0
220
0.0
230
1.0
 70
     8
 71
     3
 72
    11
 73
     7
 74
     0
 42
0.000000001
 43
0.000000038324439
 40
-0.154317067541966
 40
-0.154317067541966
 40
-0.154317067541966
 40
-0.154317067541966
 40
-0.0749228273498979
 40
-0.0749228273498979
 40
-0.0749228273498979
 40
0.0
 40
0.0
 40
0.0
 40
0.0
 10
410.9733118479816
 20
294.7258706451913
 30
0.0
 10
410.802729833281
 20
294.5398456058728
 30
0.0
 10
410.6321478185804
 20
294.3538205665539
 30
0.0
 10
410.5061811605999
 20
294.1411331124063
 30
0.0
 10
410.3873088325206
 20
293.9404240261041
 30
0.0
 10
410.3081679797757
 20
293.7159711628829
 30
0.0
 10
410.2290271270308
 20
293.4915182996617
 30
0.0
  0
SPLINE
  5
C6
330
1F
100
AcDbEntity
  8
VISIBLE
100
AcDbSpline
210
0.0
220
0.0
230
1.0
 70
     8
 71
     3
 72
    11
 73
     7
 74
     0
 42
0.000000001
 43
0.0000000381819446
 40
-0.169726061162486
 40
-0.169726061162486
 40
-0.169726061162486
 40
-0.169726061162486
 40
-0.0922675657145264
 40
-0.0922675657145264
 40
-0.0922675657145264
 40
0.0
 40
0.0
 40
0.0
 40
0.0
 10
410.2290271270308
 20
293.4915182996617
 30
0.0
 10
410.1835378774646
 20
293.2393801382159
 30
0.0
 10
410.1380486278983
 20
292.9872419767701
 30
0.0
 10
410.126998691688
 20
292.7339004082387
 30
0.0
 10
410.1138361494836
 20
292.4321231830612
 30
0.0
 10
410.1495404742345
 20
292.1286384112398
 30
0.0
 10
410.1852447989854
 20
291.8251536394179
 30
0.0
  0
LINE
  5
C7
330
1F
100
AcDbEntity
  8
VISIBLE
100
AcDbLine
 10
410.1852447989933
 20
291.8251536394062
 30
0.0
 11
412.0811094121408
 21
292.1538750415569
 31
0.0
  0
SPLINE
  5
C8
330
1F
100
AcDbEntity
  8
VISIBLE
100
AcDbSpline
210
0.0
220
0.0
230
1.0
 70
     8
 71
     3
 72
    11
 73
     7
 74
     0
 42
0.000000001
 43
0.0000000382916306
 40
-0.132174608158256
 40
-0.132174608158256
 40
-0.132174608158256
 40
-0.132174608158256
 40
-0.0606862612744628
 40
-0.0606862612744628
 40
-0.0606862612744628
 40
0.0
 40
0.0
 40
0.0
 40
0.0
 10
412.0811094121329
 20
292.1538750415687
 30
0.0
 10
412.0410095539416
 20
292.3669554261369
 30
0.0
 10
412.0009096957504
 20
292.5800358107049
 30
0.0
 10
412.0197449972331
 20
292.7886382655091
 30
0.0
 10
412.035734232917
 20
292.9657203163127
 30
0.0
 10
412.0941937091403
 20
293.1395754520587
 30
0.0
 10
412.1526531853636
 20
293.3134305878043
 30
0.0
  0
SPLINE
  5
C9
330
1F
100
AcDbEntity
  8
VISIBLE
100
AcDbSpline
210
0.0
220
0.0
230
1.0
 70
     8
 71
     3
 72
    11
 73
     7
 74
     0
 42
0.000000001
 43
0.0000000383878374
 40
-0.101713847443557
 40
-0.101713847443557
 40
-0.101713847443557
 40
-0.101713847443557
 40
-0.0509718520805629
 40
-0.0509718520805629
 40
-0.0509718520805629
 40
0.0
 40
0.0
 40
0.0
 40
0.0
 10
412.1526531853636
 20
293.3134305878043
 30
0.0
 10
412.2406511371195
 20
293.4578501527179
 30
0.0
 10
412.3286490888753
 20
293.6022697176313
 30
0.0
 10
412.4494772849678
 20
293.7097462721543
 30
0.0
 10
412.5708528220222
 20
293.8177096858923
 30
0.0
 10
412.725356713256
 20
293.8883946340751
 30
0.0
 10
412.8798606044896
 20
293.9590795822579
 30
0.0
  0
SPLINE
  5
CA
330
1F
100
AcDbEntity
  8
VISIBLE
100
AcDbSpline
210
0.0
220
0.0
230
1.0
 70
     8
 71
     3
 72
    11
 73
     7
 74
     0
 42
0.000000001
 43
0.000000038453705
 40
-0.102368440842022
 40
-0.102368440842022
 40
-0.102368440842022
 40
-0.102368440842022
 40
-0.0488947580808527
 40
-0.0488947580808527
 40
-0.0488947580808527
 40
0.0
 40
0.0
 40
0.0
 40
0.0
 10
412.8798606044896
 20
293.9590795822579
 30
0.0
 10
413.0406477138945
 20
294.0044329912103
 30
0.0
 10
413.2014348232993
 20
294.0497864001625
 30
0.0
 10
413.3607317984637
 20
294.0437021845037
 30
0.0
 10
413.5063882534056
 20
294.0381389571853
 30
0.0
 10
413.6507988467281
 20
293.9895700995243
 30
0.0
 10
413.7952094400504
 20
293.9410012418635
 30
0.0
  0
SPLINE
  5
CB
330
1F
100
AcDbEntity
  8
VISIBLE
100
AcDbSpline
210
0.0
220
0.0
230
1.0
 70
     8
 71
     3
 72
    11
 73
     7
 74
     0
 42
0.000000001
 43
0.0000000384835707
 40
-0.0968731051983032
 40
-0.0968731051983032
 40
-0.0968731051983032
 40
-0.0968731051983032
 40
-0.0507865771772261
 40
-0.0507865771772261
 40
-0.0507865771772261
 40
0.0
 40
0.0
 40
0.0
 40
0.0
 10
413.7952094400504
 20
293.9410012418635
 30
0.0
 10
413.9239796592793
 20
293.8586299028777
 30
0.0
 10
414.0527498785082
 20
293.7762585638917
 30
0.0
 10
414.1488517456944
 20
293.6659859528373
 30
0.0
 10
414.2547543837168
 20
293.5444673938933
 30
0.0
 10
414.3209856577786
 20
293.3890664549093
 30
0.0
 10
414.3872169318403
 20
293.2336655159251
 30
0.0
  0
SPLINE
  5
CC
330
1F
100
AcDbEntity
  8
VISIBLE
100
AcDbSpline
210
0.0
220
0.0
230
1.0
 70
     8
 71
     3
 72
    11
 73
     7
 74
     0
 42
0.000000001
 43
0.0000000384362005
 40
-0.122476583665954
 40
-0.122476583665954
 40
-0.122476583665954
 40
-0.122476583665954
 40
-0.0597065543266784
 40
-0.0597065543266784
 40
-0.0597065543266784
 40
0.0
 40
0.0
 40
0.0
 40
0.0
 10
414.3872169318403
 20
293.2336655159251
 30
0.0
 10
414.4384960501592
 20
293.0394756108117
 30
0.0
 10
414.4897751684782
 20
292.8452857056983
 30
0.0
 10
414.4750527991515
 20
292.6558491764428
 30
0.0
 10
414.4610489512438
 20
292.4756580478971
 30
0.0
 10
414.3873287775627
 20
292.2997676427349
 30
0.0
 10
414.3136086038816
 20
292.1238772375727
 30
0.0
  0
SPLINE
  5
CD
330
1F
100
AcDbEntity
  8
VISIBLE
100
AcDbSpline
210
0.0
220
0.0
230
1.0
 70
     8
 71
     3
 72
    11
 73
     7
 74
     0
 42
0.000000001
 43
0.0000000383401888
 40
-0.139219886465066
 40
-0.139219886465066
 40
-0.139219886465066
 40
-0.139219886465066
 40
-0.076436323993578
 40
-0.076436323993578
 40
-0.076436323993578
 40
0.0
 40
0.0
 40
0.0
 40
0.0
 10
414.3136086038816
 20
292.1238772375727
 30
0.0
 10
414.1860259048977
 20
291.9613906336241
 30
0.0
 10
414.0584432059139
 20
291.7989040296756
 30
0.0
 10
413.9004200855942
 20
291.6776645404857
 30
0.0
 10
413.7080336400383
 20
291.530060605447
 30
0.0
 10
413.4705283119455
 20
291.4435932658992
 30
0.0
 10
413.2330229838528
 20
291.3571259263514
 30
0.0
  0
LINE
  5
CE
330
1F
100
AcDbEntity
  8
VISIBLE
100
AcDbLine
 10
413.2330229838607
 20
291.3571259263397
 30
0.0
 11
413.5782423637035
 21
289.7001618060139
 31
0.0
  0
SPLINE
  5
CF
330
1F
100
AcDbEntity
  8
VISIBLE
100
AcDbSpline
210
0.0
220
0.0
230
1.0
 70
     8
 71
     3
 72
    11
 73
     7
 74
     0
 42
0.000000001
 43
0.0000000381975534
 40
-0.106641414927555
 40
-0.106641414927555
 40
-0.106641414927555
 40
-0.106641414927555
 40
-0.0484261692587291
 40
-0.0484261692587291
 40
-0.0484261692587291
 40
0.0
 40
0.0
 40
0.0
 40
0.0
 10
413.5782423636956
 20
289.7001618060257
 30
0.0
 10
413.7229374768921
 20
289.7987972149559
 30
0.0
 10
413.8676325900885
 20
289.8974326238861
 30
0.0
 10
414.0214034872279
 20
289.9792632534871
 30
0.0
 10
414.1493173250274
 20
290.0473338056953
 30
0.0
 10
414.2835113257531
 20
290.1037759682466
 30
0.0
 10
414.4177053264789
 20
290.1602181307979
 30
0.0
  0
SPLINE
  5
D0
330
1F
100
AcDbEntity
  8
VISIBLE
100
AcDbSpline
210
0.0
220
0.0
230
1.0
 70
     8
 71
     3
 72
    11
 73
     7
 74
     0
 42
0.000000001
 43
0.0000000382768921
 40
-0.117396502271378
 40
-0.117396502271378
 40
-0.117396502271378
 40
-0.117396502271378
 40
-0.0591442745738736
 40
-0.0591442745738736
 40
-0.0591442745738736
 40
0.0
 40
0.0
 40
0.0
 40
0.0
 10
414.4177053264789
 20
290.1602181307979
 30
0.0
 10
414.6062392065924
 20
290.2062282823223
 30
0.0
 10
414.7947730867059
 20
290.2522384338465
 30
0.0
 10
414.9786170600116
 20
290.2381905670319
 30
0.0
 10
415.1652763323817
 20
290.223927577874
 30
0.0
 10
415.3471009601428
 20
290.1477530867425
 30
0.0
 10
415.5289255879039
 20
290.0715785956108
 30
0.0
  0
SPLINE
  5
D1
330
1F
100
AcDbEntity
  8
VISIBLE
100
AcDbSpline
210
0.0
220
0.0
230
1.0
 70
     8
 71
     3
 72
    11
 73
     7
 74
     0
 42
0.000000001
 43
0.0000000383156674
 40
-0.135956861098594
 40
-0.135956861098594
 40
-0.135956861098594
 40
-0.135956861098594
 40
-0.0722929810034998
 40
-0.0722929810034998
 40
-0.0722929810034998
 40
0.0
 40
0.0
 40
0.0
 40
0.0
 10
415.5289255879039
 20
290.0715785956108
 30
0.0
 10
415.7009938392767
 20
289.9498593705281
 30
0.0
 10
415.8730620906495
 20
289.8281401454453
 30
0.0
 10
416.0024004519718
 20
289.6719168859628
 30
0.0
 10
416.1492695351023
 20
289.494518883937
 30
0.0
 10
416.2410403645667
 20
289.2726294957265
 30
0.0
 10
416.332811194031
 20
289.0507401075158
 30
0.0
  0
SPLINE
  5
D2
330
1F
100
AcDbEntity
  8
VISIBLE
100
AcDbSpline
210
0.0
220
0.0
230
1.0
 70
     8
 71
     3
 72
    11
 73
     7
 74
     0
 42
0.000000001
 43
0.0000000382478971
 40
-0.155408817321417
 40
-0.155408817321417
 40
-0.155408817321417
 40
-0.155408817321417
 40
-0.0727558265031802
 40
-0.0727558265031802
 40
-0.0727558265031802
 40
0.0
 40
0.0
 40
0.0
 40
0.0
 10
416.332811194031
 20
289.0507401075158
 30
0.0
 10
416.4050104184916
 20
288.8074414456038
 30
0.0
 10
416.4772096429521
 20
288.5641427836918
 30
0.0
 10
416.4755450104691
 20
288.3204550242918
 30
0.0
 10
416.4740797070247
 20
288.1059473075312
 30
0.0
 10
416.4153808921006
 20
287.8911380980451
 30
0.0
 10
416.3566820771765
 20
287.6763288885591
 30
0.0
  0
SPLINE
  5
D3
330
1F
100
AcDbEntity
  8
VISIBLE
100
AcDbSpline
210
0.0
220
0.0
230
1.0
 70
     8
 71
     3
 72
    11
 73
     7
 74
     0
 42
0.000000001
 43
0.0000000381362214
 40
-0.12548634388917
 40
-0.12548634388917
 40
-0.12548634388917
 40
-0.12548634388917
 40
-0.0623642744137279
 40
-0.0623642744137279
 40
-0.0623642744137279
 40
0.0
 40
0.0
 40
0.0
 40
0.0
 10
416.3566820771765
 20
287.6763288885591
 30
0.0
 10
416.25944432646
 20
287.4923880884862
 30
0.0
 10
416.1622065757435
 20
287.3084472884135
 30
0.0
 10
416.0192514611108
 20
287.1724249174182
 30
0.0
 10
415.8780125557345
 20
287.0380355264867
 30
0.0
 10
415.6921473924821
 20
286.9504209272285
 30
0.0
 10
415.5062822292296
 20
286.8628063279703
 30
0.0
  0
SPLINE
  5
D4
330
1F
100
AcDbEntity
  8
VISIBLE
100
AcDbSpline
210
0.0
220
0.0
230
1.0
 70
     8
 71
     3
 72
    11
 73
     7
 74
     0
 42
0.000000001
 43
0.0000000380222542
 40
-0.115037358196944
 40
-0.115037358196944
 40
-0.115037358196944
 40
-0.115037358196944
 40
-0.0571593180990788
 40
-0.0571593180990788
 40
-0.0571593180990788
 40
0.0
 40
0.0
 40
0.0
 40
0.0
 10
415.5062822292296
 20
286.8628063279703
 30
0.0
 10
415.3217110667949
 20
286.8148796188543
 30
0.0
 10
415.1371399043601
 20
286.7669529097382
 30
0.0
 10
414.9548232167015
 20
286.7745817593148
 30
0.0
 10
414.7747705140351
 20
286.7821158748262
 30
0.0
 10
414.5969166422417
 20
286.8438343524406
 30
0.0
 10
414.4190627704482
 20
286.9055528300549
 30
0.0
  0
SPLINE
  5
D5
330
1F
100
AcDbEntity
  8
VISIBLE
100
AcDbSpline
210
0.0
220
0.0
230
1.0
 70
     8
 71
     3
 72
    11
 73
     7
 74
     0
 42
0.000000001
 43
0.0000000380211227
 40
-0.13235079775704
 40
-0.13235079775704
 40
-0.13235079775704
 40
-0.13235079775704
 40
-0.0711896269329304
 40
-0.0711896269329304
 40
-0.0711896269329304
 40
0.0
 40
0.0
 40
0.0
 40
0.0
 10
414.4190627704482
 20
286.9055528300549
 30
0.0
 10
414.2471175918749
 20
287.0119629056372
 30
0.0
 10
414.0751724133015
 20
287.1183729812195
 30
0.0
 10
413.9371894714682
 20
287.2575732377001
 30
0.0
 10
413.7765817849269
 20
287.4195978391637
 30
0.0
 10
413.6619868428434
 20
287.6260472594618
 30
0.0
 10
413.5473919007597
 20
287.8324966797599
 30
0.0
  0
LINE
  5
D6
330
1F
100
AcDbEntity
  8
VISIBLE
100
AcDbLine
 10
413.5473919007676
 20
287.8324966797482
 30
0.0
 11
411.7498151402071
 21
286.9403378724758
 31
0.0
  0
SPLINE
  5
D7
330
1F
100
AcDbEntity
  8
VISIBLE
100
AcDbSpline
210
0.0
220
0.0
230
1.0
 70
     8
 71
     3
 72
    11
 73
     7
 74
     0
 42
0.000000001
 43
0.0000000378955502
 40
-0.264697113619672
 40
-0.264697113619672
 40
-0.264697113619672
 40
-0.264697113619672
 40
-0.129863569778195
 40
-0.129863569778195
 40
-0.129863569778195
 40
0.0
 40
0.0
 40
0.0
 40
0.0
 10
411.7498151401993
 20
286.9403378724875
 30
0.0
 10
411.9693999332975
 20
286.564651951667
 30
0.0
 10
412.1889847263958
 20
286.1889660308464
 30
0.0
 10
412.4934814931674
 20
285.9030558953036
 30
0.0
 10
412.7867544873518
 20
285.6276844277924
 30
0.0
 10
413.1587950992878
 20
285.4355924370402
 30
0.0
 10
413.5308357112239
 20
285.243500446288
 30
0.0
  0
SPLINE
  5
D8
330
1F
100
AcDbEntity
  8
VISIBLE
100
AcDbSpline
210
0.0
220
0.0
230
1.0
 70
     8
 71
     3
 72
    11
 73
     7
 74
     0
 42
0.000000001
 43
0.0000000379365482
 40
-0.266281978642836
 40
-0.266281978642836
 40
-0.266281978642836
 40
-0.266281978642836
 40
-0.138059646229072
 40
-0.138059646229072
 40
-0.138059646229072
 40
0.0
 40
0.0
 40
0.0
 40
0.0
 10
413.5308357112239
 20
285.243500446288
 30
0.0
 10
413.9413597408731
 20
285.1293497213845
 30
0.0
 10
414.3518837705224
 20
285.015198996481
 30
0.0
 10
414.762510098364
 20
285.0119833300657
 30
0.0
 10
415.2046399870267
 20
285.0085209553038
 30
0.0
 10
415.646888472805
 20
285.1336686532828
 30
0.0
 10
416.0891369585833
 20
285.2588163512617
 30
0.0
  0
ARC
  5
D9
330
1F
100
AcDbEntity
  8
VISIBLE
100
AcDbCircle
 10
419.8781482754443
 20
191.6709572143777
 30
-0.0000000000000005
 40
8.0
100
AcDbArc
 50
52.02725467328998
 51
114.5241371977144
  0
LINE
  5
DA
330
1F
100
AcDbEntity
  8
VISIBLE
100
AcDbLine
 10
409.7845500050784
 20
141.5038720874801
 30
0.0
 11
416.5575358875878
 21
198.9492491410329
 31
0.0
  0
ARC
  5
DB
330
1F
100
AcDbEntity
  8
VISIBLE
100
AcDbCircle
 10
410.1068218186399
 20
235.5222687550738
 30
0.0
 40
94.018949
100
AcDbArc
 50
269.3686827887728
 51
269.8036050059274
  0
ARC
  5
DC
330
1F
100
AcDbEntity
  8
VISIBLE
100
AcDbCircle
 10
411.4904140004331
 20
126.714662095398
 30
-0.0000000000000012
 40
14.79745414920204
100
AcDbArc
 50
34.00133963839114
 51
64.04378209139895
  0
LINE
  5
DD
330
1F
100
AcDbEntity
  8
VISIBLE
100
AcDbLine
 10
417.9670260727495
 20
140.0194787180524
 30
0.0
 11
424.8004407694212
 21
197.9773854113636
 31
0.0
  0
SPLINE
  5
DE
330
1F
100
AcDbEntity
  8
VISIBLE
100
AcDbSpline
210
0.0
220
0.0
230
1.0
 70
     8
 71
     3
 72
  1061
 73
  1057
 74
     0
 42
0.000000001
 43
0.0000000539016448
 40
-33.6934975094252
 40
-33.6934975094252
 40
-33.6934975094252
 40
-33.6934975094252
 40
-33.6069172917373
 40
-33.6069172917373
 40
-33.6069172917373
 40
-33.5176763646816
 40
-33.5176763646816
 40
-33.5176763646816
 40
-33.4252513806077
 40
-33.4252513806077
 40
-33.4252513806077
 40
-33.3289010884559
 40
-33.3289010884559
 40
-33.3289010884559
 40
-33.2275514462898
 40
-33.2275514462898
 40
-33.2275514462898
 40
-33.1196947769963
 40
-33.1196947769963
 40
-33.1196947769963
 40
-33.0041282035483
 40
-33.0041282035483
 40
-33.0041282035483
 40
-32.88371572197811
 40
-32.88371572197811
 40
-32.88371572197811
 40
-32.76697054293
 40
-32.76697054293
 40
-32.76697054293
 40
-32.6571232306523
 40
-32.6571232306523
 40
-32.6571232306523
 40
-32.5539981099647
 40
-32.5539981099647
 40
-32.5539981099647
 40
-32.4553858529743
 40
-32.4553858529743
 40
-32.4553858529743
 40
-32.3605065091344
 40
-32.3605065091344
 40
-32.3605065091344
 40
-32.2689247492552
 40
-32.2689247492552
 40
-32.2689247492552
 40
-32.1804219516015
 40
-32.1804219516015
 40
-32.1804219516015
 40
-32.0945657462499
 40
-32.0945657462499
 40
-32.0945657462499
 40
-32.0109479408309
 40
-32.0109479408309
 40
-32.0109479408309
 40
-31.9289485076471
 40
-31.9289485076471
 40
-31.9289485076471
 40
-31.8482550593412
 40
-31.8482550593412
 40
-31.8482550593412
 40
-31.7687636045168
 40
-31.7687636045168
 40
-31.7687636045168
 40
-31.6884294877591
 40
-31.6884294877591
 40
-31.6884294877591
 40
-31.6016895262653
 40
-31.6016895262653
 40
-31.6016895262653
 40
-31.5048546429207
 40
-31.5048546429207
 40
-31.5048546429207
 40
-31.401886291681
 40
-31.401886291681
 40
-31.401886291681
 40
-31.3077894015254
 40
-31.3077894015254
 40
-31.3077894015254
 40
-31.2219142259781
 40
-31.2219142259781
 40
-31.2219142259781
 40
-31.142023135027
 40
-31.142023135027
 40
-31.142023135027
 40
-31.0675383275759
 40
-31.0675383275759
 40
-31.0675383275759
 40
-30.996979967566
 40
-30.996979967566
 40
-30.996979967566
 40
-30.9293667077677
 40
-30.9293667077677
 40
-30.9293667077677
 40
-30.8631817865526
 40
-30.8631817865526
 40
-30.8631817865526
 40
-30.7962929223788
 40
-30.7962929223788
 40
-30.7962929223788
 40
-30.7283440488427
 40
-30.7283440488427
 40
-30.7283440488427
 40
-30.6592287464346
 40
-30.6592287464346
 40
-30.6592287464346
 40
-30.5883538745791
 40
-30.5883538745791
 40
-30.5883538745791
 40
-30.5131428455193
 40
-30.5131428455193
 40
-30.5131428455193
 40
-30.4305292985664
 40
-30.4305292985664
 40
-30.4305292985664
 40
-30.3321595834582
 40
-30.3321595834582
 40
-30.3321595834582
 40
-30.2136745850853
 40
-30.2136745850853
 40
-30.2136745850853
 40
-30.1178757965016
 40
-30.1178757965016
 40
-30.1178757965016
 40
-30.034572385831
 40
-30.034572385831
 40
-30.034572385831
 40
-29.959263307511
 40
-29.959263307511
 40
-29.959263307511
 40
-29.8891516197601
 40
-29.8891516197601
 40
-29.8891516197601
 40
-29.8226017711256
 40
-29.8226017711256
 40
-29.8226017711256
 40
-29.7582939574354
 40
-29.7582939574354
 40
-29.7582939574354
 40
-29.6936689033696
 40
-29.6936689033696
 40
-29.6936689033696
 40
-29.6278752991294
 40
-29.6278752991294
 40
-29.6278752991294
 40
-29.5607749782562
 40
-29.5607749782562
 40
-29.5607749782562
 40
-29.4921428648066
 40
-29.4921428648066
 40
-29.4921428648066
 40
-29.4205800614937
 40
-29.4205800614937
 40
-29.4205800614937
 40
-29.3439425771396
 40
-29.3439425771396
 40
-29.3439425771396
 40
-29.2589942570441
 40
-29.2589942570441
 40
-29.2589942570441
 40
-29.1518502386115
 40
-29.1518502386115
 40
-29.1518502386115
 40
-29.0379758236169
 40
-29.0379758236169
 40
-29.0379758236169
 40
-28.9471454168522
 40
-28.9471454168522
 40
-28.9471454168522
 40
-28.8672142017928
 40
-28.8672142017928
 40
-28.8672142017928
 40
-28.7937327295277
 40
-28.7937327295277
 40
-28.7937327295277
 40
-28.7244342549156
 40
-28.7244342549156
 40
-28.7244342549156
 40
-28.6581360725221
 40
-28.6581360725221
 40
-28.6581360725221
 40
-28.5923641378726
 40
-28.5923641378726
 40
-28.5923641378726
 40
-28.5249729797519
 40
-28.5249729797519
 40
-28.5249729797519
 40
-28.4556124005492
 40
-28.4556124005492
 40
-28.4556124005492
 40
-28.3838857653986
 40
-28.3838857653986
 40
-28.3838857653986
 40
-28.3089452961819
 40
-28.3089452961819
 40
-28.3089452961819
 40
-28.2290770081993
 40
-28.2290770081993
 40
-28.2290770081993
 40
-28.1415073979691
 40
-28.1415073979691
 40
-28.1415073979691
 40
-28.0380728809597
 40
-28.0380728809597
 40
-28.0380728809597
 40
-27.92658554929
 40
-27.92658554929
 40
-27.92658554929
 40
-27.8279755484182
 40
-27.8279755484182
 40
-27.8279755484182
 40
-27.7426974671606
 40
-27.7426974671606
 40
-27.7426974671606
 40
-27.6653329415429
 40
-27.6653329415429
 40
-27.6653329415429
 40
-27.5928447218522
 40
-27.5928447218522
 40
-27.5928447218522
 40
-27.5237361973723
 40
-27.5237361973723
 40
-27.5237361973723
 40
-27.4551930859165
 40
-27.4551930859165
 40
-27.4551930859165
 40
-27.3854248387168
 40
-27.3854248387168
 40
-27.3854248387168
 40
-27.3142766062573
 40
-27.3142766062573
 40
-27.3142766062573
 40
-27.2415566321273
 40
-27.2415566321273
 40
-27.2415566321273
 40
-27.1659766427399
 40
-27.1659766427399
 40
-27.1659766427399
 40
-27.085485430611
 40
-27.085485430611
 40
-27.085485430611
 40
-26.9974898084558
 40
-26.9974898084558
 40
-26.9974898084558
 40
-26.8961172965018
 40
-26.8961172965018
 40
-26.8961172965018
 40
-26.7831662906539
 40
-26.7831662906539
 40
-26.7831662906539
 40
-26.678544547331
 40
-26.678544547331
 40
-26.678544547331
 40
-26.5900192526433
 40
-26.5900192526433
 40
-26.5900192526433
 40
-26.510266426666
 40
-26.510266426666
 40
-26.510266426666
 40
-26.4357662042582
 40
-26.4357662042582
 40
-26.4357662042582
 40
-26.3644220798475
 40
-26.3644220798475
 40
-26.3644220798475
 40
-26.2931307731233
 40
-26.2931307731233
 40
-26.2931307731233
 40
-26.2214294449272
 40
-26.2214294449272
 40
-26.2214294449272
 40
-26.1493061221398
 40
-26.1493061221398
 40
-26.1493061221398
 40
-26.0763296258997
 40
-26.0763296258997
 40
-26.0763296258997
 40
-26.000462168666
 40
-26.000462168666
 40
-26.000462168666
 40
-25.9205084839411
 40
-25.9205084839411
 40
-25.9205084839411
 40
-25.8347288366454
 40
-25.8347288366454
 40
-25.8347288366454
 40
-25.7407880731615
 40
-25.7407880731615
 40
-25.7407880731615
 40
-25.632947327042
 40
-25.632947327042
 40
-25.632947327042
 40
-25.505152311489
 40
-25.505152311489
 40
-25.505152311489
 40
-25.4055228102722
 40
-25.4055228102722
 40
-25.4055228102722
 40
-25.3130667014239
 40
-25.3130667014239
 40
-25.3130667014239
 40
-25.2284638088929
 40
-25.2284638088929
 40
-25.2284638088929
 40
-25.1486285450422
 40
-25.1486285450422
 40
-25.1486285450422
 40
-25.0722601205862
 40
-25.0722601205862
 40
-25.0722601205862
 40
-24.9986077927283
 40
-24.9986077927283
 40
-24.9986077927283
 40
-24.9255474273118
 40
-24.9255474273118
 40
-24.9255474273118
 40
-24.8506251046694
 40
-24.8506251046694
 40
-24.8506251046694
 40
-24.773475252841
 40
-24.773475252841
 40
-24.773475252841
 40
-24.6936398761077
 40
-24.6936398761077
 40
-24.6936398761077
 40
-24.6103601985657
 40
-24.6103601985657
 40
-24.6103601985657
 40
-24.5224726586883
 40
-24.5224726586883
 40
-24.5224726586883
 40
-24.4233088033848
 40
-24.4233088033848
 40
-24.4233088033848
 40
-24.3166998029759
 40
-24.3166998029759
 40
-24.3166998029759
 40
-24.1820621046673
 40
-24.1820621046673
 40
-24.1820621046673
 40
-24.0709251976092
 40
-24.0709251976092
 40
-24.0709251976092
 40
-23.9761353282806
 40
-23.9761353282806
 40
-23.9761353282806
 40
-23.8824785496545
 40
-23.8824785496545
 40
-23.8824785496545
 40
-23.7976078096007
 40
-23.7976078096007
 40
-23.7976078096007
 40
-23.7142050274416
 40
-23.7142050274416
 40
-23.7142050274416
 40
-23.6320675382111
 40
-23.6320675382111
 40
-23.6320675382111
 40
-23.5509078611299
 40
-23.5509078611299
 40
-23.5509078611299
 40
-23.467740157918
 40
-23.467740157918
 40
-23.467740157918
 40
-23.3812725931733
 40
-23.3812725931733
 40
-23.3812725931733
 40
-23.2882202605841
 40
-23.2882202605841
 40
-23.2882202605841
 40
-23.1904063130886
 40
-23.1904063130886
 40
-23.1904063130886
 40
-23.0865907038216
 40
-23.0865907038216
 40
-23.0865907038216
 40
-22.9736508322539
 40
-22.9736508322539
 40
-22.9736508322539
 40
-22.8436072762381
 40
-22.8436072762381
 40
-22.8436072762381
 40
-22.6999774646972
 40
-22.6999774646972
 40
-22.6999774646972
 40
-22.5850083934198
 40
-22.5850083934198
 40
-22.5850083934198
 40
-22.4827239630597
 40
-22.4827239630597
 40
-22.4827239630597
 40
-22.3851535128133
 40
-22.3851535128133
 40
-22.3851535128133
 40
-22.2893099995021
 40
-22.2893099995021
 40
-22.2893099995021
 40
-22.1947764146325
 40
-22.1947764146325
 40
-22.1947764146325
 40
-22.0984829722992
 40
-22.0984829722992
 40
-22.0984829722992
 40
-21.9976606593721
 40
-21.9976606593721
 40
-21.9976606593721
 40
-21.8911624907397
 40
-21.8911624907397
 40
-21.8911624907397
 40
-21.7795156685066
 40
-21.7795156685066
 40
-21.7795156685066
 40
-21.6636785351453
 40
-21.6636785351453
 40
-21.6636785351453
 40
-21.5452244946625
 40
-21.5452244946625
 40
-21.5452244946625
 40
-21.4274745066502
 40
-21.4274745066502
 40
-21.4274745066502
 40
-21.3141446842119
 40
-21.3141446842119
 40
-21.3141446842119
 40
-21.206837589331
 40
-21.206837589331
 40
-21.206837589331
 40
-21.1048456187253
 40
-21.1048456187253
 40
-21.1048456187253
 40
-21.0065146950078
 40
-21.0065146950078
 40
-21.0065146950078
 40
-20.9100497315627
 40
-20.9100497315627
 40
-20.9100497315627
 40
-20.8151908860349
 40
-20.8151908860349
 40
-20.8151908860349
 40
-20.7195333917201
 40
-20.7195333917201
 40
-20.7195333917201
 40
-20.6182821504411
 40
-20.6182821504411
 40
-20.6182821504411
 40
-20.5082224297112
 40
-20.5082224297112
 40
-20.5082224297112
 40
-20.3848678283586
 40
-20.3848678283586
 40
-20.3848678283586
 40
-20.2415253127586
 40
-20.2415253127586
 40
-20.2415253127586
 40
-20.1048149462346
 40
-20.1048149462346
 40
-20.1048149462346
 40
-19.9897863261373
 40
-19.9897863261373
 40
-19.9897863261373
 40
-19.885142414941
 40
-19.885142414941
 40
-19.885142414941
 40
-19.7864087448967
 40
-19.7864087448967
 40
-19.7864087448967
 40
-19.6919605231559
 40
-19.6919605231559
 40
-19.6919605231559
 40
-19.6012052463715
 40
-19.6012052463715
 40
-19.6012052463715
 40
-19.5139335293793
 40
-19.5139335293793
 40
-19.5139335293793
 40
-19.4295034159262
 40
-19.4295034159262
 40
-19.4295034159262
 40
-19.3465870101998
 40
-19.3465870101998
 40
-19.3465870101998
 40
-19.2622318723249
 40
-19.2622318723249
 40
-19.2622318723249
 40
-19.1755125733462
 40
-19.1755125733462
 40
-19.1755125733462
 40
-19.0859107619848
 40
-19.0859107619848
 40
-19.0859107619848
 40
-18.9918503314215
 40
-18.9918503314215
 40
-18.9918503314215
 40
-18.8909434036305
 40
-18.8909434036305
 40
-18.8909434036305
 40
-18.7788582797265
 40
-18.7788582797265
 40
-18.7788582797265
 40
-18.6424105891596
 40
-18.6424105891596
 40
-18.6424105891596
 40
-18.4967667564318
 40
-18.4967667564318
 40
-18.4967667564318
 40
-18.3855325965256
 40
-18.3855325965256
 40
-18.3855325965256
 40
-18.284834540675
 40
-18.284834540675
 40
-18.284834540675
 40
-18.1909831954019
 40
-18.1909831954019
 40
-18.1909831954019
 40
-18.102668488973
 40
-18.102668488973
 40
-18.102668488973
 40
-18.0183999667519
 40
-18.0183999667519
 40
-18.0183999667519
 40
-17.9367563414234
 40
-17.9367563414234
 40
-17.9367563414234
 40
-17.8556797345173
 40
-17.8556797345173
 40
-17.8556797345173
 40
-17.7748226980444
 40
-17.7748226980444
 40
-17.7748226980444
 40
-17.6941141057001
 40
-17.6941141057001
 40
-17.6941141057001
 40
-17.6121102205836
 40
-17.6121102205836
 40
-17.6121102205836
 40
-17.5272935401579
 40
-17.5272935401579
 40
-17.5272935401579
 40
-17.4389492855008
 40
-17.4389492855008
 40
-17.4389492855008
 40
-17.3464423617819
 40
-17.3464423617819
 40
-17.3464423617819
 40
-17.2496884679239
 40
-17.2496884679239
 40
-17.2496884679239
 40
-17.147357923282
 40
-17.147357923282
 40
-17.147357923282
 40
-17.0361113989459
 40
-17.0361113989459
 40
-17.0361113989459
 40
-16.9003201725374
 40
-16.9003201725374
 40
-16.9003201725374
 40
-16.7569733637177
 40
-16.7569733637177
 40
-16.7569733637177
 40
-16.6329881338164
 40
-16.6329881338164
 40
-16.6329881338164
 40
-16.5246943823747
 40
-16.5246943823747
 40
-16.5246943823747
 40
-16.4260491905338
 40
-16.4260491905338
 40
-16.4260491905338
 40
-16.3336809868216
 40
-16.3336809868216
 40
-16.3336809868216
 40
-16.245387620903
 40
-16.245387620903
 40
-16.245387620903
 40
-16.1583858447891
 40
-16.1583858447891
 40
-16.1583858447891
 40
-16.0721773844262
 40
-16.0721773844262
 40
-16.0721773844262
 40
-15.9866025261714
 40
-15.9866025261714
 40
-15.9866025261714
 40
-15.8995135892434
 40
-15.8995135892434
 40
-15.8995135892434
 40
-15.8094549700058
 40
-15.8094549700058
 40
-15.8094549700058
 40
-15.7157159620131
 40
-15.7157159620131
 40
-15.7157159620131
 40
-15.6181386430895
 40
-15.6181386430895
 40
-15.6181386430895
 40
-15.5166280092653
 40
-15.5166280092653
 40
-15.5166280092653
 40
-15.4100293398936
 40
-15.4100293398936
 40
-15.4100293398936
 40
-15.2949673194894
 40
-15.2949673194894
 40
-15.2949673194894
 40
-15.1626224516189
 40
-15.1626224516189
 40
-15.1626224516189
 40
-15.0052344355703
 40
-15.0052344355703
 40
-15.0052344355703
 40
-14.876826469056
 40
-14.876826469056
 40
-14.876826469056
 40
-14.7606012622665
 40
-14.7606012622665
 40
-14.7606012622665
 40
-14.6533293773286
 40
-14.6533293773286
 40
-14.6533293773286
 40
-14.5530614971581
 40
-14.5530614971581
 40
-14.5530614971581
 40
-14.4548869682205
 40
-14.4548869682205
 40
-14.4548869682205
 40
-14.3578288665
 40
-14.3578288665
 40
-14.3578288665
 40
-14.2614449063067
 40
-14.2614449063067
 40
-14.2614449063067
 40
-14.1625225776911
 40
-14.1625225776911
 40
-14.1625225776911
 40
-14.0599457893079
 40
-14.0599457893079
 40
-14.0599457893079
 40
-13.9501024628289
 40
-13.9501024628289
 40
-13.9501024628289
 40
-13.8371864557003
 40
-13.8371864557003
 40
-13.8371864557003
 40
-13.7187478396186
 40
-13.7187478396186
 40
-13.7187478396186
 40
-13.59135636
 40
-13.59135636
 40
-13.59135636
 40
-13.4487716465041
 40
-13.4487716465041
 40
-13.4487716465041
 40
-13.2779288766636
 40
-13.2779288766636
 40
-13.2779288766636
 40
-13.1106758832485
 40
-13.1106758832485
 40
-13.1106758832485
 40
-12.97554894655
 40
-12.97554894655
 40
-12.97554894655
 40
-12.8527892175236
 40
-12.8527892175236
 40
-12.8527892175236
 40
-12.7356308520254
 40
-12.7356308520254
 40
-12.7356308520254
 40
-12.6220996550181
 40
-12.6220996550181
 40
-12.6220996550181
 40
-12.5076913837943
 40
-12.5076913837943
 40
-12.5076913837943
 40
-12.3902363913983
 40
-12.3902363913983
 40
-12.3902363913983
 40
-12.2697894739534
 40
-12.2697894739534
 40
-12.2697894739534
 40
-12.1469806958643
 40
-12.1469806958643
 40
-12.1469806958643
 40
-12.0214765018524
 40
-12.0214765018524
 40
-12.0214765018524
 40
-11.8921984251756
 40
-11.8921984251756
 40
-11.8921984251756
 40
-11.7582189937245
 40
-11.7582189937245
 40
-11.7582189937245
 40
-11.6188034716924
 40
-11.6188034716924
 40
-11.6188034716924
 40
-11.47263112135
 40
-11.47263112135
 40
-11.47263112135
 40
-11.3170654002487
 40
-11.3170654002487
 40
-11.3170654002487
 40
-11.1475302799932
 40
-11.1475302799932
 40
-11.1475302799932
 40
-10.9550069959413
 40
-10.9550069959413
 40
-10.9550069959413
 40
-10.7278587627894
 40
-10.7278587627894
 40
-10.7278587627894
 40
-10.5601369635776
 40
-10.5601369635776
 40
-10.5601369635776
 40
-10.3951348235217
 40
-10.3951348235217
 40
-10.3951348235217
 40
-10.2518408909151
 40
-10.2518408909151
 40
-10.2518408909151
 40
-10.1167875621788
 40
-10.1167875621788
 40
-10.1167875621788
 40
-9.987878152746081
 40
-9.987878152746081
 40
-9.987878152746081
 40
-9.863936763933559
 40
-9.863936763933559
 40
-9.863936763933559
 40
-9.74387063038096
 40
-9.74387063038096
 40
-9.74387063038096
 40
-9.62663608339824
 40
-9.62663608339824
 40
-9.62663608339824
 40
-9.51187717001383
 40
-9.51187717001383
 40
-9.51187717001383
 40
-9.400064130172
 40
-9.400064130172
 40
-9.400064130172
 40
-9.291074998024321
 40
-9.291074998024321
 40
-9.291074998024321
 40
-9.18263524937861
 40
-9.18263524937861
 40
-9.18263524937861
 40
-9.06843742969334
 40
-9.06843742969334
 40
-9.06843742969334
 40
-8.94554673165856
 40
-8.94554673165856
 40
-8.94554673165856
 40
-8.805587201244629
 40
-8.805587201244629
 40
-8.805587201244629
 40
-8.662678837748581
 40
-8.662678837748581
 40
-8.662678837748581
 40
-8.52732448090876
 40
-8.52732448090876
 40
-8.52732448090876
 40
-8.4098652425689
 40
-8.4098652425689
 40
-8.4098652425689
 40
-8.3010085682846
 40
-8.3010085682846
 40
-8.3010085682846
 40
-8.19832506403818
 40
-8.19832506403818
 40
-8.19832506403818
 40
-8.100143080345141
 40
-8.100143080345141
 40
-8.100143080345141
 40
-8.00503149746519
 40
-8.00503149746519
 40
-8.00503149746519
 40
-7.91235944632064
 40
-7.91235944632064
 40
-7.91235944632064
 40
-7.82185814996165
 40
-7.82185814996165
 40
-7.82185814996165
 40
-7.733957725929661
 40
-7.733957725929661
 40
-7.733957725929661
 40
-7.64846004305298
 40
-7.64846004305298
 40
-7.64846004305298
 40
-7.56497953145788
 40
-7.56497953145788
 40
-7.56497953145788
 40
-7.4815025113734
 40
-7.4815025113734
 40
-7.4815025113734
 40
-7.39649597539546
 40
-7.39649597539546
 40
-7.39649597539546
 40
-7.30977084836212
 40
-7.30977084836212
 40
-7.30977084836212
 40
-7.22049198690253
 40
-7.22049198690253
 40
-7.22049198690253
 40
-7.12606515899199
 40
-7.12606515899199
 40
-7.12606515899199
 40
-7.02386368481537
 40
-7.02386368481537
 40
-7.02386368481537
 40
-6.907252595037409
 40
-6.907252595037409
 40
-6.907252595037409
 40
-6.73424299896664
 40
-6.73424299896664
 40
-6.73424299896664
 40
-6.61400094865256
 40
-6.61400094865256
 40
-6.61400094865256
 40
-6.51065718382986
 40
-6.51065718382986
 40
-6.51065718382986
 40
-6.408928165332521
 40
-6.408928165332521
 40
-6.408928165332521
 40
-6.31632038047532
 40
-6.31632038047532
 40
-6.31632038047532
 40
-6.22755001997987
 40
-6.22755001997987
 40
-6.22755001997987
 40
-6.14182377207314
 40
-6.14182377207314
 40
-6.14182377207314
 40
-6.05940408446696
 40
-6.05940408446696
 40
-6.05940408446696
 40
-5.98001718687403
 40
-5.98001718687403
 40
-5.98001718687403
 40
-5.90308956837556
 40
-5.90308956837556
 40
-5.90308956837556
 40
-5.82773484770427
 40
-5.82773484770427
 40
-5.82773484770427
 40
-5.751899206982791
 40
-5.751899206982791
 40
-5.751899206982791
 40
-5.67539615229373
 40
-5.67539615229373
 40
-5.67539615229373
 40
-5.59818967983663
 40
-5.59818967983663
 40
-5.59818967983663
 40
-5.518932281467049
 40
-5.518932281467049
 40
-5.518932281467049
 40
-5.43129405297587
 40
-5.43129405297587
 40
-5.43129405297587
 40
-5.33385323851037
 40
-5.33385323851037
 40
-5.33385323851037
 40
-5.21830060437502
 40
-5.21830060437502
 40
-5.21830060437502
 40
-5.07920081509719
 40
-5.07920081509719
 40
-5.07920081509719
 40
-4.97606720344267
 40
-4.97606720344267
 40
-4.97606720344267
 40
-4.88576777593277
 40
-4.88576777593277
 40
-4.88576777593277
 40
-4.80229586154964
 40
-4.80229586154964
 40
-4.80229586154964
 40
-4.72313427025989
 40
-4.72313427025989
 40
-4.72313427025989
 40
-4.64680391736503
 40
-4.64680391736503
 40
-4.64680391736503
 40
-4.572731394818921
 40
-4.572731394818921
 40
-4.572731394818921
 40
-4.50058266718189
 40
-4.50058266718189
 40
-4.50058266718189
 40
-4.430261063007181
 40
-4.430261063007181
 40
-4.430261063007181
 40
-4.36103823389769
 40
-4.36103823389769
 40
-4.36103823389769
 40
-4.29289701149304
 40
-4.29289701149304
 40
-4.29289701149304
 40
-4.225820495688461
 40
-4.225820495688461
 40
-4.225820495688461
 40
-4.15979205044333
 40
-4.15979205044333
 40
-4.15979205044333
 40
-4.09479529965515
 40
-4.09479529965515
 40
-4.09479529965515
 40
-4.02966315352303
 40
-4.02966315352303
 40
-4.02966315352303
 40
-3.96389248558299
 40
-3.96389248558299
 40
-3.96389248558299
 40
-3.89720231318452
 40
-3.89720231318452
 40
-3.89720231318452
 40
-3.82838886339355
 40
-3.82838886339355
 40
-3.82838886339355
 40
-3.75652558676853
 40
-3.75652558676853
 40
-3.75652558676853
 40
-3.68060258983329
 40
-3.68060258983329
 40
-3.68060258983329
 40
-3.5989691709785
 40
-3.5989691709785
 40
-3.5989691709785
 40
-3.50979459855751
 40
-3.50979459855751
 40
-3.50979459855751
 40
-3.40671606780675
 40
-3.40671606780675
 40
-3.40671606780675
 40
-3.29562128634334
 40
-3.29562128634334
 40
-3.29562128634334
 40
-3.19844909052976
 40
-3.19844909052976
 40
-3.19844909052976
 40
-3.11443579801131
 40
-3.11443579801131
 40
-3.11443579801131
 40
-3.03701051140015
 40
-3.03701051140015
 40
-3.03701051140015
 40
-2.96337528558032
 40
-2.96337528558032
 40
-2.96337528558032
 40
-2.89251656751911
 40
-2.89251656751911
 40
-2.89251656751911
 40
-2.82390171318575
 40
-2.82390171318575
 40
-2.82390171318575
 40
-2.75723196798997
 40
-2.75723196798997
 40
-2.75723196798997
 40
-2.69271703067158
 40
-2.69271703067158
 40
-2.69271703067158
 40
-2.63008542491433
 40
-2.63008542491433
 40
-2.63008542491433
 40
-2.56904650448397
 40
-2.56904650448397
 40
-2.56904650448397
 40
-2.50938234316577
 40
-2.50938234316577
 40
-2.50938234316577
 40
-2.45038418716287
 40
-2.45038418716287
 40
-2.45038418716287
 40
-2.39125742290632
 40
-2.39125742290632
 40
-2.39125742290632
 40
-2.33198758040823
 40
-2.33198758040823
 40
-2.33198758040823
 40
-2.27257267838797
 40
-2.27257267838797
 40
-2.27257267838797
 40
-2.21300416034694
 40
-2.21300416034694
 40
-2.21300416034694
 40
-2.15237722365778
 40
-2.15237722365778
 40
-2.15237722365778
 40
-2.08978233088757
 40
-2.08978233088757
 40
-2.08978233088757
 40
-2.02327756780658
 40
-2.02327756780658
 40
-2.02327756780658
 40
-1.95327711557007
 40
-1.95327711557007
 40
-1.95327711557007
 40
-1.87924843254458
 40
-1.87924843254458
 40
-1.87924843254458
 40
-1.8004172508993
 40
-1.8004172508993
 40
-1.8004172508993
 40
-1.71417483862239
 40
-1.71417483862239
 40
-1.71417483862239
 40
-1.60860500381146
 40
-1.60860500381146
 40
-1.60860500381146
 40
-1.50806719107324
 40
-1.50806719107324
 40
-1.50806719107324
 40
-1.42300869962981
 40
-1.42300869962981
 40
-1.42300869962981
 40
-1.34724246437764
 40
-1.34724246437764
 40
-1.34724246437764
 40
-1.27426420240951
 40
-1.27426420240951
 40
-1.27426420240951
 40
-1.20300864543675
 40
-1.20300864543675
 40
-1.20300864543675
 40
-1.13325664304503
 40
-1.13325664304503
 40
-1.13325664304503
 40
-1.06242810285472
 40
-1.06242810285472
 40
-1.06242810285472
 40
-0.992090725245857
 40
-0.992090725245857
 40
-0.992090725245857
 40
-0.920044664231661
 40
-0.920044664231661
 40
-0.920044664231661
 40
-0.8460095027729311
 40
-0.8460095027729311
 40
-0.8460095027729311
 40
-0.769925932412734
 40
-0.769925932412734
 40
-0.769925932412734
 40
-0.692337785226817
 40
-0.692337785226817
 40
-0.692337785226817
 40
-0.613138552467727
 40
-0.613138552467727
 40
-0.613138552467727
 40
-0.530968476851883
 40
-0.530968476851883
 40
-0.530968476851883
 40
-0.446009357151529
 40
-0.446009357151529
 40
-0.446009357151529
 40
-0.35726806300577
 40
-0.35726806300577
 40
-0.35726806300577
 40
-0.355797804289646
 40
-0.355797804289646
 40
-0.355797804289646
 40
-0.355797804289646
 10
409.0708889775302
 20
141.5090270378749
 30
0.0
 10
408.5906431829784
 20
141.5143188710389
 30
0.0
 10
408.1140856808832
 20
141.525627082988
 30
0.0
 10
407.6412138194639
 20
141.5429243479581
 30
0.0
 10
407.1538100635184
 20
141.5607531777149
 30
0.0
 10
406.6703220666587
 20
141.5849446405455
 30
0.0
 10
406.1907403966088
 20
141.6154128889077
 30
0.0
 10
405.694047571031
 20
141.6469682241394
 30
0.0
 10
405.2015449377565
 20
141.6852560223862
 30
0.0
 10
404.7132131508291
 20
141.7301248082419
 30
0.0
 10
404.2041418125004
 20
141.7768991806587
 30
0.0
 10
403.6996033023594
 20
141.8308251280131
 30
0.0
 10
403.1995636220463
 20
141.8916748560345
 30
0.0
 10
402.6735782665612
 20
141.9556819080439
 30
0.0
 10
402.152570964542
 20
142.0273495191302
 30
0.0
 10
401.6364856381505
 20
142.1063566201905
 30
0.0
 10
401.0872656982855
 20
142.1904362734459
 30
0.0
 10
400.5436204265719
 20
142.2828275453919
 30
0.0
 10
400.0054589166873
 20
142.3830889653135
 30
0.0
 10
399.4288280781272
 20
142.4905173591744
 30
0.0
 10
398.8584936685694
 20
142.6069802478861
 30
0.0
 10
398.2943097165155
 20
142.7318864758042
 30
0.0
 10
397.706468546686
 20
142.8620302398568
 30
0.0
 10
397.1253051583562
 20
143.0013384621643
 30
0.0
 10
396.5506078886026
 20
143.1491147841621
 30
0.0
 10
395.9934136942726
 20
143.2923904059724
 30
0.0
 10
395.4422978096727
 20
143.4436242777956
 30
0.0
 10
394.897019364113
 20
143.6021844052481
 30
0.0
 10
394.3839585921299
 20
143.7513760376314
 30
0.0
 10
393.87606541254
 20
143.9070525453078
 30
0.0
 10
393.3730995518955
 20
144.0687114112311
 30
0.0
 10
392.9009130777324
 20
144.2204774372984
 30
0.0
 10
392.4330689747802
 20
144.3775153391837
 30
0.0
 10
391.9693376680873
 20
144.5394440289018
 30
0.0
 10
391.5258997308985
 20
144.6942865489214
 30
0.0
 10
391.0862221286287
 20
144.8536006919819
 30
0.0
 10
390.6500796246411
 20
145.0170943593084
 30
0.0
 10
390.2304470570278
 20
145.1743990631187
 30
0.0
 10
389.814086666271
 20
145.3355725157942
 30
0.0
 10
389.4007800759306
 20
145.5003992174545
 30
0.0
 10
389.0018381842484
 20
145.6594972761279
 30
0.0
 10
388.6057412403542
 20
145.8219988094687
 30
0.0
 10
388.2122803679654
 20
145.9877566154129
 30
0.0
 10
387.8320475790382
 20
146.1479416738608
 30
0.0
 10
387.4542764092284
 20
146.3111675321422
 30
0.0
 10
387.0787697496629
 20
146.4773487876076
 30
0.0
 10
386.714492260937
 20
146.6385605500949
 30
0.0
 10
386.3523457355761
 20
146.8025534244142
 30
0.0
 10
385.9921442373399
 20
146.9692976317845
 30
0.0
 10
385.6413337319394
 20
147.1316945677956
 30
0.0
 10
385.2923680468063
 20
147.2967010967209
 30
0.0
 10
384.9450714118233
 20
147.4643384613532
 30
0.0
 10
384.6044964939269
 20
147.6287313058125
 30
0.0
 10
384.2655265466196
 20
147.795654009269
 30
0.0
 10
383.9279933901569
 20
147.9651762954174
 30
0.0
 10
383.5958360415628
 20
148.1319986416566
 30
0.0
 10
383.2650699871337
 20
148.3013383397249
 30
0.0
 10
382.9355340251144
 20
148.4733118663734
 30
0.0
 10
382.610906764936
 20
148.6427237097333
 30
0.0
 10
382.287473139667
 20
148.8146914232588
 30
0.0
 10
381.9650794445711
 20
148.9893764968131
 30
0.0
 10
381.6392681633334
 20
149.1659133475442
 30
0.0
 10
381.3145188777995
 20
149.3452252268487
 30
0.0
 10
380.9906746927213
 20
149.5275333863626
 30
0.0
 10
380.641007163191
 20
149.7243788036581
 30
0.0
 10
380.2923943561508
 20
149.9247178710603
 30
0.0
 10
379.9446450998454
 20
150.1288929420556
 30
0.0
 10
379.5564242834234
 20
150.356830202359
 30
0.0
 10
379.1692786732978
 20
150.5895494400714
 30
0.0
 10
378.7829623680896
 20
150.8275910728994
 30
0.0
 10
378.3721770020068
 20
151.0807101309509
 30
0.0
 10
377.9623279084
 20
151.3398500811748
 30
0.0
 10
377.5531606850767
 20
151.6056960351797
 30
0.0
 10
377.1792461491558
 20
151.8486374558311
 30
0.0
 10
376.8059010575512
 20
152.0971811268728
 30
0.0
 10
376.4329727832335
 20
152.3518422892025
 30
0.0
 10
376.0926291122513
 20
152.5842524356375
 30
0.0
 10
375.752632760892
 20
152.8217586582286
 30
0.0
 10
375.4129025323345
 20
153.0647274745282
 30
0.0
 10
375.0968459022835
 20
153.2907653682215
 30
0.0
 10
374.7810197023449
 20
153.5215315659376
 30
0.0
 10
374.4653884272594
 20
153.7572891260145
 30
0.0
 10
374.1711161314323
 20
153.9770928144913
 30
0.0
 10
373.8770133023665
 20
154.201235613637
 30
0.0
 10
373.5830770805631
 20
154.4298958522021
 30
0.0
 10
373.304635630989
 20
154.6465023251825
 30
0.0
 10
373.0263436805334
 20
154.8671628459345
 30
0.0
 10
372.748222876528
 20
155.0919911194531
 30
0.0
 10
372.4817108122753
 20
155.3074350791098
 30
0.0
 10
372.2153558898911
 20
155.5267063780446
 30
0.0
 10
371.9492000793124
 20
155.7498652138196
 30
0.0
 10
371.6886668435733
 20
155.968309791234
 30
0.0
 10
371.4283243233286
 20
156.1904796986332
 30
0.0
 10
371.1682350860464
 20
156.4163881466933
 30
0.0
 10
370.9053795390998
 20
156.6446993574731
 30
0.0
 10
370.642782721865
 20
156.8768290840997
 30
0.0
 10
370.3805340034777
 20
157.1127427174385
 30
0.0
 10
370.1141293452314
 20
157.3523949500661
 30
0.0
 10
369.8480839750039
 20
157.595951911931
 30
0.0
 10
369.5825161092251
 20
157.8433283971577
 30
0.0
 10
369.3123894331235
 20
158.0949514145134
 30
0.0
 10
369.0427568725651
 20
158.3505261529367
 30
0.0
 10
368.7737669159257
 20
158.6099136137307
 30
0.0
 10
368.4979288881224
 20
158.8759046808925
 30
0.0
 10
368.2227666622882
 20
159.1459050591672
 30
0.0
 10
367.9484644486104
 20
159.4197139127537
 30
0.0
 10
367.6573802995466
 20
159.7102745177292
 30
0.0
 10
367.3672647710803
 20
160.0051236816181
 30
0.0
 10
367.0783637817769
 20
160.3039646992589
 30
0.0
 10
366.7610282029007
 20
160.6322186368924
 30
0.0
 10
366.4451583388747
 20
160.9652884592333
 30
0.0
 10
366.131106442848
 20
161.3027192012193
 30
0.0
 10
365.7571581416214
 20
161.7045051937374
 30
0.0
 10
365.3857882126055
 20
162.112473315803
 30
0.0
 10
365.0176185346299
 20
162.5257800097142
 30
0.0
 10
364.5741631108963
 20
163.0236023618649
 30
0.0
 10
364.1353539676844
 20
163.5291651556909
 30
0.0
 10
363.7022785622763
 20
164.0409398850071
 30
0.0
 10
363.3521236922654
 20
164.4547255943334
 30
0.0
 10
363.0057179005122
 20
164.8725696751748
 30
0.0
 10
362.6636111760401
 20
165.2936809913595
 30
0.0
 10
362.3661266526634
 20
165.6598652555745
 30
0.0
 10
362.0718929946975
 20
166.0285193954863
 30
0.0
 10
361.7812460704149
 20
166.399153999641
 30
0.0
 10
361.518491498807
 20
166.7342201176748
 30
0.0
 10
361.2586684128372
 20
167.0709044057789
 30
0.0
 10
361.0020008202294
 20
167.4088784020636
 30
0.0
 10
360.7630469183875
 20
167.7235274168175
 30
0.0
 10
360.5268281304957
 20
168.0392939208622
 30
0.0
 10
360.2935010189703
 20
168.3559487944752
 30
0.0
 10
360.0720274750793
 20
168.6565168535872
 30
0.0
 10
359.8531593721922
 20
168.957885059254
 30
0.0
 10
359.6370062230881
 20
169.2598952472461
 30
0.0
 10
359.4281351779041
 20
169.5517308456797
 30
0.0
 10
359.2217993589324
 20
169.8441656470856
 30
0.0
 10
359.0180724716918
 20
170.1370968804116
 30
0.0
 10
358.813340568256
 20
170.4314731887474
 30
0.0
 10
358.6112434918799
 20
170.7263506744745
 30
0.0
 10
358.4118278699475
 20
171.0216705327113
 30
0.0
 10
358.2088064149037
 20
171.322330364381
 30
0.0
 10
358.0085642210509
 20
171.6234487949552
 30
0.0
 10
357.8111214454263
 20
171.9250105905682
 30
0.0
 10
357.6097572892666
 20
172.2325616585244
 30
0.0
 10
357.4113048072995
 20
172.5405739700155
 30
0.0
 10
357.2157561010837
 20
172.8490782993481
 30
0.0
 10
357.0157433319153
 20
173.1646252871257
 30
0.0
 10
356.8187683820015
 20
173.4806871103268
 30
0.0
 10
356.6247931569385
 20
173.7973438987511
 30
0.0
 10
356.4225349110381
 20
174.1275223870523
 30
0.0
 10
356.223538018519
 20
174.4583478188394
 30
0.0
 10
356.027727640939
 20
174.7899609857999
 30
0.0
 10
355.8180319044188
 20
175.1450895961676
 30
0.0
 10
355.6119904817727
 20
175.5011219662749
 30
0.0
 10
355.4094772729393
 20
175.858283770637
 30
0.0
 10
355.1850028263609
 20
176.2541774451041
 30
0.0
 10
354.9648630872372
 20
176.6514593577868
 30
0.0
 10
354.7488483074812
 20
177.0504928446037
 30
0.0
 10
354.4763921657017
 20
177.5537876857335
 30
0.0
 10
354.2104978638386
 20
178.059870413941
 30
0.0
 10
353.9506887286514
 20
178.5695425113258
 30
0.0
 10
353.6745593309259
 20
179.1112303514668
 30
0.0
 10
353.4053007009973
 20
179.6569780816424
 30
0.0
 10
353.1423137970487
 20
180.2077599469927
 30
0.0
 10
352.9325458042948
 20
180.6470837483116
 30
0.0
 10
352.7267668454762
 20
181.0896117752227
 30
0.0
 10
352.5246818449168
 20
181.5358065556836
 30
0.0
 10
352.3468460274261
 20
181.9284602079767
 30
0.0
 10
352.171870491594
 20
182.3239538320147
 30
0.0
 10
351.9995702111001
 20
182.7225653310595
 30
0.0
 10
351.8411730408214
 20
183.0890124042059
 30
0.0
 10
351.685036561441
 20
183.4580948222764
 30
0.0
 10
351.5310355183285
 20
183.8299896717141
 30
0.0
 10
351.3858011204944
 20
184.1807140786665
 30
0.0
 10
351.2424657866132
 20
184.5339400797016
 30
0.0
 10
351.1009445013179
 20
184.8897760263672
 30
0.0
 10
350.9655504102128
 20
185.2302059799307
 30
0.0
 10
350.8318165569249
 20
185.5730249770876
 30
0.0
 10
350.6996895453849
 20
185.9182867625214
 30
0.0
 10
350.5686113037997
 20
186.2608080016968
 30
0.0
 10
350.4391143135404
 20
186.6057337110503
 30
0.0
 10
350.3111702867134
 20
186.9530705313796
 30
0.0
 10
350.1800764366017
 20
187.3089583535138
 30
0.0
 10
350.0506129885301
 20
187.6673773409871
 30
0.0
 10
349.9227757158241
 20
188.0282850711644
 30
0.0
 10
349.7912025610387
 20
188.3997398717925
 30
0.0
 10
349.6613520561467
 20
188.7738308502201
 30
0.0
 10
349.5332464489474
 20
189.1504620104014
 30
0.0
 10
349.4007708518007
 20
189.5399409640547
 30
0.0
 10
349.2701612719644
 20
189.9321361794694
 30
0.0
 10
349.1414700073114
 20
190.3268915602868
 30
0.0
 10
349.0070125113344
 20
190.7393346283636
 30
0.0
 10
348.8746491263273
 20
191.154572220676
 30
0.0
 10
348.7444686956243
 20
191.5723755163319
 30
0.0
 10
348.6057280627227
 20
192.0176520709925
 30
0.0
 10
348.4694669807648
 20
192.4658424755725
 30
0.0
 10
348.3358247600178
 20
192.9166175451177
 30
0.0
 10
348.1892960503543
 20
193.4108587281787
 30
0.0
 10
348.0459156794566
 20
193.9082064595506
 30
0.0
 10
347.9059033627299
 20
194.4081733914046
 30
0.0
 10
347.7405251417018
 20
194.9987188783728
 30
0.0
 10
347.5798459116532
 20
195.5929171509858
 30
0.0
 10
347.424276325363
 20
196.1899085410213
 30
0.0
 10
347.2565949887461
 20
196.8333782359471
 30
0.0
 10
347.0948512485888
 20
197.4800889153528
 30
0.0
 10
346.9395988867283
 20
198.1289498912127
 30
0.0
 10
346.8022789301995
 20
198.7028642583159
 30
0.0
 10
346.6700388775419
 20
199.2784586180935
 30
0.0
 10
346.5432699997341
 20
199.8550105920283
 30
0.0
 10
346.4336400781536
 20
200.3536136307442
 30
0.0
 10
346.3281024828145
 20
200.8529323898843
 30
0.0
 10
346.2269049592087
 20
201.3525401666564
 30
0.0
 10
346.1350982687674
 20
201.805785808149
 30
0.0
 10
346.0468638302216
 20
202.2592689229686
 30
0.0
 10
345.96237661456
 20
202.7127126732531
 30
0.0
 10
345.8832146498091
 20
203.1375757474533
 30
0.0
 10
345.8073426024468
 20
203.5624039822026
 30
0.0
 10
345.7348919060177
 20
203.9870128860788
 30
0.0
 10
345.6658191553124
 20
204.3918247983196
 30
0.0
 10
345.5998562931266
 20
204.7964371287609
 30
0.0
 10
345.5371032306895
 20
205.2007342576924
 30
0.0
 10
345.4748635839139
 20
205.6017236201213
 30
0.0
 10
345.4157815632705
 20
206.0024026569858
 30
0.0
 10
345.3599382398059
 20
206.4027078014156
 30
0.0
 10
345.3030967758945
 20
206.8101679776078
 30
0.0
 10
345.2496108330584
 20
207.2172408808358
 30
0.0
 10
345.1995479941942
 20
207.6239111061678
 30
0.0
 10
345.1484949343847
 20
208.0386250897863
 30
0.0
 10
345.1010017488384
 20
208.4529204248854
 30
0.0
 10
345.0571214188698
 20
208.8668323180459
 30
0.0
 10
345.0122717247898
 20
209.2898879741353
 30
0.0
 10
344.9711962946618
 20
209.7125431892245
 30
0.0
 10
344.9339320630028
 20
210.1348870192142
 30
0.0
 10
344.8952022605381
 20
210.573841275872
 30
0.0
 10
344.8605893781297
 20
211.0124593171617
 30
0.0
 10
344.8301131778007
 20
211.4508946216754
 30
0.0
 10
344.7976566198488
 20
211.9178196554905
 30
0.0
 10
344.7698918439102
 20
212.3845378339327
 30
0.0
 10
344.7468180056448
 20
212.8512896862376
 30
0.0
 10
344.7215929320004
 20
213.3615580565274
 30
0.0
 10
344.7019743519247
 20
213.8718673256296
 30
0.0
 10
344.6879314271992
 20
214.3825876674129
 30
0.0
 10
344.6717537297215
 20
214.9709465275989
 30
0.0
 10
344.6629760171425
 20
215.559852419357
 30
0.0
 10
344.6615097304725
 20
216.1499260007027
 30
0.0
 10
344.6598759685084
 20
216.8073961891452
 30
0.0
 10
344.6673192094265
 20
217.4663193499143
 30
0.0
 10
344.6836666628547
 20
218.1275768643345
 30
0.0
 10
344.6988086181097
 20
218.7400717547044
 30
0.0
 10
344.7215888289422
 20
219.3545723060876
 30
0.0
 10
344.751840045863
 20
219.9717508461972
 30
0.0
 10
344.7774369993024
 20
220.493974147041
 30
0.0
 10
344.8083821901491
 20
221.0181154377691
 30
0.0
 10
344.8445637794784
 20
221.5445422978756
 30
0.0
 10
344.8771599318837
 20
222.0188025633965
 30
0.0
 10
344.9140057739057
 20
222.4949183453705
 30
0.0
 10
344.9550166785544
 20
222.9731151840475
 30
0.0
 10
344.9933265626247
 20
223.4198174845558
 30
0.0
 10
345.0352707715089
 20
223.8683360723716
 30
0.0
 10
345.0807809417774
 20
224.3188094768623
 30
0.0
 10
345.1243631371676
 20
224.7501992039668
 30
0.0
 10
345.1712154395496
 20
225.1833819373224
 30
0.0
 10
345.221280445816
 20
225.6184316767838
 30
0.0
 10
345.2713083878137
 20
226.0531593389761
 30
0.0
 10
345.3245442293463
 20
226.4897512804416
 30
0.0
 10
345.3809347570187
 20
226.9282289575517
 30
0.0
 10
345.4376496065226
 20
227.3692284745714
 30
0.0
 10
345.4975554967721
 20
227.8121354469308
 30
0.0
 10
345.5606029926296
 20
228.2569190657899
 30
0.0
 10
345.6240215513798
 20
228.7043204364571
 30
0.0
 10
345.6906187652411
 20
229.1536205733361
 30
0.0
 10
345.7603496390168
 20
229.6047355322232
 30
0.0
 10
345.8309053850812
 20
230.0611868967569
 30
0.0
 10
345.9046693220251
 20
230.5194962777449
 30
0.0
 10
345.981600924148
 20
230.97952315313
 30
0.0
 10
346.0615801686265
 20
231.4577739748716
 30
0.0
 10
346.1449829976944
 20
231.9378808564003
 30
0.0
 10
346.2317710816026
 20
232.4196290235125
 30
0.0
 10
346.3232335788535
 20
232.9273241865576
 30
0.0
 10
346.4184557757754
 20
233.4368418935219
 30
0.0
 10
346.517401141069
 20
233.9478728045321
 30
0.0
 10
346.6235563303592
 20
234.4961408606508
 30
0.0
 10
346.7339969798393
 20
235.0461502505991
 30
0.0
 10
346.8486881827609
 20
235.5974594639782
 30
0.0
 10
346.9742911609383
 20
236.2012204964992
 30
0.0
 10
347.1049918249194
 20
236.806539794053
 30
0.0
 10
347.2407578278341
 20
237.4127774531582
 30
0.0
 10
347.3966125016626
 20
238.108717309926
 30
0.0
 10
347.5591419651573
 20
238.8058664310528
 30
0.0
 10
347.7283193652831
 20
239.503192862696
 30
0.0
 10
347.9288004381453
 20
240.3295488124093
 30
0.0
 10
348.138616251213
 20
241.1561496659934
 30
0.0
 10
348.3577638090895
 20
241.9812334451346
 30
0.0
 10
348.5286121147892
 20
242.624472033292
 30
0.0
 10
348.7051330346887
 20
243.266786264086
 30
0.0
 10
348.8873434388316
 20
243.9073601214816
 30
0.0
 10
349.0564345689987
 20
244.5018122221291
 30
0.0
 10
349.2304255833505
 20
245.0947643501328
 30
0.0
 10
349.4093415593391
 20
245.6856040580411
 30
0.0
 10
349.5730604231026
 20
246.2262578767432
 30
0.0
 10
349.7409032803318
 20
246.7651424670295
 30
0.0
 10
349.9128970585638
 20
247.3018333103573
 30
0.0
 10
350.0751984675944
 20
247.8082800026812
 30
0.0
 10
350.2411962215696
 20
248.3127729443659
 30
0.0
 10
350.4109186453483
 20
248.8150021116414
 30
0.0
 10
350.5732708876241
 20
249.2954220209738
 30
0.0
 10
350.7390313853122
 20
249.773770272334
 30
0.0
 10
350.9082294463405
 20
250.2498231368009
 30
0.0
 10
351.0714098596137
 20
250.7089448471298
 30
0.0
 10
351.2377877006465
 20
251.1659313570316
 30
0.0
 10
351.4073929683388
 20
251.620630240978
 30
0.0
 10
351.5756350754735
 20
252.0716745946578
 30
0.0
 10
351.7470529622063
 20
252.5204677418325
 30
0.0
 10
351.9216792504226
 20
252.9669130427176
 30
0.0
 10
352.1007559226099
 20
253.424736086503
 30
0.0
 10
352.2832066540152
 20
253.880090225771
 30
0.0
 10
352.469069644211
 20
254.3329262954633
 30
0.0
 10
352.6604585607352
 20
254.7992257166124
 30
0.0
 10
352.8554657025255
 20
255.2628552699028
 30
0.0
 10
353.0541352488506
 20
255.723816682521
 30
0.0
 10
353.2597203238755
 20
256.2008237948324
 30
0.0
 10
353.4692272741281
 20
256.674973968731
 30
0.0
 10
353.6827067984847
 20
257.1463249878559
 30
0.0
 10
353.9053963714243
 20
257.6380112864362
 30
0.0
 10
354.1324087720013
 20
258.1266519300107
 30
0.0
 10
354.3638022694012
 20
258.6123691487
 30
0.0
 10
354.6079987628361
 20
259.1249610881349
 30
0.0
 10
354.8570747039933
 20
259.6342974615204
 30
0.0
 10
355.1110976891849
 20
260.1405795311542
 30
0.0
 10
355.397712817819
 20
260.7118195723015
 30
0.0
 10
355.6906261596085
 20
261.2791713109401
 30
0.0
 10
355.9899303948371
 20
261.8429934839296
 30
0.0
 10
356.3117061591842
 20
262.4491469870064
 30
0.0
 10
356.6408688937313
 20
263.0512222797213
 30
0.0
 10
356.977523316286
 20
263.6497297766597
 30
0.0
 10
357.4026879497064
 20
264.4055915847538
 30
0.0
 10
357.8398033087724
 20
265.1557651927532
 30
0.0
 10
358.2890449155959
 20
265.9013541747937
 30
0.0
 10
358.659872130643
 20
266.5168018127251
 30
0.0
 10
359.0389613704668
 20
267.1291290887631
 30
0.0
 10
359.4263846680305
 20
267.738953679029
 30
0.0
 10
359.7568221862505
 20
268.2590796637705
 30
0.0
 10
360.0933221538727
 20
268.7773861376151
 30
0.0
 10
360.4359115621862
 20
269.2942289535962
 30
0.0
 10
360.7744057557252
 20
269.8048935799289
 30
0.0
 10
361.1188448583277
 20
270.3141306475052
 30
0.0
 10
361.4692358353293
 20
270.8222370997629
 30
0.0
 10
361.7867562749873
 20
271.2826775639968
 30
0.0
 10
362.109164126588
 20
271.7421896675138
 30
0.0
 10
362.4364489731086
 20
272.2009477327285
 30
0.0
 10
362.7580729714505
 20
272.6517709369631
 30
0.0
 10
363.0844066707868
 20
273.1018660596072
 30
0.0
 10
363.4154255448019
 20
273.551349985202
 30
0.0
 10
363.7414225738654
 20
273.9940148477168
 30
0.0
 10
364.0719636620793
 20
274.4360870085373
 30
0.0
 10
364.4070116550663
 20
274.8776292235226
 30
0.0
 10
364.7380710430792
 20
275.3139150647586
 30
0.0
 10
365.0735306396784
 20
275.7496836014825
 30
0.0
 10
365.4133415728464
 20
276.1849458149841
 30
0.0
 10
365.7615599967514
 20
276.6309771435172
 30
0.0
 10
366.1143476677744
 20
277.0764766574803
 30
0.0
 10
366.471638690103
 20
277.5214027035645
 30
0.0
 10
366.8431060195204
 20
277.9839821690379
 30
0.0
 10
367.2194410518364
 20
278.4459415532365
 30
0.0
 10
367.6005568972532
 20
278.9071797571633
 30
0.0
 10
368.0106958725722
 20
279.4035426520978
 30
0.0
 10
368.4263714411198
 20
279.8990703010637
 30
0.0
 10
368.8474621336557
 20
280.3935765129324
 30
0.0
 10
369.2901006118591
 20
280.9133872828301
 30
0.0
 10
369.7387223950129
 20
281.432069094709
 30
0.0
 10
370.1931748345051
 20
281.949345275664
 30
0.0
 10
370.6755115369567
 20
282.4983604545843
 30
0.0
 10
371.1644160979842
 20
283.0457919420659
 30
0.0
 10
371.6596968401117
 20
283.5912465988396
 30
0.0
 10
372.1985073696728
 20
284.1846407841359
 30
0.0
 10
372.7448636764043
 20
284.7756949941366
 30
0.0
 10
373.2985140837839
 20
285.3638362269268
 30
0.0
 10
373.9360096534692
 20
286.041045934091
 30
0.0
 10
374.5831747885224
 20
286.7143925707009
 30
0.0
 10
375.2396313919977
 20
287.3829255323127
 30
0.0
 10
375.964671072014
 20
288.1213032438037
 30
0.0
 10
376.7010429384339
 20
288.8538049362675
 30
0.0
 10
377.4482708854911
 20
289.5791043511318
 30
0.0
 10
378.0463925580329
 20
290.1596732402118
 30
0.0
 10
378.6514701208216
 20
290.7356252034068
 30
0.0
 10
379.2632884192564
 20
291.306293561113
 30
0.0
 10
379.807604255194
 20
291.8139995662501
 30
0.0
 10
380.3572554302747
 20
292.3175227762773
 30
0.0
 10
380.9121161118046
 20
292.8164227070703
 30
0.0
 10
381.441404942277
 20
293.2923298485968
 30
0.0
 10
381.9754340394592
 20
293.7640294668521
 30
0.0
 10
382.5141205405312
 20
294.2311768283217
 30
0.0
 10
383.0432726219826
 20
294.6900559689248
 30
0.0
 10
383.5769187906776
 20
295.1445424057963
 30
0.0
 10
384.1150064935512
 20
295.5943513734699
 30
0.0
 10
384.6457399544766
 20
296.0380126370407
 30
0.0
 10
385.1807944431513
 20
296.4771232520153
 30
0.0
 10
385.7201438516181
 20
296.9114536079491
 30
0.0
 10
386.2695339041941
 20
297.3538695508161
 30
0.0
 10
386.8233803059321
 20
297.7913253179407
 30
0.0
 10
387.3816806284066
 20
298.2236280721479
 30
0.0
 10
387.9662389166541
 20
298.6762628778813
 30
0.0
 10
388.5556802964853
 20
299.1232486715421
 30
0.0
 10
389.1500259884139
 20
299.5644192079547
 30
0.0
 10
389.7778307459855
 20
300.0304257180067
 30
0.0
 10
390.4111080826658
 20
300.4899439653393
 30
0.0
 10
391.0499020848999
 20
300.9428360115627
 30
0.0
 10
391.719578581001
 20
301.4176231222209
 30
0.0
 10
392.3953187820576
 20
301.8851281179817
 30
0.0
 10
393.0771834139987
 20
302.3452500101597
 30
0.0
 10
393.7846396830139
 20
302.8226411254677
 30
0.0
 10
394.4986896169931
 20
303.2920848271267
 30
0.0
 10
395.2193990108374
 20
303.7535252836337
 30
0.0
 10
395.956390139999
 20
304.2253902627591
 30
0.0
 10
396.7003460803409
 20
304.6888868525417
 30
0.0
 10
397.4513200615442
 20
305.1440071834417
 30
0.0
 10
398.1978304965101
 20
305.5964224264274
 30
0.0
 10
398.9512767963477
 20
306.0405616232097
 30
0.0
 10
399.711679075595
 20
306.4764561066697
 30
0.0
 10
400.4435369444867
 20
306.8959877367455
 30
0.0
 10
401.1818389886869
 20
307.3078829565197
 30
0.0
 10
401.9265617475468
 20
307.7121921242277
 30
0.0
 10
402.6317074367003
 20
308.0950149442671
 30
0.0
 10
403.3426099034704
 20
308.4710372856773
 30
0.0
 10
404.0592048373049
 20
308.8403108994859
 30
0.0
 10
404.7403054626554
 20
309.1912936896443
 30
0.0
 10
405.4265488492512
 20
309.5361802288043
 30
0.0
 10
406.1178341439443
 20
309.8750151142363
 30
0.0
 10
406.7843054472807
 20
310.2016873716139
 30
0.0
 10
407.455463416992
 20
310.5227349830157
 30
0.0
 10
408.1311706734028
 20
310.8381921902671
 30
0.0
 10
408.794055484457
 20
311.1476631767627
 30
0.0
 10
409.4613186283897
 20
311.4517541423851
 30
0.0
 10
410.1327819200008
 20
311.7504875624927
 30
0.0
 10
410.7930655129425
 20
312.0442471446239
 30
0.0
 10
411.4574105952452
 20
312.3328262899207
 30
0.0
 10
412.1255997218803
 20
312.6162337401637
 30
0.0
 10
412.7994145593547
 20
312.9020272938331
 30
0.0
 10
413.4771386517324
 20
313.1825619352337
 30
0.0
 10
414.1584974530784
 20
313.4578303573077
 30
0.0
 10
414.8796999567279
 20
313.7491956039061
 30
0.0
 10
415.6049743841205
 20
314.0346607657933
 30
0.0
 10
416.3339369435056
 20
314.3141963052309
 30
0.0
 10
417.1263165202398
 20
314.6180503915213
 30
0.0
 10
417.9230533133782
 20
314.9148983444131
 30
0.0
 10
418.7235940664573
 20
315.2046772004347
 30
0.0
 10
419.6208377157025
 20
315.5294604638117
 30
0.0
 10
420.5228587957757
 20
315.8453638309615
 30
0.0
 10
421.4288182929765
 20
316.1522660989141
 30
0.0
 10
422.4815760493674
 20
316.5088976525759
 30
0.0
 10
423.53964954137
 20
316.8533754207545
 30
0.0
 10
424.6016724072219
 20
317.1854597671163
 30
0.0
 10
425.6145577653435
 20
317.5021792869177
 30
0.0
 10
426.6310316936269
 20
317.8076248328837
 30
0.0
 10
427.6499171404271
 20
318.1015509699873
 30
0.0
 10
428.5072112137478
 20
318.3488615348047
 30
0.0
 10
429.3662114174297
 20
318.5880159763191
 30
0.0
 10
430.2262516604932
 20
318.8188526462795
 30
0.0
 10
431.0086480305825
 20
319.0288495320267
 30
0.0
 10
431.7919045964505
 20
319.2319623866367
 30
0.0
 10
432.5755618115863
 20
319.4280623591949
 30
0.0
 10
433.3149584188272
 20
319.6130866932909
 30
0.0
 10
434.0547113844746
 20
319.7918677857637
 30
0.0
 10
434.7944798304881
 20
319.9642938401591
 30
0.0
 10
435.5021392762945
 20
320.1292358929771
 30
0.0
 10
436.2098126554149
 20
320.2883624996959
 30
0.0
 10
436.9172479310272
 20
320.4415742508971
 30
0.0
 10
437.5970223414063
 20
320.5887953910155
 30
0.0
 10
438.2765767409734
 20
320.7305550992871
 30
0.0
 10
438.9557340831213
 20
320.8667650064563
 30
0.0
 10
439.6088225806404
 20
320.9977466186683
 30
0.0
 10
440.2615437171948
 20
321.1235962357149
 30
0.0
 10
440.9137865543239
 20
321.2442361331621
 30
0.0
 10
441.5447920923808
 20
321.3609479451837
 30
0.0
 10
442.1753497976515
 20
321.4727837243305
 30
0.0
 10
442.8054063668151
 20
321.5796747481077
 30
0.0
 10
443.4241669485871
 20
321.6846493730787
 30
0.0
 10
444.0424439620483
 20
321.7848549106911
 30
0.0
 10
444.6602363364931
 20
321.8802286113194
 30
0.0
 10
445.2887483959326
 20
321.9772571980707
 30
0.0
 10
445.9167588068725
 20
322.0692847766877
 30
0.0
 10
446.5443218765939
 20
322.1562484370997
 30
0.0
 10
447.1894732075274
 20
322.2456493658103
 30
0.0
 10
447.8341519185241
 20
322.3296985204707
 30
0.0
 10
448.4784736338105
 20
322.4083313592619
 30
0.0
 10
449.1442123271473
 20
322.4895779199609
 30
0.0
 10
449.8095700633449
 20
322.5650420658337
 30
0.0
 10
450.4747316537868
 20
322.6346572007601
 30
0.0
 10
451.1729919304547
 20
322.7077364104929
 30
0.0
 10
451.871036259054
 20
322.7743699654405
 30
0.0
 10
452.5691381917616
 20
322.8344866791557
 30
0.0
 10
453.3180537654267
 20
322.8989791852351
 30
0.0
 10
454.0670360356132
 20
322.9559715215587
 30
0.0
 10
454.8164851767654
 20
323.005383711649
 30
0.0
 10
455.6489562635845
 20
323.0602696503043
 30
0.0
 10
456.4820040643625
 20
323.1058027837491
 30
0.0
 10
457.3162435065433
 20
323.1418856583359
 30
0.0
 10
458.3318113294675
 20
323.1858114241727
 30
0.0
 10
459.3491468837586
 20
323.2157314254725
 30
0.0
 10
460.3694359207817
 20
323.2314963194365
 30
0.0
 10
461.4584892072455
 20
323.2483237173211
 30
0.0
 10
462.5509140460288
 20
323.2490231504373
 30
0.0
 10
463.6481614145669
 20
323.2334514640355
 30
0.0
 10
464.4861741677513
 20
323.2215587293905
 30
0.0
 10
465.3270008878352
 20
323.2001758451059
 30
0.0
 10
466.1712529681784
 20
323.1692553820123
 30
0.0
 10
466.9355374578541
 20
323.1412637064127
 30
0.0
 10
467.7026296558953
 20
323.1054558456827
 30
0.0
 10
468.4729417897067
 20
323.0618068826903
 30
0.0
 10
469.1908784909434
 20
323.0211257209537
 30
0.0
 10
469.911612465162
 20
322.9736335636397
 30
0.0
 10
470.6354340654324
 20
322.9193180266871
 30
0.0
 10
471.3165547456825
 20
322.8682067646528
 30
0.0
 10
472.0004098130683
 20
322.8110534956307
 30
0.0
 10
472.6871969916067
 20
322.7478541705127
 30
0.0
 10
473.3425186583603
 20
322.6875503553441
 30
0.0
 10
474.0005101672643
 20
322.6217418273769
 30
0.0
 10
474.6612976956367
 20
322.550430455481
 30
0.0
 10
475.3015022223826
 20
322.4813403756361
 30
0.0
 10
475.9443315499607
 20
322.4070849446064
 30
0.0
 10
476.5898528540003
 20
322.3276707619333
 30
0.0
 10
477.2308909853494
 20
322.2488081141105
 30
0.0
 10
477.8745839279924
 20
322.1648581338571
 30
0.0
 10
478.520946331802
 20
322.0758320655627
 30
0.0
 10
479.1655582667845
 20
321.9870470963119
 30
0.0
 10
479.8128252394112
 20
321.8932135113457
 30
0.0
 10
480.4627102685188
 20
321.7943470068255
 30
0.0
 10
481.1114021841881
 20
321.6956620097267
 30
0.0
 10
481.7627025750155
 20
321.5919625705324
 30
0.0
 10
482.4165229713614
 20
321.4832686058427
 30
0.0
 10
483.0808365358957
 20
321.3728302109411
 30
0.0
 10
483.7477517314748
 20
321.2572356980994
 30
0.0
 10
484.4171209068597
 20
321.1365102735381
 30
0.0
 10
485.1094499514506
 20
321.0116438755659
 30
0.0
 10
485.8044040324308
 20
320.8812885647783
 30
0.0
 10
486.5017624837343
 20
320.7454765519947
 30
0.0
 10
487.2281244717302
 20
320.6040160399519
 30
0.0
 10
487.9570947713976
 20
320.4566355226635
 30
0.0
 10
488.6883658702421
 20
320.3033755928839
 30
0.0
 10
489.4540935343808
 20
320.142894249889
 30
0.0
 10
490.2223436241677
 20
319.9759664226761
 30
0.0
 10
490.9927046218961
 20
319.8026426546118
 30
0.0
 10
491.7984327037532
 20
319.6213616349399
 30
0.0
 10
492.6064697194287
 20
319.4330839701397
 30
0.0
 10
493.4162868228953
 20
319.2378709724649
 30
0.0
 10
494.272779744821
 20
319.0314063892145
 30
0.0
 10
495.1312635565717
 20
318.8171840318668
 30
0.0
 10
495.9910532736205
 20
318.5952793361019
 30
0.0
 10
496.9257557909997
 20
318.3540402591087
 30
0.0
 10
497.8620012480584
 20
318.1037219280809
 30
0.0
 10
498.7988467136568
 20
317.8444231492577
 30
0.0
 10
499.9423916062993
 20
317.5279143918579
 30
0.0
 10
501.0868294329175
 20
317.1980256685749
 30
0.0
 10
502.2303639964905
 20
316.8549351619817
 30
0.0
 10
503.4375261585746
 20
316.4927546989489
 30
0.0
 10
504.6436764030021
 20
316.1158631388541
 30
0.0
 10
505.8466746516628
 20
315.7244594992153
 30
0.0
 10
506.8871862309521
 20
315.3859219995367
 30
0.0
 10
507.9253374490497
 20
315.0365279335331
 30
0.0
 10
508.9597747971758
 20
314.6763944680211
 30
0.0
 10
509.8632945240754
 20
314.3618392259889
 30
0.0
 10
510.7639803927348
 20
314.0390908501367
 30
0.0
 10
511.6609720871838
 20
313.7082182488097
 30
0.0
 10
512.4780452479214
 20
313.4068251324171
 30
0.0
 10
513.2920527595602
 20
313.0986909727393
 30
0.0
 10
514.1023873823082
 20
312.7838600779831
 30
0.0
 10
514.8611588146728
 20
312.4890624940447
 30
0.0
 10
515.6167095911009
 20
312.1883933243545
 30
0.0
 10
516.3685861058584
 20
311.8818816615189
 30
0.0
 10
517.087293470244
 20
311.5888918087633
 30
0.0
 10
517.8026433231495
 20
311.2905635953269
 30
0.0
 10
518.5142862922452
 20
310.9869153152153
 30
0.0
 10
519.2155190703393
 20
310.6877089206147
 30
0.0
 10
519.9131525129043
 20
310.3833369648815
 30
0.0
 10
520.6069025174256
 20
310.0738096566473
 30
0.0
 10
521.2943266418276
 20
309.7671047377947
 30
0.0
 10
521.9779377766893
 20
309.4553380430243
 30
0.0
 10
522.6575100210675
 20
309.1385124512771
 30
0.0
 10
523.3320876465327
 20
308.8240154170975
 30
0.0
 10
524.0026854724473
 20
308.5045335655967
 30
0.0
 10
524.6691333688818
 20
308.1800628845247
 30
0.0
 10
525.3473727490223
 20
307.8498513334315
 30
0.0
 10
526.0213140336737
 20
307.5144728341629
 30
0.0
 10
526.6908324777853
 20
307.1739161245221
 30
0.0
 10
527.3831811130733
 20
306.8217466283251
 30
0.0
 10
528.0708003089042
 20
306.4640396916789
 30
0.0
 10
528.7536081784356
 20
306.1007761373523
 30
0.0
 10
529.4643200778785
 20
305.7226672399373
 30
0.0
 10
530.1698195854855
 20
305.3385382060274
 30
0.0
 10
530.8700711376628
 20
304.9483613260589
 30
0.0
 10
531.5989957390283
 20
304.5422079575893
 30
0.0
 10
532.3222340697578
 20
304.1295012254073
 30
0.0
 10
533.0398023120041
 20
303.7102048463787
 30
0.0
 10
533.7862955328267
 20
303.2740067455811
 30
0.0
 10
534.5266525472773
 20
302.8306769307598
 30
0.0
 10
535.2609479476333
 20
302.3801707605833
 30
0.0
 10
536.0320485668985
 20
301.9070837895403
 30
0.0
 10
536.7964649618929
 20
301.4260828825921
 30
0.0
 10
537.5543407882451
 20
300.9371142287853
 30
0.0
 10
538.3723878080568
 20
300.4093241395379
 30
0.0
 10
539.1828149186597
 20
299.8722506168117
 30
0.0
 10
539.9858630664759
 20
299.325826813854
 30
0.0
 10
540.909532759074
 20
298.6973276292405
 30
0.0
 10
541.8234411971832
 20
298.0564575956641
 30
0.0
 10
542.7280220402715
 20
297.4031240201913
 30
0.0
 10
543.8037734958439
 20
296.6261624582037
 30
0.0
 10
544.8663369258929
 20
295.8315722087003
 30
0.0
 10
545.9164942054157
 20
295.0192322446443
 30
0.0
 10
546.7732847296843
 20
294.3564694401967
 30
0.0
 10
547.6218196300692
 20
293.6818920869165
 30
0.0
 10
548.4625120489229
 20
292.9954617212595
 30
0.0
 10
549.2234434216393
 20
292.3741567246873
 30
0.0
 10
549.9779509139832
 20
291.7431411809107
 30
0.0
 10
550.7263101982163
 20
291.1024089637267
 30
0.0
 10
551.4170201848694
 20
290.5110350735313
 30
0.0
 10
552.1024934227403
 20
289.9113838841355
 30
0.0
 10
552.7829068179863
 20
289.3034705726809
 30
0.0
 10
553.4188946056579
 20
288.7352491873454
 30
0.0
 10
554.0504620836709
 20
288.1598093785585
 30
0.0
 10
554.6777103083165
 20
287.5771816069905
 30
0.0
 10
555.2918631045743
 20
287.006717696489
 30
0.0
 10
555.9018752311699
 20
286.4293628338461
 30
0.0
 10
556.5077940608762
 20
285.8451636581621
 30
0.0
 10
557.1068224651328
 20
285.2676079150166
 30
0.0
 10
557.7018502057149
 20
284.6833626467007
 30
0.0
 10
558.2928751365184
 20
284.0924905632684
 30
0.0
 10
558.8797949545875
 20
283.5057225309313
 30
0.0
 10
559.4627674568411
 20
282.9124194185728
 30
0.0
 10
560.0417418123639
 20
282.3126601243211
 30
0.0
 10
560.6359640391967
 20
281.6971055665175
 30
0.0
 10
561.2259746018293
 20
281.0747503108198
 30
0.0
 10
561.8116666761853
 20
280.4456982451626
 30
0.0
 10
562.4189958081389
 20
279.7934072859434
 30
0.0
 10
563.0216812742823
 20
279.1339156033863
 30
0.0
 10
563.6195518546581
 20
278.467358403073
 30
0.0
 10
564.2597755776625
 20
277.7535823010423
 30
0.0
 10
564.8944780408541
 20
277.0317041140153
 30
0.0
 10
565.5233919946979
 20
276.3019121651951
 30
0.0
 10
566.1698987491088
 20
275.5517055250923
 30
0.0
 10
566.8102883218327
 20
274.7931362324252
 30
0.0
 10
567.4442152646723
 20
274.0264315879492
 30
0.0
 10
568.1091469401359
 20
273.2222281862855
 30
0.0
 10
568.7669681357243
 20
272.4090741854927
 30
0.0
 10
569.4172241651721
 20
271.5872563113538
 30
0.0
 10
570.1166335340303
 20
270.7033166096995
 30
0.0
 10
570.8072903999857
 20
269.8093536812044
 30
0.0
 10
571.4885697507348
 20
268.9057524621848
 30
0.0
 10
572.2511012899568
 20
267.8943840306826
 30
0.0
 10
573.0018843083662
 20
266.8709411018966
 30
0.0
 10
573.7399800194682
 20
265.8359989361358
 30
0.0
 10
574.6243547367873
 20
264.5959474475281
 30
0.0
 10
575.4905126713847
 20
263.3393867497857
 30
0.0
 10
576.3367785442978
 20
262.0673597931128
 30
0.0
 10
577.1652625392718
 20
260.8220608764136
 30
0.0
 10
577.9746771217208
 20
259.561940219649
 30
0.0
 10
578.7634542556608
 20
258.2880124366312
 30
0.0
 10
579.4007225978928
 20
257.2587814771172
 30
0.0
 10
580.0245190577602
 20
256.2205391299456
 30
0.0
 10
580.6340502830174
 20
255.1738287545832
 30
0.0
 10
581.1877954494068
 20
254.222916337059
 30
0.0
 10
581.7297664970882
 20
253.2650153385867
 30
0.0
 10
582.2594099615558
 20
252.3005331212652
 30
0.0
 10
582.7648864975993
 20
251.3800589476114
 30
0.0
 10
583.2591345091463
 20
250.4535905951
 30
0.0
 10
583.7417187078968
 20
249.5214787083051
 30
0.0
 10
584.2093623243622
 20
248.6182245718848
 30
0.0
 10
584.6660529413323
 20
247.7096710504895
 30
0.0
 10
585.1114418439857
 20
246.7961319802127
 30
0.0
 10
585.5602715552739
 20
245.8755354527311
 30
0.0
 10
585.9976240499788
 20
244.9498761303323
 30
0.0
 10
586.4231960216819
 20
244.0194680279394
 30
0.0
 10
586.8601010825273
 20
243.064282922678
 30
0.0
 10
587.2845899713883
 20
242.1040927497434
 30
0.0
 10
587.6963902551083
 20
241.1392293498478
 30
0.0
 10
588.1186803065164
 20
240.1497880336273
 30
0.0
 10
588.5276272823178
 20
239.1554323766674
 30
0.0
 10
588.9229926015968
 20
238.1565119847843
 30
0.0
 10
589.3261106953548
 20
237.1380036216176
 30
0.0
 10
589.7151093735578
 20
236.1147497755466
 30
0.0
 10
590.0897899410858
 20
235.0871123589635
 30
0.0
 10
590.4726940247454
 20
234.0369202822106
 30
0.0
 10
590.8406447029533
 20
232.9821501382463
 30
0.0
 10
591.1934843120594
 20
231.9231787190923
 30
0.0
 10
591.5569337282308
 20
230.8323642694104
 30
0.0
 10
591.9043498020328
 20
229.7370921226308
 30
0.0
 10
592.2356154713423
 20
228.6377635038092
 30
0.0
 10
592.5789280203403
 20
227.4984564603118
 30
0.0
 10
592.9048943624928
 20
226.354792593168
 30
0.0
 10
593.2134397427108
 20
225.2072066043882
 30
0.0
 10
593.5345040642108
 20
224.0130583835041
 30
0.0
 10
593.8367053199048
 20
222.814663380261
 30
0.0
 10
594.1200146517237
 20
221.6124977860711
 30
0.0
 10
594.4170546821478
 20
220.352068761797
 30
0.0
 10
594.6933275147203
 20
219.0874949060124
 30
0.0
 10
594.9488553356302
 20
217.8193090135545
 30
0.0
 10
595.2208039608538
 20
216.4696265846376
 30
0.0
 10
595.4692561196957
 20
215.1158531521718
 30
0.0
 10
595.6942941581958
 20
213.7586109023767
 30
0.0
 10
595.9395400301598
 20
212.2794918110622
 30
0.0
 10
596.1569787170628
 20
210.7962533124138
 30
0.0
 10
596.3467711933583
 20
209.3096730065941
 30
0.0
 10
596.5622986355168
 20
207.6215194130978
 30
0.0
 10
596.7421758742843
 20
205.929056980808
 30
0.0
 10
596.8866863628563
 20
204.233380862622
 30
0.0
 10
597.0571867899223
 20
202.2327405964818
 30
0.0
 10
597.1784600929338
 20
200.2276255061024
 30
0.0
 10
597.2509788294803
 20
198.2197692174978
 30
0.0
 10
597.3045252418877
 20
196.7372075237063
 30
0.0
 10
597.3314908626193
 20
195.253148686745
 30
0.0
 10
597.3320432422413
 20
193.7682971744738
 30
0.0
 10
597.3325866648618
 20
192.3075229737354
 30
0.0
 10
597.3075674856083
 20
190.8459800067291
 30
0.0
 10
597.2571094391668
 20
189.3843726465616
 30
0.0
 10
597.2132898141373
 20
188.1150590092102
 30
0.0
 10
597.1502845007383
 20
186.845696684151
 30
0.0
 10
597.0681434439448
 20
185.5767819217008
 30
0.0
 10
596.9907261873728
 20
184.3808404087954
 30
0.0
 10
596.8963109344293
 20
183.185296179397
 30
0.0
 10
596.7849096515517
 20
181.9906011760232
 30
0.0
 10
596.6785762962743
 20
180.8502558859218
 30
0.0
 10
596.5567673208683
 20
179.7106840988703
 30
0.0
 10
596.4194637528088
 20
178.572316589347
 30
0.0
 10
596.2874517066048
 20
177.4778204565176
 30
0.0
 10
596.1411164318018
 20
176.3844373877265
 30
0.0
 10
595.9804119172989
 20
175.292588835889
 30
0.0
 10
595.8247321247313
 20
174.2348789352647
 30
0.0
 10
595.6555676866998
 20
173.1786089385425
 30
0.0
 10
595.4728476027983
 20
172.1242013772901
 30
0.0
 10
595.2944367085098
 20
171.0946604974345
 30
0.0
 10
595.1031020568082
 20
170.0668951260877
 30
0.0
 10
594.8987483290982
 20
169.0413387786826
 30
0.0
 10
594.6987099245363
 20
168.0374390317925
 30
0.0
 10
594.4861965248804
 20
167.0356558971313
 30
0.0
 10
594.2610897412108
 20
166.0364365636513
 30
0.0
 10
594.0417614726803
 20
165.0628672970019
 30
0.0
 10
593.8104781312118
 20
164.0917317937867
 30
0.0
 10
593.5671018341462
 20
163.1234838734873
 30
0.0
 10
593.3298721564638
 20
162.1796896551518
 30
0.0
 10
593.0811527179773
 20
161.2386388997467
 30
0.0
 10
592.8207873499293
 20
160.3007922304035
 30
0.0
 10
592.5617344103308
 20
159.3676729818347
 30
0.0
 10
592.2911527683968
 20
158.4377254190066
 30
0.0
 10
592.0088582916987
 20
157.5114461818381
 30
0.0
 10
591.7115741855458
 20
156.5359821972458
 30
0.0
 10
591.4012999796857
 20
155.5645865792511
 30
0.0
 10
591.0777881061273
 20
154.597888343793
 30
0.0
 10
590.7296501112532
 20
153.557603850868
 30
0.0
 10
590.3661818225507
 20
152.5227592824866
 30
0.0
 10
589.9870454505412
 20
151.4941915136648
 30
0.0
 10
589.5552491515703
 20
150.3227614198878
 30
0.0
 10
589.1031286142622
 20
149.1594732310057
 30
0.0
 10
588.6301634190753
 20
148.0056268677429
 30
0.0
 10
588.1472332332223
 20
146.8274699032826
 30
0.0
 10
587.6425680819927
 20
145.6591590384031
 30
0.0
 10
587.1156272896412
 20
144.5021174126855
 30
0.0
 10
586.6165401102998
 20
143.4062359593218
 30
0.0
 10
586.0974682691448
 20
142.3204657917215
 30
0.0
 10
585.5579960375283
 20
141.2460200665945
 30
0.0
 10
585.0898471067462
 20
140.3136261676653
 30
0.0
 10
584.6063353846948
 20
139.3897609568197
 30
0.0
 10
584.1072321379123
 20
138.4752045198687
 30
0.0
 10
583.6446825731693
 20
137.6276290240724
 30
0.0
 10
583.1687414680063
 20
136.7880491132001
 30
0.0
 10
582.6792683587083
 20
135.9570669330322
 30
0.0
 10
582.2175528559368
 20
135.1732090502982
 30
0.0
 10
581.7437964417059
 20
134.3970016943931
 30
0.0
 10
581.2579223672553
 20
133.6289280316918
 30
0.0
 10
580.7933484241998
 20
132.8945257888017
 30
0.0
 10
580.3176958400703
 20
132.1675599399233
 30
0.0
 10
579.8309385027263
 20
131.4484283877198
 30
0.0
 10
579.3594033076542
 20
130.7517859116133
 30
0.0
 10
578.8774469421363
 20
130.0624955478169
 30
0.0
 10
578.3850869577633
 20
129.3808928136371
 30
0.0
 10
577.9053555909647
 20
128.716772613662
 30
0.0
 10
577.4157473662328
 20
128.0599508559356
 30
0.0
 10
576.9163196691708
 20
127.4107107146275
 30
0.0
 10
576.4285905915963
 20
126.7766784070331
 30
0.0
 10
575.9314966077753
 20
126.1498767897821
 30
0.0
 10
575.4251320486978
 20
125.530541759008
 30
0.0
 10
574.9333196520988
 20
124.9290054936381
 30
0.0
 10
574.4327617811302
 20
124.3345129339691
 30
0.0
 10
573.9235848010472
 20
123.7472523118601
 30
0.0
 10
573.4283260756133
 20
123.1760443457099
 30
0.0
 10
572.9249129070803
 20
122.6116784639829
 30
0.0
 10
572.4135014039648
 20
122.0542993821485
 30
0.0
 10
571.9141557786887
 20
121.5100707043834
 30
0.0
 10
571.4071846908693
 20
120.9725031306302
 30
0.0
 10
570.8927733457018
 20
120.4417022882835
 30
0.0
 10
570.3783835154068
 20
119.9109236462892
 30
0.0
 10
569.8565539548873
 20
119.3869112612461
 30
0.0
 10
569.3275123066524
 20
118.8697393481987
 30
0.0
 10
568.7887772408943
 20
118.343091502016
 30
0.0
 10
568.2425634602523
 20
117.8235370398065
 30
0.0
 10
567.689155002076
 20
117.3111218810494
 30
0.0
 10
567.1245581944951
 20
116.7883471411336
 30
0.0
 10
566.5524729477069
 20
116.2730032353728
 30
0.0
 10
565.9732445914433
 20
115.7651063228932
 30
0.0
 10
565.3769601011089
 20
115.2422537236968
 30
0.0
 10
564.7731057128257
 20
114.7272930949212
 30
0.0
 10
564.1621029138479
 20
114.2202085704478
 30
0.0
 10
563.5158686854003
 20
113.6838847156659
 30
0.0
 10
562.8616381616368
 20
113.156371251449
 30
0.0
 10
562.1999570151006
 20
112.6376141913728
 30
0.0
 10
561.4837962575352
 20
112.0761451951939
 30
0.0
 10
560.7589078583883
 20
111.5249335875735
 30
0.0
 10
560.0260323477339
 20
110.983874523751
 30
0.0
 10
559.1898270712703
 20
110.3665303261756
 30
0.0
 10
558.3432242956217
 20
109.7624028704422
 30
0.0
 10
557.4873773709843
 20
109.1712966985405
 30
0.0
 10
556.2176033639679
 20
108.2943042938698
 30
0.0
 10
554.927482880803
 20
107.4459730523219
 30
0.0
 10
553.6208866997571
 20
106.6255875266693
 30
0.0
 10
552.7127994762177
 20
106.055417779483
 30
0.0
 10
551.7967572290543
 20
105.4987442187901
 30
0.0
 10
550.8740504742946
 20
104.9553334845584
 30
0.0
 10
550.0810168424229
 20
104.4882912894705
 30
0.0
 10
549.2830609879871
 20
104.0310455311369
 30
0.0
 10
548.4809758843203
 20
103.5834678908758
 30
0.0
 10
547.6914233603993
 20
103.1428836512436
 30
0.0
 10
546.8978705803227
 20
102.7116670357984
 30
0.0
 10
546.1010341623835
 20
102.2897256099763
 30
0.0
 10
545.3756437413529
 20
101.9056163227535
 30
0.0
 10
544.6475321265518
 20
101.5291935272019
 30
0.0
 10
543.9172010497183
 20
101.160416765142
 30
0.0
 10
543.2171329823129
 20
100.8069211474586
 30
0.0
 10
542.5150257475086
 20
100.4604509085145
 30
0.0
 10
541.8112822999725
 20
100.1209996367951
 30
0.0
 10
541.1316716178756
 20
99.79318882574003
 30
0.0
 10
540.4505351567549
 20
99.47192374669932
 30
0.0
 10
539.7681964663072
 20
99.15722807448952
 30
0.0
 10
539.1121763664955
 20
98.85467057748141
 30
0.0
 10
538.4550451374243
 20
98.55818536833362
 30
0.0
 10
537.7970515436702
 20
98.26782248068092
 30
0.0
 10
537.1632700824513
 20
97.98814405072872
 30
0.0
 10
536.5286886996403
 20
97.71414555027673
 30
0.0
 10
535.8934906969303
 20
97.44590095606182
 30
0.0
 10
535.2779701122357
 20
97.1859661502724
 30
0.0
 10
534.6618706441517
 20
96.93143418000511
 30
0.0
 10
534.0453197822227
 20
96.68240193797472
 30
0.0
 10
533.4413752056557
 20
96.43846152486152
 30
0.0
 10
532.836997637896
 20
96.19979813674803
 30
0.0
 10
532.2322665439333
 20
95.96653328853982
 30
0.0
 10
531.6236760061897
 20
95.73177972480711
 30
0.0
 10
531.0147273938414
 20
95.50249386717081
 30
0.0
 10
530.405459346619
 20
95.27883136959413
 30
0.0
 10
529.7908292558925
 20
95.05320046410951
 30
0.0
 10
529.175874057114
 20
94.83329237889912
 30
0.0
 10
528.5605908580239
 20
94.61929850037102
 30
0.0
 10
527.939650353662
 20
94.40333702594722
 30
0.0
 10
527.3183757626915
 20
94.19339906326331
 30
0.0
 10
526.6967213500525
 20
93.98971266409731
 30
0.0
 10
526.0585532034867
 20
93.78061550465753
 30
0.0
 10
525.4199847375464
 20
93.57810653847031
 30
0.0
 10
524.7809215052278
 20
93.38246491901022
 30
0.0
 10
524.0742824945293
 20
93.16613577748772
 30
0.0
 10
523.3670386072092
 20
92.95820320286713
 30
0.0
 10
522.6590074665709
 20
92.75908249761572
 30
0.0
 10
521.8717810221483
 20
92.53768957319562
 30
0.0
 10
521.0835810392865
 20
92.32719054971112
 30
0.0
 10
520.2940941351993
 20
92.12819615332303
 30
0.0
 10
519.3578612857186
 20
91.89221365659472
 30
0.0
 10
518.4198178630372
 20
91.67241151337191
 30
0.0
 10
517.4793651082035
 20
91.46984650370874
 30
0.0
 10
516.3472681984093
 20
91.22600307798272
 30
0.0
 10
515.2116764161658
 20
91.00714247171372
 30
0.0
 10
514.0714763916583
 20
90.81510942415152
 30
0.0
 10
513.2260908799591
 20
90.67272918148574
 30
0.0
 10
512.3781698578704
 20
90.54509741276333
 30
0.0
 10
511.5272660689731
 20
90.43293734624314
 30
0.0
 10
510.782250707145
 20
90.33473473669832
 30
0.0
 10
510.034948045039
 20
90.24839307688232
 30
0.0
 10
509.2850788900287
 20
90.17436713553512
 30
0.0
 10
508.5919071210425
 20
90.10593827381713
 30
0.0
 10
507.8965418938617
 20
90.04803338714433
 30
0.0
 10
507.1987891080925
 20
90.00097990153071
 30
0.0
 10
506.5370668838379
 20
89.95635616402072
 30
0.0
 10
505.8731970225173
 20
89.92149226168272
 30
0.0
 10
505.2070435058115
 20
89.8966347480067
 30
0.0
 10
504.5647151722869
 20
89.87266627086971
 30
0.0
 10
503.9202634291049
 20
89.85800134432934
 30
0.0
 10
503.2735980811413
 20
89.85282734982933
 30
0.0
 10
502.64606091211
 20
89.84780640062972
 30
0.0
 10
502.0164390175299
 20
89.85172330596012
 30
0.0
 10
501.3846827020791
 20
89.86471546296893
 30
0.0
 10
500.769334219677
 20
89.87737019059571
 30
0.0
 10
500.1519606279089
 20
89.89863497394032
 30
0.0
 10
499.5325494128269
 20
89.92860286138672
 30
0.0
 10
498.9288244170442
 20
89.95781182997112
 30
0.0
 10
498.3231636014631
 20
89.99528874578333
 30
0.0
 10
497.7155890499041
 20
90.04108606671332
 30
0.0
 10
497.1175078507131
 20
90.08616780450372
 30
0.0
 10
496.5175720259399
 20
90.13931215148912
 30
0.0
 10
495.9158380928326
 20
90.20053417937632
 30
0.0
 10
495.3235062524301
 20
90.26079961307772
 30
0.0
 10
494.7294318507345
 20
90.32889243924733
 30
0.0
 10
494.1337066281246
 20
90.40479026536933
 30
0.0
 10
493.547289612118
 20
90.47950218795833
 30
0.0
 10
492.9592727836297
 20
90.56177725300712
 30
0.0
 10
492.369783398875
 20
90.65155591334631
 30
0.0
 10
491.789504785757
 20
90.73993178211772
 30
0.0
 10
491.2077991263043
 20
90.83557870975652
 30
0.0
 10
490.6248290232696
 20
90.93840066334913
 30
0.0
 10
490.0509678280949
 20
91.03961602391674
 30
0.0
 10
489.4758815505819
 20
91.14778380432632
 30
0.0
 10
488.8997658017845
 20
91.26277396054832
 30
0.0
 10
488.3224499408428
 20
91.37800365384851
 30
0.0
 10
487.7441004071402
 20
91.50008410441933
 30
0.0
 10
487.1649531465839
 20
91.62884712880111
 30
0.0
 10
486.5801282264108
 20
91.75887247914663
 30
0.0
 10
485.9944899083855
 20
91.89571204315281
 30
0.0
 10
485.4083200097807
 20
92.03915530026703
 30
0.0
 10
484.8139551839837
 20
92.18460396068002
 30
0.0
 10
484.2190438367453
 20
92.33684224406181
 30
0.0
 10
483.6239190173412
 20
92.49561268749412
 30
0.0
 10
483.0098466524546
 20
92.65943805402831
 30
0.0
 10
482.3955470809916
 20
92.83021811372302
 30
0.0
 10
481.7814275551672
 20
93.00762955388932
 30
0.0
 10
481.1400901204186
 20
93.19290390708392
 30
0.0
 10
480.498949253678
 20
93.38541035209653
 30
0.0
 10
479.8585107513953
 20
93.58473857520363
 30
0.0
 10
479.1818924182273
 20
93.79532730400642
 30
0.0
 10
478.5060583270286
 20
94.01353018463232
 30
0.0
 10
477.8316470507353
 20
94.23881942535262
 30
0.0
 10
477.1065110521523
 20
94.48105342155392
 30
0.0
 10
476.3830203741119
 20
94.73147962623973
 30
0.0
 10
475.6620107730428
 20
94.98939524378052
 30
0.0
 10
474.8743955562755
 20
95.27113665847983
 30
0.0
 10
474.0897415707351
 20
95.56181486706701
 30
0.0
 10
473.3091780574006
 20
95.86046393212052
 30
0.0
 10
472.4069103152878
 20
96.20567788717553
 30
0.0
 10
471.5101092636152
 20
96.56154172944743
 30
0.0
 10
470.6205563783107
 20
96.92650336213612
 30
0.0
 10
469.661824403056
 20
97.31984747104771
 30
0.0
 10
468.7115150611912
 20
97.72375720936253
 30
0.0
 10
467.7718620806621
 20
98.13624584467702
 30
0.0
 10
466.9499679987078
 20
98.49704070752902
 30
0.0
 10
466.1362286073752
 20
98.86439674738112
 30
0.0
 10
465.3321059780605
 20
99.23698502191883
 30
0.0
 10
464.6368763487237
 20
99.55911798840792
 30
0.0
 10
463.9488356100139
 20
99.88516138138333
 30
0.0
 10
463.2688901412437
 20
100.2142732793156
 30
0.0
 10
462.6422634346672
 20
100.517577462031
 30
0.0
 10
462.0225124305647
 20
100.823487419232
 30
0.0
 10
461.4103072378588
 20
101.1313662758295
 30
0.0
 10
460.8280702247835
 20
101.4241740925387
 30
0.0
 10
460.2526585209021
 20
101.7187625508088
 30
0.0
 10
459.6846082683024
 20
102.0146087589223
 30
0.0
 10
459.1379770568758
 20
102.2992997178593
 30
0.0
 10
458.5981627498799
 20
102.5851552050125
 30
0.0
 10
458.0656027037197
 20
102.8717356108734
 30
0.0
 10
457.5499070915089
 20
103.1492409530664
 30
0.0
 10
457.0410136908558
 20
103.4274258982226
 30
0.0
 10
456.5392791865623
 20
103.705918577885
 30
0.0
 10
456.0517679634874
 20
103.9765164851801
 30
0.0
 10
455.5710155983932
 20
104.2474048209088
 30
0.0
 10
455.0973090007525
 20
104.5182703549719
 30
0.0
 10
454.6389128967272
 20
104.7803813455043
 30
0.0
 10
454.1871145908075
 20
105.0424708641069
 30
0.0
 10
453.7421344381318
 20
105.3042830907369
 30
0.0
 10
453.3101442254676
 20
105.5584524481338
 30
0.0
 10
452.8845800150729
 20
105.8123603568817
 30
0.0
 10
452.4656036900217
 20
106.0658013304795
 30
0.0
 10
452.0572816893671
 20
106.312797447443
 30
0.0
 10
451.6552168807188
 20
106.5593499802133
 30
0.0
 10
451.2595192503967
 20
106.805297774579
 30
0.0
 10
450.8727337849541
 20
107.0457061693447
 30
0.0
 10
450.4920320043275
 20
107.2855366760957
 30
0.0
 10
450.1174766681377
 20
107.5246682177525
 30
0.0
 10
449.7471023317185
 20
107.7611304370845
 30
0.0
 10
449.3827380800557
 20
107.9969091233866
 30
0.0
 10
449.0244034269359
 20
108.2319177836297
 30
0.0
 10
448.6652876511999
 20
108.4674387319752
 30
0.0
 10
448.3122277737086
 20
108.7021862936916
 30
0.0
 10
447.9652014666603
 20
108.9361047761054
 30
0.0
 10
447.6173354060012
 20
109.1705893075081
 30
0.0
 10
447.2755321353906
 20
109.4042407422806
 30
0.0
 10
446.9397272880049
 20
109.6370344632864
 30
0.0
 10
446.6031005776168
 20
109.8703979335019
 30
0.0
 10
446.2725016712531
 20
110.1028994863994
 30
0.0
 10
445.9478239467426
 20
110.3345459205566
 30
0.0
 10
445.6223067745789
 20
110.5667912718578
 30
0.0
 10
445.3027414258098
 20
110.7981770762995
 30
0.0
 10
444.9889787489752
 20
111.0287419128048
 30
0.0
 10
444.6696411094059
 20
111.2634034455279
 30
0.0
 10
444.3563141172987
 20
111.4972146079784
 30
0.0
 10
444.0487973509095
 20
111.7302491379215
 30
0.0
 10
443.7312985612896
 20
111.9708479906779
 30
0.0
 10
443.4199931630501
 20
112.2106190718869
 30
0.0
 10
443.1146169116877
 20
112.4496772733419
 30
0.0
 10
442.7901659165886
 20
112.70366778833
 30
0.0
 10
442.4724078695256
 20
112.9568535796149
 30
0.0
 10
442.1609785656787
 20
113.2094094310355
 30
0.0
 10
441.8331796066412
 20
113.475240372992
 30
0.0
 10
441.5123919387292
 20
113.7403735581243
 30
0.0
 10
441.198142371099
 20
114.0050514145037
 30
0.0
 10
440.8658090662457
 20
114.2849603651999
 30
0.0
 10
440.5407876129836
 20
114.5643602984028
 30
0.0
 10
440.2224705972504
 20
114.8435770387561
 30
0.0
 10
439.8835032475355
 20
115.1409075419829
 30
0.0
 10
439.5521380930268
 20
115.4380304782312
 30
0.0
 10
439.2275944444917
 20
115.7353795279504
 30
0.0
 10
438.8725391661786
 20
116.0606835358419
 30
0.0
 10
438.5256477801524
 20
116.3862584059934
 30
0.0
 10
438.1858498878124
 20
116.7127158451477
 30
0.0
 10
437.7699013258882
 20
117.1123342813028
 30
0.0
 10
437.3645807457418
 20
117.5132753474772
 30
0.0
 10
436.9678669231557
 20
117.916723081815
 30
0.0
 10
436.5900625998161
 20
118.300940342713
 30
0.0
 10
436.2200597459302
 20
118.6874342326112
 30
0.0
 10
435.8561117354954
 20
119.0772478705032
 30
0.0
 10
435.54819904187
 20
119.4070437858918
 30
0.0
 10
435.244618914116
 20
119.7392171640433
 30
0.0
 10
434.9443467195059
 20
120.0743872403783
 30
0.0
 10
434.6768779065698
 20
120.3729414990083
 30
0.0
 10
434.4120333394522
 20
120.6738738944198
 30
0.0
 10
434.1491275568315
 20
120.9776014722426
 30
0.0
 10
433.8958959291392
 20
121.270152773855
 30
0.0
 10
433.6444628851324
 20
121.5652974763651
 30
0.0
 10
433.3942586903125
 20
121.8633835764781
 30
0.0
 10
433.1499607476376
 20
122.1544331372181
 30
0.0
 10
432.9068342284219
 20
122.4482869608772
 30
0.0
 10
432.6643918339342
 20
122.745243490432
 30
0.0
 10
432.4270651860402
 20
123.0359339774584
 30
0.0
 10
432.1903940108767
 20
123.3295976948346
 30
0.0
 10
431.9539642782927
 20
123.6264885736323
 30
0.0
 10
431.7138855387253
 20
123.9279616040832
 30
0.0
 10
431.4740553931227
 20
124.2327624283166
 30
0.0
 10
431.2340889879447
 20
124.5411270543832
 30
0.0
 10
430.9957866368148
 20
124.8473533169403
 30
0.0
 10
430.7573501881488
 20
125.1570939525678
 30
0.0
 10
430.5184510897683
 20
125.4705501856992
 30
0.0
 10
430.2737484920417
 20
125.7916211107918
 30
0.0
 10
430.0285606154399
 20
126.1165902683883
 30
0.0
 10
429.7825823318198
 20
126.4456443136973
 30
0.0
 10
429.5298128995039
 20
126.7837831242049
 30
0.0
 10
429.2762089533754
 20
127.1262353994043
 30
0.0
 10
429.0214874447486
 20
127.4731741344215
 30
0.0
 10
428.7597182874722
 20
127.8297119893579
 30
0.0
 10
428.4967690543939
 20
128.1909878799626
 30
0.0
 10
428.2323800734174
 20
128.5571604678333
 30
0.0
 10
427.9627627161717
 20
128.9305742352032
 30
0.0
 10
427.6916482107665
 20
129.3090802195475
 30
0.0
 10
427.4188075486072
 20
129.6928183547648
 30
0.0
 10
427.1403014636928
 20
130.0845246525939
 30
0.0
 10
426.8599969048038
 20
130.481682578262
 30
0.0
 10
426.5776965332349
 20
130.8844126819038
 30
0.0
 10
426.2848067908712
 20
131.302249596684
 30
0.0
 10
425.9897687226492
 20
131.7260845547677
 30
0.0
 10
425.6924103130752
 20
132.1560225383504
 30
0.0
 10
425.3849588652876
 20
132.6005536202213
 30
0.0
 10
425.0750270533565
 20
133.0516089600391
 30
0.0
 10
424.7624742208374
 20
133.5092742162517
 30
0.0
 10
424.4360072924548
 20
133.9873136223225
 30
0.0
 10
424.1066810627117
 20
134.4725643847777
 30
0.0
 10
423.7743848134068
 20
134.9650937184247
 30
0.0
 10
423.7688793555297
 20
134.9732539053221
 30
0.0
 10
423.7633730824178
 20
134.9814160901414
 30
0.0
 10
423.7578659937605
 20
134.9895802730707
 30
0.0
  0
ENDSEC
  0
SECTION
  2
OBJECTS
  0
DICTIONARY
  5
C
330
0
100
AcDbDictionary
  3
ACAD_GROUP
350
D
  3
ACAD_LAYOUT
350
1A
  3
ACAD_MATERIAL
350
43
  3
ACAD_MLEADERSTYLE
350
147
  3
ACAD_MLINESTYLE
350
17
  3
ACAD_PLOTSETTINGS
350
19
  3
ACAD_SCALELIST
350
47
  3
ACAD_VISUALSTYLE
350
2A
  3
ACDBHEADERROUNDTRIPXREC
350
126
  3
ACDBVARIABLEDICTIONARY
350
6C
  3
ONSHAPE_DATA
350
DF
  0
DICTIONARY
  5
73
330
72
100
AcDbDictionary
280
     1
  3
ONSHAPE_VIEW_ID
360
74
  0
DICTIONARY
  5
D
102
{ACAD_REACTORS
330
C
102
}
330
C
100
AcDbDictionary
  0
DICTIONARY
  5
1A
102
{ACAD_REACTORS
330
C
102
}
330
C
100
AcDbDictionary
  0
DICTIONARY
  5
43
102
{ACAD_REACTORS
330
C
102
}
330
C
100
AcDbDictionary
  3
BYBLOCK
350
45
  3
BYLAYER
350
44
  3
GLOBAL
350
46
  0
DICTIONARY
  5
147
102
{ACAD_REACTORS
330
C
102
}
330
C
100
AcDbDictionary
  0
DICTIONARY
  5
17
102
{ACAD_REACTORS
330
C
102
}
330
C
100
AcDbDictionary
  3
STANDARD
350
18
  0
DICTIONARY
  5
19
102
{ACAD_REACTORS
330
C
102
}
330
C
100
AcDbDictionary
  0
DICTIONARY
  5
47
102
{ACAD_REACTORS
330
C
102
}
330
C
100
AcDbDictionary
  3
A0
350
48
  3
A1
350
49
  3
A2
350
4A
  3
A3
350
4B
  3
A4
350
4C
  3
A5
350
4D
  3
A6
350
4E
  3
A7
350
4F
  3
A8
350
50
  3
A9
350
51
  3
B0
350
52
  3
B1
350
53
  3
B2
350
54
  3
B3
350
55
  3
B4
350
56
  3
B5
350
57
  3
B6
350
58
  3
B7
350
59
  3
B8
350
5A
  3
B9
350
5B
  3
C0
350
5C
  3
C1
350
5D
  3
C2
350
5E
  3
C3
350
5F
  3
C4
350
60
  3
C5
350
61
  3
C6
350
62
  3
C7
350
63
  3
C8
350
64
  3
C9
350
65
  3
D0
350
66
  3
D1
350
67
  3
D2
350
68
  0
DICTIONARY
  5
2A
102
{ACAD_REACTORS
330
C
102
}
330
C
100
AcDbDictionary
  3
2DWIREFRAME
350
2F
  3
BASIC
350
32
  3
BRIGHTEN
350
36
  3
COLORCHANGE
350
3A
  3
CONCEPTUAL
350
34
  3
DIM
350
35
  3
EDGECOLOROFF
350
3D
  3
FACEPATTERN
350
39
  3
FLAT
350
2B
  3
FLATWITHEDGES
350
2C
  3
GOURAUD
350
2D
  3
GOURAUDWITHEDGES
350
2E
  3
HIDDEN
350
31
  3
JITTEROFF
350
3B
  3
LINEPATTERN
350
38
  3
OVERHANGOFF
350
3C
  3
REALISTIC
350
33
  3
SHADED
350
42
  3
SHADED_WITH_EDGES
350
41
  3
SHADES_OF_GRAY
350
3E
  3
SKETCHY
350
3F
  3
THICKEN
350
37
  3
WIREFRAME
350
30
  3
X-RAY
350
40
  0
DICTIONARY
  5
126
102
{ACAD_REACTORS
330
C
102
}
330
C
100
AcDbDictionary
  3
CEPSNTYPE
350
12F
  3
DIMSTYLEDATA
350
145
  3
FINGERPRINTGUID
350
130
  3
HYPERLINKBASE
350
129
  3
INSUNITS
350
12E
  3
LAYOUTDICT
350
12B
  3
LWETCUNION
350
12D
  3
PLOTSETDICT
350
12C
  3
PSVPSCALE
350
132
  3
PUCSBASE
350
135
  3
PUCSORGBACK
350
13B
  3
PUCSORGBOTTOM
350
137
  3
PUCSORGFRONT
350
13A
  3
PUCSORGLEFT
350
138
  3
PUCSORGRIGHT
350
139
  3
PUCSORGTOP
350
136
  3
PUCSORTHOREF
350
133
  3
PUCSORTHOVIEW
350
134
  3
STYLESHEET
350
12A
  3
TSTACKALIGN
350
127
  3
TSTACKSIZE
350
128
  3
UCSBASE
350
13E
  3
UCSORGBACK
350
144
  3
UCSORGBOTTOM
350
140
  3
UCSORGFRONT
350
143
  3
UCSORGLEFT
350
141
  3
UCSORGRIGHT
350
142
  3
UCSORGTOP
350
13F
  3
UCSORTHOREF
350
13C
  3
UCSORTHOVIEW
350
13D
  3
VERSIONGUID
350
131
  0
DICTIONARY
  5
6C
102
{ACAD_REACTORS
330
C
102
}
330
C
100
AcDbDictionary
  3
CANNOSCALE
350
14E
  3
CTABLESTYLE
350
146
  3
DIMASSOC
350
14C
  3
HIDETEXT
350
14D
  3
MSLTSCALE
350
14F
  3
OLEFRAME
350
6D
  3
PSOLHEIGHT
350
149
  3
PSOLWIDTH
350
148
  0
DICTIONARY
  5
DF
102
{ACAD_REACTORS
330
C
102
}
330
C
100
AcDbDictionary
280
     1
  3
DIM_UNITS
360
E0
  3
ONSHAPE_ANG_TOL_PRECISION
360
E3
  3
ONSHAPE_VSHARP_EXTENSION
360
E2
  3
ONSHAPE_WELD_STANDARD
360
E1
  0
XRECORD
  5
74
102
{ACAD_REACTORS
330
73
102
}
330
73
100
AcDbXrecord
330
0
  0
MATERIAL
  5
45
102
{ACAD_REACTORS
330
43
102
}
102
{ACAD_XDICTIONARY
360
152
102
}
330
43
100
AcDbMaterial
  1
BYBLOCK
  0
MATERIAL
  5
44
102
{ACAD_REACTORS
330
43
102
}
102
{ACAD_XDICTIONARY
360
150
102
}
330
43
100
AcDbMaterial
  1
BYLAYER
  0
MATERIAL
  5
46
102
{ACAD_REACTORS
330
43
102
}
102
{ACAD_XDICTIONARY
360
154
102
}
330
43
100
AcDbMaterial
  1
GLOBAL
  0
MLINESTYLE
  5
18
102
{ACAD_REACTORS
330
17
102
}
330
17
100
AcDbMlineStyle
  2
Standard
 70
     0
  3

 62
   256
 51
90.0
 52
90.0
 71
     2
 49
0.5
 62
   256
  6
BYLAYER
 49
-0.5
 62
   256
  6
BYLAYER
  0
ACAD_PROXY_OBJECT
  5
48
102
{ACAD_REACTORS
330
47
102
}
330
47
100
AcDbProxyObject
 90
      499
 91
      503
 93
       41
310
903313A31580
  0
ACAD_PROXY_OBJECT
  5
49
102
{ACAD_REACTORS
330
47
102
}
330
47
100
AcDbProxyObject
 90
      499
 91
      503
 93
      105
310
903313A324000000000000004000
  0
ACAD_PROXY_OBJECT
  5
4A
102
{ACAD_REACTORS
330
47
102
}
330
47
100
AcDbProxyObject
 90
      499
 91
      503
 93
      105
310
903313A344000000000000104000
  0
ACAD_PROXY_OBJECT
  5
4B
102
{ACAD_REACTORS
330
47
102
}
330
47
100
AcDbProxyObject
 90
      499
 91
      503
 93
      105
310
903313A354000000000000144000
  0
ACAD_PROXY_OBJECT
  5
4C
102
{ACAD_REACTORS
330
47
102
}
330
47
100
AcDbProxyObject
 90
      499
 91
      503
 93
      105
310
903313A384000000000000204000
  0
ACAD_PROXY_OBJECT
  5
4D
102
{ACAD_REACTORS
330
47
102
}
330
47
100
AcDbProxyObject
 90
      499
 91
      503
 93
      113
310
904313A31304000000000000244000
  0
ACAD_PROXY_OBJECT
  5
4E
102
{ACAD_REACTORS
330
47
102
}
330
47
100
AcDbProxyObject
 90
      499
 91
      503
 93
      113
310
904313A31364000000000000304000
  0
ACAD_PROXY_OBJECT
  5
4F
102
{ACAD_REACTORS
330
47
102
}
330
47
100
AcDbProxyObject
 90
      499
 91
      503
 93
      113
310
904313A32304000000000000344000
  0
ACAD_PROXY_OBJECT
  5
50
102
{ACAD_REACTORS
330
47
102
}
330
47
100
AcDbProxyObject
 90
      499
 91
      503
 93
      113
310
904313A333040000000000003E4000
  0
ACAD_PROXY_OBJECT
  5
51
102
{ACAD_REACTORS
330
47
102
}
330
47
100
AcDbProxyObject
 90
      499
 91
      503
 93
      113
310
904313A34304000000000000444000
  0
ACAD_PROXY_OBJECT
  5
52
102
{ACAD_REACTORS
330
47
102
}
330
47
100
AcDbProxyObject
 90
      499
 91
      503
 93
      113
310
904313A35304000000000000494000
  0
ACAD_PROXY_OBJECT
  5
53
102
{ACAD_REACTORS
330
47
102
}
330
47
100
AcDbProxyObject
 90
      499
 91
      503
 93
      121
310
905313A3130304000000000000594000
  0
ACAD_PROXY_OBJECT
  5
54
102
{ACAD_REACTORS
330
47
102
}
330
47
100
AcDbProxyObject
 90
      499
 91
      503
 93
      105
310
903323A310000000000000010100
  0
ACAD_PROXY_OBJECT
  5
55
102
{ACAD_REACTORS
330
47
102
}
330
47
100
AcDbProxyObject
 90
      499
 91
      503
 93
      105
310
903343A310000000000000410100
  0
ACAD_PROXY_OBJECT
  5
56
102
{ACAD_REACTORS
330
47
102
}
330
47
100
AcDbProxyObject
 90
      499
 91
      503
 93
      105
310
903383A310000000000000810100
  0
ACAD_PROXY_OBJECT
  5
57
102
{ACAD_REACTORS
330
47
102
}
330
47
100
AcDbProxyObject
 90
      499
 91
      503
 93
      113
310
90431303A310000000000000910100
  0
ACAD_PROXY_OBJECT
  5
58
102
{ACAD_REACTORS
330
47
102
}
330
47
100
AcDbProxyObject
 90
      499
 91
      503
 93
      121
310
9053130303A310000000000001650100
  0
ACAD_PROXY_OBJECT
  5
59
102
{ACAD_REACTORS
330
47
102
}
330
47
100
AcDbProxyObject
 90
      499
 91
      503
 93
      257
310
90E312F31323822203D2031272D3022000000000000200FC000000000000284000
  0
ACAD_PROXY_OBJECT
  5
5A
102
{ACAD_REACTORS
330
47
102
}
330
47
100
AcDbProxyObject
 90
      499
 91
      503
 93
      249
310
90D312F363422203D2031272D3022000000000000240FC000000000000284000
  0
ACAD_PROXY_OBJECT
  5
5B
102
{ACAD_REACTORS
330
47
102
}
330
47
100
AcDbProxyObject
 90
      499
 91
      503
 93
      249
310
90D312F333222203D2031272D3022000000000000280FC000000000000284000
  0
ACAD_PROXY_OBJECT
  5
5C
102
{ACAD_REACTORS
330
47
102
}
330
47
100
AcDbProxyObject
 90
      499
 91
      503
 93
      249
310
90D312F313622203D2031272D30220000000000002C0FC000000000000284000
  0
ACAD_PROXY_OBJECT
  5
5D
102
{ACAD_REACTORS
330
47
102
}
330
47
100
AcDbProxyObject
 90
      499
 91
      503
 93
      249
310
90D332F333222203D2031272D30220000000000002E0FC000000000000284000
  0
ACAD_PROXY_OBJECT
  5
5E
102
{ACAD_REACTORS
330
47
102
}
330
47
100
AcDbProxyObject
 90
      499
 91
      503
 93
      241
310
90C312F3822203D2031272D3022000000000000300FC000000000000284000
  0
ACAD_PROXY_OBJECT
  5
5F
102
{ACAD_REACTORS
330
47
102
}
330
47
100
AcDbProxyObject
 90
      499
 91
      503
 93
      249
310
90D332F313622203D2031272D3022000000000000320FC000000000000284000
  0
ACAD_PROXY_OBJECT
  5
60
102
{ACAD_REACTORS
330
47
102
}
330
47
100
AcDbProxyObject
 90
      499
 91
      503
 93
      241
310
90C312F3422203D2031272D3022000000000000340FC000000000000284000
  0
ACAD_PROXY_OBJECT
  5
61
102
{ACAD_REACTORS
330
47
102
}
330
47
100
AcDbProxyObject
 90
      499
 91
      503
 93
      241
310
90C332F3822203D2031272D3022000000000000360FC000000000000284000
  0
ACAD_PROXY_OBJECT
  5
62
102
{ACAD_REACTORS
330
47
102
}
330
47
100
AcDbProxyObject
 90
      499
 91
      503
 93
      241
310
90C312F3222203D2031272D3022000000000000380FC000000000000284000
  0
ACAD_PROXY_OBJECT
  5
63
102
{ACAD_REACTORS
330
47
102
}
330
47
100
AcDbProxyObject
 90
      499
 91
      503
 93
      241
310
90C332F3422203D2031272D30220000000000003A0FC000000000000284000
  0
ACAD_PROXY_OBJECT
  5
64
102
{ACAD_REACTORS
330
47
102
}
330
47
100
AcDbProxyObject
 90
      499
 91
      503
 93
      161
310
90A3122203D2031272D30224000000000000284000
  0
ACAD_PROXY_OBJECT
  5
65
102
{ACAD_REACTORS
330
47
102
}
330
47
100
AcDbProxyObject
 90
      499
 91
      503
 93
      257
310
90E312D312F3222203D2031272D30220000000000003E0FC000000000000284000
  0
ACAD_PROXY_OBJECT
  5
66
102
{ACAD_REACTORS
330
47
102
}
330
47
100
AcDbProxyObject
 90
      499
 91
      503
 93
      225
310
90A3322203D2031272D302200000000000002100000000000000284000
  0
ACAD_PROXY_OBJECT
  5
67
102
{ACAD_REACTORS
330
47
102
}
330
47
100
AcDbProxyObject
 90
      499
 91
      503
 93
      225
310
90A3622203D2031272D302200000000000006100000000000000284000
  0
ACAD_PROXY_OBJECT
  5
68
102
{ACAD_REACTORS
330
47
102
}
330
47
100
AcDbProxyObject
 90
      499
 91
      503
 93
      249
310
90D31272D3022203D2031272D30220000000000000A100000000000000284000
  0
ACAD_PROXY_OBJECT
  5
2F
102
{ACAD_REACTORS
330
2A
102
}
330
2A
100
AcDbProxyObject
 90
      499
 91
      501
 93
      436
310
42CC9915DA5C99599C985B595049028333333333333E33F0000000000000F90107901411070040501600405405064090741402480A0340
1001
ACAD
1000
AcDbSavedByObjectVersion
1070
     0
  0
ACAD_PROXY_OBJECT
  5
32
102
{ACAD_REACTORS
330
2A
102
}
330
2A
100
AcDbProxyObject
 90
      499
 91
      501
 93
      388
310
4150985CDA58D07406404333333333333E33F0000000000000F90107A41107004050150841D405064090741402480A0350
1001
ACAD
1000
AcDbSavedByObjectVersion
1070
     0
  0
ACAD_PROXY_OBJECT
  5
36
102
{ACAD_REACTORS
330
2A
102
}
330
2A
100
AcDbProxyObject
 90
      499
 91
      501
 93
      428
310
42109C9A59DA1D195B90C409028333333333333E33F0000000000000F9010790141107004050150841D405064090741402480A029950
1001
ACAD
1000
AcDbSavedByObjectVersion
1070
     0
  0
ACAD_PROXY_OBJECT
  5
3A
102
{ACAD_REACTORS
330
2A
102
}
330
2A
100
AcDbProxyObject
 90
      499
 91
      501
 93
      452
310
42D0DBDB1BDC90DA185B99D95104090240C333333333333E33F0000000000000F90108901411070040501508421405064090741402480A0350
1001
ACAD
1000
AcDbSavedByObjectVersion
1070
     0
  0
ACAD_PROXY_OBJECT
  5
34
102
{ACAD_REACTORS
330
2A
102
}
330
2A
100
AcDbProxyObject
 90
      499
 91
      501
 93
      500
310
4290DBDB98D95C1D1D585B10940D028333333333333E33F0000000000000F90107902409070040501000000000018199010841D405064090740C02480A0340
1001
ACAD
1000
AcDbSavedByObjectVersion
1070
     0
  0
ACAD_PROXY_OBJECT
  5
35
102
{ACAD_REACTORS
330
2A
102
}
330
2A
100
AcDbProxyObject
 90
      499
 91
      501
 93
      412
310
40D11A5B50B409028333333333333E33F0000000000000F9010790141107004050150841D405064090741402480A02677FFFFFD0
1001
ACAD
1000
AcDbSavedByObjectVersion
1070
     0
  0
ACAD_PROXY_OBJECT
  5
3D
102
{ACAD_REACTORS
330
2A
102
}
330
2A
100
AcDbProxyObject
 90
      499
 91
      501
 93
      452
310
43115919D950DBDB1BDC93D999916409028333333333333E33F0000000000000F9010790141107004050150841D405064090741402480A0350
1001
ACAD
1000
AcDbSavedByObjectVersion
1070
     0
  0
ACAD_PROXY_OBJECT
  5
39
102
{ACAD_REACTORS
330
2A
102
}
330
2A
100
AcDbProxyObject
 90
      499
 91
      501
 93
      444
310
42D19858D95C185D1D195C9B90F409028333333333333E33F0000000000000F9010790141107004050150841D405064090741402480A0350
1001
ACAD
1000
AcDbSavedByObjectVersion
1070
     0
  0
ACAD_PROXY_OBJECT
  5
2B
102
{ACAD_REACTORS
330
2A
102
}
330
2A
100
AcDbProxyObject
 90
      499
 91
      501
 93
      380
310
41119B185D240901404333333333333E33F0000000000000F9010740A907004050150841D405064090741402480A1B50
1001
ACAD
1000
AcDbSavedByObjectVersion
1070
     0
  0
ACAD_PROXY_OBJECT
  5
2C
102
{ACAD_REACTORS
330
2A
102
}
330
2A
100
AcDbProxyObject
 90
      499
 91
      501
 93
      468
310
43519B185D15DA5D1A115919D95CD0140901404333333333333E33F0000000000000F90107409019070040501600405405064090741402480A1B50
1001
ACAD
1000
AcDbSavedByObjectVersion
1070
     0
  0
ACAD_PROXY_OBJECT
  5
2D
102
{ACAD_REACTORS
330
2A
102
}
330
2A
100
AcDbProxyObject
 90
      499
 91
      501
 93
      404
310
41D1DBDD5C985D5910240902404333333333333E33F0000000000000F9010740A9070040501641D405064090741402480A1B50
1001
ACAD
1000
AcDbSavedByObjectVersion
1070
     0
  0
ACAD_PROXY_OBJECT
  5
2E
102
{ACAD_REACTORS
330
2A
102
}
330
2A
100
AcDbProxyObject
 90
      499
 91
      501
 93
      492
310
4411DBDD5C985D5915DA5D1A115919D95CD0340902404333333333333E33F0000000000000F90107409019070040501600405405064090741402480A1B50
1001
ACAD
1000
AcDbSavedByObjectVersion
1070
     0
  0
ACAD_PROXY_OBJECT
  5
31
102
{ACAD_REACTORS
330
2A
102
}
330
2A
100
AcDbProxyObject
 90
      499
 91
      501
 93
      476
310
41921A5919195B90640502408333333333333E33F0000000000000F901079024090700405020000000000001110200405405064090740C02480A0340
1001
ACAD
1000
AcDbSavedByObjectVersion
1070
     0
  0
ACAD_PROXY_OBJECT
  5
3B
102
{ACAD_REACTORS
330
2A
102
}
330
2A
100
AcDbProxyObject
 90
      499
 91
      501
 93
      428
310
42529A5D1D195C93D999914409028333333333333E33F0000000000000F9010790141107004050150A41D405064090741402480A0350
1001
ACAD
1000
AcDbSavedByObjectVersion
1070
     0
  0
ACAD_PROXY_OBJECT
  5
38
102
{ACAD_REACTORS
330
2A
102
}
330
2A
100
AcDbProxyObject
 90
      499
 91
      501
 93
      444
310
42D31A5B995C185D1D195C9B90E409028333333333333E33F0000000000000F9010790141107004050750841D405064090741402483A0350
1001
ACAD
1000
AcDbSavedByObjectVersion
1070
     0
  0
ACAD_PROXY_OBJECT
  5
3C
102
{ACAD_REACTORS
330
2A
102
}
330
2A
100
AcDbProxyObject
 90
      499
 91
      501
 93
      444
310
42D3DD995C9A185B99D3D999915409028333333333333E33F0000000000000F9010790141107004050150941D405064090741402480A0350
1001
ACAD
1000
AcDbSavedByObjectVersion
1070
     0
  0
ACAD_PROXY_OBJECT
  5
33
102
{ACAD_REACTORS
330
2A
102
}
330
2A
100
AcDbProxyObject
 90
      499
 91
      501
 93
      428
310
425499585B1A5CDD1A58D08409038333333333333E33F0000000000000F9010740A907004050150800405405064090740C02480A1B40
1001
ACAD
1000
AcDbSavedByObjectVersion
1070
     0
  0
ACAD_PROXY_OBJECT
  5
42
102
{ACAD_REACTORS
330
2A
102
}
330
2A
100
AcDbProxyObject
 90
      499
 91
      501
 93
      420
310
4194DA1859195911B40902404333333333333E33F0000000000000F9010740A41107004050150800405405064090840C02480A0B40
1001
ACAD
1000
AcDbSavedByObjectVersion
1070
     0
  0
ACAD_PROXY_OBJECT
  5
41
102
{ACAD_REACTORS
330
2A
102
}
330
2A
100
AcDbProxyObject
 90
      499
 91
      501
 93
      516
310
4454DA18591959081DDA5D1A08195919D95CD1A40902404333333333333E33F0000000000000F901074090142907004050250800405405064090740C02480A0B40
1001
ACAD
1000
AcDbSavedByObjectVersion
1070
     0
  0
ACAD_PROXY_OBJECT
  5
3E
102
{ACAD_REACTORS
330
2A
102
}
330
2A
100
AcDbProxyObject
 90
      499
 91
      501
 93
      532
310
4394DA1859195CC81BD98811DC985E5174090240C333333333333E33F0000000000000F901079024090741D01000000000000111010841D405064090740C02480A0340
1001
ACAD
1000
AcDbSavedByObjectVersion
1070
     0
  0
ACAD_PROXY_OBJECT
  5
3F
102
{ACAD_REACTORS
330
2A
102
}
330
2A
100
AcDbProxyObject
 90
      499
 91
      501
 93
      476
310
41D4DAD95D18DA1E51840502408333333333333E33F0000000000000F901079024090741D01000000000000111010B41D405064090741802480A0340
1001
ACAD
1000
AcDbSavedByObjectVersion
1070
     0
  0
ACAD_PROXY_OBJECT
  5
37
102
{ACAD_REACTORS
330
2A
102
}
330
2A
100
AcDbProxyObject
 90
      499
 91
      501
 93
      412
310
41D51A1A58DAD95B90D409028333333333333E33F0000000000000F9010790141107004050150C41D405064090741402480A0350
1001
ACAD
1000
AcDbSavedByObjectVersion
1070
     0
  0
ACAD_PROXY_OBJECT
  5
30
102
{ACAD_REACTORS
330
2A
102
}
330
2A
100
AcDbProxyObject
 90
      499
 91
      501
 93
      420
310
4255DA5C99599C985B595059028333333333333E33F0000000000000F90107901411070040501600405405064090740C02480A0340
1001
ACAD
1000
AcDbSavedByObjectVersion
1070
     0
  0
ACAD_PROXY_OBJECT
  5
40
102
{ACAD_REACTORS
330
2A
102
}
330
2A
100
AcDbProxyObject
 90
      499
 91
      501
 93
      404
310
41560B54985E51940902404000000000000E03F0000000000000F9010740501907004050150841D405064090740C02480A1B40
1001
ACAD
1000
AcDbSavedByObjectVersion
1070
     0
  0
XRECORD
  5
12F
102
{ACAD_REACTORS
330
126
102
}
330
126
100
AcDbXrecord
 90
        0
  0
XRECORD
  5
145
102
{ACAD_REACTORS
330
126
102
}
330
126
100
AcDbXrecord
1000
DSTYLE
1002
{
1070
   179
 70
     1
1070
   143
 40
0.03937
1070
   285
 70
     8
1070
   176
 70
     7
1070
   177
 70
     7
1070
   178
 70
     7
1070
   371
 70
    13
1070
   372
 70
    13
1070
   272
 70
     3
1070
   340
340
71
1070
   288
 70
     1
1002
}
  0
XRECORD
  5
130
102
{ACAD_REACTORS
330
126
102
}
330
126
100
AcDbXrecord
  1
{0849C6B9-A301-7984-C0A0-5A311A92ECB5}
  0
XRECORD
  5
129
102
{ACAD_REACTORS
330
126
102
}
330
126
100
AcDbXrecord
  1

  0
XRECORD
  5
12E
102
{ACAD_REACTORS
330
126
102
}
330
126
100
AcDbXrecord
 90
        4
  0
XRECORD
  5
12B
102
{ACAD_REACTORS
330
126
102
}
330
126
100
AcDbXrecord
340
1A
  0
XRECORD
  5
12D
102
{ACAD_REACTORS
330
126
102
}
330
126
100
AcDbXrecord
 90
    10269
  0
XRECORD
  5
12C
102
{ACAD_REACTORS
330
126
102
}
330
126
100
AcDbXrecord
340
19
  0
XRECORD
  5
132
102
{ACAD_REACTORS
330
126
102
}
330
126
100
AcDbXrecord
 40
0.0
  0
XRECORD
  5
135
102
{ACAD_REACTORS
330
126
102
}
330
126
100
AcDbXrecord
340
0
  0
XRECORD
  5
13B
102
{ACAD_REACTORS
330
126
102
}
330
126
100
AcDbXrecord
 10
0.0
 20
0.0
 30
0.0
  0
XRECORD
  5
137
102
{ACAD_REACTORS
330
126
102
}
330
126
100
AcDbXrecord
 10
0.0
 20
0.0
 30
0.0
  0
XRECORD
  5
13A
102
{ACAD_REACTORS
330
126
102
}
330
126
100
AcDbXrecord
 10
0.0
 20
0.0
 30
0.0
  0
XRECORD
  5
138
102
{ACAD_REACTORS
330
126
102
}
330
126
100
AcDbXrecord
 10
0.0
 20
0.0
 30
0.0
  0
XRECORD
  5
139
102
{ACAD_REACTORS
330
126
102
}
330
126
100
AcDbXrecord
 10
0.0
 20
0.0
 30
0.0
  0
XRECORD
  5
136
102
{ACAD_REACTORS
330
126
102
}
330
126
100
AcDbXrecord
 10
0.0
 20
0.0
 30
0.0
  0
XRECORD
  5
133
102
{ACAD_REACTORS
330
126
102
}
330
126
100
AcDbXrecord
340
0
  0
XRECORD
  5
134
102
{ACAD_REACTORS
330
126
102
}
330
126
100
AcDbXrecord
 70
     0
  0
XRECORD
  5
12A
102
{ACAD_REACTORS
330
126
102
}
330
126
100
AcDbXrecord
  1

  0
XRECORD
  5
127
102
{ACAD_REACTORS
330
126
102
}
330
126
100
AcDbXrecord
 90
        1
  0
XRECORD
  5
128
102
{ACAD_REACTORS
330
126
102
}
330
126
100
AcDbXrecord
 90
       70
  0
XRECORD
  5
13E
102
{ACAD_REACTORS
330
126
102
}
330
126
100
AcDbXrecord
340
0
  0
XRECORD
  5
144
102
{ACAD_REACTORS
330
126
102
}
330
126
100
AcDbXrecord
 10
0.0
 20
0.0
 30
0.0
  0
XRECORD
  5
140
102
{ACAD_REACTORS
330
126
102
}
330
126
100
AcDbXrecord
 10
0.0
 20
0.0
 30
0.0
  0
XRECORD
  5
143
102
{ACAD_REACTORS
330
126
102
}
330
126
100
AcDbXrecord
 10
0.0
 20
0.0
 30
0.0
  0
XRECORD
  5
141
102
{ACAD_REACTORS
330
126
102
}
330
126
100
AcDbXrecord
 10
0.0
 20
0.0
 30
0.0
  0
XRECORD
  5
142
102
{ACAD_REACTORS
330
126
102
}
330
126
100
AcDbXrecord
 10
0.0
 20
0.0
 30
0.0
  0
XRECORD
  5
13F
102
{ACAD_REACTORS
330
126
102
}
330
126
100
AcDbXrecord
 10
0.0
 20
0.0
 30
0.0
  0
XRECORD
  5
13C
102
{ACAD_REACTORS
330
126
102
}
330
126
100
AcDbXrecord
340
0
  0
XRECORD
  5
13D
102
{ACAD_REACTORS
330
126
102
}
330
126
100
AcDbXrecord
 70
     0
  0
XRECORD
  5
131
102
{ACAD_REACTORS
330
126
102
}
330
126
100
AcDbXrecord
  1
{FAEB1C32-E019-11D5-929B-00C0DF256EC4}
  0
DICTIONARYVAR
  5
14E
102
{ACAD_REACTORS
330
6C
102
}
330
6C
100
DictionaryVariables
280
     0
  1
1:1
  0
DICTIONARYVAR
  5
146
102
{ACAD_REACTORS
330
6C
102
}
330
6C
100
DictionaryVariables
280
     0
  1
Onshape-Standard
  0
DICTIONARYVAR
  5
14C
102
{ACAD_REACTORS
330
6C
102
}
330
6C
100
DictionaryVariables
280
     0
  1
2
  0
DICTIONARYVAR
  5
14D
102
{ACAD_REACTORS
330
6C
102
}
330
6C
100
DictionaryVariables
280
     0
  1
1
  0
DICTIONARYVAR
  5
14F
102
{ACAD_REACTORS
330
6C
102
}
330
6C
100
DictionaryVariables
280
     0
  1
1
  0
DICTIONARYVAR
  5
6D
102
{ACAD_REACTORS
330
6C
102
}
330
6C
100
DictionaryVariables
280
     0
  1
0
  0
DICTIONARYVAR
  5
149
102
{ACAD_REACTORS
330
6C
102
}
330
6C
100
DictionaryVariables
280
     0
  1
80.000000
  0
DICTIONARYVAR
  5
148
102
{ACAD_REACTORS
330
6C
102
}
330
6C
100
DictionaryVariables
280
     0
  1
5.000000
  0
XRECORD
  5
E0
102
{ACAD_REACTORS
330
DF
102
}
330
DF
100
AcDbXrecord
 70
     4
  0
XRECORD
  5
E3
102
{ACAD_REACTORS
330
DF
102
}
330
DF
100
AcDbXrecord
 90
        0
  0
XRECORD
  5
E2
102
{ACAD_REACTORS
330
DF
102
}
330
DF
100
AcDbXrecord
 90
        0
  0
XRECORD
  5
E1
102
{ACAD_REACTORS
330
DF
102
}
330
DF
100
AcDbXrecord
 90
        1
  0
DICTIONARY
  5
152
330
45
100
AcDbDictionary
280
     1
  3
ACAD_XREC_ROUNDTRIP
360
153
  0
DICTIONARY
  5
150
330
44
100
AcDbDictionary
280
     1
  3
ACAD_XREC_ROUNDTRIP
360
151
  0
DICTIONARY
  5
154
330
46
100
AcDbDictionary
280
     1
  3
ACAD_XREC_ROUNDTRIP
360
155
  0
XRECORD
  5
153
102
{ACAD_REACTORS
330
152
102
}
330
152
100
AcDbXrecord
102
MATERIAL
148
0.0
149
0.0
149
0.0
 93
        0
 94
      127
282
     0
 72
     1
 77
     1
171
     1
175
     1
179
     1
273
     0
  0
XRECORD
  5
151
102
{ACAD_REACTORS
330
150
102
}
330
150
100
AcDbXrecord
102
MATERIAL
148
0.0
149
0.0
149
0.0
 93
        0
 94
      127
282
     0
 72
     1
 77
     1
171
     1
175
     1
179
     1
273
     0
  0
XRECORD
  5
155
102
{ACAD_REACTORS
330
154
102
}
330
154
100
AcDbXrecord
102
MATERIAL
148
0.0
149
0.0
149
0.0
 93
        0
 94
      127
282
     0
 72
     1
 77
     1
171
     1
175
     1
179
     1
273
     0
  0
ENDSEC
  0
EOF
