  0
SECTION
  2
HEADER
  9
$ACADVER
  1
AC1015
  9
$ACADMAINTVER
 70
     6
  9
$DWGCODEPAGE
  3
ANSI_1252
  9
$INSBASE
 10
0.0
 20
0.0
 30
0.0
  9
$EXTMIN
 10
0.0
 20
0.0
 30
0.0
  9
$EXTMAX
 10
416.399994
 20
293.573761
 30
2.0
  9
$LIMMIN
 10
0.0
 20
0.0
  9
$LIMMAX
 10
420.0
 20
297.0
  9
$ORTHOMODE
 70
     0
  9
$REGENMODE
 70
     1
  9
$FILLMODE
 70
     1
  9
$QTEXTMODE
 70
     0
  9
$MIRRTEXT
 70
     1
  9
$LTSCALE
 40
1.0
  9
$ATTMODE
 70
     1
  9
$TEXTSIZE
 40
2.5
  9
$TRACEWID
 40
1.0
  9
$TEXTSTYLE
  7
Standard
  9
$CLAYER
  8
0
  9
$CELTYPE
  6
ByLayer
  9
$CECOLOR
 62
   256
  9
$CELTSCALE
 40
1.0
  9
$DISPSILH
 70
     0
  9
$DIMSCALE
 40
1.0
  9
$DIMASZ
 40
2.5
  9
$DIMEXO
 40
0.625
  9
$DIMDLI
 40
3.75
  9
$DIMRND
 40
0.0
  9
$DIMDLE
 40
0.0
  9
$DIMEXE
 40
1.25
  9
$DIMTP
 40
0.0
  9
$DIMTM
 40
0.0
  9
$DIMTXT
 40
2.5
  9
$DIMCEN
 40
2.5
  9
$DIMTSZ
 40
0.0
  9
$DIMTOL
 70
     0
  9
$DIMLIM
 70
     0
  9
$DIMTIH
 70
     0
  9
$DIMTOH
 70
     0
  9
$DIMSE1
 70
     0
  9
$DIMSE2
 70
     0
  9
$DIMTAD
 70
     1
  9
$DIMZIN
 70
     8
  9
$DIMBLK
  1

  9
$DIMASO
 70
     1
  9
$DIMSHO
 70
     1
  9
$DIMPOST
  1

  9
$DIMAPOST
  1

  9
$DIMALT
 70
     0
  9
$DIMALTD
 70
     3
  9
$DIMALTF
 40
0.03937
  9
$DIMLFAC
 40
1.0
  9
$DIMTOFL
 70
     1
  9
$DIMTVP
 40
0.0
  9
$DIMTIX
 70
     0
  9
$DIMSOXD
 70
     0
  9
$DIMSAH
 70
     0
  9
$DIMBLK1
  1

  9
$DIMBLK2
  1

  9
$DIMSTYLE
  2
STANDARD
  9
$DIMCLRD
 70
     0
  9
$DIMCLRE
 70
     0
  9
$DIMCLRT
 70
     0
  9
$DIMTFAC
 40
1.0
  9
$DIMGAP
 40
0.625
  9
$DIMJUST
 70
     0
  9
$DIMSD1
 70
     0
  9
$DIMSD2
 70
     0
  9
$DIMTOLJ
 70
     0
  9
$DIMTZIN
 70
     8
  9
$DIMALTZ
 70
     0
  9
$DIMALTTZ
 70
     0
  9
$DIMUPT
 70
     0
  9
$DIMDEC
 70
     2
  9
$DIMTDEC
 70
     2
  9
$DIMALTU
 70
     2
  9
$DIMALTTD
 70
     3
  9
$DIMTXSTY
  7
Standard
  9
$DIMAUNIT
 70
     0
  9
$DIMADEC
 70
     0
  9
$DIMALTRND
 40
0.0
  9
$DIMAZIN
 70
     0
  9
$DIMDSEP
 70
    44
  9
$DIMATFIT
 70
     0
  9
$DIMFRAC
 70
     0
  9
$DIMLDRBLK
  1

  9
$DIMLUNIT
 70
     2
  9
$DIMLWD
 70
    -2
  9
$DIMLWE
 70
    -2
  9
$DIMTMOVE
 70
     0
  9
$LUNITS
 70
     2
  9
$LUPREC
 70
     4
  9
$SKETCHINC
 40
1.0
  9
$FILLETRAD
 40
2.5
  9
$AUNITS
 70
     0
  9
$AUPREC
 70
     0
  9
$MENU
  1
.
  9
$ELEVATION
 40
0.0
  9
$PELEVATION
 40
0.0
  9
$THICKNESS
 40
0.0
  9
$LIMCHECK
 70
     0
  9
$CHAMFERA
 40
2.5
  9
$CHAMFERB
 40
2.5
  9
$CHAMFERC
 40
0.0
  9
$CHAMFERD
 40
0.0
  9
$SKPOLY
 70
     0
  9
$TDCREATE
 40
2447892.875
  9
$TDUCREATE
 40
0.0
  9
$TDUPDATE
 40
2458955.59503691
  9
$TDUUPDATE
 40
2458955.72003691
  9
$TDINDWG
 40
0.0
  9
$TDUSRTIMER
 40
0.0
  9
$USRTIMER
 70
     1
  9
$ANGBASE
 50
0.0
  9
$ANGDIR
 70
     0
  9
$PDMODE
 70
     0
  9
$PDSIZE
 40
0.0
  9
$PLINEWID
 40
0.0
  9
$SPLFRAME
 70
     0
  9
$SPLINETYPE
 70
     6
  9
$SPLINESEGS
 70
     8
  9
$HANDSEED
  5
419
  9
$SURFTAB1
 70
     6
  9
$SURFTAB2
 70
     6
  9
$SURFTYPE
 70
     6
  9
$SURFU
 70
     6
  9
$SURFV
 70
     6
  9
$UCSBASE
  2

  9
$UCSNAME
  2

  9
$UCSORG
 10
0.0
 20
0.0
 30
0.0
  9
$UCSXDIR
 10
1.0
 20
0.0
 30
0.0
  9
$UCSYDIR
 10
0.0
 20
1.0
 30
0.0
  9
$UCSORTHOREF
  2

  9
$UCSORTHOVIEW
 70
     1
  9
$UCSORGTOP
 10
0.0
 20
0.0
 30
0.0
  9
$UCSORGBOTTOM
 10
0.0
 20
0.0
 30
0.0
  9
$UCSORGLEFT
 10
0.0
 20
0.0
 30
0.0
  9
$UCSORGRIGHT
 10
0.0
 20
0.0
 30
0.0
  9
$UCSORGFRONT
 10
0.0
 20
0.0
 30
0.0
  9
$UCSORGBACK
 10
0.0
 20
0.0
 30
0.0
  9
$PUCSBASE
  2

  9
$PUCSNAME
  2

  9
$PUCSORG
 10
0.0
 20
0.0
 30
0.0
  9
$PUCSXDIR
 10
1.0
 20
0.0
 30
0.0
  9
$PUCSYDIR
 10
0.0
 20
1.0
 30
0.0
  9
$PUCSORTHOREF
  2

  9
$PUCSORTHOVIEW
 70
     0
  9
$PUCSORGTOP
 10
0.0
 20
0.0
 30
0.0
  9
$PUCSORGBOTTOM
 10
0.0
 20
0.0
 30
0.0
  9
$PUCSORGLEFT
 10
0.0
 20
0.0
 30
0.0
  9
$PUCSORGRIGHT
 10
0.0
 20
0.0
 30
0.0
  9
$PUCSORGFRONT
 10
0.0
 20
0.0
 30
0.0
  9
$PUCSORGBACK
 10
0.0
 20
0.0
 30
0.0
  9
$USERI1
 70
     0
  9
$USERI2
 70
     0
  9
$USERI3
 70
     0
  9
$USERI4
 70
     0
  9
$USERI5
 70
     0
  9
$USERR1
 40
0.0
  9
$USERR2
 40
0.0
  9
$USERR3
 40
0.0
  9
$USERR4
 40
0.0
  9
$USERR5
 40
0.0
  9
$WORLDVIEW
 70
     1
  9
$SHADEDGE
 70
     3
  9
$SHADEDIF
 70
    70
  9
$TILEMODE
 70
     1
  9
$MAXACTVP
 70
    64
  9
$PINSBASE
 10
0.0
 20
0.0
 30
0.0
  9
$PLIMCHECK
 70
     0
  9
$PEXTMIN
 10
0.0
 20
0.0
 30
0.0
  9
$PEXTMAX
 10
416.399994
 20
293.573761
 30
2.0
  9
$PLIMMIN
 10
0.0
 20
0.0
  9
$PLIMMAX
 10
420.0
 20
297.0
  9
$UNITMODE
 70
     0
  9
$VISRETAIN
 70
     0
  9
$PLINEGEN
 70
     0
  9
$PSLTSCALE
 70
     1
  9
$TREEDEPTH
 70
  3020
  9
$CMLSTYLE
  2
Standard
  9
$CMLJUST
 70
     0
  9
$CMLSCALE
 40
20.0
  9
$PROXYGRAPHICS
 70
     1
  9
$MEASUREMENT
 70
     1
  9
$CELWEIGHT
370
    -1
  9
$ENDCAPS
280
     0
  9
$JOINSTYLE
280
     0
  9
$LWDISPLAY
290
     0
  9
$INSUNITS
 70
     0
  9
$HYPERLINKBASE
  1

  9
$STYLESHEET
  1

  9
$XEDIT
290
     1
  9
$CEPSNTYPE
380
     0
  9
$PSTYLEMODE
290
     0
  9
$FINGERPRINTGUID
  2
{86631404-2575-4E7F-A675-1E1688BB4FD8}
  9
$VERSIONGUID
  2
{FAEB1C32-E019-11D5-929B-00C0DF256EC4}
  9
$EXTNAMES
290
     1
  9
$PSVPSCALE
 40
0.0
  9
$OLESTARTUP
290
     0
  0
ENDSEC
  0
SECTION
  2
CLASSES
  0
CLASS
  1
ACDBDICTIONARYWDFLT
  2
AcDbDictionaryWithDefault
  3
ObjectDBX Classes
 90
        0
280
     0
281
     0
  0
CLASS
  1
VISUALSTYLE
  2
AcDbVisualStyle
  3
ObjectDBX Classes
 90
     4095
280
     0
281
     0
  0
CLASS
  1
MATERIAL
  2
AcDbMaterial
  3
ObjectDBX Classes
 90
     1153
280
     0
281
     0
  0
CLASS
  1
SCALE
  2
AcDbScale
  3
ObjectDBX Classes
 90
     1153
280
     0
281
     0
  0
CLASS
  1
TABLESTYLE
  2
AcDbTableStyle
  3
ObjectDBX Classes
 90
     4095
280
     0
281
     0
  0
CLASS
  1
MLEADERSTYLE
  2
AcDbMLeaderStyle
  3
ACDB_MLEADERSTYLE_CLASS
 90
     4095
280
     0
281
     0
  0
CLASS
  1
SUN
  2
AcDbSun
  3
SCENEOE
 90
     1153
280
     0
281
     0
  0
CLASS
  1
ACDBPLACEHOLDER
  2
AcDbPlaceHolder
  3
ObjectDBX Classes
 90
        0
280
     0
281
     0
  0
CLASS
  1
LAYOUT
  2
AcDbLayout
  3
ObjectDBX Classes
 90
        0
280
     0
281
     0
  0
ENDSEC
  0
SECTION
  2
TABLES
  0
TABLE
  2
VPORT
  5
8
330
0
100
AcDbSymbolTable
 70
     1
  0
VPORT
  5
29
330
8
100
AcDbSymbolTableRecord
100
AcDbViewportTableRecord
  2
*Active
 70
     0
 10
0.0
 20
0.0
 11
1.0
 21
1.0
 12
10.429907
 22
4.5
 13
0.0
 23
0.0
 14
0.5
 24
0.5
 15
0.5
 25
0.5
 16
0.0
 26
0.0
 36
1.0
 17
0.0
 27
0.0
 37
0.0
 40
9.0
 41
1.972973
 42
50.0
 43
0.0
 44
0.0
 50
0.0
 51
0.0
 71
     0
 72
   100
 73
     1
 74
     3
 75
     0
 76
     0
 77
     0
 78
     0
281
     0
 65
     1
110
0.0
120
0.0
130
0.0
111
1.0
121
0.0
131
0.0
112
0.0
122
1.0
132
0.0
 79
     0
146
0.0
  0
ENDTAB
  0
TABLE
  2
LTYPE
  5
5
330
0
100
AcDbSymbolTable
 70
     2
  0
LTYPE
  5
14
330
5
100
AcDbSymbolTableRecord
100
AcDbLinetypeTableRecord
  2
ByBlock
 70
     0
  3

 72
    65
 73
     0
 40
0.0
  0
LTYPE
  5
15
330
5
100
AcDbSymbolTableRecord
100
AcDbLinetypeTableRecord
  2
ByLayer
 70
     0
  3

 72
    65
 73
     0
 40
0.0
  0
LTYPE
  5
16
330
5
100
AcDbSymbolTableRecord
100
AcDbLinetypeTableRecord
  2
Continuous
 70
     0
  3
Solid line
 72
    65
 73
     0
 40
0.0
  0
LTYPE
  5
6F
330
5
100
AcDbSymbolTableRecord
100
AcDbLinetypeTableRecord
  2
DASHDOT
 70
     0
  3
 __ . __ . __ . __ . __ . __ . __ . 
 72
    65
 73
     4
 40
18.5
 49
12.0
 74
     0
 49
-3.0
 74
     0
 49
0.5
 74
     0
 49
-3.0
 74
     0
  0
ENDTAB
  0
TABLE
  2
LAYER
  5
2
330
0
100
AcDbSymbolTable
 70
     1
  0
LAYER
  5
10
330
2
100
AcDbSymbolTableRecord
100
AcDbLayerTableRecord
  2
0
 70
     0
 62
     7
  6
Continuous
370
    13
390
F
  0
ENDTAB
  0
TABLE
  2
STYLE
  5
3
330
0
100
AcDbSymbolTable
 70
     2
  0
STYLE
  5
11
330
3
100
AcDbSymbolTableRecord
100
AcDbTextStyleTableRecord
  2
Standard
 70
     0
 40
0.0
 41
1.0
 50
0.0
 71
     0
 42
2.5
  3
isocp.shx
  4

  0
STYLE
  5
6E
330
3
100
AcDbSymbolTableRecord
100
AcDbTextStyleTableRecord
  2
GDT
 70
     0
 40
0.0
 41
1.0
 50
0.0
 71
     0
 42
0.2
  3
gdt.shx
  4

  0
ENDTAB
  0
TABLE
  2
VIEW
  5
6
330
0
100
AcDbSymbolTable
 70
     0
  0
ENDTAB
  0
TABLE
  2
UCS
  5
7
330
0
100
AcDbSymbolTable
 70
     0
  0
ENDTAB
  0
TABLE
  2
APPID
  5
9
330
0
100
AcDbSymbolTable
 70
     1
  0
APPID
  5
12
330
9
100
AcDbSymbolTableRecord
100
AcDbRegAppTableRecord
  2
ACAD
 70
     0
  0
ENDTAB
  0
TABLE
  2
DIMSTYLE
  5
A
330
0
100
AcDbSymbolTable
 70
     1
100
AcDbDimStyleTable
  0
DIMSTYLE
105
27
102
{ACAD_REACTORS
330
3F4
330
3FB
330
3FD
330
3FF
330
401
330
403
330
409
330
40B
330
40D
330
40F
330
411
330
413
102
}
330
A
100
AcDbSymbolTableRecord
100
AcDbDimStyleTableRecord
  2
STANDARD
 70
     0
 41
2.5
 42
0.625
 43
3.75
 44
1.25
 73
     0
 74
     0
 77
     1
 78
     8
140
2.5
141
2.5
143
0.03937
147
0.625
171
     3
172
     1
178
     0
271
     2
272
     2
274
     3
278
    44
283
     0
284
     8
289
     0
340
0
  0
ENDTAB
  0
TABLE
  2
BLOCK_RECORD
  5
1
330
0
100
AcDbSymbolTable
 70
    84
  0
BLOCK_RECORD
  5
1F
330
1
100
AcDbSymbolTableRecord
100
AcDbBlockTableRecord
  2
*Model_Space
340
22
  0
BLOCK_RECORD
  5
1B
330
1
100
AcDbSymbolTableRecord
100
AcDbBlockTableRecord
  2
*Paper_Space
340
1E
  0
BLOCK_RECORD
  5
23
330
1
100
AcDbSymbolTableRecord
100
AcDbBlockTableRecord
  2
*Paper_Space0
340
26
  0
BLOCK_RECORD
  5
70
330
1
100
AcDbSymbolTableRecord
100
AcDbBlockTableRecord
  2
BLOCK1371
340
0
102
{BLKREFS
331
371
102
}
  0
BLOCK_RECORD
  5
73
330
1
100
AcDbSymbolTableRecord
100
AcDbBlockTableRecord
  2
BLOCK1372
340
0
102
{BLKREFS
331
372
102
}
  0
BLOCK_RECORD
  5
76
330
1
100
AcDbSymbolTableRecord
100
AcDbBlockTableRecord
  2
BLOCK1373
340
0
102
{BLKREFS
331
373
102
}
  0
BLOCK_RECORD
  5
79
330
1
100
AcDbSymbolTableRecord
100
AcDbBlockTableRecord
  2
BLOCK1374
340
0
102
{BLKREFS
331
374
102
}
  0
BLOCK_RECORD
  5
7C
330
1
100
AcDbSymbolTableRecord
100
AcDbBlockTableRecord
  2
BLOCK1375
340
0
102
{BLKREFS
331
375
102
}
  0
BLOCK_RECORD
  5
7F
330
1
100
AcDbSymbolTableRecord
100
AcDbBlockTableRecord
  2
BLOCK1376
340
0
102
{BLKREFS
331
376
102
}
  0
BLOCK_RECORD
  5
82
330
1
100
AcDbSymbolTableRecord
100
AcDbBlockTableRecord
  2
BLOCK1377
340
0
102
{BLKREFS
331
377
102
}
  0
BLOCK_RECORD
  5
85
330
1
100
AcDbSymbolTableRecord
100
AcDbBlockTableRecord
  2
BLOCK1378
340
0
102
{BLKREFS
331
378
102
}
  0
BLOCK_RECORD
  5
88
330
1
100
AcDbSymbolTableRecord
100
AcDbBlockTableRecord
  2
BLOCK1379
340
0
102
{BLKREFS
331
379
102
}
  0
BLOCK_RECORD
  5
8B
330
1
100
AcDbSymbolTableRecord
100
AcDbBlockTableRecord
  2
BLOCK1380
340
0
102
{BLKREFS
331
37A
102
}
  0
BLOCK_RECORD
  5
8E
330
1
100
AcDbSymbolTableRecord
100
AcDbBlockTableRecord
  2
BLOCK1381
340
0
102
{BLKREFS
331
37B
102
}
  0
BLOCK_RECORD
  5
91
330
1
100
AcDbSymbolTableRecord
100
AcDbBlockTableRecord
  2
BLOCK1382
340
0
102
{BLKREFS
331
37C
102
}
  0
BLOCK_RECORD
  5
94
330
1
100
AcDbSymbolTableRecord
100
AcDbBlockTableRecord
  2
BLOCK1383
340
0
102
{BLKREFS
331
37D
102
}
  0
BLOCK_RECORD
  5
97
330
1
100
AcDbSymbolTableRecord
100
AcDbBlockTableRecord
  2
BLOCK1384
340
0
102
{BLKREFS
331
37E
102
}
  0
BLOCK_RECORD
  5
9A
330
1
100
AcDbSymbolTableRecord
100
AcDbBlockTableRecord
  2
BLOCK1385
340
0
102
{BLKREFS
331
37F
102
}
  0
BLOCK_RECORD
  5
9D
330
1
100
AcDbSymbolTableRecord
100
AcDbBlockTableRecord
  2
BLOCK1386
340
0
102
{BLKREFS
331
380
102
}
  0
BLOCK_RECORD
  5
A0
330
1
100
AcDbSymbolTableRecord
100
AcDbBlockTableRecord
  2
BLOCK1387
340
0
102
{BLKREFS
331
381
102
}
  0
BLOCK_RECORD
  5
A3
330
1
100
AcDbSymbolTableRecord
100
AcDbBlockTableRecord
  2
BLOCK1388
340
0
102
{BLKREFS
331
382
102
}
  0
BLOCK_RECORD
  5
A6
330
1
100
AcDbSymbolTableRecord
100
AcDbBlockTableRecord
  2
BLOCK1389
340
0
102
{BLKREFS
331
383
102
}
  0
BLOCK_RECORD
  5
A9
330
1
100
AcDbSymbolTableRecord
100
AcDbBlockTableRecord
  2
BLOCK1390
340
0
102
{BLKREFS
331
384
102
}
  0
BLOCK_RECORD
  5
AC
330
1
100
AcDbSymbolTableRecord
100
AcDbBlockTableRecord
  2
BLOCK1391
340
0
102
{BLKREFS
331
385
102
}
  0
BLOCK_RECORD
  5
AF
330
1
100
AcDbSymbolTableRecord
100
AcDbBlockTableRecord
  2
BLOCK1392
340
0
102
{BLKREFS
331
386
102
}
  0
BLOCK_RECORD
  5
B2
330
1
100
AcDbSymbolTableRecord
100
AcDbBlockTableRecord
  2
BLOCK1393
340
0
102
{BLKREFS
331
387
102
}
  0
BLOCK_RECORD
  5
B5
330
1
100
AcDbSymbolTableRecord
100
AcDbBlockTableRecord
  2
BLOCK1394
340
0
102
{BLKREFS
331
388
102
}
  0
BLOCK_RECORD
  5
B8
330
1
100
AcDbSymbolTableRecord
100
AcDbBlockTableRecord
  2
BLOCK1395
340
0
102
{BLKREFS
331
389
102
}
  0
BLOCK_RECORD
  5
BB
330
1
100
AcDbSymbolTableRecord
100
AcDbBlockTableRecord
  2
BLOCK1396
340
0
102
{BLKREFS
331
38A
102
}
  0
BLOCK_RECORD
  5
BE
330
1
100
AcDbSymbolTableRecord
100
AcDbBlockTableRecord
  2
BLOCK1397
340
0
102
{BLKREFS
331
38B
102
}
  0
BLOCK_RECORD
  5
C1
330
1
100
AcDbSymbolTableRecord
100
AcDbBlockTableRecord
  2
BLOCK1398
340
0
102
{BLKREFS
331
38C
102
}
  0
BLOCK_RECORD
  5
C4
330
1
100
AcDbSymbolTableRecord
100
AcDbBlockTableRecord
  2
BLOCK1399
340
0
102
{BLKREFS
331
38D
102
}
  0
BLOCK_RECORD
  5
C7
330
1
100
AcDbSymbolTableRecord
100
AcDbBlockTableRecord
  2
BLOCK1400
340
0
102
{BLKREFS
331
38E
102
}
  0
BLOCK_RECORD
  5
CA
330
1
100
AcDbSymbolTableRecord
100
AcDbBlockTableRecord
  2
BLOCK1401
340
0
102
{BLKREFS
331
38F
102
}
  0
BLOCK_RECORD
  5
CD
330
1
100
AcDbSymbolTableRecord
100
AcDbBlockTableRecord
  2
BLOCK1402
340
0
102
{BLKREFS
331
390
102
}
  0
BLOCK_RECORD
  5
D0
330
1
100
AcDbSymbolTableRecord
100
AcDbBlockTableRecord
  2
BLOCK1403
340
0
102
{BLKREFS
331
391
102
}
  0
BLOCK_RECORD
  5
D3
330
1
100
AcDbSymbolTableRecord
100
AcDbBlockTableRecord
  2
BLOCK1404
340
0
102
{BLKREFS
331
392
102
}
  0
BLOCK_RECORD
  5
D6
330
1
100
AcDbSymbolTableRecord
100
AcDbBlockTableRecord
  2
BLOCK1405
340
0
102
{BLKREFS
331
393
102
}
  0
BLOCK_RECORD
  5
D9
330
1
100
AcDbSymbolTableRecord
100
AcDbBlockTableRecord
  2
BLOCK1406
340
0
102
{BLKREFS
331
394
102
}
  0
BLOCK_RECORD
  5
DC
330
1
100
AcDbSymbolTableRecord
100
AcDbBlockTableRecord
  2
BLOCK1407
340
0
102
{BLKREFS
331
395
102
}
  0
BLOCK_RECORD
  5
DF
330
1
100
AcDbSymbolTableRecord
100
AcDbBlockTableRecord
  2
BLOCK1408
340
0
102
{BLKREFS
331
396
102
}
  0
BLOCK_RECORD
  5
E2
330
1
100
AcDbSymbolTableRecord
100
AcDbBlockTableRecord
  2
BLOCK1409
340
0
102
{BLKREFS
331
397
102
}
  0
BLOCK_RECORD
  5
E5
330
1
100
AcDbSymbolTableRecord
100
AcDbBlockTableRecord
  2
BLOCK1410
340
0
102
{BLKREFS
331
398
102
}
  0
BLOCK_RECORD
  5
E8
330
1
100
AcDbSymbolTableRecord
100
AcDbBlockTableRecord
  2
BLOCK1411
340
0
102
{BLKREFS
331
399
102
}
  0
BLOCK_RECORD
  5
EB
330
1
100
AcDbSymbolTableRecord
100
AcDbBlockTableRecord
  2
BLOCK1412
340
0
102
{BLKREFS
331
39A
102
}
  0
BLOCK_RECORD
  5
EE
330
1
100
AcDbSymbolTableRecord
100
AcDbBlockTableRecord
  2
BLOCK1413
340
0
102
{BLKREFS
331
39B
102
}
  0
BLOCK_RECORD
  5
F1
330
1
100
AcDbSymbolTableRecord
100
AcDbBlockTableRecord
  2
BLOCK1414
340
0
102
{BLKREFS
331
39C
102
}
  0
BLOCK_RECORD
  5
F4
330
1
100
AcDbSymbolTableRecord
100
AcDbBlockTableRecord
  2
BLOCK1415
340
0
102
{BLKREFS
331
39D
102
}
  0
BLOCK_RECORD
  5
F7
330
1
100
AcDbSymbolTableRecord
100
AcDbBlockTableRecord
  2
BLOCK1416
340
0
102
{BLKREFS
331
39E
102
}
  0
BLOCK_RECORD
  5
FA
330
1
100
AcDbSymbolTableRecord
100
AcDbBlockTableRecord
  2
BLOCK1417
340
0
102
{BLKREFS
331
39F
102
}
  0
BLOCK_RECORD
  5
FD
330
1
100
AcDbSymbolTableRecord
100
AcDbBlockTableRecord
  2
BLOCK1418
340
0
102
{BLKREFS
331
3A0
102
}
  0
BLOCK_RECORD
  5
100
330
1
100
AcDbSymbolTableRecord
100
AcDbBlockTableRecord
  2
BLOCK1419
340
0
102
{BLKREFS
331
3A1
102
}
  0
BLOCK_RECORD
  5
103
330
1
100
AcDbSymbolTableRecord
100
AcDbBlockTableRecord
  2
BLOCK1420
340
0
102
{BLKREFS
331
3A2
102
}
  0
BLOCK_RECORD
  5
106
330
1
100
AcDbSymbolTableRecord
100
AcDbBlockTableRecord
  2
BLOCK1421
340
0
102
{BLKREFS
331
3A3
102
}
  0
BLOCK_RECORD
  5
109
330
1
100
AcDbSymbolTableRecord
100
AcDbBlockTableRecord
  2
BLOCK1422
340
0
102
{BLKREFS
331
3A4
102
}
  0
BLOCK_RECORD
  5
10C
330
1
100
AcDbSymbolTableRecord
100
AcDbBlockTableRecord
  2
BLOCK1423
340
0
102
{BLKREFS
331
3A5
102
}
  0
BLOCK_RECORD
  5
10F
330
1
100
AcDbSymbolTableRecord
100
AcDbBlockTableRecord
  2
BLOCK1424
340
0
102
{BLKREFS
331
3A6
102
}
  0
BLOCK_RECORD
  5
112
330
1
100
AcDbSymbolTableRecord
100
AcDbBlockTableRecord
  2
BLOCK1425
340
0
102
{BLKREFS
331
3A7
102
}
  0
BLOCK_RECORD
  5
115
330
1
100
AcDbSymbolTableRecord
100
AcDbBlockTableRecord
  2
BLOCK1426
340
0
102
{BLKREFS
331
3A8
102
}
  0
BLOCK_RECORD
  5
118
330
1
100
AcDbSymbolTableRecord
100
AcDbBlockTableRecord
  2
BLOCK1427
340
0
102
{BLKREFS
331
3A9
102
}
  0
BLOCK_RECORD
  5
11B
330
1
100
AcDbSymbolTableRecord
100
AcDbBlockTableRecord
  2
BLOCK1428
340
0
102
{BLKREFS
331
3AA
102
}
  0
BLOCK_RECORD
  5
11E
330
1
100
AcDbSymbolTableRecord
100
AcDbBlockTableRecord
  2
BLOCK1429
340
0
102
{BLKREFS
331
3AB
102
}
  0
BLOCK_RECORD
  5
121
330
1
100
AcDbSymbolTableRecord
100
AcDbBlockTableRecord
  2
*D60
340
0
  0
BLOCK_RECORD
  5
124
330
1
100
AcDbSymbolTableRecord
100
AcDbBlockTableRecord
  2
BLOCK1430
340
0
102
{BLKREFS
331
3F6
102
}
  0
BLOCK_RECORD
  5
127
330
1
100
AcDbSymbolTableRecord
100
AcDbBlockTableRecord
  2
BLOCK1431
340
0
102
{BLKREFS
331
3F7
102
}
  0
BLOCK_RECORD
  5
12A
330
1
100
AcDbSymbolTableRecord
100
AcDbBlockTableRecord
  2
BLOCK1432
340
0
102
{BLKREFS
331
3F8
102
}
  0
BLOCK_RECORD
  5
12D
330
1
100
AcDbSymbolTableRecord
100
AcDbBlockTableRecord
  2
BLOCK1433
340
0
102
{BLKREFS
331
3F9
102
}
  0
BLOCK_RECORD
  5
130
330
1
100
AcDbSymbolTableRecord
100
AcDbBlockTableRecord
  2
BLOCK1434
340
0
102
{BLKREFS
331
3FA
102
}
  0
BLOCK_RECORD
  5
133
330
1
100
AcDbSymbolTableRecord
100
AcDbBlockTableRecord
  2
*D66
340
0
  0
BLOCK_RECORD
  5
136
330
1
100
AcDbSymbolTableRecord
100
AcDbBlockTableRecord
  2
*D67
340
0
  0
BLOCK_RECORD
  5
139
330
1
100
AcDbSymbolTableRecord
100
AcDbBlockTableRecord
  2
*D68
340
0
  0
BLOCK_RECORD
  5
13C
330
1
100
AcDbSymbolTableRecord
100
AcDbBlockTableRecord
  2
*D69
340
0
  0
BLOCK_RECORD
  5
13F
330
1
100
AcDbSymbolTableRecord
100
AcDbBlockTableRecord
  2
*D70
340
0
  0
BLOCK_RECORD
  5
142
330
1
100
AcDbSymbolTableRecord
100
AcDbBlockTableRecord
  2
*D71
340
0
  0
BLOCK_RECORD
  5
145
330
1
100
AcDbSymbolTableRecord
100
AcDbBlockTableRecord
  2
BLOCK1435
340
0
102
{BLKREFS
331
405
102
}
  0
BLOCK_RECORD
  5
148
330
1
100
AcDbSymbolTableRecord
100
AcDbBlockTableRecord
  2
BLOCK1436
340
0
102
{BLKREFS
331
407
102
}
  0
BLOCK_RECORD
  5
14B
330
1
100
AcDbSymbolTableRecord
100
AcDbBlockTableRecord
  2
BLOCK1437
340
0
102
{BLKREFS
331
408
102
}
  0
BLOCK_RECORD
  5
14E
330
1
100
AcDbSymbolTableRecord
100
AcDbBlockTableRecord
  2
*D75
340
0
  0
BLOCK_RECORD
  5
151
330
1
100
AcDbSymbolTableRecord
100
AcDbBlockTableRecord
  2
*D76
340
0
  0
BLOCK_RECORD
  5
154
330
1
100
AcDbSymbolTableRecord
100
AcDbBlockTableRecord
  2
*D77
340
0
  0
BLOCK_RECORD
  5
157
330
1
100
AcDbSymbolTableRecord
100
AcDbBlockTableRecord
  2
*D78
340
0
  0
BLOCK_RECORD
  5
15A
330
1
100
AcDbSymbolTableRecord
100
AcDbBlockTableRecord
  2
*D79
340
0
  0
BLOCK_RECORD
  5
15D
330
1
100
AcDbSymbolTableRecord
100
AcDbBlockTableRecord
  2
*D80
340
0
  0
BLOCK_RECORD
  5
160
330
1
100
AcDbSymbolTableRecord
100
AcDbBlockTableRecord
  2
BLOCK1438
340
0
102
{BLKREFS
331
416
102
}
  0
BLOCK_RECORD
  5
163
330
1
100
AcDbSymbolTableRecord
100
AcDbBlockTableRecord
  2
BLOCK1439
340
0
102
{BLKREFS
331
417
102
}
  0
BLOCK_RECORD
  5
166
330
1
100
AcDbSymbolTableRecord
100
AcDbBlockTableRecord
  2
BLOCK1440
340
0
102
{BLKREFS
331
418
102
}
  0
ENDTAB
  0
ENDSEC
  0
SECTION
  2
BLOCKS
  0
BLOCK
  5
20
330
1F
100
AcDbEntity
  8
0
100
AcDbBlockBegin
  2
*Model_Space
 70
     0
 10
0.0
 20
0.0
 30
0.0
  3
*Model_Space
  1

  0
ENDBLK
  5
21
330
1F
100
AcDbEntity
  8
0
100
AcDbBlockEnd
  0
BLOCK
  5
1C
330
1B
100
AcDbEntity
 67
     1
  8
0
100
AcDbBlockBegin
  2
*Paper_Space
 70
     0
 10
0.0
 20
0.0
 30
0.0
  3
*Paper_Space
  1

  0
ENDBLK
  5
1D
330
1B
100
AcDbEntity
 67
     1
  8
0
100
AcDbBlockEnd
  0
BLOCK
  5
24
330
23
100
AcDbEntity
  8
0
100
AcDbBlockBegin
  2
*Paper_Space0
 70
     0
 10
0.0
 20
0.0
 30
0.0
  3
*Paper_Space0
  1

  0
ENDBLK
  5
25
330
23
100
AcDbEntity
  8
0
100
AcDbBlockEnd
  0
BLOCK
  5
71
330
70
100
AcDbEntity
  8
0
100
AcDbBlockBegin
  2
BLOCK1371
 70
     0
 10
0.0
 20
0.0
 30
0.0
  3
BLOCK1371
  1

  0
TEXT
  5
169
330
70
100
AcDbEntity
  8
0
 62
     7
370
    18
100
AcDbText
 10
392.176208
 20
3.076224
 30
0.0
 40
3.5
  1
A
 41
1.110901
 72
     5
 11
395.323761
 21
3.076224
 31
0.0
100
AcDbText
  0
ENDBLK
  5
72
330
70
100
AcDbEntity
  8
0
100
AcDbBlockEnd
  0
BLOCK
  5
74
330
73
100
AcDbEntity
  8
0
100
AcDbBlockBegin
  2
BLOCK1372
 70
     0
 10
0.0
 20
0.0
 30
0.0
  3
BLOCK1372
  1

  0
TEXT
  5
16A
330
73
100
AcDbEntity
  8
0
 62
     7
370
    18
100
AcDbText
 10
24.85
 20
3.076224
 30
0.0
 40
3.5
  1
H
 41
0.933334
 72
     5
 11
27.650002
 21
3.076224
 31
0.0
100
AcDbText
  0
ENDBLK
  5
75
330
73
100
AcDbEntity
  8
0
100
AcDbBlockEnd
  0
BLOCK
  5
77
330
76
100
AcDbEntity
  8
0
100
AcDbBlockBegin
  2
BLOCK1373
 70
     0
 10
0.0
 20
0.0
 30
0.0
  3
BLOCK1373
  1

  0
TEXT
  5
16B
330
76
100
AcDbEntity
  8
0
 62
     7
370
    18
100
AcDbText
 10
339.850006
 20
3.076224
 30
0.0
 40
3.5
  1
B
 41
0.933329
 72
     5
 11
342.649994
 21
3.076224
 31
0.0
100
AcDbText
  0
ENDBLK
  5
78
330
76
100
AcDbEntity
  8
0
100
AcDbBlockEnd
  0
BLOCK
  5
7A
330
79
100
AcDbEntity
  8
0
100
AcDbBlockBegin
  2
BLOCK1374
 70
     0
 10
0.0
 20
0.0
 30
0.0
  3
BLOCK1374
  1

  0
TEXT
  5
16C
330
79
100
AcDbEntity
  8
0
 62
     7
370
    18
100
AcDbText
 10
77.349998
 20
3.076224
 30
0.0
 40
3.5
  1
G
 41
0.933334
 72
     5
 11
80.150002
 21
3.076224
 31
0.0
100
AcDbText
  0
ENDBLK
  5
7B
330
79
100
AcDbEntity
  8
0
100
AcDbBlockEnd
  0
BLOCK
  5
7D
330
7C
100
AcDbEntity
  8
0
100
AcDbBlockBegin
  2
BLOCK1375
 70
     0
 10
0.0
 20
0.0
 30
0.0
  3
BLOCK1375
  1

  0
TEXT
  5
16D
330
7C
100
AcDbEntity
  8
0
 62
     7
370
    18
100
AcDbText
 10
238.173782
 20
290.600006
 30
0.0
 40
3.5
  1
D
 50
90.0
 41
0.933329
 72
     5
 11
238.173782
 21
293.399994
 31
0.0
100
AcDbText
  0
ENDBLK
  5
7E
330
7C
100
AcDbEntity
  8
0
100
AcDbBlockEnd
  0
BLOCK
  5
80
330
7F
100
AcDbEntity
  8
0
100
AcDbBlockBegin
  2
BLOCK1376
 70
     0
 10
0.0
 20
0.0
 30
0.0
  3
BLOCK1376
  1

  0
TEXT
  5
16E
330
7F
100
AcDbEntity
  8
0
 62
     7
370
    18
100
AcDbText
 10
185.673782
 20
290.776215
 30
0.0
 40
3.5
  1
E
 50
90.0
 41
0.863838
 72
     5
 11
185.673782
 21
293.223755
 31
0.0
100
AcDbText
  0
ENDBLK
  5
81
330
7F
100
AcDbEntity
  8
0
100
AcDbBlockEnd
  0
BLOCK
  5
83
330
82
100
AcDbEntity
  8
0
100
AcDbBlockBegin
  2
BLOCK1377
 70
     0
 10
0.0
 20
0.0
 30
0.0
  3
BLOCK1377
  1

  0
TEXT
  5
16F
330
82
100
AcDbEntity
  8
0
 62
     7
370
    18
100
AcDbText
 10
290.673767
 20
290.776215
 30
0.0
 40
3.5
  1
C
 50
90.0
 41
0.815847
 72
     5
 11
290.673767
 21
293.223755
 31
0.0
100
AcDbText
  0
ENDBLK
  5
84
330
82
100
AcDbEntity
  8
0
100
AcDbBlockEnd
  0
BLOCK
  5
86
330
85
100
AcDbEntity
  8
0
100
AcDbBlockBegin
  2
BLOCK1378
 70
     0
 10
0.0
 20
0.0
 30
0.0
  3
BLOCK1378
  1

  0
TEXT
  5
170
330
85
100
AcDbEntity
  8
0
 62
     7
370
    18
100
AcDbText
 10
133.173782
 20
290.776215
 30
0.0
 40
3.5
  1
F
 50
90.0
 41
0.863838
 72
     5
 11
133.173782
 21
293.223755
 31
0.0
100
AcDbText
  0
ENDBLK
  5
87
330
85
100
AcDbEntity
  8
0
100
AcDbBlockEnd
  0
BLOCK
  5
89
330
88
100
AcDbEntity
  8
0
100
AcDbBlockBegin
  2
BLOCK1379
 70
     0
 10
0.0
 20
0.0
 30
0.0
  3
BLOCK1379
  1

  0
TEXT
  5
171
330
88
100
AcDbEntity
  8
0
 62
     7
370
    18
100
AcDbText
 10
343.173767
 20
290.600006
 30
0.0
 40
3.5
  1
B
 50
90.0
 41
0.933329
 72
     5
 11
343.173767
 21
293.399994
 31
0.0
100
AcDbText
  0
ENDBLK
  5
8A
330
88
100
AcDbEntity
  8
0
100
AcDbBlockEnd
  0
BLOCK
  5
8C
330
8B
100
AcDbEntity
  8
0
100
AcDbBlockBegin
  2
BLOCK1380
 70
     0
 10
0.0
 20
0.0
 30
0.0
  3
BLOCK1380
  1

  0
TEXT
  5
172
330
8B
100
AcDbEntity
  8
0
 62
     7
370
    18
100
AcDbText
 10
80.673775
 20
290.600006
 30
0.0
 40
3.5
  1
G
 50
90.0
 41
0.933329
 72
     5
 11
80.673775
 21
293.399994
 31
0.0
100
AcDbText
  0
ENDBLK
  5
8D
330
8B
100
AcDbEntity
  8
0
100
AcDbBlockEnd
  0
BLOCK
  5
8F
330
8E
100
AcDbEntity
  8
0
100
AcDbBlockBegin
  2
BLOCK1381
 70
     0
 10
0.0
 20
0.0
 30
0.0
  3
BLOCK1381
  1

  0
TEXT
  5
173
330
8E
100
AcDbEntity
  8
0
 62
     7
370
    18
100
AcDbText
 10
395.673767
 20
290.426208
 30
0.0
 40
3.5
  1
A
 50
90.0
 41
1.110901
 72
     5
 11
395.673767
 21
293.573761
 31
0.0
100
AcDbText
  0
ENDBLK
  5
90
330
8E
100
AcDbEntity
  8
0
100
AcDbBlockEnd
  0
BLOCK
  5
92
330
91
100
AcDbEntity
  8
0
100
AcDbBlockBegin
  2
BLOCK1382
 70
     0
 10
0.0
 20
0.0
 30
0.0
  3
BLOCK1382
  1

  0
TEXT
  5
174
330
91
100
AcDbEntity
  8
0
 62
     7
370
    18
100
AcDbText
 10
28.173777
 20
290.600006
 30
0.0
 40
3.5
  1
H
 50
90.0
 41
0.933329
 72
     5
 11
28.173777
 21
293.399994
 31
0.0
100
AcDbText
  0
ENDBLK
  5
93
330
91
100
AcDbEntity
  8
0
100
AcDbBlockEnd
  0
BLOCK
  5
95
330
94
100
AcDbEntity
  8
0
100
AcDbBlockBegin
  2
BLOCK1383
 70
     0
 10
0.0
 20
0.0
 30
0.0
  3
BLOCK1383
  1

  0
TEXT
  5
175
330
94
100
AcDbEntity
  8
0
 62
     7
370
    18
100
AcDbText
 10
413.776215
 20
183.676224
 30
0.0
 40
3.5
  1
3
 41
0.863838
 72
     5
 11
416.223755
 21
183.676224
 31
0.0
100
AcDbText
  0
ENDBLK
  5
96
330
94
100
AcDbEntity
  8
0
100
AcDbBlockEnd
  0
BLOCK
  5
98
330
97
100
AcDbEntity
  8
0
100
AcDbBlockBegin
  2
BLOCK1384
 70
     0
 10
0.0
 20
0.0
 30
0.0
  3
BLOCK1384
  1

  0
TEXT
  5
176
330
97
100
AcDbEntity
  8
0
 62
     7
370
    18
100
AcDbText
 10
6.923776
 20
184.376236
 30
0.0
 40
3.5
  1
3
 50
90.0
 41
0.863843
 72
     5
 11
6.923776
 21
186.823792
 31
0.0
100
AcDbText
  0
ENDBLK
  5
99
330
97
100
AcDbEntity
  8
0
100
AcDbBlockEnd
  0
BLOCK
  5
9B
330
9A
100
AcDbEntity
  8
0
100
AcDbBlockBegin
  2
BLOCK1385
 70
     0
 10
0.0
 20
0.0
 30
0.0
  3
BLOCK1385
  1

  0
TEXT
  5
177
330
9A
100
AcDbEntity
  8
0
 62
     7
370
    18
100
AcDbText
 10
413.776215
 20
109.476227
 30
0.0
 40
3.5
  1
2
 41
0.863838
 72
     5
 11
416.223755
 21
109.476227
 31
0.0
100
AcDbText
  0
ENDBLK
  5
9C
330
9A
100
AcDbEntity
  8
0
100
AcDbBlockEnd
  0
BLOCK
  5
9E
330
9D
100
AcDbEntity
  8
0
100
AcDbBlockBegin
  2
BLOCK1386
 70
     0
 10
0.0
 20
0.0
 30
0.0
  3
BLOCK1386
  1

  0
TEXT
  5
178
330
9D
100
AcDbEntity
  8
0
 62
     7
370
    18
100
AcDbText
 10
6.923776
 20
110.176224
 30
0.0
 40
3.5
  1
2
 50
90.0
 41
0.863843
 72
     5
 11
6.923776
 21
112.623779
 31
0.0
100
AcDbText
  0
ENDBLK
  5
9F
330
9D
100
AcDbEntity
  8
0
100
AcDbBlockEnd
  0
BLOCK
  5
A1
330
A0
100
AcDbEntity
  8
0
100
AcDbBlockBegin
  2
BLOCK1387
 70
     0
 10
0.0
 20
0.0
 30
0.0
  3
BLOCK1387
  1

  0
TEXT
  5
179
330
A0
100
AcDbEntity
  8
0
 62
     7
370
    18
100
AcDbText
 10
413.600006
 20
257.876221
 30
0.0
 40
3.5
  1
4
 41
0.933329
 72
     5
 11
416.399994
 21
257.876221
 31
0.0
100
AcDbText
  0
ENDBLK
  5
A2
330
A0
100
AcDbEntity
  8
0
100
AcDbBlockEnd
  0
BLOCK
  5
A4
330
A3
100
AcDbEntity
  8
0
100
AcDbBlockBegin
  2
BLOCK1388
 70
     0
 10
0.0
 20
0.0
 30
0.0
  3
BLOCK1388
  1

  0
TEXT
  5
17A
330
A3
100
AcDbEntity
  8
0
 62
     7
370
    18
100
AcDbText
 10
6.923776
 20
258.399994
 30
0.0
 40
3.5
  1
4
 50
90.0
 41
0.933329
 72
     5
 11
6.923776
 21
261.199982
 31
0.0
100
AcDbText
  0
ENDBLK
  5
A5
330
A3
100
AcDbEntity
  8
0
100
AcDbBlockEnd
  0
BLOCK
  5
A7
330
A6
100
AcDbEntity
  8
0
100
AcDbBlockBegin
  2
BLOCK1389
 70
     0
 10
0.0
 20
0.0
 30
0.0
  3
BLOCK1389
  1

  0
TEXT
  5
17B
330
A6
100
AcDbEntity
  8
0
 62
     7
370
    18
100
AcDbText
 10
414.126221
 20
35.276226
 30
0.0
 40
3.5
  1
1
 41
0.953214
 72
     5
 11
415.873779
 21
35.276226
 31
0.0
100
AcDbText
  0
ENDBLK
  5
A8
330
A6
100
AcDbEntity
  8
0
100
AcDbBlockEnd
  0
BLOCK
  5
AA
330
A9
100
AcDbEntity
  8
0
100
AcDbBlockBegin
  2
BLOCK1390
 70
     0
 10
0.0
 20
0.0
 30
0.0
  3
BLOCK1390
  1

  0
TEXT
  5
17C
330
A9
100
AcDbEntity
  8
0
 62
     7
370
    18
100
AcDbText
 10
6.923776
 20
36.326225
 30
0.0
 40
3.5
  1
1
 50
90.0
 41
0.95321
 72
     5
 11
6.923776
 21
38.073776
 31
0.0
100
AcDbText
  0
ENDBLK
  5
AB
330
A9
100
AcDbEntity
  8
0
100
AcDbBlockEnd
  0
BLOCK
  5
AD
330
AC
100
AcDbEntity
  8
0
100
AcDbBlockBegin
  2
BLOCK1391
 70
     0
 10
0.0
 20
0.0
 30
0.0
  3
BLOCK1391
  1

  0
TEXT
  5
17D
330
AC
100
AcDbEntity
  8
0
 62
     7
370
    18
100
AcDbText
 10
221.0
 20
11.175525
 30
0.0
 40
1.5
  1
This drawing is our property; it can't be reproduced or communicated without our written agreement.
 41
0.779092
 72
     5
 11
315.437073
 21
11.175525
 31
0.0
100
AcDbText
  0
ENDBLK
  5
AE
330
AC
100
AcDbEntity
  8
0
100
AcDbBlockEnd
  0
BLOCK
  5
B0
330
AF
100
AcDbEntity
  8
0
100
AcDbBlockBegin
  2
BLOCK1392
 70
     0
 10
0.0
 20
0.0
 30
0.0
  3
BLOCK1392
  1

  0
TEXT
  5
17E
330
AF
100
AcDbEntity
  8
0
 62
     7
370
    18
100
AcDbText
 10
221.0
 20
24.751049
 30
0.0
 40
1.5
  1
SCALE
 41
0.857432
 72
     5
 11
226.695801
 21
24.751049
 31
0.0
100
AcDbText
  0
ENDBLK
  5
B1
330
AF
100
AcDbEntity
  8
0
100
AcDbBlockEnd
  0
BLOCK
  5
B3
330
B2
100
AcDbEntity
  8
0
100
AcDbBlockBegin
  2
BLOCK1393
 70
     0
 10
0.0
 20
0.0
 30
0.0
  3
BLOCK1393
  1

  0
TEXT
  5
17F
330
B2
100
AcDbEntity
  8
0
 62
     7
370
    18
100
AcDbText
 10
219.755249
 20
16.0
 30
0.0
 40
5.0
  1
  1:1
 41
0.632
 72
     5
 11
232.244766
 21
16.0
 31
0.0
100
AcDbText
  0
ENDBLK
  5
B4
330
B2
100
AcDbEntity
  8
0
100
AcDbBlockEnd
  0
BLOCK
  5
B6
330
B5
100
AcDbEntity
  8
0
100
AcDbBlockBegin
  2
BLOCK1394
 70
     0
 10
0.0
 20
0.0
 30
0.0
  3
BLOCK1394
  1

  0
TEXT
  5
180
330
B5
100
AcDbEntity
  8
0
 62
     7
370
    18
100
AcDbText
 10
241.0
 20
24.751049
 30
0.0
 40
1.5
  1
WEIGHT (kg)
 41
0.802234
 72
     5
 11
251.944763
 21
24.751049
 31
0.0
100
AcDbText
  0
ENDBLK
  5
B7
330
B5
100
AcDbEntity
  8
0
100
AcDbBlockEnd
  0
BLOCK
  5
B9
330
B8
100
AcDbEntity
  8
0
100
AcDbBlockBegin
  2
BLOCK1395
 70
     0
 10
0.0
 20
0.0
 30
0.0
  3
BLOCK1395
  1

  0
TEXT
  5
181
330
B8
100
AcDbEntity
  8
0
 62
     7
370
    18
100
AcDbText
 10
246.381119
 20
16.0
 30
0.0
 40
5.0
  1
0,07
 41
0.767144
 72
     5
 11
258.618896
 21
16.0
 31
0.0
100
AcDbText
  0
ENDBLK
  5
BA
330
B8
100
AcDbEntity
  8
0
100
AcDbBlockEnd
  0
BLOCK
  5
BC
330
BB
100
AcDbEntity
  8
0
100
AcDbBlockBegin
  2
BLOCK1396
 70
     0
 10
0.0
 20
0.0
 30
0.0
  3
BLOCK1396
  1

  0
TEXT
  5
182
330
BB
100
AcDbEntity
  8
0
 62
     7
370
    18
100
AcDbText
 10
266.0
 20
24.751049
 30
0.0
 40
1.5
  1
MATERIAL
 41
0.899371
 72
     5
 11
274.993713
 21
24.751049
 31
0.0
100
AcDbText
  0
ENDBLK
  5
BD
330
BB
100
AcDbEntity
  8
0
100
AcDbBlockEnd
  0
BLOCK
  5
BF
330
BE
100
AcDbEntity
  8
0
100
AcDbBlockBegin
  2
BLOCK1397
 70
     0
 10
0.0
 20
0.0
 30
0.0
  3
BLOCK1397
  1

  0
TEXT
  5
183
330
BE
100
AcDbEntity
  8
0
 62
     7
370
    18
100
AcDbText
 10
265.433563
 20
15.6
 30
0.0
 40
4.0
  1
Polióxido de Metileno (POM)-POLIACETAL
 41
0.788557
 72
     5
 11
364.566437
 21
15.6
 31
0.0
100
AcDbText
  0
ENDBLK
  5
C0
330
BE
100
AcDbEntity
  8
0
100
AcDbBlockEnd
  0
BLOCK
  5
C2
330
C1
100
AcDbEntity
  8
0
100
AcDbBlockBegin
  2
BLOCK1398
 70
     0
 10
0.0
 20
0.0
 30
0.0
  3
BLOCK1398
  1

  0
TEXT
  5
184
330
C1
100
AcDbEntity
  8
0
 62
     7
370
    18
100
AcDbText
 10
366.0
 20
24.751049
 30
0.0
 40
1.5
  1
SHEET
 41
0.839691
 72
     5
 11
371.697906
 21
24.751049
 31
0.0
100
AcDbText
  0
ENDBLK
  5
C3
330
C1
100
AcDbEntity
  8
0
100
AcDbBlockEnd
  0
BLOCK
  5
C5
330
C4
100
AcDbEntity
  8
0
100
AcDbBlockBegin
  2
BLOCK1399
 70
     0
 10
0.0
 20
0.0
 30
0.0
  3
BLOCK1399
  1

  0
TEXT
  5
185
330
C4
100
AcDbEntity
  8
0
 62
     7
370
    18
100
AcDbText
 10
370.755249
 20
16.0
 30
0.0
 40
5.0
  1
1/1
 41
0.672753
 72
     5
 11
379.244751
 21
16.0
 31
0.0
100
AcDbText
  0
ENDBLK
  5
C6
330
C4
100
AcDbEntity
  8
0
100
AcDbBlockEnd
  0
BLOCK
  5
C8
330
C7
100
AcDbEntity
  8
0
100
AcDbBlockBegin
  2
BLOCK1400
 70
     0
 10
0.0
 20
0.0
 30
0.0
  3
BLOCK1400
  1

  0
TEXT
  5
186
330
C7
100
AcDbEntity
  8
0
 62
     7
370
    18
100
AcDbText
 10
221.0
 20
37.751049
 30
0.0
 40
1.5
  1
SIZE
 41
0.839548
 72
     5
 11
224.897903
 21
37.751049
 31
0.0
100
AcDbText
  0
ENDBLK
  5
C9
330
C7
100
AcDbEntity
  8
0
100
AcDbBlockEnd
  0
BLOCK
  5
CB
330
CA
100
AcDbEntity
  8
0
100
AcDbBlockBegin
  2
BLOCK1401
 70
     0
 10
0.0
 20
0.0
 30
0.0
  3
BLOCK1401
  1

  0
TEXT
  5
187
330
CA
100
AcDbEntity
  8
0
 62
     7
370
    18
100
AcDbText
 10
226.003494
 20
31.0
 30
0.0
 40
5.0
  1
A3
 41
0.959161
 72
     5
 11
233.996506
 21
31.0
 31
0.0
100
AcDbText
  0
ENDBLK
  5
CC
330
CA
100
AcDbEntity
  8
0
100
AcDbBlockEnd
  0
BLOCK
  5
CE
330
CD
100
AcDbEntity
  8
0
100
AcDbBlockBegin
  2
BLOCK1402
 70
     0
 10
0.0
 20
0.0
 30
0.0
  3
BLOCK1402
  1

  0
TEXT
  5
188
330
CD
100
AcDbEntity
  8
0
 62
     7
370
    18
100
AcDbText
 10
300.510498
 20
30.751749
 30
0.0
 40
5.0
  1
OXYGEN BRASIL
 41
0.832841
 72
     5
 11
349.489502
 21
30.751749
 31
0.0
100
AcDbText
  0
ENDBLK
  5
CF
330
CD
100
AcDbEntity
  8
0
100
AcDbBlockEnd
  0
BLOCK
  5
D1
330
D0
100
AcDbEntity
  8
0
100
AcDbBlockBegin
  2
BLOCK1403
 70
     0
 10
0.0
 20
0.0
 30
0.0
  3
BLOCK1403
  1

  0
TEXT
  5
189
330
D0
100
AcDbEntity
  8
0
 62
     7
370
    18
100
AcDbText
 10
221.0
 20
52.751049
 30
0.0
 40
1.5
  1
CHECKED BY:
 41
0.779581
 72
     5
 11
232.69371
 21
52.751049
 31
0.0
100
AcDbText
  0
ENDBLK
  5
D2
330
D0
100
AcDbEntity
  8
0
100
AcDbBlockEnd
  0
BLOCK
  5
D4
330
D3
100
AcDbEntity
  8
0
100
AcDbBlockBegin
  2
BLOCK1404
 70
     0
 10
0.0
 20
0.0
 30
0.0
  3
BLOCK1404
  1

  0
TEXT
  5
18A
330
D3
100
AcDbEntity
  8
0
 62
     7
370
    18
100
AcDbText
 10
238.45314
 20
48.700001
 30
0.0
 40
3.0
  1
XXX
 41
0.993964
 72
     5
 11
246.546844
 21
48.700001
 31
0.0
100
AcDbText
  0
ENDBLK
  5
D5
330
D3
100
AcDbEntity
  8
0
100
AcDbBlockEnd
  0
BLOCK
  5
D7
330
D6
100
AcDbEntity
  8
0
100
AcDbBlockBegin
  2
BLOCK1405
 70
     0
 10
0.0
 20
0.0
 30
0.0
  3
BLOCK1405
  1

  0
TEXT
  5
18B
330
D6
100
AcDbEntity
  8
0
 62
     7
370
    18
100
AcDbText
 10
221.0
 20
45.251049
 30
0.0
 40
1.5
  1
DATE:
 41
0.9182
 72
     5
 11
226.246857
 21
45.251049
 31
0.0
100
AcDbText
  0
ENDBLK
  5
D8
330
D6
100
AcDbEntity
  8
0
100
AcDbBlockEnd
  0
BLOCK
  5
DA
330
D9
100
AcDbEntity
  8
0
100
AcDbBlockBegin
  2
BLOCK1406
 70
     0
 10
0.0
 20
0.0
 30
0.0
  3
BLOCK1406
  1

  0
TEXT
  5
18C
330
D9
100
AcDbEntity
  8
0
 62
     7
370
    18
100
AcDbText
 10
238.45314
 20
41.200001
 30
0.0
 40
3.0
  1
XXX
 41
0.993964
 72
     5
 11
246.546844
 21
41.200001
 31
0.0
100
AcDbText
  0
ENDBLK
  5
DB
330
D9
100
AcDbEntity
  8
0
100
AcDbBlockEnd
  0
BLOCK
  5
DD
330
DC
100
AcDbEntity
  8
0
100
AcDbBlockBegin
  2
BLOCK1407
 70
     0
 10
0.0
 20
0.0
 30
0.0
  3
BLOCK1407
  1

  0
TEXT
  5
18D
330
DC
100
AcDbEntity
  8
0
 62
     7
370
    18
100
AcDbText
 10
221.0
 20
67.751053
 30
0.0
 40
1.5
  1
DESIGNED BY:
 41
0.802887
 72
     5
 11
233.444748
 21
67.751053
 31
0.0
100
AcDbText
  0
ENDBLK
  5
DE
330
DC
100
AcDbEntity
  8
0
100
AcDbBlockEnd
  0
BLOCK
  5
E0
330
DF
100
AcDbEntity
  8
0
100
AcDbBlockBegin
  2
BLOCK1408
 70
     0
 10
0.0
 20
0.0
 30
0.0
  3
BLOCK1408
  1

  0
TEXT
  5
18E
330
DF
100
AcDbEntity
  8
0
 62
     7
370
    18
100
AcDbText
 10
224.80629
 20
63.700001
 30
0.0
 40
3.0
  1
VOLUNT. ANONIMOS
 41
0.817531
 72
     5
 11
260.193695
 21
63.700001
 31
0.0
100
AcDbText
  0
ENDBLK
  5
E1
330
DF
100
AcDbEntity
  8
0
100
AcDbBlockEnd
  0
BLOCK
  5
E3
330
E2
100
AcDbEntity
  8
0
100
AcDbBlockBegin
  2
BLOCK1409
 70
     0
 10
0.0
 20
0.0
 30
0.0
  3
BLOCK1409
  1

  0
TEXT
  5
18F
330
E2
100
AcDbEntity
  8
0
 62
     7
370
    18
100
AcDbText
 10
221.0
 20
60.251049
 30
0.0
 40
1.5
  1
DATE:
 41
0.9182
 72
     5
 11
226.246857
 21
60.251049
 31
0.0
100
AcDbText
  0
ENDBLK
  5
E4
330
E2
100
AcDbEntity
  8
0
100
AcDbBlockEnd
  0
BLOCK
  5
E6
330
E5
100
AcDbEntity
  8
0
100
AcDbBlockBegin
  2
BLOCK1410
 70
     0
 10
0.0
 20
0.0
 30
0.0
  3
BLOCK1410
  1

  0
TEXT
  5
190
330
E5
100
AcDbEntity
  8
0
 62
     7
370
    18
100
AcDbText
 10
231.859436
 20
56.200001
 30
0.0
 40
3.0
  1
09/04/2020
 41
0.741134
 72
     5
 11
253.140564
 21
56.200001
 31
0.0
100
AcDbText
  0
ENDBLK
  5
E7
330
E5
100
AcDbEntity
  8
0
100
AcDbBlockEnd
  0
BLOCK
  5
E9
330
E8
100
AcDbEntity
  8
0
100
AcDbBlockBegin
  2
BLOCK1411
 70
     0
 10
0.0
 20
0.0
 30
0.0
  3
BLOCK1411
  1

  0
TEXT
  5
191
330
E8
100
AcDbEntity
  8
0
 62
     7
370
    18
100
AcDbText
 10
288.967133
 20
51.152447
 30
0.0
 40
7.0
  1
TRAVA DO CAME
 41
0.84452
 72
     5
 11
361.032867
 21
51.152447
 31
0.0
100
AcDbText
  0
ENDBLK
  5
EA
330
E8
100
AcDbEntity
  8
0
100
AcDbBlockEnd
  0
BLOCK
  5
EC
330
EB
100
AcDbEntity
  8
0
100
AcDbBlockBegin
  2
BLOCK1412
 70
     0
 10
0.0
 20
0.0
 30
0.0
  3
BLOCK1412
  1

  0
TEXT
  5
192
330
EB
100
AcDbEntity
  8
0
 62
     7
370
    18
100
AcDbText
 10
386.375885
 20
11.959208
 30
0.0
 40
2.5
  1
A
 41
1.110905
 72
     5
 11
388.624146
 21
11.959208
 31
0.0
100
AcDbText
  0
ENDBLK
  5
ED
330
EB
100
AcDbEntity
  8
0
100
AcDbBlockEnd
  0
BLOCK
  5
EF
330
EE
100
AcDbEntity
  8
0
100
AcDbBlockBegin
  2
BLOCK1413
 70
     0
 10
0.0
 20
0.0
 30
0.0
  3
BLOCK1413
  1

  0
TEXT
  5
193
330
EE
100
AcDbEntity
  8
0
 62
     7
370
    18
100
AcDbText
 10
399.100708
 20
12.234033
 30
0.0
 40
2.0
  1
_
 41
1.180341
 72
     5
 11
400.899323
 21
12.234033
 31
0.0
100
AcDbText
  0
ENDBLK
  5
F0
330
EE
100
AcDbEntity
  8
0
100
AcDbBlockEnd
  0
BLOCK
  5
F2
330
F1
100
AcDbEntity
  8
0
100
AcDbBlockBegin
  2
BLOCK1414
 70
     0
 10
0.0
 20
0.0
 30
0.0
  3
BLOCK1414
  1

  0
TEXT
  5
194
330
F1
100
AcDbEntity
  8
0
 62
     7
370
    18
100
AcDbText
 10
386.5
 20
18.625874
 30
0.0
 40
2.5
  1
B
 41
0.933333
 72
     5
 11
388.5
 21
18.625874
 31
0.0
100
AcDbText
  0
ENDBLK
  5
F3
330
F1
100
AcDbEntity
  8
0
100
AcDbBlockEnd
  0
BLOCK
  5
F5
330
F4
100
AcDbEntity
  8
0
100
AcDbBlockBegin
  2
BLOCK1415
 70
     0
 10
0.0
 20
0.0
 30
0.0
  3
BLOCK1415
  1

  0
TEXT
  5
195
330
F4
100
AcDbEntity
  8
0
 62
     7
370
    18
100
AcDbText
 10
399.100708
 20
18.9007
 30
0.0
 40
2.0
  1
_
 41
1.180341
 72
     5
 11
400.899323
 21
18.9007
 31
0.0
100
AcDbText
  0
ENDBLK
  5
F6
330
F4
100
AcDbEntity
  8
0
100
AcDbBlockEnd
  0
BLOCK
  5
F8
330
F7
100
AcDbEntity
  8
0
100
AcDbBlockBegin
  2
BLOCK1416
 70
     0
 10
0.0
 20
0.0
 30
0.0
  3
BLOCK1416
  1

  0
TEXT
  5
196
330
F7
100
AcDbEntity
  8
0
 62
     7
370
    18
100
AcDbText
 10
386.625885
 20
25.29254
 30
0.0
 40
2.5
  1
C
 41
0.815855
 72
     5
 11
388.374146
 21
25.29254
 31
0.0
100
AcDbText
  0
ENDBLK
  5
F9
330
F7
100
AcDbEntity
  8
0
100
AcDbBlockEnd
  0
BLOCK
  5
FB
330
FA
100
AcDbEntity
  8
0
100
AcDbBlockBegin
  2
BLOCK1417
 70
     0
 10
0.0
 20
0.0
 30
0.0
  3
BLOCK1417
  1

  0
TEXT
  5
197
330
FA
100
AcDbEntity
  8
0
 62
     7
370
    18
100
AcDbText
 10
399.100708
 20
25.567366
 30
0.0
 40
2.0
  1
_
 41
1.180341
 72
     5
 11
400.899323
 21
25.567366
 31
0.0
100
AcDbText
  0
ENDBLK
  5
FC
330
FA
100
AcDbEntity
  8
0
100
AcDbBlockEnd
  0
BLOCK
  5
FE
330
FD
100
AcDbEntity
  8
0
100
AcDbBlockBegin
  2
BLOCK1418
 70
     0
 10
0.0
 20
0.0
 30
0.0
  3
BLOCK1418
  1

  0
TEXT
  5
198
330
FD
100
AcDbEntity
  8
0
 62
     7
370
    18
100
AcDbText
 10
386.5
 20
31.959206
 30
0.0
 40
2.5
  1
D
 41
0.933333
 72
     5
 11
388.5
 21
31.959206
 31
0.0
100
AcDbText
  0
ENDBLK
  5
FF
330
FD
100
AcDbEntity
  8
0
100
AcDbBlockEnd
  0
BLOCK
  5
101
330
100
100
AcDbEntity
  8
0
100
AcDbBlockBegin
  2
BLOCK1419
 70
     0
 10
0.0
 20
0.0
 30
0.0
  3
BLOCK1419
  1

  0
TEXT
  5
199
330
100
100
AcDbEntity
  8
0
 62
     7
370
    18
100
AcDbText
 10
399.100708
 20
32.234032
 30
0.0
 40
2.0
  1
_
 41
1.180341
 72
     5
 11
400.899323
 21
32.234032
 31
0.0
100
AcDbText
  0
ENDBLK
  5
102
330
100
100
AcDbEntity
  8
0
100
AcDbBlockEnd
  0
BLOCK
  5
104
330
103
100
AcDbEntity
  8
0
100
AcDbBlockBegin
  2
BLOCK1420
 70
     0
 10
0.0
 20
0.0
 30
0.0
  3
BLOCK1420
  1

  0
TEXT
  5
19A
330
103
100
AcDbEntity
  8
0
 62
     7
370
    18
100
AcDbText
 10
386.625885
 20
38.625874
 30
0.0
 40
2.5
  1
E
 41
0.863846
 72
     5
 11
388.374146
 21
38.625874
 31
0.0
100
AcDbText
  0
ENDBLK
  5
105
330
103
100
AcDbEntity
  8
0
100
AcDbBlockEnd
  0
BLOCK
  5
107
330
106
100
AcDbEntity
  8
0
100
AcDbBlockBegin
  2
BLOCK1421
 70
     0
 10
0.0
 20
0.0
 30
0.0
  3
BLOCK1421
  1

  0
TEXT
  5
19B
330
106
100
AcDbEntity
  8
0
 62
     7
370
    18
100
AcDbText
 10
399.100708
 20
38.9007
 30
0.0
 40
2.0
  1
_
 41
1.180341
 72
     5
 11
400.899323
 21
38.9007
 31
0.0
100
AcDbText
  0
ENDBLK
  5
108
330
106
100
AcDbEntity
  8
0
100
AcDbBlockEnd
  0
BLOCK
  5
10A
330
109
100
AcDbEntity
  8
0
100
AcDbBlockBegin
  2
BLOCK1422
 70
     0
 10
0.0
 20
0.0
 30
0.0
  3
BLOCK1422
  1

  0
TEXT
  5
19C
330
109
100
AcDbEntity
  8
0
 62
     7
370
    18
100
AcDbText
 10
386.625885
 20
45.292542
 30
0.0
 40
2.5
  1
F
 41
0.863846
 72
     5
 11
388.374146
 21
45.292542
 31
0.0
100
AcDbText
  0
ENDBLK
  5
10B
330
109
100
AcDbEntity
  8
0
100
AcDbBlockEnd
  0
BLOCK
  5
10D
330
10C
100
AcDbEntity
  8
0
100
AcDbBlockBegin
  2
BLOCK1423
 70
     0
 10
0.0
 20
0.0
 30
0.0
  3
BLOCK1423
  1

  0
TEXT
  5
19D
330
10C
100
AcDbEntity
  8
0
 62
     7
370
    18
100
AcDbText
 10
399.100708
 20
45.567368
 30
0.0
 40
2.0
  1
_
 41
1.180341
 72
     5
 11
400.899323
 21
45.567368
 31
0.0
100
AcDbText
  0
ENDBLK
  5
10E
330
10C
100
AcDbEntity
  8
0
100
AcDbBlockEnd
  0
BLOCK
  5
110
330
10F
100
AcDbEntity
  8
0
100
AcDbBlockBegin
  2
BLOCK1424
 70
     0
 10
0.0
 20
0.0
 30
0.0
  3
BLOCK1424
  1

  0
TEXT
  5
19E
330
10F
100
AcDbEntity
  8
0
 62
     7
370
    18
100
AcDbText
 10
386.5
 20
51.959206
 30
0.0
 40
2.5
  1
G
 41
0.933333
 72
     5
 11
388.5
 21
51.959206
 31
0.0
100
AcDbText
  0
ENDBLK
  5
111
330
10F
100
AcDbEntity
  8
0
100
AcDbBlockEnd
  0
BLOCK
  5
113
330
112
100
AcDbEntity
  8
0
100
AcDbBlockBegin
  2
BLOCK1425
 70
     0
 10
0.0
 20
0.0
 30
0.0
  3
BLOCK1425
  1

  0
TEXT
  5
19F
330
112
100
AcDbEntity
  8
0
 62
     7
370
    18
100
AcDbText
 10
399.100708
 20
52.234032
 30
0.0
 40
2.0
  1
_
 41
1.180341
 72
     5
 11
400.899323
 21
52.234032
 31
0.0
100
AcDbText
  0
ENDBLK
  5
114
330
112
100
AcDbEntity
  8
0
100
AcDbBlockEnd
  0
BLOCK
  5
116
330
115
100
AcDbEntity
  8
0
100
AcDbBlockBegin
  2
BLOCK1426
 70
     0
 10
0.0
 20
0.0
 30
0.0
  3
BLOCK1426
  1

  0
TEXT
  5
1A0
330
115
100
AcDbEntity
  8
0
 62
     7
370
    18
100
AcDbText
 10
386.5
 20
58.625874
 30
0.0
 40
2.5
  1
H
 41
0.933333
 72
     5
 11
388.5
 21
58.625874
 31
0.0
100
AcDbText
  0
ENDBLK
  5
117
330
115
100
AcDbEntity
  8
0
100
AcDbBlockEnd
  0
BLOCK
  5
119
330
118
100
AcDbEntity
  8
0
100
AcDbBlockBegin
  2
BLOCK1427
 70
     0
 10
0.0
 20
0.0
 30
0.0
  3
BLOCK1427
  1

  0
TEXT
  5
1A1
330
118
100
AcDbEntity
  8
0
 62
     7
370
    18
100
AcDbText
 10
399.100708
 20
58.9007
 30
0.0
 40
2.0
  1
_
 41
1.180341
 72
     5
 11
400.899323
 21
58.9007
 31
0.0
100
AcDbText
  0
ENDBLK
  5
11A
330
118
100
AcDbEntity
  8
0
100
AcDbBlockEnd
  0
BLOCK
  5
11C
330
11B
100
AcDbEntity
  8
0
100
AcDbBlockBegin
  2
BLOCK1428
 70
     0
 10
0.0
 20
0.0
 30
0.0
  3
BLOCK1428
  1

  0
TEXT
  5
1A2
330
11B
100
AcDbEntity
  8
0
 62
     7
370
    18
100
AcDbText
 10
387.125885
 20
65.292542
 30
0.0
 40
2.5
  1
I
 41
1.571347
 72
     5
 11
387.874146
 21
65.292542
 31
0.0
100
AcDbText
  0
ENDBLK
  5
11D
330
11B
100
AcDbEntity
  8
0
100
AcDbBlockEnd
  0
BLOCK
  5
11F
330
11E
100
AcDbEntity
  8
0
100
AcDbBlockBegin
  2
BLOCK1429
 70
     0
 10
0.0
 20
0.0
 30
0.0
  3
BLOCK1429
  1

  0
TEXT
  5
1A3
330
11E
100
AcDbEntity
  8
0
 62
     7
370
    18
100
AcDbText
 10
399.100708
 20
65.56736
 30
0.0
 40
2.0
  1
_
 41
1.180341
 72
     5
 11
400.899323
 21
65.56736
 31
0.0
100
AcDbText
  0
ENDBLK
  5
120
330
11E
100
AcDbEntity
  8
0
100
AcDbBlockEnd
  0
BLOCK
  5
122
330
121
100
AcDbEntity
  8
0
100
AcDbBlockBegin
  2
*D60
 70
     1
 10
0.0
 20
0.0
 30
0.0
  3
*D60
  1

  0
SOLID
  5
1A4
330
121
100
AcDbEntity
  8
0
 62
     7
370
    18
100
AcDbTrace
 10
83.466825
 20
205.153511
 30
0.0
 11
81.319456
 21
207.248452
 31
0.0
 12
83.466825
 22
205.153511
 32
0.0
 13
82.131659
 23
204.360482
 33
0.0
  0
SOLID
  5
1A5
330
121
100
AcDbEntity
  8
0
 62
     7
370
    18
100
AcDbTrace
 10
53.63896
 20
252.332467
 30
0.0
 11
55.786329
 21
250.237526
 31
0.0
 12
53.63896
 22
252.332467
 32
0.0
 13
54.974127
 23
253.125481
 33
0.0
  0
TEXT
  5
1A6
330
121
100
AcDbEntity
  8
0
 62
     7
370
    18
100
AcDbText
 10
31.4699
 20
267.508568
 30
0.0
 40
3.5
  1
50
 41
0.793802
 72
     5
 11
36.365011
 21
267.508568
 31
0.0
100
AcDbText
  0
TEXT
  5
1A7
330
121
100
AcDbEntity
  8
0
 62
     7
370
    18
100
AcDbText
 10
38.115011
 20
267.508568
 30
0.0
 40
3.5
  1
%%p1
 41
0.680286
 72
     5
 11
42.31011
 21
267.508568
 31
0.0
100
AcDbText
  0
TEXT
  5
1A8
330
121
100
AcDbEntity
  8
0
 62
     7
370
    18
100
AcDbText
 10
27.903234
 20
267.508568
 30
0.0
 40
3.5
  1
%%c
 41
0.905887
 72
     5
 11
30.469915
 21
267.508568
 31
0.0
100
AcDbText
  0
LINE
  5
1A9
330
121
100
AcDbEntity
  8
0
 62
     7
370
    18
100
AcDbLine
 10
47.310118
 20
264.508568
 30
0.0
 11
27.903234
 21
264.508568
 31
0.0
  0
LINE
  5
1AA
330
121
100
AcDbEntity
  8
0
 62
     7
370
    18
100
AcDbLine
 10
47.310118
 20
264.508568
 30
0.0
 11
54.306547
 21
252.728981
 31
0.0
  0
LINE
  5
1AB
330
121
100
AcDbEntity
  8
0
 62
     7
370
    18
100
AcDbLine
 10
55.786329
 20
250.237526
 30
0.0
 11
81.319464
 21
207.248452
 31
0.0
  0
LINE
  5
1AC
330
121
100
AcDbEntity
  8
0
 62
     7
370
    18
100
AcDbLine
 10
82.799253
 20
204.756997
 30
0.0
 11
83.87277
 21
202.949562
 31
0.0
  0
POLYLINE
  5
1AD
330
121
100
AcDbEntity
  8
0
 62
     7
370
    18
100
AcDb2dPolyline
 66
     1
 10
0.0
 20
0.0
 30
0.0
 70
     1
  0
VERTEX
  5
1AE
330
1AD
100
AcDbEntity
  8
0
370
     0
100
AcDbVertex
100
AcDb2dVertex
 10
83.466825
 20
205.153511
 30
0.0
  0
VERTEX
  5
1AF
330
1AD
100
AcDbEntity
  8
0
370
     0
100
AcDbVertex
100
AcDb2dVertex
 10
81.319456
 20
207.248452
 30
0.0
  0
VERTEX
  5
1B0
330
1AD
100
AcDbEntity
  8
0
370
     0
100
AcDbVertex
100
AcDb2dVertex
 10
82.131659
 20
204.360482
 30
0.0
  0
SEQEND
  5
1B1
330
1AD
100
AcDbEntity
  8
0
 62
     7
370
    18
  0
POLYLINE
  5
1B2
330
121
100
AcDbEntity
  8
0
 62
     7
370
    18
100
AcDb2dPolyline
 66
     1
 10
0.0
 20
0.0
 30
0.0
 70
     1
  0
VERTEX
  5
1B3
330
1B2
100
AcDbEntity
  8
0
370
     0
100
AcDbVertex
100
AcDb2dVertex
 10
53.63896
 20
252.332467
 30
0.0
  0
VERTEX
  5
1B4
330
1B2
100
AcDbEntity
  8
0
370
     0
100
AcDbVertex
100
AcDb2dVertex
 10
55.786329
 20
250.237526
 30
0.0
  0
VERTEX
  5
1B5
330
1B2
100
AcDbEntity
  8
0
370
     0
100
AcDbVertex
100
AcDb2dVertex
 10
54.974127
 20
253.125481
 30
0.0
  0
SEQEND
  5
1B6
330
1B2
100
AcDbEntity
  8
0
 62
     7
370
    18
  0
ENDBLK
  5
123
330
121
100
AcDbEntity
  8
0
100
AcDbBlockEnd
  0
BLOCK
  5
125
330
124
100
AcDbEntity
  8
0
100
AcDbBlockBegin
  2
BLOCK1430
 70
     0
 10
0.0
 20
0.0
 30
0.0
  3
BLOCK1430
  1

  0
LINE
  5
1B7
330
124
100
AcDbEntity
  8
0
  6
DASHDOT
 62
     7
370
    18
100
AcDbLine
 10
-69.5
 20
-264.0
 30
0.0
 11
-134.5
 21
-264.0
 31
0.0
  0
LINE
  5
1B8
330
124
100
AcDbEntity
  8
0
  6
DASHDOT
 62
     7
370
    18
100
AcDbLine
 10
-102.0
 20
-231.5
 30
0.0
 11
-102.0
 21
-296.5
 31
0.0
  0
ENDBLK
  5
126
330
124
100
AcDbEntity
  8
0
100
AcDbBlockEnd
  0
BLOCK
  5
128
330
127
100
AcDbEntity
  8
0
100
AcDbBlockBegin
  2
BLOCK1431
 70
     0
 10
0.0
 20
0.0
 30
0.0
  3
BLOCK1431
  1

  0
CIRCLE
  5
1B9
330
127
100
AcDbEntity
  8
0
 62
     7
370
    35
100
AcDbCircle
 10
-102.0
 20
-264.0
 30
0.0
 40
25.0
  0
CIRCLE
  5
1BA
330
127
100
AcDbEntity
  8
0
 62
     7
370
    35
100
AcDbCircle
 10
-102.0
 20
-264.0
 30
0.0
 40
21.5
  0
CIRCLE
  5
1BB
330
127
100
AcDbEntity
  8
0
 62
     7
370
    35
100
AcDbCircle
 10
-102.0
 20
-264.0
 30
0.0
 40
14.5
  0
CIRCLE
  5
1BC
330
127
100
AcDbEntity
  8
0
 62
     7
370
    35
100
AcDbCircle
 10
-102.0
 20
-264.0
 30
0.0
 40
8.1
  0
ENDBLK
  5
129
330
127
100
AcDbEntity
  8
0
100
AcDbBlockEnd
  0
BLOCK
  5
12B
330
12A
100
AcDbEntity
  8
0
100
AcDbBlockBegin
  2
BLOCK1432
 70
     0
 10
0.0
 20
0.0
 30
0.0
  3
BLOCK1432
  1

  0
TEXT
  5
1BD
330
12A
100
AcDbEntity
  8
0
 62
     7
370
    18
100
AcDbText
 10
-80.0
 20
211.399994
 30
0.0
 40
3.5
  1
Isometric view
 41
0.802014
 72
     5
 11
-49.924477
 21
211.399994
 31
0.0
100
AcDbText
  0
ENDBLK
  5
12C
330
12A
100
AcDbEntity
  8
0
100
AcDbBlockEnd
  0
BLOCK
  5
12E
330
12D
100
AcDbEntity
  8
0
100
AcDbBlockBegin
  2
BLOCK1433
 70
     0
 10
0.0
 20
0.0
 30
0.0
  3
BLOCK1433
  1

  0
ELLIPSE
  5
1BE
330
12D
100
AcDbEntity
  8
0
 62
     7
370
    35
100
AcDbEllipse
 10
-91.923882
 20
245.765472
 30
0.0
 11
6.400000095367431
 21
-11.08512496948242
 31
0.0
210
0.0
220
0.0
230
1.0
 40
0.57735
 41
0.0
 42
2.356194490192359
  0
ELLIPSE
  5
1BF
330
12D
100
AcDbEntity
  8
0
 62
     7
370
    35
100
AcDbEllipse
 10
-91.923882
 20
245.765472
 30
0.0
 11
6.400000095367431
 21
-11.08512496948242
 31
0.0
210
0.0
220
0.0
230
1.0
 40
0.57735
 41
3.926990816987263
 42
6.283185307179586
  0
ELLIPSE
  5
1C0
330
12D
100
AcDbEntity
  8
0
 62
     7
370
    35
100
AcDbEllipse
 10
-91.923882
 20
245.765472
 30
0.0
 11
6.400000095367431
 21
-11.08512496948242
 31
0.0
210
0.0
220
0.0
230
1.0
 40
0.57735
 41
3.141592653589793
 42
3.926990816987263
  0
ELLIPSE
  5
1C1
330
12D
100
AcDbEntity
  8
0
 62
     7
370
    35
100
AcDbEllipse
 10
-91.923882
 20
245.765472
 30
0.0
 11
6.400000095367431
 21
-11.08512496948242
 31
0.0
210
0.0
220
0.0
230
1.0
 40
0.57735
 41
2.356194490192363
 42
3.141592653589793
  0
LINE
  5
1C2
330
12D
100
AcDbEntity
  8
0
 62
     7
370
    35
100
AcDbLine
 10
-57.982756
 20
244.948974
 30
0.0
 11
-57.982756
 21
249.031457
 31
0.0
  0
ELLIPSE
  5
1C3
330
12D
100
AcDbEntity
  8
0
 62
     7
370
    35
100
AcDbEllipse
 10
-72.124893
 20
257.196411
 30
0.0
 11
10.0
 21
-17.32050895690918
 31
0.0
210
0.0
220
0.0
230
1.0
 40
0.57735
 41
0.7853981633974492
 42
2.356194490192328
  0
ELLIPSE
  5
1C4
330
12D
100
AcDbEntity
  8
0
 62
     7
370
    35
100
AcDbEllipse
 10
-75.660423
 20
255.155182
 30
0.0
 11
12.5
 21
-21.650634765625
 31
0.0
210
0.0
220
0.0
230
1.0
 40
0.57735
 41
2.356194490192324
 42
3.141592653589793
  0
ELLIPSE
  5
1C5
330
12D
100
AcDbEntity
  8
0
 62
     7
370
    35
100
AcDbEllipse
 10
-75.660423
 20
255.155182
 30
0.0
 11
12.5
 21
-21.650634765625
 31
0.0
210
0.0
220
0.0
230
1.0
 40
0.57735
 41
0.7853981633974269
 42
2.356194490192324
  0
ELLIPSE
  5
1C6
330
12D
100
AcDbEntity
  8
0
 62
     7
370
    35
100
AcDbEllipse
 10
-75.660423
 20
255.155182
 30
0.0
 11
12.5
 21
-21.650634765625
 31
0.0
210
0.0
220
0.0
230
1.0
 40
0.57735
 41
0.0
 42
0.7853981633974261
  0
ELLIPSE
  5
1C7
330
12D
100
AcDbEntity
  8
0
 62
     7
370
    35
100
AcDbEllipse
 10
-63.63961
 20
262.095398
 30
0.0
 11
-10.0
 21
17.32050895690918
 31
0.0
210
0.0
220
0.0
230
1.0
 40
0.57735
 41
3.141592653589793
 42
6.283185307179586
  0
ELLIPSE
  5
1C8
330
12D
100
AcDbEntity
  8
0
 62
     7
370
    35
100
AcDbEllipse
 10
-60.104076
 20
264.136658
 30
0.0
 11
12.5
 21
-21.650634765625
 31
0.0
210
0.0
220
0.0
230
1.0
 40
0.57735
 41
3.141592653589793
 42
3.785093835050145
  0
ELLIPSE
  5
1C9
330
12D
100
AcDbEntity
  8
0
 62
     7
370
    35
100
AcDbEllipse
 10
-60.104076
 20
264.136658
 30
0.0
 11
12.5
 21
-21.650634765625
 31
0.0
210
0.0
220
0.0
230
1.0
 40
0.57735
 41
0.785398163397429
 42
3.141592653589793
  0
ELLIPSE
  5
1CA
330
12D
100
AcDbEntity
  8
0
 62
     7
370
    35
100
AcDbEllipse
 10
-60.104076
 20
264.136658
 30
0.0
 11
12.5
 21
-21.650634765625
 31
0.0
210
0.0
220
0.0
230
1.0
 40
0.57735
 41
0.0
 42
0.7853981633974216
  0
ELLIPSE
  5
1CB
330
12D
100
AcDbEntity
  8
0
 62
     7
370
    35
100
AcDbEllipse
 10
-60.104076
 20
264.136658
 30
0.0
 11
12.5
 21
-21.650634765625
 31
0.0
210
0.0
220
0.0
230
1.0
 40
0.57735
 41
5.639684125332246
 42
6.283185307179586
  0
ELLIPSE
  5
1CC
330
12D
100
AcDbEntity
  8
0
 62
     7
370
    35
100
AcDbEllipse
 10
-51.618793
 20
269.035614
 30
0.0
 11
12.5
 21
-21.650634765625
 31
0.0
210
0.0
220
0.0
230
1.0
 40
0.57735
 41
0.0
 42
3.141592653589793
  0
ELLIPSE
  5
1CD
330
12D
100
AcDbEntity
  8
0
 62
     7
370
    35
100
AcDbEllipse
 10
-91.923882
 20
245.765472
 30
0.0
 11
11.5
 21
-19.9185848236084
 31
0.0
210
0.0
220
0.0
230
1.0
 40
0.57735
 41
5.497787143782155
 42
10.21017612416684
  0
ELLIPSE
  5
1CE
330
12D
100
AcDbEntity
  8
0
 62
     7
370
    35
100
AcDbEllipse
 10
-91.923882
 20
245.765472
 30
0.0
 11
11.5
 21
-19.9185848236084
 31
0.0
210
0.0
220
0.0
230
1.0
 40
0.57735
 41
3.926990816987256
 42
5.497787143782155
  0
ELLIPSE
  5
1CF
330
12D
100
AcDbEntity
  8
0
 62
     7
370
    35
100
AcDbEllipse
 10
-90.509666
 20
246.58197
 30
0.0
 11
12.5
 21
-21.650634765625
 31
0.0
210
0.0
220
0.0
230
1.0
 40
0.57735
 41
5.497787143782155
 42
6.283185307179586
  0
ELLIPSE
  5
1D0
330
12D
100
AcDbEntity
  8
0
 62
     7
370
    35
100
AcDbEllipse
 10
-90.509666
 20
246.58197
 30
0.0
 11
12.5
 21
-21.650634765625
 31
0.0
210
0.0
220
0.0
230
1.0
 40
0.57735
 41
0.0
 42
3.141592653589793
  0
ELLIPSE
  5
1D1
330
12D
100
AcDbEntity
  8
0
 62
     7
370
    35
100
AcDbEllipse
 10
-90.509666
 20
246.58197
 30
0.0
 11
12.5
 21
-21.650634765625
 31
0.0
210
0.0
220
0.0
230
1.0
 40
0.57735
 41
3.141592653589793
 42
3.926990816987258
  0
LINE
  5
1D2
330
12D
100
AcDbEntity
  8
0
 62
     7
370
    35
100
AcDbLine
 10
-108.187338
 20
256.788175
 30
0.0
 11
-108.187338
 21
255.155182
 31
0.0
  0
LINE
  5
1D3
330
12D
100
AcDbEntity
  8
0
 62
     7
370
    35
100
AcDbLine
 10
-72.124892
 20
273.526355
 30
0.0
 11
-75.660426
 21
275.567596
 31
0.0
  0
LINE
  5
1D4
330
12D
100
AcDbEntity
  8
0
 62
     7
370
    35
100
AcDbLine
 10
-58.160424
 20
242.164801
 30
0.0
 11
-53.63961
 21
244.774894
 31
0.0
  0
LINE
  5
1D5
330
12D
100
AcDbEntity
  8
0
 62
     7
370
    35
100
AcDbLine
 10
-78.160424
 20
276.805817
 30
0.0
 11
-73.63961
 21
279.415911
 31
0.0
  0
LINE
  5
1D6
330
12D
100
AcDbEntity
  8
0
 62
     7
370
    35
100
AcDbLine
 10
-47.604076
 20
242.486009
 30
0.0
 11
-39.118795
 21
247.384988
 31
0.0
  0
LINE
  5
1D7
330
12D
100
AcDbEntity
  8
0
 62
     7
370
    35
100
AcDbLine
 10
-72.604076
 20
285.787279
 30
0.0
 11
-64.118795
 21
290.686259
 31
0.0
  0
LINE
  5
1D8
330
12D
100
AcDbEntity
  8
0
 62
     7
370
    35
100
AcDbLine
 10
-78.009668
 20
224.931332
 30
0.0
 11
-63.160426
 21
233.504546
 31
0.0
  0
LINE
  5
1D9
330
12D
100
AcDbEntity
  8
0
 62
     7
370
    35
100
AcDbLine
 10
-103.009668
 20
268.232603
 30
0.0
 11
-88.160426
 21
276.805817
 31
0.0
  0
LINE
  5
1DA
330
12D
100
AcDbEntity
  8
0
 62
     7
370
    35
100
AcDbLine
 10
-91.923882
 20
226.986049
 30
0.0
 11
-90.509668
 21
226.169553
 31
0.0
  0
ENDBLK
  5
12F
330
12D
100
AcDbEntity
  8
0
100
AcDbBlockEnd
  0
BLOCK
  5
131
330
130
100
AcDbEntity
  8
0
100
AcDbBlockBegin
  2
BLOCK1434
 70
     0
 10
0.0
 20
0.0
 30
0.0
  3
BLOCK1434
  1

  0
LINE
  5
1DB
330
130
100
AcDbEntity
  8
0
 62
     7
370
    35
100
AcDbLine
 10
-48.719925
 20
-264.0
 30
0.0
 11
-43.719925
 21
-264.0
 31
0.0
  0
LINE
  5
1DC
330
130
100
AcDbEntity
  8
0
 62
     7
370
    35
100
AcDbLine
 10
46.041733
 20
-264.0
 30
0.0
 11
41.041733
 21
-264.0
 31
0.0
  0
LINE
  5
1DD
330
130
100
AcDbEntity
  8
0
  6
DASHDOT
 62
     7
370
    18
100
AcDbLine
 10
-43.719925
 20
-264.0
 30
0.0
 11
41.041733
 21
-264.0
 31
0.0
  0
LINE
  5
1DE
330
130
100
AcDbEntity
  8
0
 62
     7
370
    18
100
AcDbLine
 10
-46.219925
 20
-259.65332
 30
0.0
 11
-46.219925
 21
-244.0
 31
0.0
  0
SOLID
  5
1DF
330
130
100
AcDbEntity
  8
0
 62
     7
370
    18
100
AcDbTrace
 10
-47.384609
 20
-259.65332
 30
0.0
 11
-46.219925
 21
-264.0
 31
0.0
 12
-45.055241
 22
-259.65332
 32
0.0
 13
-45.055241
 23
-259.65332
 33
0.0
  0
TEXT
  5
1E0
330
130
100
AcDbEntity
  8
0
 62
     7
370
    18
100
AcDbText
 10
-43.594925
 20
-250.666794
 30
0.0
 40
5.0
  1
B
 41
0.933333
 72
     5
 11
-39.594925
 21
-250.666794
 31
0.0
100
AcDbText
  0
LINE
  5
1E1
330
130
100
AcDbEntity
  8
0
 62
     7
370
    18
100
AcDbLine
 10
43.541733
 20
-259.65332
 30
0.0
 11
43.541733
 21
-244.0
 31
0.0
  0
SOLID
  5
1E2
330
130
100
AcDbEntity
  8
0
 62
     7
370
    18
100
AcDbTrace
 10
42.377048
 20
-259.65332
 30
0.0
 11
43.541733
 21
-264.0
 31
0.0
 12
44.706417
 22
-259.65332
 32
0.0
 13
44.706417
 23
-259.65332
 33
0.0
  0
TEXT
  5
1E3
330
130
100
AcDbEntity
  8
0
 62
     7
370
    18
100
AcDbText
 10
46.166733
 20
-250.666794
 30
0.0
 40
5.0
  1
B
 41
0.933333
 72
     5
 11
50.166733
 21
-250.666794
 31
0.0
100
AcDbText
  0
ENDBLK
  5
132
330
130
100
AcDbEntity
  8
0
100
AcDbBlockEnd
  0
BLOCK
  5
134
330
133
100
AcDbEntity
  8
0
100
AcDbBlockBegin
  2
*D66
 70
     1
 10
0.0
 20
0.0
 30
0.0
  3
*D66
  1

  0
SOLID
  5
1E4
330
133
100
AcDbEntity
  8
0
 62
     7
370
    18
100
AcDbTrace
 10
159.974888
 20
189.244027
 30
0.0
 11
162.872665
 21
190.020485
 31
0.0
 12
159.974888
 22
189.244027
 32
0.0
 13
159.974888
 23
190.796944
 33
0.0
  0
SOLID
  5
1E5
330
133
100
AcDbEntity
  8
0
 62
     7
370
    18
100
AcDbTrace
 10
142.770443
 20
190.796944
 30
0.0
 11
139.872665
 21
190.020485
 31
0.0
 12
142.770443
 22
190.796944
 32
0.0
 13
142.770443
 23
189.244027
 33
0.0
  0
TEXT
  5
1E6
330
133
100
AcDbEntity
  8
0
 62
     7
370
    18
100
AcDbText
 10
145.95256
 20
193.020485
 30
0.0
 40
3.5
  1
23
 41
0.793801
 72
     5
 11
150.847664
 21
193.020485
 31
0.0
100
AcDbText
  0
TEXT
  5
1E7
330
133
100
AcDbEntity
  8
0
 62
     7
370
    18
100
AcDbText
 10
152.597666
 20
193.020485
 30
0.0
 40
3.5
  1
%%p1
 41
0.680287
 72
     5
 11
156.79277
 21
193.020485
 31
0.0
100
AcDbText
  0
LINE
  5
1E8
330
133
100
AcDbEntity
  8
0
 62
     7
370
    18
100
AcDbLine
 10
139.872665
 20
205.742989
 30
0.0
 11
139.872665
 21
188.020485
 31
0.0
  0
LINE
  5
1E9
330
133
100
AcDbEntity
  8
0
 62
     7
370
    18
100
AcDbLine
 10
162.872665
 20
203.742989
 30
0.0
 11
162.872665
 21
188.020485
 31
0.0
  0
LINE
  5
1EA
330
133
100
AcDbEntity
  8
0
 62
     7
370
    18
100
AcDbLine
 10
142.770443
 20
190.020485
 30
0.0
 11
159.974888
 21
190.020485
 31
0.0
  0
POLYLINE
  5
1EB
330
133
100
AcDbEntity
  8
0
 62
     7
370
    18
100
AcDb2dPolyline
 66
     1
 10
0.0
 20
0.0
 30
0.0
 70
     1
  0
VERTEX
  5
1EC
330
1EB
100
AcDbEntity
  8
0
370
     0
100
AcDbVertex
100
AcDb2dVertex
 10
159.974888
 20
189.244027
 30
0.0
  0
VERTEX
  5
1ED
330
1EB
100
AcDbEntity
  8
0
370
     0
100
AcDbVertex
100
AcDb2dVertex
 10
162.872665
 20
190.020485
 30
0.0
  0
VERTEX
  5
1EE
330
1EB
100
AcDbEntity
  8
0
370
     0
100
AcDbVertex
100
AcDb2dVertex
 10
159.974888
 20
190.796944
 30
0.0
  0
SEQEND
  5
1EF
330
1EB
100
AcDbEntity
  8
0
 62
     7
370
    18
  0
POLYLINE
  5
1F0
330
133
100
AcDbEntity
  8
0
 62
     7
370
    18
100
AcDb2dPolyline
 66
     1
 10
0.0
 20
0.0
 30
0.0
 70
     1
  0
VERTEX
  5
1F1
330
1F0
100
AcDbEntity
  8
0
370
     0
100
AcDbVertex
100
AcDb2dVertex
 10
142.770443
 20
190.796944
 30
0.0
  0
VERTEX
  5
1F2
330
1F0
100
AcDbEntity
  8
0
370
     0
100
AcDbVertex
100
AcDb2dVertex
 10
139.872665
 20
190.020485
 30
0.0
  0
VERTEX
  5
1F3
330
1F0
100
AcDbEntity
  8
0
370
     0
100
AcDbVertex
100
AcDb2dVertex
 10
142.770443
 20
189.244027
 30
0.0
  0
SEQEND
  5
1F4
330
1F0
100
AcDbEntity
  8
0
 62
     7
370
    18
  0
ENDBLK
  5
135
330
133
100
AcDbEntity
  8
0
100
AcDbBlockEnd
  0
BLOCK
  5
137
330
136
100
AcDbEntity
  8
0
100
AcDbBlockBegin
  2
*D67
 70
     1
 10
0.0
 20
0.0
 30
0.0
  3
*D67
  1

  0
SOLID
  5
1F5
330
136
100
AcDbEntity
  8
0
 62
     7
370
    18
100
AcDbTrace
 10
164.974888
 20
175.820198
 30
0.0
 11
167.872665
 21
176.596657
 31
0.0
 12
164.974888
 22
175.820198
 32
0.0
 13
164.974888
 23
177.373116
 33
0.0
  0
SOLID
  5
1F6
330
136
100
AcDbEntity
  8
0
 62
     7
370
    18
100
AcDbTrace
 10
142.770443
 20
177.373116
 30
0.0
 11
139.872665
 21
176.596657
 31
0.0
 12
142.770443
 22
177.373116
 32
0.0
 13
142.770443
 23
175.820198
 33
0.0
  0
TEXT
  5
1F7
330
136
100
AcDbEntity
  8
0
 62
     7
370
    18
100
AcDbText
 10
148.45256
 20
179.596657
 30
0.0
 40
3.5
  1
28
 41
0.793801
 72
     5
 11
153.347665
 21
179.596657
 31
0.0
100
AcDbText
  0
TEXT
  5
1F8
330
136
100
AcDbEntity
  8
0
 62
     7
370
    18
100
AcDbText
 10
155.097666
 20
179.596657
 30
0.0
 40
3.5
  1
%%p1
 41
0.680287
 72
     5
 11
159.29277
 21
179.596657
 31
0.0
100
AcDbText
  0
LINE
  5
1F9
330
136
100
AcDbEntity
  8
0
 62
     7
370
    18
100
AcDbLine
 10
139.872665
 20
205.742989
 30
0.0
 11
139.872665
 21
174.596657
 31
0.0
  0
LINE
  5
1FA
330
136
100
AcDbEntity
  8
0
 62
     7
370
    18
100
AcDbLine
 10
167.872665
 20
208.742989
 30
0.0
 11
167.872665
 21
174.596657
 31
0.0
  0
LINE
  5
1FB
330
136
100
AcDbEntity
  8
0
 62
     7
370
    18
100
AcDbLine
 10
142.770443
 20
176.596657
 30
0.0
 11
164.974888
 21
176.596657
 31
0.0
  0
POLYLINE
  5
1FC
330
136
100
AcDbEntity
  8
0
 62
     7
370
    18
100
AcDb2dPolyline
 66
     1
 10
0.0
 20
0.0
 30
0.0
 70
     1
  0
VERTEX
  5
1FD
330
1FC
100
AcDbEntity
  8
0
370
     0
100
AcDbVertex
100
AcDb2dVertex
 10
164.974888
 20
175.820198
 30
0.0
  0
VERTEX
  5
1FE
330
1FC
100
AcDbEntity
  8
0
370
     0
100
AcDbVertex
100
AcDb2dVertex
 10
167.872665
 20
176.596657
 30
0.0
  0
VERTEX
  5
1FF
330
1FC
100
AcDbEntity
  8
0
370
     0
100
AcDbVertex
100
AcDb2dVertex
 10
164.974888
 20
177.373116
 30
0.0
  0
SEQEND
  5
200
330
1FC
100
AcDbEntity
  8
0
 62
     7
370
    18
  0
POLYLINE
  5
201
330
136
100
AcDbEntity
  8
0
 62
     7
370
    18
100
AcDb2dPolyline
 66
     1
 10
0.0
 20
0.0
 30
0.0
 70
     1
  0
VERTEX
  5
202
330
201
100
AcDbEntity
  8
0
370
     0
100
AcDbVertex
100
AcDb2dVertex
 10
142.770443
 20
177.373116
 30
0.0
  0
VERTEX
  5
203
330
201
100
AcDbEntity
  8
0
370
     0
100
AcDbVertex
100
AcDb2dVertex
 10
139.872665
 20
176.596657
 30
0.0
  0
VERTEX
  5
204
330
201
100
AcDbEntity
  8
0
370
     0
100
AcDbVertex
100
AcDb2dVertex
 10
142.770443
 20
175.820198
 30
0.0
  0
SEQEND
  5
205
330
201
100
AcDbEntity
  8
0
 62
     7
370
    18
  0
ENDBLK
  5
138
330
136
100
AcDbEntity
  8
0
100
AcDbBlockEnd
  0
BLOCK
  5
13A
330
139
100
AcDbEntity
  8
0
100
AcDbBlockBegin
  2
*D68
 70
     1
 10
0.0
 20
0.0
 30
0.0
  3
*D68
  1

  0
SOLID
  5
206
330
139
100
AcDbEntity
  8
0
 62
     7
370
    18
100
AcDbTrace
 10
176.974888
 20
164.280617
 30
0.0
 11
179.872665
 21
165.057076
 31
0.0
 12
176.974888
 22
164.280617
 32
0.0
 13
176.974888
 23
165.833535
 33
0.0
  0
SOLID
  5
207
330
139
100
AcDbEntity
  8
0
 62
     7
370
    18
100
AcDbTrace
 10
142.770443
 20
165.833535
 30
0.0
 11
139.872665
 21
165.057076
 31
0.0
 12
142.770443
 22
165.833535
 32
0.0
 13
142.770443
 23
164.280617
 33
0.0
  0
TEXT
  5
208
330
139
100
AcDbEntity
  8
0
 62
     7
370
    18
100
AcDbText
 10
154.276337
 20
168.057076
 30
0.0
 40
3.5
  1
40
 41
0.850955
 72
     5
 11
159.52389
 21
168.057076
 31
0.0
100
AcDbText
  0
TEXT
  5
209
330
139
100
AcDbEntity
  8
0
 62
     7
370
    18
100
AcDbText
 10
161.27389
 20
168.057076
 30
0.0
 40
3.5
  1
%%p1
 41
0.680287
 72
     5
 11
165.468994
 21
168.057076
 31
0.0
100
AcDbText
  0
LINE
  5
20A
330
139
100
AcDbEntity
  8
0
 62
     7
370
    18
100
AcDbLine
 10
139.872665
 20
205.742989
 30
0.0
 11
139.872665
 21
163.057076
 31
0.0
  0
LINE
  5
20B
330
139
100
AcDbEntity
  8
0
 62
     7
370
    18
100
AcDbLine
 10
179.872665
 20
208.742989
 30
0.0
 11
179.872665
 21
163.057076
 31
0.0
  0
LINE
  5
20C
330
139
100
AcDbEntity
  8
0
 62
     7
370
    18
100
AcDbLine
 10
142.770443
 20
165.057076
 30
0.0
 11
176.974888
 21
165.057076
 31
0.0
  0
POLYLINE
  5
20D
330
139
100
AcDbEntity
  8
0
 62
     7
370
    18
100
AcDb2dPolyline
 66
     1
 10
0.0
 20
0.0
 30
0.0
 70
     1
  0
VERTEX
  5
20E
330
20D
100
AcDbEntity
  8
0
370
     0
100
AcDbVertex
100
AcDb2dVertex
 10
176.974888
 20
164.280617
 30
0.0
  0
VERTEX
  5
20F
330
20D
100
AcDbEntity
  8
0
370
     0
100
AcDbVertex
100
AcDb2dVertex
 10
179.872665
 20
165.057076
 30
0.0
  0
VERTEX
  5
210
330
20D
100
AcDbEntity
  8
0
370
     0
100
AcDbVertex
100
AcDb2dVertex
 10
176.974888
 20
165.833535
 30
0.0
  0
SEQEND
  5
211
330
20D
100
AcDbEntity
  8
0
 62
     7
370
    18
  0
POLYLINE
  5
212
330
139
100
AcDbEntity
  8
0
 62
     7
370
    18
100
AcDb2dPolyline
 66
     1
 10
0.0
 20
0.0
 30
0.0
 70
     1
  0
VERTEX
  5
213
330
212
100
AcDbEntity
  8
0
370
     0
100
AcDbVertex
100
AcDb2dVertex
 10
142.770443
 20
165.833535
 30
0.0
  0
VERTEX
  5
214
330
212
100
AcDbEntity
  8
0
370
     0
100
AcDbVertex
100
AcDb2dVertex
 10
139.872665
 20
165.057076
 30
0.0
  0
VERTEX
  5
215
330
212
100
AcDbEntity
  8
0
370
     0
100
AcDbVertex
100
AcDb2dVertex
 10
142.770443
 20
164.280617
 30
0.0
  0
SEQEND
  5
216
330
212
100
AcDbEntity
  8
0
 62
     7
370
    18
  0
ENDBLK
  5
13B
330
139
100
AcDbEntity
  8
0
100
AcDbBlockEnd
  0
BLOCK
  5
13D
330
13C
100
AcDbEntity
  8
0
100
AcDbBlockBegin
  2
*D69
 70
     1
 10
0.0
 20
0.0
 30
0.0
  3
*D69
  1

  0
SOLID
  5
217
330
13C
100
AcDbEntity
  8
0
 62
     7
370
    18
100
AcDbTrace
 10
193.974888
 20
153.212044
 30
0.0
 11
196.872665
 21
153.988503
 31
0.0
 12
193.974888
 22
153.212044
 32
0.0
 13
193.974888
 23
154.764962
 33
0.0
  0
SOLID
  5
218
330
13C
100
AcDbEntity
  8
0
 62
     7
370
    18
100
AcDbTrace
 10
142.770443
 20
154.764962
 30
0.0
 11
139.872665
 21
153.988503
 31
0.0
 12
142.770443
 22
154.764962
 32
0.0
 13
142.770443
 23
153.212044
 33
0.0
  0
TEXT
  5
219
330
13C
100
AcDbEntity
  8
0
 62
     7
370
    18
100
AcDbText
 10
162.95256
 20
156.988503
 30
0.0
 40
3.5
  1
57
 41
0.793801
 72
     5
 11
167.847665
 21
156.988503
 31
0.0
100
AcDbText
  0
TEXT
  5
21A
330
13C
100
AcDbEntity
  8
0
 62
     7
370
    18
100
AcDbText
 10
169.597665
 20
156.988503
 30
0.0
 40
3.5
  1
%%p1
 41
0.680287
 72
     5
 11
173.79277
 21
156.988503
 31
0.0
100
AcDbText
  0
LINE
  5
21B
330
13C
100
AcDbEntity
  8
0
 62
     7
370
    18
100
AcDbLine
 10
139.872665
 20
205.742989
 30
0.0
 11
139.872665
 21
151.988503
 31
0.0
  0
LINE
  5
21C
330
13C
100
AcDbEntity
  8
0
 62
     7
370
    18
100
AcDbLine
 10
196.872665
 20
203.742989
 30
0.0
 11
196.872665
 21
151.988503
 31
0.0
  0
LINE
  5
21D
330
13C
100
AcDbEntity
  8
0
 62
     7
370
    18
100
AcDbLine
 10
142.770443
 20
153.988503
 30
0.0
 11
193.974888
 21
153.988503
 31
0.0
  0
POLYLINE
  5
21E
330
13C
100
AcDbEntity
  8
0
 62
     7
370
    18
100
AcDb2dPolyline
 66
     1
 10
0.0
 20
0.0
 30
0.0
 70
     1
  0
VERTEX
  5
21F
330
21E
100
AcDbEntity
  8
0
370
     0
100
AcDbVertex
100
AcDb2dVertex
 10
193.974888
 20
153.212044
 30
0.0
  0
VERTEX
  5
220
330
21E
100
AcDbEntity
  8
0
370
     0
100
AcDbVertex
100
AcDb2dVertex
 10
196.872665
 20
153.988503
 30
0.0
  0
VERTEX
  5
221
330
21E
100
AcDbEntity
  8
0
370
     0
100
AcDbVertex
100
AcDb2dVertex
 10
193.974888
 20
154.764962
 30
0.0
  0
SEQEND
  5
222
330
21E
100
AcDbEntity
  8
0
 62
     7
370
    18
  0
POLYLINE
  5
223
330
13C
100
AcDbEntity
  8
0
 62
     7
370
    18
100
AcDb2dPolyline
 66
     1
 10
0.0
 20
0.0
 30
0.0
 70
     1
  0
VERTEX
  5
224
330
223
100
AcDbEntity
  8
0
370
     0
100
AcDbVertex
100
AcDb2dVertex
 10
142.770443
 20
154.764962
 30
0.0
  0
VERTEX
  5
225
330
223
100
AcDbEntity
  8
0
370
     0
100
AcDbVertex
100
AcDb2dVertex
 10
139.872665
 20
153.988503
 30
0.0
  0
VERTEX
  5
226
330
223
100
AcDbEntity
  8
0
370
     0
100
AcDbVertex
100
AcDb2dVertex
 10
142.770443
 20
153.212044
 30
0.0
  0
SEQEND
  5
227
330
223
100
AcDbEntity
  8
0
 62
     7
370
    18
  0
ENDBLK
  5
13E
330
13C
100
AcDbEntity
  8
0
100
AcDbBlockEnd
  0
BLOCK
  5
140
330
13F
100
AcDbEntity
  8
0
100
AcDbBlockBegin
  2
*D70
 70
     1
 10
0.0
 20
0.0
 30
0.0
  3
*D70
  1

  0
SOLID
  5
228
330
13F
100
AcDbEntity
  8
0
 62
     7
370
    18
100
AcDbTrace
 10
173.200041
 20
245.845208
 30
0.0
 11
172.423584
 21
248.742989
 31
0.0
 12
173.200041
 22
245.845208
 32
0.0
 13
171.647127
 23
245.845208
 33
0.0
  0
SOLID
  5
229
330
13F
100
AcDbEntity
  8
0
 62
     7
370
    18
100
AcDbTrace
 10
171.647127
 20
211.640755
 30
0.0
 11
172.423584
 21
208.742989
 31
0.0
 12
171.647127
 22
211.640755
 32
0.0
 13
173.200041
 23
211.640755
 33
0.0
  0
TEXT
  5
22A
330
13F
100
AcDbEntity
  8
0
 62
     7
370
    18
100
AcDbText
 10
180.990251
 20
272.807854
 30
0.0
 40
3.5
  1
40
 41
0.850955
 72
     5
 11
186.237804
 21
272.807854
 31
0.0
100
AcDbText
  0
TEXT
  5
22B
330
13F
100
AcDbEntity
  8
0
 62
     7
370
    18
100
AcDbText
 10
187.987803
 20
272.807854
 30
0.0
 40
3.5
  1
%%p1
 41
0.680288
 72
     5
 11
192.182909
 21
272.807854
 31
0.0
100
AcDbText
  0
TEXT
  5
22C
330
13F
100
AcDbEntity
  8
0
 62
     7
370
    18
100
AcDbText
 10
177.423584
 20
272.807854
 30
0.0
 40
3.5
  1
%%c
 41
0.905883
 72
     5
 11
179.990252
 21
272.807854
 31
0.0
100
AcDbText
  0
LINE
  5
22D
330
13F
100
AcDbEntity
  8
0
 62
     7
370
    18
100
AcDbLine
 10
172.423584
 20
269.807854
 30
0.0
 11
192.182909
 21
269.807854
 31
0.0
  0
LINE
  5
22E
330
13F
100
AcDbEntity
  8
0
 62
     7
370
    18
100
AcDbLine
 10
172.423584
 20
211.640755
 30
0.0
 11
172.423584
 21
245.845208
 31
0.0
  0
LINE
  5
22F
330
13F
100
AcDbEntity
  8
0
 62
     7
370
    18
100
AcDbLine
 10
172.423584
 20
248.742989
 30
0.0
 11
172.423584
 21
269.807854
 31
0.0
  0
POLYLINE
  5
230
330
13F
100
AcDbEntity
  8
0
 62
     7
370
    18
100
AcDb2dPolyline
 66
     1
 10
0.0
 20
0.0
 30
0.0
 70
     1
  0
VERTEX
  5
231
330
230
100
AcDbEntity
  8
0
370
     0
100
AcDbVertex
100
AcDb2dVertex
 10
173.200041
 20
245.845208
 30
0.0
  0
VERTEX
  5
232
330
230
100
AcDbEntity
  8
0
370
     0
100
AcDbVertex
100
AcDb2dVertex
 10
172.423584
 20
248.742989
 30
0.0
  0
VERTEX
  5
233
330
230
100
AcDbEntity
  8
0
370
     0
100
AcDbVertex
100
AcDb2dVertex
 10
171.647127
 20
245.845208
 30
0.0
  0
SEQEND
  5
234
330
230
100
AcDbEntity
  8
0
 62
     7
370
    18
  0
POLYLINE
  5
235
330
13F
100
AcDbEntity
  8
0
 62
     7
370
    18
100
AcDb2dPolyline
 66
     1
 10
0.0
 20
0.0
 30
0.0
 70
     1
  0
VERTEX
  5
236
330
235
100
AcDbEntity
  8
0
370
     0
100
AcDbVertex
100
AcDb2dVertex
 10
171.647127
 20
211.640755
 30
0.0
  0
VERTEX
  5
237
330
235
100
AcDbEntity
  8
0
370
     0
100
AcDbVertex
100
AcDb2dVertex
 10
172.423584
 20
208.742989
 30
0.0
  0
VERTEX
  5
238
330
235
100
AcDbEntity
  8
0
370
     0
100
AcDbVertex
100
AcDb2dVertex
 10
173.200041
 20
211.640755
 30
0.0
  0
SEQEND
  5
239
330
235
100
AcDbEntity
  8
0
 62
     7
370
    18
  0
ENDBLK
  5
141
330
13F
100
AcDbEntity
  8
0
100
AcDbBlockEnd
  0
BLOCK
  5
143
330
142
100
AcDbEntity
  8
0
100
AcDbBlockBegin
  2
*D71
 70
     1
 10
0.0
 20
0.0
 30
0.0
  3
*D71
  1

  0
LINE
  5
23A
330
142
100
AcDbEntity
  8
0
 62
     7
370
    18
100
AcDbLine
 10
-28.874887
 20
-237.77681
 30
0.0
 11
-37.432449
 21
-229.219254
 31
0.0
  0
LINE
  5
23B
330
142
100
AcDbEntity
  8
0
 62
     7
370
    18
100
AcDbLine
 10
-37.432449
 20
-229.219254
 30
0.0
 11
-57.444221
 21
-229.219254
 31
0.0
  0
TEXT
  5
23C
330
142
100
AcDbEntity
  8
0
 62
     7
370
    18
100
AcDbText
 10
-53.49667
 20
-226.344254
 30
0.0
 40
1.75
  1
×
 41
1.4
 72
     5
 11
-51.74667
 21
-226.344254
 31
0.0
100
AcDbText
  0
TEXT
  5
23D
330
142
100
AcDbEntity
  8
0
 62
     7
370
    18
100
AcDbText
 10
-44.999115
 20
-226.519241
 30
0.0
 40
3.5
  1
%%d
 41
3.079999
 72
     5
 11
-42.432449
 21
-226.519241
 31
0.0
100
AcDbText
  0
TEXT
  5
23E
330
142
100
AcDbEntity
  8
0
 62
     7
370
    18
100
AcDbText
 10
-50.24667
 20
-227.219254
 30
0.0
 40
3.5
  1
45
 41
0.850954
 72
     5
 11
-44.999119
 21
-227.219254
 31
0.0
100
AcDbText
  0
TEXT
  5
23F
330
142
100
AcDbEntity
  8
0
 62
     7
370
    18
100
AcDbText
 10
-57.444221
 20
-227.219254
 30
0.0
 40
3.5
  1
2
 41
0.863843
 72
     5
 11
-54.996666
 21
-227.219254
 31
0.0
100
AcDbText
  0
SOLID
  5
240
330
142
100
AcDbEntity
  8
0
 62
     7
370
    18
100
AcDbTrace
 10
-29.423923
 20
-238.325851
 30
0.0
 11
-26.825848
 21
-239.825851
 31
0.0
 12
-29.423923
 22
-238.325851
 32
0.0
 13
-28.325848
 23
-237.227768
 33
0.0
  0
ENDBLK
  5
144
330
142
100
AcDbEntity
  8
0
100
AcDbBlockEnd
  0
BLOCK
  5
146
330
145
100
AcDbEntity
  8
0
100
AcDbBlockBegin
  2
BLOCK1435
 70
     0
 10
0.0
 20
0.0
 30
0.0
  3
BLOCK1435
  1

  0
SOLID
  5
241
330
145
100
AcDbEntity
  8
0
 62
     7
370
    18
100
AcDbTrace
 10
-29.423923
 20
-238.325851
 30
0.0
 11
-26.825848
 21
-239.825851
 31
0.0
 12
-29.423923
 22
-238.325851
 32
0.0
 13
-28.325848
 23
-237.227768
 33
0.0
  0
TEXT
  5
242
330
145
100
AcDbEntity
  8
0
 62
     7
370
    18
100
AcDbText
 10
-57.444221
 20
-227.219254
 30
0.0
 40
3.5
  1
2
 41
0.863843
 72
     5
 11
-54.996666
 21
-227.219254
 31
0.0
100
AcDbText
  0
TEXT
  5
243
330
145
100
AcDbEntity
  8
0
 62
     7
370
    18
100
AcDbText
 10
-50.24667
 20
-227.219254
 30
0.0
 40
3.5
  1
45
 41
0.850954
 72
     5
 11
-44.999119
 21
-227.219254
 31
0.0
100
AcDbText
  0
TEXT
  5
244
330
145
100
AcDbEntity
  8
0
 62
     7
370
    18
100
AcDbText
 10
-44.999115
 20
-226.519241
 30
0.0
 40
3.5
  1
%%d
 41
3.079999
 72
     5
 11
-42.432449
 21
-226.519241
 31
0.0
100
AcDbText
  0
TEXT
  5
245
330
145
100
AcDbEntity
  8
0
 62
     7
370
    18
100
AcDbText
 10
-53.49667
 20
-226.344254
 30
0.0
 40
1.75
  1
×
 41
1.4
 72
     5
 11
-51.74667
 21
-226.344254
 31
0.0
100
AcDbText
  0
LINE
  5
246
330
145
100
AcDbEntity
  8
0
 62
     7
370
    18
100
AcDbLine
 10
-37.432449
 20
-229.219254
 30
0.0
 11
-57.444221
 21
-229.219254
 31
0.0
  0
LINE
  5
247
330
145
100
AcDbEntity
  8
0
 62
     7
370
    18
100
AcDbLine
 10
-28.874887
 20
-237.77681
 30
0.0
 11
-37.432449
 21
-229.219254
 31
0.0
  0
POLYLINE
  5
248
330
145
100
AcDbEntity
  8
0
 62
     7
370
    18
100
AcDb2dPolyline
 66
     1
 10
0.0
 20
0.0
 30
0.0
 70
     1
  0
VERTEX
  5
249
330
248
100
AcDbEntity
  8
0
370
     0
100
AcDbVertex
100
AcDb2dVertex
 10
-29.423923
 20
-238.325851
 30
0.0
  0
VERTEX
  5
24A
330
248
100
AcDbEntity
  8
0
370
     0
100
AcDbVertex
100
AcDb2dVertex
 10
-26.825848
 20
-239.825851
 30
0.0
  0
VERTEX
  5
24B
330
248
100
AcDbEntity
  8
0
370
     0
100
AcDbVertex
100
AcDb2dVertex
 10
-28.325848
 20
-237.227768
 30
0.0
  0
SEQEND
  5
24C
330
248
100
AcDbEntity
  8
0
 62
     7
370
    18
  0
ENDBLK
  5
147
330
145
100
AcDbEntity
  8
0
100
AcDbBlockEnd
  0
BLOCK
  5
149
330
148
100
AcDbEntity
  8
0
100
AcDbBlockBegin
  2
BLOCK1436
 70
     0
 10
0.0
 20
0.0
 30
0.0
  3
BLOCK1436
  1

  0
LINE
  5
24D
330
148
100
AcDbEntity
  8
0
 62
     7
370
    35
100
AcDbLine
 10
0.0
 20
-284.0
 30
0.0
 11
0.0
 21
-264.0
 31
0.0
  0
LINE
  5
24E
330
148
100
AcDbEntity
  8
0
 62
     7
370
    35
100
AcDbLine
 10
-5.0
 20
-289.0
 30
0.0
 11
-5.0
 21
-264.0
 31
0.0
  0
LINE
  5
24F
330
148
100
AcDbEntity
  8
0
 62
     7
370
    35
100
AcDbLine
 10
-5.0
 20
-264.0
 30
0.0
 11
-5.0
 21
-239.0
 31
0.0
  0
LINE
  5
250
330
148
100
AcDbEntity
  8
0
 62
     7
370
    35
100
AcDbLine
 10
0.0
 20
-264.0
 30
0.0
 11
0.0
 21
-244.0
 31
0.0
  0
LINE
  5
251
330
148
100
AcDbEntity
  8
0
 62
     7
370
    35
100
AcDbLine
 10
12.0
 20
-244.0
 30
0.0
 11
12.0
 21
-264.0
 31
0.0
  0
LINE
  5
252
330
148
100
AcDbEntity
  8
0
 62
     7
370
    35
100
AcDbLine
 10
12.0
 20
-264.0
 30
0.0
 11
12.0
 21
-284.0
 31
0.0
  0
LINE
  5
253
330
148
100
AcDbEntity
  8
0
 62
     7
370
    35
100
AcDbLine
 10
17.0
 20
-289.0
 30
0.0
 11
17.0
 21
-264.0
 31
0.0
  0
LINE
  5
254
330
148
100
AcDbEntity
  8
0
 62
     7
370
    35
100
AcDbLine
 10
17.0
 20
-264.0
 30
0.0
 11
17.0
 21
-239.0
 31
0.0
  0
LINE
  5
255
330
148
100
AcDbEntity
  8
0
 62
     7
370
    35
100
AcDbLine
 10
29.0
 20
-264.0
 30
0.0
 11
29.0
 21
-239.0
 31
0.0
  0
LINE
  5
256
330
148
100
AcDbEntity
  8
0
 62
     7
370
    35
100
AcDbLine
 10
29.0
 20
-289.0
 30
0.0
 11
29.0
 21
-264.0
 31
0.0
  0
LINE
  5
257
330
148
100
AcDbEntity
  8
0
 62
     7
370
    35
100
AcDbLine
 10
-28.0
 20
-287.0
 30
0.0
 11
-28.0
 21
-264.0
 31
0.0
  0
LINE
  5
258
330
148
100
AcDbEntity
  8
0
 62
     7
370
    35
100
AcDbLine
 10
-28.0
 20
-264.0
 30
0.0
 11
-28.0
 21
-241.0
 31
0.0
  0
LINE
  5
259
330
148
100
AcDbEntity
  8
0
 62
     7
370
    35
100
AcDbLine
 10
-26.0
 20
-264.0
 30
0.0
 11
-26.0
 21
-239.0
 31
0.0
  0
LINE
  5
25A
330
148
100
AcDbEntity
  8
0
 62
     7
370
    35
100
AcDbLine
 10
-26.0
 20
-289.0
 30
0.0
 11
-26.0
 21
-264.0
 31
0.0
  0
LINE
  5
25B
330
148
100
AcDbEntity
  8
0
 62
     7
370
    35
100
AcDbLine
 10
0.0
 20
-284.0
 30
0.0
 11
-5.0
 21
-289.0
 31
0.0
  0
LINE
  5
25C
330
148
100
AcDbEntity
  8
0
 62
     7
370
    35
100
AcDbLine
 10
0.0
 20
-244.0
 30
0.0
 11
-5.0
 21
-239.0
 31
0.0
  0
LINE
  5
25D
330
148
100
AcDbEntity
  8
0
 62
     7
370
    35
100
AcDbLine
 10
0.0
 20
-244.0
 30
0.0
 11
12.0
 21
-244.0
 31
0.0
  0
LINE
  5
25E
330
148
100
AcDbEntity
  8
0
 62
     7
370
    35
100
AcDbLine
 10
0.0
 20
-284.0
 30
0.0
 11
12.0
 21
-284.0
 31
0.0
  0
LINE
  5
25F
330
148
100
AcDbEntity
  8
0
 62
     7
370
    35
100
AcDbLine
 10
12.0
 20
-284.0
 30
0.0
 11
17.0
 21
-289.0
 31
0.0
  0
LINE
  5
260
330
148
100
AcDbEntity
  8
0
 62
     7
370
    35
100
AcDbLine
 10
12.0
 20
-244.0
 30
0.0
 11
17.0
 21
-239.0
 31
0.0
  0
LINE
  5
261
330
148
100
AcDbEntity
  8
0
 62
     7
370
    35
100
AcDbLine
 10
17.0
 20
-239.0
 30
0.0
 11
29.0
 21
-239.0
 31
0.0
  0
LINE
  5
262
330
148
100
AcDbEntity
  8
0
 62
     7
370
    35
100
AcDbLine
 10
17.0
 20
-289.0
 30
0.0
 11
29.0
 21
-289.0
 31
0.0
  0
LINE
  5
263
330
148
100
AcDbEntity
  8
0
 62
     7
370
    35
100
AcDbLine
 10
-26.0
 20
-239.0
 30
0.0
 11
-5.0
 21
-239.0
 31
0.0
  0
LINE
  5
264
330
148
100
AcDbEntity
  8
0
 62
     7
370
    35
100
AcDbLine
 10
-26.0
 20
-289.0
 30
0.0
 11
-5.0
 21
-289.0
 31
0.0
  0
LINE
  5
265
330
148
100
AcDbEntity
  8
0
 62
     7
370
    35
100
AcDbLine
 10
-28.0
 20
-287.0
 30
0.0
 11
-26.0
 21
-289.0
 31
0.0
  0
LINE
  5
266
330
148
100
AcDbEntity
  8
0
 62
     7
370
    35
100
AcDbLine
 10
-28.0
 20
-241.0
 30
0.0
 11
-26.0
 21
-239.0
 31
0.0
  0
ENDBLK
  5
14A
330
148
100
AcDbEntity
  8
0
100
AcDbBlockEnd
  0
BLOCK
  5
14C
330
14B
100
AcDbEntity
  8
0
100
AcDbBlockBegin
  2
BLOCK1437
 70
     0
 10
0.0
 20
0.0
 30
0.0
  3
BLOCK1437
  1

  0
TEXT
  5
267
330
14B
100
AcDbEntity
  8
0
 62
     7
370
    18
100
AcDbText
 10
0.0
 20
-161.952454
 30
0.0
 40
3.5
  1
Section view B-B
 41
0.77322
 72
     5
 11
36.72797
 21
-161.952454
 31
0.0
100
AcDbText
  0
TEXT
  5
268
330
14B
100
AcDbEntity
  8
0
 62
     7
370
    18
100
AcDbText
 10
0.0
 20
-168.600006
 30
0.0
 40
3.5
  1
Scale:
 41
0.825348
 72
     5
 11
12.242658
 21
-168.600006
 31
0.0
100
AcDbText
  0
TEXT
  5
269
330
14B
100
AcDbEntity
  8
0
 62
     7
370
    18
100
AcDbText
 10
12.242658
 20
-168.600006
 30
0.0
 40
3.5
  1
  1:1
 41
0.631999
 72
     5
 11
20.985315
 21
-168.600006
 31
0.0
100
AcDbText
  0
ENDBLK
  5
14D
330
14B
100
AcDbEntity
  8
0
100
AcDbBlockEnd
  0
BLOCK
  5
14F
330
14E
100
AcDbEntity
  8
0
100
AcDbBlockBegin
  2
*D75
 70
     1
 10
0.0
 20
0.0
 30
0.0
  3
*D75
  1

  0
SOLID
  5
26A
330
14E
100
AcDbEntity
  8
0
 62
     7
370
    18
100
AcDbTrace
 10
112.733707
 20
135.961184
 30
0.0
 11
115.631485
 21
136.737642
 31
0.0
 12
112.733707
 22
135.961184
 32
0.0
 13
112.733707
 23
137.514101
 33
0.0
  0
SOLID
  5
26B
330
14E
100
AcDbEntity
  8
0
 62
     7
370
    18
100
AcDbTrace
 10
81.529263
 20
137.514101
 30
0.0
 11
78.631485
 21
136.737642
 31
0.0
 12
81.529263
 22
137.514101
 32
0.0
 13
81.529263
 23
135.961184
 33
0.0
  0
TEXT
  5
26C
330
14E
100
AcDbEntity
  8
0
 62
     7
370
    18
100
AcDbText
 10
91.71138
 20
139.737642
 30
0.0
 40
3.5
  1
37
 41
0.793801
 72
     5
 11
96.606485
 21
139.737642
 31
0.0
100
AcDbText
  0
TEXT
  5
26D
330
14E
100
AcDbEntity
  8
0
 62
     7
370
    18
100
AcDbText
 10
98.356484
 20
139.737642
 30
0.0
 40
3.5
  1
%%p1
 41
0.680287
 72
     5
 11
102.55159
 21
139.737642
 31
0.0
100
AcDbText
  0
LINE
  5
26E
330
14E
100
AcDbEntity
  8
0
 62
     7
370
    18
100
AcDbLine
 10
78.631485
 20
122.06476
 30
0.0
 11
78.631485
 21
138.737642
 31
0.0
  0
LINE
  5
26F
330
14E
100
AcDbEntity
  8
0
 62
     7
370
    18
100
AcDbLine
 10
115.631485
 20
111.864763
 30
0.0
 11
115.631485
 21
138.737642
 31
0.0
  0
LINE
  5
270
330
14E
100
AcDbEntity
  8
0
 62
     7
370
    18
100
AcDbLine
 10
81.529263
 20
136.737642
 30
0.0
 11
112.733707
 21
136.737642
 31
0.0
  0
POLYLINE
  5
271
330
14E
100
AcDbEntity
  8
0
 62
     7
370
    18
100
AcDb2dPolyline
 66
     1
 10
0.0
 20
0.0
 30
0.0
 70
     1
  0
VERTEX
  5
272
330
271
100
AcDbEntity
  8
0
370
     0
100
AcDbVertex
100
AcDb2dVertex
 10
112.733707
 20
135.961184
 30
0.0
  0
VERTEX
  5
273
330
271
100
AcDbEntity
  8
0
370
     0
100
AcDbVertex
100
AcDb2dVertex
 10
115.631485
 20
136.737642
 30
0.0
  0
VERTEX
  5
274
330
271
100
AcDbEntity
  8
0
370
     0
100
AcDbVertex
100
AcDb2dVertex
 10
112.733707
 20
137.514101
 30
0.0
  0
SEQEND
  5
275
330
271
100
AcDbEntity
  8
0
 62
     7
370
    18
  0
POLYLINE
  5
276
330
14E
100
AcDbEntity
  8
0
 62
     7
370
    18
100
AcDb2dPolyline
 66
     1
 10
0.0
 20
0.0
 30
0.0
 70
     1
  0
VERTEX
  5
277
330
276
100
AcDbEntity
  8
0
370
     0
100
AcDbVertex
100
AcDb2dVertex
 10
81.529263
 20
137.514101
 30
0.0
  0
VERTEX
  5
278
330
276
100
AcDbEntity
  8
0
370
     0
100
AcDbVertex
100
AcDb2dVertex
 10
78.631485
 20
136.737642
 30
0.0
  0
VERTEX
  5
279
330
276
100
AcDbEntity
  8
0
370
     0
100
AcDbVertex
100
AcDb2dVertex
 10
81.529263
 20
135.961184
 30
0.0
  0
SEQEND
  5
27A
330
276
100
AcDbEntity
  8
0
 62
     7
370
    18
  0
ENDBLK
  5
150
330
14E
100
AcDbEntity
  8
0
100
AcDbBlockEnd
  0
BLOCK
  5
152
330
151
100
AcDbEntity
  8
0
100
AcDbBlockBegin
  2
*D76
 70
     1
 10
0.0
 20
0.0
 30
0.0
  3
*D76
  1

  0
SOLID
  5
27B
330
151
100
AcDbEntity
  8
0
 62
     7
370
    18
100
AcDbTrace
 10
57.93565
 20
89.162538
 30
0.0
 11
58.712109
 21
86.264757
 31
0.0
 12
57.93565
 22
89.162538
 32
0.0
 13
59.488567
 23
89.162538
 33
0.0
  0
SOLID
  5
27C
330
151
100
AcDbEntity
  8
0
 62
     7
370
    18
100
AcDbTrace
 10
59.488567
 20
108.966982
 30
0.0
 11
58.712109
 21
111.864763
 31
0.0
 12
59.488567
 22
108.966982
 32
0.0
 13
57.93565
 23
108.966982
 33
0.0
  0
TEXT
  5
27D
330
151
100
AcDbEntity
  8
0
 62
     7
370
    18
100
AcDbText
 10
55.712109
 20
68.138521
 30
0.0
 40
3.5
  1
25,6
 50
90.0
 41
0.767144
 72
     5
 11
55.712109
 21
76.704958
 31
0.0
100
AcDbText
  0
TEXT
  5
27E
330
151
100
AcDbEntity
  8
0
 62
     7
370
    18
100
AcDbText
 10
55.712109
 20
78.45495
 30
0.0
 40
3.5
  1
%%p0,1
 50
90.0
 41
0.704457
 72
     5
 11
55.712109
 21
86.32139
 31
0.0
100
AcDbText
  0
TEXT
  5
27F
330
151
100
AcDbEntity
  8
0
 62
     7
370
    18
100
AcDbText
 10
55.712109
 20
64.57184
 30
0.0
 40
3.5
  1
%%c
 50
90.0
 41
0.905887
 72
     5
 11
55.712109
 21
67.138521
 31
0.0
100
AcDbText
  0
LINE
  5
280
330
151
100
AcDbEntity
  8
0
 62
     7
370
    18
100
AcDbLine
 10
78.631485
 20
86.264757
 30
0.0
 11
56.712109
 21
86.264757
 31
0.0
  0
LINE
  5
281
330
151
100
AcDbEntity
  8
0
 62
     7
370
    18
100
AcDbLine
 10
78.631485
 20
111.864763
 30
0.0
 11
56.712109
 21
111.864763
 31
0.0
  0
LINE
  5
282
330
151
100
AcDbEntity
  8
0
 62
     7
370
    18
100
AcDbLine
 10
58.712109
 20
64.571855
 30
0.0
 11
58.712109
 21
86.264757
 31
0.0
  0
LINE
  5
283
330
151
100
AcDbEntity
  8
0
 62
     7
370
    18
100
AcDbLine
 10
58.712109
 20
89.162538
 30
0.0
 11
58.712109
 21
108.966982
 31
0.0
  0
POLYLINE
  5
284
330
151
100
AcDbEntity
  8
0
 62
     7
370
    18
100
AcDb2dPolyline
 66
     1
 10
0.0
 20
0.0
 30
0.0
 70
     1
  0
VERTEX
  5
285
330
284
100
AcDbEntity
  8
0
370
     0
100
AcDbVertex
100
AcDb2dVertex
 10
57.93565
 20
89.162538
 30
0.0
  0
VERTEX
  5
286
330
284
100
AcDbEntity
  8
0
370
     0
100
AcDbVertex
100
AcDb2dVertex
 10
58.712109
 20
86.264757
 30
0.0
  0
VERTEX
  5
287
330
284
100
AcDbEntity
  8
0
370
     0
100
AcDbVertex
100
AcDb2dVertex
 10
59.488567
 20
89.162538
 30
0.0
  0
SEQEND
  5
288
330
284
100
AcDbEntity
  8
0
 62
     7
370
    18
  0
POLYLINE
  5
289
330
151
100
AcDbEntity
  8
0
 62
     7
370
    18
100
AcDb2dPolyline
 66
     1
 10
0.0
 20
0.0
 30
0.0
 70
     1
  0
VERTEX
  5
28A
330
289
100
AcDbEntity
  8
0
370
     0
100
AcDbVertex
100
AcDb2dVertex
 10
59.488567
 20
108.966982
 30
0.0
  0
VERTEX
  5
28B
330
289
100
AcDbEntity
  8
0
370
     0
100
AcDbVertex
100
AcDb2dVertex
 10
58.712109
 20
111.864763
 30
0.0
  0
VERTEX
  5
28C
330
289
100
AcDbEntity
  8
0
370
     0
100
AcDbVertex
100
AcDb2dVertex
 10
57.93565
 20
108.966982
 30
0.0
  0
SEQEND
  5
28D
330
289
100
AcDbEntity
  8
0
 62
     7
370
    18
  0
ENDBLK
  5
153
330
151
100
AcDbEntity
  8
0
100
AcDbBlockEnd
  0
BLOCK
  5
155
330
154
100
AcDbEntity
  8
0
100
AcDbBlockBegin
  2
*D77
 70
     1
 10
0.0
 20
0.0
 30
0.0
  3
*D77
  1

  0
SOLID
  5
28E
330
154
100
AcDbEntity
  8
0
 62
     7
370
    18
100
AcDbTrace
 10
138.529263
 20
64.486116
 30
0.0
 11
135.631485
 21
63.709658
 31
0.0
 12
138.529263
 22
64.486116
 32
0.0
 13
138.529263
 23
62.933199
 33
0.0
  0
SOLID
  5
28F
330
154
100
AcDbEntity
  8
0
 62
     7
370
    18
100
AcDbTrace
 10
126.733707
 20
62.933199
 30
0.0
 11
129.631485
 21
63.709658
 31
0.0
 12
126.733707
 22
62.933199
 32
0.0
 13
126.733707
 23
64.486116
 33
0.0
  0
TEXT
  5
290
330
154
100
AcDbEntity
  8
0
 62
     7
370
    18
100
AcDbText
 10
151.664288
 20
66.709658
 30
0.0
 40
3.5
  1
6
 41
0.863843
 72
     5
 11
154.111843
 21
66.709658
 31
0.0
100
AcDbText
  0
TEXT
  5
291
330
154
100
AcDbEntity
  8
0
 62
     7
370
    18
100
AcDbText
 10
155.861843
 20
71.959658
 30
0.0
 40
3.5
  1
+1
 41
0.680288
 72
     5
 11
160.05695
 21
71.959658
 31
0.0
100
AcDbText
  0
TEXT
  5
292
330
154
100
AcDbEntity
  8
0
 62
     7
370
    18
100
AcDbText
 10
155.861843
 20
66.709658
 30
0.0
 40
3.5
  1
 0
 41
0.718035
 72
     5
 11
160.409397
 21
66.709658
 31
0.0
100
AcDbText
  0
TEXT
  5
293
330
154
100
AcDbEntity
  8
0
 62
     7
370
    18
100
AcDbText
 10
145.769184
 20
66.709658
 30
0.0
 40
3.5
  1
2x
 41
0.863842
 72
     5
 11
150.664288
 21
66.709658
 31
0.0
100
AcDbText
  0
LINE
  5
294
330
154
100
AcDbEntity
  8
0
 62
     7
370
    18
100
AcDbLine
 10
129.631485
 20
77.56476
 30
0.0
 11
129.631485
 21
61.709658
 31
0.0
  0
LINE
  5
295
330
154
100
AcDbEntity
  8
0
 62
     7
370
    18
100
AcDbLine
 10
135.631485
 20
74.06476
 30
0.0
 11
135.631485
 21
61.709658
 31
0.0
  0
LINE
  5
296
330
154
100
AcDbEntity
  8
0
 62
     7
370
    18
100
AcDbLine
 10
124.631485
 20
63.709658
 30
0.0
 11
126.733707
 21
63.709658
 31
0.0
  0
LINE
  5
297
330
154
100
AcDbEntity
  8
0
 62
     7
370
    18
100
AcDbLine
 10
129.631485
 20
63.709658
 30
0.0
 11
135.631485
 21
63.709658
 31
0.0
  0
LINE
  5
298
330
154
100
AcDbEntity
  8
0
 62
     7
370
    18
100
AcDbLine
 10
138.529263
 20
63.709658
 30
0.0
 11
160.409393
 21
63.709658
 31
0.0
  0
POLYLINE
  5
299
330
154
100
AcDbEntity
  8
0
 62
     7
370
    18
100
AcDb2dPolyline
 66
     1
 10
0.0
 20
0.0
 30
0.0
 70
     1
  0
VERTEX
  5
29A
330
299
100
AcDbEntity
  8
0
370
     0
100
AcDbVertex
100
AcDb2dVertex
 10
138.529263
 20
64.486116
 30
0.0
  0
VERTEX
  5
29B
330
299
100
AcDbEntity
  8
0
370
     0
100
AcDbVertex
100
AcDb2dVertex
 10
135.631485
 20
63.709658
 30
0.0
  0
VERTEX
  5
29C
330
299
100
AcDbEntity
  8
0
370
     0
100
AcDbVertex
100
AcDb2dVertex
 10
138.529263
 20
62.933199
 30
0.0
  0
SEQEND
  5
29D
330
299
100
AcDbEntity
  8
0
 62
     7
370
    18
  0
POLYLINE
  5
29E
330
154
100
AcDbEntity
  8
0
 62
     7
370
    18
100
AcDb2dPolyline
 66
     1
 10
0.0
 20
0.0
 30
0.0
 70
     1
  0
VERTEX
  5
29F
330
29E
100
AcDbEntity
  8
0
370
     0
100
AcDbVertex
100
AcDb2dVertex
 10
126.733707
 20
62.933199
 30
0.0
  0
VERTEX
  5
2A0
330
29E
100
AcDbEntity
  8
0
370
     0
100
AcDbVertex
100
AcDb2dVertex
 10
129.631485
 20
63.709658
 30
0.0
  0
VERTEX
  5
2A1
330
29E
100
AcDbEntity
  8
0
370
     0
100
AcDbVertex
100
AcDb2dVertex
 10
126.733707
 20
64.486116
 30
0.0
  0
SEQEND
  5
2A2
330
29E
100
AcDbEntity
  8
0
 62
     7
370
    18
  0
ENDBLK
  5
156
330
154
100
AcDbEntity
  8
0
100
AcDbBlockEnd
  0
BLOCK
  5
158
330
157
100
AcDbEntity
  8
0
100
AcDbBlockBegin
  2
*D78
 70
     1
 10
0.0
 20
0.0
 30
0.0
  3
*D78
  1

  0
SOLID
  5
2A3
330
157
100
AcDbEntity
  8
0
 62
     7
370
    18
100
AcDbTrace
 10
165.19455
 20
110.666986
 30
0.0
 11
164.418091
 21
113.56476
 31
0.0
 12
165.19455
 22
110.666986
 32
0.0
 13
163.641632
 23
110.666986
 33
0.0
  0
SOLID
  5
2A4
330
157
100
AcDbEntity
  8
0
 62
     7
370
    18
100
AcDbTrace
 10
163.641632
 20
87.462534
 30
0.0
 11
164.418091
 21
84.56476
 31
0.0
 12
163.641632
 22
87.462534
 32
0.0
 13
165.19455
 23
87.462534
 33
0.0
  0
TEXT
  5
2A5
330
157
100
AcDbEntity
  8
0
 62
     7
370
    18
100
AcDbText
 10
161.418091
 20
95.251764
 30
0.0
 40
3.5
  1
29
 50
90.0
 41
0.815852
 72
     5
 11
161.418091
 21
100.146875
 31
0.0
100
AcDbText
  0
TEXT
  5
2A6
330
157
100
AcDbEntity
  8
0
 62
     7
370
    18
100
AcDbText
 10
156.168091
 20
101.896875
 30
0.0
 40
3.5
  1
 0
 50
90.0
 41
0.718034
 72
     5
 11
156.168091
 21
106.444422
 31
0.0
100
AcDbText
  0
TEXT
  5
2A7
330
157
100
AcDbEntity
  8
0
 62
     7
370
    18
100
AcDbText
 10
161.418091
 20
101.896875
 30
0.0
 40
3.5
  1
-1
 50
90.0
 41
0.680286
 72
     5
 11
161.418091
 21
106.091974
 31
0.0
100
AcDbText
  0
TEXT
  5
2A8
330
157
100
AcDbEntity
  8
0
 62
     7
370
    18
100
AcDbText
 10
161.418091
 20
91.685099
 30
0.0
 40
3.5
  1
%%c
 50
90.0
 41
0.905882
 72
     5
 11
161.418091
 21
94.251764
 31
0.0
100
AcDbText
  0
LINE
  5
2A9
330
157
100
AcDbEntity
  8
0
 62
     7
370
    18
100
AcDbLine
 10
135.631485
 20
84.56476
 30
0.0
 11
166.418091
 21
84.56476
 31
0.0
  0
LINE
  5
2AA
330
157
100
AcDbEntity
  8
0
 62
     7
370
    18
100
AcDbLine
 10
135.631485
 20
113.56476
 30
0.0
 11
166.418091
 21
113.56476
 31
0.0
  0
LINE
  5
2AB
330
157
100
AcDbEntity
  8
0
 62
     7
370
    18
100
AcDbLine
 10
164.418091
 20
87.462534
 30
0.0
 11
164.418091
 21
110.666986
 31
0.0
  0
POLYLINE
  5
2AC
330
157
100
AcDbEntity
  8
0
 62
     7
370
    18
100
AcDb2dPolyline
 66
     1
 10
0.0
 20
0.0
 30
0.0
 70
     1
  0
VERTEX
  5
2AD
330
2AC
100
AcDbEntity
  8
0
370
     0
100
AcDbVertex
100
AcDb2dVertex
 10
165.19455
 20
110.666986
 30
0.0
  0
VERTEX
  5
2AE
330
2AC
100
AcDbEntity
  8
0
370
     0
100
AcDbVertex
100
AcDb2dVertex
 10
164.418091
 20
113.56476
 30
0.0
  0
VERTEX
  5
2AF
330
2AC
100
AcDbEntity
  8
0
370
     0
100
AcDbVertex
100
AcDb2dVertex
 10
163.641632
 20
110.666986
 30
0.0
  0
SEQEND
  5
2B0
330
2AC
100
AcDbEntity
  8
0
 62
     7
370
    18
  0
POLYLINE
  5
2B1
330
157
100
AcDbEntity
  8
0
 62
     7
370
    18
100
AcDb2dPolyline
 66
     1
 10
0.0
 20
0.0
 30
0.0
 70
     1
  0
VERTEX
  5
2B2
330
2B1
100
AcDbEntity
  8
0
370
     0
100
AcDbVertex
100
AcDb2dVertex
 10
163.641632
 20
87.462534
 30
0.0
  0
VERTEX
  5
2B3
330
2B1
100
AcDbEntity
  8
0
370
     0
100
AcDbVertex
100
AcDb2dVertex
 10
164.418091
 20
84.56476
 30
0.0
  0
VERTEX
  5
2B4
330
2B1
100
AcDbEntity
  8
0
370
     0
100
AcDbVertex
100
AcDb2dVertex
 10
165.19455
 20
87.462534
 30
0.0
  0
SEQEND
  5
2B5
330
2B1
100
AcDbEntity
  8
0
 62
     7
370
    18
  0
ENDBLK
  5
159
330
157
100
AcDbEntity
  8
0
100
AcDbBlockEnd
  0
BLOCK
  5
15B
330
15A
100
AcDbEntity
  8
0
100
AcDbBlockBegin
  2
*D79
 70
     1
 10
0.0
 20
0.0
 30
0.0
  3
*D79
  1

  0
SOLID
  5
2B6
330
15A
100
AcDbEntity
  8
0
 62
     7
370
    18
100
AcDbTrace
 10
180.026001
 20
117.666986
 30
0.0
 11
179.249542
 21
120.56476
 31
0.0
 12
180.026001
 22
117.666986
 32
0.0
 13
178.473083
 23
117.666986
 33
0.0
  0
SOLID
  5
2B7
330
15A
100
AcDbEntity
  8
0
 62
     7
370
    18
100
AcDbTrace
 10
178.473083
 20
80.462534
 30
0.0
 11
179.249542
 21
77.56476
 31
0.0
 12
178.473083
 22
80.462534
 32
0.0
 13
180.026001
 23
80.462534
 33
0.0
  0
TEXT
  5
2B8
330
15A
100
AcDbEntity
  8
0
 62
     7
370
    18
100
AcDbText
 10
176.249542
 20
95.07554
 30
0.0
 40
3.5
  1
43
 50
90.0
 41
0.850955
 72
     5
 11
176.249542
 21
100.323099
 31
0.0
100
AcDbText
  0
TEXT
  5
2B9
330
15A
100
AcDbEntity
  8
0
 62
     7
370
    18
100
AcDbText
 10
170.999542
 20
102.073099
 30
0.0
 40
3.5
  1
+1
 50
90.0
 41
0.680286
 72
     5
 11
170.999542
 21
106.268198
 31
0.0
100
AcDbText
  0
TEXT
  5
2BA
330
15A
100
AcDbEntity
  8
0
 62
     7
370
    18
100
AcDbText
 10
176.249542
 20
102.073099
 30
0.0
 40
3.5
  1
 0
 50
90.0
 41
0.718034
 72
     5
 11
176.249542
 21
106.620645
 31
0.0
100
AcDbText
  0
TEXT
  5
2BB
330
15A
100
AcDbEntity
  8
0
 62
     7
370
    18
100
AcDbText
 10
176.249542
 20
91.508875
 30
0.0
 40
3.5
  1
%%c
 50
90.0
 41
0.905882
 72
     5
 11
176.249542
 21
94.07554
 31
0.0
100
AcDbText
  0
LINE
  5
2BC
330
15A
100
AcDbEntity
  8
0
 62
     7
370
    18
100
AcDbLine
 10
135.631485
 20
77.56476
 30
0.0
 11
181.249542
 21
77.56476
 31
0.0
  0
LINE
  5
2BD
330
15A
100
AcDbEntity
  8
0
 62
     7
370
    18
100
AcDbLine
 10
135.631485
 20
120.56476
 30
0.0
 11
181.249542
 21
120.56476
 31
0.0
  0
LINE
  5
2BE
330
15A
100
AcDbEntity
  8
0
 62
     7
370
    18
100
AcDbLine
 10
179.249542
 20
80.462534
 30
0.0
 11
179.249542
 21
117.666986
 31
0.0
  0
POLYLINE
  5
2BF
330
15A
100
AcDbEntity
  8
0
 62
     7
370
    18
100
AcDb2dPolyline
 66
     1
 10
0.0
 20
0.0
 30
0.0
 70
     1
  0
VERTEX
  5
2C0
330
2BF
100
AcDbEntity
  8
0
370
     0
100
AcDbVertex
100
AcDb2dVertex
 10
180.026001
 20
117.666986
 30
0.0
  0
VERTEX
  5
2C1
330
2BF
100
AcDbEntity
  8
0
370
     0
100
AcDbVertex
100
AcDb2dVertex
 10
179.249542
 20
120.56476
 30
0.0
  0
VERTEX
  5
2C2
330
2BF
100
AcDbEntity
  8
0
370
     0
100
AcDbVertex
100
AcDb2dVertex
 10
178.473083
 20
117.666986
 30
0.0
  0
SEQEND
  5
2C3
330
2BF
100
AcDbEntity
  8
0
 62
     7
370
    18
  0
POLYLINE
  5
2C4
330
15A
100
AcDbEntity
  8
0
 62
     7
370
    18
100
AcDb2dPolyline
 66
     1
 10
0.0
 20
0.0
 30
0.0
 70
     1
  0
VERTEX
  5
2C5
330
2C4
100
AcDbEntity
  8
0
370
     0
100
AcDbVertex
100
AcDb2dVertex
 10
178.473083
 20
80.462534
 30
0.0
  0
VERTEX
  5
2C6
330
2C4
100
AcDbEntity
  8
0
370
     0
100
AcDbVertex
100
AcDb2dVertex
 10
179.249542
 20
77.56476
 30
0.0
  0
VERTEX
  5
2C7
330
2C4
100
AcDbEntity
  8
0
370
     0
100
AcDbVertex
100
AcDb2dVertex
 10
180.026001
 20
80.462534
 30
0.0
  0
SEQEND
  5
2C8
330
2C4
100
AcDbEntity
  8
0
 62
     7
370
    18
  0
ENDBLK
  5
15C
330
15A
100
AcDbEntity
  8
0
100
AcDbBlockEnd
  0
BLOCK
  5
15E
330
15D
100
AcDbEntity
  8
0
100
AcDbBlockBegin
  2
*D80
 70
     1
 10
0.0
 20
0.0
 30
0.0
  3
*D80
  1

  0
SOLID
  5
2C9
330
15D
100
AcDbEntity
  8
0
 62
     7
370
    18
100
AcDbTrace
 10
146.125542
 20
104.266985
 30
0.0
 11
145.349083
 21
107.164759
 31
0.0
 12
146.125542
 22
104.266985
 32
0.0
 13
144.572624
 23
104.266985
 33
0.0
  0
SOLID
  5
2CA
330
15D
100
AcDbEntity
  8
0
 62
     7
370
    18
100
AcDbTrace
 10
144.572624
 20
93.862535
 30
0.0
 11
145.349083
 21
90.964762
 31
0.0
 12
144.572624
 22
93.862535
 32
0.0
 13
146.125542
 23
93.862535
 33
0.0
  0
TEXT
  5
2CB
330
15D
100
AcDbEntity
  8
0
 62
     7
370
    18
100
AcDbText
 10
142.349083
 20
128.005327
 30
0.0
 40
3.5
  1
16,2
 50
90.0
 41
0.704457
 72
     5
 11
142.349083
 21
135.871767
 31
0.0
100
AcDbText
  0
TEXT
  5
2CC
330
15D
100
AcDbEntity
  8
0
 62
     7
370
    18
100
AcDbText
 10
137.099083
 20
137.621763
 30
0.0
 40
3.5
  1
+0,2
 50
90.0
 41
0.704091
 72
     5
 11
137.099083
 21
146.1882
 31
0.0
100
AcDbText
  0
TEXT
  5
2CD
330
15D
100
AcDbEntity
  8
0
 62
     7
370
    18
100
AcDbText
 10
142.349083
 20
137.621767
 30
0.0
 40
3.5
  1
 0
 50
90.0
 41
0.718035
 72
     5
 11
142.349083
 21
142.169321
 31
0.0
100
AcDbText
  0
TEXT
  5
2CE
330
15D
100
AcDbEntity
  8
0
 62
     7
370
    18
100
AcDbText
 10
142.349083
 20
124.438669
 30
0.0
 40
3.5
  1
%%c
 50
90.0
 41
0.905882
 72
     5
 11
142.349083
 21
127.005335
 31
0.0
100
AcDbText
  0
LINE
  5
2CF
330
15D
100
AcDbEntity
  8
0
 62
     7
370
    18
100
AcDbLine
 10
135.631485
 20
90.964762
 30
0.0
 11
147.349083
 21
90.964762
 31
0.0
  0
LINE
  5
2D0
330
15D
100
AcDbEntity
  8
0
 62
     7
370
    18
100
AcDbLine
 10
135.631485
 20
107.164759
 30
0.0
 11
147.349083
 21
107.164759
 31
0.0
  0
LINE
  5
2D1
330
15D
100
AcDbEntity
  8
0
 62
     7
370
    18
100
AcDbLine
 10
145.349083
 20
93.862535
 30
0.0
 11
145.349083
 21
104.266985
 31
0.0
  0
LINE
  5
2D2
330
15D
100
AcDbEntity
  8
0
 62
     7
370
    18
100
AcDbLine
 10
145.349083
 20
107.164759
 30
0.0
 11
145.349083
 21
146.1882
 31
0.0
  0
POLYLINE
  5
2D3
330
15D
100
AcDbEntity
  8
0
 62
     7
370
    18
100
AcDb2dPolyline
 66
     1
 10
0.0
 20
0.0
 30
0.0
 70
     1
  0
VERTEX
  5
2D4
330
2D3
100
AcDbEntity
  8
0
370
     0
100
AcDbVertex
100
AcDb2dVertex
 10
146.125542
 20
104.266985
 30
0.0
  0
VERTEX
  5
2D5
330
2D3
100
AcDbEntity
  8
0
370
     0
100
AcDbVertex
100
AcDb2dVertex
 10
145.349083
 20
107.164759
 30
0.0
  0
VERTEX
  5
2D6
330
2D3
100
AcDbEntity
  8
0
370
     0
100
AcDbVertex
100
AcDb2dVertex
 10
144.572624
 20
104.266985
 30
0.0
  0
SEQEND
  5
2D7
330
2D3
100
AcDbEntity
  8
0
 62
     7
370
    18
  0
POLYLINE
  5
2D8
330
15D
100
AcDbEntity
  8
0
 62
     7
370
    18
100
AcDb2dPolyline
 66
     1
 10
0.0
 20
0.0
 30
0.0
 70
     1
  0
VERTEX
  5
2D9
330
2D8
100
AcDbEntity
  8
0
370
     0
100
AcDbVertex
100
AcDb2dVertex
 10
144.572624
 20
93.862535
 30
0.0
  0
VERTEX
  5
2DA
330
2D8
100
AcDbEntity
  8
0
370
     0
100
AcDbVertex
100
AcDb2dVertex
 10
145.349083
 20
90.964762
 30
0.0
  0
VERTEX
  5
2DB
330
2D8
100
AcDbEntity
  8
0
370
     0
100
AcDbVertex
100
AcDb2dVertex
 10
146.125542
 20
93.862535
 30
0.0
  0
SEQEND
  5
2DC
330
2D8
100
AcDbEntity
  8
0
 62
     7
370
    18
  0
ENDBLK
  5
15F
330
15D
100
AcDbEntity
  8
0
100
AcDbBlockEnd
  0
BLOCK
  5
161
330
160
100
AcDbEntity
  8
0
100
AcDbBlockBegin
  2
BLOCK1438
 70
     0
 10
0.0
 20
0.0
 30
0.0
  3
BLOCK1438
  1

  0
LINE
  5
2DD
330
160
100
AcDbEntity
  8
0
 62
     7
370
    35
100
AcDbLine
 10
-26.0
 20
-77.0
 30
0.0
 11
-5.0
 21
-77.0
 31
0.0
  0
LINE
  5
2DE
330
160
100
AcDbEntity
  8
0
 62
     7
370
    35
100
AcDbLine
 10
0.0
 20
-82.0
 30
0.0
 11
-5.0
 21
-77.0
 31
0.0
  0
LINE
  5
2DF
330
160
100
AcDbEntity
  8
0
 62
     7
370
    35
100
AcDbLine
 10
0.0
 20
-82.0
 30
0.0
 11
12.0
 21
-82.0
 31
0.0
  0
LINE
  5
2E0
330
160
100
AcDbEntity
  8
0
 62
     7
370
    35
100
AcDbLine
 10
12.0
 20
-82.0
 30
0.0
 11
17.0
 21
-77.0
 31
0.0
  0
LINE
  5
2E1
330
160
100
AcDbEntity
  8
0
 62
     7
370
    35
100
AcDbLine
 10
17.0
 20
-77.0
 30
0.0
 11
29.0
 21
-77.0
 31
0.0
  0
LINE
  5
2E2
330
160
100
AcDbEntity
  8
0
 62
     7
370
    35
100
AcDbLine
 10
29.0
 20
-77.000004
 30
0.0
 11
29.0
 21
-80.500006
 31
0.0
  0
LINE
  5
2E3
330
160
100
AcDbEntity
  8
0
 62
     7
370
    35
100
AcDbLine
 10
23.0
 20
-80.5
 30
0.0
 11
29.0
 21
-80.5
 31
0.0
  0
LINE
  5
2E4
330
160
100
AcDbEntity
  8
0
 62
     7
370
    35
100
AcDbLine
 10
23.0
 20
-87.5
 30
0.0
 11
23.0
 21
-80.5
 31
0.0
  0
LINE
  5
2E5
330
160
100
AcDbEntity
  8
0
 62
     7
370
    35
100
AcDbLine
 10
23.0
 20
-87.5
 30
0.0
 11
29.0
 21
-87.5
 31
0.0
  0
LINE
  5
2E6
330
160
100
AcDbEntity
  8
0
 62
     7
370
    35
100
AcDbLine
 10
29.0
 20
-87.5
 30
0.0
 11
29.0
 21
-93.9
 31
0.0
  0
LINE
  5
2E7
330
160
100
AcDbEntity
  8
0
 62
     7
370
    35
100
AcDbLine
 10
29.0
 20
-93.9
 30
0.0
 11
9.0
 21
-93.9
 31
0.0
  0
LINE
  5
2E8
330
160
100
AcDbEntity
  8
0
 62
     7
370
    35
100
AcDbLine
 10
9.0
 20
-89.2
 30
0.0
 11
9.0
 21
-93.9
 31
0.0
  0
LINE
  5
2E9
330
160
100
AcDbEntity
  8
0
 62
     7
370
    35
100
AcDbLine
 10
-28.0
 20
-89.2
 30
0.0
 11
9.0
 21
-89.2
 31
0.0
  0
LINE
  5
2EA
330
160
100
AcDbEntity
  8
0
 62
     7
370
    35
100
AcDbLine
 10
-28.0
 20
-89.2
 30
0.0
 11
-28.0
 21
-79.0
 31
0.0
  0
LINE
  5
2EB
330
160
100
AcDbEntity
  8
0
 62
     7
370
    35
100
AcDbLine
 10
-28.0
 20
-79.0
 30
0.0
 11
-26.0
 21
-77.0
 31
0.0
  0
LINE
  5
2EC
330
160
100
AcDbEntity
  8
0
 62
     7
370
    35
100
AcDbLine
 10
-28.0
 20
-114.8
 30
0.0
 11
-28.0
 21
-102.0
 31
0.0
  0
LINE
  5
2ED
330
160
100
AcDbEntity
  8
0
 62
     7
370
    35
100
AcDbLine
 10
-28.0
 20
-102.0
 30
0.0
 11
-28.0
 21
-89.2
 31
0.0
  0
LINE
  5
2EE
330
160
100
AcDbEntity
  8
0
 62
     7
370
    35
100
AcDbLine
 10
-28.0
 20
-114.8
 30
0.0
 11
9.0
 21
-114.8
 31
0.0
  0
LINE
  5
2EF
330
160
100
AcDbEntity
  8
0
 62
     7
370
    35
100
AcDbLine
 10
-28.0
 20
-125.0
 30
0.0
 11
-28.0
 21
-114.8
 31
0.0
  0
LINE
  5
2F0
330
160
100
AcDbEntity
  8
0
 62
     7
370
    35
100
AcDbLine
 10
9.0
 20
-110.1
 30
0.0
 11
9.0
 21
-114.8
 31
0.0
  0
LINE
  5
2F1
330
160
100
AcDbEntity
  8
0
 62
     7
370
    35
100
AcDbLine
 10
9.0
 20
-102.0
 30
0.0
 11
9.0
 21
-110.1
 31
0.0
  0
LINE
  5
2F2
330
160
100
AcDbEntity
  8
0
 62
     7
370
    35
100
AcDbLine
 10
9.0
 20
-93.9
 30
0.0
 11
9.0
 21
-102.0
 31
0.0
  0
LINE
  5
2F3
330
160
100
AcDbEntity
  8
0
 62
     7
370
    35
100
AcDbLine
 10
-28.0
 20
-125.0
 30
0.0
 11
-26.0
 21
-127.0
 31
0.0
  0
LINE
  5
2F4
330
160
100
AcDbEntity
  8
0
 62
     7
370
    35
100
AcDbLine
 10
29.0
 20
-93.9
 30
0.0
 11
29.0
 21
-102.0
 31
0.0
  0
LINE
  5
2F5
330
160
100
AcDbEntity
  8
0
 62
     7
370
    35
100
AcDbLine
 10
29.0
 20
-102.0
 30
0.0
 11
29.0
 21
-110.1
 31
0.0
  0
LINE
  5
2F6
330
160
100
AcDbEntity
  8
0
 62
     7
370
    35
100
AcDbLine
 10
29.0
 20
-110.1
 30
0.0
 11
9.0
 21
-110.1
 31
0.0
  0
LINE
  5
2F7
330
160
100
AcDbEntity
  8
0
 62
     7
370
    35
100
AcDbLine
 10
-26.0
 20
-127.0
 30
0.0
 11
-5.0
 21
-127.0
 31
0.0
  0
LINE
  5
2F8
330
160
100
AcDbEntity
  8
0
 62
     7
370
    35
100
AcDbLine
 10
29.0
 20
-110.1
 30
0.0
 11
29.0
 21
-116.5
 31
0.0
  0
LINE
  5
2F9
330
160
100
AcDbEntity
  8
0
 62
     7
370
    35
100
AcDbLine
 10
0.0
 20
-122.0
 30
0.0
 11
-5.0
 21
-127.0
 31
0.0
  0
LINE
  5
2FA
330
160
100
AcDbEntity
  8
0
 62
     7
370
    35
100
AcDbLine
 10
23.0
 20
-116.5
 30
0.0
 11
29.0
 21
-116.5
 31
0.0
  0
LINE
  5
2FB
330
160
100
AcDbEntity
  8
0
 62
     7
370
    35
100
AcDbLine
 10
0.0
 20
-122.0
 30
0.0
 11
12.0
 21
-122.0
 31
0.0
  0
LINE
  5
2FC
330
160
100
AcDbEntity
  8
0
 62
     7
370
    35
100
AcDbLine
 10
23.0
 20
-123.5
 30
0.0
 11
23.0
 21
-116.5
 31
0.0
  0
LINE
  5
2FD
330
160
100
AcDbEntity
  8
0
 62
     7
370
    35
100
AcDbLine
 10
12.0
 20
-122.0
 30
0.0
 11
17.0
 21
-127.0
 31
0.0
  0
LINE
  5
2FE
330
160
100
AcDbEntity
  8
0
 62
     7
370
    35
100
AcDbLine
 10
23.0
 20
-123.5
 30
0.0
 11
29.0
 21
-123.5
 31
0.0
  0
LINE
  5
2FF
330
160
100
AcDbEntity
  8
0
 62
     7
370
    35
100
AcDbLine
 10
29.0
 20
-123.5
 30
0.0
 11
29.0
 21
-116.499998
 31
0.0
  0
LINE
  5
300
330
160
100
AcDbEntity
  8
0
 62
     7
370
    35
100
AcDbLine
 10
29.0
 20
-87.500002
 30
0.0
 11
29.0
 21
-80.5
 31
0.0
  0
LINE
  5
301
330
160
100
AcDbEntity
  8
0
 62
     7
370
    35
100
AcDbLine
 10
17.0
 20
-127.0
 30
0.0
 11
29.0
 21
-127.0
 31
0.0
  0
LINE
  5
302
330
160
100
AcDbEntity
  8
0
 62
     7
370
    35
100
AcDbLine
 10
29.0
 20
-123.5
 30
0.0
 11
29.0
 21
-127.0
 31
0.0
  0
ENDBLK
  5
162
330
160
100
AcDbEntity
  8
0
100
AcDbBlockEnd
  0
BLOCK
  5
164
330
163
100
AcDbEntity
  8
0
100
AcDbBlockBegin
  2
BLOCK1439
 70
     0
 10
0.0
 20
0.0
 30
0.0
  3
BLOCK1439
  1

  0
LINE
  5
303
330
163
100
AcDbEntity
  8
0
 62
     7
370
    18
100
AcDbLine
 10
28.563492
 20
-127.0
 30
0.0
 11
29.0
 21
-126.563492
 31
0.0
  0
LINE
  5
304
330
163
100
AcDbEntity
  8
0
 62
     7
370
    18
100
AcDbLine
 10
27.149279
 20
-127.0
 30
0.0
 11
29.0
 21
-125.149277
 31
0.0
  0
LINE
  5
305
330
163
100
AcDbEntity
  8
0
 62
     7
370
    18
100
AcDbLine
 10
25.735065
 20
-127.0
 30
0.0
 11
29.0
 21
-123.735062
 31
0.0
  0
LINE
  5
306
330
163
100
AcDbEntity
  8
0
 62
     7
370
    18
100
AcDbLine
 10
24.32085
 20
-127.0
 30
0.0
 11
27.82085
 21
-123.5
 31
0.0
  0
LINE
  5
307
330
163
100
AcDbEntity
  8
0
 62
     7
370
    18
100
AcDbLine
 10
22.906637
 20
-127.0
 30
0.0
 11
26.406637
 21
-123.5
 31
0.0
  0
LINE
  5
308
330
163
100
AcDbEntity
  8
0
 62
     7
370
    18
100
AcDbLine
 10
21.492424
 20
-127.0
 30
0.0
 11
24.992424
 21
-123.5
 31
0.0
  0
LINE
  5
309
330
163
100
AcDbEntity
  8
0
 62
     7
370
    18
100
AcDbLine
 10
20.078211
 20
-127.0
 30
0.0
 11
23.578211
 21
-123.5
 31
0.0
  0
LINE
  5
30A
330
163
100
AcDbEntity
  8
0
 62
     7
370
    18
100
AcDbLine
 10
18.663998
 20
-127.0
 30
0.0
 11
23.0
 21
-122.663994
 31
0.0
  0
LINE
  5
30B
330
163
100
AcDbEntity
  8
0
 62
     7
370
    18
100
AcDbLine
 10
17.249783
 20
-127.0
 30
0.0
 11
23.0
 21
-121.249786
 31
0.0
  0
LINE
  5
30C
330
163
100
AcDbEntity
  8
0
 62
     7
370
    18
100
AcDbLine
 10
27.749783
 20
-116.5
 30
0.0
 11
29.0
 21
-115.249786
 31
0.0
  0
LINE
  5
30D
330
163
100
AcDbEntity
  8
0
 62
     7
370
    18
100
AcDbLine
 10
16.417786
 20
-126.417786
 30
0.0
 11
23.0
 21
-119.835571
 31
0.0
  0
LINE
  5
30E
330
163
100
AcDbEntity
  8
0
 62
     7
370
    18
100
AcDbLine
 10
26.335569
 20
-116.5
 30
0.0
 11
29.0
 21
-113.835571
 31
0.0
  0
LINE
  5
30F
330
163
100
AcDbEntity
  8
0
 62
     7
370
    18
100
AcDbLine
 10
15.710678
 20
-125.710678
 30
0.0
 11
23.0
 21
-118.421356
 31
0.0
  0
LINE
  5
310
330
163
100
AcDbEntity
  8
0
 62
     7
370
    18
100
AcDbLine
 10
24.921356
 20
-116.5
 30
0.0
 11
29.0
 21
-112.421356
 31
0.0
  0
LINE
  5
311
330
163
100
AcDbEntity
  8
0
 62
     7
370
    18
100
AcDbLine
 10
15.003572
 20
-125.003571
 30
0.0
 11
23.0
 21
-117.007141
 31
0.0
  0
LINE
  5
312
330
163
100
AcDbEntity
  8
0
 62
     7
370
    18
100
AcDbLine
 10
23.507143
 20
-116.5
 30
0.0
 11
29.0
 21
-111.007141
 31
0.0
  0
LINE
  5
313
330
163
100
AcDbEntity
  8
0
 62
     7
370
    18
100
AcDbLine
 10
14.296465
 20
-124.296463
 30
0.0
 11
28.492929
 21
-110.099998
 31
0.0
  0
LINE
  5
314
330
163
100
AcDbEntity
  8
0
 62
     7
370
    18
100
AcDbLine
 10
13.589357
 20
-123.589355
 30
0.0
 11
27.078716
 21
-110.099998
 31
0.0
  0
LINE
  5
315
330
163
100
AcDbEntity
  8
0
 62
     7
370
    18
100
AcDbLine
 10
12.882251
 20
-122.882248
 30
0.0
 11
25.664501
 21
-110.099998
 31
0.0
  0
LINE
  5
316
330
163
100
AcDbEntity
  8
0
 62
     7
370
    18
100
AcDbLine
 10
12.175144
 20
-122.175148
 30
0.0
 11
24.250288
 21
-110.099998
 31
0.0
  0
LINE
  5
317
330
163
100
AcDbEntity
  8
0
 62
     7
370
    18
100
AcDbLine
 10
10.936075
 20
-122.0
 30
0.0
 11
22.836075
 21
-110.099998
 31
0.0
  0
LINE
  5
318
330
163
100
AcDbEntity
  8
0
 62
     7
370
    18
100
AcDbLine
 10
9.521861
 20
-122.0
 30
0.0
 11
21.421862
 21
-110.099998
 31
0.0
  0
LINE
  5
319
330
163
100
AcDbEntity
  8
0
 62
     7
370
    18
100
AcDbLine
 10
8.107648
 20
-122.0
 30
0.0
 11
20.007648
 21
-110.099998
 31
0.0
  0
LINE
  5
31A
330
163
100
AcDbEntity
  8
0
 62
     7
370
    18
100
AcDbLine
 10
6.693434
 20
-122.0
 30
0.0
 11
18.593433
 21
-110.099998
 31
0.0
  0
LINE
  5
31B
330
163
100
AcDbEntity
  8
0
 62
     7
370
    18
100
AcDbLine
 10
5.279221
 20
-122.0
 30
0.0
 11
17.17922
 21
-110.099998
 31
0.0
  0
LINE
  5
31C
330
163
100
AcDbEntity
  8
0
 62
     7
370
    18
100
AcDbLine
 10
3.865007
 20
-122.0
 30
0.0
 11
15.765007
 21
-110.099998
 31
0.0
  0
LINE
  5
31D
330
163
100
AcDbEntity
  8
0
 62
     7
370
    18
100
AcDbLine
 10
2.450794
 20
-122.0
 30
0.0
 11
14.350794
 21
-110.099998
 31
0.0
  0
LINE
  5
31E
330
163
100
AcDbEntity
  8
0
 62
     7
370
    18
100
AcDbLine
 10
1.03658
 20
-122.0
 30
0.0
 11
8.23658
 21
-114.800003
 31
0.0
  0
LINE
  5
31F
330
163
100
AcDbEntity
  8
0
 62
     7
370
    18
100
AcDbLine
 10
9.0
 20
-114.036583
 30
0.0
 11
12.93658
 21
-110.099998
 31
0.0
  0
LINE
  5
320
330
163
100
AcDbEntity
  8
0
 62
     7
370
    18
100
AcDbLine
 10
-5.377634
 20
-127.0
 30
0.0
 11
6.822366
 21
-114.800003
 31
0.0
  0
LINE
  5
321
330
163
100
AcDbEntity
  8
0
 62
     7
370
    18
100
AcDbLine
 10
9.0
 20
-112.622368
 30
0.0
 11
11.522367
 21
-110.099998
 31
0.0
  0
LINE
  5
322
330
163
100
AcDbEntity
  8
0
 62
     7
370
    18
100
AcDbLine
 10
-6.791847
 20
-127.0
 30
0.0
 11
5.408153
 21
-114.800003
 31
0.0
  0
LINE
  5
323
330
163
100
AcDbEntity
  8
0
 62
     7
370
    18
100
AcDbLine
 10
9.0
 20
-111.208153
 30
0.0
 11
10.108152
 21
-110.099998
 31
0.0
  0
LINE
  5
324
330
163
100
AcDbEntity
  8
0
 62
     7
370
    18
100
AcDbLine
 10
-8.20606
 20
-127.0
 30
0.0
 11
3.993939
 21
-114.800003
 31
0.0
  0
LINE
  5
325
330
163
100
AcDbEntity
  8
0
 62
     7
370
    18
100
AcDbLine
 10
-9.620275
 20
-127.0
 30
0.0
 11
2.579726
 21
-114.800003
 31
0.0
  0
LINE
  5
326
330
163
100
AcDbEntity
  8
0
 62
     7
370
    18
100
AcDbLine
 10
-11.034488
 20
-127.0
 30
0.0
 11
1.165512
 21
-114.800003
 31
0.0
  0
LINE
  5
327
330
163
100
AcDbEntity
  8
0
 62
     7
370
    18
100
AcDbLine
 10
-12.448702
 20
-127.0
 30
0.0
 11
-0.248701
 21
-114.800003
 31
0.0
  0
LINE
  5
328
330
163
100
AcDbEntity
  8
0
 62
     7
370
    18
100
AcDbLine
 10
-13.862915
 20
-127.0
 30
0.0
 11
-1.662915
 21
-114.800003
 31
0.0
  0
LINE
  5
329
330
163
100
AcDbEntity
  8
0
 62
     7
370
    18
100
AcDbLine
 10
-15.277128
 20
-127.0
 30
0.0
 11
-3.077129
 21
-114.800003
 31
0.0
  0
LINE
  5
32A
330
163
100
AcDbEntity
  8
0
 62
     7
370
    18
100
AcDbLine
 10
-16.691341
 20
-127.0
 30
0.0
 11
-4.491342
 21
-114.800003
 31
0.0
  0
LINE
  5
32B
330
163
100
AcDbEntity
  8
0
 62
     7
370
    18
100
AcDbLine
 10
-18.105556
 20
-127.0
 30
0.0
 11
-5.905556
 21
-114.800003
 31
0.0
  0
LINE
  5
32C
330
163
100
AcDbEntity
  8
0
 62
     7
370
    18
100
AcDbLine
 10
-19.51977
 20
-127.0
 30
0.0
 11
-7.319769
 21
-114.800003
 31
0.0
  0
LINE
  5
32D
330
163
100
AcDbEntity
  8
0
 62
     7
370
    18
100
AcDbLine
 10
-20.933983
 20
-127.0
 30
0.0
 11
-8.733983
 21
-114.800003
 31
0.0
  0
LINE
  5
32E
330
163
100
AcDbEntity
  8
0
 62
     7
370
    18
100
AcDbLine
 10
-22.348196
 20
-127.0
 30
0.0
 11
-10.148196
 21
-114.800003
 31
0.0
  0
LINE
  5
32F
330
163
100
AcDbEntity
  8
0
 62
     7
370
    18
100
AcDbLine
 10
-23.762409
 20
-127.0
 30
0.0
 11
-11.56241
 21
-114.800003
 31
0.0
  0
LINE
  5
330
330
163
100
AcDbEntity
  8
0
 62
     7
370
    18
100
AcDbLine
 10
-25.176624
 20
-127.0
 30
0.0
 11
-12.976624
 21
-114.800003
 31
0.0
  0
LINE
  5
331
330
163
100
AcDbEntity
  8
0
 62
     7
370
    18
100
AcDbLine
 10
-26.295418
 20
-126.704582
 30
0.0
 11
-14.390837
 21
-114.800003
 31
0.0
  0
LINE
  5
332
330
163
100
AcDbEntity
  8
0
 62
     7
370
    18
100
AcDbLine
 10
-27.002525
 20
-125.997475
 30
0.0
 11
-15.805051
 21
-114.800003
 31
0.0
  0
LINE
  5
333
330
163
100
AcDbEntity
  8
0
 62
     7
370
    18
100
AcDbLine
 10
-27.709633
 20
-125.290367
 30
0.0
 11
-17.219265
 21
-114.800003
 31
0.0
  0
LINE
  5
334
330
163
100
AcDbEntity
  8
0
 62
     7
370
    18
100
AcDbLine
 10
-28.0
 20
-124.166519
 30
0.0
 11
-18.633478
 21
-114.800003
 31
0.0
  0
LINE
  5
335
330
163
100
AcDbEntity
  8
0
 62
     7
370
    18
100
AcDbLine
 10
-28.0
 20
-122.752312
 30
0.0
 11
-20.047691
 21
-114.800003
 31
0.0
  0
LINE
  5
336
330
163
100
AcDbEntity
  8
0
 62
     7
370
    18
100
AcDbLine
 10
-28.0
 20
-121.338097
 30
0.0
 11
-21.461905
 21
-114.800003
 31
0.0
  0
LINE
  5
337
330
163
100
AcDbEntity
  8
0
 62
     7
370
    18
100
AcDbLine
 10
-28.0
 20
-119.923882
 30
0.0
 11
-22.876118
 21
-114.800003
 31
0.0
  0
LINE
  5
338
330
163
100
AcDbEntity
  8
0
 62
     7
370
    18
100
AcDbLine
 10
-28.0
 20
-118.509666
 30
0.0
 11
-24.290333
 21
-114.800003
 31
0.0
  0
LINE
  5
339
330
163
100
AcDbEntity
  8
0
 62
     7
370
    18
100
AcDbLine
 10
-28.0
 20
-117.095451
 30
0.0
 11
-25.704546
 21
-114.800003
 31
0.0
  0
LINE
  5
33A
330
163
100
AcDbEntity
  8
0
 62
     7
370
    18
100
AcDbLine
 10
-28.0
 20
-115.681244
 30
0.0
 11
-27.118759
 21
-114.800003
 31
0.0
  0
ENDBLK
  5
165
330
163
100
AcDbEntity
  8
0
100
AcDbBlockEnd
  0
BLOCK
  5
167
330
166
100
AcDbEntity
  8
0
100
AcDbBlockBegin
  2
BLOCK1440
 70
     0
 10
0.0
 20
0.0
 30
0.0
  3
BLOCK1440
  1

  0
LINE
  5
33B
330
166
100
AcDbEntity
  8
0
 62
     7
370
    18
100
AcDbLine
 10
27.722366
 20
-93.900002
 30
0.0
 11
29.0
 21
-92.622368
 31
0.0
  0
LINE
  5
33C
330
166
100
AcDbEntity
  8
0
 62
     7
370
    18
100
AcDbLine
 10
26.308153
 20
-93.900002
 30
0.0
 11
29.0
 21
-91.208153
 31
0.0
  0
LINE
  5
33D
330
166
100
AcDbEntity
  8
0
 62
     7
370
    18
100
AcDbLine
 10
24.89394
 20
-93.900002
 30
0.0
 11
29.0
 21
-89.793938
 31
0.0
  0
LINE
  5
33E
330
166
100
AcDbEntity
  8
0
 62
     7
370
    18
100
AcDbLine
 10
23.479725
 20
-93.900002
 30
0.0
 11
29.0
 21
-88.379723
 31
0.0
  0
LINE
  5
33F
330
166
100
AcDbEntity
  8
0
 62
     7
370
    18
100
AcDbLine
 10
22.065512
 20
-93.900002
 30
0.0
 11
28.465511
 21
-87.5
 31
0.0
  0
LINE
  5
340
330
166
100
AcDbEntity
  8
0
 62
     7
370
    18
100
AcDbLine
 10
20.651299
 20
-93.900002
 30
0.0
 11
27.051298
 21
-87.5
 31
0.0
  0
LINE
  5
341
330
166
100
AcDbEntity
  8
0
 62
     7
370
    18
100
AcDbLine
 10
19.237085
 20
-93.900002
 30
0.0
 11
25.637085
 21
-87.5
 31
0.0
  0
LINE
  5
342
330
166
100
AcDbEntity
  8
0
 62
     7
370
    18
100
AcDbLine
 10
17.822872
 20
-93.900002
 30
0.0
 11
24.222872
 21
-87.5
 31
0.0
  0
LINE
  5
343
330
166
100
AcDbEntity
  8
0
 62
     7
370
    18
100
AcDbLine
 10
16.408657
 20
-93.900002
 30
0.0
 11
23.0
 21
-87.308655
 31
0.0
  0
LINE
  5
344
330
166
100
AcDbEntity
  8
0
 62
     7
370
    18
100
AcDbLine
 10
14.994444
 20
-93.900002
 30
0.0
 11
23.0
 21
-85.894447
 31
0.0
  0
LINE
  5
345
330
166
100
AcDbEntity
  8
0
 62
     7
370
    18
100
AcDbLine
 10
28.39444
 20
-80.500008
 30
0.0
 11
29.0
 21
-79.894447
 31
0.0
  0
LINE
  5
346
330
166
100
AcDbEntity
  8
0
 62
     7
370
    18
100
AcDbLine
 10
13.580231
 20
-93.900002
 30
0.0
 11
23.0
 21
-84.480232
 31
0.0
  0
LINE
  5
347
330
166
100
AcDbEntity
  8
0
 62
     7
370
    18
100
AcDbLine
 10
26.980227
 20
-80.500008
 30
0.0
 11
29.0
 21
-78.480232
 31
0.0
  0
LINE
  5
348
330
166
100
AcDbEntity
  8
0
 62
     7
370
    18
100
AcDbLine
 10
12.166018
 20
-93.900002
 30
0.0
 11
23.0
 21
-83.066017
 31
0.0
  0
LINE
  5
349
330
166
100
AcDbEntity
  8
0
 62
     7
370
    18
100
AcDbLine
 10
25.566015
 20
-80.5
 30
0.0
 11
29.0
 21
-77.066017
 31
0.0
  0
LINE
  5
34A
330
166
100
AcDbEntity
  8
0
 62
     7
370
    18
100
AcDbLine
 10
10.751803
 20
-93.900002
 30
0.0
 11
23.0
 21
-81.651802
 31
0.0
  0
LINE
  5
34B
330
166
100
AcDbEntity
  8
0
 62
     7
370
    18
100
AcDbLine
 10
24.151802
 20
-80.5
 30
0.0
 11
27.651804
 21
-77.0
 31
0.0
  0
LINE
  5
34C
330
166
100
AcDbEntity
  8
0
 62
     7
370
    18
100
AcDbLine
 10
9.33759
 20
-93.900002
 30
0.0
 11
26.237591
 21
-77.0
 31
0.0
  0
LINE
  5
34D
330
166
100
AcDbEntity
  8
0
 62
     7
370
    18
100
AcDbLine
 10
9.0
 20
-92.82338
 30
0.0
 11
24.823376
 21
-77.0
 31
0.0
  0
LINE
  5
34E
330
166
100
AcDbEntity
  8
0
 62
     7
370
    18
100
AcDbLine
 10
9.0
 20
-91.409164
 30
0.0
 11
23.409163
 21
-77.0
 31
0.0
  0
LINE
  5
34F
330
166
100
AcDbEntity
  8
0
 62
     7
370
    18
100
AcDbLine
 10
9.0
 20
-89.994949
 30
0.0
 11
21.994949
 21
-77.0
 31
0.0
  0
LINE
  5
350
330
166
100
AcDbEntity
  8
0
 62
     7
370
    18
100
AcDbLine
 10
8.380735
 20
-89.199997
 30
0.0
 11
20.580736
 21
-77.0
 31
0.0
  0
LINE
  5
351
330
166
100
AcDbEntity
  8
0
 62
     7
370
    18
100
AcDbLine
 10
6.966522
 20
-89.199997
 30
0.0
 11
19.166523
 21
-77.0
 31
0.0
  0
LINE
  5
352
330
166
100
AcDbEntity
  8
0
 62
     7
370
    18
100
AcDbLine
 10
5.552309
 20
-89.199997
 30
0.0
 11
17.752308
 21
-77.0
 31
0.0
  0
LINE
  5
353
330
166
100
AcDbEntity
  8
0
 62
     7
370
    18
100
AcDbLine
 10
4.138095
 20
-89.199997
 30
0.0
 11
11.338095
 21
-82.0
 31
0.0
  0
LINE
  5
354
330
166
100
AcDbEntity
  8
0
 62
     7
370
    18
100
AcDbLine
 10
2.723881
 20
-89.199997
 30
0.0
 11
9.923882
 21
-82.0
 31
0.0
  0
LINE
  5
355
330
166
100
AcDbEntity
  8
0
 62
     7
370
    18
100
AcDbLine
 10
1.309668
 20
-89.199997
 30
0.0
 11
8.509668
 21
-82.0
 31
0.0
  0
LINE
  5
356
330
166
100
AcDbEntity
  8
0
 62
     7
370
    18
100
AcDbLine
 10
-0.104546
 20
-89.199997
 30
0.0
 11
7.095454
 21
-82.0
 31
0.0
  0
LINE
  5
357
330
166
100
AcDbEntity
  8
0
 62
     7
370
    18
100
AcDbLine
 10
-1.518759
 20
-89.199997
 30
0.0
 11
5.681241
 21
-82.0
 31
0.0
  0
LINE
  5
358
330
166
100
AcDbEntity
  8
0
 62
     7
370
    18
100
AcDbLine
 10
-2.932973
 20
-89.199997
 30
0.0
 11
4.267027
 21
-82.0
 31
0.0
  0
LINE
  5
359
330
166
100
AcDbEntity
  8
0
 62
     7
370
    18
100
AcDbLine
 10
-4.347186
 20
-89.199997
 30
0.0
 11
2.852814
 21
-82.0
 31
0.0
  0
LINE
  5
35A
330
166
100
AcDbEntity
  8
0
 62
     7
370
    18
100
AcDbLine
 10
-5.7614
 20
-89.199997
 30
0.0
 11
1.4386
 21
-82.0
 31
0.0
  0
LINE
  5
35B
330
166
100
AcDbEntity
  8
0
 62
     7
370
    18
100
AcDbLine
 10
-7.175613
 20
-89.199997
 30
0.0
 11
0.024387
 21
-82.0
 31
0.0
  0
LINE
  5
35C
330
166
100
AcDbEntity
  8
0
 62
     7
370
    18
100
AcDbLine
 10
-8.589827
 20
-89.199997
 30
0.0
 11
-0.694913
 21
-81.305084
 31
0.0
  0
LINE
  5
35D
330
166
100
AcDbEntity
  8
0
 62
     7
370
    18
100
AcDbLine
 10
-10.004041
 20
-89.199997
 30
0.0
 11
-1.40202
 21
-80.597977
 31
0.0
  0
LINE
  5
35E
330
166
100
AcDbEntity
  8
0
 62
     7
370
    18
100
AcDbLine
 10
-11.418254
 20
-89.199997
 30
0.0
 11
-2.109127
 21
-79.890877
 31
0.0
  0
LINE
  5
35F
330
166
100
AcDbEntity
  8
0
 62
     7
370
    18
100
AcDbLine
 10
-12.832468
 20
-89.199997
 30
0.0
 11
-2.816234
 21
-79.183769
 31
0.0
  0
LINE
  5
360
330
166
100
AcDbEntity
  8
0
 62
     7
370
    18
100
AcDbLine
 10
-14.246681
 20
-89.199997
 30
0.0
 11
-3.523341
 21
-78.476662
 31
0.0
  0
LINE
  5
361
330
166
100
AcDbEntity
  8
0
 62
     7
370
    18
100
AcDbLine
 10
-15.660894
 20
-89.199997
 30
0.0
 11
-4.230447
 21
-77.769554
 31
0.0
  0
LINE
  5
362
330
166
100
AcDbEntity
  8
0
 62
     7
370
    18
100
AcDbLine
 10
-17.075108
 20
-89.199997
 30
0.0
 11
-4.937554
 21
-77.062447
 31
0.0
  0
LINE
  5
363
330
166
100
AcDbEntity
  8
0
 62
     7
370
    18
100
AcDbLine
 10
-18.489323
 20
-89.199997
 30
0.0
 11
-6.289322
 21
-77.0
 31
0.0
  0
LINE
  5
364
330
166
100
AcDbEntity
  8
0
 62
     7
370
    18
100
AcDbLine
 10
-19.903536
 20
-89.199997
 30
0.0
 11
-7.703536
 21
-77.0
 31
0.0
  0
LINE
  5
365
330
166
100
AcDbEntity
  8
0
 62
     7
370
    18
100
AcDbLine
 10
-21.317749
 20
-89.199997
 30
0.0
 11
-9.117749
 21
-77.0
 31
0.0
  0
LINE
  5
366
330
166
100
AcDbEntity
  8
0
 62
     7
370
    18
100
AcDbLine
 10
-22.731962
 20
-89.199997
 30
0.0
 11
-10.531962
 21
-77.0
 31
0.0
  0
LINE
  5
367
330
166
100
AcDbEntity
  8
0
 62
     7
370
    18
100
AcDbLine
 10
-24.146175
 20
-89.199997
 30
0.0
 11
-11.946177
 21
-77.0
 31
0.0
  0
LINE
  5
368
330
166
100
AcDbEntity
  8
0
 62
     7
370
    18
100
AcDbLine
 10
-25.56039
 20
-89.199997
 30
0.0
 11
-13.36039
 21
-77.0
 31
0.0
  0
LINE
  5
369
330
166
100
AcDbEntity
  8
0
 62
     7
370
    18
100
AcDbLine
 10
-26.974604
 20
-89.199997
 30
0.0
 11
-14.774603
 21
-77.0
 31
0.0
  0
LINE
  5
36A
330
166
100
AcDbEntity
  8
0
 62
     7
370
    18
100
AcDbLine
 10
-28.0
 20
-88.81118
 30
0.0
 11
-16.188816
 21
-77.0
 31
0.0
  0
LINE
  5
36B
330
166
100
AcDbEntity
  8
0
 62
     7
370
    18
100
AcDbLine
 10
-28.0
 20
-87.396973
 30
0.0
 11
-17.603031
 21
-77.0
 31
0.0
  0
LINE
  5
36C
330
166
100
AcDbEntity
  8
0
 62
     7
370
    18
100
AcDbLine
 10
-28.0
 20
-85.982758
 30
0.0
 11
-19.017244
 21
-77.0
 31
0.0
  0
LINE
  5
36D
330
166
100
AcDbEntity
  8
0
 62
     7
370
    18
100
AcDbLine
 10
-28.0
 20
-84.568542
 30
0.0
 11
-20.431458
 21
-77.0
 31
0.0
  0
LINE
  5
36E
330
166
100
AcDbEntity
  8
0
 62
     7
370
    18
100
AcDbLine
 10
-28.0
 20
-83.154327
 30
0.0
 11
-21.845671
 21
-77.0
 31
0.0
  0
LINE
  5
36F
330
166
100
AcDbEntity
  8
0
 62
     7
370
    18
100
AcDbLine
 10
-28.0
 20
-81.740112
 30
0.0
 11
-23.259884
 21
-77.0
 31
0.0
  0
LINE
  5
370
330
166
100
AcDbEntity
  8
0
 62
     7
370
    18
100
AcDbLine
 10
-28.0
 20
-80.325905
 30
0.0
 11
-24.674099
 21
-77.0
 31
0.0
  0
ENDBLK
  5
168
330
166
100
AcDbEntity
  8
0
100
AcDbBlockEnd
  0
ENDSEC
  0
SECTION
  2
ENTITIES
  0
INSERT
  5
371
330
1F
100
AcDbEntity
  8
0
370
     0
100
AcDbBlockReference
  2
BLOCK1371
 10
0.0
 20
0.0
 30
0.0
  0
INSERT
  5
372
330
1F
100
AcDbEntity
  8
0
370
     0
100
AcDbBlockReference
  2
BLOCK1372
 10
0.0
 20
0.0
 30
0.0
  0
INSERT
  5
373
330
1F
100
AcDbEntity
  8
0
370
     0
100
AcDbBlockReference
  2
BLOCK1373
 10
0.0
 20
0.0
 30
0.0
  0
INSERT
  5
374
330
1F
100
AcDbEntity
  8
0
370
     0
100
AcDbBlockReference
  2
BLOCK1374
 10
0.0
 20
0.0
 30
0.0
  0
INSERT
  5
375
330
1F
100
AcDbEntity
  8
0
370
     0
100
AcDbBlockReference
  2
BLOCK1375
 10
0.0
 20
0.0
 30
0.0
  0
INSERT
  5
376
330
1F
100
AcDbEntity
  8
0
370
     0
100
AcDbBlockReference
  2
BLOCK1376
 10
0.0
 20
0.0
 30
0.0
  0
INSERT
  5
377
330
1F
100
AcDbEntity
  8
0
370
     0
100
AcDbBlockReference
  2
BLOCK1377
 10
0.0
 20
0.0
 30
0.0
  0
INSERT
  5
378
330
1F
100
AcDbEntity
  8
0
370
     0
100
AcDbBlockReference
  2
BLOCK1378
 10
0.0
 20
0.0
 30
0.0
  0
INSERT
  5
379
330
1F
100
AcDbEntity
  8
0
370
     0
100
AcDbBlockReference
  2
BLOCK1379
 10
0.0
 20
0.0
 30
0.0
  0
INSERT
  5
37A
330
1F
100
AcDbEntity
  8
0
370
     0
100
AcDbBlockReference
  2
BLOCK1380
 10
0.0
 20
0.0
 30
0.0
  0
INSERT
  5
37B
330
1F
100
AcDbEntity
  8
0
370
     0
100
AcDbBlockReference
  2
BLOCK1381
 10
0.0
 20
0.0
 30
0.0
  0
INSERT
  5
37C
330
1F
100
AcDbEntity
  8
0
370
     0
100
AcDbBlockReference
  2
BLOCK1382
 10
0.0
 20
0.0
 30
0.0
  0
INSERT
  5
37D
330
1F
100
AcDbEntity
  8
0
370
     0
100
AcDbBlockReference
  2
BLOCK1383
 10
0.0
 20
0.0
 30
0.0
  0
INSERT
  5
37E
330
1F
100
AcDbEntity
  8
0
370
     0
100
AcDbBlockReference
  2
BLOCK1384
 10
0.0
 20
0.0
 30
0.0
  0
INSERT
  5
37F
330
1F
100
AcDbEntity
  8
0
370
     0
100
AcDbBlockReference
  2
BLOCK1385
 10
0.0
 20
0.0
 30
0.0
  0
INSERT
  5
380
330
1F
100
AcDbEntity
  8
0
370
     0
100
AcDbBlockReference
  2
BLOCK1386
 10
0.0
 20
0.0
 30
0.0
  0
INSERT
  5
381
330
1F
100
AcDbEntity
  8
0
370
     0
100
AcDbBlockReference
  2
BLOCK1387
 10
0.0
 20
0.0
 30
0.0
  0
INSERT
  5
382
330
1F
100
AcDbEntity
  8
0
370
     0
100
AcDbBlockReference
  2
BLOCK1388
 10
0.0
 20
0.0
 30
0.0
  0
INSERT
  5
383
330
1F
100
AcDbEntity
  8
0
370
     0
100
AcDbBlockReference
  2
BLOCK1389
 10
0.0
 20
0.0
 30
0.0
  0
INSERT
  5
384
330
1F
100
AcDbEntity
  8
0
370
     0
100
AcDbBlockReference
  2
BLOCK1390
 10
0.0
 20
0.0
 30
0.0
  0
INSERT
  5
385
330
1F
100
AcDbEntity
  8
0
370
     0
100
AcDbBlockReference
  2
BLOCK1391
 10
0.0
 20
0.0
 30
0.0
  0
INSERT
  5
386
330
1F
100
AcDbEntity
  8
0
370
     0
100
AcDbBlockReference
  2
BLOCK1392
 10
0.0
 20
0.0
 30
0.0
  0
INSERT
  5
387
330
1F
100
AcDbEntity
  8
0
370
     0
100
AcDbBlockReference
  2
BLOCK1393
 10
0.0
 20
0.0
 30
0.0
  0
INSERT
  5
388
330
1F
100
AcDbEntity
  8
0
370
     0
100
AcDbBlockReference
  2
BLOCK1394
 10
0.0
 20
0.0
 30
0.0
  0
INSERT
  5
389
330
1F
100
AcDbEntity
  8
0
370
     0
100
AcDbBlockReference
  2
BLOCK1395
 10
0.0
 20
0.0
 30
0.0
  0
INSERT
  5
38A
330
1F
100
AcDbEntity
  8
0
370
     0
100
AcDbBlockReference
  2
BLOCK1396
 10
0.0
 20
0.0
 30
0.0
  0
INSERT
  5
38B
330
1F
100
AcDbEntity
  8
0
370
     0
100
AcDbBlockReference
  2
BLOCK1397
 10
0.0
 20
0.0
 30
0.0
  0
INSERT
  5
38C
330
1F
100
AcDbEntity
  8
0
370
     0
100
AcDbBlockReference
  2
BLOCK1398
 10
0.0
 20
0.0
 30
0.0
  0
INSERT
  5
38D
330
1F
100
AcDbEntity
  8
0
370
     0
100
AcDbBlockReference
  2
BLOCK1399
 10
0.0
 20
0.0
 30
0.0
  0
INSERT
  5
38E
330
1F
100
AcDbEntity
  8
0
370
     0
100
AcDbBlockReference
  2
BLOCK1400
 10
0.0
 20
0.0
 30
0.0
  0
INSERT
  5
38F
330
1F
100
AcDbEntity
  8
0
370
     0
100
AcDbBlockReference
  2
BLOCK1401
 10
0.0
 20
0.0
 30
0.0
  0
INSERT
  5
390
330
1F
100
AcDbEntity
  8
0
370
     0
100
AcDbBlockReference
  2
BLOCK1402
 10
0.0
 20
0.0
 30
0.0
  0
INSERT
  5
391
330
1F
100
AcDbEntity
  8
0
370
     0
100
AcDbBlockReference
  2
BLOCK1403
 10
0.0
 20
0.0
 30
0.0
  0
INSERT
  5
392
330
1F
100
AcDbEntity
  8
0
370
     0
100
AcDbBlockReference
  2
BLOCK1404
 10
0.0
 20
0.0
 30
0.0
  0
INSERT
  5
393
330
1F
100
AcDbEntity
  8
0
370
     0
100
AcDbBlockReference
  2
BLOCK1405
 10
0.0
 20
0.0
 30
0.0
  0
INSERT
  5
394
330
1F
100
AcDbEntity
  8
0
370
     0
100
AcDbBlockReference
  2
BLOCK1406
 10
0.0
 20
0.0
 30
0.0
  0
INSERT
  5
395
330
1F
100
AcDbEntity
  8
0
370
     0
100
AcDbBlockReference
  2
BLOCK1407
 10
0.0
 20
0.0
 30
0.0
  0
INSERT
  5
396
330
1F
100
AcDbEntity
  8
0
370
     0
100
AcDbBlockReference
  2
BLOCK1408
 10
0.0
 20
0.0
 30
0.0
  0
INSERT
  5
397
330
1F
100
AcDbEntity
  8
0
370
     0
100
AcDbBlockReference
  2
BLOCK1409
 10
0.0
 20
0.0
 30
0.0
  0
INSERT
  5
398
330
1F
100
AcDbEntity
  8
0
370
     0
100
AcDbBlockReference
  2
BLOCK1410
 10
0.0
 20
0.0
 30
0.0
  0
INSERT
  5
399
330
1F
100
AcDbEntity
  8
0
370
     0
100
AcDbBlockReference
  2
BLOCK1411
 10
0.0
 20
0.0
 30
0.0
  0
INSERT
  5
39A
330
1F
100
AcDbEntity
  8
0
370
     0
100
AcDbBlockReference
  2
BLOCK1412
 10
0.0
 20
0.0
 30
0.0
  0
INSERT
  5
39B
330
1F
100
AcDbEntity
  8
0
370
     0
100
AcDbBlockReference
  2
BLOCK1413
 10
0.0
 20
0.0
 30
0.0
  0
INSERT
  5
39C
330
1F
100
AcDbEntity
  8
0
370
     0
100
AcDbBlockReference
  2
BLOCK1414
 10
0.0
 20
0.0
 30
0.0
  0
INSERT
  5
39D
330
1F
100
AcDbEntity
  8
0
370
     0
100
AcDbBlockReference
  2
BLOCK1415
 10
0.0
 20
0.0
 30
0.0
  0
INSERT
  5
39E
330
1F
100
AcDbEntity
  8
0
370
     0
100
AcDbBlockReference
  2
BLOCK1416
 10
0.0
 20
0.0
 30
0.0
  0
INSERT
  5
39F
330
1F
100
AcDbEntity
  8
0
370
     0
100
AcDbBlockReference
  2
BLOCK1417
 10
0.0
 20
0.0
 30
0.0
  0
INSERT
  5
3A0
330
1F
100
AcDbEntity
  8
0
370
     0
100
AcDbBlockReference
  2
BLOCK1418
 10
0.0
 20
0.0
 30
0.0
  0
INSERT
  5
3A1
330
1F
100
AcDbEntity
  8
0
370
     0
100
AcDbBlockReference
  2
BLOCK1419
 10
0.0
 20
0.0
 30
0.0
  0
INSERT
  5
3A2
330
1F
100
AcDbEntity
  8
0
370
     0
100
AcDbBlockReference
  2
BLOCK1420
 10
0.0
 20
0.0
 30
0.0
  0
INSERT
  5
3A3
330
1F
100
AcDbEntity
  8
0
370
     0
100
AcDbBlockReference
  2
BLOCK1421
 10
0.0
 20
0.0
 30
0.0
  0
INSERT
  5
3A4
330
1F
100
AcDbEntity
  8
0
370
     0
100
AcDbBlockReference
  2
BLOCK1422
 10
0.0
 20
0.0
 30
0.0
  0
INSERT
  5
3A5
330
1F
100
AcDbEntity
  8
0
370
     0
100
AcDbBlockReference
  2
BLOCK1423
 10
0.0
 20
0.0
 30
0.0
  0
INSERT
  5
3A6
330
1F
100
AcDbEntity
  8
0
370
     0
100
AcDbBlockReference
  2
BLOCK1424
 10
0.0
 20
0.0
 30
0.0
  0
INSERT
  5
3A7
330
1F
100
AcDbEntity
  8
0
370
     0
100
AcDbBlockReference
  2
BLOCK1425
 10
0.0
 20
0.0
 30
0.0
  0
INSERT
  5
3A8
330
1F
100
AcDbEntity
  8
0
370
     0
100
AcDbBlockReference
  2
BLOCK1426
 10
0.0
 20
0.0
 30
0.0
  0
INSERT
  5
3A9
330
1F
100
AcDbEntity
  8
0
370
     0
100
AcDbBlockReference
  2
BLOCK1427
 10
0.0
 20
0.0
 30
0.0
  0
INSERT
  5
3AA
330
1F
100
AcDbEntity
  8
0
370
     0
100
AcDbBlockReference
  2
BLOCK1428
 10
0.0
 20
0.0
 30
0.0
  0
INSERT
  5
3AB
330
1F
100
AcDbEntity
  8
0
370
     0
100
AcDbBlockReference
  2
BLOCK1429
 10
0.0
 20
0.0
 30
0.0
  0
LINE
  5
3AC
330
1F
100
AcDbEntity
  8
0
 62
     7
370
    35
100
AcDbLine
 10
10.0
 20
10.0
 30
0.0
 11
410.0
 21
10.0
 31
0.0
  0
LINE
  5
3AD
330
1F
100
AcDbEntity
  8
0
 62
     7
370
    35
100
AcDbLine
 10
410.0
 20
10.0
 30
0.0
 11
410.0
 21
287.0
 31
0.0
  0
LINE
  5
3AE
330
1F
100
AcDbEntity
  8
0
 62
     7
370
    35
100
AcDbLine
 10
410.0
 20
287.0
 30
0.0
 11
10.0
 21
287.0
 31
0.0
  0
LINE
  5
3AF
330
1F
100
AcDbEntity
  8
0
 62
     7
370
    35
100
AcDbLine
 10
10.0
 20
287.0
 30
0.0
 11
10.0
 21
10.0
 31
0.0
  0
LINE
  5
3B0
330
1F
100
AcDbEntity
  8
0
 62
     7
370
    35
100
AcDbLine
 10
210.0
 20
287.0
 30
0.0
 11
210.0
 21
297.0
 31
0.0
  0
LINE
  5
3B1
330
1F
100
AcDbEntity
  8
0
 62
     7
370
    35
100
AcDbLine
 10
210.0
 20
10.0
 30
0.0
 11
210.0
 21
0.0
 31
0.0
  0
LINE
  5
3B2
330
1F
100
AcDbEntity
  8
0
 62
     7
370
    35
100
AcDbLine
 10
10.0
 20
148.5
 30
0.0
 11
0.0
 21
148.5
 31
0.0
  0
LINE
  5
3B3
330
1F
100
AcDbEntity
  8
0
 62
     7
370
    35
100
AcDbLine
 10
410.0
 20
148.5
 30
0.0
 11
420.0
 21
148.5
 31
0.0
  0
LINE
  5
3B4
330
1F
100
AcDbEntity
  8
0
 62
     7
370
    35
100
AcDbLine
 10
367.5
 20
10.0
 30
0.0
 11
367.5
 21
2.5
 31
0.0
  0
LINE
  5
3B5
330
1F
100
AcDbEntity
  8
0
 62
     7
370
    35
100
AcDbLine
 10
52.5
 20
10.0
 30
0.0
 11
52.5
 21
2.5
 31
0.0
  0
LINE
  5
3B6
330
1F
100
AcDbEntity
  8
0
 62
     7
370
    35
100
AcDbLine
 10
315.0
 20
10.0
 30
0.0
 11
315.0
 21
2.5
 31
0.0
  0
LINE
  5
3B7
330
1F
100
AcDbEntity
  8
0
 62
     7
370
    35
100
AcDbLine
 10
105.0
 20
10.0
 30
0.0
 11
105.0
 21
2.5
 31
0.0
  0
LINE
  5
3B8
330
1F
100
AcDbEntity
  8
0
 62
     7
370
    35
100
AcDbLine
 10
262.5
 20
287.0
 30
0.0
 11
262.5
 21
294.5
 31
0.0
  0
LINE
  5
3B9
330
1F
100
AcDbEntity
  8
0
 62
     7
370
    35
100
AcDbLine
 10
157.5
 20
287.0
 30
0.0
 11
157.5
 21
294.5
 31
0.0
  0
LINE
  5
3BA
330
1F
100
AcDbEntity
  8
0
 62
     7
370
    35
100
AcDbLine
 10
315.0
 20
287.0
 30
0.0
 11
315.0
 21
294.5
 31
0.0
  0
LINE
  5
3BB
330
1F
100
AcDbEntity
  8
0
 62
     7
370
    35
100
AcDbLine
 10
105.0
 20
287.0
 30
0.0
 11
105.0
 21
294.5
 31
0.0
  0
LINE
  5
3BC
330
1F
100
AcDbEntity
  8
0
 62
     7
370
    35
100
AcDbLine
 10
367.5
 20
287.0
 30
0.0
 11
367.5
 21
294.5
 31
0.0
  0
LINE
  5
3BD
330
1F
100
AcDbEntity
  8
0
 62
     7
370
    35
100
AcDbLine
 10
52.5
 20
287.0
 30
0.0
 11
52.5
 21
294.5
 31
0.0
  0
LINE
  5
3BE
330
1F
100
AcDbEntity
  8
0
 62
     7
370
    35
100
AcDbLine
 10
10.0
 20
222.7
 30
0.0
 11
2.5
 21
222.7
 31
0.0
  0
LINE
  5
3BF
330
1F
100
AcDbEntity
  8
0
 62
     7
370
    35
100
AcDbLine
 10
410.0
 20
222.7
 30
0.0
 11
417.5
 21
222.7
 31
0.0
  0
LINE
  5
3C0
330
1F
100
AcDbEntity
  8
0
 62
     7
370
    35
100
AcDbLine
 10
10.0
 20
74.3
 30
0.0
 11
2.5
 21
74.3
 31
0.0
  0
LINE
  5
3C1
330
1F
100
AcDbEntity
  8
0
 62
     7
370
    35
100
AcDbLine
 10
410.0
 20
74.3
 30
0.0
 11
417.5
 21
74.3
 31
0.0
  0
LINE
  5
3C2
330
1F
100
AcDbEntity
  8
0
 62
     7
370
    35
100
AcDbLine
 10
110.0
 20
7.5
 30
0.0
 11
310.0
 21
7.5
 31
0.0
  0
LINE
  5
3C3
330
1F
100
AcDbEntity
  8
0
 62
     7
370
    35
100
AcDbLine
 10
160.0
 20
10.0
 30
0.0
 11
160.0
 21
5.0
 31
0.0
  0
LINE
  5
3C4
330
1F
100
AcDbEntity
  8
0
 62
     7
370
    35
100
AcDbLine
 10
260.0
 20
10.0
 30
0.0
 11
260.0
 21
5.0
 31
0.0
  0
LINE
  5
3C5
330
1F
100
AcDbEntity
  8
0
 62
     7
370
    35
100
AcDbLine
 10
170.0
 20
10.0
 30
0.0
 11
170.0
 21
7.5
 31
0.0
  0
LINE
  5
3C6
330
1F
100
AcDbEntity
  8
0
 62
     7
370
    35
100
AcDbLine
 10
250.0
 20
10.0
 30
0.0
 11
250.0
 21
7.5
 31
0.0
  0
LINE
  5
3C7
330
1F
100
AcDbEntity
  8
0
 62
     7
370
    35
100
AcDbLine
 10
180.0
 20
10.0
 30
0.0
 11
180.0
 21
7.5
 31
0.0
  0
LINE
  5
3C8
330
1F
100
AcDbEntity
  8
0
 62
     7
370
    35
100
AcDbLine
 10
240.0
 20
10.0
 30
0.0
 11
240.0
 21
7.5
 31
0.0
  0
LINE
  5
3C9
330
1F
100
AcDbEntity
  8
0
 62
     7
370
    35
100
AcDbLine
 10
190.0
 20
10.0
 30
0.0
 11
190.0
 21
7.5
 31
0.0
  0
LINE
  5
3CA
330
1F
100
AcDbEntity
  8
0
 62
     7
370
    35
100
AcDbLine
 10
230.0
 20
10.0
 30
0.0
 11
230.0
 21
7.5
 31
0.0
  0
LINE
  5
3CB
330
1F
100
AcDbEntity
  8
0
 62
     7
370
    35
100
AcDbLine
 10
200.0
 20
10.0
 30
0.0
 11
200.0
 21
7.5
 31
0.0
  0
LINE
  5
3CC
330
1F
100
AcDbEntity
  8
0
 62
     7
370
    35
100
AcDbLine
 10
220.0
 20
10.0
 30
0.0
 11
220.0
 21
7.5
 31
0.0
  0
LINE
  5
3CD
330
1F
100
AcDbEntity
  8
0
 62
     7
370
    35
100
AcDbLine
 10
110.0
 20
10.0
 30
0.0
 11
110.0
 21
5.0
 31
0.0
  0
LINE
  5
3CE
330
1F
100
AcDbEntity
  8
0
 62
     7
370
    35
100
AcDbLine
 10
310.0
 20
10.0
 30
0.0
 11
310.0
 21
5.0
 31
0.0
  0
LINE
  5
3CF
330
1F
100
AcDbEntity
  8
0
 62
     7
370
    35
100
AcDbLine
 10
120.0
 20
10.0
 30
0.0
 11
120.0
 21
7.5
 31
0.0
  0
LINE
  5
3D0
330
1F
100
AcDbEntity
  8
0
 62
     7
370
    35
100
AcDbLine
 10
300.0
 20
10.0
 30
0.0
 11
300.0
 21
7.5
 31
0.0
  0
LINE
  5
3D1
330
1F
100
AcDbEntity
  8
0
 62
     7
370
    35
100
AcDbLine
 10
130.0
 20
10.0
 30
0.0
 11
130.0
 21
7.5
 31
0.0
  0
LINE
  5
3D2
330
1F
100
AcDbEntity
  8
0
 62
     7
370
    35
100
AcDbLine
 10
290.0
 20
10.0
 30
0.0
 11
290.0
 21
7.5
 31
0.0
  0
LINE
  5
3D3
330
1F
100
AcDbEntity
  8
0
 62
     7
370
    35
100
AcDbLine
 10
140.0
 20
10.0
 30
0.0
 11
140.0
 21
7.5
 31
0.0
  0
LINE
  5
3D4
330
1F
100
AcDbEntity
  8
0
 62
     7
370
    35
100
AcDbLine
 10
280.0
 20
10.0
 30
0.0
 11
280.0
 21
7.5
 31
0.0
  0
LINE
  5
3D5
330
1F
100
AcDbEntity
  8
0
 62
     7
370
    35
100
AcDbLine
 10
150.0
 20
10.0
 30
0.0
 11
150.0
 21
7.5
 31
0.0
  0
LINE
  5
3D6
330
1F
100
AcDbEntity
  8
0
 62
     7
370
    35
100
AcDbLine
 10
270.0
 20
10.0
 30
0.0
 11
270.0
 21
7.5
 31
0.0
  0
LINE
  5
3D7
330
1F
100
AcDbEntity
  8
0
 62
     7
370
    35
100
AcDbLine
 10
220.0
 20
10.0
 30
0.0
 11
410.0
 21
10.0
 31
0.0
  0
LINE
  5
3D8
330
1F
100
AcDbEntity
  8
0
 62
     7
370
    35
100
AcDbLine
 10
220.0
 20
10.0
 30
0.0
 11
220.0
 21
70.0
 31
0.0
  0
LINE
  5
3D9
330
1F
100
AcDbEntity
  8
0
 62
     7
370
    35
100
AcDbLine
 10
220.0
 20
70.0
 30
0.0
 11
410.0
 21
70.0
 31
0.0
  0
LINE
  5
3DA
330
1F
100
AcDbEntity
  8
0
 62
     7
370
    35
100
AcDbLine
 10
410.0
 20
70.0
 30
0.0
 11
410.0
 21
10.0
 31
0.0
  0
LINE
  5
3DB
330
1F
100
AcDbEntity
  8
0
 62
     7
370
    35
100
AcDbLine
 10
220.0
 20
14.0
 30
0.0
 11
385.0
 21
14.0
 31
0.0
  0
LINE
  5
3DC
330
1F
100
AcDbEntity
  8
0
 62
     7
370
    35
100
AcDbLine
 10
220.0
 20
27.0
 30
0.0
 11
385.0
 21
27.0
 31
0.0
  0
LINE
  5
3DD
330
1F
100
AcDbEntity
  8
0
 62
     7
370
    35
100
AcDbLine
 10
220.0
 20
40.0
 30
0.0
 11
385.0
 21
40.0
 31
0.0
  0
LINE
  5
3DE
330
1F
100
AcDbEntity
  8
0
 62
     7
370
    35
100
AcDbLine
 10
220.0
 20
55.0
 30
0.0
 11
265.0
 21
55.0
 31
0.0
  0
LINE
  5
3DF
330
1F
100
AcDbEntity
  8
0
 62
     7
370
    35
100
AcDbLine
 10
385.0
 20
16.666667
 30
0.0
 11
410.0
 21
16.666667
 31
0.0
  0
LINE
  5
3E0
330
1F
100
AcDbEntity
  8
0
 62
     7
370
    35
100
AcDbLine
 10
385.0
 20
23.333333
 30
0.0
 11
410.0
 21
23.333333
 31
0.0
  0
LINE
  5
3E1
330
1F
100
AcDbEntity
  8
0
 62
     7
370
    35
100
AcDbLine
 10
385.0
 20
30.0
 30
0.0
 11
410.0
 21
30.0
 31
0.0
  0
LINE
  5
3E2
330
1F
100
AcDbEntity
  8
0
 62
     7
370
    35
100
AcDbLine
 10
385.0
 20
36.666667
 30
0.0
 11
410.0
 21
36.666667
 31
0.0
  0
LINE
  5
3E3
330
1F
100
AcDbEntity
  8
0
 62
     7
370
    35
100
AcDbLine
 10
385.0
 20
43.333333
 30
0.0
 11
410.0
 21
43.333333
 31
0.0
  0
LINE
  5
3E4
330
1F
100
AcDbEntity
  8
0
 62
     7
370
    35
100
AcDbLine
 10
385.0
 20
50.0
 30
0.0
 11
410.0
 21
50.0
 31
0.0
  0
LINE
  5
3E5
330
1F
100
AcDbEntity
  8
0
 62
     7
370
    35
100
AcDbLine
 10
385.0
 20
56.666667
 30
0.0
 11
410.0
 21
56.666667
 31
0.0
  0
LINE
  5
3E6
330
1F
100
AcDbEntity
  8
0
 62
     7
370
    35
100
AcDbLine
 10
385.0
 20
63.333333
 30
0.0
 11
410.0
 21
63.333333
 31
0.0
  0
LINE
  5
3E7
330
1F
100
AcDbEntity
  8
0
 62
     7
370
    35
100
AcDbLine
 10
240.0
 20
14.0
 30
0.0
 11
240.0
 21
40.0
 31
0.0
  0
LINE
  5
3E8
330
1F
100
AcDbEntity
  8
0
 62
     7
370
    35
100
AcDbLine
 10
265.0
 20
14.0
 30
0.0
 11
265.0
 21
70.0
 31
0.0
  0
LINE
  5
3E9
330
1F
100
AcDbEntity
  8
0
 62
     7
370
    35
100
AcDbLine
 10
365.0
 20
14.0
 30
0.0
 11
365.0
 21
27.0
 31
0.0
  0
LINE
  5
3EA
330
1F
100
AcDbEntity
  8
0
 62
     7
370
    35
100
AcDbLine
 10
385.0
 20
10.0
 30
0.0
 11
385.0
 21
70.0
 31
0.0
  0
LINE
  5
3EB
330
1F
100
AcDbEntity
  8
0
 62
     7
370
    35
100
AcDbLine
 10
390.0
 20
10.0
 30
0.0
 11
390.0
 21
70.0
 31
0.0
  0
LINE
  5
3EC
330
1F
100
AcDbEntity
  8
0
 62
     7
370
    35
100
AcDbLine
 10
242.0
 20
33.5
 30
0.0
 11
263.0
 21
33.5
 31
0.0
  0
LINE
  5
3ED
330
1F
100
AcDbEntity
  8
0
 62
     7
370
    35
100
AcDbLine
 10
257.5
 20
28.0
 30
0.0
 11
257.5
 21
39.0
 31
0.0
  0
LINE
  5
3EE
330
1F
100
AcDbEntity
  8
0
 62
     7
370
    35
100
AcDbLine
 10
243.5
 20
31.5
 30
0.0
 11
243.5
 21
35.5
 31
0.0
  0
LINE
  5
3EF
330
1F
100
AcDbEntity
  8
0
 62
     7
370
    35
100
AcDbLine
 10
243.5
 20
35.5
 30
0.0
 11
251.5
 21
37.5
 31
0.0
  0
LINE
  5
3F0
330
1F
100
AcDbEntity
  8
0
 62
     7
370
    35
100
AcDbLine
 10
251.5
 20
37.5
 30
0.0
 11
251.5
 21
29.5
 31
0.0
  0
LINE
  5
3F1
330
1F
100
AcDbEntity
  8
0
 62
     7
370
    35
100
AcDbLine
 10
251.5
 20
29.5
 30
0.0
 11
243.5
 21
31.5
 31
0.0
  0
CIRCLE
  5
3F2
330
1F
100
AcDbEntity
  8
0
 62
     7
370
    35
100
AcDbCircle
 10
257.5
 20
33.5
 30
0.0
 40
2.0
  0
CIRCLE
  5
3F3
330
1F
100
AcDbEntity
  8
0
 62
     7
370
    35
100
AcDbCircle
 10
257.5
 20
33.5
 30
0.0
 40
4.0
  0
DIMENSION
  5
3F4
102
{ACAD_XDICTIONARY
360
3F5
102
}
330
1F
100
AcDbEntity
  8
0
 62
     0
370
     0
100
AcDbDimension
  2
*D60
 10
81.319457
 20
207.248458
 30
0.0
 11
42.042221
 21
273.377899
 31
0.0
 70
   163
  1
<>{}{%%p1}
 71
     5
 42
-1.0
  3
STANDARD
100
AcDbDiametricDimension
 15
55.786329
 25
250.23752
 35
0.0
 40
0.0
1001
ACAD
1000
DSTYLE
1002
{
1070
    71
1070
     0
1070
    72
1070
     0
1070
    47
1040
1.0
1070
    48
1040
1.0
1002
}
  0
INSERT
  5
3F6
330
1F
100
AcDbEntity
  8
0
370
     0
100
AcDbBlockReference
  2
BLOCK1430
 10
170.552893
 20
492.742989
 30
0.0
  0
INSERT
  5
3F7
330
1F
100
AcDbEntity
  8
0
370
     0
100
AcDbBlockReference
  2
BLOCK1431
 10
170.552893
 20
492.742989
 30
0.0
  0
INSERT
  5
3F8
330
1F
100
AcDbEntity
  8
0
370
     0
100
AcDbBlockReference
  2
BLOCK1432
 10
424.179526
 20
-9.980607
 30
0.0
  0
INSERT
  5
3F9
330
1F
100
AcDbEntity
  8
0
370
     0
100
AcDbBlockReference
  2
BLOCK1433
 10
424.179526
 20
-9.980607
 30
0.0
  0
INSERT
  5
3FA
330
1F
100
AcDbEntity
  8
0
370
     0
100
AcDbBlockReference
  2
BLOCK1434
 10
167.872665
 20
492.742989
 30
0.0
  0
DIMENSION
  5
3FB
102
{ACAD_XDICTIONARY
360
3FC
102
}
330
1F
100
AcDbEntity
  8
0
 62
     0
370
     0
100
AcDbDimension
  2
*D66
 10
162.872665
 20
190.020485
 30
0.0
 11
151.372665
 21
190.020485
 31
0.0
 70
   160
  1
<>{}{%%p1}
 71
     5
 42
-1.0
 52
5156.620156
  3
STANDARD
100
AcDbAlignedDimension
 13
139.872665
 23
205.742989
 33
0.0
 14
162.872665
 24
203.742989
 34
0.0
 50
360.0
100
AcDbRotatedDimension
1001
ACAD
1000
DSTYLE
1002
{
1070
    71
1070
     0
1070
    72
1070
     0
1070
    47
1040
1.0
1070
    48
1040
1.0
1002
}
  0
DIMENSION
  5
3FD
102
{ACAD_XDICTIONARY
360
3FE
102
}
330
1F
100
AcDbEntity
  8
0
 62
     0
370
     0
100
AcDbDimension
  2
*D67
 10
167.872665
 20
176.596657
 30
0.0
 11
153.872665
 21
176.596657
 31
0.0
 70
   160
  1
<>{}{%%p1}
 71
     5
 42
-1.0
 52
5156.620156
  3
STANDARD
100
AcDbAlignedDimension
 13
139.872665
 23
205.742989
 33
0.0
 14
167.872665
 24
208.742989
 34
0.0
 50
360.0
100
AcDbRotatedDimension
1001
ACAD
1000
DSTYLE
1002
{
1070
    71
1070
     0
1070
    72
1070
     0
1070
    47
1040
1.0
1070
    48
1040
1.0
1002
}
  0
DIMENSION
  5
3FF
102
{ACAD_XDICTIONARY
360
400
102
}
330
1F
100
AcDbEntity
  8
0
 62
     0
370
     0
100
AcDbDimension
  2
*D68
 10
179.872665
 20
165.057076
 30
0.0
 11
159.872665
 21
165.057076
 31
0.0
 70
   160
  1
<>{}{%%p1}
 71
     5
 42
-1.0
 52
5156.620156
  3
STANDARD
100
AcDbAlignedDimension
 13
139.872665
 23
205.742989
 33
0.0
 14
179.872665
 24
208.742989
 34
0.0
 50
360.0
100
AcDbRotatedDimension
1001
ACAD
1000
DSTYLE
1002
{
1070
    71
1070
     0
1070
    72
1070
     0
1070
    47
1040
1.0
1070
    48
1040
1.0
1002
}
  0
DIMENSION
  5
401
102
{ACAD_XDICTIONARY
360
402
102
}
330
1F
100
AcDbEntity
  8
0
 62
     0
370
     0
100
AcDbDimension
  2
*D69
 10
196.872665
 20
153.988503
 30
0.0
 11
168.372665
 21
153.988503
 31
0.0
 70
   160
  1
<>{}{%%p1}
 71
     5
 42
-1.0
 52
5156.620156
  3
STANDARD
100
AcDbAlignedDimension
 13
139.872665
 23
205.742989
 33
0.0
 14
196.872665
 24
203.742989
 34
0.0
 50
360.0
100
AcDbRotatedDimension
1001
ACAD
1000
DSTYLE
1002
{
1070
    71
1070
     0
1070
    72
1070
     0
1070
    47
1040
1.0
1070
    48
1040
1.0
1002
}
  0
DIMENSION
  5
403
102
{ACAD_XDICTIONARY
360
404
102
}
330
1F
100
AcDbEntity
  8
0
 62
     0
370
     0
100
AcDbDimension
  2
*D70
 10
172.423584
 20
248.742989
 30
0.0
 11
172.423584
 21
274.557854
 31
0.0
 70
   160
  1
%%c<>{}{%%p1}
 71
     5
 42
-1.0
 52
5156.620156
  3
STANDARD
100
AcDbAlignedDimension
 13
167.872665
 23
208.742989
 33
0.0
 14
162.423584
 24
248.742989
 34
0.0
 50
90.0
100
AcDbRotatedDimension
1001
ACAD
1000
DSTYLE
1002
{
1070
    71
1070
     0
1070
    72
1070
     0
1070
    47
1040
1.0
1070
    48
1040
1.0
1002
}
  0
INSERT
  5
405
330
1F
100
AcDbEntity
  8
0
370
     0
100
AcDbBlockReference
  2
BLOCK1435
 10
167.872665
 20
492.742989
 30
0.0
  0
LINE
  5
406
330
1F
100
AcDbEntity
  8
0
  6
DASHDOT
 62
     7
370
    18
100
AcDbLine
 10
202.572666
 20
228.742989
 30
0.0
 11
134.172665
 21
228.742989
 31
0.0
  0
INSERT
  5
407
330
1F
100
AcDbEntity
  8
0
370
     0
100
AcDbBlockReference
  2
BLOCK1436
 10
167.872665
 20
492.742989
 30
0.0
  0
INSERT
  5
408
330
1F
100
AcDbEntity
  8
0
370
     0
100
AcDbBlockReference
  2
BLOCK1437
 10
106.631485
 20
201.06476
 30
0.0
  0
DIMENSION
  5
409
102
{ACAD_XDICTIONARY
360
40A
102
}
330
1F
100
AcDbEntity
  8
0
 62
     0
370
     0
100
AcDbDimension
  2
*D75
 10
115.631485
 20
136.737643
 30
0.0
 11
97.131485
 21
136.737643
 31
0.0
 70
   160
  1
<>{}{%%p1}
 71
     5
 42
-1.0
 52
5156.620156
  3
STANDARD
100
AcDbAlignedDimension
 13
78.631485
 23
122.06476
 33
0.0
 14
115.631485
 24
111.86476
 34
0.0
 50
360.0
100
AcDbRotatedDimension
1001
ACAD
1000
DSTYLE
1002
{
1070
    71
1070
     0
1070
    72
1070
     0
1070
    47
1040
1.0
1070
    48
1040
1.0
1002
}
  0
DIMENSION
  5
40B
102
{ACAD_XDICTIONARY
360
40C
102
}
330
1F
100
AcDbEntity
  8
0
 62
     0
370
     0
100
AcDbDimension
  2
*D76
 10
58.712109
 20
86.26476
 30
0.0
 11
58.712109
 21
75.446617
 31
0.0
 70
   160
  1
%%c<>{}{%%p0,1}
 71
     5
 42
-1.0
 52
5156.620156
  3
STANDARD
100
AcDbAlignedDimension
 13
78.631485
 23
111.86476
 33
0.0
 14
78.631485
 24
86.26476
 34
0.0
 50
270.0
100
AcDbRotatedDimension
1001
ACAD
1000
DSTYLE
1002
{
1070
    71
1070
     0
1070
    72
1070
     0
1070
    47
1040
0.1
1070
    48
1040
0.1
1002
}
  0
DIMENSION
  5
40D
102
{ACAD_XDICTIONARY
360
40E
102
}
330
1F
100
AcDbEntity
  8
0
 62
     0
370
     0
100
AcDbDimension
  2
*D77
 10
135.631485
 20
63.709658
 30
0.0
 11
153.08929
 21
63.709658
 31
0.0
 70
   160
  1
2x<>{}{\S+1^ 0;}
 71
     5
 42
-1.0
 52
5156.620156
  3
STANDARD
100
AcDbAlignedDimension
 13
129.631485
 23
77.56476
 33
0.0
 14
135.631485
 24
74.06476
 34
0.0
 50
360.0
100
AcDbRotatedDimension
1001
ACAD
1000
DSTYLE
1002
{
1070
    71
1070
     0
1070
    72
1070
     0
1070
    47
1040
1.0
1070
    48
1040
0.0
1002
}
  0
DIMENSION
  5
40F
102
{ACAD_XDICTIONARY
360
410
102
}
330
1F
100
AcDbEntity
  8
0
 62
     0
370
     0
100
AcDbDimension
  2
*D78
 10
164.418091
 20
113.56476
 30
0.0
 11
164.418091
 21
99.06476
 31
0.0
 70
   160
  1
%%c<>{}{\S0^ -1;}
 71
     5
 42
-1.0
 52
5156.620156
  3
STANDARD
100
AcDbAlignedDimension
 13
135.631485
 23
84.56476
 33
0.0
 14
135.631485
 24
113.56476
 34
0.0
 50
90.0
100
AcDbRotatedDimension
1001
ACAD
1000
DSTYLE
1002
{
1070
    71
1070
     0
1070
    72
1070
     0
1070
    47
1040
0.0
1070
    48
1040
1.0
1002
}
  0
DIMENSION
  5
411
102
{ACAD_XDICTIONARY
360
412
102
}
330
1F
100
AcDbEntity
  8
0
 62
     0
370
     0
100
AcDbDimension
  2
*D79
 10
179.249542
 20
120.56476
 30
0.0
 11
179.249542
 21
99.06476
 31
0.0
 70
   160
  1
%%c<>{}{\S+1^ 0;}
 71
     5
 42
-1.0
 52
5156.620156
  3
STANDARD
100
AcDbAlignedDimension
 13
135.631485
 23
77.56476
 33
0.0
 14
135.631485
 24
120.56476
 34
0.0
 50
90.0
100
AcDbRotatedDimension
1001
ACAD
1000
DSTYLE
1002
{
1070
    71
1070
     0
1070
    72
1070
     0
1070
    47
1040
1.0
1070
    48
1040
0.0
1002
}
  0
DIMENSION
  5
413
102
{ACAD_XDICTIONARY
360
414
102
}
330
1F
100
AcDbEntity
  8
0
 62
     0
370
     0
100
AcDbDimension
  2
*D80
 10
145.349083
 20
107.16476
 30
0.0
 11
145.349083
 21
135.313433
 31
0.0
 70
   160
  1
%%c<>{}{\S+0,2^ 0;}
 71
     5
 42
-1.0
 52
5156.620156
  3
STANDARD
100
AcDbAlignedDimension
 13
135.631485
 23
90.96476
 33
0.0
 14
135.631485
 24
107.16476
 34
0.0
 50
90.0
100
AcDbRotatedDimension
1001
ACAD
1000
DSTYLE
1002
{
1070
    71
1070
     0
1070
    72
1070
     0
1070
    47
1040
0.2
1070
    48
1040
0.0
1002
}
  0
LINE
  5
415
330
1F
100
AcDbEntity
  8
0
  6
DASHDOT
 62
     7
370
    18
100
AcDbLine
 10
72.931484
 20
99.06476
 30
0.0
 11
141.331486
 21
99.06476
 31
0.0
  0
INSERT
  5
416
330
1F
100
AcDbEntity
  8
0
370
     0
100
AcDbBlockReference
  2
BLOCK1438
 10
106.631485
 20
201.06476
 30
0.0
  0
INSERT
  5
417
330
1F
100
AcDbEntity
  8
0
370
     0
100
AcDbBlockReference
  2
BLOCK1439
 10
106.631485
 20
201.06476
 30
0.0
  0
INSERT
  5
418
330
1F
100
AcDbEntity
  8
0
370
     0
100
AcDbBlockReference
  2
BLOCK1440
 10
106.631485
 20
201.06476
 30
0.0
  0
ENDSEC
  0
SECTION
  2
OBJECTS
  0
DICTIONARY
  5
C
330
0
100
AcDbDictionary
281
     1
  3
ACAD_GROUP
350
D
  3
ACAD_LAYOUT
350
1A
  3
ACAD_MLINESTYLE
350
17
  3
ACAD_PLOTSETTINGS
350
19
  3
ACAD_PLOTSTYLENAME
350
E
  3
ACAD_SCALELIST
350
47
  0
DICTIONARY
  5
3F5
330
3F4
100
AcDbDictionary
280
     1
281
     1
  0
DICTIONARY
  5
3FC
330
3FB
100
AcDbDictionary
280
     1
281
     1
  0
DICTIONARY
  5
3FE
330
3FD
100
AcDbDictionary
280
     1
281
     1
  0
DICTIONARY
  5
400
330
3FF
100
AcDbDictionary
280
     1
281
     1
  0
DICTIONARY
  5
402
330
401
100
AcDbDictionary
280
     1
281
     1
  0
DICTIONARY
  5
404
330
403
100
AcDbDictionary
280
     1
281
     1
  0
DICTIONARY
  5
40A
330
409
100
AcDbDictionary
280
     1
281
     1
  0
DICTIONARY
  5
40C
330
40B
100
AcDbDictionary
280
     1
281
     1
  0
DICTIONARY
  5
40E
330
40D
100
AcDbDictionary
280
     1
281
     1
  0
DICTIONARY
  5
410
330
40F
100
AcDbDictionary
280
     1
281
     1
  0
DICTIONARY
  5
412
330
411
100
AcDbDictionary
280
     1
281
     1
  0
DICTIONARY
  5
414
330
413
100
AcDbDictionary
280
     1
281
     1
  0
DICTIONARY
  5
D
102
{ACAD_REACTORS
330
C
102
}
330
C
100
AcDbDictionary
281
     1
  0
DICTIONARY
  5
1A
102
{ACAD_REACTORS
330
C
102
}
330
C
100
AcDbDictionary
281
     1
  3
Layout1
350
1E
  3
Layout2
350
26
  3
Model
350
22
  0
DICTIONARY
  5
17
102
{ACAD_REACTORS
330
C
102
}
330
C
100
AcDbDictionary
281
     1
  3
Standard
350
18
  0
DICTIONARY
  5
19
102
{ACAD_REACTORS
330
C
102
}
330
C
100
AcDbDictionary
281
     1
  0
ACDBDICTIONARYWDFLT
  5
E
102
{ACAD_REACTORS
330
C
102
}
330
C
100
AcDbDictionary
281
     1
  3
Normal
350
F
100
AcDbDictionaryWithDefault
340
F
  0
DICTIONARY
  5
47
102
{ACAD_REACTORS
330
C
102
}
330
C
100
AcDbDictionary
281
     1
  3
A0
350
48
  3
A1
350
49
  3
A2
350
4A
  3
A3
350
4B
  3
A4
350
4C
  3
A5
350
4D
  3
A6
350
4E
  3
A7
350
4F
  3
A8
350
50
  3
A9
350
51
  3
B0
350
52
  3
B1
350
53
  3
B2
350
54
  3
B3
350
55
  3
B4
350
56
  3
B5
350
57
  3
B6
350
58
  3
B7
350
59
  3
B8
350
5A
  3
B9
350
5B
  3
C0
350
5C
  3
C1
350
5D
  3
C2
350
5E
  3
C3
350
5F
  3
C4
350
60
  3
C5
350
61
  3
C6
350
62
  3
C7
350
63
  3
C8
350
64
  3
C9
350
65
  3
D0
350
66
  3
D1
350
67
  3
D2
350
68
  0
LAYOUT
  5
1E
102
{ACAD_REACTORS
330
1A
102
}
330
1A
100
AcDbPlotSettings
  1

  2
none_device
  4

  6

 40
0.0
 41
0.0
 42
0.0
 43
0.0
 44
0.0
 45
0.0
 46
0.0
 47
0.0
 48
0.0
 49
0.0
140
0.0
141
0.0
142
1.0
143
1.0
 70
  4784
 72
     0
 73
     0
 74
     5
  7

 75
    16
147
1.0
148
0.0
149
0.0
100
AcDbLayout
  1
Layout1
 70
     1
 71
     1
 10
0.0
 20
0.0
 11
420.0
 21
297.0
 12
0.0
 22
0.0
 32
0.0
 14
0.0
 24
0.0
 34
0.0
 15
416.399994
 25
293.573761
 35
2.0
146
0.0
 13
0.0
 23
0.0
 33
0.0
 16
1.0
 26
0.0
 36
0.0
 17
0.0
 27
1.0
 37
0.0
 76
     0
330
1B
  0
LAYOUT
  5
26
102
{ACAD_REACTORS
330
1A
102
}
330
1A
100
AcDbPlotSettings
  1

  2
none_device
  4

  6

 40
0.0
 41
0.0
 42
0.0
 43
0.0
 44
0.0
 45
0.0
 46
0.0
 47
0.0
 48
0.0
 49
0.0
140
0.0
141
0.0
142
1.0
143
1.0
 70
  4784
 72
     0
 73
     0
 74
     5
  7

 75
    16
147
1.0
148
0.0
149
0.0
100
AcDbLayout
  1
Layout2
 70
     1
 71
     2
 10
0.0
 20
0.0
 11
0.0
 21
0.0
 12
0.0
 22
0.0
 32
0.0
 14
0.0
 24
0.0
 34
0.0
 15
0.0
 25
0.0
 35
0.0
146
0.0
 13
0.0
 23
0.0
 33
0.0
 16
1.0
 26
0.0
 36
0.0
 17
0.0
 27
1.0
 37
0.0
 76
     0
330
23
  0
LAYOUT
  5
22
102
{ACAD_REACTORS
330
1A
102
}
330
1A
100
AcDbPlotSettings
  1

  2
none_device
  4
Letter_(8.50_x_11.00_Inches)
  6

 40
6.35
 41
6.35
 42
6.350005
 43
6.350005
 44
215.9
 45
279.4
 46
0.0
 47
0.0
 48
0.0
 49
0.0
140
0.0
141
0.0
142
1.0
143
1.0
 70
  5808
 72
     0
 73
     0
 74
     0
  7

 75
     0
147
1.0
148
0.0
149
0.0
100
AcDbLayout
  1
Model
 70
     1
 71
     0
 10
0.0
 20
0.0
 11
420.0
 21
297.0
 12
0.0
 22
0.0
 32
0.0
 14
0.0
 24
0.0
 34
0.0
 15
416.399994
 25
293.573761
 35
2.0
146
0.0
 13
0.0
 23
0.0
 33
0.0
 16
1.0
 26
0.0
 36
0.0
 17
0.0
 27
1.0
 37
0.0
 76
     0
330
1F
331
29
  0
MLINESTYLE
  5
18
102
{ACAD_REACTORS
330
17
102
}
330
17
100
AcDbMlineStyle
  2
Standard
 70
     0
  3

 62
   256
 51
90.0
 52
90.0
 71
     2
 49
0.5
 62
   256
  6
BYLAYER
 49
-0.5
 62
   256
  6
BYLAYER
  0
ACDBPLACEHOLDER
  5
F
102
{ACAD_REACTORS
330
E
102
}
330
E
  0
SCALE
  5
48
102
{ACAD_REACTORS
330
47
102
}
330
47
100
AcDbScale
 70
     0
300
1:1
140
1.0
141
1.0
290
     1
  0
SCALE
  5
49
102
{ACAD_REACTORS
330
47
102
}
330
47
100
AcDbScale
 70
     0
300
1:2
140
1.0
141
2.0
290
     0
  0
SCALE
  5
4A
102
{ACAD_REACTORS
330
47
102
}
330
47
100
AcDbScale
 70
     0
300
1:4
140
1.0
141
4.0
290
     0
  0
SCALE
  5
4B
102
{ACAD_REACTORS
330
47
102
}
330
47
100
AcDbScale
 70
     0
300
1:5
140
1.0
141
5.0
290
     0
  0
SCALE
  5
4C
102
{ACAD_REACTORS
330
47
102
}
330
47
100
AcDbScale
 70
     0
300
1:8
140
1.0
141
8.0
290
     0
  0
SCALE
  5
4D
102
{ACAD_REACTORS
330
47
102
}
330
47
100
AcDbScale
 70
     0
300
1:10
140
1.0
141
10.0
290
     0
  0
SCALE
  5
4E
102
{ACAD_REACTORS
330
47
102
}
330
47
100
AcDbScale
 70
     0
300
1:16
140
1.0
141
16.0
290
     0
  0
SCALE
  5
4F
102
{ACAD_REACTORS
330
47
102
}
330
47
100
AcDbScale
 70
     0
300
1:20
140
1.0
141
20.0
290
     0
  0
SCALE
  5
50
102
{ACAD_REACTORS
330
47
102
}
330
47
100
AcDbScale
 70
     0
300
1:30
140
1.0
141
30.0
290
     0
  0
SCALE
  5
51
102
{ACAD_REACTORS
330
47
102
}
330
47
100
AcDbScale
 70
     0
300
1:40
140
1.0
141
40.0
290
     0
  0
SCALE
  5
52
102
{ACAD_REACTORS
330
47
102
}
330
47
100
AcDbScale
 70
     0
300
1:50
140
1.0
141
50.0
290
     0
  0
SCALE
  5
53
102
{ACAD_REACTORS
330
47
102
}
330
47
100
AcDbScale
 70
     0
300
1:100
140
1.0
141
100.0
290
     0
  0
SCALE
  5
54
102
{ACAD_REACTORS
330
47
102
}
330
47
100
AcDbScale
 70
     0
300
2:1
140
2.0
141
1.0
290
     0
  0
SCALE
  5
55
102
{ACAD_REACTORS
330
47
102
}
330
47
100
AcDbScale
 70
     0
300
4:1
140
4.0
141
1.0
290
     0
  0
SCALE
  5
56
102
{ACAD_REACTORS
330
47
102
}
330
47
100
AcDbScale
 70
     0
300
8:1
140
8.0
141
1.0
290
     0
  0
SCALE
  5
57
102
{ACAD_REACTORS
330
47
102
}
330
47
100
AcDbScale
 70
     0
300
10:1
140
10.0
141
1.0
290
     0
  0
SCALE
  5
58
102
{ACAD_REACTORS
330
47
102
}
330
47
100
AcDbScale
 70
     0
300
100:1
140
100.0
141
1.0
290
     0
  0
SCALE
  5
59
102
{ACAD_REACTORS
330
47
102
}
330
47
100
AcDbScale
 70
     0
300
1/128" = 1'-0"
140
0.007812
141
12.0
290
     0
  0
SCALE
  5
5A
102
{ACAD_REACTORS
330
47
102
}
330
47
100
AcDbScale
 70
     0
300
1/64" = 1'-0"
140
0.015625
141
12.0
290
     0
  0
SCALE
  5
5B
102
{ACAD_REACTORS
330
47
102
}
330
47
100
AcDbScale
 70
     0
300
1/32" = 1'-0"
140
0.03125
141
12.0
290
     0
  0
SCALE
  5
5C
102
{ACAD_REACTORS
330
47
102
}
330
47
100
AcDbScale
 70
     0
300
1/16" = 1'-0"
140
0.0625
141
12.0
290
     0
  0
SCALE
  5
5D
102
{ACAD_REACTORS
330
47
102
}
330
47
100
AcDbScale
 70
     0
300
3/32" = 1'-0"
140
0.09375
141
12.0
290
     0
  0
SCALE
  5
5E
102
{ACAD_REACTORS
330
47
102
}
330
47
100
AcDbScale
 70
     0
300
1/8" = 1'-0"
140
0.125
141
12.0
290
     0
  0
SCALE
  5
5F
102
{ACAD_REACTORS
330
47
102
}
330
47
100
AcDbScale
 70
     0
300
3/16" = 1'-0"
140
0.1875
141
12.0
290
     0
  0
SCALE
  5
60
102
{ACAD_REACTORS
330
47
102
}
330
47
100
AcDbScale
 70
     0
300
1/4" = 1'-0"
140
0.25
141
12.0
290
     0
  0
SCALE
  5
61
102
{ACAD_REACTORS
330
47
102
}
330
47
100
AcDbScale
 70
     0
300
3/8" = 1'-0"
140
0.375
141
12.0
290
     0
  0
SCALE
  5
62
102
{ACAD_REACTORS
330
47
102
}
330
47
100
AcDbScale
 70
     0
300
1/2" = 1'-0"
140
0.5
141
12.0
290
     0
  0
SCALE
  5
63
102
{ACAD_REACTORS
330
47
102
}
330
47
100
AcDbScale
 70
     0
300
3/4" = 1'-0"
140
0.75
141
12.0
290
     0
  0
SCALE
  5
64
102
{ACAD_REACTORS
330
47
102
}
330
47
100
AcDbScale
 70
     0
300
1" = 1'-0"
140
1.0
141
12.0
290
     0
  0
SCALE
  5
65
102
{ACAD_REACTORS
330
47
102
}
330
47
100
AcDbScale
 70
     0
300
1-1/2" = 1'-0"
140
1.5
141
12.0
290
     0
  0
SCALE
  5
66
102
{ACAD_REACTORS
330
47
102
}
330
47
100
AcDbScale
 70
     0
300
3" = 1'-0"
140
3.0
141
12.0
290
     0
  0
SCALE
  5
67
102
{ACAD_REACTORS
330
47
102
}
330
47
100
AcDbScale
 70
     0
300
6" = 1'-0"
140
6.0
141
12.0
290
     0
  0
SCALE
  5
68
102
{ACAD_REACTORS
330
47
102
}
330
47
100
AcDbScale
 70
     0
300
1'-0" = 1'-0"
140
12.0
141
12.0
290
     0
  0
ENDSEC
  0
EOF
