  0
SECTION
  2
HEADER
  9
$ACADVER
  1
AC1015
  9
$ACADMAINTVER
 70
     6
  9
$DWGCODEPAGE
  3
ANSI_1252
  9
$INSBASE
 10
0.0
 20
0.0
 30
0.0
  9
$EXTMIN
 10
0.0
 20
0.0
 30
0.0
  9
$EXTMAX
 10
293.399994
 20
465.374573
 30
2.0
  9
$LIMMIN
 10
0.0
 20
0.0
  9
$LIMMAX
 10
420.0
 20
297.0
  9
$ORTHOMODE
 70
     0
  9
$REGENMODE
 70
     1
  9
$FILLMODE
 70
     1
  9
$QTEXTMODE
 70
     0
  9
$MIRRTEXT
 70
     1
  9
$LTSCALE
 40
1.0
  9
$ATTMODE
 70
     1
  9
$TEXTSIZE
 40
2.5
  9
$TRACEWID
 40
1.0
  9
$TEXTSTYLE
  7
Standard
  9
$CLAYER
  8
0
  9
$CELTYPE
  6
ByLayer
  9
$CECOLOR
 62
   256
  9
$CELTSCALE
 40
1.0
  9
$DISPSILH
 70
     0
  9
$DIMSCALE
 40
1.0
  9
$DIMASZ
 40
2.5
  9
$DIMEXO
 40
0.625
  9
$DIMDLI
 40
3.75
  9
$DIMRND
 40
0.0
  9
$DIMDLE
 40
0.0
  9
$DIMEXE
 40
1.25
  9
$DIMTP
 40
0.0
  9
$DIMTM
 40
0.0
  9
$DIMTXT
 40
2.5
  9
$DIMCEN
 40
2.5
  9
$DIMTSZ
 40
0.0
  9
$DIMTOL
 70
     0
  9
$DIMLIM
 70
     0
  9
$DIMTIH
 70
     0
  9
$DIMTOH
 70
     0
  9
$DIMSE1
 70
     0
  9
$DIMSE2
 70
     0
  9
$DIMTAD
 70
     1
  9
$DIMZIN
 70
     8
  9
$DIMBLK
  1

  9
$DIMASO
 70
     1
  9
$DIMSHO
 70
     1
  9
$DIMPOST
  1

  9
$DIMAPOST
  1

  9
$DIMALT
 70
     0
  9
$DIMALTD
 70
     3
  9
$DIMALTF
 40
0.03937
  9
$DIMLFAC
 40
1.0
  9
$DIMTOFL
 70
     1
  9
$DIMTVP
 40
0.0
  9
$DIMTIX
 70
     0
  9
$DIMSOXD
 70
     0
  9
$DIMSAH
 70
     0
  9
$DIMBLK1
  1

  9
$DIMBLK2
  1

  9
$DIMSTYLE
  2
STANDARD
  9
$DIMCLRD
 70
     0
  9
$DIMCLRE
 70
     0
  9
$DIMCLRT
 70
     0
  9
$DIMTFAC
 40
1.0
  9
$DIMGAP
 40
0.625
  9
$DIMJUST
 70
     0
  9
$DIMSD1
 70
     0
  9
$DIMSD2
 70
     0
  9
$DIMTOLJ
 70
     0
  9
$DIMTZIN
 70
     8
  9
$DIMALTZ
 70
     0
  9
$DIMALTTZ
 70
     0
  9
$DIMUPT
 70
     0
  9
$DIMDEC
 70
     2
  9
$DIMTDEC
 70
     2
  9
$DIMALTU
 70
     2
  9
$DIMALTTD
 70
     3
  9
$DIMTXSTY
  7
Standard
  9
$DIMAUNIT
 70
     0
  9
$DIMADEC
 70
     0
  9
$DIMALTRND
 40
0.0
  9
$DIMAZIN
 70
     0
  9
$DIMDSEP
 70
    44
  9
$DIMATFIT
 70
     0
  9
$DIMFRAC
 70
     0
  9
$DIMLDRBLK
  1

  9
$DIMLUNIT
 70
     2
  9
$DIMLWD
 70
    -2
  9
$DIMLWE
 70
    -2
  9
$DIMTMOVE
 70
     0
  9
$LUNITS
 70
     2
  9
$LUPREC
 70
     4
  9
$SKETCHINC
 40
1.0
  9
$FILLETRAD
 40
2.5
  9
$AUNITS
 70
     0
  9
$AUPREC
 70
     0
  9
$MENU
  1
.
  9
$ELEVATION
 40
0.0
  9
$PELEVATION
 40
0.0
  9
$THICKNESS
 40
0.0
  9
$LIMCHECK
 70
     0
  9
$CHAMFERA
 40
2.5
  9
$CHAMFERB
 40
2.5
  9
$CHAMFERC
 40
0.0
  9
$CHAMFERD
 40
0.0
  9
$SKPOLY
 70
     0
  9
$TDCREATE
 40
2447892.875
  9
$TDUCREATE
 40
0.0
  9
$TDUPDATE
 40
2458949.210225521
  9
$TDUUPDATE
 40
2458949.335225521
  9
$TDINDWG
 40
0.0
  9
$TDUSRTIMER
 40
0.0
  9
$USRTIMER
 70
     1
  9
$ANGBASE
 50
0.0
  9
$ANGDIR
 70
     0
  9
$PDMODE
 70
     0
  9
$PDSIZE
 40
0.0
  9
$PLINEWID
 40
0.0
  9
$SPLFRAME
 70
     0
  9
$SPLINETYPE
 70
     6
  9
$SPLINESEGS
 70
     8
  9
$HANDSEED
  5
2D4
  9
$SURFTAB1
 70
     6
  9
$SURFTAB2
 70
     6
  9
$SURFTYPE
 70
     6
  9
$SURFU
 70
     6
  9
$SURFV
 70
     6
  9
$UCSBASE
  2

  9
$UCSNAME
  2

  9
$UCSORG
 10
0.0
 20
0.0
 30
0.0
  9
$UCSXDIR
 10
1.0
 20
0.0
 30
0.0
  9
$UCSYDIR
 10
0.0
 20
1.0
 30
0.0
  9
$UCSORTHOREF
  2

  9
$UCSORTHOVIEW
 70
     1
  9
$UCSORGTOP
 10
0.0
 20
0.0
 30
0.0
  9
$UCSORGBOTTOM
 10
0.0
 20
0.0
 30
0.0
  9
$UCSORGLEFT
 10
0.0
 20
0.0
 30
0.0
  9
$UCSORGRIGHT
 10
0.0
 20
0.0
 30
0.0
  9
$UCSORGFRONT
 10
0.0
 20
0.0
 30
0.0
  9
$UCSORGBACK
 10
0.0
 20
0.0
 30
0.0
  9
$PUCSBASE
  2

  9
$PUCSNAME
  2

  9
$PUCSORG
 10
0.0
 20
0.0
 30
0.0
  9
$PUCSXDIR
 10
1.0
 20
0.0
 30
0.0
  9
$PUCSYDIR
 10
0.0
 20
1.0
 30
0.0
  9
$PUCSORTHOREF
  2

  9
$PUCSORTHOVIEW
 70
     0
  9
$PUCSORGTOP
 10
0.0
 20
0.0
 30
0.0
  9
$PUCSORGBOTTOM
 10
0.0
 20
0.0
 30
0.0
  9
$PUCSORGLEFT
 10
0.0
 20
0.0
 30
0.0
  9
$PUCSORGRIGHT
 10
0.0
 20
0.0
 30
0.0
  9
$PUCSORGFRONT
 10
0.0
 20
0.0
 30
0.0
  9
$PUCSORGBACK
 10
0.0
 20
0.0
 30
0.0
  9
$USERI1
 70
     0
  9
$USERI2
 70
     0
  9
$USERI3
 70
     0
  9
$USERI4
 70
     0
  9
$USERI5
 70
     0
  9
$USERR1
 40
0.0
  9
$USERR2
 40
0.0
  9
$USERR3
 40
0.0
  9
$USERR4
 40
0.0
  9
$USERR5
 40
0.0
  9
$WORLDVIEW
 70
     1
  9
$SHADEDGE
 70
     3
  9
$SHADEDIF
 70
    70
  9
$TILEMODE
 70
     1
  9
$MAXACTVP
 70
    64
  9
$PINSBASE
 10
0.0
 20
0.0
 30
0.0
  9
$PLIMCHECK
 70
     0
  9
$PEXTMIN
 10
0.0
 20
0.0
 30
0.0
  9
$PEXTMAX
 10
293.399994
 20
465.374573
 30
2.0
  9
$PLIMMIN
 10
0.0
 20
0.0
  9
$PLIMMAX
 10
420.0
 20
297.0
  9
$UNITMODE
 70
     0
  9
$VISRETAIN
 70
     0
  9
$PLINEGEN
 70
     0
  9
$PSLTSCALE
 70
     1
  9
$TREEDEPTH
 70
  3020
  9
$CMLSTYLE
  2
Standard
  9
$CMLJUST
 70
     0
  9
$CMLSCALE
 40
20.0
  9
$PROXYGRAPHICS
 70
     1
  9
$MEASUREMENT
 70
     1
  9
$CELWEIGHT
370
    -1
  9
$ENDCAPS
280
     0
  9
$JOINSTYLE
280
     0
  9
$LWDISPLAY
290
     0
  9
$INSUNITS
 70
     0
  9
$HYPERLINKBASE
  1

  9
$STYLESHEET
  1

  9
$XEDIT
290
     1
  9
$CEPSNTYPE
380
     0
  9
$PSTYLEMODE
290
     0
  9
$FINGERPRINTGUID
  2
{ADF5C62D-9539-4C28-89FD-2BE6718984AC}
  9
$VERSIONGUID
  2
{FAEB1C32-E019-11D5-929B-00C0DF256EC4}
  9
$EXTNAMES
290
     1
  9
$PSVPSCALE
 40
0.0
  9
$OLESTARTUP
290
     0
  0
ENDSEC
  0
SECTION
  2
CLASSES
  0
CLASS
  1
ACDBDICTIONARYWDFLT
  2
AcDbDictionaryWithDefault
  3
ObjectDBX Classes
 90
        0
280
     0
281
     0
  0
CLASS
  1
VISUALSTYLE
  2
AcDbVisualStyle
  3
ObjectDBX Classes
 90
     4095
280
     0
281
     0
  0
CLASS
  1
MATERIAL
  2
AcDbMaterial
  3
ObjectDBX Classes
 90
     1153
280
     0
281
     0
  0
CLASS
  1
SCALE
  2
AcDbScale
  3
ObjectDBX Classes
 90
     1153
280
     0
281
     0
  0
CLASS
  1
TABLESTYLE
  2
AcDbTableStyle
  3
ObjectDBX Classes
 90
     4095
280
     0
281
     0
  0
CLASS
  1
MLEADERSTYLE
  2
AcDbMLeaderStyle
  3
ACDB_MLEADERSTYLE_CLASS
 90
     4095
280
     0
281
     0
  0
CLASS
  1
SUN
  2
AcDbSun
  3
SCENEOE
 90
     1153
280
     0
281
     0
  0
CLASS
  1
ACDBPLACEHOLDER
  2
AcDbPlaceHolder
  3
ObjectDBX Classes
 90
        0
280
     0
281
     0
  0
CLASS
  1
LAYOUT
  2
AcDbLayout
  3
ObjectDBX Classes
 90
        0
280
     0
281
     0
  0
ENDSEC
  0
SECTION
  2
TABLES
  0
TABLE
  2
VPORT
  5
8
330
0
100
AcDbSymbolTable
 70
     1
  0
VPORT
  5
29
330
8
100
AcDbSymbolTableRecord
100
AcDbViewportTableRecord
  2
*Active
 70
     0
 10
0.0
 20
0.0
 11
1.0
 21
1.0
 12
10.429907
 22
4.5
 13
0.0
 23
0.0
 14
0.5
 24
0.5
 15
0.5
 25
0.5
 16
0.0
 26
0.0
 36
1.0
 17
0.0
 27
0.0
 37
0.0
 40
9.0
 41
1.972973
 42
50.0
 43
0.0
 44
0.0
 50
0.0
 51
0.0
 71
     0
 72
   100
 73
     1
 74
     3
 75
     0
 76
     0
 77
     0
 78
     0
281
     0
 65
     1
110
0.0
120
0.0
130
0.0
111
1.0
121
0.0
131
0.0
112
0.0
122
1.0
132
0.0
 79
     0
146
0.0
  0
ENDTAB
  0
TABLE
  2
LTYPE
  5
5
330
0
100
AcDbSymbolTable
 70
     2
  0
LTYPE
  5
14
330
5
100
AcDbSymbolTableRecord
100
AcDbLinetypeTableRecord
  2
ByBlock
 70
     0
  3

 72
    65
 73
     0
 40
0.0
  0
LTYPE
  5
15
330
5
100
AcDbSymbolTableRecord
100
AcDbLinetypeTableRecord
  2
ByLayer
 70
     0
  3

 72
    65
 73
     0
 40
0.0
  0
LTYPE
  5
16
330
5
100
AcDbSymbolTableRecord
100
AcDbLinetypeTableRecord
  2
Continuous
 70
     0
  3
Solid line
 72
    65
 73
     0
 40
0.0
  0
LTYPE
  5
6F
330
5
100
AcDbSymbolTableRecord
100
AcDbLinetypeTableRecord
  2
DASHDOT
 70
     0
  3
 __ . __ . __ . __ . __ . __ . __ . 
 72
    65
 73
     4
 40
18.5
 49
12.0
 74
     0
 49
-3.0
 74
     0
 49
0.5
 74
     0
 49
-3.0
 74
     0
  0
ENDTAB
  0
TABLE
  2
LAYER
  5
2
330
0
100
AcDbSymbolTable
 70
     1
  0
LAYER
  5
10
330
2
100
AcDbSymbolTableRecord
100
AcDbLayerTableRecord
  2
0
 70
     0
 62
     7
  6
Continuous
370
    13
390
F
  0
ENDTAB
  0
TABLE
  2
STYLE
  5
3
330
0
100
AcDbSymbolTable
 70
     2
  0
STYLE
  5
11
330
3
100
AcDbSymbolTableRecord
100
AcDbTextStyleTableRecord
  2
Standard
 70
     0
 40
0.0
 41
1.0
 50
0.0
 71
     0
 42
2.5
  3
isocp.shx
  4

  0
STYLE
  5
6E
330
3
100
AcDbSymbolTableRecord
100
AcDbTextStyleTableRecord
  2
GDT
 70
     0
 40
0.0
 41
1.0
 50
0.0
 71
     0
 42
0.2
  3
gdt.shx
  4

  0
ENDTAB
  0
TABLE
  2
VIEW
  5
6
330
0
100
AcDbSymbolTable
 70
     0
  0
ENDTAB
  0
TABLE
  2
UCS
  5
7
330
0
100
AcDbSymbolTable
 70
     0
  0
ENDTAB
  0
TABLE
  2
APPID
  5
9
330
0
100
AcDbSymbolTable
 70
     1
  0
APPID
  5
12
330
9
100
AcDbSymbolTableRecord
100
AcDbRegAppTableRecord
  2
ACAD
 70
     0
  0
ENDTAB
  0
TABLE
  2
DIMSTYLE
  5
A
330
0
100
AcDbSymbolTable
 70
     1
100
AcDbDimStyleTable
  0
DIMSTYLE
105
27
102
{ACAD_REACTORS
330
2B6
330
2B8
330
2BA
330
2BC
330
2BE
330
2C0
330
2C2
330
2C4
330
2CE
102
}
330
A
100
AcDbSymbolTableRecord
100
AcDbDimStyleTableRecord
  2
STANDARD
 70
     0
 41
2.5
 42
0.625
 43
3.75
 44
1.25
 73
     0
 74
     0
 77
     1
 78
     8
140
2.5
141
2.5
143
0.03937
147
0.625
171
     3
172
     1
178
     0
271
     2
272
     2
274
     3
278
    44
283
     0
284
     8
289
     0
340
0
  0
ENDTAB
  0
TABLE
  2
BLOCK_RECORD
  5
1
330
0
100
AcDbSymbolTable
 70
    72
  0
BLOCK_RECORD
  5
1F
330
1
100
AcDbSymbolTableRecord
100
AcDbBlockTableRecord
  2
*Model_Space
340
22
  0
BLOCK_RECORD
  5
1B
330
1
100
AcDbSymbolTableRecord
100
AcDbBlockTableRecord
  2
*Paper_Space
340
1E
  0
BLOCK_RECORD
  5
23
330
1
100
AcDbSymbolTableRecord
100
AcDbBlockTableRecord
  2
*Paper_Space0
340
26
  0
BLOCK_RECORD
  5
70
330
1
100
AcDbSymbolTableRecord
100
AcDbBlockTableRecord
  2
BLOCK345
340
0
102
{BLKREFS
331
249
102
}
  0
BLOCK_RECORD
  5
73
330
1
100
AcDbSymbolTableRecord
100
AcDbBlockTableRecord
  2
BLOCK346
340
0
102
{BLKREFS
331
24A
102
}
  0
BLOCK_RECORD
  5
76
330
1
100
AcDbSymbolTableRecord
100
AcDbBlockTableRecord
  2
BLOCK347
340
0
102
{BLKREFS
331
24B
102
}
  0
BLOCK_RECORD
  5
79
330
1
100
AcDbSymbolTableRecord
100
AcDbBlockTableRecord
  2
BLOCK348
340
0
102
{BLKREFS
331
24C
102
}
  0
BLOCK_RECORD
  5
7C
330
1
100
AcDbSymbolTableRecord
100
AcDbBlockTableRecord
  2
BLOCK349
340
0
102
{BLKREFS
331
24D
102
}
  0
BLOCK_RECORD
  5
7F
330
1
100
AcDbSymbolTableRecord
100
AcDbBlockTableRecord
  2
BLOCK350
340
0
102
{BLKREFS
331
24E
102
}
  0
BLOCK_RECORD
  5
82
330
1
100
AcDbSymbolTableRecord
100
AcDbBlockTableRecord
  2
BLOCK351
340
0
102
{BLKREFS
331
24F
102
}
  0
BLOCK_RECORD
  5
85
330
1
100
AcDbSymbolTableRecord
100
AcDbBlockTableRecord
  2
BLOCK352
340
0
102
{BLKREFS
331
250
102
}
  0
BLOCK_RECORD
  5
88
330
1
100
AcDbSymbolTableRecord
100
AcDbBlockTableRecord
  2
BLOCK353
340
0
102
{BLKREFS
331
251
102
}
  0
BLOCK_RECORD
  5
8B
330
1
100
AcDbSymbolTableRecord
100
AcDbBlockTableRecord
  2
BLOCK354
340
0
102
{BLKREFS
331
252
102
}
  0
BLOCK_RECORD
  5
8E
330
1
100
AcDbSymbolTableRecord
100
AcDbBlockTableRecord
  2
BLOCK355
340
0
102
{BLKREFS
331
253
102
}
  0
BLOCK_RECORD
  5
91
330
1
100
AcDbSymbolTableRecord
100
AcDbBlockTableRecord
  2
BLOCK356
340
0
102
{BLKREFS
331
254
102
}
  0
BLOCK_RECORD
  5
94
330
1
100
AcDbSymbolTableRecord
100
AcDbBlockTableRecord
  2
BLOCK357
340
0
102
{BLKREFS
331
255
102
}
  0
BLOCK_RECORD
  5
97
330
1
100
AcDbSymbolTableRecord
100
AcDbBlockTableRecord
  2
BLOCK358
340
0
102
{BLKREFS
331
256
102
}
  0
BLOCK_RECORD
  5
9A
330
1
100
AcDbSymbolTableRecord
100
AcDbBlockTableRecord
  2
BLOCK359
340
0
102
{BLKREFS
331
257
102
}
  0
BLOCK_RECORD
  5
9D
330
1
100
AcDbSymbolTableRecord
100
AcDbBlockTableRecord
  2
BLOCK360
340
0
102
{BLKREFS
331
258
102
}
  0
BLOCK_RECORD
  5
A0
330
1
100
AcDbSymbolTableRecord
100
AcDbBlockTableRecord
  2
BLOCK361
340
0
102
{BLKREFS
331
259
102
}
  0
BLOCK_RECORD
  5
A3
330
1
100
AcDbSymbolTableRecord
100
AcDbBlockTableRecord
  2
BLOCK362
340
0
102
{BLKREFS
331
25A
102
}
  0
BLOCK_RECORD
  5
A6
330
1
100
AcDbSymbolTableRecord
100
AcDbBlockTableRecord
  2
BLOCK363
340
0
102
{BLKREFS
331
25B
102
}
  0
BLOCK_RECORD
  5
A9
330
1
100
AcDbSymbolTableRecord
100
AcDbBlockTableRecord
  2
BLOCK364
340
0
102
{BLKREFS
331
25C
102
}
  0
BLOCK_RECORD
  5
AC
330
1
100
AcDbSymbolTableRecord
100
AcDbBlockTableRecord
  2
BLOCK365
340
0
102
{BLKREFS
331
25D
102
}
  0
BLOCK_RECORD
  5
AF
330
1
100
AcDbSymbolTableRecord
100
AcDbBlockTableRecord
  2
BLOCK366
340
0
102
{BLKREFS
331
25E
102
}
  0
BLOCK_RECORD
  5
B2
330
1
100
AcDbSymbolTableRecord
100
AcDbBlockTableRecord
  2
BLOCK367
340
0
102
{BLKREFS
331
25F
102
}
  0
BLOCK_RECORD
  5
B5
330
1
100
AcDbSymbolTableRecord
100
AcDbBlockTableRecord
  2
BLOCK368
340
0
102
{BLKREFS
331
260
102
}
  0
BLOCK_RECORD
  5
B8
330
1
100
AcDbSymbolTableRecord
100
AcDbBlockTableRecord
  2
BLOCK369
340
0
102
{BLKREFS
331
261
102
}
  0
BLOCK_RECORD
  5
BB
330
1
100
AcDbSymbolTableRecord
100
AcDbBlockTableRecord
  2
BLOCK370
340
0
102
{BLKREFS
331
262
102
}
  0
BLOCK_RECORD
  5
BE
330
1
100
AcDbSymbolTableRecord
100
AcDbBlockTableRecord
  2
BLOCK371
340
0
102
{BLKREFS
331
263
102
}
  0
BLOCK_RECORD
  5
C1
330
1
100
AcDbSymbolTableRecord
100
AcDbBlockTableRecord
  2
BLOCK372
340
0
102
{BLKREFS
331
264
102
}
  0
BLOCK_RECORD
  5
C4
330
1
100
AcDbSymbolTableRecord
100
AcDbBlockTableRecord
  2
BLOCK373
340
0
102
{BLKREFS
331
265
102
}
  0
BLOCK_RECORD
  5
C7
330
1
100
AcDbSymbolTableRecord
100
AcDbBlockTableRecord
  2
BLOCK374
340
0
102
{BLKREFS
331
266
102
}
  0
BLOCK_RECORD
  5
CA
330
1
100
AcDbSymbolTableRecord
100
AcDbBlockTableRecord
  2
BLOCK375
340
0
102
{BLKREFS
331
267
102
}
  0
BLOCK_RECORD
  5
CD
330
1
100
AcDbSymbolTableRecord
100
AcDbBlockTableRecord
  2
BLOCK376
340
0
102
{BLKREFS
331
268
102
}
  0
BLOCK_RECORD
  5
D0
330
1
100
AcDbSymbolTableRecord
100
AcDbBlockTableRecord
  2
BLOCK377
340
0
102
{BLKREFS
331
269
102
}
  0
BLOCK_RECORD
  5
D3
330
1
100
AcDbSymbolTableRecord
100
AcDbBlockTableRecord
  2
BLOCK378
340
0
102
{BLKREFS
331
26A
102
}
  0
BLOCK_RECORD
  5
D6
330
1
100
AcDbSymbolTableRecord
100
AcDbBlockTableRecord
  2
BLOCK379
340
0
102
{BLKREFS
331
26B
102
}
  0
BLOCK_RECORD
  5
D9
330
1
100
AcDbSymbolTableRecord
100
AcDbBlockTableRecord
  2
BLOCK380
340
0
102
{BLKREFS
331
26C
102
}
  0
BLOCK_RECORD
  5
DC
330
1
100
AcDbSymbolTableRecord
100
AcDbBlockTableRecord
  2
BLOCK381
340
0
102
{BLKREFS
331
26D
102
}
  0
BLOCK_RECORD
  5
DF
330
1
100
AcDbSymbolTableRecord
100
AcDbBlockTableRecord
  2
BLOCK382
340
0
102
{BLKREFS
331
26E
102
}
  0
BLOCK_RECORD
  5
E2
330
1
100
AcDbSymbolTableRecord
100
AcDbBlockTableRecord
  2
BLOCK383
340
0
102
{BLKREFS
331
26F
102
}
  0
BLOCK_RECORD
  5
E5
330
1
100
AcDbSymbolTableRecord
100
AcDbBlockTableRecord
  2
BLOCK384
340
0
102
{BLKREFS
331
270
102
}
  0
BLOCK_RECORD
  5
E8
330
1
100
AcDbSymbolTableRecord
100
AcDbBlockTableRecord
  2
BLOCK385
340
0
102
{BLKREFS
331
271
102
}
  0
BLOCK_RECORD
  5
EB
330
1
100
AcDbSymbolTableRecord
100
AcDbBlockTableRecord
  2
BLOCK386
340
0
102
{BLKREFS
331
272
102
}
  0
BLOCK_RECORD
  5
EE
330
1
100
AcDbSymbolTableRecord
100
AcDbBlockTableRecord
  2
BLOCK387
340
0
102
{BLKREFS
331
273
102
}
  0
BLOCK_RECORD
  5
F1
330
1
100
AcDbSymbolTableRecord
100
AcDbBlockTableRecord
  2
BLOCK388
340
0
102
{BLKREFS
331
274
102
}
  0
BLOCK_RECORD
  5
F4
330
1
100
AcDbSymbolTableRecord
100
AcDbBlockTableRecord
  2
BLOCK389
340
0
102
{BLKREFS
331
275
102
}
  0
BLOCK_RECORD
  5
F7
330
1
100
AcDbSymbolTableRecord
100
AcDbBlockTableRecord
  2
BLOCK390
340
0
102
{BLKREFS
331
276
102
}
  0
BLOCK_RECORD
  5
FA
330
1
100
AcDbSymbolTableRecord
100
AcDbBlockTableRecord
  2
BLOCK391
340
0
102
{BLKREFS
331
277
102
}
  0
BLOCK_RECORD
  5
FD
330
1
100
AcDbSymbolTableRecord
100
AcDbBlockTableRecord
  2
BLOCK392
340
0
102
{BLKREFS
331
278
102
}
  0
BLOCK_RECORD
  5
100
330
1
100
AcDbSymbolTableRecord
100
AcDbBlockTableRecord
  2
BLOCK393
340
0
102
{BLKREFS
331
279
102
}
  0
BLOCK_RECORD
  5
103
330
1
100
AcDbSymbolTableRecord
100
AcDbBlockTableRecord
  2
BLOCK394
340
0
102
{BLKREFS
331
27A
102
}
  0
BLOCK_RECORD
  5
106
330
1
100
AcDbSymbolTableRecord
100
AcDbBlockTableRecord
  2
BLOCK395
340
0
102
{BLKREFS
331
27B
102
}
  0
BLOCK_RECORD
  5
109
330
1
100
AcDbSymbolTableRecord
100
AcDbBlockTableRecord
  2
BLOCK396
340
0
102
{BLKREFS
331
27C
102
}
  0
BLOCK_RECORD
  5
10C
330
1
100
AcDbSymbolTableRecord
100
AcDbBlockTableRecord
  2
BLOCK397
340
0
102
{BLKREFS
331
27D
102
}
  0
BLOCK_RECORD
  5
10F
330
1
100
AcDbSymbolTableRecord
100
AcDbBlockTableRecord
  2
*D54
340
0
  0
BLOCK_RECORD
  5
112
330
1
100
AcDbSymbolTableRecord
100
AcDbBlockTableRecord
  2
*D55
340
0
  0
BLOCK_RECORD
  5
115
330
1
100
AcDbSymbolTableRecord
100
AcDbBlockTableRecord
  2
*D56
340
0
  0
BLOCK_RECORD
  5
118
330
1
100
AcDbSymbolTableRecord
100
AcDbBlockTableRecord
  2
*D57
340
0
  0
BLOCK_RECORD
  5
11B
330
1
100
AcDbSymbolTableRecord
100
AcDbBlockTableRecord
  2
*D58
340
0
  0
BLOCK_RECORD
  5
11E
330
1
100
AcDbSymbolTableRecord
100
AcDbBlockTableRecord
  2
*D59
340
0
  0
BLOCK_RECORD
  5
121
330
1
100
AcDbSymbolTableRecord
100
AcDbBlockTableRecord
  2
*D60
340
0
  0
BLOCK_RECORD
  5
124
330
1
100
AcDbSymbolTableRecord
100
AcDbBlockTableRecord
  2
*D61
340
0
  0
BLOCK_RECORD
  5
127
330
1
100
AcDbSymbolTableRecord
100
AcDbBlockTableRecord
  2
BLOCK398
340
0
102
{BLKREFS
331
2C6
102
}
  0
BLOCK_RECORD
  5
12A
330
1
100
AcDbSymbolTableRecord
100
AcDbBlockTableRecord
  2
BLOCK399
340
0
102
{BLKREFS
331
2C7
102
}
  0
BLOCK_RECORD
  5
12D
330
1
100
AcDbSymbolTableRecord
100
AcDbBlockTableRecord
  2
BLOCK400
340
0
102
{BLKREFS
331
2C9
102
}
  0
BLOCK_RECORD
  5
130
330
1
100
AcDbSymbolTableRecord
100
AcDbBlockTableRecord
  2
BLOCK401
340
0
102
{BLKREFS
331
2CA
102
}
  0
BLOCK_RECORD
  5
133
330
1
100
AcDbSymbolTableRecord
100
AcDbBlockTableRecord
  2
BLOCK402
340
0
102
{BLKREFS
331
2CB
102
}
  0
BLOCK_RECORD
  5
136
330
1
100
AcDbSymbolTableRecord
100
AcDbBlockTableRecord
  2
BLOCK403
340
0
102
{BLKREFS
331
2CC
102
}
  0
BLOCK_RECORD
  5
139
330
1
100
AcDbSymbolTableRecord
100
AcDbBlockTableRecord
  2
BLOCK404
340
0
102
{BLKREFS
331
2CD
102
}
  0
BLOCK_RECORD
  5
13C
330
1
100
AcDbSymbolTableRecord
100
AcDbBlockTableRecord
  2
*D69
340
0
  0
BLOCK_RECORD
  5
13F
330
1
100
AcDbSymbolTableRecord
100
AcDbBlockTableRecord
  2
BLOCK405
340
0
102
{BLKREFS
331
2D2
102
}
  0
BLOCK_RECORD
  5
142
330
1
100
AcDbSymbolTableRecord
100
AcDbBlockTableRecord
  2
BLOCK406
340
0
102
{BLKREFS
331
2D3
102
}
  0
ENDTAB
  0
ENDSEC
  0
SECTION
  2
BLOCKS
  0
BLOCK
  5
20
330
1F
100
AcDbEntity
  8
0
100
AcDbBlockBegin
  2
*Model_Space
 70
     0
 10
0.0
 20
0.0
 30
0.0
  3
*Model_Space
  1

  0
ENDBLK
  5
21
330
1F
100
AcDbEntity
  8
0
100
AcDbBlockEnd
  0
BLOCK
  5
1C
330
1B
100
AcDbEntity
 67
     1
  8
0
100
AcDbBlockBegin
  2
*Paper_Space
 70
     0
 10
0.0
 20
0.0
 30
0.0
  3
*Paper_Space
  1

  0
ENDBLK
  5
1D
330
1B
100
AcDbEntity
 67
     1
  8
0
100
AcDbBlockEnd
  0
BLOCK
  5
24
330
23
100
AcDbEntity
  8
0
100
AcDbBlockBegin
  2
*Paper_Space0
 70
     0
 10
0.0
 20
0.0
 30
0.0
  3
*Paper_Space0
  1

  0
ENDBLK
  5
25
330
23
100
AcDbEntity
  8
0
100
AcDbBlockEnd
  0
BLOCK
  5
71
330
70
100
AcDbEntity
  8
0
100
AcDbBlockBegin
  2
BLOCK345
 70
     0
 10
0.0
 20
0.0
 30
0.0
  3
BLOCK345
  1

  0
TEXT
  5
145
330
70
100
AcDbEntity
  8
0
 62
     7
370
    18
100
AcDbText
 10
258.226196
 20
3.076224
 30
0.0
 40
3.5
  1
A
 41
1.110901
 72
     5
 11
261.373749
 21
3.076224
 31
0.0
100
AcDbText
  0
ENDBLK
  5
72
330
70
100
AcDbEntity
  8
0
100
AcDbBlockEnd
  0
BLOCK
  5
74
330
73
100
AcDbEntity
  8
0
100
AcDbBlockBegin
  2
BLOCK346
 70
     0
 10
0.0
 20
0.0
 30
0.0
  3
BLOCK346
  1

  0
TEXT
  5
146
330
73
100
AcDbEntity
  8
0
 62
     7
370
    18
100
AcDbText
 10
35.799999
 20
3.076224
 30
0.0
 40
3.5
  1
D
 41
0.933333
 72
     5
 11
38.599998
 21
3.076224
 31
0.0
100
AcDbText
  0
ENDBLK
  5
75
330
73
100
AcDbEntity
  8
0
100
AcDbBlockEnd
  0
BLOCK
  5
77
330
76
100
AcDbEntity
  8
0
100
AcDbBlockBegin
  2
BLOCK347
 70
     0
 10
0.0
 20
0.0
 30
0.0
  3
BLOCK347
  1

  0
TEXT
  5
147
330
76
100
AcDbEntity
  8
0
 62
     7
370
    18
100
AcDbText
 10
187.523788
 20
203.600006
 30
0.0
 40
3.5
  1
B
 50
90.0
 41
0.933334
 72
     5
 11
187.523788
 21
206.400009
 31
0.0
100
AcDbText
  0
ENDBLK
  5
78
330
76
100
AcDbEntity
  8
0
100
AcDbBlockEnd
  0
BLOCK
  5
7A
330
79
100
AcDbEntity
  8
0
100
AcDbBlockBegin
  2
BLOCK348
 70
     0
 10
0.0
 20
0.0
 30
0.0
  3
BLOCK348
  1

  0
TEXT
  5
148
330
79
100
AcDbEntity
  8
0
 62
     7
370
    18
100
AcDbText
 10
113.323776
 20
203.77623
 30
0.0
 40
3.5
  1
C
 50
90.0
 41
0.815852
 72
     5
 11
113.323776
 21
206.223785
 31
0.0
100
AcDbText
  0
ENDBLK
  5
7B
330
79
100
AcDbEntity
  8
0
100
AcDbBlockEnd
  0
BLOCK
  5
7D
330
7C
100
AcDbEntity
  8
0
100
AcDbBlockBegin
  2
BLOCK349
 70
     0
 10
0.0
 20
0.0
 30
0.0
  3
BLOCK349
  1

  0
TEXT
  5
149
330
7C
100
AcDbEntity
  8
0
 62
     7
370
    18
100
AcDbText
 10
261.723755
 20
203.426224
 30
0.0
 40
3.5
  1
A
 50
90.0
 41
1.110901
 72
     5
 11
261.723755
 21
206.573776
 31
0.0
100
AcDbText
  0
ENDBLK
  5
7E
330
7C
100
AcDbEntity
  8
0
100
AcDbBlockEnd
  0
BLOCK
  5
80
330
7F
100
AcDbEntity
  8
0
100
AcDbBlockBegin
  2
BLOCK350
 70
     0
 10
0.0
 20
0.0
 30
0.0
  3
BLOCK350
  1

  0
TEXT
  5
14A
330
7F
100
AcDbEntity
  8
0
 62
     7
370
    18
100
AcDbText
 10
39.123775
 20
203.600006
 30
0.0
 40
3.5
  1
D
 50
90.0
 41
0.933334
 72
     5
 11
39.123775
 21
206.400009
 31
0.0
100
AcDbText
  0
ENDBLK
  5
81
330
7F
100
AcDbEntity
  8
0
100
AcDbBlockEnd
  0
BLOCK
  5
83
330
82
100
AcDbEntity
  8
0
100
AcDbBlockBegin
  2
BLOCK351
 70
     0
 10
0.0
 20
0.0
 30
0.0
  3
BLOCK351
  1

  0
TEXT
  5
14B
330
82
100
AcDbEntity
  8
0
 62
     7
370
    18
100
AcDbText
 10
290.776215
 20
129.326218
 30
0.0
 40
3.5
  1
3
 41
0.863838
 72
     5
 11
293.223755
 21
129.326218
 31
0.0
100
AcDbText
  0
ENDBLK
  5
84
330
82
100
AcDbEntity
  8
0
100
AcDbBlockEnd
  0
BLOCK
  5
86
330
85
100
AcDbEntity
  8
0
100
AcDbBlockBegin
  2
BLOCK352
 70
     0
 10
0.0
 20
0.0
 30
0.0
  3
BLOCK352
  1

  0
TEXT
  5
14C
330
85
100
AcDbEntity
  8
0
 62
     7
370
    18
100
AcDbText
 10
6.923776
 20
130.02623
 30
0.0
 40
3.5
  1
3
 50
90.0
 41
0.863843
 72
     5
 11
6.923776
 21
132.473785
 31
0.0
100
AcDbText
  0
ENDBLK
  5
87
330
85
100
AcDbEntity
  8
0
100
AcDbBlockEnd
  0
BLOCK
  5
89
330
88
100
AcDbEntity
  8
0
100
AcDbBlockBegin
  2
BLOCK353
 70
     0
 10
0.0
 20
0.0
 30
0.0
  3
BLOCK353
  1

  0
TEXT
  5
14D
330
88
100
AcDbEntity
  8
0
 62
     7
370
    18
100
AcDbText
 10
290.776215
 20
76.826225
 30
0.0
 40
3.5
  1
2
 41
0.863838
 72
     5
 11
293.223755
 21
76.826225
 31
0.0
100
AcDbText
  0
ENDBLK
  5
8A
330
88
100
AcDbEntity
  8
0
100
AcDbBlockEnd
  0
BLOCK
  5
8C
330
8B
100
AcDbEntity
  8
0
100
AcDbBlockBegin
  2
BLOCK354
 70
     0
 10
0.0
 20
0.0
 30
0.0
  3
BLOCK354
  1

  0
TEXT
  5
14E
330
8B
100
AcDbEntity
  8
0
 62
     7
370
    18
100
AcDbText
 10
6.923776
 20
77.526222
 30
0.0
 40
3.5
  1
2
 50
90.0
 41
0.863843
 72
     5
 11
6.923776
 21
79.973778
 31
0.0
100
AcDbText
  0
ENDBLK
  5
8D
330
8B
100
AcDbEntity
  8
0
100
AcDbBlockEnd
  0
BLOCK
  5
8F
330
8E
100
AcDbEntity
  8
0
100
AcDbBlockBegin
  2
BLOCK355
 70
     0
 10
0.0
 20
0.0
 30
0.0
  3
BLOCK355
  1

  0
TEXT
  5
14F
330
8E
100
AcDbEntity
  8
0
 62
     7
370
    18
100
AcDbText
 10
290.600006
 20
181.826218
 30
0.0
 40
3.5
  1
4
 41
0.933329
 72
     5
 11
293.399994
 21
181.826218
 31
0.0
100
AcDbText
  0
ENDBLK
  5
90
330
8E
100
AcDbEntity
  8
0
100
AcDbBlockEnd
  0
BLOCK
  5
92
330
91
100
AcDbEntity
  8
0
100
AcDbBlockBegin
  2
BLOCK356
 70
     0
 10
0.0
 20
0.0
 30
0.0
  3
BLOCK356
  1

  0
TEXT
  5
150
330
91
100
AcDbEntity
  8
0
 62
     7
370
    18
100
AcDbText
 10
6.923776
 20
182.350006
 30
0.0
 40
3.5
  1
4
 50
90.0
 41
0.933334
 72
     5
 11
6.923776
 21
185.150009
 31
0.0
100
AcDbText
  0
ENDBLK
  5
93
330
91
100
AcDbEntity
  8
0
100
AcDbBlockEnd
  0
BLOCK
  5
95
330
94
100
AcDbEntity
  8
0
100
AcDbBlockBegin
  2
BLOCK357
 70
     0
 10
0.0
 20
0.0
 30
0.0
  3
BLOCK357
  1

  0
TEXT
  5
151
330
94
100
AcDbEntity
  8
0
 62
     7
370
    18
100
AcDbText
 10
291.126221
 20
24.326223
 30
0.0
 40
3.5
  1
1
 41
0.953214
 72
     5
 11
292.873779
 21
24.326223
 31
0.0
100
AcDbText
  0
ENDBLK
  5
96
330
94
100
AcDbEntity
  8
0
100
AcDbBlockEnd
  0
BLOCK
  5
98
330
97
100
AcDbEntity
  8
0
100
AcDbBlockBegin
  2
BLOCK358
 70
     0
 10
0.0
 20
0.0
 30
0.0
  3
BLOCK358
  1

  0
TEXT
  5
152
330
97
100
AcDbEntity
  8
0
 62
     7
370
    18
100
AcDbText
 10
6.923776
 20
25.376225
 30
0.0
 40
3.5
  1
1
 50
90.0
 41
0.953211
 72
     5
 11
6.923776
 21
27.123777
 31
0.0
100
AcDbText
  0
ENDBLK
  5
99
330
97
100
AcDbEntity
  8
0
100
AcDbBlockEnd
  0
BLOCK
  5
9B
330
9A
100
AcDbEntity
  8
0
100
AcDbBlockBegin
  2
BLOCK359
 70
     0
 10
0.0
 20
0.0
 30
0.0
  3
BLOCK359
  1

  0
TEXT
  5
153
330
9A
100
AcDbEntity
  8
0
 62
     7
370
    18
100
AcDbText
 10
98.0
 20
11.175525
 30
0.0
 40
1.5
  1
This drawing is our property; it can't be reproduced or communicated without our written agreement.
 41
0.779092
 72
     5
 11
192.437073
 21
11.175525
 31
0.0
100
AcDbText
  0
ENDBLK
  5
9C
330
9A
100
AcDbEntity
  8
0
100
AcDbBlockEnd
  0
BLOCK
  5
9E
330
9D
100
AcDbEntity
  8
0
100
AcDbBlockBegin
  2
BLOCK360
 70
     0
 10
0.0
 20
0.0
 30
0.0
  3
BLOCK360
  1

  0
TEXT
  5
154
330
9D
100
AcDbEntity
  8
0
 62
     7
370
    18
100
AcDbText
 10
98.0
 20
24.751049
 30
0.0
 40
1.5
  1
SCALE
 41
0.857432
 72
     5
 11
103.695801
 21
24.751049
 31
0.0
100
AcDbText
  0
ENDBLK
  5
9F
330
9D
100
AcDbEntity
  8
0
100
AcDbBlockEnd
  0
BLOCK
  5
A1
330
A0
100
AcDbEntity
  8
0
100
AcDbBlockBegin
  2
BLOCK361
 70
     0
 10
0.0
 20
0.0
 30
0.0
  3
BLOCK361
  1

  0
TEXT
  5
155
330
A0
100
AcDbEntity
  8
0
 62
     7
370
    18
100
AcDbText
 10
96.755241
 20
16.0
 30
0.0
 40
5.0
  1
  1:1
 41
0.631999
 72
     5
 11
109.244751
 21
16.0
 31
0.0
100
AcDbText
  0
ENDBLK
  5
A2
330
A0
100
AcDbEntity
  8
0
100
AcDbBlockEnd
  0
BLOCK
  5
A4
330
A3
100
AcDbEntity
  8
0
100
AcDbBlockBegin
  2
BLOCK362
 70
     0
 10
0.0
 20
0.0
 30
0.0
  3
BLOCK362
  1

  0
TEXT
  5
156
330
A3
100
AcDbEntity
  8
0
 62
     7
370
    18
100
AcDbText
 10
118.0
 20
24.751049
 30
0.0
 40
1.5
  1
WEIGHT (kg)
 41
0.802234
 72
     5
 11
128.944763
 21
24.751049
 31
0.0
100
AcDbText
  0
ENDBLK
  5
A5
330
A3
100
AcDbEntity
  8
0
100
AcDbBlockEnd
  0
BLOCK
  5
A7
330
A6
100
AcDbEntity
  8
0
100
AcDbBlockBegin
  2
BLOCK363
 70
     0
 10
0.0
 20
0.0
 30
0.0
  3
BLOCK363
  1

  0
TEXT
  5
157
330
A6
100
AcDbEntity
  8
0
 62
     7
370
    18
100
AcDbText
 10
122.755249
 20
16.0
 30
0.0
 40
5.0
  1
XXX
 41
0.993963
 72
     5
 11
136.244751
 21
16.0
 31
0.0
100
AcDbText
  0
ENDBLK
  5
A8
330
A6
100
AcDbEntity
  8
0
100
AcDbBlockEnd
  0
BLOCK
  5
AA
330
A9
100
AcDbEntity
  8
0
100
AcDbBlockBegin
  2
BLOCK364
 70
     0
 10
0.0
 20
0.0
 30
0.0
  3
BLOCK364
  1

  0
TEXT
  5
158
330
A9
100
AcDbEntity
  8
0
 62
     7
370
    18
100
AcDbText
 10
143.0
 20
24.751049
 30
0.0
 40
1.5
  1
MATERIAL
 41
0.899371
 72
     5
 11
151.993713
 21
24.751049
 31
0.0
100
AcDbText
  0
ENDBLK
  5
AB
330
A9
100
AcDbEntity
  8
0
100
AcDbBlockEnd
  0
BLOCK
  5
AD
330
AC
100
AcDbEntity
  8
0
100
AcDbBlockBegin
  2
BLOCK365
 70
     0
 10
0.0
 20
0.0
 30
0.0
  3
BLOCK365
  1

  0
TEXT
  5
159
330
AC
100
AcDbEntity
  8
0
 62
     7
370
    18
100
AcDbText
 10
184.002792
 20
15.6
 30
0.0
 40
4.0
  1
NYLON
 41
0.865676
 72
     5
 11
199.997192
 21
15.6
 31
0.0
100
AcDbText
  0
ENDBLK
  5
AE
330
AC
100
AcDbEntity
  8
0
100
AcDbBlockEnd
  0
BLOCK
  5
B0
330
AF
100
AcDbEntity
  8
0
100
AcDbBlockBegin
  2
BLOCK366
 70
     0
 10
0.0
 20
0.0
 30
0.0
  3
BLOCK366
  1

  0
TEXT
  5
15A
330
AF
100
AcDbEntity
  8
0
 62
     7
370
    18
100
AcDbText
 10
243.0
 20
24.751049
 30
0.0
 40
1.5
  1
SHEET
 41
0.839691
 72
     5
 11
248.697906
 21
24.751049
 31
0.0
100
AcDbText
  0
ENDBLK
  5
B1
330
AF
100
AcDbEntity
  8
0
100
AcDbBlockEnd
  0
BLOCK
  5
B3
330
B2
100
AcDbEntity
  8
0
100
AcDbBlockBegin
  2
BLOCK367
 70
     0
 10
0.0
 20
0.0
 30
0.0
  3
BLOCK367
  1

  0
TEXT
  5
15B
330
B2
100
AcDbEntity
  8
0
 62
     7
370
    18
100
AcDbText
 10
247.755249
 20
16.0
 30
0.0
 40
5.0
  1
1/1
 41
0.672753
 72
     5
 11
256.244751
 21
16.0
 31
0.0
100
AcDbText
  0
ENDBLK
  5
B4
330
B2
100
AcDbEntity
  8
0
100
AcDbBlockEnd
  0
BLOCK
  5
B6
330
B5
100
AcDbEntity
  8
0
100
AcDbBlockBegin
  2
BLOCK368
 70
     0
 10
0.0
 20
0.0
 30
0.0
  3
BLOCK368
  1

  0
TEXT
  5
15C
330
B5
100
AcDbEntity
  8
0
 62
     7
370
    18
100
AcDbText
 10
98.0
 20
37.751049
 30
0.0
 40
1.5
  1
SIZE
 41
0.839548
 72
     5
 11
101.897903
 21
37.751049
 31
0.0
100
AcDbText
  0
ENDBLK
  5
B7
330
B5
100
AcDbEntity
  8
0
100
AcDbBlockEnd
  0
BLOCK
  5
B9
330
B8
100
AcDbEntity
  8
0
100
AcDbBlockBegin
  2
BLOCK369
 70
     0
 10
0.0
 20
0.0
 30
0.0
  3
BLOCK369
  1

  0
TEXT
  5
15D
330
B8
100
AcDbEntity
  8
0
 62
     7
370
    18
100
AcDbText
 10
102.751747
 20
31.0
 30
0.0
 40
5.0
  1
A4
 41
0.991259
 72
     5
 11
111.248253
 21
31.0
 31
0.0
100
AcDbText
  0
ENDBLK
  5
BA
330
B8
100
AcDbEntity
  8
0
100
AcDbBlockEnd
  0
BLOCK
  5
BC
330
BB
100
AcDbEntity
  8
0
100
AcDbBlockBegin
  2
BLOCK370
 70
     0
 10
0.0
 20
0.0
 30
0.0
  3
BLOCK370
  1

  0
TEXT
  5
15E
330
BB
100
AcDbEntity
  8
0
 62
     7
370
    18
100
AcDbText
 10
177.510498
 20
30.751749
 30
0.0
 40
5.0
  1
OXYGEN BRASIL
 41
0.832842
 72
     5
 11
226.489517
 21
30.751749
 31
0.0
100
AcDbText
  0
ENDBLK
  5
BD
330
BB
100
AcDbEntity
  8
0
100
AcDbBlockEnd
  0
BLOCK
  5
BF
330
BE
100
AcDbEntity
  8
0
100
AcDbBlockBegin
  2
BLOCK371
 70
     0
 10
0.0
 20
0.0
 30
0.0
  3
BLOCK371
  1

  0
TEXT
  5
15F
330
BE
100
AcDbEntity
  8
0
 62
     7
370
    18
100
AcDbText
 10
98.0
 20
52.751049
 30
0.0
 40
1.5
  1
CHECKED BY:
 41
0.77958
 72
     5
 11
109.693703
 21
52.751049
 31
0.0
100
AcDbText
  0
ENDBLK
  5
C0
330
BE
100
AcDbEntity
  8
0
100
AcDbBlockEnd
  0
BLOCK
  5
C2
330
C1
100
AcDbEntity
  8
0
100
AcDbBlockBegin
  2
BLOCK372
 70
     0
 10
0.0
 20
0.0
 30
0.0
  3
BLOCK372
  1

  0
TEXT
  5
160
330
C1
100
AcDbEntity
  8
0
 62
     7
370
    18
100
AcDbText
 10
115.453148
 20
48.700001
 30
0.0
 40
3.0
  1
XXX
 41
0.993964
 72
     5
 11
123.546852
 21
48.700001
 31
0.0
100
AcDbText
  0
ENDBLK
  5
C3
330
C1
100
AcDbEntity
  8
0
100
AcDbBlockEnd
  0
BLOCK
  5
C5
330
C4
100
AcDbEntity
  8
0
100
AcDbBlockBegin
  2
BLOCK373
 70
     0
 10
0.0
 20
0.0
 30
0.0
  3
BLOCK373
  1

  0
TEXT
  5
161
330
C4
100
AcDbEntity
  8
0
 62
     7
370
    18
100
AcDbText
 10
98.0
 20
45.251049
 30
0.0
 40
1.5
  1
DATE:
 41
0.9182
 72
     5
 11
103.246857
 21
45.251049
 31
0.0
100
AcDbText
  0
ENDBLK
  5
C6
330
C4
100
AcDbEntity
  8
0
100
AcDbBlockEnd
  0
BLOCK
  5
C8
330
C7
100
AcDbEntity
  8
0
100
AcDbBlockBegin
  2
BLOCK374
 70
     0
 10
0.0
 20
0.0
 30
0.0
  3
BLOCK374
  1

  0
TEXT
  5
162
330
C7
100
AcDbEntity
  8
0
 62
     7
370
    18
100
AcDbText
 10
115.453148
 20
41.200001
 30
0.0
 40
3.0
  1
XXX
 41
0.993964
 72
     5
 11
123.546852
 21
41.200001
 31
0.0
100
AcDbText
  0
ENDBLK
  5
C9
330
C7
100
AcDbEntity
  8
0
100
AcDbBlockEnd
  0
BLOCK
  5
CB
330
CA
100
AcDbEntity
  8
0
100
AcDbBlockBegin
  2
BLOCK375
 70
     0
 10
0.0
 20
0.0
 30
0.0
  3
BLOCK375
  1

  0
TEXT
  5
163
330
CA
100
AcDbEntity
  8
0
 62
     7
370
    18
100
AcDbText
 10
98.0
 20
67.751053
 30
0.0
 40
1.5
  1
DESIGNED BY:
 41
0.802887
 72
     5
 11
110.444756
 21
67.751053
 31
0.0
100
AcDbText
  0
ENDBLK
  5
CC
330
CA
100
AcDbEntity
  8
0
100
AcDbBlockEnd
  0
BLOCK
  5
CE
330
CD
100
AcDbEntity
  8
0
100
AcDbBlockBegin
  2
BLOCK376
 70
     0
 10
0.0
 20
0.0
 30
0.0
  3
BLOCK376
  1

  0
TEXT
  5
164
330
CD
100
AcDbEntity
  8
0
 62
     7
370
    18
100
AcDbText
 10
101.80629
 20
63.700001
 30
0.0
 40
3.0
  1
VOLUNT. ANONIMOS
 41
0.817531
 72
     5
 11
137.193695
 21
63.700001
 31
0.0
100
AcDbText
  0
ENDBLK
  5
CF
330
CD
100
AcDbEntity
  8
0
100
AcDbBlockEnd
  0
BLOCK
  5
D1
330
D0
100
AcDbEntity
  8
0
100
AcDbBlockBegin
  2
BLOCK377
 70
     0
 10
0.0
 20
0.0
 30
0.0
  3
BLOCK377
  1

  0
TEXT
  5
165
330
D0
100
AcDbEntity
  8
0
 62
     7
370
    18
100
AcDbText
 10
98.0
 20
60.251049
 30
0.0
 40
1.5
  1
DATE:
 41
0.9182
 72
     5
 11
103.246857
 21
60.251049
 31
0.0
100
AcDbText
  0
ENDBLK
  5
D2
330
D0
100
AcDbEntity
  8
0
100
AcDbBlockEnd
  0
BLOCK
  5
D4
330
D3
100
AcDbEntity
  8
0
100
AcDbBlockBegin
  2
BLOCK378
 70
     0
 10
0.0
 20
0.0
 30
0.0
  3
BLOCK378
  1

  0
TEXT
  5
166
330
D3
100
AcDbEntity
  8
0
 62
     7
370
    18
100
AcDbText
 10
108.859436
 20
56.200001
 30
0.0
 40
3.0
  1
09/04/2020
 41
0.741134
 72
     5
 11
130.140564
 21
56.200001
 31
0.0
100
AcDbText
  0
ENDBLK
  5
D5
330
D3
100
AcDbEntity
  8
0
100
AcDbBlockEnd
  0
BLOCK
  5
D7
330
D6
100
AcDbEntity
  8
0
100
AcDbBlockBegin
  2
BLOCK379
 70
     0
 10
0.0
 20
0.0
 30
0.0
  3
BLOCK379
  1

  0
TEXT
  5
167
330
D6
100
AcDbEntity
  8
0
 62
     7
370
    18
100
AcDbText
 10
149.186722
 20
51.152447
 30
0.0
 40
7.0
  1
Acionador Sensor Tampa
 41
0.794185
 72
     5
 11
254.813278
 21
51.152447
 31
0.0
100
AcDbText
  0
ENDBLK
  5
D8
330
D6
100
AcDbEntity
  8
0
100
AcDbBlockEnd
  0
BLOCK
  5
DA
330
D9
100
AcDbEntity
  8
0
100
AcDbBlockBegin
  2
BLOCK380
 70
     0
 10
0.0
 20
0.0
 30
0.0
  3
BLOCK380
  1

  0
TEXT
  5
168
330
D9
100
AcDbEntity
  8
0
 62
     7
370
    18
100
AcDbText
 10
263.375885
 20
11.959208
 30
0.0
 40
2.5
  1
A
 41
1.110905
 72
     5
 11
265.624146
 21
11.959208
 31
0.0
100
AcDbText
  0
ENDBLK
  5
DB
330
D9
100
AcDbEntity
  8
0
100
AcDbBlockEnd
  0
BLOCK
  5
DD
330
DC
100
AcDbEntity
  8
0
100
AcDbBlockBegin
  2
BLOCK381
 70
     0
 10
0.0
 20
0.0
 30
0.0
  3
BLOCK381
  1

  0
TEXT
  5
169
330
DC
100
AcDbEntity
  8
0
 62
     7
370
    18
100
AcDbText
 10
276.100708
 20
12.234033
 30
0.0
 40
2.0
  1
_
 41
1.180341
 72
     5
 11
277.899323
 21
12.234033
 31
0.0
100
AcDbText
  0
ENDBLK
  5
DE
330
DC
100
AcDbEntity
  8
0
100
AcDbBlockEnd
  0
BLOCK
  5
E0
330
DF
100
AcDbEntity
  8
0
100
AcDbBlockBegin
  2
BLOCK382
 70
     0
 10
0.0
 20
0.0
 30
0.0
  3
BLOCK382
  1

  0
TEXT
  5
16A
330
DF
100
AcDbEntity
  8
0
 62
     7
370
    18
100
AcDbText
 10
263.5
 20
18.625874
 30
0.0
 40
2.5
  1
B
 41
0.933333
 72
     5
 11
265.5
 21
18.625874
 31
0.0
100
AcDbText
  0
ENDBLK
  5
E1
330
DF
100
AcDbEntity
  8
0
100
AcDbBlockEnd
  0
BLOCK
  5
E3
330
E2
100
AcDbEntity
  8
0
100
AcDbBlockBegin
  2
BLOCK383
 70
     0
 10
0.0
 20
0.0
 30
0.0
  3
BLOCK383
  1

  0
TEXT
  5
16B
330
E2
100
AcDbEntity
  8
0
 62
     7
370
    18
100
AcDbText
 10
276.100708
 20
18.9007
 30
0.0
 40
2.0
  1
_
 41
1.180341
 72
     5
 11
277.899323
 21
18.9007
 31
0.0
100
AcDbText
  0
ENDBLK
  5
E4
330
E2
100
AcDbEntity
  8
0
100
AcDbBlockEnd
  0
BLOCK
  5
E6
330
E5
100
AcDbEntity
  8
0
100
AcDbBlockBegin
  2
BLOCK384
 70
     0
 10
0.0
 20
0.0
 30
0.0
  3
BLOCK384
  1

  0
TEXT
  5
16C
330
E5
100
AcDbEntity
  8
0
 62
     7
370
    18
100
AcDbText
 10
263.625885
 20
25.29254
 30
0.0
 40
2.5
  1
C
 41
0.815855
 72
     5
 11
265.374146
 21
25.29254
 31
0.0
100
AcDbText
  0
ENDBLK
  5
E7
330
E5
100
AcDbEntity
  8
0
100
AcDbBlockEnd
  0
BLOCK
  5
E9
330
E8
100
AcDbEntity
  8
0
100
AcDbBlockBegin
  2
BLOCK385
 70
     0
 10
0.0
 20
0.0
 30
0.0
  3
BLOCK385
  1

  0
TEXT
  5
16D
330
E8
100
AcDbEntity
  8
0
 62
     7
370
    18
100
AcDbText
 10
276.100708
 20
25.567366
 30
0.0
 40
2.0
  1
_
 41
1.180341
 72
     5
 11
277.899323
 21
25.567366
 31
0.0
100
AcDbText
  0
ENDBLK
  5
EA
330
E8
100
AcDbEntity
  8
0
100
AcDbBlockEnd
  0
BLOCK
  5
EC
330
EB
100
AcDbEntity
  8
0
100
AcDbBlockBegin
  2
BLOCK386
 70
     0
 10
0.0
 20
0.0
 30
0.0
  3
BLOCK386
  1

  0
TEXT
  5
16E
330
EB
100
AcDbEntity
  8
0
 62
     7
370
    18
100
AcDbText
 10
263.5
 20
31.959206
 30
0.0
 40
2.5
  1
D
 41
0.933333
 72
     5
 11
265.5
 21
31.959206
 31
0.0
100
AcDbText
  0
ENDBLK
  5
ED
330
EB
100
AcDbEntity
  8
0
100
AcDbBlockEnd
  0
BLOCK
  5
EF
330
EE
100
AcDbEntity
  8
0
100
AcDbBlockBegin
  2
BLOCK387
 70
     0
 10
0.0
 20
0.0
 30
0.0
  3
BLOCK387
  1

  0
TEXT
  5
16F
330
EE
100
AcDbEntity
  8
0
 62
     7
370
    18
100
AcDbText
 10
276.100708
 20
32.234032
 30
0.0
 40
2.0
  1
_
 41
1.180341
 72
     5
 11
277.899323
 21
32.234032
 31
0.0
100
AcDbText
  0
ENDBLK
  5
F0
330
EE
100
AcDbEntity
  8
0
100
AcDbBlockEnd
  0
BLOCK
  5
F2
330
F1
100
AcDbEntity
  8
0
100
AcDbBlockBegin
  2
BLOCK388
 70
     0
 10
0.0
 20
0.0
 30
0.0
  3
BLOCK388
  1

  0
TEXT
  5
170
330
F1
100
AcDbEntity
  8
0
 62
     7
370
    18
100
AcDbText
 10
263.625885
 20
38.625874
 30
0.0
 40
2.5
  1
E
 41
0.863846
 72
     5
 11
265.374146
 21
38.625874
 31
0.0
100
AcDbText
  0
ENDBLK
  5
F3
330
F1
100
AcDbEntity
  8
0
100
AcDbBlockEnd
  0
BLOCK
  5
F5
330
F4
100
AcDbEntity
  8
0
100
AcDbBlockBegin
  2
BLOCK389
 70
     0
 10
0.0
 20
0.0
 30
0.0
  3
BLOCK389
  1

  0
TEXT
  5
171
330
F4
100
AcDbEntity
  8
0
 62
     7
370
    18
100
AcDbText
 10
276.100708
 20
38.9007
 30
0.0
 40
2.0
  1
_
 41
1.180341
 72
     5
 11
277.899323
 21
38.9007
 31
0.0
100
AcDbText
  0
ENDBLK
  5
F6
330
F4
100
AcDbEntity
  8
0
100
AcDbBlockEnd
  0
BLOCK
  5
F8
330
F7
100
AcDbEntity
  8
0
100
AcDbBlockBegin
  2
BLOCK390
 70
     0
 10
0.0
 20
0.0
 30
0.0
  3
BLOCK390
  1

  0
TEXT
  5
172
330
F7
100
AcDbEntity
  8
0
 62
     7
370
    18
100
AcDbText
 10
263.625885
 20
45.292542
 30
0.0
 40
2.5
  1
F
 41
0.863846
 72
     5
 11
265.374146
 21
45.292542
 31
0.0
100
AcDbText
  0
ENDBLK
  5
F9
330
F7
100
AcDbEntity
  8
0
100
AcDbBlockEnd
  0
BLOCK
  5
FB
330
FA
100
AcDbEntity
  8
0
100
AcDbBlockBegin
  2
BLOCK391
 70
     0
 10
0.0
 20
0.0
 30
0.0
  3
BLOCK391
  1

  0
TEXT
  5
173
330
FA
100
AcDbEntity
  8
0
 62
     7
370
    18
100
AcDbText
 10
276.100708
 20
45.567368
 30
0.0
 40
2.0
  1
_
 41
1.180341
 72
     5
 11
277.899323
 21
45.567368
 31
0.0
100
AcDbText
  0
ENDBLK
  5
FC
330
FA
100
AcDbEntity
  8
0
100
AcDbBlockEnd
  0
BLOCK
  5
FE
330
FD
100
AcDbEntity
  8
0
100
AcDbBlockBegin
  2
BLOCK392
 70
     0
 10
0.0
 20
0.0
 30
0.0
  3
BLOCK392
  1

  0
TEXT
  5
174
330
FD
100
AcDbEntity
  8
0
 62
     7
370
    18
100
AcDbText
 10
263.5
 20
51.959206
 30
0.0
 40
2.5
  1
G
 41
0.933333
 72
     5
 11
265.5
 21
51.959206
 31
0.0
100
AcDbText
  0
ENDBLK
  5
FF
330
FD
100
AcDbEntity
  8
0
100
AcDbBlockEnd
  0
BLOCK
  5
101
330
100
100
AcDbEntity
  8
0
100
AcDbBlockBegin
  2
BLOCK393
 70
     0
 10
0.0
 20
0.0
 30
0.0
  3
BLOCK393
  1

  0
TEXT
  5
175
330
100
100
AcDbEntity
  8
0
 62
     7
370
    18
100
AcDbText
 10
276.100708
 20
52.234032
 30
0.0
 40
2.0
  1
_
 41
1.180341
 72
     5
 11
277.899323
 21
52.234032
 31
0.0
100
AcDbText
  0
ENDBLK
  5
102
330
100
100
AcDbEntity
  8
0
100
AcDbBlockEnd
  0
BLOCK
  5
104
330
103
100
AcDbEntity
  8
0
100
AcDbBlockBegin
  2
BLOCK394
 70
     0
 10
0.0
 20
0.0
 30
0.0
  3
BLOCK394
  1

  0
TEXT
  5
176
330
103
100
AcDbEntity
  8
0
 62
     7
370
    18
100
AcDbText
 10
263.5
 20
58.625874
 30
0.0
 40
2.5
  1
H
 41
0.933333
 72
     5
 11
265.5
 21
58.625874
 31
0.0
100
AcDbText
  0
ENDBLK
  5
105
330
103
100
AcDbEntity
  8
0
100
AcDbBlockEnd
  0
BLOCK
  5
107
330
106
100
AcDbEntity
  8
0
100
AcDbBlockBegin
  2
BLOCK395
 70
     0
 10
0.0
 20
0.0
 30
0.0
  3
BLOCK395
  1

  0
TEXT
  5
177
330
106
100
AcDbEntity
  8
0
 62
     7
370
    18
100
AcDbText
 10
276.100708
 20
58.9007
 30
0.0
 40
2.0
  1
_
 41
1.180341
 72
     5
 11
277.899323
 21
58.9007
 31
0.0
100
AcDbText
  0
ENDBLK
  5
108
330
106
100
AcDbEntity
  8
0
100
AcDbBlockEnd
  0
BLOCK
  5
10A
330
109
100
AcDbEntity
  8
0
100
AcDbBlockBegin
  2
BLOCK396
 70
     0
 10
0.0
 20
0.0
 30
0.0
  3
BLOCK396
  1

  0
TEXT
  5
178
330
109
100
AcDbEntity
  8
0
 62
     7
370
    18
100
AcDbText
 10
264.125885
 20
65.292542
 30
0.0
 40
2.5
  1
I
 41
1.571347
 72
     5
 11
264.874146
 21
65.292542
 31
0.0
100
AcDbText
  0
ENDBLK
  5
10B
330
109
100
AcDbEntity
  8
0
100
AcDbBlockEnd
  0
BLOCK
  5
10D
330
10C
100
AcDbEntity
  8
0
100
AcDbBlockBegin
  2
BLOCK397
 70
     0
 10
0.0
 20
0.0
 30
0.0
  3
BLOCK397
  1

  0
TEXT
  5
179
330
10C
100
AcDbEntity
  8
0
 62
     7
370
    18
100
AcDbText
 10
276.100708
 20
65.56736
 30
0.0
 40
2.0
  1
_
 41
1.180341
 72
     5
 11
277.899323
 21
65.56736
 31
0.0
100
AcDbText
  0
ENDBLK
  5
10E
330
10C
100
AcDbEntity
  8
0
100
AcDbBlockEnd
  0
BLOCK
  5
110
330
10F
100
AcDbEntity
  8
0
100
AcDbBlockBegin
  2
*D54
 70
     1
 10
0.0
 20
0.0
 30
0.0
  3
*D54
  1

  0
SOLID
  5
17A
330
10F
100
AcDbEntity
  8
0
 62
     7
370
    18
100
AcDbTrace
 10
55.274261
 20
163.375415
 30
0.0
 11
58.172043
 21
164.151874
 31
0.0
 12
55.274261
 22
163.375415
 32
0.0
 13
55.274261
 23
164.928333
 33
0.0
  0
SOLID
  5
17B
330
10F
100
AcDbEntity
  8
0
 62
     7
370
    18
100
AcDbTrace
 10
83.069824
 20
164.928333
 30
0.0
 11
80.172043
 21
164.151874
 31
0.0
 12
83.069824
 22
164.928333
 32
0.0
 13
83.069824
 23
163.375415
 33
0.0
  0
TEXT
  5
17C
330
10F
100
AcDbEntity
  8
0
 62
     7
370
    18
100
AcDbText
 10
61.916275
 20
167.151874
 30
0.0
 40
3.5
  1
22
 41
0.793802
 72
     5
 11
66.811386
 21
167.151874
 31
0.0
100
AcDbText
  0
TEXT
  5
17D
330
10F
100
AcDbEntity
  8
0
 62
     7
370
    18
100
AcDbText
 10
68.561386
 20
167.151874
 30
0.0
 40
3.5
  1
%%p0,1
 41
0.704456
 72
     5
 11
76.427811
 21
167.151874
 31
0.0
100
AcDbText
  0
LINE
  5
17E
330
10F
100
AcDbEntity
  8
0
 62
     7
370
    18
100
AcDbLine
 10
58.172043
 20
148.467456
 30
0.0
 11
58.172043
 21
166.151874
 31
0.0
  0
LINE
  5
17F
330
10F
100
AcDbEntity
  8
0
 62
     7
370
    18
100
AcDbLine
 10
80.172043
 20
148.467456
 30
0.0
 11
80.172043
 21
166.151874
 31
0.0
  0
LINE
  5
180
330
10F
100
AcDbEntity
  8
0
 62
     7
370
    18
100
AcDbLine
 10
53.172043
 20
164.151874
 30
0.0
 11
55.274261
 21
164.151874
 31
0.0
  0
LINE
  5
181
330
10F
100
AcDbEntity
  8
0
 62
     7
370
    18
100
AcDbLine
 10
58.172043
 20
164.151874
 30
0.0
 11
80.172043
 21
164.151874
 31
0.0
  0
LINE
  5
182
330
10F
100
AcDbEntity
  8
0
 62
     7
370
    18
100
AcDbLine
 10
83.069824
 20
164.151874
 30
0.0
 11
85.172043
 21
164.151874
 31
0.0
  0
POLYLINE
  5
183
330
10F
100
AcDbEntity
  8
0
 62
     7
370
    18
100
AcDb2dPolyline
 66
     1
 10
0.0
 20
0.0
 30
0.0
 70
     1
  0
VERTEX
  5
184
330
183
100
AcDbEntity
  8
0
370
     0
100
AcDbVertex
100
AcDb2dVertex
 10
55.274261
 20
163.375415
 30
0.0
  0
VERTEX
  5
185
330
183
100
AcDbEntity
  8
0
370
     0
100
AcDbVertex
100
AcDb2dVertex
 10
58.172043
 20
164.151874
 30
0.0
  0
VERTEX
  5
186
330
183
100
AcDbEntity
  8
0
370
     0
100
AcDbVertex
100
AcDb2dVertex
 10
55.274261
 20
164.928333
 30
0.0
  0
SEQEND
  5
187
330
183
100
AcDbEntity
  8
0
 62
     7
370
    18
  0
POLYLINE
  5
188
330
10F
100
AcDbEntity
  8
0
 62
     7
370
    18
100
AcDb2dPolyline
 66
     1
 10
0.0
 20
0.0
 30
0.0
 70
     1
  0
VERTEX
  5
189
330
188
100
AcDbEntity
  8
0
370
     0
100
AcDbVertex
100
AcDb2dVertex
 10
83.069824
 20
164.928333
 30
0.0
  0
VERTEX
  5
18A
330
188
100
AcDbEntity
  8
0
370
     0
100
AcDbVertex
100
AcDb2dVertex
 10
80.172043
 20
164.151874
 30
0.0
  0
VERTEX
  5
18B
330
188
100
AcDbEntity
  8
0
370
     0
100
AcDbVertex
100
AcDb2dVertex
 10
83.069824
 20
163.375415
 30
0.0
  0
SEQEND
  5
18C
330
188
100
AcDbEntity
  8
0
 62
     7
370
    18
  0
ENDBLK
  5
111
330
10F
100
AcDbEntity
  8
0
100
AcDbBlockEnd
  0
BLOCK
  5
113
330
112
100
AcDbEntity
  8
0
100
AcDbBlockBegin
  2
*D55
 70
     1
 10
0.0
 20
0.0
 30
0.0
  3
*D55
  1

  0
SOLID
  5
18D
330
112
100
AcDbEntity
  8
0
 62
     7
370
    18
100
AcDbTrace
 10
48.569817
 20
182.368488
 30
0.0
 11
45.672043
 21
181.592029
 31
0.0
 12
48.569817
 22
182.368488
 32
0.0
 13
48.569817
 23
180.81557
 33
0.0
  0
SOLID
  5
18E
330
112
100
AcDbEntity
  8
0
 62
     7
370
    18
100
AcDbTrace
 10
89.774261
 20
180.81557
 30
0.0
 11
92.672043
 21
181.592029
 31
0.0
 12
89.774261
 22
180.81557
 32
0.0
 13
89.774261
 23
182.368488
 33
0.0
  0
TEXT
  5
18F
330
112
100
AcDbEntity
  8
0
 62
     7
370
    18
100
AcDbText
 10
61.740051
 20
184.592029
 30
0.0
 40
3.5
  1
47
 41
0.850955
 72
     5
 11
66.98761
 21
184.592029
 31
0.0
100
AcDbText
  0
TEXT
  5
190
330
112
100
AcDbEntity
  8
0
 62
     7
370
    18
100
AcDbText
 10
68.73761
 20
184.592029
 30
0.0
 40
3.5
  1
%%p0,1
 41
0.704456
 72
     5
 11
76.604034
 21
184.592029
 31
0.0
100
AcDbText
  0
LINE
  5
191
330
112
100
AcDbEntity
  8
0
 62
     7
370
    18
100
AcDbLine
 10
45.672043
 20
145.217456
 30
0.0
 11
45.672043
 21
183.592029
 31
0.0
  0
LINE
  5
192
330
112
100
AcDbEntity
  8
0
 62
     7
370
    18
100
AcDbLine
 10
92.672043
 20
145.217456
 30
0.0
 11
92.672043
 21
183.592029
 31
0.0
  0
LINE
  5
193
330
112
100
AcDbEntity
  8
0
 62
     7
370
    18
100
AcDbLine
 10
48.569817
 20
181.592029
 30
0.0
 11
89.774261
 21
181.592029
 31
0.0
  0
POLYLINE
  5
194
330
112
100
AcDbEntity
  8
0
 62
     7
370
    18
100
AcDb2dPolyline
 66
     1
 10
0.0
 20
0.0
 30
0.0
 70
     1
  0
VERTEX
  5
195
330
194
100
AcDbEntity
  8
0
370
     0
100
AcDbVertex
100
AcDb2dVertex
 10
48.569817
 20
182.368488
 30
0.0
  0
VERTEX
  5
196
330
194
100
AcDbEntity
  8
0
370
     0
100
AcDbVertex
100
AcDb2dVertex
 10
45.672043
 20
181.592029
 30
0.0
  0
VERTEX
  5
197
330
194
100
AcDbEntity
  8
0
370
     0
100
AcDbVertex
100
AcDb2dVertex
 10
48.569817
 20
180.81557
 30
0.0
  0
SEQEND
  5
198
330
194
100
AcDbEntity
  8
0
 62
     7
370
    18
  0
POLYLINE
  5
199
330
112
100
AcDbEntity
  8
0
 62
     7
370
    18
100
AcDb2dPolyline
 66
     1
 10
0.0
 20
0.0
 30
0.0
 70
     1
  0
VERTEX
  5
19A
330
199
100
AcDbEntity
  8
0
370
     0
100
AcDbVertex
100
AcDb2dVertex
 10
89.774261
 20
180.81557
 30
0.0
  0
VERTEX
  5
19B
330
199
100
AcDbEntity
  8
0
370
     0
100
AcDbVertex
100
AcDb2dVertex
 10
92.672043
 20
181.592029
 30
0.0
  0
VERTEX
  5
19C
330
199
100
AcDbEntity
  8
0
370
     0
100
AcDbVertex
100
AcDb2dVertex
 10
89.774261
 20
182.368488
 30
0.0
  0
SEQEND
  5
19D
330
199
100
AcDbEntity
  8
0
 62
     7
370
    18
  0
ENDBLK
  5
114
330
112
100
AcDbEntity
  8
0
100
AcDbBlockEnd
  0
BLOCK
  5
116
330
115
100
AcDbEntity
  8
0
100
AcDbBlockBegin
  2
*D56
 70
     1
 10
0.0
 20
0.0
 30
0.0
  3
*D56
  1

  0
SOLID
  5
19E
330
115
100
AcDbEntity
  8
0
 62
     7
370
    18
100
AcDbTrace
 10
55.274261
 20
163.375415
 30
0.0
 11
58.172043
 21
164.151874
 31
0.0
 12
55.274261
 22
163.375415
 32
0.0
 13
55.274261
 23
164.928333
 33
0.0
  0
SOLID
  5
19F
330
115
100
AcDbEntity
  8
0
 62
     7
370
    18
100
AcDbTrace
 10
48.569817
 20
164.928333
 30
0.0
 11
45.672043
 21
164.151874
 31
0.0
 12
48.569817
 22
164.928333
 32
0.0
 13
48.569817
 23
163.375415
 33
0.0
  0
TEXT
  5
1A0
330
115
100
AcDbEntity
  8
0
 62
     7
370
    18
100
AcDbText
 10
25.934349
 20
167.151874
 30
0.0
 40
3.5
  1
12,5
 41
0.704457
 72
     5
 11
33.800789
 21
167.151874
 31
0.0
100
AcDbText
  0
TEXT
  5
1A1
330
115
100
AcDbEntity
  8
0
 62
     7
370
    18
100
AcDbText
 10
35.550781
 20
167.151874
 30
0.0
 40
3.5
  1
%%p0,1
 41
0.704457
 72
     5
 11
43.417221
 21
167.151874
 31
0.0
100
AcDbText
  0
LINE
  5
1A2
330
115
100
AcDbEntity
  8
0
 62
     7
370
    18
100
AcDbLine
 10
45.672043
 20
145.217456
 30
0.0
 11
45.672043
 21
166.151874
 31
0.0
  0
LINE
  5
1A3
330
115
100
AcDbEntity
  8
0
 62
     7
370
    18
100
AcDbLine
 10
58.172043
 20
148.467456
 30
0.0
 11
58.172043
 21
166.151874
 31
0.0
  0
LINE
  5
1A4
330
115
100
AcDbEntity
  8
0
 62
     7
370
    18
100
AcDbLine
 10
25.934349
 20
164.151874
 30
0.0
 11
45.672043
 21
164.151874
 31
0.0
  0
LINE
  5
1A5
330
115
100
AcDbEntity
  8
0
 62
     7
370
    18
100
AcDbLine
 10
48.569817
 20
164.151874
 30
0.0
 11
55.274261
 21
164.151874
 31
0.0
  0
POLYLINE
  5
1A6
330
115
100
AcDbEntity
  8
0
 62
     7
370
    18
100
AcDb2dPolyline
 66
     1
 10
0.0
 20
0.0
 30
0.0
 70
     1
  0
VERTEX
  5
1A7
330
1A6
100
AcDbEntity
  8
0
370
     0
100
AcDbVertex
100
AcDb2dVertex
 10
55.274261
 20
163.375415
 30
0.0
  0
VERTEX
  5
1A8
330
1A6
100
AcDbEntity
  8
0
370
     0
100
AcDbVertex
100
AcDb2dVertex
 10
58.172043
 20
164.151874
 30
0.0
  0
VERTEX
  5
1A9
330
1A6
100
AcDbEntity
  8
0
370
     0
100
AcDbVertex
100
AcDb2dVertex
 10
55.274261
 20
164.928333
 30
0.0
  0
SEQEND
  5
1AA
330
1A6
100
AcDbEntity
  8
0
 62
     7
370
    18
  0
POLYLINE
  5
1AB
330
115
100
AcDbEntity
  8
0
 62
     7
370
    18
100
AcDb2dPolyline
 66
     1
 10
0.0
 20
0.0
 30
0.0
 70
     1
  0
VERTEX
  5
1AC
330
1AB
100
AcDbEntity
  8
0
370
     0
100
AcDbVertex
100
AcDb2dVertex
 10
48.569817
 20
164.928333
 30
0.0
  0
VERTEX
  5
1AD
330
1AB
100
AcDbEntity
  8
0
370
     0
100
AcDbVertex
100
AcDb2dVertex
 10
45.672043
 20
164.151874
 30
0.0
  0
VERTEX
  5
1AE
330
1AB
100
AcDbEntity
  8
0
370
     0
100
AcDbVertex
100
AcDb2dVertex
 10
48.569817
 20
163.375415
 30
0.0
  0
SEQEND
  5
1AF
330
1AB
100
AcDbEntity
  8
0
 62
     7
370
    18
  0
ENDBLK
  5
117
330
115
100
AcDbEntity
  8
0
100
AcDbBlockEnd
  0
BLOCK
  5
119
330
118
100
AcDbEntity
  8
0
100
AcDbBlockBegin
  2
*D57
 70
     1
 10
0.0
 20
0.0
 30
0.0
  3
*D57
  1

  0
SOLID
  5
1B0
330
118
100
AcDbEntity
  8
0
 62
     7
370
    18
100
AcDbTrace
 10
90.054016
 20
157.051349
 30
0.0
 11
88.65715
 21
154.396411
 31
0.0
 12
90.054016
 22
157.051349
 32
0.0
 13
91.194351
 23
155.997211
 33
0.0
  0
TEXT
  5
1B1
330
118
100
AcDbEntity
  8
0
 62
     7
370
    18
100
AcDbText
 10
115.891098
 20
172.383991
 30
0.0
 40
3.5
  1
12,5
 41
0.704456
 72
     5
 11
123.757523
 21
172.383991
 31
0.0
100
AcDbText
  0
TEXT
  5
1B2
330
118
100
AcDbEntity
  8
0
 62
     7
370
    18
100
AcDbText
 10
112.091095
 20
172.383991
 30
0.0
 40
3.5
  1
R
 41
0.933329
 72
     5
 11
114.891083
 21
172.383991
 31
0.0
100
AcDbText
  0
TEXT
  5
1B3
330
118
100
AcDbEntity
  8
0
 62
     7
370
    18
100
AcDbText
 10
106.195984
 20
172.383991
 30
0.0
 40
3.5
  1
2x
 41
0.863843
 72
     5
 11
111.091095
 21
172.383991
 31
0.0
100
AcDbText
  0
LINE
  5
1B4
330
118
100
AcDbEntity
  8
0
 62
     7
370
    18
100
AcDbLine
 10
102.51181
 20
169.383991
 30
0.0
 11
123.757523
 21
169.383991
 31
0.0
  0
LINE
  5
1B5
330
118
100
AcDbEntity
  8
0
 62
     7
370
    18
100
AcDbLine
 10
90.624176
 20
156.52428
 30
0.0
 11
102.51181
 21
169.383991
 31
0.0
  0
POLYLINE
  5
1B6
330
118
100
AcDbEntity
  8
0
 62
     7
370
    18
100
AcDb2dPolyline
 66
     1
 10
0.0
 20
0.0
 30
0.0
 70
     1
  0
VERTEX
  5
1B7
330
1B6
100
AcDbEntity
  8
0
370
     0
100
AcDbVertex
100
AcDb2dVertex
 10
90.054016
 20
157.051349
 30
0.0
  0
VERTEX
  5
1B8
330
1B6
100
AcDbEntity
  8
0
370
     0
100
AcDbVertex
100
AcDb2dVertex
 10
88.65715
 20
154.396411
 30
0.0
  0
VERTEX
  5
1B9
330
1B6
100
AcDbEntity
  8
0
370
     0
100
AcDbVertex
100
AcDb2dVertex
 10
91.194351
 20
155.997211
 30
0.0
  0
SEQEND
  5
1BA
330
1B6
100
AcDbEntity
  8
0
 62
     7
370
    18
  0
ENDBLK
  5
11A
330
118
100
AcDbEntity
  8
0
100
AcDbBlockEnd
  0
BLOCK
  5
11C
330
11B
100
AcDbEntity
  8
0
100
AcDbBlockBegin
  2
*D58
 70
     1
 10
0.0
 20
0.0
 30
0.0
  3
*D58
  1

  0
SOLID
  5
1BB
330
11B
100
AcDbEntity
  8
0
 62
     7
370
    18
100
AcDbTrace
 10
94.005508
 20
105.386096
 30
0.0
 11
91.348541
 21
106.779102
 31
0.0
 12
94.005508
 22
105.386096
 32
0.0
 13
92.953033
 23
104.244251
 33
0.0
  0
TEXT
  5
1BC
330
11B
100
AcDbEntity
  8
0
 62
     7
370
    18
100
AcDbText
 10
116.642151
 20
96.810535
 30
0.0
 40
3.5
  1
5
 41
0.863838
 72
     5
 11
119.089691
 21
96.810535
 31
0.0
100
AcDbText
  0
TEXT
  5
1BD
330
11B
100
AcDbEntity
  8
0
 62
     7
370
    18
100
AcDbText
 10
112.842148
 20
96.810535
 30
0.0
 40
3.5
  1
R
 41
0.933329
 72
     5
 11
115.642136
 21
96.810535
 31
0.0
100
AcDbText
  0
TEXT
  5
1BE
330
11B
100
AcDbEntity
  8
0
 62
     7
370
    18
100
AcDbText
 10
106.947037
 20
96.810535
 30
0.0
 40
3.5
  1
2x
 41
0.863843
 72
     5
 11
111.842148
 21
96.810535
 31
0.0
100
AcDbText
  0
LINE
  5
1BF
330
11B
100
AcDbEntity
  8
0
 62
     7
370
    18
100
AcDbLine
 10
105.418472
 20
93.810535
 30
0.0
 11
119.089691
 21
93.810535
 31
0.0
  0
LINE
  5
1C0
330
11B
100
AcDbEntity
  8
0
 62
     7
370
    18
100
AcDbLine
 10
93.479263
 20
104.815174
 30
0.0
 11
105.418472
 21
93.810535
 31
0.0
  0
POLYLINE
  5
1C1
330
11B
100
AcDbEntity
  8
0
 62
     7
370
    18
100
AcDb2dPolyline
 66
     1
 10
0.0
 20
0.0
 30
0.0
 70
     1
  0
VERTEX
  5
1C2
330
1C1
100
AcDbEntity
  8
0
370
     0
100
AcDbVertex
100
AcDb2dVertex
 10
94.005508
 20
105.386096
 30
0.0
  0
VERTEX
  5
1C3
330
1C1
100
AcDbEntity
  8
0
370
     0
100
AcDbVertex
100
AcDb2dVertex
 10
91.348541
 20
106.779102
 30
0.0
  0
VERTEX
  5
1C4
330
1C1
100
AcDbEntity
  8
0
370
     0
100
AcDbVertex
100
AcDb2dVertex
 10
92.953033
 20
104.244251
 30
0.0
  0
SEQEND
  5
1C5
330
1C1
100
AcDbEntity
  8
0
 62
     7
370
    18
  0
ENDBLK
  5
11D
330
11B
100
AcDbEntity
  8
0
100
AcDbBlockEnd
  0
BLOCK
  5
11F
330
11E
100
AcDbEntity
  8
0
100
AcDbBlockBegin
  2
*D59
 70
     1
 10
0.0
 20
0.0
 30
0.0
  3
*D59
  1

  0
SOLID
  5
1C6
330
11E
100
AcDbEntity
  8
0
 62
     7
370
    18
100
AcDbTrace
 10
28.763779
 20
154.81969
 30
0.0
 11
27.98732
 21
157.717456
 31
0.0
 12
28.763779
 22
154.81969
 32
0.0
 13
27.210869
 23
154.81969
 33
0.0
  0
SOLID
  5
1C7
330
11E
100
AcDbEntity
  8
0
 62
     7
370
    18
100
AcDbTrace
 10
27.210869
 20
108.065601
 30
0.0
 11
27.98732
 21
105.167835
 31
0.0
 12
27.210869
 22
108.065601
 32
0.0
 13
28.763779
 23
108.065601
 33
0.0
  0
TEXT
  5
1C8
330
11E
100
AcDbEntity
  8
0
 62
     7
370
    18
100
AcDbText
 10
24.98732
 20
122.351215
 30
0.0
 40
3.5
  1
52,5
 50
90.0
 41
0.767141
 72
     5
 11
24.98732
 21
130.917621
 31
0.0
100
AcDbText
  0
TEXT
  5
1C9
330
11E
100
AcDbEntity
  8
0
 62
     7
370
    18
100
AcDbText
 10
24.98732
 20
132.667621
 30
0.0
 40
3.5
  1
%%p0,1
 50
90.0
 41
0.704459
 72
     5
 11
24.98732
 21
140.534076
 31
0.0
100
AcDbText
  0
LINE
  5
1CA
330
11E
100
AcDbEntity
  8
0
 62
     7
370
    18
100
AcDbLine
 10
50.672043
 20
105.167835
 30
0.0
 11
25.98732
 21
105.167835
 31
0.0
  0
LINE
  5
1CB
330
11E
100
AcDbEntity
  8
0
 62
     7
370
    18
100
AcDbLine
 10
58.172043
 20
157.717456
 30
0.0
 11
25.98732
 21
157.717456
 31
0.0
  0
LINE
  5
1CC
330
11E
100
AcDbEntity
  8
0
 62
     7
370
    18
100
AcDbLine
 10
27.98732
 20
108.065601
 30
0.0
 11
27.98732
 21
154.81969
 31
0.0
  0
POLYLINE
  5
1CD
330
11E
100
AcDbEntity
  8
0
 62
     7
370
    18
100
AcDb2dPolyline
 66
     1
 10
0.0
 20
0.0
 30
0.0
 70
     1
  0
VERTEX
  5
1CE
330
1CD
100
AcDbEntity
  8
0
370
     0
100
AcDbVertex
100
AcDb2dVertex
 10
28.763779
 20
154.81969
 30
0.0
  0
VERTEX
  5
1CF
330
1CD
100
AcDbEntity
  8
0
370
     0
100
AcDbVertex
100
AcDb2dVertex
 10
27.98732
 20
157.717456
 30
0.0
  0
VERTEX
  5
1D0
330
1CD
100
AcDbEntity
  8
0
370
     0
100
AcDbVertex
100
AcDb2dVertex
 10
27.210869
 20
154.81969
 30
0.0
  0
SEQEND
  5
1D1
330
1CD
100
AcDbEntity
  8
0
 62
     7
370
    18
  0
POLYLINE
  5
1D2
330
11E
100
AcDbEntity
  8
0
 62
     7
370
    18
100
AcDb2dPolyline
 66
     1
 10
0.0
 20
0.0
 30
0.0
 70
     1
  0
VERTEX
  5
1D3
330
1D2
100
AcDbEntity
  8
0
370
     0
100
AcDbVertex
100
AcDb2dVertex
 10
27.210869
 20
108.065601
 30
0.0
  0
VERTEX
  5
1D4
330
1D2
100
AcDbEntity
  8
0
370
     0
100
AcDbVertex
100
AcDb2dVertex
 10
27.98732
 20
105.167835
 30
0.0
  0
VERTEX
  5
1D5
330
1D2
100
AcDbEntity
  8
0
370
     0
100
AcDbVertex
100
AcDb2dVertex
 10
28.763779
 20
108.065601
 30
0.0
  0
SEQEND
  5
1D6
330
1D2
100
AcDbEntity
  8
0
 62
     7
370
    18
  0
ENDBLK
  5
120
330
11E
100
AcDbEntity
  8
0
100
AcDbBlockEnd
  0
BLOCK
  5
122
330
121
100
AcDbEntity
  8
0
100
AcDbBlockBegin
  2
*D60
 70
     1
 10
0.0
 20
0.0
 30
0.0
  3
*D60
  1

  0
SOLID
  5
1D7
330
121
100
AcDbEntity
  8
0
 62
     7
370
    18
100
AcDbTrace
 10
75.155334
 20
147.355548
 30
0.0
 11
78.035202
 21
146.515094
 31
0.0
 12
75.155334
 22
147.355548
 32
0.0
 13
75.96138
 23
148.68288
 33
0.0
  0
SOLID
  5
1D8
330
121
100
AcDbEntity
  8
0
 62
     7
370
    18
100
AcDbTrace
 10
85.188751
 20
143.079364
 30
0.0
 11
82.308884
 21
143.919818
 31
0.0
 12
85.188751
 22
143.079364
 32
0.0
 13
84.382706
 23
141.752033
 33
0.0
  0
TEXT
  5
1D9
330
121
100
AcDbEntity
  8
0
 62
     7
370
    18
100
AcDbText
 10
116.340942
 20
133.420856
 30
0.0
 40
3.5
  1
5
 41
0.863838
 72
     5
 11
118.788483
 21
133.420856
 31
0.0
100
AcDbText
  0
TEXT
  5
1DA
330
121
100
AcDbEntity
  8
0
 62
     7
370
    18
100
AcDbText
 10
112.774261
 20
133.420856
 30
0.0
 40
3.5
  1
M
 41
0.770004
 72
     5
 11
115.340942
 21
133.420856
 31
0.0
100
AcDbText
  0
TEXT
  5
1DB
330
121
100
AcDbEntity
  8
0
 62
     7
370
    18
100
AcDbText
 10
106.879166
 20
133.420856
 30
0.0
 40
3.5
  1
2x
 41
0.863843
 72
     5
 11
111.774277
 21
133.420856
 31
0.0
100
AcDbText
  0
LINE
  5
1DC
330
121
100
AcDbEntity
  8
0
 62
     7
370
    18
100
AcDbLine
 10
104.537659
 20
130.420856
 30
0.0
 11
118.788498
 21
130.420856
 31
0.0
  0
LINE
  5
1DD
330
121
100
AcDbEntity
  8
0
 62
     7
370
    18
100
AcDbLine
 10
73.761505
 20
149.110401
 30
0.0
 11
75.558365
 21
148.019214
 31
0.0
  0
LINE
  5
1DE
330
121
100
AcDbEntity
  8
0
 62
     7
370
    18
100
AcDbLine
 10
78.035202
 20
146.515094
 30
0.0
 11
82.308884
 21
143.919818
 31
0.0
  0
LINE
  5
1DF
330
121
100
AcDbEntity
  8
0
 62
     7
370
    18
100
AcDbLine
 10
84.785721
 20
142.415699
 30
0.0
 11
104.537659
 21
130.420856
 31
0.0
  0
POLYLINE
  5
1E0
330
121
100
AcDbEntity
  8
0
 62
     7
370
    18
100
AcDb2dPolyline
 66
     1
 10
0.0
 20
0.0
 30
0.0
 70
     1
  0
VERTEX
  5
1E1
330
1E0
100
AcDbEntity
  8
0
370
     0
100
AcDbVertex
100
AcDb2dVertex
 10
75.155334
 20
147.355548
 30
0.0
  0
VERTEX
  5
1E2
330
1E0
100
AcDbEntity
  8
0
370
     0
100
AcDbVertex
100
AcDb2dVertex
 10
78.035202
 20
146.515094
 30
0.0
  0
VERTEX
  5
1E3
330
1E0
100
AcDbEntity
  8
0
370
     0
100
AcDbVertex
100
AcDb2dVertex
 10
75.96138
 20
148.68288
 30
0.0
  0
SEQEND
  5
1E4
330
1E0
100
AcDbEntity
  8
0
 62
     7
370
    18
  0
POLYLINE
  5
1E5
330
121
100
AcDbEntity
  8
0
 62
     7
370
    18
100
AcDb2dPolyline
 66
     1
 10
0.0
 20
0.0
 30
0.0
 70
     1
  0
VERTEX
  5
1E6
330
1E5
100
AcDbEntity
  8
0
370
     0
100
AcDbVertex
100
AcDb2dVertex
 10
85.188751
 20
143.079364
 30
0.0
  0
VERTEX
  5
1E7
330
1E5
100
AcDbEntity
  8
0
370
     0
100
AcDbVertex
100
AcDb2dVertex
 10
82.308884
 20
143.919818
 30
0.0
  0
VERTEX
  5
1E8
330
1E5
100
AcDbEntity
  8
0
370
     0
100
AcDbVertex
100
AcDb2dVertex
 10
84.382706
 20
141.752033
 30
0.0
  0
SEQEND
  5
1E9
330
1E5
100
AcDbEntity
  8
0
 62
     7
370
    18
  0
ENDBLK
  5
123
330
121
100
AcDbEntity
  8
0
100
AcDbBlockEnd
  0
BLOCK
  5
125
330
124
100
AcDbEntity
  8
0
100
AcDbBlockBegin
  2
*D61
 70
     1
 10
0.0
 20
0.0
 30
0.0
  3
*D61
  1

  0
SOLID
  5
1EA
330
124
100
AcDbEntity
  8
0
 62
     7
370
    18
100
AcDbTrace
 10
37.984184
 20
148.115222
 30
0.0
 11
38.760643
 21
145.217456
 31
0.0
 12
37.984184
 22
148.115222
 32
0.0
 13
39.537102
 23
148.115222
 33
0.0
  0
SOLID
  5
1EB
330
124
100
AcDbEntity
  8
0
 62
     7
370
    18
100
AcDbTrace
 10
39.537102
 20
154.81969
 30
0.0
 11
38.760643
 21
157.717456
 31
0.0
 12
39.537102
 22
154.81969
 32
0.0
 13
37.984184
 23
154.81969
 33
0.0
  0
TEXT
  5
1EC
330
124
100
AcDbEntity
  8
0
 62
     7
370
    18
100
AcDbText
 10
35.760643
 20
122.903583
 30
0.0
 40
3.5
  1
12,5
 50
90.0
 41
0.704459
 72
     5
 11
35.760643
 21
130.770038
 31
0.0
100
AcDbText
  0
TEXT
  5
1ED
330
124
100
AcDbEntity
  8
0
 62
     7
370
    18
100
AcDbText
 10
35.760643
 20
132.520038
 30
0.0
 40
3.5
  1
%%p0,1
 50
90.0
 41
0.704459
 72
     5
 11
35.760643
 21
140.386493
 31
0.0
100
AcDbText
  0
LINE
  5
1EE
330
124
100
AcDbEntity
  8
0
 62
     7
370
    18
100
AcDbLine
 10
54.922043
 20
145.217456
 30
0.0
 11
36.760643
 21
145.217456
 31
0.0
  0
LINE
  5
1EF
330
124
100
AcDbEntity
  8
0
 62
     7
370
    18
100
AcDbLine
 10
58.172043
 20
157.717456
 30
0.0
 11
36.760643
 21
157.717456
 31
0.0
  0
LINE
  5
1F0
330
124
100
AcDbEntity
  8
0
 62
     7
370
    18
100
AcDbLine
 10
38.760643
 20
122.903614
 30
0.0
 11
38.760643
 21
145.217456
 31
0.0
  0
LINE
  5
1F1
330
124
100
AcDbEntity
  8
0
 62
     7
370
    18
100
AcDbLine
 10
38.760643
 20
148.115222
 30
0.0
 11
38.760643
 21
154.81969
 31
0.0
  0
POLYLINE
  5
1F2
330
124
100
AcDbEntity
  8
0
 62
     7
370
    18
100
AcDb2dPolyline
 66
     1
 10
0.0
 20
0.0
 30
0.0
 70
     1
  0
VERTEX
  5
1F3
330
1F2
100
AcDbEntity
  8
0
370
     0
100
AcDbVertex
100
AcDb2dVertex
 10
37.984184
 20
148.115222
 30
0.0
  0
VERTEX
  5
1F4
330
1F2
100
AcDbEntity
  8
0
370
     0
100
AcDbVertex
100
AcDb2dVertex
 10
38.760643
 20
145.217456
 30
0.0
  0
VERTEX
  5
1F5
330
1F2
100
AcDbEntity
  8
0
370
     0
100
AcDbVertex
100
AcDb2dVertex
 10
39.537102
 20
148.115222
 30
0.0
  0
SEQEND
  5
1F6
330
1F2
100
AcDbEntity
  8
0
 62
     7
370
    18
  0
POLYLINE
  5
1F7
330
124
100
AcDbEntity
  8
0
 62
     7
370
    18
100
AcDb2dPolyline
 66
     1
 10
0.0
 20
0.0
 30
0.0
 70
     1
  0
VERTEX
  5
1F8
330
1F7
100
AcDbEntity
  8
0
370
     0
100
AcDbVertex
100
AcDb2dVertex
 10
39.537102
 20
154.81969
 30
0.0
  0
VERTEX
  5
1F9
330
1F7
100
AcDbEntity
  8
0
370
     0
100
AcDbVertex
100
AcDb2dVertex
 10
38.760643
 20
157.717456
 30
0.0
  0
VERTEX
  5
1FA
330
1F7
100
AcDbEntity
  8
0
370
     0
100
AcDbVertex
100
AcDb2dVertex
 10
37.984184
 20
154.81969
 30
0.0
  0
SEQEND
  5
1FB
330
1F7
100
AcDbEntity
  8
0
 62
     7
370
    18
  0
ENDBLK
  5
126
330
124
100
AcDbEntity
  8
0
100
AcDbBlockEnd
  0
BLOCK
  5
128
330
127
100
AcDbEntity
  8
0
100
AcDbBlockBegin
  2
BLOCK398
 70
     0
 10
0.0
 20
0.0
 30
0.0
  3
BLOCK398
  1

  0
LINE
  5
1FC
330
127
100
AcDbEntity
  8
0
  6
DASHDOT
 62
     7
 48
0.1625
370
    18
100
AcDbLine
 10
158.25
 20
421.5
 30
0.0
 11
151.75
 21
421.5
 31
0.0
  0
LINE
  5
1FD
330
127
100
AcDbEntity
  8
0
  6
DASHDOT
 62
     7
 48
0.1625
370
    18
100
AcDbLine
 10
155.0
 20
424.75
 30
0.0
 11
155.0
 21
418.25
 31
0.0
  0
ARC
  5
1FE
330
127
100
AcDbEntity
  8
0
 62
     7
370
    18
100
AcDbCircle
 10
155.0
 20
421.5
 30
0.0
 40
3.0625
100
AcDbArc
 50
169.999993
 51
100.000014
  0
ENDBLK
  5
129
330
127
100
AcDbEntity
  8
0
100
AcDbBlockEnd
  0
BLOCK
  5
12B
330
12A
100
AcDbEntity
  8
0
100
AcDbBlockBegin
  2
BLOCK399
 70
     0
 10
0.0
 20
0.0
 30
0.0
  3
BLOCK399
  1

  0
LINE
  5
1FF
330
12A
100
AcDbEntity
  8
0
  6
DASHDOT
 62
     7
 48
0.1625
370
    18
100
AcDbLine
 10
136.25
 20
421.5
 30
0.0
 11
129.75
 21
421.5
 31
0.0
  0
LINE
  5
200
330
12A
100
AcDbEntity
  8
0
  6
DASHDOT
 62
     7
 48
0.1625
370
    18
100
AcDbLine
 10
133.0
 20
424.75
 30
0.0
 11
133.0
 21
418.25
 31
0.0
  0
ARC
  5
201
330
12A
100
AcDbEntity
  8
0
 62
     7
370
    18
100
AcDbCircle
 10
133.0
 20
421.5
 30
0.0
 40
3.0625
100
AcDbArc
 50
169.999993
 51
100.000014
  0
ENDBLK
  5
12C
330
12A
100
AcDbEntity
  8
0
100
AcDbBlockEnd
  0
BLOCK
  5
12E
330
12D
100
AcDbEntity
  8
0
100
AcDbBlockBegin
  2
BLOCK400
 70
     0
 10
0.0
 20
0.0
 30
0.0
  3
BLOCK400
  1

  0
LINE
  5
202
330
12D
100
AcDbEntity
  8
0
  6
DASHDOT
 62
     7
 48
0.1625
370
    18
100
AcDbLine
 10
158.25
 20
421.5
 30
0.0
 11
151.75
 21
421.5
 31
0.0
  0
LINE
  5
203
330
12D
100
AcDbEntity
  8
0
  6
DASHDOT
 62
     7
 48
0.1625
370
    18
100
AcDbLine
 10
155.0
 20
424.75
 30
0.0
 11
155.0
 21
418.25
 31
0.0
  0
ENDBLK
  5
12F
330
12D
100
AcDbEntity
  8
0
100
AcDbBlockEnd
  0
BLOCK
  5
131
330
130
100
AcDbEntity
  8
0
100
AcDbBlockBegin
  2
BLOCK401
 70
     0
 10
0.0
 20
0.0
 30
0.0
  3
BLOCK401
  1

  0
LINE
  5
204
330
130
100
AcDbEntity
  8
0
  6
DASHDOT
 62
     7
 48
0.1625
370
    18
100
AcDbLine
 10
136.25
 20
421.5
 30
0.0
 11
129.75
 21
421.5
 31
0.0
  0
LINE
  5
205
330
130
100
AcDbEntity
  8
0
  6
DASHDOT
 62
     7
 48
0.1625
370
    18
100
AcDbLine
 10
133.0
 20
424.75
 30
0.0
 11
133.0
 21
418.25
 31
0.0
  0
ENDBLK
  5
132
330
130
100
AcDbEntity
  8
0
100
AcDbBlockEnd
  0
BLOCK
  5
134
330
133
100
AcDbEntity
  8
0
100
AcDbBlockBegin
  2
BLOCK402
 70
     0
 10
0.0
 20
0.0
 30
0.0
  3
BLOCK402
  1

  0
LINE
  5
206
330
133
100
AcDbEntity
  8
0
  6
DASHDOT
 62
     7
 48
0.1625
370
    18
100
AcDbLine
 10
133.0
 20
424.75
 30
0.0
 11
133.0
 21
418.25
 31
0.0
  0
ENDBLK
  5
135
330
133
100
AcDbEntity
  8
0
100
AcDbBlockEnd
  0
BLOCK
  5
137
330
136
100
AcDbEntity
  8
0
100
AcDbBlockBegin
  2
BLOCK403
 70
     0
 10
0.0
 20
0.0
 30
0.0
  3
BLOCK403
  1

  0
LINE
  5
207
330
136
100
AcDbEntity
  8
0
  6
DASHDOT
 62
     7
 48
0.199063
370
    18
100
AcDbLine
 10
155.0
 20
425.481262
 30
0.0
 11
155.0
 21
417.518738
 31
0.0
  0
ENDBLK
  5
138
330
136
100
AcDbEntity
  8
0
100
AcDbBlockEnd
  0
BLOCK
  5
13A
330
139
100
AcDbEntity
  8
0
100
AcDbBlockBegin
  2
BLOCK404
 70
     0
 10
0.0
 20
0.0
 30
0.0
  3
BLOCK404
  1

  0
ARC
  5
208
330
139
100
AcDbEntity
  8
0
 62
     7
370
    35
100
AcDbCircle
 10
155.0
 20
421.5
 30
0.0
 40
12.5
100
AcDbArc
 50
360.0
 51
90.0
  0
LINE
  5
209
330
139
100
AcDbEntity
  8
0
 62
     7
370
    35
100
AcDbLine
 10
167.5
 20
421.5
 30
0.0
 11
167.5
 21
386.450372
 31
0.0
  0
LINE
  5
20A
330
139
100
AcDbEntity
  8
0
 62
     7
370
    35
100
AcDbLine
 10
133.0
 20
434.0
 30
0.0
 11
155.0
 21
434.0
 31
0.0
  0
ARC
  5
20B
330
139
100
AcDbEntity
  8
0
 62
     7
370
    35
100
AcDbCircle
 10
133.0
 20
421.5
 30
0.0
 40
12.5
100
AcDbArc
 50
90.0
 51
180.0
  0
LINE
  5
20C
330
139
100
AcDbEntity
  8
0
 62
     7
370
    35
100
AcDbLine
 10
120.5
 20
421.5
 30
0.0
 11
120.5
 21
386.450372
 31
0.0
  0
ARC
  5
20D
330
139
100
AcDbEntity
  8
0
 62
     7
370
    35
100
AcDbCircle
 10
125.5
 20
386.450372
 30
0.0
 40
5.0
100
AcDbArc
 50
180.0
 51
270.0
  0
LINE
  5
20E
330
139
100
AcDbEntity
  8
0
 62
     7
370
    35
100
AcDbLine
 10
125.5
 20
381.450372
 30
0.0
 11
162.5
 21
381.450372
 31
0.0
  0
ARC
  5
20F
330
139
100
AcDbEntity
  8
0
 62
     7
370
    35
100
AcDbCircle
 10
162.5
 20
386.450372
 30
0.0
 40
5.0
100
AcDbArc
 50
270.0
 51
360.0
  0
CIRCLE
  5
210
330
139
100
AcDbEntity
  8
0
 62
     7
370
    35
100
AcDbCircle
 10
155.0
 20
421.5
 30
0.0
 40
2.5
  0
CIRCLE
  5
211
330
139
100
AcDbEntity
  8
0
 62
     7
370
    35
100
AcDbCircle
 10
133.0
 20
421.5
 30
0.0
 40
2.5
  0
ENDBLK
  5
13B
330
139
100
AcDbEntity
  8
0
100
AcDbBlockEnd
  0
BLOCK
  5
13D
330
13C
100
AcDbEntity
  8
0
100
AcDbBlockBegin
  2
*D69
 70
     1
 10
0.0
 20
0.0
 30
0.0
  3
*D69
  1

  0
SOLID
  5
212
330
13C
100
AcDbEntity
  8
0
 62
     7
370
    18
100
AcDbTrace
 10
151.81649
 20
166.476001
 30
0.0
 11
154.714263
 21
167.25246
 31
0.0
 12
151.81649
 22
166.476001
 32
0.0
 13
151.81649
 23
168.028919
 33
0.0
  0
SOLID
  5
213
330
13C
100
AcDbEntity
  8
0
 62
     7
370
    18
100
AcDbTrace
 10
147.612045
 20
168.028919
 30
0.0
 11
144.714263
 21
167.25246
 31
0.0
 12
147.612045
 22
168.028919
 32
0.0
 13
147.612045
 23
166.476001
 33
0.0
  0
TEXT
  5
214
330
13C
100
AcDbEntity
  8
0
 62
     7
370
    18
100
AcDbText
 10
159.714263
 20
170.25246
 30
0.0
 40
3.5
  1
10
 41
0.680288
 72
     5
 11
163.90937
 21
170.25246
 31
0.0
100
AcDbText
  0
TEXT
  5
215
330
13C
100
AcDbEntity
  8
0
 62
     7
370
    18
100
AcDbText
 10
165.65937
 20
170.25246
 30
0.0
 40
3.5
  1
%%p0,1
 41
0.704457
 72
     5
 11
173.525802
 21
170.25246
 31
0.0
100
AcDbText
  0
LINE
  5
216
330
13C
100
AcDbEntity
  8
0
 62
     7
370
    18
100
AcDbLine
 10
144.714263
 20
157.717456
 30
0.0
 11
144.714263
 21
169.25246
 31
0.0
  0
LINE
  5
217
330
13C
100
AcDbEntity
  8
0
 62
     7
370
    18
100
AcDbLine
 10
154.714263
 20
157.717456
 30
0.0
 11
154.714263
 21
169.25246
 31
0.0
  0
LINE
  5
218
330
13C
100
AcDbEntity
  8
0
 62
     7
370
    18
100
AcDbLine
 10
147.612045
 20
167.25246
 30
0.0
 11
151.81649
 21
167.25246
 31
0.0
  0
LINE
  5
219
330
13C
100
AcDbEntity
  8
0
 62
     7
370
    18
100
AcDbLine
 10
154.714263
 20
167.25246
 30
0.0
 11
173.525802
 21
167.25246
 31
0.0
  0
POLYLINE
  5
21A
330
13C
100
AcDbEntity
  8
0
 62
     7
370
    18
100
AcDb2dPolyline
 66
     1
 10
0.0
 20
0.0
 30
0.0
 70
     1
  0
VERTEX
  5
21B
330
21A
100
AcDbEntity
  8
0
370
     0
100
AcDbVertex
100
AcDb2dVertex
 10
151.81649
 20
166.476001
 30
0.0
  0
VERTEX
  5
21C
330
21A
100
AcDbEntity
  8
0
370
     0
100
AcDbVertex
100
AcDb2dVertex
 10
154.714263
 20
167.25246
 30
0.0
  0
VERTEX
  5
21D
330
21A
100
AcDbEntity
  8
0
370
     0
100
AcDbVertex
100
AcDb2dVertex
 10
151.81649
 20
168.028919
 30
0.0
  0
SEQEND
  5
21E
330
21A
100
AcDbEntity
  8
0
 62
     7
370
    18
  0
POLYLINE
  5
21F
330
13C
100
AcDbEntity
  8
0
 62
     7
370
    18
100
AcDb2dPolyline
 66
     1
 10
0.0
 20
0.0
 30
0.0
 70
     1
  0
VERTEX
  5
220
330
21F
100
AcDbEntity
  8
0
370
     0
100
AcDbVertex
100
AcDb2dVertex
 10
147.612045
 20
168.028919
 30
0.0
  0
VERTEX
  5
221
330
21F
100
AcDbEntity
  8
0
370
     0
100
AcDbVertex
100
AcDb2dVertex
 10
144.714263
 20
167.25246
 30
0.0
  0
VERTEX
  5
222
330
21F
100
AcDbEntity
  8
0
370
     0
100
AcDbVertex
100
AcDb2dVertex
 10
147.612045
 20
166.476001
 30
0.0
  0
SEQEND
  5
223
330
21F
100
AcDbEntity
  8
0
 62
     7
370
    18
  0
ENDBLK
  5
13E
330
13C
100
AcDbEntity
  8
0
100
AcDbBlockEnd
  0
BLOCK
  5
140
330
13F
100
AcDbEntity
  8
0
100
AcDbBlockBegin
  2
BLOCK405
 70
     0
 10
0.0
 20
0.0
 30
0.0
  3
BLOCK405
  1

  0
LINE
  5
224
330
13F
100
AcDbEntity
  8
0
 62
     7
370
    35
100
AcDbLine
 10
-68.999999
 20
421.5
 30
0.0
 11
-68.999999
 21
434.0
 31
0.0
  0
LINE
  5
225
330
13F
100
AcDbEntity
  8
0
 62
     7
370
    35
100
AcDbLine
 10
-68.999999
 20
421.5
 30
0.0
 11
-68.999999
 21
386.450372
 31
0.0
  0
LINE
  5
226
330
13F
100
AcDbEntity
  8
0
 62
     7
370
    35
100
AcDbLine
 10
-68.999999
 20
381.450372
 30
0.0
 11
-68.999999
 21
386.450372
 31
0.0
  0
LINE
  5
227
330
13F
100
AcDbEntity
  8
0
 62
     7
370
    18
100
AcDbLine
 10
-78.999999
 20
386.450372
 30
0.0
 11
-68.999999
 21
386.450372
 31
0.0
  0
LINE
  5
228
330
13F
100
AcDbEntity
  8
0
 62
     7
370
    35
100
AcDbLine
 10
-78.999999
 20
381.450372
 30
0.0
 11
-78.999999
 21
386.450372
 31
0.0
  0
LINE
  5
229
330
13F
100
AcDbEntity
  8
0
 62
     7
370
    35
100
AcDbLine
 10
-78.999999
 20
381.450372
 30
0.0
 11
-68.999999
 21
381.450372
 31
0.0
  0
LINE
  5
22A
330
13F
100
AcDbEntity
  8
0
 62
     7
370
    18
100
AcDbLine
 10
-78.999999
 20
421.5
 30
0.0
 11
-68.999999
 21
421.5
 31
0.0
  0
LINE
  5
22B
330
13F
100
AcDbEntity
  8
0
 62
     7
370
    35
100
AcDbLine
 10
-78.999999
 20
421.5
 30
0.0
 11
-78.999999
 21
386.450372
 31
0.0
  0
LINE
  5
22C
330
13F
100
AcDbEntity
  8
0
 62
     7
370
    35
100
AcDbLine
 10
-78.999999
 20
434.0
 30
0.0
 11
-68.999999
 21
434.0
 31
0.0
  0
LINE
  5
22D
330
13F
100
AcDbEntity
  8
0
 62
     7
370
    35
100
AcDbLine
 10
-78.999999
 20
421.5
 30
0.0
 11
-78.999999
 21
434.0
 31
0.0
  0
ENDBLK
  5
141
330
13F
100
AcDbEntity
  8
0
100
AcDbBlockEnd
  0
BLOCK
  5
143
330
142
100
AcDbEntity
  8
0
100
AcDbBlockBegin
  2
BLOCK406
 70
     0
 10
0.0
 20
0.0
 30
0.0
  3
BLOCK406
  1

  0
LINE
  5
22E
330
142
100
AcDbEntity
  8
0
 62
     7
370
    18
100
AcDbLine
 10
192.858057
 20
374.724988
 30
0.0
 11
185.614726
 21
373.038446
 31
0.0
  0
ELLIPSE
  5
22F
330
142
100
AcDbEntity
  8
0
 62
     7
370
    35
100
AcDbEllipse
 10
184.261276
 20
377.786804
 30
0.0
 11
-2.834682941436768
 21
12.17434120178223
 31
0.0
210
0.0
220
0.0
230
1.0
 40
0.668504
 41
4.306837745128089
 42
5.877634071922642
  0
LINE
  5
230
330
142
100
AcDbEntity
  8
0
 62
     7
370
    18
100
AcDbLine
 10
184.867405
 20
389.721234
 30
0.0
 11
177.624074
 21
388.034692
 31
0.0
  0
ELLIPSE
  5
231
330
142
100
AcDbEntity
  8
0
 62
     7
370
    35
100
AcDbEllipse
 10
177.017944
 20
376.10025
 30
0.0
 11
-2.834682941436768
 21
12.17434120178223
 31
0.0
210
0.0
220
0.0
230
1.0
 40
0.668504
 41
4.306837745127707
 42
5.877634071922946
  0
LINE
  5
232
330
142
100
AcDbEntity
  8
0
 62
     7
370
    18
100
AcDbLine
 10
191.158478
 20
341.261163
 30
0.0
 11
183.915147
 21
339.57462
 31
0.0
  0
LINE
  5
233
330
142
100
AcDbEntity
  8
0
 62
     7
370
    35
100
AcDbLine
 10
192.858057
 20
374.724988
 30
0.0
 11
191.158478
 21
341.261163
 31
0.0
  0
LINE
  5
234
330
142
100
AcDbEntity
  8
0
 62
     7
370
    35
100
AcDbLine
 10
185.614726
 20
373.038446
 30
0.0
 11
183.915147
 21
339.57462
 31
0.0
  0
LINE
  5
235
330
142
100
AcDbEntity
  8
0
 62
     7
370
    35
100
AcDbLine
 10
162.493731
 20
393.423463
 30
0.0
 11
177.624074
 21
388.034692
 31
0.0
  0
ELLIPSE
  5
236
330
142
100
AcDbEntity
  8
0
 62
     7
370
    35
100
AcDbEllipse
 10
161.887604
 20
381.489014
 30
0.0
 11
-2.834682941436768
 21
12.17434120178223
 31
0.0
210
0.0
220
0.0
230
1.0
 40
0.668504
 41
5.877634071922946
 42
6.283140895757077
  0
ELLIPSE
  5
237
330
142
100
AcDbEntity
  8
0
 62
     7
370
    35
100
AcDbEllipse
 10
161.887604
 20
381.489014
 30
0.0
 11
-2.834682941436768
 21
12.17434120178223
 31
0.0
210
0.0
220
0.0
230
1.0
 40
0.668504
 41
6.283140895757077
 42
7.448430398717882
  0
LINE
  5
238
330
142
100
AcDbEntity
  8
0
 62
     7
370
    35
100
AcDbLine
 10
153.290812
 20
384.550821
 30
0.0
 11
151.591232
 21
351.086996
 31
0.0
  0
ELLIPSE
  5
239
330
142
100
AcDbEntity
  8
0
 62
     7
370
    35
100
AcDbEllipse
 10
155.029953
 20
349.862274
 30
0.0
 11
-1.133873224258423
 21
4.869736194610596
 31
0.0
210
0.0
220
0.0
230
1.0
 40
0.668504
 41
1.165245091538581
 42
2.736041418332616
  0
LINE
  5
23A
330
142
100
AcDbEntity
  8
0
 62
     7
370
    35
100
AcDbLine
 10
154.787493
 20
345.088497
 30
0.0
 11
180.233979
 21
336.025563
 31
0.0
  0
ELLIPSE
  5
23B
330
142
100
AcDbEntity
  8
0
 62
     7
370
    35
100
AcDbEllipse
 10
180.476425
 20
340.799347
 30
0.0
 11
-1.133873224258423
 21
4.869736194610596
 31
0.0
210
0.0
220
0.0
230
1.0
 40
0.668504
 41
3.141659965905293
 42
4.306837745127423
  0
ELLIPSE
  5
23C
330
142
100
AcDbEntity
  8
0
 62
     7
370
    35
100
AcDbEllipse
 10
180.476425
 20
340.799347
 30
0.0
 11
-1.133873224258423
 21
4.869736194610596
 31
0.0
210
0.0
220
0.0
230
1.0
 40
0.668504
 41
2.736041418332623
 42
3.141659965905293
  0
ELLIPSE
  5
23D
330
142
100
AcDbEntity
  8
0
 62
     7
370
    35
100
AcDbEllipse
 10
177.017944
 20
376.10025
 30
0.0
 11
-0.5669366121292114
 21
2.434868097305298
 31
0.0
210
0.0
220
0.0
230
1.0
 40
0.668504
 41
0.0000673123154668
 42
3.141659965905963
  0
ELLIPSE
  5
23E
330
142
100
AcDbEntity
  8
0
 62
     7
370
    35
100
AcDbEllipse
 10
177.017944
 20
376.10025
 30
0.0
 11
-0.5669366121292114
 21
2.434868097305298
 31
0.0
210
0.0
220
0.0
230
1.0
 40
0.668504
 41
3.141659965905963
 42
5.877634071922794
  0
ELLIPSE
  5
23F
330
142
100
AcDbEntity
  8
0
 62
     7
370
    35
100
AcDbEllipse
 10
177.017944
 20
376.10025
 30
0.0
 11
-0.5669366121292114
 21
2.434868097305298
 31
0.0
210
0.0
220
0.0
230
1.0
 40
0.668504
 41
5.877634071922794
 42
6.283252619495052
  0
ELLIPSE
  5
240
330
142
100
AcDbEntity
  8
0
 62
     7
370
    35
100
AcDbEllipse
 10
161.887604
 20
381.489014
 30
0.0
 11
-0.5669366121292114
 21
2.434868097305298
 31
0.0
210
0.0
220
0.0
230
1.0
 40
0.668504
 41
0.0000673123154459
 42
3.141659965905963
  0
ELLIPSE
  5
241
330
142
100
AcDbEntity
  8
0
 62
     7
370
    35
100
AcDbEllipse
 10
161.887604
 20
381.489014
 30
0.0
 11
-0.5669366121292114
 21
2.434868097305298
 31
0.0
210
0.0
220
0.0
230
1.0
 40
0.668504
 41
3.141659965905963
 42
5.877634071922794
  0
ELLIPSE
  5
242
330
142
100
AcDbEntity
  8
0
 62
     7
370
    35
100
AcDbEllipse
 10
161.887604
 20
381.489014
 30
0.0
 11
-0.5669366121292114
 21
2.434868097305298
 31
0.0
210
0.0
220
0.0
230
1.0
 40
0.668504
 41
5.877634071922794
 42
6.283252619495031
  0
ELLIPSE
  5
243
330
142
100
AcDbEntity
  8
0
 62
     7
370
    35
100
AcDbEllipse
 10
187.719757
 20
342.48587
 30
0.0
 11
-1.133873224258423
 21
4.869736194610596
 31
0.0
210
0.0
220
0.0
230
1.0
 40
0.668504
 41
3.141659965905288
 42
4.306837745128389
  0
LINE
  5
244
330
142
100
AcDbEntity
  8
0
 62
     7
370
    18
100
AcDbLine
 10
169.737062
 20
395.110006
 30
0.0
 11
162.493731
 21
393.423463
 31
0.0
  0
ELLIPSE
  5
245
330
142
100
AcDbEntity
  8
0
 62
     7
370
    35
100
AcDbEllipse
 10
169.130936
 20
383.175568
 30
0.0
 11
-2.834682941436768
 21
12.17434120178223
 31
0.0
210
0.0
220
0.0
230
1.0
 40
0.668504
 41
5.877634071922642
 42
6.283140895757077
  0
LINE
  5
246
330
142
100
AcDbEntity
  8
0
 62
     7
370
    35
100
AcDbLine
 10
169.737062
 20
395.110006
 30
0.0
 11
184.867405
 21
389.721234
 31
0.0
  0
LINE
  5
247
330
142
100
AcDbEntity
  8
0
 62
     7
370
    35
100
AcDbLine
 10
188.853856
 20
337.616198
 30
0.0
 11
181.610525
 21
335.929655
 31
0.0
  0
LINE
  5
248
330
142
100
AcDbEntity
  8
0
 62
     7
370
    35
100
AcDbLine
 10
166.296607
 20
395.349987
 30
0.0
 11
159.053276
 21
393.663444
 31
0.0
  0
ENDBLK
  5
144
330
142
100
AcDbEntity
  8
0
100
AcDbBlockEnd
  0
ENDSEC
  0
SECTION
  2
ENTITIES
  0
INSERT
  5
249
330
1F
100
AcDbEntity
  8
0
370
     0
100
AcDbBlockReference
  2
BLOCK345
 10
0.0
 20
0.0
 30
0.0
  0
INSERT
  5
24A
330
1F
100
AcDbEntity
  8
0
370
     0
100
AcDbBlockReference
  2
BLOCK346
 10
0.0
 20
0.0
 30
0.0
  0
INSERT
  5
24B
330
1F
100
AcDbEntity
  8
0
370
     0
100
AcDbBlockReference
  2
BLOCK347
 10
0.0
 20
0.0
 30
0.0
  0
INSERT
  5
24C
330
1F
100
AcDbEntity
  8
0
370
     0
100
AcDbBlockReference
  2
BLOCK348
 10
0.0
 20
0.0
 30
0.0
  0
INSERT
  5
24D
330
1F
100
AcDbEntity
  8
0
370
     0
100
AcDbBlockReference
  2
BLOCK349
 10
0.0
 20
0.0
 30
0.0
  0
INSERT
  5
24E
330
1F
100
AcDbEntity
  8
0
370
     0
100
AcDbBlockReference
  2
BLOCK350
 10
0.0
 20
0.0
 30
0.0
  0
INSERT
  5
24F
330
1F
100
AcDbEntity
  8
0
370
     0
100
AcDbBlockReference
  2
BLOCK351
 10
0.0
 20
0.0
 30
0.0
  0
INSERT
  5
250
330
1F
100
AcDbEntity
  8
0
370
     0
100
AcDbBlockReference
  2
BLOCK352
 10
0.0
 20
0.0
 30
0.0
  0
INSERT
  5
251
330
1F
100
AcDbEntity
  8
0
370
     0
100
AcDbBlockReference
  2
BLOCK353
 10
0.0
 20
0.0
 30
0.0
  0
INSERT
  5
252
330
1F
100
AcDbEntity
  8
0
370
     0
100
AcDbBlockReference
  2
BLOCK354
 10
0.0
 20
0.0
 30
0.0
  0
INSERT
  5
253
330
1F
100
AcDbEntity
  8
0
370
     0
100
AcDbBlockReference
  2
BLOCK355
 10
0.0
 20
0.0
 30
0.0
  0
INSERT
  5
254
330
1F
100
AcDbEntity
  8
0
370
     0
100
AcDbBlockReference
  2
BLOCK356
 10
0.0
 20
0.0
 30
0.0
  0
INSERT
  5
255
330
1F
100
AcDbEntity
  8
0
370
     0
100
AcDbBlockReference
  2
BLOCK357
 10
0.0
 20
0.0
 30
0.0
  0
INSERT
  5
256
330
1F
100
AcDbEntity
  8
0
370
     0
100
AcDbBlockReference
  2
BLOCK358
 10
0.0
 20
0.0
 30
0.0
  0
INSERT
  5
257
330
1F
100
AcDbEntity
  8
0
370
     0
100
AcDbBlockReference
  2
BLOCK359
 10
0.0
 20
0.0
 30
0.0
  0
INSERT
  5
258
330
1F
100
AcDbEntity
  8
0
370
     0
100
AcDbBlockReference
  2
BLOCK360
 10
0.0
 20
0.0
 30
0.0
  0
INSERT
  5
259
330
1F
100
AcDbEntity
  8
0
370
     0
100
AcDbBlockReference
  2
BLOCK361
 10
0.0
 20
0.0
 30
0.0
  0
INSERT
  5
25A
330
1F
100
AcDbEntity
  8
0
370
     0
100
AcDbBlockReference
  2
BLOCK362
 10
0.0
 20
0.0
 30
0.0
  0
INSERT
  5
25B
330
1F
100
AcDbEntity
  8
0
370
     0
100
AcDbBlockReference
  2
BLOCK363
 10
0.0
 20
0.0
 30
0.0
  0
INSERT
  5
25C
330
1F
100
AcDbEntity
  8
0
370
     0
100
AcDbBlockReference
  2
BLOCK364
 10
0.0
 20
0.0
 30
0.0
  0
INSERT
  5
25D
330
1F
100
AcDbEntity
  8
0
370
     0
100
AcDbBlockReference
  2
BLOCK365
 10
0.0
 20
0.0
 30
0.0
  0
INSERT
  5
25E
330
1F
100
AcDbEntity
  8
0
370
     0
100
AcDbBlockReference
  2
BLOCK366
 10
0.0
 20
0.0
 30
0.0
  0
INSERT
  5
25F
330
1F
100
AcDbEntity
  8
0
370
     0
100
AcDbBlockReference
  2
BLOCK367
 10
0.0
 20
0.0
 30
0.0
  0
INSERT
  5
260
330
1F
100
AcDbEntity
  8
0
370
     0
100
AcDbBlockReference
  2
BLOCK368
 10
0.0
 20
0.0
 30
0.0
  0
INSERT
  5
261
330
1F
100
AcDbEntity
  8
0
370
     0
100
AcDbBlockReference
  2
BLOCK369
 10
0.0
 20
0.0
 30
0.0
  0
INSERT
  5
262
330
1F
100
AcDbEntity
  8
0
370
     0
100
AcDbBlockReference
  2
BLOCK370
 10
0.0
 20
0.0
 30
0.0
  0
INSERT
  5
263
330
1F
100
AcDbEntity
  8
0
370
     0
100
AcDbBlockReference
  2
BLOCK371
 10
0.0
 20
0.0
 30
0.0
  0
INSERT
  5
264
330
1F
100
AcDbEntity
  8
0
370
     0
100
AcDbBlockReference
  2
BLOCK372
 10
0.0
 20
0.0
 30
0.0
  0
INSERT
  5
265
330
1F
100
AcDbEntity
  8
0
370
     0
100
AcDbBlockReference
  2
BLOCK373
 10
0.0
 20
0.0
 30
0.0
  0
INSERT
  5
266
330
1F
100
AcDbEntity
  8
0
370
     0
100
AcDbBlockReference
  2
BLOCK374
 10
0.0
 20
0.0
 30
0.0
  0
INSERT
  5
267
330
1F
100
AcDbEntity
  8
0
370
     0
100
AcDbBlockReference
  2
BLOCK375
 10
0.0
 20
0.0
 30
0.0
  0
INSERT
  5
268
330
1F
100
AcDbEntity
  8
0
370
     0
100
AcDbBlockReference
  2
BLOCK376
 10
0.0
 20
0.0
 30
0.0
  0
INSERT
  5
269
330
1F
100
AcDbEntity
  8
0
370
     0
100
AcDbBlockReference
  2
BLOCK377
 10
0.0
 20
0.0
 30
0.0
  0
INSERT
  5
26A
330
1F
100
AcDbEntity
  8
0
370
     0
100
AcDbBlockReference
  2
BLOCK378
 10
0.0
 20
0.0
 30
0.0
  0
INSERT
  5
26B
330
1F
100
AcDbEntity
  8
0
370
     0
100
AcDbBlockReference
  2
BLOCK379
 10
0.0
 20
0.0
 30
0.0
  0
INSERT
  5
26C
330
1F
100
AcDbEntity
  8
0
370
     0
100
AcDbBlockReference
  2
BLOCK380
 10
0.0
 20
0.0
 30
0.0
  0
INSERT
  5
26D
330
1F
100
AcDbEntity
  8
0
370
     0
100
AcDbBlockReference
  2
BLOCK381
 10
0.0
 20
0.0
 30
0.0
  0
INSERT
  5
26E
330
1F
100
AcDbEntity
  8
0
370
     0
100
AcDbBlockReference
  2
BLOCK382
 10
0.0
 20
0.0
 30
0.0
  0
INSERT
  5
26F
330
1F
100
AcDbEntity
  8
0
370
     0
100
AcDbBlockReference
  2
BLOCK383
 10
0.0
 20
0.0
 30
0.0
  0
INSERT
  5
270
330
1F
100
AcDbEntity
  8
0
370
     0
100
AcDbBlockReference
  2
BLOCK384
 10
0.0
 20
0.0
 30
0.0
  0
INSERT
  5
271
330
1F
100
AcDbEntity
  8
0
370
     0
100
AcDbBlockReference
  2
BLOCK385
 10
0.0
 20
0.0
 30
0.0
  0
INSERT
  5
272
330
1F
100
AcDbEntity
  8
0
370
     0
100
AcDbBlockReference
  2
BLOCK386
 10
0.0
 20
0.0
 30
0.0
  0
INSERT
  5
273
330
1F
100
AcDbEntity
  8
0
370
     0
100
AcDbBlockReference
  2
BLOCK387
 10
0.0
 20
0.0
 30
0.0
  0
INSERT
  5
274
330
1F
100
AcDbEntity
  8
0
370
     0
100
AcDbBlockReference
  2
BLOCK388
 10
0.0
 20
0.0
 30
0.0
  0
INSERT
  5
275
330
1F
100
AcDbEntity
  8
0
370
     0
100
AcDbBlockReference
  2
BLOCK389
 10
0.0
 20
0.0
 30
0.0
  0
INSERT
  5
276
330
1F
100
AcDbEntity
  8
0
370
     0
100
AcDbBlockReference
  2
BLOCK390
 10
0.0
 20
0.0
 30
0.0
  0
INSERT
  5
277
330
1F
100
AcDbEntity
  8
0
370
     0
100
AcDbBlockReference
  2
BLOCK391
 10
0.0
 20
0.0
 30
0.0
  0
INSERT
  5
278
330
1F
100
AcDbEntity
  8
0
370
     0
100
AcDbBlockReference
  2
BLOCK392
 10
0.0
 20
0.0
 30
0.0
  0
INSERT
  5
279
330
1F
100
AcDbEntity
  8
0
370
     0
100
AcDbBlockReference
  2
BLOCK393
 10
0.0
 20
0.0
 30
0.0
  0
INSERT
  5
27A
330
1F
100
AcDbEntity
  8
0
370
     0
100
AcDbBlockReference
  2
BLOCK394
 10
0.0
 20
0.0
 30
0.0
  0
INSERT
  5
27B
330
1F
100
AcDbEntity
  8
0
370
     0
100
AcDbBlockReference
  2
BLOCK395
 10
0.0
 20
0.0
 30
0.0
  0
INSERT
  5
27C
330
1F
100
AcDbEntity
  8
0
370
     0
100
AcDbBlockReference
  2
BLOCK396
 10
0.0
 20
0.0
 30
0.0
  0
INSERT
  5
27D
330
1F
100
AcDbEntity
  8
0
370
     0
100
AcDbBlockReference
  2
BLOCK397
 10
0.0
 20
0.0
 30
0.0
  0
LINE
  5
27E
330
1F
100
AcDbEntity
  8
0
 62
     7
370
    35
100
AcDbLine
 10
10.0
 20
10.0
 30
0.0
 11
287.0
 21
10.0
 31
0.0
  0
LINE
  5
27F
330
1F
100
AcDbEntity
  8
0
 62
     7
370
    35
100
AcDbLine
 10
287.0
 20
10.0
 30
0.0
 11
287.0
 21
200.0
 31
0.0
  0
LINE
  5
280
330
1F
100
AcDbEntity
  8
0
 62
     7
370
    35
100
AcDbLine
 10
287.0
 20
200.0
 30
0.0
 11
10.0
 21
200.0
 31
0.0
  0
LINE
  5
281
330
1F
100
AcDbEntity
  8
0
 62
     7
370
    35
100
AcDbLine
 10
10.0
 20
200.0
 30
0.0
 11
10.0
 21
10.0
 31
0.0
  0
LINE
  5
282
330
1F
100
AcDbEntity
  8
0
 62
     7
370
    35
100
AcDbLine
 10
148.5
 20
200.0
 30
0.0
 11
148.5
 21
210.0
 31
0.0
  0
LINE
  5
283
330
1F
100
AcDbEntity
  8
0
 62
     7
370
    35
100
AcDbLine
 10
148.5
 20
10.0
 30
0.0
 11
148.5
 21
0.0
 31
0.0
  0
LINE
  5
284
330
1F
100
AcDbEntity
  8
0
 62
     7
370
    35
100
AcDbLine
 10
10.0
 20
105.0
 30
0.0
 11
0.0
 21
105.0
 31
0.0
  0
LINE
  5
285
330
1F
100
AcDbEntity
  8
0
 62
     7
370
    35
100
AcDbLine
 10
287.0
 20
105.0
 30
0.0
 11
297.0
 21
105.0
 31
0.0
  0
LINE
  5
286
330
1F
100
AcDbEntity
  8
0
 62
     7
370
    35
100
AcDbLine
 10
222.7
 20
10.0
 30
0.0
 11
222.7
 21
2.5
 31
0.0
  0
LINE
  5
287
330
1F
100
AcDbEntity
  8
0
 62
     7
370
    35
100
AcDbLine
 10
74.3
 20
10.0
 30
0.0
 11
74.3
 21
2.5
 31
0.0
  0
LINE
  5
288
330
1F
100
AcDbEntity
  8
0
 62
     7
370
    35
100
AcDbLine
 10
222.7
 20
200.0
 30
0.0
 11
222.7
 21
207.5
 31
0.0
  0
LINE
  5
289
330
1F
100
AcDbEntity
  8
0
 62
     7
370
    35
100
AcDbLine
 10
74.3
 20
200.0
 30
0.0
 11
74.3
 21
207.5
 31
0.0
  0
LINE
  5
28A
330
1F
100
AcDbEntity
  8
0
 62
     7
370
    35
100
AcDbLine
 10
10.0
 20
157.5
 30
0.0
 11
2.5
 21
157.5
 31
0.0
  0
LINE
  5
28B
330
1F
100
AcDbEntity
  8
0
 62
     7
370
    35
100
AcDbLine
 10
287.0
 20
157.5
 30
0.0
 11
294.5
 21
157.5
 31
0.0
  0
LINE
  5
28C
330
1F
100
AcDbEntity
  8
0
 62
     7
370
    35
100
AcDbLine
 10
10.0
 20
52.5
 30
0.0
 11
2.5
 21
52.5
 31
0.0
  0
LINE
  5
28D
330
1F
100
AcDbEntity
  8
0
 62
     7
370
    35
100
AcDbLine
 10
287.0
 20
52.5
 30
0.0
 11
294.5
 21
52.5
 31
0.0
  0
LINE
  5
28E
330
1F
100
AcDbEntity
  8
0
 62
     7
370
    35
100
AcDbLine
 10
98.5
 20
7.5
 30
0.0
 11
198.5
 21
7.5
 31
0.0
  0
LINE
  5
28F
330
1F
100
AcDbEntity
  8
0
 62
     7
370
    35
100
AcDbLine
 10
98.5
 20
10.0
 30
0.0
 11
98.5
 21
5.0
 31
0.0
  0
LINE
  5
290
330
1F
100
AcDbEntity
  8
0
 62
     7
370
    35
100
AcDbLine
 10
198.5
 20
10.0
 30
0.0
 11
198.5
 21
5.0
 31
0.0
  0
LINE
  5
291
330
1F
100
AcDbEntity
  8
0
 62
     7
370
    35
100
AcDbLine
 10
108.5
 20
10.0
 30
0.0
 11
108.5
 21
7.5
 31
0.0
  0
LINE
  5
292
330
1F
100
AcDbEntity
  8
0
 62
     7
370
    35
100
AcDbLine
 10
188.5
 20
10.0
 30
0.0
 11
188.5
 21
7.5
 31
0.0
  0
LINE
  5
293
330
1F
100
AcDbEntity
  8
0
 62
     7
370
    35
100
AcDbLine
 10
118.5
 20
10.0
 30
0.0
 11
118.5
 21
7.5
 31
0.0
  0
LINE
  5
294
330
1F
100
AcDbEntity
  8
0
 62
     7
370
    35
100
AcDbLine
 10
178.5
 20
10.0
 30
0.0
 11
178.5
 21
7.5
 31
0.0
  0
LINE
  5
295
330
1F
100
AcDbEntity
  8
0
 62
     7
370
    35
100
AcDbLine
 10
128.5
 20
10.0
 30
0.0
 11
128.5
 21
7.5
 31
0.0
  0
LINE
  5
296
330
1F
100
AcDbEntity
  8
0
 62
     7
370
    35
100
AcDbLine
 10
168.5
 20
10.0
 30
0.0
 11
168.5
 21
7.5
 31
0.0
  0
LINE
  5
297
330
1F
100
AcDbEntity
  8
0
 62
     7
370
    35
100
AcDbLine
 10
138.5
 20
10.0
 30
0.0
 11
138.5
 21
7.5
 31
0.0
  0
LINE
  5
298
330
1F
100
AcDbEntity
  8
0
 62
     7
370
    35
100
AcDbLine
 10
158.5
 20
10.0
 30
0.0
 11
158.5
 21
7.5
 31
0.0
  0
LINE
  5
299
330
1F
100
AcDbEntity
  8
0
 62
     7
370
    35
100
AcDbLine
 10
97.0
 20
10.0
 30
0.0
 11
287.0
 21
10.0
 31
0.0
  0
LINE
  5
29A
330
1F
100
AcDbEntity
  8
0
 62
     7
370
    35
100
AcDbLine
 10
97.0
 20
10.0
 30
0.0
 11
97.0
 21
70.0
 31
0.0
  0
LINE
  5
29B
330
1F
100
AcDbEntity
  8
0
 62
     7
370
    35
100
AcDbLine
 10
97.0
 20
70.0
 30
0.0
 11
287.0
 21
70.0
 31
0.0
  0
LINE
  5
29C
330
1F
100
AcDbEntity
  8
0
 62
     7
370
    35
100
AcDbLine
 10
287.0
 20
70.0
 30
0.0
 11
287.0
 21
10.0
 31
0.0
  0
LINE
  5
29D
330
1F
100
AcDbEntity
  8
0
 62
     7
370
    35
100
AcDbLine
 10
97.0
 20
14.0
 30
0.0
 11
262.0
 21
14.0
 31
0.0
  0
LINE
  5
29E
330
1F
100
AcDbEntity
  8
0
 62
     7
370
    35
100
AcDbLine
 10
97.0
 20
27.0
 30
0.0
 11
262.0
 21
27.0
 31
0.0
  0
LINE
  5
29F
330
1F
100
AcDbEntity
  8
0
 62
     7
370
    35
100
AcDbLine
 10
97.0
 20
40.0
 30
0.0
 11
262.0
 21
40.0
 31
0.0
  0
LINE
  5
2A0
330
1F
100
AcDbEntity
  8
0
 62
     7
370
    35
100
AcDbLine
 10
97.0
 20
55.0
 30
0.0
 11
142.0
 21
55.0
 31
0.0
  0
LINE
  5
2A1
330
1F
100
AcDbEntity
  8
0
 62
     7
370
    35
100
AcDbLine
 10
262.0
 20
16.666667
 30
0.0
 11
287.0
 21
16.666667
 31
0.0
  0
LINE
  5
2A2
330
1F
100
AcDbEntity
  8
0
 62
     7
370
    35
100
AcDbLine
 10
262.0
 20
23.333333
 30
0.0
 11
287.0
 21
23.333333
 31
0.0
  0
LINE
  5
2A3
330
1F
100
AcDbEntity
  8
0
 62
     7
370
    35
100
AcDbLine
 10
262.0
 20
30.0
 30
0.0
 11
287.0
 21
30.0
 31
0.0
  0
LINE
  5
2A4
330
1F
100
AcDbEntity
  8
0
 62
     7
370
    35
100
AcDbLine
 10
262.0
 20
36.666667
 30
0.0
 11
287.0
 21
36.666667
 31
0.0
  0
LINE
  5
2A5
330
1F
100
AcDbEntity
  8
0
 62
     7
370
    35
100
AcDbLine
 10
262.0
 20
43.333333
 30
0.0
 11
287.0
 21
43.333333
 31
0.0
  0
LINE
  5
2A6
330
1F
100
AcDbEntity
  8
0
 62
     7
370
    35
100
AcDbLine
 10
262.0
 20
50.0
 30
0.0
 11
287.0
 21
50.0
 31
0.0
  0
LINE
  5
2A7
330
1F
100
AcDbEntity
  8
0
 62
     7
370
    35
100
AcDbLine
 10
262.0
 20
56.666667
 30
0.0
 11
287.0
 21
56.666667
 31
0.0
  0
LINE
  5
2A8
330
1F
100
AcDbEntity
  8
0
 62
     7
370
    35
100
AcDbLine
 10
262.0
 20
63.333333
 30
0.0
 11
287.0
 21
63.333333
 31
0.0
  0
LINE
  5
2A9
330
1F
100
AcDbEntity
  8
0
 62
     7
370
    35
100
AcDbLine
 10
117.0
 20
14.0
 30
0.0
 11
117.0
 21
40.0
 31
0.0
  0
LINE
  5
2AA
330
1F
100
AcDbEntity
  8
0
 62
     7
370
    35
100
AcDbLine
 10
142.0
 20
14.0
 30
0.0
 11
142.0
 21
70.0
 31
0.0
  0
LINE
  5
2AB
330
1F
100
AcDbEntity
  8
0
 62
     7
370
    35
100
AcDbLine
 10
242.0
 20
14.0
 30
0.0
 11
242.0
 21
27.0
 31
0.0
  0
LINE
  5
2AC
330
1F
100
AcDbEntity
  8
0
 62
     7
370
    35
100
AcDbLine
 10
262.0
 20
10.0
 30
0.0
 11
262.0
 21
70.0
 31
0.0
  0
LINE
  5
2AD
330
1F
100
AcDbEntity
  8
0
 62
     7
370
    35
100
AcDbLine
 10
267.0
 20
10.0
 30
0.0
 11
267.0
 21
70.0
 31
0.0
  0
LINE
  5
2AE
330
1F
100
AcDbEntity
  8
0
 62
     7
370
    35
100
AcDbLine
 10
119.0
 20
33.5
 30
0.0
 11
140.0
 21
33.5
 31
0.0
  0
LINE
  5
2AF
330
1F
100
AcDbEntity
  8
0
 62
     7
370
    35
100
AcDbLine
 10
134.5
 20
28.0
 30
0.0
 11
134.5
 21
39.0
 31
0.0
  0
LINE
  5
2B0
330
1F
100
AcDbEntity
  8
0
 62
     7
370
    35
100
AcDbLine
 10
120.5
 20
31.5
 30
0.0
 11
120.5
 21
35.5
 31
0.0
  0
LINE
  5
2B1
330
1F
100
AcDbEntity
  8
0
 62
     7
370
    35
100
AcDbLine
 10
120.5
 20
35.5
 30
0.0
 11
128.5
 21
37.5
 31
0.0
  0
LINE
  5
2B2
330
1F
100
AcDbEntity
  8
0
 62
     7
370
    35
100
AcDbLine
 10
128.5
 20
37.5
 30
0.0
 11
128.5
 21
29.5
 31
0.0
  0
LINE
  5
2B3
330
1F
100
AcDbEntity
  8
0
 62
     7
370
    35
100
AcDbLine
 10
128.5
 20
29.5
 30
0.0
 11
120.5
 21
31.5
 31
0.0
  0
CIRCLE
  5
2B4
330
1F
100
AcDbEntity
  8
0
 62
     7
370
    35
100
AcDbCircle
 10
134.5
 20
33.5
 30
0.0
 40
2.0
  0
CIRCLE
  5
2B5
330
1F
100
AcDbEntity
  8
0
 62
     7
370
    35
100
AcDbCircle
 10
134.5
 20
33.5
 30
0.0
 40
4.0
  0
DIMENSION
  5
2B6
102
{ACAD_XDICTIONARY
360
2B7
102
}
330
1F
100
AcDbEntity
  8
0
 62
     0
370
     0
100
AcDbDimension
  2
*D54
 10
58.172043
 20
164.151874
 30
0.0
 11
69.172043
 21
164.151874
 31
0.0
 70
   161
  1
<>{}{%%p0,1}
 71
     5
 42
-1.0
 52
5156.620156
  3
STANDARD
100
AcDbAlignedDimension
 13
80.172043
 23
148.467456
 33
0.0
 14
58.172043
 24
148.467456
 34
0.0
1001
ACAD
1000
DSTYLE
1002
{
1070
    71
1070
     0
1070
    72
1070
     0
1070
    47
1040
0.1
1070
    48
1040
0.1
1002
}
  0
DIMENSION
  5
2B8
102
{ACAD_XDICTIONARY
360
2B9
102
}
330
1F
100
AcDbEntity
  8
0
 62
     0
370
     0
100
AcDbDimension
  2
*D55
 10
45.672043
 20
181.592029
 30
0.0
 11
69.172043
 21
181.592029
 31
0.0
 70
   161
  1
<>{}{%%p0,1}
 71
     5
 42
-1.0
 52
5156.620156
  3
STANDARD
100
AcDbAlignedDimension
 13
92.672043
 23
145.217456
 33
0.0
 14
45.672043
 24
145.217456
 34
0.0
1001
ACAD
1000
DSTYLE
1002
{
1070
    71
1070
     0
1070
    72
1070
     0
1070
    47
1040
0.1
1070
    48
1040
0.1
1002
}
  0
DIMENSION
  5
2BA
102
{ACAD_XDICTIONARY
360
2BB
102
}
330
1F
100
AcDbEntity
  8
0
 62
     0
370
     0
100
AcDbDimension
  2
*D56
 10
58.172043
 20
164.151874
 30
0.0
 11
34.675785
 21
164.151874
 31
0.0
 70
   160
  1
<>{}{%%p0,1}
 71
     5
 42
-1.0
 52
5156.620156
  3
STANDARD
100
AcDbAlignedDimension
 13
45.672043
 23
145.217456
 33
0.0
 14
58.172043
 24
148.467456
 34
0.0
 50
360.0
100
AcDbRotatedDimension
1001
ACAD
1000
DSTYLE
1002
{
1070
    71
1070
     0
1070
    72
1070
     0
1070
    47
1040
0.1
1070
    48
1040
0.1
1002
}
  0
DIMENSION
  5
2BC
102
{ACAD_XDICTIONARY
360
2BD
102
}
330
1F
100
AcDbEntity
  8
0
 62
     0
370
     0
100
AcDbDimension
  2
*D57
 10
80.172043
 20
145.217456
 30
0.0
 11
110.623096
 21
178.158552
 31
0.0
 70
   164
  1
2x<>
 71
     5
 42
-1.0
  3
STANDARD
100
AcDbRadialDimension
 15
88.657145
 25
154.396402
 35
0.0
 40
0.0
  0
DIMENSION
  5
2BE
102
{ACAD_XDICTIONARY
360
2BF
102
}
330
1F
100
AcDbEntity
  8
0
 62
     0
370
     0
100
AcDbDimension
  2
*D58
 10
87.672043
 20
110.167828
 30
0.0
 11
107.160336
 21
92.205019
 31
0.0
 70
   164
  1
2x<>
 71
     5
 42
-1.0
  3
STANDARD
100
AcDbRadialDimension
 15
91.34854
 25
106.779116
 35
0.0
 40
0.0
  0
DIMENSION
  5
2C0
102
{ACAD_XDICTIONARY
360
2C1
102
}
330
1F
100
AcDbEntity
  8
0
 62
     0
370
     0
100
AcDbDimension
  2
*D59
 10
27.987324
 20
157.717456
 30
0.0
 11
27.987324
 21
131.442642
 31
0.0
 70
   160
  1
<>{}{%%p0,1}
 71
     5
 42
-1.0
 52
5156.620156
  3
STANDARD
100
AcDbAlignedDimension
 13
50.672043
 23
105.167828
 33
0.0
 14
58.172043
 24
157.717456
 34
0.0
 50
90.0
100
AcDbRotatedDimension
1001
ACAD
1000
DSTYLE
1002
{
1070
    71
1070
     0
1070
    72
1070
     0
1070
    47
1040
0.1
1070
    48
1040
0.1
1002
}
  0
DIMENSION
  5
2C2
102
{ACAD_XDICTIONARY
360
2C3
102
}
330
1F
100
AcDbEntity
  8
0
 62
     0
370
     0
100
AcDbDimension
  2
*D60
 10
78.035198
 20
146.515106
 30
0.0
 11
108.491263
 21
128.019936
 31
0.0
 70
   163
  1
2x<>
 71
     5
 42
-1.0
  3
STANDARD
100
AcDbDiametricDimension
 15
82.308887
 25
143.919807
 35
0.0
 40
0.0
  0
DIMENSION
  5
2C4
102
{ACAD_XDICTIONARY
360
2C5
102
}
330
1F
100
AcDbEntity
  8
0
 62
     0
370
     0
100
AcDbDimension
  2
*D61
 10
38.760643
 20
145.217456
 30
0.0
 11
38.760643
 21
131.645038
 31
0.0
 70
   160
  1
<>{}{%%p0,1}
 71
     5
 42
-1.0
 52
5156.620156
  3
STANDARD
100
AcDbAlignedDimension
 13
58.172043
 23
157.717456
 33
0.0
 14
54.922043
 24
145.217456
 34
0.0
 50
270.0
100
AcDbRotatedDimension
1001
ACAD
1000
DSTYLE
1002
{
1070
    71
1070
     0
1070
    72
1070
     0
1070
    47
1040
0.1
1070
    48
1040
0.1
1002
}
  0
INSERT
  5
2C6
330
1F
100
AcDbEntity
  8
0
370
     0
100
AcDbBlockReference
  2
BLOCK398
 10
-74.827957
 20
-276.282544
 30
0.0
  0
INSERT
  5
2C7
330
1F
100
AcDbEntity
  8
0
370
     0
100
AcDbBlockReference
  2
BLOCK399
 10
-74.827957
 20
-276.282544
 30
0.0
  0
LINE
  5
2C8
330
1F
100
AcDbEntity
  8
0
  6
DASHDOT
 62
     7
370
    18
100
AcDbLine
 10
52.915794
 20
145.217456
 30
0.0
 11
85.990799
 21
145.217456
 31
0.0
  0
INSERT
  5
2C9
330
1F
100
AcDbEntity
  8
0
370
     0
100
AcDbBlockReference
  2
BLOCK400
 10
-74.827957
 20
-276.282544
 30
0.0
  0
INSERT
  5
2CA
330
1F
100
AcDbEntity
  8
0
370
     0
100
AcDbBlockReference
  2
BLOCK401
 10
-74.827957
 20
-276.282544
 30
0.0
  0
INSERT
  5
2CB
330
1F
100
AcDbEntity
  8
0
370
     0
100
AcDbBlockReference
  2
BLOCK402
 10
-74.827957
 20
-276.282544
 30
0.0
  0
INSERT
  5
2CC
330
1F
100
AcDbEntity
  8
0
370
     0
100
AcDbBlockReference
  2
BLOCK403
 10
-74.827957
 20
-276.282544
 30
0.0
  0
INSERT
  5
2CD
330
1F
100
AcDbEntity
  8
0
370
     0
100
AcDbBlockReference
  2
BLOCK404
 10
-74.827957
 20
-276.282544
 30
0.0
  0
DIMENSION
  5
2CE
102
{ACAD_XDICTIONARY
360
2CF
102
}
330
1F
100
AcDbEntity
  8
0
 62
     0
370
     0
100
AcDbDimension
  2
*D69
 10
154.714264
 20
167.25246
 30
0.0
 11
166.620033
 21
167.25246
 31
0.0
 70
   160
  1
<>{}{%%p0,1}
 71
     5
 42
-1.0
 52
5156.620156
  3
STANDARD
100
AcDbAlignedDimension
 13
144.714264
 23
157.717456
 33
0.0
 14
154.714264
 24
157.717456
 34
0.0
 50
360.0
100
AcDbRotatedDimension
1001
ACAD
1000
DSTYLE
1002
{
1070
    71
1070
     0
1070
    72
1070
     0
1070
    47
1040
0.1
1070
    48
1040
0.1
1002
}
  0
LINE
  5
2D0
330
1F
100
AcDbEntity
  8
0
  6
DASHDOT
 62
     7
 48
0.3
370
    18
100
AcDbLine
 10
143.714263
 20
110.167835
 30
0.0
 11
155.714263
 21
110.167835
 31
0.0
  0
LINE
  5
2D1
330
1F
100
AcDbEntity
  8
0
  6
DASHDOT
 62
     7
 48
0.3
370
    18
100
AcDbLine
 10
143.714263
 20
145.217456
 30
0.0
 11
155.714263
 21
145.217456
 31
0.0
  0
INSERT
  5
2D2
330
1F
100
AcDbEntity
  8
0
370
     0
100
AcDbBlockReference
  2
BLOCK405
 10
223.714263
 20
-276.282544
 30
0.0
  0
INSERT
  5
2D3
330
1F
100
AcDbEntity
  8
0
370
     0
100
AcDbBlockReference
  2
BLOCK406
 10
74.709905
 20
-221.464935
 30
0.0
  0
ENDSEC
  0
SECTION
  2
OBJECTS
  0
DICTIONARY
  5
C
330
0
100
AcDbDictionary
281
     1
  3
ACAD_GROUP
350
D
  3
ACAD_LAYOUT
350
1A
  3
ACAD_MLINESTYLE
350
17
  3
ACAD_PLOTSETTINGS
350
19
  3
ACAD_PLOTSTYLENAME
350
E
  3
ACAD_SCALELIST
350
47
  0
DICTIONARY
  5
2B7
330
2B6
100
AcDbDictionary
280
     1
281
     1
  0
DICTIONARY
  5
2B9
330
2B8
100
AcDbDictionary
280
     1
281
     1
  0
DICTIONARY
  5
2BB
330
2BA
100
AcDbDictionary
280
     1
281
     1
  0
DICTIONARY
  5
2BD
330
2BC
100
AcDbDictionary
280
     1
281
     1
  0
DICTIONARY
  5
2BF
330
2BE
100
AcDbDictionary
280
     1
281
     1
  0
DICTIONARY
  5
2C1
330
2C0
100
AcDbDictionary
280
     1
281
     1
  0
DICTIONARY
  5
2C3
330
2C2
100
AcDbDictionary
280
     1
281
     1
  0
DICTIONARY
  5
2C5
330
2C4
100
AcDbDictionary
280
     1
281
     1
  0
DICTIONARY
  5
2CF
330
2CE
100
AcDbDictionary
280
     1
281
     1
  0
DICTIONARY
  5
D
102
{ACAD_REACTORS
330
C
102
}
330
C
100
AcDbDictionary
281
     1
  0
DICTIONARY
  5
1A
102
{ACAD_REACTORS
330
C
102
}
330
C
100
AcDbDictionary
281
     1
  3
Layout1
350
1E
  3
Layout2
350
26
  3
Model
350
22
  0
DICTIONARY
  5
17
102
{ACAD_REACTORS
330
C
102
}
330
C
100
AcDbDictionary
281
     1
  3
Standard
350
18
  0
DICTIONARY
  5
19
102
{ACAD_REACTORS
330
C
102
}
330
C
100
AcDbDictionary
281
     1
  0
ACDBDICTIONARYWDFLT
  5
E
102
{ACAD_REACTORS
330
C
102
}
330
C
100
AcDbDictionary
281
     1
  3
Normal
350
F
100
AcDbDictionaryWithDefault
340
F
  0
DICTIONARY
  5
47
102
{ACAD_REACTORS
330
C
102
}
330
C
100
AcDbDictionary
281
     1
  3
A0
350
48
  3
A1
350
49
  3
A2
350
4A
  3
A3
350
4B
  3
A4
350
4C
  3
A5
350
4D
  3
A6
350
4E
  3
A7
350
4F
  3
A8
350
50
  3
A9
350
51
  3
B0
350
52
  3
B1
350
53
  3
B2
350
54
  3
B3
350
55
  3
B4
350
56
  3
B5
350
57
  3
B6
350
58
  3
B7
350
59
  3
B8
350
5A
  3
B9
350
5B
  3
C0
350
5C
  3
C1
350
5D
  3
C2
350
5E
  3
C3
350
5F
  3
C4
350
60
  3
C5
350
61
  3
C6
350
62
  3
C7
350
63
  3
C8
350
64
  3
C9
350
65
  3
D0
350
66
  3
D1
350
67
  3
D2
350
68
  0
LAYOUT
  5
1E
102
{ACAD_REACTORS
330
1A
102
}
330
1A
100
AcDbPlotSettings
  1

  2
none_device
  4

  6

 40
0.0
 41
0.0
 42
0.0
 43
0.0
 44
0.0
 45
0.0
 46
0.0
 47
0.0
 48
0.0
 49
0.0
140
0.0
141
0.0
142
1.0
143
1.0
 70
  4784
 72
     0
 73
     0
 74
     5
  7

 75
    16
147
1.0
148
0.0
149
0.0
100
AcDbLayout
  1
Layout1
 70
     1
 71
     1
 10
0.0
 20
0.0
 11
420.0
 21
297.0
 12
0.0
 22
0.0
 32
0.0
 14
0.0
 24
0.0
 34
0.0
 15
293.399994
 25
465.374573
 35
2.0
146
0.0
 13
0.0
 23
0.0
 33
0.0
 16
1.0
 26
0.0
 36
0.0
 17
0.0
 27
1.0
 37
0.0
 76
     0
330
1B
  0
LAYOUT
  5
26
102
{ACAD_REACTORS
330
1A
102
}
330
1A
100
AcDbPlotSettings
  1

  2
none_device
  4

  6

 40
0.0
 41
0.0
 42
0.0
 43
0.0
 44
0.0
 45
0.0
 46
0.0
 47
0.0
 48
0.0
 49
0.0
140
0.0
141
0.0
142
1.0
143
1.0
 70
  4784
 72
     0
 73
     0
 74
     5
  7

 75
    16
147
1.0
148
0.0
149
0.0
100
AcDbLayout
  1
Layout2
 70
     1
 71
     2
 10
0.0
 20
0.0
 11
0.0
 21
0.0
 12
0.0
 22
0.0
 32
0.0
 14
0.0
 24
0.0
 34
0.0
 15
0.0
 25
0.0
 35
0.0
146
0.0
 13
0.0
 23
0.0
 33
0.0
 16
1.0
 26
0.0
 36
0.0
 17
0.0
 27
1.0
 37
0.0
 76
     0
330
23
  0
LAYOUT
  5
22
102
{ACAD_REACTORS
330
1A
102
}
330
1A
100
AcDbPlotSettings
  1

  2
none_device
  4
Letter_(8.50_x_11.00_Inches)
  6

 40
6.35
 41
6.35
 42
6.350005
 43
6.350005
 44
215.9
 45
279.4
 46
0.0
 47
0.0
 48
0.0
 49
0.0
140
0.0
141
0.0
142
1.0
143
1.0
 70
  5808
 72
     0
 73
     0
 74
     0
  7

 75
     0
147
1.0
148
0.0
149
0.0
100
AcDbLayout
  1
Model
 70
     1
 71
     0
 10
0.0
 20
0.0
 11
420.0
 21
297.0
 12
0.0
 22
0.0
 32
0.0
 14
0.0
 24
0.0
 34
0.0
 15
293.399994
 25
465.374573
 35
2.0
146
0.0
 13
0.0
 23
0.0
 33
0.0
 16
1.0
 26
0.0
 36
0.0
 17
0.0
 27
1.0
 37
0.0
 76
     0
330
1F
331
29
  0
MLINESTYLE
  5
18
102
{ACAD_REACTORS
330
17
102
}
330
17
100
AcDbMlineStyle
  2
Standard
 70
     0
  3

 62
   256
 51
90.0
 52
90.0
 71
     2
 49
0.5
 62
   256
  6
BYLAYER
 49
-0.5
 62
   256
  6
BYLAYER
  0
ACDBPLACEHOLDER
  5
F
102
{ACAD_REACTORS
330
E
102
}
330
E
  0
SCALE
  5
48
102
{ACAD_REACTORS
330
47
102
}
330
47
100
AcDbScale
 70
     0
300
1:1
140
1.0
141
1.0
290
     1
  0
SCALE
  5
49
102
{ACAD_REACTORS
330
47
102
}
330
47
100
AcDbScale
 70
     0
300
1:2
140
1.0
141
2.0
290
     0
  0
SCALE
  5
4A
102
{ACAD_REACTORS
330
47
102
}
330
47
100
AcDbScale
 70
     0
300
1:4
140
1.0
141
4.0
290
     0
  0
SCALE
  5
4B
102
{ACAD_REACTORS
330
47
102
}
330
47
100
AcDbScale
 70
     0
300
1:5
140
1.0
141
5.0
290
     0
  0
SCALE
  5
4C
102
{ACAD_REACTORS
330
47
102
}
330
47
100
AcDbScale
 70
     0
300
1:8
140
1.0
141
8.0
290
     0
  0
SCALE
  5
4D
102
{ACAD_REACTORS
330
47
102
}
330
47
100
AcDbScale
 70
     0
300
1:10
140
1.0
141
10.0
290
     0
  0
SCALE
  5
4E
102
{ACAD_REACTORS
330
47
102
}
330
47
100
AcDbScale
 70
     0
300
1:16
140
1.0
141
16.0
290
     0
  0
SCALE
  5
4F
102
{ACAD_REACTORS
330
47
102
}
330
47
100
AcDbScale
 70
     0
300
1:20
140
1.0
141
20.0
290
     0
  0
SCALE
  5
50
102
{ACAD_REACTORS
330
47
102
}
330
47
100
AcDbScale
 70
     0
300
1:30
140
1.0
141
30.0
290
     0
  0
SCALE
  5
51
102
{ACAD_REACTORS
330
47
102
}
330
47
100
AcDbScale
 70
     0
300
1:40
140
1.0
141
40.0
290
     0
  0
SCALE
  5
52
102
{ACAD_REACTORS
330
47
102
}
330
47
100
AcDbScale
 70
     0
300
1:50
140
1.0
141
50.0
290
     0
  0
SCALE
  5
53
102
{ACAD_REACTORS
330
47
102
}
330
47
100
AcDbScale
 70
     0
300
1:100
140
1.0
141
100.0
290
     0
  0
SCALE
  5
54
102
{ACAD_REACTORS
330
47
102
}
330
47
100
AcDbScale
 70
     0
300
2:1
140
2.0
141
1.0
290
     0
  0
SCALE
  5
55
102
{ACAD_REACTORS
330
47
102
}
330
47
100
AcDbScale
 70
     0
300
4:1
140
4.0
141
1.0
290
     0
  0
SCALE
  5
56
102
{ACAD_REACTORS
330
47
102
}
330
47
100
AcDbScale
 70
     0
300
8:1
140
8.0
141
1.0
290
     0
  0
SCALE
  5
57
102
{ACAD_REACTORS
330
47
102
}
330
47
100
AcDbScale
 70
     0
300
10:1
140
10.0
141
1.0
290
     0
  0
SCALE
  5
58
102
{ACAD_REACTORS
330
47
102
}
330
47
100
AcDbScale
 70
     0
300
100:1
140
100.0
141
1.0
290
     0
  0
SCALE
  5
59
102
{ACAD_REACTORS
330
47
102
}
330
47
100
AcDbScale
 70
     0
300
1/128" = 1'-0"
140
0.007812
141
12.0
290
     0
  0
SCALE
  5
5A
102
{ACAD_REACTORS
330
47
102
}
330
47
100
AcDbScale
 70
     0
300
1/64" = 1'-0"
140
0.015625
141
12.0
290
     0
  0
SCALE
  5
5B
102
{ACAD_REACTORS
330
47
102
}
330
47
100
AcDbScale
 70
     0
300
1/32" = 1'-0"
140
0.03125
141
12.0
290
     0
  0
SCALE
  5
5C
102
{ACAD_REACTORS
330
47
102
}
330
47
100
AcDbScale
 70
     0
300
1/16" = 1'-0"
140
0.0625
141
12.0
290
     0
  0
SCALE
  5
5D
102
{ACAD_REACTORS
330
47
102
}
330
47
100
AcDbScale
 70
     0
300
3/32" = 1'-0"
140
0.09375
141
12.0
290
     0
  0
SCALE
  5
5E
102
{ACAD_REACTORS
330
47
102
}
330
47
100
AcDbScale
 70
     0
300
1/8" = 1'-0"
140
0.125
141
12.0
290
     0
  0
SCALE
  5
5F
102
{ACAD_REACTORS
330
47
102
}
330
47
100
AcDbScale
 70
     0
300
3/16" = 1'-0"
140
0.1875
141
12.0
290
     0
  0
SCALE
  5
60
102
{ACAD_REACTORS
330
47
102
}
330
47
100
AcDbScale
 70
     0
300
1/4" = 1'-0"
140
0.25
141
12.0
290
     0
  0
SCALE
  5
61
102
{ACAD_REACTORS
330
47
102
}
330
47
100
AcDbScale
 70
     0
300
3/8" = 1'-0"
140
0.375
141
12.0
290
     0
  0
SCALE
  5
62
102
{ACAD_REACTORS
330
47
102
}
330
47
100
AcDbScale
 70
     0
300
1/2" = 1'-0"
140
0.5
141
12.0
290
     0
  0
SCALE
  5
63
102
{ACAD_REACTORS
330
47
102
}
330
47
100
AcDbScale
 70
     0
300
3/4" = 1'-0"
140
0.75
141
12.0
290
     0
  0
SCALE
  5
64
102
{ACAD_REACTORS
330
47
102
}
330
47
100
AcDbScale
 70
     0
300
1" = 1'-0"
140
1.0
141
12.0
290
     0
  0
SCALE
  5
65
102
{ACAD_REACTORS
330
47
102
}
330
47
100
AcDbScale
 70
     0
300
1-1/2" = 1'-0"
140
1.5
141
12.0
290
     0
  0
SCALE
  5
66
102
{ACAD_REACTORS
330
47
102
}
330
47
100
AcDbScale
 70
     0
300
3" = 1'-0"
140
3.0
141
12.0
290
     0
  0
SCALE
  5
67
102
{ACAD_REACTORS
330
47
102
}
330
47
100
AcDbScale
 70
     0
300
6" = 1'-0"
140
6.0
141
12.0
290
     0
  0
SCALE
  5
68
102
{ACAD_REACTORS
330
47
102
}
330
47
100
AcDbScale
 70
     0
300
1'-0" = 1'-0"
140
12.0
141
12.0
290
     0
  0
ENDSEC
  0
EOF
