  0
SECTION
  2
HEADER
  9
$ACADVER
  1
AC1014
  9
$ACADMAINTVER
 70
     9
  9
$DWGCODEPAGE
  3
ANSI_1252
  9
$INSBASE
 10
0.0
 20
0.0
 30
0.0
  9
$EXTMIN
 10
1.000000000000000E+20
 20
1.000000000000000E+20
 30
1.000000000000000E+20
  9
$EXTMAX
 10
-1.000000000000000E+20
 20
-1.000000000000000E+20
 30
-1.000000000000000E+20
  9
$LIMMIN
 10
0.0
 20
0.0
  9
$LIMMAX
 10
420.0
 20
297.0
  9
$ORTHOMODE
 70
     0
  9
$REGENMODE
 70
     1
  9
$FILLMODE
 70
     1
  9
$QTEXTMODE
 70
     0
  9
$MIRRTEXT
 70
     1
  9
$DRAGMODE
 70
     2
  9
$LTSCALE
 40
12.7
  9
$OSMODE
 70
    23
  9
$ATTMODE
 70
     1
  9
$TEXTSIZE
 40
3.5
  9
$TRACEWID
 40
1.0
  9
$TEXTSTYLE
  7
ONSHAPE-STANDARD
  9
$CLAYER
  8
0
  9
$CELTYPE
  6
BYLAYER
  9
$CECOLOR
 62
   256
  9
$CELTSCALE
 40
1.0
  9
$DELOBJ
 70
     1
  9
$DISPSILH
 70
     0
  9
$DIMSCALE
 40
1.0
  9
$DIMASZ
 40
2.5
  9
$DIMEXO
 40
0.625
  9
$DIMDLI
 40
3.75
  9
$DIMRND
 40
0.0
  9
$DIMDLE
 40
0.0
  9
$DIMEXE
 40
1.25
  9
$DIMTP
 40
0.0
  9
$DIMTM
 40
0.0
  9
$DIMTXT
 40
2.5
  9
$DIMCEN
 40
2.5
  9
$DIMTSZ
 40
0.0
  9
$DIMTOL
 70
     0
  9
$DIMLIM
 70
     0
  9
$DIMTIH
 70
     0
  9
$DIMTOH
 70
     0
  9
$DIMSE1
 70
     0
  9
$DIMSE2
 70
     0
  9
$DIMTAD
 70
     1
  9
$DIMZIN
 70
     8
  9
$DIMBLK
  1

  9
$DIMASO
 70
     1
  9
$DIMSHO
 70
     1
  9
$DIMPOST
  1

  9
$DIMAPOST
  1

  9
$DIMALT
 70
     0
  9
$DIMALTD
 70
     3
  9
$DIMALTF
 40
0.03937
  9
$DIMLFAC
 40
1.0
  9
$DIMTOFL
 70
     1
  9
$DIMTVP
 40
0.0
  9
$DIMTIX
 70
     0
  9
$DIMSOXD
 70
     0
  9
$DIMSAH
 70
     0
  9
$DIMBLK1
  1

  9
$DIMBLK2
  1

  9
$DIMSTYLE
  2
ONSHAPE-ISO-25
  9
$DIMCLRD
 70
     7
  9
$DIMCLRE
 70
     7
  9
$DIMCLRT
 70
     7
  9
$DIMTFAC
 40
1.0
  9
$DIMGAP
 40
0.625
  9
$DIMJUST
 70
     0
  9
$DIMSD1
 70
     0
  9
$DIMSD2
 70
     0
  9
$DIMTOLJ
 70
     0
  9
$DIMTZIN
 70
     8
  9
$DIMALTZ
 70
     8
  9
$DIMALTTZ
 70
     0
  9
$DIMFIT
 70
     3
  9
$DIMUPT
 70
     1
  9
$DIMUNIT
 70
     2
  9
$DIMDEC
 70
     2
  9
$DIMTDEC
 70
     3
  9
$DIMALTU
 70
     2
  9
$DIMALTTD
 70
     3
  9
$DIMTXSTY
  7
ONSHAPE-STANDARD-DIMENSION
  9
$DIMAUNIT
 70
     0
  9
$LUNITS
 70
     2
  9
$LUPREC
 70
     4
  9
$SKETCHINC
 40
1.0
  9
$FILLETRAD
 40
10.0
  9
$AUNITS
 70
     0
  9
$AUPREC
 70
     0
  9
$MENU
  1
.
  9
$ELEVATION
 40
0.0
  9
$PELEVATION
 40
0.0
  9
$THICKNESS
 40
0.0
  9
$LIMCHECK
 70
     0
  9
$CHAMFERA
 40
0.0
  9
$CHAMFERB
 40
0.0
  9
$CHAMFERC
 40
0.0
  9
$CHAMFERD
 40
0.0
  9
$SKPOLY
 70
     0
  9
$TDCREATE
 40
2458999.765219896
  9
$TDUPDATE
 40
2458999.765219896
  9
$TDINDWG
 40
0.0
  9
$TDUSRTIMER
 40
0.0
  9
$USRTIMER
 70
     1
  9
$ANGBASE
 50
0.0
  9
$ANGDIR
 70
     0
  9
$PDMODE
 70
     0
  9
$PDSIZE
 40
0.0
  9
$PLINEWID
 40
0.0
  9
$COORDS
 70
     1
  9
$SPLFRAME
 70
     0
  9
$SPLINETYPE
 70
     6
  9
$SPLINESEGS
 70
     8
  9
$ATTDIA
 70
     0
  9
$ATTREQ
 70
     1
  9
$HANDLING
 70
     1
  9
$HANDSEED
  5
161
  9
$SURFTAB1
 70
     6
  9
$SURFTAB2
 70
     6
  9
$SURFTYPE
 70
     6
  9
$SURFU
 70
     6
  9
$SURFV
 70
     6
  9
$UCSNAME
  2

  9
$UCSORG
 10
0.0
 20
0.0
 30
0.0
  9
$UCSXDIR
 10
1.0
 20
0.0
 30
0.0
  9
$UCSYDIR
 10
0.0
 20
1.0
 30
0.0
  9
$PUCSNAME
  2

  9
$PUCSORG
 10
0.0
 20
0.0
 30
0.0
  9
$PUCSXDIR
 10
1.0
 20
0.0
 30
0.0
  9
$PUCSYDIR
 10
0.0
 20
1.0
 30
0.0
  9
$USERI1
 70
     0
  9
$USERI2
 70
     0
  9
$USERI3
 70
     0
  9
$USERI4
 70
     0
  9
$USERI5
 70
     0
  9
$USERR1
 40
0.0
  9
$USERR2
 40
0.0
  9
$USERR3
 40
0.0
  9
$USERR4
 40
0.0
  9
$USERR5
 40
0.0
  9
$WORLDVIEW
 70
     1
  9
$SHADEDGE
 70
     3
  9
$SHADEDIF
 70
    70
  9
$TILEMODE
 70
     1
  9
$MAXACTVP
 70
    64
  9
$PINSBASE
 10
0.0
 20
0.0
 30
0.0
  9
$PLIMCHECK
 70
     0
  9
$PEXTMIN
 10
1.000000000000000E+20
 20
1.000000000000000E+20
 30
1.000000000000000E+20
  9
$PEXTMAX
 10
-1.000000000000000E+20
 20
-1.000000000000000E+20
 30
-1.000000000000000E+20
  9
$PLIMMIN
 10
0.0
 20
0.0
  9
$PLIMMAX
 10
420.0
 20
297.0
  9
$UNITMODE
 70
     0
  9
$VISRETAIN
 70
     1
  9
$PLINEGEN
 70
     0
  9
$PSLTSCALE
 70
     1
  9
$TREEDEPTH
 70
  3020
  9
$PICKSTYLE
 70
     1
  9
$CMLSTYLE
  2
STANDARD
  9
$CMLJUST
 70
     0
  9
$CMLSCALE
 40
20.0
  9
$PROXYGRAPHICS
 70
     1
  9
$MEASUREMENT
 70
     1
  0
ENDSEC
  0
SECTION
  2
CLASSES
  0
CLASS
  1
ACDBDICTIONARYWDFLT
  2
AcDbDictionaryWithDefault
  3
ObjectDBX Classes
 90
        0
280
     0
281
     0
  0
CLASS
  1
VISUALSTYLE
  2
AcDbVisualStyle
  3
ObjectDBX Classes
 90
     4095
280
     0
281
     0
  0
CLASS
  1
MATERIAL
  2
AcDbMaterial
  3
ObjectDBX Classes
 90
     1153
280
     0
281
     0
  0
CLASS
  1
SCALE
  2
AcDbScale
  3
ObjectDBX Classes
 90
     1153
280
     0
281
     0
  0
CLASS
  1
SUN
  2
AcDbSun
  3
SCENEOE
 90
     1153
280
     0
281
     0
  0
CLASS
  1
TABLESTYLE
  2
AcDbTableStyle
  3
ObjectDBX Classes
 90
     4095
280
     0
281
     0
  0
CLASS
  1
DICTIONARYVAR
  2
AcDbDictionaryVar
  3
ObjectDBX Classes
 90
        0
280
     0
281
     0
  0
CLASS
  1
XRECORD
  2
AcDbXrecord
  3
ObjectDBX Classes
 90
        0
280
     0
281
     0
  0
CLASS
  1
LWPOLYLINE
  2
AcDbPolyline
  3
ObjectDBX Classes
 90
        0
280
     0
281
     1
  0
CLASS
  1
HATCH
  2
AcDbHatch
  3
ObjectDBX Classes
 90
        0
280
     0
281
     1
  0
CLASS
  1
ACDBPLACEHOLDER
  2
AcDbPlaceHolder
  3
ObjectDBX Classes
 90
        0
280
     0
281
     0
  0
CLASS
  1
LAYOUT
  2
AcDbLayout
  3
ObjectDBX Classes
 90
        0
280
     0
281
     0
  0
ENDSEC
  0
SECTION
  2
TABLES
  0
TABLE
  2
VPORT
  5
8
330
0
100
AcDbSymbolTable
 70
     1
  0
VPORT
  5
29
330
8
100
AcDbSymbolTableRecord
100
AcDbViewportTableRecord
  2
*ACTIVE
 70
     0
 10
0.0
 20
0.0
 11
1.0
 21
1.0
 12
448.5429493720247
 22
232.7002251707397
 13
0.0
 23
0.0
 14
10.0
 24
10.0
 15
10.0
 25
10.0
 16
0.0
 26
0.0
 36
1.0
 17
0.0
 27
0.0
 37
0.0
 40
229.7454644482867
 41
1.081441463193043
 42
50.0
 43
0.0
 44
0.0
 50
0.0
 51
0.0
 71
     0
 72
   100
 73
     1
 74
     3
 75
     0
 76
     0
 77
     0
 78
     0
  0
ENDTAB
  0
TABLE
  2
LTYPE
  5
5
330
0
100
AcDbSymbolTable
 70
     1
  0
LTYPE
  5
14
330
5
100
AcDbSymbolTableRecord
100
AcDbLinetypeTableRecord
  2
BYBLOCK
 70
     0
  3

 72
    65
 73
     0
 40
0.0
  0
LTYPE
  5
15
330
5
100
AcDbSymbolTableRecord
100
AcDbLinetypeTableRecord
  2
BYLAYER
 70
     0
  3

 72
    65
 73
     0
 40
0.0
  0
LTYPE
  5
16
330
5
100
AcDbSymbolTableRecord
100
AcDbLinetypeTableRecord
  2
CONTINUOUS
 70
     0
  3
Solid line
 72
    65
 73
     0
 40
0.0
  0
ENDTAB
  0
TABLE
  2
LAYER
  5
2
330
0
100
AcDbSymbolTable
 70
     4
  0
LAYER
  5
10
330
2
100
AcDbSymbolTableRecord
100
AcDbLayerTableRecord
  2
0
 70
     0
 62
     7
  6
CONTINUOUS
  0
LAYER
  5
6E
330
2
100
AcDbSymbolTableRecord
100
AcDbLayerTableRecord
  2
DEFPOINTS
 70
     0
 62
     7
  6
CONTINUOUS
  0
LAYER
  5
75
330
2
100
AcDbSymbolTableRecord
100
AcDbLayerTableRecord
  2
ANNOTATION_TEXT
 70
     0
 62
     7
  6
CONTINUOUS
  0
LAYER
  5
78
330
2
100
AcDbSymbolTableRecord
100
AcDbLayerTableRecord
  2
VISIBLE
 70
     0
 62
     7
  6
CONTINUOUS
  0
ENDTAB
  0
TABLE
  2
STYLE
  5
3
330
0
100
AcDbSymbolTable
 70
    27
  0
STYLE
  5
11
330
3
100
AcDbSymbolTableRecord
100
AcDbTextStyleTableRecord
  2
STANDARD
 70
     0
 40
0.0
 41
1.0
 50
0.0
 71
     0
 42
3.5
  3
txt
  4

  0
STYLE
  5
6F
330
3
100
AcDbSymbolTableRecord
100
AcDbTextStyleTableRecord
  2
ONSHAPE-STANDARD
 70
     0
 40
0.0
 41
1.0
 50
0.0
 71
     0
 42
3.5
  3
NotoSans-Regular.ttf
  4

1001
ACAD
1000
Noto Sans
1071
        0
  0
STYLE
  5
71
330
3
100
AcDbSymbolTableRecord
100
AcDbTextStyleTableRecord
  2
ONSHAPE-STANDARD-DIMENSION
 70
     0
 40
0.0
 41
1.0
 50
0.0
 71
     0
 42
3.5
  3

  4

1001
ACAD
1000
Noto Sans
1071
        0
  0
STYLE
  5
77
330
3
100
AcDbSymbolTableRecord
100
AcDbTextStyleTableRecord
  2
ONSHAPE-STANDARD-VIEW-LABE
 70
     0
 40
2.5
 41
1.0
 50
0.0
 71
     0
 42
3.5
  3
Noto Sans
  4

1001
ACAD
1000
Noto Sans
1071
        0
  0
STYLE
  5
F1
330
3
100
AcDbSymbolTableRecord
100
AcDbTextStyleTableRecord
  2
ONSHAPE-STANDARD-BOLD
 70
     0
 40
0.0
 41
1.0
 50
0.0
 71
     0
 42
3.5
  3
NotoSans-Bold.ttf
  4

1001
ACAD
1000
Noto Sans
1071
 33554432
  0
STYLE
  5
F2
330
3
100
AcDbSymbolTableRecord
100
AcDbTextStyleTableRecord
  2
ONSHAPE-STANDARD-FIELDS
 70
     0
 40
0.0
 41
1.0
 50
0.0
 71
     0
 42
3.5
  3

  4

1001
ACAD
1000
Noto Sans
1071
        0
  0
STYLE
  5
F3
330
3
100
AcDbSymbolTableRecord
100
AcDbTextStyleTableRecord
  2
ONSHAPE-STANDARD-TCFIELDS
 70
     0
 40
0.0
 41
1.0
 50
0.0
 71
     0
 42
3.5
  3
NotoSansTC-Regular.otf
  4

1001
ACAD
1000
Noto Sans TC
1071
        0
  0
STYLE
  5
F4
330
3
100
AcDbSymbolTableRecord
100
AcDbTextStyleTableRecord
  2
ONSHAPE-STANDARD-SCFIELDS
 70
     0
 40
0.0
 41
1.0
 50
0.0
 71
     0
 42
3.5
  3
NotoSansSC-Regular.otf
  4

1001
ACAD
1000
Noto Sans SC
1071
        0
  0
STYLE
  5
F5
330
3
100
AcDbSymbolTableRecord
100
AcDbTextStyleTableRecord
  2
ONSHAPE-STANDARD-KOREANFIE
 70
     0
 40
0.0
 41
1.0
 50
0.0
 71
     0
 42
3.5
  3
NotoSansKR-Regular.otf
  4

1001
ACAD
1000
Noto Sans KR
1071
        0
  0
STYLE
  5
F7
330
3
100
AcDbSymbolTableRecord
100
AcDbTextStyleTableRecord
  2
TTFSTYLE
 70
     0
 40
0.0
 41
1.0
 50
0.0
 71
     0
 42
3.5
  3
Verdana.ttf
  4

1001
ACAD
1000
Verdana
1071
       34
  0
STYLE
  5
F8
330
3
100
AcDbSymbolTableRecord
100
AcDbTextStyleTableRecord
  2
ONSHAPE-STANDARD-GTOLERANC
 70
     0
 40
2.5
 41
1.0
 50
0.0
 71
     0
 42
3.5
  3

  4

1001
ACAD
1000
Noto Sans
1071
        0
  0
STYLE
  5
F9
330
3
100
AcDbSymbolTableRecord
100
AcDbTextStyleTableRecord
  2
ONSHAPE-STANDARD-TABLE-DAT
 70
     0
 40
0.0
 41
1.0
 50
0.0
 71
     0
 42
3.5
  3
Noto Sans
  4

1001
ACAD
1000
Noto Sans
1071
        0
  0
STYLE
  5
FA
330
3
100
AcDbSymbolTableRecord
100
AcDbTextStyleTableRecord
  2
ONSHAPE-STANDARD-TABLE-TIT
 70
     0
 40
0.0
 41
1.0
 50
0.0
 71
     0
 42
3.5
  3
Noto Sans
  4

1001
ACAD
1000
Noto Sans
1071
 33554432
  0
STYLE
  5
FB
330
3
100
AcDbSymbolTableRecord
100
AcDbTextStyleTableRecord
  2
ONSHAPE-STANDARD-TABLE-HEA
 70
     0
 40
0.0
 41
1.0
 50
0.0
 71
     0
 42
3.5
  3
Noto Sans
  4

1001
ACAD
1000
Noto Sans
1071
 33554432
  0
STYLE
  5
FC
330
3
100
AcDbSymbolTableRecord
100
AcDbTextStyleTableRecord
  2
ONSHAPE-STANDARD-BOMTABLE-
 70
     0
 40
0.0
 41
1.0
 50
0.0
 71
     0
 42
3.5
  3
Noto Sans
  4

1001
ACAD
1000
Noto Sans
1071
        0
  0
STYLE
  5
FD
330
3
100
AcDbSymbolTableRecord
100
AcDbTextStyleTableRecord
  2
ONSHAPE-STANDARD-BOMTABLE0
 70
     0
 40
0.0
 41
1.0
 50
0.0
 71
     0
 42
3.5
  3
Noto Sans
  4

1001
ACAD
1000
Noto Sans
1071
 33554432
  0
STYLE
  5
FE
330
3
100
AcDbSymbolTableRecord
100
AcDbTextStyleTableRecord
  2
ONSHAPE-STANDARD-BOMTABLE1
 70
     0
 40
0.0
 41
1.0
 50
0.0
 71
     0
 42
3.5
  3
Noto Sans
  4

1001
ACAD
1000
Noto Sans
1071
 33554432
  0
STYLE
  5
FF
330
3
100
AcDbSymbolTableRecord
100
AcDbTextStyleTableRecord
  2
ONSHAPE-STANDARD-NOTESTYLE
 70
     0
 40
2.5
 41
1.0
 50
0.0
 71
     0
 42
3.5
  3
Noto Sans
  4

1001
ACAD
1000
Noto Sans
1071
        0
  0
STYLE
  5
101
330
3
100
AcDbSymbolTableRecord
100
AcDbTextStyleTableRecord
  2
ONSHAPE-STANDARD-HOLE-CALL
 70
     0
 40
2.5
 41
1.0
 50
0.0
 71
     0
 42
3.5
  3
Noto Sans
  4

1001
ACAD
1000
Noto Sans
1071
        0
  0
STYLE
  5
102
330
3
100
AcDbSymbolTableRecord
100
AcDbTextStyleTableRecord
  2
ONSHAPE-STANDARD-HOLETABLE
 70
     0
 40
0.0
 41
1.0
 50
0.0
 71
     0
 42
3.5
  3
Noto Sans
  4

1001
ACAD
1000
Noto Sans
1071
        0
  0
STYLE
  5
103
330
3
100
AcDbSymbolTableRecord
100
AcDbTextStyleTableRecord
  2
ONSHAPE-STANDARD-HOLETABL0
 70
     0
 40
0.0
 41
1.0
 50
0.0
 71
     0
 42
3.5
  3
Noto Sans
  4

1001
ACAD
1000
Noto Sans
1071
 33554432
  0
STYLE
  5
104
330
3
100
AcDbSymbolTableRecord
100
AcDbTextStyleTableRecord
  2
ONSHAPE-STANDARD-HOLETABL1
 70
     0
 40
0.0
 41
1.0
 50
0.0
 71
     0
 42
3.5
  3
Noto Sans
  4

1001
ACAD
1000
Noto Sans
1071
 33554432
  0
STYLE
  5
105
330
3
100
AcDbSymbolTableRecord
100
AcDbTextStyleTableRecord
  2
ONSHAPE-STANDARD-HOLE-TAG
 70
     0
 40
2.0
 41
1.0
 50
0.0
 71
     0
 42
3.5
  3
Noto Sans
  4

1001
ACAD
1000
Noto Sans
1071
        0
  0
STYLE
  5
106
330
3
100
AcDbSymbolTableRecord
100
AcDbTextStyleTableRecord
  2
ONSHAPE-STANDARD-REVISIONT
 70
     0
 40
0.0
 41
1.0
 50
0.0
 71
     0
 42
3.5
  3
Noto Sans
  4

1001
ACAD
1000
Noto Sans
1071
        0
  0
STYLE
  5
107
330
3
100
AcDbSymbolTableRecord
100
AcDbTextStyleTableRecord
  2
ONSHAPE-STANDARD-REVISION0
 70
     0
 40
0.0
 41
1.0
 50
0.0
 71
     0
 42
3.5
  3
Noto Sans
  4

1001
ACAD
1000
Noto Sans
1071
 33554432
  0
STYLE
  5
108
330
3
100
AcDbSymbolTableRecord
100
AcDbTextStyleTableRecord
  2
ONSHAPE-STANDARD-REVISION1
 70
     0
 40
0.0
 41
1.0
 50
0.0
 71
     0
 42
3.5
  3
Noto Sans
  4

1001
ACAD
1000
Noto Sans
1071
 33554432
  0
STYLE
  5
109
330
3
100
AcDbSymbolTableRecord
100
AcDbTextStyleTableRecord
  2
ONSHAPE-STANDARD-REVISION-
 70
     0
 40
2.0
 41
1.0
 50
0.0
 71
     0
 42
3.5
  3
Noto Sans
  4

1001
ACAD
1000
Noto Sans
1071
        0
  0
ENDTAB
  0
TABLE
  2
VIEW
  5
6
330
0
100
AcDbSymbolTable
 70
     0
  0
ENDTAB
  0
TABLE
  2
UCS
  5
7
330
0
100
AcDbSymbolTable
 70
     0
  0
ENDTAB
  0
TABLE
  2
APPID
  5
9
330
0
100
AcDbSymbolTable
 70
     1
  0
APPID
  5
12
330
9
100
AcDbSymbolTableRecord
100
AcDbRegAppTableRecord
  2
ACAD
 70
     0
  0
ENDTAB
  0
TABLE
  2
DIMSTYLE
  5
A
330
0
100
AcDbSymbolTable
 70
    18
  0
DIMSTYLE
105
27
330
A
100
AcDbSymbolTableRecord
100
AcDbDimStyleTableRecord
  2
ISO-25
 70
     0
  3

  4

  5

  6

  7

 40
1.0
 41
2.5
 42
0.625
 43
3.75
 44
1.25
 45
0.0
 46
0.0
 47
0.0
 48
0.0
140
2.5
141
2.5
142
0.0
143
0.03937007874016
144
1.0
145
0.0
146
1.0
147
0.625
 71
     0
 72
     0
 73
     0
 74
     0
 75
     0
 76
     0
 77
     1
 78
     8
170
     0
171
     3
172
     1
173
     0
174
     0
175
     0
176
     0
177
     0
178
     0
270
     2
271
     2
272
     2
273
     2
274
     3
340
11
275
     0
280
     0
281
     0
282
     0
283
     0
284
     8
285
     0
286
     0
287
     3
288
     0
  0
DIMSTYLE
105
70
330
A
100
AcDbSymbolTableRecord
100
AcDbDimStyleTableRecord
  2
ONSHAPE-ISO-25
 70
     0
  3

  4

  5

  6

  7

 40
1.0
 41
2.5
 42
0.625
 43
3.75
 44
1.25
 45
0.0
 46
0.0
 47
0.0
 48
0.0
140
2.5
141
2.5
142
0.0
143
0.03937
144
1.0
145
0.0
146
1.0
147
0.625
 71
     0
 72
     0
 73
     0
 74
     0
 75
     0
 76
     0
 77
     1
 78
     8
170
     0
171
     3
172
     1
173
     0
174
     0
175
     0
176
     7
177
     7
178
     7
179
     1
270
     2
271
     2
272
     3
273
     2
274
     3
340
71
275
     0
280
     0
281
     0
282
     0
283
     0
284
     8
285
     8
286
     0
287
     3
288
     1
  0
DIMSTYLE
105
10C
330
A
100
AcDbSymbolTableRecord
100
AcDbDimStyleTableRecord
  2
ISO
 70
     0
  3

  4
"
  5

  6

  7

 40
1.0
 41
3.5
 42
1.0
 43
10.0
 44
1.0
 45
0.0
 46
0.0
 47
0.1
 48
0.1
140
2.5
141
0.0
142
0.0
143
0.03937
144
1.0
145
0.0
146
0.71
147
1.5
 71
     0
 72
     0
 73
     0
 74
     0
 75
     0
 76
     0
 77
     1
 78
     8
170
     0
171
     3
172
     1
173
     0
174
     0
175
     0
176
     7
177
     7
178
     7
270
     2
271
     2
272
     3
273
     2
274
     3
340
11
275
     0
280
     0
281
     0
282
     0
283
     0
284
     8
285
     8
286
     0
287
     3
288
     1
  0
DIMSTYLE
105
10D
330
A
100
AcDbSymbolTableRecord
100
AcDbDimStyleTableRecord
  2
ISO$3
 70
     0
  3

  4
"
  5

  6

  7

 40
1.0
 41
3.5
 42
1.0
 43
10.0
 44
1.0
 45
0.0
 46
0.0
 47
0.1
 48
0.1
140
2.5
141
0.0
142
0.0
143
0.03937
144
1.0
145
0.0
146
0.71
147
1.5
 71
     0
 72
     0
 73
     0
 74
     0
 75
     0
 76
     0
 77
     1
 78
     8
170
     0
171
     3
172
     0
173
     0
174
     0
175
     0
176
     7
177
     7
178
     7
270
     2
271
     2
272
     3
273
     2
274
     3
340
11
275
     0
280
     0
281
     0
282
     0
283
     0
284
     8
285
     8
286
     0
288
     1
  0
DIMSTYLE
105
10E
330
A
100
AcDbSymbolTableRecord
100
AcDbDimStyleTableRecord
  2
ISO$4
 70
     0
  3

  4
"
  5

  6

  7

 40
1.0
 41
3.5
 42
1.0
 43
10.0
 44
1.0
 45
0.0
 46
0.0
 47
0.1
 48
0.1
140
2.5
141
0.0
142
0.0
143
0.03937
144
1.0
145
0.0
146
0.71
147
1.5
 71
     0
 72
     0
 73
     0
 74
     0
 75
     0
 76
     0
 77
     1
 78
     8
170
     0
171
     3
172
     1
173
     0
174
     0
175
     0
176
     7
177
     7
178
     7
270
     2
271
     2
272
     3
273
     2
274
     3
340
11
275
     0
280
     0
281
     0
282
     0
283
     0
284
     8
285
     8
286
     0
287
     3
288
     1
  0
DIMSTYLE
105
10F
330
A
100
AcDbSymbolTableRecord
100
AcDbDimStyleTableRecord
  2
ISO$6
 70
     0
  3

  4
"
  5

  6

  7

 40
1.0
 41
0.5
 42
1.0
 43
10.0
 44
1.0
 45
0.0
 46
0.0
 47
0.1
 48
0.1
140
2.5
141
0.0
142
0.0
143
0.03937
144
1.0
145
0.0
146
0.71
147
1.5
 71
     0
 72
     0
 73
     0
 74
     0
 75
     0
 76
     0
 77
     0
 78
     8
170
     0
171
     3
172
     1
173
     0
174
     0
175
     0
176
     7
177
     7
178
     7
270
     2
271
     2
272
     3
273
     2
274
     3
340
11
275
     0
280
     0
281
     0
282
     0
283
     0
284
     8
285
     8
286
     0
287
     3
288
     1
  0
DIMSTYLE
105
110
330
A
100
AcDbSymbolTableRecord
100
AcDbDimStyleTableRecord
  2
ISO$7
 70
     0
  3

  4
"
  5

  6

  7

 40
1.0
 41
3.5
 42
1.0
 43
10.0
 44
1.0
 45
0.0
 46
0.0
 47
0.1
 48
0.1
140
2.5
141
0.0
142
0.0
143
0.03937
144
1.0
145
0.0
146
0.71
147
1.5
 71
     0
 72
     0
 73
     0
 74
     0
 75
     0
 76
     0
 77
     1
 78
     8
170
     0
171
     3
172
     1
173
     0
174
     0
175
     0
176
     7
177
     7
178
     7
270
     2
271
     2
272
     3
273
     2
274
     3
340
11
275
     0
280
     0
281
     0
282
     0
283
     0
284
     8
285
     8
286
     0
287
     3
288
     1
  0
DIMSTYLE
105
111
330
A
100
AcDbSymbolTableRecord
100
AcDbDimStyleTableRecord
  2
ISO$SF
 70
     0
  3

  4
"
  5

  6

  7

 40
1.0
 41
3.5
 42
1.0
 43
10.0
 44
1.0
 45
0.0
 46
0.0
 47
0.1
 48
0.1
140
2.5
141
0.0
142
0.0
143
0.03937
144
1.0
145
0.0
146
0.71
147
1.5
 71
     0
 72
     0
 73
     0
 74
     0
 75
     1
 76
     1
 77
     1
 78
     8
170
     0
171
     3
172
     1
173
     0
174
     0
175
     0
176
     7
177
     7
178
     7
270
     2
271
     2
272
     3
273
     2
274
     3
340
11
275
     0
280
     0
281
     0
282
     0
283
     0
284
     8
285
     8
286
     0
287
     3
288
     1
  0
DIMSTYLE
105
112
330
A
100
AcDbSymbolTableRecord
100
AcDbDimStyleTableRecord
  2
ISO$SH
 70
     0
  3

  4
"
  5

  6

  7

 40
1.0
 41
3.5
 42
1.0
 43
10.0
 44
1.0
 45
0.0
 46
0.0
 47
0.1
 48
0.1
140
2.5
141
0.0
142
0.0
143
0.03937
144
1.0
145
0.0
146
0.71
147
1.5
 71
     0
 72
     0
 73
     0
 74
     0
 75
     1
 76
     1
 77
     1
 78
     8
170
     0
171
     3
172
     1
173
     0
174
     0
175
     0
176
     7
177
     7
178
     7
270
     2
271
     2
272
     3
273
     2
274
     3
340
11
275
     0
280
     0
281
     0
282
     0
283
     0
284
     8
285
     8
286
     0
287
     3
288
     1
  0
DIMSTYLE
105
115
330
A
100
AcDbSymbolTableRecord
100
AcDbDimStyleTableRecord
  2
ONSHAPE-ISO-25$0
 70
     0
  3

  4

  5

  6

  7

 40
1.0
 41
2.5
 42
0.625
 43
3.75
 44
1.25
 45
0.0
 46
0.0
 47
0.0
 48
0.0
140
2.5
141
2.5
142
0.0
143
0.03937
144
1.0
145
0.0
146
1.0
147
0.625
 71
     0
 72
     0
 73
     0
 74
     0
 75
     0
 76
     0
 77
     1
 78
     8
170
     0
171
     3
172
     1
173
     0
174
     0
175
     0
176
     7
177
     7
178
     7
179
     1
270
     2
271
     2
272
     3
273
     2
274
     3
340
71
275
     0
280
     0
281
     0
282
     0
283
     0
284
     8
285
     8
286
     0
287
     3
288
     1
  0
DIMSTYLE
105
116
330
A
100
AcDbSymbolTableRecord
100
AcDbDimStyleTableRecord
  2
ONSHAPE-ISO-25$2
 70
     0
  3

  4

  5

  6

  7

 40
1.0
 41
2.5
 42
0.625
 43
3.75
 44
1.25
 45
0.0
 46
0.0
 47
0.0
 48
0.0
140
2.5
141
2.5
142
0.0
143
0.03937
144
1.0
145
0.0
146
1.0
147
0.625
 71
     0
 72
     0
 73
     0
 74
     0
 75
     0
 76
     0
 77
     1
 78
     8
170
     0
171
     3
172
     1
173
     0
174
     0
175
     0
176
     7
177
     7
178
     7
179
     1
270
     2
271
     2
272
     3
273
     2
274
     3
340
71
275
     0
280
     0
281
     0
282
     0
283
     0
284
     8
285
     8
286
     0
287
     3
288
     1
  0
DIMSTYLE
105
117
330
A
100
AcDbSymbolTableRecord
100
AcDbDimStyleTableRecord
  2
ONSHAPE-ISO-25$3
 70
     0
  3

  4

  5

  6

  7

 40
1.0
 41
2.5
 42
0.625
 43
3.75
 44
1.25
 45
0.0
 46
0.0
 47
0.0
 48
0.0
140
2.5
141
0.0
142
0.0
143
0.03937
144
1.0
145
0.0
146
1.0
147
0.625
 71
     0
 72
     0
 73
     0
 74
     0
 75
     0
 76
     0
 77
     1
 78
     8
170
     0
171
     3
172
     1
173
     0
174
     0
175
     0
176
     7
177
     7
178
     7
179
     1
270
     2
271
     2
272
     3
273
     2
274
     3
340
71
275
     0
280
     0
281
     0
282
     0
283
     0
284
     8
285
     8
286
     0
287
     3
288
     1
  0
DIMSTYLE
105
118
330
A
100
AcDbSymbolTableRecord
100
AcDbDimStyleTableRecord
  2
ONSHAPE-ISO-25$4
 70
     0
  3

  4

  5

  6

  7

 40
1.0
 41
2.5
 42
0.625
 43
3.75
 44
1.25
 45
0.0
 46
0.0
 47
0.0
 48
0.0
140
2.5
141
0.0
142
0.0
143
0.03937
144
1.0
145
0.0
146
1.0
147
0.625
 71
     0
 72
     0
 73
     0
 74
     0
 75
     0
 76
     0
 77
     1
 78
     8
170
     0
171
     3
172
     1
173
     0
174
     0
175
     0
176
     7
177
     7
178
     7
179
     1
270
     2
271
     2
272
     3
273
     2
274
     3
340
71
275
     0
280
     0
281
     0
282
     0
283
     0
284
     8
285
     8
286
     0
287
     3
288
     1
  0
DIMSTYLE
105
119
330
A
100
AcDbSymbolTableRecord
100
AcDbDimStyleTableRecord
  2
ONSHAPE-ISO-25$6
 70
     0
  3

  4

  5

  6

  7

 40
1.0
 41
0.5
 42
0.625
 43
3.75
 44
1.25
 45
0.0
 46
0.0
 47
0.0
 48
0.0
140
2.5
141
2.5
142
0.0
143
0.03937
144
1.0
145
0.0
146
1.0
147
0.625
 71
     0
 72
     0
 73
     0
 74
     0
 75
     0
 76
     0
 77
     1
 78
     8
170
     0
171
     3
172
     1
173
     0
174
     0
175
     0
176
     7
177
     7
178
     7
179
     1
270
     2
271
     2
272
     3
273
     2
274
     3
340
71
275
     0
280
     0
281
     0
282
     0
283
     0
284
     8
285
     8
286
     0
287
     3
288
     1
  0
DIMSTYLE
105
11A
330
A
100
AcDbSymbolTableRecord
100
AcDbDimStyleTableRecord
  2
ONSHAPE-ISO-25$7
 70
     0
  3

  4

  5

  6

  7

 40
1.0
 41
2.5
 42
0.625
 43
3.75
 44
1.25
 45
0.0
 46
0.0
 47
0.0
 48
0.0
140
2.5
141
2.5
142
0.0
143
0.03937
144
1.0
145
0.0
146
1.0
147
0.625
 71
     0
 72
     0
 73
     0
 74
     0
 75
     0
 76
     0
 77
     1
 78
     8
170
     0
171
     3
172
     1
173
     0
174
     0
175
     0
176
     7
177
     7
178
     7
179
     1
270
     2
271
     2
272
     3
273
     2
274
     3
340
71
275
     0
280
     0
281
     0
282
     0
283
     0
284
     8
285
     8
286
     0
287
     3
288
     1
  0
DIMSTYLE
105
11B
330
A
100
AcDbSymbolTableRecord
100
AcDbDimStyleTableRecord
  2
ONSHAPE-STANDARD-GTOLERANC
 70
     0
  3

  4

  5

  6

  7

 40
1.0
 41
2.5
 42
0.625
 43
3.75
 44
1.25
 45
0.0
 46
0.0
 47
0.0
 48
0.0
140
2.5
141
2.5
142
0.0
143
0.03937
144
1.0
145
0.0
146
1.0
147
0.625
 71
     0
 72
     0
 73
     0
 74
     0
 75
     0
 76
     0
 77
     1
 78
     8
170
     0
171
     3
172
     1
173
     0
174
     0
175
     0
176
     7
177
     7
178
     7
179
     1
270
     2
271
     2
272
     3
273
     2
274
     3
340
F8
275
     0
280
     0
281
     0
282
     0
283
     0
284
     8
285
     8
286
     0
287
     3
288
     1
  0
DIMSTYLE
105
11D
330
A
100
AcDbSymbolTableRecord
100
AcDbDimStyleTableRecord
  2
ONSHAPE-ORDINATESTYLE
 70
     0
  3

  4

  5

  6

  7

 40
1.0
 41
2.5
 42
0.625
 43
3.75
 44
1.25
 45
0.0
 46
0.0
 47
0.0
 48
0.0
140
2.5
141
2.5
142
0.0
143
0.03937
144
1.0
145
0.0
146
1.0
147
0.625
 71
     0
 72
     0
 73
     0
 74
     0
 75
     0
 76
     0
 77
     1
 78
     8
170
     0
171
     3
172
     1
173
     0
174
     0
175
     0
176
     7
177
     7
178
     7
179
     1
270
     2
271
     2
272
     3
273
     2
274
     3
340
71
275
     0
280
     0
281
     0
282
     0
283
     0
284
     8
285
     8
286
     0
287
     3
288
     1
  0
DIMSTYLE
105
11E
330
A
100
AcDbSymbolTableRecord
100
AcDbDimStyleTableRecord
  2
ONSHAPE-CHAMFERDIMSTYLE
 70
     0
  3

  4

  5

  6

  7

 40
1.0
 41
2.5
 42
0.625
 43
3.75
 44
1.25
 45
0.0
 46
0.0
 47
0.0
 48
0.0
140
2.5
141
2.5
142
0.0
143
0.03937
144
1.0
145
0.0
146
1.0
147
0.625
 71
     0
 72
     0
 73
     0
 74
     0
 75
     0
 76
     0
 77
     1
 78
     8
170
     0
171
     3
172
     1
173
     0
174
     0
175
     0
176
     7
177
     7
178
     7
179
     1
270
     2
271
     2
272
     3
273
     2
274
     3
340
71
275
     0
280
     0
281
     0
282
     0
283
     0
284
     8
285
     8
286
     0
287
     3
288
     1
  0
ENDTAB
  0
TABLE
  2
BLOCK_RECORD
  5
1
330
0
100
AcDbSymbolTable
 70
     1
  0
BLOCK_RECORD
  5
1F
330
1
100
AcDbSymbolTableRecord
100
AcDbBlockTableRecord
  2
*MODEL_SPACE
  0
BLOCK_RECORD
  5
1B
330
1
100
AcDbSymbolTableRecord
100
AcDbBlockTableRecord
  2
*PAPER_SPACE
  0
ENDTAB
  0
ENDSEC
  0
SECTION
  2
BLOCKS
  0
BLOCK
  5
20
330
1F
100
AcDbEntity
  8
0
100
AcDbBlockBegin
  2
*MODEL_SPACE
 70
     0
 10
0.0
 20
0.0
 30
0.0
  3
*MODEL_SPACE
  1

  0
ENDBLK
  5
21
330
1F
100
AcDbEntity
  8
0
100
AcDbBlockEnd
  0
BLOCK
  5
1C
330
1B
100
AcDbEntity
 67
     1
  8
0
100
AcDbBlockBegin
  2
*PAPER_SPACE
 70
     0
 10
0.0
 20
0.0
 30
0.0
  3
*PAPER_SPACE
  1

  0
ENDBLK
  5
1D
330
1B
100
AcDbEntity
 67
     1
  8
0
100
AcDbBlockEnd
  0
ENDSEC
  0
SECTION
  2
ENTITIES
  0
MTEXT
  5
72
102
{ACAD_XDICTIONARY
360
73
102
}
330
1F
100
AcDbEntity
  8
ANNOTATION_TEXT
 62
     7
 60
     1
100
AcDbMText
 10
448.5429493720247
 20
106.6506704786913
 30
0.0
 40
2.5
 41
0.0
 71
     2
 72
     1
  1

  7
ONSHAPE-STANDARD-VIEW-LABE
1001
ACAD
1000
ACAD_MTEXT_DEFINED_HEIGHT_BEGIN
1070
    46
1040
2.5
1000
ACAD_MTEXT_DEFINED_HEIGHT_END
  0
CIRCLE
  5
7A
330
1F
100
AcDbEntity
  8
VISIBLE
100
AcDbCircle
 10
414.3224134446569
 20
208.374029269846
 30
0.0
 40
3.2
  0
CIRCLE
  5
7B
330
1F
100
AcDbEntity
  8
VISIBLE
100
AcDbCircle
 10
384.8417014133482
 20
229.0352881407124
 30
0.0
 40
3.2
  0
ARC
  5
7C
330
1F
100
AcDbEntity
  8
VISIBLE
100
AcDbCircle
 10
383.1892990727347
 20
260.6126230256116
 30
-0.0000000000000001
 40
10.0
100
AcDbArc
 50
291.3634958967671
 51
354.975695935444
  0
LINE
  5
7D
330
1F
100
AcDbEntity
  8
VISIBLE
100
AcDbLine
 10
393.1508754550133
 20
259.7368399587471
 30
0.0
 11
395.97213310694
 21
291.8271767758677
 31
0.0
  0
SPLINE
  5
7E
330
1F
100
AcDbEntity
  8
VISIBLE
100
AcDbSpline
210
0.0
220
0.0
230
1.0
 70
     8
 71
     3
 72
    20
 73
    16
 74
     0
 42
0.000000001
 43
0.0000000390349301
 40
-3.65986233990932
 40
-3.65986233990932
 40
-3.65986233990932
 40
-3.65986233990932
 40
-3.13702486277942
 40
-3.13702486277942
 40
-3.13702486277942
 40
-2.61418738564951
 40
-2.61418738564951
 40
-2.61418738564951
 40
-1.56851243138971
 40
-1.56851243138971
 40
-1.56851243138971
 40
-0.522837477129903
 40
-0.522837477129903
 40
-0.522837477129903
 40
0.0
 40
0.0
 40
0.0
 40
0.0
 10
395.9721331069321
 20
291.8271767758794
 30
0.0
 10
396.124342962366
 20
293.5584846287527
 30
0.0
 10
395.9683525257483
 20
295.3132155685504
 30
0.0
 10
395.5226924926841
 20
296.9934577380509
 30
0.0
 10
395.07703245962
 20
298.6736999075515
 30
0.0
 10
394.3417028301094
 20
300.279453306755
 30
0.0
 10
393.3492998017869
 20
301.7055685283464
 30
0.0
 10
391.3644937451418
 20
304.5577989715289
 30
0.0
 10
388.3513940932492
 20
306.6914767042621
 30
0.0
 10
385.0046536814815
 20
307.6110337043833
 30
0.0
 10
381.6579132697138
 20
308.5305907045044
 30
0.0
 10
377.9775320980712
 20
308.2360269720137
 30
0.0
 10
374.813849971091
 20
306.7988867077582
 30
0.0
 10
373.2320089076011
 20
306.0803165756306
 30
0.0
 10
371.7793426052767
 20
305.0761023105617
 30
0.0
 10
370.5373159084611
 20
303.8603867163911
 30
0.0
  0
SPLINE
  5
7F
330
1F
100
AcDbEntity
  8
VISIBLE
100
AcDbSpline
210
0.0
220
0.0
230
1.0
 70
     8
 71
     3
 72
    29
 73
    25
 74
     0
 42
0.000000001
 43
0.0000000371389714
 40
-5.496512946945
 40
-5.496512946945
 40
-5.496512946945
 40
-5.496512946945
 40
-5.00816815798636
 40
-5.00816815798636
 40
-5.00816815798636
 40
-4.32033297329058
 40
-4.32033297329058
 40
-4.32033297329058
 40
-3.61549926754427
 40
-3.61549926754427
 40
-3.61549926754427
 40
-3.04524144501223
 40
-3.04524144501223
 40
-3.04524144501223
 40
-2.22213150471563
 40
-2.22213150471563
 40
-2.22213150471563
 40
-1.6800053497605
 40
-1.6800053497605
 40
-1.6800053497605
 40
-1.11509979984548
 40
-1.11509979984548
 40
-1.11509979984548
 40
-1.11088884266553
 40
-1.11088884266553
 40
-1.11088884266553
 40
-1.11088884266553
 10
370.537315908461
 20
303.8603867163908
 30
0.0
 10
368.297493891398
 20
301.6680131053472
 30
0.0
 10
366.1531801083462
 20
299.3318354797198
 30
0.0
 10
364.0840424035769
 20
296.9024286408359
 30
0.0
 10
361.1696553813343
 20
293.4806014001106
 30
0.0
 10
358.4081070546154
 20
289.9072091556704
 30
0.0
 10
355.9768760190071
 20
286.4551712385751
 30
0.0
 10
353.4855617936216
 20
282.9178228568414
 30
0.0
 10
351.3743557161287
 20
279.5284478698695
 30
0.0
 10
349.5853166833501
 20
275.9573783036918
 30
0.0
 10
348.1378639084054
 20
273.0681431006693
 30
0.0
 10
346.8794263271366
 20
270.0030885279834
 30
0.0
 10
345.7976493760606
 20
266.7041985958967
 30
0.0
 10
344.2362129056924
 20
261.9425820292212
 30
0.0
 10
343.0786805091129
 20
256.7680216720291
 30
0.0
 10
342.419361605316
 20
252.1741380843005
 30
0.0
 10
341.9851133904592
 20
249.1484615327218
 30
0.0
 10
341.7619503516195
 20
246.4066522037811
 30
0.0
 10
341.7163837958009
 20
243.8310696618462
 30
0.0
 10
341.6689025960153
 20
241.147264686003
 30
0.0
 10
341.8090093982544
 20
238.5751856883254
 30
0.0
 10
342.1399855761014
 20
235.7846237594285
 30
0.0
 10
342.142452761125
 20
235.7638221638478
 30
0.0
 10
342.1449311171282
 20
235.7430079888895
 30
0.0
 10
342.1474206216251
 20
235.7221813475351
 30
0.0
  0
SPLINE
  5
80
330
1F
100
AcDbEntity
  8
VISIBLE
100
AcDbSpline
210
0.0
220
0.0
230
1.0
 70
     8
 71
     3
 72
    14
 73
    10
 74
     0
 42
0.000000001
 43
0.0000000308315832
 40
-2.05144523837836
 40
-2.05144523837836
 40
-2.05144523837836
 40
-2.05144523837836
 40
-1.46531802741312
 40
-1.46531802741312
 40
-1.46531802741312
 40
-0.87919081644787
 40
-0.87919081644787
 40
-0.87919081644787
 40
0.0
 40
0.0
 40
0.0
 40
0.0
 10
342.1474206216251
 20
235.7221813475351
 30
0.0
 10
342.3787189056435
 20
233.7871913070748
 30
0.0
 10
342.9927912444576
 20
231.9007751946845
 30
0.0
 10
343.9418067631782
 20
230.1989141655039
 30
0.0
 10
344.890822281895
 20
228.4970531363036
 30
0.0
 10
346.1747809805222
 20
226.9797471903327
 30
0.0
 10
347.699569341531
 20
225.7673440813903
 30
0.0
 10
349.9867518830443
 20
223.9487394179767
 30
0.0
 10
352.815801164916
 20
222.8161661378772
 30
0.0
 10
355.7277170003182
 20
222.5601618185925
 30
0.0
  0
LINE
  5
81
330
1F
100
AcDbEntity
  8
VISIBLE
100
AcDbLine
 10
355.72771700033
 20
222.5601618186003
 30
0.0
 11
355.8758184306465
 21
222.5471413166365
 31
0.0
  0
ARC
  5
82
330
1F
100
AcDbEntity
  8
VISIBLE
100
AcDbCircle
 10
356.7516014974915
 20
232.508717698919
 30
0.0000000000000001
 40
10.0
100
AcDbArc
 50
264.9756959355578
 51
342.1361075285526
  0
ARC
  5
83
330
1F
100
AcDbEntity
  8
VISIBLE
100
AcDbCircle
 10
399.5820574290025
 20
218.7046587052792
 30
0.0
 40
35.0
100
AcDbArc
 50
111.3634958967501
 51
162.1361075286029
  0
ARC
  5
84
330
1F
100
AcDbEntity
  8
VISIBLE
100
AcDbCircle
 10
438.0067729891261
 20
242.1256158617421
 30
0.0000000000000007
 40
10.0
100
AcDbArc
 50
211.3634958967538
 51
274.975695935436
  0
LINE
  5
85
330
1F
100
AcDbEntity
  8
VISIBLE
100
AcDbLine
 10
438.8741046203921
 20
232.1633000746601
 30
0.0
 11
510.3588603369994
 21
238.3868520190407
 31
0.0
  0
SPLINE
  5
86
330
1F
100
AcDbEntity
  8
VISIBLE
100
AcDbSpline
210
0.0
220
0.0
230
1.0
 70
     8
 71
     3
 72
    23
 73
    19
 74
     0
 42
0.000000001
 43
0.0000000477183328
 40
-6.47315002859884
 40
-6.47315002859884
 40
-6.47315002859884
 40
-6.47315002859884
 40
-5.54841431022758
 40
-5.54841431022758
 40
-5.54841431022758
 40
-4.62367859185632
 40
-4.62367859185632
 40
-4.62367859185632
 40
-3.69894287348505
 40
-3.69894287348505
 40
-3.69894287348505
 40
-2.77420715511379
 40
-2.77420715511379
 40
-2.77420715511379
 40
-0.924735718371264
 40
-0.924735718371264
 40
-0.924735718371264
 40
0.0
 40
0.0
 40
0.0
 40
0.0
 10
510.3588603370112
 20
238.3868520190486
 30
0.0
 10
513.4211658074587
 20
238.6534601507243
 30
0.0
 10
516.4412938026555
 20
239.394456788758
 30
0.0
 10
519.2799354609097
 20
240.5749680535873
 30
0.0
 10
522.1185771191635
 20
241.7554793184167
 30
0.0
 10
524.7757324404768
 20
243.3755052100413
 30
0.0
 10
527.1226561319954
 20
245.3594141413772
 30
0.0
 10
529.469579823514
 20
247.3433230727131
 30
0.0
 10
531.5062718852398
 20
249.6911150437599
 30
0.0
 10
533.1452113842732
 20
252.2926087239223
 30
0.0
 10
534.7841508833076
 20
254.8941024040846
 30
0.0
 10
536.0253378196496
 20
257.7492977933626
 30
0.0
 10
536.7965940314582
 20
260.7239455203872
 30
0.0
 10
538.3391064550735
 20
266.673240974437
 30
0.0
 10
538.0018959805526
 20
273.1003457794741
 30
0.0
 10
535.8375817488704
 20
278.8530802027195
 30
0.0
 10
534.7554246330288
 20
281.7294474143423
 30
0.0
 10
533.2164915778981
 20
284.4372220305169
 30
0.0
 10
531.3130310530414
 20
286.8508567834411
 30
0.0
  0
SPLINE
  5
87
330
1F
100
AcDbEntity
  8
VISIBLE
100
AcDbSpline
210
0.0
220
0.0
230
1.0
 70
     8
 71
     3
 72
    20
 73
    16
 74
     0
 42
0.000000001
 43
0.0000000499027527
 40
0.0
 40
0.0
 40
0.0
 40
0.0
 40
0.205344251845649
 40
0.205344251845649
 40
0.205344251845649
 40
0.458517098725116
 40
0.458517098725116
 40
0.458517098725116
 40
0.7160218757296231
 40
0.7160218757296231
 40
0.7160218757296231
 40
0.923974681607533
 40
0.923974681607533
 40
0.923974681607533
 40
1.0
 40
1.0
 40
1.0
 40
1.0
 10
531.3130310530306
 20
286.8508567834324
 30
0.0
 10
527.4232305140782
 20
291.7832195196995
 30
0.0
 10
523.126066742296
 20
296.3915977201591
 30
0.0
 10
518.3291967344733
 20
300.654220765735
 30
0.0
 10
512.4150441586128
 20
305.9096900663003
 30
0.0
 10
505.7076061358638
 20
310.6494891570912
 30
0.0
 10
498.3613356068938
 20
314.716545203662
 30
0.0
 10
490.8893662480399
 20
318.8531908718116
 30
0.0
 10
482.7500281596827
 20
322.2821832719081
 30
0.0
 10
474.7033170828504
 20
324.8290528938095
 30
0.0
 10
468.2050448333736
 20
326.8858251612621
 30
0.0
 10
461.8188497447531
 20
328.3625268963815
 30
0.0
 10
455.8761688218926
 20
329.2621880799511
 30
0.0
 10
453.7035883300931
 20
329.5910945721597
 30
0.0
 10
451.5924257408679
 20
329.8442402276315
 30
0.0
 10
449.5259030812119
 20
330.0261013419491
 30
0.0
  0
SPLINE
  5
88
330
1F
100
AcDbEntity
  8
VISIBLE
100
AcDbSpline
210
0.0
220
0.0
230
1.0
 70
     8
 71
     3
 72
    17
 73
    13
 74
     0
 42
0.000000001
 43
0.0000000441304306
 40
-4.72470307928968
 40
-4.72470307928968
 40
-4.72470307928968
 40
-4.72470307928968
 40
-3.37478791377835
 40
-3.37478791377835
 40
-3.37478791377835
 40
-2.02487274826701
 40
-2.02487274826701
 40
-2.02487274826701
 40
-0.67495758275567
 40
-0.67495758275567
 40
-0.67495758275567
 40
0.0
 40
0.0
 40
0.0
 40
0.0
 10
449.5259030812124
 20
330.0261013419571
 30
0.0
 10
445.0549454802419
 20
330.4195610156647
 30
0.0
 10
440.4960654784654
 20
329.7925560181275
 30
0.0
 10
436.2980198252986
 20
328.2075165983697
 30
0.0
 10
432.0999741721319
 20
326.6224771786131
 30
0.0
 10
428.2627628675748
 20
324.0794033366357
 30
0.0
 10
425.1683629999665
 20
320.8299461827972
 30
0.0
 10
422.0739631323578
 20
317.5804890289579
 30
0.0
 10
419.7223747016976
 20
313.6246485632556
 30
0.0
 10
418.343485431584
 20
309.3539091690453
 30
0.0
 10
417.6540407965272
 20
307.2185394719402
 30
0.0
 10
417.2077709516071
 20
305.0044450427081
 30
0.0
 10
417.011234848418
 20
302.7689492014526
 30
0.0
  0
LINE
  5
89
330
1F
100
AcDbEntity
  8
VISIBLE
100
AcDbLine
 10
417.0112348484063
 20
302.7689492014447
 30
0.0
 11
413.0740282195547
 21
257.9852738250414
 31
0.0
  0
ARC
  5
8A
330
1F
100
AcDbEntity
  8
VISIBLE
100
AcDbCircle
 10
423.0356046018372
 20
257.1094907581965
 30
0.0000000000000007
 40
10.0
100
AcDbArc
 50
174.9756959355581
 51
238.5878959742301
  0
ARC
  5
8B
330
1F
100
AcDbEntity
  8
VISIBLE
100
AcDbCircle
 10
399.5820574290025
 20
218.7046587052792
 30
0.0
 40
35.0
100
AcDbArc
 50
31.36349589675008
 51
58.58789597426402
  0
ARC
  5
8C
330
1F
100
AcDbEntity
  8
VISIBLE
100
AcDbCircle
 10
432.9263266074308
 20
188.4861260976599
 30
0.0000000000000004
 40
10.0
100
AcDbArc
 50
137.8152843423924
 51
214.9756959354261
  0
LINE
  5
8D
330
1F
100
AcDbEntity
  8
VISIBLE
100
AcDbLine
 10
424.7323738709329
 20
182.7538369779422
 30
0.0
 11
448.460582479992
 21
148.8358304358406
 31
0.0
  0
SPLINE
  5
8E
330
1F
100
AcDbEntity
  8
VISIBLE
100
AcDbSpline
210
0.0
220
0.0
230
1.0
 70
     8
 71
     3
 72
    11
 73
     7
 74
     0
 42
0.000000001
 43
0.0000000342837899
 40
-2.15991446008921
 40
-2.15991446008921
 40
-2.15991446008921
 40
-2.15991446008921
 40
-0.92567762575252
 40
-0.92567762575252
 40
-0.92567762575252
 40
0.0
 40
0.0
 40
0.0
 40
0.0
 10
448.4605824799999
 20
148.8358304358289
 30
0.0
 10
450.8126185839912
 20
145.4737403060254
 30
0.0
 10
453.8636911115516
 20
142.6030509984911
 30
0.0
 10
457.3605899800937
 20
140.457632969399
 30
0.0
 10
459.9832641315002
 20
138.8485694475799
 30
0.0
 10
462.8567155997087
 20
137.6474710198844
 30
0.0
 10
465.8441692150346
 20
136.9090838746891
 30
0.0
  0
SPLINE
  5
8F
330
1F
100
AcDbEntity
  8
VISIBLE
100
AcDbSpline
210
0.0
220
0.0
230
1.0
 70
     8
 71
     3
 72
    26
 73
    22
 74
     0
 42
0.000000001
 43
0.0000000424695489
 40
-18.4247440636485
 40
-18.4247440636485
 40
-18.4247440636485
 40
-18.4247440636485
 40
-17.479215833859
 40
-17.479215833859
 40
-17.479215833859
 40
-15.6061624231207
 40
-15.6061624231207
 40
-15.6061624231207
 40
-13.7721839597599
 40
-13.7721839597599
 40
-13.7721839597599
 40
-11.408366087319
 40
-11.408366087319
 40
-11.408366087319
 40
-8.93285533257634
 40
-8.93285533257634
 40
-8.93285533257634
 40
-6.98770373843809
 40
-6.98770373843809
 40
-6.98770373843809
 40
-5.49925842895949
 40
-5.49925842895949
 40
-5.49925842895949
 40
-5.49925842895949
 10
465.8441692150344
 20
136.9090838746891
 30
0.0
 10
468.1693255453326
 20
136.3343919243093
 30
0.0
 10
470.4350209156375
 20
135.8894779136771
 30
0.0
 10
472.5995742597999
 20
135.5878029780267
 30
0.0
 10
476.8874674144135
 20
134.9901970585505
 30
0.0
 10
480.7830257739368
 20
134.9290166741969
 30
0.0
 10
484.6291230146373
 20
135.3384007887062
 30
0.0
 10
488.3949843974451
 20
135.7392444832576
 30
0.0
 10
492.1779454787674
 20
136.6013394737232
 30
0.0
 10
496.2293545756985
 20
137.9392010279416
 30
0.0
 10
501.4512224564952
 20
139.6635729962565
 30
0.0
 10
507.1121031082904
 20
142.1846192220174
 30
0.0
 10
512.6674996240592
 20
145.2208660265844
 30
0.0
 10
518.4853944720417
 20
148.4005786882023
 30
0.0
 10
524.1202221904196
 20
152.1265393599521
 30
0.0
 10
528.8970965164502
 20
156.1080598550503
 30
0.0
 10
532.6505622174078
 20
159.2365701728894
 30
0.0
 10
535.8711528098014
 20
162.510574210575
 30
0.0
 10
538.615333935657
 20
165.9923484326828
 30
0.0
 10
540.7152029317026
 20
168.6566294713314
 30
0.0
 10
542.5567257659396
 20
171.4601629471261
 30
0.0
 10
544.2014567611925
 20
174.4714599192438
 30
0.0
  0
SPLINE
  5
90
330
1F
100
AcDbEntity
  8
VISIBLE
100
AcDbSpline
210
0.0
220
0.0
230
1.0
 70
     8
 71
     3
 72
    23
 73
    19
 74
     0
 42
0.000000001
 43
0.0000000448183863
 40
-6.490728531521921
 40
-6.490728531521921
 40
-6.490728531521921
 40
-6.490728531521921
 40
-5.56348159844736
 40
-5.56348159844736
 40
-5.56348159844736
 40
-4.6362346653728
 40
-4.6362346653728
 40
-4.6362346653728
 40
-3.70898773229824
 40
-3.70898773229824
 40
-3.70898773229824
 40
-2.78174079922368
 40
-2.78174079922368
 40
-2.78174079922368
 40
-0.9272469330745601
 40
-0.9272469330745601
 40
-0.9272469330745601
 40
0.0
 40
0.0
 40
0.0
 40
0.0
 10
544.2014567611925
 20
174.4714599192438
 30
0.0
 10
545.6789079360062
 20
177.1764884388057
 30
0.0
 10
546.7356592631793
 20
180.1102466848284
 30
0.0
 10
547.3233095398614
 20
183.136360912557
 30
0.0
 10
547.9109598165436
 20
186.1624751402855
 30
0.0
 10
548.029509042736
 20
189.2809453497197
 30
0.0
 10
547.670763696561
 20
192.3414003509531
 30
0.0
 10
547.3120183503833
 20
195.4018553521668
 30
0.0
 10
546.4759784318351
 20
198.4042951451599
 30
0.0
 10
545.2065950211204
 20
201.2139036589473
 30
0.0
 10
543.9372116104058
 20
204.0235121727346
 30
0.0
 10
542.2344847075258
 20
206.6402894073159
 30
0.0
 10
540.17120059606
 20
208.9288313665811
 30
0.0
 10
536.044632373129
 20
213.5059152851117
 30
0.0
 10
530.4758353158572
 20
216.7700581023776
 30
0.0
 10
524.4639548035148
 20
218.1265636788346
 30
0.0
 10
521.4580145473444
 20
218.8048164670629
 30
0.0
 10
518.341303427405
 20
219.0061599450894
 30
0.0
 10
515.270704811482
 20
218.7388298018306
 30
0.0
  0
LINE
  5
91
330
1F
100
AcDbEntity
  8
VISIBLE
100
AcDbLine
 10
515.2707048114701
 20
218.7388298018226
 30
0.0
 11
440.6087678829477
 21
212.238668500512
 31
0.0
  0
ARC
  5
92
330
1F
100
AcDbEntity
  8
VISIBLE
100
AcDbCircle
 10
441.4760995142334
 20
202.2763527134262
 30
-0.0000000000000001
 40
10.0
100
AcDbArc
 50
94.97569593554617
 51
158.5878959742181
  0
ARC
  5
93
330
1F
100
AcDbEntity
  8
VISIBLE
100
AcDbCircle
 10
399.5820574290025
 20
218.7046587052792
 30
0.0
 40
35.0
100
AcDbArc
 50
317.8152843424112
 51
338.587895974264
  0
ARC
  5
94
330
1F
100
AcDbEntity
  8
VISIBLE
100
AcDbCircle
 10
414.9774184386059
 20
337.5366965991305
 30
0.0
 40
0.7
100
AcDbArc
 50
74.68465071551553
 51
194.6846507174803
  0
LINE
  5
95
330
1F
100
AcDbEntity
  8
VISIBLE
100
AcDbLine
 10
414.3002834495333
 20
337.3592474329811
 30
0.0
 11
414.7787134487227
 21
335.5335882916723
 31
0.0
  0
ARC
  5
96
330
1F
100
AcDbEntity
  8
VISIBLE
100
AcDbCircle
 10
453.2471576792947
 20
188.7403960159969
 30
-0.0000000000000056
 40
151.75
100
AcDbArc
 50
104.6846507163892
 51
114.2718209203679
  0
ARC
  5
97
330
1F
100
AcDbEntity
  8
VISIBLE
100
AcDbCircle
 10
391.5872479934253
 20
325.4812294840535
 30
0.0
 40
1.75
100
AcDbArc
 50
114.2718209202978
 51
294.2718217742171
  0
ARC
  5
98
330
1F
100
AcDbEntity
  8
VISIBLE
100
AcDbCircle
 10
453.2471576792947
 20
188.7403960159969
 30
0.0
 40
148.25
100
AcDbArc
 50
104.6846507163892
 51
114.2718209102894
  0
LINE
  5
99
330
1F
100
AcDbEntity
  8
VISIBLE
100
AcDbLine
 10
415.6659592794111
 20
332.1479133462699
 30
0.0
 11
416.1443892786006
 21
330.3222542049611
 31
0.0
  0
ARC
  5
9A
330
1F
100
AcDbEntity
  8
VISIBLE
100
AcDbCircle
 10
416.8215242676732
 20
330.4997033711109
 30
0.0
 40
0.7
100
AcDbArc
 50
194.6846507175085
 51
314.68465071615
  0
LINE
  5
9B
330
1F
100
AcDbEntity
  8
VISIBLE
100
AcDbLine
 10
417.3137672479768
 20
330.0020118518327
 30
0.0
 11
422.4859292351676
 21
335.1175509610815
 31
0.0
  0
ARC
  5
9C
330
1F
100
AcDbEntity
  8
VISIBLE
100
AcDbCircle
 10
421.993686254864
 20
335.6152424803597
 30
0.0
 40
0.7
100
AcDbArc
 50
314.6846507161533
 51
74.68465071551553
  0
LINE
  5
9D
330
1F
100
AcDbEntity
  8
VISIBLE
100
AcDbLine
 10
422.1785782636566
 20
336.2903831657522
 30
0.0
 11
415.1623104473985
 21
338.2118372845231
 31
0.0
  0
LINE
  5
9E
330
1F
100
AcDbEntity
  8
VISIBLE
100
AcDbLine
 10
407.3726545361742
 20
317.1943919726348
 30
0.0
 11
410.8550143755131
 21
314.4872681493304
 31
0.0
  0
LINE
  5
9F
330
1F
100
AcDbEntity
  8
VISIBLE
100
AcDbLine
 10
410.8550143755131
 20
314.4872681493304
 30
0.0
 11
413.3201139008543
 21
315.3591520091097
 31
0.0
  0
LINE
  5
A0
330
1F
100
AcDbEntity
  8
VISIBLE
100
AcDbLine
 10
413.3201139008543
 20
315.3591520091097
 30
0.0
 11
408.0192307286707
 21
319.3419845815403
 31
0.0
  0
LINE
  5
A1
330
1F
100
AcDbEntity
  8
VISIBLE
100
AcDbLine
 10
408.0192307286707
 20
319.3419845815403
 30
0.0
 11
409.4290460659053
 21
325.3720403297262
 31
0.0
  0
LINE
  5
A2
330
1F
100
AcDbEntity
  8
VISIBLE
100
AcDbLine
 10
409.4290460659053
 20
325.3720403297262
 30
0.0
 11
407.0606171101852
 21
324.5343479938593
 31
0.0
  0
LINE
  5
A3
330
1F
100
AcDbEntity
  8
VISIBLE
100
AcDbLine
 10
407.0606171101852
 20
324.5343479938593
 30
0.0
 11
406.2222659467618
 21
320.5787053382515
 31
0.0
  0
LINE
  5
A4
330
1F
100
AcDbEntity
  8
VISIBLE
100
AcDbLine
 10
406.2222659467618
 20
320.5787053382515
 30
0.0
 11
403.0418834302172
 21
323.1129574997653
 31
0.0
  0
LINE
  5
A5
330
1F
100
AcDbEntity
  8
VISIBLE
100
AcDbLine
 10
403.0418834302172
 20
323.1129574997653
 30
0.0
 11
400.6527393524357
 21
322.2679384087753
 31
0.0
  0
LINE
  5
A6
330
1F
100
AcDbEntity
  8
VISIBLE
100
AcDbLine
 10
400.6527393524357
 20
322.2679384087753
 30
0.0
 11
405.4996462717919
 21
318.5362871624883
 31
0.0
  0
LINE
  5
A7
330
1F
100
AcDbEntity
  8
VISIBLE
100
AcDbLine
 10
405.4996462717919
 20
318.5362871624883
 30
0.0
 11
403.9085434441596
 21
312.0303629310166
 31
0.0
  0
LINE
  5
A8
330
1F
100
AcDbEntity
  8
VISIBLE
100
AcDbLine
 10
403.9085434441596
 20
312.0303629310166
 30
0.0
 11
406.3598328881263
 21
312.8973622873798
 31
0.0
  0
LINE
  5
A9
330
1F
100
AcDbEntity
  8
VISIBLE
100
AcDbLine
 10
406.3598328881263
 20
312.8973622873798
 30
0.0
 11
407.3726545361742
 21
317.1943919726348
 31
0.0
  0
SPLINE
  5
AA
330
1F
100
AcDbEntity
  8
VISIBLE
100
AcDbSpline
210
0.0
220
0.0
230
1.0
 70
     8
 71
     3
 72
    11
 73
     7
 74
     0
 42
0.000000001
 43
0.0000000412767221
 40
-0.263919091406271
 40
-0.263919091406271
 40
-0.263919091406271
 40
-0.263919091406271
 40
-0.121193986509267
 40
-0.121193986509267
 40
-0.121193986509267
 40
0.0
 40
0.0
 40
0.0
 40
0.0
 10
418.0928501939471
 20
316.845236616154
 30
0.0
 10
418.4964990820189
 20
316.9989173046774
 30
0.0
 10
418.9001479700907
 20
317.1525979931999
 30
0.0
 10
419.2702934578084
 20
317.3655961471801
 30
0.0
 10
419.5845998110944
 20
317.5464619830757
 30
0.0
 10
419.8747487589529
 20
317.7700982854323
 30
0.0
 10
420.1648977068116
 20
317.9937345877899
 30
0.0
  0
SPLINE
  5
AB
330
1F
100
AcDbEntity
  8
VISIBLE
100
AcDbSpline
210
0.0
220
0.0
230
1.0
 70
     8
 71
     3
 72
    11
 73
     7
 74
     0
 42
0.000000001
 43
0.00000004146267
 40
-0.199004972748022
 40
-0.199004972748022
 40
-0.199004972748022
 40
-0.199004972748022
 40
-0.0978482636508259
 40
-0.0978482636508259
 40
-0.0978482636508259
 40
0.0
 40
0.0
 40
0.0
 40
0.0
 10
420.1648977068116
 20
317.9937345877899
 30
0.0
 10
420.392895000859
 20
318.2287710864982
 30
0.0
 10
420.6208922949064
 20
318.4638075852065
 30
0.0
 10
420.7834625530543
 20
318.7378835331289
 30
0.0
 10
420.940715765649
 20
319.0029955148455
 30
0.0
 10
421.0367516871316
 20
319.3046350465971
 30
0.0
 10
421.1327876086145
 20
319.6062745783493
 30
0.0
  0
SPLINE
  5
AC
330
1F
100
AcDbEntity
  8
VISIBLE
100
AcDbSpline
210
0.0
220
0.0
230
1.0
 70
     8
 71
     3
 72
    11
 73
     7
 74
     0
 42
0.000000001
 43
0.0000000416080038
 40
-0.18770514774228
 40
-0.18770514774228
 40
-0.18770514774228
 40
-0.18770514774228
 40
-0.0930001945032156
 40
-0.0930001945032156
 40
-0.0930001945032156
 40
0.0
 40
0.0
 40
0.0
 40
0.0
 10
421.1327876086145
 20
319.6062745783493
 30
0.0
 10
421.1830588367335
 20
319.9125838836785
 30
0.0
 10
421.2333300648527
 20
320.2188931890087
 30
0.0
 10
421.2168855499747
 20
320.5216674313667
 30
0.0
 10
421.2007370484457
 20
320.8189915149205
 30
0.0
 10
421.1202530510316
 20
321.1129066575107
 30
0.0
 10
421.0397690536172
 20
321.4068218001001
 30
0.0
  0
SPLINE
  5
AD
330
1F
100
AcDbEntity
  8
VISIBLE
100
AcDbSpline
210
0.0
220
0.0
230
1.0
 70
     8
 71
     3
 72
    11
 73
     7
 74
     0
 42
0.000000001
 43
0.0000000417093623
 40
-0.195298390654904
 40
-0.195298390654904
 40
-0.195298390654904
 40
-0.195298390654904
 40
-0.0918912653473138
 40
-0.0918912653473138
 40
-0.0918912653473138
 40
0.0
 40
0.0
 40
0.0
 40
0.0
 10
421.0397690536172
 20
321.4068218001001
 30
0.0
 10
420.9212374587418
 20
321.7022243083579
 30
0.0
 10
420.8027058638664
 20
321.9976268166157
 30
0.0
 10
420.6264798963977
 20
322.2540859467491
 30
0.0
 10
420.4698792067488
 20
322.4819846907443
 30
0.0
 10
420.2677188031649
 20
322.6791308831957
 30
0.0
 10
420.0655583995613
 20
322.8762770756501
 30
0.0
  0
SPLINE
  5
AE
330
1F
100
AcDbEntity
  8
VISIBLE
100
AcDbSpline
210
0.0
220
0.0
230
1.0
 70
     8
 71
     3
 72
    11
 73
     7
 74
     0
 42
0.000000001
 43
0.0000000416968672
 40
-0.164591579591502
 40
-0.164591579591502
 40
-0.164591579591502
 40
-0.164591579591502
 40
-0.083404913488002
 40
-0.083404913488002
 40
-0.083404913488002
 40
0.0
 40
0.0
 40
0.0
 40
0.0
 10
420.0655583995613
 20
322.8762770756501
 30
0.0
 10
419.8432458276596
 20
323.0303387018113
 30
0.0
 10
419.620933255758
 20
323.1844003279733
 30
0.0
 10
419.3775615422955
 20
323.2894059570834
 30
0.0
 10
419.1275402311496
 20
323.3972806344415
 30
0.0
 10
418.855293267439
 20
323.4533819978911
 30
0.0
 10
418.5830463037283
 20
323.5094833613409
 30
0.0
  0
SPLINE
  5
AF
330
1F
100
AcDbEntity
  8
VISIBLE
100
AcDbSpline
210
0.0
220
0.0
230
1.0
 70
     8
 71
     3
 72
    11
 73
     7
 74
     0
 42
0.000000001
 43
0.0000000416073614
 40
-0.25210599931983
 40
-0.25210599931983
 40
-0.25210599931983
 40
-0.25210599931983
 40
-0.145791443991509
 40
-0.145791443991509
 40
-0.145791443991509
 40
0.0
 40
0.0
 40
0.0
 40
0.0
 10
418.5830463037283
 20
323.5094833613409
 30
0.0
 10
418.2363308583107
 20
323.5343465992565
 30
0.0
 10
417.8896154128934
 20
323.5592098371731
 30
0.0
 10
417.5432045754267
 20
323.5583047871195
 30
0.0
 10
417.0681639184571
 20
323.5570636724495
 30
0.0
 10
416.5936960837074
 20
323.5073647027837
 30
0.0
 10
416.1192282489574
 20
323.4576657331166
 30
0.0
  0
SPLINE
  5
B0
330
1F
100
AcDbEntity
  8
VISIBLE
100
AcDbSpline
210
0.0
220
0.0
230
1.0
 70
     8
 71
     3
 72
    11
 73
     7
 74
     0
 42
0.000000001
 43
0.0000000414459478
 40
-0.231441445383204
 40
-0.231441445383204
 40
-0.231441445383204
 40
-0.231441445383204
 40
-0.0855710200754118
 40
-0.0855710200754118
 40
-0.0855710200754118
 40
0.0
 40
0.0
 40
0.0
 40
0.0
 10
416.1192282489574
 20
323.4576657331166
 30
0.0
 10
415.672633609732
 20
323.4032188858615
 30
0.0
 10
415.2260389705065
 20
323.3487720386061
 30
0.0
 10
414.7818285026017
 20
323.373081466859
 30
0.0
 10
414.5212442012493
 20
323.3873419488486
 30
0.0
 10
414.2614803579449
 20
323.4287046023603
 30
0.0
 10
414.0017165146403
 20
323.4700672558711
 30
0.0
  0
SPLINE
  5
B1
330
1F
100
AcDbEntity
  8
VISIBLE
100
AcDbSpline
210
0.0
220
0.0
230
1.0
 70
     8
 71
     3
 72
    11
 73
     7
 74
     0
 42
0.000000001
 43
0.0000000413536069
 40
-0.0807148936471281
 40
-0.0807148936471281
 40
-0.0807148936471281
 40
-0.0807148936471281
 40
-0.0391900650659547
 40
-0.0391900650659547
 40
-0.0391900650659547
 40
0.0
 40
0.0
 40
0.0
 40
0.0
 10
414.0017165146403
 20
323.4700672558711
 30
0.0
 10
413.8821222285334
 20
323.5263838282345
 30
0.0
 10
413.7625279424264
 20
323.5827004005981
 30
0.0
 10
413.6743284148582
 20
323.6708533575103
 30
0.0
 10
413.591087969508
 20
323.7540498506727
 30
0.0
 10
413.5358111459462
 20
323.8656033262765
 30
0.0
 10
413.4805343223845
 20
323.9771568018801
 30
0.0
  0
SPLINE
  5
B2
330
1F
100
AcDbEntity
  8
VISIBLE
100
AcDbSpline
210
0.0
220
0.0
230
1.0
 70
     8
 71
     3
 72
    11
 73
     7
 74
     0
 42
0.000000001
 43
0.0000000413858697
 40
-0.0782832426756831
 40
-0.0782832426756831
 40
-0.0782832426756831
 40
-0.0782832426756831
 40
-0.039344787045548
 40
-0.039344787045548
 40
-0.039344787045548
 40
0.0
 40
0.0
 40
0.0
 40
0.0
 10
413.4805343223845
 20
323.9771568018801
 30
0.0
 10
413.4502020143086
 20
324.1068171636555
 30
0.0
 10
413.4198697062324
 20
324.2364775254297
 30
0.0
 10
413.4365031504211
 20
324.3597365946707
 30
0.0
 10
413.4533101682866
 20
324.4842818996191
 30
0.0
 10
413.5180682487685
 20
324.6022916171581
 30
0.0
 10
413.5828263292504
 20
324.7203013346973
 30
0.0
  0
SPLINE
  5
B3
330
1F
100
AcDbEntity
  8
VISIBLE
100
AcDbSpline
210
0.0
220
0.0
230
1.0
 70
     8
 71
     3
 72
    11
 73
     7
 74
     0
 42
0.000000001
 43
0.000000041531768
 40
-0.158655309564893
 40
-0.158655309564893
 40
-0.158655309564893
 40
-0.158655309564893
 40
-0.0868735272014437
 40
-0.0868735272014437
 40
-0.0868735272014437
 40
0.0
 40
0.0
 40
0.0
 40
0.0
 10
413.5828263292504
 20
324.7203013346973
 30
0.0
 10
413.741231508897
 20
324.8961377121233
 30
0.0
 10
413.8996366885437
 20
325.0719740895495
 30
0.0
 10
414.0864853636436
 20
325.2072526006157
 30
0.0
 10
414.312617996805
 20
325.3709727120975
 30
0.0
 10
414.5804116021743
 20
325.4752880241239
 30
0.0
 10
414.8482052075433
 20
325.5796033361493
 30
0.0
  0
SPLINE
  5
B4
330
1F
100
AcDbEntity
  8
VISIBLE
100
AcDbSpline
210
0.0
220
0.0
230
1.0
 70
     8
 71
     3
 72
    11
 73
     7
 74
     0
 42
0.000000001
 43
0.0000000416346963
 40
-0.163516358695418
 40
-0.163516358695418
 40
-0.163516358695418
 40
-0.163516358695418
 40
-0.0719525472271016
 40
-0.0719525472271016
 40
-0.0719525472271016
 40
0.0
 40
0.0
 40
0.0
 40
0.0
 10
414.8482052075433
 20
325.5796033361493
 30
0.0
 10
415.1084943553858
 20
325.6649003820987
 30
0.0
 10
415.3687835032283
 20
325.7501974280483
 30
0.0
 10
415.6336668975965
 20
325.7612747382146
 30
0.0
 10
415.8418171988708
 20
325.7699794947131
 30
0.0
 10
416.0528044974093
 20
325.7328527560529
 30
0.0
 10
416.2637917959482
 20
325.6957260173935
 30
0.0
  0
SPLINE
  5
B5
330
1F
100
AcDbEntity
  8
VISIBLE
100
AcDbSpline
210
0.0
220
0.0
230
1.0
 70
     8
 71
     3
 72
    11
 73
     7
 74
     0
 42
0.000000001
 43
0.0000000416887195
 40
-0.139745094671185
 40
-0.139745094671185
 40
-0.139745094671185
 40
-0.139745094671185
 40
-0.0767930469825949
 40
-0.0767930469825949
 40
-0.0767930469825949
 40
0.0
 40
0.0
 40
0.0
 40
0.0
 10
416.2637917959482
 20
325.6957260173935
 30
0.0
 10
416.4472922003631
 20
325.5996409459875
 30
0.0
 10
416.630792604778
 20
325.5035558745815
 30
0.0
 10
416.7799267268413
 20
325.3703902268953
 30
0.0
 10
416.9618503347747
 20
325.2079460139625
 30
0.0
 10
417.0926344246464
 20
324.9903232169443
 30
0.0
 10
417.2234185145181
 20
324.7727004199261
 30
0.0
  0
LINE
  5
B6
330
1F
100
AcDbEntity
  8
VISIBLE
100
AcDbLine
 10
417.2234185145259
 20
324.7727004199141
 30
0.0
 11
419.2355612857413
 21
325.5853724544361
 31
0.0
  0
SPLINE
  5
B7
330
1F
100
AcDbEntity
  8
VISIBLE
100
AcDbSpline
210
0.0
220
0.0
230
1.0
 70
     8
 71
     3
 72
    11
 73
     7
 74
     0
 42
0.000000001
 43
0.000000041952017
 40
-0.285149347976921
 40
-0.285149347976921
 40
-0.285149347976921
 40
-0.285149347976921
 40
-0.138920992389069
 40
-0.138920992389069
 40
-0.138920992389069
 40
0.0
 40
0.0
 40
0.0
 40
0.0
 10
419.2355612857334
 20
325.5853724544477
 30
0.0
 10
419.0307443981523
 20
326.0055513463797
 30
0.0
 10
418.8259275105711
 20
326.4257302383115
 30
0.0
 10
418.5146172802173
 20
326.7423682495653
 30
0.0
 10
418.2188639294548
 20
327.0431831399107
 30
0.0
 10
417.8269947264018
 20
327.2505469305503
 30
0.0
 10
417.435125523349
 20
327.4579107211911
 30
0.0
  0
SPLINE
  5
B8
330
1F
100
AcDbEntity
  8
VISIBLE
100
AcDbSpline
210
0.0
220
0.0
230
1.0
 70
     8
 71
     3
 72
    11
 73
     7
 74
     0
 42
0.000000001
 43
0.000000041856206
 40
-0.332343760658415
 40
-0.332343760658415
 40
-0.332343760658415
 40
-0.332343760658415
 40
-0.18425587945916
 40
-0.18425587945916
 40
-0.18425587945916
 40
0.0
 40
0.0
 40
0.0
 40
0.0
 10
417.435125523349
 20
327.4579107211911
 30
0.0
 10
416.9602199517349
 20
327.5632795613035
 30
0.0
 10
416.4853143801208
 20
327.6686484014161
 30
0.0
 10
416.0146034915217
 20
327.6605072107441
 30
0.0
 10
415.4289293090873
 20
327.6503776698599
 30
0.0
 10
414.8497489851082
 20
327.4645213647531
 30
0.0
 10
414.2705686611291
 20
327.278665059645
 30
0.0
  0
SPLINE
  5
B9
330
1F
100
AcDbEntity
  8
VISIBLE
100
AcDbSpline
210
0.0
220
0.0
230
1.0
 70
     8
 71
     3
 72
    11
 73
     7
 74
     0
 42
0.000000001
 43
0.0000000416293731
 40
-0.236913551093292
 40
-0.236913551093292
 40
-0.236913551093292
 40
-0.236913551093292
 40
-0.110478100972748
 40
-0.110478100972748
 40
-0.110478100972748
 40
0.0
 40
0.0
 40
0.0
 40
0.0
 10
414.2705686611291
 20
327.278665059645
 30
0.0
 10
413.9102059711496
 20
327.1396288138957
 30
0.0
 10
413.5498432811703
 20
327.0005925681471
 30
0.0
 10
413.2202053727693
 20
326.8081081171067
 30
0.0
 10
412.9321708848626
 20
326.6399170235701
 30
0.0
 10
412.6675950724184
 20
326.4309176951941
 30
0.0
 10
412.4030192599744
 20
326.2219183668191
 30
0.0
  0
SPLINE
  5
BA
330
1F
100
AcDbEntity
  8
VISIBLE
100
AcDbSpline
210
0.0
220
0.0
230
1.0
 70
     8
 71
     3
 72
    11
 73
     7
 74
     0
 42
0.000000001
 43
0.0000000414309597
 40
-0.185774938140788
 40
-0.185774938140788
 40
-0.185774938140788
 40
-0.185774938140788
 40
-0.0901549988270646
 40
-0.0901549988270646
 40
-0.0901549988270646
 40
0.0
 40
0.0
 40
0.0
 40
0.0
 10
412.4030192599744
 20
326.2219183668191
 30
0.0
 10
412.1914093722541
 20
326.0038633357351
 30
0.0
 10
411.9797994845338
 20
325.7858083046511
 30
0.0
 10
411.8274834806894
 20
325.5318326385811
 30
0.0
 10
411.6838727521476
 20
325.2923723749473
 30
0.0
 10
411.5929719725033
 20
325.0209800685681
 30
0.0
 10
411.502071192859
 20
324.7495877621901
 30
0.0
  0
SPLINE
  5
BB
330
1F
100
AcDbEntity
  8
VISIBLE
100
AcDbSpline
210
0.0
220
0.0
230
1.0
 70
     8
 71
     3
 72
    11
 73
     7
 74
     0
 42
0.000000001
 43
0.0000000412640102
 40
-0.167388393674531
 40
-0.167388393674531
 40
-0.167388393674531
 40
-0.167388393674531
 40
-0.0828444913729425
 40
-0.0828444913729425
 40
-0.0828444913729425
 40
0.0
 40
0.0
 40
0.0
 40
0.0
 10
411.502071192859
 20
324.7495877621901
 30
0.0
 10
411.454564571174
 20
324.4771055255983
 30
0.0
 10
411.4070579494889
 20
324.2046232890055
 30
0.0
 10
411.4201913341079
 20
323.9350032850975
 30
0.0
 10
411.4330607255026
 20
323.6708028935881
 30
0.0
 10
411.5041567837811
 20
323.4093508241705
 30
0.0
 10
411.5752528420596
 20
323.1478987547531
 30
0.0
  0
SPLINE
  5
BC
330
1F
100
AcDbEntity
  8
VISIBLE
100
AcDbSpline
210
0.0
220
0.0
230
1.0
 70
     8
 71
     3
 72
    11
 73
     7
 74
     0
 42
0.000000001
 43
0.0000000412405504
 40
-0.25071111456576
 40
-0.25071111456576
 40
-0.25071111456576
 40
-0.25071111456576
 40
-0.126824745132208
 40
-0.126824745132208
 40
-0.126824745132208
 40
0.0
 40
0.0
 40
0.0
 40
0.0
 10
411.5752528420596
 20
323.1478987547531
 30
0.0
 10
411.7527026372256
 20
322.7754354329887
 30
0.0
 10
411.9301524323917
 20
322.4029721112245
 30
0.0
 10
412.2008899273252
 20
322.1203394594281
 30
0.0
 10
412.4780488589306
 20
321.8310032379047
 30
0.0
 10
412.8529732238227
 20
321.6358094852563
 30
0.0
 10
413.2278975887149
 20
321.4406157326086
 30
0.0
  0
SPLINE
  5
BD
330
1F
100
AcDbEntity
  8
VISIBLE
100
AcDbSpline
210
0.0
220
0.0
230
1.0
 70
     8
 71
     3
 72
    11
 73
     7
 74
     0
 42
0.000000001
 43
0.0000000412732632
 40
-0.276363468603201
 40
-0.276363468603201
 40
-0.276363468603201
 40
-0.276363468603201
 40
-0.160570545490859
 40
-0.160570545490859
 40
-0.160570545490859
 40
0.0
 40
0.0
 40
0.0
 40
0.0
 10
413.2278975887149
 20
321.4406157326086
 30
0.0
 10
413.5935080380426
 20
321.3474309753138
 30
0.0
 10
413.9591184873703
 20
321.2542462180191
 30
0.0
 10
414.32945888695
 20
321.2145473577571
 30
0.0
 10
414.8430115150333
 20
321.1594967771475
 30
0.0
 10
415.3656595954763
 20
321.2072968403011
 30
0.0
 10
415.8883076759193
 20
321.2550969034543
 30
0.0
  0
SPLINE
  5
BE
330
1F
100
AcDbEntity
  8
VISIBLE
100
AcDbSpline
210
0.0
220
0.0
230
1.0
 70
     8
 71
     3
 72
    11
 73
     7
 74
     0
 42
0.000000001
 43
0.000000041382176
 40
-0.193211991779765
 40
-0.193211991779765
 40
-0.193211991779765
 40
-0.193211991779765
 40
-0.0699122958989341
 40
-0.0699122958989341
 40
-0.0699122958989341
 40
0.0
 40
0.0
 40
0.0
 40
0.0
 10
415.8883076759193
 20
321.2550969034543
 30
0.0
 10
416.2690428778189
 20
321.2929711275857
 30
0.0
 10
416.6497780797185
 20
321.3308453517171
 30
0.0
 10
417.0313954168209
 20
321.3564120133508
 30
0.0
 10
417.2477766820066
 20
321.3709085942277
 30
0.0
 10
417.4644415550578
 20
321.3814482742553
 30
0.0
 10
417.681106428109
 20
321.3919879542827
 30
0.0
  0
SPLINE
  5
BF
330
1F
100
AcDbEntity
  8
VISIBLE
100
AcDbSpline
210
0.0
220
0.0
230
1.0
 70
     8
 71
     3
 72
    11
 73
     7
 74
     0
 42
0.000000001
 43
0.0000000414383276
 40
-0.103634750899596
 40
-0.103634750899596
 40
-0.103634750899596
 40
-0.103634750899596
 40
-0.0447834025860602
 40
-0.0447834025860602
 40
-0.0447834025860602
 40
0.0
 40
0.0
 40
0.0
 40
0.0
 10
417.681106428109
 20
321.3919879542827
 30
0.0
 10
417.8564614876136
 20
321.3893142746339
 30
0.0
 10
418.0318165471182
 20
321.3866405949851
 30
0.0
 10
418.1990858264456
 20
321.3469829007291
 30
0.0
 10
418.3263707178044
 20
321.3168050621855
 30
0.0
 10
418.4489734812828
 20
321.2652113698695
 30
0.0
 10
418.5715762447612
 20
321.2136176775527
 30
0.0
  0
SPLINE
  5
C0
330
1F
100
AcDbEntity
  8
VISIBLE
100
AcDbSpline
210
0.0
220
0.0
230
1.0
 70
     8
 71
     3
 72
    11
 73
     7
 74
     0
 42
0.000000001
 43
0.0000000414514544
 40
-0.0711251202454122
 40
-0.0711251202454122
 40
-0.0711251202454122
 40
-0.0711251202454122
 40
-0.036430036417903
 40
-0.036430036417903
 40
-0.036430036417903
 40
0.0
 40
0.0
 40
0.0
 40
0.0
 10
418.5715762447612
 20
321.2136176775527
 30
0.0
 10
418.6647770414029
 20
321.1454736769923
 30
0.0
 10
418.7579778380446
 20
321.0773296764308
 30
0.0
 10
418.8281349631947
 20
320.9906931676275
 30
0.0
 10
418.901800345786
 20
320.8997243379657
 30
0.0
 10
418.9500598038358
 20
320.7883672958973
 30
0.0
 10
418.9983192618855
 20
320.6770102538289
 30
0.0
  0
SPLINE
  5
C1
330
1F
100
AcDbEntity
  8
VISIBLE
100
AcDbSpline
210
0.0
220
0.0
230
1.0
 70
     8
 71
     3
 72
    11
 73
     7
 74
     0
 42
0.000000001
 43
0.000000041415015
 40
-0.123758615771889
 40
-0.123758615771889
 40
-0.123758615771889
 40
-0.123758615771889
 40
-0.064614410232224
 40
-0.064614410232224
 40
-0.064614410232224
 40
0.0
 40
0.0
 40
0.0
 40
0.0
 10
418.9983192618855
 20
320.6770102538289
 30
0.0
 10
419.0388497651999
 20
320.4850781193101
 30
0.0
 10
419.0793802685142
 20
320.2931459847907
 30
0.0
 10
419.058471247779
 20
320.1088244794771
 30
0.0
 10
419.0356283668742
 20
319.9074552117637
 30
0.0
 10
418.9394553978134
 20
319.7151694797573
 30
0.0
 10
418.8432824287525
 20
319.5228837477511
 30
0.0
  0
SPLINE
  5
C2
330
1F
100
AcDbEntity
  8
VISIBLE
100
AcDbSpline
210
0.0
220
0.0
230
1.0
 70
     8
 71
     3
 72
    11
 73
     7
 74
     0
 42
0.000000001
 43
0.0000000413107465
 40
-0.17160308822673
 40
-0.17160308822673
 40
-0.17160308822673
 40
-0.17160308822673
 40
-0.0953871965138148
 40
-0.0953871965138148
 40
-0.0953871965138148
 40
0.0
 40
0.0
 40
0.0
 40
0.0
 10
418.8432824287525
 20
319.5228837477511
 30
0.0
 10
418.6839385633187
 20
319.3298772498563
 30
0.0
 10
418.524594697885
 20
319.1368707519615
 30
0.0
 10
418.3317828080694
 20
318.9894595913789
 30
0.0
 10
418.0904711182015
 20
318.8049687059903
 30
0.0
 10
417.796736753597
 20
318.6918961245379
 30
0.0
 10
417.5030023889924
 20
318.5788235430856
 30
0.0
  0
SPLINE
  5
C3
330
1F
100
AcDbEntity
  8
VISIBLE
100
AcDbSpline
210
0.0
220
0.0
230
1.0
 70
     8
 71
     3
 72
    11
 73
     7
 74
     0
 42
0.000000001
 43
0.0000000411527983
 40
-0.186611917665434
 40
-0.186611917665434
 40
-0.186611917665434
 40
-0.186611917665434
 40
-0.0868122014300625
 40
-0.0868122014300625
 40
-0.0868122014300625
 40
0.0
 40
0.0
 40
0.0
 40
0.0
 10
417.5030023889924
 20
318.5788235430856
 30
0.0
 10
417.2109526050807
 20
318.4907245453157
 30
0.0
 10
416.9189028211692
 20
318.4026255475469
 30
0.0
 10
416.6251110567146
 20
318.4003914966296
 30
0.0
 10
416.3695521153025
 20
318.3984481756901
 30
0.0
 10
416.1126750803678
 20
318.4614757470634
 30
0.0
 10
415.8557980454331
 20
318.524503318437
 30
0.0
  0
SPLINE
  5
C4
330
1F
100
AcDbEntity
  8
VISIBLE
100
AcDbSpline
210
0.0
220
0.0
230
1.0
 70
     8
 71
     3
 72
    11
 73
     7
 74
     0
 42
0.000000001
 43
0.000000041138725
 40
-0.181579054463585
 40
-0.181579054463585
 40
-0.181579054463585
 40
-0.181579054463585
 40
-0.0991795584224635
 40
-0.0991795584224635
 40
-0.0991795584224635
 40
0.0
 40
0.0
 40
0.0
 40
0.0
 10
415.8557980454331
 20
318.524503318437
 30
0.0
 10
415.6183030873933
 20
318.6563266096398
 30
0.0
 10
415.3808081293535
 20
318.7881499008427
 30
0.0
 10
415.1861157684613
 20
318.9654742242021
 30
0.0
 10
414.9517757141015
 20
319.1789093655977
 30
0.0
 10
414.7794461766069
 20
319.4582643976067
 30
0.0
 10
414.6071166391125
 20
319.7376194296169
 30
0.0
  0
LINE
  5
C5
330
1F
100
AcDbEntity
  8
VISIBLE
100
AcDbLine
 10
414.6071166391204
 20
319.737619429605
 30
0.0
 11
412.6868479690239
 21
318.8409097984395
 31
0.0
  0
SPLINE
  5
C6
330
1F
100
AcDbEntity
  8
VISIBLE
100
AcDbSpline
210
0.0
220
0.0
230
1.0
 70
     8
 71
     3
 72
     9
 73
     5
 74
     0
 42
0.000000001
 43
0.0000000410045275
 40
0.0
 40
0.0
 40
0.0
 40
0.0
 40
0.531755431034896
 40
1.0
 40
1.0
 40
1.0
 40
1.0
 10
412.6868479690239
 20
318.8409097984395
 30
0.0
 10
412.9604839056209
 20
318.351010241713
 30
0.0
 10
413.4750737351306
 20
317.429722882649
 30
0.0
 10
414.3982814687346
 20
316.9256992116722
 30
0.0
 10
414.8305684760213
 20
316.6896928651074
 30
0.0
  0
SPLINE
  5
C7
330
1F
100
AcDbEntity
  8
VISIBLE
100
AcDbSpline
210
0.0
220
0.0
230
1.0
 70
     8
 71
     3
 72
    11
 73
     7
 74
     0
 42
0.000000001
 43
0.0000000410562273
 40
-0.341671728782074
 40
-0.341671728782074
 40
-0.341671728782074
 40
-0.341671728782074
 40
-0.186882348751871
 40
-0.186882348751871
 40
-0.186882348751871
 40
0.0
 40
0.0
 40
0.0
 40
0.0
 10
414.8305684760134
 20
316.6896928651192
 30
0.0
 10
415.3274452225768
 20
316.5749349391361
 30
0.0
 10
415.8243219691403
 20
316.460177013153
 30
0.0
 10
416.3174791089386
 20
316.4668776909742
 30
0.0
 10
416.9128840687059
 20
316.4749676413906
 30
0.0
 10
417.5028671313265
 20
316.6601021287723
 30
0.0
 10
418.0928501939471
 20
316.845236616154
 30
0.0
  0
SPLINE
  5
C8
330
1F
100
AcDbEntity
  8
VISIBLE
100
AcDbSpline
210
0.0
220
0.0
230
1.0
 70
     8
 71
     3
 72
    11
 73
     7
 74
     0
 42
0.000000001
 43
0.0000000393407882
 40
-0.297916670017157
 40
-0.297916670017157
 40
-0.297916670017157
 40
-0.297916670017157
 40
-0.146067675528142
 40
-0.146067675528142
 40
-0.146067675528142
 40
0.0
 40
0.0
 40
0.0
 40
0.0
 10
396.035707987226
 20
309.0515897012805
 30
0.0
 10
396.4831867322832
 20
309.2503637292979
 30
0.0
 10
396.9306654773404
 20
309.4491377573154
 30
0.0
 10
397.2836180216153
 20
309.757105101376
 30
0.0
 10
397.6231326683042
 20
310.0533472611405
 30
0.0
 10
397.8751818522255
 20
310.4506264227076
 30
0.0
 10
398.1272310361468
 20
310.8479055842748
 30
0.0
  0
SPLINE
  5
C9
330
1F
100
AcDbEntity
  8
VISIBLE
100
AcDbSpline
210
0.0
220
0.0
230
1.0
 70
     8
 71
     3
 72
    11
 73
     7
 74
     0
 42
0.000000001
 43
0.0000000395716579
 40
-0.277377269861746
 40
-0.277377269861746
 40
-0.277377269861746
 40
-0.277377269861746
 40
-0.138104473996584
 40
-0.138104473996584
 40
-0.138104473996584
 40
0.0
 40
0.0
 40
0.0
 40
0.0
 10
398.1272310361468
 20
310.8479055842748
 30
0.0
 10
398.2950171163151
 20
311.2768277838381
 30
0.0
 10
398.4628031964833
 20
311.7057499834016
 30
0.0
 10
398.4904907696846
 20
312.143656065659
 30
0.0
 10
398.5179460793124
 20
312.5778886720656
 30
0.0
 10
398.4076435202026
 20
313.0209550666381
 30
0.0
 10
398.2973409610928
 20
313.4640214612108
 30
0.0
  0
SPLINE
  5
CA
330
1F
100
AcDbEntity
  8
VISIBLE
100
AcDbSpline
210
0.0
220
0.0
230
1.0
 70
     8
 71
     3
 72
    11
 73
     7
 74
     0
 42
0.000000001
 43
0.0000000396678822
 40
-0.189430521594326
 40
-0.189430521594326
 40
-0.189430521594326
 40
-0.189430521594326
 40
-0.0921843132495349
 40
-0.0921843132495349
 40
-0.0921843132495349
 40
0.0
 40
0.0
 40
0.0
 40
0.0
 10
398.2973409610928
 20
313.4640214612108
 30
0.0
 10
398.1748161613225
 20
313.7490304285861
 30
0.0
 10
398.0522913615522
 20
314.0340393959615
 30
0.0
 10
397.8660007951023
 20
314.2689702249221
 30
0.0
 10
397.6894070931436
 20
314.4916723487117
 30
0.0
 10
397.4555131723099
 20
314.6693740209824
 30
0.0
 10
397.2216192514761
 20
314.847075693253
 30
0.0
  0
SPLINE
  5
CB
330
1F
100
AcDbEntity
  8
VISIBLE
100
AcDbSpline
210
0.0
220
0.0
230
1.0
 70
     8
 71
     3
 72
     9
 73
     5
 74
     0
 42
0.000000001
 43
0.0000000396339602
 40
0.0
 40
0.0
 40
0.0
 40
0.0
 40
0.490924033081436
 40
1.0
 40
1.0
 40
1.0
 40
1.0
 10
397.221619251484
 20
314.8470756932413
 30
0.0
 10
396.9608714499778
 20
314.977185170475
 30
0.0
 10
396.4297346875963
 20
315.2422149275579
 30
0.0
 10
395.8366607729063
 20
315.2079270378351
 30
0.0
 10
395.5347410963312
 20
315.1904718972208
 30
0.0
  0
SPLINE
  5
CC
330
1F
100
AcDbEntity
  8
VISIBLE
100
AcDbSpline
210
0.0
220
0.0
230
1.0
 70
     8
 71
     3
 72
    11
 73
     7
 74
     0
 42
0.000000001
 43
0.0000000397903369
 40
-0.24073136643906
 40
-0.24073136643906
 40
-0.24073136643906
 40
-0.24073136643906
 40
-0.112214834947087
 40
-0.112214834947087
 40
-0.112214834947087
 40
0.0
 40
0.0
 40
0.0
 40
0.0
 10
395.5347410963233
 20
315.1904718972327
 30
0.0
 10
395.8635491956423
 20
315.610690418685
 30
0.0
 10
396.1923572949613
 20
316.0309089401373
 30
0.0
 10
396.2989809303427
 20
316.5056862024664
 30
0.0
 10
396.3920798765006
 20
316.9202402797544
 30
0.0
 10
396.3157855158727
 20
317.3763899095279
 30
0.0
 10
396.2394911552447
 20
317.8325395393014
 30
0.0
  0
SPLINE
  5
CD
330
1F
100
AcDbEntity
  8
VISIBLE
100
AcDbSpline
210
0.0
220
0.0
230
1.0
 70
     8
 71
     3
 72
    11
 73
     7
 74
     0
 42
0.000000001
 43
0.0000000398957637
 40
-0.202780039433864
 40
-0.202780039433864
 40
-0.202780039433864
 40
-0.202780039433864
 40
-0.104014966440803
 40
-0.104014966440803
 40
-0.104014966440803
 40
0.0
 40
0.0
 40
0.0
 40
0.0
 10
396.2394911552447
 20
317.8325395393014
 30
0.0
 10
396.0979612585846
 20
318.1290313960064
 30
0.0
 10
395.9564313619246
 20
318.4255232527114
 30
0.0
 10
395.7466358872081
 20
318.6604018064714
 30
0.0
 10
395.5256886575778
 20
318.9077654153527
 30
0.0
 10
395.2290256026349
 20
319.0867914782037
 30
0.0
 10
394.932362547692
 20
319.2658175410547
 30
0.0
  0
SPLINE
  5
CE
330
1F
100
AcDbEntity
  8
VISIBLE
100
AcDbSpline
210
0.0
220
0.0
230
1.0
 70
     8
 71
     3
 72
    11
 73
     7
 74
     0
 42
0.000000001
 43
0.0000000398458073
 40
-0.275526826666228
 40
-0.275526826666228
 40
-0.275526826666228
 40
-0.275526826666228
 40
-0.142819702855681
 40
-0.142819702855681
 40
-0.142819702855681
 40
0.0
 40
0.0
 40
0.0
 40
0.0
 10
394.932362547692
 20
319.2658175410547
 30
0.0
 10
394.5188828364822
 20
319.4185628618073
 30
0.0
 10
394.1054031252723
 20
319.5713081825597
 30
0.0
 10
393.6858962086017
 20
319.5940689455671
 30
0.0
 10
393.2344219285144
 20
319.6185641295191
 30
0.0
 10
392.7759668712907
 20
319.4925097371051
 30
0.0
 10
392.3175118140671
 20
319.3664553446913
 30
0.0
  0
SPLINE
  5
CF
330
1F
100
AcDbEntity
  8
VISIBLE
100
AcDbSpline
210
0.0
220
0.0
230
1.0
 70
     8
 71
     3
 72
     9
 73
     5
 74
     0
 42
0.000000001
 43
0.0000000396699211
 40
0.0
 40
0.0
 40
0.0
 40
0.0
 40
0.5151943924957949
 40
1.0
 40
1.0
 40
1.0
 40
1.0
 10
392.317511814075
 20
319.3664553446797
 30
0.0
 10
392.0534469698286
 20
319.2602039993167
 30
0.0
 10
391.5408931685984
 20
319.0539685532199
 30
0.0
 10
391.1226496700369
 20
318.6934334398583
 30
0.0
 10
390.9198828766322
 20
318.5186439951985
 30
0.0
  0
SPLINE
  5
D0
330
1F
100
AcDbEntity
  8
VISIBLE
100
AcDbSpline
210
0.0
220
0.0
230
1.0
 70
     8
 71
     3
 72
    11
 73
     7
 74
     0
 42
0.000000001
 43
0.0000000395188105
 40
-0.154317067541996
 40
-0.154317067541996
 40
-0.154317067541996
 40
-0.154317067541996
 40
-0.0749228273499124
 40
-0.0749228273499124
 40
-0.0749228273499124
 40
0.0
 40
0.0
 40
0.0
 40
0.0
 10
390.9198828766242
 20
318.5186439952102
 30
0.0
 10
390.7493008619237
 20
318.3326189558915
 30
0.0
 10
390.5787188472231
 20
318.1465939165728
 30
0.0
 10
390.4527521892426
 20
317.9339064624251
 30
0.0
 10
390.3338798611633
 20
317.733197376123
 30
0.0
 10
390.2547390084183
 20
317.5087445129018
 30
0.0
 10
390.1755981556734
 20
317.2842916496805
 30
0.0
  0
SPLINE
  5
D1
330
1F
100
AcDbEntity
  8
VISIBLE
100
AcDbSpline
210
0.0
220
0.0
230
1.0
 70
     8
 71
     3
 72
    11
 73
     7
 74
     0
 42
0.000000001
 43
0.0000000393752691
 40
-0.169726061162524
 40
-0.169726061162524
 40
-0.169726061162524
 40
-0.169726061162524
 40
-0.0922675657145471
 40
-0.0922675657145471
 40
-0.0922675657145471
 40
0.0
 40
0.0
 40
0.0
 40
0.0
 10
390.1755981556734
 20
317.2842916496805
 30
0.0
 10
390.1301089061072
 20
317.0321534882347
 30
0.0
 10
390.084619656541
 20
316.7800153267889
 30
0.0
 10
390.0735697203307
 20
316.5266737582574
 30
0.0
 10
390.0604071781263
 20
316.22489653308
 30
0.0
 10
390.0961115028772
 20
315.9214117612584
 30
0.0
 10
390.1318158276281
 20
315.6179269894368
 30
0.0
  0
LINE
  5
D2
330
1F
100
AcDbEntity
  8
VISIBLE
100
AcDbLine
 10
390.1318158276359
 20
315.617926989425
 30
0.0
 11
392.0276804407834
 21
315.9466483915759
 31
0.0
  0
SPLINE
  5
D3
330
1F
100
AcDbEntity
  8
VISIBLE
100
AcDbSpline
210
0.0
220
0.0
230
1.0
 70
     8
 71
     3
 72
    11
 73
     7
 74
     0
 42
0.000000001
 43
0.0000000394751808
 40
-0.132174608158204
 40
-0.132174608158204
 40
-0.132174608158204
 40
-0.132174608158204
 40
-0.060686261274439
 40
-0.060686261274439
 40
-0.060686261274439
 40
0.0
 40
0.0
 40
0.0
 40
0.0
 10
392.0276804407756
 20
315.9466483915876
 30
0.0
 10
391.9875805825843
 20
316.1597287761556
 30
0.0
 10
391.9474807243931
 20
316.3728091607237
 30
0.0
 10
391.9663160258759
 20
316.5814116155278
 30
0.0
 10
391.9823052615597
 20
316.7584936663314
 30
0.0
 10
392.040764737783
 20
316.9323488020773
 30
0.0
 10
392.0992242140063
 20
317.1062039378232
 30
0.0
  0
SPLINE
  5
D4
330
1F
100
AcDbEntity
  8
VISIBLE
100
AcDbSpline
210
0.0
220
0.0
230
1.0
 70
     8
 71
     3
 72
    11
 73
     7
 74
     0
 42
0.000000001
 43
0.0000000395703609
 40
-0.101713847443657
 40
-0.101713847443657
 40
-0.101713847443657
 40
-0.101713847443657
 40
-0.0509718520806131
 40
-0.0509718520806131
 40
-0.0509718520806131
 40
0.0
 40
0.0
 40
0.0
 40
0.0
 10
392.0992242140063
 20
317.1062039378232
 30
0.0
 10
392.1872221657621
 20
317.2506235027367
 30
0.0
 10
392.2752201175179
 20
317.3950430676502
 30
0.0
 10
392.3960483136105
 20
317.5025196221731
 30
0.0
 10
392.5174238506649
 20
317.610483035911
 30
0.0
 10
392.6719277418986
 20
317.6811679840939
 30
0.0
 10
392.8264316331324
 20
317.7518529322767
 30
0.0
  0
SPLINE
  5
D5
330
1F
100
AcDbEntity
  8
VISIBLE
100
AcDbSpline
210
0.0
220
0.0
230
1.0
 70
     8
 71
     3
 72
    11
 73
     7
 74
     0
 42
0.000000001
 43
0.000000039632255
 40
-0.102368440841932
 40
-0.102368440841932
 40
-0.102368440841932
 40
-0.102368440841932
 40
-0.0488947580808096
 40
-0.0488947580808096
 40
-0.0488947580808096
 40
0.0
 40
0.0
 40
0.0
 40
0.0
 10
392.8264316331324
 20
317.7518529322767
 30
0.0
 10
392.9872187425372
 20
317.7972063412291
 30
0.0
 10
393.148005851942
 20
317.8425597501813
 30
0.0
 10
393.3073028271064
 20
317.8364755345225
 30
0.0
 10
393.4529592820483
 20
317.8309123072041
 30
0.0
 10
393.5973698753706
 20
317.7823434495432
 30
0.0
 10
393.7417804686932
 20
317.7337745918822
 30
0.0
  0
SPLINE
  5
D6
330
1F
100
AcDbEntity
  8
VISIBLE
100
AcDbSpline
210
0.0
220
0.0
230
1.0
 70
     8
 71
     3
 72
    11
 73
     7
 74
     0
 42
0.000000001
 43
0.0000000396589307
 40
-0.0968731051983479
 40
-0.0968731051983479
 40
-0.0968731051983479
 40
-0.0968731051983479
 40
-0.0507865771772495
 40
-0.0507865771772495
 40
-0.0507865771772495
 40
0.0
 40
0.0
 40
0.0
 40
0.0
 10
393.7417804686932
 20
317.7337745918822
 30
0.0
 10
393.870550687922
 20
317.6514032528964
 30
0.0
 10
393.9993209071509
 20
317.5690319139105
 30
0.0
 10
394.0954227743371
 20
317.4587593028561
 30
0.0
 10
394.2013254123596
 20
317.3372407439122
 30
0.0
 10
394.2675566864212
 20
317.1818398049281
 30
0.0
 10
394.3337879604831
 20
317.026438865944
 30
0.0
  0
SPLINE
  5
D7
330
1F
100
AcDbEntity
  8
VISIBLE
100
AcDbSpline
210
0.0
220
0.0
230
1.0
 70
     8
 71
     3
 72
    11
 73
     7
 74
     0
 42
0.000000001
 43
0.0000000396084311
 40
-0.122476583665915
 40
-0.122476583665915
 40
-0.122476583665915
 40
-0.122476583665915
 40
-0.0597065543266591
 40
-0.0597065543266591
 40
-0.0597065543266591
 40
0.0
 40
0.0
 40
0.0
 40
0.0
 10
394.3337879604831
 20
317.026438865944
 30
0.0
 10
394.3850670788019
 20
316.8322489608306
 30
0.0
 10
394.4363461971208
 20
316.6380590557172
 30
0.0
 10
394.4216238277941
 20
316.4486225264613
 30
0.0
 10
394.4076199798866
 20
316.2684313979159
 30
0.0
 10
394.3338998062054
 20
316.0925409927537
 30
0.0
 10
394.2601796325243
 20
315.9166505875914
 30
0.0
  0
SPLINE
  5
D8
330
1F
100
AcDbEntity
  8
VISIBLE
100
AcDbSpline
210
0.0
220
0.0
230
1.0
 70
     8
 71
     3
 72
    11
 73
     7
 74
     0
 42
0.000000001
 43
0.0000000395090778
 40
-0.139219886465022
 40
-0.139219886465022
 40
-0.139219886465022
 40
-0.139219886465022
 40
-0.076436323993554
 40
-0.076436323993554
 40
-0.076436323993554
 40
0.0
 40
0.0
 40
0.0
 40
0.0
 10
394.2601796325243
 20
315.9166505875914
 30
0.0
 10
394.1325969335404
 20
315.754163983643
 30
0.0
 10
394.0050142345565
 20
315.5916773796943
 30
0.0
 10
393.8469911142369
 20
315.4704378905045
 30
0.0
 10
393.6546046686809
 20
315.3228339554658
 30
0.0
 10
393.4170993405883
 20
315.236366615918
 30
0.0
 10
393.1795940124955
 20
315.1498992763702
 30
0.0
  0
LINE
  5
D9
330
1F
100
AcDbEntity
  8
VISIBLE
100
AcDbLine
 10
393.1795940125033
 20
315.1498992763585
 30
0.0
 11
393.5248133923462
 21
313.4929351560327
 31
0.0
  0
SPLINE
  5
DA
330
1F
100
AcDbEntity
  8
VISIBLE
100
AcDbSpline
210
0.0
220
0.0
230
1.0
 70
     8
 71
     3
 72
    11
 73
     7
 74
     0
 42
0.000000001
 43
0.0000000393585163
 40
-0.106641414927488
 40
-0.106641414927488
 40
-0.106641414927488
 40
-0.106641414927488
 40
-0.0484261692586984
 40
-0.0484261692586984
 40
-0.0484261692586984
 40
0.0
 40
0.0
 40
0.0
 40
0.0
 10
393.5248133923383
 20
313.4929351560445
 30
0.0
 10
393.6695085055348
 20
313.5915705649747
 30
0.0
 10
393.8142036187313
 20
313.6902059739049
 30
0.0
 10
393.9679745158705
 20
313.7720366035059
 30
0.0
 10
394.09588835367
 20
313.8401071557141
 30
0.0
 10
394.2300823543958
 20
313.8965493182654
 30
0.0
 10
394.3642763551217
 20
313.9529914808166
 30
0.0
  0
SPLINE
  5
DB
330
1F
100
AcDbEntity
  8
VISIBLE
100
AcDbSpline
210
0.0
220
0.0
230
1.0
 70
     8
 71
     3
 72
    11
 73
     7
 74
     0
 42
0.000000001
 43
0.0000000394329598
 40
-0.11739650227135
 40
-0.11739650227135
 40
-0.11739650227135
 40
-0.11739650227135
 40
-0.0591442745738596
 40
-0.0591442745738596
 40
-0.0591442745738596
 40
0.0
 40
0.0
 40
0.0
 40
0.0
 10
394.3642763551217
 20
313.9529914808166
 30
0.0
 10
394.5528102352351
 20
313.999001632341
 30
0.0
 10
394.7413441153485
 20
314.0450117838653
 30
0.0
 10
394.9251880886543
 20
314.0309639170506
 30
0.0
 10
395.1118473610243
 20
314.0167009278929
 30
0.0
 10
395.2936719887855
 20
313.9405264367612
 30
0.0
 10
395.4754966165467
 20
313.8643519456296
 30
0.0
  0
SPLINE
  5
DC
330
1F
100
AcDbEntity
  8
VISIBLE
100
AcDbSpline
210
0.0
220
0.0
230
1.0
 70
     8
 71
     3
 72
    11
 73
     7
 74
     0
 42
0.000000001
 43
0.0000000394672591
 40
-0.135956861098757
 40
-0.135956861098757
 40
-0.135956861098757
 40
-0.135956861098757
 40
-0.0722929810035866
 40
-0.0722929810035866
 40
-0.0722929810035866
 40
0.0
 40
0.0
 40
0.0
 40
0.0
 10
395.4754966165467
 20
313.8643519456296
 30
0.0
 10
395.6475648679194
 20
313.7426327205469
 30
0.0
 10
395.8196331192921
 20
313.620913495464
 30
0.0
 10
395.9489714806145
 20
313.4646902359815
 30
0.0
 10
396.0958405637451
 20
313.2872922339558
 30
0.0
 10
396.1876113932094
 20
313.0654028457452
 30
0.0
 10
396.2793822226738
 20
312.8435134575346
 30
0.0
  0
SPLINE
  5
DD
330
1F
100
AcDbEntity
  8
VISIBLE
100
AcDbSpline
210
0.0
220
0.0
230
1.0
 70
     8
 71
     3
 72
    11
 73
     7
 74
     0
 42
0.000000001
 43
0.0000000393948995
 40
-0.155408817321413
 40
-0.155408817321413
 40
-0.155408817321413
 40
-0.155408817321413
 40
-0.0727558265031784
 40
-0.0727558265031784
 40
-0.0727558265031784
 40
0.0
 40
0.0
 40
0.0
 40
0.0
 10
396.2793822226738
 20
312.8435134575346
 30
0.0
 10
396.3515814471343
 20
312.6002147956226
 30
0.0
 10
396.4237806715948
 20
312.3569161337106
 30
0.0
 10
396.4221160391118
 20
312.1132283743105
 30
0.0
 10
396.4206507356674
 20
311.8987206575499
 30
0.0
 10
396.3619519207433
 20
311.6839114480639
 30
0.0
 10
396.3032531058192
 20
311.4691022385778
 30
0.0
  0
SPLINE
  5
DE
330
1F
100
AcDbEntity
  8
VISIBLE
100
AcDbSpline
210
0.0
220
0.0
230
1.0
 70
     8
 71
     3
 72
    11
 73
     7
 74
     0
 42
0.000000001
 43
0.000000039278499
 40
-0.12548634388911
 40
-0.12548634388911
 40
-0.12548634388911
 40
-0.12548634388911
 40
-0.0623642744136981
 40
-0.0623642744136981
 40
-0.0623642744136981
 40
0.0
 40
0.0
 40
0.0
 40
0.0
 10
396.3032531058192
 20
311.4691022385778
 30
0.0
 10
396.2060153551027
 20
311.285161438505
 30
0.0
 10
396.1087776043863
 20
311.1012206384322
 30
0.0
 10
395.9658224897536
 20
310.965198267437
 30
0.0
 10
395.8245835843773
 20
310.8308088765054
 30
0.0
 10
395.6387184211247
 20
310.7431942772472
 30
0.0
 10
395.4528532578723
 20
310.655579677989
 30
0.0
  0
SPLINE
  5
DF
330
1F
100
AcDbEntity
  8
VISIBLE
100
AcDbSpline
210
0.0
220
0.0
230
1.0
 70
     8
 71
     3
 72
    11
 73
     7
 74
     0
 42
0.000000001
 43
0.0000000391655733
 40
-0.115037358196695
 40
-0.115037358196695
 40
-0.115037358196695
 40
-0.115037358196695
 40
-0.0571593180989554
 40
-0.0571593180989554
 40
-0.0571593180989554
 40
0.0
 40
0.0
 40
0.0
 40
0.0
 10
395.4528532578723
 20
310.655579677989
 30
0.0
 10
395.2682820954375
 20
310.607652968873
 30
0.0
 10
395.0837109330029
 20
310.559726259757
 30
0.0
 10
394.9013942453441
 20
310.5673551093336
 30
0.0
 10
394.7213415426777
 20
310.574889224845
 30
0.0
 10
394.5434876708844
 20
310.6366077024594
 30
0.0
 10
394.3656337990909
 20
310.6983261800736
 30
0.0
  0
SPLINE
  5
E0
330
1F
100
AcDbEntity
  8
VISIBLE
100
AcDbSpline
210
0.0
220
0.0
230
1.0
 70
     8
 71
     3
 72
    11
 73
     7
 74
     0
 42
0.000000001
 43
0.0000000391731736
 40
-0.132350797757114
 40
-0.132350797757114
 40
-0.132350797757114
 40
-0.132350797757114
 40
-0.0711896269329703
 40
-0.0711896269329703
 40
-0.0711896269329703
 40
0.0
 40
0.0
 40
0.0
 40
0.0
 10
394.3656337990909
 20
310.6983261800736
 30
0.0
 10
394.1936886205176
 20
310.804736255656
 30
0.0
 10
394.0217434419442
 20
310.9111463312383
 30
0.0
 10
393.883760500111
 20
311.0503465877189
 30
0.0
 10
393.7231528135696
 20
311.2123711891824
 30
0.0
 10
393.608557871486
 20
311.4188206094806
 30
0.0
 10
393.4939629294025
 20
311.6252700297787
 30
0.0
  0
LINE
  5
E1
330
1F
100
AcDbEntity
  8
VISIBLE
100
AcDbLine
 10
393.4939629294104
 20
311.625270029767
 30
0.0
 11
391.6963861688499
 21
310.7331112224946
 31
0.0
  0
SPLINE
  5
E2
330
1F
100
AcDbEntity
  8
VISIBLE
100
AcDbSpline
210
0.0
220
0.0
230
1.0
 70
     8
 71
     3
 72
    11
 73
     7
 74
     0
 42
0.000000001
 43
0.0000000390483841
 40
-0.264697113619555
 40
-0.264697113619555
 40
-0.264697113619555
 40
-0.264697113619555
 40
-0.129863569778138
 40
-0.129863569778138
 40
-0.129863569778138
 40
0.0
 40
0.0
 40
0.0
 40
0.0
 10
391.696386168842
 20
310.7331112225063
 30
0.0
 10
391.9159709619403
 20
310.3574253016857
 30
0.0
 10
392.1355557550384
 20
309.9817393808652
 30
0.0
 10
392.4400525218101
 20
309.6958292453223
 30
0.0
 10
392.7333255159945
 20
309.4204577778111
 30
0.0
 10
393.1053661279306
 20
309.2283657870589
 30
0.0
 10
393.4774067398665
 20
309.0362737963068
 30
0.0
  0
SPLINE
  5
E3
330
1F
100
AcDbEntity
  8
VISIBLE
100
AcDbSpline
210
0.0
220
0.0
230
1.0
 70
     8
 71
     3
 72
    11
 73
     7
 74
     0
 42
0.000000001
 43
0.0000000390706994
 40
-0.266281978643133
 40
-0.266281978643133
 40
-0.266281978643133
 40
-0.266281978643133
 40
-0.138059646229226
 40
-0.138059646229226
 40
-0.138059646229226
 40
0.0
 40
0.0
 40
0.0
 40
0.0
 10
393.4774067398665
 20
309.0362737963068
 30
0.0
 10
393.8879307695158
 20
308.9221230714033
 30
0.0
 10
394.298454799165
 20
308.8079723464998
 30
0.0
 10
394.7090811270067
 20
308.8047566800846
 30
0.0
 10
395.1512110156693
 20
308.8012943053226
 30
0.0
 10
395.5934595014476
 20
308.9264420033016
 30
0.0
 10
396.035707987226
 20
309.0515897012805
 30
0.0
  0
ARC
  5
E4
330
1F
100
AcDbEntity
  8
VISIBLE
100
AcDbCircle
 10
399.582057428998
 20
218.7046587052811
 30
-0.0000000000000005
 40
8.0
100
AcDbArc
 50
52.02725467328986
 51
114.5241371977147
  0
LINE
  5
E5
330
1F
100
AcDbEntity
  8
VISIBLE
100
AcDbLine
 10
389.5076051034416
 20
168.6999607496709
 30
0.0
 11
396.2614450411415
 21
225.9829506319363
 31
0.0
  0
ARC
  5
E6
330
1F
100
AcDbEntity
  8
VISIBLE
100
AcDbCircle
 10
391.1471369424545
 20
258.0954616384875
 30
0.0
 40
89.4105343
100
AcDbArc
 50
268.9374353096052
 51
268.9493014358791
  0
ARC
  5
E7
330
1F
100
AcDbEntity
  8
VISIBLE
100
AcDbCircle
 10
390.9939248086462
 20
151.5889224408957
 30
0.0
 40
17.0961150971321
100
AcDbArc
 50
35.87784968177415
 51
66.89876382666367
  0
LINE
  5
E8
330
1F
100
AcDbEntity
  8
VISIBLE
100
AcDbLine
 10
397.7017045890011
 20
167.314151909258
 30
0.0
 11
404.5043499229749
 21
225.0110869022669
 31
0.0
  0
SPLINE
  5
E9
330
1F
100
AcDbEntity
  8
VISIBLE
100
AcDbSpline
210
0.0
220
0.0
230
1.0
 70
     8
 71
     3
 72
  1097
 73
  1093
 74
     0
 42
0.000000001
 43
0.0000000538795685
 40
-60.4006892048791
 40
-60.4006892048791
 40
-60.4006892048791
 40
-60.4006892048791
 40
-60.2547733760467
 40
-60.2547733760467
 40
-60.2547733760467
 40
-60.09827294320939
 40
-60.09827294320939
 40
-60.09827294320939
 40
-59.9251061629759
 40
-59.9251061629759
 40
-59.9251061629759
 40
-59.7263343036864
 40
-59.7263343036864
 40
-59.7263343036864
 40
-59.5167692964789
 40
-59.5167692964789
 40
-59.5167692964789
 40
-59.3376089069032
 40
-59.3376089069032
 40
-59.3376089069032
 40
-59.1817820385842
 40
-59.1817820385842
 40
-59.1817820385842
 40
-59.0387049517937
 40
-59.0387049517937
 40
-59.0387049517937
 40
-58.9033169061327
 40
-58.9033169061327
 40
-58.9033169061327
 40
-58.7686458320926
 40
-58.7686458320926
 40
-58.7686458320926
 40
-58.63197866811529
 40
-58.63197866811529
 40
-58.63197866811529
 40
-58.4931490918196
 40
-58.4931490918196
 40
-58.4931490918196
 40
-58.3502474624748
 40
-58.3502474624748
 40
-58.3502474624748
 40
-58.1933249818872
 40
-58.1933249818872
 40
-58.1933249818872
 40
-58.0046845145793
 40
-58.0046845145793
 40
-58.0046845145793
 40
-57.8045759946481
 40
-57.8045759946481
 40
-57.8045759946481
 40
-57.6433083527746
 40
-57.6433083527746
 40
-57.6433083527746
 40
-57.4974188887433
 40
-57.4974188887433
 40
-57.4974188887433
 40
-57.36096897764011
 40
-57.36096897764011
 40
-57.36096897764011
 40
-57.2315435943197
 40
-57.2315435943197
 40
-57.2315435943197
 40
-57.1074719317593
 40
-57.1074719317593
 40
-57.1074719317593
 40
-56.9876429022097
 40
-56.9876429022097
 40
-56.9876429022097
 40
-56.8698626778167
 40
-56.8698626778167
 40
-56.8698626778167
 40
-56.7484353934672
 40
-56.7484353934672
 40
-56.7484353934672
 40
-56.6204428693883
 40
-56.6204428693883
 40
-56.6204428693883
 40
-56.48304508612129
 40
-56.48304508612129
 40
-56.48304508612129
 40
-56.3304790149616
 40
-56.3304790149616
 40
-56.3304790149616
 40
-56.1460419651862
 40
-56.1460419651862
 40
-56.1460419651862
 40
-55.9267214887597
 40
-55.9267214887597
 40
-55.9267214887597
 40
-55.7701304261102
 40
-55.7701304261102
 40
-55.7701304261102
 40
-55.6343971833089
 40
-55.6343971833089
 40
-55.6343971833089
 40
-55.509177582502
 40
-55.509177582502
 40
-55.509177582502
 40
-55.390500814126
 40
-55.390500814126
 40
-55.390500814126
 40
-55.2737362888929
 40
-55.2737362888929
 40
-55.2737362888929
 40
-55.1569989118805
 40
-55.1569989118805
 40
-55.1569989118805
 40
-55.0402773590947
 40
-55.0402773590947
 40
-55.0402773590947
 40
-54.92352136323419
 40
-54.92352136323419
 40
-54.92352136323419
 40
-54.8044392226563
 40
-54.8044392226563
 40
-54.8044392226563
 40
-54.6790156550778
 40
-54.6790156550778
 40
-54.6790156550778
 40
-54.54418672686869
 40
-54.54418672686869
 40
-54.54418672686869
 40
-54.3934726283146
 40
-54.3934726283146
 40
-54.3934726283146
 40
-54.2121626791968
 40
-54.2121626791968
 40
-54.2121626791968
 40
-54.0003964187312
 40
-54.0003964187312
 40
-54.0003964187312
 40
-53.8271769542177
 40
-53.8271769542177
 40
-53.8271769542177
 40
-53.6839665693322
 40
-53.6839665693322
 40
-53.6839665693322
 40
-53.5542846566501
 40
-53.5542846566501
 40
-53.5542846566501
 40
-53.4327610756727
 40
-53.4327610756727
 40
-53.4327610756727
 40
-53.3152943471145
 40
-53.3152943471145
 40
-53.3152943471145
 40
-53.1976177172534
 40
-53.1976177172534
 40
-53.1976177172534
 40
-53.0792516517818
 40
-53.0792516517818
 40
-53.0792516517818
 40
-52.9601746255744
 40
-52.9601746255744
 40
-52.9601746255744
 40
-52.83969601672941
 40
-52.83969601672941
 40
-52.83969601672941
 40
-52.7138986470358
 40
-52.7138986470358
 40
-52.7138986470358
 40
-52.5794446873103
 40
-52.5794446873103
 40
-52.5794446873103
 40
-52.4313515505477
 40
-52.4313515505477
 40
-52.4313515505477
 40
-52.2590880508172
 40
-52.2590880508172
 40
-52.2590880508172
 40
-52.0549509881187
 40
-52.0549509881187
 40
-52.0549509881187
 40
-51.8848837662525
 40
-51.8848837662525
 40
-51.8848837662525
 40
-51.7375396353472
 40
-51.7375396353472
 40
-51.7375396353472
 40
-51.6046064136493
 40
-51.6046064136493
 40
-51.6046064136493
 40
-51.4803548903119
 40
-51.4803548903119
 40
-51.4803548903119
 40
-51.3619011490918
 40
-51.3619011490918
 40
-51.3619011490918
 40
-51.2441568588786
 40
-51.2441568588786
 40
-51.2441568588786
 40
-51.1245032196669
 40
-51.1245032196669
 40
-51.1245032196669
 40
-51.0027296797745
 40
-51.0027296797745
 40
-51.0027296797745
 40
-50.8785740028009
 40
-50.8785740028009
 40
-50.8785740028009
 40
-50.7498102401753
 40
-50.7498102401753
 40
-50.7498102401753
 40
-50.6122347068409
 40
-50.6122347068409
 40
-50.6122347068409
 40
-50.4606355670427
 40
-50.4606355670427
 40
-50.4606355670427
 40
-50.2812692041563
 40
-50.2812692041563
 40
-50.2812692041563
 40
-50.0848579963275
 40
-50.0848579963275
 40
-50.0848579963275
 40
-49.9145222401786
 40
-49.9145222401786
 40
-49.9145222401786
 40
-49.7650984838877
 40
-49.7650984838877
 40
-49.7650984838877
 40
-49.6303237921257
 40
-49.6303237921257
 40
-49.6303237921257
 40
-49.5045279543741
 40
-49.5045279543741
 40
-49.5045279543741
 40
-49.3849734035405
 40
-49.3849734035405
 40
-49.3849734035405
 40
-49.2682938608897
 40
-49.2682938608897
 40
-49.2682938608897
 40
-49.1510904154408
 40
-49.1510904154408
 40
-49.1510904154408
 40
-49.0331404766599
 40
-49.0331404766599
 40
-49.0331404766599
 40
-48.9144162343846
 40
-48.9144162343846
 40
-48.9144162343846
 40
-48.79408314626721
 40
-48.79408314626721
 40
-48.79408314626721
 40
-48.6681207447342
 40
-48.6681207447342
 40
-48.6681207447342
 40
-48.5333998033466
 40
-48.5333998033466
 40
-48.5333998033466
 40
-48.3845204429391
 40
-48.3845204429391
 40
-48.3845204429391
 40
-48.2060476578408
 40
-48.2060476578408
 40
-48.2060476578408
 40
-47.9850574946718
 40
-47.9850574946718
 40
-47.9850574946718
 40
-47.8079151465935
 40
-47.8079151465935
 40
-47.8079151465935
 40
-47.6609420434331
 40
-47.6609420434331
 40
-47.6609420434331
 40
-47.52840724767169
 40
-47.52840724767169
 40
-47.52840724767169
 40
-47.4044292757421
 40
-47.4044292757421
 40
-47.4044292757421
 40
-47.2856963518552
 40
-47.2856963518552
 40
-47.2856963518552
 40
-47.1679505239287
 40
-47.1679505239287
 40
-47.1679505239287
 40
-47.0505157120148
 40
-47.0505157120148
 40
-47.0505157120148
 40
-46.9333870510693
 40
-46.9333870510693
 40
-46.9333870510693
 40
-46.8163714570508
 40
-46.8163714570508
 40
-46.8163714570508
 40
-46.6967640795787
 40
-46.6967640795787
 40
-46.6967640795787
 40
-46.5725003587937
 40
-46.5725003587937
 40
-46.5725003587937
 40
-46.4422581429522
 40
-46.4422581429522
 40
-46.4422581429522
 40
-46.3038791531174
 40
-46.3038791531174
 40
-46.3038791531174
 40
-46.1555995582412
 40
-46.1555995582412
 40
-46.1555995582412
 40
-45.9933662219105
 40
-45.9933662219105
 40
-45.9933662219105
 40
-45.7990397819012
 40
-45.7990397819012
 40
-45.7990397819012
 40
-45.5980319173313
 40
-45.5980319173313
 40
-45.5980319173313
 40
-45.4199146051542
 40
-45.4199146051542
 40
-45.4199146051542
 40
-45.2679144587685
 40
-45.2679144587685
 40
-45.2679144587685
 40
-45.1286156277418
 40
-45.1286156277418
 40
-45.1286156277418
 40
-44.9977006634278
 40
-44.9977006634278
 40
-44.9977006634278
 40
-44.87279864101161
 40
-44.87279864101161
 40
-44.87279864101161
 40
-44.7514636569072
 40
-44.7514636569072
 40
-44.7514636569072
 40
-44.6291449693694
 40
-44.6291449693694
 40
-44.6291449693694
 40
-44.505210300669
 40
-44.505210300669
 40
-44.505210300669
 40
-44.3795258514475
 40
-44.3795258514475
 40
-44.3795258514475
 40
-44.2516233119777
 40
-44.2516233119777
 40
-44.2516233119777
 40
-44.1192130223826
 40
-44.1192130223826
 40
-44.1192130223826
 40
-43.9807184418168
 40
-43.9807184418168
 40
-43.9807184418168
 40
-43.8340468722302
 40
-43.8340468722302
 40
-43.8340468722302
 40
-43.6762560038781
 40
-43.6762560038781
 40
-43.6762560038781
 40
-43.50280803240531
 40
-43.50280803240531
 40
-43.50280803240531
 40
-43.2988937019544
 40
-43.2988937019544
 40
-43.2988937019544
 40
-43.1022801485476
 40
-43.1022801485476
 40
-43.1022801485476
 40
-42.93391186671739
 40
-42.93391186671739
 40
-42.93391186671739
 40
-42.7770838593548
 40
-42.7770838593548
 40
-42.7770838593548
 40
-42.6303105586703
 40
-42.6303105586703
 40
-42.6303105586703
 40
-42.4898769197727
 40
-42.4898769197727
 40
-42.4898769197727
 40
-42.3544317016613
 40
-42.3544317016613
 40
-42.3544317016613
 40
-42.2219935651986
 40
-42.2219935651986
 40
-42.2219935651986
 40
-42.0867141106567
 40
-42.0867141106567
 40
-42.0867141106567
 40
-41.9473822443444
 40
-41.9473822443444
 40
-41.9473822443444
 40
-41.8031584740044
 40
-41.8031584740044
 40
-41.8031584740044
 40
-41.6533630316466
 40
-41.6533630316466
 40
-41.6533630316466
 40
-41.4906545823042
 40
-41.4906545823042
 40
-41.4906545823042
 40
-41.3216118640868
 40
-41.3216118640868
 40
-41.3216118640868
 40
-41.1388097280775
 40
-41.1388097280775
 40
-41.1388097280775
 40
-40.9324884199184
 40
-40.9324884199184
 40
-40.9324884199184
 40
-40.6909468875981
 40
-40.6909468875981
 40
-40.6909468875981
 40
-40.4867673549381
 40
-40.4867673549381
 40
-40.4867673549381
 40
-40.3084442099348
 40
-40.3084442099348
 40
-40.3084442099348
 40
-40.14190822697061
 40
-40.14190822697061
 40
-40.14190822697061
 40
-39.9825860160272
 40
-39.9825860160272
 40
-39.9825860160272
 40
-39.8264040394021
 40
-39.8264040394021
 40
-39.8264040394021
 40
-39.6708321486232
 40
-39.6708321486232
 40
-39.6708321486232
 40
-39.5129396189451
 40
-39.5129396189451
 40
-39.5129396189451
 40
-39.3503941161362
 40
-39.3503941161362
 40
-39.3503941161362
 40
-39.1832019961103
 40
-39.1832019961103
 40
-39.1832019961103
 40
-39.011878295672
 40
-39.011878295672
 40
-39.011878295672
 40
-38.8358839499213
 40
-38.8358839499213
 40
-38.8358839499213
 40
-38.6538276606726
 40
-38.6538276606726
 40
-38.6538276606726
 40
-38.4634716493929
 40
-38.4634716493929
 40
-38.4634716493929
 40
-38.2624899595541
 40
-38.2624899595541
 40
-38.2624899595541
 40
-38.0485824342934
 40
-38.0485824342934
 40
-38.0485824342934
 40
-37.8201502956753
 40
-37.8201502956753
 40
-37.8201502956753
 40
-37.5839426047228
 40
-37.5839426047228
 40
-37.5839426047228
 40
-37.3590085413868
 40
-37.3590085413868
 40
-37.3590085413868
 40
-37.1452649618414
 40
-37.1452649618414
 40
-37.1452649618414
 40
-36.927075608381
 40
-36.927075608381
 40
-36.927075608381
 40
-36.7075754911306
 40
-36.7075754911306
 40
-36.7075754911306
 40
-36.4917648735368
 40
-36.4917648735368
 40
-36.4917648735368
 40
-36.2830285196653
 40
-36.2830285196653
 40
-36.2830285196653
 40
-36.08263253365291
 40
-36.08263253365291
 40
-36.08263253365291
 40
-35.8902523068721
 40
-35.8902523068721
 40
-35.8902523068721
 40
-35.7045914841229
 40
-35.7045914841229
 40
-35.7045914841229
 40
-35.5238182854191
 40
-35.5238182854191
 40
-35.5238182854191
 40
-35.3471776895955
 40
-35.3471776895955
 40
-35.3471776895955
 40
-35.1747658584028
 40
-35.1747658584028
 40
-35.1747658584028
 40
-35.007465303138
 40
-35.007465303138
 40
-35.007465303138
 40
-34.8446646454522
 40
-34.8446646454522
 40
-34.8446646454522
 40
-34.6843109541402
 40
-34.6843109541402
 40
-34.6843109541402
 40
-34.5221017664371
 40
-34.5221017664371
 40
-34.5221017664371
 40
-34.35719682870889
 40
-34.35719682870889
 40
-34.35719682870889
 40
-34.1884355496912
 40
-34.1884355496912
 40
-34.1884355496912
 40
-34.0105725566748
 40
-34.0105725566748
 40
-34.0105725566748
 40
-33.8181890478947
 40
-33.8181890478947
 40
-33.8181890478947
 40
-33.60123382920391
 40
-33.60123382920391
 40
-33.60123382920391
 40
-33.3094659991852
 40
-33.3094659991852
 40
-33.3094659991852
 40
-33.0492357960665
 40
-33.0492357960665
 40
-33.0492357960665
 40
-32.8424283787565
 40
-32.8424283787565
 40
-32.8424283787565
 40
-32.6553136731257
 40
-32.6553136731257
 40
-32.6553136731257
 40
-32.4813998799906
 40
-32.4813998799906
 40
-32.4813998799906
 40
-32.3166135729051
 40
-32.3166135729051
 40
-32.3166135729051
 40
-32.1578121630261
 40
-32.1578121630261
 40
-32.1578121630261
 40
-32.0016905835813
 40
-32.0016905835813
 40
-32.0016905835813
 40
-31.8477385959379
 40
-31.8477385959379
 40
-31.8477385959379
 40
-31.6951616286811
 40
-31.6951616286811
 40
-31.6951616286811
 40
-31.5400134977052
 40
-31.5400134977052
 40
-31.5400134977052
 40
-31.3806525634682
 40
-31.3806525634682
 40
-31.3806525634682
 40
-31.2163626981981
 40
-31.2163626981981
 40
-31.2163626981981
 40
-31.047485823371
 40
-31.047485823371
 40
-31.047485823371
 40
-30.8740492887354
 40
-30.8740492887354
 40
-30.8740492887354
 40
-30.6951895445625
 40
-30.6951895445625
 40
-30.6951895445625
 40
-30.5086691283817
 40
-30.5086691283817
 40
-30.5086691283817
 40
-30.3114539846845
 40
-30.3114539846845
 40
-30.3114539846845
 40
-30.0992130983245
 40
-30.0992130983245
 40
-30.0992130983245
 40
-29.8649928513524
 40
-29.8649928513524
 40
-29.8649928513524
 40
-29.5930298294967
 40
-29.5930298294967
 40
-29.5930298294967
 40
-29.3562738979419
 40
-29.3562738979419
 40
-29.3562738979419
 40
-29.1269280081142
 40
-29.1269280081142
 40
-29.1269280081142
 40
-28.9219158057401
 40
-28.9219158057401
 40
-28.9219158057401
 40
-28.7271576860004
 40
-28.7271576860004
 40
-28.7271576860004
 40
-28.5365172983145
 40
-28.5365172983145
 40
-28.5365172983145
 40
-28.3437803220406
 40
-28.3437803220406
 40
-28.3437803220406
 40
-28.148809487538
 40
-28.148809487538
 40
-28.148809487538
 40
-27.9528535716721
 40
-27.9528535716721
 40
-27.9528535716721
 40
-27.7564228445074
 40
-27.7564228445074
 40
-27.7564228445074
 40
-27.5593742152311
 40
-27.5593742152311
 40
-27.5593742152311
 40
-27.361139250751
 40
-27.361139250751
 40
-27.361139250751
 40
-27.1616819645978
 40
-27.1616819645978
 40
-27.1616819645978
 40
-26.9612180619384
 40
-26.9612180619384
 40
-26.9612180619384
 40
-26.7505835458295
 40
-26.7505835458295
 40
-26.7505835458295
 40
-26.5415946118777
 40
-26.5415946118777
 40
-26.5415946118777
 40
-26.3342384039724
 40
-26.3342384039724
 40
-26.3342384039724
 40
-26.1285021664414
 40
-26.1285021664414
 40
-26.1285021664414
 40
-25.9231025250952
 40
-25.9231025250952
 40
-25.9231025250952
 40
-25.7160845729656
 40
-25.7160845729656
 40
-25.7160845729656
 40
-25.5013482411875
 40
-25.5013482411875
 40
-25.5013482411875
 40
-25.2724472635478
 40
-25.2724472635478
 40
-25.2724472635478
 40
-25.0239626284116
 40
-25.0239626284116
 40
-25.0239626284116
 40
-24.7529672995259
 40
-24.7529672995259
 40
-24.7529672995259
 40
-24.4847392033432
 40
-24.4847392033432
 40
-24.4847392033432
 40
-24.2420969548761
 40
-24.2420969548761
 40
-24.2420969548761
 40
-24.0184457908814
 40
-24.0184457908814
 40
-24.0184457908814
 40
-23.8077433483452
 40
-23.8077433483452
 40
-23.8077433483452
 40
-23.6069300558778
 40
-23.6069300558778
 40
-23.6069300558778
 40
-23.4142842961149
 40
-23.4142842961149
 40
-23.4142842961149
 40
-23.2281702405751
 40
-23.2281702405751
 40
-23.2281702405751
 40
-23.0467001605706
 40
-23.0467001605706
 40
-23.0467001605706
 40
-22.8666478155662
 40
-22.8666478155662
 40
-22.8666478155662
 40
-22.6880021295071
 40
-22.6880021295071
 40
-22.6880021295071
 40
-22.5081477124151
 40
-22.5081477124151
 40
-22.5081477124151
 40
-22.3192253984534
 40
-22.3192253984534
 40
-22.3192253984534
 40
-22.1183016211544
 40
-22.1183016211544
 40
-22.1183016211544
 40
-21.9019597501772
 40
-21.9019597501772
 40
-21.9019597501772
 40
-21.6650966133797
 40
-21.6650966133797
 40
-21.6650966133797
 40
-21.4149007165694
 40
-21.4149007165694
 40
-21.4149007165694
 40
-21.1853172391627
 40
-21.1853172391627
 40
-21.1853172391627
 40
-20.9766992880958
 40
-20.9766992880958
 40
-20.9766992880958
 40
-20.7819836602504
 40
-20.7819836602504
 40
-20.7819836602504
 40
-20.5973707767599
 40
-20.5973707767599
 40
-20.5973707767599
 40
-20.4207706775259
 40
-20.4207706775259
 40
-20.4207706775259
 40
-20.2505477923409
 40
-20.2505477923409
 40
-20.2505477923409
 40
-20.0852974971573
 40
-20.0852974971573
 40
-20.0852974971573
 40
-19.9238600100572
 40
-19.9238600100572
 40
-19.9238600100572
 40
-19.7657163657299
 40
-19.7657163657299
 40
-19.7657163657299
 40
-19.6086975443505
 40
-19.6086975443505
 40
-19.6086975443505
 40
-19.4479925979799
 40
-19.4479925979799
 40
-19.4479925979799
 40
-19.2817328163315
 40
-19.2817328163315
 40
-19.2817328163315
 40
-19.1086673457309
 40
-19.1086673457309
 40
-19.1086673457309
 40
-18.927369588964
 40
-18.927369588964
 40
-18.927369588964
 40
-18.7350933812111
 40
-18.7350933812111
 40
-18.7350933812111
 40
-18.5263357007674
 40
-18.5263357007674
 40
-18.5263357007674
 40
-18.2873373429007
 40
-18.2873373429007
 40
-18.2873373429007
 40
-18.0015976969179
 40
-18.0015976969179
 40
-18.0015976969179
 40
-17.7653602159493
 40
-17.7653602159493
 40
-17.7653602159493
 40
-17.5615451418591
 40
-17.5615451418591
 40
-17.5615451418591
 40
-17.372525463961
 40
-17.372525463961
 40
-17.372525463961
 40
-17.1933046682442
 40
-17.1933046682442
 40
-17.1933046682442
 40
-17.0223529549034
 40
-17.0223529549034
 40
-17.0223529549034
 40
-16.8590664904684
 40
-16.8590664904684
 40
-16.8590664904684
 40
-16.7017880149306
 40
-16.7017880149306
 40
-16.7017880149306
 40
-16.5471480965738
 40
-16.5471480965738
 40
-16.5471480965738
 40
-16.3902712354903
 40
-16.3902712354903
 40
-16.3902712354903
 40
-16.2304565805932
 40
-16.2304565805932
 40
-16.2304565805932
 40
-16.0667743126076
 40
-16.0667743126076
 40
-16.0667743126076
 40
-15.8953588956758
 40
-15.8953588956758
 40
-15.8953588956758
 40
-15.7130382154543
 40
-15.7130382154543
 40
-15.7130382154543
 40
-15.516705454314
 40
-15.516705454314
 40
-15.516705454314
 40
-15.3076001137161
 40
-15.3076001137161
 40
-15.3076001137161
 40
-15.0955862056236
 40
-15.0955862056236
 40
-15.0955862056236
 40
-14.8962128713869
 40
-14.8962128713869
 40
-14.8962128713869
 40
-14.7118699663927
 40
-14.7118699663927
 40
-14.7118699663927
 40
-14.5386483144883
 40
-14.5386483144883
 40
-14.5386483144883
 40
-14.3727801954244
 40
-14.3727801954244
 40
-14.3727801954244
 40
-14.2127079233099
 40
-14.2127079233099
 40
-14.2127079233099
 40
-14.0576721549856
 40
-14.0576721549856
 40
-14.0576721549856
 40
-13.9080888943886
 40
-13.9080888943886
 40
-13.9080888943886
 40
-13.7632113969813
 40
-13.7632113969813
 40
-13.7632113969813
 40
-13.622219288073
 40
-13.622219288073
 40
-13.622219288073
 40
-13.4818377608142
 40
-13.4818377608142
 40
-13.4818377608142
 40
-13.3393999418602
 40
-13.3393999418602
 40
-13.3393999418602
 40
-13.1946925354732
 40
-13.1946925354732
 40
-13.1946925354732
 40
-13.0471666045883
 40
-13.0471666045883
 40
-13.0471666045883
 40
-12.8940650902215
 40
-12.8940650902215
 40
-12.8940650902215
 40
-12.7332666263337
 40
-12.7332666263337
 40
-12.7332666263337
 40
-12.5620215126535
 40
-12.5620215126535
 40
-12.5620215126535
 40
-12.3777703666118
 40
-12.3777703666118
 40
-12.3777703666118
 40
-12.16624507525
 40
-12.16624507525
 40
-12.16624507525
 40
-11.9501676380384
 40
-11.9501676380384
 40
-11.9501676380384
 40
-11.7580454320903
 40
-11.7580454320903
 40
-11.7580454320903
 40
-11.5743259722139
 40
-11.5743259722139
 40
-11.5743259722139
 40
-11.4049659800504
 40
-11.4049659800504
 40
-11.4049659800504
 40
-11.2438328663894
 40
-11.2438328663894
 40
-11.2438328663894
 40
-11.0890773272801
 40
-11.0890773272801
 40
-11.0890773272801
 40
-10.940524459756
 40
-10.940524459756
 40
-10.940524459756
 40
-10.7978941337717
 40
-10.7978941337717
 40
-10.7978941337717
 40
-10.6600011086974
 40
-10.6600011086974
 40
-10.6600011086974
 40
-10.5256586609154
 40
-10.5256586609154
 40
-10.5256586609154
 40
-10.3914991503957
 40
-10.3914991503957
 40
-10.3914991503957
 40
-10.256959939412
 40
-10.256959939412
 40
-10.256959939412
 40
-10.1220459889256
 40
-10.1220459889256
 40
-10.1220459889256
 40
-9.9856237139095
 40
-9.9856237139095
 40
-9.9856237139095
 40
-9.843086623588729
 40
-9.843086623588729
 40
-9.843086623588729
 40
-9.686548449092319
 40
-9.686548449092319
 40
-9.686548449092319
 40
-9.51691570096022
 40
-9.51691570096022
 40
-9.51691570096022
 40
-9.33304469329122
 40
-9.33304469329122
 40
-9.33304469329122
 40
-9.14037893953653
 40
-9.14037893953653
 40
-9.14037893953653
 40
-8.958857673945781
 40
-8.958857673945781
 40
-8.958857673945781
 40
-8.794289307253791
 40
-8.794289307253791
 40
-8.794289307253791
 40
-8.64159085835586
 40
-8.64159085835586
 40
-8.64159085835586
 40
-8.49671916172503
 40
-8.49671916172503
 40
-8.49671916172503
 40
-8.35716991989332
 40
-8.35716991989332
 40
-8.35716991989332
 40
-8.22193693689953
 40
-8.22193693689953
 40
-8.22193693689953
 40
-8.09045602843146
 40
-8.09045602843146
 40
-8.09045602843146
 40
-7.9630096536966
 40
-7.9630096536966
 40
-7.9630096536966
 40
-7.83858762785759
 40
-7.83858762785759
 40
-7.83858762785759
 40
-7.716109696172309
 40
-7.716109696172309
 40
-7.716109696172309
 40
-7.59554548216962
 40
-7.59554548216962
 40
-7.59554548216962
 40
-7.476865084010719
 40
-7.476865084010719
 40
-7.476865084010719
 40
-7.35836710840848
 40
-7.35836710840848
 40
-7.35836710840848
 40
-7.238572005765519
 40
-7.238572005765519
 40
-7.238572005765519
 40
-7.11737505337027
 40
-7.11737505337027
 40
-7.11737505337027
 40
-6.993670295447759
 40
-6.993670295447759
 40
-6.993670295447759
 40
-6.865298385496359
 40
-6.865298385496359
 40
-6.865298385496359
 40
-6.73077004505362
 40
-6.73077004505362
 40
-6.73077004505362
 40
-6.58782161333279
 40
-6.58782161333279
 40
-6.58782161333279
 40
-6.43345956264077
 40
-6.43345956264077
 40
-6.43345956264077
 40
-6.262542598811009
 40
-6.262542598811009
 40
-6.262542598811009
 40
-6.04308740463344
 40
-6.04308740463344
 40
-6.04308740463344
 40
-5.85424092323865
 40
-5.85424092323865
 40
-5.85424092323865
 40
-5.68716570485957
 40
-5.68716570485957
 40
-5.68716570485957
 40
-5.53821010720051
 40
-5.53821010720051
 40
-5.53821010720051
 40
-5.39858756773658
 40
-5.39858756773658
 40
-5.39858756773658
 40
-5.26506594951453
 40
-5.26506594951453
 40
-5.26506594951453
 40
-5.136314626747731
 40
-5.136314626747731
 40
-5.136314626747731
 40
-5.011534697655381
 40
-5.011534697655381
 40
-5.011534697655381
 40
-4.89105813987958
 40
-4.89105813987958
 40
-4.89105813987958
 40
-4.7743738128313
 40
-4.7743738128313
 40
-4.7743738128313
 40
-4.66085567182091
 40
-4.66085567182091
 40
-4.66085567182091
 40
-4.55004128281221
 40
-4.55004128281221
 40
-4.55004128281221
 40
-4.440320094094941
 40
-4.440320094094941
 40
-4.440320094094941
 40
-4.330209209597069
 40
-4.330209209597069
 40
-4.330209209597069
 40
-4.21969070442489
 40
-4.21969070442489
 40
-4.21969070442489
 40
-4.10875560169776
 40
-4.10875560169776
 40
-4.10875560169776
 40
-3.99727627244499
 40
-3.99727627244499
 40
-3.99727627244499
 40
-3.88312792599766
 40
-3.88312792599766
 40
-3.88312792599766
 40
-3.76178017831023
 40
-3.76178017831023
 40
-3.76178017831023
 40
-3.63609445292278
 40
-3.63609445292278
 40
-3.63609445292278
 40
-3.50375505964896
 40
-3.50375505964896
 40
-3.50375505964896
 40
-3.36413967005581
 40
-3.36413967005581
 40
-3.36413967005581
 40
-3.21483317162844
 40
-3.21483317162844
 40
-3.21483317162844
 40
-3.05003858287979
 40
-3.05003858287979
 40
-3.05003858287979
 40
-2.83619059582426
 40
-2.83619059582426
 40
-2.83619059582426
 40
-2.65892868358525
 40
-2.65892868358525
 40
-2.65892868358525
 40
-2.50608729781862
 40
-2.50608729781862
 40
-2.50608729781862
 40
-2.36436702049321
 40
-2.36436702049321
 40
-2.36436702049321
 40
-2.2284639828184
 40
-2.2284639828184
 40
-2.2284639828184
 40
-2.09718024651008
 40
-2.09718024651008
 40
-2.09718024651008
 40
-1.9661064811032
 40
-1.9661064811032
 40
-1.9661064811032
 40
-1.83523534034314
 40
-1.83523534034314
 40
-1.83523534034314
 40
-1.7011397306352
 40
-1.7011397306352
 40
-1.7011397306352
 40
-1.5632849322024
 40
-1.5632849322024
 40
-1.5632849322024
 40
-1.42171700516211
 40
-1.42171700516211
 40
-1.42171700516211
 40
-1.2772172571837
 40
-1.2772172571837
 40
-1.2772172571837
 40
-1.12945249298062
 40
-1.12945249298062
 40
-1.12945249298062
 40
-0.975448182345065
 40
-0.975448182345065
 40
-0.975448182345065
 40
-0.872386504658546
 40
-0.872386504658546
 40
-0.872386504658546
 40
-0.872386504658546
 10
389.4890910651886
 20
168.7003022438979
 30
0.0
 10
389.1089288568698
 20
168.7073532563516
 30
0.0
 10
388.7287220482741
 20
168.7182443994852
 30
0.0
 10
388.3484731642284
 20
168.733003704074
 30
0.0
 10
387.9406413654769
 20
168.7488336354463
 30
0.0
 10
387.5327609337996
 20
168.7691136811861
 30
0.0
 10
387.1248421785646
 20
168.7939411552231
 30
0.0
 10
386.6734825486882
 20
168.8214126047417
 30
0.0
 10
386.2220755306042
 20
168.8544523236687
 30
0.0
 10
385.7706493339325
 20
168.893257894035
 30
0.0
 10
385.2524735942009
 20
168.9378013992159
 30
0.0
 10
384.7342715452442
 20
168.9899436946644
 30
0.0
 10
384.2161166819478
 20
169.0500460204709
 30
0.0
 10
383.6698264371946
 20
169.1134118529678
 30
0.0
 10
383.1235878789003
 20
169.1856293450435
 30
0.0
 10
382.5775330744087
 20
169.267142055342
 30
0.0
 10
382.1107023147986
 20
169.3368285413018
 30
0.0
 10
381.6440064874563
 20
169.4133105504706
 30
0.0
 10
381.1775587048595
 20
169.4968428496326
 30
0.0
 10
380.7718602278214
 20
169.5694960550243
 30
0.0
 10
380.3663496388374
 20
169.6474835415946
 30
0.0
 10
379.9611211956267
 20
169.7309395143739
 30
0.0
 10
379.589048614276
 20
169.8075671049131
 30
0.0
 10
379.2172139699129
 20
169.8888054111919
 30
0.0
 10
378.8457064106795
 20
169.9747192027245
 30
0.0
 10
378.4941638714714
 20
170.0560159399719
 30
0.0
 10
378.1429142235635
 20
170.1414995083615
 30
0.0
 10
377.792047614904
 20
170.2311822149935
 30
0.0
 10
377.4430390831513
 20
170.3203899908057
 30
0.0
 10
377.0944095421367
 20
170.4137528681402
 30
0.0
 10
376.7462629407207
 20
170.5112331003831
 30
0.0
 10
376.3929561225863
 20
170.61015818121
 30
0.0
 10
376.0401467718204
 20
170.7133235244846
 30
0.0
 10
375.687958163668
 20
170.8206372717522
 30
0.0
 10
375.3301970612713
 20
170.9296489877365
 30
0.0
 10
374.9730766181474
 20
171.0429413659424
 30
0.0
 10
374.6167393439076
 20
171.1603652452023
 30
0.0
 10
374.2499502313576
 20
171.2812333204205
 30
0.0
 10
373.883991020083
 20
171.4064788563744
 30
0.0
 10
373.5190293486468
 20
171.5358835269434
 30
0.0
 10
373.1182593149969
 20
171.677984789178
 30
0.0
 10
372.7186925436916
 20
171.8251010159098
 30
0.0
 10
372.3205625655276
 20
171.9768760634833
 30
0.0
 10
371.8419604885719
 20
172.1593286718843
 30
0.0
 10
371.3654360060697
 20
172.3485125026598
 30
0.0
 10
370.8913976204802
 20
172.5437272673221
 30
0.0
 10
370.3885409371577
 20
172.7508097570062
 30
0.0
 10
369.8884842430343
 20
172.9646733542887
 30
0.0
 10
369.3916874545909
 20
173.1844549264673
 30
0.0
 10
368.9913184618556
 20
173.3615770993996
 30
0.0
 10
368.5930665454971
 20
173.5425414314236
 30
0.0
 10
368.1971444150552
 20
173.7269200005988
 30
0.0
 10
367.838976671438
 20
173.8937165775398
 30
0.0
 10
367.4827156051669
 20
174.0633067161754
 30
0.0
 10
367.1284935936535
 20
174.2354068264169
 30
0.0
 10
366.7971909714751
 20
174.3963714642623
 30
0.0
 10
366.4676721216158
 20
174.5595314147055
 30
0.0
 10
366.1400215790311
 20
174.7246915315247
 30
0.0
 10
365.8292386937485
 20
174.8813491010003
 30
0.0
 10
365.5201367508096
 20
175.0398059190248
 30
0.0
 10
365.2127650771186
 20
175.1999341727633
 30
0.0
 10
364.9181079271808
 20
175.3534386720704
 30
0.0
 10
364.6250409069869
 20
175.5084789599032
 30
0.0
 10
364.3335852269236
 20
175.6649826830974
 30
0.0
 10
364.0520958797352
 20
175.8161347583115
 30
0.0
 10
363.7721095994343
 20
175.968651709585
 30
0.0
 10
363.4936236384464
 20
176.122509706221
 30
0.0
 10
363.219899157002
 20
176.2737370793922
 30
0.0
 10
362.9476242169505
 20
176.4262597758069
 30
0.0
 10
362.6767736846243
 20
176.5800992135231
 30
0.0
 10
362.397536276354
 20
176.7387022833
 30
0.0
 10
362.1198128757249
 20
176.8987047973123
 30
0.0
 10
361.8435499105931
 20
177.0601823692175
 30
0.0
 10
361.552350165773
 20
177.2303905898904
 30
0.0
 10
361.2627728999208
 20
177.4022379131363
 30
0.0
 10
360.9747283161051
 20
177.5758681077949
 30
0.0
 10
360.6655173869267
 20
177.7622571490769
 30
0.0
 10
360.358072454767
 20
177.9507010197367
 30
0.0
 10
360.0522547899828
 20
178.1414355895756
 30
0.0
 10
359.7126758062618
 20
178.353226662639
 30
0.0
 10
359.3751028362618
 20
178.5678426397135
 30
0.0
 10
359.0393174546055
 20
178.7856695756019
 30
0.0
 10
358.6333866688178
 20
179.049000453244
 30
0.0
 10
358.2300675236844
 20
179.3170247701239
 30
0.0
 10
357.8289437323163
 20
179.5905026695287
 30
0.0
 10
357.351953555256
 20
179.915704700588
 30
0.0
 10
356.8780637582238
 20
180.2486242764494
 30
0.0
 10
356.4065730229761
 20
180.590587861025
 30
0.0
 10
356.0699367158478
 20
180.8347440017038
 30
0.0
 10
355.7345230493401
 20
181.0835121645232
 30
0.0
 10
355.4000971492845
 20
181.3373535838476
 30
0.0
 10
355.1102165448414
 20
181.5573835039415
 30
0.0
 10
354.8210778510684
 20
181.781225825319
 30
0.0
 10
354.5325496337051
 20
182.0091495889376
 30
0.0
 10
354.26637027002
 20
182.2194188060117
 30
0.0
 10
354.0007103048723
 20
182.4331620554059
 30
0.0
 10
353.7354890119425
 20
182.6505551448924
 30
0.0
 10
353.4841257609293
 20
182.8565892574537
 30
0.0
 10
353.2331563975195
 20
183.0659020566625
 30
0.0
 10
352.9825354309007
 20
183.2786052502947
 30
0.0
 10
352.735952729154
 20
183.4878811495284
 30
0.0
 10
352.4897071307114
 20
183.7004393616441
 30
0.0
 10
352.2437810256583
 20
183.9163434296219
 30
0.0
 10
351.9979120994117
 20
184.1321972990373
 30
0.0
 10
351.752362518736
 20
184.3513954701746
 30
0.0
 10
351.5071413998005
 20
184.5739567058694
 30
0.0
 10
351.2619535215858
 20
184.7964877724828
 30
0.0
 10
351.0170940168835
 20
185.0223809932743
 30
0.0
 10
350.7725986946286
 20
185.2516103762392
 30
0.0
 10
350.5280312248531
 20
185.4809074019363
 30
0.0
 10
350.283828151386
 20
185.7135425635472
 30
0.0
 10
350.0400520339404
 20
185.9494450207485
 30
0.0
 10
349.7914191335634
 20
186.1900473929355
 30
0.0
 10
349.5432302960644
 20
186.4340486736427
 30
0.0
 10
349.2955804656444
 20
186.6813257382108
 30
0.0
 10
349.0347426515879
 20
186.9417709356854
 30
0.0
 10
348.7745028844429
 20
187.2058498643725
 30
0.0
 10
348.5150036858869
 20
187.4733660274966
 30
0.0
 10
348.2360449583697
 20
187.7609429019945
 30
0.0
 10
347.9579421860992
 20
188.0524914947516
 30
0.0
 10
347.6809060598198
 20
188.3477128792386
 30
0.0
 10
347.3712303055605
 20
188.6777164283868
 30
0.0
 10
347.0628875745966
 20
189.0123085932546
 30
0.0
 10
346.756210064833
 20
189.3510126262508
 30
0.0
 10
346.3872752125247
 20
189.758475574825
 30
0.0
 10
346.0207508006545
 20
190.1718878833487
 30
0.0
 10
345.6572617323654
 20
190.5903544997906
 30
0.0
 10
345.2327140388373
 20
191.0791148294071
 30
0.0
 10
344.8123091416725
 20
191.5747656565396
 30
0.0
 10
344.3970809677219
 20
192.0758468504188
 30
0.0
 10
344.0574347852539
 20
192.485718639677
 30
0.0
 10
343.7212539594366
 20
192.8992214470446
 30
0.0
 10
343.3890998351307
 20
193.315582381126
 30
0.0
 10
343.1144891260124
 20
193.6598116499818
 30
0.0
 10
342.8426312451971
 20
194.0059939369387
 30
0.0
 10
342.5738294711731
 20
194.3537259842412
 30
0.0
 10
342.3304202504265
 20
194.668609273125
 30
0.0
 10
342.0895172807698
 20
194.9847629404426
 30
0.0
 10
341.8513283027788
 20
195.3019248243884
 30
0.0
 10
341.6281238715968
 20
195.5991339500829
 30
0.0
 10
341.4073028735288
 20
195.8972281405465
 30
0.0
 10
341.1890171088264
 20
196.1960309231724
 30
0.0
 10
340.9780184329798
 20
196.4848586969823
 30
0.0
 10
340.7693887358611
 20
196.7743482103062
 30
0.0
 10
340.5632439139495
 20
197.0643826472816
 30
0.0
 10
340.3567307318455
 20
197.3549353468067
 30
0.0
 10
340.1527113606441
 20
197.6460348948463
 30
0.0
 10
339.9512784635833
 20
197.937610901083
 30
0.0
 10
339.7486654255506
 20
198.2308951724363
 30
0.0
 10
339.5486692748225
 20
198.5246615448993
 30
0.0
 10
339.3513598625912
 20
198.8188854759342
 30
0.0
 10
339.1528653197707
 20
199.1148766504921
 30
0.0
 10
338.9570899063127
 20
199.4113309422131
 30
0.0
 10
338.7640797951946
 20
199.7082702126005
 30
0.0
 10
338.5687978804447
 20
200.0087045730067
 30
0.0
 10
338.3763467920441
 20
200.3096354007956
 30
0.0
 10
338.1867483890147
 20
200.6111328382825
 30
0.0
 10
337.9887797983422
 20
200.9259404623816
 30
0.0
 10
337.7939213530309
 20
201.2413659570389
 30
0.0
 10
337.6021685477251
 20
201.557541108229
 30
0.0
 10
337.3972205108575
 20
201.8954734604539
 30
0.0
 10
337.1958202074186
 20
202.234262591565
 30
0.0
 10
336.9979294596952
 20
202.5741229663423
 30
0.0
 10
336.7799644281967
 20
202.948459200581
 30
0.0
 10
336.5662570854415
 20
203.3240957088113
 30
0.0
 10
336.356718055922
 20
203.7013738884421
 30
0.0
 10
336.1129800452065
 20
204.140227848969
 30
0.0
 10
335.8748820394412
 20
204.5813047704836
 30
0.0
 10
335.6422327683485
 20
205.0251946384586
 30
0.0
 10
335.3665368785394
 20
205.5512165406715
 30
0.0
 10
335.0984925154291
 20
206.0811927818499
 30
0.0
 10
334.8377152507471
 20
206.6161244492592
 30
0.0
 10
334.620460900439
 20
207.0617776851881
 30
0.0
 10
334.4082484276987
 20
207.5108723623495
 30
0.0
 10
334.2008337894634
 20
207.9639565364863
 30
0.0
 10
334.0211323204064
 20
208.3565030432881
 30
0.0
 10
333.8450315563347
 20
208.7520447169753
 30
0.0
 10
333.6723693214332
 20
209.1508989312651
 30
0.0
 10
333.51659421855
 20
209.5107434352
 30
0.0
 10
333.363617555009
 20
209.873284658487
 30
0.0
 10
333.2133240018477
 20
210.238714258644
 30
0.0
 10
333.0728459280483
 20
210.580278119898
 30
0.0
 10
332.9347117338311
 20
210.9243657137237
 30
0.0
 10
332.7988346091826
 20
211.2710901806858
 30
0.0
 10
332.6692977364866
 20
211.6016359090683
 30
0.0
 10
332.5418120589153
 20
211.9345784257339
 30
0.0
 10
332.4163118390141
 20
212.2699709224156
 30
0.0
 10
332.2915632733576
 20
212.6033546641013
 30
0.0
 10
332.1687763202426
 20
212.9391594167354
 30
0.0
 10
332.0478983944705
 20
213.2773868560098
 30
0.0
 10
331.9250603044637
 20
213.6210990132379
 30
0.0
 10
331.8041936352466
 20
213.9673129736672
 30
0.0
 10
331.6852565317691
 20
214.3159775065694
 30
0.0
 10
331.5642122224575
 20
214.6708193207098
 30
0.0
 10
331.4451664304155
 20
215.0281992073337
 30
0.0
 10
331.3280891085995
 20
215.3880102037379
 30
0.0
 10
331.2087215172396
 20
215.7548598319954
 30
0.0
 10
331.0914001320811
 20
216.1242365028912
 30
0.0
 10
330.9761080606731
 20
216.4959739035039
 30
0.0
 10
330.8565368797391
 20
216.8815084805635
 30
0.0
 10
330.7391483820306
 20
217.269582207495
 30
0.0
 10
330.6239405279905
 20
217.6599540515965
 30
0.0
 10
330.5008485831706
 20
218.0770404550684
 30
0.0
 10
330.3802459133266
 20
218.4967498771909
 30
0.0
 10
330.2621497721723
 20
218.918729568294
 30
0.0
 10
330.1320156343748
 20
219.383723282169
 30
0.0
 10
330.0049249581606
 20
219.8514730289751
 30
0.0
 10
329.8809254577335
 20
220.3214456687535
 30
0.0
 10
329.7342139432687
 20
220.8774995036593
 30
0.0
 10
329.5918292597653
 20
221.4366634145797
 30
0.0
 10
329.4538885172825
 20
221.9979898879577
 30
0.0
 10
329.3028395279188
 20
222.6126581504358
 30
0.0
 10
329.157119284351
 20
223.2299153066142
 30
0.0
 10
329.0169255980724
 20
223.84849859325
 30
0.0
 10
328.8953439540128
 20
224.3849590785501
 30
0.0
 10
328.7779198759609
 20
224.9224147808312
 30
0.0
 10
328.6648038717778
 20
225.4600717472077
 30
0.0
 10
328.5655750391252
 20
225.9317209495144
 30
0.0
 10
328.4696618644923
 20
226.4035244479417
 30
0.0
 10
328.3771750460957
 20
226.8749863604177
 30
0.0
 10
328.2937553627009
 20
227.3002275369799
 30
0.0
 10
328.2131233965078
 20
227.7251903220545
 30
0.0
 10
328.1353639248995
 20
228.1495527230917
 30
0.0
 10
328.062784883937
 20
228.5456435844462
 30
0.0
 10
327.9927084847157
 20
228.9412110499522
 30
0.0
 10
327.9252043894202
 20
229.336037625984
 30
0.0
 10
327.8610494703328
 20
229.7112751123612
 30
0.0
 10
327.7992180290101
 20
230.0858431442718
 30
0.0
 10
327.7397690006796
 20
230.4596007679296
 30
0.0
 10
327.6817495828634
 20
230.824370392227
 30
0.0
 10
327.6259994428384
 20
231.1883677962925
 30
0.0
 10
327.5725713679836
 20
231.5515112225967
 30
0.0
 10
327.5189033957372
 20
231.9162851991487
 30
0.0
 10
327.4675784118604
 20
232.2801975271155
 30
0.0
 10
327.4186471694895
 20
232.6432182415405
 30
0.0
 10
327.3694042737746
 20
233.0085511110726
 30
0.0
 10
327.3225857314781
 20
233.3729810078642
 30
0.0
 10
327.2782401579983
 20
233.7365303569042
 30
0.0
 10
327.2336034700603
 20
234.1024662907468
 30
0.0
 10
327.191472349469
 20
234.4675101138899
 30
0.0
 10
327.1518928843283
 20
234.8317376573093
 30
0.0
 10
327.1117770733099
 20
235.2009008899997
 30
0.0
 10
327.0742825713709
 20
235.5692255505686
 30
0.0
 10
327.0394533819059
 20
235.9368447975149
 30
0.0
 10
327.002994844881
 20
236.3216616747309
 30
0.0
 10
326.9694568421619
 20
236.7057057843678
 30
0.0
 10
326.9388850269
 20
237.0891890461927
 30
0.0
 10
326.9061874625325
 20
237.4993370380594
 30
0.0
 10
326.8768829410493
 20
237.9088438492453
 30
0.0
 10
326.8510216583127
 20
238.3180303635986
 30
0.0
 10
326.8224424991004
 20
238.7702200968115
 30
0.0
 10
326.7980683876987
 20
239.2220192690648
 30
0.0
 10
326.7779597732839
 20
239.673926608388
 30
0.0
 10
326.7538540785168
 20
240.2156616160792
 30
0.0
 10
326.7358783655603
 20
240.7575534066017
 30
0.0
 10
326.7241244812114
 20
241.3005369601184
 30
0.0
 10
326.7095704817391
 20
241.9728748968167
 30
0.0
 10
326.7045564794027
 20
242.6468916880948
 30
0.0
 10
326.7092321361225
 20
243.3244191509626
 30
0.0
 10
326.712980071317
 20
243.8675148432722
 30
0.0
 10
326.7229534101032
 20
244.4128694458739
 30
0.0
 10
326.7392179487379
 20
244.9613995122103
 30
0.0
 10
326.7527124617132
 20
245.4165090153914
 30
0.0
 10
326.770537521172
 20
245.873805140731
 30
0.0
 10
326.7927261444545
 20
246.3337730063104
 30
0.0
 10
326.8127350072444
 20
246.7485546623449
 30
0.0
 10
326.8362921278612
 20
247.1655093896102
 30
0.0
 10
326.8634194332106
 20
247.5849503867555
 30
0.0
 10
326.8887953224765
 20
247.9773110786888
 30
0.0
 10
326.9172952323197
 20
248.3718476934953
 30
0.0
 10
326.94893582993
 20
248.7687718037357
 30
0.0
 10
326.9792378312396
 20
249.1489035274326
 30
0.0
 10
327.0124203723473
 20
249.5312253156575
 30
0.0
 10
327.0484973648218
 20
249.9158758514496
 30
0.0
 10
327.0842744282423
 20
250.2973285632719
 30
0.0
 10
327.1228980126472
 20
250.6810715582732
 30
0.0
 10
327.1643812030449
 20
251.0671886795765
 30
0.0
 10
327.2057548189745
 20
251.4522859039579
 30
0.0
 10
327.2499729556337
 20
251.8397447429119
 30
0.0
 10
327.2970481103948
 20
252.229596612825
 30
0.0
 10
327.3440005408634
 20
252.6184321441794
 30
0.0
 10
327.3937951140228
 20
253.0096482592056
 30
0.0
 10
327.4464437234651
 20
253.4032243606962
 30
0.0
 10
327.4990415100224
 20
253.7964205343367
 30
0.0
 10
327.5544878271003
 20
254.1919721678963
 30
0.0
 10
327.6127940030274
 20
254.5898066579445
 30
0.0
 10
327.6723916049673
 20
254.9964528013218
 30
0.0
 10
327.7349771673234
 20
255.405484056563
 30
0.0
 10
327.8005621503505
 20
255.8167671271798
 30
0.0
 10
327.8687003721793
 20
256.2440615443874
 30
0.0
 10
327.9400761268942
 20
256.6737863114201
 30
0.0
 10
328.0147012276562
 20
257.105734456176
 30
0.0
 10
328.0929166425756
 20
257.5584642082414
 30
0.0
 10
328.1747016280678
 20
258.0136361660696
 30
0.0
 10
328.2600680945548
 20
258.4709535454435
 30
0.0
 10
328.3507677599583
 20
258.9568414473249
 30
0.0
 10
328.445510450935
 20
259.4451508625523
 30
0.0
 10
328.5443077223201
 20
259.9354659044919
 30
0.0
 10
328.6501736445483
 20
260.4608615289816
 30
0.0
 10
328.7606951872146
 20
260.9885595915259
 30
0.0
 10
328.8758821849723
 20
261.5179884357961
 30
0.0
 10
329.0019087698422
 20
262.0972387893418
 30
0.0
 10
329.1335203775847
 20
262.6785604223913
 30
0.0
 10
329.2707225987042
 20
263.2611426513236
 30
0.0
 10
329.4350662520775
 20
263.9589716741475
 30
0.0
 10
329.6074317845257
 20
264.6586082024183
 30
0.0
 10
329.787812097947
 20
265.3585856453586
 30
0.0
 10
329.9743943335374
 20
266.0826300473749
 30
0.0
 10
330.1695522980382
 20
266.8070345488418
 30
0.0
 10
330.3732545310041
 20
267.5301535879755
 30
0.0
 10
330.5537593798965
 20
268.170924633975
 30
0.0
 10
330.7409730347787
 20
268.8106836355396
 30
0.0
 10
330.9348558922194
 20
269.448318826619
 30
0.0
 10
331.1003098975176
 20
269.9924581985875
 30
0.0
 10
331.2706204594307
 20
270.5350504966419
 30
0.0
 10
331.4457524180406
 20
271.0754469815158
 30
0.0
 10
331.606250139193
 20
271.5706872850535
 30
0.0
 10
331.770797094386
 20
272.0640830036037
 30
0.0
 10
331.9393583923456
 20
272.5551786463592
 30
0.0
 10
332.0977746270293
 20
273.016717110625
 30
0.0
 10
332.2597365016921
 20
273.4762237268645
 30
0.0
 10
332.4252083949215
 20
273.9333659946247
 30
0.0
 10
332.5830801418655
 20
274.369511656615
 30
0.0
 10
332.7441468659539
 20
274.8035049345558
 30
0.0
 10
332.9083716587534
 20
275.2351037906104
 30
0.0
 10
333.0679064063773
 20
275.6543767481319
 30
0.0
 10
333.2304214164123
 20
276.071389831617
 30
0.0
 10
333.3958771664938
 20
276.4859701108957
 30
0.0
 10
333.5626743218643
 20
276.9039115316222
 30
0.0
 10
333.7324600650854
 20
277.3193805624949
 30
0.0
 10
333.9051881604191
 20
277.7322532503439
 30
0.0
 10
334.0801982075456
 20
278.150580497096
 30
0.0
 10
334.2582288287363
 20
278.5662424122935
 30
0.0
 10
334.439226573604
 20
278.9791635674906
 30
0.0
 10
334.622779748132
 20
279.3979145796734
 30
0.0
 10
334.8093843814155
 20
279.81384696557
 30
0.0
 10
334.9989798254789
 20
280.2269356837697
 30
0.0
 10
335.191921266666
 20
280.6473146281126
 30
0.0
 10
335.3879599715583
 20
281.064748707351
 30
0.0
 10
335.5870276064186
 20
281.4792657451383
 30
0.0
 10
335.7931111078887
 20
281.9083918691625
 30
0.0
 10
336.0024407337116
 20
282.3343918914759
 30
0.0
 10
336.2149367779143
 20
282.757353066144
 30
0.0
 10
336.4371970765946
 20
283.1997494286956
 30
0.0
 10
336.6629213782505
 20
283.6388215017924
 30
0.0
 10
336.8920155972729
 20
284.0747264422556
 30
0.0
 10
337.1346359839332
 20
284.5363680570184
 30
0.0
 10
337.3810358260057
 20
284.9944578386395
 30
0.0
 10
337.6311020900337
 20
285.4492409993304
 30
0.0
 10
337.9001260941931
 20
285.9385016654537
 30
0.0
 10
338.1733932729666
 20
286.4239358257416
 30
0.0
 10
338.4507644319241
 20
286.9059083364474
 30
0.0
 10
338.7556582788789
 20
287.435705498733
 30
0.0
 10
339.0655105743486
 20
287.9613205380102
 30
0.0
 10
339.380143241901
 20
288.4832994816793
 30
0.0
 10
339.7500415416458
 20
289.0969646972712
 30
0.0
 10
340.1265459364031
 20
289.7056056896755
 30
0.0
 10
340.5093886351331
 20
290.3101762645404
 30
0.0
 10
340.8785243561323
 20
290.8931013034352
 30
0.0
 10
341.253552128533
 20
291.4722459467815
 30
0.0
 10
341.6342618768849
 20
292.0484788444166
 30
0.0
 10
341.9602793110617
 20
292.5419308024727
 30
0.0
 10
342.2904636736184
 20
293.0332491061723
 30
0.0
 10
342.6247061576982
 20
293.5229555851716
 30
0.0
 10
342.9360390416851
 20
293.9790966733809
 30
0.0
 10
343.2508928021313
 20
294.433840229661
 30
0.0
 10
343.5692001813934
 20
294.887569640159
 30
0.0
 10
343.8670999345832
 20
295.3122091182499
 30
0.0
 10
344.1680247149686
 20
295.7359606822248
 30
0.0
 10
344.4719378715887
 20
296.159095050337
 30
0.0
 10
344.7627239361792
 20
296.5639527375286
 30
0.0
 10
345.056245823278
 20
296.9682456333442
 30
0.0
 10
345.3524883375259
 20
297.3721656461236
 30
0.0
 10
345.6382078579426
 20
297.7617377932241
 30
0.0
 10
345.9264581718489
 20
298.1509632712103
 30
0.0
 10
346.2172414462904
 20
298.5399681106915
 30
0.0
 10
346.5015689073738
 20
298.9203364746263
 30
0.0
 10
346.7883181003912
 20
299.3004940979424
 30
0.0
 10
347.0775064478874
 20
299.6805107102615
 30
0.0
 10
347.3728990210087
 20
300.0686801711467
 30
0.0
 10
347.670836594838
 20
300.4567024003764
 30
0.0
 10
347.9713538071238
 20
300.8445992928412
 30
0.0
 10
348.2808732695474
 20
301.2441159685028
 30
0.0
 10
348.5931293173959
 20
301.6434995405717
 30
0.0
 10
348.9081755002862
 20
302.0427209799926
 30
0.0
 10
349.2342828691905
 20
302.4559589758489
 30
0.0
 10
349.5633798344287
 20
302.8690230828018
 30
0.0
 10
349.8955409769535
 20
303.2818275880823
 30
0.0
 10
350.2405342132372
 20
303.7105796123156
 30
0.0
 10
350.5888330765239
 20
304.139051389232
 30
0.0
 10
350.9405354581525
 20
304.5670931198598
 30
0.0
 10
351.3225560873789
 20
305.0320338760539
 30
0.0
 10
351.7085923930168
 20
305.4964674420856
 30
0.0
 10
352.0987850531202
 20
305.9601389057688
 30
0.0
 10
352.5041679828879
 20
306.4418611820096
 30
0.0
 10
352.9140374515867
 20
306.9227604328532
 30
0.0
 10
353.3285641446043
 20
307.4024880570708
 30
0.0
 10
353.7768316932784
 20
307.9212636383821
 30
0.0
 10
354.2305458491027
 20
308.438668773542
 30
0.0
 10
354.6899323675974
 20
308.9541959352891
 30
0.0
 10
355.208423176926
 20
309.5360503967589
 30
0.0
 10
355.734140656829
 20
310.1155118901161
 30
0.0
 10
356.2674121406516
 20
310.6917759396022
 30
0.0
 10
356.8917161085474
 20
311.3664115493503
 30
0.0
 10
357.5263755730147
 20
312.0366622645513
 30
0.0
 10
358.171893520829
 20
312.7011655112588
 30
0.0
 10
358.7175618025618
 20
313.2628824179143
 30
0.0
 10
359.2709895714537
 20
313.8204891183152
 30
0.0
 10
359.8324495733701
 20
314.3731622247094
 30
0.0
 10
360.3228087784823
 20
314.8558472676569
 30
0.0
 10
360.8192946860573
 20
315.3347681205147
 30
0.0
 10
361.3220611684742
 20
315.8094001746622
 30
0.0
 10
361.7915947803289
 20
316.2526590442959
 30
0.0
 10
362.2666061973365
 20
316.6921767906269
 30
0.0
 10
362.7471938993106
 20
317.1275590472935
 30
0.0
 10
363.2069641775887
 20
317.54408202631
 30
0.0
 10
363.6718381429273
 20
317.9568197568821
 30
0.0
 10
364.1418758835813
 20
318.3654635929672
 30
0.0
 10
364.6026491994237
 20
318.7660530756104
 30
0.0
 10
365.0683848493917
 20
319.1627081146471
 30
0.0
 10
365.5391125971193
 20
319.5551785894556
 30
0.0
 10
366.0080015645823
 20
319.9461159764721
 30
0.0
 10
366.4818438429149
 20
320.3329010831351
 30
0.0
 10
366.9606398922488
 20
320.7153329673581
 30
0.0
 10
367.4465780591675
 20
321.1034695216369
 30
0.0
 10
367.9376188286624
 20
321.4871222298363
 30
0.0
 10
368.4337322336839
 20
321.8661295483149
 30
0.0
 10
368.9444657245837
 20
322.2563059250947
 30
0.0
 10
369.4605752186602
 20
322.641559260173
 30
0.0
 10
369.9819964647497
 20
323.0217614147587
 30
0.0
 10
370.5183233520137
 20
323.4128322420971
 30
0.0
 10
371.060269988906
 20
323.7985592105015
 30
0.0
 10
371.6077339020016
 20
324.1788497915105
 30
0.0
 10
372.168726509987
 20
324.5685379512765
 30
0.0
 10
372.7355124406439
 20
324.9525178847917
 30
0.0
 10
373.3079480811494
 20
325.3307353323655
 30
0.0
 10
373.8959895242039
 20
325.7192637850375
 30
0.0
 10
374.4899929251177
 20
326.1017114557692
 30
0.0
 10
375.0897677935038
 20
326.4780641613363
 30
0.0
 10
375.7102012878713
 20
326.8673799472047
 30
0.0
 10
376.3368107065394
 20
327.2501738759203
 30
0.0
 10
376.9693481404347
 20
327.6264744666743
 30
0.0
 10
377.6307221769938
 20
328.0199301379595
 30
0.0
 10
378.2985770795775
 20
328.406287288093
 30
0.0
 10
378.9725891038572
 20
328.7856217541924
 30
0.0
 10
379.6842245006104
 20
329.1861306821651
 30
0.0
 10
380.4027236352174
 20
329.5788115517497
 30
0.0
 10
381.1276607233862
 20
329.9637939413171
 30
0.0
 10
381.8992210512164
 20
330.373535894861
 30
0.0
 10
382.6780741109731
 20
330.7745580794535
 30
0.0
 10
383.46365630931
 20
331.1670507224003
 30
0.0
 10
384.3025806127335
 20
331.5861941523045
 30
0.0
 10
385.1491789075508
 20
331.9956116270777
 30
0.0
 10
386.0027087052868
 20
332.3955564214871
 30
0.0
 10
386.8852916198533
 20
332.8091148505561
 30
0.0
 10
387.7752855010892
 20
333.2125466180725
 30
0.0
 10
388.671815346376
 20
333.6061295343791
 30
0.0
 10
389.5255559684075
 20
333.9809276803131
 30
0.0
 10
390.3852225953104
 20
334.3467962001441
 30
0.0
 10
391.2500228240752
 20
334.7039480013965
 30
0.0
 10
392.0717991870962
 20
335.0433314780855
 30
0.0
 10
392.8982103396239
 20
335.3748449066777
 30
0.0
 10
393.7285539568878
 20
335.6986286346801
 30
0.0
 10
394.5761683618966
 20
336.0291469240445
 30
0.0
 10
395.4278795275296
 20
336.3516106706035
 30
0.0
 10
396.2829287474399
 20
336.6661155853023
 30
0.0
 10
397.1431146412456
 20
336.9825098756621
 30
0.0
 10
398.0066776871156
 20
337.2908492294855
 30
0.0
 10
398.8728500800619
 20
337.5911791047959
 30
0.0
 10
399.7244632883188
 20
337.8864608417007
 30
0.0
 10
400.5785978611319
 20
338.1739996925329
 30
0.0
 10
401.4345443384219
 20
338.4537933888573
 30
0.0
 10
402.2624329231943
 20
338.7244154586045
 30
0.0
 10
403.0920158351245
 20
338.9877913660251
 30
0.0
 10
403.922682673821
 20
339.2438826199327
 30
0.0
 10
404.7201589979065
 20
339.4897413713397
 30
0.0
 10
405.5186338546591
 20
339.7288855789073
 30
0.0
 10
406.3176053810683
 20
339.9612532026057
 30
0.0
 10
407.0846183662107
 20
340.1843262143611
 30
0.0
 10
407.8520887077314
 20
340.4011536143176
 30
0.0
 10
408.619614676548
 20
340.6116591726825
 30
0.0
 10
409.3603327078992
 20
340.8148122503841
 30
0.0
 10
410.1011022644609
 20
341.0120771581141
 30
0.0
 10
410.8416071833529
 20
341.2033688957619
 30
0.0
 10
411.5626178998936
 20
341.3896247724087
 30
0.0
 10
412.2833775296862
 20
341.5702176607793
 30
0.0
 10
413.0036412757964
 20
341.7450560630257
 30
0.0
 10
413.707439284436
 20
341.9158975360265
 30
0.0
 10
414.4107636713939
 20
342.0812444774995
 30
0.0
 10
415.1134340494385
 20
342.2410011752237
 30
0.0
 10
415.7992825433172
 20
342.3969333077627
 30
0.0
 10
416.4845078610029
 20
342.5475395302785
 30
0.0
 10
417.1689903677989
 20
342.6927227879161
 30
0.0
 10
417.8331808857221
 20
342.8336019807755
 30
0.0
 10
418.4966718205351
 20
342.9693748660759
 30
0.0
 10
419.1594014646686
 20
343.0999467960087
 30
0.0
 10
419.8043056119504
 20
343.2270067213913
 30
0.0
 10
420.4484887202003
 20
343.3491416185155
 30
0.0
 10
421.0919420594528
 20
343.4662600001025
 30
0.0
 10
421.7257240085116
 20
343.5816180402655
 30
0.0
 10
422.3587977536284
 20
343.6921091597581
 30
0.0
 10
422.9912050679482
 20
343.7976429189867
 30
0.0
 10
423.6309301401554
 20
343.9043978381881
 30
0.0
 10
424.2699732811072
 20
344.0060799612487
 30
0.0
 10
424.9084318972973
 20
344.1025934617471
 30
0.0
 10
425.5575010396341
 20
344.2007109174561
 30
0.0
 10
426.2059661532423
 20
344.2934864825403
 30
0.0
 10
426.8539841841065
 20
344.3808178898473
 30
0.0
 10
427.5171562711387
 20
344.4701915629367
 30
0.0
 10
428.1798601704129
 20
344.5538634224903
 30
0.0
 10
428.8423198687332
 20
344.6317229695493
 30
0.0
 10
429.5405076602798
 20
344.7137816749303
 30
0.0
 10
430.2384244314173
 20
344.7893841639783
 30
0.0
 10
430.9363928226581
 20
344.8584009591317
 30
0.0
 10
431.6913424940162
 20
344.933052200467
 30
0.0
 10
432.4463529998767
 20
344.9999984777907
 30
0.0
 10
433.2018961947956
 20
345.0590768622966
 30
0.0
 10
434.0539392837456
 20
345.1257008879825
 30
0.0
 10
434.9066606333026
 20
345.1823186734801
 30
0.0
 10
435.7608054927147
 20
345.2286998318089
 30
0.0
 10
436.9094849006416
 20
345.291074592837
 30
0.0
 10
438.0607407261084
 20
345.3349345190813
 30
0.0
 10
439.2164876468742
 20
345.3597363339107
 30
0.0
 10
440.2473081315219
 20
345.3818572829895
 30
0.0
 10
441.2817075065075
 20
345.3888174047483
 30
0.0
 10
442.3210383416157
 20
345.3802508557229
 30
0.0
 10
443.1470044407216
 20
345.3734429377416
 30
0.0
 10
443.9760858804623
 20
345.3568292457021
 30
0.0
 10
444.8089239979635
 20
345.3302370240869
 30
0.0
 10
445.5624572184899
 20
345.3061769793149
 30
0.0
 10
446.3190661947333
 20
345.2739483460821
 30
0.0
 10
447.0791837778056
 20
345.2334312492981
 30
0.0
 10
447.7856751872066
 20
345.1957726271991
 30
0.0
 10
448.4951979646986
 20
345.1509538103803
 30
0.0
 10
449.2080558741812
 20
345.0988853728751
 30
0.0
 10
449.883500991344
 20
345.0495496337287
 30
0.0
 10
450.5619406295014
 20
344.9937052752491
 30
0.0
 10
451.2435878127156
 20
344.9312823915291
 30
0.0
 10
451.9004781554203
 20
344.8711266533571
 30
0.0
 10
452.5603475452072
 20
344.8048615633421
 30
0.0
 10
453.2233393471413
 20
344.7324304158047
 30
0.0
 10
453.8751429259375
 20
344.6612215697179
 30
0.0
 10
454.5299645262819
 20
344.5840530142511
 30
0.0
 10
455.1878907523127
 20
344.5008767188017
 30
0.0
 10
455.836673903113
 20
344.4188563084611
 30
0.0
 10
456.4884760637726
 20
344.3309939703615
 30
0.0
 10
457.1433304279251
 20
344.2372494516371
 30
0.0
 10
457.7923359679431
 20
344.1443422109903
 30
0.0
 10
458.4443395380442
 20
344.0456573854241
 30
0.0
 10
459.0993227639479
 20
343.9411616321871
 30
0.0
 10
459.7653434952973
 20
343.8349049598917
 30
0.0
 10
460.4344451558395
 20
343.7226398438735
 30
0.0
 10
461.1065537500418
 20
343.6043375818995
 30
0.0
 10
461.7969123950804
 20
343.4828230082343
 30
0.0
 10
462.49044334133
 20
343.3549389573662
 30
0.0
 10
463.1870108028398
 20
343.2206612727631
 30
0.0
 10
463.9051226471939
 20
343.0822304658786
 30
0.0
 10
464.6264615724475
 20
342.9370043790313
 30
0.0
 10
465.3508229213864
 20
342.7849642217169
 30
0.0
 10
466.0954086002008
 20
342.6286790694145
 30
0.0
 10
466.843187637737
 20
342.4651940043263
 30
0.0
 10
467.593882762434
 20
342.2944970376541
 30
0.0
 10
468.3648465852102
 20
342.1191912688629
 30
0.0
 10
469.1388859368989
 20
341.9362788632903
 30
0.0
 10
469.9156456909395
 20
341.7457561172035
 30
0.0
 10
470.716694046659
 20
341.5492758906126
 30
0.0
 10
471.5206354170842
 20
341.3447018973331
 30
0.0
 10
472.3270253014657
 20
341.1320404789827
 30
0.0
 10
473.1679533567657
 20
340.9102706422885
 30
0.0
 10
474.0115439209964
 20
340.6797056911887
 30
0.0
 10
474.8572368459313
 20
340.4403649521791
 30
0.0
 10
475.7514202019939
 20
340.1873008683501
 30
0.0
 10
476.6479535579524
 20
339.9244256497075
 30
0.0
 10
477.5461180974882
 20
339.6517770138491
 30
0.0
 10
478.5127134328898
 20
339.3583553878285
 30
0.0
 10
479.4811974242043
 20
339.0536141347057
 30
0.0
 10
480.4506172877828
 20
338.7376197615897
 30
0.0
 10
481.5204288766858
 20
338.3889014661561
 30
0.0
 10
482.5913793355192
 20
338.0264782436321
 30
0.0
 10
483.6621326280343
 20
337.6504675992065
 30
0.0
 10
484.9054295029156
 20
337.2138657578621
 30
0.0
 10
486.1484582180827
 20
336.7589435796995
 30
0.0
 10
487.3890804773151
 20
336.2859340644303
 30
0.0
 10
488.4690974468576
 20
335.8741581999855
 30
0.0
 10
489.5472879307659
 20
335.4486757070513
 30
0.0
 10
490.6222481132958
 20
335.0096723228695
 30
0.0
 10
491.6635639442132
 20
334.5844089678135
 30
0.0
 10
492.7018465811052
 20
334.1464579970727
 30
0.0
 10
493.7358588862775
 20
333.6960146271174
 30
0.0
 10
494.6601620866732
 20
333.2933634726159
 30
0.0
 10
495.581052856656
 20
332.8807305628133
 30
0.0
 10
496.497691970486
 20
332.4582725822421
 30
0.0
 10
497.3684836025058
 20
332.0569446563311
 30
0.0
 10
498.2354379556857
 20
331.6467500658739
 30
0.0
 10
499.0978815214721
 20
331.227836306192
 30
0.0
 10
499.9420906150826
 20
330.8177795565194
 30
0.0
 10
500.7819774248026
 20
330.3993685195729
 30
0.0
 10
501.6169601603552
 20
329.9727529772087
 30
0.0
 10
502.4611257101882
 20
329.5414456835941
 30
0.0
 10
503.3002787744752
 20
329.1017525034877
 30
0.0
 10
504.1338703025938
 20
328.6538388704845
 30
0.0
 10
504.977123315138
 20
328.2007338332455
 30
0.0
 10
505.8146851777908
 20
327.7392167628747
 30
0.0
 10
506.6460398413076
 20
327.2694686294707
 30
0.0
 10
507.4815948868318
 20
326.7973471147721
 30
0.0
 10
508.3108798664014
 20
326.3169112361077
 30
0.0
 10
509.1334226103816
 20
325.8283532302511
 30
0.0
 10
509.957958417888
 20
325.3386114231281
 30
0.0
 10
510.7757192777002
 20
324.8407081661711
 30
0.0
 10
511.5862814179122
 20
324.3348443593039
 30
0.0
 10
512.3993933020733
 20
323.8273892824805
 30
0.0
 10
513.2052611077828
 20
323.3119235821847
 30
0.0
 10
514.0035091682364
 20
322.7886560601224
 30
0.0
 10
514.8065630970636
 20
322.2622381955043
 30
0.0
 10
515.6019052796651
 20
321.7279243767251
 30
0.0
 10
516.3892056835311
 20
321.1859319060335
 30
0.0
 10
517.1813606010772
 20
320.6405974964189
 30
0.0
 10
517.9653742894694
 20
320.0874895462855
 30
0.0
 10
518.7409631298872
 20
319.5268327223491
 30
0.0
 10
519.520466194467
 20
318.9633463882741
 30
0.0
 10
520.2914591834356
 20
318.3922348930878
 30
0.0
 10
521.0537066507416
 20
317.813728174921
 30
0.0
 10
521.8546270374114
 20
317.2058706951929
 30
0.0
 10
522.6458915506901
 20
316.5898486752096
 30
0.0
 10
523.4272885457754
 20
315.9659292288472
 30
0.0
 10
524.2025808768365
 20
315.346884153159
 30
0.0
 10
524.968159420604
 20
314.720064690869
 30
0.0
 10
525.7238776769426
 20
314.0857302523968
 30
0.0
 10
526.4736918844036
 20
313.456351551725
 30
0.0
 10
527.2137994240032
 20
312.8195749562997
 30
0.0
 10
527.944114427693
 20
312.1756505631209
 30
0.0
 10
528.6687238454163
 20
311.5367568292638
 30
0.0
 10
529.3836932855866
 20
310.8908266574294
 30
0.0
 10
530.0889931893989
 20
310.238099376122
 30
0.0
 10
530.793139182457
 20
309.5864399937675
 30
0.0
 10
531.4876473444847
 20
308.9280058380028
 30
0.0
 10
532.1725409127994
 20
308.2630284197448
 30
0.0
 10
532.8628306475337
 20
307.5928117512145
 30
0.0
 10
533.5433536987606
 20
306.9159484363204
 30
0.0
 10
534.21418673599
 20
306.2326669045583
 30
0.0
 10
534.9100308604666
 20
305.523910160552
 30
0.0
 10
535.5954488766974
 20
304.8082478849022
 30
0.0
 10
536.2705845612232
 20
304.0859232021998
 30
0.0
 10
536.9902541995552
 20
303.3159518392973
 30
0.0
 10
537.6982407091366
 20
302.5384104392321
 30
0.0
 10
538.394779860113
 20
301.7535763056355
 30
0.0
 10
539.1509115226912
 20
300.9015955699464
 30
0.0
 10
539.8935540679116
 20
300.0410213899949
 30
0.0
 10
540.62306989852
 20
299.172182077359
 30
0.0
 10
541.418673949993
 20
298.2246329657308
 30
0.0
 10
542.1986669159942
 20
297.2672542356181
 30
0.0
 10
542.9635684350308
 20
296.3004302355266
 30
0.0
 10
543.7206592640946
 20
295.3434788299261
 30
0.0
 10
544.4629679297544
 20
294.3772742956702
 30
0.0
 10
545.1910099550792
 20
293.4021430817431
 30
0.0
 10
545.8496052197727
 20
292.5200280696881
 30
0.0
 10
546.4965273102358
 20
291.6306077554445
 30
0.0
 10
547.1321390575616
 20
290.7340881629171
 30
0.0
 10
547.7180028468904
 20
289.9077372216466
 30
0.0
 10
548.294258231419
 20
289.0753545546963
 30
0.0
 10
548.8611577467684
 20
288.23707385085
 30
0.0
 10
549.3952355061822
 20
287.4473270474951
 30
0.0
 10
549.921009834492
 20
286.6523452495683
 30
0.0
 10
550.4386545441255
 20
285.8522172510925
 30
0.0
 10
550.9320040146786
 20
285.0896426181879
 30
0.0
 10
551.4179693825655
 20
284.3223934213528
 30
0.0
 10
551.8966608422835
 20
283.5505266076416
 30
0.0
 10
552.3558828331005
 20
282.8100533703561
 30
0.0
 10
552.8084108332115
 20
282.0653304414197
 30
0.0
 10
553.2543001709395
 20
281.3163903447647
 30
0.0
 10
553.6850715155495
 20
280.5928432554529
 30
0.0
 10
554.1096469538395
 20
279.8653600861956
 30
0.0
 10
554.528032913733
 20
279.133953820944
 30
0.0
 10
554.9359791776214
 20
278.4207978312682
 30
0.0
 10
555.3380411996654
 20
277.7039120685705
 30
0.0
 10
555.7341797182955
 20
276.9832930558408
 30
0.0
 10
556.1272234047485
 20
276.2683038791481
 30
0.0
 10
556.514436009131
 20
275.5496395531912
 30
0.0
 10
556.89573076881
 20
274.8272813095929
 30
0.0
 10
557.2740466631785
 20
274.110566489773
 30
0.0
 10
557.6465370289316
 20
273.3902152396645
 30
0.0
 10
558.0130660238585
 20
272.6661940987888
 30
0.0
 10
558.382074983348
 20
271.9372741728333
 30
0.0
 10
558.7450417528885
 20
271.2046344759412
 30
0.0
 10
559.1017722231695
 20
270.4682255287898
 30
0.0
 10
559.47648832409
 20
269.6946883281616
 30
0.0
 10
559.8443232268055
 20
268.9169919657634
 30
0.0
 10
560.204991995668
 20
268.1350648241771
 30
0.0
 10
560.588572578999
 20
267.3034650434758
 30
0.0
 10
560.96404734563
 20
266.4670794953759
 30
0.0
 10
561.3310110544285
 20
265.6258113039321
 30
0.0
 10
561.7261341026285
 20
264.7199875284822
 30
0.0
 10
562.111389348476
 20
263.8085024006189
 30
0.0
 10
562.486206393771
 20
262.8912309720164
 30
0.0
 10
562.8965769830261
 20
261.8869510936367
 30
0.0
 10
563.294434411886
 20
260.8757340149144
 30
0.0
 10
563.6789646383825
 20
259.8574248804017
 30
0.0
 10
564.085139639566
 20
258.7817962680972
 30
0.0
 10
564.4764428069456
 20
257.698253058259
 30
0.0
 10
564.8518679305321
 20
256.6066445317244
 30
0.0
 10
565.1963636096295
 20
255.6049683064798
 30
0.0
 10
565.5274875442531
 20
254.5965004093814
 30
0.0
 10
565.8444559818035
 20
253.5811648493865
 30
0.0
 10
566.1324789124675
 20
252.6585495699067
 30
0.0
 10
566.4088126205995
 20
251.7302635955685
 30
0.0
 10
566.672884131912
 20
250.7962883696374
 30
0.0
 10
566.9193578886455
 20
249.9245533555643
 30
0.0
 10
567.1551487470095
 20
249.0478620486614
 30
0.0
 10
567.3798150381375
 20
248.1662353252153
 30
0.0
 10
567.5928246064345
 20
247.330351460224
 30
0.0
 10
567.795833681146
 20
246.4900309975623
 30
0.0
 10
567.9884947511015
 20
245.6453258393289
 30
0.0
 10
568.1727937200005
 20
244.8372835621753
 30
0.0
 10
568.347623178951
 20
244.0252289040774
 30
0.0
 10
568.5127106632295
 20
243.2092399756671
 30
0.0
 10
568.6718366660116
 20
242.4227172597941
 30
0.0
 10
568.8219113494665
 20
241.6325392384239
 30
0.0
 10
568.9627245563145
 20
240.8388076169971
 30
0.0
 10
569.099424295436
 20
240.0682626659184
 30
0.0
 10
569.227395556512
 20
239.2943686479517
 30
0.0
 10
569.3464816336075
 20
238.5172498475037
 30
0.0
 10
569.4628200462771
 20
237.7580614528132
 30
0.0
 10
569.570678417614
 20
236.9957953330398
 30
0.0
 10
569.6699476281595
 20
236.2305983317171
 30
0.0
 10
569.7671914282665
 20
235.4810138046581
 30
0.0
 10
569.8561928665686
 20
234.7286167439518
 30
0.0
 10
569.93688715882
 20
233.9735757356402
 30
0.0
 10
570.01700749951
 20
233.2239050819603
 30
0.0
 10
570.088938257931
 20
232.4716278662622
 30
0.0
 10
570.1526560539535
 20
231.7169405387544
 30
0.0
 10
570.2178696691275
 20
230.9445364063819
 30
0.0
 10
570.2744801719081
 20
230.1696076587587
 30
0.0
 10
570.322507450251
 20
229.3923996586523
 30
0.0
 10
570.372194812032
 20
228.5883271312571
 30
0.0
 10
570.4126954915671
 20
227.7818151410377
 30
0.0
 10
570.4440773814165
 20
226.9731713521394
 30
0.0
 10
570.4767438596315
 20
226.1314264846411
 30
0.0
 10
570.499529934977
 20
225.2873718163584
 30
0.0
 10
570.512558263778
 20
224.4413913708761
 30
0.0
 10
570.5262063171875
 20
223.5551697779589
 30
0.0
 10
570.529146489927
 20
222.6668349517671
 30
0.0
 10
570.5215657891515
 20
221.7768665573829
 30
0.0
 10
570.5135260404905
 20
220.8330062970928
 30
0.0
 10
570.493652975825
 20
219.8873087619869
 30
0.0
 10
570.462216023731
 20
218.9403864485573
 30
0.0
 10
570.4280843686699
 20
217.9122961402338
 30
0.0
 10
570.3803218857755
 20
216.8827622440066
 30
0.0
 10
570.319320415333
 20
215.8526128416433
 30
0.0
 10
570.2494822602415
 20
214.6732358002863
 30
0.0
 10
570.1622927253591
 20
213.4930522657484
 30
0.0
 10
570.058387733497
 20
212.3133580932012
 30
0.0
 10
569.9341618774895
 20
210.9029492592642
 30
0.0
 10
569.786047112034
 20
209.4932414948173
 30
0.0
 10
569.615154962481
 20
208.086507829858
 30
0.0
 10
569.47386854495
 20
206.9234798004062
 30
0.0
 10
569.3170154188795
 20
205.76248698014
 30
0.0
 10
569.145194564628
 20
204.6048179154008
 30
0.0
 10
568.996955259012
 20
203.6060331110828
 30
0.0
 10
568.8375752445115
 20
202.6097229723651
 30
0.0
 10
568.66740087192
 20
201.6167022714669
 30
0.0
 10
568.50957984108
 20
200.6957671842669
 30
0.0
 10
568.342475013399
 20
199.7776616124998
 30
0.0
 10
568.1663220675435
 20
198.8630174605431
 30
0.0
 10
567.999300985531
 20
197.9957889553726
 30
0.0
 10
567.8241457837751
 20
197.1316725031487
 30
0.0
 10
567.641016214551
 20
196.271186263352
 30
0.0
 10
567.466336074912
 20
195.4504020657864
 30
0.0
 10
567.2844005838135
 20
194.6329209646241
 30
0.0
 10
567.095307673164
 20
193.8191710197803
 30
0.0
 10
566.9146934387325
 20
193.0419085470562
 30
0.0
 10
566.727549447127
 20
192.2680502738779
 30
0.0
 10
566.5339205980465
 20
191.4979469473035
 30
0.0
 10
566.34741616053
 20
190.7561789285682
 30
0.0
 10
566.1548954586525
 20
190.0178947345587
 30
0.0
 10
565.9563576039916
 20
189.2833847890216
 30
0.0
 10
565.7611504878826
 20
188.5611972320673
 30
0.0
 10
565.560126654198
 20
187.8426585050003
 30
0.0
 10
565.353241685375
 20
187.1280198825611
 30
0.0
 10
565.14336402339
 20
186.4030436598074
 30
0.0
 10
564.9274543426425
 20
185.6820812429835
 30
0.0
 10
564.705419176501
 20
184.9653673297596
 30
0.0
 10
564.479226013235
 20
184.2352316940082
 30
0.0
 10
564.2466756497765
 20
183.5095052167488
 30
0.0
 10
564.0076227389715
 20
182.7884069009636
 30
0.0
 10
563.7627846004775
 20
182.0498575617668
 30
0.0
 10
563.511125233395
 20
181.3161631747277
 30
0.0
 10
563.2524422624745
 20
180.5875278306427
 30
0.0
 10
562.981537845892
 20
179.8244681978875
 30
0.0
 10
562.7029301499246
 20
179.0669570048098
 30
0.0
 10
562.4163394908489
 20
178.3151932371462
 30
0.0
 10
562.1115162442416
 20
177.5156030722734
 30
0.0
 10
561.797661402712
 20
176.7225149918863
 30
0.0
 10
561.4743935953591
 20
175.9361277601541
 30
0.0
 10
561.126281350888
 20
175.0893034923646
 30
0.0
 10
560.7672526831
 20
174.2502497771163
 30
0.0
 10
560.396793528809
 20
173.4191668324593
 30
0.0
 10
560.002233868028
 20
172.5340171447641
 30
0.0
 10
559.5947066154695
 20
171.6579091448962
 30
0.0
 10
559.1735697662346
 20
170.7910304743705
 30
0.0
 10
558.7465750802426
 20
169.9120938854983
 30
0.0
 10
558.3055876134225
 20
169.042644764727
 30
0.0
 10
557.8499441672575
 20
168.1828276308266
 30
0.0
 10
557.4214668380955
 20
167.374274029971
 30
0.0
 10
556.980027645068
 20
166.5742372811869
 30
0.0
 10
556.5251037733875
 20
165.7828024546654
 30
0.0
 10
556.1044758675655
 20
165.0510326039323
 30
0.0
 10
555.6723190908665
 20
164.3266159709387
 30
0.0
 10
555.2282598905799
 20
163.6095988671403
 30
0.0
 10
554.810990409993
 20
162.9358388047848
 30
0.0
 10
554.3832108823256
 20
162.2686120123939
 30
0.0
 10
553.944655732224
 20
161.607944378169
 30
0.0
 10
553.5247179412305
 20
160.9753231289744
 30
0.0
 10
553.0948997336841
 20
160.3487157334989
 30
0.0
 10
552.655014931737
 20
159.7281372478649
 30
0.0
 10
552.23050080501
 20
159.1292433267098
 30
0.0
 10
551.796611099667
 20
158.5359641765332
 30
0.0
 10
551.3532264514315
 20
157.9483088534677
 30
0.0
 10
550.9237924295716
 20
157.3791434801161
 30
0.0
 10
550.485451410285
 20
156.8152534734636
 30
0.0
 10
550.038143276338
 20
156.256644945572
 30
0.0
 10
549.6065666802355
 20
155.717682318415
 30
0.0
 10
549.1666424403402
 20
155.1836360967644
 30
0.0
 10
548.7183643730234
 20
154.6545115134367
 30
0.0
 10
548.284188755537
 20
154.1420327431306
 30
0.0
 10
547.8421764884274
 20
153.6341707298913
 30
0.0
 10
547.3923701943136
 20
153.1309314569438
 30
0.0
 10
546.954627003394
 20
152.641188276339
 30
0.0
 10
546.5095020828685
 20
152.1558231377983
 30
0.0
 10
546.0570834087932
 20
151.6748439257561
 30
0.0
 10
545.606623982952
 20
151.1959476464602
 30
0.0
 10
545.1489336608311
 20
150.7213993208308
 30
0.0
 10
544.684151332939
 20
150.2512102032329
 30
0.0
 10
544.2125609295152
 20
149.7741338120988
 30
0.0
 10
543.7336693169113
 20
149.3015452194068
 30
0.0
 10
543.247675503084
 20
148.8334606239989
 30
0.0
 10
542.7539379210596
 20
148.357917623772
 30
0.0
 10
542.252870095054
 20
147.887023238955
 30
0.0
 10
541.7447346211133
 20
147.4207998400054
 30
0.0
 10
541.226701987674
 20
146.9454956199406
 30
0.0
 10
540.7013237895881
 20
146.4750460466332
 30
0.0
 10
540.1689325837436
 20
146.0094813476721
 30
0.0
 10
539.616420226347
 20
145.5263211329281
 30
0.0
 10
539.0563549521156
 20
145.0484219167563
 30
0.0
 10
538.4891648867269
 20
144.5758257357866
 30
0.0
 10
537.8934601895917
 20
144.079470489051
 30
0.0
 10
537.2898966272884
 20
143.5889647537989
 30
0.0
 10
536.6790272144322
 20
143.1043679183425
 30
0.0
 10
536.0284712357281
 20
142.5882881115434
 30
0.0
 10
535.3696297297404
 20
142.0789097059375
 30
0.0
 10
534.7032280372514
 20
141.5763190140692
 30
0.0
 10
533.9862132686169
 20
141.0355566590073
 30
0.0
 10
533.2604469337518
 20
140.5026518868553
 30
0.0
 10
532.5268880861611
 20
139.977732988772
 30
0.0
 10
531.684742719355
 20
139.3751119183266
 30
0.0
 10
530.832327946445
 20
138.7830149808044
 30
0.0
 10
529.9711549745954
 20
138.2016738749026
 30
0.0
 10
529.0914490654104
 20
137.6078219742613
 30
0.0
 10
528.2026067199922
 20
137.0251934383142
 30
0.0
 10
527.306266758322
 20
136.454081798319
 30
0.0
 10
526.5092987225203
 20
135.9462859380269
 30
0.0
 10
525.706405353421
 20
135.4475954224531
 30
0.0
 10
524.8987268714676
 20
134.9582502705202
 30
0.0
 10
524.1263733909007
 20
134.4903073455336
 30
0.0
 10
523.3496455606435
 20
134.0309102852417
 30
0.0
 10
522.5695063072234
 20
133.5802981123799
 30
0.0
 10
521.8503425456145
 20
133.1649056759118
 30
0.0
 10
521.1282802407061
 20
132.7569787949315
 30
0.0
 10
520.4040322137769
 20
132.3567274330282
 30
0.0
 10
519.7149654622315
 20
131.9759187935932
 30
0.0
 10
519.0239204934132
 20
131.6020582149001
 30
0.0
 10
518.3314669215567
 20
131.2353454477816
 30
0.0
 10
517.6664203436924
 20
130.8831470033756
 30
0.0
 10
517.0000747011193
 20
130.5375418387512
 30
0.0
 10
516.3328887392752
 20
130.1987233550768
 30
0.0
 10
515.6924438907461
 20
129.87348486856
 30
0.0
 10
515.0512249415247
 20
129.5544999957998
 30
0.0
 10
514.4095915891952
 20
129.2419541908519
 30
0.0
 10
513.7935390300602
 20
128.9418690374129
 30
0.0
 10
513.1771046686063
 20
128.6477197830069
 30
0.0
 10
512.5605601881864
 20
128.3596836247195
 30
0.0
 10
511.9644935178546
 20
128.0812142534766
 30
0.0
 10
511.368324101422
 20
127.8084586584946
 30
0.0
 10
510.7722500201414
 20
127.5415891424067
 30
0.0
 10
510.1915241197882
 20
127.2815911910214
 30
0.0
 10
509.6108888812432
 20
127.0271801076621
 30
0.0
 10
509.0304790540772
 20
126.7785268637135
 30
0.0
 10
508.4508595845872
 20
126.5302122167195
 30
0.0
 10
507.8714649354832
 20
126.2876397938075
 30
0.0
 10
507.2923782775856
 20
126.0509913555692
 30
0.0
 10
506.7116526790572
 20
125.81367315101
 30
0.0
 10
506.131236815508
 20
125.5823125762874
 30
0.0
 10
505.5511632357486
 20
125.3571035395933
 30
0.0
 10
504.9694739449758
 20
125.1312672157182
 30
0.0
 10
504.388128844686
 20
124.9116168129365
 30
0.0
 10
503.8071092493274
 20
124.6983575125523
 30
0.0
 10
503.2195939127594
 20
124.4827139944294
 30
0.0
 10
502.6324114166916
 20
124.2736053551121
 30
0.0
 10
502.045489423519
 20
124.0712526036392
 30
0.0
 10
501.432259999349
 20
123.8598298546055
 30
0.0
 10
500.819314716534
 20
123.6557824138971
 30
0.0
 10
500.2065148938162
 20
123.4593698093207
 30
0.0
 10
499.5335211813446
 20
123.2436640551251
 30
0.0
 10
498.860702905467
 20
123.0371670429475
 30
0.0
 10
498.1878113311873
 20
122.8402270121353
 30
0.0
 10
497.4586317089819
 20
122.6268127523141
 30
0.0
 10
496.7293654092774
 20
122.4246219009232
 30
0.0
 10
495.9996277925377
 20
122.2340946512203
 30
0.0
 10
495.2086390689492
 20
122.0275753453841
 30
0.0
 10
494.417095673944
 20
121.8347607870366
 30
0.0
 10
493.6244439645969
 20
121.6561946862155
 30
0.0
 10
492.7938788799643
 20
121.4690875786518
 30
0.0
 10
491.962095106152
 20
121.2976258077784
 30
0.0
 10
491.1284101574146
 20
121.1423995533407
 30
0.0
 10
490.3429485792681
 20
120.9961521502124
 30
0.0
 10
489.5557973869703
 20
120.8643167762266
 30
0.0
 10
488.7663754131924
 20
120.7473452671511
 30
0.0
 10
488.0506802882568
 20
120.6412981319274
 30
0.0
 10
487.3331174785166
 20
120.547468130445
 30
0.0
 10
486.6132669017023
 20
120.4661542653948
 30
0.0
 10
485.945337403906
 20
120.3907053725324
 30
0.0
 10
485.2754375919076
 20
120.3260322005094
 30
0.0
 10
484.6032562304016
 20
120.272339520357
 30
0.0
 10
483.9655283753535
 20
120.2213989264839
 30
0.0
 10
483.3257464126978
 20
120.1803420625316
 30
0.0
 10
482.6836750720811
 20
120.1493116827382
 30
0.0
 10
482.0651928504421
 20
120.1194213309673
 30
0.0
 10
481.4445861106741
 20
120.0988342830174
 30
0.0
 10
480.82167882847
 20
120.0876471288788
 30
0.0
 10
480.2180380720222
 20
120.0768059934809
 30
0.0
 10
479.6122366736052
 20
120.0747922824012
 30
0.0
 10
479.004150650279
 20
120.0816640021624
 30
0.0
 10
478.4129361329053
 20
120.0883450642592
 30
0.0
 10
477.8195618371896
 20
120.1034253532343
 30
0.0
 10
477.2239513456942
 20
120.1269292462672
 30
0.0
 10
476.6466173526487
 20
120.1497119148244
 30
0.0
 10
476.0671821690147
 20
120.1804091540231
 30
0.0
 10
475.4856139616444
 20
120.2190155927824
 30
0.0
 10
474.9178465796759
 20
120.2567058866874
 30
0.0
 10
474.3480459773747
 20
120.3019345237238
 30
0.0
 10
473.7762219307856
 20
120.3546692136112
 30
0.0
 10
473.2133326349244
 20
120.406579923969
 30
0.0
 10
472.6484823882811
 20
120.4657640432533
 30
0.0
 10
472.0817227149601
 20
120.5321628224379
 30
0.0
 10
471.5238186615345
 20
120.5975241206979
 30
0.0
 10
470.9640641730074
 20
120.6698764561689
 30
0.0
 10
470.4025529650087
 20
120.7491353074026
 30
0.0
 10
469.849815369635
 20
120.8271557390858
 30
0.0
 10
469.295375390067
 20
120.9118685814421
 30
0.0
 10
468.7393686626758
 20
121.003164485417
 30
0.0
 10
468.1842165681502
 20
121.0943200592914
 30
0.0
 10
467.6275026698614
 20
121.1920383905761
 30
0.0
 10
467.0694082941945
 20
121.296182166573
 30
0.0
 10
466.5052047904832
 20
121.4014659427031
 30
0.0
 10
465.9395904711348
 20
121.5133165733935
 30
0.0
 10
465.3727987889183
 20
121.6315638599868
 30
0.0
 10
464.7993744751351
 20
121.7511948836925
 30
0.0
 10
464.2247451337949
 20
121.8773731149633
 30
0.0
 10
463.6491986833786
 20
122.0098939509565
 30
0.0
 10
463.0617430344139
 20
122.1451569061072
 30
0.0
 10
462.4733319320329
 20
122.2870276627861
 30
0.0
 10
461.8843190929937
 20
122.4352594543329
 30
0.0
 10
461.2730838874673
 20
122.5890837575848
 30
0.0
 10
460.6612008573516
 20
122.7497580563434
 30
0.0
 10
460.0491150725353
 20
122.9169757912787
 30
0.0
 10
459.407675018624
 20
123.0922129158331
 30
0.0
 10
458.7660125371744
 20
123.2746360448407
 30
0.0
 10
458.1246903160405
 20
123.4638604816305
 30
0.0
 10
457.4432279160949
 20
123.6649284231017
 30
0.0
 10
456.7621500291472
 20
123.8736755759153
 30
0.0
 10
456.0821831407027
 20
124.0896068528082
 30
0.0
 10
455.3479247648716
 20
124.3227790136251
 30
0.0
 10
454.6149623882327
 20
124.5643281346255
 30
0.0
 10
453.8842623583169
 20
124.813595268826
 30
0.0
 10
453.075196723184
 20
125.0895956301137
 30
0.0
 10
452.2689053700484
 20
125.3750580500515
 30
0.0
 10
451.4667522043098
 20
125.6690487795387
 30
0.0
 10
450.4367978053852
 20
126.0465291137336
 30
0.0
 10
449.4136675313644
 20
126.4380693599214
 30
0.0
 10
448.4003145872738
 20
126.8416302181378
 30
0.0
 10
447.5282999666141
 20
127.1889040586521
 30
0.0
 10
446.6635292154625
 20
127.5450766446736
 30
0.0
 10
445.8078792391128
 20
127.9088339301242
 30
0.0
 10
445.0508733071049
 20
128.2306552712197
 30
0.0
 10
444.3010078174197
 20
128.558412293836
 30
0.0
 10
443.5595471648101
 20
128.8912040716634
 30
0.0
 10
442.8984993103069
 20
129.1879039571594
 30
0.0
 10
442.2441325079537
 20
129.4886054063267
 30
0.0
 10
441.5973021290704
 20
129.7926857742508
 30
0.0
 10
440.9909999724451
 20
130.0777134861185
 30
0.0
 10
440.3913196844789
 20
130.3657097510641
 30
0.0
 10
439.7989229621737
 20
130.6561803742915
 30
0.0
 10
439.2324114999462
 20
130.9339586456809
 30
0.0
 10
438.6725611736098
 20
131.2139996234444
 30
0.0
 10
438.1199071699818
 20
131.4958910206912
 30
0.0
 10
437.5869977059792
 20
131.7677113502783
 30
0.0
 10
437.0607797026286
 20
132.041252131776
 30
0.0
 10
436.5416891481605
 20
132.316164438789
 30
0.0
 10
436.0386101802158
 20
132.5825969494499
 30
0.0
 10
435.5422258717485
 20
132.8503175903691
 30
0.0
 10
435.0528890700495
 20
133.1190300203984
 30
0.0
 10
434.5804283635036
 20
133.3784751798641
 30
0.0
 10
434.1145375873562
 20
133.6388448054301
 30
0.0
 10
433.6554909034512
 20
133.8998935207981
 30
0.0
 10
433.2108935943641
 20
134.1527252271639
 30
0.0
 10
432.7727164391969
 20
134.4061938573153
 30
0.0
 10
432.3411648236305
 20
134.6600982511204
 30
0.0
 10
431.9213232014658
 20
134.9071130431515
 30
0.0
 10
431.507752557776
 20
135.154540196132
 30
0.0
 10
431.1005980277897
 20
135.402216610614
 30
0.0
 10
430.7031410216146
 20
135.643993918614
 30
0.0
 10
430.3117982431273
 20
135.8860086901102
 30
0.0
 10
429.9266604874641
 20
136.1281316165978
 30
0.0
 10
429.5453221725639
 20
136.3678659647053
 30
0.0
 10
429.1700671604009
 20
136.607706282675
 30
0.0
 10
428.8009376879546
 20
136.8475504601546
 30
0.0
 10
428.4304971816088
 20
137.088246490089
 30
0.0
 10
428.0662257819616
 20
137.3289464075692
 30
0.0
 10
427.7081194510666
 20
137.5695709953573
 30
0.0
 10
427.3486874424717
 20
137.8110863539096
 30
0.0
 10
426.9954662096446
 20
138.0525258243776
 30
0.0
 10
426.6484050179121
 20
138.2938334195514
 30
0.0
 10
426.3000355851418
 20
138.5360506194468
 30
0.0
 10
425.9578726982917
 20
138.7781349482731
 30
0.0
 10
425.6218184720684
 20
139.0200540290064
 30
0.0
 10
425.2841156276937
 20
139.2631599187618
 30
0.0
 10
424.9525815098784
 20
139.5060989317796
 30
0.0
 10
424.6270701229557
 20
139.7488626832116
 30
0.0
 10
424.2937654034524
 20
139.9974386388532
 30
0.0
 10
423.9667751287569
 20
140.2458308873937
 30
0.0
 10
423.6458941855852
 20
140.4940560354201
 30
0.0
 10
423.3047750985239
 20
140.7579368849449
 30
0.0
 10
422.9705603217843
 20
141.0216288370476
 30
0.0
 10
422.6429499017231
 20
141.2851806138977
 30
0.0
 10
422.3036279606521
 20
141.5581539231006
 30
0.0
 10
421.9713907045436
 20
141.8309769728823
 30
0.0
 10
421.6458515036719
 20
142.1037331834906
 30
0.0
 10
421.3030786056567
 20
142.3909288161873
 30
0.0
 10
420.9677313904185
 20
142.6780504525505
 30
0.0
 10
420.639305047989
 20
142.9652257453356
 30
0.0
 10
420.2928218836292
 20
143.2681898846736
 30
0.0
 10
419.9540411793383
 20
143.5712138470611
 30
0.0
 10
419.6223179854998
 20
143.874478448259
 30
0.0
 10
419.2675689233548
 20
144.1987935243676
 30
0.0
 10
418.9208907280056
 20
144.5233838995781
 30
0.0
 10
418.5814420118563
 20
144.8485038584326
 30
0.0
 10
418.2067810817006
 20
145.2073496587009
 30
0.0
 10
417.8409266075031
 20
145.5668407298398
 30
0.0
 10
417.4826936281447
 20
145.9273567063719
 30
0.0
 10
417.0178276266915
 20
146.3951852708176
 30
0.0
 10
416.5657931985308
 20
146.8647395547909
 30
0.0
 10
416.123933314435
 20
147.3369145460667
 30
0.0
 10
415.7576688053556
 20
147.7283077175313
 30
0.0
 10
415.3983913075219
 20
148.12150408614
 30
0.0
 10
415.0446036435594
 20
148.5170260218701
 30
0.0
 10
414.7395556152256
 20
148.8580587908078
 30
0.0
 10
414.438588038405
 20
149.2008212326588
 30
0.0
 10
414.1407804145726
 20
149.5456409304879
 30
0.0
 10
413.8646419928525
 20
149.8653707141358
 30
0.0
 10
413.5912200825736
 20
150.1868695179801
 30
0.0
 10
413.3198261642938
 20
150.5103852521797
 30
0.0
 10
413.0595722430006
 20
150.8206215277718
 30
0.0
 10
412.8011830587127
 20
151.1327126906421
 30
0.0
 10
412.5440977575039
 20
151.4468622528583
 30
0.0
 10
412.2957507045602
 20
151.7503339705842
 30
0.0
 10
412.0486202489263
 20
152.0557266464872
 30
0.0
 10
411.8022474247511
 20
152.3632075606269
 30
0.0
 10
411.5562686411895
 20
152.6701966998786
 30
0.0
 10
411.3110446890992
 20
152.9792675855579
 30
0.0
 10
411.0661704454441
 20
153.2905679831515
 30
0.0
 10
410.8216747486093
 20
153.6013871468924
 30
0.0
 10
410.5775279217423
 20
153.9144288458409
 30
0.0
 10
410.3333798584961
 20
154.2298205306803
 30
0.0
 10
410.0832163525475
 20
154.5529829943811
 30
0.0
 10
409.8330516857708
 20
154.8786126134584
 30
0.0
 10
409.582562144082
 20
155.2068270180647
 30
0.0
 10
409.3250504674936
 20
155.5442424687889
 30
0.0
 10
409.0671956039997
 20
155.8843895917314
 30
0.0
 10
408.8086988564754
 20
156.2273767958392
 30
0.0
 10
408.5432394810331
 20
156.579602384204
 30
0.0
 10
408.2771033818277
 20
156.9348230260996
 30
0.0
 10
408.0100192999364
 20
157.2931371638176
 30
0.0
 10
407.7374040026073
 20
157.6588718586728
 30
0.0
 10
407.4638011722589
 20
158.0278294655353
 30
0.0
 10
407.1889735678544
 20
158.4000961144107
 30
0.0
 10
406.9079361492466
 20
158.780774242652
 30
0.0
 10
406.6256181182559
 20
159.1649125947151
 30
0.0
 10
406.3418168768952
 20
159.5525847114402
 30
0.0
 10
406.0460317838186
 20
159.9566267536066
 30
0.0
 10
405.7486355980877
 20
160.3645072930419
 30
0.0
 10
405.4494528448875
 20
160.7762899392556
 30
0.0
 10
405.2492358746453
 20
161.0518602150865
 30
0.0
 10
405.0482188964698
 20
161.329177997027
 30
0.0
 10
404.8463640716817
 20
161.6082569576148
 30
0.0
  0
ENDSEC
  0
SECTION
  2
OBJECTS
  0
DICTIONARY
  5
C
330
0
100
AcDbDictionary
  3
ACAD_GROUP
350
D
  3
ACAD_LAYOUT
350
1A
  3
ACAD_MATERIAL
350
43
  3
ACAD_MLEADERSTYLE
350
152
  3
ACAD_MLINESTYLE
350
17
  3
ACAD_PLOTSETTINGS
350
19
  3
ACAD_SCALELIST
350
47
  3
ACAD_VISUALSTYLE
350
2A
  3
ACDBHEADERROUNDTRIPXREC
350
131
  3
ACDBVARIABLEDICTIONARY
350
6C
  3
ONSHAPE_DATA
350
EA
  0
DICTIONARY
  5
73
330
72
100
AcDbDictionary
280
     1
  3
ONSHAPE_VIEW_ID
360
74
  0
DICTIONARY
  5
D
102
{ACAD_REACTORS
330
C
102
}
330
C
100
AcDbDictionary
  0
DICTIONARY
  5
1A
102
{ACAD_REACTORS
330
C
102
}
330
C
100
AcDbDictionary
  0
DICTIONARY
  5
43
102
{ACAD_REACTORS
330
C
102
}
330
C
100
AcDbDictionary
  3
BYBLOCK
350
45
  3
BYLAYER
350
44
  3
GLOBAL
350
46
  0
DICTIONARY
  5
152
102
{ACAD_REACTORS
330
C
102
}
330
C
100
AcDbDictionary
  0
DICTIONARY
  5
17
102
{ACAD_REACTORS
330
C
102
}
330
C
100
AcDbDictionary
  3
STANDARD
350
18
  0
DICTIONARY
  5
19
102
{ACAD_REACTORS
330
C
102
}
330
C
100
AcDbDictionary
  0
DICTIONARY
  5
47
102
{ACAD_REACTORS
330
C
102
}
330
C
100
AcDbDictionary
  3
A0
350
48
  3
A1
350
49
  3
A2
350
4A
  3
A3
350
4B
  3
A4
350
4C
  3
A5
350
4D
  3
A6
350
4E
  3
A7
350
4F
  3
A8
350
50
  3
A9
350
51
  3
B0
350
52
  3
B1
350
53
  3
B2
350
54
  3
B3
350
55
  3
B4
350
56
  3
B5
350
57
  3
B6
350
58
  3
B7
350
59
  3
B8
350
5A
  3
B9
350
5B
  3
C0
350
5C
  3
C1
350
5D
  3
C2
350
5E
  3
C3
350
5F
  3
C4
350
60
  3
C5
350
61
  3
C6
350
62
  3
C7
350
63
  3
C8
350
64
  3
C9
350
65
  3
D0
350
66
  3
D1
350
67
  3
D2
350
68
  0
DICTIONARY
  5
2A
102
{ACAD_REACTORS
330
C
102
}
330
C
100
AcDbDictionary
  3
2DWIREFRAME
350
2F
  3
BASIC
350
32
  3
BRIGHTEN
350
36
  3
COLORCHANGE
350
3A
  3
CONCEPTUAL
350
34
  3
DIM
350
35
  3
EDGECOLOROFF
350
3D
  3
FACEPATTERN
350
39
  3
FLAT
350
2B
  3
FLATWITHEDGES
350
2C
  3
GOURAUD
350
2D
  3
GOURAUDWITHEDGES
350
2E
  3
HIDDEN
350
31
  3
JITTEROFF
350
3B
  3
LINEPATTERN
350
38
  3
OVERHANGOFF
350
3C
  3
REALISTIC
350
33
  3
SHADED
350
42
  3
SHADED_WITH_EDGES
350
41
  3
SHADES_OF_GRAY
350
3E
  3
SKETCHY
350
3F
  3
THICKEN
350
37
  3
WIREFRAME
350
30
  3
X-RAY
350
40
  0
DICTIONARY
  5
131
102
{ACAD_REACTORS
330
C
102
}
330
C
100
AcDbDictionary
  3
CEPSNTYPE
350
13A
  3
DIMSTYLEDATA
350
150
  3
FINGERPRINTGUID
350
13B
  3
HYPERLINKBASE
350
134
  3
INSUNITS
350
139
  3
LAYOUTDICT
350
136
  3
LWETCUNION
350
138
  3
PLOTSETDICT
350
137
  3
PSVPSCALE
350
13D
  3
PUCSBASE
350
140
  3
PUCSORGBACK
350
146
  3
PUCSORGBOTTOM
350
142
  3
PUCSORGFRONT
350
145
  3
PUCSORGLEFT
350
143
  3
PUCSORGRIGHT
350
144
  3
PUCSORGTOP
350
141
  3
PUCSORTHOREF
350
13E
  3
PUCSORTHOVIEW
350
13F
  3
STYLESHEET
350
135
  3
TSTACKALIGN
350
132
  3
TSTACKSIZE
350
133
  3
UCSBASE
350
149
  3
UCSORGBACK
350
14F
  3
UCSORGBOTTOM
350
14B
  3
UCSORGFRONT
350
14E
  3
UCSORGLEFT
350
14C
  3
UCSORGRIGHT
350
14D
  3
UCSORGTOP
350
14A
  3
UCSORTHOREF
350
147
  3
UCSORTHOVIEW
350
148
  3
VERSIONGUID
350
13C
  0
DICTIONARY
  5
6C
102
{ACAD_REACTORS
330
C
102
}
330
C
100
AcDbDictionary
  3
CANNOSCALE
350
159
  3
CTABLESTYLE
350
151
  3
DIMASSOC
350
157
  3
HIDETEXT
350
158
  3
MSLTSCALE
350
15A
  3
OLEFRAME
350
6D
  3
PSOLHEIGHT
350
154
  3
PSOLWIDTH
350
153
  0
DICTIONARY
  5
EA
102
{ACAD_REACTORS
330
C
102
}
330
C
100
AcDbDictionary
280
     1
  3
DIM_UNITS
360
EB
  3
ONSHAPE_ANG_TOL_PRECISION
360
EE
  3
ONSHAPE_VSHARP_EXTENSION
360
ED
  3
ONSHAPE_WELD_STANDARD
360
EC
  0
XRECORD
  5
74
102
{ACAD_REACTORS
330
73
102
}
330
73
100
AcDbXrecord
330
0
  0
MATERIAL
  5
45
102
{ACAD_REACTORS
330
43
102
}
102
{ACAD_XDICTIONARY
360
15D
102
}
330
43
100
AcDbMaterial
  1
BYBLOCK
  0
MATERIAL
  5
44
102
{ACAD_REACTORS
330
43
102
}
102
{ACAD_XDICTIONARY
360
15B
102
}
330
43
100
AcDbMaterial
  1
BYLAYER
  0
MATERIAL
  5
46
102
{ACAD_REACTORS
330
43
102
}
102
{ACAD_XDICTIONARY
360
15F
102
}
330
43
100
AcDbMaterial
  1
GLOBAL
  0
MLINESTYLE
  5
18
102
{ACAD_REACTORS
330
17
102
}
330
17
100
AcDbMlineStyle
  2
Standard
 70
     0
  3

 62
   256
 51
90.0
 52
90.0
 71
     2
 49
0.5
 62
   256
  6
BYLAYER
 49
-0.5
 62
   256
  6
BYLAYER
  0
ACAD_PROXY_OBJECT
  5
48
102
{ACAD_REACTORS
330
47
102
}
330
47
100
AcDbProxyObject
 90
      499
 91
      503
 93
       41
310
903313A31580
  0
ACAD_PROXY_OBJECT
  5
49
102
{ACAD_REACTORS
330
47
102
}
330
47
100
AcDbProxyObject
 90
      499
 91
      503
 93
      105
310
903313A324000000000000004000
  0
ACAD_PROXY_OBJECT
  5
4A
102
{ACAD_REACTORS
330
47
102
}
330
47
100
AcDbProxyObject
 90
      499
 91
      503
 93
      105
310
903313A344000000000000104000
  0
ACAD_PROXY_OBJECT
  5
4B
102
{ACAD_REACTORS
330
47
102
}
330
47
100
AcDbProxyObject
 90
      499
 91
      503
 93
      105
310
903313A354000000000000144000
  0
ACAD_PROXY_OBJECT
  5
4C
102
{ACAD_REACTORS
330
47
102
}
330
47
100
AcDbProxyObject
 90
      499
 91
      503
 93
      105
310
903313A384000000000000204000
  0
ACAD_PROXY_OBJECT
  5
4D
102
{ACAD_REACTORS
330
47
102
}
330
47
100
AcDbProxyObject
 90
      499
 91
      503
 93
      113
310
904313A31304000000000000244000
  0
ACAD_PROXY_OBJECT
  5
4E
102
{ACAD_REACTORS
330
47
102
}
330
47
100
AcDbProxyObject
 90
      499
 91
      503
 93
      113
310
904313A31364000000000000304000
  0
ACAD_PROXY_OBJECT
  5
4F
102
{ACAD_REACTORS
330
47
102
}
330
47
100
AcDbProxyObject
 90
      499
 91
      503
 93
      113
310
904313A32304000000000000344000
  0
ACAD_PROXY_OBJECT
  5
50
102
{ACAD_REACTORS
330
47
102
}
330
47
100
AcDbProxyObject
 90
      499
 91
      503
 93
      113
310
904313A333040000000000003E4000
  0
ACAD_PROXY_OBJECT
  5
51
102
{ACAD_REACTORS
330
47
102
}
330
47
100
AcDbProxyObject
 90
      499
 91
      503
 93
      113
310
904313A34304000000000000444000
  0
ACAD_PROXY_OBJECT
  5
52
102
{ACAD_REACTORS
330
47
102
}
330
47
100
AcDbProxyObject
 90
      499
 91
      503
 93
      113
310
904313A35304000000000000494000
  0
ACAD_PROXY_OBJECT
  5
53
102
{ACAD_REACTORS
330
47
102
}
330
47
100
AcDbProxyObject
 90
      499
 91
      503
 93
      121
310
905313A3130304000000000000594000
  0
ACAD_PROXY_OBJECT
  5
54
102
{ACAD_REACTORS
330
47
102
}
330
47
100
AcDbProxyObject
 90
      499
 91
      503
 93
      105
310
903323A310000000000000010100
  0
ACAD_PROXY_OBJECT
  5
55
102
{ACAD_REACTORS
330
47
102
}
330
47
100
AcDbProxyObject
 90
      499
 91
      503
 93
      105
310
903343A310000000000000410100
  0
ACAD_PROXY_OBJECT
  5
56
102
{ACAD_REACTORS
330
47
102
}
330
47
100
AcDbProxyObject
 90
      499
 91
      503
 93
      105
310
903383A310000000000000810100
  0
ACAD_PROXY_OBJECT
  5
57
102
{ACAD_REACTORS
330
47
102
}
330
47
100
AcDbProxyObject
 90
      499
 91
      503
 93
      113
310
90431303A310000000000000910100
  0
ACAD_PROXY_OBJECT
  5
58
102
{ACAD_REACTORS
330
47
102
}
330
47
100
AcDbProxyObject
 90
      499
 91
      503
 93
      121
310
9053130303A310000000000001650100
  0
ACAD_PROXY_OBJECT
  5
59
102
{ACAD_REACTORS
330
47
102
}
330
47
100
AcDbProxyObject
 90
      499
 91
      503
 93
      257
310
90E312F31323822203D2031272D3022000000000000200FC000000000000284000
  0
ACAD_PROXY_OBJECT
  5
5A
102
{ACAD_REACTORS
330
47
102
}
330
47
100
AcDbProxyObject
 90
      499
 91
      503
 93
      249
310
90D312F363422203D2031272D3022000000000000240FC000000000000284000
  0
ACAD_PROXY_OBJECT
  5
5B
102
{ACAD_REACTORS
330
47
102
}
330
47
100
AcDbProxyObject
 90
      499
 91
      503
 93
      249
310
90D312F333222203D2031272D3022000000000000280FC000000000000284000
  0
ACAD_PROXY_OBJECT
  5
5C
102
{ACAD_REACTORS
330
47
102
}
330
47
100
AcDbProxyObject
 90
      499
 91
      503
 93
      249
310
90D312F313622203D2031272D30220000000000002C0FC000000000000284000
  0
ACAD_PROXY_OBJECT
  5
5D
102
{ACAD_REACTORS
330
47
102
}
330
47
100
AcDbProxyObject
 90
      499
 91
      503
 93
      249
310
90D332F333222203D2031272D30220000000000002E0FC000000000000284000
  0
ACAD_PROXY_OBJECT
  5
5E
102
{ACAD_REACTORS
330
47
102
}
330
47
100
AcDbProxyObject
 90
      499
 91
      503
 93
      241
310
90C312F3822203D2031272D3022000000000000300FC000000000000284000
  0
ACAD_PROXY_OBJECT
  5
5F
102
{ACAD_REACTORS
330
47
102
}
330
47
100
AcDbProxyObject
 90
      499
 91
      503
 93
      249
310
90D332F313622203D2031272D3022000000000000320FC000000000000284000
  0
ACAD_PROXY_OBJECT
  5
60
102
{ACAD_REACTORS
330
47
102
}
330
47
100
AcDbProxyObject
 90
      499
 91
      503
 93
      241
310
90C312F3422203D2031272D3022000000000000340FC000000000000284000
  0
ACAD_PROXY_OBJECT
  5
61
102
{ACAD_REACTORS
330
47
102
}
330
47
100
AcDbProxyObject
 90
      499
 91
      503
 93
      241
310
90C332F3822203D2031272D3022000000000000360FC000000000000284000
  0
ACAD_PROXY_OBJECT
  5
62
102
{ACAD_REACTORS
330
47
102
}
330
47
100
AcDbProxyObject
 90
      499
 91
      503
 93
      241
310
90C312F3222203D2031272D3022000000000000380FC000000000000284000
  0
ACAD_PROXY_OBJECT
  5
63
102
{ACAD_REACTORS
330
47
102
}
330
47
100
AcDbProxyObject
 90
      499
 91
      503
 93
      241
310
90C332F3422203D2031272D30220000000000003A0FC000000000000284000
  0
ACAD_PROXY_OBJECT
  5
64
102
{ACAD_REACTORS
330
47
102
}
330
47
100
AcDbProxyObject
 90
      499
 91
      503
 93
      161
310
90A3122203D2031272D30224000000000000284000
  0
ACAD_PROXY_OBJECT
  5
65
102
{ACAD_REACTORS
330
47
102
}
330
47
100
AcDbProxyObject
 90
      499
 91
      503
 93
      257
310
90E312D312F3222203D2031272D30220000000000003E0FC000000000000284000
  0
ACAD_PROXY_OBJECT
  5
66
102
{ACAD_REACTORS
330
47
102
}
330
47
100
AcDbProxyObject
 90
      499
 91
      503
 93
      225
310
90A3322203D2031272D302200000000000002100000000000000284000
  0
ACAD_PROXY_OBJECT
  5
67
102
{ACAD_REACTORS
330
47
102
}
330
47
100
AcDbProxyObject
 90
      499
 91
      503
 93
      225
310
90A3622203D2031272D302200000000000006100000000000000284000
  0
ACAD_PROXY_OBJECT
  5
68
102
{ACAD_REACTORS
330
47
102
}
330
47
100
AcDbProxyObject
 90
      499
 91
      503
 93
      249
310
90D31272D3022203D2031272D30220000000000000A100000000000000284000
  0
ACAD_PROXY_OBJECT
  5
2F
102
{ACAD_REACTORS
330
2A
102
}
330
2A
100
AcDbProxyObject
 90
      499
 91
      501
 93
      436
310
42CC9915DA5C99599C985B595049028333333333333E33F0000000000000F90107901411070040501600405405064090741402480A0340
1001
ACAD
1000
AcDbSavedByObjectVersion
1070
     0
  0
ACAD_PROXY_OBJECT
  5
32
102
{ACAD_REACTORS
330
2A
102
}
330
2A
100
AcDbProxyObject
 90
      499
 91
      501
 93
      388
310
4150985CDA58D07406404333333333333E33F0000000000000F90107A41107004050150841D405064090741402480A0350
1001
ACAD
1000
AcDbSavedByObjectVersion
1070
     0
  0
ACAD_PROXY_OBJECT
  5
36
102
{ACAD_REACTORS
330
2A
102
}
330
2A
100
AcDbProxyObject
 90
      499
 91
      501
 93
      428
310
42109C9A59DA1D195B90C409028333333333333E33F0000000000000F9010790141107004050150841D405064090741402480A029950
1001
ACAD
1000
AcDbSavedByObjectVersion
1070
     0
  0
ACAD_PROXY_OBJECT
  5
3A
102
{ACAD_REACTORS
330
2A
102
}
330
2A
100
AcDbProxyObject
 90
      499
 91
      501
 93
      452
310
42D0DBDB1BDC90DA185B99D95104090240C333333333333E33F0000000000000F90108901411070040501508421405064090741402480A0350
1001
ACAD
1000
AcDbSavedByObjectVersion
1070
     0
  0
ACAD_PROXY_OBJECT
  5
34
102
{ACAD_REACTORS
330
2A
102
}
330
2A
100
AcDbProxyObject
 90
      499
 91
      501
 93
      500
310
4290DBDB98D95C1D1D585B10940D028333333333333E33F0000000000000F90107902409070040501000000000018199010841D405064090740C02480A0340
1001
ACAD
1000
AcDbSavedByObjectVersion
1070
     0
  0
ACAD_PROXY_OBJECT
  5
35
102
{ACAD_REACTORS
330
2A
102
}
330
2A
100
AcDbProxyObject
 90
      499
 91
      501
 93
      412
310
40D11A5B50B409028333333333333E33F0000000000000F9010790141107004050150841D405064090741402480A02677FFFFFD0
1001
ACAD
1000
AcDbSavedByObjectVersion
1070
     0
  0
ACAD_PROXY_OBJECT
  5
3D
102
{ACAD_REACTORS
330
2A
102
}
330
2A
100
AcDbProxyObject
 90
      499
 91
      501
 93
      452
310
43115919D950DBDB1BDC93D999916409028333333333333E33F0000000000000F9010790141107004050150841D405064090741402480A0350
1001
ACAD
1000
AcDbSavedByObjectVersion
1070
     0
  0
ACAD_PROXY_OBJECT
  5
39
102
{ACAD_REACTORS
330
2A
102
}
330
2A
100
AcDbProxyObject
 90
      499
 91
      501
 93
      444
310
42D19858D95C185D1D195C9B90F409028333333333333E33F0000000000000F9010790141107004050150841D405064090741402480A0350
1001
ACAD
1000
AcDbSavedByObjectVersion
1070
     0
  0
ACAD_PROXY_OBJECT
  5
2B
102
{ACAD_REACTORS
330
2A
102
}
330
2A
100
AcDbProxyObject
 90
      499
 91
      501
 93
      380
310
41119B185D240901404333333333333E33F0000000000000F9010740A907004050150841D405064090741402480A1B50
1001
ACAD
1000
AcDbSavedByObjectVersion
1070
     0
  0
ACAD_PROXY_OBJECT
  5
2C
102
{ACAD_REACTORS
330
2A
102
}
330
2A
100
AcDbProxyObject
 90
      499
 91
      501
 93
      468
310
43519B185D15DA5D1A115919D95CD0140901404333333333333E33F0000000000000F90107409019070040501600405405064090741402480A1B50
1001
ACAD
1000
AcDbSavedByObjectVersion
1070
     0
  0
ACAD_PROXY_OBJECT
  5
2D
102
{ACAD_REACTORS
330
2A
102
}
330
2A
100
AcDbProxyObject
 90
      499
 91
      501
 93
      404
310
41D1DBDD5C985D5910240902404333333333333E33F0000000000000F9010740A9070040501641D405064090741402480A1B50
1001
ACAD
1000
AcDbSavedByObjectVersion
1070
     0
  0
ACAD_PROXY_OBJECT
  5
2E
102
{ACAD_REACTORS
330
2A
102
}
330
2A
100
AcDbProxyObject
 90
      499
 91
      501
 93
      492
310
4411DBDD5C985D5915DA5D1A115919D95CD0340902404333333333333E33F0000000000000F90107409019070040501600405405064090741402480A1B50
1001
ACAD
1000
AcDbSavedByObjectVersion
1070
     0
  0
ACAD_PROXY_OBJECT
  5
31
102
{ACAD_REACTORS
330
2A
102
}
330
2A
100
AcDbProxyObject
 90
      499
 91
      501
 93
      476
310
41921A5919195B90640502408333333333333E33F0000000000000F901079024090700405020000000000001110200405405064090740C02480A0340
1001
ACAD
1000
AcDbSavedByObjectVersion
1070
     0
  0
ACAD_PROXY_OBJECT
  5
3B
102
{ACAD_REACTORS
330
2A
102
}
330
2A
100
AcDbProxyObject
 90
      499
 91
      501
 93
      428
310
42529A5D1D195C93D999914409028333333333333E33F0000000000000F9010790141107004050150A41D405064090741402480A0350
1001
ACAD
1000
AcDbSavedByObjectVersion
1070
     0
  0
ACAD_PROXY_OBJECT
  5
38
102
{ACAD_REACTORS
330
2A
102
}
330
2A
100
AcDbProxyObject
 90
      499
 91
      501
 93
      444
310
42D31A5B995C185D1D195C9B90E409028333333333333E33F0000000000000F9010790141107004050750841D405064090741402483A0350
1001
ACAD
1000
AcDbSavedByObjectVersion
1070
     0
  0
ACAD_PROXY_OBJECT
  5
3C
102
{ACAD_REACTORS
330
2A
102
}
330
2A
100
AcDbProxyObject
 90
      499
 91
      501
 93
      444
310
42D3DD995C9A185B99D3D999915409028333333333333E33F0000000000000F9010790141107004050150941D405064090741402480A0350
1001
ACAD
1000
AcDbSavedByObjectVersion
1070
     0
  0
ACAD_PROXY_OBJECT
  5
33
102
{ACAD_REACTORS
330
2A
102
}
330
2A
100
AcDbProxyObject
 90
      499
 91
      501
 93
      428
310
425499585B1A5CDD1A58D08409038333333333333E33F0000000000000F9010740A907004050150800405405064090740C02480A1B40
1001
ACAD
1000
AcDbSavedByObjectVersion
1070
     0
  0
ACAD_PROXY_OBJECT
  5
42
102
{ACAD_REACTORS
330
2A
102
}
330
2A
100
AcDbProxyObject
 90
      499
 91
      501
 93
      420
310
4194DA1859195911B40902404333333333333E33F0000000000000F9010740A41107004050150800405405064090840C02480A0B40
1001
ACAD
1000
AcDbSavedByObjectVersion
1070
     0
  0
ACAD_PROXY_OBJECT
  5
41
102
{ACAD_REACTORS
330
2A
102
}
330
2A
100
AcDbProxyObject
 90
      499
 91
      501
 93
      516
310
4454DA18591959081DDA5D1A08195919D95CD1A40902404333333333333E33F0000000000000F901074090142907004050250800405405064090740C02480A0B40
1001
ACAD
1000
AcDbSavedByObjectVersion
1070
     0
  0
ACAD_PROXY_OBJECT
  5
3E
102
{ACAD_REACTORS
330
2A
102
}
330
2A
100
AcDbProxyObject
 90
      499
 91
      501
 93
      532
310
4394DA1859195CC81BD98811DC985E5174090240C333333333333E33F0000000000000F901079024090741D01000000000000111010841D405064090740C02480A0340
1001
ACAD
1000
AcDbSavedByObjectVersion
1070
     0
  0
ACAD_PROXY_OBJECT
  5
3F
102
{ACAD_REACTORS
330
2A
102
}
330
2A
100
AcDbProxyObject
 90
      499
 91
      501
 93
      476
310
41D4DAD95D18DA1E51840502408333333333333E33F0000000000000F901079024090741D01000000000000111010B41D405064090741802480A0340
1001
ACAD
1000
AcDbSavedByObjectVersion
1070
     0
  0
ACAD_PROXY_OBJECT
  5
37
102
{ACAD_REACTORS
330
2A
102
}
330
2A
100
AcDbProxyObject
 90
      499
 91
      501
 93
      412
310
41D51A1A58DAD95B90D409028333333333333E33F0000000000000F9010790141107004050150C41D405064090741402480A0350
1001
ACAD
1000
AcDbSavedByObjectVersion
1070
     0
  0
ACAD_PROXY_OBJECT
  5
30
102
{ACAD_REACTORS
330
2A
102
}
330
2A
100
AcDbProxyObject
 90
      499
 91
      501
 93
      420
310
4255DA5C99599C985B595059028333333333333E33F0000000000000F90107901411070040501600405405064090740C02480A0340
1001
ACAD
1000
AcDbSavedByObjectVersion
1070
     0
  0
ACAD_PROXY_OBJECT
  5
40
102
{ACAD_REACTORS
330
2A
102
}
330
2A
100
AcDbProxyObject
 90
      499
 91
      501
 93
      404
310
41560B54985E51940902404000000000000E03F0000000000000F9010740501907004050150841D405064090740C02480A1B40
1001
ACAD
1000
AcDbSavedByObjectVersion
1070
     0
  0
XRECORD
  5
13A
102
{ACAD_REACTORS
330
131
102
}
330
131
100
AcDbXrecord
 90
        0
  0
XRECORD
  5
150
102
{ACAD_REACTORS
330
131
102
}
330
131
100
AcDbXrecord
1000
DSTYLE
1002
{
1070
   179
 70
     1
1070
   143
 40
0.03937
1070
   285
 70
     8
1070
   176
 70
     7
1070
   177
 70
     7
1070
   178
 70
     7
1070
   371
 70
    13
1070
   372
 70
    13
1070
   272
 70
     3
1070
   340
340
71
1070
   288
 70
     1
1002
}
  0
XRECORD
  5
13B
102
{ACAD_REACTORS
330
131
102
}
330
131
100
AcDbXrecord
  1
{2BECA320-A012-D447-453B-10BE4E79C279}
  0
XRECORD
  5
134
102
{ACAD_REACTORS
330
131
102
}
330
131
100
AcDbXrecord
  1

  0
XRECORD
  5
139
102
{ACAD_REACTORS
330
131
102
}
330
131
100
AcDbXrecord
 90
        4
  0
XRECORD
  5
136
102
{ACAD_REACTORS
330
131
102
}
330
131
100
AcDbXrecord
340
1A
  0
XRECORD
  5
138
102
{ACAD_REACTORS
330
131
102
}
330
131
100
AcDbXrecord
 90
    10269
  0
XRECORD
  5
137
102
{ACAD_REACTORS
330
131
102
}
330
131
100
AcDbXrecord
340
19
  0
XRECORD
  5
13D
102
{ACAD_REACTORS
330
131
102
}
330
131
100
AcDbXrecord
 40
0.0
  0
XRECORD
  5
140
102
{ACAD_REACTORS
330
131
102
}
330
131
100
AcDbXrecord
340
0
  0
XRECORD
  5
146
102
{ACAD_REACTORS
330
131
102
}
330
131
100
AcDbXrecord
 10
0.0
 20
0.0
 30
0.0
  0
XRECORD
  5
142
102
{ACAD_REACTORS
330
131
102
}
330
131
100
AcDbXrecord
 10
0.0
 20
0.0
 30
0.0
  0
XRECORD
  5
145
102
{ACAD_REACTORS
330
131
102
}
330
131
100
AcDbXrecord
 10
0.0
 20
0.0
 30
0.0
  0
XRECORD
  5
143
102
{ACAD_REACTORS
330
131
102
}
330
131
100
AcDbXrecord
 10
0.0
 20
0.0
 30
0.0
  0
XRECORD
  5
144
102
{ACAD_REACTORS
330
131
102
}
330
131
100
AcDbXrecord
 10
0.0
 20
0.0
 30
0.0
  0
XRECORD
  5
141
102
{ACAD_REACTORS
330
131
102
}
330
131
100
AcDbXrecord
 10
0.0
 20
0.0
 30
0.0
  0
XRECORD
  5
13E
102
{ACAD_REACTORS
330
131
102
}
330
131
100
AcDbXrecord
340
0
  0
XRECORD
  5
13F
102
{ACAD_REACTORS
330
131
102
}
330
131
100
AcDbXrecord
 70
     0
  0
XRECORD
  5
135
102
{ACAD_REACTORS
330
131
102
}
330
131
100
AcDbXrecord
  1

  0
XRECORD
  5
132
102
{ACAD_REACTORS
330
131
102
}
330
131
100
AcDbXrecord
 90
        1
  0
XRECORD
  5
133
102
{ACAD_REACTORS
330
131
102
}
330
131
100
AcDbXrecord
 90
       70
  0
XRECORD
  5
149
102
{ACAD_REACTORS
330
131
102
}
330
131
100
AcDbXrecord
340
0
  0
XRECORD
  5
14F
102
{ACAD_REACTORS
330
131
102
}
330
131
100
AcDbXrecord
 10
0.0
 20
0.0
 30
0.0
  0
XRECORD
  5
14B
102
{ACAD_REACTORS
330
131
102
}
330
131
100
AcDbXrecord
 10
0.0
 20
0.0
 30
0.0
  0
XRECORD
  5
14E
102
{ACAD_REACTORS
330
131
102
}
330
131
100
AcDbXrecord
 10
0.0
 20
0.0
 30
0.0
  0
XRECORD
  5
14C
102
{ACAD_REACTORS
330
131
102
}
330
131
100
AcDbXrecord
 10
0.0
 20
0.0
 30
0.0
  0
XRECORD
  5
14D
102
{ACAD_REACTORS
330
131
102
}
330
131
100
AcDbXrecord
 10
0.0
 20
0.0
 30
0.0
  0
XRECORD
  5
14A
102
{ACAD_REACTORS
330
131
102
}
330
131
100
AcDbXrecord
 10
0.0
 20
0.0
 30
0.0
  0
XRECORD
  5
147
102
{ACAD_REACTORS
330
131
102
}
330
131
100
AcDbXrecord
340
0
  0
XRECORD
  5
148
102
{ACAD_REACTORS
330
131
102
}
330
131
100
AcDbXrecord
 70
     0
  0
XRECORD
  5
13C
102
{ACAD_REACTORS
330
131
102
}
330
131
100
AcDbXrecord
  1
{FAEB1C32-E019-11D5-929B-00C0DF256EC4}
  0
DICTIONARYVAR
  5
159
102
{ACAD_REACTORS
330
6C
102
}
330
6C
100
DictionaryVariables
280
     0
  1
1:1
  0
DICTIONARYVAR
  5
151
102
{ACAD_REACTORS
330
6C
102
}
330
6C
100
DictionaryVariables
280
     0
  1
Onshape-Standard
  0
DICTIONARYVAR
  5
157
102
{ACAD_REACTORS
330
6C
102
}
330
6C
100
DictionaryVariables
280
     0
  1
2
  0
DICTIONARYVAR
  5
158
102
{ACAD_REACTORS
330
6C
102
}
330
6C
100
DictionaryVariables
280
     0
  1
1
  0
DICTIONARYVAR
  5
15A
102
{ACAD_REACTORS
330
6C
102
}
330
6C
100
DictionaryVariables
280
     0
  1
1
  0
DICTIONARYVAR
  5
6D
102
{ACAD_REACTORS
330
6C
102
}
330
6C
100
DictionaryVariables
280
     0
  1
0
  0
DICTIONARYVAR
  5
154
102
{ACAD_REACTORS
330
6C
102
}
330
6C
100
DictionaryVariables
280
     0
  1
80.000000
  0
DICTIONARYVAR
  5
153
102
{ACAD_REACTORS
330
6C
102
}
330
6C
100
DictionaryVariables
280
     0
  1
5.000000
  0
XRECORD
  5
EB
102
{ACAD_REACTORS
330
EA
102
}
330
EA
100
AcDbXrecord
 70
     4
  0
XRECORD
  5
EE
102
{ACAD_REACTORS
330
EA
102
}
330
EA
100
AcDbXrecord
 90
        0
  0
XRECORD
  5
ED
102
{ACAD_REACTORS
330
EA
102
}
330
EA
100
AcDbXrecord
 90
        0
  0
XRECORD
  5
EC
102
{ACAD_REACTORS
330
EA
102
}
330
EA
100
AcDbXrecord
 90
        1
  0
DICTIONARY
  5
15D
330
45
100
AcDbDictionary
280
     1
  3
ACAD_XREC_ROUNDTRIP
360
15E
  0
DICTIONARY
  5
15B
330
44
100
AcDbDictionary
280
     1
  3
ACAD_XREC_ROUNDTRIP
360
15C
  0
DICTIONARY
  5
15F
330
46
100
AcDbDictionary
280
     1
  3
ACAD_XREC_ROUNDTRIP
360
160
  0
XRECORD
  5
15E
102
{ACAD_REACTORS
330
15D
102
}
330
15D
100
AcDbXrecord
102
MATERIAL
148
0.0
149
0.0
149
0.0
 93
        0
 94
      127
282
     0
 72
     1
 77
     1
171
     1
175
     1
179
     1
273
     0
  0
XRECORD
  5
15C
102
{ACAD_REACTORS
330
15B
102
}
330
15B
100
AcDbXrecord
102
MATERIAL
148
0.0
149
0.0
149
0.0
 93
        0
 94
      127
282
     0
 72
     1
 77
     1
171
     1
175
     1
179
     1
273
     0
  0
XRECORD
  5
160
102
{ACAD_REACTORS
330
15F
102
}
330
15F
100
AcDbXrecord
102
MATERIAL
148
0.0
149
0.0
149
0.0
 93
        0
 94
      127
282
     0
 72
     1
 77
     1
171
     1
175
     1
179
     1
273
     0
  0
ENDSEC
  0
EOF
