  0
SECTION
  2
HEADER
  9
$ACADVER
  1
AC1014
  9
$ACADMAINTVER
 70
     9
  9
$DWGCODEPAGE
  3
ANSI_1252
  9
$INSBASE
 10
0.0
 20
0.0
 30
0.0
  9
$EXTMIN
 10
1.000000000000000E+20
 20
1.000000000000000E+20
 30
1.000000000000000E+20
  9
$EXTMAX
 10
-1.000000000000000E+20
 20
-1.000000000000000E+20
 30
-1.000000000000000E+20
  9
$LIMMIN
 10
0.0
 20
0.0
  9
$LIMMAX
 10
420.0
 20
297.0
  9
$ORTHOMODE
 70
     0
  9
$REGENMODE
 70
     1
  9
$FILLMODE
 70
     1
  9
$QTEXTMODE
 70
     0
  9
$MIRRTEXT
 70
     1
  9
$DRAGMODE
 70
     2
  9
$LTSCALE
 40
12.7
  9
$OSMODE
 70
    23
  9
$ATTMODE
 70
     1
  9
$TEXTSIZE
 40
3.5
  9
$TRACEWID
 40
1.0
  9
$TEXTSTYLE
  7
ONSHAPE-STANDARD
  9
$CLAYER
  8
0
  9
$CELTYPE
  6
BYLAYER
  9
$CECOLOR
 62
   256
  9
$CELTSCALE
 40
1.0
  9
$DELOBJ
 70
     1
  9
$DISPSILH
 70
     0
  9
$DIMSCALE
 40
1.0
  9
$DIMASZ
 40
2.5
  9
$DIMEXO
 40
0.625
  9
$DIMDLI
 40
3.75
  9
$DIMRND
 40
0.0
  9
$DIMDLE
 40
0.0
  9
$DIMEXE
 40
1.25
  9
$DIMTP
 40
0.0
  9
$DIMTM
 40
0.0
  9
$DIMTXT
 40
3.5
  9
$DIMCEN
 40
2.5
  9
$DIMTSZ
 40
0.0
  9
$DIMTOL
 70
     0
  9
$DIMLIM
 70
     0
  9
$DIMTIH
 70
     0
  9
$DIMTOH
 70
     0
  9
$DIMSE1
 70
     0
  9
$DIMSE2
 70
     0
  9
$DIMTAD
 70
     1
  9
$DIMZIN
 70
     8
  9
$DIMBLK
  1

  9
$DIMASO
 70
     1
  9
$DIMSHO
 70
     1
  9
$DIMPOST
  1

  9
$DIMAPOST
  1

  9
$DIMALT
 70
     0
  9
$DIMALTD
 70
     3
  9
$DIMALTF
 40
0.03937
  9
$DIMLFAC
 40
1.0
  9
$DIMTOFL
 70
     1
  9
$DIMTVP
 40
0.0
  9
$DIMTIX
 70
     0
  9
$DIMSOXD
 70
     0
  9
$DIMSAH
 70
     0
  9
$DIMBLK1
  1

  9
$DIMBLK2
  1

  9
$DIMSTYLE
  2
ONSHAPE-ISO-25
  9
$DIMCLRD
 70
     7
  9
$DIMCLRE
 70
     7
  9
$DIMCLRT
 70
     7
  9
$DIMTFAC
 40
1.0
  9
$DIMGAP
 40
0.625
  9
$DIMJUST
 70
     0
  9
$DIMSD1
 70
     0
  9
$DIMSD2
 70
     0
  9
$DIMTOLJ
 70
     0
  9
$DIMTZIN
 70
     8
  9
$DIMALTZ
 70
     8
  9
$DIMALTTZ
 70
     0
  9
$DIMFIT
 70
     3
  9
$DIMUPT
 70
     1
  9
$DIMUNIT
 70
     2
  9
$DIMDEC
 70
     2
  9
$DIMTDEC
 70
     2
  9
$DIMALTU
 70
     2
  9
$DIMALTTD
 70
     3
  9
$DIMTXSTY
  7
ONSHAPE-STANDARD-DIMENSION
  9
$DIMAUNIT
 70
     0
  9
$LUNITS
 70
     2
  9
$LUPREC
 70
     4
  9
$SKETCHINC
 40
1.0
  9
$FILLETRAD
 40
10.0
  9
$AUNITS
 70
     0
  9
$AUPREC
 70
     0
  9
$MENU
  1
.
  9
$ELEVATION
 40
0.0
  9
$PELEVATION
 40
0.0
  9
$THICKNESS
 40
0.0
  9
$LIMCHECK
 70
     0
  9
$CHAMFERA
 40
0.0
  9
$CHAMFERB
 40
0.0
  9
$CHAMFERC
 40
0.0
  9
$CHAMFERD
 40
0.0
  9
$SKPOLY
 70
     0
  9
$TDCREATE
 40
2458999.758078692
  9
$TDUPDATE
 40
2458999.758090266
  9
$TDINDWG
 40
0.0
  9
$TDUSRTIMER
 40
0.0
  9
$USRTIMER
 70
     1
  9
$ANGBASE
 50
0.0
  9
$ANGDIR
 70
     0
  9
$PDMODE
 70
     0
  9
$PDSIZE
 40
0.0
  9
$PLINEWID
 40
0.0
  9
$COORDS
 70
     1
  9
$SPLFRAME
 70
     0
  9
$SPLINETYPE
 70
     6
  9
$SPLINESEGS
 70
     8
  9
$ATTDIA
 70
     0
  9
$ATTREQ
 70
     1
  9
$HANDLING
 70
     1
  9
$HANDSEED
  5
14C
  9
$SURFTAB1
 70
     6
  9
$SURFTAB2
 70
     6
  9
$SURFTYPE
 70
     6
  9
$SURFU
 70
     6
  9
$SURFV
 70
     6
  9
$UCSNAME
  2

  9
$UCSORG
 10
0.0
 20
0.0
 30
0.0
  9
$UCSXDIR
 10
1.0
 20
0.0
 30
0.0
  9
$UCSYDIR
 10
0.0
 20
1.0
 30
0.0
  9
$PUCSNAME
  2

  9
$PUCSORG
 10
0.0
 20
0.0
 30
0.0
  9
$PUCSXDIR
 10
1.0
 20
0.0
 30
0.0
  9
$PUCSYDIR
 10
0.0
 20
1.0
 30
0.0
  9
$USERI1
 70
     0
  9
$USERI2
 70
     0
  9
$USERI3
 70
     0
  9
$USERI4
 70
     0
  9
$USERI5
 70
     0
  9
$USERR1
 40
0.0
  9
$USERR2
 40
0.0
  9
$USERR3
 40
0.0
  9
$USERR4
 40
0.0
  9
$USERR5
 40
0.0
  9
$WORLDVIEW
 70
     1
  9
$SHADEDGE
 70
     3
  9
$SHADEDIF
 70
    70
  9
$TILEMODE
 70
     1
  9
$MAXACTVP
 70
    64
  9
$PINSBASE
 10
0.0
 20
0.0
 30
0.0
  9
$PLIMCHECK
 70
     0
  9
$PEXTMIN
 10
1.000000000000000E+20
 20
1.000000000000000E+20
 30
1.000000000000000E+20
  9
$PEXTMAX
 10
-1.000000000000000E+20
 20
-1.000000000000000E+20
 30
-1.000000000000000E+20
  9
$PLIMMIN
 10
0.0
 20
0.0
  9
$PLIMMAX
 10
420.0
 20
297.0
  9
$UNITMODE
 70
     0
  9
$VISRETAIN
 70
     1
  9
$PLINEGEN
 70
     0
  9
$PSLTSCALE
 70
     1
  9
$TREEDEPTH
 70
  3020
  9
$PICKSTYLE
 70
     1
  9
$CMLSTYLE
  2
STANDARD
  9
$CMLJUST
 70
     0
  9
$CMLSCALE
 40
20.0
  9
$PROXYGRAPHICS
 70
     1
  9
$MEASUREMENT
 70
     1
  0
ENDSEC
  0
SECTION
  2
CLASSES
  0
CLASS
  1
ACDBDICTIONARYWDFLT
  2
AcDbDictionaryWithDefault
  3
ObjectDBX Classes
 90
        0
280
     0
281
     0
  0
CLASS
  1
VISUALSTYLE
  2
AcDbVisualStyle
  3
ObjectDBX Classes
 90
     4095
280
     0
281
     0
  0
CLASS
  1
MATERIAL
  2
AcDbMaterial
  3
ObjectDBX Classes
 90
     1153
280
     0
281
     0
  0
CLASS
  1
SCALE
  2
AcDbScale
  3
ObjectDBX Classes
 90
     1153
280
     0
281
     0
  0
CLASS
  1
SUN
  2
AcDbSun
  3
SCENEOE
 90
     1153
280
     0
281
     0
  0
CLASS
  1
TABLESTYLE
  2
AcDbTableStyle
  3
ObjectDBX Classes
 90
     4095
280
     0
281
     0
  0
CLASS
  1
DICTIONARYVAR
  2
AcDbDictionaryVar
  3
ObjectDBX Classes
 90
        0
280
     0
281
     0
  0
CLASS
  1
XRECORD
  2
AcDbXrecord
  3
ObjectDBX Classes
 90
        0
280
     0
281
     0
  0
CLASS
  1
LWPOLYLINE
  2
AcDbPolyline
  3
ObjectDBX Classes
 90
        0
280
     0
281
     1
  0
CLASS
  1
HATCH
  2
AcDbHatch
  3
ObjectDBX Classes
 90
        0
280
     0
281
     1
  0
CLASS
  1
ACDBPLACEHOLDER
  2
AcDbPlaceHolder
  3
ObjectDBX Classes
 90
        0
280
     0
281
     0
  0
CLASS
  1
LAYOUT
  2
AcDbLayout
  3
ObjectDBX Classes
 90
        0
280
     0
281
     0
  0
ENDSEC
  0
SECTION
  2
TABLES
  0
TABLE
  2
VPORT
  5
8
330
0
100
AcDbSymbolTable
 70
     1
  0
VPORT
  5
29
330
8
100
AcDbSymbolTableRecord
100
AcDbViewportTableRecord
  2
*ACTIVE
 70
     0
 10
0.0
 20
0.0
 11
1.0
 21
1.0
 12
474.9712630359212
 22
214.2194669756663
 13
0.0
 23
0.0
 14
10.0
 24
10.0
 15
10.0
 25
10.0
 16
0.0
 26
0.0
 36
1.0
 17
0.0
 27
0.0
 37
0.0
 40
228.2719659162565
 41
1.02577100068186
 42
50.0
 43
0.0
 44
0.0
 50
0.0
 51
0.0
 71
     0
 72
   100
 73
     1
 74
     3
 75
     0
 76
     0
 77
     0
 78
     0
  0
ENDTAB
  0
TABLE
  2
LTYPE
  5
5
330
0
100
AcDbSymbolTable
 70
     1
  0
LTYPE
  5
14
330
5
100
AcDbSymbolTableRecord
100
AcDbLinetypeTableRecord
  2
BYBLOCK
 70
     0
  3

 72
    65
 73
     0
 40
0.0
  0
LTYPE
  5
15
330
5
100
AcDbSymbolTableRecord
100
AcDbLinetypeTableRecord
  2
BYLAYER
 70
     0
  3

 72
    65
 73
     0
 40
0.0
  0
LTYPE
  5
16
330
5
100
AcDbSymbolTableRecord
100
AcDbLinetypeTableRecord
  2
CONTINUOUS
 70
     0
  3
Solid line
 72
    65
 73
     0
 40
0.0
  0
ENDTAB
  0
TABLE
  2
LAYER
  5
2
330
0
100
AcDbSymbolTable
 70
     3
  0
LAYER
  5
10
330
2
100
AcDbSymbolTableRecord
100
AcDbLayerTableRecord
  2
0
 70
     0
 62
     7
  6
CONTINUOUS
  0
LAYER
  5
74
330
2
100
AcDbSymbolTableRecord
100
AcDbLayerTableRecord
  2
ANNOTATION_TEXT
 70
     0
 62
     7
  6
CONTINUOUS
  0
LAYER
  5
77
330
2
100
AcDbSymbolTableRecord
100
AcDbLayerTableRecord
  2
VISIBLE
 70
     0
 62
     7
  6
CONTINUOUS
  0
ENDTAB
  0
TABLE
  2
STYLE
  5
3
330
0
100
AcDbSymbolTable
 70
    27
  0
STYLE
  5
11
330
3
100
AcDbSymbolTableRecord
100
AcDbTextStyleTableRecord
  2
STANDARD
 70
     0
 40
0.0
 41
1.0
 50
0.0
 71
     0
 42
3.5
  3
txt
  4

  0
STYLE
  5
6E
330
3
100
AcDbSymbolTableRecord
100
AcDbTextStyleTableRecord
  2
ONSHAPE-STANDARD
 70
     0
 40
0.0
 41
1.0
 50
0.0
 71
     0
 42
3.5
  3
NotoSans-Regular.ttf
  4

1001
ACAD
1000
Noto Sans
1071
        0
  0
STYLE
  5
70
330
3
100
AcDbSymbolTableRecord
100
AcDbTextStyleTableRecord
  2
ONSHAPE-STANDARD-DIMENSION
 70
     0
 40
0.0
 41
1.0
 50
0.0
 71
     0
 42
3.5
  3

  4

1001
ACAD
1000
Noto Sans
1071
        0
  0
STYLE
  5
76
330
3
100
AcDbSymbolTableRecord
100
AcDbTextStyleTableRecord
  2
ONSHAPE-STANDARD-VIEW-LABE
 70
     0
 40
3.5
 41
1.0
 50
0.0
 71
     0
 42
3.5
  3
NotoSans-Regular.ttf
  4

1001
ACAD
1000
Noto Sans
1071
        0
  0
STYLE
  5
DC
330
3
100
AcDbSymbolTableRecord
100
AcDbTextStyleTableRecord
  2
ONSHAPE-STANDARD-BOLD
 70
     0
 40
0.0
 41
1.0
 50
0.0
 71
     0
 42
3.5
  3
NotoSans-Bold.ttf
  4

1001
ACAD
1000
Noto Sans
1071
 33554432
  0
STYLE
  5
DD
330
3
100
AcDbSymbolTableRecord
100
AcDbTextStyleTableRecord
  2
ONSHAPE-STANDARD-FIELDS
 70
     0
 40
0.0
 41
1.0
 50
0.0
 71
     0
 42
3.5
  3

  4

1001
ACAD
1000
Noto Sans
1071
        0
  0
STYLE
  5
DE
330
3
100
AcDbSymbolTableRecord
100
AcDbTextStyleTableRecord
  2
ONSHAPE-STANDARD-TCFIELDS
 70
     0
 40
0.0
 41
1.0
 50
0.0
 71
     0
 42
3.5
  3
NotoSansTC-Regular.otf
  4

1001
ACAD
1000
Noto Sans TC
1071
        0
  0
STYLE
  5
DF
330
3
100
AcDbSymbolTableRecord
100
AcDbTextStyleTableRecord
  2
ONSHAPE-STANDARD-SCFIELDS
 70
     0
 40
0.0
 41
1.0
 50
0.0
 71
     0
 42
3.5
  3
NotoSansSC-Regular.otf
  4

1001
ACAD
1000
Noto Sans SC
1071
        0
  0
STYLE
  5
E0
330
3
100
AcDbSymbolTableRecord
100
AcDbTextStyleTableRecord
  2
ONSHAPE-STANDARD-KOREANFIE
 70
     0
 40
0.0
 41
1.0
 50
0.0
 71
     0
 42
3.5
  3
NotoSansKR-Regular.otf
  4

1001
ACAD
1000
Noto Sans KR
1071
        0
  0
STYLE
  5
E2
330
3
100
AcDbSymbolTableRecord
100
AcDbTextStyleTableRecord
  2
TTFSTYLE
 70
     0
 40
0.0
 41
1.0
 50
0.0
 71
     0
 42
3.5
  3
Verdana.ttf
  4

1001
ACAD
1000
Verdana
1071
       34
  0
STYLE
  5
E3
330
3
100
AcDbSymbolTableRecord
100
AcDbTextStyleTableRecord
  2
ONSHAPE-STANDARD-GTOLERANC
 70
     0
 40
0.0
 41
1.0
 50
0.0
 71
     0
 42
3.5
  3

  4

1001
ACAD
1000
Noto Sans
1071
        0
  0
STYLE
  5
E4
330
3
100
AcDbSymbolTableRecord
100
AcDbTextStyleTableRecord
  2
ONSHAPE-STANDARD-TABLE-DAT
 70
     0
 40
0.0
 41
1.0
 50
0.0
 71
     0
 42
3.5
  3
NotoSans-Regular.ttf
  4

1001
ACAD
1000
Noto Sans
1071
        0
  0
STYLE
  5
E5
330
3
100
AcDbSymbolTableRecord
100
AcDbTextStyleTableRecord
  2
ONSHAPE-STANDARD-TABLE-TIT
 70
     0
 40
0.0
 41
1.0
 50
0.0
 71
     0
 42
3.5
  3
NotoSans-Bold.ttf
  4

1001
ACAD
1000
Noto Sans
1071
 33554432
  0
STYLE
  5
E6
330
3
100
AcDbSymbolTableRecord
100
AcDbTextStyleTableRecord
  2
ONSHAPE-STANDARD-TABLE-HEA
 70
     0
 40
0.0
 41
1.0
 50
0.0
 71
     0
 42
3.5
  3
NotoSans-Bold.ttf
  4

1001
ACAD
1000
Noto Sans
1071
 33554432
  0
STYLE
  5
E7
330
3
100
AcDbSymbolTableRecord
100
AcDbTextStyleTableRecord
  2
ONSHAPE-STANDARD-BOMTABLE-
 70
     0
 40
0.0
 41
1.0
 50
0.0
 71
     0
 42
3.5
  3
NotoSans-Regular.ttf
  4

1001
ACAD
1000
Noto Sans
1071
        0
  0
STYLE
  5
E8
330
3
100
AcDbSymbolTableRecord
100
AcDbTextStyleTableRecord
  2
ONSHAPE-STANDARD-BOMTABLE0
 70
     0
 40
0.0
 41
1.0
 50
0.0
 71
     0
 42
3.5
  3
NotoSans-Bold.ttf
  4

1001
ACAD
1000
Noto Sans
1071
 33554432
  0
STYLE
  5
E9
330
3
100
AcDbSymbolTableRecord
100
AcDbTextStyleTableRecord
  2
ONSHAPE-STANDARD-BOMTABLE1
 70
     0
 40
0.0
 41
1.0
 50
0.0
 71
     0
 42
3.5
  3
NotoSans-Bold.ttf
  4

1001
ACAD
1000
Noto Sans
1071
 33554432
  0
STYLE
  5
EA
330
3
100
AcDbSymbolTableRecord
100
AcDbTextStyleTableRecord
  2
ONSHAPE-STANDARD-NOTESTYLE
 70
     0
 40
3.5
 41
1.0
 50
0.0
 71
     0
 42
3.5
  3
Noto Sans
  4

1001
ACAD
1000
Noto Sans
1071
        0
  0
STYLE
  5
EC
330
3
100
AcDbSymbolTableRecord
100
AcDbTextStyleTableRecord
  2
ONSHAPE-STANDARD-HOLE-CALL
 70
     0
 40
3.5
 41
1.0
 50
0.0
 71
     0
 42
3.5
  3
Noto Sans
  4

1001
ACAD
1000
Noto Sans
1071
        0
  0
STYLE
  5
ED
330
3
100
AcDbSymbolTableRecord
100
AcDbTextStyleTableRecord
  2
ONSHAPE-STANDARD-HOLETABLE
 70
     0
 40
0.0
 41
1.0
 50
0.0
 71
     0
 42
3.5
  3
NotoSans-Regular.ttf
  4

1001
ACAD
1000
Noto Sans
1071
        0
  0
STYLE
  5
EE
330
3
100
AcDbSymbolTableRecord
100
AcDbTextStyleTableRecord
  2
ONSHAPE-STANDARD-HOLETABL0
 70
     0
 40
0.0
 41
1.0
 50
0.0
 71
     0
 42
3.5
  3
NotoSans-Bold.ttf
  4

1001
ACAD
1000
Noto Sans
1071
 33554432
  0
STYLE
  5
EF
330
3
100
AcDbSymbolTableRecord
100
AcDbTextStyleTableRecord
  2
ONSHAPE-STANDARD-HOLETABL1
 70
     0
 40
0.0
 41
1.0
 50
0.0
 71
     0
 42
3.5
  3
NotoSans-Bold.ttf
  4

1001
ACAD
1000
Noto Sans
1071
 33554432
  0
STYLE
  5
F0
330
3
100
AcDbSymbolTableRecord
100
AcDbTextStyleTableRecord
  2
ONSHAPE-STANDARD-HOLE-TAG
 70
     0
 40
3.5
 41
1.0
 50
0.0
 71
     0
 42
3.5
  3
Noto Sans
  4

1001
ACAD
1000
Noto Sans
1071
        0
  0
STYLE
  5
F1
330
3
100
AcDbSymbolTableRecord
100
AcDbTextStyleTableRecord
  2
ONSHAPE-STANDARD-REVISIONT
 70
     0
 40
0.0
 41
1.0
 50
0.0
 71
     0
 42
3.5
  3
NotoSans-Regular.ttf
  4

1001
ACAD
1000
Noto Sans
1071
        0
  0
STYLE
  5
F2
330
3
100
AcDbSymbolTableRecord
100
AcDbTextStyleTableRecord
  2
ONSHAPE-STANDARD-REVISION0
 70
     0
 40
0.0
 41
1.0
 50
0.0
 71
     0
 42
3.5
  3
NotoSans-Bold.ttf
  4

1001
ACAD
1000
Noto Sans
1071
 33554432
  0
STYLE
  5
F3
330
3
100
AcDbSymbolTableRecord
100
AcDbTextStyleTableRecord
  2
ONSHAPE-STANDARD-REVISION1
 70
     0
 40
0.0
 41
1.0
 50
0.0
 71
     0
 42
3.5
  3
NotoSans-Bold.ttf
  4

1001
ACAD
1000
Noto Sans
1071
 33554432
  0
STYLE
  5
F4
330
3
100
AcDbSymbolTableRecord
100
AcDbTextStyleTableRecord
  2
ONSHAPE-STANDARD-REVISION-
 70
     0
 40
3.5
 41
1.0
 50
0.0
 71
     0
 42
3.5
  3
Noto Sans
  4

1001
ACAD
1000
Noto Sans
1071
        0
  0
ENDTAB
  0
TABLE
  2
VIEW
  5
6
330
0
100
AcDbSymbolTable
 70
     0
  0
ENDTAB
  0
TABLE
  2
UCS
  5
7
330
0
100
AcDbSymbolTable
 70
     0
  0
ENDTAB
  0
TABLE
  2
APPID
  5
9
330
0
100
AcDbSymbolTable
 70
     1
  0
APPID
  5
12
330
9
100
AcDbSymbolTableRecord
100
AcDbRegAppTableRecord
  2
ACAD
 70
     0
  0
ENDTAB
  0
TABLE
  2
DIMSTYLE
  5
A
330
0
100
AcDbSymbolTable
 70
    18
  0
DIMSTYLE
105
27
330
A
100
AcDbSymbolTableRecord
100
AcDbDimStyleTableRecord
  2
ISO-25
 70
     0
  3

  4

  5

  6

  7

 40
1.0
 41
2.5
 42
0.625
 43
3.75
 44
1.25
 45
0.0
 46
0.0
 47
0.0
 48
0.0
140
2.5
141
2.5
142
0.0
143
0.03937007874016
144
1.0
145
0.0
146
1.0
147
0.625
 71
     0
 72
     0
 73
     0
 74
     0
 75
     0
 76
     0
 77
     1
 78
     8
170
     0
171
     3
172
     1
173
     0
174
     0
175
     0
176
     0
177
     0
178
     0
270
     2
271
     2
272
     2
273
     2
274
     3
340
11
275
     0
280
     0
281
     0
282
     0
283
     0
284
     8
285
     0
286
     0
287
     3
288
     0
  0
DIMSTYLE
105
6F
330
A
100
AcDbSymbolTableRecord
100
AcDbDimStyleTableRecord
  2
ONSHAPE-ISO-25
 70
     0
  3

  4

  5

  6

  7

 40
1.0
 41
2.5
 42
0.625
 43
3.75
 44
1.25
 45
0.0
 46
0.0
 47
0.0
 48
0.0
140
3.5
141
2.5
142
0.0
143
0.03937
144
1.0
145
0.0
146
1.0
147
0.625
 71
     0
 72
     0
 73
     0
 74
     0
 75
     0
 76
     0
 77
     1
 78
     8
170
     0
171
     3
172
     1
173
     0
174
     0
175
     0
176
     7
177
     7
178
     7
179
     1
270
     2
271
     2
272
     2
273
     2
274
     3
340
70
275
     0
280
     0
281
     0
282
     0
283
     0
284
     8
285
     8
286
     0
287
     3
288
     1
  0
DIMSTYLE
105
F7
330
A
100
AcDbSymbolTableRecord
100
AcDbDimStyleTableRecord
  2
ISO
 70
     0
  3

  4
"
  5

  6

  7

 40
1.0
 41
3.5
 42
1.0
 43
10.0
 44
1.0
 45
0.0
 46
0.0
 47
0.1
 48
0.1
140
3.5
141
0.0
142
0.0
143
0.03937
144
1.0
145
0.0
146
0.71
147
1.5
 71
     0
 72
     0
 73
     0
 74
     0
 75
     0
 76
     0
 77
     1
 78
     8
170
     0
171
     3
172
     1
173
     0
174
     0
175
     0
176
     7
177
     7
178
     7
270
     2
271
     2
272
     3
273
     2
274
     3
340
11
275
     0
280
     0
281
     0
282
     0
283
     0
284
     8
285
     8
286
     0
287
     3
288
     1
  0
DIMSTYLE
105
F8
330
A
100
AcDbSymbolTableRecord
100
AcDbDimStyleTableRecord
  2
ISO$3
 70
     0
  3

  4
"
  5

  6

  7

 40
1.0
 41
3.5
 42
1.0
 43
10.0
 44
1.0
 45
0.0
 46
0.0
 47
0.1
 48
0.1
140
3.5
141
0.0
142
0.0
143
0.03937
144
1.0
145
0.0
146
0.71
147
1.5
 71
     0
 72
     0
 73
     0
 74
     1
 75
     0
 76
     0
 77
     1
 78
     8
170
     0
171
     3
172
     0
173
     0
174
     0
175
     0
176
     7
177
     7
178
     7
270
     2
271
     2
272
     3
273
     2
274
     3
340
11
275
     0
280
     0
281
     0
282
     0
283
     0
284
     8
285
     8
286
     0
288
     1
  0
DIMSTYLE
105
F9
330
A
100
AcDbSymbolTableRecord
100
AcDbDimStyleTableRecord
  2
ISO$4
 70
     0
  3

  4
"
  5

  6

  7

 40
1.0
 41
3.5
 42
1.0
 43
10.0
 44
1.0
 45
0.0
 46
0.0
 47
0.1
 48
0.1
140
3.5
141
0.0
142
0.0
143
0.03937
144
1.0
145
0.0
146
0.71
147
1.5
 71
     0
 72
     0
 73
     0
 74
     0
 75
     0
 76
     0
 77
     1
 78
     8
170
     0
171
     3
172
     1
173
     0
174
     0
175
     0
176
     7
177
     7
178
     7
270
     2
271
     2
272
     3
273
     2
274
     3
340
11
275
     0
280
     0
281
     0
282
     0
283
     0
284
     8
285
     8
286
     0
287
     3
288
     1
  0
DIMSTYLE
105
FA
330
A
100
AcDbSymbolTableRecord
100
AcDbDimStyleTableRecord
  2
ISO$6
 70
     0
  3

  4
"
  5

  6

  7

 40
1.0
 41
0.5
 42
1.0
 43
10.0
 44
1.0
 45
0.0
 46
0.0
 47
0.1
 48
0.1
140
3.5
141
0.0
142
0.0
143
0.03937
144
1.0
145
0.0
146
0.71
147
1.5
 71
     0
 72
     0
 73
     0
 74
     0
 75
     0
 76
     0
 77
     0
 78
     8
170
     0
171
     3
172
     1
173
     0
174
     0
175
     0
176
     7
177
     7
178
     7
270
     2
271
     2
272
     3
273
     2
274
     3
340
11
275
     0
280
     0
281
     0
282
     0
283
     0
284
     8
285
     8
286
     0
287
     3
288
     1
  0
DIMSTYLE
105
FB
330
A
100
AcDbSymbolTableRecord
100
AcDbDimStyleTableRecord
  2
ISO$7
 70
     0
  3

  4
"
  5

  6

  7

 40
1.0
 41
3.5
 42
1.0
 43
10.0
 44
1.0
 45
0.0
 46
0.0
 47
0.1
 48
0.1
140
3.5
141
0.0
142
0.0
143
0.03937
144
1.0
145
0.0
146
0.71
147
1.5
 71
     0
 72
     0
 73
     0
 74
     0
 75
     0
 76
     0
 77
     1
 78
     8
170
     0
171
     3
172
     1
173
     0
174
     0
175
     0
176
     7
177
     7
178
     7
270
     2
271
     2
272
     3
273
     2
274
     3
340
11
275
     0
280
     0
281
     0
282
     0
283
     0
284
     8
285
     8
286
     0
287
     3
288
     1
  0
DIMSTYLE
105
FC
330
A
100
AcDbSymbolTableRecord
100
AcDbDimStyleTableRecord
  2
ISO$SF
 70
     0
  3

  4
"
  5

  6

  7

 40
1.0
 41
3.5
 42
1.0
 43
10.0
 44
1.0
 45
0.0
 46
0.0
 47
0.1
 48
0.1
140
3.5
141
0.0
142
0.0
143
0.03937
144
1.0
145
0.0
146
0.71
147
1.5
 71
     0
 72
     0
 73
     0
 74
     0
 75
     1
 76
     1
 77
     1
 78
     8
170
     0
171
     3
172
     1
173
     0
174
     0
175
     0
176
     7
177
     7
178
     7
270
     2
271
     2
272
     3
273
     2
274
     3
340
11
275
     0
280
     0
281
     0
282
     0
283
     0
284
     8
285
     8
286
     0
287
     3
288
     1
  0
DIMSTYLE
105
FD
330
A
100
AcDbSymbolTableRecord
100
AcDbDimStyleTableRecord
  2
ISO$SH
 70
     0
  3

  4
"
  5

  6

  7

 40
1.0
 41
3.5
 42
1.0
 43
10.0
 44
1.0
 45
0.0
 46
0.0
 47
0.1
 48
0.1
140
3.5
141
0.0
142
0.0
143
0.03937
144
2.0
145
0.0
146
0.71
147
1.5
 71
     0
 72
     0
 73
     0
 74
     0
 75
     1
 76
     1
 77
     1
 78
     8
170
     0
171
     3
172
     1
173
     1
174
     0
175
     0
176
     7
177
     7
178
     7
270
     2
271
     2
272
     3
273
     2
274
     3
340
11
275
     0
280
     0
281
     0
282
     0
283
     0
284
     8
285
     8
286
     0
287
     3
288
     1
  0
DIMSTYLE
105
100
330
A
100
AcDbSymbolTableRecord
100
AcDbDimStyleTableRecord
  2
ONSHAPE-ISO-25$0
 70
     0
  3

  4

  5

  6

  7

 40
1.0
 41
2.5
 42
0.625
 43
3.75
 44
1.25
 45
0.0
 46
0.0
 47
0.0
 48
0.0
140
3.5
141
2.5
142
0.0
143
0.03937
144
1.0
145
0.0
146
1.0
147
0.625
 71
     0
 72
     0
 73
     0
 74
     0
 75
     0
 76
     0
 77
     1
 78
     8
170
     0
171
     3
172
     1
173
     0
174
     0
175
     0
176
     7
177
     7
178
     7
179
     1
270
     2
271
     2
272
     2
273
     2
274
     3
340
70
275
     0
280
     0
281
     0
282
     0
283
     0
284
     8
285
     8
286
     0
287
     3
288
     1
  0
DIMSTYLE
105
101
330
A
100
AcDbSymbolTableRecord
100
AcDbDimStyleTableRecord
  2
ONSHAPE-ISO-25$2
 70
     0
  3

  4

  5

  6

  7

 40
1.0
 41
2.5
 42
0.625
 43
3.75
 44
1.25
 45
0.0
 46
0.0
 47
0.0
 48
0.0
140
3.5
141
2.5
142
0.0
143
0.03937
144
1.0
145
0.0
146
1.0
147
0.625
 71
     0
 72
     0
 73
     0
 74
     0
 75
     0
 76
     0
 77
     1
 78
     8
170
     0
171
     3
172
     1
173
     0
174
     0
175
     0
176
     7
177
     7
178
     7
179
     1
270
     2
271
     2
272
     2
273
     2
274
     3
340
70
275
     0
280
     0
281
     0
282
     0
283
     0
284
     8
285
     8
286
     0
287
     3
288
     1
  0
DIMSTYLE
105
102
330
A
100
AcDbSymbolTableRecord
100
AcDbDimStyleTableRecord
  2
ONSHAPE-ISO-25$3
 70
     0
  3

  4

  5

  6

  7

 40
1.0
 41
2.5
 42
0.625
 43
3.75
 44
1.25
 45
0.0
 46
0.0
 47
0.0
 48
0.0
140
3.5
141
0.0
142
0.0
143
0.03937
144
1.0
145
0.0
146
1.0
147
0.625
 71
     0
 72
     0
 73
     0
 74
     0
 75
     0
 76
     0
 77
     1
 78
     8
170
     0
171
     3
172
     1
173
     0
174
     0
175
     0
176
     7
177
     7
178
     7
179
     1
270
     2
271
     2
272
     2
273
     2
274
     3
340
70
275
     0
280
     0
281
     0
282
     0
283
     0
284
     8
285
     8
286
     0
287
     3
288
     1
  0
DIMSTYLE
105
103
330
A
100
AcDbSymbolTableRecord
100
AcDbDimStyleTableRecord
  2
ONSHAPE-ISO-25$4
 70
     0
  3

  4

  5

  6

  7

 40
1.0
 41
2.5
 42
0.625
 43
3.75
 44
1.25
 45
0.0
 46
0.0
 47
0.0
 48
0.0
140
3.5
141
0.0
142
0.0
143
0.03937
144
1.0
145
0.0
146
1.0
147
0.625
 71
     0
 72
     0
 73
     0
 74
     0
 75
     0
 76
     0
 77
     1
 78
     8
170
     0
171
     3
172
     1
173
     0
174
     0
175
     0
176
     7
177
     7
178
     7
179
     1
270
     2
271
     2
272
     2
273
     2
274
     3
340
70
275
     0
280
     0
281
     0
282
     0
283
     0
284
     8
285
     8
286
     0
287
     3
288
     1
  0
DIMSTYLE
105
104
330
A
100
AcDbSymbolTableRecord
100
AcDbDimStyleTableRecord
  2
ONSHAPE-ISO-25$6
 70
     0
  3

  4

  5

  6

  7

 40
1.0
 41
0.5
 42
0.625
 43
3.75
 44
1.25
 45
0.0
 46
0.0
 47
0.0
 48
0.0
140
3.5
141
2.5
142
0.0
143
0.03937
144
1.0
145
0.0
146
1.0
147
0.625
 71
     0
 72
     0
 73
     0
 74
     0
 75
     0
 76
     0
 77
     1
 78
     8
170
     0
171
     3
172
     1
173
     0
174
     0
175
     0
176
     7
177
     7
178
     7
179
     1
270
     2
271
     2
272
     2
273
     2
274
     3
340
70
275
     0
280
     0
281
     0
282
     0
283
     0
284
     8
285
     8
286
     0
287
     3
288
     1
  0
DIMSTYLE
105
105
330
A
100
AcDbSymbolTableRecord
100
AcDbDimStyleTableRecord
  2
ONSHAPE-ISO-25$7
 70
     0
  3

  4

  5

  6

  7

 40
1.0
 41
2.5
 42
0.625
 43
3.75
 44
1.25
 45
0.0
 46
0.0
 47
0.0
 48
0.0
140
3.5
141
2.5
142
0.0
143
0.03937
144
1.0
145
0.0
146
1.0
147
0.625
 71
     0
 72
     0
 73
     0
 74
     0
 75
     0
 76
     0
 77
     1
 78
     8
170
     0
171
     3
172
     1
173
     0
174
     0
175
     0
176
     7
177
     7
178
     7
179
     1
270
     2
271
     2
272
     2
273
     2
274
     3
340
70
275
     0
280
     0
281
     0
282
     0
283
     0
284
     8
285
     8
286
     0
287
     3
288
     1
  0
DIMSTYLE
105
106
330
A
100
AcDbSymbolTableRecord
100
AcDbDimStyleTableRecord
  2
ONSHAPE-STANDARD-GTOLERANC
 70
     0
  3

  4

  5

  6

  7

 40
1.0
 41
2.5
 42
0.625
 43
3.75
 44
1.25
 45
0.0
 46
0.0
 47
0.0
 48
0.0
140
3.5
141
2.5
142
0.0
143
0.03937
144
1.0
145
0.0
146
1.0
147
0.625
 71
     0
 72
     0
 73
     0
 74
     0
 75
     0
 76
     0
 77
     1
 78
     8
170
     0
171
     3
172
     1
173
     0
174
     0
175
     0
176
     7
177
     7
178
     7
179
     1
270
     2
271
     2
272
     2
273
     2
274
     3
340
E3
275
     0
280
     0
281
     0
282
     0
283
     0
284
     8
285
     8
286
     0
287
     3
288
     1
  0
DIMSTYLE
105
108
330
A
100
AcDbSymbolTableRecord
100
AcDbDimStyleTableRecord
  2
ONSHAPE-ORDINATESTYLE
 70
     0
  3

  4

  5

  6

  7

 40
1.0
 41
2.5
 42
0.625
 43
3.75
 44
1.25
 45
0.0
 46
0.0
 47
0.0
 48
0.0
140
3.5
141
2.5
142
0.0
143
0.03937
144
1.0
145
0.0
146
1.0
147
0.625
 71
     0
 72
     0
 73
     0
 74
     0
 75
     0
 76
     0
 77
     1
 78
     8
170
     0
171
     3
172
     1
173
     0
174
     0
175
     0
176
     7
177
     7
178
     7
179
     1
270
     2
271
     2
272
     2
273
     2
274
     3
340
70
275
     0
280
     0
281
     0
282
     0
283
     0
284
     8
285
     8
286
     0
287
     3
288
     1
  0
DIMSTYLE
105
109
330
A
100
AcDbSymbolTableRecord
100
AcDbDimStyleTableRecord
  2
ONSHAPE-CHAMFERDIMSTYLE
 70
     0
  3

  4

  5

  6

  7

 40
1.0
 41
2.5
 42
0.625
 43
3.75
 44
1.25
 45
0.0
 46
0.0
 47
0.0
 48
0.0
140
3.5
141
2.5
142
0.0
143
0.03937
144
1.0
145
0.0
146
1.0
147
0.625
 71
     0
 72
     0
 73
     0
 74
     0
 75
     0
 76
     0
 77
     1
 78
     8
170
     0
171
     3
172
     1
173
     0
174
     0
175
     0
176
     7
177
     7
178
     7
179
     1
270
     2
271
     2
272
     2
273
     2
274
     3
340
70
275
     0
280
     0
281
     0
282
     0
283
     0
284
     8
285
     8
286
     0
287
     3
288
     1
  0
ENDTAB
  0
TABLE
  2
BLOCK_RECORD
  5
1
330
0
100
AcDbSymbolTable
 70
     1
  0
BLOCK_RECORD
  5
1F
330
1
100
AcDbSymbolTableRecord
100
AcDbBlockTableRecord
  2
*MODEL_SPACE
  0
BLOCK_RECORD
  5
1B
330
1
100
AcDbSymbolTableRecord
100
AcDbBlockTableRecord
  2
*PAPER_SPACE
  0
ENDTAB
  0
ENDSEC
  0
SECTION
  2
BLOCKS
  0
BLOCK
  5
20
330
1F
100
AcDbEntity
  8
0
100
AcDbBlockBegin
  2
*MODEL_SPACE
 70
     0
 10
0.0
 20
0.0
 30
0.0
  3
*MODEL_SPACE
  1

  0
ENDBLK
  5
21
330
1F
100
AcDbEntity
  8
0
100
AcDbBlockEnd
  0
BLOCK
  5
1C
330
1B
100
AcDbEntity
 67
     1
  8
0
100
AcDbBlockBegin
  2
*PAPER_SPACE
 70
     0
 10
0.0
 20
0.0
 30
0.0
  3
*PAPER_SPACE
  1

  0
ENDBLK
  5
1D
330
1B
100
AcDbEntity
 67
     1
  8
0
100
AcDbBlockEnd
  0
ENDSEC
  0
SECTION
  2
ENTITIES
  0
MTEXT
  5
71
102
{ACAD_XDICTIONARY
360
72
102
}
330
1F
100
AcDbEntity
  8
ANNOTATION_TEXT
 62
     7
 60
     1
100
AcDbMText
 10
474.9712630359212
 20
89.09326981546533
 30
0.0
 40
3.5
 41
0.0
 71
     2
 72
     1
  1

  7
ONSHAPE-STANDARD-VIEW-LABE
1001
ACAD
1000
ACAD_MTEXT_DEFINED_HEIGHT_BEGIN
1070
    46
1040
3.5
1000
ACAD_MTEXT_DEFINED_HEIGHT_END
  0
CIRCLE
  5
79
330
1F
100
AcDbEntity
  8
VISIBLE
100
AcDbCircle
 10
459.8592102127518
 20
143.7335789952163
 30
0.0
 40
3.2
  0
CIRCLE
  5
7A
330
1F
100
AcDbEntity
  8
VISIBLE
100
AcDbCircle
 10
489.3399222440628
 20
164.3948378660817
 30
0.0
 40
3.2
  0
SPLINE
  5
7B
330
1F
100
AcDbEntity
  8
VISIBLE
100
AcDbSpline
210
0.0
220
0.0
230
1.0
 70
     8
 71
     3
 72
    17
 73
    13
 74
     0
 42
0.000000001
 43
0.0000000299643198
 40
-4.10273610010148
 40
-4.10273610010148
 40
-4.10273610010148
 40
-4.10273610010148
 40
-2.93052578578677
 40
-2.93052578578677
 40
-2.93052578578677
 40
-1.75831547147206
 40
-1.75831547147206
 40
-1.75831547147206
 40
-0.586105157157355
 40
-0.586105157157355
 40
-0.586105157157355
 40
0.0
 40
0.0
 40
0.0
 40
0.0
 10
397.001223897124
 20
148.9669209651089
 30
0.0
 10
399.4619703418498
 20
145.9451505864504
 30
0.0
 10
402.5395886886703
 20
143.4270042206744
 30
0.0
 10
405.9880071875029
 20
141.6129590859816
 30
0.0
 10
409.4364256863354
 20
139.7989139512888
 30
0.0
 10
413.2556443371801
 20
138.6889700476793
 30
0.0
 10
417.1391405911065
 20
138.3732264267844
 30
0.0
 10
421.0226368450329
 20
138.0574828058896
 30
0.0
 10
424.970410702041
 20
138.5359394677094
 30
0.0
 10
428.6670192162071
 20
139.7686974482833
 30
0.0
 10
430.5153234732902
 20
140.3850764385702
 30
0.0
 10
432.3008363946628
 20
141.1900307585457
 30
0.0
 10
433.9882735760807
 20
142.1642730694779
 30
0.0
  0
LINE
  5
7C
330
1F
100
AcDbEntity
  8
VISIBLE
100
AcDbLine
 10
433.9882735760907
 20
142.1642730694879
 30
0.0
 11
434.688966118985
 21
142.568818097747
 31
0.0
  0
ARC
  5
7D
330
1F
100
AcDbEntity
  8
VISIBLE
100
AcDbCircle
 10
429.6889661189749
 20
151.2290721355814
 30
0.0000000000000007
 40
10.0
100
AcDbArc
 50
300.0000000000786
 51
3.612200038810428
  0
ARC
  5
7E
330
1F
100
AcDbEntity
  8
VISIBLE
100
AcDbCircle
 10
474.5995662284173
 20
154.064208430639
 30
0.0
 40
35.0
100
AcDbArc
 50
146.3877999612385
 51
183.6122000387395
  0
ARC
  5
7F
330
1F
100
AcDbEntity
  8
VISIBLE
100
AcDbCircle
 10
437.1234137819621
 20
178.9748085400813
 30
0.0000000000000005
 40
10.0
100
AcDbArc
 50
326.3877999612274
 51
29.99999999992154
  0
LINE
  5
80
330
1F
100
AcDbEntity
  8
VISIBLE
100
AcDbLine
 10
445.7836678198165
 20
183.9748085400713
 30
0.0
 11
431.0829227835661
 21
209.437245851973
 31
0.0
  0
SPLINE
  5
81
330
1F
100
AcDbEntity
  8
VISIBLE
100
AcDbSpline
210
0.0
220
0.0
230
1.0
 70
     8
 71
     3
 72
    26
 73
    22
 74
     0
 42
0.000000001
 43
0.0000000341098256
 40
-8.32658516199104
 40
-8.32658516199104
 40
-8.32658516199104
 40
-8.32658516199104
 40
-7.13707299599232
 40
-7.13707299599232
 40
-7.13707299599232
 40
-5.947560829993599
 40
-5.947560829993599
 40
-5.947560829993599
 40
-4.75804866399488
 40
-4.75804866399488
 40
-4.75804866399488
 40
-3.56853649799616
 40
-3.56853649799616
 40
-3.56853649799616
 40
-2.37902433199744
 40
-2.37902433199744
 40
-2.37902433199744
 40
-1.18951216599872
 40
-1.18951216599872
 40
-1.18951216599872
 40
0.0
 40
0.0
 40
0.0
 40
0.0
 10
431.0829227835561
 20
209.437245851983
 30
0.0
 10
429.1060065771495
 20
212.8613651637856
 30
0.0
 10
426.4195263994062
 20
215.8743182263765
 30
0.0
 10
423.2445586284689
 20
218.2298476904105
 30
0.0
 10
420.0695908575315
 20
220.5853771544444
 30
0.0
 10
416.4061354934001
 20
222.2834830199213
 30
0.0
 10
412.5563370087445
 20
223.181424453205
 30
0.0
 10
408.7065385240889
 20
224.0793658864888
 30
0.0
 10
404.6703969189091
 20
224.1771428875794
 30
0.0
 10
400.7805800531577
 20
223.4698716241896
 30
0.0
 10
396.8907631874063
 20
222.7626003607999
 30
0.0
 10
393.1472710610833
 20
221.2502808329298
 30
0.0
 10
389.8600614310915
 20
219.0546807947399
 30
0.0
 10
386.5728518010998
 20
216.85908075655
 30
0.0
 10
383.7419246674394
 20
213.9802002080403
 30
0.0
 10
381.598891379793
 20
210.6578619801919
 30
0.0
 10
379.4558580921465
 20
207.3355237523435
 30
0.0
 10
378.000718650514
 20
203.5697278451563
 30
0.0
 10
377.3556491977801
 20
199.6696476367996
 30
0.0
 10
376.7105797450462
 20
195.7695674284428
 30
0.0
 10
376.875580281211
 20
191.7352029189165
 30
0.0
 10
377.8350911947643
 20
187.8995635256231
 30
0.0
  0
SPLINE
  5
82
330
1F
100
AcDbEntity
  8
VISIBLE
100
AcDbSpline
210
0.0
220
0.0
230
1.0
 70
     8
 71
     3
 72
    14
 73
    10
 74
     0
 42
0.000000001
 43
0.0000000291610685
 40
-20.2159293080716
 40
-20.2159293080716
 40
-20.2159293080716
 40
-20.2159293080716
 40
-12.8944760558898
 40
-12.8944760558898
 40
-12.8944760558898
 40
-7.03594046513152
 40
-7.03594046513152
 40
-7.03594046513152
 40
-5.30359756725542
 40
-5.30359756725542
 40
-5.30359756725542
 40
-5.30359756725542
 10
377.8350911947643
 20
187.8995635256231
 30
0.0
 10
379.6748299208041
 20
180.5452184824449
 30
0.0
 10
382.3402898299039
 20
173.599377972735
 30
0.0
 10
385.5574056529518
 20
167.0963154125582
 30
0.0
 10
388.1317016157514
 20
161.8926458478621
 30
0.0
 10
391.0476954214819
 20
156.9926479208461
 30
0.0
 10
394.1723923219035
 20
152.6602261954162
 30
0.0
 10
395.0963512873487
 20
151.3791483747987
 30
0.0
 10
396.0379122978227
 20
150.1498573307901
 30
0.0
 10
397.0012238971238
 20
148.9669209651091
 30
0.0
  0
SPLINE
  5
83
330
1F
100
AcDbEntity
  8
VISIBLE
100
AcDbSpline
210
0.0
220
0.0
230
1.0
 70
     8
 71
     3
 72
    17
 73
    13
 74
     0
 42
0.000000001
 43
0.0000000402942632
 40
-5.01821277722207
 40
-5.01821277722207
 40
-5.01821277722207
 40
-5.01821277722207
 40
-3.58443769801577
 40
-3.58443769801577
 40
-3.58443769801577
 40
-2.15066261880946
 40
-2.15066261880946
 40
-2.15066261880946
 40
-0.716887539603153
 40
-0.716887539603153
 40
-0.716887539603153
 40
0.0
 40
0.0
 40
0.0
 40
0.0
 10
438.0028417459026
 20
304.408055923639
 30
0.0
 10
433.5563255226005
 20
302.690795466592
 30
0.0
 10
429.544219237641
 20
299.855354452608
 30
0.0
 10
426.4412256091591
 20
296.238995878934
 30
0.0
 10
423.3382319806772
 20
292.62263730526
 30
0.0
 10
421.1443510086729
 20
288.225361171895
 30
0.0
 10
420.1227897886654
 20
283.571445382109
 30
0.0
 10
419.1012285686578
 20
278.917529592324
 30
0.0
 10
419.251987100647
 20
274.006974146119
 30
0.0
 10
420.554195326245
 20
269.422458851776
 30
0.0
 10
421.2052994390441
 20
267.130201204605
 30
0.0
 10
422.1442659752453
 20
264.919453595399
 30
0.0
 10
423.3359163539594
 20
262.855454594607
 30
0.0
  0
LINE
  5
84
330
1F
100
AcDbEntity
  8
VISIBLE
100
AcDbLine
 10
423.3359163539693
 20
262.855454594597
 30
0.0
 11
463.1041758955053
 21
193.9748085400713
 31
0.0
  0
ARC
  5
85
330
1F
100
AcDbEntity
  8
VISIBLE
100
AcDbCircle
 10
471.7644299333397
 20
198.9748085400814
 30
0.0000000000000002
 40
10.0
100
AcDbArc
 50
210.0000000000788
 51
273.6122000388106
  0
ARC
  5
86
330
1F
100
AcDbEntity
  8
VISIBLE
100
AcDbCircle
 10
474.5995662284173
 20
154.064208430639
 30
0.0
 40
35.0
100
AcDbArc
 50
86.38779996126034
 51
93.61220003877231
  0
ARC
  5
87
330
1F
100
AcDbEntity
  8
VISIBLE
100
AcDbCircle
 10
477.4347025234749
 20
198.9748085400814
 30
0.0000000000000007
 40
10.0
100
AcDbArc
 50
266.3877999611891
 51
329.9999999999212
  0
LINE
  5
88
330
1F
100
AcDbEntity
  8
VISIBLE
100
AcDbLine
 10
486.0949565613093
 20
193.9748085400713
 30
0.0
 11
525.6945036120374
 21
262.563235988647
 31
0.0
  0
SPLINE
  5
89
330
1F
100
AcDbEntity
  8
VISIBLE
100
AcDbSpline
210
0.0
220
0.0
230
1.0
 70
     8
 71
     3
 72
    17
 73
    13
 74
     0
 42
0.000000001
 43
0.0000000467898733
 40
-4.97327830469009
 40
-4.97327830469009
 40
-4.97327830469009
 40
-4.97327830469009
 40
-3.5523416462072
 40
-3.5523416462072
 40
-3.5523416462072
 40
-2.13140498772432
 40
-2.13140498772432
 40
-2.13140498772432
 40
-0.710468329241441
 40
-0.710468329241441
 40
-0.710468329241441
 40
0.0
 40
0.0
 40
0.0
 40
0.0
 10
525.6945036120474
 20
262.563235988657
 30
0.0
 10
528.056507342109
 20
266.654346456791
 30
0.0
 10
529.3973375912816
 20
271.332389457118
 30
0.0
 10
529.5621765485344
 20
276.052129242053
 30
0.0
 10
529.7270155057872
 20
280.771869026987
 30
0.0
 10
528.7158631711203
 20
285.533305596529
 30
0.0
 10
526.6459343049708
 20
289.777667015662
 30
0.0
 10
524.5760054388213
 20
294.022028434796
 30
0.0
 10
521.4473000411891
 20
297.74931470352
 30
0.0
 10
517.6268795777169
 20
300.526724430805
 30
0.0
 10
515.7166693459808
 20
301.915429294448
 30
0.0
 10
513.6335303477847
 20
303.066665022731
 30
0.0
 10
511.4435240866923
 20
303.951500712111
 30
0.0
  0
SPLINE
  5
8A
330
1F
100
AcDbEntity
  8
VISIBLE
100
AcDbSpline
210
0.0
220
0.0
230
1.0
 70
     8
 71
     3
 72
    14
 73
    10
 74
     0
 42
0.000000001
 43
0.0000000459363139
 40
0.0
 40
0.0
 40
0.0
 40
0.0
 40
0.356779209053328
 40
0.356779209053328
 40
0.356779209053328
 40
0.727062197419449
 40
0.727062197419449
 40
0.727062197419449
 40
1.0
 40
1.0
 40
1.0
 40
1.0
 10
511.4435240866841
 20
303.9515007121
 30
0.0
 10
503.386202908356
 20
307.206927633038
 30
0.0
 10
494.711360223733
 20
309.5146885993159
 30
0.0
 10
485.7877899871308
 20
310.577975111316
 30
0.0
 10
476.5264704644167
 20
311.681506082746
 30
0.0
 10
467.0066031332173
 20
311.423285107604
 30
0.0
 10
457.7479804222475
 20
309.847701492537
 30
0.0
 10
450.9233943163478
 20
308.686329398248
 30
0.0
 10
444.262103697072
 20
306.825405259431
 30
0.0
 10
438.002841745907
 20
304.408055923627
 30
0.0
  0
ARC
  5
8B
330
1F
100
AcDbEntity
  8
VISIBLE
100
AcDbCircle
 10
512.0757186748524
 20
178.9748085400814
 30
-0.0000000000000005
 40
10.0
100
AcDbArc
 50
150.0000000000786
 51
213.6122000387733
  0
ARC
  5
8C
330
1F
100
AcDbEntity
  8
VISIBLE
100
AcDbCircle
 10
474.5995662284173
 20
154.064208430639
 30
0.0
 40
35.0
100
AcDbArc
 50
356.3877999612583
 51
33.61220003877973
  0
ARC
  5
8D
330
1F
100
AcDbEntity
  8
VISIBLE
100
AcDbCircle
 10
519.5101663378397
 20
151.2290721355814
 30
-0.0000000000000002
 40
10.0
100
AcDbArc
 50
176.3877999611894
 51
239.9999999999218
  0
LINE
  5
8E
330
1F
100
AcDbEntity
  8
VISIBLE
100
AcDbLine
 10
514.5101663378297
 20
142.568818097747
 30
0.0
 11
515.5344999991739
 21
141.9774187826299
 31
0.0
  0
SPLINE
  5
8F
330
1F
100
AcDbEntity
  8
VISIBLE
100
AcDbSpline
210
0.0
220
0.0
230
1.0
 70
     8
 71
     3
 72
    17
 73
    13
 74
     0
 42
0.000000001
 43
0.0000000406340154
 40
-4.05991109636336
 40
-4.05991109636336
 40
-4.05991109636336
 40
-4.05991109636336
 40
-2.8999364974024
 40
-2.8999364974024
 40
-2.8999364974024
 40
-1.73996189844144
 40
-1.73996189844144
 40
-1.73996189844144
 40
-1.15997459896096
 40
-1.15997459896096
 40
-1.15997459896096
 40
0.0
 40
0.0
 40
0.0
 40
0.0
 10
515.5344999991839
 20
141.9774187826199
 30
0.0
 10
518.8742662715213
 20
140.0492038262556
 30
0.0
 10
522.603681145948
 20
138.7957379661242
 30
0.0
 10
526.4292593564442
 20
138.3167736077001
 30
0.0
 10
530.2548375669402
 20
137.837809249276
 30
0.0
 10
534.1765791135056
 20
138.1333463925592
 30
0.0
 10
537.8893070297305
 20
139.1761968742106
 30
0.0
 10
539.7456709878429
 20
139.6976221150362
 30
0.0
 10
541.5497815383703
 20
140.4058756904539
 30
0.0
 10
543.2651410982545
 20
141.2864148594313
 30
0.0
 10
546.695860218023
 20
143.0474931973861
 30
0.0
 10
549.7715753752191
 20
145.4977139095795
 30
0.0
 10
552.250351559815
 20
148.4519854438953
 30
0.0
  0
SPLINE
  5
90
330
1F
100
AcDbEntity
  8
VISIBLE
100
AcDbSpline
210
0.0
220
0.0
230
1.0
 70
     8
 71
     3
 72
    17
 73
    13
 74
     0
 42
0.000000001
 43
0.00000004433712
 40
-16.8181092902309
 40
-16.8181092902309
 40
-16.8181092902309
 40
-16.8181092902309
 40
-14.2175984585467
 40
-14.2175984585467
 40
-14.2175984585467
 40
-11.8718529606011
 40
-11.8718529606011
 40
-11.8718529606011
 40
-9.226420672924469
 40
-9.226420672924469
 40
-9.226420672924469
 40
-8.882058410792212
 40
-8.882058410792212
 40
-8.882058410792212
 40
-8.882058410792212
 10
552.250351559815
 20
148.4519854438953
 30
0.0
 10
555.611833500544
 20
152.4582892289347
 30
0.0
 10
558.8329372732002
 20
157.0155442942348
 30
0.0
 10
561.6458559764085
 20
161.702109657443
 30
0.0
 10
564.1832002949723
 20
165.9295443089855
 30
0.0
 10
566.3728413308957
 20
170.2203168308046
 30
0.0
 10
568.1791093864964
 20
174.6177844838006
 30
0.0
 10
570.2161418943581
 20
179.5770620027974
 30
0.0
 10
571.7937906770806
 20
184.7397051737959
 30
0.0
 10
572.9169269004856
 20
190.4054859160392
 30
0.0
 10
573.0631282349049
 20
191.1430141764423
 30
0.0
 10
573.201385608676
 20
191.8890887535348
 30
0.0
 10
573.3315184385116
 20
192.6430870998044
 30
0.0
  0
SPLINE
  5
91
330
1F
100
AcDbEntity
  8
VISIBLE
100
AcDbSpline
210
0.0
220
0.0
230
1.0
 70
     8
 71
     3
 72
    26
 73
    22
 74
     0
 42
0.000000001
 43
0.0000000459827264
 40
-8.11054307026993
 40
-8.11054307026993
 40
-8.11054307026993
 40
-8.11054307026993
 40
-6.951894060231369
 40
-6.951894060231369
 40
-6.951894060231369
 40
-5.793245050192811
 40
-5.793245050192811
 40
-5.793245050192811
 40
-4.63459604015425
 40
-4.63459604015425
 40
-4.63459604015425
 40
-3.47594703011569
 40
-3.47594703011569
 40
-3.47594703011569
 40
-2.31729802007712
 40
-2.31729802007712
 40
-2.31729802007712
 40
-1.15864901003856
 40
-1.15864901003856
 40
-1.15864901003856
 40
0.0
 40
0.0
 40
0.0
 40
0.0
 10
573.3315184385115
 20
192.6430870998035
 30
0.0
 10
573.986538221784
 20
196.4383156673001
 30
0.0
 10
573.8751246075356
 20
200.36466365561
 30
0.0
 10
573.0069745503849
 20
204.1164417497932
 30
0.0
 10
572.1388244932346
 20
207.8682198439764
 30
0.0
 10
570.513937993182
 20
211.4454280440329
 30
0.0
 10
568.257963826662
 20
214.5661069143113
 30
0.0
 10
566.0019896601419
 20
217.6867857845898
 30
0.0
 10
563.1149278271541
 20
220.3509353250901
 30
0.0
 10
559.8246271055028
 20
222.3522131700184
 30
0.0
 10
556.5343263838513
 20
224.3534910149468
 30
0.0
 10
552.840786773536
 20
225.6918971643031
 30
0.0
 10
549.0322796155635
 20
226.2598828713213
 30
0.0
 10
545.2237724575912
 20
226.8278685783394
 30
0.0
 10
541.3002977519614
 20
226.6254338430194
 30
0.0
 10
537.5693086760658
 20
225.6711799621856
 30
0.0
 10
533.8383196001703
 20
224.7169260813517
 30
0.0
 10
530.2998161540086
 20
223.010853055004
 30
0.0
 10
527.2314744947254
 20
220.6842826477016
 30
0.0
 10
524.1631328354422
 20
218.3577122403992
 30
0.0
 10
521.5649529630372
 20
215.4106444521421
 30
0.0
 10
519.6392835472222
 20
212.0752871853691
 30
0.0
  0
LINE
  5
92
330
1F
100
AcDbEntity
  8
VISIBLE
100
AcDbLine
 10
519.6392835472122
 20
212.0752871853591
 30
0.0
 11
503.4154646369981
 21
183.9748085400713
 31
0.0
  0
ARC
  5
93
330
1F
100
AcDbEntity
  8
VISIBLE
100
AcDbCircle
 10
559.2136778550316
 20
265.445255209945
 30
0.0
 40
1.75
100
AcDbArc
 50
214.7360613609473
 51
34.7360613607387
  0
ARC
  5
94
330
1F
100
AcDbEntity
  8
VISIBLE
100
AcDbCircle
 10
492.0327067171737
 20
218.8643619492887
 30
0.0000000000000002
 40
83.5
100
AcDbArc
 50
34.73606136125768
 51
52.32671097276571
  0
LINE
  5
95
330
1F
100
AcDbEntity
  8
VISIBLE
100
AcDbLine
 10
543.0644088810029
 20
284.955324827865
 30
0.0
 11
544.2002090527897
 21
286.426295299297
 31
0.0
  0
ARC
  5
96
330
1F
100
AcDbEntity
  8
VISIBLE
100
AcDbCircle
 10
543.6065776496835
 20
286.884663881629
 30
0.0
 40
0.75
100
AcDbArc
 50
322.3267109716698
 51
82.32671097382934
  0
LINE
  5
97
330
1F
100
AcDbEntity
  8
VISIBLE
100
AcDbLine
 10
543.7067207846972
 20
287.627948048363
 30
0.0
 11
536.5544655605963
 21
288.591575813728
 31
0.0
  0
ARC
  5
98
330
1F
100
AcDbEntity
  8
VISIBLE
100
AcDbCircle
 10
536.4543224267487
 20
287.8482916556489
 30
0.0
 40
0.75
100
AcDbArc
 50
82.32671097382072
 51
202.3267109736215
  0
LINE
  5
99
330
1F
100
AcDbEntity
  8
VISIBLE
100
AcDbLine
 10
535.7605478966736
 20
287.563376074529
 30
0.0
 11
538.5021493841259
 21
280.887527473425
 31
0.0
  0
ARC
  5
9A
330
1F
100
AcDbEntity
  8
VISIBLE
100
AcDbCircle
 10
539.1959239222458
 20
281.172443057849
 30
0.0
 40
0.75
100
AcDbArc
 50
202.3267109736449
 51
322.3267109716488
  0
LINE
  5
9B
330
1F
100
AcDbEntity
  8
VISIBLE
100
AcDbLine
 10
539.7895553253231
 20
280.714074475539
 30
0.0
 11
540.92535549711
 21
282.185044946971
 31
0.0
  0
ARC
  5
9C
330
1F
100
AcDbEntity
  8
VISIBLE
100
AcDbCircle
 10
492.0327067171737
 20
218.8643619492887
 30
0.0
 40
80.0
100
AcDbArc
 50
34.73606136127592
 51
52.32671097274804
  0
LINE
  5
9D
330
1F
100
AcDbEntity
  8
VISIBLE
100
AcDbLine
 10
546.3802729338822
 20
252.3798345347519
 30
0.0
 11
547.9151229069178
 21
258.899258886182
 31
0.0
  0
LINE
  5
9E
330
1F
100
AcDbEntity
  8
VISIBLE
100
AcDbLine
 10
547.9151229069178
 20
258.899258886182
 30
0.0
 11
553.9276938843391
 21
260.024744537041
 31
0.0
  0
LINE
  5
9F
330
1F
100
AcDbEntity
  8
VISIBLE
100
AcDbLine
 10
553.9276938843391
 20
260.024744537041
 30
0.0
 11
552.182272995543
 21
261.862017682082
 31
0.0
  0
LINE
  5
A0
330
1F
100
AcDbEntity
  8
VISIBLE
100
AcDbLine
 10
552.182272995543
 20
261.862017682082
 30
0.0
 11
548.1981418029975
 21
261.047176832428
 31
0.0
  0
LINE
  5
A1
330
1F
100
AcDbEntity
  8
VISIBLE
100
AcDbLine
 10
548.1981418029975
 20
261.047176832428
 30
0.0
 11
549.2463338126549
 21
264.952459793107
 31
0.0
  0
LINE
  5
A2
330
1F
100
AcDbEntity
  8
VISIBLE
100
AcDbLine
 10
549.2463338126549
 20
264.952459793107
 30
0.0
 11
547.5160466309874
 21
266.773802824174
 31
0.0
  0
LINE
  5
A3
330
1F
100
AcDbEntity
  8
VISIBLE
100
AcDbLine
 10
547.5160466309874
 20
266.773802824174
 30
0.0
 11
546.0356230645743
 21
260.760692341626
 31
0.0
  0
LINE
  5
A4
330
1F
100
AcDbEntity
  8
VISIBLE
100
AcDbLine
 10
546.0356230645743
 20
260.760692341626
 30
0.0
 11
539.5045253285963
 21
259.617416317099
 31
0.0
  0
LINE
  5
A5
330
1F
100
AcDbEntity
  8
VISIBLE
100
AcDbLine
 10
539.5045253285963
 20
259.617416317099
 30
0.0
 11
541.3054364768627
 21
257.721732754151
 31
0.0
  0
LINE
  5
A6
330
1F
100
AcDbEntity
  8
VISIBLE
100
AcDbLine
 10
541.3054364768627
 20
257.721732754151
 30
0.0
 11
545.6371106774261
 21
258.553566911611
 31
0.0
  0
LINE
  5
A7
330
1F
100
AcDbEntity
  8
VISIBLE
100
AcDbLine
 10
545.6371106774261
 20
258.553566911611
 30
0.0
 11
544.5894509237014
 21
254.264898021717
 31
0.0
  0
LINE
  5
A8
330
1F
100
AcDbEntity
  8
VISIBLE
100
AcDbLine
 10
544.5894509237014
 20
254.264898021717
 30
0.0
 11
546.3802729338822
 21
252.3798345347519
 31
0.0
  0
LINE
  5
A9
330
1F
100
AcDbEntity
  8
VISIBLE
100
AcDbLine
 10
541.6489816342255
 20
262.432548675839
 30
0.0
 11
540.3448268136704
 21
264.103087550574
 31
0.0
  0
SPLINE
  5
AA
330
1F
100
AcDbEntity
  8
VISIBLE
100
AcDbSpline
210
0.0
220
0.0
230
1.0
 70
     8
 71
     3
 72
    11
 73
     7
 74
     0
 42
0.000000001
 43
0.0000000451619279
 40
-0.199167362757969
 40
-0.199167362757969
 40
-0.199167362757969
 40
-0.199167362757969
 40
-0.0903809658419996
 40
-0.0903809658419996
 40
-0.0903809658419996
 40
0.0
 40
0.0
 40
0.0
 40
0.0
 10
540.3448268136804
 20
264.103087550584
 30
0.0
 10
540.0644842065499
 20
263.932369285511
 30
0.0
 10
539.7841415994192
 20
263.761651020439
 30
0.0
 10
539.4784596301968
 20
263.67781573937
 30
0.0
 10
539.2244956015861
 20
263.608164442062
 30
0.0
 10
538.953041144538
 20
263.598483897318
 30
0.0
 10
538.6815866874899
 20
263.588803352573
 30
0.0
  0
SPLINE
  5
AB
330
1F
100
AcDbEntity
  8
VISIBLE
100
AcDbSpline
210
0.0
220
0.0
230
1.0
 70
     8
 71
     3
 72
    11
 73
     7
 74
     0
 42
0.000000001
 43
0.0000000450436421
 40
-0.171847282766504
 40
-0.171847282766504
 40
-0.171847282766504
 40
-0.171847282766504
 40
-0.0919036161809587
 40
-0.0919036161809587
 40
-0.0919036161809587
 40
0.0
 40
0.0
 40
0.0
 40
0.0
 10
538.6815866874899
 20
263.588803352573
 30
0.0
 10
538.42408350479
 20
263.649221865709
 30
0.0
 10
538.16658032209
 20
263.709640378844
 30
0.0
 10
537.9397381155579
 20
263.827355128844
 30
0.0
 10
537.6789592449709
 20
263.962680560675
 30
0.0
 10
537.4587016446848
 20
264.173728183753
 30
0.0
 10
537.2384440443986
 20
264.384775806832
 30
0.0
  0
SPLINE
  5
AC
330
1F
100
AcDbEntity
  8
VISIBLE
100
AcDbSpline
210
0.0
220
0.0
230
1.0
 70
     8
 71
     3
 72
    11
 73
     7
 74
     0
 42
0.000000001
 43
0.0000000450123355
 40
-0.188879208850628
 40
-0.188879208850628
 40
-0.188879208850628
 40
-0.188879208850628
 40
-0.0838889176024642
 40
-0.0838889176024642
 40
-0.0838889176024642
 40
0.0
 40
0.0
 40
0.0
 40
0.0
 10
537.2384440443986
 20
264.384775806832
 30
0.0
 10
537.028019376054
 20
264.618841491155
 30
0.0
 10
536.8175947077094
 20
264.852907175479
 30
0.0
 10
536.686295525283
 20
265.126820926782
 30
0.0
 10
536.581385383927
 20
265.345682383779
 30
0.0
 10
536.5269910490465
 20
265.589983902428
 30
0.0
 10
536.472596714166
 20
265.834285421076
 30
0.0
  0
SPLINE
  5
AD
330
1F
100
AcDbEntity
  8
VISIBLE
100
AcDbSpline
210
0.0
220
0.0
230
1.0
 70
     8
 71
     3
 72
    11
 73
     7
 74
     0
 42
0.000000001
 43
0.0000000450466828
 40
-0.131651821403137
 40
-0.131651821403137
 40
-0.131651821403137
 40
-0.131651821403137
 40
-0.0629163661549862
 40
-0.0629163661549862
 40
-0.0629163661549862
 40
0.0
 40
0.0
 40
0.0
 40
0.0
 10
536.472596714166
 20
265.834285421076
 30
0.0
 10
536.4741657625018
 20
266.049275143618
 30
0.0
 10
536.4757348108375
 20
266.264264866159
 30
0.0
 10
536.5467695156547
 20
266.454068580293
 30
0.0
 10
536.6117904787347
 20
266.627803662615
 30
0.0
 10
536.7350131565454
 20
266.780436678811
 30
0.0
 10
536.8582358343559
 20
266.933069695008
 30
0.0
  0
SPLINE
  5
AE
330
1F
100
AcDbEntity
  8
VISIBLE
100
AcDbSpline
210
0.0
220
0.0
230
1.0
 70
     8
 71
     3
 72
    11
 73
     7
 74
     0
 42
0.000000001
 43
0.0000000451137908
 40
-0.0740320398243351
 40
-0.0740320398243351
 40
-0.0740320398243351
 40
-0.0740320398243351
 40
-0.0361130894227555
 40
-0.0361130894227555
 40
-0.0361130894227555
 40
0.0
 40
0.0
 40
0.0
 40
0.0
 10
536.8582358343559
 20
266.933069695008
 30
0.0
 10
536.9517773810244
 20
267.010395920548
 30
0.0
 10
537.045318927693
 20
267.087722146089
 30
0.0
 10
537.1522462516456
 20
267.135350540506
 30
0.0
 10
537.2540812436679
 20
267.180710669107
 30
0.0
 10
537.3680573980357
 20
267.19913428283
 30
0.0
 10
537.4820335524037
 20
267.217557896553
 30
0.0
  0
SPLINE
  5
AF
330
1F
100
AcDbEntity
  8
VISIBLE
100
AcDbSpline
210
0.0
220
0.0
230
1.0
 70
     8
 71
     3
 72
    11
 73
     7
 74
     0
 42
0.000000001
 43
0.0000000451842737
 40
-0.0939913261844371
 40
-0.0939913261844371
 40
-0.0939913261844371
 40
-0.0939913261844371
 40
-0.0533751104500705
 40
-0.0533751104500705
 40
-0.0533751104500705
 40
0.0
 40
0.0
 40
0.0
 40
0.0
 10
537.4820335524037
 20
267.217557896553
 30
0.0
 10
537.6146980861562
 20
267.207890002078
 30
0.0
 10
537.7473626199089
 20
267.198222107603
 30
0.0
 10
537.8744799275275
 20
267.167345974245
 30
0.0
 10
538.0415289795277
 20
267.126770627713
 30
0.0
 10
538.1989982737214
 20
267.049569806196
 30
0.0
 10
538.3564675679149
 20
266.972368984679
 30
0.0
  0
SPLINE
  5
B0
330
1F
100
AcDbEntity
  8
VISIBLE
100
AcDbSpline
210
0.0
220
0.0
230
1.0
 70
     8
 71
     3
 72
     9
 73
     5
 74
     0
 42
0.000000001
 43
0.0000000452937201
 40
0.0
 40
0.0
 40
0.0
 40
0.0
 40
0.361842426315984
 40
1.0
 40
1.0
 40
1.0
 40
1.0
 10
538.3564675679052
 20
266.9723689846689
 30
0.0
 10
538.5447505619221
 20
266.864645884855
 30
0.0
 10
539.065095829153
 20
266.566938673155
 30
0.0
 10
539.5697951612692
 20
266.243284659499
 30
0.0
 10
539.8918728624925
 20
266.036742399432
 30
0.0
  0
SPLINE
  5
B1
330
1F
100
AcDbEntity
  8
VISIBLE
100
AcDbSpline
210
0.0
220
0.0
230
1.0
 70
     8
 71
     3
 72
    11
 73
     7
 74
     0
 42
0.000000001
 43
0.000000045437413
 40
-0.303158303605324
 40
-0.303158303605324
 40
-0.303158303605324
 40
-0.303158303605324
 40
-0.127019632217167
 40
-0.127019632217167
 40
-0.127019632217167
 40
0.0
 40
0.0
 40
0.0
 40
0.0
 10
539.8918728625026
 20
266.036742399442
 30
0.0
 10
540.3359019308406
 20
265.756949532308
 30
0.0
 10
540.7799309991785
 20
265.477156665174
 30
0.0
 10
541.2625330916001
 20
265.293140120735
 30
0.0
 10
541.6105539992376
 20
265.160439484286
 30
0.0
 10
541.9786342153917
 20
265.077545852892
 30
0.0
 10
542.3467144315458
 20
264.994652221498
 30
0.0
  0
SPLINE
  5
B2
330
1F
100
AcDbEntity
  8
VISIBLE
100
AcDbSpline
210
0.0
220
0.0
230
1.0
 70
     8
 71
     3
 72
    11
 73
     7
 74
     0
 42
0.000000001
 43
0.0000000456040122
 40
-0.255983966135718
 40
-0.255983966135718
 40
-0.255983966135718
 40
-0.255983966135718
 40
-0.1264918958726
 40
-0.1264918958726
 40
-0.1264918958726
 40
0.0
 40
0.0
 40
0.0
 40
0.0
 10
542.3467144315458
 20
264.994652221498
 30
0.0
 10
542.7693899675885
 20
264.998430011013
 30
0.0
 10
543.192065503631
 20
265.002207800528
 30
0.0
 10
543.5703496474778
 20
265.134244268854
 30
0.0
 10
543.9398694059964
 20
265.26322161217
 30
0.0
 10
544.2670309328967
 20
265.514583286219
 30
0.0
 10
544.5941924597967
 20
265.765944960267
 30
0.0
  0
SPLINE
  5
B3
330
1F
100
AcDbEntity
  8
VISIBLE
100
AcDbSpline
210
0.0
220
0.0
230
1.0
 70
     8
 71
     3
 72
    11
 73
     7
 74
     0
 42
0.000000001
 43
0.0000000457496715
 40
-0.164304206911623
 40
-0.164304206911623
 40
-0.164304206911623
 40
-0.164304206911623
 40
-0.0829861528146668
 40
-0.0829861528146668
 40
-0.0829861528146668
 40
0.0
 40
0.0
 40
0.0
 40
0.0
 10
544.5941924597967
 20
265.765944960267
 30
0.0
 10
544.7762025636328
 20
265.966654093609
 30
0.0
 10
544.9582126674688
 20
266.167363226952
 30
0.0
 10
545.0895852935663
 20
266.396946983391
 30
0.0
 10
545.2236528010351
 20
266.631240252053
 30
0.0
 10
545.3049840429127
 20
266.895604919618
 30
0.0
 10
545.3863152847902
 20
267.159969587183
 30
0.0
  0
SPLINE
  5
B4
330
1F
100
AcDbEntity
  8
VISIBLE
100
AcDbSpline
210
0.0
220
0.0
230
1.0
 70
     8
 71
     3
 72
    11
 73
     7
 74
     0
 42
0.000000001
 43
0.0000000458572071
 40
-0.177246824471514
 40
-0.177246824471514
 40
-0.177246824471514
 40
-0.177246824471514
 40
-0.0912304467391195
 40
-0.0912304467391195
 40
-0.0912304467391195
 40
0.0
 40
0.0
 40
0.0
 40
0.0
 10
545.3863152847902
 20
267.159969587183
 30
0.0
 10
545.4284840860764
 20
267.443057078782
 30
0.0
 10
545.4706528873627
 20
267.726144570381
 30
0.0
 10
545.4513606964919
 20
268.004699898068
 30
0.0
 10
545.4308990676936
 20
268.300140460161
 30
0.0
 10
545.3412994296943
 20
268.590482751315
 30
0.0
 10
545.251699791695
 20
268.880825042469
 30
0.0
  0
SPLINE
  5
B5
330
1F
100
AcDbEntity
  8
VISIBLE
100
AcDbSpline
210
0.0
220
0.0
230
1.0
 70
     8
 71
     3
 72
    11
 73
     7
 74
     0
 42
0.000000001
 43
0.0000000459446512
 40
-0.217995973813411
 40
-0.217995973813411
 40
-0.217995973813411
 40
-0.217995973813411
 40
-0.11633956329797
 40
-0.11633956329797
 40
-0.11633956329797
 40
0.0
 40
0.0
 40
0.0
 40
0.0
 10
545.251699791695
 20
268.880825042469
 30
0.0
 10
545.110793283773
 20
269.187136054052
 30
0.0
 10
544.969886775851
 20
269.493447065635
 30
0.0
 10
544.7895562023537
 20
269.774041068477
 30
0.0
 10
544.5831788567086
 20
270.095163795408
 30
0.0
 10
544.3251662085653
 20
270.382603909796
 30
0.0
 10
544.0671535604217
 20
270.670044024183
 30
0.0
  0
SPLINE
  5
B6
330
1F
100
AcDbEntity
  8
VISIBLE
100
AcDbSpline
210
0.0
220
0.0
230
1.0
 70
     8
 71
     3
 72
    11
 73
     7
 74
     0
 42
0.000000001
 43
0.0000000459433845
 40
-0.365599084172513
 40
-0.365599084172513
 40
-0.365599084172513
 40
-0.365599084172513
 40
-0.162906003218582
 40
-0.162906003218582
 40
-0.162906003218582
 40
0.0
 40
0.0
 40
0.0
 40
0.0
 10
544.0671535604217
 20
270.670044024183
 30
0.0
 10
543.6354051487339
 20
271.09851306955
 30
0.0
 10
543.2036567370461
 20
271.526982114918
 30
0.0
 10
542.6863697739623
 20
271.801811249822
 30
0.0
 10
542.2706222246304
 20
272.022693559788
 30
0.0
 10
541.7996213754094
 20
272.144332757622
 30
0.0
 10
541.3286205261883
 20
272.265971955457
 30
0.0
  0
SPLINE
  5
B7
330
1F
100
AcDbEntity
  8
VISIBLE
100
AcDbSpline
210
0.0
220
0.0
230
1.0
 70
     8
 71
     3
 72
    11
 73
     7
 74
     0
 42
0.000000001
 43
0.0000000457230877
 40
-0.273627181424126
 40
-0.273627181424126
 40
-0.273627181424126
 40
-0.273627181424126
 40
-0.14031963624559
 40
-0.14031963624559
 40
-0.14031963624559
 40
0.0
 40
0.0
 40
0.0
 40
0.0
 10
541.3286205261883
 20
272.265971955457
 30
0.0
 10
540.8853224765824
 20
272.259039914942
 30
0.0
 10
540.4420244269766
 20
272.252107874428
 30
0.0
 10
540.041961627972
 20
272.118281869507
 30
0.0
 10
539.6208551830478
 20
271.977416502092
 30
0.0
 10
539.2476520366163
 20
271.695956611242
 30
0.0
 10
538.874448890185
 20
271.414496720392
 30
0.0
  0
LINE
  5
B8
330
1F
100
AcDbEntity
  8
VISIBLE
100
AcDbLine
 10
538.874448890175
 20
271.414496720382
 30
0.0
 11
540.298610832944
 21
269.777146077357
 31
0.0
  0
SPLINE
  5
B9
330
1F
100
AcDbEntity
  8
VISIBLE
100
AcDbSpline
210
0.0
220
0.0
230
1.0
 70
     8
 71
     3
 72
    11
 73
     7
 74
     0
 42
0.000000001
 43
0.0000000456179007
 40
-0.153443637030741
 40
-0.153443637030741
 40
-0.153443637030741
 40
-0.153443637030741
 40
-0.0691229354318202
 40
-0.0691229354318202
 40
-0.0691229354318202
 40
0.0
 40
0.0
 40
0.0
 40
0.0
 10
540.298610832954
 20
269.777146077367
 30
0.0
 10
540.5139163975225
 20
269.91171083431
 30
0.0
 10
540.7292219620911
 20
270.046275591254
 30
0.0
 10
540.9650547730262
 20
270.10846246065
 30
0.0
 10
541.158381629348
 20
270.159440914061
 30
0.0
 10
541.3655030064489
 20
270.161780682286
 30
0.0
 10
541.57262438355
 20
270.164120450512
 30
0.0
  0
SPLINE
  5
BA
330
1F
100
AcDbEntity
  8
VISIBLE
100
AcDbSpline
210
0.0
220
0.0
230
1.0
 70
     8
 71
     3
 72
    11
 73
     7
 74
     0
 42
0.000000001
 43
0.0000000457153497
 40
-0.148447888053425
 40
-0.148447888053425
 40
-0.148447888053425
 40
-0.148447888053425
 40
-0.0831259608704488
 40
-0.0831259608704488
 40
-0.0831259608704488
 40
0.0
 40
0.0
 40
0.0
 40
0.0
 10
541.57262438355
 20
270.164120450512
 30
0.0
 10
541.777481157381
 20
270.101448789583
 30
0.0
 10
541.9823379312121
 20
270.038777128653
 30
0.0
 10
542.1638665004483
 20
269.936553358143
 30
0.0
 10
542.3948721886445
 20
269.806467650113
 30
0.0
 10
542.5881000741447
 20
269.612331072423
 30
0.0
 10
542.7813279596447
 20
269.418194494732
 30
0.0
  0
SPLINE
  5
BB
330
1F
100
AcDbEntity
  8
VISIBLE
100
AcDbSpline
210
0.0
220
0.0
230
1.0
 70
     8
 71
     3
 72
    11
 73
     7
 74
     0
 42
0.000000001
 43
0.0000000457308845
 40
-0.1742690616996
 40
-0.1742690616996
 40
-0.1742690616996
 40
-0.1742690616996
 40
-0.0788460461481536
 40
-0.0788460461481536
 40
-0.0788460461481536
 40
0.0
 40
0.0
 40
0.0
 40
0.0
 10
542.7813279596447
 20
269.418194494732
 30
0.0
 10
542.9726116715477
 20
269.203705238683
 30
0.0
 10
543.1638953834507
 20
268.989215982635
 30
0.0
 10
543.2910953961757
 20
268.740699585899
 30
0.0
 10
543.3961981118613
 20
268.535355674135
 30
0.0
 10
543.4575485022986
 20
268.306780167664
 30
0.0
 10
543.5188988927359
 20
268.078204661193
 30
0.0
  0
SPLINE
  5
BC
330
1F
100
AcDbEntity
  8
VISIBLE
100
AcDbSpline
210
0.0
220
0.0
230
1.0
 70
     8
 71
     3
 72
    11
 73
     7
 74
     0
 42
0.000000001
 43
0.0000000456527404
 40
-0.0824002439198512
 40
-0.0824002439198512
 40
-0.0824002439198512
 40
-0.0824002439198512
 40
-0.040986271545725
 40
-0.040986271545725
 40
-0.040986271545725
 40
0.0
 40
0.0
 40
0.0
 40
0.0
 10
543.5188988927359
 20
268.078204661193
 30
0.0
 10
543.5230460694324
 20
267.943658374188
 30
0.0
 10
543.527193246129
 20
267.809112087183
 30
0.0
 10
543.4856459413331
 20
267.690504202544
 30
0.0
 10
543.4445277143501
 20
267.573121235188
 30
0.0
 10
543.358653947437
 20
267.471349163946
 30
0.0
 10
543.2727801805238
 20
267.369577092703
 30
0.0
  0
SPLINE
  5
BD
330
1F
100
AcDbEntity
  8
VISIBLE
100
AcDbSpline
210
0.0
220
0.0
230
1.0
 70
     8
 71
     3
 72
    11
 73
     7
 74
     0
 42
0.000000001
 43
0.0000000455905557
 40
-0.077145565733507
 40
-0.077145565733507
 40
-0.077145565733507
 40
-0.077145565733507
 40
-0.039688541335215
 40
-0.039688541335215
 40
-0.039688541335215
 40
0.0
 40
0.0
 40
0.0
 40
0.0
 10
543.2727801805238
 20
267.369577092703
 30
0.0
 10
543.1728964309134
 20
267.295260595839
 30
0.0
 10
543.073012681303
 20
267.220944098975
 30
0.0
 10
542.9610805879659
 20
267.184587054296
 30
0.0
 10
542.8424800962155
 20
267.146064024403
 30
0.0
 10
542.7103529288092
 20
267.150158071962
 30
0.0
 10
542.578225761403
 20
267.1542521195209
 30
0.0
  0
SPLINE
  5
BE
330
1F
100
AcDbEntity
  8
VISIBLE
100
AcDbSpline
210
0.0
220
0.0
230
1.0
 70
     8
 71
     3
 72
    11
 73
     7
 74
     0
 42
0.000000001
 43
0.0000000455774921
 40
-0.223703856103958
 40
-0.223703856103958
 40
-0.223703856103958
 40
-0.223703856103958
 40
-0.140993660745802
 40
-0.140993660745802
 40
-0.140993660745802
 40
0.0
 40
0.0
 40
0.0
 40
0.0
 10
542.578225761403
 20
267.1542521195209
 30
0.0
 10
542.3279826185495
 20
267.2352860189
 30
0.0
 10
542.0777394756959
 20
267.316319918279
 30
0.0
 10
541.8390653097083
 20
267.421876452648
 30
0.0
 10
541.4322044113349
 20
267.601815602009
 30
0.0
 10
541.0589618349723
 20
267.853015144507
 30
0.0
 10
540.6857192586094
 20
268.104214687005
 30
0.0
  0
SPLINE
  5
BF
330
1F
100
AcDbEntity
  8
VISIBLE
100
AcDbSpline
210
0.0
220
0.0
230
1.0
 70
     8
 71
     3
 72
    11
 73
     7
 74
     0
 42
0.000000001
 43
0.0000000454934038
 40
-0.277609476270306
 40
-0.277609476270306
 40
-0.277609476270306
 40
-0.277609476270306
 40
-0.117069518790639
 40
-0.117069518790639
 40
-0.117069518790639
 40
0.0
 40
0.0
 40
0.0
 40
0.0
 10
540.6857192586094
 20
268.104214687005
 30
0.0
 10
540.2854845775964
 20
268.363833472751
 30
0.0
 10
539.8852498965833
 20
268.623452258498
 30
0.0
 10
539.4625126288938
 20
268.840151055555
 30
0.0
 10
539.1542426549869
 20
268.998172923084
 30
0.0
 10
538.8340065481677
 20
269.133371357173
 30
0.0
 10
538.5137704413486
 20
269.268569791262
 30
0.0
  0
SPLINE
  5
C0
330
1F
100
AcDbEntity
  8
VISIBLE
100
AcDbSpline
210
0.0
220
0.0
230
1.0
 70
     8
 71
     3
 72
    11
 73
     7
 74
     0
 42
0.000000001
 43
0.000000045329301
 40
-0.168619696280839
 40
-0.168619696280839
 40
-0.168619696280839
 40
-0.168619696280839
 40
-0.0831735804128152
 40
-0.0831735804128152
 40
-0.0831735804128152
 40
0.0
 40
0.0
 40
0.0
 40
0.0
 10
538.5137704413486
 20
269.268569791262
 30
0.0
 10
538.2457147763805
 20
269.342135630542
 30
0.0
 10
537.9776591114123
 20
269.415701469822
 30
0.0
 10
537.7059114967052
 20
269.433046092715
 30
0.0
 10
537.4413913151354
 20
269.449929415874
 30
0.0
 10
537.1733729554152
 20
269.413542287189
 30
0.0
 10
536.9053545956949
 20
269.377155158505
 30
0.0
  0
SPLINE
  5
C1
330
1F
100
AcDbEntity
  8
VISIBLE
100
AcDbSpline
210
0.0
220
0.0
230
1.0
 70
     8
 71
     3
 72
    11
 73
     7
 74
     0
 42
0.000000001
 43
0.0000000451957241
 40
-0.180904486264817
 40
-0.180904486264817
 40
-0.180904486264817
 40
-0.180904486264817
 40
-0.0957858014966772
 40
-0.0957858014966772
 40
-0.0957858014966772
 40
0.0
 40
0.0
 40
0.0
 40
0.0
 10
536.9053545956949
 20
269.377155158505
 30
0.0
 10
536.6357399488934
 20
269.293230238456
 30
0.0
 10
536.3661253020919
 20
269.209305318408
 30
0.0
 10
536.1231513660966
 20
269.077300470238
 30
0.0
 10
535.8497278132597
 20
268.928752707572
 30
0.0
 10
535.6100406244747
 20
268.719319108546
 30
0.0
 10
535.3703534356895
 20
268.50988550952
 30
0.0
  0
SPLINE
  5
C2
330
1F
100
AcDbEntity
  8
VISIBLE
100
AcDbSpline
210
0.0
220
0.0
230
1.0
 70
     8
 71
     3
 72
    11
 73
     7
 74
     0
 42
0.000000001
 43
0.0000000450207831
 40
-0.184582964053891
 40
-0.184582964053891
 40
-0.184582964053891
 40
-0.184582964053891
 40
-0.093129683387549
 40
-0.093129683387549
 40
-0.093129683387549
 40
0.0
 40
0.0
 40
0.0
 40
0.0
 10
535.3703534356895
 20
268.50988550952
 30
0.0
 10
535.1652448320992
 20
268.284509721964
 30
0.0
 10
534.9601362285089
 20
268.059133934408
 30
0.0
 10
534.8108087589809
 20
267.801522421452
 30
0.0
 10
534.6587440122942
 20
267.539188708941
 30
0.0
 10
534.5645241574973
 20
267.243426632483
 30
0.0
 10
534.4703043027006
 20
266.947664556026
 30
0.0
  0
SPLINE
  5
C3
330
1F
100
AcDbEntity
  8
VISIBLE
100
AcDbSpline
210
0.0
220
0.0
230
1.0
 70
     8
 71
     3
 72
    11
 73
     7
 74
     0
 42
0.000000001
 43
0.0000000448659216
 40
-0.193310086989988
 40
-0.193310086989988
 40
-0.193310086989988
 40
-0.193310086989988
 40
-0.0982619276552437
 40
-0.0982619276552437
 40
-0.0982619276552437
 40
0.0
 40
0.0
 40
0.0
 40
0.0
 10
534.4703043027006
 20
266.947664556026
 30
0.0
 10
534.4189839109067
 20
266.635293746384
 30
0.0
 10
534.367663519113
 20
266.322922936742
 30
0.0
 10
534.3874704943837
 20
266.015318288774
 30
0.0
 10
534.4079471830934
 20
265.697312912587
 30
0.0
 10
534.5044424723294
 20
265.384401453907
 30
0.0
 10
534.6009377615655
 20
265.071489995227
 30
0.0
  0
SPLINE
  5
C4
330
1F
100
AcDbEntity
  8
VISIBLE
100
AcDbSpline
210
0.0
220
0.0
230
1.0
 70
     8
 71
     3
 72
    11
 73
     7
 74
     0
 42
0.000000001
 43
0.0000000448613836
 40
-0.240972504278801
 40
-0.240972504278801
 40
-0.240972504278801
 40
-0.240972504278801
 40
-0.130315794008028
 40
-0.130315794008028
 40
-0.130315794008028
 40
0.0
 40
0.0
 40
0.0
 40
0.0
 10
534.6009377615655
 20
265.071489995227
 30
0.0
 10
534.7579891925
 20
264.74053009476
 30
0.0
 10
534.9150406234342
 20
264.409570194294
 30
0.0
 10
535.1130292870557
 20
264.105758701115
 30
0.0
 10
535.3461922813403
 20
263.747972572597
 30
0.0
 10
535.6361302675023
 20
263.427838002382
 30
0.0
 10
535.9260682536643
 20
263.107703432167
 30
0.0
  0
SPLINE
  5
C5
330
1F
100
AcDbEntity
  8
VISIBLE
100
AcDbSpline
210
0.0
220
0.0
230
1.0
 70
     8
 71
     3
 72
    11
 73
     7
 74
     0
 42
0.000000001
 43
0.00000004497536
 40
-0.374810633758172
 40
-0.374810633758172
 40
-0.374810633758172
 40
-0.374810633758172
 40
-0.169802476297825
 40
-0.169802476297825
 40
-0.169802476297825
 40
0.0
 40
0.0
 40
0.0
 40
0.0
 10
535.9260682536643
 20
263.107703432167
 30
0.0
 10
536.3677703898159
 20
262.67497486191
 30
0.0
 10
536.8094725259675
 20
262.242246291653
 30
0.0
 10
537.3363560663986
 20
261.964818376266
 30
0.0
 10
537.7727588466298
 20
261.735032656466
 30
0.0
 10
538.2675989817276
 20
261.611788494139
 30
0.0
 10
538.7624391168255
 20
261.488544331812
 30
0.0
  0
SPLINE
  5
C6
330
1F
100
AcDbEntity
  8
VISIBLE
100
AcDbSpline
210
0.0
220
0.0
230
1.0
 70
     8
 71
     3
 72
    11
 73
     7
 74
     0
 42
0.000000001
 43
0.0000000451705232
 40
-0.317710955646568
 40
-0.317710955646568
 40
-0.317710955646568
 40
-0.317710955646568
 40
-0.16894452616435
 40
-0.16894452616435
 40
-0.16894452616435
 40
0.0
 40
0.0
 40
0.0
 40
0.0
 10
538.7624391168255
 20
261.488544331812
 30
0.0
 10
539.2547519369515
 20
261.502656008795
 30
0.0
 10
539.7470647570776
 20
261.516767685777
 30
0.0
 10
540.2010650808145
 20
261.653061148456
 30
0.0
 10
540.7166442329064
 20
261.80784092338
 30
0.0
 10
541.182812933571
 20
262.120194799614
 30
0.0
 10
541.6489816342355
 20
262.432548675849
 30
0.0
  0
LINE
  5
C7
330
1F
100
AcDbEntity
  8
VISIBLE
100
AcDbLine
 10
550.9304742104545
 20
247.5901802664634
 30
0.0
 11
552.3479981114708
 21
246.0980595908658
 31
0.0
  0
LINE
  5
C8
330
1F
100
AcDbEntity
  8
VISIBLE
100
AcDbLine
 10
552.3479981114708
 20
246.0980595908658
 30
0.0
 11
557.9713283444171
 21
251.4402582071518
 31
0.0
  0
SPLINE
  5
C9
330
1F
100
AcDbEntity
  8
VISIBLE
100
AcDbSpline
210
0.0
220
0.0
230
1.0
 70
     8
 71
     3
 72
    11
 73
     7
 74
     0
 42
0.000000001
 43
0.0000000459559944
 40
-0.312490945735135
 40
-0.312490945735135
 40
-0.312490945735135
 40
-0.312490945735135
 40
-0.157984164716074
 40
-0.157984164716074
 40
-0.157984164716074
 40
0.0
 40
0.0
 40
0.0
 40
0.0
 10
557.9713283444271
 20
251.4402582071618
 30
0.0
 10
558.0048100784592
 20
250.9264889224776
 30
0.0
 10
558.0382918124913
 20
250.4127196377935
 30
0.0
 10
558.1524725429214
 20
249.9176670614898
 30
0.0
 10
558.2692230648382
 20
249.4114726586162
 30
0.0
 10
558.4703459398046
 20
248.9248469343864
 30
0.0
 10
558.6714688147711
 20
248.4382212101567
 30
0.0
  0
LINE
  5
CA
330
1F
100
AcDbEntity
  8
VISIBLE
100
AcDbLine
 10
558.671468814761
 20
248.4382212101467
 30
0.0
 11
560.0255285025809
 21
249.7245863160512
 31
0.0
  0
SPLINE
  5
CB
330
1F
100
AcDbEntity
  8
VISIBLE
100
AcDbSpline
210
0.0
220
0.0
230
1.0
 70
     8
 71
     3
 72
    11
 73
     7
 74
     0
 42
0.000000001
 43
0.0000000460826077
 40
-0.204644248684546
 40
-0.204644248684546
 40
-0.204644248684546
 40
-0.204644248684546
 40
-0.111270445981332
 40
-0.111270445981332
 40
-0.111270445981332
 40
0.0
 40
0.0
 40
0.0
 40
0.0
 10
560.025528502591
 20
249.7245863160612
 30
0.0
 10
559.9132709441167
 20
250.0124125907785
 30
0.0
 10
559.8010133856424
 20
250.3002388654958
 30
0.0
 10
559.7234499352382
 20
250.5968613369342
 30
0.0
 10
559.6310201587007
 20
250.9503364416158
 30
0.0
 10
559.5878584229522
 20
251.3163027559854
 30
0.0
 10
559.5446966872037
 20
251.6822690703551
 30
0.0
  0
SPLINE
  5
CC
330
1F
100
AcDbEntity
  8
VISIBLE
100
AcDbSpline
210
0.0
220
0.0
230
1.0
 70
     8
 71
     3
 72
    11
 73
     7
 74
     0
 42
0.000000001
 43
0.0000000461881512
 40
-0.233259154482485
 40
-0.233259154482485
 40
-0.233259154482485
 40
-0.233259154482485
 40
-0.112340551939201
 40
-0.112340551939201
 40
-0.112340551939201
 40
0.0
 40
0.0
 40
0.0
 40
0.0
 10
559.5446966872037
 20
251.6822690703551
 30
0.0
 10
559.5270757282503
 20
252.0625422470408
 30
0.0
 10
559.509454769297
 20
252.4428154237265
 30
0.0
 10
559.5742301901223
 20
252.8089631564561
 30
0.0
 10
559.6344103970926
 20
253.1491361118243
 30
0.0
 10
559.7657111363612
 20
253.477116673597
 30
0.0
 10
559.8970118756297
 20
253.8050972353697
 30
0.0
  0
LINE
  5
CD
330
1F
100
AcDbEntity
  8
VISIBLE
100
AcDbLine
 10
559.8970118756197
 20
253.8050972353597
 30
0.0
 11
558.7468501338698
 21
255.01578589741
 31
0.0
  0
LINE
  5
CE
330
1F
100
AcDbEntity
  8
VISIBLE
100
AcDbLine
 10
558.7468501338698
 20
255.01578589741
 30
0.0
 11
550.9304742104545
 21
247.5901802664634
 31
0.0
  0
LINE
  5
CF
330
1F
100
AcDbEntity
  8
VISIBLE
100
AcDbLine
 10
474.8344439825054
 20
104.0064323132808
 30
0.0
 11
476.340381085586
 21
103.8571991607288
 31
0.0
  0
ARC
  5
D0
330
1F
100
AcDbEntity
  8
VISIBLE
100
AcDbCircle
 10
474.383592429436
 20
63.72397980378899
 30
-0.0000000000000024
 40
40.2849755
100
AcDbArc
 50
89.35875769658587
 51
89.67640701036231
  0
SPLINE
  5
D1
330
1F
100
AcDbEntity
  8
VISIBLE
100
AcDbSpline
210
0.0
220
0.0
230
1.0
 70
     8
 71
     3
 72
   962
 73
   958
 74
     0
 42
0.000000001
 43
0.0000000528536881
 40
-12.4850652998319
 40
-12.4850652998319
 40
-12.4850652998319
 40
-12.4850652998319
 40
-12.4661944456336
 40
-12.4661944456336
 40
-12.4661944456336
 40
-12.4468344615716
 40
-12.4468344615716
 40
-12.4468344615716
 40
-12.4269003619619
 40
-12.4269003619619
 40
-12.4269003619619
 40
-12.4062763174176
 40
-12.4062763174176
 40
-12.4062763174176
 40
-12.384796762081
 40
-12.384796762081
 40
-12.384796762081
 40
-12.3622459566536
 40
-12.3622459566536
 40
-12.3622459566536
 40
-12.3374443643216
 40
-12.3374443643216
 40
-12.3374443643216
 40
-12.310235543359
 40
-12.310235543359
 40
-12.310235543359
 40
-12.2795448900062
 40
-12.2795448900062
 40
-12.2795448900062
 40
-12.2498080879227
 40
-12.2498080879227
 40
-12.2498080879227
 40
-12.224278779872
 40
-12.224278779872
 40
-12.224278779872
 40
-12.2004032353801
 40
-12.2004032353801
 40
-12.2004032353801
 40
-12.1779688382692
 40
-12.1779688382692
 40
-12.1779688382692
 40
-12.1566741702017
 40
-12.1566741702017
 40
-12.1566741702017
 40
-12.1358739936623
 40
-12.1358739936623
 40
-12.1358739936623
 40
-12.1154762561804
 40
-12.1154762561804
 40
-12.1154762561804
 40
-12.0954397953997
 40
-12.0954397953997
 40
-12.0954397953997
 40
-12.0757303541062
 40
-12.0757303541062
 40
-12.0757303541062
 40
-12.0562647521435
 40
-12.0562647521435
 40
-12.0562647521435
 40
-12.0363459107738
 40
-12.0363459107738
 40
-12.0363459107738
 40
-12.0156886883293
 40
-12.0156886883293
 40
-12.0156886883293
 40
-11.9940964551228
 40
-11.9940964551228
 40
-11.9940964551228
 40
-11.9704018122824
 40
-11.9704018122824
 40
-11.9704018122824
 40
-11.9446990381317
 40
-11.9446990381317
 40
-11.9446990381317
 40
-11.9163043098818
 40
-11.9163043098818
 40
-11.9163043098818
 40
-11.8831207537026
 40
-11.8831207537026
 40
-11.8831207537026
 40
-11.8494460256503
 40
-11.8494460256503
 40
-11.8494460256503
 40
-11.8220561217921
 40
-11.8220561217921
 40
-11.8220561217921
 40
-11.797561118471
 40
-11.797561118471
 40
-11.797561118471
 40
-11.7745190069115
 40
-11.7745190069115
 40
-11.7745190069115
 40
-11.7515218994761
 40
-11.7515218994761
 40
-11.7515218994761
 40
-11.7300953390124
 40
-11.7300953390124
 40
-11.7300953390124
 40
-11.7071849965534
 40
-11.7071849965534
 40
-11.7071849965534
 40
-11.684319400857
 40
-11.684319400857
 40
-11.684319400857
 40
-11.6611935616784
 40
-11.6611935616784
 40
-11.6611935616784
 40
-11.6373799623884
 40
-11.6373799623884
 40
-11.6373799623884
 40
-11.6126590510329
 40
-11.6126590510329
 40
-11.6126590510329
 40
-11.5867493919539
 40
-11.5867493919539
 40
-11.5867493919539
 40
-11.5592100706122
 40
-11.5592100706122
 40
-11.5592100706122
 40
-11.5291715771346
 40
-11.5291715771346
 40
-11.5291715771346
 40
-11.4942459632347
 40
-11.4942459632347
 40
-11.4942459632347
 40
-11.4493465649408
 40
-11.4493465649408
 40
-11.4493465649408
 40
-11.4161258185498
 40
-11.4161258185498
 40
-11.4161258185498
 40
-11.3868938793098
 40
-11.3868938793098
 40
-11.3868938793098
 40
-11.3597568549889
 40
-11.3597568549889
 40
-11.3597568549889
 40
-11.334030867883
 40
-11.334030867883
 40
-11.334030867883
 40
-11.3087427331164
 40
-11.3087427331164
 40
-11.3087427331164
 40
-11.2828192920555
 40
-11.2828192920555
 40
-11.2828192920555
 40
-11.2560535650111
 40
-11.2560535650111
 40
-11.2560535650111
 40
-11.2282524245455
 40
-11.2282524245455
 40
-11.2282524245455
 40
-11.1992199711972
 40
-11.1992199711972
 40
-11.1992199711972
 40
-11.1687816717739
 40
-11.1687816717739
 40
-11.1687816717739
 40
-11.1364308590183
 40
-11.1364308590183
 40
-11.1364308590183
 40
-11.1011400801949
 40
-11.1011400801949
 40
-11.1011400801949
 40
-11.0589678899476
 40
-11.0589678899476
 40
-11.0589678899476
 40
-11.0121828501917
 40
-11.0121828501917
 40
-11.0121828501917
 40
-10.9732136610547
 40
-10.9732136610547
 40
-10.9732136610547
 40
-10.9398633780239
 40
-10.9398633780239
 40
-10.9398633780239
 40
-10.9091894659817
 40
-10.9091894659817
 40
-10.9091894659817
 40
-10.8795624325312
 40
-10.8795624325312
 40
-10.8795624325312
 40
-10.8494646345738
 40
-10.8494646345738
 40
-10.8494646345738
 40
-10.8187740542087
 40
-10.8187740542087
 40
-10.8187740542087
 40
-10.7873886888657
 40
-10.7873886888657
 40
-10.7873886888657
 40
-10.7547620340034
 40
-10.7547620340034
 40
-10.7547620340034
 40
-10.720312254254
 40
-10.720312254254
 40
-10.720312254254
 40
-10.683216925576
 40
-10.683216925576
 40
-10.683216925576
 40
-10.6421440453774
 40
-10.6421440453774
 40
-10.6421440453774
 40
-10.5913976548288
 40
-10.5913976548288
 40
-10.5913976548288
 40
-10.5410516016497
 40
-10.5410516016497
 40
-10.5410516016497
 40
-10.4998756188308
 40
-10.4998756188308
 40
-10.4998756188308
 40
-10.4626803283558
 40
-10.4626803283558
 40
-10.4626803283558
 40
-10.4274796984459
 40
-10.4274796984459
 40
-10.4274796984459
 40
-10.3935866916233
 40
-10.3935866916233
 40
-10.3935866916233
 40
-10.3606544892212
 40
-10.3606544892212
 40
-10.3606544892212
 40
-10.3270607090104
 40
-10.3270607090104
 40
-10.3270607090104
 40
-10.2921352398751
 40
-10.2921352398751
 40
-10.2921352398751
 40
-10.2554988880767
 40
-10.2554988880767
 40
-10.2554988880767
 40
-10.2154383455452
 40
-10.2154383455452
 40
-10.2154383455452
 40
-10.1732436839589
 40
-10.1732436839589
 40
-10.1732436839589
 40
-10.126595621572
 40
-10.126595621572
 40
-10.126595621572
 40
-10.0726151882345
 40
-10.0726151882345
 40
-10.0726151882345
 40
-10.007347261699
 40
-10.007347261699
 40
-10.007347261699
 40
-9.96229244322583
 40
-9.96229244322583
 40
-9.96229244322583
 40
-9.92088014751533
 40
-9.92088014751533
 40
-9.92088014751533
 40
-9.881032629533449
 40
-9.881032629533449
 40
-9.881032629533449
 40
-9.84205560422239
 40
-9.84205560422239
 40
-9.84205560422239
 40
-9.802155238331311
 40
-9.802155238331311
 40
-9.802155238331311
 40
-9.76030298666085
 40
-9.76030298666085
 40
-9.76030298666085
 40
-9.71620090851181
 40
-9.71620090851181
 40
-9.71620090851181
 40
-9.6700048048458
 40
-9.6700048048458
 40
-9.6700048048458
 40
-9.62128484300831
 40
-9.62128484300831
 40
-9.62128484300831
 40
-9.56912718963632
 40
-9.56912718963632
 40
-9.56912718963632
 40
-9.51475319677044
 40
-9.51475319677044
 40
-9.51475319677044
 40
-9.46269957982482
 40
-9.46269957982482
 40
-9.46269957982482
 40
-9.41431422067427
 40
-9.41431422067427
 40
-9.41431422067427
 40
-9.36869818991615
 40
-9.36869818991615
 40
-9.36869818991615
 40
-9.3251601268091
 40
-9.3251601268091
 40
-9.3251601268091
 40
-9.28205065447148
 40
-9.28205065447148
 40
-9.28205065447148
 40
-9.237912557473411
 40
-9.237912557473411
 40
-9.237912557473411
 40
-9.19268716836261
 40
-9.19268716836261
 40
-9.19268716836261
 40
-9.1466009562642
 40
-9.1466009562642
 40
-9.1466009562642
 40
-9.099812897731221
 40
-9.099812897731221
 40
-9.099812897731221
 40
-9.05247977186637
 40
-9.05247977186637
 40
-9.05247977186637
 40
-9.00492850922236
 40
-9.00492850922236
 40
-9.00492850922236
 40
-8.957542405596499
 40
-8.957542405596499
 40
-8.957542405596499
 40
-8.91060491443481
 40
-8.91060491443481
 40
-8.91060491443481
 40
-8.864443593364891
 40
-8.864443593364891
 40
-8.864443593364891
 40
-8.81943547419643
 40
-8.81943547419643
 40
-8.81943547419643
 40
-8.775503162338769
 40
-8.775503162338769
 40
-8.775503162338769
 40
-8.73189967598453
 40
-8.73189967598453
 40
-8.73189967598453
 40
-8.68842154035995
 40
-8.68842154035995
 40
-8.68842154035995
 40
-8.644295149509
 40
-8.644295149509
 40
-8.644295149509
 40
-8.598315694506029
 40
-8.598315694506029
 40
-8.598315694506029
 40
-8.54999836436957
 40
-8.54999836436957
 40
-8.54999836436957
 40
-8.49919841062702
 40
-8.49919841062702
 40
-8.49919841062702
 40
-8.44506544252712
 40
-8.44506544252712
 40
-8.44506544252712
 40
-8.38504593257989
 40
-8.38504593257989
 40
-8.38504593257989
 40
-8.31219403330232
 40
-8.31219403330232
 40
-8.31219403330232
 40
-8.24725501741715
 40
-8.24725501741715
 40
-8.24725501741715
 40
-8.18942520725348
 40
-8.18942520725348
 40
-8.18942520725348
 40
-8.13736678233101
 40
-8.13736678233101
 40
-8.13736678233101
 40
-8.0875046638629
 40
-8.0875046638629
 40
-8.0875046638629
 40
-8.03889902979383
 40
-8.03889902979383
 40
-8.03889902979383
 40
-7.98983381780509
 40
-7.98983381780509
 40
-7.98983381780509
 40
-7.93921202272734
 40
-7.93921202272734
 40
-7.93921202272734
 40
-7.8872031915566
 40
-7.8872031915566
 40
-7.8872031915566
 40
-7.83413114828109
 40
-7.83413114828109
 40
-7.83413114828109
 40
-7.77985084550579
 40
-7.77985084550579
 40
-7.77985084550579
 40
-7.72428044612934
 40
-7.72428044612934
 40
-7.72428044612934
 40
-7.66766041521503
 40
-7.66766041521503
 40
-7.66766041521503
 40
-7.607756818221159
 40
-7.607756818221159
 40
-7.607756818221159
 40
-7.54832121807881
 40
-7.54832121807881
 40
-7.54832121807881
 40
-7.49258118628695
 40
-7.49258118628695
 40
-7.49258118628695
 40
-7.43404539576908
 40
-7.43404539576908
 40
-7.43404539576908
 40
-7.37596691611463
 40
-7.37596691611463
 40
-7.37596691611463
 40
-7.31679382738288
 40
-7.31679382738288
 40
-7.31679382738288
 40
-7.2588044481209
 40
-7.2588044481209
 40
-7.2588044481209
 40
-7.20209503836996
 40
-7.20209503836996
 40
-7.20209503836996
 40
-7.145828670882691
 40
-7.145828670882691
 40
-7.145828670882691
 40
-7.09436422152504
 40
-7.09436422152504
 40
-7.09436422152504
 40
-7.0449252302503
 40
-7.0449252302503
 40
-7.0449252302503
 40
-6.99701504293464
 40
-6.99701504293464
 40
-6.99701504293464
 40
-6.950541916109271
 40
-6.950541916109271
 40
-6.950541916109271
 40
-6.90562188071039
 40
-6.90562188071039
 40
-6.90562188071039
 40
-6.86193189917796
 40
-6.86193189917796
 40
-6.86193189917796
 40
-6.81843809442841
 40
-6.81843809442841
 40
-6.81843809442841
 40
-6.77492938175217
 40
-6.77492938175217
 40
-6.77492938175217
 40
-6.7306660791288
 40
-6.7306660791288
 40
-6.7306660791288
 40
-6.68456636491927
 40
-6.68456636491927
 40
-6.68456636491927
 40
-6.63638217805485
 40
-6.63638217805485
 40
-6.63638217805485
 40
-6.5845354422888
 40
-6.5845354422888
 40
-6.5845354422888
 40
-6.53220060330982
 40
-6.53220060330982
 40
-6.53220060330982
 40
-6.47965150090976
 40
-6.47965150090976
 40
-6.47965150090976
 40
-6.428365387809039
 40
-6.428365387809039
 40
-6.428365387809039
 40
-6.37814378321678
 40
-6.37814378321678
 40
-6.37814378321678
 40
-6.3283145349104
 40
-6.3283145349104
 40
-6.3283145349104
 40
-6.28189581817982
 40
-6.28189581817982
 40
-6.28189581817982
 40
-6.23713110248913
 40
-6.23713110248913
 40
-6.23713110248913
 40
-6.193765365166691
 40
-6.193765365166691
 40
-6.193765365166691
 40
-6.151594813677829
 40
-6.151594813677829
 40
-6.151594813677829
 40
-6.11012673517822
 40
-6.11012673517822
 40
-6.11012673517822
 40
-6.067897160942961
 40
-6.067897160942961
 40
-6.067897160942961
 40
-6.02473509065919
 40
-6.02473509065919
 40
-6.02473509065919
 40
-5.9805800706493
 40
-5.9805800706493
 40
-5.9805800706493
 40
-5.93385678884736
 40
-5.93385678884736
 40
-5.93385678884736
 40
-5.88711999749074
 40
-5.88711999749074
 40
-5.88711999749074
 40
-5.839549541675551
 40
-5.839549541675551
 40
-5.839549541675551
 40
-5.79147095595289
 40
-5.79147095595289
 40
-5.79147095595289
 40
-5.74337771489118
 40
-5.74337771489118
 40
-5.74337771489118
 40
-5.695702642413401
 40
-5.695702642413401
 40
-5.695702642413401
 40
-5.648675086078231
 40
-5.648675086078231
 40
-5.648675086078231
 40
-5.60257648714758
 40
-5.60257648714758
 40
-5.60257648714758
 40
-5.55780411987037
 40
-5.55780411987037
 40
-5.55780411987037
 40
-5.51427387111425
 40
-5.51427387111425
 40
-5.51427387111425
 40
-5.47096861181606
 40
-5.47096861181606
 40
-5.47096861181606
 40
-5.42716842351108
 40
-5.42716842351108
 40
-5.42716842351108
 40
-5.38251553743341
 40
-5.38251553743341
 40
-5.38251553743341
 40
-5.33605031139346
 40
-5.33605031139346
 40
-5.33605031139346
 40
-5.28715468393729
 40
-5.28715468393729
 40
-5.28715468393729
 40
-5.23565014994972
 40
-5.23565014994972
 40
-5.23565014994972
 40
-5.18128133416996
 40
-5.18128133416996
 40
-5.18128133416996
 40
-5.12396565998
 40
-5.12396565998
 40
-5.12396565998
 40
-5.06640181685153
 40
-5.06640181685153
 40
-5.06640181685153
 40
-5.01147232231104
 40
-5.01147232231104
 40
-5.01147232231104
 40
-4.95968371576914
 40
-4.95968371576914
 40
-4.95968371576914
 40
-4.9112359875364
 40
-4.9112359875364
 40
-4.9112359875364
 40
-4.86520205473593
 40
-4.86520205473593
 40
-4.86520205473593
 40
-4.81940927234809
 40
-4.81940927234809
 40
-4.81940927234809
 40
-4.77304527792789
 40
-4.77304527792789
 40
-4.77304527792789
 40
-4.725246415476709
 40
-4.725246415476709
 40
-4.725246415476709
 40
-4.67445332242424
 40
-4.67445332242424
 40
-4.67445332242424
 40
-4.61974367263493
 40
-4.61974367263493
 40
-4.61974367263493
 40
-4.56093767362441
 40
-4.56093767362441
 40
-4.56093767362441
 40
-4.499055521926
 40
-4.499055521926
 40
-4.499055521926
 40
-4.44006321567386
 40
-4.44006321567386
 40
-4.44006321567386
 40
-4.385795505878691
 40
-4.385795505878691
 40
-4.385795505878691
 40
-4.33495804281257
 40
-4.33495804281257
 40
-4.33495804281257
 40
-4.28702119418394
 40
-4.28702119418394
 40
-4.28702119418394
 40
-4.24141694512013
 40
-4.24141694512013
 40
-4.24141694512013
 40
-4.19688367652814
 40
-4.19688367652814
 40
-4.19688367652814
 40
-4.15238413438653
 40
-4.15238413438653
 40
-4.15238413438653
 40
-4.10779613843477
 40
-4.10779613843477
 40
-4.10779613843477
 40
-4.06263582530395
 40
-4.06263582530395
 40
-4.06263582530395
 40
-4.01678752276021
 40
-4.01678752276021
 40
-4.01678752276021
 40
-3.97035130607726
 40
-3.97035130607726
 40
-3.97035130607726
 40
-3.92338458307542
 40
-3.92338458307542
 40
-3.92338458307542
 40
-3.87585382364443
 40
-3.87585382364443
 40
-3.87585382364443
 40
-3.82772742781802
 40
-3.82772742781802
 40
-3.82772742781802
 40
-3.77897014370881
 40
-3.77897014370881
 40
-3.77897014370881
 40
-3.72941829001155
 40
-3.72941829001155
 40
-3.72941829001155
 40
-3.67908995597177
 40
-3.67908995597177
 40
-3.67908995597177
 40
-3.62866149184509
 40
-3.62866149184509
 40
-3.62866149184509
 40
-3.57820123784928
 40
-3.57820123784928
 40
-3.57820123784928
 40
-3.52354852715526
 40
-3.52354852715526
 40
-3.52354852715526
 40
-3.45479185874571
 40
-3.45479185874571
 40
-3.45479185874571
 40
-3.39671881987758
 40
-3.39671881987758
 40
-3.39671881987758
 40
-3.34364508831699
 40
-3.34364508831699
 40
-3.34364508831699
 40
-3.29678600657274
 40
-3.29678600657274
 40
-3.29678600657274
 40
-3.25302063370857
 40
-3.25302063370857
 40
-3.25302063370857
 40
-3.2115421589587
 40
-3.2115421589587
 40
-3.2115421589587
 40
-3.17178048429943
 40
-3.17178048429943
 40
-3.17178048429943
 40
-3.1333021022359
 40
-3.1333021022359
 40
-3.1333021022359
 40
-3.09583768950313
 40
-3.09583768950313
 40
-3.09583768950313
 40
-3.0592521542603
 40
-3.0592521542603
 40
-3.0592521542603
 40
-3.02356964496272
 40
-3.02356964496272
 40
-3.02356964496272
 40
-2.98871740781451
 40
-2.98871740781451
 40
-2.98871740781451
 40
-2.95451894715701
 40
-2.95451894715701
 40
-2.95451894715701
 40
-2.91961787019678
 40
-2.91961787019678
 40
-2.91961787019678
 40
-2.88320535333418
 40
-2.88320535333418
 40
-2.88320535333418
 40
-2.84478685189618
 40
-2.84478685189618
 40
-2.84478685189618
 40
-2.80321500242921
 40
-2.80321500242921
 40
-2.80321500242921
 40
-2.75488311821123
 40
-2.75488311821123
 40
-2.75488311821123
 40
-2.69237462542623
 40
-2.69237462542623
 40
-2.69237462542623
 40
-2.6480395266643
 40
-2.6480395266643
 40
-2.6480395266643
 40
-2.60666390906017
 40
-2.60666390906017
 40
-2.60666390906017
 40
-2.56816470526392
 40
-2.56816470526392
 40
-2.56816470526392
 40
-2.53176048175977
 40
-2.53176048175977
 40
-2.53176048175977
 40
-2.49723692336587
 40
-2.49723692336587
 40
-2.49723692336587
 40
-2.46429274059312
 40
-2.46429274059312
 40
-2.46429274059312
 40
-2.4325696199908
 40
-2.4325696199908
 40
-2.4325696199908
 40
-2.40113757115984
 40
-2.40113757115984
 40
-2.40113757115984
 40
-2.36906754679661
 40
-2.36906754679661
 40
-2.36906754679661
 40
-2.33627054133014
 40
-2.33627054133014
 40
-2.33627054133014
 40
-2.30249547052481
 40
-2.30249547052481
 40
-2.30249547052481
 40
-2.26530329280569
 40
-2.26530329280569
 40
-2.26530329280569
 40
-2.22419047934839
 40
-2.22419047934839
 40
-2.22419047934839
 40
-2.17620608890649
 40
-2.17620608890649
 40
-2.17620608890649
 40
-2.1251554046235
 40
-2.1251554046235
 40
-2.1251554046235
 40
-2.08288707021639
 40
-2.08288707021639
 40
-2.08288707021639
 40
-2.04474653468782
 40
-2.04474653468782
 40
-2.04474653468782
 40
-2.00918464348373
 40
-2.00918464348373
 40
-2.00918464348373
 40
-1.97578041164037
 40
-1.97578041164037
 40
-1.97578041164037
 40
-1.94405505716266
 40
-1.94405505716266
 40
-1.94405505716266
 40
-1.91355699045854
 40
-1.91355699045854
 40
-1.91355699045854
 40
-1.88340466853662
 40
-1.88340466853662
 40
-1.88340466853662
 40
-1.85289116281808
 40
-1.85289116281808
 40
-1.85289116281808
 40
-1.82195461553611
 40
-1.82195461553611
 40
-1.82195461553611
 40
-1.79041554824986
 40
-1.79041554824986
 40
-1.79041554824986
 40
-1.75746136337754
 40
-1.75746136337754
 40
-1.75746136337754
 40
-1.72250774083755
 40
-1.72250774083755
 40
-1.72250774083755
 40
-1.68534692336453
 40
-1.68534692336453
 40
-1.68534692336453
 40
-1.64705952027729
 40
-1.64705952027729
 40
-1.64705952027729
 40
-1.60928529931008
 40
-1.60928529931008
 40
-1.60928529931008
 40
-1.57315078135508
 40
-1.57315078135508
 40
-1.57315078135508
 40
-1.53922671270363
 40
-1.53922671270363
 40
-1.53922671270363
 40
-1.5071803467262
 40
-1.5071803467262
 40
-1.5071803467262
 40
-1.4765649111664
 40
-1.4765649111664
 40
-1.4765649111664
 40
-1.44668857216774
 40
-1.44668857216774
 40
-1.44668857216774
 40
-1.41727210527554
 40
-1.41727210527554
 40
-1.41727210527554
 40
-1.38828546628898
 40
-1.38828546628898
 40
-1.38828546628898
 40
-1.35934047619764
 40
-1.35934047619764
 40
-1.35934047619764
 40
-1.32886508851829
 40
-1.32886508851829
 40
-1.32886508851829
 40
-1.29583853221365
 40
-1.29583853221365
 40
-1.29583853221365
 40
-1.2582859550507
 40
-1.2582859550507
 40
-1.2582859550507
 40
-1.21231565935614
 40
-1.21231565935614
 40
-1.21231565935614
 40
-1.17401027020108
 40
-1.17401027020108
 40
-1.17401027020108
 40
-1.13732244925729
 40
-1.13732244925729
 40
-1.13732244925729
 40
-1.10543019735338
 40
-1.10543019735338
 40
-1.10543019735338
 40
-1.07575819200493
 40
-1.07575819200493
 40
-1.07575819200493
 40
-1.04760021383677
 40
-1.04760021383677
 40
-1.04760021383677
 40
-1.020240701616
 40
-1.020240701616
 40
-1.020240701616
 40
-0.9934277986646121
 40
-0.9934277986646121
 40
-0.9934277986646121
 40
-0.967101702773249
 40
-0.967101702773249
 40
-0.967101702773249
 40
-0.9411766952869
 40
-0.9411766952869
 40
-0.9411766952869
 40
-0.914490004636568
 40
-0.914490004636568
 40
-0.914490004636568
 40
-0.8852202761946619
 40
-0.8852202761946619
 40
-0.8852202761946619
 40
-0.853245935770395
 40
-0.853245935770395
 40
-0.853245935770395
 40
-0.8174380382187321
 40
-0.8174380382187321
 40
-0.8174380382187321
 40
-0.778830749879143
 40
-0.778830749879143
 40
-0.778830749879143
 40
-0.743550868380086
 40
-0.743550868380086
 40
-0.743550868380086
 40
-0.712086675210085
 40
-0.712086675210085
 40
-0.712086675210085
 40
-0.683226020857461
 40
-0.683226020857461
 40
-0.683226020857461
 40
-0.6560780380163119
 40
-0.6560780380163119
 40
-0.6560780380163119
 40
-0.63015987340047
 40
-0.63015987340047
 40
-0.63015987340047
 40
-0.604993991100119
 40
-0.604993991100119
 40
-0.604993991100119
 40
-0.580365728636307
 40
-0.580365728636307
 40
-0.580365728636307
 40
-0.556214926090284
 40
-0.556214926090284
 40
-0.556214926090284
 40
-0.532492425706894
 40
-0.532492425706894
 40
-0.532492425706894
 40
-0.50870023056477
 40
-0.50870023056477
 40
-0.50870023056477
 40
-0.483702499134272
 40
-0.483702499134272
 40
-0.483702499134272
 40
-0.457055762671933
 40
-0.457055762671933
 40
-0.457055762671933
 40
-0.427396681265928
 40
-0.427396681265928
 40
-0.427396681265928
 40
-0.397379683397178
 40
-0.397379683397178
 40
-0.397379683397178
 40
-0.368539572489909
 40
-0.368539572489909
 40
-0.368539572489909
 40
-0.341253048036289
 40
-0.341253048036289
 40
-0.341253048036289
 40
-0.315360807228357
 40
-0.315360807228357
 40
-0.315360807228357
 40
-0.290947365775308
 40
-0.290947365775308
 40
-0.290947365775308
 40
-0.267843134070952
 40
-0.267843134070952
 40
-0.267843134070952
 40
-0.245728475775023
 40
-0.245728475775023
 40
-0.245728475775023
 40
-0.224398487620461
 40
-0.224398487620461
 40
-0.224398487620461
 40
-0.203688562447727
 40
-0.203688562447727
 40
-0.203688562447727
 40
-0.183008598937289
 40
-0.183008598937289
 40
-0.183008598937289
 40
-0.162075296386759
 40
-0.162075296386759
 40
-0.162075296386759
 40
-0.140725868622774
 40
-0.140725868622774
 40
-0.140725868622774
 40
-0.119096798244057
 40
-0.119096798244057
 40
-0.119096798244057
 40
-0.097140186147527
 40
-0.097140186147527
 40
-0.097140186147527
 40
-0.0743079088363901
 40
-0.0743079088363901
 40
-0.0743079088363901
 40
-0.0491003733433597
 40
-0.0491003733433597
 40
-0.0491003733433597
 40
-0.0413814241013183
 40
-0.0413814241013183
 40
-0.0413814241013183
 40
-0.0413814241013183
 10
474.6111112179802
 20
104.0083127696261
 30
0.0
 10
474.3555822274954
 20
104.0097563003144
 30
0.0
 10
474.0995472807914
 20
104.00877052423
 30
0.0
 10
473.8430856941795
 20
104.005381193748
 30
0.0
 10
473.5799766596265
 20
104.0019040123009
 30
0.0
 10
473.3164186592484
 20
103.9958971874009
 30
0.0
 10
473.0525087822927
 20
103.9874423304542
 30
0.0
 10
472.7807727230907
 20
103.9787367468121
 30
0.0
 10
472.5086637018555
 20
103.9674359312313
 30
0.0
 10
472.2362983695664
 20
103.9536832580385
 30
0.0
 10
471.9545061213367
 20
103.9394545870635
 30
0.0
 10
471.6724396292458
 20
103.9226015681246
 30
0.0
 10
471.3902377119506
 20
103.9033378744881
 30
0.0
 10
471.0963297112361
 20
103.8832750990919
 30
0.0
 10
470.8022749695791
 20
103.8605977144384
 30
0.0
 10
470.508238493351
 20
103.8356027779481
 30
0.0
 10
470.1995375328317
 20
103.8093612687257
 30
0.0
 10
469.8908569123939
 20
103.7805655434333
 30
0.0
 10
469.5823935872867
 20
103.749615829082
 30
0.0
 10
469.2431426606032
 20
103.7155770360727
 30
0.0
 10
468.9041548780357
 20
103.6789328282445
 30
0.0
 10
468.5656953026278
 20
103.6402808446486
 30
0.0
 10
468.1943850308082
 20
103.5978773212203
 30
0.0
 10
467.82371110087
 20
103.5530579052028
 30
0.0
 10
467.4540194536436
 20
103.5066824504525
 30
0.0
 10
467.037019459119
 20
103.4543724658422
 30
0.0
 10
466.6212706278752
 20
103.4000841651602
 30
0.0
 10
466.2072480018441
 20
103.3451224359078
 30
0.0
 10
465.8060930069711
 20
103.2918688917047
 30
0.0
 10
465.4065595213793
 20
103.2379863847855
 30
0.0
 10
465.0090438847539
 20
103.1846859157538
 30
0.0
 10
464.6677731888032
 20
103.1389269908587
 30
0.0
 10
464.3279896279595
 20
103.0935986925116
 30
0.0
 10
463.9899130769251
 20
103.0494534826758
 30
0.0
 10
463.6737367935776
 20
103.0081679562743
 30
0.0
 10
463.3590536527551
 20
102.9679181265963
 30
0.0
 10
463.0460136324342
 20
102.9292898960461
 30
0.0
 10
462.751868963614
 20
102.8929932970661
 30
0.0
 10
462.4591750805325
 20
102.8581289680957
 30
0.0
 10
462.1680280271542
 20
102.8251461647911
 30
0.0
 10
461.8916720444252
 20
102.7938389785612
 30
0.0
 10
461.6167097289678
 20
102.7642273203526
 30
0.0
 10
461.3431964162211
 20
102.7366552285015
 30
0.0
 10
461.0760344593889
 20
102.7097233986067
 30
0.0
 10
460.8102549726412
 20
102.6847376516294
 30
0.0
 10
460.5458832016901
 20
102.6619758421386
 30
0.0
 10
460.2866264607058
 20
102.6396544251195
 30
0.0
 10
460.0287234770964
 20
102.6194718426016
 30
0.0
 10
459.7721726780781
 20
102.6016466355225
 30
0.0
 10
459.5201658058784
 20
102.5841371414983
 30
0.0
 10
459.2694636343354
 20
102.5689023653552
 30
0.0
 10
459.0200400947611
 20
102.5561053589267
 30
0.0
 10
458.7746874516834
 20
102.5435172152571
 30
0.0
 10
458.5305720367104
 20
102.5332880143638
 30
0.0
 10
458.287645151843
 20
102.5255283834165
 30
0.0
 10
458.0477236859603
 20
102.5178647523097
 30
0.0
 10
457.8089615284706
 20
102.5126100724625
 30
0.0
 10
457.571288261616
 20
102.5098254965985
 30
0.0
 10
457.3280809819552
 20
102.5069760843366
 30
0.0
 10
457.0860138051211
 20
102.5067130565881
 30
0.0
 10
456.8449865214395
 20
102.5090526844364
 30
0.0
 10
456.5950244818931
 20
102.5114790410704
 30
0.0
 10
456.3461807288738
 20
102.5167044265505
 30
0.0
 10
456.0983189818428
 20
102.5246968086807
 30
0.0
 10
455.8392382337284
 20
102.5330509511262
 30
0.0
 10
455.5812302308169
 20
102.5444280463408
 30
0.0
 10
455.3241153521896
 20
102.5587403776751
 30
0.0
 10
455.0419655087822
 20
102.5744462834023
 30
0.0
 10
454.760891061022
 20
102.5936868938197
 30
0.0
 10
454.4806284114693
 20
102.6162866694656
 30
0.0
 10
454.1766133801877
 20
102.6408017859498
 30
0.0
 10
453.873553132775
 20
102.66926913582
 30
0.0
 10
453.5710862865568
 20
102.7014008300108
 30
0.0
 10
453.2369408805942
 20
102.7368978047501
 30
0.0
 10
452.9035190555027
 20
102.7768664855267
 30
0.0
 10
452.5703132772503
 20
102.8208509923369
 30
0.0
 10
452.1809116754955
 20
102.8722535745313
 30
0.0
 10
451.791803481127
 20
102.929139818025
 30
0.0
 10
451.4021702585652
 20
102.9907028209941
 30
0.0
 10
451.0067698156752
 20
103.0531770588929
 30
0.0
 10
450.6108261734019
 20
103.120463859059
 30
0.0
 10
450.2135098484289
 20
103.1916841556592
 30
0.0
 10
449.8903459634713
 20
103.2496123762998
 30
0.0
 10
449.5662737629748
 20
103.3101411181691
 30
0.0
 10
449.2408773091756
 20
103.3728070253609
 30
0.0
 10
448.9498727383762
 20
103.4288496318896
 30
0.0
 10
448.6578088873432
 20
103.4866007998719
 30
0.0
 10
448.3644178640676
 20
103.5457524849733
 30
0.0
 10
448.0884289776707
 20
103.6013956587739
 30
0.0
 10
447.8112655014066
 20
103.658277652967
 30
0.0
 10
447.5327347418711
 20
103.7161720669266
 30
0.0
 10
447.2547479877252
 20
103.773953405859
 30
0.0
 10
446.9753988398313
 20
103.8327425033477
 30
0.0
 10
446.6945319023499
 20
103.8923542326469
 30
0.0
 10
446.432846277968
 20
103.9478948838251
 30
0.0
 10
446.1698432114043
 20
104.0041496566433
 30
0.0
 10
445.9054302555113
 20
104.0610079345275
 30
0.0
 10
445.6227067927153
 20
104.1218036287389
 30
0.0
 10
445.3383711625802
 20
104.1832890177643
 30
0.0
 10
445.0523513923484
 20
104.245378020781
 30
0.0
 10
444.7668902544802
 20
104.3073457562137
 30
0.0
 10
444.4797517844558
 20
104.3699150432908
 30
0.0
 10
444.1909033069812
 20
104.4330467030656
 30
0.0
 10
443.8987673169224
 20
104.4968968922499
 30
0.0
 10
443.6048823352991
 20
104.5613225343888
 30
0.0
 10
443.3092514827823
 20
104.6263269798314
 30
0.0
 10
443.0048285986989
 20
104.6932646508878
 30
0.0
 10
442.698554537187
 20
104.7608161777032
 30
0.0
 10
442.3904699215385
 20
104.8290292171035
 30
0.0
 10
442.0706471017824
 20
104.8998412132145
 30
0.0
 10
441.7488732326132
 20
104.9713662327292
 30
0.0
 10
441.4252320285061
 20
105.0437025168584
 30
0.0
 10
441.0860279780678
 20
105.1195172161579
 30
0.0
 10
440.7447728238505
 20
105.1962232784821
 30
0.0
 10
440.4016024056207
 20
105.2739796142354
 30
0.0
 10
440.0368473004391
 20
105.3566266575691
 30
0.0
 10
439.6699285987435
 20
105.4404605171832
 30
0.0
 10
439.3010506527344
 20
105.5257190551416
 30
0.0
 10
438.8986973181065
 20
105.6187147395521
 30
0.0
 10
438.4940132541333
 20
105.7134058167816
 30
0.0
 10
438.0873081813645
 20
105.8101502703519
 30
0.0
 10
437.6144341221762
 20
105.9226345876787
 30
0.0
 10
437.1388283893213
 20
106.0378956169972
 30
0.0
 10
436.6610310288903
 20
106.1565511740501
 30
0.0
 10
436.0467880251378
 20
106.3090914595601
 30
0.0
 10
435.4289259271582
 20
106.4672467606477
 30
0.0
 10
434.8086512095118
 20
106.6323733827459
 30
0.0
 10
434.3497143446378
 20
106.7545493994318
 30
0.0
 10
433.8894587867793
 20
106.8805437035983
 30
0.0
 10
433.4283632551458
 20
107.0108810800014
 30
0.0
 10
433.0226313547885
 20
107.1255688784892
 30
0.0
 10
432.6162495347085
 20
107.2436198352451
 30
0.0
 10
432.2095223329577
 20
107.3653577916643
 30
0.0
 10
431.8319433473395
 20
107.4783713641477
 30
0.0
 10
431.4540669766097
 20
107.594562684706
 30
0.0
 10
431.0761122908199
 20
107.7141552863896
 30
0.0
 10
430.7178100223673
 20
107.8275294608196
 30
0.0
 10
430.3594375642649
 20
107.9439606074771
 30
0.0
 10
430.0011554010478
 20
108.0636025988346
 30
0.0
 10
429.6489711450811
 20
108.1812083019214
 30
0.0
 10
429.2968744011288
 20
108.3019168039511
 30
0.0
 10
428.9449880151927
 20
108.4258337172418
 30
0.0
 10
428.58426129216
 20
108.5528637583182
 30
0.0
 10
428.2237555665017
 20
108.6832653634031
 30
0.0
 10
427.8635697440512
 20
108.8171067913433
 30
0.0
 10
427.4916810203929
 20
108.9552968996342
 30
0.0
 10
427.1201332211091
 20
109.0971538594792
 30
0.0
 10
426.7490014142023
 20
109.2427066499605
 30
0.0
 10
426.3635126330471
 20
109.39389004829
 30
0.0
 10
425.9784725256166
 20
109.5490605926424
 30
0.0
 10
425.5939310696517
 20
109.7082039181129
 30
0.0
 10
425.1923582674653
 20
109.8743957035944
 30
0.0
 10
424.7913290971706
 20
110.0449197628872
 30
0.0
 10
424.3908662103723
 20
110.2197124335228
 30
0.0
 10
423.9710116045598
 20
110.4029691353246
 30
0.0
 10
423.5517792912435
 20
110.5909176570474
 30
0.0
 10
423.1331610932491
 20
110.7834369488281
 30
0.0
 10
422.6882400826802
 20
110.9880527019498
 30
0.0
 10
422.244012569822
 20
111.1978313924831
 30
0.0
 10
421.8004337320597
 20
111.412578528392
 30
0.0
 10
421.3165434887935
 20
111.6468413808759
 30
0.0
 10
420.8334248500784
 20
111.8870163621148
 30
0.0
 10
420.3509832621023
 20
112.1327990498084
 30
0.0
 10
419.7744695350128
 20
112.4265073387864
 30
0.0
 10
419.1989219780372
 20
112.7282227631837
 30
0.0
 10
418.6241359720403
 20
113.0373614360152
 30
0.0
 10
417.9864791184596
 20
113.3803141025402
 30
0.0
 10
417.3497563537581
 20
113.7323987080703
 30
0.0
 10
416.7136711986276
 20
114.092784667532
 30
0.0
 10
416.1838496392822
 20
114.3929649963263
 30
0.0
 10
415.6544689189161
 20
114.6989024980204
 30
0.0
 10
415.1253777391084
 20
115.0101379725652
 30
0.0
 10
414.6725753845698
 20
115.2764968934247
 30
0.0
 10
414.2199847646804
 20
115.5467355978255
 30
0.0
 10
413.7675371030889
 20
115.8205978150856
 30
0.0
 10
413.3513985125238
 20
116.072482500927
 30
0.0
 10
412.9353806334899
 20
116.3274321328658
 30
0.0
 10
412.5194574743262
 20
116.5852817749453
 30
0.0
 10
412.1177294739201
 20
116.8343311938964
 30
0.0
 10
411.7160895943844
 20
117.086085713712
 30
0.0
 10
411.3145449508848
 20
117.3404355062901
 30
0.0
 10
410.9066198857196
 20
117.598826839338
 30
0.0
 10
410.4987931669117
 20
117.8598966387366
 30
0.0
 10
410.0911057313262
 20
118.1235725800422
 30
0.0
 10
409.6753888066736
 20
118.3924416740014
 30
0.0
 10
409.2598167777026
 20
118.6640206538291
 30
0.0
 10
408.8444665357308
 20
118.9382759046892
 30
0.0
 10
408.4197134377279
 20
119.2187398497524
 30
0.0
 10
407.9951923586232
 20
119.5020026891097
 30
0.0
 10
407.5710190970191
 20
119.7880719186709
 30
0.0
 10
407.1300698056225
 20
120.0854551709495
 30
0.0
 10
406.6894965155255
 20
120.3858713265213
 30
0.0
 10
406.2494640508095
 20
120.6893741281953
 30
0.0
 10
405.7848432811973
 20
121.0098361772496
 30
0.0
 10
405.3208256744839
 20
121.3337396929947
 30
0.0
 10
404.8576405719106
 20
121.6611945727759
 30
0.0
 10
404.3588854639321
 20
122.0137961418161
 30
0.0
 10
403.861095935834
 20
122.370515792831
 30
0.0
 10
403.3645943287637
 20
122.7315392394845
 30
0.0
 10
402.8148552712498
 20
123.131273472924
 30
0.0
 10
402.2666955808905
 20
123.5362843771645
 30
0.0
 10
401.7205892243397
 20
123.9468750689447
 30
0.0
 10
401.0458635582422
 20
124.4541683364221
 30
0.0
 10
400.3742732673156
 20
124.969979908964
 30
0.0
 10
399.7067560784916
 20
125.494949332987
 30
0.0
 10
399.0445049208581
 20
126.0157772825922
 30
0.0
 10
398.3862660845526
 20
126.5456231394156
 30
0.0
 10
397.7329585685456
 20
127.0851307420752
 30
0.0
 10
397.1986450055956
 20
127.5263719988383
 30
0.0
 10
396.6676309880572
 20
127.9740774642537
 30
0.0
 10
396.1403960244056
 20
128.4285784320103
 30
0.0
 10
395.6641315547064
 20
128.8391404722953
 30
0.0
 10
395.1909512097778
 20
129.2552482301357
 30
0.0
 10
394.7211788214769
 20
129.6771143615956
 30
0.0
 10
394.2765987746144
 20
130.076357205928
 30
0.0
 10
393.8350711111259
 20
130.4807575896722
 30
0.0
 10
393.3968381584805
 20
130.8904600554123
 30
0.0
 10
392.9748845601525
 20
131.2849430093285
 30
0.0
 10
392.5559855437767
 20
131.6843415949147
 30
0.0
 10
392.1403251222829
 20
132.0887483601807
 30
0.0
 10
391.7364479094157
 20
132.4816909372809
 30
0.0
 10
391.3356283857583
 20
132.8793619217013
 30
0.0
 10
390.9380026638219
 20
133.2818088663678
 30
0.0
 10
390.5323890050147
 20
133.6923406018578
 30
0.0
 10
390.1300987082878
 20
134.1078420554049
 30
0.0
 10
389.7312400352918
 20
134.5283220995371
 30
0.0
 10
389.3165702307736
 20
134.9654703666024
 30
0.0
 10
388.9056093715894
 20
135.407999589746
 30
0.0
 10
388.4984421321779
 20
135.8558774089984
 30
0.0
 10
388.0713291228694
 20
136.3256952741584
 30
0.0
 10
387.6483903375264
 20
136.8013983731109
 30
0.0
 10
387.2296859366949
 20
137.2829065973207
 30
0.0
 10
386.7718476249016
 20
137.8094186474665
 30
0.0
 10
386.3190722911873
 20
138.342871736279
 30
0.0
 10
385.871395501035
 20
138.8831125132176
 30
0.0
 10
385.3998699183338
 20
139.4521331833718
 30
0.0
 10
384.9340002815816
 20
140.0286836324748
 30
0.0
 10
384.4737842316188
 20
140.6125356342586
 30
0.0
 10
383.9649950577512
 20
141.258009814641
 30
0.0
 10
383.4631155989125
 20
141.9124077931222
 30
0.0
 10
382.96809408176
 20
142.5753678844772
 30
0.0
 10
382.3952626576885
 20
143.3425352904881
 30
0.0
 10
381.8316135832057
 20
144.1211667677285
 30
0.0
 10
381.277013297926
 20
144.9106456799383
 30
0.0
 10
380.6064441965272
 20
145.8652073323305
 30
0.0
 10
379.9490993204371
 20
146.8356215636286
 30
0.0
 10
379.3047115032969
 20
147.8207748298964
 30
0.0
 10
378.8598869521173
 20
148.500831696048
 30
0.0
 10
378.4212357839717
 20
149.1879111942377
 30
0.0
 10
377.9886870015377
 20
149.8816712056642
 30
0.0
 10
377.5911082586994
 20
150.5193431732565
 30
0.0
 10
377.1986845791211
 20
151.1626585719827
 30
0.0
 10
376.8113859056718
 20
151.8113842292651
 30
0.0
 10
376.4387214447948
 20
152.4355975661586
 30
0.0
 10
376.0708018286549
 20
153.0648198972142
 30
0.0
 10
375.7076290514657
 20
153.6988794394061
 30
0.0
 10
375.3523899990553
 20
154.3190875747475
 30
0.0
 10
375.0016924605551
 20
154.9439237188326
 30
0.0
 10
374.6555691317829
 20
155.573264399514
 30
0.0
 10
374.3012463646853
 20
156.217513754844
 30
0.0
 10
373.9517168660883
 20
156.8664834441274
 30
0.0
 10
373.6070527329963
 20
157.5200844883915
 30
0.0
 10
373.2455279770753
 20
158.205659038542
 30
0.0
 10
372.8893562745993
 20
158.8963294607395
 30
0.0
 10
372.5386620384483
 20
159.5920381519328
 30
0.0
 10
372.1691157418493
 20
160.3251456394238
 30
0.0
 10
371.8056517084793
 20
161.0638481197031
 30
0.0
 10
371.4484594853393
 20
161.8081208409761
 30
0.0
 10
371.0743072988353
 20
162.587732624156
 30
0.0
 10
370.7070366312913
 20
163.3734566408697
 30
0.0
 10
370.3469115464263
 20
164.1653019791236
 30
0.0
 10
369.9671115416853
 20
165.0004086569472
 30
0.0
 10
369.5952591701503
 20
165.8423244233008
 30
0.0
 10
369.2317152273463
 20
166.6910922567145
 30
0.0
 10
368.8425195416533
 20
167.5997493405638
 30
0.0
 10
368.4628461591993
 20
168.5162607470141
 30
0.0
 10
368.0931956794033
 20
169.4407015374935
 30
0.0
 10
367.7078376110883
 20
170.4044246672124
 30
0.0
 10
367.3333728962683
 20
171.3767673213606
 30
0.0
 10
366.9704245677653
 20
172.3578130327517
 30
0.0
 10
366.6229648307263
 20
173.2969932359208
 30
0.0
 10
366.2860606049073
 20
174.2441510772614
 30
0.0
 10
365.9602954143393
 20
175.1993329720959
 30
0.0
 10
365.6574871433823
 20
176.0872024756494
 30
0.0
 10
365.3643040689633
 20
176.9820057076015
 30
0.0
 10
365.0812345760573
 20
177.8837410917936
 30
0.0
 10
364.8143665208893
 20
178.7338657936277
 30
0.0
 10
364.5564879799603
 20
179.5901522474489
 30
0.0
 10
364.3080176335283
 20
180.4525552535282
 30
0.0
 10
364.0708659690053
 20
181.2756728259773
 30
0.0
 10
363.8422852149973
 20
182.1043626470168
 30
0.0
 10
363.6226423880633
 20
182.9385395956943
 30
0.0
 10
363.4051617355913
 20
183.7645048667095
 30
0.0
 10
363.1964441860573
 20
184.5958501351599
 30
0.0
 10
362.9968444833583
 20
185.4324413571108
 30
0.0
 10
362.7924821805793
 20
186.2889942792392
 30
0.0
 10
362.5976783161183
 20
187.1510463251254
 30
0.0
 10
362.4128077485903
 20
188.0183980317332
 30
0.0
 10
362.2233831036633
 20
188.9071159669215
 30
0.0
 10
362.0443875104353
 20
189.8013976538206
 30
0.0
 10
361.8762133400663
 20
190.7009738985439
 30
0.0
 10
361.7048381316383
 20
191.617672735815
 30
0.0
 10
361.5447005928203
 20
192.5398693518093
 30
0.0
 10
361.3961993211833
 20
193.4672267615739
 30
0.0
 10
361.2454365252573
 20
194.4087068874824
 30
0.0
 10
361.1066675199783
 20
195.3555058920131
 30
0.0
 10
360.9802864674803
 20
196.3072221064478
 30
0.0
 10
360.8524331123223
 20
197.2700255391593
 30
0.0
 10
360.7372584627523
 20
198.2378610282991
 30
0.0
 10
360.6351409319523
 20
199.2102680798116
 30
0.0
 10
360.5325527880493
 20
200.1871565117184
 30
0.0
 10
360.4431428245343
 20
201.1686582446297
 30
0.0
 10
360.3672583210763
 20
202.15426846625
 30
0.0
 10
360.2916373860163
 20
203.1364553841044
 30
0.0
 10
360.2294484892563
 20
204.1227217714798
 30
0.0
 10
360.1809932416193
 20
205.1125382712865
 30
0.0
 10
360.1329967282183
 20
206.0929840065637
 30
0.0
 10
360.0984753195753
 20
207.0769124666329
 30
0.0
 10
360.0776762336623
 20
208.0637874367561
 30
0.0
 10
360.0572210866353
 20
209.03434319558
 30
0.0
 10
360.0500383659923
 20
210.0077483589862
 30
0.0
 10
360.0563154433623
 20
210.9834787551423
 30
0.0
 10
360.0624357068153
 20
211.9348334592238
 30
0.0
 10
360.0813518417383
 20
212.8883982021406
 30
0.0
 10
360.1131891966613
 20
213.8436803885699
 30
0.0
 10
360.1442655586833
 20
214.7761289267816
 30
0.0
 10
360.1876529714333
 20
215.7102133939947
 30
0.0
 10
360.2434189674643
 20
216.6454754411252
 30
0.0
 10
360.2987675649803
 20
217.5737372189668
 30
0.0
 10
360.3663102043163
 20
218.5031587583403
 30
0.0
 10
360.4460617461723
 20
219.4332967321093
 30
0.0
 10
360.5255840193433
 20
220.3607607574526
 30
0.0
 10
360.6172450859343
 20
221.2889369156847
 30
0.0
 10
360.7210085560543
 20
222.217393590309
 30
0.0
 10
360.8263191305013
 20
223.1596934733217
 30
0.0
 10
360.9440957518193
 20
224.1022821143491
 30
0.0
 10
361.0742467466933
 20
225.0447194850036
 30
0.0
 10
361.2098633628953
 20
226.0267340083187
 30
0.0
 10
361.3589152567603
 20
227.0085842921319
 30
0.0
 10
361.5212422132463
 20
227.9897858760854
 30
0.0
 10
361.6918228594533
 20
229.0208777161091
 30
0.0
 10
361.8770625422213
 20
230.0512532151247
 30
0.0
 10
362.0767184054773
 20
231.080364612544
 30
0.0
 10
362.2866329141893
 20
232.1623534400971
 30
0.0
 10
362.5124827938003
 20
233.2429448383032
 30
0.0
 10
362.7539297120213
 20
234.3215182550109
 30
0.0
 10
363.0112181022453
 20
235.4708574976397
 30
0.0
 10
363.2862168991713
 20
236.6179051052617
 30
0.0
 10
363.5784602519163
 20
237.7619301033444
 30
0.0
 10
363.9024828103073
 20
239.0303589769576
 30
0.0
 10
364.2477033827163
 20
240.2950718342754
 30
0.0
 10
364.6134291268903
 20
241.5551002789581
 30
0.0
 10
365.0573483641703
 20
243.0845273839044
 30
0.0
 10
365.5314755953813
 20
244.6070517264505
 30
0.0
 10
366.0345173779813
 20
246.1209934052966
 30
0.0
 10
366.4829207639623
 20
247.470496763572
 30
0.0
 10
366.9542954523703
 20
248.8131815549987
 30
0.0
 10
367.4477339697993
 20
250.1478922563667
 30
0.0
 10
367.8871532526663
 20
251.3364853607034
 30
0.0
 10
368.3440685062233
 20
252.518755309168
 30
0.0
 10
368.8178736190993
 20
253.6939055470073
 30
0.0
 10
369.2443932259733
 20
254.751776396938
 30
0.0
 10
369.6845991437313
 20
255.803878041135
 30
0.0
 10
370.1380917905083
 20
256.849640331739
 30
0.0
 10
370.5724519178403
 20
257.851282684562
 30
0.0
 10
371.0190010466053
 20
258.847109385533
 30
0.0
 10
371.4774360878643
 20
259.836627274436
 30
0.0
 10
371.9243189429133
 20
260.801210125915
 30
0.0
 10
372.3824960839093
 20
261.759798130594
 30
0.0
 10
372.8517358136603
 20
262.711941541151
 30
0.0
 10
373.3254123175203
 20
263.67308769586
 30
0.0
 10
373.8103615594453
 20
264.6276667105
 30
0.0
 10
374.3063988102033
 20
265.575223695505
 30
0.0
 10
374.8181727339485
 20
266.552841718035
 30
0.0
 10
375.3417495837562
 20
267.522984857731
 30
0.0
 10
375.8769809554222
 20
268.485164614194
 30
0.0
 10
376.4268776551245
 20
269.473708075225
 30
0.0
 10
376.9890765595162
 20
270.453845518956
 30
0.0
 10
377.5634691457966
 20
271.425062644129
 30
0.0
 10
378.1496039907833
 20
272.416134278249
 30
0.0
 10
378.7484363791455
 20
273.397916906582
 30
0.0
 10
379.3599014035628
 20
274.3698837267
 30
0.0
 10
379.9852872868531
 20
275.363978734682
 30
0.0
 10
380.623887843645
 20
276.347805598386
 30
0.0
 10
381.2756821114639
 20
277.320825293959
 30
0.0
 10
381.9429677735191
 20
278.316971047015
 30
0.0
 10
382.6240822009062
 20
279.301789415281
 30
0.0
 10
383.3190473351784
 20
280.274733000975
 30
0.0
 10
384.0271391939447
 20
281.266053857366
 30
0.0
 10
384.7496104713927
 20
282.245046717921
 30
0.0
 10
385.4865222977832
 20
283.211170480224
 30
0.0
 10
386.2661698598786
 20
284.233322668569
 30
0.0
 10
387.0619819002218
 20
285.241069095511
 30
0.0
 10
387.8740654627765
 20
286.233820087143
 30
0.0
 10
388.6798046224988
 20
287.218815211653
 30
0.0
 10
389.501562922471
 20
288.189047910277
 30
0.0
 10
390.3394673961507
 20
289.143998512351
 30
0.0
 10
391.1252729047952
 20
290.039572491445
 30
0.0
 10
391.9252799040815
 20
290.921705843944
 30
0.0
 10
392.7396012319661
 20
291.790020722472
 30
0.0
 10
393.5947665616393
 20
292.701887763073
 30
0.0
 10
394.4657189196163
 20
293.598515008074
 30
0.0
 10
395.3525869313214
 20
294.4795266138819
 30
0.0
 10
396.2325262866851
 20
295.353655316519
 30
0.0
 10
397.1281343507838
 20
296.212411791044
 30
0.0
 10
398.0395232041459
 20
297.055487092384
 30
0.0
 10
398.9680890655459
 20
297.914451891576
 30
0.0
 10
399.9130371449186
 20
298.757139926697
 30
0.0
 10
400.874458560797
 20
299.583274868976
 30
0.0
 10
401.8166475239031
 20
300.392883654256
 30
0.0
 10
402.7746580703068
 20
301.186596280297
 30
0.0
 10
403.7485374176759
 20
301.964182133574
 30
0.0
 10
404.7009208309977
 20
302.724604737354
 30
0.0
 10
405.6684808140209
 20
303.46960553925
 30
0.0
 10
406.651214956407
 20
304.19898154831
 30
0.0
 10
407.6262714883057
 20
304.922659307299
 30
0.0
 10
408.6162666466961
 20
305.630956308576
 30
0.0
 10
409.6211427308143
 20
306.323674108559
 30
0.0
 10
410.5402600765986
 20
306.957273569987
 30
0.0
 10
411.4718265691696
 20
307.577840041743
 30
0.0
 10
412.4157499058079
 20
308.185211804235
 30
0.0
 10
413.3225237698354
 20
308.768679569677
 30
0.0
 10
414.2407010536891
 20
309.339971169669
 30
0.0
 10
415.1701537647517
 20
309.898927125242
 30
0.0
 10
416.0708649714304
 20
310.440598462829
 30
0.0
 10
416.9821651049637
 20
310.97068552346
 30
0.0
 10
417.9038924682047
 20
311.489023305068
 30
0.0
 10
418.7979727265031
 20
311.991813605267
 30
0.0
 10
419.7018641106584
 20
312.483549102725
 30
0.0
 10
420.6153751416738
 20
312.964056957654
 30
0.0
 10
421.4983574295811
 20
313.428506658531
 30
0.0
 10
422.3903272011871
 20
313.882466860065
 30
0.0
 10
423.2910691587124
 20
314.325756963844
 30
0.0
 10
424.1671459280275
 20
314.756908370463
 30
0.0
 10
425.0515211012284
 20
315.177966248986
 30
0.0
 10
425.9439549095955
 20
315.588737523851
 30
0.0
 10
426.8323815111083
 20
315.997664353275
 30
0.0
 10
427.7287945687488
 20
316.396396761468
 30
0.0
 10
428.6329144938131
 20
316.784715050455
 30
0.0
 10
429.5373443148185
 20
317.173166439331
 30
0.0
 10
430.449486306601
 20
317.551196536695
 30
0.0
 10
431.3690171868164
 20
317.91855648881
 30
0.0
 10
432.3044958787598
 20
318.292287719454
 30
0.0
 10
433.2476220247672
 20
318.654975371993
 30
0.0
 10
434.1980092706725
 20
319.006327872155
 30
0.0
 10
435.1878265194534
 20
319.372257409364
 30
0.0
 10
436.1855198420266
 20
319.72589128777
 30
0.0
 10
437.1906033720371
 20
320.066873117509
 30
0.0
 10
438.2411333689096
 20
320.423272988597
 30
0.0
 10
439.2997369482109
 20
320.7658501689909
 30
0.0
 10
440.3658070340707
 20
321.094177069601
 30
0.0
 10
441.5129106306344
 20
321.447460567124
 30
0.0
 10
442.6686592201209
 20
321.784244409666
 30
0.0
 10
443.8322352789523
 20
322.103982701858
 30
0.0
 10
445.0067656477207
 20
322.4267311216
 30
0.0
 10
446.1892711324617
 20
322.732110587919
 30
0.0
 10
447.3788529378396
 20
323.019559426171
 30
0.0
 10
448.5733049954671
 20
323.308185105179
 30
0.0
 10
449.7748908678505
 20
323.5787319453519
 30
0.0
 10
450.9826500779138
 20
323.8306464906
 30
0.0
 10
452.161381447561
 20
324.07650640579
 30
0.0
 10
453.3459922588546
 20
324.304618010775
 30
0.0
 10
454.53555138517
 20
324.514495680536
 30
0.0
 10
455.7004196988125
 20
324.720017072317
 30
0.0
 10
456.8700324672414
 20
324.908052888881
 30
0.0
 10
458.0434875913529
 20
325.078186881325
 30
0.0
 10
459.2077750973072
 20
325.246991701953
 30
0.0
 10
460.3758446830211
 20
325.398172578882
 30
0.0
 10
461.5467952492778
 20
325.531373416899
 30
0.0
 10
462.6376008401304
 20
325.655457407292
 30
0.0
 10
463.7309060541319
 20
325.763938348647
 30
0.0
 10
464.8259720310289
 20
325.856576907536
 30
0.0
 10
465.8820183970424
 20
325.945914550684
 30
0.0
 10
466.9397019736867
 20
326.020518488355
 30
0.0
 10
467.9983554933386
 20
326.080223002568
 30
0.0
 10
469.0239241748406
 20
326.138061642675
 30
0.0
 10
470.0504028831952
 20
326.181917416037
 30
0.0
 10
471.077184482093
 20
326.211689099055
 30
0.0
 10
472.0756673618414
 20
326.240640256562
 30
0.0
 10
473.0744364757857
 20
326.25627282837
 30
0.0
 10
474.072936128683
 20
326.25854333335
 30
0.0
 10
475.0548028704534
 20
326.260776016477
 30
0.0
 10
476.0364088874474
 20
326.250087957091
 30
0.0
 10
477.0172309776081
 20
326.226488706092
 30
0.0
 10
478.0160643156033
 20
326.202456092139
 30
0.0
 10
479.0140844915095
 20
326.1650338852489
 30
0.0
 10
480.0107470160909
 20
326.114285663685
 30
0.0
 10
481.0294174316518
 20
326.062416840813
 30
0.0
 10
482.0466693637552
 20
325.9966271559
 30
0.0
 10
483.0619328140259
 20
325.917037443456
 30
0.0
 10
484.1005525481415
 20
325.835616758063
 30
0.0
 10
485.1370910065264
 20
325.739754004877
 30
0.0
 10
486.1709532612266
 20
325.629630481862
 30
0.0
 10
487.2649497640011
 20
325.513101661409
 30
0.0
 10
488.355949234858
 20
325.380604867564
 30
0.0
 10
489.4432693933652
 20
325.23241129571
 30
0.0
 10
490.5309039392733
 20
325.084174875213
 30
0.0
 10
491.6148567778745
 20
324.920233143875
 30
0.0
 10
492.6944722575273
 20
324.740907471621
 30
0.0
 10
493.7933453076762
 20
324.55838308942
 30
0.0
 10
494.8877245139286
 20
324.359921499753
 30
0.0
 10
495.9769516511102
 20
324.14590596929
 30
0.0
 10
497.0778135072564
 20
323.929604404568
 30
0.0
 10
498.1734122797404
 20
323.6974153929619
 30
0.0
 10
499.2631074925057
 20
323.449771872092
 30
0.0
 10
500.3531348667223
 20
323.202052864399
 30
0.0
 10
501.4372547535993
 20
322.938870569111
 30
0.0
 10
502.5148700727385
 20
322.660686291103
 30
0.0
 10
503.5831155747873
 20
322.384920812973
 30
0.0
 10
504.6449688831944
 20
322.094413754849
 30
0.0
 10
505.6998957685884
 20
321.789632234033
 30
0.0
 10
506.7404947850972
 20
321.488990213052
 30
0.0
 10
507.7743541154032
 20
321.174459414479
 30
0.0
 10
508.8010101572438
 20
320.846496403722
 30
0.0
 10
509.8073861801702
 20
320.525011800329
 30
0.0
 10
510.8068406340675
 20
320.190620905816
 30
0.0
 10
511.7989856163107
 20
319.843753918122
 30
0.0
 10
512.7625871262843
 20
319.506866105267
 30
0.0
 10
513.7192936686151
 20
319.158210186232
 30
0.0
 10
514.6687965677742
 20
318.798173698715
 30
0.0
 10
515.5919574348137
 20
318.448125693305
 30
0.0
 10
516.5083087553217
 20
318.08732022242
 30
0.0
 10
517.4176124522114
 20
317.71610083924
 30
0.0
 10
518.3222163426059
 20
317.346800132157
 30
0.0
 10
519.2198451102468
 20
316.967193261563
 30
0.0
 10
520.110312249701
 20
316.577599861225
 30
0.0
 10
521.0109563982311
 20
316.183553859106
 30
0.0
 10
521.904274411942
 20
315.779291887422
 30
0.0
 10
522.7901225965492
 20
315.36512186979
 30
0.0
 10
523.6932163867846
 20
314.942888830852
 30
0.0
 10
524.5885467669274
 20
314.510358385828
 30
0.0
 10
525.4760107805989
 20
314.067830879799
 30
0.0
 10
526.3994945600315
 20
313.607342378321
 30
0.0
 10
527.3144607046067
 20
313.13602894954
 30
0.0
 10
528.2208443764355
 20
312.654198438977
 30
0.0
 10
529.1746371829523
 20
312.147165391914
 30
0.0
 10
530.1189266339493
 20
311.62848637277
 30
0.0
 10
531.05368736813
 20
311.098485439675
 30
0.0
 10
532.0383237969603
 20
310.540205436078
 30
0.0
 10
533.0123881396904
 20
309.9693632295
 30
0.0
 10
533.9758966570298
 20
309.386298402713
 30
0.0
 10
534.992988027939
 20
308.770808042916
 30
0.0
 10
535.9983176711759
 20
308.141698049513
 30
0.0
 10
536.9919437486391
 20
307.499322071899
 30
0.0
 10
538.0394256131187
 20
306.822128505838
 30
0.0
 10
539.073902229864
 20
306.1301921249481
 30
0.0
 10
540.0954669321814
 20
305.423873971961
 30
0.0
 10
541.1214548683063
 20
304.714497559105
 30
0.0
 10
542.1344207265195
 20
303.99061428196
 30
0.0
 10
543.1344578719015
 20
303.252538863889
 30
0.0
 10
544.088729371721
 20
302.548240689132
 30
0.0
 10
545.0312296798245
 20
301.831019046582
 30
0.0
 10
545.9620158482289
 20
301.101107953244
 30
0.0
 10
546.8395793330812
 20
300.412933435353
 30
0.0
 10
547.7067306991473
 20
299.713478666266
 30
0.0
 10
548.5634828514608
 20
299.002911392349
 30
0.0
 10
549.3649660001628
 20
298.338182748802
 30
0.0
 10
550.1573488618926
 20
297.663728738656
 30
0.0
 10
550.9406029114222
 20
296.979666921233
 30
0.0
 10
551.6848331487727
 20
296.329686893618
 30
0.0
 10
552.420821964913
 20
295.671032368908
 30
0.0
 10
553.1485017315217
 20
295.003789527954
 30
0.0
 10
553.8723695215015
 20
294.34004206262
 30
0.0
 10
554.5880153943007
 20
293.667795885361
 30
0.0
 10
555.29532219831
 20
292.98712319987
 30
0.0
 10
556.0114518371845
 20
292.297959909359
 30
0.0
 10
556.7190330386849
 20
291.600158393427
 30
0.0
 10
557.4178912423589
 20
290.89378319528
 30
0.0
 10
558.1383776363384
 20
290.1655471716709
 30
0.0
 10
558.84959280457
 20
289.428198374411
 30
0.0
 10
559.5512888544923
 20
288.681799446532
 30
0.0
 10
560.2969407577076
 20
287.888644374344
 30
0.0
 10
561.0318432710192
 20
287.085269450396
 30
0.0
 10
561.7556378964005
 20
286.271745322864
 30
0.0
 10
562.5352429193334
 20
285.395491930176
 30
0.0
 10
563.301960445466
 20
284.507463206482
 30
0.0
 10
564.055280580178
 20
283.607750181875
 30
0.0
 10
564.8650050669385
 20
282.640671733402
 30
0.0
 10
565.6592500565068
 20
281.6600928242379
 30
0.0
 10
566.4373239357194
 20
280.666142117876
 30
0.0
 10
567.2560990035045
 20
279.620197666175
 30
0.0
 10
568.0569652846652
 20
278.559444546793
 30
0.0
 10
568.8390730273385
 20
277.484067255841
 30
0.0
 10
569.5846569834819
 20
276.458909197446
 30
0.0
 10
570.313191403396
 20
275.420460315372
 30
0.0
 10
571.0239302426985
 20
274.368924613179
 30
0.0
 10
571.6777471812425
 20
273.401604670101
 30
0.0
 10
572.3165037012004
 20
272.423210120157
 30
0.0
 10
572.9396324060316
 20
271.433942137892
 30
0.0
 10
573.523373320046
 20
270.50720550757
 30
0.0
 10
574.0933990453575
 20
269.570926611329
 30
0.0
 10
574.6492666108084
 20
268.625309945157
 30
0.0
 10
575.1734182449663
 20
267.733646981409
 30
0.0
 10
575.6849808394603
 20
266.833681417023
 30
0.0
 10
576.1836113330553
 20
265.925620552308
 30
0.0
 10
576.6579785447364
 20
265.061745787398
 30
0.0
 10
577.1206412368333
 20
264.190544368555
 30
0.0
 10
577.5713360874443
 20
263.312228452006
 30
0.0
 10
578.0114467185213
 20
262.45453910456
 30
0.0
 10
578.4401447236553
 20
261.590065405591
 30
0.0
 10
578.8572213408113
 20
260.719038923252
 30
0.0
 10
579.2739820926753
 20
259.848672096768
 30
0.0
 10
579.6791390727512
 20
258.971762382482
 30
0.0
 10
580.0725224437613
 20
258.088575962328
 30
0.0
 10
580.4666877611993
 20
257.20363399144
 30
0.0
 10
580.8490326272342
 20
256.312390297464
 30
0.0
 10
581.2194245915533
 20
255.41514845407
 30
0.0
 10
581.5945707880282
 20
254.506389902877
 30
0.0
 10
581.9574553858283
 20
253.5914781955681
 30
0.0
 10
582.3079795013183
 20
252.6707662184323
 30
0.0
 10
582.6638436347073
 20
251.7360277643148
 30
0.0
 10
583.0069679695583
 20
250.7953109293501
 30
0.0
 10
583.3372864512903
 20
249.8490238985569
 30
0.0
 10
583.6718406166804
 20
248.8906026011869
 30
0.0
 10
583.9932585619553
 20
247.9264673074208
 30
0.0
 10
584.3015071708943
 20
246.9570822051721
 30
0.0
 10
584.6132773379303
 20
245.9766224513062
 30
0.0
 10
584.9115756836622
 20
244.9907922190289
 30
0.0
 10
585.1964019017133
 20
244.0001130521523
 30
0.0
 10
585.4846486769743
 20
242.9975365438392
 30
0.0
 10
585.7590979582103
 20
241.9899938972234
 30
0.0
 10
586.0197817993253
 20
240.9780682416665
 30
0.0
 10
586.2837324256823
 20
239.9534615400434
 30
0.0
 10
586.5335706540952
 20
238.924361229595
 30
0.0
 10
586.7693599100244
 20
237.8914168023811
 30
0.0
 10
587.0082401241733
 20
236.844931520409
 30
0.0
 10
587.2327008453723
 20
235.7945006154809
 30
0.0
 10
587.4428354315473
 20
234.7408454482916
 30
0.0
 10
587.6563944609543
 20
233.6700194651425
 30
0.0
 10
587.8551568349712
 20
232.595863266258
 30
0.0
 10
588.0392453056734
 20
231.5191818301822
 30
0.0
 10
588.2262184530944
 20
230.4256287352704
 30
0.0
 10
588.3980544582473
 20
229.329470643774
 30
0.0
 10
588.5549037602913
 20
228.2315998691645
 30
0.0
 10
588.7120651198372
 20
227.1315448399365
 30
0.0
 10
588.8541804335493
 20
226.0297701948879
 30
0.0
 10
588.9814182440932
 20
224.9272227425876
 30
0.0
 10
589.1087362647603
 20
223.8239802495038
 30
0.0
 10
589.2211583797853
 20
222.7199638508922
 30
0.0
 10
589.3188652869873
 20
221.6161732193698
 30
0.0
 10
589.4246901076973
 20
220.4206748761318
 30
0.0
 10
589.5132530672083
 20
219.22544183157
 30
0.0
 10
589.5847934505002
 20
218.0318054449762
 30
0.0
 10
589.6747959105693
 20
216.5301331547564
 30
0.0
 10
589.7378563012524
 20
215.030989152066
 30
0.0
 10
589.7744650975803
 20
213.5371080337835
 30
0.0
 10
589.8053855028484
 20
212.2753509089379
 30
0.0
 10
589.8174362673203
 20
211.0173528039834
 30
0.0
 10
589.8109176651993
 20
209.7647621079348
 30
0.0
 10
589.8049602270173
 20
208.6200026179359
 30
0.0
 10
589.7834930783123
 20
207.4797615721144
 30
0.0
 10
589.7467470878394
 20
206.3452573800126
 30
0.0
 10
589.7143038561173
 20
205.3435975548276
 30
0.0
 10
589.6699505093753
 20
204.3464100500134
 30
0.0
 10
589.6138459677883
 20
203.3544882134862
 30
0.0
 10
589.5614455346054
 20
202.4280545871369
 30
0.0
 10
589.4987943895043
 20
201.5062145978398
 30
0.0
 10
589.4260212749663
 20
200.5895681078441
 30
0.0
 10
589.3570508173573
 20
199.7208196932507
 30
0.0
 10
589.2789885955633
 20
198.8567364618324
 30
0.0
 10
589.1919430821973
 20
197.9977817650367
 30
0.0
 10
589.1085003952643
 20
197.1743793278207
 30
0.0
 10
589.0168026840543
 20
196.3556898801083
 30
0.0
 10
588.9169441476263
 20
195.5420735056964
 30
0.0
 10
588.8203085066493
 20
194.7547162835462
 30
0.0
 10
588.7160303280983
 20
193.9721101299374
 30
0.0
 10
588.6041934604443
 20
193.1945324897929
 30
0.0
 10
588.4953036801613
 20
192.437445313049
 30
0.0
 10
588.3792483404213
 20
191.6851252590335
 30
0.0
 10
588.2561031979574
 20
190.9377790801102
 30
0.0
 10
588.1358469168363
 20
190.2079648918396
 30
0.0
 10
588.0088295794503
 20
189.4828940709085
 30
0.0
 10
587.8751200128983
 20
188.7627095922524
 30
0.0
 10
587.7447107454103
 20
188.0603011353295
 30
0.0
 10
587.6079355449212
 20
187.3625409029801
 30
0.0
 10
587.4648564806444
 20
186.6695122207259
 30
0.0
 10
587.3251066262403
 20
185.9926091536519
 30
0.0
 10
587.1793428659782
 20
185.3202201294723
 30
0.0
 10
587.0276211546823
 20
184.6523732743789
 30
0.0
 10
586.8787455185914
 20
183.9970542398496
 30
0.0
 10
586.7241333693943
 20
183.3461086916354
 30
0.0
 10
586.5638355907723
 20
182.6995130875748
 30
0.0
 10
586.4002444524393
 20
182.0396330080159
 30
0.0
 10
586.2307316398173
 20
181.3842834419294
 30
0.0
 10
586.0553490883833
 20
180.7333839184977
 30
0.0
 10
585.8723713505103
 20
180.0542962817517
 30
0.0
 10
585.6830044154513
 20
179.3800522266183
 30
0.0
 10
585.4873056075173
 20
178.7105032564481
 30
0.0
 10
585.2808256500233
 20
178.0040684837473
 30
0.0
 10
585.0672968705853
 20
177.3028600470744
 30
0.0
 10
584.8467858558593
 20
176.606645387261
 30
0.0
 10
584.6081755413793
 20
175.8532861996006
 30
0.0
 10
584.3613896208133
 20
175.1057737120656
 30
0.0
 10
584.1065133645272
 20
174.3637526121084
 30
0.0
 10
583.8101914575963
 20
173.5010708130001
 30
0.0
 10
583.5029337448203
 20
172.6458106715163
 30
0.0
 10
583.1848797829273
 20
171.7973442976851
 30
0.0
 10
582.7735348890963
 20
170.7000075175223
 30
0.0
 10
582.3441295678354
 20
169.6140291398368
 30
0.0
 10
581.8969931375814
 20
168.5379853809836
 30
0.0
 10
581.5798548270543
 20
167.7747849869989
 30
0.0
 10
581.2537973417564
 20
167.0165801559915
 30
0.0
 10
580.9189521261574
 20
166.2628840031512
 30
0.0
 10
580.6064586845253
 20
165.559498994874
 30
0.0
 10
580.2863115407173
 20
164.8600397495288
 30
0.0
 10
579.9586293403634
 20
164.1641505651393
 30
0.0
 10
579.6537274550903
 20
163.5166392751387
 30
0.0
 10
579.3423017867943
 20
162.8722185087428
 30
0.0
 10
579.0244584324473
 20
162.2306470668088
 30
0.0
 10
578.7239109049663
 20
161.623987503415
 30
0.0
 10
578.4176251518603
 20
161.0198753310665
 30
0.0
 10
578.1057004137383
 20
160.4181534558726
 30
0.0
 10
577.8098899040103
 20
159.84751691166
 30
0.0
 10
577.5090079974243
 20
159.2790298235754
 30
0.0
 10
577.2031479839172
 20
158.7126048627888
 30
0.0
 10
576.9112803822953
 20
158.1720925777488
 30
0.0
 10
576.6148797357413
 20
157.6334578271394
 30
0.0
 10
576.3140351066273
 20
157.0966721147911
 30
0.0
 10
576.0243411561733
 20
156.5797821373438
 30
0.0
 10
575.7305265478973
 20
156.0646064795254
 30
0.0
 10
575.4326783614142
 20
155.5511677675424
 30
0.0
 10
575.1375630460243
 20
155.042440052225
 30
0.0
 10
574.8384878146433
 20
154.5354174063428
 30
0.0
 10
574.5355451514325
 20
154.0301735014759
 30
0.0
 10
574.2264536683388
 20
153.5146746733544
 30
0.0
 10
573.9133361390342
 20
153.0010276428208
 30
0.0
 10
573.5962992541422
 20
152.4893641904903
 30
0.0
 10
573.2720756012661
 20
151.9661020671752
 30
0.0
 10
572.9437528539123
 20
151.4449146028215
 30
0.0
 10
572.6114543453266
 20
150.9259962850233
 30
0.0
 10
572.2692461011178
 20
150.3916028952445
 30
0.0
 10
571.922821385605
 20
149.8596161572872
 30
0.0
 10
571.5723252008014
 20
149.3303027041701
 30
0.0
 10
571.1863684556561
 20
148.747437308242
 30
0.0
 10
570.7954745470805
 20
148.1678135505998
 30
0.0
 10
570.3998513718112
 20
147.5918516868418
 30
0.0
 10
569.9625233420553
 20
146.9551744575053
 30
0.0
 10
569.5194161614852
 20
146.3229724939728
 30
0.0
 10
569.0708309080683
 20
145.6958830631931
 30
0.0
 10
568.5472693189595
 20
144.963982189521
 30
0.0
 10
568.016244701167
 20
144.2390473117819
 30
0.0
 10
567.4782704115983
 20
143.5221647758921
 30
0.0
 10
566.9059185414126
 20
142.7594720820668
 30
0.0
 10
566.3257000657087
 20
142.0058983399567
 30
0.0
 10
565.7382779105651
 20
141.2627767370269
 30
0.0
 10
565.2519111470147
 20
140.6474958086917
 30
0.0
 10
564.7606069024785
 20
140.0393820406543
 30
0.0
 10
564.2647646480366
 20
139.4391670443907
 30
0.0
 10
563.8173448623418
 20
138.8975672460811
 30
0.0
 10
563.36623045479
 20
138.3623994794205
 30
0.0
 10
562.9117287104
 20
137.8341638966282
 30
0.0
 10
562.4879553846702
 20
137.341641805235
 30
0.0
 10
562.0612374363442
 20
136.8551466270049
 30
0.0
 10
561.6318333602699
 20
136.3750423706762
 30
0.0
 10
561.2284826714846
 20
135.9240676518303
 30
0.0
 10
560.822762013485
 20
135.4787321341796
 30
0.0
 10
560.414892405712
 20
135.0392953365053
 30
0.0
 10
560.027522088443
 20
134.6219443780358
 30
0.0
 10
559.6382134358842
 20
134.2099144010903
 30
0.0
 10
559.2471613423196
 20
133.8033840909462
 30
0.0
 10
558.8712370057547
 20
133.4125803089196
 30
0.0
 10
558.4937015281798
 20
133.0268591607903
 30
0.0
 10
558.1147329587263
 20
132.6463341128376
 30
0.0
 10
557.7400606093179
 20
132.2701229301244
 30
0.0
 10
557.363987482111
 20
131.898991067395
 30
0.0
 10
556.986690414749
 20
131.5329981584056
 30
0.0
 10
556.6048738418044
 20
131.1626211522727
 30
0.0
 10
556.2218039616416
 20
130.7975069147263
 30
0.0
 10
555.837667980305
 20
130.4376629129891
 30
0.0
 10
555.4482063085147
 20
130.0728300066506
 30
0.0
 10
555.057648923088
 20
129.7134144109884
 30
0.0
 10
554.666192747959
 20
129.3593693554141
 30
0.0
 10
554.2671125747747
 20
128.9984289205182
 30
0.0
 10
553.8670984354702
 20
128.643070218406
 30
0.0
 10
553.4663583626213
 20
128.2931881474816
 30
0.0
 10
553.047637595563
 20
127.9276073158069
 30
0.0
 10
552.6281246108796
 20
127.5680054433002
 30
0.0
 10
552.2080524505128
 20
127.2142027334259
 30
0.0
 10
551.7624931447701
 20
126.8389336614555
 30
0.0
 10
551.3163053203433
 20
126.470188323617
 30
0.0
 10
550.8697551416544
 20
126.1076916834515
 30
0.0
 10
550.3950069331158
 20
125.7223046906052
 30
0.0
 10
549.9198500220152
 20
125.3439795910269
 30
0.0
 10
549.4445797699349
 20
124.9723302686814
 30
0.0
 10
548.9549009912055
 20
124.5894138427423
 30
0.0
 10
548.4651027417036
 20
124.2135828010215
 30
0.0
 10
547.9754693526032
 20
123.8443759501712
 30
0.0
 10
547.4923987251526
 20
123.4801177335757
 30
0.0
 10
547.0094890428034
 20
123.1223060024774
 30
0.0
 10
546.5269669702122
 20
122.7704800734048
 30
0.0
 10
546.0653902110024
 20
122.4339262008011
 30
0.0
 10
545.6041682750354
 20
122.1028486756407
 30
0.0
 10
545.1434528877919
 20
121.7768450989425
 30
0.0
 10
544.7109207465
 20
121.4707840708058
 30
0.0
 10
544.2788350886591
 20
121.1691943613807
 30
0.0
 10
543.8472788056282
 20
120.8717566888409
 30
0.0
 10
543.4396092325013
 20
120.5907822394723
 30
0.0
 10
543.0324120536256
 20
120.3135123468938
 30
0.0
 10
542.6257176101601
 20
120.0397003845841
 30
0.0
 10
542.2371828372869
 20
119.7781146405561
 30
0.0
 10
541.8491069172217
 20
119.5196845158954
 30
0.0
 10
541.4614790222208
 20
119.2642229029824
 30
0.0
 10
541.0832089703783
 20
119.014928466729
 30
0.0
 10
540.7053655947566
 20
118.7684606580102
 30
0.0
 10
540.3279018382689
 20
118.5246781820326
 30
0.0
 10
539.9562481997082
 20
118.284648132373
 30
0.0
 10
539.5849625437028
 20
118.0472212247754
 30
0.0
 10
539.2139640241875
 20
117.812297483121
 30
0.0
 10
538.8483864655655
 20
117.5808064031874
 30
0.0
 10
538.4830876778481
 20
117.3517457301595
 30
0.0
 10
538.1179556992126
 20
117.1250561695962
 30
0.0
 10
537.7533483534443
 20
116.8986923235718
 30
0.0
 10
537.388907370151
 20
116.6746925740988
 30
0.0
 10
537.0244863834257
 20
116.4530371632726
 30
0.0
 10
536.6407975027629
 20
116.2196622491739
 30
0.0
 10
536.2571305273377
 20
115.9888862303808
 30
0.0
 10
535.8732762520606
 20
115.7607321420025
 30
0.0
 10
535.4572886043031
 20
115.5134787214639
 30
0.0
 10
535.041080485378
 20
115.2693048118394
 30
0.0
 10
534.6243478255519
 20
115.0282898230818
 30
0.0
 10
534.1505053449711
 20
114.754245690861
 30
0.0
 10
533.6759836583883
 20
114.4842859982526
 30
0.0
 10
533.2003006393729
 20
114.2185857017617
 30
0.0
 10
532.6179893656049
 20
113.8933265020318
 30
0.0
 10
532.0339345282872
 20
113.57445116983
 30
0.0
 10
531.4472379309581
 20
113.2623525036418
 30
0.0
 10
530.9583648198088
 20
113.0022919431758
 30
0.0
 10
530.4676558782949
 20
112.7469390886419
 30
0.0
 10
529.9746161497033
 20
112.4965360131929
 30
0.0
 10
529.5023966088049
 20
112.2567070126662
 30
0.0
 10
529.028037713194
 20
112.0214198216695
 30
0.0
 10
528.5511484145775
 20
111.790878533799
 30
0.0
 10
528.1365946675709
 20
111.5904719509637
 30
0.0
 10
527.7201287004027
 20
111.3936521836191
 30
0.0
 10
527.3015347922018
 20
111.2005356118493
 30
0.0
 10
526.9120821840763
 20
111.0208632585865
 30
0.0
 10
526.5207873987464
 20
110.8443967738638
 30
0.0
 10
526.1275173615268
 20
110.6712077116179
 30
0.0
 10
525.7543141016805
 20
110.5068556977781
 30
0.0
 10
525.3793318562261
 20
110.3454554119397
 30
0.0
 10
525.0024975627302
 20
110.1870432931073
 30
0.0
 10
524.6363490276137
 20
110.033123211373
 30
0.0
 10
524.2684518813095
 20
109.8820243577288
 30
0.0
 10
523.8987809668226
 20
109.7337532417066
 30
0.0
 10
523.5364956207209
 20
109.5884443994906
 30
0.0
 10
523.1725065983891
 20
109.4458515123695
 30
0.0
 10
522.8068322071178
 20
109.3059531589267
 30
0.0
 10
522.447796890909
 20
109.1685947582173
 30
0.0
 10
522.0871367791981
 20
109.0338340073396
 30
0.0
 10
521.7249111612251
 20
108.9016227068347
 30
0.0
 10
521.3682041927308
 20
108.7714256973915
 30
0.0
 10
521.0099789830767
 20
108.6437011167298
 30
0.0
 10
520.6503343005986
 20
108.5183745517485
 30
0.0
 10
520.2801231679546
 20
108.3893658611362
 30
0.0
 10
519.9084079958004
 20
108.2628980016329
 30
0.0
 10
519.535343175958
 20
108.1388587903572
 30
0.0
 10
519.1261689508322
 20
108.0028136704223
 30
0.0
 10
518.7153710570249
 20
107.869689858136
 30
0.0
 10
518.3032089507369
 20
107.7393058651979
 30
0.0
 10
517.8529618115265
 20
107.5968739945247
 30
0.0
 10
517.40108692382
 20
107.4577109625802
 30
0.0
 10
516.9479853828902
 20
107.321549526173
 30
0.0
 10
516.4405593236556
 20
107.1690630416776
 30
0.0
 10
515.931595440407
 20
107.0203394991007
 30
0.0
 10
515.4217264189214
 20
106.8749850031712
 30
0.0
 10
514.8719968432176
 20
106.7182669795087
 30
0.0
 10
514.3212166381713
 20
106.5654629077369
 30
0.0
 10
513.7702370230737
 20
106.4160915046631
 30
0.0
 10
513.2667441240633
 20
106.279593821805
 30
0.0
 10
512.7630868307592
 20
106.1459613032799
 30
0.0
 10
512.2599324992261
 20
106.0148628511668
 30
0.0
 10
511.8111967209579
 20
105.8979433251846
 30
0.0
 10
511.3628620085173
 20
105.7830390251267
 30
0.0
 10
510.9153969569642
 20
105.6699547684835
 30
0.0
 10
510.5049578868131
 20
105.5662277914062
 30
0.0
 10
510.0952510906755
 20
105.4640318549317
 30
0.0
 10
509.6866234314032
 20
105.3632560210944
 30
0.0
 10
509.3022448741188
 20
105.268460505567
 30
0.0
 10
508.9188215349046
 20
105.1749213581817
 30
0.0
 10
508.5366220947921
 20
105.0825861232442
 30
0.0
 10
508.1717364948975
 20
104.9944337241155
 30
0.0
 10
507.8079666774175
 20
104.9073784763742
 30
0.0
 10
507.4455232775529
 20
104.8214147318242
 30
0.0
 10
507.0935999034743
 20
104.7379461101256
 30
0.0
 10
506.742927268721
 20
104.6555064210033
 30
0.0
 10
506.3936723460942
 20
104.5741314603448
 30
0.0
 10
506.0518785715476
 20
104.4944949165049
 30
0.0
 10
505.7114427216203
 20
104.4158780437752
 30
0.0
 10
505.3724938102249
 20
104.338355301825
 30
0.0
 10
505.0401159884305
 20
104.262335467441
 30
0.0
 10
504.7091681319636
 20
104.1873677042604
 30
0.0
 10
504.3797432675519
 20
104.1135627335986
 30
0.0
 10
504.0561605850547
 20
104.04106665644
 30
0.0
 10
503.7340474624801
 20
103.9696924500419
 30
0.0
 10
503.413462481816
 20
103.8995852075712
 30
0.0
 10
503.0919356487957
 20
103.8292719957772
 30
0.0
 10
502.7719461262344
 20
103.7602330927812
 30
0.0
 10
502.4535205876694
 20
103.6926572822601
 30
0.0
 10
502.1189606176409
 20
103.6216574458636
 30
0.0
 10
501.7861272114997
 20
103.5522731926512
 30
0.0
 10
501.4550132385184
 20
103.4847680289793
 30
0.0
 10
501.1020569392014
 20
103.4128098070418
 30
0.0
 10
500.7510545199843
 20
103.3429875106388
 30
0.0
 10
500.4019535302316
 20
103.2756601425033
 30
0.0
 10
500.0133875724969
 20
103.2007215887632
 30
0.0
 10
499.6271776841774
 20
103.1288752599484
 30
0.0
 10
499.2431938642152
 20
103.0606478646425
 30
0.0
 10
498.8545762483268
 20
102.9915971225966
 30
0.0
 10
498.4682382200865
 20
102.9262553679009
 30
0.0
 10
498.0839911814214
 20
102.8651706219364
 30
0.0
 10
497.7148094511449
 20
102.8064808470275
 30
0.0
 10
497.3475572436595
 20
102.7517220997853
 30
0.0
 10
496.9820275696434
 20
102.7013576681261
 30
0.0
 10
496.6361885948686
 20
102.65370631545
 30
0.0
 10
496.2918909698789
 20
102.6099893741844
 30
0.0
 10
495.9489324618409
 20
102.5705642238546
 30
0.0
 10
495.6234984076673
 20
102.5331536152605
 30
0.0
 10
495.2992696908114
 20
102.4996078822042
 30
0.0
 10
494.9760556889365
 20
102.4701912677848
 30
0.0
 10
494.6713016056529
 20
102.4424547424217
 30
0.0
 10
494.3674493186729
 20
102.4183894553444
 30
0.0
 10
494.064327905638
 20
102.3981743648474
 30
0.0
 10
493.7774618619965
 20
102.3790433408307
 30
0.0
 10
493.4912501665176
 20
102.3633610011906
 30
0.0
 10
493.205541598632
 20
102.35123451732
 30
0.0
 10
492.9320701656989
 20
102.3396274208123
 30
0.0
 10
492.6590595194945
 20
102.3312783739574
 30
0.0
 10
492.3863738821614
 20
102.3262349163043
 30
0.0
 10
492.1233636499253
 20
102.3213704101221
 30
0.0
 10
491.8606556491674
 20
102.3195812946693
 30
0.0
 10
491.5981270725793
 20
102.3208625274973
 30
0.0
 10
491.3432302044962
 20
102.3221065148733
 30
0.0
 10
491.0885023839486
 20
102.3262451268409
 30
0.0
 10
490.8338318398249
 20
102.3332249583898
 30
0.0
 10
490.5795297351222
 20
102.3401946920096
 30
0.0
 10
490.3252846648915
 20
102.3499975072312
 30
0.0
 10
490.0709873158654
 20
102.3625276436741
 30
0.0
 10
489.813574707653
 20
102.3752112800368
 30
0.0
 10
489.556108461344
 20
102.3906893880837
 30
0.0
 10
489.2984782921816
 20
102.4087990367853
 30
0.0
 10
489.0357267902111
 20
102.4272686803521
 30
0.0
 10
488.7728046990249
 20
102.4484754984097
 30
0.0
 10
488.509599417122
 20
102.4721923515159
 30
0.0
 10
488.242946576153
 20
102.4962198566401
 30
0.0
 10
487.9760029891013
 20
102.5228234774761
 30
0.0
 10
487.708657346107
 20
102.5517129552608
 30
0.0
 10
487.437263131
 20
102.5810399233776
 30
0.0
 10
487.165454491017
 20
102.6127224007896
 30
0.0
 10
486.8931223292879
 20
102.6464029402908
 30
0.0
 10
486.6099291203356
 20
102.6814267141999
 30
0.0
 10
486.3261696568304
 20
102.7186108187674
 30
0.0
 10
486.0417311136581
 20
102.7574971330968
 30
0.0
 10
485.7277022248663
 20
102.8004288185916
 30
0.0
 10
485.4128452649354
 20
102.8454349438562
 30
0.0
 10
485.0970242649511
 20
102.8918367534647
 30
0.0
 10
485.0003148397428
 20
102.9060457273331
 30
0.0
 10
484.9035149741857
 20
102.9203854751228
 30
0.0
 10
484.8066213205193
 20
102.9348352348054
 30
0.0
  0
LINE
  5
D2
330
1F
100
AcDbEntity
  8
VISIBLE
100
AcDbLine
 10
477.9201786162638
 20
161.3425003573042
 30
0.0
 11
484.8066212583138
 21
102.9348348176774
 31
0.0
  0
ARC
  5
D3
330
1F
100
AcDbEntity
  8
VISIBLE
100
AcDbCircle
 10
474.5995662284073
 20
154.064208430649
 30
-0.0000000000000005
 40
8.0
100
AcDbArc
 50
65.47586280228528
 51
127.9727453267105
  0
LINE
  5
D4
330
1F
100
AcDbEntity
  8
VISIBLE
100
AcDbLine
 10
469.6772737344303
 20
160.3706366276348
 30
0.0
 11
476.340381085586
 21
103.8571991607288
 31
0.0
  0
ENDSEC
  0
SECTION
  2
OBJECTS
  0
DICTIONARY
  5
C
330
0
100
AcDbDictionary
  3
ACAD_GROUP
350
D
  3
ACAD_LAYOUT
350
1A
  3
ACAD_MATERIAL
350
43
  3
ACAD_MLEADERSTYLE
350
13D
  3
ACAD_MLINESTYLE
350
17
  3
ACAD_PLOTSETTINGS
350
19
  3
ACAD_SCALELIST
350
47
  3
ACAD_VISUALSTYLE
350
2A
  3
ACDBHEADERROUNDTRIPXREC
350
11C
  3
ACDBVARIABLEDICTIONARY
350
6C
  3
ONSHAPE_DATA
350
D5
  0
DICTIONARY
  5
72
330
71
100
AcDbDictionary
280
     1
  3
ONSHAPE_VIEW_ID
360
73
  0
DICTIONARY
  5
D
102
{ACAD_REACTORS
330
C
102
}
330
C
100
AcDbDictionary
  0
DICTIONARY
  5
1A
102
{ACAD_REACTORS
330
C
102
}
330
C
100
AcDbDictionary
  0
DICTIONARY
  5
43
102
{ACAD_REACTORS
330
C
102
}
330
C
100
AcDbDictionary
  3
BYBLOCK
350
45
  3
BYLAYER
350
44
  3
GLOBAL
350
46
  0
DICTIONARY
  5
13D
102
{ACAD_REACTORS
330
C
102
}
330
C
100
AcDbDictionary
  0
DICTIONARY
  5
17
102
{ACAD_REACTORS
330
C
102
}
330
C
100
AcDbDictionary
  3
STANDARD
350
18
  0
DICTIONARY
  5
19
102
{ACAD_REACTORS
330
C
102
}
330
C
100
AcDbDictionary
  0
DICTIONARY
  5
47
102
{ACAD_REACTORS
330
C
102
}
330
C
100
AcDbDictionary
  3
A0
350
48
  3
A1
350
49
  3
A2
350
4A
  3
A3
350
4B
  3
A4
350
4C
  3
A5
350
4D
  3
A6
350
4E
  3
A7
350
4F
  3
A8
350
50
  3
A9
350
51
  3
B0
350
52
  3
B1
350
53
  3
B2
350
54
  3
B3
350
55
  3
B4
350
56
  3
B5
350
57
  3
B6
350
58
  3
B7
350
59
  3
B8
350
5A
  3
B9
350
5B
  3
C0
350
5C
  3
C1
350
5D
  3
C2
350
5E
  3
C3
350
5F
  3
C4
350
60
  3
C5
350
61
  3
C6
350
62
  3
C7
350
63
  3
C8
350
64
  3
C9
350
65
  3
D0
350
66
  3
D1
350
67
  3
D2
350
68
  0
DICTIONARY
  5
2A
102
{ACAD_REACTORS
330
C
102
}
330
C
100
AcDbDictionary
  3
2DWIREFRAME
350
2F
  3
BASIC
350
32
  3
BRIGHTEN
350
36
  3
COLORCHANGE
350
3A
  3
CONCEPTUAL
350
34
  3
DIM
350
35
  3
EDGECOLOROFF
350
3D
  3
FACEPATTERN
350
39
  3
FLAT
350
2B
  3
FLATWITHEDGES
350
2C
  3
GOURAUD
350
2D
  3
GOURAUDWITHEDGES
350
2E
  3
HIDDEN
350
31
  3
JITTEROFF
350
3B
  3
LINEPATTERN
350
38
  3
OVERHANGOFF
350
3C
  3
REALISTIC
350
33
  3
SHADED
350
42
  3
SHADED_WITH_EDGES
350
41
  3
SHADES_OF_GRAY
350
3E
  3
SKETCHY
350
3F
  3
THICKEN
350
37
  3
WIREFRAME
350
30
  3
X-RAY
350
40
  0
DICTIONARY
  5
11C
102
{ACAD_REACTORS
330
C
102
}
330
C
100
AcDbDictionary
  3
CEPSNTYPE
350
125
  3
DIMSTYLEDATA
350
13B
  3
FINGERPRINTGUID
350
126
  3
HYPERLINKBASE
350
11F
  3
INSUNITS
350
124
  3
LAYOUTDICT
350
121
  3
LWETCUNION
350
123
  3
PLOTSETDICT
350
122
  3
PSVPSCALE
350
128
  3
PUCSBASE
350
12B
  3
PUCSORGBACK
350
131
  3
PUCSORGBOTTOM
350
12D
  3
PUCSORGFRONT
350
130
  3
PUCSORGLEFT
350
12E
  3
PUCSORGRIGHT
350
12F
  3
PUCSORGTOP
350
12C
  3
PUCSORTHOREF
350
129
  3
PUCSORTHOVIEW
350
12A
  3
STYLESHEET
350
120
  3
TSTACKALIGN
350
11D
  3
TSTACKSIZE
350
11E
  3
UCSBASE
350
134
  3
UCSORGBACK
350
13A
  3
UCSORGBOTTOM
350
136
  3
UCSORGFRONT
350
139
  3
UCSORGLEFT
350
137
  3
UCSORGRIGHT
350
138
  3
UCSORGTOP
350
135
  3
UCSORTHOREF
350
132
  3
UCSORTHOVIEW
350
133
  3
VERSIONGUID
350
127
  0
DICTIONARY
  5
6C
102
{ACAD_REACTORS
330
C
102
}
330
C
100
AcDbDictionary
  3
CANNOSCALE
350
144
  3
CTABLESTYLE
350
13C
  3
DIMASSOC
350
142
  3
HIDETEXT
350
143
  3
MSLTSCALE
350
145
  3
OLEFRAME
350
6D
  3
PSOLHEIGHT
350
13F
  3
PSOLWIDTH
350
13E
  0
DICTIONARY
  5
D5
102
{ACAD_REACTORS
330
C
102
}
330
C
100
AcDbDictionary
280
     1
  3
DIM_UNITS
360
D6
  3
ONSHAPE_ANG_TOL_PRECISION
360
D9
  3
ONSHAPE_VSHARP_EXTENSION
360
D8
  3
ONSHAPE_WELD_STANDARD
360
D7
  0
XRECORD
  5
73
102
{ACAD_REACTORS
330
72
102
}
330
72
100
AcDbXrecord
330
0
  0
MATERIAL
  5
45
102
{ACAD_REACTORS
330
43
102
}
102
{ACAD_XDICTIONARY
360
148
102
}
330
43
100
AcDbMaterial
  1
BYBLOCK
  0
MATERIAL
  5
44
102
{ACAD_REACTORS
330
43
102
}
102
{ACAD_XDICTIONARY
360
146
102
}
330
43
100
AcDbMaterial
  1
BYLAYER
  0
MATERIAL
  5
46
102
{ACAD_REACTORS
330
43
102
}
102
{ACAD_XDICTIONARY
360
14A
102
}
330
43
100
AcDbMaterial
  1
GLOBAL
  0
MLINESTYLE
  5
18
102
{ACAD_REACTORS
330
17
102
}
330
17
100
AcDbMlineStyle
  2
Standard
 70
     0
  3

 62
   256
 51
90.0
 52
90.0
 71
     2
 49
0.5
 62
   256
  6
BYLAYER
 49
-0.5
 62
   256
  6
BYLAYER
  0
ACAD_PROXY_OBJECT
  5
48
102
{ACAD_REACTORS
330
47
102
}
330
47
100
AcDbProxyObject
 90
      499
 91
      503
 93
       41
310
903313A31580
  0
ACAD_PROXY_OBJECT
  5
49
102
{ACAD_REACTORS
330
47
102
}
330
47
100
AcDbProxyObject
 90
      499
 91
      503
 93
      105
310
903313A324000000000000004000
  0
ACAD_PROXY_OBJECT
  5
4A
102
{ACAD_REACTORS
330
47
102
}
330
47
100
AcDbProxyObject
 90
      499
 91
      503
 93
      105
310
903313A344000000000000104000
  0
ACAD_PROXY_OBJECT
  5
4B
102
{ACAD_REACTORS
330
47
102
}
330
47
100
AcDbProxyObject
 90
      499
 91
      503
 93
      105
310
903313A354000000000000144000
  0
ACAD_PROXY_OBJECT
  5
4C
102
{ACAD_REACTORS
330
47
102
}
330
47
100
AcDbProxyObject
 90
      499
 91
      503
 93
      105
310
903313A384000000000000204000
  0
ACAD_PROXY_OBJECT
  5
4D
102
{ACAD_REACTORS
330
47
102
}
330
47
100
AcDbProxyObject
 90
      499
 91
      503
 93
      113
310
904313A31304000000000000244000
  0
ACAD_PROXY_OBJECT
  5
4E
102
{ACAD_REACTORS
330
47
102
}
330
47
100
AcDbProxyObject
 90
      499
 91
      503
 93
      113
310
904313A31364000000000000304000
  0
ACAD_PROXY_OBJECT
  5
4F
102
{ACAD_REACTORS
330
47
102
}
330
47
100
AcDbProxyObject
 90
      499
 91
      503
 93
      113
310
904313A32304000000000000344000
  0
ACAD_PROXY_OBJECT
  5
50
102
{ACAD_REACTORS
330
47
102
}
330
47
100
AcDbProxyObject
 90
      499
 91
      503
 93
      113
310
904313A333040000000000003E4000
  0
ACAD_PROXY_OBJECT
  5
51
102
{ACAD_REACTORS
330
47
102
}
330
47
100
AcDbProxyObject
 90
      499
 91
      503
 93
      113
310
904313A34304000000000000444000
  0
ACAD_PROXY_OBJECT
  5
52
102
{ACAD_REACTORS
330
47
102
}
330
47
100
AcDbProxyObject
 90
      499
 91
      503
 93
      113
310
904313A35304000000000000494000
  0
ACAD_PROXY_OBJECT
  5
53
102
{ACAD_REACTORS
330
47
102
}
330
47
100
AcDbProxyObject
 90
      499
 91
      503
 93
      121
310
905313A3130304000000000000594000
  0
ACAD_PROXY_OBJECT
  5
54
102
{ACAD_REACTORS
330
47
102
}
330
47
100
AcDbProxyObject
 90
      499
 91
      503
 93
      105
310
903323A310000000000000010100
  0
ACAD_PROXY_OBJECT
  5
55
102
{ACAD_REACTORS
330
47
102
}
330
47
100
AcDbProxyObject
 90
      499
 91
      503
 93
      105
310
903343A310000000000000410100
  0
ACAD_PROXY_OBJECT
  5
56
102
{ACAD_REACTORS
330
47
102
}
330
47
100
AcDbProxyObject
 90
      499
 91
      503
 93
      105
310
903383A310000000000000810100
  0
ACAD_PROXY_OBJECT
  5
57
102
{ACAD_REACTORS
330
47
102
}
330
47
100
AcDbProxyObject
 90
      499
 91
      503
 93
      113
310
90431303A310000000000000910100
  0
ACAD_PROXY_OBJECT
  5
58
102
{ACAD_REACTORS
330
47
102
}
330
47
100
AcDbProxyObject
 90
      499
 91
      503
 93
      121
310
9053130303A310000000000001650100
  0
ACAD_PROXY_OBJECT
  5
59
102
{ACAD_REACTORS
330
47
102
}
330
47
100
AcDbProxyObject
 90
      499
 91
      503
 93
      257
310
90E312F31323822203D2031272D3022000000000000200FC000000000000284000
  0
ACAD_PROXY_OBJECT
  5
5A
102
{ACAD_REACTORS
330
47
102
}
330
47
100
AcDbProxyObject
 90
      499
 91
      503
 93
      249
310
90D312F363422203D2031272D3022000000000000240FC000000000000284000
  0
ACAD_PROXY_OBJECT
  5
5B
102
{ACAD_REACTORS
330
47
102
}
330
47
100
AcDbProxyObject
 90
      499
 91
      503
 93
      249
310
90D312F333222203D2031272D3022000000000000280FC000000000000284000
  0
ACAD_PROXY_OBJECT
  5
5C
102
{ACAD_REACTORS
330
47
102
}
330
47
100
AcDbProxyObject
 90
      499
 91
      503
 93
      249
310
90D312F313622203D2031272D30220000000000002C0FC000000000000284000
  0
ACAD_PROXY_OBJECT
  5
5D
102
{ACAD_REACTORS
330
47
102
}
330
47
100
AcDbProxyObject
 90
      499
 91
      503
 93
      249
310
90D332F333222203D2031272D30220000000000002E0FC000000000000284000
  0
ACAD_PROXY_OBJECT
  5
5E
102
{ACAD_REACTORS
330
47
102
}
330
47
100
AcDbProxyObject
 90
      499
 91
      503
 93
      241
310
90C312F3822203D2031272D3022000000000000300FC000000000000284000
  0
ACAD_PROXY_OBJECT
  5
5F
102
{ACAD_REACTORS
330
47
102
}
330
47
100
AcDbProxyObject
 90
      499
 91
      503
 93
      249
310
90D332F313622203D2031272D3022000000000000320FC000000000000284000
  0
ACAD_PROXY_OBJECT
  5
60
102
{ACAD_REACTORS
330
47
102
}
330
47
100
AcDbProxyObject
 90
      499
 91
      503
 93
      241
310
90C312F3422203D2031272D3022000000000000340FC000000000000284000
  0
ACAD_PROXY_OBJECT
  5
61
102
{ACAD_REACTORS
330
47
102
}
330
47
100
AcDbProxyObject
 90
      499
 91
      503
 93
      241
310
90C332F3822203D2031272D3022000000000000360FC000000000000284000
  0
ACAD_PROXY_OBJECT
  5
62
102
{ACAD_REACTORS
330
47
102
}
330
47
100
AcDbProxyObject
 90
      499
 91
      503
 93
      241
310
90C312F3222203D2031272D3022000000000000380FC000000000000284000
  0
ACAD_PROXY_OBJECT
  5
63
102
{ACAD_REACTORS
330
47
102
}
330
47
100
AcDbProxyObject
 90
      499
 91
      503
 93
      241
310
90C332F3422203D2031272D30220000000000003A0FC000000000000284000
  0
ACAD_PROXY_OBJECT
  5
64
102
{ACAD_REACTORS
330
47
102
}
330
47
100
AcDbProxyObject
 90
      499
 91
      503
 93
      161
310
90A3122203D2031272D30224000000000000284000
  0
ACAD_PROXY_OBJECT
  5
65
102
{ACAD_REACTORS
330
47
102
}
330
47
100
AcDbProxyObject
 90
      499
 91
      503
 93
      257
310
90E312D312F3222203D2031272D30220000000000003E0FC000000000000284000
  0
ACAD_PROXY_OBJECT
  5
66
102
{ACAD_REACTORS
330
47
102
}
330
47
100
AcDbProxyObject
 90
      499
 91
      503
 93
      225
310
90A3322203D2031272D302200000000000002100000000000000284000
  0
ACAD_PROXY_OBJECT
  5
67
102
{ACAD_REACTORS
330
47
102
}
330
47
100
AcDbProxyObject
 90
      499
 91
      503
 93
      225
310
90A3622203D2031272D302200000000000006100000000000000284000
  0
ACAD_PROXY_OBJECT
  5
68
102
{ACAD_REACTORS
330
47
102
}
330
47
100
AcDbProxyObject
 90
      499
 91
      503
 93
      249
310
90D31272D3022203D2031272D30220000000000000A100000000000000284000
  0
ACAD_PROXY_OBJECT
  5
2F
102
{ACAD_REACTORS
330
2A
102
}
330
2A
100
AcDbProxyObject
 90
      499
 91
      501
 93
      436
310
42CC9915DA5C99599C985B595049028333333333333E33F0000000000000F90107901411070040501600405405064090741402480A0340
1001
ACAD
1000
AcDbSavedByObjectVersion
1070
     0
  0
ACAD_PROXY_OBJECT
  5
32
102
{ACAD_REACTORS
330
2A
102
}
330
2A
100
AcDbProxyObject
 90
      499
 91
      501
 93
      388
310
4150985CDA58D07406404333333333333E33F0000000000000F90107A41107004050150841D405064090741402480A0350
1001
ACAD
1000
AcDbSavedByObjectVersion
1070
     0
  0
ACAD_PROXY_OBJECT
  5
36
102
{ACAD_REACTORS
330
2A
102
}
330
2A
100
AcDbProxyObject
 90
      499
 91
      501
 93
      428
310
42109C9A59DA1D195B90C409028333333333333E33F0000000000000F9010790141107004050150841D405064090741402480A029950
1001
ACAD
1000
AcDbSavedByObjectVersion
1070
     0
  0
ACAD_PROXY_OBJECT
  5
3A
102
{ACAD_REACTORS
330
2A
102
}
330
2A
100
AcDbProxyObject
 90
      499
 91
      501
 93
      452
310
42D0DBDB1BDC90DA185B99D95104090240C333333333333E33F0000000000000F90108901411070040501508421405064090741402480A0350
1001
ACAD
1000
AcDbSavedByObjectVersion
1070
     0
  0
ACAD_PROXY_OBJECT
  5
34
102
{ACAD_REACTORS
330
2A
102
}
330
2A
100
AcDbProxyObject
 90
      499
 91
      501
 93
      500
310
4290DBDB98D95C1D1D585B10940D028333333333333E33F0000000000000F90107902409070040501000000000018199010841D405064090740C02480A0340
1001
ACAD
1000
AcDbSavedByObjectVersion
1070
     0
  0
ACAD_PROXY_OBJECT
  5
35
102
{ACAD_REACTORS
330
2A
102
}
330
2A
100
AcDbProxyObject
 90
      499
 91
      501
 93
      412
310
40D11A5B50B409028333333333333E33F0000000000000F9010790141107004050150841D405064090741402480A02677FFFFFD0
1001
ACAD
1000
AcDbSavedByObjectVersion
1070
     0
  0
ACAD_PROXY_OBJECT
  5
3D
102
{ACAD_REACTORS
330
2A
102
}
330
2A
100
AcDbProxyObject
 90
      499
 91
      501
 93
      452
310
43115919D950DBDB1BDC93D999916409028333333333333E33F0000000000000F9010790141107004050150841D405064090741402480A0350
1001
ACAD
1000
AcDbSavedByObjectVersion
1070
     0
  0
ACAD_PROXY_OBJECT
  5
39
102
{ACAD_REACTORS
330
2A
102
}
330
2A
100
AcDbProxyObject
 90
      499
 91
      501
 93
      444
310
42D19858D95C185D1D195C9B90F409028333333333333E33F0000000000000F9010790141107004050150841D405064090741402480A0350
1001
ACAD
1000
AcDbSavedByObjectVersion
1070
     0
  0
ACAD_PROXY_OBJECT
  5
2B
102
{ACAD_REACTORS
330
2A
102
}
330
2A
100
AcDbProxyObject
 90
      499
 91
      501
 93
      380
310
41119B185D240901404333333333333E33F0000000000000F9010740A907004050150841D405064090741402480A1B50
1001
ACAD
1000
AcDbSavedByObjectVersion
1070
     0
  0
ACAD_PROXY_OBJECT
  5
2C
102
{ACAD_REACTORS
330
2A
102
}
330
2A
100
AcDbProxyObject
 90
      499
 91
      501
 93
      468
310
43519B185D15DA5D1A115919D95CD0140901404333333333333E33F0000000000000F90107409019070040501600405405064090741402480A1B50
1001
ACAD
1000
AcDbSavedByObjectVersion
1070
     0
  0
ACAD_PROXY_OBJECT
  5
2D
102
{ACAD_REACTORS
330
2A
102
}
330
2A
100
AcDbProxyObject
 90
      499
 91
      501
 93
      404
310
41D1DBDD5C985D5910240902404333333333333E33F0000000000000F9010740A9070040501641D405064090741402480A1B50
1001
ACAD
1000
AcDbSavedByObjectVersion
1070
     0
  0
ACAD_PROXY_OBJECT
  5
2E
102
{ACAD_REACTORS
330
2A
102
}
330
2A
100
AcDbProxyObject
 90
      499
 91
      501
 93
      492
310
4411DBDD5C985D5915DA5D1A115919D95CD0340902404333333333333E33F0000000000000F90107409019070040501600405405064090741402480A1B50
1001
ACAD
1000
AcDbSavedByObjectVersion
1070
     0
  0
ACAD_PROXY_OBJECT
  5
31
102
{ACAD_REACTORS
330
2A
102
}
330
2A
100
AcDbProxyObject
 90
      499
 91
      501
 93
      476
310
41921A5919195B90640502408333333333333E33F0000000000000F901079024090700405020000000000001110200405405064090740C02480A0340
1001
ACAD
1000
AcDbSavedByObjectVersion
1070
     0
  0
ACAD_PROXY_OBJECT
  5
3B
102
{ACAD_REACTORS
330
2A
102
}
330
2A
100
AcDbProxyObject
 90
      499
 91
      501
 93
      428
310
42529A5D1D195C93D999914409028333333333333E33F0000000000000F9010790141107004050150A41D405064090741402480A0350
1001
ACAD
1000
AcDbSavedByObjectVersion
1070
     0
  0
ACAD_PROXY_OBJECT
  5
38
102
{ACAD_REACTORS
330
2A
102
}
330
2A
100
AcDbProxyObject
 90
      499
 91
      501
 93
      444
310
42D31A5B995C185D1D195C9B90E409028333333333333E33F0000000000000F9010790141107004050750841D405064090741402483A0350
1001
ACAD
1000
AcDbSavedByObjectVersion
1070
     0
  0
ACAD_PROXY_OBJECT
  5
3C
102
{ACAD_REACTORS
330
2A
102
}
330
2A
100
AcDbProxyObject
 90
      499
 91
      501
 93
      444
310
42D3DD995C9A185B99D3D999915409028333333333333E33F0000000000000F9010790141107004050150941D405064090741402480A0350
1001
ACAD
1000
AcDbSavedByObjectVersion
1070
     0
  0
ACAD_PROXY_OBJECT
  5
33
102
{ACAD_REACTORS
330
2A
102
}
330
2A
100
AcDbProxyObject
 90
      499
 91
      501
 93
      428
310
425499585B1A5CDD1A58D08409038333333333333E33F0000000000000F9010740A907004050150800405405064090740C02480A1B40
1001
ACAD
1000
AcDbSavedByObjectVersion
1070
     0
  0
ACAD_PROXY_OBJECT
  5
42
102
{ACAD_REACTORS
330
2A
102
}
330
2A
100
AcDbProxyObject
 90
      499
 91
      501
 93
      420
310
4194DA1859195911B40902404333333333333E33F0000000000000F9010740A41107004050150800405405064090840C02480A0B40
1001
ACAD
1000
AcDbSavedByObjectVersion
1070
     0
  0
ACAD_PROXY_OBJECT
  5
41
102
{ACAD_REACTORS
330
2A
102
}
330
2A
100
AcDbProxyObject
 90
      499
 91
      501
 93
      516
310
4454DA18591959081DDA5D1A08195919D95CD1A40902404333333333333E33F0000000000000F901074090142907004050250800405405064090740C02480A0B40
1001
ACAD
1000
AcDbSavedByObjectVersion
1070
     0
  0
ACAD_PROXY_OBJECT
  5
3E
102
{ACAD_REACTORS
330
2A
102
}
330
2A
100
AcDbProxyObject
 90
      499
 91
      501
 93
      532
310
4394DA1859195CC81BD98811DC985E5174090240C333333333333E33F0000000000000F901079024090741D01000000000000111010841D405064090740C02480A0340
1001
ACAD
1000
AcDbSavedByObjectVersion
1070
     0
  0
ACAD_PROXY_OBJECT
  5
3F
102
{ACAD_REACTORS
330
2A
102
}
330
2A
100
AcDbProxyObject
 90
      499
 91
      501
 93
      476
310
41D4DAD95D18DA1E51840502408333333333333E33F0000000000000F901079024090741D01000000000000111010B41D405064090741802480A0340
1001
ACAD
1000
AcDbSavedByObjectVersion
1070
     0
  0
ACAD_PROXY_OBJECT
  5
37
102
{ACAD_REACTORS
330
2A
102
}
330
2A
100
AcDbProxyObject
 90
      499
 91
      501
 93
      412
310
41D51A1A58DAD95B90D409028333333333333E33F0000000000000F9010790141107004050150C41D405064090741402480A0350
1001
ACAD
1000
AcDbSavedByObjectVersion
1070
     0
  0
ACAD_PROXY_OBJECT
  5
30
102
{ACAD_REACTORS
330
2A
102
}
330
2A
100
AcDbProxyObject
 90
      499
 91
      501
 93
      420
310
4255DA5C99599C985B595059028333333333333E33F0000000000000F90107901411070040501600405405064090740C02480A0340
1001
ACAD
1000
AcDbSavedByObjectVersion
1070
     0
  0
ACAD_PROXY_OBJECT
  5
40
102
{ACAD_REACTORS
330
2A
102
}
330
2A
100
AcDbProxyObject
 90
      499
 91
      501
 93
      404
310
41560B54985E51940902404000000000000E03F0000000000000F9010740501907004050150841D405064090740C02480A1B40
1001
ACAD
1000
AcDbSavedByObjectVersion
1070
     0
  0
XRECORD
  5
125
102
{ACAD_REACTORS
330
11C
102
}
330
11C
100
AcDbXrecord
 90
        0
  0
XRECORD
  5
13B
102
{ACAD_REACTORS
330
11C
102
}
330
11C
100
AcDbXrecord
1000
DSTYLE
1002
{
1070
   179
 70
     1
1070
   143
 40
0.03937
1070
   285
 70
     8
1070
   176
 70
     7
1070
   177
 70
     7
1070
   178
 70
     7
1070
   278
 70
    46
1070
   371
 70
    13
1070
   372
 70
    13
1070
   340
340
70
1070
   140
 40
3.5
1070
   288
 70
     1
1002
}
  0
XRECORD
  5
126
102
{ACAD_REACTORS
330
11C
102
}
330
11C
100
AcDbXrecord
  1
{3176F002-C3D1-96D3-3D09-C374D633C292}
  0
XRECORD
  5
11F
102
{ACAD_REACTORS
330
11C
102
}
330
11C
100
AcDbXrecord
  1

  0
XRECORD
  5
124
102
{ACAD_REACTORS
330
11C
102
}
330
11C
100
AcDbXrecord
 90
        4
  0
XRECORD
  5
121
102
{ACAD_REACTORS
330
11C
102
}
330
11C
100
AcDbXrecord
340
1A
  0
XRECORD
  5
123
102
{ACAD_REACTORS
330
11C
102
}
330
11C
100
AcDbXrecord
 90
    10269
  0
XRECORD
  5
122
102
{ACAD_REACTORS
330
11C
102
}
330
11C
100
AcDbXrecord
340
19
  0
XRECORD
  5
128
102
{ACAD_REACTORS
330
11C
102
}
330
11C
100
AcDbXrecord
 40
0.0
  0
XRECORD
  5
12B
102
{ACAD_REACTORS
330
11C
102
}
330
11C
100
AcDbXrecord
340
0
  0
XRECORD
  5
131
102
{ACAD_REACTORS
330
11C
102
}
330
11C
100
AcDbXrecord
 10
0.0
 20
0.0
 30
0.0
  0
XRECORD
  5
12D
102
{ACAD_REACTORS
330
11C
102
}
330
11C
100
AcDbXrecord
 10
0.0
 20
0.0
 30
0.0
  0
XRECORD
  5
130
102
{ACAD_REACTORS
330
11C
102
}
330
11C
100
AcDbXrecord
 10
0.0
 20
0.0
 30
0.0
  0
XRECORD
  5
12E
102
{ACAD_REACTORS
330
11C
102
}
330
11C
100
AcDbXrecord
 10
0.0
 20
0.0
 30
0.0
  0
XRECORD
  5
12F
102
{ACAD_REACTORS
330
11C
102
}
330
11C
100
AcDbXrecord
 10
0.0
 20
0.0
 30
0.0
  0
XRECORD
  5
12C
102
{ACAD_REACTORS
330
11C
102
}
330
11C
100
AcDbXrecord
 10
0.0
 20
0.0
 30
0.0
  0
XRECORD
  5
129
102
{ACAD_REACTORS
330
11C
102
}
330
11C
100
AcDbXrecord
340
0
  0
XRECORD
  5
12A
102
{ACAD_REACTORS
330
11C
102
}
330
11C
100
AcDbXrecord
 70
     0
  0
XRECORD
  5
120
102
{ACAD_REACTORS
330
11C
102
}
330
11C
100
AcDbXrecord
  1

  0
XRECORD
  5
11D
102
{ACAD_REACTORS
330
11C
102
}
330
11C
100
AcDbXrecord
 90
        1
  0
XRECORD
  5
11E
102
{ACAD_REACTORS
330
11C
102
}
330
11C
100
AcDbXrecord
 90
       70
  0
XRECORD
  5
134
102
{ACAD_REACTORS
330
11C
102
}
330
11C
100
AcDbXrecord
340
0
  0
XRECORD
  5
13A
102
{ACAD_REACTORS
330
11C
102
}
330
11C
100
AcDbXrecord
 10
0.0
 20
0.0
 30
0.0
  0
XRECORD
  5
136
102
{ACAD_REACTORS
330
11C
102
}
330
11C
100
AcDbXrecord
 10
0.0
 20
0.0
 30
0.0
  0
XRECORD
  5
139
102
{ACAD_REACTORS
330
11C
102
}
330
11C
100
AcDbXrecord
 10
0.0
 20
0.0
 30
0.0
  0
XRECORD
  5
137
102
{ACAD_REACTORS
330
11C
102
}
330
11C
100
AcDbXrecord
 10
0.0
 20
0.0
 30
0.0
  0
XRECORD
  5
138
102
{ACAD_REACTORS
330
11C
102
}
330
11C
100
AcDbXrecord
 10
0.0
 20
0.0
 30
0.0
  0
XRECORD
  5
135
102
{ACAD_REACTORS
330
11C
102
}
330
11C
100
AcDbXrecord
 10
0.0
 20
0.0
 30
0.0
  0
XRECORD
  5
132
102
{ACAD_REACTORS
330
11C
102
}
330
11C
100
AcDbXrecord
340
0
  0
XRECORD
  5
133
102
{ACAD_REACTORS
330
11C
102
}
330
11C
100
AcDbXrecord
 70
     0
  0
XRECORD
  5
127
102
{ACAD_REACTORS
330
11C
102
}
330
11C
100
AcDbXrecord
  1
{FAEB1C32-E019-11D5-929B-00C0DF256EC4}
  0
DICTIONARYVAR
  5
144
102
{ACAD_REACTORS
330
6C
102
}
330
6C
100
DictionaryVariables
280
     0
  1
1:1
  0
DICTIONARYVAR
  5
13C
102
{ACAD_REACTORS
330
6C
102
}
330
6C
100
DictionaryVariables
280
     0
  1
Onshape-Standard
  0
DICTIONARYVAR
  5
142
102
{ACAD_REACTORS
330
6C
102
}
330
6C
100
DictionaryVariables
280
     0
  1
2
  0
DICTIONARYVAR
  5
143
102
{ACAD_REACTORS
330
6C
102
}
330
6C
100
DictionaryVariables
280
     0
  1
1
  0
DICTIONARYVAR
  5
145
102
{ACAD_REACTORS
330
6C
102
}
330
6C
100
DictionaryVariables
280
     0
  1
1
  0
DICTIONARYVAR
  5
6D
102
{ACAD_REACTORS
330
6C
102
}
330
6C
100
DictionaryVariables
280
     0
  1
0
  0
DICTIONARYVAR
  5
13F
102
{ACAD_REACTORS
330
6C
102
}
330
6C
100
DictionaryVariables
280
     0
  1
80.000000
  0
DICTIONARYVAR
  5
13E
102
{ACAD_REACTORS
330
6C
102
}
330
6C
100
DictionaryVariables
280
     0
  1
5.000000
  0
XRECORD
  5
D6
102
{ACAD_REACTORS
330
D5
102
}
330
D5
100
AcDbXrecord
 70
     4
  0
XRECORD
  5
D9
102
{ACAD_REACTORS
330
D5
102
}
330
D5
100
AcDbXrecord
 90
        0
  0
XRECORD
  5
D8
102
{ACAD_REACTORS
330
D5
102
}
330
D5
100
AcDbXrecord
 90
        0
  0
XRECORD
  5
D7
102
{ACAD_REACTORS
330
D5
102
}
330
D5
100
AcDbXrecord
 90
        1
  0
DICTIONARY
  5
148
330
45
100
AcDbDictionary
280
     1
  3
ACAD_XREC_ROUNDTRIP
360
149
  0
DICTIONARY
  5
146
330
44
100
AcDbDictionary
280
     1
  3
ACAD_XREC_ROUNDTRIP
360
147
  0
DICTIONARY
  5
14A
330
46
100
AcDbDictionary
280
     1
  3
ACAD_XREC_ROUNDTRIP
360
14B
  0
XRECORD
  5
149
102
{ACAD_REACTORS
330
148
102
}
330
148
100
AcDbXrecord
102
MATERIAL
148
0.0
149
0.0
149
0.0
 93
        0
 94
      127
282
     0
 72
     1
 77
     1
171
     1
175
     1
179
     1
273
     0
  0
XRECORD
  5
147
102
{ACAD_REACTORS
330
146
102
}
330
146
100
AcDbXrecord
102
MATERIAL
148
0.0
149
0.0
149
0.0
 93
        0
 94
      127
282
     0
 72
     1
 77
     1
171
     1
175
     1
179
     1
273
     0
  0
XRECORD
  5
14B
102
{ACAD_REACTORS
330
14A
102
}
330
14A
100
AcDbXrecord
102
MATERIAL
148
0.0
149
0.0
149
0.0
 93
        0
 94
      127
282
     0
 72
     1
 77
     1
171
     1
175
     1
179
     1
273
     0
  0
ENDSEC
  0
EOF
