  0
SECTION
  2
HEADER
  9
$ACADVER
  1
AC1014
  9
$ACADMAINTVER
 70
     9
  9
$DWGCODEPAGE
  3
ANSI_1252
  9
$INSBASE
 10
0.0
 20
0.0
 30
0.0
  9
$EXTMIN
 10
1.000000000000000E+20
 20
1.000000000000000E+20
 30
1.000000000000000E+20
  9
$EXTMAX
 10
-1.000000000000000E+20
 20
-1.000000000000000E+20
 30
-1.000000000000000E+20
  9
$LIMMIN
 10
0.0
 20
0.0
  9
$LIMMAX
 10
420.0
 20
297.0
  9
$ORTHOMODE
 70
     0
  9
$REGENMODE
 70
     1
  9
$FILLMODE
 70
     1
  9
$QTEXTMODE
 70
     0
  9
$MIRRTEXT
 70
     1
  9
$DRAGMODE
 70
     2
  9
$LTSCALE
 40
12.7
  9
$OSMODE
 70
    23
  9
$ATTMODE
 70
     1
  9
$TEXTSIZE
 40
3.5
  9
$TRACEWID
 40
1.0
  9
$TEXTSTYLE
  7
ONSHAPE-STANDARD
  9
$CLAYER
  8
0
  9
$CELTYPE
  6
BYLAYER
  9
$CECOLOR
 62
   256
  9
$CELTSCALE
 40
1.0
  9
$DELOBJ
 70
     1
  9
$DISPSILH
 70
     0
  9
$DIMSCALE
 40
1.0
  9
$DIMASZ
 40
2.5
  9
$DIMEXO
 40
0.625
  9
$DIMDLI
 40
3.75
  9
$DIMRND
 40
0.0
  9
$DIMDLE
 40
0.0
  9
$DIMEXE
 40
1.25
  9
$DIMTP
 40
0.0
  9
$DIMTM
 40
0.0
  9
$DIMTXT
 40
2.5
  9
$DIMCEN
 40
2.5
  9
$DIMTSZ
 40
0.0
  9
$DIMTOL
 70
     0
  9
$DIMLIM
 70
     0
  9
$DIMTIH
 70
     0
  9
$DIMTOH
 70
     0
  9
$DIMSE1
 70
     0
  9
$DIMSE2
 70
     0
  9
$DIMTAD
 70
     1
  9
$DIMZIN
 70
     8
  9
$DIMBLK
  1

  9
$DIMASO
 70
     1
  9
$DIMSHO
 70
     1
  9
$DIMPOST
  1

  9
$DIMAPOST
  1

  9
$DIMALT
 70
     0
  9
$DIMALTD
 70
     3
  9
$DIMALTF
 40
0.03937
  9
$DIMLFAC
 40
1.0
  9
$DIMTOFL
 70
     1
  9
$DIMTVP
 40
0.0
  9
$DIMTIX
 70
     0
  9
$DIMSOXD
 70
     0
  9
$DIMSAH
 70
     0
  9
$DIMBLK1
  1

  9
$DIMBLK2
  1

  9
$DIMSTYLE
  2
ONSHAPE-ISO-25
  9
$DIMCLRD
 70
     7
  9
$DIMCLRE
 70
     7
  9
$DIMCLRT
 70
     7
  9
$DIMTFAC
 40
1.0
  9
$DIMGAP
 40
0.625
  9
$DIMJUST
 70
     0
  9
$DIMSD1
 70
     0
  9
$DIMSD2
 70
     0
  9
$DIMTOLJ
 70
     0
  9
$DIMTZIN
 70
     8
  9
$DIMALTZ
 70
     8
  9
$DIMALTTZ
 70
     0
  9
$DIMFIT
 70
     3
  9
$DIMUPT
 70
     1
  9
$DIMUNIT
 70
     2
  9
$DIMDEC
 70
     2
  9
$DIMTDEC
 70
     3
  9
$DIMALTU
 70
     2
  9
$DIMALTTD
 70
     3
  9
$DIMTXSTY
  7
ONSHAPE-STANDARD-DIMENSION
  9
$DIMAUNIT
 70
     0
  9
$LUNITS
 70
     2
  9
$LUPREC
 70
     4
  9
$SKETCHINC
 40
1.0
  9
$FILLETRAD
 40
10.0
  9
$AUNITS
 70
     0
  9
$AUPREC
 70
     0
  9
$MENU
  1
.
  9
$ELEVATION
 40
0.0
  9
$PELEVATION
 40
0.0
  9
$THICKNESS
 40
0.0
  9
$LIMCHECK
 70
     0
  9
$CHAMFERA
 40
0.0
  9
$CHAMFERB
 40
0.0
  9
$CHAMFERC
 40
0.0
  9
$CHAMFERD
 40
0.0
  9
$SKPOLY
 70
     0
  9
$TDCREATE
 40
2458999.760185185
  9
$TDUPDATE
 40
2458999.760185185
  9
$TDINDWG
 40
0.0
  9
$TDUSRTIMER
 40
0.0
  9
$USRTIMER
 70
     1
  9
$ANGBASE
 50
0.0
  9
$ANGDIR
 70
     0
  9
$PDMODE
 70
     0
  9
$PDSIZE
 40
0.0
  9
$PLINEWID
 40
0.0
  9
$COORDS
 70
     1
  9
$SPLFRAME
 70
     0
  9
$SPLINETYPE
 70
     6
  9
$SPLINESEGS
 70
     8
  9
$ATTDIA
 70
     0
  9
$ATTREQ
 70
     1
  9
$HANDLING
 70
     1
  9
$HANDSEED
  5
130
  9
$SURFTAB1
 70
     6
  9
$SURFTAB2
 70
     6
  9
$SURFTYPE
 70
     6
  9
$SURFU
 70
     6
  9
$SURFV
 70
     6
  9
$UCSNAME
  2

  9
$UCSORG
 10
0.0
 20
0.0
 30
0.0
  9
$UCSXDIR
 10
1.0
 20
0.0
 30
0.0
  9
$UCSYDIR
 10
0.0
 20
1.0
 30
0.0
  9
$PUCSNAME
  2

  9
$PUCSORG
 10
0.0
 20
0.0
 30
0.0
  9
$PUCSXDIR
 10
1.0
 20
0.0
 30
0.0
  9
$PUCSYDIR
 10
0.0
 20
1.0
 30
0.0
  9
$USERI1
 70
     0
  9
$USERI2
 70
     0
  9
$USERI3
 70
     0
  9
$USERI4
 70
     0
  9
$USERI5
 70
     0
  9
$USERR1
 40
0.0
  9
$USERR2
 40
0.0
  9
$USERR3
 40
0.0
  9
$USERR4
 40
0.0
  9
$USERR5
 40
0.0
  9
$WORLDVIEW
 70
     1
  9
$SHADEDGE
 70
     3
  9
$SHADEDIF
 70
    70
  9
$TILEMODE
 70
     1
  9
$MAXACTVP
 70
    64
  9
$PINSBASE
 10
0.0
 20
0.0
 30
0.0
  9
$PLIMCHECK
 70
     0
  9
$PEXTMIN
 10
1.000000000000000E+20
 20
1.000000000000000E+20
 30
1.000000000000000E+20
  9
$PEXTMAX
 10
-1.000000000000000E+20
 20
-1.000000000000000E+20
 30
-1.000000000000000E+20
  9
$PLIMMIN
 10
0.0
 20
0.0
  9
$PLIMMAX
 10
420.0
 20
297.0
  9
$UNITMODE
 70
     0
  9
$VISRETAIN
 70
     1
  9
$PLINEGEN
 70
     0
  9
$PSLTSCALE
 70
     1
  9
$TREEDEPTH
 70
  3020
  9
$PICKSTYLE
 70
     1
  9
$CMLSTYLE
  2
STANDARD
  9
$CMLJUST
 70
     0
  9
$CMLSCALE
 40
20.0
  9
$PROXYGRAPHICS
 70
     1
  9
$MEASUREMENT
 70
     1
  0
ENDSEC
  0
SECTION
  2
CLASSES
  0
CLASS
  1
ACDBDICTIONARYWDFLT
  2
AcDbDictionaryWithDefault
  3
ObjectDBX Classes
 90
        0
280
     0
281
     0
  0
CLASS
  1
VISUALSTYLE
  2
AcDbVisualStyle
  3
ObjectDBX Classes
 90
     4095
280
     0
281
     0
  0
CLASS
  1
MATERIAL
  2
AcDbMaterial
  3
ObjectDBX Classes
 90
     1153
280
     0
281
     0
  0
CLASS
  1
SCALE
  2
AcDbScale
  3
ObjectDBX Classes
 90
     1153
280
     0
281
     0
  0
CLASS
  1
SUN
  2
AcDbSun
  3
SCENEOE
 90
     1153
280
     0
281
     0
  0
CLASS
  1
TABLESTYLE
  2
AcDbTableStyle
  3
ObjectDBX Classes
 90
     4095
280
     0
281
     0
  0
CLASS
  1
DICTIONARYVAR
  2
AcDbDictionaryVar
  3
ObjectDBX Classes
 90
        0
280
     0
281
     0
  0
CLASS
  1
XRECORD
  2
AcDbXrecord
  3
ObjectDBX Classes
 90
        0
280
     0
281
     0
  0
CLASS
  1
LWPOLYLINE
  2
AcDbPolyline
  3
ObjectDBX Classes
 90
        0
280
     0
281
     1
  0
CLASS
  1
HATCH
  2
AcDbHatch
  3
ObjectDBX Classes
 90
        0
280
     0
281
     1
  0
CLASS
  1
ACDBPLACEHOLDER
  2
AcDbPlaceHolder
  3
ObjectDBX Classes
 90
        0
280
     0
281
     0
  0
CLASS
  1
LAYOUT
  2
AcDbLayout
  3
ObjectDBX Classes
 90
        0
280
     0
281
     0
  0
ENDSEC
  0
SECTION
  2
TABLES
  0
TABLE
  2
VPORT
  5
8
330
0
100
AcDbSymbolTable
 70
     1
  0
VPORT
  5
29
330
8
100
AcDbSymbolTableRecord
100
AcDbViewportTableRecord
  2
*ACTIVE
 70
     0
 10
0.0
 20
0.0
 11
1.0
 21
1.0
 12
472.5796579352715
 22
212.8680189486661
 13
0.0
 23
0.0
 14
10.0
 24
10.0
 15
10.0
 25
10.0
 16
0.0
 26
0.0
 36
1.0
 17
0.0
 27
0.0
 37
0.0
 40
240.1506555301797
 41
1.033459938120027
 42
50.0
 43
0.0
 44
0.0
 50
0.0
 51
0.0
 71
     0
 72
   100
 73
     1
 74
     3
 75
     0
 76
     0
 77
     0
 78
     0
  0
ENDTAB
  0
TABLE
  2
LTYPE
  5
5
330
0
100
AcDbSymbolTable
 70
     1
  0
LTYPE
  5
14
330
5
100
AcDbSymbolTableRecord
100
AcDbLinetypeTableRecord
  2
BYBLOCK
 70
     0
  3

 72
    65
 73
     0
 40
0.0
  0
LTYPE
  5
15
330
5
100
AcDbSymbolTableRecord
100
AcDbLinetypeTableRecord
  2
BYLAYER
 70
     0
  3

 72
    65
 73
     0
 40
0.0
  0
LTYPE
  5
16
330
5
100
AcDbSymbolTableRecord
100
AcDbLinetypeTableRecord
  2
CONTINUOUS
 70
     0
  3
Solid line
 72
    65
 73
     0
 40
0.0
  0
ENDTAB
  0
TABLE
  2
LAYER
  5
2
330
0
100
AcDbSymbolTable
 70
     4
  0
LAYER
  5
10
330
2
100
AcDbSymbolTableRecord
100
AcDbLayerTableRecord
  2
0
 70
     0
 62
     7
  6
CONTINUOUS
  0
LAYER
  5
6E
330
2
100
AcDbSymbolTableRecord
100
AcDbLayerTableRecord
  2
DEFPOINTS
 70
     0
 62
     7
  6
CONTINUOUS
  0
LAYER
  5
75
330
2
100
AcDbSymbolTableRecord
100
AcDbLayerTableRecord
  2
ANNOTATION_TEXT
 70
     0
 62
     7
  6
CONTINUOUS
  0
LAYER
  5
78
330
2
100
AcDbSymbolTableRecord
100
AcDbLayerTableRecord
  2
VISIBLE
 70
     0
 62
     7
  6
CONTINUOUS
  0
ENDTAB
  0
TABLE
  2
STYLE
  5
3
330
0
100
AcDbSymbolTable
 70
    27
  0
STYLE
  5
11
330
3
100
AcDbSymbolTableRecord
100
AcDbTextStyleTableRecord
  2
STANDARD
 70
     0
 40
0.0
 41
1.0
 50
0.0
 71
     0
 42
3.5
  3
txt
  4

  0
STYLE
  5
6F
330
3
100
AcDbSymbolTableRecord
100
AcDbTextStyleTableRecord
  2
ONSHAPE-STANDARD
 70
     0
 40
0.0
 41
1.0
 50
0.0
 71
     0
 42
3.5
  3
NotoSans-Regular.ttf
  4

1001
ACAD
1000
Noto Sans
1071
        0
  0
STYLE
  5
71
330
3
100
AcDbSymbolTableRecord
100
AcDbTextStyleTableRecord
  2
ONSHAPE-STANDARD-DIMENSION
 70
     0
 40
0.0
 41
1.0
 50
0.0
 71
     0
 42
3.5
  3

  4

1001
ACAD
1000
Noto Sans
1071
        0
  0
STYLE
  5
77
330
3
100
AcDbSymbolTableRecord
100
AcDbTextStyleTableRecord
  2
ONSHAPE-STANDARD-VIEW-LABE
 70
     0
 40
2.5
 41
1.0
 50
0.0
 71
     0
 42
3.5
  3
Noto Sans
  4

1001
ACAD
1000
Noto Sans
1071
        0
  0
STYLE
  5
C0
330
3
100
AcDbSymbolTableRecord
100
AcDbTextStyleTableRecord
  2
ONSHAPE-STANDARD-BOLD
 70
     0
 40
0.0
 41
1.0
 50
0.0
 71
     0
 42
3.5
  3
NotoSans-Bold.ttf
  4

1001
ACAD
1000
Noto Sans
1071
 33554432
  0
STYLE
  5
C1
330
3
100
AcDbSymbolTableRecord
100
AcDbTextStyleTableRecord
  2
ONSHAPE-STANDARD-FIELDS
 70
     0
 40
0.0
 41
1.0
 50
0.0
 71
     0
 42
3.5
  3

  4

1001
ACAD
1000
Noto Sans
1071
        0
  0
STYLE
  5
C2
330
3
100
AcDbSymbolTableRecord
100
AcDbTextStyleTableRecord
  2
ONSHAPE-STANDARD-TCFIELDS
 70
     0
 40
0.0
 41
1.0
 50
0.0
 71
     0
 42
3.5
  3
NotoSansTC-Regular.otf
  4

1001
ACAD
1000
Noto Sans TC
1071
        0
  0
STYLE
  5
C3
330
3
100
AcDbSymbolTableRecord
100
AcDbTextStyleTableRecord
  2
ONSHAPE-STANDARD-SCFIELDS
 70
     0
 40
0.0
 41
1.0
 50
0.0
 71
     0
 42
3.5
  3
NotoSansSC-Regular.otf
  4

1001
ACAD
1000
Noto Sans SC
1071
        0
  0
STYLE
  5
C4
330
3
100
AcDbSymbolTableRecord
100
AcDbTextStyleTableRecord
  2
ONSHAPE-STANDARD-KOREANFIE
 70
     0
 40
0.0
 41
1.0
 50
0.0
 71
     0
 42
3.5
  3
NotoSansKR-Regular.otf
  4

1001
ACAD
1000
Noto Sans KR
1071
        0
  0
STYLE
  5
C6
330
3
100
AcDbSymbolTableRecord
100
AcDbTextStyleTableRecord
  2
TTFSTYLE
 70
     0
 40
0.0
 41
1.0
 50
0.0
 71
     0
 42
3.5
  3
Verdana.ttf
  4

1001
ACAD
1000
Verdana
1071
       34
  0
STYLE
  5
C7
330
3
100
AcDbSymbolTableRecord
100
AcDbTextStyleTableRecord
  2
ONSHAPE-STANDARD-GTOLERANC
 70
     0
 40
2.5
 41
1.0
 50
0.0
 71
     0
 42
3.5
  3

  4

1001
ACAD
1000
Noto Sans
1071
        0
  0
STYLE
  5
C8
330
3
100
AcDbSymbolTableRecord
100
AcDbTextStyleTableRecord
  2
ONSHAPE-STANDARD-TABLE-DAT
 70
     0
 40
0.0
 41
1.0
 50
0.0
 71
     0
 42
3.5
  3
Noto Sans
  4

1001
ACAD
1000
Noto Sans
1071
        0
  0
STYLE
  5
C9
330
3
100
AcDbSymbolTableRecord
100
AcDbTextStyleTableRecord
  2
ONSHAPE-STANDARD-TABLE-TIT
 70
     0
 40
0.0
 41
1.0
 50
0.0
 71
     0
 42
3.5
  3
Noto Sans
  4

1001
ACAD
1000
Noto Sans
1071
 33554432
  0
STYLE
  5
CA
330
3
100
AcDbSymbolTableRecord
100
AcDbTextStyleTableRecord
  2
ONSHAPE-STANDARD-TABLE-HEA
 70
     0
 40
0.0
 41
1.0
 50
0.0
 71
     0
 42
3.5
  3
Noto Sans
  4

1001
ACAD
1000
Noto Sans
1071
 33554432
  0
STYLE
  5
CB
330
3
100
AcDbSymbolTableRecord
100
AcDbTextStyleTableRecord
  2
ONSHAPE-STANDARD-BOMTABLE-
 70
     0
 40
0.0
 41
1.0
 50
0.0
 71
     0
 42
3.5
  3
Noto Sans
  4

1001
ACAD
1000
Noto Sans
1071
        0
  0
STYLE
  5
CC
330
3
100
AcDbSymbolTableRecord
100
AcDbTextStyleTableRecord
  2
ONSHAPE-STANDARD-BOMTABLE0
 70
     0
 40
0.0
 41
1.0
 50
0.0
 71
     0
 42
3.5
  3
Noto Sans
  4

1001
ACAD
1000
Noto Sans
1071
 33554432
  0
STYLE
  5
CD
330
3
100
AcDbSymbolTableRecord
100
AcDbTextStyleTableRecord
  2
ONSHAPE-STANDARD-BOMTABLE1
 70
     0
 40
0.0
 41
1.0
 50
0.0
 71
     0
 42
3.5
  3
Noto Sans
  4

1001
ACAD
1000
Noto Sans
1071
 33554432
  0
STYLE
  5
CE
330
3
100
AcDbSymbolTableRecord
100
AcDbTextStyleTableRecord
  2
ONSHAPE-STANDARD-NOTESTYLE
 70
     0
 40
2.5
 41
1.0
 50
0.0
 71
     0
 42
3.5
  3
Noto Sans
  4

1001
ACAD
1000
Noto Sans
1071
        0
  0
STYLE
  5
D0
330
3
100
AcDbSymbolTableRecord
100
AcDbTextStyleTableRecord
  2
ONSHAPE-STANDARD-HOLE-CALL
 70
     0
 40
2.5
 41
1.0
 50
0.0
 71
     0
 42
3.5
  3
Noto Sans
  4

1001
ACAD
1000
Noto Sans
1071
        0
  0
STYLE
  5
D1
330
3
100
AcDbSymbolTableRecord
100
AcDbTextStyleTableRecord
  2
ONSHAPE-STANDARD-HOLETABLE
 70
     0
 40
0.0
 41
1.0
 50
0.0
 71
     0
 42
3.5
  3
Noto Sans
  4

1001
ACAD
1000
Noto Sans
1071
        0
  0
STYLE
  5
D2
330
3
100
AcDbSymbolTableRecord
100
AcDbTextStyleTableRecord
  2
ONSHAPE-STANDARD-HOLETABL0
 70
     0
 40
0.0
 41
1.0
 50
0.0
 71
     0
 42
3.5
  3
Noto Sans
  4

1001
ACAD
1000
Noto Sans
1071
 33554432
  0
STYLE
  5
D3
330
3
100
AcDbSymbolTableRecord
100
AcDbTextStyleTableRecord
  2
ONSHAPE-STANDARD-HOLETABL1
 70
     0
 40
0.0
 41
1.0
 50
0.0
 71
     0
 42
3.5
  3
Noto Sans
  4

1001
ACAD
1000
Noto Sans
1071
 33554432
  0
STYLE
  5
D4
330
3
100
AcDbSymbolTableRecord
100
AcDbTextStyleTableRecord
  2
ONSHAPE-STANDARD-HOLE-TAG
 70
     0
 40
2.0
 41
1.0
 50
0.0
 71
     0
 42
3.5
  3
Noto Sans
  4

1001
ACAD
1000
Noto Sans
1071
        0
  0
STYLE
  5
D5
330
3
100
AcDbSymbolTableRecord
100
AcDbTextStyleTableRecord
  2
ONSHAPE-STANDARD-REVISIONT
 70
     0
 40
0.0
 41
1.0
 50
0.0
 71
     0
 42
3.5
  3
Noto Sans
  4

1001
ACAD
1000
Noto Sans
1071
        0
  0
STYLE
  5
D6
330
3
100
AcDbSymbolTableRecord
100
AcDbTextStyleTableRecord
  2
ONSHAPE-STANDARD-REVISION0
 70
     0
 40
0.0
 41
1.0
 50
0.0
 71
     0
 42
3.5
  3
Noto Sans
  4

1001
ACAD
1000
Noto Sans
1071
 33554432
  0
STYLE
  5
D7
330
3
100
AcDbSymbolTableRecord
100
AcDbTextStyleTableRecord
  2
ONSHAPE-STANDARD-REVISION1
 70
     0
 40
0.0
 41
1.0
 50
0.0
 71
     0
 42
3.5
  3
Noto Sans
  4

1001
ACAD
1000
Noto Sans
1071
 33554432
  0
STYLE
  5
D8
330
3
100
AcDbSymbolTableRecord
100
AcDbTextStyleTableRecord
  2
ONSHAPE-STANDARD-REVISION-
 70
     0
 40
2.0
 41
1.0
 50
0.0
 71
     0
 42
3.5
  3
Noto Sans
  4

1001
ACAD
1000
Noto Sans
1071
        0
  0
ENDTAB
  0
TABLE
  2
VIEW
  5
6
330
0
100
AcDbSymbolTable
 70
     0
  0
ENDTAB
  0
TABLE
  2
UCS
  5
7
330
0
100
AcDbSymbolTable
 70
     0
  0
ENDTAB
  0
TABLE
  2
APPID
  5
9
330
0
100
AcDbSymbolTable
 70
     1
  0
APPID
  5
12
330
9
100
AcDbSymbolTableRecord
100
AcDbRegAppTableRecord
  2
ACAD
 70
     0
  0
ENDTAB
  0
TABLE
  2
DIMSTYLE
  5
A
330
0
100
AcDbSymbolTable
 70
    18
  0
DIMSTYLE
105
27
330
A
100
AcDbSymbolTableRecord
100
AcDbDimStyleTableRecord
  2
ISO-25
 70
     0
  3

  4

  5

  6

  7

 40
1.0
 41
2.5
 42
0.625
 43
3.75
 44
1.25
 45
0.0
 46
0.0
 47
0.0
 48
0.0
140
2.5
141
2.5
142
0.0
143
0.03937007874016
144
1.0
145
0.0
146
1.0
147
0.625
 71
     0
 72
     0
 73
     0
 74
     0
 75
     0
 76
     0
 77
     1
 78
     8
170
     0
171
     3
172
     1
173
     0
174
     0
175
     0
176
     0
177
     0
178
     0
270
     2
271
     2
272
     2
273
     2
274
     3
340
11
275
     0
280
     0
281
     0
282
     0
283
     0
284
     8
285
     0
286
     0
287
     3
288
     0
  0
DIMSTYLE
105
70
330
A
100
AcDbSymbolTableRecord
100
AcDbDimStyleTableRecord
  2
ONSHAPE-ISO-25
 70
     0
  3

  4

  5

  6

  7

 40
1.0
 41
2.5
 42
0.625
 43
3.75
 44
1.25
 45
0.0
 46
0.0
 47
0.0
 48
0.0
140
2.5
141
2.5
142
0.0
143
0.03937
144
1.0
145
0.0
146
1.0
147
0.625
 71
     0
 72
     0
 73
     0
 74
     0
 75
     0
 76
     0
 77
     1
 78
     8
170
     0
171
     3
172
     1
173
     0
174
     0
175
     0
176
     7
177
     7
178
     7
179
     1
270
     2
271
     2
272
     3
273
     2
274
     3
340
71
275
     0
280
     0
281
     0
282
     0
283
     0
284
     8
285
     8
286
     0
287
     3
288
     1
  0
DIMSTYLE
105
DB
330
A
100
AcDbSymbolTableRecord
100
AcDbDimStyleTableRecord
  2
ISO
 70
     0
  3

  4
"
  5

  6

  7

 40
1.0
 41
3.5
 42
1.0
 43
10.0
 44
1.0
 45
0.0
 46
0.0
 47
0.1
 48
0.1
140
2.5
141
0.0
142
0.0
143
0.03937
144
1.0
145
0.0
146
0.71
147
1.5
 71
     0
 72
     0
 73
     0
 74
     0
 75
     0
 76
     0
 77
     1
 78
     8
170
     0
171
     3
172
     1
173
     0
174
     0
175
     0
176
     7
177
     7
178
     7
270
     2
271
     2
272
     3
273
     2
274
     3
340
11
275
     0
280
     0
281
     0
282
     0
283
     0
284
     8
285
     8
286
     0
287
     3
288
     1
  0
DIMSTYLE
105
DC
330
A
100
AcDbSymbolTableRecord
100
AcDbDimStyleTableRecord
  2
ISO$3
 70
     0
  3

  4
"
  5

  6

  7

 40
1.0
 41
3.5
 42
1.0
 43
10.0
 44
1.0
 45
0.0
 46
0.0
 47
0.1
 48
0.1
140
2.5
141
0.0
142
0.0
143
0.03937
144
1.0
145
0.0
146
0.71
147
1.5
 71
     0
 72
     0
 73
     0
 74
     0
 75
     0
 76
     0
 77
     1
 78
     8
170
     0
171
     3
172
     0
173
     0
174
     0
175
     0
176
     7
177
     7
178
     7
270
     2
271
     2
272
     3
273
     2
274
     3
340
11
275
     0
280
     0
281
     0
282
     0
283
     0
284
     8
285
     8
286
     0
288
     1
  0
DIMSTYLE
105
DD
330
A
100
AcDbSymbolTableRecord
100
AcDbDimStyleTableRecord
  2
ISO$4
 70
     0
  3

  4
"
  5

  6

  7

 40
1.0
 41
3.5
 42
1.0
 43
10.0
 44
1.0
 45
0.0
 46
0.0
 47
0.1
 48
0.1
140
2.5
141
0.0
142
0.0
143
0.03937
144
1.0
145
0.0
146
0.71
147
1.5
 71
     0
 72
     0
 73
     0
 74
     0
 75
     0
 76
     0
 77
     1
 78
     8
170
     0
171
     3
172
     1
173
     0
174
     0
175
     0
176
     7
177
     7
178
     7
270
     2
271
     2
272
     3
273
     2
274
     3
340
11
275
     0
280
     0
281
     0
282
     0
283
     0
284
     8
285
     8
286
     0
287
     3
288
     1
  0
DIMSTYLE
105
DE
330
A
100
AcDbSymbolTableRecord
100
AcDbDimStyleTableRecord
  2
ISO$6
 70
     0
  3

  4
"
  5

  6

  7

 40
1.0
 41
0.5
 42
1.0
 43
10.0
 44
1.0
 45
0.0
 46
0.0
 47
0.1
 48
0.1
140
2.5
141
0.0
142
0.0
143
0.03937
144
1.0
145
0.0
146
0.71
147
1.5
 71
     0
 72
     0
 73
     0
 74
     0
 75
     0
 76
     0
 77
     0
 78
     8
170
     0
171
     3
172
     1
173
     0
174
     0
175
     0
176
     7
177
     7
178
     7
270
     2
271
     2
272
     3
273
     2
274
     3
340
11
275
     0
280
     0
281
     0
282
     0
283
     0
284
     8
285
     8
286
     0
287
     3
288
     1
  0
DIMSTYLE
105
DF
330
A
100
AcDbSymbolTableRecord
100
AcDbDimStyleTableRecord
  2
ISO$7
 70
     0
  3

  4
"
  5

  6

  7

 40
1.0
 41
3.5
 42
1.0
 43
10.0
 44
1.0
 45
0.0
 46
0.0
 47
0.1
 48
0.1
140
2.5
141
0.0
142
0.0
143
0.03937
144
1.0
145
0.0
146
0.71
147
1.5
 71
     0
 72
     0
 73
     0
 74
     0
 75
     0
 76
     0
 77
     1
 78
     8
170
     0
171
     3
172
     1
173
     0
174
     0
175
     0
176
     7
177
     7
178
     7
270
     2
271
     2
272
     3
273
     2
274
     3
340
11
275
     0
280
     0
281
     0
282
     0
283
     0
284
     8
285
     8
286
     0
287
     3
288
     1
  0
DIMSTYLE
105
E0
330
A
100
AcDbSymbolTableRecord
100
AcDbDimStyleTableRecord
  2
ISO$SF
 70
     0
  3

  4
"
  5

  6

  7

 40
1.0
 41
3.5
 42
1.0
 43
10.0
 44
1.0
 45
0.0
 46
0.0
 47
0.1
 48
0.1
140
2.5
141
0.0
142
0.0
143
0.03937
144
1.0
145
0.0
146
0.71
147
1.5
 71
     0
 72
     0
 73
     0
 74
     0
 75
     1
 76
     1
 77
     1
 78
     8
170
     0
171
     3
172
     1
173
     0
174
     0
175
     0
176
     7
177
     7
178
     7
270
     2
271
     2
272
     3
273
     2
274
     3
340
11
275
     0
280
     0
281
     0
282
     0
283
     0
284
     8
285
     8
286
     0
287
     3
288
     1
  0
DIMSTYLE
105
E1
330
A
100
AcDbSymbolTableRecord
100
AcDbDimStyleTableRecord
  2
ISO$SH
 70
     0
  3

  4
"
  5

  6

  7

 40
1.0
 41
3.5
 42
1.0
 43
10.0
 44
1.0
 45
0.0
 46
0.0
 47
0.1
 48
0.1
140
2.5
141
0.0
142
0.0
143
0.03937
144
1.0
145
0.0
146
0.71
147
1.5
 71
     0
 72
     0
 73
     0
 74
     0
 75
     1
 76
     1
 77
     1
 78
     8
170
     0
171
     3
172
     1
173
     0
174
     0
175
     0
176
     7
177
     7
178
     7
270
     2
271
     2
272
     3
273
     2
274
     3
340
11
275
     0
280
     0
281
     0
282
     0
283
     0
284
     8
285
     8
286
     0
287
     3
288
     1
  0
DIMSTYLE
105
E4
330
A
100
AcDbSymbolTableRecord
100
AcDbDimStyleTableRecord
  2
ONSHAPE-ISO-25$0
 70
     0
  3

  4

  5

  6

  7

 40
1.0
 41
2.5
 42
0.625
 43
3.75
 44
1.25
 45
0.0
 46
0.0
 47
0.0
 48
0.0
140
2.5
141
2.5
142
0.0
143
0.03937
144
1.0
145
0.0
146
1.0
147
0.625
 71
     0
 72
     0
 73
     0
 74
     0
 75
     0
 76
     0
 77
     1
 78
     8
170
     0
171
     3
172
     1
173
     0
174
     0
175
     0
176
     7
177
     7
178
     7
179
     1
270
     2
271
     2
272
     3
273
     2
274
     3
340
71
275
     0
280
     0
281
     0
282
     0
283
     0
284
     8
285
     8
286
     0
287
     3
288
     1
  0
DIMSTYLE
105
E5
330
A
100
AcDbSymbolTableRecord
100
AcDbDimStyleTableRecord
  2
ONSHAPE-ISO-25$2
 70
     0
  3

  4

  5

  6

  7

 40
1.0
 41
2.5
 42
0.625
 43
3.75
 44
1.25
 45
0.0
 46
0.0
 47
0.0
 48
0.0
140
2.5
141
2.5
142
0.0
143
0.03937
144
1.0
145
0.0
146
1.0
147
0.625
 71
     0
 72
     0
 73
     0
 74
     0
 75
     0
 76
     0
 77
     1
 78
     8
170
     0
171
     3
172
     1
173
     0
174
     0
175
     0
176
     7
177
     7
178
     7
179
     1
270
     2
271
     2
272
     3
273
     2
274
     3
340
71
275
     0
280
     0
281
     0
282
     0
283
     0
284
     8
285
     8
286
     0
287
     3
288
     1
  0
DIMSTYLE
105
E6
330
A
100
AcDbSymbolTableRecord
100
AcDbDimStyleTableRecord
  2
ONSHAPE-ISO-25$3
 70
     0
  3

  4

  5

  6

  7

 40
1.0
 41
2.5
 42
0.625
 43
3.75
 44
1.25
 45
0.0
 46
0.0
 47
0.0
 48
0.0
140
2.5
141
0.0
142
0.0
143
0.03937
144
1.0
145
0.0
146
1.0
147
0.625
 71
     0
 72
     0
 73
     0
 74
     0
 75
     0
 76
     0
 77
     1
 78
     8
170
     0
171
     3
172
     1
173
     0
174
     0
175
     0
176
     7
177
     7
178
     7
179
     1
270
     2
271
     2
272
     3
273
     2
274
     3
340
71
275
     0
280
     0
281
     0
282
     0
283
     0
284
     8
285
     8
286
     0
287
     3
288
     1
  0
DIMSTYLE
105
E7
330
A
100
AcDbSymbolTableRecord
100
AcDbDimStyleTableRecord
  2
ONSHAPE-ISO-25$4
 70
     0
  3

  4

  5

  6

  7

 40
1.0
 41
2.5
 42
0.625
 43
3.75
 44
1.25
 45
0.0
 46
0.0
 47
0.0
 48
0.0
140
2.5
141
0.0
142
0.0
143
0.03937
144
1.0
145
0.0
146
1.0
147
0.625
 71
     0
 72
     0
 73
     0
 74
     0
 75
     0
 76
     0
 77
     1
 78
     8
170
     0
171
     3
172
     1
173
     0
174
     0
175
     0
176
     7
177
     7
178
     7
179
     1
270
     2
271
     2
272
     3
273
     2
274
     3
340
71
275
     0
280
     0
281
     0
282
     0
283
     0
284
     8
285
     8
286
     0
287
     3
288
     1
  0
DIMSTYLE
105
E8
330
A
100
AcDbSymbolTableRecord
100
AcDbDimStyleTableRecord
  2
ONSHAPE-ISO-25$6
 70
     0
  3

  4

  5

  6

  7

 40
1.0
 41
0.5
 42
0.625
 43
3.75
 44
1.25
 45
0.0
 46
0.0
 47
0.0
 48
0.0
140
2.5
141
2.5
142
0.0
143
0.03937
144
1.0
145
0.0
146
1.0
147
0.625
 71
     0
 72
     0
 73
     0
 74
     0
 75
     0
 76
     0
 77
     1
 78
     8
170
     0
171
     3
172
     1
173
     0
174
     0
175
     0
176
     7
177
     7
178
     7
179
     1
270
     2
271
     2
272
     3
273
     2
274
     3
340
71
275
     0
280
     0
281
     0
282
     0
283
     0
284
     8
285
     8
286
     0
287
     3
288
     1
  0
DIMSTYLE
105
E9
330
A
100
AcDbSymbolTableRecord
100
AcDbDimStyleTableRecord
  2
ONSHAPE-ISO-25$7
 70
     0
  3

  4

  5

  6

  7

 40
1.0
 41
2.5
 42
0.625
 43
3.75
 44
1.25
 45
0.0
 46
0.0
 47
0.0
 48
0.0
140
2.5
141
2.5
142
0.0
143
0.03937
144
1.0
145
0.0
146
1.0
147
0.625
 71
     0
 72
     0
 73
     0
 74
     0
 75
     0
 76
     0
 77
     1
 78
     8
170
     0
171
     3
172
     1
173
     0
174
     0
175
     0
176
     7
177
     7
178
     7
179
     1
270
     2
271
     2
272
     3
273
     2
274
     3
340
71
275
     0
280
     0
281
     0
282
     0
283
     0
284
     8
285
     8
286
     0
287
     3
288
     1
  0
DIMSTYLE
105
EA
330
A
100
AcDbSymbolTableRecord
100
AcDbDimStyleTableRecord
  2
ONSHAPE-STANDARD-GTOLERANC
 70
     0
  3

  4

  5

  6

  7

 40
1.0
 41
2.5
 42
0.625
 43
3.75
 44
1.25
 45
0.0
 46
0.0
 47
0.0
 48
0.0
140
2.5
141
2.5
142
0.0
143
0.03937
144
1.0
145
0.0
146
1.0
147
0.625
 71
     0
 72
     0
 73
     0
 74
     0
 75
     0
 76
     0
 77
     1
 78
     8
170
     0
171
     3
172
     1
173
     0
174
     0
175
     0
176
     7
177
     7
178
     7
179
     1
270
     2
271
     2
272
     3
273
     2
274
     3
340
C7
275
     0
280
     0
281
     0
282
     0
283
     0
284
     8
285
     8
286
     0
287
     3
288
     1
  0
DIMSTYLE
105
EC
330
A
100
AcDbSymbolTableRecord
100
AcDbDimStyleTableRecord
  2
ONSHAPE-ORDINATESTYLE
 70
     0
  3

  4

  5

  6

  7

 40
1.0
 41
2.5
 42
0.625
 43
3.75
 44
1.25
 45
0.0
 46
0.0
 47
0.0
 48
0.0
140
2.5
141
2.5
142
0.0
143
0.03937
144
1.0
145
0.0
146
1.0
147
0.625
 71
     0
 72
     0
 73
     0
 74
     0
 75
     0
 76
     0
 77
     1
 78
     8
170
     0
171
     3
172
     1
173
     0
174
     0
175
     0
176
     7
177
     7
178
     7
179
     1
270
     2
271
     2
272
     3
273
     2
274
     3
340
71
275
     0
280
     0
281
     0
282
     0
283
     0
284
     8
285
     8
286
     0
287
     3
288
     1
  0
DIMSTYLE
105
ED
330
A
100
AcDbSymbolTableRecord
100
AcDbDimStyleTableRecord
  2
ONSHAPE-CHAMFERDIMSTYLE
 70
     0
  3

  4

  5

  6

  7

 40
1.0
 41
2.5
 42
0.625
 43
3.75
 44
1.25
 45
0.0
 46
0.0
 47
0.0
 48
0.0
140
2.5
141
2.5
142
0.0
143
0.03937
144
1.0
145
0.0
146
1.0
147
0.625
 71
     0
 72
     0
 73
     0
 74
     0
 75
     0
 76
     0
 77
     1
 78
     8
170
     0
171
     3
172
     1
173
     0
174
     0
175
     0
176
     7
177
     7
178
     7
179
     1
270
     2
271
     2
272
     3
273
     2
274
     3
340
71
275
     0
280
     0
281
     0
282
     0
283
     0
284
     8
285
     8
286
     0
287
     3
288
     1
  0
ENDTAB
  0
TABLE
  2
BLOCK_RECORD
  5
1
330
0
100
AcDbSymbolTable
 70
     1
  0
BLOCK_RECORD
  5
1F
330
1
100
AcDbSymbolTableRecord
100
AcDbBlockTableRecord
  2
*MODEL_SPACE
  0
BLOCK_RECORD
  5
1B
330
1
100
AcDbSymbolTableRecord
100
AcDbBlockTableRecord
  2
*PAPER_SPACE
  0
ENDTAB
  0
ENDSEC
  0
SECTION
  2
BLOCKS
  0
BLOCK
  5
20
330
1F
100
AcDbEntity
  8
0
100
AcDbBlockBegin
  2
*MODEL_SPACE
 70
     0
 10
0.0
 20
0.0
 30
0.0
  3
*MODEL_SPACE
  1

  0
ENDBLK
  5
21
330
1F
100
AcDbEntity
  8
0
100
AcDbBlockEnd
  0
BLOCK
  5
1C
330
1B
100
AcDbEntity
 67
     1
  8
0
100
AcDbBlockBegin
  2
*PAPER_SPACE
 70
     0
 10
0.0
 20
0.0
 30
0.0
  3
*PAPER_SPACE
  1

  0
ENDBLK
  5
1D
330
1B
100
AcDbEntity
 67
     1
  8
0
100
AcDbBlockEnd
  0
ENDSEC
  0
SECTION
  2
ENTITIES
  0
MTEXT
  5
72
102
{ACAD_XDICTIONARY
360
73
102
}
330
1F
100
AcDbEntity
  8
ANNOTATION_TEXT
 62
     7
 60
     1
100
AcDbMText
 10
472.5796579352714
 20
81.73112498271021
 30
0.0
 40
2.5
 41
0.0
 71
     2
 72
     1
  1

  7
ONSHAPE-STANDARD-VIEW-LABE
1001
ACAD
1000
ACAD_MTEXT_DEFINED_HEIGHT_BEGIN
1070
    46
1040
2.5
1000
ACAD_MTEXT_DEFINED_HEIGHT_END
  0
CIRCLE
  5
7A
330
1F
100
AcDbEntity
  8
VISIBLE
100
AcDbCircle
 10
458.2928475749544
 20
157.0076230702524
 30
0.0
 40
3.2
  0
CIRCLE
  5
7B
330
1F
100
AcDbEntity
  8
VISIBLE
100
AcDbCircle
 10
487.7735596062654
 20
136.346364199387
 30
0.0
 40
3.2
  0
ARC
  5
7C
330
1F
100
AcDbEntity
  8
VISIBLE
100
AcDbCircle
 10
428.1226034811775
 20
143.8418573397521
 30
0.0
 40
10.0
100
AcDbArc
 50
300.0000000000782
 51
3.61220003881059
  0
ARC
  5
7D
330
1F
100
AcDbEntity
  8
VISIBLE
100
AcDbCircle
 10
473.0332035905999
 20
146.6769936348097
 30
0.0000000000000014
 40
35.0
100
AcDbArc
 50
146.3877999612203
 51
183.6122000387417
  0
ARC
  5
7E
330
1F
100
AcDbEntity
  8
VISIBLE
100
AcDbCircle
 10
435.5570511441648
 20
171.5875937442521
 30
0.0
 40
10.0
100
AcDbArc
 50
326.3877999612267
 51
29.9999999999214
  0
LINE
  5
7F
330
1F
100
AcDbEntity
  8
VISIBLE
100
AcDbLine
 10
420.1241314453257
 20
218.3181947717793
 30
0.0
 11
444.2173051820191
 21
176.587593744242
 31
0.0
  0
SPLINE
  5
80
330
1F
100
AcDbEntity
  8
VISIBLE
100
AcDbSpline
210
0.0
220
0.0
230
1.0
 70
     8
 71
     3
 72
    26
 73
    22
 74
     0
 42
0.000000001
 43
0.0000000342596185
 40
0.0
 40
0.0
 40
0.0
 40
0.0
 40
1.11038254781385
 40
1.11038254781385
 40
1.11038254781385
 40
2.22076509562769
 40
2.22076509562769
 40
2.22076509562769
 40
3.33114764344154
 40
3.33114764344154
 40
3.33114764344154
 40
4.44153019125538
 40
4.44153019125538
 40
4.44153019125538
 40
5.55191273906923
 40
5.55191273906923
 40
5.55191273906923
 40
6.66229528688307
 40
6.66229528688307
 40
6.66229528688307
 40
7.77267783469692
 40
7.77267783469692
 40
7.77267783469692
 40
7.77267783469692
 10
420.1241314453157
 20
218.3181947717893
 30
0.0
 10
418.2790935576783
 20
221.5138941350668
 30
0.0
 10
415.8170017753872
 20
224.3522653596987
 30
0.0
 10
412.9147817078847
 20
226.6306932884601
 30
0.0
 10
410.0125616403822
 20
228.9091212172215
 30
0.0
 10
406.6702132876682
 20
230.6276058501124
 30
0.0
 10
403.1281471009084
 20
231.660419568373
 30
0.0
 10
399.5860809141487
 20
232.6932332866336
 30
0.0
 10
395.8442968933433
 20
233.0403760902639
 30
0.0
 10
392.172100277069
 20
232.6793282915915
 30
0.0
 10
388.4999036607947
 20
232.3182804929192
 30
0.0
 10
384.8972944490515
 20
231.249042091944
 30
0.0
 10
381.6242735472389
 20
229.5461880121251
 30
0.0
 10
378.3512526454263
 20
227.8433339323062
 30
0.0
 10
375.4078200535443
 20
225.5068641736435
 30
0.0
 10
373.0045700144659
 20
222.7069424302501
 30
0.0
 10
370.6013199753879
 20
219.9070206868566
 30
0.0
 10
368.7382524891129
 20
216.6436469587324
 30
0.0
 10
367.5509784956189
 20
213.1503576525026
 30
0.0
 10
366.3637045021239
 20
209.6570683462728
 30
0.0
 10
365.8522240014099
 20
205.9338634619375
 30
0.0
 10
366.0518701239109
 20
202.249192424648
 30
0.0
  0
SPLINE
  5
81
330
1F
100
AcDbEntity
  8
VISIBLE
100
AcDbSpline
210
0.0
220
0.0
230
1.0
 70
     8
 71
     3
 72
    20
 73
    16
 74
     0
 42
0.000000001
 43
0.0000000302908383
 40
-0.178770768542101
 40
-0.178770768542101
 40
-0.178770768542101
 40
-0.178770768542101
 40
-0.176937049371476
 40
-0.176937049371476
 40
-0.176937049371476
 40
-0.149341102588
 40
-0.149341102588
 40
-0.149341102588
 40
-0.125864964586067
 40
-0.125864964586067
 40
-0.125864964586067
 40
-0.0943987234395505
 40
-0.0943987234395505
 40
-0.0943987234395505
 40
-0.0696210393750957
 40
-0.0696210393750957
 40
-0.0696210393750957
 40
-0.0696210393750957
 10
394.4944621681029
 20
137.8063363225571
 30
0.0
 10
394.2253563014628
 20
138.0772324581765
 30
0.0
 10
393.9588937815201
 20
138.3484102608844
 30
0.0
 10
393.6952887224168
 20
138.6197121227649
 30
0.0
 10
389.728252057588
 20
142.7025792611162
 30
0.0
 10
386.3862825744882
 20
146.813106880774
 30
0.0
 10
383.3218760309008
 20
151.4251585509549
 30
0.0
 10
380.7149558380282
 20
155.3486753750286
 30
0.0
 10
378.2720374528482
 20
159.6932795204389
 30
0.0
 10
376.0330640424469
 20
164.435236151436
 30
0.0
 10
373.0320560722889
 20
170.7911176360736
 30
0.0
 10
370.4444888286689
 20
177.7769383016282
 30
0.0
 10
368.6699613044379
 20
184.919833090681
 30
0.0
 10
367.2726325877869
 20
190.5444130830828
 30
0.0
 10
366.3751231753239
 20
196.2832305450849
 30
0.0
 10
366.0518701239139
 20
202.2491924245981
 30
0.0
  0
SPLINE
  5
82
330
1F
100
AcDbEntity
  8
VISIBLE
100
AcDbSpline
210
0.0
220
0.0
230
1.0
 70
     8
 71
     3
 72
    17
 73
    13
 74
     0
 42
0.000000001
 43
0.0000000294766845
 40
0.0
 40
0.0
 40
0.0
 40
0.0
 40
0.817522844980485
 40
0.817522844980485
 40
0.817522844980485
 40
1.63504568996097
 40
1.63504568996097
 40
1.63504568996097
 40
2.72507614993495
 40
2.72507614993495
 40
2.72507614993495
 40
3.81510660990893
 40
3.81510660990893
 40
3.81510660990893
 40
3.81510660990893
 10
394.4944621681045
 20
137.8063363225556
 30
0.0
 10
396.4102505901948
 20
135.8778028175518
 30
0.0
 10
398.5989203103473
 20
134.220901690059
 30
0.0
 10
400.9745292235355
 20
132.8996688048979
 30
0.0
 10
403.3501381367237
 20
131.5784359197369
 30
0.0
 10
405.9126862429476
 20
130.5928712769078
 30
0.0
 10
408.5616675976286
 20
129.9835149696236
 30
0.0
 10
412.0936427372034
 20
129.1710398932447
 30
0.0
 10
415.7792769851465
 20
129.0273796356125
 30
0.0
 10
419.3632504688661
 20
129.563959506795
 30
0.0
 10
422.9472239525856
 20
130.1005393779775
 30
0.0
 10
426.4295366720817
 20
131.3173593779747
 30
0.0
 10
429.5684296315266
 20
133.1296000730664
 30
0.0
  0
LINE
  5
83
330
1F
100
AcDbEntity
  8
VISIBLE
100
AcDbLine
 10
433.1226034811875
 20
135.1816033019177
 30
0.0
 11
429.5684296315366
 21
133.1296000730764
 31
0.0
  0
ARC
  5
84
330
1F
100
AcDbEntity
  8
VISIBLE
100
AcDbCircle
 10
517.9438037000423
 20
143.8418573397522
 30
0.0
 40
10.0
100
AcDbArc
 50
176.3877999611896
 51
239.9999999999218
  0
LINE
  5
85
330
1F
100
AcDbEntity
  8
VISIBLE
100
AcDbLine
 10
516.2021888728102
 20
133.300373745291
 30
0.0
 11
512.9438037000323
 21
135.1816033019177
 31
0.0
  0
SPLINE
  5
86
330
1F
100
AcDbEntity
  8
VISIBLE
100
AcDbSpline
210
0.0
220
0.0
230
1.0
 70
     8
 71
     3
 72
    17
 73
    13
 74
     0
 42
0.000000001
 43
0.0000000406070671
 40
0.0
 40
0.0
 40
0.0
 40
0.0
 40
0.809330439999984
 40
0.809330439999984
 40
0.809330439999984
 40
1.61866087999997
 40
1.61866087999997
 40
1.61866087999997
 40
2.69776813333328
 40
2.69776813333328
 40
2.69776813333328
 40
3.77687538666659
 40
3.77687538666659
 40
3.77687538666659
 40
3.77687538666659
 10
516.2021888728202
 20
133.300373745281
 30
0.0
 10
518.5328110507357
 20
131.954788403482
 30
0.0
 10
521.0517652918712
 20
130.9361532461439
 30
0.0
 10
523.6623466574231
 20
130.2827245073024
 30
0.0
 10
526.2729280229751
 20
129.629295768461
 30
0.0
 10
528.9751365129437
 20
129.3410734481162
 30
0.0
 10
531.6646207531767
 20
129.4308887029983
 30
0.0
 10
535.250599740154
 20
129.5506423761744
 30
0.0
 10
538.8139578387127
 20
130.3424628497537
 30
0.0
 10
542.1123288545939
 20
131.7539451834234
 30
0.0
 10
545.4106998704751
 20
133.1654275170931
 30
0.0
 10
548.4440838036792
 20
135.1965717108532
 30
0.0
 10
551.0061146342061
 20
137.7088167577952
 30
0.0
  0
SPLINE
  5
87
330
1F
100
AcDbEntity
  8
VISIBLE
100
AcDbSpline
210
0.0
220
0.0
230
1.0
 70
     8
 71
     3
 72
    17
 73
    13
 74
     0
 42
0.000000001
 43
0.0000000455482762
 40
-0.620689539030195
 40
-0.620689539030195
 40
-0.620689539030195
 40
-0.620689539030195
 40
-0.601330601113687
 40
-0.601330601113687
 40
-0.601330601113687
 40
-0.5710043571296609
 40
-0.5710043571296609
 40
-0.5710043571296609
 40
-0.53572171853292
 40
-0.53572171853292
 40
-0.53572171853292
 40
-0.516153190268426
 40
-0.516153190268426
 40
-0.516153190268426
 40
-0.516153190268426
 10
578.7407490424869
 20
198.9373397675281
 30
0.0
 10
578.2694871993428
 20
194.1533401026142
 30
0.0
 10
577.4835966851489
 20
189.5184075851408
 30
0.0
 10
576.4594196759989
 20
185.0612010738536
 30
0.0
 10
574.8550216456808
 20
178.078879381855
 30
0.0
 10
572.7068603913327
 20
171.5633636442137
 30
0.0
 10
570.1200611486076
 20
165.6038457622092
 30
0.0
 10
567.1104862453831
 20
158.6703291766295
 30
0.0
 10
563.4495927031885
 20
152.4175299237399
 30
0.0
 10
559.0203971787141
 20
146.6918751257151
 30
0.0
 10
556.5638678130886
 20
143.5163008998425
 30
0.0
 10
553.8716182302721
 20
140.5186374400586
 30
0.0
 10
551.0061146342061
 20
137.7088167577952
 30
0.0
  0
SPLINE
  5
88
330
1F
100
AcDbEntity
  8
VISIBLE
100
AcDbSpline
210
0.0
220
0.0
230
1.0
 70
     8
 71
     3
 72
    26
 73
    22
 74
     0
 42
0.000000001
 43
0.000000047070189
 40
0.0
 40
0.0
 40
0.0
 40
0.0
 40
1.12879532219998
 40
1.12879532219998
 40
1.12879532219998
 40
2.25759064439996
 40
2.25759064439996
 40
2.25759064439996
 40
3.38638596659994
 40
3.38638596659994
 40
3.38638596659994
 40
4.51518128879992
 40
4.51518128879992
 40
4.51518128879992
 40
5.6439766109999
 40
5.6439766109999
 40
5.6439766109999
 40
6.772771933199881
 40
6.772771933199881
 40
6.772771933199881
 40
7.90156725539986
 40
7.90156725539986
 40
7.90156725539986
 40
7.90156725539986
 10
578.7407490424869
 20
198.9373397675281
 30
0.0
 10
579.1084647567159
 20
202.6701941864587
 30
0.0
 10
578.7435984387249
 20
206.4752120758577
 30
0.0
 10
577.6716895465389
 20
210.0691020330366
 30
0.0
 10
576.5997806543529
 20
213.6629919902156
 30
0.0
 10
574.8208291879729
 20
217.0457540151744
 30
0.0
 10
572.4687310875083
 20
219.9672961612945
 30
0.0
 10
570.1166329870443
 20
222.8888383074146
 30
0.0
 10
567.1913882524968
 20
225.3491605746961
 30
0.0
 10
563.9090620614456
 20
227.1632831209873
 30
0.0
 10
560.6267358703944
 20
228.9774056672785
 30
0.0
 10
556.9873282228392
 20
230.1453284925795
 30
0.0
 10
553.26218645213
 20
230.5827468563182
 30
0.0
 10
549.5370446814206
 20
231.0201652200569
 30
0.0
 10
545.7261687875573
 20
230.7270791222334
 30
0.0
 10
542.1127976939616
 20
229.7226533136166
 30
0.0
 10
538.4994266003658
 20
228.7182275049999
 30
0.0
 10
535.0835603070376
 20
227.00246198559
 30
0.0
 10
532.1189943636211
 20
224.7050807897903
 30
0.0
 10
529.1544284202046
 20
222.4076995939906
 30
0.0
 10
526.6411628266997
 20
219.5287027218011
 30
0.0
 10
524.7657017527621
 20
216.2803088541235
 30
0.0
  0
LINE
  5
89
330
1F
100
AcDbEntity
  8
VISIBLE
100
AcDbLine
 10
501.8491019992007
 20
176.587593744242
 30
0.0
 11
524.7657017527521
 21
216.2803088541135
 31
0.0
  0
ARC
  5
8A
330
1F
100
AcDbEntity
  8
VISIBLE
100
AcDbCircle
 10
510.5093560370551
 20
171.587593744252
 30
0.0
 40
10.0
100
AcDbArc
 50
150.0000000000784
 51
213.6122000387726
  0
ARC
  5
8B
330
1F
100
AcDbEntity
  8
VISIBLE
100
AcDbCircle
 10
473.0332035905999
 20
146.6769936348097
 30
-0.0000000000000025
 40
35.0
100
AcDbArc
 50
356.3877999612604
 51
33.61220003876161
  0
ARC
  5
8C
330
1F
100
AcDbEntity
  8
VISIBLE
100
AcDbCircle
 10
475.8683398856775
 20
191.5875937442521
 30
0.0
 40
10.0
100
AcDbArc
 50
266.3877999611894
 51
329.9999999999217
  0
LINE
  5
8D
330
1F
100
AcDbEntity
  8
VISIBLE
100
AcDbLine
 10
529.8548662019496
 20
265.0950002481967
 30
0.0
 11
484.5285939235119
 21
186.5875937442421
 31
0.0
  0
SPLINE
  5
8E
330
1F
100
AcDbEntity
  8
VISIBLE
100
AcDbSpline
210
0.0
220
0.0
230
1.0
 70
     8
 71
     3
 72
    17
 73
    13
 74
     0
 42
0.000000001
 43
0.0000000476371952
 40
0.0
 40
0.0
 40
0.0
 40
0.0
 40
0.693075428850771
 40
0.693075428850771
 40
0.693075428850771
 40
2.07922628655231
 40
2.07922628655231
 40
2.07922628655231
 40
3.46537714425386
 40
3.46537714425386
 40
3.46537714425386
 40
4.8515280019554
 40
4.8515280019554
 40
4.8515280019554
 40
4.8515280019554
 10
529.8548662019596
 20
265.0950002482067
 30
0.0
 10
531.0070022065247
 20
267.0905583453427
 30
0.0
 10
531.9228052788188
 20
269.2232721029877
 30
0.0
 10
532.5704788459648
 20
271.4343131487597
 30
0.0
 10
533.8658259802568
 20
275.8563952403057
 30
0.0
 10
534.0886550939564
 20
280.5917864843647
 30
0.0
 10
533.2115787259786
 20
285.1144655114017
 30
0.0
 10
532.3345023580008
 20
289.6371445384387
 30
0.0
 10
530.3575205083457
 20
293.9471113484527
 30
0.0
 10
527.5027002145267
 20
297.5633866752477
 30
0.0
 10
524.6478799207077
 20
301.1796620020417
 30
0.0
 10
520.915221182725
 20
304.1022458456157
 30
0.0
 10
516.7181507671332
 20
306.0057368213787
 30
0.0
  0
SPLINE
  5
8F
330
1F
100
AcDbEntity
  8
VISIBLE
100
AcDbSpline
210
0.0
220
0.0
230
1.0
 70
     8
 71
     3
 72
    17
 73
    13
 74
     0
 42
0.000000001
 43
0.0000000469670279
 40
-0.903346741056663
 40
-0.903346741056663
 40
-0.903346741056663
 40
-0.903346741056663
 40
-0.8804403887238991
 40
-0.8804403887238991
 40
-0.8804403887238991
 40
-0.8499784458002819
 40
-0.8499784458002819
 40
-0.8499784458002819
 40
-0.8137497117694571
 40
-0.8137497117694571
 40
-0.8137497117694571
 40
-0.7921919975658019
 40
-0.7921919975658019
 40
-0.7921919975658019
 40
-0.7921919975658019
 10
428.8024109782824
 20
306.0825759606177
 30
0.0
 10
434.3352004964271
 20
308.6928600808868
 30
0.0
 10
440.026438408805
 20
310.7931530993417
 30
0.0
 10
445.8547342505918
 20
312.3333137589007
 30
0.0
 10
453.6054757346698
 20
314.3814917238208
 30
0.0
 10
461.6654671305879
 20
315.4645959775087
 30
0.0
 10
470.0226390932708
 20
315.5828038392897
 30
0.0
 10
479.9619184440892
 20
315.7233897892927
 30
0.0
 10
490.2951160712186
 20
314.4787320176017
 30
0.0
 10
500.0574413042995
 20
311.9128333477007
 30
0.0
 10
505.8664606633206
 20
310.3860090829007
 30
0.0
 10
511.4485029051793
 20
308.3956722185607
 30
0.0
 10
516.7181507671431
 20
306.0057368213747
 30
0.0
  0
SPLINE
  5
90
330
1F
100
AcDbEntity
  8
VISIBLE
100
AcDbSpline
210
0.0
220
0.0
230
1.0
 70
     8
 71
     3
 72
    17
 73
    13
 74
     0
 42
0.000000001
 43
0.0000000401478313
 40
0.0
 40
0.0
 40
0.0
 40
0.0
 40
0.6868221650652381
 40
0.6868221650652381
 40
0.6868221650652381
 40
2.06046649519571
 40
2.06046649519571
 40
2.06046649519571
 40
3.43411082532619
 40
3.43411082532619
 40
3.43411082532619
 40
4.80775515545666
 40
4.80775515545666
 40
4.80775515545666
 40
4.80775515545666
 10
428.8024109782824
 20
306.0825759606177
 30
0.0
 10
426.7372044291406
 20
305.1082436021167
 30
0.0
 10
424.7859367757399
 20
303.8909346067997
 30
0.0
 10
423.0066639023493
 20
302.4600321434757
 30
0.0
 10
419.4481181555681
 20
299.5982272168278
 30
0.0
 10
416.5775515288272
 20
295.8820484181527
 30
0.0
 10
414.7104830529187
 20
291.7156762533067
 30
0.0
 10
412.8434145770101
 20
287.5493040884617
 30
0.0
 10
411.979844251934
 20
282.9327385574458
 30
0.0
 10
412.2134810860531
 20
278.3729332439207
 30
0.0
 10
412.4471179201722
 20
273.8131279303967
 30
0.0
 10
413.7779619134866
 20
269.3100828343627
 30
0.0
 10
416.0614683477757
 20
265.3549336707637
 30
0.0
  0
LINE
  5
91
330
1F
100
AcDbEntity
  8
VISIBLE
100
AcDbLine
 10
461.5378132577079
 20
186.587593744242
 30
0.0
 11
416.0614683477857
 21
265.3549336707537
 31
0.0
  0
ARC
  5
92
330
1F
100
AcDbEntity
  8
VISIBLE
100
AcDbCircle
 10
470.1980672955423
 20
191.5875937442521
 30
0.0
 40
10.0
100
AcDbArc
 50
210.0000000000788
 51
273.6122000388106
  0
ARC
  5
93
330
1F
100
AcDbEntity
  8
VISIBLE
100
AcDbCircle
 10
473.0332035905999
 20
146.6769936348097
 30
-0.0000000000000021
 40
35.0
100
AcDbArc
 50
86.38779996122769
 51
93.61220003873967
  0
ARC
  5
94
330
1F
100
AcDbEntity
  8
VISIBLE
100
AcDbCircle
 10
448.0385324379713
 20
221.4307019967965
 30
0.0000000000000002
 40
80.0
100
AcDbArc
 50
127.6732890272523
 51
145.2639386387242
  0
LINE
  5
95
330
1F
100
AcDbEntity
  8
VISIBLE
100
AcDbLine
 10
400.2816838298217
 20
283.2804145230467
 30
0.0
 11
399.1458836580348
 21
284.7513849944787
 31
0.0
  0
ARC
  5
96
330
1F
100
AcDbEntity
  8
VISIBLE
100
AcDbCircle
 10
400.8753152328992
 20
283.7387831053567
 30
0.0
 40
0.75
100
AcDbArc
 50
217.6732890283329
 51
337.6732890263592
  0
LINE
  5
97
330
1F
100
AcDbEntity
  8
VISIBLE
100
AcDbLine
 10
404.3106912584714
 20
290.1297161220367
 30
0.0
 11
401.569089771019
 21
283.4538675209327
 31
0.0
  0
ARC
  5
98
330
1F
100
AcDbEntity
  8
VISIBLE
100
AcDbCircle
 10
403.6169167283963
 20
290.4146317031567
 30
0.0
 40
0.75
100
AcDbArc
 50
337.6732890263785
 51
97.67328902616637
  0
LINE
  5
99
330
1F
100
AcDbEntity
  8
VISIBLE
100
AcDbLine
 10
396.3645183704478
 20
290.1942880958717
 30
0.0
 11
403.5167735945486
 21
291.1579158612367
 31
0.0
  0
ARC
  5
9A
330
1F
100
AcDbEntity
  8
VISIBLE
100
AcDbCircle
 10
396.4646615054615
 20
289.4510039291367
 30
0.0
 40
0.75
100
AcDbArc
 50
97.67328902615718
 51
217.6732890282773
  0
LINE
  5
9B
330
1F
100
AcDbEntity
  8
VISIBLE
100
AcDbLine
 10
397.0068302741421
 20
287.5216648753727
 30
0.0
 11
395.8710301023554
 21
288.9926353468057
 31
0.0
  0
ARC
  5
9C
330
1F
100
AcDbEntity
  8
VISIBLE
100
AcDbCircle
 10
448.0385324379713
 20
221.4307019967965
 30
0.0
 40
83.5
100
AcDbArc
 50
127.6732890272343
 51
145.2639386387418
  0
ARC
  5
9D
330
1F
100
AcDbEntity
  8
VISIBLE
100
AcDbCircle
 10
380.8575613001134
 20
268.0115952574527
 30
0.0
 40
1.75
100
AcDbArc
 50
145.2639386392345
 51
325.2639386390564
  0
LINE
  5
9E
330
1F
100
AcDbEntity
  8
VISIBLE
100
AcDbLine
 10
389.8199623648669
 20
262.8666644189057
 30
0.0
 11
395.9477462070009
 21
257.0452317435567
 31
0.0
  0
LINE
  5
9F
330
1F
100
AcDbEntity
  8
VISIBLE
100
AcDbLine
 10
397.4106712294022
 20
258.5851427610777
 30
0.0
 11
389.8199623648669
 21
262.8666644189057
 31
0.0
  0
LINE
  5
A0
330
1F
100
AcDbEntity
  8
VISIBLE
100
AcDbLine
 10
398.8483734065896
 20
260.0985035886417
 30
0.0
 11
397.4106712294022
 21
258.5851427610777
 31
0.0
  0
LINE
  5
A1
330
1F
100
AcDbEntity
  8
VISIBLE
100
AcDbLine
 10
394.1885591558996
 20
267.4651573195017
 30
0.0
 11
398.8483734065896
 21
260.0985035886417
 31
0.0
  0
LINE
  5
A2
330
1F
100
AcDbEntity
  8
VISIBLE
100
AcDbLine
 10
400.3163429980336
 20
261.6437246441537
 30
0.0
 11
394.1885591558996
 21
267.4651573195017
 31
0.0
  0
LINE
  5
A3
330
1F
100
AcDbEntity
  8
VISIBLE
100
AcDbLine
 10
401.7035994847934
 20
263.1039850918027
 30
0.0
 11
400.3163429980336
 21
261.6437246441537
 31
0.0
  0
LINE
  5
A4
330
1F
100
AcDbEntity
  8
VISIBLE
100
AcDbLine
 10
393.9190837893268
 20
270.4993233084927
 30
0.0
 11
401.7035994847934
 21
263.1039850918027
 31
0.0
  0
LINE
  5
A5
330
1F
100
AcDbEntity
  8
VISIBLE
100
AcDbLine
 10
391.6792951343401
 20
268.1416664402888
 30
0.0
 11
393.9190837893268
 21
270.4993233084927
 31
0.0
  0
LINE
  5
A6
330
1F
100
AcDbEntity
  8
VISIBLE
100
AcDbLine
 10
395.662611467544
 20
261.7005574057747
 30
0.0
 11
391.6792951343401
 21
268.1416664402888
 31
0.0
  0
LINE
  5
A7
330
1F
100
AcDbEntity
  8
VISIBLE
100
AcDbLine
 10
389.0107181107185
 20
265.3326563428117
 30
0.0
 11
395.662611467544
 21
261.7005574057747
 31
0.0
  0
LINE
  5
A8
330
1F
100
AcDbEntity
  8
VISIBLE
100
AcDbLine
 10
386.7759740247745
 20
262.9803095125988
 30
0.0
 11
389.0107181107185
 21
265.3326563428117
 31
0.0
  0
LINE
  5
A9
330
1F
100
AcDbEntity
  8
VISIBLE
100
AcDbLine
 10
394.5604897202411
 20
255.5849712959077
 30
0.0
 11
386.7759740247745
 21
262.9803095125988
 31
0.0
  0
LINE
  5
AA
330
1F
100
AcDbEntity
  8
VISIBLE
100
AcDbLine
 10
395.9477462070009
 20
257.0452317435567
 30
0.0
 11
394.5604897202411
 21
255.5849712959077
 31
0.0
  0
LINE
  5
AB
330
1F
100
AcDbEntity
  8
VISIBLE
100
AcDbLine
 10
380.312288267303
 20
256.2402784877557
 30
0.0
 11
381.4624500090529
 21
257.4509671498067
 31
0.0
  0
SPLINE
  5
AC
330
1F
100
AcDbEntity
  8
VISIBLE
100
AcDbSpline
210
0.0
220
0.0
230
1.0
 70
     8
 71
     3
 72
     9
 73
     5
 74
     0
 42
0.000000001
 43
0.000000033239109
 40
0.0
 40
0.0
 40
0.0
 40
0.0
 40
0.112708109355529
 40
0.217420626261201
 40
0.217420626261201
 40
0.217420626261201
 40
0.217420626261201
 10
380.6646034557191
 20
254.1174503227507
 30
0.0
 10
380.6822244146724
 20
254.4977234994367
 30
0.0
 10
380.7162162893729
 20
255.2312930065297
 30
0.0
 10
380.4435890065615
 20
255.9122979259927
 30
0.0
 10
380.312288267293
 20
256.2402784877657
 30
0.0
  0
SPLINE
  5
AD
330
1F
100
AcDbEntity
  8
VISIBLE
100
AcDbSpline
210
0.0
220
0.0
230
1.0
 70
     8
 71
     3
 72
     9
 73
     5
 74
     0
 42
0.000000001
 43
0.0000000330724331
 40
0.0
 40
0.0
 40
0.0
 40
0.0
 40
0.0923100846545386
 40
0.202312933320051
 40
0.202312933320051
 40
0.202312933320051
 40
0.202312933320051
 10
380.1837716403317
 20
252.1597675684577
 30
0.0
 10
380.296029198806
 20
252.4475938431747
 30
0.0
 10
380.5420603451025
 20
253.0784130883587
 30
0.0
 10
380.6214417199705
 20
253.7514840083817
 30
0.0
 10
380.6646034557191
 20
254.1174503227507
 30
0.0
  0
LINE
  5
AE
330
1F
100
AcDbEntity
  8
VISIBLE
100
AcDbLine
 10
381.5378313281617
 20
250.8734024625427
 30
0.0
 11
380.1837716403418
 21
252.1597675684477
 31
0.0
  0
SPLINE
  5
AF
330
1F
100
AcDbEntity
  8
VISIBLE
100
AcDbSpline
210
0.0
220
0.0
230
1.0
 70
     8
 71
     3
 72
     9
 73
     5
 74
     0
 42
0.000000001
 43
0.0000000331548143
 40
0.0
 40
0.0
 40
0.0
 40
0.0
 40
0.153332873759238
 40
0.310116710847786
 40
0.310116710847786
 40
0.310116710847786
 40
0.310116710847786
 10
382.2379717984956
 20
253.8754394595577
 30
0.0
 10
382.2044900644635
 20
253.3616701748737
 30
0.0
 10
382.1367730447733
 20
252.3225685341448
 30
0.0
 10
381.7389542031181
 20
251.3600281867827
 30
0.0
 10
381.5378313281517
 20
250.8734024625527
 30
0.0
  0
LINE
  5
B0
330
1F
100
AcDbEntity
  8
VISIBLE
100
AcDbLine
 10
387.8613020314518
 20
248.5332408432617
 30
0.0
 11
382.2379717985056
 21
253.8754394595477
 31
0.0
  0
LINE
  5
B1
330
1F
100
AcDbEntity
  8
VISIBLE
100
AcDbLine
 10
389.2788259324682
 20
250.0253615188597
 30
0.0
 11
387.8613020314518
 21
248.5332408432617
 31
0.0
  0
LINE
  5
B2
330
1F
100
AcDbEntity
  8
VISIBLE
100
AcDbLine
 10
381.4624500090529
 20
257.4509671498067
 30
0.0
 11
389.2788259324682
 21
250.0253615188597
 31
0.0
  0
LINE
  5
B3
330
1F
100
AcDbEntity
  8
VISIBLE
100
AcDbLine
 10
469.7125912027534
 20
153.9552855614749
 30
0.0
 11
462.8953280658357
 21
96.13436903116883
 31
0.0
  0
SPLINE
  5
B4
330
1F
100
AcDbEntity
  8
VISIBLE
100
AcDbSpline
210
0.0
220
0.0
230
1.0
 70
     8
 71
     5
 72
    51
 73
    45
 74
     0
 42
0.000000001
 43
0.0000000393409372
 40
0.0
 40
0.0
 40
0.0
 40
0.0
 40
0.0
 40
0.0
 40
0.0083333333333333
 40
0.0166666666666667
 40
0.025
 40
0.0333333333333333
 40
0.0416666666666667
 40
0.05
 40
0.0583333333333333
 40
0.0666666666666667
 40
0.075
 40
0.0833333333333333
 40
0.0916666666666667
 40
0.1
 40
0.108333333333333
 40
0.116666666666667
 40
0.125
 40
0.133333333333333
 40
0.141666666666667
 40
0.15
 40
0.158333333333333
 40
0.166666666666667
 40
0.175
 40
0.183333333333333
 40
0.191666666666667
 40
0.2
 40
0.208333333333333
 40
0.216666666666667
 40
0.225
 40
0.233333333333333
 40
0.241666666666667
 40
0.25
 40
0.258333333333333
 40
0.266666666666667
 40
0.275
 40
0.283333333333333
 40
0.291666666666667
 40
0.3
 40
0.308333333333333
 40
0.316666666666667
 40
0.325
 40
0.3298623037491502
 40
0.3298623037491502
 40
0.3298623037491502
 40
0.3298623037491502
 40
0.3298623037491502
 40
0.3298623037491502
 10
363.2413788697769
 20
261.5252764885707
 30
0.0
 10
362.6286037710819
 20
260.2016897190587
 30
0.0
 10
361.4361402944749
 20
257.5234962572447
 30
0.0
 10
359.7470571782919
 20
253.4156510481877
 30
0.0
 10
357.6986275580909
 20
247.7743321904967
 30
0.0
 10
355.4993533974729
 20
240.5157627311561
 30
0.0
 10
353.6891840524739
 20
233.1313383800843
 30
0.0
 10
352.2974530829469
 20
225.706511033208
 30
0.0
 10
351.3503158836759
 20
218.3208106631777
 30
0.0
 10
350.8663491535079
 20
211.0383897120178
 30
0.0
 10
350.8514478897609
 20
203.8963575131081
 30
0.0
 10
351.2992326595129
 20
196.9103916686258
 30
0.0
 10
352.1925364700729
 20
190.0836459768437
 30
0.0
 10
353.5044860344599
 20
183.4145988418255
 30
0.0
 10
355.1998062605619
 20
176.9051412626579
 30
0.0
 10
357.2358864960649
 20
170.5690412554594
 30
0.0
 10
359.5643504758379
 20
164.4388627845435
 30
0.0
 10
362.1383786323579
 20
158.5544597831629
 30
0.0
 10
364.9193707707209
 20
152.9531102332124
 30
0.0
 10
367.8843420786059
 20
147.6585010294826
 30
0.0
 10
371.0319103052739
 20
142.6714017255439
 30
0.0
 10
374.391790637548
 20
137.9564417632765
 30
0.0
 10
378.0075260321017
 20
133.4581527534981
 30
0.0
 10
381.9139020197155
 20
129.1227990888069
 30
0.0
 10
386.116165684315
 20
124.9182498657372
 30
0.0
 10
390.5685537160282
 20
120.8545776987546
 30
0.0
 10
395.1528037429656
 20
117.0046892624002
 30
0.0
 10
399.7228704262548
 20
113.4719479798618
 30
0.0
 10
404.1532309661837
 20
110.3555424712623
 30
0.0
 10
408.3806073559384
 20
107.7196629864994
 30
0.0
 10
412.4608901640131
 20
105.5540644937485
 30
0.0
 10
416.5785754718518
 20
103.7612093424663
 30
0.0
 10
420.92926190592
 20
102.2113024237511
 30
0.0
 10
425.6394388708903
 20
100.7803213595974
 30
0.0
 10
430.6436730621348
 20
99.40308071527863
 30
0.0
 10
435.6805735483037
 20
98.09040999802843
 30
0.0
 10
440.45464681781
 20
96.90230005031732
 30
0.0
 10
444.7437446516786
 20
95.93025580463073
 30
0.0
 10
448.5594901212225
 20
95.27925480101263
 30
0.0
 10
452.1844743006478
 20
95.03942004490062
 30
0.0
 10
455.6533436932104
 20
95.2188792226406
 30
0.0
 10
458.6299725843577
 20
95.5794680100179
 30
0.0
 10
460.9138312809675
 20
95.88310476725226
 30
0.0
 10
462.3577679801006
 20
96.0675265572803
 30
0.0
 10
462.8953280658368
 20
96.13436903116022
 30
0.0
  0
SPLINE
  5
B5
330
1F
100
AcDbEntity
  8
VISIBLE
100
AcDbSpline
210
0.0
220
0.0
230
1.0
 70
     8
 71
     5
 72
    90
 73
    84
 74
     0
 42
0.000000001
 43
0.0000000538793581
 40
0.347056543136719
 40
0.347056543136719
 40
0.347056543136719
 40
0.347056543136719
 40
0.347056543136719
 40
0.347056543136719
 40
0.35
 40
0.358333333333334
 40
0.366666666666667
 40
0.375
 40
0.383333333333334
 40
0.391666666666667
 40
0.4
 40
0.408333333333334
 40
0.416666666666667
 40
0.425
 40
0.433333333333334
 40
0.441666666666667
 40
0.45
 40
0.458333333333334
 40
0.466666666666667
 40
0.475
 40
0.483333333333334
 40
0.491666666666667
 40
0.5
 40
0.5083333333333341
 40
0.516666666666667
 40
0.525
 40
0.533333333333334
 40
0.5416666666666671
 40
0.55
 40
0.558333333333334
 40
0.5666666666666671
 40
0.575
 40
0.583333333333334
 40
0.591666666666667
 40
0.6
 40
0.6083333333333341
 40
0.616666666666667
 40
0.625
 40
0.6333333333333341
 40
0.641666666666667
 40
0.65
 40
0.658333333333333
 40
0.6666666666666671
 40
0.675
 40
0.683333333333333
 40
0.6916666666666671
 40
0.7
 40
0.708333333333333
 40
0.716666666666667
 40
0.725
 40
0.7333333333333331
 40
0.7416666666666659
 40
0.75
 40
0.7583333333333331
 40
0.7666666666666659
 40
0.775
 40
0.783333333333333
 40
0.791666666666666
 40
0.8
 40
0.808333333333333
 40
0.816666666666666
 40
0.825
 40
0.833333333333333
 40
0.8416666666666659
 40
0.85
 40
0.8583333333333331
 40
0.8666666666666659
 40
0.875
 40
0.8833333333333331
 40
0.8916666666666659
 40
0.9
 40
0.908333333333333
 40
0.916666666666666
 40
0.925
 40
0.933333333333332
 40
0.941666666666666
 40
0.95
 40
0.958333333333332
 40
0.9666666666666659
 40
0.975
 40
0.9833333333333321
 40
0.9916666666666659
 40
1.0
 40
1.0
 40
1.0
 40
1.0
 40
1.0
 40
1.0
 10
472.8173095612131
 20
96.83514750157534
 30
0.0
 10
473.1610667306184
 20
96.83386612206752
 30
0.0
 10
474.4760003747834
 20
96.81911629645883
 30
0.0
 10
476.7454365365301
 20
96.72799955087113
 30
0.0
 10
479.9045481108836
 20
96.44365998080863
 30
0.0
 10
483.7946817628948
 20
95.90413705752852
 30
0.0
 10
487.9303287179674
 20
95.33493886360962
 30
0.0
 10
491.7830322153536
 20
95.08303203942963
 30
0.0
 10
495.5192792777414
 20
95.24682100999333
 30
0.0
 10
499.367669123923
 20
95.76718414045521
 30
0.0
 10
503.5230454551463
 20
96.52777534092073
 30
0.0
 10
508.0439841051037
 20
97.44119632621103
 30
0.0
 10
512.8143720637293
 20
98.50117676937722
 30
0.0
 10
517.6491651125211
 20
99.74024917581032
 30
0.0
 10
522.3614265487224
 20
101.210774149653
 30
0.0
 10
526.86028251322
 20
102.9525279102814
 30
0.0
 10
531.1824112459619
 20
104.9799766777561
 30
0.0
 10
535.4230578203873
 20
107.2946131347103
 30
0.0
 10
539.6934134958692
 20
109.891189051945
 30
0.0
 10
544.0594387558491
 20
112.7677711192082
 30
0.0
 10
548.5155105493373
 20
115.9294900590505
 30
0.0
 10
553.0123151393166
 20
119.3830677492384
 30
0.0
 10
557.4734554979959
 20
123.1331234782439
 30
0.0
 10
561.8156572184921
 20
127.1781647026846
 30
0.0
 10
565.969730920038
 20
131.5056973872896
 30
0.0
 10
569.8837529627915
 20
136.0953206129049
 30
0.0
 10
573.5211931625108
 20
140.9238205913684
 30
0.0
 10
576.8609209630399
 20
145.9697133845898
 30
0.0
 10
579.8961644402029
 20
151.2177093181007
 30
0.0
 10
582.6346171438569
 20
156.6640234047939
 30
0.0
 10
585.0921137615239
 20
162.3141405926514
 30
0.0
 10
587.2853435467998
 20
168.1790857810166
 30
0.0
 10
589.2245177218178
 20
174.2722003800653
 30
0.0
 10
590.9069038105349
 20
180.6057443260639
 30
0.0
 10
592.3078274155979
 20
187.187479446179
 30
0.0
 10
593.3845996575578
 20
194.0177558827557
 30
0.0
 10
594.086181084826
 20
201.086813701156
 30
0.0
 10
594.3609254663819
 20
208.3720746370005
 30
0.0
 10
594.1652973670668
 20
215.8352874144404
 30
0.0
 10
593.4717632922338
 20
223.420067388703
 30
0.0
 10
592.2781444790448
 20
231.0483513733805
 30
0.0
 10
590.6026984302429
 20
238.628690724204
 30
0.0
 10
588.4774160586878
 20
246.0661377413813
 30
0.0
 10
585.942051349668
 20
253.2713321507407
 30
0.0
 10
583.0376374417839
 20
260.1704459095807
 30
0.0
 10
579.8007148576169
 20
266.7135536890647
 30
0.0
 10
576.256022438153
 20
272.8867364140267
 30
0.0
 10
572.4155614794536
 20
278.7084173727748
 30
0.0
 10
568.2816697341526
 20
284.2156526740637
 30
0.0
 10
563.8488912616183
 20
289.4535800524737
 30
0.0
 10
559.1063266702863
 20
294.4632926195237
 30
0.0
 10
554.0398060043607
 20
299.2710317577537
 30
0.0
 10
548.6340528116049
 20
303.8751051734247
 30
0.0
 10
542.875715748944
 20
308.2506428459277
 30
0.0
 10
536.7566061604201
 20
312.3573147212898
 30
0.0
 10
530.2767981195826
 20
316.1459355078847
 30
0.0
 10
523.4479390443406
 20
319.5656950081037
 30
0.0
 10
516.296126775838
 20
322.5707374514477
 30
0.0
 10
508.8658947868298
 20
325.1280214734287
 30
0.0
 10
501.215987989369
 20
327.2162037919018
 30
0.0
 10
493.4133651229907
 20
328.8226296909847
 30
0.0
 10
485.5279000453271
 20
329.9410230314207
 30
0.0
 10
477.6266061050194
 20
330.5687889792547
 30
0.0
 10
469.7684960188874
 20
330.7047117848188
 30
0.0
 10
461.9981206750344
 20
330.3459361321677
 30
0.0
 10
454.343149456082
 20
329.4870819366507
 30
0.0
 10
446.8203835746113
 20
328.1237837351227
 30
0.0
 10
439.4399999251143
 20
326.2553023209197
 30
0.0
 10
432.21051265709
 20
323.8875239032167
 30
0.0
 10
425.1433919494387
 20
321.0357616463807
 30
0.0
 10
418.2579126563138
 20
317.7277302838977
 30
0.0
 10
411.5856787853135
 20
314.0062200226747
 30
0.0
 10
405.1656594172959
 20
309.9222558237877
 30
0.0
 10
399.039427320818
 20
305.5284427602437
 30
0.0
 10
393.2463931941592
 20
300.8723577703527
 30
0.0
 10
387.8188842366132
 20
295.9896626670617
 30
0.0
 10
382.7776549882369
 20
290.8979378053957
 30
0.0
 10
378.1262338964617
 20
285.5885988682998
 30
0.0
 10
373.8552164665002
 20
280.0351635288847
 30
0.0
 10
369.9482639278859
 20
274.2043217112647
 30
0.0
 10
367.0996544901429
 20
269.2936827779927
 30
0.0
 10
365.1127908866479
 20
265.4650168743157
 30
0.0
 10
363.8541539684729
 20
262.8488632580827
 30
0.0
 10
363.2413788697769
 20
261.5252764885707
 30
0.0
  0
LINE
  5
B6
330
1F
100
AcDbEntity
  8
VISIBLE
100
AcDbLine
 10
471.3246019893387
 20
96.74320250883673
 30
0.0
 11
472.817309561223
 21
96.83514750158533
 31
0.0
  0
LINE
  5
B7
330
1F
100
AcDbEntity
  8
VISIBLE
100
AcDbLine
 10
477.9554960845869
 20
152.9834218318056
 30
0.0
 11
471.3246019893387
 21
96.74320250883673
 31
0.0
  0
ARC
  5
B8
330
1F
100
AcDbEntity
  8
VISIBLE
100
AcDbCircle
 10
473.0332035906099
 20
146.6769936348197
 30
0.0
 40
8.0
100
AcDbArc
 50
52.02725467328954
 51
114.5241371977147
  0
ENDSEC
  0
SECTION
  2
OBJECTS
  0
DICTIONARY
  5
C
330
0
100
AcDbDictionary
  3
ACAD_GROUP
350
D
  3
ACAD_LAYOUT
350
1A
  3
ACAD_MATERIAL
350
43
  3
ACAD_MLEADERSTYLE
350
121
  3
ACAD_MLINESTYLE
350
17
  3
ACAD_PLOTSETTINGS
350
19
  3
ACAD_SCALELIST
350
47
  3
ACAD_VISUALSTYLE
350
2A
  3
ACDBHEADERROUNDTRIPXREC
350
100
  3
ACDBVARIABLEDICTIONARY
350
6C
  3
ONSHAPE_DATA
350
B9
  0
DICTIONARY
  5
73
330
72
100
AcDbDictionary
280
     1
  3
ONSHAPE_VIEW_ID
360
74
  0
DICTIONARY
  5
D
102
{ACAD_REACTORS
330
C
102
}
330
C
100
AcDbDictionary
  0
DICTIONARY
  5
1A
102
{ACAD_REACTORS
330
C
102
}
330
C
100
AcDbDictionary
  0
DICTIONARY
  5
43
102
{ACAD_REACTORS
330
C
102
}
330
C
100
AcDbDictionary
  3
BYBLOCK
350
45
  3
BYLAYER
350
44
  3
GLOBAL
350
46
  0
DICTIONARY
  5
121
102
{ACAD_REACTORS
330
C
102
}
330
C
100
AcDbDictionary
  0
DICTIONARY
  5
17
102
{ACAD_REACTORS
330
C
102
}
330
C
100
AcDbDictionary
  3
STANDARD
350
18
  0
DICTIONARY
  5
19
102
{ACAD_REACTORS
330
C
102
}
330
C
100
AcDbDictionary
  0
DICTIONARY
  5
47
102
{ACAD_REACTORS
330
C
102
}
330
C
100
AcDbDictionary
  3
A0
350
48
  3
A1
350
49
  3
A2
350
4A
  3
A3
350
4B
  3
A4
350
4C
  3
A5
350
4D
  3
A6
350
4E
  3
A7
350
4F
  3
A8
350
50
  3
A9
350
51
  3
B0
350
52
  3
B1
350
53
  3
B2
350
54
  3
B3
350
55
  3
B4
350
56
  3
B5
350
57
  3
B6
350
58
  3
B7
350
59
  3
B8
350
5A
  3
B9
350
5B
  3
C0
350
5C
  3
C1
350
5D
  3
C2
350
5E
  3
C3
350
5F
  3
C4
350
60
  3
C5
350
61
  3
C6
350
62
  3
C7
350
63
  3
C8
350
64
  3
C9
350
65
  3
D0
350
66
  3
D1
350
67
  3
D2
350
68
  0
DICTIONARY
  5
2A
102
{ACAD_REACTORS
330
C
102
}
330
C
100
AcDbDictionary
  3
2DWIREFRAME
350
2F
  3
BASIC
350
32
  3
BRIGHTEN
350
36
  3
COLORCHANGE
350
3A
  3
CONCEPTUAL
350
34
  3
DIM
350
35
  3
EDGECOLOROFF
350
3D
  3
FACEPATTERN
350
39
  3
FLAT
350
2B
  3
FLATWITHEDGES
350
2C
  3
GOURAUD
350
2D
  3
GOURAUDWITHEDGES
350
2E
  3
HIDDEN
350
31
  3
JITTEROFF
350
3B
  3
LINEPATTERN
350
38
  3
OVERHANGOFF
350
3C
  3
REALISTIC
350
33
  3
SHADED
350
42
  3
SHADED_WITH_EDGES
350
41
  3
SHADES_OF_GRAY
350
3E
  3
SKETCHY
350
3F
  3
THICKEN
350
37
  3
WIREFRAME
350
30
  3
X-RAY
350
40
  0
DICTIONARY
  5
100
102
{ACAD_REACTORS
330
C
102
}
330
C
100
AcDbDictionary
  3
CEPSNTYPE
350
109
  3
DIMSTYLEDATA
350
11F
  3
FINGERPRINTGUID
350
10A
  3
HYPERLINKBASE
350
103
  3
INSUNITS
350
108
  3
LAYOUTDICT
350
105
  3
LWETCUNION
350
107
  3
PLOTSETDICT
350
106
  3
PSVPSCALE
350
10C
  3
PUCSBASE
350
10F
  3
PUCSORGBACK
350
115
  3
PUCSORGBOTTOM
350
111
  3
PUCSORGFRONT
350
114
  3
PUCSORGLEFT
350
112
  3
PUCSORGRIGHT
350
113
  3
PUCSORGTOP
350
110
  3
PUCSORTHOREF
350
10D
  3
PUCSORTHOVIEW
350
10E
  3
STYLESHEET
350
104
  3
TSTACKALIGN
350
101
  3
TSTACKSIZE
350
102
  3
UCSBASE
350
118
  3
UCSORGBACK
350
11E
  3
UCSORGBOTTOM
350
11A
  3
UCSORGFRONT
350
11D
  3
UCSORGLEFT
350
11B
  3
UCSORGRIGHT
350
11C
  3
UCSORGTOP
350
119
  3
UCSORTHOREF
350
116
  3
UCSORTHOVIEW
350
117
  3
VERSIONGUID
350
10B
  0
DICTIONARY
  5
6C
102
{ACAD_REACTORS
330
C
102
}
330
C
100
AcDbDictionary
  3
CANNOSCALE
350
128
  3
CTABLESTYLE
350
120
  3
DIMASSOC
350
126
  3
HIDETEXT
350
127
  3
MSLTSCALE
350
129
  3
OLEFRAME
350
6D
  3
PSOLHEIGHT
350
123
  3
PSOLWIDTH
350
122
  0
DICTIONARY
  5
B9
102
{ACAD_REACTORS
330
C
102
}
330
C
100
AcDbDictionary
280
     1
  3
DIM_UNITS
360
BA
  3
ONSHAPE_ANG_TOL_PRECISION
360
BD
  3
ONSHAPE_VSHARP_EXTENSION
360
BC
  3
ONSHAPE_WELD_STANDARD
360
BB
  0
XRECORD
  5
74
102
{ACAD_REACTORS
330
73
102
}
330
73
100
AcDbXrecord
330
0
  0
MATERIAL
  5
45
102
{ACAD_REACTORS
330
43
102
}
102
{ACAD_XDICTIONARY
360
12C
102
}
330
43
100
AcDbMaterial
  1
BYBLOCK
  0
MATERIAL
  5
44
102
{ACAD_REACTORS
330
43
102
}
102
{ACAD_XDICTIONARY
360
12A
102
}
330
43
100
AcDbMaterial
  1
BYLAYER
  0
MATERIAL
  5
46
102
{ACAD_REACTORS
330
43
102
}
102
{ACAD_XDICTIONARY
360
12E
102
}
330
43
100
AcDbMaterial
  1
GLOBAL
  0
MLINESTYLE
  5
18
102
{ACAD_REACTORS
330
17
102
}
330
17
100
AcDbMlineStyle
  2
Standard
 70
     0
  3

 62
   256
 51
90.0
 52
90.0
 71
     2
 49
0.5
 62
   256
  6
BYLAYER
 49
-0.5
 62
   256
  6
BYLAYER
  0
ACAD_PROXY_OBJECT
  5
48
102
{ACAD_REACTORS
330
47
102
}
330
47
100
AcDbProxyObject
 90
      499
 91
      503
 93
       41
310
903313A31580
  0
ACAD_PROXY_OBJECT
  5
49
102
{ACAD_REACTORS
330
47
102
}
330
47
100
AcDbProxyObject
 90
      499
 91
      503
 93
      105
310
903313A324000000000000004000
  0
ACAD_PROXY_OBJECT
  5
4A
102
{ACAD_REACTORS
330
47
102
}
330
47
100
AcDbProxyObject
 90
      499
 91
      503
 93
      105
310
903313A344000000000000104000
  0
ACAD_PROXY_OBJECT
  5
4B
102
{ACAD_REACTORS
330
47
102
}
330
47
100
AcDbProxyObject
 90
      499
 91
      503
 93
      105
310
903313A354000000000000144000
  0
ACAD_PROXY_OBJECT
  5
4C
102
{ACAD_REACTORS
330
47
102
}
330
47
100
AcDbProxyObject
 90
      499
 91
      503
 93
      105
310
903313A384000000000000204000
  0
ACAD_PROXY_OBJECT
  5
4D
102
{ACAD_REACTORS
330
47
102
}
330
47
100
AcDbProxyObject
 90
      499
 91
      503
 93
      113
310
904313A31304000000000000244000
  0
ACAD_PROXY_OBJECT
  5
4E
102
{ACAD_REACTORS
330
47
102
}
330
47
100
AcDbProxyObject
 90
      499
 91
      503
 93
      113
310
904313A31364000000000000304000
  0
ACAD_PROXY_OBJECT
  5
4F
102
{ACAD_REACTORS
330
47
102
}
330
47
100
AcDbProxyObject
 90
      499
 91
      503
 93
      113
310
904313A32304000000000000344000
  0
ACAD_PROXY_OBJECT
  5
50
102
{ACAD_REACTORS
330
47
102
}
330
47
100
AcDbProxyObject
 90
      499
 91
      503
 93
      113
310
904313A333040000000000003E4000
  0
ACAD_PROXY_OBJECT
  5
51
102
{ACAD_REACTORS
330
47
102
}
330
47
100
AcDbProxyObject
 90
      499
 91
      503
 93
      113
310
904313A34304000000000000444000
  0
ACAD_PROXY_OBJECT
  5
52
102
{ACAD_REACTORS
330
47
102
}
330
47
100
AcDbProxyObject
 90
      499
 91
      503
 93
      113
310
904313A35304000000000000494000
  0
ACAD_PROXY_OBJECT
  5
53
102
{ACAD_REACTORS
330
47
102
}
330
47
100
AcDbProxyObject
 90
      499
 91
      503
 93
      121
310
905313A3130304000000000000594000
  0
ACAD_PROXY_OBJECT
  5
54
102
{ACAD_REACTORS
330
47
102
}
330
47
100
AcDbProxyObject
 90
      499
 91
      503
 93
      105
310
903323A310000000000000010100
  0
ACAD_PROXY_OBJECT
  5
55
102
{ACAD_REACTORS
330
47
102
}
330
47
100
AcDbProxyObject
 90
      499
 91
      503
 93
      105
310
903343A310000000000000410100
  0
ACAD_PROXY_OBJECT
  5
56
102
{ACAD_REACTORS
330
47
102
}
330
47
100
AcDbProxyObject
 90
      499
 91
      503
 93
      105
310
903383A310000000000000810100
  0
ACAD_PROXY_OBJECT
  5
57
102
{ACAD_REACTORS
330
47
102
}
330
47
100
AcDbProxyObject
 90
      499
 91
      503
 93
      113
310
90431303A310000000000000910100
  0
ACAD_PROXY_OBJECT
  5
58
102
{ACAD_REACTORS
330
47
102
}
330
47
100
AcDbProxyObject
 90
      499
 91
      503
 93
      121
310
9053130303A310000000000001650100
  0
ACAD_PROXY_OBJECT
  5
59
102
{ACAD_REACTORS
330
47
102
}
330
47
100
AcDbProxyObject
 90
      499
 91
      503
 93
      257
310
90E312F31323822203D2031272D3022000000000000200FC000000000000284000
  0
ACAD_PROXY_OBJECT
  5
5A
102
{ACAD_REACTORS
330
47
102
}
330
47
100
AcDbProxyObject
 90
      499
 91
      503
 93
      249
310
90D312F363422203D2031272D3022000000000000240FC000000000000284000
  0
ACAD_PROXY_OBJECT
  5
5B
102
{ACAD_REACTORS
330
47
102
}
330
47
100
AcDbProxyObject
 90
      499
 91
      503
 93
      249
310
90D312F333222203D2031272D3022000000000000280FC000000000000284000
  0
ACAD_PROXY_OBJECT
  5
5C
102
{ACAD_REACTORS
330
47
102
}
330
47
100
AcDbProxyObject
 90
      499
 91
      503
 93
      249
310
90D312F313622203D2031272D30220000000000002C0FC000000000000284000
  0
ACAD_PROXY_OBJECT
  5
5D
102
{ACAD_REACTORS
330
47
102
}
330
47
100
AcDbProxyObject
 90
      499
 91
      503
 93
      249
310
90D332F333222203D2031272D30220000000000002E0FC000000000000284000
  0
ACAD_PROXY_OBJECT
  5
5E
102
{ACAD_REACTORS
330
47
102
}
330
47
100
AcDbProxyObject
 90
      499
 91
      503
 93
      241
310
90C312F3822203D2031272D3022000000000000300FC000000000000284000
  0
ACAD_PROXY_OBJECT
  5
5F
102
{ACAD_REACTORS
330
47
102
}
330
47
100
AcDbProxyObject
 90
      499
 91
      503
 93
      249
310
90D332F313622203D2031272D3022000000000000320FC000000000000284000
  0
ACAD_PROXY_OBJECT
  5
60
102
{ACAD_REACTORS
330
47
102
}
330
47
100
AcDbProxyObject
 90
      499
 91
      503
 93
      241
310
90C312F3422203D2031272D3022000000000000340FC000000000000284000
  0
ACAD_PROXY_OBJECT
  5
61
102
{ACAD_REACTORS
330
47
102
}
330
47
100
AcDbProxyObject
 90
      499
 91
      503
 93
      241
310
90C332F3822203D2031272D3022000000000000360FC000000000000284000
  0
ACAD_PROXY_OBJECT
  5
62
102
{ACAD_REACTORS
330
47
102
}
330
47
100
AcDbProxyObject
 90
      499
 91
      503
 93
      241
310
90C312F3222203D2031272D3022000000000000380FC000000000000284000
  0
ACAD_PROXY_OBJECT
  5
63
102
{ACAD_REACTORS
330
47
102
}
330
47
100
AcDbProxyObject
 90
      499
 91
      503
 93
      241
310
90C332F3422203D2031272D30220000000000003A0FC000000000000284000
  0
ACAD_PROXY_OBJECT
  5
64
102
{ACAD_REACTORS
330
47
102
}
330
47
100
AcDbProxyObject
 90
      499
 91
      503
 93
      161
310
90A3122203D2031272D30224000000000000284000
  0
ACAD_PROXY_OBJECT
  5
65
102
{ACAD_REACTORS
330
47
102
}
330
47
100
AcDbProxyObject
 90
      499
 91
      503
 93
      257
310
90E312D312F3222203D2031272D30220000000000003E0FC000000000000284000
  0
ACAD_PROXY_OBJECT
  5
66
102
{ACAD_REACTORS
330
47
102
}
330
47
100
AcDbProxyObject
 90
      499
 91
      503
 93
      225
310
90A3322203D2031272D302200000000000002100000000000000284000
  0
ACAD_PROXY_OBJECT
  5
67
102
{ACAD_REACTORS
330
47
102
}
330
47
100
AcDbProxyObject
 90
      499
 91
      503
 93
      225
310
90A3622203D2031272D302200000000000006100000000000000284000
  0
ACAD_PROXY_OBJECT
  5
68
102
{ACAD_REACTORS
330
47
102
}
330
47
100
AcDbProxyObject
 90
      499
 91
      503
 93
      249
310
90D31272D3022203D2031272D30220000000000000A100000000000000284000
  0
ACAD_PROXY_OBJECT
  5
2F
102
{ACAD_REACTORS
330
2A
102
}
330
2A
100
AcDbProxyObject
 90
      499
 91
      501
 93
      436
310
42CC9915DA5C99599C985B595049028333333333333E33F0000000000000F90107901411070040501600405405064090741402480A0340
1001
ACAD
1000
AcDbSavedByObjectVersion
1070
     0
  0
ACAD_PROXY_OBJECT
  5
32
102
{ACAD_REACTORS
330
2A
102
}
330
2A
100
AcDbProxyObject
 90
      499
 91
      501
 93
      388
310
4150985CDA58D07406404333333333333E33F0000000000000F90107A41107004050150841D405064090741402480A0350
1001
ACAD
1000
AcDbSavedByObjectVersion
1070
     0
  0
ACAD_PROXY_OBJECT
  5
36
102
{ACAD_REACTORS
330
2A
102
}
330
2A
100
AcDbProxyObject
 90
      499
 91
      501
 93
      428
310
42109C9A59DA1D195B90C409028333333333333E33F0000000000000F9010790141107004050150841D405064090741402480A029950
1001
ACAD
1000
AcDbSavedByObjectVersion
1070
     0
  0
ACAD_PROXY_OBJECT
  5
3A
102
{ACAD_REACTORS
330
2A
102
}
330
2A
100
AcDbProxyObject
 90
      499
 91
      501
 93
      452
310
42D0DBDB1BDC90DA185B99D95104090240C333333333333E33F0000000000000F90108901411070040501508421405064090741402480A0350
1001
ACAD
1000
AcDbSavedByObjectVersion
1070
     0
  0
ACAD_PROXY_OBJECT
  5
34
102
{ACAD_REACTORS
330
2A
102
}
330
2A
100
AcDbProxyObject
 90
      499
 91
      501
 93
      500
310
4290DBDB98D95C1D1D585B10940D028333333333333E33F0000000000000F90107902409070040501000000000018199010841D405064090740C02480A0340
1001
ACAD
1000
AcDbSavedByObjectVersion
1070
     0
  0
ACAD_PROXY_OBJECT
  5
35
102
{ACAD_REACTORS
330
2A
102
}
330
2A
100
AcDbProxyObject
 90
      499
 91
      501
 93
      412
310
40D11A5B50B409028333333333333E33F0000000000000F9010790141107004050150841D405064090741402480A02677FFFFFD0
1001
ACAD
1000
AcDbSavedByObjectVersion
1070
     0
  0
ACAD_PROXY_OBJECT
  5
3D
102
{ACAD_REACTORS
330
2A
102
}
330
2A
100
AcDbProxyObject
 90
      499
 91
      501
 93
      452
310
43115919D950DBDB1BDC93D999916409028333333333333E33F0000000000000F9010790141107004050150841D405064090741402480A0350
1001
ACAD
1000
AcDbSavedByObjectVersion
1070
     0
  0
ACAD_PROXY_OBJECT
  5
39
102
{ACAD_REACTORS
330
2A
102
}
330
2A
100
AcDbProxyObject
 90
      499
 91
      501
 93
      444
310
42D19858D95C185D1D195C9B90F409028333333333333E33F0000000000000F9010790141107004050150841D405064090741402480A0350
1001
ACAD
1000
AcDbSavedByObjectVersion
1070
     0
  0
ACAD_PROXY_OBJECT
  5
2B
102
{ACAD_REACTORS
330
2A
102
}
330
2A
100
AcDbProxyObject
 90
      499
 91
      501
 93
      380
310
41119B185D240901404333333333333E33F0000000000000F9010740A907004050150841D405064090741402480A1B50
1001
ACAD
1000
AcDbSavedByObjectVersion
1070
     0
  0
ACAD_PROXY_OBJECT
  5
2C
102
{ACAD_REACTORS
330
2A
102
}
330
2A
100
AcDbProxyObject
 90
      499
 91
      501
 93
      468
310
43519B185D15DA5D1A115919D95CD0140901404333333333333E33F0000000000000F90107409019070040501600405405064090741402480A1B50
1001
ACAD
1000
AcDbSavedByObjectVersion
1070
     0
  0
ACAD_PROXY_OBJECT
  5
2D
102
{ACAD_REACTORS
330
2A
102
}
330
2A
100
AcDbProxyObject
 90
      499
 91
      501
 93
      404
310
41D1DBDD5C985D5910240902404333333333333E33F0000000000000F9010740A9070040501641D405064090741402480A1B50
1001
ACAD
1000
AcDbSavedByObjectVersion
1070
     0
  0
ACAD_PROXY_OBJECT
  5
2E
102
{ACAD_REACTORS
330
2A
102
}
330
2A
100
AcDbProxyObject
 90
      499
 91
      501
 93
      492
310
4411DBDD5C985D5915DA5D1A115919D95CD0340902404333333333333E33F0000000000000F90107409019070040501600405405064090741402480A1B50
1001
ACAD
1000
AcDbSavedByObjectVersion
1070
     0
  0
ACAD_PROXY_OBJECT
  5
31
102
{ACAD_REACTORS
330
2A
102
}
330
2A
100
AcDbProxyObject
 90
      499
 91
      501
 93
      476
310
41921A5919195B90640502408333333333333E33F0000000000000F901079024090700405020000000000001110200405405064090740C02480A0340
1001
ACAD
1000
AcDbSavedByObjectVersion
1070
     0
  0
ACAD_PROXY_OBJECT
  5
3B
102
{ACAD_REACTORS
330
2A
102
}
330
2A
100
AcDbProxyObject
 90
      499
 91
      501
 93
      428
310
42529A5D1D195C93D999914409028333333333333E33F0000000000000F9010790141107004050150A41D405064090741402480A0350
1001
ACAD
1000
AcDbSavedByObjectVersion
1070
     0
  0
ACAD_PROXY_OBJECT
  5
38
102
{ACAD_REACTORS
330
2A
102
}
330
2A
100
AcDbProxyObject
 90
      499
 91
      501
 93
      444
310
42D31A5B995C185D1D195C9B90E409028333333333333E33F0000000000000F9010790141107004050750841D405064090741402483A0350
1001
ACAD
1000
AcDbSavedByObjectVersion
1070
     0
  0
ACAD_PROXY_OBJECT
  5
3C
102
{ACAD_REACTORS
330
2A
102
}
330
2A
100
AcDbProxyObject
 90
      499
 91
      501
 93
      444
310
42D3DD995C9A185B99D3D999915409028333333333333E33F0000000000000F9010790141107004050150941D405064090741402480A0350
1001
ACAD
1000
AcDbSavedByObjectVersion
1070
     0
  0
ACAD_PROXY_OBJECT
  5
33
102
{ACAD_REACTORS
330
2A
102
}
330
2A
100
AcDbProxyObject
 90
      499
 91
      501
 93
      428
310
425499585B1A5CDD1A58D08409038333333333333E33F0000000000000F9010740A907004050150800405405064090740C02480A1B40
1001
ACAD
1000
AcDbSavedByObjectVersion
1070
     0
  0
ACAD_PROXY_OBJECT
  5
42
102
{ACAD_REACTORS
330
2A
102
}
330
2A
100
AcDbProxyObject
 90
      499
 91
      501
 93
      420
310
4194DA1859195911B40902404333333333333E33F0000000000000F9010740A41107004050150800405405064090840C02480A0B40
1001
ACAD
1000
AcDbSavedByObjectVersion
1070
     0
  0
ACAD_PROXY_OBJECT
  5
41
102
{ACAD_REACTORS
330
2A
102
}
330
2A
100
AcDbProxyObject
 90
      499
 91
      501
 93
      516
310
4454DA18591959081DDA5D1A08195919D95CD1A40902404333333333333E33F0000000000000F901074090142907004050250800405405064090740C02480A0B40
1001
ACAD
1000
AcDbSavedByObjectVersion
1070
     0
  0
ACAD_PROXY_OBJECT
  5
3E
102
{ACAD_REACTORS
330
2A
102
}
330
2A
100
AcDbProxyObject
 90
      499
 91
      501
 93
      532
310
4394DA1859195CC81BD98811DC985E5174090240C333333333333E33F0000000000000F901079024090741D01000000000000111010841D405064090740C02480A0340
1001
ACAD
1000
AcDbSavedByObjectVersion
1070
     0
  0
ACAD_PROXY_OBJECT
  5
3F
102
{ACAD_REACTORS
330
2A
102
}
330
2A
100
AcDbProxyObject
 90
      499
 91
      501
 93
      476
310
41D4DAD95D18DA1E51840502408333333333333E33F0000000000000F901079024090741D01000000000000111010B41D405064090741802480A0340
1001
ACAD
1000
AcDbSavedByObjectVersion
1070
     0
  0
ACAD_PROXY_OBJECT
  5
37
102
{ACAD_REACTORS
330
2A
102
}
330
2A
100
AcDbProxyObject
 90
      499
 91
      501
 93
      412
310
41D51A1A58DAD95B90D409028333333333333E33F0000000000000F9010790141107004050150C41D405064090741402480A0350
1001
ACAD
1000
AcDbSavedByObjectVersion
1070
     0
  0
ACAD_PROXY_OBJECT
  5
30
102
{ACAD_REACTORS
330
2A
102
}
330
2A
100
AcDbProxyObject
 90
      499
 91
      501
 93
      420
310
4255DA5C99599C985B595059028333333333333E33F0000000000000F90107901411070040501600405405064090740C02480A0340
1001
ACAD
1000
AcDbSavedByObjectVersion
1070
     0
  0
ACAD_PROXY_OBJECT
  5
40
102
{ACAD_REACTORS
330
2A
102
}
330
2A
100
AcDbProxyObject
 90
      499
 91
      501
 93
      404
310
41560B54985E51940902404000000000000E03F0000000000000F9010740501907004050150841D405064090740C02480A1B40
1001
ACAD
1000
AcDbSavedByObjectVersion
1070
     0
  0
XRECORD
  5
109
102
{ACAD_REACTORS
330
100
102
}
330
100
100
AcDbXrecord
 90
        0
  0
XRECORD
  5
11F
102
{ACAD_REACTORS
330
100
102
}
330
100
100
AcDbXrecord
1000
DSTYLE
1002
{
1070
   179
 70
     1
1070
   143
 40
0.03937
1070
   285
 70
     8
1070
   176
 70
     7
1070
   177
 70
     7
1070
   178
 70
     7
1070
   371
 70
    13
1070
   372
 70
    13
1070
   272
 70
     3
1070
   340
340
71
1070
   288
 70
     1
1002
}
  0
XRECORD
  5
10A
102
{ACAD_REACTORS
330
100
102
}
330
100
100
AcDbXrecord
  1
{908CD779-124A-EDC6-C5E8-8E000ABB0DD6}
  0
XRECORD
  5
103
102
{ACAD_REACTORS
330
100
102
}
330
100
100
AcDbXrecord
  1

  0
XRECORD
  5
108
102
{ACAD_REACTORS
330
100
102
}
330
100
100
AcDbXrecord
 90
        4
  0
XRECORD
  5
105
102
{ACAD_REACTORS
330
100
102
}
330
100
100
AcDbXrecord
340
1A
  0
XRECORD
  5
107
102
{ACAD_REACTORS
330
100
102
}
330
100
100
AcDbXrecord
 90
    10269
  0
XRECORD
  5
106
102
{ACAD_REACTORS
330
100
102
}
330
100
100
AcDbXrecord
340
19
  0
XRECORD
  5
10C
102
{ACAD_REACTORS
330
100
102
}
330
100
100
AcDbXrecord
 40
0.0
  0
XRECORD
  5
10F
102
{ACAD_REACTORS
330
100
102
}
330
100
100
AcDbXrecord
340
0
  0
XRECORD
  5
115
102
{ACAD_REACTORS
330
100
102
}
330
100
100
AcDbXrecord
 10
0.0
 20
0.0
 30
0.0
  0
XRECORD
  5
111
102
{ACAD_REACTORS
330
100
102
}
330
100
100
AcDbXrecord
 10
0.0
 20
0.0
 30
0.0
  0
XRECORD
  5
114
102
{ACAD_REACTORS
330
100
102
}
330
100
100
AcDbXrecord
 10
0.0
 20
0.0
 30
0.0
  0
XRECORD
  5
112
102
{ACAD_REACTORS
330
100
102
}
330
100
100
AcDbXrecord
 10
0.0
 20
0.0
 30
0.0
  0
XRECORD
  5
113
102
{ACAD_REACTORS
330
100
102
}
330
100
100
AcDbXrecord
 10
0.0
 20
0.0
 30
0.0
  0
XRECORD
  5
110
102
{ACAD_REACTORS
330
100
102
}
330
100
100
AcDbXrecord
 10
0.0
 20
0.0
 30
0.0
  0
XRECORD
  5
10D
102
{ACAD_REACTORS
330
100
102
}
330
100
100
AcDbXrecord
340
0
  0
XRECORD
  5
10E
102
{ACAD_REACTORS
330
100
102
}
330
100
100
AcDbXrecord
 70
     0
  0
XRECORD
  5
104
102
{ACAD_REACTORS
330
100
102
}
330
100
100
AcDbXrecord
  1

  0
XRECORD
  5
101
102
{ACAD_REACTORS
330
100
102
}
330
100
100
AcDbXrecord
 90
        1
  0
XRECORD
  5
102
102
{ACAD_REACTORS
330
100
102
}
330
100
100
AcDbXrecord
 90
       70
  0
XRECORD
  5
118
102
{ACAD_REACTORS
330
100
102
}
330
100
100
AcDbXrecord
340
0
  0
XRECORD
  5
11E
102
{ACAD_REACTORS
330
100
102
}
330
100
100
AcDbXrecord
 10
0.0
 20
0.0
 30
0.0
  0
XRECORD
  5
11A
102
{ACAD_REACTORS
330
100
102
}
330
100
100
AcDbXrecord
 10
0.0
 20
0.0
 30
0.0
  0
XRECORD
  5
11D
102
{ACAD_REACTORS
330
100
102
}
330
100
100
AcDbXrecord
 10
0.0
 20
0.0
 30
0.0
  0
XRECORD
  5
11B
102
{ACAD_REACTORS
330
100
102
}
330
100
100
AcDbXrecord
 10
0.0
 20
0.0
 30
0.0
  0
XRECORD
  5
11C
102
{ACAD_REACTORS
330
100
102
}
330
100
100
AcDbXrecord
 10
0.0
 20
0.0
 30
0.0
  0
XRECORD
  5
119
102
{ACAD_REACTORS
330
100
102
}
330
100
100
AcDbXrecord
 10
0.0
 20
0.0
 30
0.0
  0
XRECORD
  5
116
102
{ACAD_REACTORS
330
100
102
}
330
100
100
AcDbXrecord
340
0
  0
XRECORD
  5
117
102
{ACAD_REACTORS
330
100
102
}
330
100
100
AcDbXrecord
 70
     0
  0
XRECORD
  5
10B
102
{ACAD_REACTORS
330
100
102
}
330
100
100
AcDbXrecord
  1
{FAEB1C32-E019-11D5-929B-00C0DF256EC4}
  0
DICTIONARYVAR
  5
128
102
{ACAD_REACTORS
330
6C
102
}
330
6C
100
DictionaryVariables
280
     0
  1
1:1
  0
DICTIONARYVAR
  5
120
102
{ACAD_REACTORS
330
6C
102
}
330
6C
100
DictionaryVariables
280
     0
  1
Onshape-Standard
  0
DICTIONARYVAR
  5
126
102
{ACAD_REACTORS
330
6C
102
}
330
6C
100
DictionaryVariables
280
     0
  1
2
  0
DICTIONARYVAR
  5
127
102
{ACAD_REACTORS
330
6C
102
}
330
6C
100
DictionaryVariables
280
     0
  1
1
  0
DICTIONARYVAR
  5
129
102
{ACAD_REACTORS
330
6C
102
}
330
6C
100
DictionaryVariables
280
     0
  1
1
  0
DICTIONARYVAR
  5
6D
102
{ACAD_REACTORS
330
6C
102
}
330
6C
100
DictionaryVariables
280
     0
  1
0
  0
DICTIONARYVAR
  5
123
102
{ACAD_REACTORS
330
6C
102
}
330
6C
100
DictionaryVariables
280
     0
  1
80.000000
  0
DICTIONARYVAR
  5
122
102
{ACAD_REACTORS
330
6C
102
}
330
6C
100
DictionaryVariables
280
     0
  1
5.000000
  0
XRECORD
  5
BA
102
{ACAD_REACTORS
330
B9
102
}
330
B9
100
AcDbXrecord
 70
     4
  0
XRECORD
  5
BD
102
{ACAD_REACTORS
330
B9
102
}
330
B9
100
AcDbXrecord
 90
        0
  0
XRECORD
  5
BC
102
{ACAD_REACTORS
330
B9
102
}
330
B9
100
AcDbXrecord
 90
        0
  0
XRECORD
  5
BB
102
{ACAD_REACTORS
330
B9
102
}
330
B9
100
AcDbXrecord
 90
        1
  0
DICTIONARY
  5
12C
330
45
100
AcDbDictionary
280
     1
  3
ACAD_XREC_ROUNDTRIP
360
12D
  0
DICTIONARY
  5
12A
330
44
100
AcDbDictionary
280
     1
  3
ACAD_XREC_ROUNDTRIP
360
12B
  0
DICTIONARY
  5
12E
330
46
100
AcDbDictionary
280
     1
  3
ACAD_XREC_ROUNDTRIP
360
12F
  0
XRECORD
  5
12D
102
{ACAD_REACTORS
330
12C
102
}
330
12C
100
AcDbXrecord
102
MATERIAL
148
0.0
149
0.0
149
0.0
 93
        0
 94
      127
282
     0
 72
     1
 77
     1
171
     1
175
     1
179
     1
273
     0
  0
XRECORD
  5
12B
102
{ACAD_REACTORS
330
12A
102
}
330
12A
100
AcDbXrecord
102
MATERIAL
148
0.0
149
0.0
149
0.0
 93
        0
 94
      127
282
     0
 72
     1
 77
     1
171
     1
175
     1
179
     1
273
     0
  0
XRECORD
  5
12F
102
{ACAD_REACTORS
330
12E
102
}
330
12E
100
AcDbXrecord
102
MATERIAL
148
0.0
149
0.0
149
0.0
 93
        0
 94
      127
282
     0
 72
     1
 77
     1
171
     1
175
     1
179
     1
273
     0
  0
ENDSEC
  0
EOF
