  0
SECTION
  2
HEADER
  9
$ACADVER
  1
AC1015
  9
$ACADMAINTVER
 70
     6
  9
$DWGCODEPAGE
  3
ANSI_1252
  9
$INSBASE
 10
0.0
 20
0.0
 30
0.0
  9
$EXTMIN
 10
0.0
 20
0.0
 30
0.0
  9
$EXTMAX
 10
416.399994
 20
327.037994
 30
2.0
  9
$LIMMIN
 10
0.0
 20
0.0
  9
$LIMMAX
 10
420.0
 20
297.0
  9
$ORTHOMODE
 70
     0
  9
$REGENMODE
 70
     1
  9
$FILLMODE
 70
     1
  9
$QTEXTMODE
 70
     0
  9
$MIRRTEXT
 70
     1
  9
$LTSCALE
 40
1.0
  9
$ATTMODE
 70
     1
  9
$TEXTSIZE
 40
2.5
  9
$TRACEWID
 40
1.0
  9
$TEXTSTYLE
  7
Standard
  9
$CLAYER
  8
0
  9
$CELTYPE
  6
ByLayer
  9
$CECOLOR
 62
   256
  9
$CELTSCALE
 40
1.0
  9
$DISPSILH
 70
     0
  9
$DIMSCALE
 40
1.0
  9
$DIMASZ
 40
2.5
  9
$DIMEXO
 40
0.625
  9
$DIMDLI
 40
3.75
  9
$DIMRND
 40
0.0
  9
$DIMDLE
 40
0.0
  9
$DIMEXE
 40
1.25
  9
$DIMTP
 40
0.0
  9
$DIMTM
 40
0.0
  9
$DIMTXT
 40
2.5
  9
$DIMCEN
 40
2.5
  9
$DIMTSZ
 40
0.0
  9
$DIMTOL
 70
     0
  9
$DIMLIM
 70
     0
  9
$DIMTIH
 70
     0
  9
$DIMTOH
 70
     0
  9
$DIMSE1
 70
     0
  9
$DIMSE2
 70
     0
  9
$DIMTAD
 70
     1
  9
$DIMZIN
 70
     8
  9
$DIMBLK
  1

  9
$DIMASO
 70
     1
  9
$DIMSHO
 70
     1
  9
$DIMPOST
  1

  9
$DIMAPOST
  1

  9
$DIMALT
 70
     0
  9
$DIMALTD
 70
     3
  9
$DIMALTF
 40
0.03937
  9
$DIMLFAC
 40
1.0
  9
$DIMTOFL
 70
     1
  9
$DIMTVP
 40
0.0
  9
$DIMTIX
 70
     0
  9
$DIMSOXD
 70
     0
  9
$DIMSAH
 70
     0
  9
$DIMBLK1
  1

  9
$DIMBLK2
  1

  9
$DIMSTYLE
  2
STANDARD
  9
$DIMCLRD
 70
     0
  9
$DIMCLRE
 70
     0
  9
$DIMCLRT
 70
     0
  9
$DIMTFAC
 40
1.0
  9
$DIMGAP
 40
0.625
  9
$DIMJUST
 70
     0
  9
$DIMSD1
 70
     0
  9
$DIMSD2
 70
     0
  9
$DIMTOLJ
 70
     0
  9
$DIMTZIN
 70
     8
  9
$DIMALTZ
 70
     0
  9
$DIMALTTZ
 70
     0
  9
$DIMUPT
 70
     0
  9
$DIMDEC
 70
     2
  9
$DIMTDEC
 70
     2
  9
$DIMALTU
 70
     2
  9
$DIMALTTD
 70
     3
  9
$DIMTXSTY
  7
Standard
  9
$DIMAUNIT
 70
     0
  9
$DIMADEC
 70
     0
  9
$DIMALTRND
 40
0.0
  9
$DIMAZIN
 70
     0
  9
$DIMDSEP
 70
    44
  9
$DIMATFIT
 70
     0
  9
$DIMFRAC
 70
     0
  9
$DIMLDRBLK
  1

  9
$DIMLUNIT
 70
     2
  9
$DIMLWD
 70
    -2
  9
$DIMLWE
 70
    -2
  9
$DIMTMOVE
 70
     0
  9
$LUNITS
 70
     2
  9
$LUPREC
 70
     4
  9
$SKETCHINC
 40
1.0
  9
$FILLETRAD
 40
2.5
  9
$AUNITS
 70
     0
  9
$AUPREC
 70
     0
  9
$MENU
  1
.
  9
$ELEVATION
 40
0.0
  9
$PELEVATION
 40
0.0
  9
$THICKNESS
 40
0.0
  9
$LIMCHECK
 70
     0
  9
$CHAMFERA
 40
2.5
  9
$CHAMFERB
 40
2.5
  9
$CHAMFERC
 40
0.0
  9
$CHAMFERD
 40
0.0
  9
$SKPOLY
 70
     0
  9
$TDCREATE
 40
2447892.875
  9
$TDUCREATE
 40
0.0
  9
$TDUPDATE
 40
2458955.570266933
  9
$TDUUPDATE
 40
2458955.695266933
  9
$TDINDWG
 40
0.0
  9
$TDUSRTIMER
 40
0.0
  9
$USRTIMER
 70
     1
  9
$ANGBASE
 50
0.0
  9
$ANGDIR
 70
     0
  9
$PDMODE
 70
     0
  9
$PDSIZE
 40
0.0
  9
$PLINEWID
 40
0.0
  9
$SPLFRAME
 70
     0
  9
$SPLINETYPE
 70
     6
  9
$SPLINESEGS
 70
     8
  9
$HANDSEED
  5
3CE
  9
$SURFTAB1
 70
     6
  9
$SURFTAB2
 70
     6
  9
$SURFTYPE
 70
     6
  9
$SURFU
 70
     6
  9
$SURFV
 70
     6
  9
$UCSBASE
  2

  9
$UCSNAME
  2

  9
$UCSORG
 10
0.0
 20
0.0
 30
0.0
  9
$UCSXDIR
 10
1.0
 20
0.0
 30
0.0
  9
$UCSYDIR
 10
0.0
 20
1.0
 30
0.0
  9
$UCSORTHOREF
  2

  9
$UCSORTHOVIEW
 70
     1
  9
$UCSORGTOP
 10
0.0
 20
0.0
 30
0.0
  9
$UCSORGBOTTOM
 10
0.0
 20
0.0
 30
0.0
  9
$UCSORGLEFT
 10
0.0
 20
0.0
 30
0.0
  9
$UCSORGRIGHT
 10
0.0
 20
0.0
 30
0.0
  9
$UCSORGFRONT
 10
0.0
 20
0.0
 30
0.0
  9
$UCSORGBACK
 10
0.0
 20
0.0
 30
0.0
  9
$PUCSBASE
  2

  9
$PUCSNAME
  2

  9
$PUCSORG
 10
0.0
 20
0.0
 30
0.0
  9
$PUCSXDIR
 10
1.0
 20
0.0
 30
0.0
  9
$PUCSYDIR
 10
0.0
 20
1.0
 30
0.0
  9
$PUCSORTHOREF
  2

  9
$PUCSORTHOVIEW
 70
     0
  9
$PUCSORGTOP
 10
0.0
 20
0.0
 30
0.0
  9
$PUCSORGBOTTOM
 10
0.0
 20
0.0
 30
0.0
  9
$PUCSORGLEFT
 10
0.0
 20
0.0
 30
0.0
  9
$PUCSORGRIGHT
 10
0.0
 20
0.0
 30
0.0
  9
$PUCSORGFRONT
 10
0.0
 20
0.0
 30
0.0
  9
$PUCSORGBACK
 10
0.0
 20
0.0
 30
0.0
  9
$USERI1
 70
     0
  9
$USERI2
 70
     0
  9
$USERI3
 70
     0
  9
$USERI4
 70
     0
  9
$USERI5
 70
     0
  9
$USERR1
 40
0.0
  9
$USERR2
 40
0.0
  9
$USERR3
 40
0.0
  9
$USERR4
 40
0.0
  9
$USERR5
 40
0.0
  9
$WORLDVIEW
 70
     1
  9
$SHADEDGE
 70
     3
  9
$SHADEDIF
 70
    70
  9
$TILEMODE
 70
     1
  9
$MAXACTVP
 70
    64
  9
$PINSBASE
 10
0.0
 20
0.0
 30
0.0
  9
$PLIMCHECK
 70
     0
  9
$PEXTMIN
 10
0.0
 20
0.0
 30
0.0
  9
$PEXTMAX
 10
416.399994
 20
327.037994
 30
2.0
  9
$PLIMMIN
 10
0.0
 20
0.0
  9
$PLIMMAX
 10
420.0
 20
297.0
  9
$UNITMODE
 70
     0
  9
$VISRETAIN
 70
     0
  9
$PLINEGEN
 70
     0
  9
$PSLTSCALE
 70
     1
  9
$TREEDEPTH
 70
  3020
  9
$CMLSTYLE
  2
Standard
  9
$CMLJUST
 70
     0
  9
$CMLSCALE
 40
20.0
  9
$PROXYGRAPHICS
 70
     1
  9
$MEASUREMENT
 70
     1
  9
$CELWEIGHT
370
    -1
  9
$ENDCAPS
280
     0
  9
$JOINSTYLE
280
     0
  9
$LWDISPLAY
290
     0
  9
$INSUNITS
 70
     0
  9
$HYPERLINKBASE
  1

  9
$STYLESHEET
  1

  9
$XEDIT
290
     1
  9
$CEPSNTYPE
380
     0
  9
$PSTYLEMODE
290
     0
  9
$FINGERPRINTGUID
  2
{BDAA3441-5DB8-4961-83B0-4708A1B19D1F}
  9
$VERSIONGUID
  2
{FAEB1C32-E019-11D5-929B-00C0DF256EC4}
  9
$EXTNAMES
290
     1
  9
$PSVPSCALE
 40
0.0
  9
$OLESTARTUP
290
     0
  0
ENDSEC
  0
SECTION
  2
CLASSES
  0
CLASS
  1
ACDBDICTIONARYWDFLT
  2
AcDbDictionaryWithDefault
  3
ObjectDBX Classes
 90
        0
280
     0
281
     0
  0
CLASS
  1
VISUALSTYLE
  2
AcDbVisualStyle
  3
ObjectDBX Classes
 90
     4095
280
     0
281
     0
  0
CLASS
  1
MATERIAL
  2
AcDbMaterial
  3
ObjectDBX Classes
 90
     1153
280
     0
281
     0
  0
CLASS
  1
SCALE
  2
AcDbScale
  3
ObjectDBX Classes
 90
     1153
280
     0
281
     0
  0
CLASS
  1
TABLESTYLE
  2
AcDbTableStyle
  3
ObjectDBX Classes
 90
     4095
280
     0
281
     0
  0
CLASS
  1
MLEADERSTYLE
  2
AcDbMLeaderStyle
  3
ACDB_MLEADERSTYLE_CLASS
 90
     4095
280
     0
281
     0
  0
CLASS
  1
SUN
  2
AcDbSun
  3
SCENEOE
 90
     1153
280
     0
281
     0
  0
CLASS
  1
ACDBPLACEHOLDER
  2
AcDbPlaceHolder
  3
ObjectDBX Classes
 90
        0
280
     0
281
     0
  0
CLASS
  1
LAYOUT
  2
AcDbLayout
  3
ObjectDBX Classes
 90
        0
280
     0
281
     0
  0
ENDSEC
  0
SECTION
  2
TABLES
  0
TABLE
  2
VPORT
  5
8
330
0
100
AcDbSymbolTable
 70
     1
  0
VPORT
  5
29
330
8
100
AcDbSymbolTableRecord
100
AcDbViewportTableRecord
  2
*Active
 70
     0
 10
0.0
 20
0.0
 11
1.0
 21
1.0
 12
10.429907
 22
4.5
 13
0.0
 23
0.0
 14
0.5
 24
0.5
 15
0.5
 25
0.5
 16
0.0
 26
0.0
 36
1.0
 17
0.0
 27
0.0
 37
0.0
 40
9.0
 41
1.972973
 42
50.0
 43
0.0
 44
0.0
 50
0.0
 51
0.0
 71
     0
 72
   100
 73
     1
 74
     3
 75
     0
 76
     0
 77
     0
 78
     0
281
     0
 65
     1
110
0.0
120
0.0
130
0.0
111
1.0
121
0.0
131
0.0
112
0.0
122
1.0
132
0.0
 79
     0
146
0.0
  0
ENDTAB
  0
TABLE
  2
LTYPE
  5
5
330
0
100
AcDbSymbolTable
 70
     3
  0
LTYPE
  5
14
330
5
100
AcDbSymbolTableRecord
100
AcDbLinetypeTableRecord
  2
ByBlock
 70
     0
  3

 72
    65
 73
     0
 40
0.0
  0
LTYPE
  5
15
330
5
100
AcDbSymbolTableRecord
100
AcDbLinetypeTableRecord
  2
ByLayer
 70
     0
  3

 72
    65
 73
     0
 40
0.0
  0
LTYPE
  5
16
330
5
100
AcDbSymbolTableRecord
100
AcDbLinetypeTableRecord
  2
Continuous
 70
     0
  3
Solid line
 72
    65
 73
     0
 40
0.0
  0
LTYPE
  5
6F
330
5
100
AcDbSymbolTableRecord
100
AcDbLinetypeTableRecord
  2
DASHDOT
 70
     0
  3
 __ . __ . __ . __ . __ . __ . __ . 
 72
    65
 73
     4
 40
18.5
 49
12.0
 74
     0
 49
-3.0
 74
     0
 49
0.5
 74
     0
 49
-3.0
 74
     0
  0
LTYPE
  5
70
330
5
100
AcDbSymbolTableRecord
100
AcDbLinetypeTableRecord
  2
PHANTOM
 70
     0
  3
____________    ____    ____   _
 72
    65
 73
     6
 40
20.0
 49
10.0
 74
     0
 49
-2.0
 74
     0
 49
2.0
 74
     0
 49
-2.0
 74
     0
 49
2.0
 74
     0
 49
-2.0
 74
     0
  0
ENDTAB
  0
TABLE
  2
LAYER
  5
2
330
0
100
AcDbSymbolTable
 70
     1
  0
LAYER
  5
10
330
2
100
AcDbSymbolTableRecord
100
AcDbLayerTableRecord
  2
0
 70
     0
 62
     7
  6
Continuous
370
    13
390
F
  0
ENDTAB
  0
TABLE
  2
STYLE
  5
3
330
0
100
AcDbSymbolTable
 70
     2
  0
STYLE
  5
11
330
3
100
AcDbSymbolTableRecord
100
AcDbTextStyleTableRecord
  2
Standard
 70
     0
 40
0.0
 41
1.0
 50
0.0
 71
     0
 42
2.5
  3
isocp.shx
  4

  0
STYLE
  5
6E
330
3
100
AcDbSymbolTableRecord
100
AcDbTextStyleTableRecord
  2
GDT
 70
     0
 40
0.0
 41
1.0
 50
0.0
 71
     0
 42
0.2
  3
gdt.shx
  4

  0
ENDTAB
  0
TABLE
  2
VIEW
  5
6
330
0
100
AcDbSymbolTable
 70
     0
  0
ENDTAB
  0
TABLE
  2
UCS
  5
7
330
0
100
AcDbSymbolTable
 70
     0
  0
ENDTAB
  0
TABLE
  2
APPID
  5
9
330
0
100
AcDbSymbolTable
 70
     1
  0
APPID
  5
12
330
9
100
AcDbSymbolTableRecord
100
AcDbRegAppTableRecord
  2
ACAD
 70
     0
  0
ENDTAB
  0
TABLE
  2
DIMSTYLE
  5
A
330
0
100
AcDbSymbolTable
 70
     1
100
AcDbDimStyleTable
  0
DIMSTYLE
105
27
102
{ACAD_REACTORS
330
3A1
330
3A3
330
3A5
330
3A7
330
3B0
330
3B2
330
3B4
330
3B6
330
3B8
330
3BA
330
3C6
102
}
330
A
100
AcDbSymbolTableRecord
100
AcDbDimStyleTableRecord
  2
STANDARD
 70
     0
 41
2.5
 42
0.625
 43
3.75
 44
1.25
 73
     0
 74
     0
 77
     1
 78
     8
140
2.5
141
2.5
143
0.03937
147
0.625
171
     3
172
     1
178
     0
271
     2
272
     2
274
     3
278
    44
283
     0
284
     8
289
     0
340
0
  0
ENDTAB
  0
TABLE
  2
BLOCK_RECORD
  5
1
330
0
100
AcDbSymbolTable
 70
    89
  0
BLOCK_RECORD
  5
1F
330
1
100
AcDbSymbolTableRecord
100
AcDbBlockTableRecord
  2
*Model_Space
340
22
  0
BLOCK_RECORD
  5
1B
330
1
100
AcDbSymbolTableRecord
100
AcDbBlockTableRecord
  2
*Paper_Space
340
1E
  0
BLOCK_RECORD
  5
23
330
1
100
AcDbSymbolTableRecord
100
AcDbBlockTableRecord
  2
*Paper_Space0
340
26
  0
BLOCK_RECORD
  5
71
330
1
100
AcDbSymbolTableRecord
100
AcDbBlockTableRecord
  2
BLOCK1099
340
0
102
{BLKREFS
331
31C
102
}
  0
BLOCK_RECORD
  5
74
330
1
100
AcDbSymbolTableRecord
100
AcDbBlockTableRecord
  2
BLOCK1100
340
0
102
{BLKREFS
331
31D
102
}
  0
BLOCK_RECORD
  5
77
330
1
100
AcDbSymbolTableRecord
100
AcDbBlockTableRecord
  2
BLOCK1101
340
0
102
{BLKREFS
331
31E
102
}
  0
BLOCK_RECORD
  5
7A
330
1
100
AcDbSymbolTableRecord
100
AcDbBlockTableRecord
  2
BLOCK1102
340
0
102
{BLKREFS
331
31F
102
}
  0
BLOCK_RECORD
  5
7D
330
1
100
AcDbSymbolTableRecord
100
AcDbBlockTableRecord
  2
BLOCK1103
340
0
102
{BLKREFS
331
320
102
}
  0
BLOCK_RECORD
  5
80
330
1
100
AcDbSymbolTableRecord
100
AcDbBlockTableRecord
  2
BLOCK1104
340
0
102
{BLKREFS
331
321
102
}
  0
BLOCK_RECORD
  5
83
330
1
100
AcDbSymbolTableRecord
100
AcDbBlockTableRecord
  2
BLOCK1105
340
0
102
{BLKREFS
331
322
102
}
  0
BLOCK_RECORD
  5
86
330
1
100
AcDbSymbolTableRecord
100
AcDbBlockTableRecord
  2
BLOCK1106
340
0
102
{BLKREFS
331
323
102
}
  0
BLOCK_RECORD
  5
89
330
1
100
AcDbSymbolTableRecord
100
AcDbBlockTableRecord
  2
BLOCK1107
340
0
102
{BLKREFS
331
324
102
}
  0
BLOCK_RECORD
  5
8C
330
1
100
AcDbSymbolTableRecord
100
AcDbBlockTableRecord
  2
BLOCK1108
340
0
102
{BLKREFS
331
325
102
}
  0
BLOCK_RECORD
  5
8F
330
1
100
AcDbSymbolTableRecord
100
AcDbBlockTableRecord
  2
BLOCK1109
340
0
102
{BLKREFS
331
326
102
}
  0
BLOCK_RECORD
  5
92
330
1
100
AcDbSymbolTableRecord
100
AcDbBlockTableRecord
  2
BLOCK1110
340
0
102
{BLKREFS
331
327
102
}
  0
BLOCK_RECORD
  5
95
330
1
100
AcDbSymbolTableRecord
100
AcDbBlockTableRecord
  2
BLOCK1111
340
0
102
{BLKREFS
331
328
102
}
  0
BLOCK_RECORD
  5
98
330
1
100
AcDbSymbolTableRecord
100
AcDbBlockTableRecord
  2
BLOCK1112
340
0
102
{BLKREFS
331
329
102
}
  0
BLOCK_RECORD
  5
9B
330
1
100
AcDbSymbolTableRecord
100
AcDbBlockTableRecord
  2
BLOCK1113
340
0
102
{BLKREFS
331
32A
102
}
  0
BLOCK_RECORD
  5
9E
330
1
100
AcDbSymbolTableRecord
100
AcDbBlockTableRecord
  2
BLOCK1114
340
0
102
{BLKREFS
331
32B
102
}
  0
BLOCK_RECORD
  5
A1
330
1
100
AcDbSymbolTableRecord
100
AcDbBlockTableRecord
  2
BLOCK1115
340
0
102
{BLKREFS
331
32C
102
}
  0
BLOCK_RECORD
  5
A4
330
1
100
AcDbSymbolTableRecord
100
AcDbBlockTableRecord
  2
BLOCK1116
340
0
102
{BLKREFS
331
32D
102
}
  0
BLOCK_RECORD
  5
A7
330
1
100
AcDbSymbolTableRecord
100
AcDbBlockTableRecord
  2
BLOCK1117
340
0
102
{BLKREFS
331
32E
102
}
  0
BLOCK_RECORD
  5
AA
330
1
100
AcDbSymbolTableRecord
100
AcDbBlockTableRecord
  2
BLOCK1118
340
0
102
{BLKREFS
331
32F
102
}
  0
BLOCK_RECORD
  5
AD
330
1
100
AcDbSymbolTableRecord
100
AcDbBlockTableRecord
  2
BLOCK1119
340
0
102
{BLKREFS
331
330
102
}
  0
BLOCK_RECORD
  5
B0
330
1
100
AcDbSymbolTableRecord
100
AcDbBlockTableRecord
  2
BLOCK1120
340
0
102
{BLKREFS
331
331
102
}
  0
BLOCK_RECORD
  5
B3
330
1
100
AcDbSymbolTableRecord
100
AcDbBlockTableRecord
  2
BLOCK1121
340
0
102
{BLKREFS
331
332
102
}
  0
BLOCK_RECORD
  5
B6
330
1
100
AcDbSymbolTableRecord
100
AcDbBlockTableRecord
  2
BLOCK1122
340
0
102
{BLKREFS
331
333
102
}
  0
BLOCK_RECORD
  5
B9
330
1
100
AcDbSymbolTableRecord
100
AcDbBlockTableRecord
  2
BLOCK1123
340
0
102
{BLKREFS
331
334
102
}
  0
BLOCK_RECORD
  5
BC
330
1
100
AcDbSymbolTableRecord
100
AcDbBlockTableRecord
  2
BLOCK1124
340
0
102
{BLKREFS
331
335
102
}
  0
BLOCK_RECORD
  5
BF
330
1
100
AcDbSymbolTableRecord
100
AcDbBlockTableRecord
  2
BLOCK1125
340
0
102
{BLKREFS
331
336
102
}
  0
BLOCK_RECORD
  5
C2
330
1
100
AcDbSymbolTableRecord
100
AcDbBlockTableRecord
  2
BLOCK1126
340
0
102
{BLKREFS
331
337
102
}
  0
BLOCK_RECORD
  5
C5
330
1
100
AcDbSymbolTableRecord
100
AcDbBlockTableRecord
  2
BLOCK1127
340
0
102
{BLKREFS
331
338
102
}
  0
BLOCK_RECORD
  5
C8
330
1
100
AcDbSymbolTableRecord
100
AcDbBlockTableRecord
  2
BLOCK1128
340
0
102
{BLKREFS
331
339
102
}
  0
BLOCK_RECORD
  5
CB
330
1
100
AcDbSymbolTableRecord
100
AcDbBlockTableRecord
  2
BLOCK1129
340
0
102
{BLKREFS
331
33A
102
}
  0
BLOCK_RECORD
  5
CE
330
1
100
AcDbSymbolTableRecord
100
AcDbBlockTableRecord
  2
BLOCK1130
340
0
102
{BLKREFS
331
33B
102
}
  0
BLOCK_RECORD
  5
D1
330
1
100
AcDbSymbolTableRecord
100
AcDbBlockTableRecord
  2
BLOCK1131
340
0
102
{BLKREFS
331
33C
102
}
  0
BLOCK_RECORD
  5
D4
330
1
100
AcDbSymbolTableRecord
100
AcDbBlockTableRecord
  2
BLOCK1132
340
0
102
{BLKREFS
331
33D
102
}
  0
BLOCK_RECORD
  5
D7
330
1
100
AcDbSymbolTableRecord
100
AcDbBlockTableRecord
  2
BLOCK1133
340
0
102
{BLKREFS
331
33E
102
}
  0
BLOCK_RECORD
  5
DA
330
1
100
AcDbSymbolTableRecord
100
AcDbBlockTableRecord
  2
BLOCK1134
340
0
102
{BLKREFS
331
33F
102
}
  0
BLOCK_RECORD
  5
DD
330
1
100
AcDbSymbolTableRecord
100
AcDbBlockTableRecord
  2
BLOCK1135
340
0
102
{BLKREFS
331
340
102
}
  0
BLOCK_RECORD
  5
E0
330
1
100
AcDbSymbolTableRecord
100
AcDbBlockTableRecord
  2
BLOCK1136
340
0
102
{BLKREFS
331
341
102
}
  0
BLOCK_RECORD
  5
E3
330
1
100
AcDbSymbolTableRecord
100
AcDbBlockTableRecord
  2
BLOCK1137
340
0
102
{BLKREFS
331
342
102
}
  0
BLOCK_RECORD
  5
E6
330
1
100
AcDbSymbolTableRecord
100
AcDbBlockTableRecord
  2
BLOCK1138
340
0
102
{BLKREFS
331
343
102
}
  0
BLOCK_RECORD
  5
E9
330
1
100
AcDbSymbolTableRecord
100
AcDbBlockTableRecord
  2
BLOCK1139
340
0
102
{BLKREFS
331
344
102
}
  0
BLOCK_RECORD
  5
EC
330
1
100
AcDbSymbolTableRecord
100
AcDbBlockTableRecord
  2
BLOCK1140
340
0
102
{BLKREFS
331
345
102
}
  0
BLOCK_RECORD
  5
EF
330
1
100
AcDbSymbolTableRecord
100
AcDbBlockTableRecord
  2
BLOCK1141
340
0
102
{BLKREFS
331
346
102
}
  0
BLOCK_RECORD
  5
F2
330
1
100
AcDbSymbolTableRecord
100
AcDbBlockTableRecord
  2
BLOCK1142
340
0
102
{BLKREFS
331
347
102
}
  0
BLOCK_RECORD
  5
F5
330
1
100
AcDbSymbolTableRecord
100
AcDbBlockTableRecord
  2
BLOCK1143
340
0
102
{BLKREFS
331
348
102
}
  0
BLOCK_RECORD
  5
F8
330
1
100
AcDbSymbolTableRecord
100
AcDbBlockTableRecord
  2
BLOCK1144
340
0
102
{BLKREFS
331
349
102
}
  0
BLOCK_RECORD
  5
FB
330
1
100
AcDbSymbolTableRecord
100
AcDbBlockTableRecord
  2
BLOCK1145
340
0
102
{BLKREFS
331
34A
102
}
  0
BLOCK_RECORD
  5
FE
330
1
100
AcDbSymbolTableRecord
100
AcDbBlockTableRecord
  2
BLOCK1146
340
0
102
{BLKREFS
331
34B
102
}
  0
BLOCK_RECORD
  5
101
330
1
100
AcDbSymbolTableRecord
100
AcDbBlockTableRecord
  2
BLOCK1147
340
0
102
{BLKREFS
331
34C
102
}
  0
BLOCK_RECORD
  5
104
330
1
100
AcDbSymbolTableRecord
100
AcDbBlockTableRecord
  2
BLOCK1148
340
0
102
{BLKREFS
331
34D
102
}
  0
BLOCK_RECORD
  5
107
330
1
100
AcDbSymbolTableRecord
100
AcDbBlockTableRecord
  2
BLOCK1149
340
0
102
{BLKREFS
331
34E
102
}
  0
BLOCK_RECORD
  5
10A
330
1
100
AcDbSymbolTableRecord
100
AcDbBlockTableRecord
  2
BLOCK1150
340
0
102
{BLKREFS
331
34F
102
}
  0
BLOCK_RECORD
  5
10D
330
1
100
AcDbSymbolTableRecord
100
AcDbBlockTableRecord
  2
BLOCK1151
340
0
102
{BLKREFS
331
350
102
}
  0
BLOCK_RECORD
  5
110
330
1
100
AcDbSymbolTableRecord
100
AcDbBlockTableRecord
  2
BLOCK1152
340
0
102
{BLKREFS
331
351
102
}
  0
BLOCK_RECORD
  5
113
330
1
100
AcDbSymbolTableRecord
100
AcDbBlockTableRecord
  2
BLOCK1153
340
0
102
{BLKREFS
331
352
102
}
  0
BLOCK_RECORD
  5
116
330
1
100
AcDbSymbolTableRecord
100
AcDbBlockTableRecord
  2
BLOCK1154
340
0
102
{BLKREFS
331
353
102
}
  0
BLOCK_RECORD
  5
119
330
1
100
AcDbSymbolTableRecord
100
AcDbBlockTableRecord
  2
BLOCK1155
340
0
102
{BLKREFS
331
354
102
}
  0
BLOCK_RECORD
  5
11C
330
1
100
AcDbSymbolTableRecord
100
AcDbBlockTableRecord
  2
BLOCK1156
340
0
102
{BLKREFS
331
355
102
}
  0
BLOCK_RECORD
  5
11F
330
1
100
AcDbSymbolTableRecord
100
AcDbBlockTableRecord
  2
BLOCK1157
340
0
102
{BLKREFS
331
356
102
}
  0
BLOCK_RECORD
  5
122
330
1
100
AcDbSymbolTableRecord
100
AcDbBlockTableRecord
  2
BLOCK1158
340
0
102
{BLKREFS
331
39F
102
}
  0
BLOCK_RECORD
  5
125
330
1
100
AcDbSymbolTableRecord
100
AcDbBlockTableRecord
  2
BLOCK1159
340
0
102
{BLKREFS
331
3A0
102
}
  0
BLOCK_RECORD
  5
128
330
1
100
AcDbSymbolTableRecord
100
AcDbBlockTableRecord
  2
*D62
340
0
  0
BLOCK_RECORD
  5
12B
330
1
100
AcDbSymbolTableRecord
100
AcDbBlockTableRecord
  2
*D63
340
0
  0
BLOCK_RECORD
  5
12E
330
1
100
AcDbSymbolTableRecord
100
AcDbBlockTableRecord
  2
*D64
340
0
  0
BLOCK_RECORD
  5
131
330
1
100
AcDbSymbolTableRecord
100
AcDbBlockTableRecord
  2
*D65
340
0
  0
BLOCK_RECORD
  5
134
330
1
100
AcDbSymbolTableRecord
100
AcDbBlockTableRecord
  2
BLOCK1160
340
0
102
{BLKREFS
331
3AA
102
}
  0
BLOCK_RECORD
  5
137
330
1
100
AcDbSymbolTableRecord
100
AcDbBlockTableRecord
  2
BLOCK1161
340
0
102
{BLKREFS
331
3AB
102
}
  0
BLOCK_RECORD
  5
13A
330
1
100
AcDbSymbolTableRecord
100
AcDbBlockTableRecord
  2
BLOCK1162
340
0
102
{BLKREFS
331
3AC
102
}
  0
BLOCK_RECORD
  5
13D
330
1
100
AcDbSymbolTableRecord
100
AcDbBlockTableRecord
  2
BLOCK1163
340
0
102
{BLKREFS
331
3AE
102
}
  0
BLOCK_RECORD
  5
140
330
1
100
AcDbSymbolTableRecord
100
AcDbBlockTableRecord
  2
BLOCK1164
340
0
102
{BLKREFS
331
3AF
102
}
  0
BLOCK_RECORD
  5
143
330
1
100
AcDbSymbolTableRecord
100
AcDbBlockTableRecord
  2
*D71
340
0
  0
BLOCK_RECORD
  5
146
330
1
100
AcDbSymbolTableRecord
100
AcDbBlockTableRecord
  2
*D72
340
0
  0
BLOCK_RECORD
  5
149
330
1
100
AcDbSymbolTableRecord
100
AcDbBlockTableRecord
  2
*D73
340
0
  0
BLOCK_RECORD
  5
14C
330
1
100
AcDbSymbolTableRecord
100
AcDbBlockTableRecord
  2
*D74
340
0
  0
BLOCK_RECORD
  5
14F
330
1
100
AcDbSymbolTableRecord
100
AcDbBlockTableRecord
  2
*D75
340
0
  0
BLOCK_RECORD
  5
152
330
1
100
AcDbSymbolTableRecord
100
AcDbBlockTableRecord
  2
*D76
340
0
  0
BLOCK_RECORD
  5
155
330
1
100
AcDbSymbolTableRecord
100
AcDbBlockTableRecord
  2
BLOCK1165
340
0
102
{BLKREFS
331
3BE
102
}
  0
BLOCK_RECORD
  5
158
330
1
100
AcDbSymbolTableRecord
100
AcDbBlockTableRecord
  2
BLOCK1166
340
0
102
{BLKREFS
331
3BF
102
}
  0
BLOCK_RECORD
  5
15B
330
1
100
AcDbSymbolTableRecord
100
AcDbBlockTableRecord
  2
BLOCK1167
340
0
102
{BLKREFS
331
3C0
102
}
  0
BLOCK_RECORD
  5
15E
330
1
100
AcDbSymbolTableRecord
100
AcDbBlockTableRecord
  2
BLOCK1168
340
0
102
{BLKREFS
331
3C1
102
}
  0
BLOCK_RECORD
  5
161
330
1
100
AcDbSymbolTableRecord
100
AcDbBlockTableRecord
  2
BLOCK1169
340
0
102
{BLKREFS
331
3C2
102
}
  0
BLOCK_RECORD
  5
164
330
1
100
AcDbSymbolTableRecord
100
AcDbBlockTableRecord
  2
BLOCK1170
340
0
102
{BLKREFS
331
3C3
102
}
  0
BLOCK_RECORD
  5
167
330
1
100
AcDbSymbolTableRecord
100
AcDbBlockTableRecord
  2
BLOCK1171
340
0
102
{BLKREFS
331
3C4
102
}
  0
BLOCK_RECORD
  5
16A
330
1
100
AcDbSymbolTableRecord
100
AcDbBlockTableRecord
  2
BLOCK1172
340
0
102
{BLKREFS
331
3C5
102
}
  0
BLOCK_RECORD
  5
16D
330
1
100
AcDbSymbolTableRecord
100
AcDbBlockTableRecord
  2
*D85
340
0
  0
BLOCK_RECORD
  5
170
330
1
100
AcDbSymbolTableRecord
100
AcDbBlockTableRecord
  2
BLOCK1173
340
0
102
{BLKREFS
331
3CB
102
}
  0
BLOCK_RECORD
  5
173
330
1
100
AcDbSymbolTableRecord
100
AcDbBlockTableRecord
  2
BLOCK1174
340
0
102
{BLKREFS
331
3CC
102
}
  0
BLOCK_RECORD
  5
176
330
1
100
AcDbSymbolTableRecord
100
AcDbBlockTableRecord
  2
BLOCK1175
340
0
102
{BLKREFS
331
3CD
102
}
  0
ENDTAB
  0
ENDSEC
  0
SECTION
  2
BLOCKS
  0
BLOCK
  5
20
330
1F
100
AcDbEntity
  8
0
100
AcDbBlockBegin
  2
*Model_Space
 70
     0
 10
0.0
 20
0.0
 30
0.0
  3
*Model_Space
  1

  0
ENDBLK
  5
21
330
1F
100
AcDbEntity
  8
0
100
AcDbBlockEnd
  0
BLOCK
  5
1C
330
1B
100
AcDbEntity
 67
     1
  8
0
100
AcDbBlockBegin
  2
*Paper_Space
 70
     0
 10
0.0
 20
0.0
 30
0.0
  3
*Paper_Space
  1

  0
ENDBLK
  5
1D
330
1B
100
AcDbEntity
 67
     1
  8
0
100
AcDbBlockEnd
  0
BLOCK
  5
24
330
23
100
AcDbEntity
  8
0
100
AcDbBlockBegin
  2
*Paper_Space0
 70
     0
 10
0.0
 20
0.0
 30
0.0
  3
*Paper_Space0
  1

  0
ENDBLK
  5
25
330
23
100
AcDbEntity
  8
0
100
AcDbBlockEnd
  0
BLOCK
  5
72
330
71
100
AcDbEntity
  8
0
100
AcDbBlockBegin
  2
BLOCK1099
 70
     0
 10
0.0
 20
0.0
 30
0.0
  3
BLOCK1099
  1

  0
TEXT
  5
179
330
71
100
AcDbEntity
  8
0
 62
     7
370
    18
100
AcDbText
 10
392.176208
 20
3.076224
 30
0.0
 40
3.5
  1
A
 41
1.110901
 72
     5
 11
395.323761
 21
3.076224
 31
0.0
100
AcDbText
  0
ENDBLK
  5
73
330
71
100
AcDbEntity
  8
0
100
AcDbBlockEnd
  0
BLOCK
  5
75
330
74
100
AcDbEntity
  8
0
100
AcDbBlockBegin
  2
BLOCK1100
 70
     0
 10
0.0
 20
0.0
 30
0.0
  3
BLOCK1100
  1

  0
TEXT
  5
17A
330
74
100
AcDbEntity
  8
0
 62
     7
370
    18
100
AcDbText
 10
24.85
 20
3.076224
 30
0.0
 40
3.5
  1
H
 41
0.933334
 72
     5
 11
27.650002
 21
3.076224
 31
0.0
100
AcDbText
  0
ENDBLK
  5
76
330
74
100
AcDbEntity
  8
0
100
AcDbBlockEnd
  0
BLOCK
  5
78
330
77
100
AcDbEntity
  8
0
100
AcDbBlockBegin
  2
BLOCK1101
 70
     0
 10
0.0
 20
0.0
 30
0.0
  3
BLOCK1101
  1

  0
TEXT
  5
17B
330
77
100
AcDbEntity
  8
0
 62
     7
370
    18
100
AcDbText
 10
339.850006
 20
3.076224
 30
0.0
 40
3.5
  1
B
 41
0.933329
 72
     5
 11
342.649994
 21
3.076224
 31
0.0
100
AcDbText
  0
ENDBLK
  5
79
330
77
100
AcDbEntity
  8
0
100
AcDbBlockEnd
  0
BLOCK
  5
7B
330
7A
100
AcDbEntity
  8
0
100
AcDbBlockBegin
  2
BLOCK1102
 70
     0
 10
0.0
 20
0.0
 30
0.0
  3
BLOCK1102
  1

  0
TEXT
  5
17C
330
7A
100
AcDbEntity
  8
0
 62
     7
370
    18
100
AcDbText
 10
77.349998
 20
3.076224
 30
0.0
 40
3.5
  1
G
 41
0.933334
 72
     5
 11
80.150002
 21
3.076224
 31
0.0
100
AcDbText
  0
ENDBLK
  5
7C
330
7A
100
AcDbEntity
  8
0
100
AcDbBlockEnd
  0
BLOCK
  5
7E
330
7D
100
AcDbEntity
  8
0
100
AcDbBlockBegin
  2
BLOCK1103
 70
     0
 10
0.0
 20
0.0
 30
0.0
  3
BLOCK1103
  1

  0
TEXT
  5
17D
330
7D
100
AcDbEntity
  8
0
 62
     7
370
    18
100
AcDbText
 10
238.173782
 20
290.600006
 30
0.0
 40
3.5
  1
D
 50
90.0
 41
0.933329
 72
     5
 11
238.173782
 21
293.399994
 31
0.0
100
AcDbText
  0
ENDBLK
  5
7F
330
7D
100
AcDbEntity
  8
0
100
AcDbBlockEnd
  0
BLOCK
  5
81
330
80
100
AcDbEntity
  8
0
100
AcDbBlockBegin
  2
BLOCK1104
 70
     0
 10
0.0
 20
0.0
 30
0.0
  3
BLOCK1104
  1

  0
TEXT
  5
17E
330
80
100
AcDbEntity
  8
0
 62
     7
370
    18
100
AcDbText
 10
185.673782
 20
290.776215
 30
0.0
 40
3.5
  1
E
 50
90.0
 41
0.863838
 72
     5
 11
185.673782
 21
293.223755
 31
0.0
100
AcDbText
  0
ENDBLK
  5
82
330
80
100
AcDbEntity
  8
0
100
AcDbBlockEnd
  0
BLOCK
  5
84
330
83
100
AcDbEntity
  8
0
100
AcDbBlockBegin
  2
BLOCK1105
 70
     0
 10
0.0
 20
0.0
 30
0.0
  3
BLOCK1105
  1

  0
TEXT
  5
17F
330
83
100
AcDbEntity
  8
0
 62
     7
370
    18
100
AcDbText
 10
290.673767
 20
290.776215
 30
0.0
 40
3.5
  1
C
 50
90.0
 41
0.815847
 72
     5
 11
290.673767
 21
293.223755
 31
0.0
100
AcDbText
  0
ENDBLK
  5
85
330
83
100
AcDbEntity
  8
0
100
AcDbBlockEnd
  0
BLOCK
  5
87
330
86
100
AcDbEntity
  8
0
100
AcDbBlockBegin
  2
BLOCK1106
 70
     0
 10
0.0
 20
0.0
 30
0.0
  3
BLOCK1106
  1

  0
TEXT
  5
180
330
86
100
AcDbEntity
  8
0
 62
     7
370
    18
100
AcDbText
 10
133.173782
 20
290.776215
 30
0.0
 40
3.5
  1
F
 50
90.0
 41
0.863838
 72
     5
 11
133.173782
 21
293.223755
 31
0.0
100
AcDbText
  0
ENDBLK
  5
88
330
86
100
AcDbEntity
  8
0
100
AcDbBlockEnd
  0
BLOCK
  5
8A
330
89
100
AcDbEntity
  8
0
100
AcDbBlockBegin
  2
BLOCK1107
 70
     0
 10
0.0
 20
0.0
 30
0.0
  3
BLOCK1107
  1

  0
TEXT
  5
181
330
89
100
AcDbEntity
  8
0
 62
     7
370
    18
100
AcDbText
 10
343.173767
 20
290.600006
 30
0.0
 40
3.5
  1
B
 50
90.0
 41
0.933329
 72
     5
 11
343.173767
 21
293.399994
 31
0.0
100
AcDbText
  0
ENDBLK
  5
8B
330
89
100
AcDbEntity
  8
0
100
AcDbBlockEnd
  0
BLOCK
  5
8D
330
8C
100
AcDbEntity
  8
0
100
AcDbBlockBegin
  2
BLOCK1108
 70
     0
 10
0.0
 20
0.0
 30
0.0
  3
BLOCK1108
  1

  0
TEXT
  5
182
330
8C
100
AcDbEntity
  8
0
 62
     7
370
    18
100
AcDbText
 10
80.673775
 20
290.600006
 30
0.0
 40
3.5
  1
G
 50
90.0
 41
0.933329
 72
     5
 11
80.673775
 21
293.399994
 31
0.0
100
AcDbText
  0
ENDBLK
  5
8E
330
8C
100
AcDbEntity
  8
0
100
AcDbBlockEnd
  0
BLOCK
  5
90
330
8F
100
AcDbEntity
  8
0
100
AcDbBlockBegin
  2
BLOCK1109
 70
     0
 10
0.0
 20
0.0
 30
0.0
  3
BLOCK1109
  1

  0
TEXT
  5
183
330
8F
100
AcDbEntity
  8
0
 62
     7
370
    18
100
AcDbText
 10
395.673767
 20
290.426208
 30
0.0
 40
3.5
  1
A
 50
90.0
 41
1.110901
 72
     5
 11
395.673767
 21
293.573761
 31
0.0
100
AcDbText
  0
ENDBLK
  5
91
330
8F
100
AcDbEntity
  8
0
100
AcDbBlockEnd
  0
BLOCK
  5
93
330
92
100
AcDbEntity
  8
0
100
AcDbBlockBegin
  2
BLOCK1110
 70
     0
 10
0.0
 20
0.0
 30
0.0
  3
BLOCK1110
  1

  0
TEXT
  5
184
330
92
100
AcDbEntity
  8
0
 62
     7
370
    18
100
AcDbText
 10
28.173777
 20
290.600006
 30
0.0
 40
3.5
  1
H
 50
90.0
 41
0.933329
 72
     5
 11
28.173777
 21
293.399994
 31
0.0
100
AcDbText
  0
ENDBLK
  5
94
330
92
100
AcDbEntity
  8
0
100
AcDbBlockEnd
  0
BLOCK
  5
96
330
95
100
AcDbEntity
  8
0
100
AcDbBlockBegin
  2
BLOCK1111
 70
     0
 10
0.0
 20
0.0
 30
0.0
  3
BLOCK1111
  1

  0
TEXT
  5
185
330
95
100
AcDbEntity
  8
0
 62
     7
370
    18
100
AcDbText
 10
413.776215
 20
183.676224
 30
0.0
 40
3.5
  1
3
 41
0.863838
 72
     5
 11
416.223755
 21
183.676224
 31
0.0
100
AcDbText
  0
ENDBLK
  5
97
330
95
100
AcDbEntity
  8
0
100
AcDbBlockEnd
  0
BLOCK
  5
99
330
98
100
AcDbEntity
  8
0
100
AcDbBlockBegin
  2
BLOCK1112
 70
     0
 10
0.0
 20
0.0
 30
0.0
  3
BLOCK1112
  1

  0
TEXT
  5
186
330
98
100
AcDbEntity
  8
0
 62
     7
370
    18
100
AcDbText
 10
6.923776
 20
184.376236
 30
0.0
 40
3.5
  1
3
 50
90.0
 41
0.863843
 72
     5
 11
6.923776
 21
186.823792
 31
0.0
100
AcDbText
  0
ENDBLK
  5
9A
330
98
100
AcDbEntity
  8
0
100
AcDbBlockEnd
  0
BLOCK
  5
9C
330
9B
100
AcDbEntity
  8
0
100
AcDbBlockBegin
  2
BLOCK1113
 70
     0
 10
0.0
 20
0.0
 30
0.0
  3
BLOCK1113
  1

  0
TEXT
  5
187
330
9B
100
AcDbEntity
  8
0
 62
     7
370
    18
100
AcDbText
 10
413.776215
 20
109.476227
 30
0.0
 40
3.5
  1
2
 41
0.863838
 72
     5
 11
416.223755
 21
109.476227
 31
0.0
100
AcDbText
  0
ENDBLK
  5
9D
330
9B
100
AcDbEntity
  8
0
100
AcDbBlockEnd
  0
BLOCK
  5
9F
330
9E
100
AcDbEntity
  8
0
100
AcDbBlockBegin
  2
BLOCK1114
 70
     0
 10
0.0
 20
0.0
 30
0.0
  3
BLOCK1114
  1

  0
TEXT
  5
188
330
9E
100
AcDbEntity
  8
0
 62
     7
370
    18
100
AcDbText
 10
6.923776
 20
110.176224
 30
0.0
 40
3.5
  1
2
 50
90.0
 41
0.863843
 72
     5
 11
6.923776
 21
112.623779
 31
0.0
100
AcDbText
  0
ENDBLK
  5
A0
330
9E
100
AcDbEntity
  8
0
100
AcDbBlockEnd
  0
BLOCK
  5
A2
330
A1
100
AcDbEntity
  8
0
100
AcDbBlockBegin
  2
BLOCK1115
 70
     0
 10
0.0
 20
0.0
 30
0.0
  3
BLOCK1115
  1

  0
TEXT
  5
189
330
A1
100
AcDbEntity
  8
0
 62
     7
370
    18
100
AcDbText
 10
413.600006
 20
257.876221
 30
0.0
 40
3.5
  1
4
 41
0.933329
 72
     5
 11
416.399994
 21
257.876221
 31
0.0
100
AcDbText
  0
ENDBLK
  5
A3
330
A1
100
AcDbEntity
  8
0
100
AcDbBlockEnd
  0
BLOCK
  5
A5
330
A4
100
AcDbEntity
  8
0
100
AcDbBlockBegin
  2
BLOCK1116
 70
     0
 10
0.0
 20
0.0
 30
0.0
  3
BLOCK1116
  1

  0
TEXT
  5
18A
330
A4
100
AcDbEntity
  8
0
 62
     7
370
    18
100
AcDbText
 10
6.923776
 20
258.399994
 30
0.0
 40
3.5
  1
4
 50
90.0
 41
0.933329
 72
     5
 11
6.923776
 21
261.199982
 31
0.0
100
AcDbText
  0
ENDBLK
  5
A6
330
A4
100
AcDbEntity
  8
0
100
AcDbBlockEnd
  0
BLOCK
  5
A8
330
A7
100
AcDbEntity
  8
0
100
AcDbBlockBegin
  2
BLOCK1117
 70
     0
 10
0.0
 20
0.0
 30
0.0
  3
BLOCK1117
  1

  0
TEXT
  5
18B
330
A7
100
AcDbEntity
  8
0
 62
     7
370
    18
100
AcDbText
 10
414.126221
 20
35.276226
 30
0.0
 40
3.5
  1
1
 41
0.953214
 72
     5
 11
415.873779
 21
35.276226
 31
0.0
100
AcDbText
  0
ENDBLK
  5
A9
330
A7
100
AcDbEntity
  8
0
100
AcDbBlockEnd
  0
BLOCK
  5
AB
330
AA
100
AcDbEntity
  8
0
100
AcDbBlockBegin
  2
BLOCK1118
 70
     0
 10
0.0
 20
0.0
 30
0.0
  3
BLOCK1118
  1

  0
TEXT
  5
18C
330
AA
100
AcDbEntity
  8
0
 62
     7
370
    18
100
AcDbText
 10
6.923776
 20
36.326225
 30
0.0
 40
3.5
  1
1
 50
90.0
 41
0.95321
 72
     5
 11
6.923776
 21
38.073776
 31
0.0
100
AcDbText
  0
ENDBLK
  5
AC
330
AA
100
AcDbEntity
  8
0
100
AcDbBlockEnd
  0
BLOCK
  5
AE
330
AD
100
AcDbEntity
  8
0
100
AcDbBlockBegin
  2
BLOCK1119
 70
     0
 10
0.0
 20
0.0
 30
0.0
  3
BLOCK1119
  1

  0
TEXT
  5
18D
330
AD
100
AcDbEntity
  8
0
 62
     7
370
    18
100
AcDbText
 10
221.0
 20
11.175525
 30
0.0
 40
1.5
  1
This drawing is our property; it can't be reproduced or communicated without our written agreement.
 41
0.779092
 72
     5
 11
315.437073
 21
11.175525
 31
0.0
100
AcDbText
  0
ENDBLK
  5
AF
330
AD
100
AcDbEntity
  8
0
100
AcDbBlockEnd
  0
BLOCK
  5
B1
330
B0
100
AcDbEntity
  8
0
100
AcDbBlockBegin
  2
BLOCK1120
 70
     0
 10
0.0
 20
0.0
 30
0.0
  3
BLOCK1120
  1

  0
TEXT
  5
18E
330
B0
100
AcDbEntity
  8
0
 62
     7
370
    18
100
AcDbText
 10
221.0
 20
24.751049
 30
0.0
 40
1.5
  1
SCALE
 41
0.857432
 72
     5
 11
226.695801
 21
24.751049
 31
0.0
100
AcDbText
  0
ENDBLK
  5
B2
330
B0
100
AcDbEntity
  8
0
100
AcDbBlockEnd
  0
BLOCK
  5
B4
330
B3
100
AcDbEntity
  8
0
100
AcDbBlockBegin
  2
BLOCK1121
 70
     0
 10
0.0
 20
0.0
 30
0.0
  3
BLOCK1121
  1

  0
TEXT
  5
18F
330
B3
100
AcDbEntity
  8
0
 62
     7
370
    18
100
AcDbText
 10
219.755249
 20
16.0
 30
0.0
 40
5.0
  1
  1:1
 41
0.632
 72
     5
 11
232.244766
 21
16.0
 31
0.0
100
AcDbText
  0
ENDBLK
  5
B5
330
B3
100
AcDbEntity
  8
0
100
AcDbBlockEnd
  0
BLOCK
  5
B7
330
B6
100
AcDbEntity
  8
0
100
AcDbBlockBegin
  2
BLOCK1122
 70
     0
 10
0.0
 20
0.0
 30
0.0
  3
BLOCK1122
  1

  0
TEXT
  5
190
330
B6
100
AcDbEntity
  8
0
 62
     7
370
    18
100
AcDbText
 10
241.0
 20
24.751049
 30
0.0
 40
1.5
  1
WEIGHT (kg)
 41
0.802234
 72
     5
 11
251.944763
 21
24.751049
 31
0.0
100
AcDbText
  0
ENDBLK
  5
B8
330
B6
100
AcDbEntity
  8
0
100
AcDbBlockEnd
  0
BLOCK
  5
BA
330
B9
100
AcDbEntity
  8
0
100
AcDbBlockBegin
  2
BLOCK1123
 70
     0
 10
0.0
 20
0.0
 30
0.0
  3
BLOCK1123
  1

  0
TEXT
  5
191
330
B9
100
AcDbEntity
  8
0
 62
     7
370
    18
100
AcDbText
 10
246.381119
 20
16.0
 30
0.0
 40
5.0
  1
0,27
 41
0.767144
 72
     5
 11
258.618896
 21
16.0
 31
0.0
100
AcDbText
  0
ENDBLK
  5
BB
330
B9
100
AcDbEntity
  8
0
100
AcDbBlockEnd
  0
BLOCK
  5
BD
330
BC
100
AcDbEntity
  8
0
100
AcDbBlockBegin
  2
BLOCK1124
 70
     0
 10
0.0
 20
0.0
 30
0.0
  3
BLOCK1124
  1

  0
TEXT
  5
192
330
BC
100
AcDbEntity
  8
0
 62
     7
370
    18
100
AcDbText
 10
266.0
 20
24.751049
 30
0.0
 40
1.5
  1
MATERIAL
 41
0.899371
 72
     5
 11
274.993713
 21
24.751049
 31
0.0
100
AcDbText
  0
ENDBLK
  5
BE
330
BC
100
AcDbEntity
  8
0
100
AcDbBlockEnd
  0
BLOCK
  5
C0
330
BF
100
AcDbEntity
  8
0
100
AcDbBlockBegin
  2
BLOCK1125
 70
     0
 10
0.0
 20
0.0
 30
0.0
  3
BLOCK1125
  1

  0
TEXT
  5
193
330
BF
100
AcDbEntity
  8
0
 62
     7
370
    18
100
AcDbText
 10
303.405579
 20
15.6
 30
0.0
 40
4.0
  1
AÇO INOX
 41
0.822576
 72
     5
 11
326.594391
 21
15.6
 31
0.0
100
AcDbText
  0
ENDBLK
  5
C1
330
BF
100
AcDbEntity
  8
0
100
AcDbBlockEnd
  0
BLOCK
  5
C3
330
C2
100
AcDbEntity
  8
0
100
AcDbBlockBegin
  2
BLOCK1126
 70
     0
 10
0.0
 20
0.0
 30
0.0
  3
BLOCK1126
  1

  0
TEXT
  5
194
330
C2
100
AcDbEntity
  8
0
 62
     7
370
    18
100
AcDbText
 10
366.0
 20
24.751049
 30
0.0
 40
1.5
  1
SHEET
 41
0.839691
 72
     5
 11
371.697906
 21
24.751049
 31
0.0
100
AcDbText
  0
ENDBLK
  5
C4
330
C2
100
AcDbEntity
  8
0
100
AcDbBlockEnd
  0
BLOCK
  5
C6
330
C5
100
AcDbEntity
  8
0
100
AcDbBlockBegin
  2
BLOCK1127
 70
     0
 10
0.0
 20
0.0
 30
0.0
  3
BLOCK1127
  1

  0
TEXT
  5
195
330
C5
100
AcDbEntity
  8
0
 62
     7
370
    18
100
AcDbText
 10
370.755249
 20
16.0
 30
0.0
 40
5.0
  1
1/1
 41
0.672753
 72
     5
 11
379.244751
 21
16.0
 31
0.0
100
AcDbText
  0
ENDBLK
  5
C7
330
C5
100
AcDbEntity
  8
0
100
AcDbBlockEnd
  0
BLOCK
  5
C9
330
C8
100
AcDbEntity
  8
0
100
AcDbBlockBegin
  2
BLOCK1128
 70
     0
 10
0.0
 20
0.0
 30
0.0
  3
BLOCK1128
  1

  0
TEXT
  5
196
330
C8
100
AcDbEntity
  8
0
 62
     7
370
    18
100
AcDbText
 10
221.0
 20
37.751049
 30
0.0
 40
1.5
  1
SIZE
 41
0.839548
 72
     5
 11
224.897903
 21
37.751049
 31
0.0
100
AcDbText
  0
ENDBLK
  5
CA
330
C8
100
AcDbEntity
  8
0
100
AcDbBlockEnd
  0
BLOCK
  5
CC
330
CB
100
AcDbEntity
  8
0
100
AcDbBlockBegin
  2
BLOCK1129
 70
     0
 10
0.0
 20
0.0
 30
0.0
  3
BLOCK1129
  1

  0
TEXT
  5
197
330
CB
100
AcDbEntity
  8
0
 62
     7
370
    18
100
AcDbText
 10
226.003494
 20
31.0
 30
0.0
 40
5.0
  1
A3
 41
0.959161
 72
     5
 11
233.996506
 21
31.0
 31
0.0
100
AcDbText
  0
ENDBLK
  5
CD
330
CB
100
AcDbEntity
  8
0
100
AcDbBlockEnd
  0
BLOCK
  5
CF
330
CE
100
AcDbEntity
  8
0
100
AcDbBlockBegin
  2
BLOCK1130
 70
     0
 10
0.0
 20
0.0
 30
0.0
  3
BLOCK1130
  1

  0
TEXT
  5
198
330
CE
100
AcDbEntity
  8
0
 62
     7
370
    18
100
AcDbText
 10
300.510498
 20
30.751749
 30
0.0
 40
5.0
  1
OXYGEN BRASIL
 41
0.832841
 72
     5
 11
349.489502
 21
30.751749
 31
0.0
100
AcDbText
  0
ENDBLK
  5
D0
330
CE
100
AcDbEntity
  8
0
100
AcDbBlockEnd
  0
BLOCK
  5
D2
330
D1
100
AcDbEntity
  8
0
100
AcDbBlockBegin
  2
BLOCK1131
 70
     0
 10
0.0
 20
0.0
 30
0.0
  3
BLOCK1131
  1

  0
TEXT
  5
199
330
D1
100
AcDbEntity
  8
0
 62
     7
370
    18
100
AcDbText
 10
221.0
 20
52.751049
 30
0.0
 40
1.5
  1
CHECKED BY:
 41
0.779581
 72
     5
 11
232.69371
 21
52.751049
 31
0.0
100
AcDbText
  0
ENDBLK
  5
D3
330
D1
100
AcDbEntity
  8
0
100
AcDbBlockEnd
  0
BLOCK
  5
D5
330
D4
100
AcDbEntity
  8
0
100
AcDbBlockBegin
  2
BLOCK1132
 70
     0
 10
0.0
 20
0.0
 30
0.0
  3
BLOCK1132
  1

  0
TEXT
  5
19A
330
D4
100
AcDbEntity
  8
0
 62
     7
370
    18
100
AcDbText
 10
238.45314
 20
48.700001
 30
0.0
 40
3.0
  1
XXX
 41
0.993964
 72
     5
 11
246.546844
 21
48.700001
 31
0.0
100
AcDbText
  0
ENDBLK
  5
D6
330
D4
100
AcDbEntity
  8
0
100
AcDbBlockEnd
  0
BLOCK
  5
D8
330
D7
100
AcDbEntity
  8
0
100
AcDbBlockBegin
  2
BLOCK1133
 70
     0
 10
0.0
 20
0.0
 30
0.0
  3
BLOCK1133
  1

  0
TEXT
  5
19B
330
D7
100
AcDbEntity
  8
0
 62
     7
370
    18
100
AcDbText
 10
221.0
 20
45.251049
 30
0.0
 40
1.5
  1
DATE:
 41
0.9182
 72
     5
 11
226.246857
 21
45.251049
 31
0.0
100
AcDbText
  0
ENDBLK
  5
D9
330
D7
100
AcDbEntity
  8
0
100
AcDbBlockEnd
  0
BLOCK
  5
DB
330
DA
100
AcDbEntity
  8
0
100
AcDbBlockBegin
  2
BLOCK1134
 70
     0
 10
0.0
 20
0.0
 30
0.0
  3
BLOCK1134
  1

  0
TEXT
  5
19C
330
DA
100
AcDbEntity
  8
0
 62
     7
370
    18
100
AcDbText
 10
238.45314
 20
41.200001
 30
0.0
 40
3.0
  1
XXX
 41
0.993964
 72
     5
 11
246.546844
 21
41.200001
 31
0.0
100
AcDbText
  0
ENDBLK
  5
DC
330
DA
100
AcDbEntity
  8
0
100
AcDbBlockEnd
  0
BLOCK
  5
DE
330
DD
100
AcDbEntity
  8
0
100
AcDbBlockBegin
  2
BLOCK1135
 70
     0
 10
0.0
 20
0.0
 30
0.0
  3
BLOCK1135
  1

  0
TEXT
  5
19D
330
DD
100
AcDbEntity
  8
0
 62
     7
370
    18
100
AcDbText
 10
221.0
 20
67.751053
 30
0.0
 40
1.5
  1
DESIGNED BY:
 41
0.802887
 72
     5
 11
233.444748
 21
67.751053
 31
0.0
100
AcDbText
  0
ENDBLK
  5
DF
330
DD
100
AcDbEntity
  8
0
100
AcDbBlockEnd
  0
BLOCK
  5
E1
330
E0
100
AcDbEntity
  8
0
100
AcDbBlockBegin
  2
BLOCK1136
 70
     0
 10
0.0
 20
0.0
 30
0.0
  3
BLOCK1136
  1

  0
TEXT
  5
19E
330
E0
100
AcDbEntity
  8
0
 62
     7
370
    18
100
AcDbText
 10
224.80629
 20
63.700001
 30
0.0
 40
3.0
  1
VOLUNT. ANONIMOS
 41
0.817531
 72
     5
 11
260.193695
 21
63.700001
 31
0.0
100
AcDbText
  0
ENDBLK
  5
E2
330
E0
100
AcDbEntity
  8
0
100
AcDbBlockEnd
  0
BLOCK
  5
E4
330
E3
100
AcDbEntity
  8
0
100
AcDbBlockBegin
  2
BLOCK1137
 70
     0
 10
0.0
 20
0.0
 30
0.0
  3
BLOCK1137
  1

  0
TEXT
  5
19F
330
E3
100
AcDbEntity
  8
0
 62
     7
370
    18
100
AcDbText
 10
221.0
 20
60.251049
 30
0.0
 40
1.5
  1
DATE:
 41
0.9182
 72
     5
 11
226.246857
 21
60.251049
 31
0.0
100
AcDbText
  0
ENDBLK
  5
E5
330
E3
100
AcDbEntity
  8
0
100
AcDbBlockEnd
  0
BLOCK
  5
E7
330
E6
100
AcDbEntity
  8
0
100
AcDbBlockBegin
  2
BLOCK1138
 70
     0
 10
0.0
 20
0.0
 30
0.0
  3
BLOCK1138
  1

  0
TEXT
  5
1A0
330
E6
100
AcDbEntity
  8
0
 62
     7
370
    18
100
AcDbText
 10
231.859436
 20
56.200001
 30
0.0
 40
3.0
  1
09/04/2020
 41
0.741134
 72
     5
 11
253.140564
 21
56.200001
 31
0.0
100
AcDbText
  0
ENDBLK
  5
E8
330
E6
100
AcDbEntity
  8
0
100
AcDbBlockEnd
  0
BLOCK
  5
EA
330
E9
100
AcDbEntity
  8
0
100
AcDbBlockBegin
  2
BLOCK1139
 70
     0
 10
0.0
 20
0.0
 30
0.0
  3
BLOCK1139
  1

  0
TEXT
  5
1A1
330
E9
100
AcDbEntity
  8
0
 62
     7
370
    18
100
AcDbText
 10
268.324493
 20
51.152447
 30
0.0
 40
7.0
  1
BASE POSICIONADOR CAME
 41
0.798247
 72
     5
 11
381.675537
 21
51.152447
 31
0.0
100
AcDbText
  0
ENDBLK
  5
EB
330
E9
100
AcDbEntity
  8
0
100
AcDbBlockEnd
  0
BLOCK
  5
ED
330
EC
100
AcDbEntity
  8
0
100
AcDbBlockBegin
  2
BLOCK1140
 70
     0
 10
0.0
 20
0.0
 30
0.0
  3
BLOCK1140
  1

  0
TEXT
  5
1A2
330
EC
100
AcDbEntity
  8
0
 62
     7
370
    18
100
AcDbText
 10
386.375885
 20
11.959208
 30
0.0
 40
2.5
  1
A
 41
1.110905
 72
     5
 11
388.624146
 21
11.959208
 31
0.0
100
AcDbText
  0
ENDBLK
  5
EE
330
EC
100
AcDbEntity
  8
0
100
AcDbBlockEnd
  0
BLOCK
  5
F0
330
EF
100
AcDbEntity
  8
0
100
AcDbBlockBegin
  2
BLOCK1141
 70
     0
 10
0.0
 20
0.0
 30
0.0
  3
BLOCK1141
  1

  0
TEXT
  5
1A3
330
EF
100
AcDbEntity
  8
0
 62
     7
370
    18
100
AcDbText
 10
399.100708
 20
12.234033
 30
0.0
 40
2.0
  1
_
 41
1.180341
 72
     5
 11
400.899323
 21
12.234033
 31
0.0
100
AcDbText
  0
ENDBLK
  5
F1
330
EF
100
AcDbEntity
  8
0
100
AcDbBlockEnd
  0
BLOCK
  5
F3
330
F2
100
AcDbEntity
  8
0
100
AcDbBlockBegin
  2
BLOCK1142
 70
     0
 10
0.0
 20
0.0
 30
0.0
  3
BLOCK1142
  1

  0
TEXT
  5
1A4
330
F2
100
AcDbEntity
  8
0
 62
     7
370
    18
100
AcDbText
 10
386.5
 20
18.625874
 30
0.0
 40
2.5
  1
B
 41
0.933333
 72
     5
 11
388.5
 21
18.625874
 31
0.0
100
AcDbText
  0
ENDBLK
  5
F4
330
F2
100
AcDbEntity
  8
0
100
AcDbBlockEnd
  0
BLOCK
  5
F6
330
F5
100
AcDbEntity
  8
0
100
AcDbBlockBegin
  2
BLOCK1143
 70
     0
 10
0.0
 20
0.0
 30
0.0
  3
BLOCK1143
  1

  0
TEXT
  5
1A5
330
F5
100
AcDbEntity
  8
0
 62
     7
370
    18
100
AcDbText
 10
399.100708
 20
18.9007
 30
0.0
 40
2.0
  1
_
 41
1.180341
 72
     5
 11
400.899323
 21
18.9007
 31
0.0
100
AcDbText
  0
ENDBLK
  5
F7
330
F5
100
AcDbEntity
  8
0
100
AcDbBlockEnd
  0
BLOCK
  5
F9
330
F8
100
AcDbEntity
  8
0
100
AcDbBlockBegin
  2
BLOCK1144
 70
     0
 10
0.0
 20
0.0
 30
0.0
  3
BLOCK1144
  1

  0
TEXT
  5
1A6
330
F8
100
AcDbEntity
  8
0
 62
     7
370
    18
100
AcDbText
 10
386.625885
 20
25.29254
 30
0.0
 40
2.5
  1
C
 41
0.815855
 72
     5
 11
388.374146
 21
25.29254
 31
0.0
100
AcDbText
  0
ENDBLK
  5
FA
330
F8
100
AcDbEntity
  8
0
100
AcDbBlockEnd
  0
BLOCK
  5
FC
330
FB
100
AcDbEntity
  8
0
100
AcDbBlockBegin
  2
BLOCK1145
 70
     0
 10
0.0
 20
0.0
 30
0.0
  3
BLOCK1145
  1

  0
TEXT
  5
1A7
330
FB
100
AcDbEntity
  8
0
 62
     7
370
    18
100
AcDbText
 10
399.100708
 20
25.567366
 30
0.0
 40
2.0
  1
_
 41
1.180341
 72
     5
 11
400.899323
 21
25.567366
 31
0.0
100
AcDbText
  0
ENDBLK
  5
FD
330
FB
100
AcDbEntity
  8
0
100
AcDbBlockEnd
  0
BLOCK
  5
FF
330
FE
100
AcDbEntity
  8
0
100
AcDbBlockBegin
  2
BLOCK1146
 70
     0
 10
0.0
 20
0.0
 30
0.0
  3
BLOCK1146
  1

  0
TEXT
  5
1A8
330
FE
100
AcDbEntity
  8
0
 62
     7
370
    18
100
AcDbText
 10
386.5
 20
31.959206
 30
0.0
 40
2.5
  1
D
 41
0.933333
 72
     5
 11
388.5
 21
31.959206
 31
0.0
100
AcDbText
  0
ENDBLK
  5
100
330
FE
100
AcDbEntity
  8
0
100
AcDbBlockEnd
  0
BLOCK
  5
102
330
101
100
AcDbEntity
  8
0
100
AcDbBlockBegin
  2
BLOCK1147
 70
     0
 10
0.0
 20
0.0
 30
0.0
  3
BLOCK1147
  1

  0
TEXT
  5
1A9
330
101
100
AcDbEntity
  8
0
 62
     7
370
    18
100
AcDbText
 10
399.100708
 20
32.234032
 30
0.0
 40
2.0
  1
_
 41
1.180341
 72
     5
 11
400.899323
 21
32.234032
 31
0.0
100
AcDbText
  0
ENDBLK
  5
103
330
101
100
AcDbEntity
  8
0
100
AcDbBlockEnd
  0
BLOCK
  5
105
330
104
100
AcDbEntity
  8
0
100
AcDbBlockBegin
  2
BLOCK1148
 70
     0
 10
0.0
 20
0.0
 30
0.0
  3
BLOCK1148
  1

  0
TEXT
  5
1AA
330
104
100
AcDbEntity
  8
0
 62
     7
370
    18
100
AcDbText
 10
386.625885
 20
38.625874
 30
0.0
 40
2.5
  1
E
 41
0.863846
 72
     5
 11
388.374146
 21
38.625874
 31
0.0
100
AcDbText
  0
ENDBLK
  5
106
330
104
100
AcDbEntity
  8
0
100
AcDbBlockEnd
  0
BLOCK
  5
108
330
107
100
AcDbEntity
  8
0
100
AcDbBlockBegin
  2
BLOCK1149
 70
     0
 10
0.0
 20
0.0
 30
0.0
  3
BLOCK1149
  1

  0
TEXT
  5
1AB
330
107
100
AcDbEntity
  8
0
 62
     7
370
    18
100
AcDbText
 10
399.100708
 20
38.9007
 30
0.0
 40
2.0
  1
_
 41
1.180341
 72
     5
 11
400.899323
 21
38.9007
 31
0.0
100
AcDbText
  0
ENDBLK
  5
109
330
107
100
AcDbEntity
  8
0
100
AcDbBlockEnd
  0
BLOCK
  5
10B
330
10A
100
AcDbEntity
  8
0
100
AcDbBlockBegin
  2
BLOCK1150
 70
     0
 10
0.0
 20
0.0
 30
0.0
  3
BLOCK1150
  1

  0
TEXT
  5
1AC
330
10A
100
AcDbEntity
  8
0
 62
     7
370
    18
100
AcDbText
 10
386.625885
 20
45.292542
 30
0.0
 40
2.5
  1
F
 41
0.863846
 72
     5
 11
388.374146
 21
45.292542
 31
0.0
100
AcDbText
  0
ENDBLK
  5
10C
330
10A
100
AcDbEntity
  8
0
100
AcDbBlockEnd
  0
BLOCK
  5
10E
330
10D
100
AcDbEntity
  8
0
100
AcDbBlockBegin
  2
BLOCK1151
 70
     0
 10
0.0
 20
0.0
 30
0.0
  3
BLOCK1151
  1

  0
TEXT
  5
1AD
330
10D
100
AcDbEntity
  8
0
 62
     7
370
    18
100
AcDbText
 10
399.100708
 20
45.567368
 30
0.0
 40
2.0
  1
_
 41
1.180341
 72
     5
 11
400.899323
 21
45.567368
 31
0.0
100
AcDbText
  0
ENDBLK
  5
10F
330
10D
100
AcDbEntity
  8
0
100
AcDbBlockEnd
  0
BLOCK
  5
111
330
110
100
AcDbEntity
  8
0
100
AcDbBlockBegin
  2
BLOCK1152
 70
     0
 10
0.0
 20
0.0
 30
0.0
  3
BLOCK1152
  1

  0
TEXT
  5
1AE
330
110
100
AcDbEntity
  8
0
 62
     7
370
    18
100
AcDbText
 10
386.5
 20
51.959206
 30
0.0
 40
2.5
  1
G
 41
0.933333
 72
     5
 11
388.5
 21
51.959206
 31
0.0
100
AcDbText
  0
ENDBLK
  5
112
330
110
100
AcDbEntity
  8
0
100
AcDbBlockEnd
  0
BLOCK
  5
114
330
113
100
AcDbEntity
  8
0
100
AcDbBlockBegin
  2
BLOCK1153
 70
     0
 10
0.0
 20
0.0
 30
0.0
  3
BLOCK1153
  1

  0
TEXT
  5
1AF
330
113
100
AcDbEntity
  8
0
 62
     7
370
    18
100
AcDbText
 10
399.100708
 20
52.234032
 30
0.0
 40
2.0
  1
_
 41
1.180341
 72
     5
 11
400.899323
 21
52.234032
 31
0.0
100
AcDbText
  0
ENDBLK
  5
115
330
113
100
AcDbEntity
  8
0
100
AcDbBlockEnd
  0
BLOCK
  5
117
330
116
100
AcDbEntity
  8
0
100
AcDbBlockBegin
  2
BLOCK1154
 70
     0
 10
0.0
 20
0.0
 30
0.0
  3
BLOCK1154
  1

  0
TEXT
  5
1B0
330
116
100
AcDbEntity
  8
0
 62
     7
370
    18
100
AcDbText
 10
386.5
 20
58.625874
 30
0.0
 40
2.5
  1
H
 41
0.933333
 72
     5
 11
388.5
 21
58.625874
 31
0.0
100
AcDbText
  0
ENDBLK
  5
118
330
116
100
AcDbEntity
  8
0
100
AcDbBlockEnd
  0
BLOCK
  5
11A
330
119
100
AcDbEntity
  8
0
100
AcDbBlockBegin
  2
BLOCK1155
 70
     0
 10
0.0
 20
0.0
 30
0.0
  3
BLOCK1155
  1

  0
TEXT
  5
1B1
330
119
100
AcDbEntity
  8
0
 62
     7
370
    18
100
AcDbText
 10
399.100708
 20
58.9007
 30
0.0
 40
2.0
  1
_
 41
1.180341
 72
     5
 11
400.899323
 21
58.9007
 31
0.0
100
AcDbText
  0
ENDBLK
  5
11B
330
119
100
AcDbEntity
  8
0
100
AcDbBlockEnd
  0
BLOCK
  5
11D
330
11C
100
AcDbEntity
  8
0
100
AcDbBlockBegin
  2
BLOCK1156
 70
     0
 10
0.0
 20
0.0
 30
0.0
  3
BLOCK1156
  1

  0
TEXT
  5
1B2
330
11C
100
AcDbEntity
  8
0
 62
     7
370
    18
100
AcDbText
 10
387.125885
 20
65.292542
 30
0.0
 40
2.5
  1
I
 41
1.571347
 72
     5
 11
387.874146
 21
65.292542
 31
0.0
100
AcDbText
  0
ENDBLK
  5
11E
330
11C
100
AcDbEntity
  8
0
100
AcDbBlockEnd
  0
BLOCK
  5
120
330
11F
100
AcDbEntity
  8
0
100
AcDbBlockBegin
  2
BLOCK1157
 70
     0
 10
0.0
 20
0.0
 30
0.0
  3
BLOCK1157
  1

  0
TEXT
  5
1B3
330
11F
100
AcDbEntity
  8
0
 62
     7
370
    18
100
AcDbText
 10
399.100708
 20
65.56736
 30
0.0
 40
2.0
  1
_
 41
1.180341
 72
     5
 11
400.899323
 21
65.56736
 31
0.0
100
AcDbText
  0
ENDBLK
  5
121
330
11F
100
AcDbEntity
  8
0
100
AcDbBlockEnd
  0
BLOCK
  5
123
330
122
100
AcDbEntity
  8
0
100
AcDbBlockBegin
  2
BLOCK1158
 70
     0
 10
0.0
 20
0.0
 30
0.0
  3
BLOCK1158
  1

  0
LINE
  5
1B4
330
122
100
AcDbEntity
  8
0
 62
     7
370
    35
100
AcDbLine
 10
-102.051308
 20
308.969086
 30
0.0
 11
-102.045601
 21
303.969086
 31
0.0
  0
LINE
  5
1B5
330
122
100
AcDbEntity
  8
0
 62
     7
370
    35
100
AcDbLine
 10
-101.961334
 20
230.110886
 30
0.0
 11
-101.967041
 21
235.110886
 31
0.0
  0
LINE
  5
1B6
330
122
100
AcDbEntity
  8
0
  6
DASHDOT
 62
     7
370
    18
100
AcDbLine
 10
-102.045601
 20
303.969086
 30
0.0
 11
-101.967041
 21
235.110886
 31
0.0
  0
LINE
  5
1B7
330
122
100
AcDbEntity
  8
0
 62
     7
370
    18
100
AcDbLine
 10
-106.395119
 20
306.464111
 30
0.0
 11
-122.048439
 21
306.446259
 31
0.0
  0
SOLID
  5
1B8
330
122
100
AcDbEntity
  8
0
 62
     7
370
    18
100
AcDbTrace
 10
-106.393791
 20
305.299438
 30
0.0
 11
-102.048454
 21
306.469086
 31
0.0
 12
-106.396446
 22
307.628784
 32
0.0
 13
-106.396446
 23
307.628784
 33
0.0
  0
TEXT
  5
1B9
330
122
100
AcDbEntity
  8
0
 62
     7
370
    18
100
AcDbText
 10
-115.381653
 20
309.094086
 30
0.0
 40
5.0
  1
A
 41
1.110901
 72
     5
 11
-110.885147
 21
309.094086
 31
0.0
100
AcDbText
  0
LINE
  5
1BA
330
122
100
AcDbEntity
  8
0
 62
     7
370
    18
100
AcDbLine
 10
-106.310852
 20
232.605927
 30
0.0
 11
-121.964172
 21
232.588074
 31
0.0
  0
SOLID
  5
1BB
330
122
100
AcDbEntity
  8
0
 62
     7
370
    18
100
AcDbTrace
 10
-106.309525
 20
231.441238
 30
0.0
 11
-101.964188
 21
232.610886
 31
0.0
 12
-106.31218
 22
233.770615
 32
0.0
 13
-106.31218
 23
233.770615
 33
0.0
  0
TEXT
  5
1BC
330
122
100
AcDbEntity
  8
0
 62
     7
370
    18
100
AcDbText
 10
-122.665077
 20
225.917908
 30
0.0
 40
5.0
  1
A
 41
1.110901
 72
     5
 11
-118.168571
 21
225.917908
 31
0.0
100
AcDbText
  0
ENDBLK
  5
124
330
122
100
AcDbEntity
  8
0
100
AcDbBlockEnd
  0
BLOCK
  5
126
330
125
100
AcDbEntity
  8
0
100
AcDbBlockBegin
  2
BLOCK1159
 70
     0
 10
0.0
 20
0.0
 30
0.0
  3
BLOCK1159
  1

  0
LINE
  5
1BD
330
125
100
AcDbEntity
  8
0
 62
     7
370
    35
100
AcDbLine
 10
-64.025856
 20
243.51796
 30
0.0
 11
-68.426544
 21
245.891541
 31
0.0
  0
LINE
  5
1BE
330
125
100
AcDbEntity
  8
0
 62
     7
370
    35
100
AcDbLine
 10
-136.700348
 20
282.716248
 30
0.0
 11
-132.299652
 21
280.342651
 31
0.0
  0
LINE
  5
1BF
330
125
100
AcDbEntity
  8
0
  6
DASHDOT
 62
     7
370
    18
100
AcDbLine
 10
-68.426544
 20
245.891541
 30
0.0
 11
-132.299652
 21
280.342651
 31
0.0
  0
LINE
  5
1C0
330
125
100
AcDbEntity
  8
0
 62
     7
370
    18
100
AcDbLine
 10
-64.162766
 20
248.530426
 30
0.0
 11
-56.731838
 21
262.307526
 31
0.0
  0
SOLID
  5
1C1
330
125
100
AcDbEntity
  8
0
 62
     7
370
    18
100
AcDbTrace
 10
-65.187851
 20
249.083328
 30
0.0
 11
-66.226204
 21
244.704758
 31
0.0
 12
-63.13768
 22
247.977524
 32
0.0
 13
-63.13768
 23
247.977524
 33
0.0
  0
TEXT
  5
1C2
330
125
100
AcDbEntity
  8
0
 62
     7
370
    18
100
AcDbText
 10
-66.207054
 20
257.685944
 30
0.0
 40
5.0
  1
B
 41
0.933333
 72
     5
 11
-62.207054
 21
257.685944
 31
0.0
100
AcDbText
  0
LINE
  5
1C3
330
125
100
AcDbEntity
  8
0
 62
     7
370
    18
100
AcDbLine
 10
-132.436554
 20
285.355103
 30
0.0
 11
-125.005638
 21
299.132202
 31
0.0
  0
SOLID
  5
1C4
330
125
100
AcDbEntity
  8
0
 62
     7
370
    18
100
AcDbTrace
 10
-133.461639
 20
285.90799
 30
0.0
 11
-134.5
 21
281.529449
 31
0.0
 12
-131.411469
 22
284.802216
 32
0.0
 13
-131.411469
 23
284.802216
 33
0.0
  0
TEXT
  5
1C5
330
125
100
AcDbEntity
  8
0
 62
     7
370
    18
100
AcDbText
 10
-134.48085
 20
294.51062
 30
0.0
 40
5.0
  1
B
 41
0.933333
 72
     5
 11
-130.48085
 21
294.51062
 31
0.0
100
AcDbText
  0
ENDBLK
  5
127
330
125
100
AcDbEntity
  8
0
100
AcDbBlockEnd
  0
BLOCK
  5
129
330
128
100
AcDbEntity
  8
0
100
AcDbBlockBegin
  2
*D62
 70
     1
 10
0.0
 20
0.0
 30
0.0
  3
*D62
  1

  0
SOLID
  5
1C6
330
128
100
AcDbEntity
  8
0
 62
     7
370
    18
100
AcDbTrace
 10
61.293671
 20
198.163599
 30
0.0
 11
62.214882
 21
201.018655
 31
0.0
 12
61.293671
 22
198.163599
 32
0.0
 13
59.989563
 23
199.006708
 33
0.0
  0
SOLID
  5
1C7
330
128
100
AcDbEntity
  8
0
 62
     7
370
    18
100
AcDbTrace
 10
90.282227
 20
245.862863
 30
0.0
 11
89.361015
 21
243.007791
 31
0.0
 12
90.282227
 22
245.862863
 32
0.0
 13
91.586334
 23
245.019754
 33
0.0
  0
TEXT
  5
1C8
330
128
100
AcDbEntity
  8
0
 62
     7
370
    18
100
AcDbText
 10
106.282623
 20
258.93107
 30
0.0
 40
3.5
  1
50
 41
0.793802
 72
     5
 11
111.177734
 21
258.93107
 31
0.0
100
AcDbText
  0
TEXT
  5
1C9
330
128
100
AcDbEntity
  8
0
 62
     7
370
    18
100
AcDbText
 10
102.715958
 20
258.93107
 30
0.0
 40
3.5
  1
%%c
 41
0.905882
 72
     5
 11
105.282623
 21
258.93107
 31
0.0
100
AcDbText
  0
LINE
  5
1CA
330
128
100
AcDbEntity
  8
0
 62
     7
370
    18
100
AcDbLine
 10
97.715958
 20
255.93107
 30
0.0
 11
111.177727
 21
255.93107
 31
0.0
  0
LINE
  5
1CB
330
128
100
AcDbEntity
  8
0
 62
     7
370
    18
100
AcDbLine
 10
59.500275
 20
196.819742
 30
0.0
 11
60.641617
 21
198.585153
 31
0.0
  0
LINE
  5
1CC
330
128
100
AcDbEntity
  8
0
 62
     7
370
    18
100
AcDbLine
 10
62.214882
 20
201.018655
 30
0.0
 11
89.361015
 21
243.007791
 31
0.0
  0
LINE
  5
1CD
330
128
100
AcDbEntity
  8
0
 62
     7
370
    18
100
AcDbLine
 10
90.934288
 20
245.441293
 30
0.0
 11
97.715958
 21
255.93107
 31
0.0
  0
POLYLINE
  5
1CE
330
128
100
AcDbEntity
  8
0
 62
     7
370
    18
100
AcDb2dPolyline
 66
     1
 10
0.0
 20
0.0
 30
0.0
 70
     1
  0
VERTEX
  5
1CF
330
1CE
100
AcDbEntity
  8
0
370
     0
100
AcDbVertex
100
AcDb2dVertex
 10
61.293671
 20
198.163599
 30
0.0
  0
VERTEX
  5
1D0
330
1CE
100
AcDbEntity
  8
0
370
     0
100
AcDbVertex
100
AcDb2dVertex
 10
62.214882
 20
201.018655
 30
0.0
  0
VERTEX
  5
1D1
330
1CE
100
AcDbEntity
  8
0
370
     0
100
AcDbVertex
100
AcDb2dVertex
 10
59.989563
 20
199.006708
 30
0.0
  0
SEQEND
  5
1D2
330
1CE
100
AcDbEntity
  8
0
 62
     7
370
    18
  0
POLYLINE
  5
1D3
330
128
100
AcDbEntity
  8
0
 62
     7
370
    18
100
AcDb2dPolyline
 66
     1
 10
0.0
 20
0.0
 30
0.0
 70
     1
  0
VERTEX
  5
1D4
330
1D3
100
AcDbEntity
  8
0
370
     0
100
AcDbVertex
100
AcDb2dVertex
 10
90.282227
 20
245.862863
 30
0.0
  0
VERTEX
  5
1D5
330
1D3
100
AcDbEntity
  8
0
370
     0
100
AcDbVertex
100
AcDb2dVertex
 10
89.361015
 20
243.007791
 30
0.0
  0
VERTEX
  5
1D6
330
1D3
100
AcDbEntity
  8
0
370
     0
100
AcDbVertex
100
AcDb2dVertex
 10
91.586334
 20
245.019754
 30
0.0
  0
SEQEND
  5
1D7
330
1D3
100
AcDbEntity
  8
0
 62
     7
370
    18
  0
ENDBLK
  5
12A
330
128
100
AcDbEntity
  8
0
100
AcDbBlockEnd
  0
BLOCK
  5
12C
330
12B
100
AcDbEntity
  8
0
100
AcDbBlockBegin
  2
*D63
 70
     1
 10
0.0
 20
0.0
 30
0.0
  3
*D63
  1

  0
SOLID
  5
1D8
330
12B
100
AcDbEntity
  8
0
 62
     7
370
    18
100
AcDbTrace
 10
87.410576
 20
209.275491
 30
0.0
 11
89.244507
 21
211.649667
 31
0.0
 12
87.410576
 22
209.275491
 32
0.0
 13
86.469185
 23
210.510538
 33
0.0
  0
SOLID
  5
1D9
330
12B
100
AcDbEntity
  8
0
 62
     7
370
    18
100
AcDbTrace
 10
95.850281
 20
217.661081
 30
0.0
 11
94.01635
 21
215.286905
 31
0.0
 12
95.850281
 22
217.661081
 32
0.0
 13
96.791664
 23
216.426035
 33
0.0
  0
TEXT
  5
1DA
330
12B
100
AcDbEntity
  8
0
 62
     7
370
    18
100
AcDbText
 10
127.215145
 20
237.062235
 30
0.0
 40
3.5
  1
6
 41
0.863843
 72
     5
 11
129.662701
 21
237.062235
 31
0.0
100
AcDbText
  0
TEXT
  5
1DB
330
12B
100
AcDbEntity
  8
0
 62
     7
370
    18
100
AcDbText
 10
131.412701
 20
237.062235
 30
0.0
 40
3.5
  1
H7
 41
0.807316
 72
     5
 11
136.660252
 21
237.062235
 31
0.0
100
AcDbText
  0
TEXT
  5
1DC
330
12B
100
AcDbEntity
  8
0
 62
     7
370
    18
100
AcDbText
 10
143.660252
 20
242.312235
 30
0.0
 40
3.5
  1
+0,012
 41
0.677604
 72
     5
 11
156.421791
 21
242.312235
 31
0.0
100
AcDbText
  0
TEXT
  5
1DD
330
12B
100
AcDbEntity
  8
0
 62
     7
370
    18
100
AcDbText
 10
143.660252
 20
237.062235
 30
0.0
 40
3.5
  1
 0
 41
0.718035
 72
     5
 11
148.207806
 21
237.062235
 31
0.0
100
AcDbText
  0
TEXT
  5
1DE
330
12B
100
AcDbEntity
  8
0
 62
     7
370
    18
100
AcDbText
 10
134.910252
 20
237.062235
 30
0.0
 40
8.75
  1
(
 41
1.909091
 72
     5
 11
143.660252
 21
237.062235
 31
0.0
100
AcDbText
  0
TEXT
  5
1DF
330
12B
100
AcDbEntity
  8
0
 62
     7
370
    18
100
AcDbText
 10
156.421791
 20
237.062235
 30
0.0
 40
8.75
  1
)
 41
2.1
 72
     5
 11
165.171791
 21
237.062235
 31
0.0
100
AcDbText
  0
TEXT
  5
1E0
330
12B
100
AcDbEntity
  8
0
 62
     7
370
    18
100
AcDbText
 10
123.648479
 20
237.062235
 30
0.0
 40
3.5
  1
%%c
 41
0.905882
 72
     5
 11
126.215145
 21
237.062235
 31
0.0
100
AcDbText
  0
TEXT
  5
1E1
330
12B
100
AcDbEntity
  8
0
 62
     7
370
    18
100
AcDbText
 10
117.753376
 20
237.062235
 30
0.0
 40
3.5
  1
2x
 41
0.863842
 72
     5
 11
122.648479
 21
237.062235
 31
0.0
100
AcDbText
  0
LINE
  5
1E2
330
12B
100
AcDbEntity
  8
0
 62
     7
370
    18
100
AcDbLine
 10
118.648479
 20
234.062235
 30
0.0
 11
165.171791
 21
234.062235
 31
0.0
  0
LINE
  5
1E3
330
12B
100
AcDbEntity
  8
0
 62
     7
370
    18
100
AcDbLine
 10
85.267967
 20
208.618631
 30
0.0
 11
86.93988
 21
209.893015
 31
0.0
  0
LINE
  5
1E4
330
12B
100
AcDbEntity
  8
0
 62
     7
370
    18
100
AcDbLine
 10
89.244507
 20
211.649667
 30
0.0
 11
94.01635
 21
215.286905
 31
0.0
  0
LINE
  5
1E5
330
12B
100
AcDbEntity
  8
0
 62
     7
370
    18
100
AcDbLine
 10
96.320976
 20
217.043558
 30
0.0
 11
118.648479
 21
234.062235
 31
0.0
  0
POLYLINE
  5
1E6
330
12B
100
AcDbEntity
  8
0
 62
     7
370
    18
100
AcDb2dPolyline
 66
     1
 10
0.0
 20
0.0
 30
0.0
 70
     1
  0
VERTEX
  5
1E7
330
1E6
100
AcDbEntity
  8
0
370
     0
100
AcDbVertex
100
AcDb2dVertex
 10
87.410576
 20
209.275491
 30
0.0
  0
VERTEX
  5
1E8
330
1E6
100
AcDbEntity
  8
0
370
     0
100
AcDbVertex
100
AcDb2dVertex
 10
89.244507
 20
211.649667
 30
0.0
  0
VERTEX
  5
1E9
330
1E6
100
AcDbEntity
  8
0
370
     0
100
AcDbVertex
100
AcDb2dVertex
 10
86.469185
 20
210.510538
 30
0.0
  0
SEQEND
  5
1EA
330
1E6
100
AcDbEntity
  8
0
 62
     7
370
    18
  0
POLYLINE
  5
1EB
330
12B
100
AcDbEntity
  8
0
 62
     7
370
    18
100
AcDb2dPolyline
 66
     1
 10
0.0
 20
0.0
 30
0.0
 70
     1
  0
VERTEX
  5
1EC
330
1EB
100
AcDbEntity
  8
0
370
     0
100
AcDbVertex
100
AcDb2dVertex
 10
95.850281
 20
217.661081
 30
0.0
  0
VERTEX
  5
1ED
330
1EB
100
AcDbEntity
  8
0
370
     0
100
AcDbVertex
100
AcDb2dVertex
 10
94.01635
 20
215.286905
 30
0.0
  0
VERTEX
  5
1EE
330
1EB
100
AcDbEntity
  8
0
370
     0
100
AcDbVertex
100
AcDb2dVertex
 10
96.791664
 20
216.426035
 30
0.0
  0
SEQEND
  5
1EF
330
1EB
100
AcDbEntity
  8
0
 62
     7
370
    18
  0
ENDBLK
  5
12D
330
12B
100
AcDbEntity
  8
0
100
AcDbBlockEnd
  0
BLOCK
  5
12F
330
12E
100
AcDbEntity
  8
0
100
AcDbBlockBegin
  2
*D64
 70
     1
 10
0.0
 20
0.0
 30
0.0
  3
*D64
  1

  0
SOLID
  5
1F0
330
12E
100
AcDbEntity
  8
0
 62
     7
370
    18
100
AcDbTrace
 10
72.890175
 20
281.124796
 30
0.0
 11
75.787949
 21
281.901254
 31
0.0
 12
72.890175
 22
281.124796
 32
0.0
 13
72.890175
 23
282.677713
 33
0.0
  0
SOLID
  5
1F1
330
12E
100
AcDbEntity
  8
0
 62
     7
370
    18
100
AcDbTrace
 10
23.770447
 20
253.362192
 30
0.0
 11
23.078217
 21
250.443155
 31
0.0
 12
23.770447
 22
253.362192
 32
0.0
 13
25.137238
 23
252.624979
 33
0.0
  0
TEXT
  5
1F2
330
12E
100
AcDbEntity
  8
0
 62
     7
370
    18
100
AcDbText
 10
28.510574
 20
280.531656
 30
0.0
 40
3.5
  1
61,7
 41
0.704456
 72
     5
 11
36.376999
 21
280.531656
 31
0.0
100
AcDbText
  0
TEXT
  5
1F3
330
12E
100
AcDbEntity
  8
0
 62
     7
370
    18
100
AcDbText
 10
36.376999
 20
280.531656
 30
0.0
 40
3.5
  1
%%d
 41
3.080017
 72
     5
 11
38.94368
 21
280.531656
 31
0.0
100
AcDbText
  0
TEXT
  5
1F4
330
12E
100
AcDbEntity
  8
0
 62
     7
370
    18
100
AcDbText
 10
40.69368
 20
280.531656
 30
0.0
 40
3.5
  1
%%p0,1
 41
0.704456
 72
     5
 11
48.560104
 21
280.531656
 31
0.0
100
AcDbText
  0
TEXT
  5
1F5
330
12E
100
AcDbEntity
  8
0
 62
     7
370
    18
100
AcDbText
 10
48.560104
 20
280.531656
 30
0.0
 40
3.5
  1
%%d
 41
3.080008
 72
     5
 11
51.126778
 21
280.531656
 31
0.0
100
AcDbText
  0
LINE
  5
1F6
330
12E
100
AcDbEntity
  8
0
 62
     7
370
    18
100
AcDbLine
 10
75.787949
 20
254.513223
 30
0.0
 11
75.787949
 21
283.901254
 31
0.0
  0
LINE
  5
1F7
330
12E
100
AcDbEntity
  8
0
 62
     7
370
    18
100
AcDbLine
 10
53.608475
 20
233.976114
 30
0.0
 11
21.317947
 21
251.392587
 31
0.0
  0
ARC
  5
1F8
330
12E
100
AcDbEntity
  8
0
 62
     7
370
    18
100
AcDbCircle
 10
75.787949
 20
222.013223
 30
0.0
 40
59.88803863525391
100
AcDbArc
 50
92.773428
 51
148.885584
  0
POLYLINE
  5
1F9
330
12E
100
AcDbEntity
  8
0
 62
     7
370
    18
100
AcDb2dPolyline
 66
     1
 10
0.0
 20
0.0
 30
0.0
 70
     1
  0
VERTEX
  5
1FA
330
1F9
100
AcDbEntity
  8
0
370
     0
100
AcDbVertex
100
AcDb2dVertex
 10
72.890175
 20
281.124796
 30
0.0
  0
VERTEX
  5
1FB
330
1F9
100
AcDbEntity
  8
0
370
     0
100
AcDbVertex
100
AcDb2dVertex
 10
75.787949
 20
281.901254
 30
0.0
  0
VERTEX
  5
1FC
330
1F9
100
AcDbEntity
  8
0
370
     0
100
AcDbVertex
100
AcDb2dVertex
 10
72.890175
 20
282.677713
 30
0.0
  0
SEQEND
  5
1FD
330
1F9
100
AcDbEntity
  8
0
 62
     7
370
    18
  0
POLYLINE
  5
1FE
330
12E
100
AcDbEntity
  8
0
 62
     7
370
    18
100
AcDb2dPolyline
 66
     1
 10
0.0
 20
0.0
 30
0.0
 70
     1
  0
VERTEX
  5
1FF
330
1FE
100
AcDbEntity
  8
0
370
     0
100
AcDbVertex
100
AcDb2dVertex
 10
23.770447
 20
253.362192
 30
0.0
  0
VERTEX
  5
200
330
1FE
100
AcDbEntity
  8
0
370
     0
100
AcDbVertex
100
AcDb2dVertex
 10
23.078217
 20
250.443155
 30
0.0
  0
VERTEX
  5
201
330
1FE
100
AcDbEntity
  8
0
370
     0
100
AcDbVertex
100
AcDb2dVertex
 10
25.137238
 20
252.624979
 30
0.0
  0
SEQEND
  5
202
330
1FE
100
AcDbEntity
  8
0
 62
     7
370
    18
  0
ENDBLK
  5
130
330
12E
100
AcDbEntity
  8
0
100
AcDbBlockEnd
  0
BLOCK
  5
132
330
131
100
AcDbEntity
  8
0
100
AcDbBlockBegin
  2
*D65
 70
     1
 10
0.0
 20
0.0
 30
0.0
  3
*D65
  1

  0
SOLID
  5
203
330
131
100
AcDbEntity
  8
0
 62
     7
370
    18
100
AcDbTrace
 10
72.20771
 20
236.705454
 30
0.0
 11
70.634048
 21
239.259592
 31
0.0
 12
72.20771
 22
236.705454
 32
0.0
 13
70.71981
 23
236.260812
 33
0.0
  0
SOLID
  5
204
330
131
100
AcDbEntity
  8
0
 62
     7
370
    18
100
AcDbTrace
 10
79.368187
 20
207.320978
 30
0.0
 11
80.941849
 21
204.766855
 31
0.0
 12
79.368187
 22
207.320978
 32
0.0
 13
80.856087
 23
207.765619
 33
0.0
  0
TEXT
  5
205
330
131
100
AcDbEntity
  8
0
 62
     7
370
    18
100
AcDbText
 10
97.780785
 20
180.085565
 30
0.0
 40
3.5
  1
36
 41
0.793802
 72
     5
 11
102.675896
 21
180.085565
 31
0.0
100
AcDbText
  0
TEXT
  5
206
330
131
100
AcDbEntity
  8
0
 62
     7
370
    18
100
AcDbText
 10
104.425888
 20
180.085565
 30
0.0
 40
3.5
  1
%%p0,1
 41
0.704457
 72
     5
 11
112.292328
 21
180.085565
 31
0.0
100
AcDbText
  0
TEXT
  5
207
330
131
100
AcDbEntity
  8
0
 62
     7
370
    18
100
AcDbText
 10
94.214119
 20
180.085565
 30
0.0
 40
3.5
  1
%%c
 41
0.905882
 72
     5
 11
96.780785
 21
180.085565
 31
0.0
100
AcDbText
  0
LINE
  5
208
330
131
100
AcDbEntity
  8
0
 62
     7
370
    18
100
AcDbLine
 10
89.214119
 20
177.085565
 30
0.0
 11
112.29232
 21
177.085565
 31
0.0
  0
LINE
  5
209
330
131
100
AcDbEntity
  8
0
 62
     7
370
    18
100
AcDbLine
 10
71.463768
 20
236.483133
 30
0.0
 11
80.112137
 21
207.543298
 31
0.0
  0
LINE
  5
20A
330
131
100
AcDbEntity
  8
0
 62
     7
370
    18
100
AcDbLine
 10
80.941849
 20
204.766855
 30
0.0
 11
89.214119
 21
177.085565
 31
0.0
  0
POLYLINE
  5
20B
330
131
100
AcDbEntity
  8
0
 62
     7
370
    18
100
AcDb2dPolyline
 66
     1
 10
0.0
 20
0.0
 30
0.0
 70
     1
  0
VERTEX
  5
20C
330
20B
100
AcDbEntity
  8
0
370
     0
100
AcDbVertex
100
AcDb2dVertex
 10
72.20771
 20
236.705454
 30
0.0
  0
VERTEX
  5
20D
330
20B
100
AcDbEntity
  8
0
370
     0
100
AcDbVertex
100
AcDb2dVertex
 10
70.634048
 20
239.259592
 30
0.0
  0
VERTEX
  5
20E
330
20B
100
AcDbEntity
  8
0
370
     0
100
AcDbVertex
100
AcDb2dVertex
 10
70.71981
 20
236.260812
 30
0.0
  0
SEQEND
  5
20F
330
20B
100
AcDbEntity
  8
0
 62
     7
370
    18
  0
POLYLINE
  5
210
330
131
100
AcDbEntity
  8
0
 62
     7
370
    18
100
AcDb2dPolyline
 66
     1
 10
0.0
 20
0.0
 30
0.0
 70
     1
  0
VERTEX
  5
211
330
210
100
AcDbEntity
  8
0
370
     0
100
AcDbVertex
100
AcDb2dVertex
 10
79.368187
 20
207.320978
 30
0.0
  0
VERTEX
  5
212
330
210
100
AcDbEntity
  8
0
370
     0
100
AcDbVertex
100
AcDb2dVertex
 10
80.941849
 20
204.766855
 30
0.0
  0
VERTEX
  5
213
330
210
100
AcDbEntity
  8
0
370
     0
100
AcDbVertex
100
AcDb2dVertex
 10
80.856087
 20
207.765619
 30
0.0
  0
SEQEND
  5
214
330
210
100
AcDbEntity
  8
0
 62
     7
370
    18
  0
ENDBLK
  5
133
330
131
100
AcDbEntity
  8
0
100
AcDbBlockEnd
  0
BLOCK
  5
135
330
134
100
AcDbEntity
  8
0
100
AcDbBlockBegin
  2
BLOCK1160
 70
     0
 10
0.0
 20
0.0
 30
0.0
  3
BLOCK1160
  1

  0
LINE
  5
215
330
134
100
AcDbEntity
  8
0
  6
DASHDOT
 62
     7
 48
0.195
370
    18
100
AcDbLine
 10
-113.942482
 20
272.544922
 30
0.0
 11
-121.742485
 21
272.544922
 31
0.0
  0
LINE
  5
216
330
134
100
AcDbEntity
  8
0
  6
DASHDOT
 62
     7
 48
0.195
370
    18
100
AcDbLine
 10
-117.842484
 20
276.444916
 30
0.0
 11
-117.842484
 21
268.644897
 31
0.0
  0
ENDBLK
  5
136
330
134
100
AcDbEntity
  8
0
100
AcDbBlockEnd
  0
BLOCK
  5
138
330
137
100
AcDbEntity
  8
0
100
AcDbBlockBegin
  2
BLOCK1161
 70
     0
 10
0.0
 20
0.0
 30
0.0
  3
BLOCK1161
  1

  0
LINE
  5
217
330
137
100
AcDbEntity
  8
0
  6
DASHDOT
 62
     7
370
    18
100
AcDbLine
 10
-69.5
 20
264.0
 30
0.0
 11
-134.5
 21
264.0
 31
0.0
  0
LINE
  5
218
330
137
100
AcDbEntity
  8
0
  6
DASHDOT
 62
     7
370
    18
100
AcDbLine
 10
-102.0
 20
296.5
 30
0.0
 11
-102.0
 21
231.5
 31
0.0
  0
ENDBLK
  5
139
330
137
100
AcDbEntity
  8
0
100
AcDbBlockEnd
  0
BLOCK
  5
13B
330
13A
100
AcDbEntity
  8
0
100
AcDbBlockBegin
  2
BLOCK1162
 70
     0
 10
0.0
 20
0.0
 30
0.0
  3
BLOCK1162
  1

  0
LINE
  5
219
330
13A
100
AcDbEntity
  8
0
  6
DASHDOT
 62
     7
 48
0.195
370
    18
100
AcDbLine
 10
-82.257523
 20
255.455063
 30
0.0
 11
-90.057518
 21
255.455063
 31
0.0
  0
LINE
  5
21A
330
13A
100
AcDbEntity
  8
0
  6
DASHDOT
 62
     7
 48
0.195
370
    18
100
AcDbLine
 10
-86.157524
 20
259.355072
 30
0.0
 11
-86.157524
 21
251.555069
 31
0.0
  0
ENDBLK
  5
13C
330
13A
100
AcDbEntity
  8
0
100
AcDbBlockEnd
  0
BLOCK
  5
13E
330
13D
100
AcDbEntity
  8
0
100
AcDbBlockBegin
  2
BLOCK1163
 70
     0
 10
0.0
 20
0.0
 30
0.0
  3
BLOCK1163
  1

  0
CIRCLE
  5
21B
330
13D
100
AcDbEntity
  8
0
 62
     7
370
    35
100
AcDbCircle
 10
-102.0
 20
264.0
 30
0.0
 40
8.100000000000001
  0
CIRCLE
  5
21C
330
13D
100
AcDbEntity
  8
0
 62
     7
370
    35
100
AcDbCircle
 10
-102.0
 20
264.0
 30
0.0
 40
25.0
  0
CIRCLE
  5
21D
330
13D
100
AcDbEntity
  8
0
 62
     7
370
    35
100
AcDbCircle
 10
-86.157521
 20
255.455065
 30
0.0
 40
3.000000000000001
  0
CIRCLE
  5
21E
330
13D
100
AcDbEntity
  8
0
 62
     7
370
    35
100
AcDbCircle
 10
-117.842482
 20
272.544912
 30
0.0
 40
3.000000000000001
  0
ENDBLK
  5
13F
330
13D
100
AcDbEntity
  8
0
100
AcDbBlockEnd
  0
BLOCK
  5
141
330
140
100
AcDbEntity
  8
0
100
AcDbBlockBegin
  2
BLOCK1164
 70
     0
 10
0.0
 20
0.0
 30
0.0
  3
BLOCK1164
  1

  0
TEXT
  5
21F
330
140
100
AcDbEntity
  8
0
 62
     7
370
    18
100
AcDbText
 10
-60.216736
 20
191.331284
 30
0.0
 40
3.5
  1
Section view A-A
 41
0.799069
 72
     5
 11
-22.793659
 21
191.331284
 31
0.0
100
AcDbText
  0
ENDBLK
  5
142
330
140
100
AcDbEntity
  8
0
100
AcDbBlockEnd
  0
BLOCK
  5
144
330
143
100
AcDbEntity
  8
0
100
AcDbBlockBegin
  2
*D71
 70
     1
 10
0.0
 20
0.0
 30
0.0
  3
*D71
  1

  0
SOLID
  5
220
330
143
100
AcDbEntity
  8
0
 62
     7
370
    18
100
AcDbTrace
 10
184.943034
 20
269.085236
 30
0.0
 11
187.839926
 21
269.86499
 31
0.0
 12
184.943034
 22
269.085236
 32
0.0
 13
184.941271
 23
270.638153
 33
0.0
  0
SOLID
  5
221
330
143
100
AcDbEntity
  8
0
 62
     7
370
    18
100
AcDbTrace
 10
199.736636
 20
270.654938
 30
0.0
 11
196.839743
 21
269.875183
 31
0.0
 12
199.736636
 22
270.654938
 32
0.0
 13
199.738398
 23
269.10202
 33
0.0
  0
TEXT
  5
222
330
143
100
AcDbEntity
  8
0
 62
     7
370
    18
100
AcDbText
 10
192.851763
 20
272.870697
 30
0.0
 40
3.5
  1
9
 50
0.064296
 41
0.917831
 72
     5
 11
195.299311
 21
272.873444
 31
0.0
100
AcDbText
  0
TEXT
  5
223
330
143
100
AcDbEntity
  8
0
 62
     7
370
    18
100
AcDbText
 10
197.043353
 20
278.125427
 30
0.0
 40
3.5
  1
+0,2
 50
0.064908
 41
0.704091
 72
     5
 11
205.609782
 21
278.135132
 31
0.0
100
AcDbText
  0
TEXT
  5
224
330
143
100
AcDbEntity
  8
0
 62
     7
370
    18
100
AcDbText
 10
197.049311
 20
272.875427
 30
0.0
 40
3.5
  1
 0
 50
0.065365
 41
0.718034
 72
     5
 11
201.596858
 21
272.880615
 31
0.0
100
AcDbText
  0
TEXT
  5
225
330
143
100
AcDbEntity
  8
0
 62
     7
370
    18
100
AcDbText
 10
189.285098
 20
272.866608
 30
0.0
 40
3.5
  1
%%c
 50
0.0654
 41
0.905883
 72
     5
 11
191.851763
 21
272.869538
 31
0.0
100
AcDbText
  0
LINE
  5
226
330
143
100
AcDbEntity
  8
0
 62
     7
370
    18
100
AcDbLine
 10
187.86571
 20
247.141113
 30
0.0
 11
187.83766
 21
271.86499
 31
0.0
  0
LINE
  5
227
330
143
100
AcDbEntity
  8
0
 62
     7
370
    18
100
AcDbLine
 10
196.865523
 20
247.151398
 30
0.0
 11
196.837474
 21
271.875183
 31
0.0
  0
LINE
  5
228
330
143
100
AcDbEntity
  8
0
 62
     7
370
    18
100
AcDbLine
 10
182.83993
 20
269.859314
 30
0.0
 11
184.942153
 21
269.861694
 31
0.0
  0
LINE
  5
229
330
143
100
AcDbEntity
  8
0
 62
     7
370
    18
100
AcDbLine
 10
187.839926
 20
269.86499
 30
0.0
 11
196.839743
 21
269.875214
 31
0.0
  0
LINE
  5
22A
330
143
100
AcDbEntity
  8
0
 62
     7
370
    18
100
AcDbLine
 10
199.737517
 20
269.878479
 30
0.0
 11
205.619143
 21
269.885163
 31
0.0
  0
POLYLINE
  5
22B
330
143
100
AcDbEntity
  8
0
 62
     7
370
    18
100
AcDb2dPolyline
 66
     1
 10
0.0
 20
0.0
 30
0.0
 70
     1
  0
VERTEX
  5
22C
330
22B
100
AcDbEntity
  8
0
370
     0
100
AcDbVertex
100
AcDb2dVertex
 10
184.943034
 20
269.085236
 30
0.0
  0
VERTEX
  5
22D
330
22B
100
AcDbEntity
  8
0
370
     0
100
AcDbVertex
100
AcDb2dVertex
 10
187.839926
 20
269.86499
 30
0.0
  0
VERTEX
  5
22E
330
22B
100
AcDbEntity
  8
0
370
     0
100
AcDbVertex
100
AcDb2dVertex
 10
184.941271
 20
270.638153
 30
0.0
  0
SEQEND
  5
22F
330
22B
100
AcDbEntity
  8
0
 62
     7
370
    18
  0
POLYLINE
  5
230
330
143
100
AcDbEntity
  8
0
 62
     7
370
    18
100
AcDb2dPolyline
 66
     1
 10
0.0
 20
0.0
 30
0.0
 70
     1
  0
VERTEX
  5
231
330
230
100
AcDbEntity
  8
0
370
     0
100
AcDbVertex
100
AcDb2dVertex
 10
199.736636
 20
270.654938
 30
0.0
  0
VERTEX
  5
232
330
230
100
AcDbEntity
  8
0
370
     0
100
AcDbVertex
100
AcDb2dVertex
 10
196.839743
 20
269.875183
 30
0.0
  0
VERTEX
  5
233
330
230
100
AcDbEntity
  8
0
370
     0
100
AcDbVertex
100
AcDb2dVertex
 10
199.738398
 20
269.10202
 30
0.0
  0
SEQEND
  5
234
330
230
100
AcDbEntity
  8
0
 62
     7
370
    18
  0
ENDBLK
  5
145
330
143
100
AcDbEntity
  8
0
100
AcDbBlockEnd
  0
BLOCK
  5
147
330
146
100
AcDbEntity
  8
0
100
AcDbBlockBegin
  2
*D72
 70
     1
 10
0.0
 20
0.0
 30
0.0
  3
*D72
  1

  0
SOLID
  5
235
330
146
100
AcDbEntity
  8
0
 62
     7
370
    18
100
AcDbTrace
 10
186.933299
 20
189.539963
 30
0.0
 11
189.830195
 21
190.319718
 31
0.0
 12
186.933299
 22
189.539963
 32
0.0
 13
186.93154
 23
191.09288
 33
0.0
  0
SOLID
  5
236
330
146
100
AcDbEntity
  8
0
 62
     7
370
    18
100
AcDbTrace
 10
197.927054
 20
191.105347
 30
0.0
 11
195.030158
 21
190.325607
 31
0.0
 12
197.927054
 22
191.105347
 32
0.0
 13
197.928816
 23
189.552445
 33
0.0
  0
TEXT
  5
237
330
146
100
AcDbEntity
  8
0
 62
     7
370
    18
100
AcDbText
 10
162.108794
 20
193.288284
 30
0.0
 40
3.5
  1
5,2
 50
0.064867
 41
0.781134
 72
     5
 11
168.227675
 21
193.295212
 31
0.0
100
AcDbText
  0
TEXT
  5
238
330
146
100
AcDbEntity
  8
0
 62
     7
370
    18
100
AcDbText
 10
169.977667
 20
193.297196
 30
0.0
 40
3.5
  1
%%p0,1
 50
0.064905
 41
0.704457
 72
     5
 11
177.8441
 21
193.306107
 31
0.0
100
AcDbText
  0
TEXT
  5
239
330
146
100
AcDbEntity
  8
0
 62
     7
370
    18
100
AcDbText
 10
158.542128
 20
193.284226
 30
0.0
 40
3.5
  1
%%c
 50
0.064718
 41
0.905883
 72
     5
 11
161.108794
 21
193.287125
 31
0.0
100
AcDbText
  0
LINE
  5
23A
330
146
100
AcDbEntity
  8
0
 62
     7
370
    18
100
AcDbLine
 10
189.784915
 20
230.243286
 30
0.0
 11
189.832465
 21
188.319718
 31
0.0
  0
LINE
  5
23B
330
146
100
AcDbEntity
  8
0
 62
     7
370
    18
100
AcDbLine
 10
194.984881
 20
230.249237
 30
0.0
 11
195.032427
 21
188.325607
 31
0.0
  0
LINE
  5
23C
330
146
100
AcDbEntity
  8
0
 62
     7
370
    18
100
AcDbLine
 10
158.545531
 20
190.284226
 30
0.0
 11
186.932418
 21
190.316422
 31
0.0
  0
LINE
  5
23D
330
146
100
AcDbEntity
  8
0
 62
     7
370
    18
100
AcDbLine
 10
189.830195
 20
190.319718
 30
0.0
 11
195.030158
 21
190.325607
 31
0.0
  0
LINE
  5
23E
330
146
100
AcDbEntity
  8
0
 62
     7
370
    18
100
AcDbLine
 10
197.927935
 20
190.328903
 30
0.0
 11
200.030158
 21
190.331284
 31
0.0
  0
POLYLINE
  5
23F
330
146
100
AcDbEntity
  8
0
 62
     7
370
    18
100
AcDb2dPolyline
 66
     1
 10
0.0
 20
0.0
 30
0.0
 70
     1
  0
VERTEX
  5
240
330
23F
100
AcDbEntity
  8
0
370
     0
100
AcDbVertex
100
AcDb2dVertex
 10
186.933299
 20
189.539963
 30
0.0
  0
VERTEX
  5
241
330
23F
100
AcDbEntity
  8
0
370
     0
100
AcDbVertex
100
AcDb2dVertex
 10
189.830195
 20
190.319718
 30
0.0
  0
VERTEX
  5
242
330
23F
100
AcDbEntity
  8
0
370
     0
100
AcDbVertex
100
AcDb2dVertex
 10
186.93154
 20
191.09288
 30
0.0
  0
SEQEND
  5
243
330
23F
100
AcDbEntity
  8
0
 62
     7
370
    18
  0
POLYLINE
  5
244
330
146
100
AcDbEntity
  8
0
 62
     7
370
    18
100
AcDb2dPolyline
 66
     1
 10
0.0
 20
0.0
 30
0.0
 70
     1
  0
VERTEX
  5
245
330
244
100
AcDbEntity
  8
0
370
     0
100
AcDbVertex
100
AcDb2dVertex
 10
197.927054
 20
191.105347
 30
0.0
  0
VERTEX
  5
246
330
244
100
AcDbEntity
  8
0
370
     0
100
AcDbVertex
100
AcDb2dVertex
 10
195.030158
 20
190.325607
 30
0.0
  0
VERTEX
  5
247
330
244
100
AcDbEntity
  8
0
370
     0
100
AcDbVertex
100
AcDb2dVertex
 10
197.928816
 20
189.552445
 30
0.0
  0
SEQEND
  5
248
330
244
100
AcDbEntity
  8
0
 62
     7
370
    18
  0
ENDBLK
  5
148
330
146
100
AcDbEntity
  8
0
100
AcDbBlockEnd
  0
BLOCK
  5
14A
330
149
100
AcDbEntity
  8
0
100
AcDbBlockBegin
  2
*D73
 70
     1
 10
0.0
 20
0.0
 30
0.0
  3
*D73
  1

  0
SOLID
  5
249
330
149
100
AcDbEntity
  8
0
 62
     7
370
    18
100
AcDbTrace
 10
212.331999
 20
250.058869
 30
0.0
 11
213.108456
 21
247.161072
 31
0.0
 12
212.331999
 22
250.058869
 32
0.0
 13
213.884913
 23
250.058869
 33
0.0
  0
SOLID
  5
24A
330
149
100
AcDbEntity
  8
0
 62
     7
370
    18
100
AcDbTrace
 10
213.884913
 20
238.251434
 30
0.0
 11
213.108456
 21
241.149201
 31
0.0
 12
213.884913
 22
238.251434
 32
0.0
 13
212.331999
 23
238.251434
 33
0.0
  0
TEXT
  5
24B
330
149
100
AcDbEntity
  8
0
 62
     7
370
    18
100
AcDbText
 10
210.108456
 20
256.176331
 30
0.0
 40
3.5
  1
6
 50
90.0
 41
0.863849
 72
     5
 11
210.108456
 21
258.623902
 31
0.0
100
AcDbText
  0
TEXT
  5
24C
330
149
100
AcDbEntity
  8
0
 62
     7
370
    18
100
AcDbText
 10
210.108456
 20
260.373871
 30
0.0
 40
3.5
  1
%%p0,1
 50
90.0
 41
0.704459
 72
     5
 11
210.108456
 21
268.240326
 31
0.0
100
AcDbText
  0
LINE
  5
24D
330
149
100
AcDbEntity
  8
0
 62
     7
370
    18
100
AcDbLine
 10
194.97246
 20
241.149201
 30
0.0
 11
215.108456
 21
241.149201
 31
0.0
  0
LINE
  5
24E
330
149
100
AcDbEntity
  8
0
 62
     7
370
    18
100
AcDbLine
 10
205.365607
 20
247.161072
 30
0.0
 11
215.108456
 21
247.161072
 31
0.0
  0
LINE
  5
24F
330
149
100
AcDbEntity
  8
0
 62
     7
370
    18
100
AcDbLine
 10
213.108456
 20
236.149201
 30
0.0
 11
213.108456
 21
238.251434
 31
0.0
  0
LINE
  5
250
330
149
100
AcDbEntity
  8
0
 62
     7
370
    18
100
AcDbLine
 10
213.108456
 20
241.149201
 30
0.0
 11
213.108456
 21
247.161072
 31
0.0
  0
LINE
  5
251
330
149
100
AcDbEntity
  8
0
 62
     7
370
    18
100
AcDbLine
 10
213.108456
 20
250.058869
 30
0.0
 11
213.108456
 21
268.240326
 31
0.0
  0
POLYLINE
  5
252
330
149
100
AcDbEntity
  8
0
 62
     7
370
    18
100
AcDb2dPolyline
 66
     1
 10
0.0
 20
0.0
 30
0.0
 70
     1
  0
VERTEX
  5
253
330
252
100
AcDbEntity
  8
0
370
     0
100
AcDbVertex
100
AcDb2dVertex
 10
212.331999
 20
250.058869
 30
0.0
  0
VERTEX
  5
254
330
252
100
AcDbEntity
  8
0
370
     0
100
AcDbVertex
100
AcDb2dVertex
 10
213.108456
 20
247.161072
 30
0.0
  0
VERTEX
  5
255
330
252
100
AcDbEntity
  8
0
370
     0
100
AcDbVertex
100
AcDb2dVertex
 10
213.884913
 20
250.058869
 30
0.0
  0
SEQEND
  5
256
330
252
100
AcDbEntity
  8
0
 62
     7
370
    18
  0
POLYLINE
  5
257
330
149
100
AcDbEntity
  8
0
 62
     7
370
    18
100
AcDb2dPolyline
 66
     1
 10
0.0
 20
0.0
 30
0.0
 70
     1
  0
VERTEX
  5
258
330
257
100
AcDbEntity
  8
0
370
     0
100
AcDbVertex
100
AcDb2dVertex
 10
213.884913
 20
238.251434
 30
0.0
  0
VERTEX
  5
259
330
257
100
AcDbEntity
  8
0
370
     0
100
AcDbVertex
100
AcDb2dVertex
 10
213.108456
 20
241.149201
 30
0.0
  0
VERTEX
  5
25A
330
257
100
AcDbEntity
  8
0
370
     0
100
AcDbVertex
100
AcDb2dVertex
 10
212.331999
 20
238.251434
 30
0.0
  0
SEQEND
  5
25B
330
257
100
AcDbEntity
  8
0
 62
     7
370
    18
  0
ENDBLK
  5
14B
330
149
100
AcDbEntity
  8
0
100
AcDbBlockEnd
  0
BLOCK
  5
14D
330
14C
100
AcDbEntity
  8
0
100
AcDbBlockBegin
  2
*D74
 70
     1
 10
0.0
 20
0.0
 30
0.0
  3
*D74
  1

  0
SOLID
  5
25C
330
14C
100
AcDbEntity
  8
0
 62
     7
370
    18
100
AcDbTrace
 10
188.35377
 20
167.931229
 30
0.0
 11
185.456881
 21
167.151459
 31
0.0
 12
188.35377
 22
167.931229
 32
0.0
 13
188.355544
 23
166.378311
 33
0.0
  0
SOLID
  5
25D
330
14C
100
AcDbEntity
  8
0
 62
     7
370
    18
100
AcDbTrace
 10
202.559977
 20
166.394516
 30
0.0
 11
205.456866
 21
167.174271
 31
0.0
 12
202.559977
 22
166.394516
 32
0.0
 13
202.558207
 23
167.947434
 33
0.0
  0
TEXT
  5
25E
330
14C
100
AcDbEntity
  8
0
 62
     7
370
    18
100
AcDbText
 10
193.005896
 20
170.16008
 30
0.0
 40
3.5
  1
20
 50
0.065367
 41
0.793801
 72
     5
 11
197.901
 21
170.165665
 31
0.0
100
AcDbText
  0
LINE
  5
25F
330
14C
100
AcDbEntity
  8
0
 62
     7
370
    18
100
AcDbLine
 10
185.422667
 20
197.138275
 30
0.0
 11
185.429778
 21
190.90506
 31
0.0
  0
LINE
  5
260
330
14C
100
AcDbEntity
  8
0
 62
     7
370
    18
100
AcDbLine
 10
185.431216
 20
189.647263
 30
0.0
 11
185.459162
 21
165.151459
 31
0.0
  0
LINE
  5
261
330
14C
100
AcDbEntity
  8
0
 62
     7
370
    18
100
AcDbLine
 10
205.422656
 20
197.161102
 30
0.0
 11
205.459151
 21
165.174286
 31
0.0
  0
LINE
  5
262
330
14C
100
AcDbEntity
  8
0
 62
     7
370
    18
100
AcDbLine
 10
188.354659
 20
167.15477
 30
0.0
 11
202.559092
 21
167.17096
 31
0.0
  0
POLYLINE
  5
263
330
14C
100
AcDbEntity
  8
0
 62
     7
370
    18
100
AcDb2dPolyline
 66
     1
 10
0.0
 20
0.0
 30
0.0
 70
     1
  0
VERTEX
  5
264
330
263
100
AcDbEntity
  8
0
370
     0
100
AcDbVertex
100
AcDb2dVertex
 10
188.35377
 20
167.931229
 30
0.0
  0
VERTEX
  5
265
330
263
100
AcDbEntity
  8
0
370
     0
100
AcDbVertex
100
AcDb2dVertex
 10
185.456881
 20
167.151459
 30
0.0
  0
VERTEX
  5
266
330
263
100
AcDbEntity
  8
0
370
     0
100
AcDbVertex
100
AcDb2dVertex
 10
188.355544
 20
166.378311
 30
0.0
  0
SEQEND
  5
267
330
263
100
AcDbEntity
  8
0
 62
     7
370
    18
  0
POLYLINE
  5
268
330
14C
100
AcDbEntity
  8
0
 62
     7
370
    18
100
AcDb2dPolyline
 66
     1
 10
0.0
 20
0.0
 30
0.0
 70
     1
  0
VERTEX
  5
269
330
268
100
AcDbEntity
  8
0
370
     0
100
AcDbVertex
100
AcDb2dVertex
 10
202.559977
 20
166.394516
 30
0.0
  0
VERTEX
  5
26A
330
268
100
AcDbEntity
  8
0
370
     0
100
AcDbVertex
100
AcDb2dVertex
 10
205.456866
 20
167.174271
 30
0.0
  0
VERTEX
  5
26B
330
268
100
AcDbEntity
  8
0
370
     0
100
AcDbVertex
100
AcDb2dVertex
 10
202.558207
 20
167.947434
 30
0.0
  0
SEQEND
  5
26C
330
268
100
AcDbEntity
  8
0
 62
     7
370
    18
  0
ENDBLK
  5
14E
330
14C
100
AcDbEntity
  8
0
100
AcDbBlockEnd
  0
BLOCK
  5
150
330
14F
100
AcDbEntity
  8
0
100
AcDbBlockBegin
  2
*D75
 70
     1
 10
0.0
 20
0.0
 30
0.0
  3
*D75
  1

  0
SOLID
  5
26D
330
14F
100
AcDbEntity
  8
0
 62
     7
370
    18
100
AcDbTrace
 10
182.487124
 20
253.444794
 30
0.0
 11
185.384902
 21
254.221253
 31
0.0
 12
182.487124
 22
253.444794
 32
0.0
 13
182.487124
 23
254.997711
 33
0.0
  0
SOLID
  5
26E
330
14F
100
AcDbEntity
  8
0
 62
     7
370
    18
100
AcDbTrace
 10
195.258921
 20
254.997711
 30
0.0
 11
192.361144
 21
254.221253
 31
0.0
 12
195.258921
 22
254.997711
 32
0.0
 13
195.258921
 23
253.444794
 33
0.0
  0
TEXT
  5
26F
330
14F
100
AcDbEntity
  8
0
 62
     7
370
    18
100
AcDbText
 10
161.358824
 20
257.221253
 30
0.0
 40
3.5
  1
7
 41
0.863843
 72
     5
 11
163.80638
 21
257.221253
 31
0.0
100
AcDbText
  0
TEXT
  5
270
330
14F
100
AcDbEntity
  8
0
 62
     7
370
    18
100
AcDbText
 10
165.55638
 20
262.471253
 30
0.0
 40
3.5
  1
 0
 41
0.718034
 72
     5
 11
170.103926
 21
262.471253
 31
0.0
100
AcDbText
  0
TEXT
  5
271
330
14F
100
AcDbEntity
  8
0
 62
     7
370
    18
100
AcDbText
 10
165.556372
 20
257.221253
 30
0.0
 40
3.5
  1
-0,2
 41
0.704091
 72
     5
 11
174.122809
 21
257.221253
 31
0.0
100
AcDbText
  0
LINE
  5
272
330
14F
100
AcDbEntity
  8
0
 62
     7
370
    18
100
AcDbLine
 10
185.384902
 20
230.238281
 30
0.0
 11
185.384902
 21
256.221253
 31
0.0
  0
LINE
  5
273
330
14F
100
AcDbEntity
  8
0
 62
     7
370
    18
100
AcDbLine
 10
192.361144
 20
251.06723
 30
0.0
 11
192.361144
 21
256.221253
 31
0.0
  0
LINE
  5
274
330
14F
100
AcDbEntity
  8
0
 62
     7
370
    18
100
AcDbLine
 10
161.358824
 20
254.221253
 30
0.0
 11
182.487124
 21
254.221253
 31
0.0
  0
LINE
  5
275
330
14F
100
AcDbEntity
  8
0
 62
     7
370
    18
100
AcDbLine
 10
185.384902
 20
254.221253
 30
0.0
 11
192.361144
 21
254.221253
 31
0.0
  0
LINE
  5
276
330
14F
100
AcDbEntity
  8
0
 62
     7
370
    18
100
AcDbLine
 10
195.258921
 20
254.221253
 30
0.0
 11
197.361144
 21
254.221253
 31
0.0
  0
POLYLINE
  5
277
330
14F
100
AcDbEntity
  8
0
 62
     7
370
    18
100
AcDb2dPolyline
 66
     1
 10
0.0
 20
0.0
 30
0.0
 70
     1
  0
VERTEX
  5
278
330
277
100
AcDbEntity
  8
0
370
     0
100
AcDbVertex
100
AcDb2dVertex
 10
182.487124
 20
253.444794
 30
0.0
  0
VERTEX
  5
279
330
277
100
AcDbEntity
  8
0
370
     0
100
AcDbVertex
100
AcDb2dVertex
 10
185.384902
 20
254.221253
 30
0.0
  0
VERTEX
  5
27A
330
277
100
AcDbEntity
  8
0
370
     0
100
AcDbVertex
100
AcDb2dVertex
 10
182.487124
 20
254.997711
 30
0.0
  0
SEQEND
  5
27B
330
277
100
AcDbEntity
  8
0
 62
     7
370
    18
  0
POLYLINE
  5
27C
330
14F
100
AcDbEntity
  8
0
 62
     7
370
    18
100
AcDb2dPolyline
 66
     1
 10
0.0
 20
0.0
 30
0.0
 70
     1
  0
VERTEX
  5
27D
330
27C
100
AcDbEntity
  8
0
370
     0
100
AcDbVertex
100
AcDb2dVertex
 10
195.258921
 20
254.997711
 30
0.0
  0
VERTEX
  5
27E
330
27C
100
AcDbEntity
  8
0
370
     0
100
AcDbVertex
100
AcDb2dVertex
 10
192.361144
 20
254.221253
 30
0.0
  0
VERTEX
  5
27F
330
27C
100
AcDbEntity
  8
0
370
     0
100
AcDbVertex
100
AcDb2dVertex
 10
195.258921
 20
253.444794
 30
0.0
  0
SEQEND
  5
280
330
27C
100
AcDbEntity
  8
0
 62
     7
370
    18
  0
ENDBLK
  5
151
330
14F
100
AcDbEntity
  8
0
100
AcDbBlockEnd
  0
BLOCK
  5
153
330
152
100
AcDbEntity
  8
0
100
AcDbBlockBegin
  2
*D76
 70
     1
 10
0.0
 20
0.0
 30
0.0
  3
*D76
  1

  0
SOLID
  5
281
330
152
100
AcDbEntity
  8
0
 62
     7
370
    18
100
AcDbTrace
 10
229.220057
 20
227.363312
 30
0.0
 11
228.4436
 21
230.261078
 31
0.0
 12
229.220057
 22
227.363312
 32
0.0
 13
227.667143
 23
227.363312
 33
0.0
  0
SOLID
  5
282
330
152
100
AcDbEntity
  8
0
 62
     7
370
    18
100
AcDbTrace
 10
227.667143
 20
216.947022
 30
0.0
 11
228.4436
 21
214.04924
 31
0.0
 12
227.667143
 22
216.947022
 32
0.0
 13
229.220057
 23
216.947022
 33
0.0
  0
TEXT
  5
283
330
152
100
AcDbEntity
  8
0
 62
     7
370
    18
100
AcDbText
 10
225.4436
 20
183.500305
 30
0.0
 40
3.5
  1
16,2
 50
90.0
 41
0.704456
 72
     5
 11
225.4436
 21
191.36673
 31
0.0
100
AcDbText
  0
TEXT
  5
284
330
152
100
AcDbEntity
  8
0
 62
     7
370
    18
100
AcDbText
 10
220.1936
 20
193.116745
 30
0.0
 40
3.5
  1
+0,1
 50
90.0
 41
0.704456
 72
     5
 11
220.1936
 21
200.98317
 31
0.0
100
AcDbText
  0
TEXT
  5
285
330
152
100
AcDbEntity
  8
0
 62
     7
370
    18
100
AcDbText
 10
225.4436
 20
193.116745
 30
0.0
 40
3.5
  1
 0
 50
90.0
 41
0.718034
 72
     5
 11
225.4436
 21
197.664292
 31
0.0
100
AcDbText
  0
LINE
  5
286
330
152
100
AcDbEntity
  8
0
 62
     7
370
    18
100
AcDbLine
 10
195.003363
 20
214.04924
 30
0.0
 11
230.4436
 21
214.04924
 31
0.0
  0
LINE
  5
287
330
152
100
AcDbEntity
  8
0
 62
     7
370
    18
100
AcDbLine
 10
205.38489
 20
230.261078
 30
0.0
 11
230.4436
 21
230.261078
 31
0.0
  0
LINE
  5
288
330
152
100
AcDbEntity
  8
0
 62
     7
370
    18
100
AcDbLine
 10
228.4436
 20
183.500305
 30
0.0
 11
228.4436
 21
214.04924
 31
0.0
  0
LINE
  5
289
330
152
100
AcDbEntity
  8
0
 62
     7
370
    18
100
AcDbLine
 10
228.4436
 20
216.947022
 30
0.0
 11
228.4436
 21
227.363312
 31
0.0
  0
POLYLINE
  5
28A
330
152
100
AcDbEntity
  8
0
 62
     7
370
    18
100
AcDb2dPolyline
 66
     1
 10
0.0
 20
0.0
 30
0.0
 70
     1
  0
VERTEX
  5
28B
330
28A
100
AcDbEntity
  8
0
370
     0
100
AcDbVertex
100
AcDb2dVertex
 10
229.220057
 20
227.363312
 30
0.0
  0
VERTEX
  5
28C
330
28A
100
AcDbEntity
  8
0
370
     0
100
AcDbVertex
100
AcDb2dVertex
 10
228.4436
 20
230.261078
 30
0.0
  0
VERTEX
  5
28D
330
28A
100
AcDbEntity
  8
0
370
     0
100
AcDbVertex
100
AcDb2dVertex
 10
227.667143
 20
227.363312
 30
0.0
  0
SEQEND
  5
28E
330
28A
100
AcDbEntity
  8
0
 62
     7
370
    18
  0
POLYLINE
  5
28F
330
152
100
AcDbEntity
  8
0
 62
     7
370
    18
100
AcDb2dPolyline
 66
     1
 10
0.0
 20
0.0
 30
0.0
 70
     1
  0
VERTEX
  5
290
330
28F
100
AcDbEntity
  8
0
370
     0
100
AcDbVertex
100
AcDb2dVertex
 10
227.667143
 20
216.947022
 30
0.0
  0
VERTEX
  5
291
330
28F
100
AcDbEntity
  8
0
370
     0
100
AcDbVertex
100
AcDb2dVertex
 10
228.4436
 20
214.04924
 30
0.0
  0
VERTEX
  5
292
330
28F
100
AcDbEntity
  8
0
370
     0
100
AcDbVertex
100
AcDb2dVertex
 10
229.220057
 20
216.947022
 30
0.0
  0
SEQEND
  5
293
330
28F
100
AcDbEntity
  8
0
 62
     7
370
    18
  0
ENDBLK
  5
154
330
152
100
AcDbEntity
  8
0
100
AcDbBlockEnd
  0
BLOCK
  5
156
330
155
100
AcDbEntity
  8
0
100
AcDbBlockBegin
  2
BLOCK1165
 70
     0
 10
0.0
 20
0.0
 30
0.0
  3
BLOCK1165
  1

  0
LINE
  5
294
330
155
100
AcDbEntity
  8
0
 62
     7
370
    35
100
AcDbLine
 10
-40.822989
 20
283.069823
 30
0.0
 11
-42.723079
 21
283.067656
 31
0.0
  0
LINE
  5
295
330
155
100
AcDbEntity
  8
0
 62
     7
370
    35
100
AcDbLine
 10
-40.829925
 20
289.069812
 30
0.0
 11
-40.823042
 21
283.069823
 31
0.0
  0
LINE
  5
296
330
155
100
AcDbEntity
  8
0
 62
     7
370
    35
100
AcDbLine
 10
-32.329841
 20
289.079505
 30
0.0
 11
-40.82993
 21
289.069807
 31
0.0
  0
LINE
  5
297
330
155
100
AcDbEntity
  8
0
 62
     7
370
    35
100
AcDbLine
 10
-32.329841
 20
289.079521
 30
0.0
 11
-32.310559
 21
272.179512
 31
0.0
  0
LINE
  5
298
330
155
100
AcDbEntity
  8
0
 62
     7
370
    35
100
AcDbLine
 10
-32.310559
 20
272.179516
 30
0.0
 11
-42.710568
 21
272.16765
 31
0.0
  0
LINE
  5
299
330
155
100
AcDbEntity
  8
0
 62
     7
370
    35
100
AcDbLine
 10
-42.723079
 20
283.067656
 30
0.0
 11
-42.710568
 21
272.16765
 31
0.0
  0
ARC
  5
29A
330
155
100
AcDbEntity
  8
0
 62
     7
370
    35
100
AcDbCircle
 10
-45.258078
 20
312.883018
 30
0.0
 40
24.22206482111389
100
AcDbArc
 50
277.377926
 51
280.534243
  0
ARC
  5
29B
330
155
100
AcDbEntity
  8
0
 62
     7
370
    35
100
AcDbCircle
 10
-45.370791
 20
313.467007
 30
0.0
 40
24.81582666140938
100
AcDbArc
 50
270.095656
 51
277.462861
  0
ARC
  5
29C
330
155
100
AcDbEntity
  8
0
 62
     7
370
    35
100
AcDbCircle
 10
-45.34483
 20
313.464471
 30
0.0
 40
24.81326177251634
100
AcDbArc
 50
262.66775
 51
270.03572
  0
ARC
  5
29D
330
155
100
AcDbEntity
  8
0
 62
     7
370
    35
100
AcDbCircle
 10
-45.462318
 20
312.84138
 30
0.0
 40
24.18018114317679
100
AcDbArc
 50
259.593653
 51
262.75544
  0
LINE
  5
29E
330
155
100
AcDbEntity
  8
0
 62
     7
370
    35
100
AcDbLine
 10
-49.829739
 20
289.059544
 30
0.0
 11
-49.822931
 21
283.059555
 31
0.0
  0
LINE
  5
29F
330
155
100
AcDbEntity
  8
0
 62
     7
370
    35
100
AcDbLine
 10
-49.829734
 20
289.059539
 30
0.0
 11
-52.329827
 21
289.056686
 31
0.0
  0
LINE
  5
2A0
330
155
100
AcDbEntity
  8
0
 62
     7
370
    35
100
AcDbLine
 10
-47.922894
 20
283.061723
 30
0.0
 11
-49.822984
 21
283.059555
 31
0.0
  0
ELLIPSE
  5
2A1
330
155
100
AcDbEntity
  8
0
 62
     7
370
    35
100
AcDbEllipse
 10
-45.322987
 20
283.064667
 30
0.0
 11
-2.599998235702515
 21
-0.00296641793102026
 31
0.0
210
0.0
220
0.0
230
1.0
 40
0.001141
 41
0.0000006987466388
 42
3.141592653589793
  0
LINE
  5
2A2
330
155
100
AcDbEntity
  8
0
 62
     7
370
    35
100
AcDbLine
 10
-32.292076
 20
255.979531
 30
0.0
 11
-32.272794
 21
239.079521
 31
0.0
  0
LINE
  5
2A3
330
155
100
AcDbEntity
  8
0
 62
     7
370
    35
100
AcDbLine
 10
-32.301307
 20
264.07028
 30
0.0
 11
-32.292076
 21
255.979531
 31
0.0
  0
LINE
  5
2A4
330
155
100
AcDbEntity
  8
0
 62
     7
370
    35
100
AcDbLine
 10
-32.310559
 20
272.179512
 30
0.0
 11
-32.301307
 21
264.07028
 31
0.0
  0
LINE
  5
2A5
330
155
100
AcDbEntity
  8
0
 62
     7
370
    35
100
AcDbLine
 10
-32.272794
 20
239.079538
 30
0.0
 11
-42.672944
 21
239.067672
 31
0.0
  0
ARC
  5
2A6
330
155
100
AcDbEntity
  8
0
 62
     7
370
    35
100
AcDbCircle
 10
-45.243871
 20
213.722308
 30
0.0
 40
25.47475550594045
100
AcDbArc
 50
84.207968
 51
95.922776
  0
LINE
  5
2A7
330
155
100
AcDbEntity
  8
0
 62
     7
370
    35
100
AcDbLine
 10
-47.872627
 20
239.061739
 30
0.0
 11
-52.272781
 21
239.056719
 31
0.0
  0
LINE
  5
2A8
330
155
100
AcDbEntity
  8
0
 62
     7
370
    35
100
AcDbLine
 10
-52.292063
 20
255.956713
 30
0.0
 11
-52.272781
 21
239.056703
 31
0.0
  0
LINE
  5
2A9
330
155
100
AcDbEntity
  8
0
 62
     7
370
    35
100
AcDbLine
 10
-52.301294
 20
264.047461
 30
0.0
 11
-52.292063
 21
255.956713
 31
0.0
  0
LINE
  5
2AA
330
155
100
AcDbEntity
  8
0
 62
     7
370
    35
100
AcDbLine
 10
-52.310546
 20
272.156694
 30
0.0
 11
-52.301294
 21
264.047461
 31
0.0
  0
LINE
  5
2AB
330
155
100
AcDbEntity
  8
0
 62
     7
370
    35
100
AcDbLine
 10
-52.329828
 20
289.056703
 30
0.0
 11
-52.310546
 21
272.156694
 31
0.0
  0
SPLINE
  5
2AC
330
155
100
AcDbEntity
  8
0
 62
     7
370
    35
100
AcDbSpline
210
0.0
220
0.0
230
1.0
 70
     8
 71
     5
 72
    27
 73
    21
 74
     0
 42
0.000000001
 43
0.0
 40
0.0
 40
0.0
 40
0.0
 40
0.0
 40
0.0
 40
0.0
 40
0.1218718169714812
 40
0.1218718169714812
 40
0.1218718169714812
 40
1.122628051157214
 40
1.122628051157214
 40
1.122628051157214
 40
3.598563557628045
 40
3.598563557628045
 40
3.598563557628045
 40
7.592562126190703
 40
7.592562126190703
 40
7.592562126190703
 40
10.12473002412064
 40
10.12473002412064
 40
10.12473002412064
 40
10.32974168683073
 40
10.32974168683073
 40
10.32974168683073
 40
10.32974168683073
 40
10.32974168683073
 40
10.32974168683073
 10
-47.91054864034717
 20
272.1617123168752
 30
0.0
 10
-47.90512753364501
 20
272.159974652783
 30
0.0
 10
-47.89970642694284
 20
272.1582369886908
 30
0.0
 10
-47.80223034807035
 20
272.126881759828
 30
0.0
 10
-47.75206267529588
 20
272.1112801817397
 30
0.0
 10
-47.68951534722817
 20
272.0922670216723
 30
0.0
 10
-47.62488992376646
 20
272.07317207196
 30
0.0
 10
-47.37716042986923
 20
272.0026589356089
 30
0.0
 10
-47.05709130017258
 20
271.9231435864635
 30
0.0
 10
-46.80855352055355
 20
271.8705438175333
 30
0.0
 10
-46.11952710569453
 20
271.7541798847217
 30
0.0
 10
-45.36524485908135
 20
271.7111887760087
 30
0.0
 10
-44.89690060090241
 20
271.7233125175196
 30
0.0
 10
-44.14850698093676
 20
271.8033364587184
 30
0.0
 10
-43.49622266574892
 20
271.9419701890322
 30
0.0
 10
-43.26170985145028
 20
272.0014586823095
 30
0.0
 10
-43.04482208497314
 20
272.0634696582017
 30
0.0
 10
-42.89137832726009
 20
272.1101003152322
 30
0.0
 10
-42.73314600206873
 20
272.1604944674824
 30
0.0
 10
-42.72184901344522
 20
272.1640698090927
 30
0.0
 10
-42.71055202482172
 20
272.1676451507032
 30
0.0
  0
LINE
  5
2AD
330
155
100
AcDbEntity
  8
0
 62
     7
370
    35
100
AcDbLine
 10
-47.922894
 20
283.061723
 30
0.0
 11
-47.910532
 21
272.161718
 31
0.0
  0
LINE
  5
2AE
330
155
100
AcDbEntity
  8
0
 62
     7
370
    35
100
AcDbLine
 10
-32.292076
 20
255.979527
 30
0.0
 11
-42.692085
 21
255.967661
 31
0.0
  0
SPLINE
  5
2AF
330
155
100
AcDbEntity
  8
0
 62
     7
370
    35
100
AcDbSpline
210
0.0
220
0.0
230
1.0
 70
     8
 71
     5
 72
    24
 73
    18
 74
     0
 42
0.000000001
 43
0.0
 40
0.0
 40
0.0
 40
0.0
 40
0.0
 40
0.0
 40
0.0
 40
1.990378945961067
 40
1.990378945961067
 40
1.990378945961067
 40
4.460952572513913
 40
4.460952572513913
 40
4.460952572513913
 40
8.446302560151773
 40
8.446302560151773
 40
8.446302560151773
 40
10.97406145265366
 40
10.97406145265366
 40
10.97406145265366
 40
12.30578923031706
 40
12.30578923031706
 40
12.30578923031706
 40
12.30578923031706
 40
12.30578923031706
 40
12.30578923031706
 10
-42.69208538940694
 20
255.9676609500395
 30
0.0
 10
-42.69322068370781
 20
255.9676596637635
 30
0.0
 10
-42.74341994673279
 20
255.983346486152
 30
0.0
 10
-42.84270334870411
 20
256.0146853602488
 30
0.0
 10
-43.1340348350091
 20
256.1005027905009
 30
0.0
 10
-43.5448153174951
 20
256.201555385943
 30
0.0
 10
-43.79403701577748
 20
256.2538788960451
 30
0.0
 10
-44.48154048449448
 20
256.36913383156
 30
0.0
 10
-45.23408198123138
 20
256.4120022267246
 30
0.0
 10
-45.70149883094727
 20
256.4002103901372
 30
0.0
 10
-46.44856576805584
 20
256.3213348671579
 30
0.0
 10
-47.10050658331149
 20
256.1844187242274
 30
0.0
 10
-47.33509710272568
 20
256.1256515599221
 30
0.0
 10
-47.6421631808884
 20
256.039110370661
 30
0.0
 10
-47.82397402654627
 20
255.9829413433061
 30
0.0
 10
-47.86858147836892
 20
255.9688028799007
 30
0.0
 10
-47.89128955074826
 20
255.9617290202141
 30
0.0
 10
-47.89204915641145
 20
255.9617281515578
 30
0.0
  0
LINE
  5
2B0
330
155
100
AcDbEntity
  8
0
 62
     7
370
    35
100
AcDbLine
 10
-47.892049
 20
255.961728
 30
0.0
 11
-52.292063
 21
255.956708
 31
0.0
  0
LINE
  5
2B1
330
155
100
AcDbEntity
  8
0
 62
     7
370
    35
100
AcDbLine
 10
-47.910532
 20
272.161718
 30
0.0
 11
-52.310546
 21
272.156697
 31
0.0
  0
LINE
  5
2B2
330
155
100
AcDbEntity
  8
0
 62
     7
370
    35
100
AcDbLine
 10
-47.872627
 20
239.06174
 30
0.0
 11
-47.891018
 21
255.061723
 31
0.0
  0
LINE
  5
2B3
330
155
100
AcDbEntity
  8
0
 62
     7
370
    35
100
AcDbLine
 10
-42.672944
 20
239.067672
 30
0.0
 11
-42.691062
 21
255.067656
 31
0.0
  0
LINE
  5
2B4
330
155
100
AcDbEntity
  8
0
 62
     7
370
    35
100
AcDbLine
 10
-47.891018
 20
255.061723
 30
0.0
 11
-47.892049
 21
255.961728
 31
0.0
  0
LINE
  5
2B5
330
155
100
AcDbEntity
  8
0
 62
     7
370
    35
100
AcDbLine
 10
-42.691062
 20
255.067656
 30
0.0
 11
-42.692085
 21
255.967661
 31
0.0
  0
ENDBLK
  5
157
330
155
100
AcDbEntity
  8
0
100
AcDbBlockEnd
  0
BLOCK
  5
159
330
158
100
AcDbEntity
  8
0
100
AcDbBlockBegin
  2
BLOCK1166
 70
     0
 10
0.0
 20
0.0
 30
0.0
  3
BLOCK1166
  1

  0
LINE
  5
2B6
330
158
100
AcDbEntity
  8
0
 62
     7
370
    18
100
AcDbLine
 10
-50.855446
 20
239.058334
 30
0.0
 11
-47.876057
 21
242.03772
 31
0.0
  0
LINE
  5
2B7
330
158
100
AcDbEntity
  8
0
 62
     7
370
    18
100
AcDbLine
 10
-52.279224
 20
244.705627
 30
0.0
 11
-47.884182
 21
249.100662
 31
0.0
  0
LINE
  5
2B8
330
158
100
AcDbEntity
  8
0
 62
     7
370
    18
100
AcDbLine
 10
-52.287285
 20
251.768631
 30
0.0
 11
-48.094418
 21
255.961502
 31
0.0
  0
ENDBLK
  5
15A
330
158
100
AcDbEntity
  8
0
100
AcDbBlockEnd
  0
BLOCK
  5
15C
330
15B
100
AcDbEntity
  8
0
100
AcDbBlockBegin
  2
BLOCK1167
 70
     0
 10
0.0
 20
0.0
 30
0.0
  3
BLOCK1167
  1

  0
LINE
  5
2B9
330
15B
100
AcDbEntity
  8
0
 62
     7
370
    18
100
AcDbLine
 10
-36.697163
 20
239.074478
 30
0.0
 11
-32.277832
 21
243.49382
 31
0.0
  0
LINE
  5
2BA
330
15B
100
AcDbEntity
  8
0
 62
     7
370
    18
100
AcDbLine
 10
-42.674187
 20
240.168533
 30
0.0
 11
-32.285889
 21
250.556824
 31
0.0
  0
LINE
  5
2BB
330
15B
100
AcDbEntity
  8
0
 62
     7
370
    18
100
AcDbLine
 10
-42.682175
 20
247.231613
 30
0.0
 11
-33.936131
 21
255.977646
 31
0.0
  0
LINE
  5
2BC
330
15B
100
AcDbEntity
  8
0
 62
     7
370
    18
100
AcDbLine
 10
-42.690186
 20
254.294662
 30
0.0
 11
-41.015274
 21
255.969574
 31
0.0
  0
ENDBLK
  5
15D
330
15B
100
AcDbEntity
  8
0
100
AcDbBlockEnd
  0
BLOCK
  5
15F
330
15E
100
AcDbEntity
  8
0
100
AcDbBlockBegin
  2
BLOCK1168
 70
     0
 10
0.0
 20
0.0
 30
0.0
  3
BLOCK1168
  1

  0
LINE
  5
2BD
330
15E
100
AcDbEntity
  8
0
 62
     7
370
    18
100
AcDbLine
 10
-52.311459
 20
272.957672
 30
0.0
 11
-47.916428
 21
277.352692
 31
0.0
  0
LINE
  5
2BE
330
15E
100
AcDbEntity
  8
0
 62
     7
370
    18
100
AcDbLine
 10
-52.319519
 20
280.02066
 30
0.0
 11
-49.280014
 21
283.060181
 31
0.0
  0
LINE
  5
2BF
330
15E
100
AcDbEntity
  8
0
 62
     7
370
    18
100
AcDbLine
 10
-52.327576
 20
287.083679
 30
0.0
 11
-50.35231
 21
289.05896
 31
0.0
  0
ENDBLK
  5
160
330
15E
100
AcDbEntity
  8
0
100
AcDbBlockEnd
  0
BLOCK
  5
162
330
161
100
AcDbEntity
  8
0
100
AcDbBlockBegin
  2
BLOCK1169
 70
     0
 10
0.0
 20
0.0
 30
0.0
  3
BLOCK1169
  1

  0
LINE
  5
2C0
330
161
100
AcDbEntity
  8
0
 62
     7
370
    18
100
AcDbLine
 10
-38.955051
 20
272.171936
 30
0.0
 11
-32.318123
 21
278.808868
 31
0.0
  0
LINE
  5
2C1
330
161
100
AcDbEntity
  8
0
 62
     7
370
    18
100
AcDbLine
 10
-42.714367
 20
275.483673
 30
0.0
 11
-32.32618
 21
285.871857
 31
0.0
  0
LINE
  5
2C2
330
161
100
AcDbEntity
  8
0
 62
     7
370
    18
100
AcDbLine
 10
-42.722481
 20
282.546631
 30
0.0
 11
-42.200867
 21
283.068237
 31
0.0
  0
LINE
  5
2C3
330
161
100
AcDbEntity
  8
0
 62
     7
370
    18
100
AcDbLine
 10
-40.824619
 20
284.444489
 30
0.0
 11
-36.194019
 21
289.075104
 31
0.0
  0
ENDBLK
  5
163
330
161
100
AcDbEntity
  8
0
100
AcDbBlockEnd
  0
BLOCK
  5
165
330
164
100
AcDbEntity
  8
0
100
AcDbBlockBegin
  2
BLOCK1170
 70
     0
 10
0.0
 20
0.0
 30
0.0
  3
BLOCK1170
  1

  0
TEXT
  5
2C4
330
164
100
AcDbEntity
  8
0
 62
     7
370
    18
100
AcDbText
 10
-60.0
 20
231.399994
 30
0.0
 40
3.5
  1
Isometric view
 41
0.802014
 72
     5
 11
-29.924475
 21
231.399994
 31
0.0
100
AcDbText
  0
ENDBLK
  5
166
330
164
100
AcDbEntity
  8
0
100
AcDbBlockEnd
  0
BLOCK
  5
168
330
167
100
AcDbEntity
  8
0
100
AcDbBlockBegin
  2
BLOCK1171
 70
     0
 10
0.0
 20
0.0
 30
0.0
  3
BLOCK1171
  1

  0
ELLIPSE
  5
2C5
330
167
100
AcDbEntity
  8
0
 62
     7
370
    35
100
AcDbEllipse
 10
-49.499599
 20
270.262756
 30
0.0
 11
4.052387714385985
 21
-7.017048358917235
 31
0.0
210
0.0
220
0.0
230
1.0
 40
0.577254
 41
6.283117744057199
 42
7.068354882918627
  0
ELLIPSE
  5
2C6
330
167
100
AcDbEntity
  8
0
 62
     7
370
    35
100
AcDbEllipse
 10
-49.497471
 20
270.260376
 30
0.0
 11
4.049998283386231
 21
-7.014811515808106
 31
0.0
210
0.0
220
0.0
230
1.0
 40
0.57735
 41
3.9269925141237
 42
6.283182652689693
  0
ELLIPSE
  5
2C7
330
167
100
AcDbEntity
  8
0
 62
     7
370
    35
100
AcDbEllipse
 10
-49.496201
 20
270.258728
 30
0.0
 11
4.051410675048828
 21
-7.016358375549316
 31
0.0
210
0.0
220
0.0
230
1.0
 40
0.577278
 41
3.141553584613934
 42
3.926853072417835
  0
ELLIPSE
  5
2C8
330
167
100
AcDbEntity
  8
0
 62
     7
370
    35
100
AcDbEllipse
 10
-49.497475
 20
270.260376
 30
0.0
 11
4.049998283386231
 21
-7.014810085296632
 31
0.0
210
0.0
220
0.0
230
1.0
 40
0.57735
 41
0.7853995594055483
 42
3.14158829608581
  0
ELLIPSE
  5
2C9
330
167
100
AcDbEntity
  8
0
 62
     7
370
    35
100
AcDbEllipse
 10
-35.355339
 20
278.425323
 30
0.0
 11
12.5
 21
-21.650634765625
 31
0.0
210
0.0
220
0.0
230
1.0
 40
0.57735
 41
0.7853981633974406
 42
3.141592653589793
  0
ELLIPSE
  5
2CA
330
167
100
AcDbEntity
  8
0
 62
     7
370
    35
100
AcDbEllipse
 10
-35.355339
 20
278.425323
 30
0.0
 11
12.5
 21
-21.650634765625
 31
0.0
210
0.0
220
0.0
230
1.0
 40
0.57735
 41
0.0
 42
0.7853981633974394
  0
ELLIPSE
  5
2CB
330
167
100
AcDbEntity
  8
0
 62
     7
370
    35
100
AcDbEllipse
 10
-49.497475
 20
270.260376
 30
0.0
 11
12.5
 21
-21.650634765625
 31
0.0
210
0.0
220
0.0
230
1.0
 40
0.57735
 41
3.141592653589793
 42
6.283185307179586
  0
ELLIPSE
  5
2CC
330
167
100
AcDbEntity
  8
0
 62
     7
370
    35
100
AcDbEllipse
 10
-49.497475
 20
270.260376
 30
0.0
 11
12.5
 21
-21.650634765625
 31
0.0
210
0.0
220
0.0
230
1.0
 40
0.57735
 41
0.7853981633974406
 42
3.141592653589793
  0
SPLINE
  5
2CD
330
167
100
AcDbEntity
  8
0
 62
     7
370
    35
100
AcDbSpline
210
0.0
220
0.0
230
1.0
 70
     8
 71
     5
 72
    18
 73
    12
 74
     0
 42
0.000000001
 43
0.0
 40
0.0
 40
0.0
 40
0.0
 40
0.0
 40
0.0
 40
0.0
 40
2.855695126945733
 40
2.855695126945733
 40
2.855695126945733
 40
5.07723712413035
 40
5.07723712413035
 40
5.07723712413035
 40
5.608900777996993
 40
5.608900777996993
 40
5.608900777996993
 40
5.608900777996993
 40
5.608900777996993
 40
5.608900777996993
 10
-37.1231060122938
 20
297.8171278933881
 30
0.0
 10
-36.88029829525719
 20
297.6770072415334
 30
0.0
 10
-36.65524949323492
 20
297.5149803041448
 30
0.0
 10
-36.4517648277767
 20
297.3313839362999
 30
0.0
 10
-36.14496957152264
 20
296.9721861628267
 30
0.0
 10
-35.9470254393364
 20
296.576255676966
 30
0.0
 10
-35.88156687560705
 20
296.3972951893227
 30
0.0
 10
-35.82821191677841
 20
296.1709468361515
 30
0.0
 10
-35.80880974422548
 20
295.9446739857476
 30
0.0
 10
-35.80632238940159
 20
295.901002994021
 30
0.0
 10
-35.80508652804143
 20
295.8574383724666
 30
0.0
 10
-35.80508652763341
 20
295.8140010858936
 30
0.0
  0
SPLINE
  5
2CE
330
167
100
AcDbEntity
  8
0
 62
     7
370
    35
100
AcDbSpline
210
0.0
220
0.0
230
1.0
 70
     8
 71
     5
 72
    18
 73
    12
 74
     0
 42
0.000000001
 43
0.0
 40
0.0
 40
0.0
 40
0.0
 40
0.0
 40
0.0
 40
0.0
 40
2.775558167924113
 40
2.775558167924113
 40
2.775558167924113
 40
5.025602928180614
 40
5.025602928180614
 40
5.025602928180614
 40
5.603350742478422
 40
5.603350742478422
 40
5.603350742478422
 40
5.603350742478422
 40
5.603350742478422
 40
5.603350742478422
 10
-35.80508652763339
 20
295.8140010858937
 30
0.0
 10
-35.80508652550321
 20
295.5872360725933
 30
0.0
 10
-35.83876840344149
 20
295.356908503686
 30
0.0
 10
-35.90831641414383
 20
295.126109569647
 30
0.0
 10
-36.10142702875494
 20
294.7226174406005
 30
0.0
 10
-36.39202748798358
 20
294.3696774411446
 30
0.0
 10
-36.54090382437403
 20
294.2211267712609
 30
0.0
 10
-36.74893586002699
 20
294.0489970763563
 30
0.0
 10
-36.97795425191387
 20
293.8972115002833
 30
0.0
 10
-37.02558905376006
 20
293.8670571937205
 30
0.0
 10
-37.07398389653478
 20
293.8377978577981
 30
0.0
 10
-37.12310601229392
 20
293.8094371910414
 30
0.0
  0
SPLINE
  5
2CF
330
167
100
AcDbEntity
  8
0
 62
     7
370
    35
100
AcDbSpline
210
0.0
220
0.0
230
1.0
 70
     8
 71
     5
 72
    18
 73
    12
 74
     0
 42
0.000000001
 43
0.0
 40
0.0
 40
0.0
 40
0.0
 40
0.0
 40
0.0
 40
0.0
 40
2.943553183076016
 40
2.943553183076016
 40
2.943553183076016
 40
5.365052487104561
 40
5.365052487104561
 40
5.365052487104561
 40
5.9884146024177
 40
5.9884146024177
 40
5.9884146024177
 40
5.9884146024177
 40
5.9884146024177
 40
5.9884146024177
 10
-37.12310601229392
 20
293.8094371910415
 30
0.0
 10
-37.37337707628393
 20
293.6649431248765
 30
0.0
 10
-37.64926571616522
 20
293.5398855386463
 30
0.0
 10
-37.94976800113942
 20
293.4347026868671
 30
0.0
 10
-38.52278906704109
 20
293.2865876897178
 30
0.0
 10
-39.12176572182543
 20
293.2138106593549
 30
0.0
 10
-39.39773146539196
 20
293.1950880510532
 30
0.0
 10
-39.74606273301436
 20
293.18888096469
 30
0.0
 10
-40.09288397264199
 20
293.2026418881167
 30
0.0
 10
-40.16379027102379
 20
293.206278430751
 30
0.0
 10
-40.23453536307782
 20
293.2107132971337
 30
0.0
 10
-40.30508655516185
 20
293.2159248586468
 30
0.0
  0
SPLINE
  5
2D0
330
167
100
AcDbEntity
  8
0
 62
     7
370
    35
100
AcDbSpline
210
0.0
220
0.0
230
1.0
 70
     8
 71
     5
 72
    18
 73
    12
 74
     0
 42
0.000000001
 43
0.0
 40
0.0
 40
0.0
 40
0.0
 40
0.0
 40
0.0
 40
0.0
 40
2.446825171826448
 40
2.446825171826448
 40
2.446825171826448
 40
3.669941683816685
 40
3.669941683816685
 40
3.669941683816685
 40
6.012482213738645
 40
6.012482213738645
 40
6.012482213738645
 40
6.012482213738645
 40
6.012482213738645
 40
6.012482213738645
 10
-40.30508655516188
 20
293.2159248586469
 30
0.0
 10
-40.58201456931758
 20
293.236381314985
 30
0.0
 10
-40.86135548417735
 20
293.2693522005611
 30
0.0
 10
-41.14459222489954
 20
293.3149353676068
 30
0.0
 10
-41.56710032333361
 20
293.4023898149351
 30
0.0
 10
-41.97294072604997
 20
293.5135545659886
 30
0.0
 10
-42.10181663591247
 20
293.5517965411884
 30
0.0
 10
-42.48262034759978
 20
293.6735143935712
 30
0.0
 10
-42.8448007886962
 20
293.8160034147722
 30
0.0
 10
-43.07325219032259
 20
293.9184324151497
 30
0.0
 10
-43.28789069786184
 20
294.0279516305227
 30
0.0
 10
-43.48706704297276
 20
294.1428932792134
 30
0.0
  0
SPLINE
  5
2D1
330
167
100
AcDbEntity
  8
0
 62
     7
370
    35
100
AcDbSpline
210
0.0
220
0.0
230
1.0
 70
     8
 71
     5
 72
    18
 73
    12
 74
     0
 42
0.000000001
 43
0.0
 40
0.0
 40
0.0
 40
0.0
 40
0.0
 40
0.0
 40
0.0
 40
2.270760465246422
 40
2.270760465246422
 40
2.270760465246422
 40
3.906077667126719
 40
3.906077667126719
 40
3.906077667126719
 40
5.478248647659141
 40
5.478248647659141
 40
5.478248647659141
 40
5.478248647659141
 40
5.478248647659141
 40
5.478248647659141
 10
-43.48706704298286
 20
294.1428932792191
 30
0.0
 10
-43.68012953758114
 20
294.2544092074103
 30
0.0
 10
-43.8626780084662
 20
294.3733381341567
 30
0.0
 10
-44.03371824052164
 20
294.5008306741287
 30
0.0
 10
-44.29875421770343
 20
294.7333639768165
 30
0.0
 10
-44.50221331048182
 20
294.978558239121
 30
0.0
 10
-44.57630606797121
 20
295.0835259886278
 30
0.0
 10
-44.69703421295305
 20
295.291148479077
 30
0.0
 10
-44.76974913907584
 20
295.5027867525121
 30
0.0
 10
-44.79350213997957
 20
295.6074073969975
 30
0.0
 10
-44.80508652638413
 20
295.711182839671
 30
0.0
 10
-44.80508652763339
 20
295.8140010541068
 30
0.0
  0
SPLINE
  5
2D2
330
167
100
AcDbEntity
  8
0
 62
     7
370
    35
100
AcDbSpline
210
0.0
220
0.0
230
1.0
 70
     8
 71
     5
 72
    18
 73
    12
 74
     0
 42
0.000000001
 43
0.0
 40
0.0
 40
0.0
 40
0.0
 40
0.0
 40
0.0
 40
0.0
 40
2.133530448727848
 40
2.133530448727848
 40
2.133530448727848
 40
3.769204647144556
 40
3.769204647144556
 40
3.769204647144556
 40
5.471634890037275
 40
5.471634890037275
 40
5.471634890037275
 40
5.471634890037275
 40
5.471634890037275
 40
5.471634890037275
 10
-44.8050865276334
 20
295.8140010541068
 30
0.0
 10
-44.80508652932873
 20
295.9535315465907
 30
0.0
 10
-44.78375258811912
 20
296.0947551128872
 30
0.0
 10
-44.73992196052286
 20
296.2382956754868
 30
0.0
 10
-44.6193631209898
 20
296.4914903306892
 30
0.0
 10
-44.43665933372113
 20
296.7312857871625
 30
0.0
 10
-44.3473875554736
 20
296.8318652442257
 30
0.0
 10
-44.14385705077213
 20
297.0326048942468
 30
0.0
 10
-43.90259807109096
 20
297.2203095091839
 30
0.0
 10
-43.77065114051115
 20
297.3123855862493
 30
0.0
 10
-43.63181354550159
 20
297.4001023730171
 30
0.0
 10
-43.48706704297287
 20
297.4836718052163
 30
0.0
  0
SPLINE
  5
2D3
330
167
100
AcDbEntity
  8
0
 62
     7
370
    35
100
AcDbSpline
210
0.0
220
0.0
230
1.0
 70
     8
 71
     5
 72
    18
 73
    12
 74
     0
 42
0.000000001
 43
0.0
 40
0.0
 40
0.0
 40
0.0
 40
0.0
 40
0.0
 40
0.0
 40
2.349034015042103
 40
2.349034015042103
 40
2.349034015042103
 40
4.168366284630451
 40
4.168366284630451
 40
4.168366284630451
 40
6.015733680234246
 40
6.015733680234246
 40
6.015733680234246
 40
6.015733680234246
 40
6.015733680234246
 40
6.015733680234246
 10
-43.48706704297287
 20
297.4836718052164
 30
0.0
 10
-43.2873440531953
 20
297.5989819271279
 30
0.0
 10
-43.07207935937586
 20
297.7088739366989
 30
0.0
 10
-42.84100054522641
 20
297.8127381030976
 30
0.0
 10
-42.4111863849833
 20
297.9813505411097
 30
0.0
 10
-41.95974304072352
 20
298.1197671089254
 30
0.0
 10
-41.76056012554881
 20
298.1741298958918
 30
0.0
 10
-41.3519012964798
 20
298.2720269957355
 30
0.0
 10
-40.93554429237943
 20
298.3443431901053
 30
0.0
 10
-40.72462232270806
 20
298.3740119808146
 30
0.0
 10
-40.51416877956545
 20
298.3966325379789
 30
0.0
 10
-40.30508650010528
 20
298.4120772813536
 30
0.0
  0
SPLINE
  5
2D4
330
167
100
AcDbEntity
  8
0
 62
     7
370
    35
100
AcDbSpline
210
0.0
220
0.0
230
1.0
 70
     8
 71
     5
 72
    18
 73
    12
 74
     0
 42
0.000000001
 43
0.0
 40
0.0
 40
0.0
 40
0.0
 40
0.0
 40
0.0
 40
0.0
 40
3.055267516211449
 40
3.055267516211449
 40
3.055267516211449
 40
5.428309255863114
 40
5.428309255863114
 40
5.428309255863114
 40
5.988402629224746
 40
5.988402629224746
 40
5.988402629224746
 40
5.988402629224746
 40
5.988402629224746
 40
5.988402629224746
 10
-40.30508650010526
 20
298.4120772813536
 30
0.0
 10
-39.95929589117158
 20
298.4376205613968
 30
0.0
 10
-39.60883591649018
 20
298.4443903740726
 30
0.0
 10
-39.25429480232472
 20
298.4301900085519
 30
0.0
 10
-38.63415915578305
 20
298.3615901787168
 30
0.0
 10
-38.06008728943171
 20
298.2191814259411
 30
0.0
 10
-37.81808283101358
 20
298.1428182833304
 30
0.0
 10
-37.53214375040311
 20
298.0303357604631
 30
0.0
 10
-37.26873181245034
 20
297.8975356044698
 30
0.0
 10
-37.21927285854036
 20
297.8714381218567
 30
0.0
 10
-37.17072575269545
 20
297.8446338031306
 30
0.0
 10
-37.12310601229377
 20
297.817127893388
 30
0.0
  0
ELLIPSE
  5
2D5
330
167
100
AcDbEntity
  8
0
 62
     7
370
    35
100
AcDbEllipse
 10
-40.305088
 20
291.081024
 30
0.0
 11
-4.5
 21
5.510910704284357E-16
 31
0.0
210
0.0
220
0.0
230
1.0
 40
0.57735
 41
4.22662157612063
 42
5.082124283575048
  0
ELLIPSE
  5
2D6
330
167
100
AcDbEntity
  8
0
 62
     7
370
    35
100
AcDbEllipse
 10
-38.295151
 20
256.815796
 30
0.0
 11
1.5
 21
-2.598076105117798
 31
0.0
210
0.0
220
0.0
230
1.0
 40
0.57735
 41
3.141592653589793
 42
6.283185307179586
  0
ELLIPSE
  5
2D7
330
167
100
AcDbEntity
  8
0
 62
     7
370
    35
100
AcDbEllipse
 10
-38.295151
 20
256.815796
 30
0.0
 11
1.5
 21
-2.598076105117798
 31
0.0
210
0.0
220
0.0
230
1.0
 40
0.57735
 41
0.7853981633974544
 42
3.141592653589793
  0
ELLIPSE
  5
2D8
330
167
100
AcDbEntity
  8
0
 62
     7
370
    35
100
AcDbEllipse
 10
-38.295151
 20
256.815796
 30
0.0
 11
1.5
 21
-2.598076105117798
 31
0.0
210
0.0
220
0.0
230
1.0
 40
0.57735
 41
0.0
 42
0.7853981633974447
  0
ELLIPSE
  5
2D9
330
167
100
AcDbEntity
  8
0
 62
     7
370
    35
100
AcDbEllipse
 10
-60.699802
 20
283.704926
 30
0.0
 11
1.5
 21
-2.598076105117798
 31
0.0
210
0.0
220
0.0
230
1.0
 40
0.57735
 41
3.141592653589793
 42
6.283185307179586
  0
ELLIPSE
  5
2DA
330
167
100
AcDbEntity
  8
0
 62
     7
370
    35
100
AcDbEllipse
 10
-60.699802
 20
283.704926
 30
0.0
 11
1.5
 21
-2.598076105117798
 31
0.0
210
0.0
220
0.0
230
1.0
 40
0.57735
 41
0.7853981633974544
 42
3.141592653589793
  0
ELLIPSE
  5
2DB
330
167
100
AcDbEntity
  8
0
 62
     7
370
    35
100
AcDbEllipse
 10
-60.699802
 20
283.704926
 30
0.0
 11
1.5
 21
-2.598076105117798
 31
0.0
210
0.0
220
0.0
230
1.0
 40
0.57735
 41
0.0
 42
0.7853981633974544
  0
ELLIPSE
  5
2DC
330
167
100
AcDbEntity
  8
0
 62
     7
370
    35
100
AcDbEllipse
 10
-49.497475
 20
270.260376
 30
0.0
 11
12.5
 21
-21.650634765625
 31
0.0
210
0.0
220
0.0
230
1.0
 40
0.57735
 41
0.0
 42
0.7853981633974394
  0
LINE
  5
2DD
330
167
100
AcDbEntity
  8
0
 62
     7
370
    35
100
AcDbLine
 10
-61.997475
 20
291.911003
 30
0.0
 11
-47.855339
 21
300.075969
 31
0.0
  0
LINE
  5
2DE
330
167
100
AcDbEntity
  8
0
 62
     7
370
    35
100
AcDbLine
 10
-36.997475
 20
248.609733
 30
0.0
 11
-22.855339
 21
256.774699
 31
0.0
  0
ENDBLK
  5
169
330
167
100
AcDbEntity
  8
0
100
AcDbBlockEnd
  0
BLOCK
  5
16B
330
16A
100
AcDbEntity
  8
0
100
AcDbBlockBegin
  2
BLOCK1172
 70
     0
 10
0.0
 20
0.0
 30
0.0
  3
BLOCK1172
  1

  0
TEXT
  5
2DF
330
16A
100
AcDbEntity
  8
0
 62
     7
370
    18
100
AcDbText
 10
-180.0
 20
101.400002
 30
0.0
 40
3.5
  1
B-B
 41
0.74285
 72
     5
 11
-171.952454
 21
101.400002
 31
0.0
100
AcDbText
  0
ENDBLK
  5
16C
330
16A
100
AcDbEntity
  8
0
100
AcDbBlockEnd
  0
BLOCK
  5
16E
330
16D
100
AcDbEntity
  8
0
100
AcDbBlockBegin
  2
*D85
 70
     1
 10
0.0
 20
0.0
 30
0.0
  3
*D85
  1

  0
SOLID
  5
2E0
330
16D
100
AcDbEntity
  8
0
 62
     7
370
    18
100
AcDbTrace
 10
126.048814
 20
107.576944
 30
0.0
 11
125.356568
 21
104.6579
 31
0.0
 12
126.048814
 22
107.576944
 32
0.0
 13
127.415589
 23
106.839746
 33
0.0
  0
SOLID
  5
2E1
330
16D
100
AcDbEntity
  8
0
 62
     7
370
    18
100
AcDbTrace
 10
131.785111
 20
114.940927
 30
0.0
 11
132.477341
 21
117.859972
 31
0.0
 12
131.785111
 22
114.940927
 32
0.0
 13
130.41832
 23
115.678125
 33
0.0
  0
TEXT
  5
2E2
330
16D
100
AcDbEntity
  8
0
 62
     7
370
    18
100
AcDbText
 10
135.465432
 20
129.719507
 30
0.0
 40
3.5
  1
15
 50
61.659017
 41
0.680285
 72
     5
 11
137.456918
 21
133.411768
 31
0.0
100
AcDbText
  0
TEXT
  5
2E3
330
16D
100
AcDbEntity
  8
0
 62
     7
370
    18
100
AcDbText
 10
138.287675
 20
134.952005
 30
0.0
 40
3.5
  1
%%p0,1
 50
61.658989
 41
0.704458
 72
     5
 11
142.022019
 21
141.875559
 31
0.0
100
AcDbText
  0
TEXT
  5
2E4
330
16D
100
AcDbEntity
  8
0
 62
     7
370
    18
100
AcDbText
 10
132.666917
 20
124.530985
 30
0.0
 40
3.5
  1
2x
 50
61.659109
 41
0.863844
 72
     5
 11
134.990708
 21
128.839365
 31
0.0
100
AcDbText
  0
LINE
  5
2E5
330
16D
100
AcDbEntity
  8
0
 62
     7
370
    18
100
AcDbLine
 10
110.942902
 20
112.432169
 30
0.0
 11
127.116853
 21
103.708467
 31
0.0
  0
LINE
  5
2E6
330
16D
100
AcDbEntity
  8
0
 62
     7
370
    18
100
AcDbLine
 10
114.543122
 20
127.533106
 30
0.0
 11
134.237626
 21
116.910532
 31
0.0
  0
LINE
  5
2E7
330
16D
100
AcDbEntity
  8
0
 62
     7
370
    18
100
AcDbLine
 10
126.732194
 20
107.208345
 30
0.0
 11
131.101716
 21
115.309526
 31
0.0
  0
LINE
  5
2E8
330
16D
100
AcDbEntity
  8
0
 62
     7
370
    18
100
AcDbLine
 10
132.477341
 20
117.859972
 30
0.0
 11
144.662431
 21
140.451395
 31
0.0
  0
POLYLINE
  5
2E9
330
16D
100
AcDbEntity
  8
0
 62
     7
370
    18
100
AcDb2dPolyline
 66
     1
 10
0.0
 20
0.0
 30
0.0
 70
     1
  0
VERTEX
  5
2EA
330
2E9
100
AcDbEntity
  8
0
370
     0
100
AcDbVertex
100
AcDb2dVertex
 10
126.048814
 20
107.576944
 30
0.0
  0
VERTEX
  5
2EB
330
2E9
100
AcDbEntity
  8
0
370
     0
100
AcDbVertex
100
AcDb2dVertex
 10
125.356568
 20
104.6579
 30
0.0
  0
VERTEX
  5
2EC
330
2E9
100
AcDbEntity
  8
0
370
     0
100
AcDbVertex
100
AcDb2dVertex
 10
127.415589
 20
106.839746
 30
0.0
  0
SEQEND
  5
2ED
330
2E9
100
AcDbEntity
  8
0
 62
     7
370
    18
  0
POLYLINE
  5
2EE
330
16D
100
AcDbEntity
  8
0
 62
     7
370
    18
100
AcDb2dPolyline
 66
     1
 10
0.0
 20
0.0
 30
0.0
 70
     1
  0
VERTEX
  5
2EF
330
2EE
100
AcDbEntity
  8
0
370
     0
100
AcDbVertex
100
AcDb2dVertex
 10
131.785111
 20
114.940927
 30
0.0
  0
VERTEX
  5
2F0
330
2EE
100
AcDbEntity
  8
0
370
     0
100
AcDbVertex
100
AcDb2dVertex
 10
132.477341
 20
117.859972
 30
0.0
  0
VERTEX
  5
2F1
330
2EE
100
AcDbEntity
  8
0
370
     0
100
AcDbVertex
100
AcDb2dVertex
 10
130.41832
 20
115.678125
 30
0.0
  0
SEQEND
  5
2F2
330
2EE
100
AcDbEntity
  8
0
 62
     7
370
    18
  0
ENDBLK
  5
16F
330
16D
100
AcDbEntity
  8
0
100
AcDbBlockEnd
  0
BLOCK
  5
171
330
170
100
AcDbEntity
  8
0
100
AcDbBlockBegin
  2
BLOCK1173
 70
     0
 10
0.0
 20
0.0
 30
0.0
  3
BLOCK1173
  1

  0
LINE
  5
2F3
330
170
100
AcDbEntity
  8
0
 62
     7
370
    35
100
AcDbLine
 10
-182.025839
 20
153.547529
 30
0.0
 11
-185.488488
 21
153.447239
 31
0.0
  0
LINE
  5
2F4
330
170
100
AcDbEntity
  8
0
 62
     7
370
    35
100
AcDbLine
 10
-192.609259
 20
140.24517
 30
0.0
 11
-185.488488
 21
153.447239
 31
0.0
  0
LINE
  5
2F5
330
170
100
AcDbEntity
  8
0
 62
     7
370
    35
100
AcDbLine
 10
-192.609259
 20
140.24517
 30
0.0
 11
-196.129817
 21
142.144046
 31
0.0
  0
LINE
  5
2F6
330
170
100
AcDbEntity
  8
0
 62
     7
370
    35
100
AcDbLine
 10
-196.129817
 20
142.144046
 30
0.0
 11
-186.635456
 21
159.746804
 31
0.0
  0
LINE
  5
2F7
330
170
100
AcDbEntity
  8
0
 62
     7
370
    35
100
AcDbLine
 10
-171.761125
 20
151.724069
 30
0.0
 11
-186.635456
 21
159.746804
 31
0.0
  0
LINE
  5
2F8
330
170
100
AcDbEntity
  8
0
 62
     7
370
    35
100
AcDbLine
 10
-181.255486
 20
134.121311
 30
0.0
 11
-171.761125
 21
151.724069
 31
0.0
  0
LINE
  5
2F9
330
170
100
AcDbEntity
  8
0
 62
     7
370
    35
100
AcDbLine
 10
-181.255486
 20
134.121311
 30
0.0
 11
-187.328432
 21
137.396862
 31
0.0
  0
LINE
  5
2FA
330
170
100
AcDbEntity
  8
0
 62
     7
370
    35
100
AcDbLine
 10
-187.328432
 20
137.396862
 30
0.0
 11
-180.207661
 21
150.598931
 31
0.0
  0
LINE
  5
2FB
330
170
100
AcDbEntity
  8
0
 62
     7
370
    35
100
AcDbLine
 10
-182.025839
 20
153.547529
 30
0.0
 11
-180.207661
 21
150.598931
 31
0.0
  0
SPLINE
  5
2FC
330
170
100
AcDbEntity
  8
0
 62
     7
370
    35
100
AcDbSpline
210
0.0
220
0.0
230
1.0
 70
     8
 71
     5
 72
    24
 73
    18
 74
     0
 42
0.000000001
 43
0.0
 40
0.0
 40
0.0
 40
0.0
 40
0.0
 40
0.0
 40
0.0
 40
2.468357802029666
 40
2.468357802029666
 40
2.468357802029666
 40
5.615418190519399
 40
5.615418190519399
 40
5.615418190519399
 40
8.766613143480884
 40
8.766613143480884
 40
8.766613143480884
 40
11.95592514188117
 40
11.95592514188117
 40
11.95592514188117
 40
13.51955433063596
 40
13.51955433063596
 40
13.51955433063596
 40
13.51955433063596
 40
13.51955433063596
 40
13.51955433063596
 10
-163.3364464738534
 20
142.1808524886831
 30
0.0
 10
-163.5870893715714
 20
142.3160411971505
 30
0.0
 10
-163.8661289397648
 20
142.4093597016897
 30
0.0
 10
-164.1614906081776
 20
142.4563543253335
 30
0.0
 10
-164.8388383305241
 20
142.4650592618241
 30
0.0
 10
-165.4880327379566
 20
142.2667688587233
 30
0.0
 10
-165.826761403622
 20
142.0969218618184
 30
0.0
 10
-166.4264116821669
 20
141.6525763566017
 30
0.0
 10
-166.8304406378186
 20
141.0351539145374
 30
0.0
 10
-166.9727337608117
 20
140.6929415993868
 30
0.0
 10
-167.1300800420743
 20
139.9633500382371
 30
0.0
 10
-167.0288032524011
 20
139.2111819257752
 30
0.0
 10
-166.9126190257412
 20
138.8401440137395
 30
0.0
 10
-166.6453142485051
 20
138.3257917278777
 30
0.0
 10
-166.2553447244953
 20
137.9153912867864
 30
0.0
 10
-166.1147489417601
 20
137.7941624544802
 30
0.0
 10
-165.9637549800043
 20
137.6897731926937
 30
0.0
 10
-165.8049803685992
 20
137.6041352797558
 30
0.0
  0
LINE
  5
2FD
330
170
100
AcDbEntity
  8
0
 62
     7
370
    35
100
AcDbLine
 10
-152.122921
 20
118.408143
 30
0.0
 11
-142.62856
 21
136.010902
 31
0.0
  0
LINE
  5
2FE
330
170
100
AcDbEntity
  8
0
 62
     7
370
    35
100
AcDbLine
 10
-166.997252
 20
126.430878
 30
0.0
 11
-180.400975
 21
133.660415
 31
0.0
  0
LINE
  5
2FF
330
170
100
AcDbEntity
  8
0
 62
     7
370
    35
100
AcDbLine
 10
-157.502891
 20
144.033637
 30
0.0
 11
-170.906614
 21
151.263174
 31
0.0
  0
LINE
  5
300
330
170
100
AcDbEntity
  8
0
 62
     7
370
    35
100
AcDbLine
 10
-166.997252
 20
126.430878
 30
0.0
 11
-157.50289
 21
144.033637
 31
0.0
  0
SPLINE
  5
301
330
170
100
AcDbEntity
  8
0
 62
     7
370
    35
100
AcDbSpline
210
0.0
220
0.0
230
1.0
 70
     8
 71
     5
 72
    27
 73
    21
 74
     0
 42
0.000000001
 43
0.0
 40
0.0
 40
0.0
 40
0.0
 40
0.0
 40
0.0
 40
0.0
 40
1.604634759762478
 40
1.604634759762478
 40
1.604634759762478
 40
4.065518074044274
 40
4.065518074044274
 40
4.065518074044274
 40
8.089776964623008
 40
8.089776964623008
 40
8.089776964623008
 40
10.31507241795509
 40
10.31507241795509
 40
10.31507241795509
 40
12.03915134637386
 40
12.03915134637386
 40
12.03915134637386
 40
13.22539650276999
 40
13.22539650276999
 40
13.22539650276999
 40
13.22539650276999
 40
13.22539650276999
 40
13.22539650276999
 10
-165.8049789612668
 20
137.6041345206867
 30
0.0
 10
-165.6420404904376
 20
137.5162509230405
 30
0.0
 10
-165.4709082490417
 20
137.4481153090831
 30
0.0
 10
-165.2946274251233
 20
137.4019333257687
 30
0.0
 10
-164.843088379291
 20
137.3417516609274
 30
0.0
 10
-164.3973073834415
 20
137.4193374522711
 30
0.0
 10
-164.1390635910682
 20
137.5132695487488
 30
0.0
 10
-163.5024750717137
 20
137.8582907838554
 30
0.0
 10
-162.9927812007604
 20
138.4160702919231
 30
0.0
 10
-162.7333867933669
 20
138.8157826181334
 30
0.0
 10
-162.4313933992834
 20
139.4857817001091
 30
0.0
 10
-162.3242550383243
 20
140.1884183150654
 30
0.0
 10
-162.3134974244819
 20
140.4396575337969
 30
0.0
 10
-162.3500226241067
 20
140.8795400094924
 30
0.0
 10
-162.4938033079573
 20
141.2908578389379
 30
0.0
 10
-162.5782396962577
 20
141.4622327356692
 30
0.0
 10
-162.7582383329758
 20
141.7314991845534
 30
0.0
 10
-162.9961362035367
 20
141.9574482892795
 30
0.0
 10
-163.1020970274102
 20
142.0412442459818
 30
0.0
 10
-163.2159923309579
 20
142.1158834025615
 30
0.0
 10
-163.3364464738534
 20
142.180852488683
 30
0.0
  0
LINE
  5
302
330
170
100
AcDbEntity
  8
0
 62
     7
370
    35
100
AcDbLine
 10
-160.607813
 20
122.984621
 30
0.0
 11
-160.924298
 21
123.155323
 31
0.0
  0
LINE
  5
303
330
170
100
AcDbEntity
  8
0
 62
     7
370
    35
100
AcDbLine
 10
-155.643471
 20
120.307014
 30
0.0
 11
-160.607813
 21
122.984621
 31
0.0
  0
LINE
  5
304
330
170
100
AcDbEntity
  8
0
 62
     7
370
    35
100
AcDbLine
 10
-152.122921
 20
118.408143
 30
0.0
 11
-155.643471
 21
120.307014
 31
0.0
  0
LINE
  5
305
330
170
100
AcDbEntity
  8
0
 62
     7
370
    35
100
AcDbLine
 10
-192.292774
 20
140.074468
 30
0.0
 11
-192.609259
 21
140.24517
 31
0.0
  0
LINE
  5
306
330
170
100
AcDbEntity
  8
0
 62
     7
370
    35
100
AcDbLine
 10
-187.328432
 20
137.396862
 30
0.0
 11
-192.292774
 21
140.074468
 31
0.0
  0
LINE
  5
307
330
170
100
AcDbEntity
  8
0
 62
     7
370
    35
100
AcDbLine
 10
-180.400975
 20
133.660415
 30
0.0
 11
-181.255486
 21
134.121311
 31
0.0
  0
LINE
  5
308
330
170
100
AcDbEntity
  8
0
 62
     7
370
    35
100
AcDbLine
 10
-160.924298
 20
123.155323
 30
0.0
 11
-166.997252
 21
126.430878
 31
0.0
  0
LINE
  5
309
330
170
100
AcDbEntity
  8
0
 62
     7
370
    35
100
AcDbLine
 10
-170.906614
 20
151.263174
 30
0.0
 11
-171.761125
 21
151.724069
 31
0.0
  0
LINE
  5
30A
330
170
100
AcDbEntity
  8
0
 62
     7
370
    35
100
AcDbLine
 10
-142.62856
 20
136.010902
 30
0.0
 11
-157.502891
 21
144.033637
 31
0.0
  0
LINE
  5
30B
330
170
100
AcDbEntity
  8
0
 62
     7
370
    35
100
AcDbLine
 10
-153.487042
 20
136.18669
 30
0.0
 11
-153.803528
 21
136.357392
 31
0.0
  0
LINE
  5
30C
330
170
100
AcDbEntity
  8
0
 62
     7
370
    35
100
AcDbLine
 10
-160.924298
 20
123.155323
 30
0.0
 11
-153.803528
 21
136.357392
 31
0.0
  0
LINE
  5
30D
330
170
100
AcDbEntity
  8
0
 62
     7
370
    35
100
AcDbLine
 10
-148.5227
 20
133.509083
 30
0.0
 11
-153.487042
 21
136.18669
 31
0.0
  0
LINE
  5
30E
330
170
100
AcDbEntity
  8
0
 62
     7
370
    35
100
AcDbLine
 10
-155.643471
 20
120.307014
 30
0.0
 11
-148.5227
 21
133.509083
 31
0.0
  0
LINE
  5
30F
330
170
100
AcDbEntity
  8
0
 62
     7
370
    35
100
AcDbLine
 10
-185.172003
 20
153.276537
 30
0.0
 11
-185.488488
 21
153.447239
 31
0.0
  0
LINE
  5
310
330
170
100
AcDbEntity
  8
0
 62
     7
370
    35
100
AcDbLine
 10
-180.207661
 20
150.598931
 30
0.0
 11
-185.172003
 21
153.276537
 31
0.0
  0
LINE
  5
311
330
170
100
AcDbEntity
  8
0
 62
     7
370
    35
100
AcDbLine
 10
-150.340878
 20
136.457681
 30
0.0
 11
-153.803528
 21
136.357392
 31
0.0
  0
LINE
  5
312
330
170
100
AcDbEntity
  8
0
 62
     7
370
    35
100
AcDbLine
 10
-150.340878
 20
136.457681
 30
0.0
 11
-148.5227
 21
133.509083
 31
0.0
  0
ENDBLK
  5
172
330
170
100
AcDbEntity
  8
0
100
AcDbBlockEnd
  0
BLOCK
  5
174
330
173
100
AcDbEntity
  8
0
100
AcDbBlockBegin
  2
BLOCK1174
 70
     0
 10
0.0
 20
0.0
 30
0.0
  3
BLOCK1174
  1

  0
LINE
  5
313
330
173
100
AcDbEntity
  8
0
 62
     7
370
    18
100
AcDbLine
 10
-155.527298
 20
120.244354
 30
0.0
 11
-145.986572
 21
129.78508
 31
0.0
  0
LINE
  5
314
330
173
100
AcDbEntity
  8
0
 62
     7
370
    18
100
AcDbLine
 10
-148.832016
 20
134.010696
 30
0.0
 11
-145.35907
 21
137.483643
 31
0.0
  0
LINE
  5
315
330
173
100
AcDbEntity
  8
0
 62
     7
370
    18
100
AcDbLine
 10
-164.714264
 20
125.199509
 30
0.0
 11
-154.092911
 21
135.820877
 31
0.0
  0
LINE
  5
316
330
173
100
AcDbEntity
  8
0
 62
     7
370
    18
100
AcDbLine
 10
-153.549011
 20
136.364761
 30
0.0
 11
-149.952545
 21
139.961227
 31
0.0
  0
LINE
  5
317
330
173
100
AcDbEntity
  8
0
 62
     7
370
    18
100
AcDbLine
 10
-162.832581
 20
134.152267
 30
0.0
 11
-154.546036
 21
142.438812
 31
0.0
  0
ENDBLK
  5
175
330
173
100
AcDbEntity
  8
0
100
AcDbBlockEnd
  0
BLOCK
  5
177
330
176
100
AcDbEntity
  8
0
100
AcDbBlockBegin
  2
BLOCK1175
 70
     0
 10
0.0
 20
0.0
 30
0.0
  3
BLOCK1175
  1

  0
LINE
  5
318
330
176
100
AcDbEntity
  8
0
 62
     7
370
    18
100
AcDbLine
 10
-183.088226
 20
135.109833
 30
0.0
 11
-177.951996
 21
140.246063
 31
0.0
  0
LINE
  5
319
330
176
100
AcDbEntity
  8
0
 62
     7
370
    18
100
AcDbLine
 10
-186.69165
 20
138.577469
 30
0.0
 11
-172.919998
 21
152.349121
 31
0.0
  0
LINE
  5
31A
330
176
100
AcDbEntity
  8
0
 62
     7
370
    18
100
AcDbLine
 10
-180.792618
 20
151.547577
 30
0.0
 11
-177.513489
 21
154.826706
 31
0.0
  0
LINE
  5
31B
330
176
100
AcDbEntity
  8
0
 62
     7
370
    18
100
AcDbLine
 10
-194.798004
 20
144.613251
 30
0.0
 11
-182.106964
 21
157.304291
 31
0.0
  0
ENDBLK
  5
178
330
176
100
AcDbEntity
  8
0
100
AcDbBlockEnd
  0
ENDSEC
  0
SECTION
  2
ENTITIES
  0
INSERT
  5
31C
330
1F
100
AcDbEntity
  8
0
370
     0
100
AcDbBlockReference
  2
BLOCK1099
 10
0.0
 20
0.0
 30
0.0
  0
INSERT
  5
31D
330
1F
100
AcDbEntity
  8
0
370
     0
100
AcDbBlockReference
  2
BLOCK1100
 10
0.0
 20
0.0
 30
0.0
  0
INSERT
  5
31E
330
1F
100
AcDbEntity
  8
0
370
     0
100
AcDbBlockReference
  2
BLOCK1101
 10
0.0
 20
0.0
 30
0.0
  0
INSERT
  5
31F
330
1F
100
AcDbEntity
  8
0
370
     0
100
AcDbBlockReference
  2
BLOCK1102
 10
0.0
 20
0.0
 30
0.0
  0
INSERT
  5
320
330
1F
100
AcDbEntity
  8
0
370
     0
100
AcDbBlockReference
  2
BLOCK1103
 10
0.0
 20
0.0
 30
0.0
  0
INSERT
  5
321
330
1F
100
AcDbEntity
  8
0
370
     0
100
AcDbBlockReference
  2
BLOCK1104
 10
0.0
 20
0.0
 30
0.0
  0
INSERT
  5
322
330
1F
100
AcDbEntity
  8
0
370
     0
100
AcDbBlockReference
  2
BLOCK1105
 10
0.0
 20
0.0
 30
0.0
  0
INSERT
  5
323
330
1F
100
AcDbEntity
  8
0
370
     0
100
AcDbBlockReference
  2
BLOCK1106
 10
0.0
 20
0.0
 30
0.0
  0
INSERT
  5
324
330
1F
100
AcDbEntity
  8
0
370
     0
100
AcDbBlockReference
  2
BLOCK1107
 10
0.0
 20
0.0
 30
0.0
  0
INSERT
  5
325
330
1F
100
AcDbEntity
  8
0
370
     0
100
AcDbBlockReference
  2
BLOCK1108
 10
0.0
 20
0.0
 30
0.0
  0
INSERT
  5
326
330
1F
100
AcDbEntity
  8
0
370
     0
100
AcDbBlockReference
  2
BLOCK1109
 10
0.0
 20
0.0
 30
0.0
  0
INSERT
  5
327
330
1F
100
AcDbEntity
  8
0
370
     0
100
AcDbBlockReference
  2
BLOCK1110
 10
0.0
 20
0.0
 30
0.0
  0
INSERT
  5
328
330
1F
100
AcDbEntity
  8
0
370
     0
100
AcDbBlockReference
  2
BLOCK1111
 10
0.0
 20
0.0
 30
0.0
  0
INSERT
  5
329
330
1F
100
AcDbEntity
  8
0
370
     0
100
AcDbBlockReference
  2
BLOCK1112
 10
0.0
 20
0.0
 30
0.0
  0
INSERT
  5
32A
330
1F
100
AcDbEntity
  8
0
370
     0
100
AcDbBlockReference
  2
BLOCK1113
 10
0.0
 20
0.0
 30
0.0
  0
INSERT
  5
32B
330
1F
100
AcDbEntity
  8
0
370
     0
100
AcDbBlockReference
  2
BLOCK1114
 10
0.0
 20
0.0
 30
0.0
  0
INSERT
  5
32C
330
1F
100
AcDbEntity
  8
0
370
     0
100
AcDbBlockReference
  2
BLOCK1115
 10
0.0
 20
0.0
 30
0.0
  0
INSERT
  5
32D
330
1F
100
AcDbEntity
  8
0
370
     0
100
AcDbBlockReference
  2
BLOCK1116
 10
0.0
 20
0.0
 30
0.0
  0
INSERT
  5
32E
330
1F
100
AcDbEntity
  8
0
370
     0
100
AcDbBlockReference
  2
BLOCK1117
 10
0.0
 20
0.0
 30
0.0
  0
INSERT
  5
32F
330
1F
100
AcDbEntity
  8
0
370
     0
100
AcDbBlockReference
  2
BLOCK1118
 10
0.0
 20
0.0
 30
0.0
  0
INSERT
  5
330
330
1F
100
AcDbEntity
  8
0
370
     0
100
AcDbBlockReference
  2
BLOCK1119
 10
0.0
 20
0.0
 30
0.0
  0
INSERT
  5
331
330
1F
100
AcDbEntity
  8
0
370
     0
100
AcDbBlockReference
  2
BLOCK1120
 10
0.0
 20
0.0
 30
0.0
  0
INSERT
  5
332
330
1F
100
AcDbEntity
  8
0
370
     0
100
AcDbBlockReference
  2
BLOCK1121
 10
0.0
 20
0.0
 30
0.0
  0
INSERT
  5
333
330
1F
100
AcDbEntity
  8
0
370
     0
100
AcDbBlockReference
  2
BLOCK1122
 10
0.0
 20
0.0
 30
0.0
  0
INSERT
  5
334
330
1F
100
AcDbEntity
  8
0
370
     0
100
AcDbBlockReference
  2
BLOCK1123
 10
0.0
 20
0.0
 30
0.0
  0
INSERT
  5
335
330
1F
100
AcDbEntity
  8
0
370
     0
100
AcDbBlockReference
  2
BLOCK1124
 10
0.0
 20
0.0
 30
0.0
  0
INSERT
  5
336
330
1F
100
AcDbEntity
  8
0
370
     0
100
AcDbBlockReference
  2
BLOCK1125
 10
0.0
 20
0.0
 30
0.0
  0
INSERT
  5
337
330
1F
100
AcDbEntity
  8
0
370
     0
100
AcDbBlockReference
  2
BLOCK1126
 10
0.0
 20
0.0
 30
0.0
  0
INSERT
  5
338
330
1F
100
AcDbEntity
  8
0
370
     0
100
AcDbBlockReference
  2
BLOCK1127
 10
0.0
 20
0.0
 30
0.0
  0
INSERT
  5
339
330
1F
100
AcDbEntity
  8
0
370
     0
100
AcDbBlockReference
  2
BLOCK1128
 10
0.0
 20
0.0
 30
0.0
  0
INSERT
  5
33A
330
1F
100
AcDbEntity
  8
0
370
     0
100
AcDbBlockReference
  2
BLOCK1129
 10
0.0
 20
0.0
 30
0.0
  0
INSERT
  5
33B
330
1F
100
AcDbEntity
  8
0
370
     0
100
AcDbBlockReference
  2
BLOCK1130
 10
0.0
 20
0.0
 30
0.0
  0
INSERT
  5
33C
330
1F
100
AcDbEntity
  8
0
370
     0
100
AcDbBlockReference
  2
BLOCK1131
 10
0.0
 20
0.0
 30
0.0
  0
INSERT
  5
33D
330
1F
100
AcDbEntity
  8
0
370
     0
100
AcDbBlockReference
  2
BLOCK1132
 10
0.0
 20
0.0
 30
0.0
  0
INSERT
  5
33E
330
1F
100
AcDbEntity
  8
0
370
     0
100
AcDbBlockReference
  2
BLOCK1133
 10
0.0
 20
0.0
 30
0.0
  0
INSERT
  5
33F
330
1F
100
AcDbEntity
  8
0
370
     0
100
AcDbBlockReference
  2
BLOCK1134
 10
0.0
 20
0.0
 30
0.0
  0
INSERT
  5
340
330
1F
100
AcDbEntity
  8
0
370
     0
100
AcDbBlockReference
  2
BLOCK1135
 10
0.0
 20
0.0
 30
0.0
  0
INSERT
  5
341
330
1F
100
AcDbEntity
  8
0
370
     0
100
AcDbBlockReference
  2
BLOCK1136
 10
0.0
 20
0.0
 30
0.0
  0
INSERT
  5
342
330
1F
100
AcDbEntity
  8
0
370
     0
100
AcDbBlockReference
  2
BLOCK1137
 10
0.0
 20
0.0
 30
0.0
  0
INSERT
  5
343
330
1F
100
AcDbEntity
  8
0
370
     0
100
AcDbBlockReference
  2
BLOCK1138
 10
0.0
 20
0.0
 30
0.0
  0
INSERT
  5
344
330
1F
100
AcDbEntity
  8
0
370
     0
100
AcDbBlockReference
  2
BLOCK1139
 10
0.0
 20
0.0
 30
0.0
  0
INSERT
  5
345
330
1F
100
AcDbEntity
  8
0
370
     0
100
AcDbBlockReference
  2
BLOCK1140
 10
0.0
 20
0.0
 30
0.0
  0
INSERT
  5
346
330
1F
100
AcDbEntity
  8
0
370
     0
100
AcDbBlockReference
  2
BLOCK1141
 10
0.0
 20
0.0
 30
0.0
  0
INSERT
  5
347
330
1F
100
AcDbEntity
  8
0
370
     0
100
AcDbBlockReference
  2
BLOCK1142
 10
0.0
 20
0.0
 30
0.0
  0
INSERT
  5
348
330
1F
100
AcDbEntity
  8
0
370
     0
100
AcDbBlockReference
  2
BLOCK1143
 10
0.0
 20
0.0
 30
0.0
  0
INSERT
  5
349
330
1F
100
AcDbEntity
  8
0
370
     0
100
AcDbBlockReference
  2
BLOCK1144
 10
0.0
 20
0.0
 30
0.0
  0
INSERT
  5
34A
330
1F
100
AcDbEntity
  8
0
370
     0
100
AcDbBlockReference
  2
BLOCK1145
 10
0.0
 20
0.0
 30
0.0
  0
INSERT
  5
34B
330
1F
100
AcDbEntity
  8
0
370
     0
100
AcDbBlockReference
  2
BLOCK1146
 10
0.0
 20
0.0
 30
0.0
  0
INSERT
  5
34C
330
1F
100
AcDbEntity
  8
0
370
     0
100
AcDbBlockReference
  2
BLOCK1147
 10
0.0
 20
0.0
 30
0.0
  0
INSERT
  5
34D
330
1F
100
AcDbEntity
  8
0
370
     0
100
AcDbBlockReference
  2
BLOCK1148
 10
0.0
 20
0.0
 30
0.0
  0
INSERT
  5
34E
330
1F
100
AcDbEntity
  8
0
370
     0
100
AcDbBlockReference
  2
BLOCK1149
 10
0.0
 20
0.0
 30
0.0
  0
INSERT
  5
34F
330
1F
100
AcDbEntity
  8
0
370
     0
100
AcDbBlockReference
  2
BLOCK1150
 10
0.0
 20
0.0
 30
0.0
  0
INSERT
  5
350
330
1F
100
AcDbEntity
  8
0
370
     0
100
AcDbBlockReference
  2
BLOCK1151
 10
0.0
 20
0.0
 30
0.0
  0
INSERT
  5
351
330
1F
100
AcDbEntity
  8
0
370
     0
100
AcDbBlockReference
  2
BLOCK1152
 10
0.0
 20
0.0
 30
0.0
  0
INSERT
  5
352
330
1F
100
AcDbEntity
  8
0
370
     0
100
AcDbBlockReference
  2
BLOCK1153
 10
0.0
 20
0.0
 30
0.0
  0
INSERT
  5
353
330
1F
100
AcDbEntity
  8
0
370
     0
100
AcDbBlockReference
  2
BLOCK1154
 10
0.0
 20
0.0
 30
0.0
  0
INSERT
  5
354
330
1F
100
AcDbEntity
  8
0
370
     0
100
AcDbBlockReference
  2
BLOCK1155
 10
0.0
 20
0.0
 30
0.0
  0
INSERT
  5
355
330
1F
100
AcDbEntity
  8
0
370
     0
100
AcDbBlockReference
  2
BLOCK1156
 10
0.0
 20
0.0
 30
0.0
  0
INSERT
  5
356
330
1F
100
AcDbEntity
  8
0
370
     0
100
AcDbBlockReference
  2
BLOCK1157
 10
0.0
 20
0.0
 30
0.0
  0
LINE
  5
357
330
1F
100
AcDbEntity
  8
0
 62
     7
370
    35
100
AcDbLine
 10
10.0
 20
10.0
 30
0.0
 11
410.0
 21
10.0
 31
0.0
  0
LINE
  5
358
330
1F
100
AcDbEntity
  8
0
 62
     7
370
    35
100
AcDbLine
 10
410.0
 20
10.0
 30
0.0
 11
410.0
 21
287.0
 31
0.0
  0
LINE
  5
359
330
1F
100
AcDbEntity
  8
0
 62
     7
370
    35
100
AcDbLine
 10
410.0
 20
287.0
 30
0.0
 11
10.0
 21
287.0
 31
0.0
  0
LINE
  5
35A
330
1F
100
AcDbEntity
  8
0
 62
     7
370
    35
100
AcDbLine
 10
10.0
 20
287.0
 30
0.0
 11
10.0
 21
10.0
 31
0.0
  0
LINE
  5
35B
330
1F
100
AcDbEntity
  8
0
 62
     7
370
    35
100
AcDbLine
 10
210.0
 20
287.0
 30
0.0
 11
210.0
 21
297.0
 31
0.0
  0
LINE
  5
35C
330
1F
100
AcDbEntity
  8
0
 62
     7
370
    35
100
AcDbLine
 10
210.0
 20
10.0
 30
0.0
 11
210.0
 21
0.0
 31
0.0
  0
LINE
  5
35D
330
1F
100
AcDbEntity
  8
0
 62
     7
370
    35
100
AcDbLine
 10
10.0
 20
148.5
 30
0.0
 11
0.0
 21
148.5
 31
0.0
  0
LINE
  5
35E
330
1F
100
AcDbEntity
  8
0
 62
     7
370
    35
100
AcDbLine
 10
410.0
 20
148.5
 30
0.0
 11
420.0
 21
148.5
 31
0.0
  0
LINE
  5
35F
330
1F
100
AcDbEntity
  8
0
 62
     7
370
    35
100
AcDbLine
 10
367.5
 20
10.0
 30
0.0
 11
367.5
 21
2.5
 31
0.0
  0
LINE
  5
360
330
1F
100
AcDbEntity
  8
0
 62
     7
370
    35
100
AcDbLine
 10
52.5
 20
10.0
 30
0.0
 11
52.5
 21
2.5
 31
0.0
  0
LINE
  5
361
330
1F
100
AcDbEntity
  8
0
 62
     7
370
    35
100
AcDbLine
 10
315.0
 20
10.0
 30
0.0
 11
315.0
 21
2.5
 31
0.0
  0
LINE
  5
362
330
1F
100
AcDbEntity
  8
0
 62
     7
370
    35
100
AcDbLine
 10
105.0
 20
10.0
 30
0.0
 11
105.0
 21
2.5
 31
0.0
  0
LINE
  5
363
330
1F
100
AcDbEntity
  8
0
 62
     7
370
    35
100
AcDbLine
 10
262.5
 20
287.0
 30
0.0
 11
262.5
 21
294.5
 31
0.0
  0
LINE
  5
364
330
1F
100
AcDbEntity
  8
0
 62
     7
370
    35
100
AcDbLine
 10
157.5
 20
287.0
 30
0.0
 11
157.5
 21
294.5
 31
0.0
  0
LINE
  5
365
330
1F
100
AcDbEntity
  8
0
 62
     7
370
    35
100
AcDbLine
 10
315.0
 20
287.0
 30
0.0
 11
315.0
 21
294.5
 31
0.0
  0
LINE
  5
366
330
1F
100
AcDbEntity
  8
0
 62
     7
370
    35
100
AcDbLine
 10
105.0
 20
287.0
 30
0.0
 11
105.0
 21
294.5
 31
0.0
  0
LINE
  5
367
330
1F
100
AcDbEntity
  8
0
 62
     7
370
    35
100
AcDbLine
 10
367.5
 20
287.0
 30
0.0
 11
367.5
 21
294.5
 31
0.0
  0
LINE
  5
368
330
1F
100
AcDbEntity
  8
0
 62
     7
370
    35
100
AcDbLine
 10
52.5
 20
287.0
 30
0.0
 11
52.5
 21
294.5
 31
0.0
  0
LINE
  5
369
330
1F
100
AcDbEntity
  8
0
 62
     7
370
    35
100
AcDbLine
 10
10.0
 20
222.7
 30
0.0
 11
2.5
 21
222.7
 31
0.0
  0
LINE
  5
36A
330
1F
100
AcDbEntity
  8
0
 62
     7
370
    35
100
AcDbLine
 10
410.0
 20
222.7
 30
0.0
 11
417.5
 21
222.7
 31
0.0
  0
LINE
  5
36B
330
1F
100
AcDbEntity
  8
0
 62
     7
370
    35
100
AcDbLine
 10
10.0
 20
74.3
 30
0.0
 11
2.5
 21
74.3
 31
0.0
  0
LINE
  5
36C
330
1F
100
AcDbEntity
  8
0
 62
     7
370
    35
100
AcDbLine
 10
410.0
 20
74.3
 30
0.0
 11
417.5
 21
74.3
 31
0.0
  0
LINE
  5
36D
330
1F
100
AcDbEntity
  8
0
 62
     7
370
    35
100
AcDbLine
 10
110.0
 20
7.5
 30
0.0
 11
310.0
 21
7.5
 31
0.0
  0
LINE
  5
36E
330
1F
100
AcDbEntity
  8
0
 62
     7
370
    35
100
AcDbLine
 10
160.0
 20
10.0
 30
0.0
 11
160.0
 21
5.0
 31
0.0
  0
LINE
  5
36F
330
1F
100
AcDbEntity
  8
0
 62
     7
370
    35
100
AcDbLine
 10
260.0
 20
10.0
 30
0.0
 11
260.0
 21
5.0
 31
0.0
  0
LINE
  5
370
330
1F
100
AcDbEntity
  8
0
 62
     7
370
    35
100
AcDbLine
 10
170.0
 20
10.0
 30
0.0
 11
170.0
 21
7.5
 31
0.0
  0
LINE
  5
371
330
1F
100
AcDbEntity
  8
0
 62
     7
370
    35
100
AcDbLine
 10
250.0
 20
10.0
 30
0.0
 11
250.0
 21
7.5
 31
0.0
  0
LINE
  5
372
330
1F
100
AcDbEntity
  8
0
 62
     7
370
    35
100
AcDbLine
 10
180.0
 20
10.0
 30
0.0
 11
180.0
 21
7.5
 31
0.0
  0
LINE
  5
373
330
1F
100
AcDbEntity
  8
0
 62
     7
370
    35
100
AcDbLine
 10
240.0
 20
10.0
 30
0.0
 11
240.0
 21
7.5
 31
0.0
  0
LINE
  5
374
330
1F
100
AcDbEntity
  8
0
 62
     7
370
    35
100
AcDbLine
 10
190.0
 20
10.0
 30
0.0
 11
190.0
 21
7.5
 31
0.0
  0
LINE
  5
375
330
1F
100
AcDbEntity
  8
0
 62
     7
370
    35
100
AcDbLine
 10
230.0
 20
10.0
 30
0.0
 11
230.0
 21
7.5
 31
0.0
  0
LINE
  5
376
330
1F
100
AcDbEntity
  8
0
 62
     7
370
    35
100
AcDbLine
 10
200.0
 20
10.0
 30
0.0
 11
200.0
 21
7.5
 31
0.0
  0
LINE
  5
377
330
1F
100
AcDbEntity
  8
0
 62
     7
370
    35
100
AcDbLine
 10
220.0
 20
10.0
 30
0.0
 11
220.0
 21
7.5
 31
0.0
  0
LINE
  5
378
330
1F
100
AcDbEntity
  8
0
 62
     7
370
    35
100
AcDbLine
 10
110.0
 20
10.0
 30
0.0
 11
110.0
 21
5.0
 31
0.0
  0
LINE
  5
379
330
1F
100
AcDbEntity
  8
0
 62
     7
370
    35
100
AcDbLine
 10
310.0
 20
10.0
 30
0.0
 11
310.0
 21
5.0
 31
0.0
  0
LINE
  5
37A
330
1F
100
AcDbEntity
  8
0
 62
     7
370
    35
100
AcDbLine
 10
120.0
 20
10.0
 30
0.0
 11
120.0
 21
7.5
 31
0.0
  0
LINE
  5
37B
330
1F
100
AcDbEntity
  8
0
 62
     7
370
    35
100
AcDbLine
 10
300.0
 20
10.0
 30
0.0
 11
300.0
 21
7.5
 31
0.0
  0
LINE
  5
37C
330
1F
100
AcDbEntity
  8
0
 62
     7
370
    35
100
AcDbLine
 10
130.0
 20
10.0
 30
0.0
 11
130.0
 21
7.5
 31
0.0
  0
LINE
  5
37D
330
1F
100
AcDbEntity
  8
0
 62
     7
370
    35
100
AcDbLine
 10
290.0
 20
10.0
 30
0.0
 11
290.0
 21
7.5
 31
0.0
  0
LINE
  5
37E
330
1F
100
AcDbEntity
  8
0
 62
     7
370
    35
100
AcDbLine
 10
140.0
 20
10.0
 30
0.0
 11
140.0
 21
7.5
 31
0.0
  0
LINE
  5
37F
330
1F
100
AcDbEntity
  8
0
 62
     7
370
    35
100
AcDbLine
 10
280.0
 20
10.0
 30
0.0
 11
280.0
 21
7.5
 31
0.0
  0
LINE
  5
380
330
1F
100
AcDbEntity
  8
0
 62
     7
370
    35
100
AcDbLine
 10
150.0
 20
10.0
 30
0.0
 11
150.0
 21
7.5
 31
0.0
  0
LINE
  5
381
330
1F
100
AcDbEntity
  8
0
 62
     7
370
    35
100
AcDbLine
 10
270.0
 20
10.0
 30
0.0
 11
270.0
 21
7.5
 31
0.0
  0
LINE
  5
382
330
1F
100
AcDbEntity
  8
0
 62
     7
370
    35
100
AcDbLine
 10
220.0
 20
10.0
 30
0.0
 11
410.0
 21
10.0
 31
0.0
  0
LINE
  5
383
330
1F
100
AcDbEntity
  8
0
 62
     7
370
    35
100
AcDbLine
 10
220.0
 20
10.0
 30
0.0
 11
220.0
 21
70.0
 31
0.0
  0
LINE
  5
384
330
1F
100
AcDbEntity
  8
0
 62
     7
370
    35
100
AcDbLine
 10
220.0
 20
70.0
 30
0.0
 11
410.0
 21
70.0
 31
0.0
  0
LINE
  5
385
330
1F
100
AcDbEntity
  8
0
 62
     7
370
    35
100
AcDbLine
 10
410.0
 20
70.0
 30
0.0
 11
410.0
 21
10.0
 31
0.0
  0
LINE
  5
386
330
1F
100
AcDbEntity
  8
0
 62
     7
370
    35
100
AcDbLine
 10
220.0
 20
14.0
 30
0.0
 11
385.0
 21
14.0
 31
0.0
  0
LINE
  5
387
330
1F
100
AcDbEntity
  8
0
 62
     7
370
    35
100
AcDbLine
 10
220.0
 20
27.0
 30
0.0
 11
385.0
 21
27.0
 31
0.0
  0
LINE
  5
388
330
1F
100
AcDbEntity
  8
0
 62
     7
370
    35
100
AcDbLine
 10
220.0
 20
40.0
 30
0.0
 11
385.0
 21
40.0
 31
0.0
  0
LINE
  5
389
330
1F
100
AcDbEntity
  8
0
 62
     7
370
    35
100
AcDbLine
 10
220.0
 20
55.0
 30
0.0
 11
265.0
 21
55.0
 31
0.0
  0
LINE
  5
38A
330
1F
100
AcDbEntity
  8
0
 62
     7
370
    35
100
AcDbLine
 10
385.0
 20
16.666667
 30
0.0
 11
410.0
 21
16.666667
 31
0.0
  0
LINE
  5
38B
330
1F
100
AcDbEntity
  8
0
 62
     7
370
    35
100
AcDbLine
 10
385.0
 20
23.333333
 30
0.0
 11
410.0
 21
23.333333
 31
0.0
  0
LINE
  5
38C
330
1F
100
AcDbEntity
  8
0
 62
     7
370
    35
100
AcDbLine
 10
385.0
 20
30.0
 30
0.0
 11
410.0
 21
30.0
 31
0.0
  0
LINE
  5
38D
330
1F
100
AcDbEntity
  8
0
 62
     7
370
    35
100
AcDbLine
 10
385.0
 20
36.666667
 30
0.0
 11
410.0
 21
36.666667
 31
0.0
  0
LINE
  5
38E
330
1F
100
AcDbEntity
  8
0
 62
     7
370
    35
100
AcDbLine
 10
385.0
 20
43.333333
 30
0.0
 11
410.0
 21
43.333333
 31
0.0
  0
LINE
  5
38F
330
1F
100
AcDbEntity
  8
0
 62
     7
370
    35
100
AcDbLine
 10
385.0
 20
50.0
 30
0.0
 11
410.0
 21
50.0
 31
0.0
  0
LINE
  5
390
330
1F
100
AcDbEntity
  8
0
 62
     7
370
    35
100
AcDbLine
 10
385.0
 20
56.666667
 30
0.0
 11
410.0
 21
56.666667
 31
0.0
  0
LINE
  5
391
330
1F
100
AcDbEntity
  8
0
 62
     7
370
    35
100
AcDbLine
 10
385.0
 20
63.333333
 30
0.0
 11
410.0
 21
63.333333
 31
0.0
  0
LINE
  5
392
330
1F
100
AcDbEntity
  8
0
 62
     7
370
    35
100
AcDbLine
 10
240.0
 20
14.0
 30
0.0
 11
240.0
 21
40.0
 31
0.0
  0
LINE
  5
393
330
1F
100
AcDbEntity
  8
0
 62
     7
370
    35
100
AcDbLine
 10
265.0
 20
14.0
 30
0.0
 11
265.0
 21
70.0
 31
0.0
  0
LINE
  5
394
330
1F
100
AcDbEntity
  8
0
 62
     7
370
    35
100
AcDbLine
 10
365.0
 20
14.0
 30
0.0
 11
365.0
 21
27.0
 31
0.0
  0
LINE
  5
395
330
1F
100
AcDbEntity
  8
0
 62
     7
370
    35
100
AcDbLine
 10
385.0
 20
10.0
 30
0.0
 11
385.0
 21
70.0
 31
0.0
  0
LINE
  5
396
330
1F
100
AcDbEntity
  8
0
 62
     7
370
    35
100
AcDbLine
 10
390.0
 20
10.0
 30
0.0
 11
390.0
 21
70.0
 31
0.0
  0
LINE
  5
397
330
1F
100
AcDbEntity
  8
0
 62
     7
370
    35
100
AcDbLine
 10
242.0
 20
33.5
 30
0.0
 11
263.0
 21
33.5
 31
0.0
  0
LINE
  5
398
330
1F
100
AcDbEntity
  8
0
 62
     7
370
    35
100
AcDbLine
 10
257.5
 20
28.0
 30
0.0
 11
257.5
 21
39.0
 31
0.0
  0
LINE
  5
399
330
1F
100
AcDbEntity
  8
0
 62
     7
370
    35
100
AcDbLine
 10
243.5
 20
31.5
 30
0.0
 11
243.5
 21
35.5
 31
0.0
  0
LINE
  5
39A
330
1F
100
AcDbEntity
  8
0
 62
     7
370
    35
100
AcDbLine
 10
243.5
 20
35.5
 30
0.0
 11
251.5
 21
37.5
 31
0.0
  0
LINE
  5
39B
330
1F
100
AcDbEntity
  8
0
 62
     7
370
    35
100
AcDbLine
 10
251.5
 20
37.5
 30
0.0
 11
251.5
 21
29.5
 31
0.0
  0
LINE
  5
39C
330
1F
100
AcDbEntity
  8
0
 62
     7
370
    35
100
AcDbLine
 10
251.5
 20
29.5
 30
0.0
 11
243.5
 21
31.5
 31
0.0
  0
CIRCLE
  5
39D
330
1F
100
AcDbEntity
  8
0
 62
     7
370
    35
100
AcDbCircle
 10
257.5
 20
33.5
 30
0.0
 40
2.0
  0
CIRCLE
  5
39E
330
1F
100
AcDbEntity
  8
0
 62
     7
370
    35
100
AcDbCircle
 10
257.5
 20
33.5
 30
0.0
 40
4.0
  0
INSERT
  5
39F
330
1F
100
AcDbEntity
  8
0
370
     0
100
AcDbBlockReference
  2
BLOCK1158
 10
177.787949
 20
-41.986777
 30
0.0
  0
INSERT
  5
3A0
330
1F
100
AcDbEntity
  8
0
370
     0
100
AcDbBlockReference
  2
BLOCK1159
 10
177.787949
 20
-41.986777
 30
0.0
  0
DIMENSION
  5
3A1
102
{ACAD_XDICTIONARY
360
3A2
102
}
330
1F
100
AcDbEntity
  8
0
 62
     0
370
     0
100
AcDbDimension
  2
*D62
 10
62.214885
 20
201.018654
 30
0.0
 11
102.6026
 21
263.489639
 31
0.0
 70
   163
 71
     5
 42
-1.0
  3
STANDARD
100
AcDbDiametricDimension
 15
89.361013
 25
243.007793
 35
0.0
 40
0.0
  0
DIMENSION
  5
3A3
102
{ACAD_XDICTIONARY
360
3A4
102
}
330
1F
100
AcDbEntity
  8
0
 62
     0
370
     0
100
AcDbDimension
  2
*D63
 10
89.244505
 20
211.649669
 30
0.0
 11
136.634356
 21
247.771582
 31
0.0
 70
   163
  1
2x<>{}{ H7 {\H2x;\W0.5;(}\S+0,012^ 0;{\H2x;\W0.5;)}}
 71
     5
 42
-1.0
  3
STANDARD
100
AcDbDiametricDimension
 15
94.01635
 25
215.286907
 35
0.0
 40
0.0
1001
ACAD
1000
DSTYLE
1002
{
1070
    71
1070
     0
1070
    72
1070
     0
1070
    47
1040
0.012
1070
    48
1040
0.0
1002
}
  0
DIMENSION
  5
3A5
102
{ACAD_XDICTIONARY
360
3A6
102
}
330
1F
100
AcDbEntity
  8
0
 62
     0
370
     0
100
AcDbDimension
  2
*D64
 10
53.608474
 20
233.976105
 30
0.0
 11
45.096222
 21
273.438836
 31
0.0
 70
   162
  1
<>{}{%%p0,1}
 71
     5
 42
-1.0
  3
STANDARD
100
AcDb2LineAngularDimension
 13
75.787949
 23
222.013211
 33
0.0
 14
75.787949
 24
254.513223
 34
0.0
 15
75.787949
 25
222.013211
 35
0.0
 16
54.762833
 26
278.089244
 36
0.0
1001
ACAD
1000
DSTYLE
1002
{
1070
    71
1070
     0
1070
    72
1070
     0
1070
    47
1040
0.1
1070
    48
1040
0.1
1002
}
  0
DIMENSION
  5
3A7
102
{ACAD_XDICTIONARY
360
3A8
102
}
330
1F
100
AcDbEntity
  8
0
 62
     0
370
     0
100
AcDbDimension
  2
*D65
 10
70.634047
 20
239.259596
 30
0.0
 11
89.061981
 21
177.594659
 31
0.0
 70
   163
  1
<>{}{%%p0,1}
 71
     5
 42
-1.0
  3
STANDARD
100
AcDbDiametricDimension
 15
80.94185
 25
204.766851
 35
0.0
 40
0.0
1001
ACAD
1000
DSTYLE
1002
{
1070
    71
1070
     0
1070
    72
1070
     0
1070
    47
1040
0.1
1070
    48
1040
0.1
1002
}
  0
LINE
  5
3A9
330
1F
100
AcDbEntity
  8
0
  6
DASHDOT
 62
     7
370
    18
100
AcDbLine
 10
53.608475
 20
233.976114
 30
0.0
 11
105.726204
 21
205.865472
 31
0.0
  0
INSERT
  5
3AA
330
1F
100
AcDbEntity
  8
0
370
     0
100
AcDbBlockReference
  2
BLOCK1160
 10
177.787949
 20
-41.986777
 30
0.0
  0
INSERT
  5
3AB
330
1F
100
AcDbEntity
  8
0
370
     0
100
AcDbBlockReference
  2
BLOCK1161
 10
177.787949
 20
-41.986777
 30
0.0
  0
INSERT
  5
3AC
330
1F
100
AcDbEntity
  8
0
370
     0
100
AcDbBlockReference
  2
BLOCK1162
 10
177.787949
 20
-41.986777
 30
0.0
  0
CIRCLE
  5
3AD
330
1F
100
AcDbEntity
  8
0
  6
PHANTOM
 62
     7
370
    18
100
AcDbCircle
 10
75.787949
 20
222.013223
 30
0.0
 40
18.00000169077631
  0
INSERT
  5
3AE
330
1F
100
AcDbEntity
  8
0
370
     0
100
AcDbBlockReference
  2
BLOCK1163
 10
177.787949
 20
-41.986777
 30
0.0
  0
INSERT
  5
3AF
330
1F
100
AcDbEntity
  8
0
370
     0
100
AcDbBlockReference
  2
BLOCK1164
 10
237.695449
 20
-41.918426
 30
0.0
  0
DIMENSION
  5
3B0
102
{ACAD_XDICTIONARY
360
3B1
102
}
330
1F
100
AcDbEntity
  8
0
 62
     0
370
     0
100
AcDbDimension
  2
*D71
 10
187.839928
 20
269.864987
 30
0.0
 11
197.453823
 21
269.875894
 31
0.0
 70
   160
  1
%%c<>{}{\S+0,2^ 0;}
 71
     5
 42
-1.0
 52
5156.620156
  3
STANDARD
100
AcDbAlignedDimension
 13
196.865523
 23
247.151385
 33
0.0
 14
187.86571
 24
247.141117
 34
0.0
 50
180.065006
100
AcDbRotatedDimension
1001
ACAD
1000
DSTYLE
1002
{
1070
    71
1070
     0
1070
    72
1070
     0
1070
    47
1040
0.2
1070
    48
1040
0.0
1002
}
  0
DIMENSION
  5
3B2
102
{ACAD_XDICTIONARY
360
3B3
102
}
330
1F
100
AcDbEntity
  8
0
 62
     0
370
     0
100
AcDbDimension
  2
*D72
 10
189.830195
 20
190.319711
 30
0.0
 11
168.196516
 21
190.295175
 31
0.0
 70
   160
  1
%%c<>{}{%%p0,1}
 71
     5
 42
-1.0
 52
5156.620156
  3
STANDARD
100
AcDbAlignedDimension
 13
194.98488
 23
230.249224
 33
0.0
 14
189.784916
 24
230.243291
 34
0.0
 50
180.064982
100
AcDbRotatedDimension
1001
ACAD
1000
DSTYLE
1002
{
1070
    71
1070
     0
1070
    72
1070
     0
1070
    47
1040
0.1
1070
    48
1040
0.1
1002
}
  0
DIMENSION
  5
3B4
102
{ACAD_XDICTIONARY
360
3B5
102
}
330
1F
100
AcDbEntity
  8
0
 62
     0
370
     0
100
AcDbDimension
  2
*D73
 10
213.108456
 20
247.161079
 30
0.0
 11
213.108456
 21
262.208322
 31
0.0
 70
   160
  1
<>{}{%%p0,1}
 71
     5
 42
-1.0
 52
5156.620156
  3
STANDARD
100
AcDbAlignedDimension
 13
194.97246
 23
241.149205
 33
0.0
 14
205.365608
 24
247.161079
 34
0.0
 50
90.0
100
AcDbRotatedDimension
1001
ACAD
1000
DSTYLE
1002
{
1070
    71
1070
     0
1070
    72
1070
     0
1070
    47
1040
0.1
1070
    48
1040
0.1
1002
}
  0
DIMENSION
  5
3B6
102
{ACAD_XDICTIONARY
360
3B7
102
}
330
1F
100
AcDbEntity
  8
0
 62
     0
370
     0
100
AcDbDimension
  2
*D74
 10
185.45688
 20
167.151459
 30
0.0
 11
195.456874
 21
167.162868
 31
0.0
 70
   161
 71
     5
 42
-1.0
 52
5156.620156
  3
STANDARD
100
AcDbAlignedDimension
 13
205.422655
 23
197.161095
 33
0.0
 14
185.422668
 24
197.138276
 34
0.0
  0
DIMENSION
  5
3B8
102
{ACAD_XDICTIONARY
360
3B9
102
}
330
1F
100
AcDbEntity
  8
0
 62
     0
370
     0
100
AcDbDimension
  2
*D75
 10
185.384903
 20
254.221262
 30
0.0
 11
167.740817
 21
254.221262
 31
0.0
 70
   160
  1
<>{}{\S0^ -0,2;}
 71
     5
 42
-1.0
 52
5156.620156
  3
STANDARD
100
AcDbAlignedDimension
 13
192.361143
 23
251.067223
 33
0.0
 14
185.384903
 24
230.238268
 34
0.0
 50
180.0
100
AcDbRotatedDimension
1001
ACAD
1000
DSTYLE
1002
{
1070
    71
1070
     0
1070
    72
1070
     0
1070
    47
1040
0.0
1070
    48
1040
0.2
1002
}
  0
DIMENSION
  5
3BA
102
{ACAD_XDICTIONARY
360
3BB
102
}
330
1F
100
AcDbEntity
  8
0
 62
     0
370
     0
100
AcDbDimension
  2
*D76
 10
228.4436
 20
230.26109
 30
0.0
 11
228.4436
 21
192.241739
 31
0.0
 70
   160
  1
<>{}{\S+0,1^ 0;}
 71
     5
 42
-1.0
 52
5156.620156
  3
STANDARD
100
AcDbAlignedDimension
 13
195.003363
 23
214.049235
 33
0.0
 14
205.38489
 24
230.26109
 34
0.0
 50
90.0
100
AcDbRotatedDimension
1001
ACAD
1000
DSTYLE
1002
{
1070
    71
1070
     0
1070
    72
1070
     0
1070
    47
1040
0.1
1070
    48
1040
0.0
1002
}
  0
LINE
  5
3BC
330
1F
100
AcDbEntity
  8
0
  6
DASHDOT
 62
     7
370
    18
100
AcDbLine
 10
207.405209
 20
222.163391
 30
0.0
 11
183.383044
 21
222.135986
 31
0.0
  0
LINE
  5
3BD
330
1F
100
AcDbEntity
  8
0
  6
DASHDOT
 62
     7
370
    18
100
AcDbLine
 10
192.361144
 20
251.06723
 30
0.0
 11
192.428843
 21
191.730774
 31
0.0
  0
INSERT
  5
3BE
330
1F
100
AcDbEntity
  8
0
370
     0
100
AcDbBlockReference
  2
BLOCK1165
 10
237.695449
 20
-41.918426
 30
0.0
  0
INSERT
  5
3BF
330
1F
100
AcDbEntity
  8
0
370
     0
100
AcDbBlockReference
  2
BLOCK1166
 10
237.695449
 20
-41.918426
 30
0.0
  0
INSERT
  5
3C0
330
1F
100
AcDbEntity
  8
0
370
     0
100
AcDbBlockReference
  2
BLOCK1167
 10
237.695449
 20
-41.918426
 30
0.0
  0
INSERT
  5
3C1
330
1F
100
AcDbEntity
  8
0
370
     0
100
AcDbBlockReference
  2
BLOCK1168
 10
237.695449
 20
-41.918426
 30
0.0
  0
INSERT
  5
3C2
330
1F
100
AcDbEntity
  8
0
370
     0
100
AcDbBlockReference
  2
BLOCK1169
 10
237.695449
 20
-41.918426
 30
0.0
  0
INSERT
  5
3C3
330
1F
100
AcDbEntity
  8
0
370
     0
100
AcDbBlockReference
  2
BLOCK1170
 10
393.267866
 20
-35.389547
 30
0.0
  0
INSERT
  5
3C4
330
1F
100
AcDbEntity
  8
0
370
     0
100
AcDbBlockReference
  2
BLOCK1171
 10
393.267866
 20
-35.389547
 30
0.0
  0
INSERT
  5
3C5
330
1F
100
AcDbEntity
  8
0
370
     0
100
AcDbBlockReference
  2
BLOCK1172
 10
263.065827
 20
-5.975973
 30
0.0
  0
DIMENSION
  5
3C6
102
{ACAD_XDICTIONARY
360
3C7
102
}
330
1F
100
AcDbEntity
  8
0
 62
     0
370
     0
100
AcDbDimension
  2
*D85
 10
125.356572
 20
104.657903
 30
0.0
 11
139.984879
 21
131.779111
 31
0.0
 70
   160
  1
2x<>{}{%%p0,1}
 71
     5
 42
-1.0
 52
5156.620156
  3
STANDARD
100
AcDbAlignedDimension
 13
114.543127
 23
127.53311
 33
0.0
 14
110.942906
 24
112.43217
 34
0.0
 50
241.659006
100
AcDbRotatedDimension
1001
ACAD
1000
DSTYLE
1002
{
1070
    71
1070
     0
1070
    72
1070
     0
1070
    47
1040
0.1
1070
    48
1040
0.1
1002
}
  0
LINE
  5
3C8
330
1F
100
AcDbEntity
  8
0
  6
DASHDOT
 62
     7
370
    18
100
AcDbLine
 10
102.71605
 20
111.924967
 30
0.0
 11
114.081834
 21
132.997415
 31
0.0
  0
LINE
  5
3C9
330
1F
100
AcDbEntity
  8
0
  6
DASHDOT
 62
     7
370
    18
100
AcDbLine
 10
71.031083
 20
129.014811
 30
0.0
 11
82.396882
 21
150.087259
 31
0.0
  0
LINE
  5
3CA
330
1F
100
AcDbEntity
  8
0
  6
DASHDOT
 62
     7
370
    18
100
AcDbLine
 10
84.365266
 20
115.819475
 30
0.0
 11
103.008012
 21
150.383524
 31
0.0
  0
INSERT
  5
3CB
330
1F
100
AcDbEntity
  8
0
370
     0
100
AcDbBlockReference
  2
BLOCK1173
 10
263.065827
 20
-5.975973
 30
0.0
  0
INSERT
  5
3CC
330
1F
100
AcDbEntity
  8
0
370
     0
100
AcDbBlockReference
  2
BLOCK1174
 10
263.065827
 20
-5.975973
 30
0.0
  0
INSERT
  5
3CD
330
1F
100
AcDbEntity
  8
0
370
     0
100
AcDbBlockReference
  2
BLOCK1175
 10
263.065827
 20
-5.975973
 30
0.0
  0
ENDSEC
  0
SECTION
  2
OBJECTS
  0
DICTIONARY
  5
C
330
0
100
AcDbDictionary
281
     1
  3
ACAD_GROUP
350
D
  3
ACAD_LAYOUT
350
1A
  3
ACAD_MLINESTYLE
350
17
  3
ACAD_PLOTSETTINGS
350
19
  3
ACAD_PLOTSTYLENAME
350
E
  3
ACAD_SCALELIST
350
47
  0
DICTIONARY
  5
3A2
330
3A1
100
AcDbDictionary
280
     1
281
     1
  0
DICTIONARY
  5
3A4
330
3A3
100
AcDbDictionary
280
     1
281
     1
  0
DICTIONARY
  5
3A6
330
3A5
100
AcDbDictionary
280
     1
281
     1
  0
DICTIONARY
  5
3A8
330
3A7
100
AcDbDictionary
280
     1
281
     1
  0
DICTIONARY
  5
3B1
330
3B0
100
AcDbDictionary
280
     1
281
     1
  0
DICTIONARY
  5
3B3
330
3B2
100
AcDbDictionary
280
     1
281
     1
  0
DICTIONARY
  5
3B5
330
3B4
100
AcDbDictionary
280
     1
281
     1
  0
DICTIONARY
  5
3B7
330
3B6
100
AcDbDictionary
280
     1
281
     1
  0
DICTIONARY
  5
3B9
330
3B8
100
AcDbDictionary
280
     1
281
     1
  0
DICTIONARY
  5
3BB
330
3BA
100
AcDbDictionary
280
     1
281
     1
  0
DICTIONARY
  5
3C7
330
3C6
100
AcDbDictionary
280
     1
281
     1
  0
DICTIONARY
  5
D
102
{ACAD_REACTORS
330
C
102
}
330
C
100
AcDbDictionary
281
     1
  0
DICTIONARY
  5
1A
102
{ACAD_REACTORS
330
C
102
}
330
C
100
AcDbDictionary
281
     1
  3
Layout1
350
1E
  3
Layout2
350
26
  3
Model
350
22
  0
DICTIONARY
  5
17
102
{ACAD_REACTORS
330
C
102
}
330
C
100
AcDbDictionary
281
     1
  3
Standard
350
18
  0
DICTIONARY
  5
19
102
{ACAD_REACTORS
330
C
102
}
330
C
100
AcDbDictionary
281
     1
  0
ACDBDICTIONARYWDFLT
  5
E
102
{ACAD_REACTORS
330
C
102
}
330
C
100
AcDbDictionary
281
     1
  3
Normal
350
F
100
AcDbDictionaryWithDefault
340
F
  0
DICTIONARY
  5
47
102
{ACAD_REACTORS
330
C
102
}
330
C
100
AcDbDictionary
281
     1
  3
A0
350
48
  3
A1
350
49
  3
A2
350
4A
  3
A3
350
4B
  3
A4
350
4C
  3
A5
350
4D
  3
A6
350
4E
  3
A7
350
4F
  3
A8
350
50
  3
A9
350
51
  3
B0
350
52
  3
B1
350
53
  3
B2
350
54
  3
B3
350
55
  3
B4
350
56
  3
B5
350
57
  3
B6
350
58
  3
B7
350
59
  3
B8
350
5A
  3
B9
350
5B
  3
C0
350
5C
  3
C1
350
5D
  3
C2
350
5E
  3
C3
350
5F
  3
C4
350
60
  3
C5
350
61
  3
C6
350
62
  3
C7
350
63
  3
C8
350
64
  3
C9
350
65
  3
D0
350
66
  3
D1
350
67
  3
D2
350
68
  0
LAYOUT
  5
1E
102
{ACAD_REACTORS
330
1A
102
}
330
1A
100
AcDbPlotSettings
  1

  2
none_device
  4

  6

 40
0.0
 41
0.0
 42
0.0
 43
0.0
 44
0.0
 45
0.0
 46
0.0
 47
0.0
 48
0.0
 49
0.0
140
0.0
141
0.0
142
1.0
143
1.0
 70
  4784
 72
     0
 73
     0
 74
     5
  7

 75
    16
147
1.0
148
0.0
149
0.0
100
AcDbLayout
  1
Layout1
 70
     1
 71
     1
 10
0.0
 20
0.0
 11
420.0
 21
297.0
 12
0.0
 22
0.0
 32
0.0
 14
0.0
 24
0.0
 34
0.0
 15
416.399994
 25
327.037994
 35
2.0
146
0.0
 13
0.0
 23
0.0
 33
0.0
 16
1.0
 26
0.0
 36
0.0
 17
0.0
 27
1.0
 37
0.0
 76
     0
330
1B
  0
LAYOUT
  5
26
102
{ACAD_REACTORS
330
1A
102
}
330
1A
100
AcDbPlotSettings
  1

  2
none_device
  4

  6

 40
0.0
 41
0.0
 42
0.0
 43
0.0
 44
0.0
 45
0.0
 46
0.0
 47
0.0
 48
0.0
 49
0.0
140
0.0
141
0.0
142
1.0
143
1.0
 70
  4784
 72
     0
 73
     0
 74
     5
  7

 75
    16
147
1.0
148
0.0
149
0.0
100
AcDbLayout
  1
Layout2
 70
     1
 71
     2
 10
0.0
 20
0.0
 11
0.0
 21
0.0
 12
0.0
 22
0.0
 32
0.0
 14
0.0
 24
0.0
 34
0.0
 15
0.0
 25
0.0
 35
0.0
146
0.0
 13
0.0
 23
0.0
 33
0.0
 16
1.0
 26
0.0
 36
0.0
 17
0.0
 27
1.0
 37
0.0
 76
     0
330
23
  0
LAYOUT
  5
22
102
{ACAD_REACTORS
330
1A
102
}
330
1A
100
AcDbPlotSettings
  1

  2
none_device
  4
Letter_(8.50_x_11.00_Inches)
  6

 40
6.35
 41
6.35
 42
6.350005
 43
6.350005
 44
215.9
 45
279.4
 46
0.0
 47
0.0
 48
0.0
 49
0.0
140
0.0
141
0.0
142
1.0
143
1.0
 70
  5808
 72
     0
 73
     0
 74
     0
  7

 75
     0
147
1.0
148
0.0
149
0.0
100
AcDbLayout
  1
Model
 70
     1
 71
     0
 10
0.0
 20
0.0
 11
420.0
 21
297.0
 12
0.0
 22
0.0
 32
0.0
 14
0.0
 24
0.0
 34
0.0
 15
416.399994
 25
327.037994
 35
2.0
146
0.0
 13
0.0
 23
0.0
 33
0.0
 16
1.0
 26
0.0
 36
0.0
 17
0.0
 27
1.0
 37
0.0
 76
     0
330
1F
331
29
  0
MLINESTYLE
  5
18
102
{ACAD_REACTORS
330
17
102
}
330
17
100
AcDbMlineStyle
  2
Standard
 70
     0
  3

 62
   256
 51
90.0
 52
90.0
 71
     2
 49
0.5
 62
   256
  6
BYLAYER
 49
-0.5
 62
   256
  6
BYLAYER
  0
ACDBPLACEHOLDER
  5
F
102
{ACAD_REACTORS
330
E
102
}
330
E
  0
SCALE
  5
48
102
{ACAD_REACTORS
330
47
102
}
330
47
100
AcDbScale
 70
     0
300
1:1
140
1.0
141
1.0
290
     1
  0
SCALE
  5
49
102
{ACAD_REACTORS
330
47
102
}
330
47
100
AcDbScale
 70
     0
300
1:2
140
1.0
141
2.0
290
     0
  0
SCALE
  5
4A
102
{ACAD_REACTORS
330
47
102
}
330
47
100
AcDbScale
 70
     0
300
1:4
140
1.0
141
4.0
290
     0
  0
SCALE
  5
4B
102
{ACAD_REACTORS
330
47
102
}
330
47
100
AcDbScale
 70
     0
300
1:5
140
1.0
141
5.0
290
     0
  0
SCALE
  5
4C
102
{ACAD_REACTORS
330
47
102
}
330
47
100
AcDbScale
 70
     0
300
1:8
140
1.0
141
8.0
290
     0
  0
SCALE
  5
4D
102
{ACAD_REACTORS
330
47
102
}
330
47
100
AcDbScale
 70
     0
300
1:10
140
1.0
141
10.0
290
     0
  0
SCALE
  5
4E
102
{ACAD_REACTORS
330
47
102
}
330
47
100
AcDbScale
 70
     0
300
1:16
140
1.0
141
16.0
290
     0
  0
SCALE
  5
4F
102
{ACAD_REACTORS
330
47
102
}
330
47
100
AcDbScale
 70
     0
300
1:20
140
1.0
141
20.0
290
     0
  0
SCALE
  5
50
102
{ACAD_REACTORS
330
47
102
}
330
47
100
AcDbScale
 70
     0
300
1:30
140
1.0
141
30.0
290
     0
  0
SCALE
  5
51
102
{ACAD_REACTORS
330
47
102
}
330
47
100
AcDbScale
 70
     0
300
1:40
140
1.0
141
40.0
290
     0
  0
SCALE
  5
52
102
{ACAD_REACTORS
330
47
102
}
330
47
100
AcDbScale
 70
     0
300
1:50
140
1.0
141
50.0
290
     0
  0
SCALE
  5
53
102
{ACAD_REACTORS
330
47
102
}
330
47
100
AcDbScale
 70
     0
300
1:100
140
1.0
141
100.0
290
     0
  0
SCALE
  5
54
102
{ACAD_REACTORS
330
47
102
}
330
47
100
AcDbScale
 70
     0
300
2:1
140
2.0
141
1.0
290
     0
  0
SCALE
  5
55
102
{ACAD_REACTORS
330
47
102
}
330
47
100
AcDbScale
 70
     0
300
4:1
140
4.0
141
1.0
290
     0
  0
SCALE
  5
56
102
{ACAD_REACTORS
330
47
102
}
330
47
100
AcDbScale
 70
     0
300
8:1
140
8.0
141
1.0
290
     0
  0
SCALE
  5
57
102
{ACAD_REACTORS
330
47
102
}
330
47
100
AcDbScale
 70
     0
300
10:1
140
10.0
141
1.0
290
     0
  0
SCALE
  5
58
102
{ACAD_REACTORS
330
47
102
}
330
47
100
AcDbScale
 70
     0
300
100:1
140
100.0
141
1.0
290
     0
  0
SCALE
  5
59
102
{ACAD_REACTORS
330
47
102
}
330
47
100
AcDbScale
 70
     0
300
1/128" = 1'-0"
140
0.007812
141
12.0
290
     0
  0
SCALE
  5
5A
102
{ACAD_REACTORS
330
47
102
}
330
47
100
AcDbScale
 70
     0
300
1/64" = 1'-0"
140
0.015625
141
12.0
290
     0
  0
SCALE
  5
5B
102
{ACAD_REACTORS
330
47
102
}
330
47
100
AcDbScale
 70
     0
300
1/32" = 1'-0"
140
0.03125
141
12.0
290
     0
  0
SCALE
  5
5C
102
{ACAD_REACTORS
330
47
102
}
330
47
100
AcDbScale
 70
     0
300
1/16" = 1'-0"
140
0.0625
141
12.0
290
     0
  0
SCALE
  5
5D
102
{ACAD_REACTORS
330
47
102
}
330
47
100
AcDbScale
 70
     0
300
3/32" = 1'-0"
140
0.09375
141
12.0
290
     0
  0
SCALE
  5
5E
102
{ACAD_REACTORS
330
47
102
}
330
47
100
AcDbScale
 70
     0
300
1/8" = 1'-0"
140
0.125
141
12.0
290
     0
  0
SCALE
  5
5F
102
{ACAD_REACTORS
330
47
102
}
330
47
100
AcDbScale
 70
     0
300
3/16" = 1'-0"
140
0.1875
141
12.0
290
     0
  0
SCALE
  5
60
102
{ACAD_REACTORS
330
47
102
}
330
47
100
AcDbScale
 70
     0
300
1/4" = 1'-0"
140
0.25
141
12.0
290
     0
  0
SCALE
  5
61
102
{ACAD_REACTORS
330
47
102
}
330
47
100
AcDbScale
 70
     0
300
3/8" = 1'-0"
140
0.375
141
12.0
290
     0
  0
SCALE
  5
62
102
{ACAD_REACTORS
330
47
102
}
330
47
100
AcDbScale
 70
     0
300
1/2" = 1'-0"
140
0.5
141
12.0
290
     0
  0
SCALE
  5
63
102
{ACAD_REACTORS
330
47
102
}
330
47
100
AcDbScale
 70
     0
300
3/4" = 1'-0"
140
0.75
141
12.0
290
     0
  0
SCALE
  5
64
102
{ACAD_REACTORS
330
47
102
}
330
47
100
AcDbScale
 70
     0
300
1" = 1'-0"
140
1.0
141
12.0
290
     0
  0
SCALE
  5
65
102
{ACAD_REACTORS
330
47
102
}
330
47
100
AcDbScale
 70
     0
300
1-1/2" = 1'-0"
140
1.5
141
12.0
290
     0
  0
SCALE
  5
66
102
{ACAD_REACTORS
330
47
102
}
330
47
100
AcDbScale
 70
     0
300
3" = 1'-0"
140
3.0
141
12.0
290
     0
  0
SCALE
  5
67
102
{ACAD_REACTORS
330
47
102
}
330
47
100
AcDbScale
 70
     0
300
6" = 1'-0"
140
6.0
141
12.0
290
     0
  0
SCALE
  5
68
102
{ACAD_REACTORS
330
47
102
}
330
47
100
AcDbScale
 70
     0
300
1'-0" = 1'-0"
140
12.0
141
12.0
290
     0
  0
ENDSEC
  0
EOF
