  0
SECTION
  2
HEADER
  9
$ACADVER
  1
AC1014
  9
$ACADMAINTVER
 70
     9
  9
$DWGCODEPAGE
  3
ANSI_1252
  9
$INSBASE
 10
0.0
 20
0.0
 30
0.0
  9
$EXTMIN
 10
1.000000000000000E+20
 20
1.000000000000000E+20
 30
1.000000000000000E+20
  9
$EXTMAX
 10
-1.000000000000000E+20
 20
-1.000000000000000E+20
 30
-1.000000000000000E+20
  9
$LIMMIN
 10
0.0
 20
0.0
  9
$LIMMAX
 10
420.0
 20
297.0
  9
$ORTHOMODE
 70
     0
  9
$REGENMODE
 70
     1
  9
$FILLMODE
 70
     1
  9
$QTEXTMODE
 70
     0
  9
$MIRRTEXT
 70
     1
  9
$DRAGMODE
 70
     2
  9
$LTSCALE
 40
12.7
  9
$OSMODE
 70
    23
  9
$ATTMODE
 70
     1
  9
$TEXTSIZE
 40
3.5
  9
$TRACEWID
 40
1.0
  9
$TEXTSTYLE
  7
ONSHAPE-STANDARD
  9
$CLAYER
  8
0
  9
$CELTYPE
  6
BYLAYER
  9
$CECOLOR
 62
   256
  9
$CELTSCALE
 40
1.0
  9
$DELOBJ
 70
     1
  9
$DISPSILH
 70
     0
  9
$DIMSCALE
 40
1.0
  9
$DIMASZ
 40
2.5
  9
$DIMEXO
 40
0.625
  9
$DIMDLI
 40
3.75
  9
$DIMRND
 40
0.0
  9
$DIMDLE
 40
0.0
  9
$DIMEXE
 40
1.25
  9
$DIMTP
 40
0.0
  9
$DIMTM
 40
0.0
  9
$DIMTXT
 40
2.5
  9
$DIMCEN
 40
2.5
  9
$DIMTSZ
 40
0.0
  9
$DIMTOL
 70
     0
  9
$DIMLIM
 70
     0
  9
$DIMTIH
 70
     0
  9
$DIMTOH
 70
     0
  9
$DIMSE1
 70
     0
  9
$DIMSE2
 70
     0
  9
$DIMTAD
 70
     1
  9
$DIMZIN
 70
     8
  9
$DIMBLK
  1

  9
$DIMASO
 70
     1
  9
$DIMSHO
 70
     1
  9
$DIMPOST
  1

  9
$DIMAPOST
  1

  9
$DIMALT
 70
     0
  9
$DIMALTD
 70
     3
  9
$DIMALTF
 40
0.03937
  9
$DIMLFAC
 40
1.0
  9
$DIMTOFL
 70
     1
  9
$DIMTVP
 40
0.0
  9
$DIMTIX
 70
     0
  9
$DIMSOXD
 70
     0
  9
$DIMSAH
 70
     0
  9
$DIMBLK1
  1

  9
$DIMBLK2
  1

  9
$DIMSTYLE
  2
ONSHAPE-ISO-25
  9
$DIMCLRD
 70
     7
  9
$DIMCLRE
 70
     7
  9
$DIMCLRT
 70
     7
  9
$DIMTFAC
 40
1.0
  9
$DIMGAP
 40
0.625
  9
$DIMJUST
 70
     0
  9
$DIMSD1
 70
     0
  9
$DIMSD2
 70
     0
  9
$DIMTOLJ
 70
     0
  9
$DIMTZIN
 70
     8
  9
$DIMALTZ
 70
     8
  9
$DIMALTTZ
 70
     0
  9
$DIMFIT
 70
     3
  9
$DIMUPT
 70
     1
  9
$DIMUNIT
 70
     2
  9
$DIMDEC
 70
     2
  9
$DIMTDEC
 70
     3
  9
$DIMALTU
 70
     2
  9
$DIMALTTD
 70
     3
  9
$DIMTXSTY
  7
ONSHAPE-STANDARD-DIMENSION
  9
$DIMAUNIT
 70
     0
  9
$LUNITS
 70
     2
  9
$LUPREC
 70
     4
  9
$SKETCHINC
 40
1.0
  9
$FILLETRAD
 40
10.0
  9
$AUNITS
 70
     0
  9
$AUPREC
 70
     0
  9
$MENU
  1
.
  9
$ELEVATION
 40
0.0
  9
$PELEVATION
 40
0.0
  9
$THICKNESS
 40
0.0
  9
$LIMCHECK
 70
     0
  9
$CHAMFERA
 40
0.0
  9
$CHAMFERB
 40
0.0
  9
$CHAMFERC
 40
0.0
  9
$CHAMFERD
 40
0.0
  9
$SKPOLY
 70
     0
  9
$TDCREATE
 40
2458999.764456007
  9
$TDUPDATE
 40
2458999.764456007
  9
$TDINDWG
 40
0.0
  9
$TDUSRTIMER
 40
0.0
  9
$USRTIMER
 70
     1
  9
$ANGBASE
 50
0.0
  9
$ANGDIR
 70
     0
  9
$PDMODE
 70
     0
  9
$PDSIZE
 40
0.0
  9
$PLINEWID
 40
0.0
  9
$COORDS
 70
     1
  9
$SPLFRAME
 70
     0
  9
$SPLINETYPE
 70
     6
  9
$SPLINESEGS
 70
     8
  9
$ATTDIA
 70
     0
  9
$ATTREQ
 70
     1
  9
$HANDLING
 70
     1
  9
$HANDSEED
  5
149
  9
$SURFTAB1
 70
     6
  9
$SURFTAB2
 70
     6
  9
$SURFTYPE
 70
     6
  9
$SURFU
 70
     6
  9
$SURFV
 70
     6
  9
$UCSNAME
  2

  9
$UCSORG
 10
0.0
 20
0.0
 30
0.0
  9
$UCSXDIR
 10
1.0
 20
0.0
 30
0.0
  9
$UCSYDIR
 10
0.0
 20
1.0
 30
0.0
  9
$PUCSNAME
  2

  9
$PUCSORG
 10
0.0
 20
0.0
 30
0.0
  9
$PUCSXDIR
 10
1.0
 20
0.0
 30
0.0
  9
$PUCSYDIR
 10
0.0
 20
1.0
 30
0.0
  9
$USERI1
 70
     0
  9
$USERI2
 70
     0
  9
$USERI3
 70
     0
  9
$USERI4
 70
     0
  9
$USERI5
 70
     0
  9
$USERR1
 40
0.0
  9
$USERR2
 40
0.0
  9
$USERR3
 40
0.0
  9
$USERR4
 40
0.0
  9
$USERR5
 40
0.0
  9
$WORLDVIEW
 70
     1
  9
$SHADEDGE
 70
     3
  9
$SHADEDIF
 70
    70
  9
$TILEMODE
 70
     1
  9
$MAXACTVP
 70
    64
  9
$PINSBASE
 10
0.0
 20
0.0
 30
0.0
  9
$PLIMCHECK
 70
     0
  9
$PEXTMIN
 10
1.000000000000000E+20
 20
1.000000000000000E+20
 30
1.000000000000000E+20
  9
$PEXTMAX
 10
-1.000000000000000E+20
 20
-1.000000000000000E+20
 30
-1.000000000000000E+20
  9
$PLIMMIN
 10
0.0
 20
0.0
  9
$PLIMMAX
 10
420.0
 20
297.0
  9
$UNITMODE
 70
     0
  9
$VISRETAIN
 70
     1
  9
$PLINEGEN
 70
     0
  9
$PSLTSCALE
 70
     1
  9
$TREEDEPTH
 70
  3020
  9
$PICKSTYLE
 70
     1
  9
$CMLSTYLE
  2
STANDARD
  9
$CMLJUST
 70
     0
  9
$CMLSCALE
 40
20.0
  9
$PROXYGRAPHICS
 70
     1
  9
$MEASUREMENT
 70
     1
  0
ENDSEC
  0
SECTION
  2
CLASSES
  0
CLASS
  1
ACDBDICTIONARYWDFLT
  2
AcDbDictionaryWithDefault
  3
ObjectDBX Classes
 90
        0
280
     0
281
     0
  0
CLASS
  1
VISUALSTYLE
  2
AcDbVisualStyle
  3
ObjectDBX Classes
 90
     4095
280
     0
281
     0
  0
CLASS
  1
MATERIAL
  2
AcDbMaterial
  3
ObjectDBX Classes
 90
     1153
280
     0
281
     0
  0
CLASS
  1
SCALE
  2
AcDbScale
  3
ObjectDBX Classes
 90
     1153
280
     0
281
     0
  0
CLASS
  1
SUN
  2
AcDbSun
  3
SCENEOE
 90
     1153
280
     0
281
     0
  0
CLASS
  1
TABLESTYLE
  2
AcDbTableStyle
  3
ObjectDBX Classes
 90
     4095
280
     0
281
     0
  0
CLASS
  1
DICTIONARYVAR
  2
AcDbDictionaryVar
  3
ObjectDBX Classes
 90
        0
280
     0
281
     0
  0
CLASS
  1
XRECORD
  2
AcDbXrecord
  3
ObjectDBX Classes
 90
        0
280
     0
281
     0
  0
CLASS
  1
LWPOLYLINE
  2
AcDbPolyline
  3
ObjectDBX Classes
 90
        0
280
     0
281
     1
  0
CLASS
  1
HATCH
  2
AcDbHatch
  3
ObjectDBX Classes
 90
        0
280
     0
281
     1
  0
CLASS
  1
ACDBPLACEHOLDER
  2
AcDbPlaceHolder
  3
ObjectDBX Classes
 90
        0
280
     0
281
     0
  0
CLASS
  1
LAYOUT
  2
AcDbLayout
  3
ObjectDBX Classes
 90
        0
280
     0
281
     0
  0
ENDSEC
  0
SECTION
  2
TABLES
  0
TABLE
  2
VPORT
  5
8
330
0
100
AcDbSymbolTable
 70
     1
  0
VPORT
  5
29
330
8
100
AcDbSymbolTableRecord
100
AcDbViewportTableRecord
  2
*ACTIVE
 70
     0
 10
0.0
 20
0.0
 11
1.0
 21
1.0
 12
405.304981433753
 22
221.5424010651058
 13
0.0
 23
0.0
 14
10.0
 24
10.0
 15
10.0
 25
10.0
 16
0.0
 26
0.0
 36
1.0
 17
0.0
 27
0.0
 37
0.0
 40
259.3999106054604
 41
1.078377162978065
 42
50.0
 43
0.0
 44
0.0
 50
0.0
 51
0.0
 71
     0
 72
   100
 73
     1
 74
     3
 75
     0
 76
     0
 77
     0
 78
     0
  0
ENDTAB
  0
TABLE
  2
LTYPE
  5
5
330
0
100
AcDbSymbolTable
 70
     1
  0
LTYPE
  5
14
330
5
100
AcDbSymbolTableRecord
100
AcDbLinetypeTableRecord
  2
BYBLOCK
 70
     0
  3

 72
    65
 73
     0
 40
0.0
  0
LTYPE
  5
15
330
5
100
AcDbSymbolTableRecord
100
AcDbLinetypeTableRecord
  2
BYLAYER
 70
     0
  3

 72
    65
 73
     0
 40
0.0
  0
LTYPE
  5
16
330
5
100
AcDbSymbolTableRecord
100
AcDbLinetypeTableRecord
  2
CONTINUOUS
 70
     0
  3
Solid line
 72
    65
 73
     0
 40
0.0
  0
ENDTAB
  0
TABLE
  2
LAYER
  5
2
330
0
100
AcDbSymbolTable
 70
     4
  0
LAYER
  5
10
330
2
100
AcDbSymbolTableRecord
100
AcDbLayerTableRecord
  2
0
 70
     0
 62
     7
  6
CONTINUOUS
  0
LAYER
  5
6E
330
2
100
AcDbSymbolTableRecord
100
AcDbLayerTableRecord
  2
DEFPOINTS
 70
     0
 62
     7
  6
CONTINUOUS
  0
LAYER
  5
75
330
2
100
AcDbSymbolTableRecord
100
AcDbLayerTableRecord
  2
ANNOTATION_TEXT
 70
     0
 62
     7
  6
CONTINUOUS
  0
LAYER
  5
78
330
2
100
AcDbSymbolTableRecord
100
AcDbLayerTableRecord
  2
VISIBLE
 70
     0
 62
     7
  6
CONTINUOUS
  0
ENDTAB
  0
TABLE
  2
STYLE
  5
3
330
0
100
AcDbSymbolTable
 70
    27
  0
STYLE
  5
11
330
3
100
AcDbSymbolTableRecord
100
AcDbTextStyleTableRecord
  2
STANDARD
 70
     0
 40
0.0
 41
1.0
 50
0.0
 71
     0
 42
3.5
  3
txt
  4

  0
STYLE
  5
6F
330
3
100
AcDbSymbolTableRecord
100
AcDbTextStyleTableRecord
  2
ONSHAPE-STANDARD
 70
     0
 40
0.0
 41
1.0
 50
0.0
 71
     0
 42
3.5
  3
NotoSans-Regular.ttf
  4

1001
ACAD
1000
Noto Sans
1071
        0
  0
STYLE
  5
71
330
3
100
AcDbSymbolTableRecord
100
AcDbTextStyleTableRecord
  2
ONSHAPE-STANDARD-DIMENSION
 70
     0
 40
0.0
 41
1.0
 50
0.0
 71
     0
 42
3.5
  3

  4

1001
ACAD
1000
Noto Sans
1071
        0
  0
STYLE
  5
77
330
3
100
AcDbSymbolTableRecord
100
AcDbTextStyleTableRecord
  2
ONSHAPE-STANDARD-VIEW-LABE
 70
     0
 40
2.5
 41
1.0
 50
0.0
 71
     0
 42
3.5
  3
Noto Sans
  4

1001
ACAD
1000
Noto Sans
1071
        0
  0
STYLE
  5
D9
330
3
100
AcDbSymbolTableRecord
100
AcDbTextStyleTableRecord
  2
ONSHAPE-STANDARD-BOLD
 70
     0
 40
0.0
 41
1.0
 50
0.0
 71
     0
 42
3.5
  3
NotoSans-Bold.ttf
  4

1001
ACAD
1000
Noto Sans
1071
 33554432
  0
STYLE
  5
DA
330
3
100
AcDbSymbolTableRecord
100
AcDbTextStyleTableRecord
  2
ONSHAPE-STANDARD-FIELDS
 70
     0
 40
0.0
 41
1.0
 50
0.0
 71
     0
 42
3.5
  3

  4

1001
ACAD
1000
Noto Sans
1071
        0
  0
STYLE
  5
DB
330
3
100
AcDbSymbolTableRecord
100
AcDbTextStyleTableRecord
  2
ONSHAPE-STANDARD-TCFIELDS
 70
     0
 40
0.0
 41
1.0
 50
0.0
 71
     0
 42
3.5
  3
NotoSansTC-Regular.otf
  4

1001
ACAD
1000
Noto Sans TC
1071
        0
  0
STYLE
  5
DC
330
3
100
AcDbSymbolTableRecord
100
AcDbTextStyleTableRecord
  2
ONSHAPE-STANDARD-SCFIELDS
 70
     0
 40
0.0
 41
1.0
 50
0.0
 71
     0
 42
3.5
  3
NotoSansSC-Regular.otf
  4

1001
ACAD
1000
Noto Sans SC
1071
        0
  0
STYLE
  5
DD
330
3
100
AcDbSymbolTableRecord
100
AcDbTextStyleTableRecord
  2
ONSHAPE-STANDARD-KOREANFIE
 70
     0
 40
0.0
 41
1.0
 50
0.0
 71
     0
 42
3.5
  3
NotoSansKR-Regular.otf
  4

1001
ACAD
1000
Noto Sans KR
1071
        0
  0
STYLE
  5
DF
330
3
100
AcDbSymbolTableRecord
100
AcDbTextStyleTableRecord
  2
TTFSTYLE
 70
     0
 40
0.0
 41
1.0
 50
0.0
 71
     0
 42
3.5
  3
Verdana.ttf
  4

1001
ACAD
1000
Verdana
1071
       34
  0
STYLE
  5
E0
330
3
100
AcDbSymbolTableRecord
100
AcDbTextStyleTableRecord
  2
ONSHAPE-STANDARD-GTOLERANC
 70
     0
 40
2.5
 41
1.0
 50
0.0
 71
     0
 42
3.5
  3

  4

1001
ACAD
1000
Noto Sans
1071
        0
  0
STYLE
  5
E1
330
3
100
AcDbSymbolTableRecord
100
AcDbTextStyleTableRecord
  2
ONSHAPE-STANDARD-TABLE-DAT
 70
     0
 40
0.0
 41
1.0
 50
0.0
 71
     0
 42
3.5
  3
Noto Sans
  4

1001
ACAD
1000
Noto Sans
1071
        0
  0
STYLE
  5
E2
330
3
100
AcDbSymbolTableRecord
100
AcDbTextStyleTableRecord
  2
ONSHAPE-STANDARD-TABLE-TIT
 70
     0
 40
0.0
 41
1.0
 50
0.0
 71
     0
 42
3.5
  3
Noto Sans
  4

1001
ACAD
1000
Noto Sans
1071
 33554432
  0
STYLE
  5
E3
330
3
100
AcDbSymbolTableRecord
100
AcDbTextStyleTableRecord
  2
ONSHAPE-STANDARD-TABLE-HEA
 70
     0
 40
0.0
 41
1.0
 50
0.0
 71
     0
 42
3.5
  3
Noto Sans
  4

1001
ACAD
1000
Noto Sans
1071
 33554432
  0
STYLE
  5
E4
330
3
100
AcDbSymbolTableRecord
100
AcDbTextStyleTableRecord
  2
ONSHAPE-STANDARD-BOMTABLE-
 70
     0
 40
0.0
 41
1.0
 50
0.0
 71
     0
 42
3.5
  3
Noto Sans
  4

1001
ACAD
1000
Noto Sans
1071
        0
  0
STYLE
  5
E5
330
3
100
AcDbSymbolTableRecord
100
AcDbTextStyleTableRecord
  2
ONSHAPE-STANDARD-BOMTABLE0
 70
     0
 40
0.0
 41
1.0
 50
0.0
 71
     0
 42
3.5
  3
Noto Sans
  4

1001
ACAD
1000
Noto Sans
1071
 33554432
  0
STYLE
  5
E6
330
3
100
AcDbSymbolTableRecord
100
AcDbTextStyleTableRecord
  2
ONSHAPE-STANDARD-BOMTABLE1
 70
     0
 40
0.0
 41
1.0
 50
0.0
 71
     0
 42
3.5
  3
Noto Sans
  4

1001
ACAD
1000
Noto Sans
1071
 33554432
  0
STYLE
  5
E7
330
3
100
AcDbSymbolTableRecord
100
AcDbTextStyleTableRecord
  2
ONSHAPE-STANDARD-NOTESTYLE
 70
     0
 40
2.5
 41
1.0
 50
0.0
 71
     0
 42
3.5
  3
Noto Sans
  4

1001
ACAD
1000
Noto Sans
1071
        0
  0
STYLE
  5
E9
330
3
100
AcDbSymbolTableRecord
100
AcDbTextStyleTableRecord
  2
ONSHAPE-STANDARD-HOLE-CALL
 70
     0
 40
2.5
 41
1.0
 50
0.0
 71
     0
 42
3.5
  3
Noto Sans
  4

1001
ACAD
1000
Noto Sans
1071
        0
  0
STYLE
  5
EA
330
3
100
AcDbSymbolTableRecord
100
AcDbTextStyleTableRecord
  2
ONSHAPE-STANDARD-HOLETABLE
 70
     0
 40
0.0
 41
1.0
 50
0.0
 71
     0
 42
3.5
  3
Noto Sans
  4

1001
ACAD
1000
Noto Sans
1071
        0
  0
STYLE
  5
EB
330
3
100
AcDbSymbolTableRecord
100
AcDbTextStyleTableRecord
  2
ONSHAPE-STANDARD-HOLETABL0
 70
     0
 40
0.0
 41
1.0
 50
0.0
 71
     0
 42
3.5
  3
Noto Sans
  4

1001
ACAD
1000
Noto Sans
1071
 33554432
  0
STYLE
  5
EC
330
3
100
AcDbSymbolTableRecord
100
AcDbTextStyleTableRecord
  2
ONSHAPE-STANDARD-HOLETABL1
 70
     0
 40
0.0
 41
1.0
 50
0.0
 71
     0
 42
3.5
  3
Noto Sans
  4

1001
ACAD
1000
Noto Sans
1071
 33554432
  0
STYLE
  5
ED
330
3
100
AcDbSymbolTableRecord
100
AcDbTextStyleTableRecord
  2
ONSHAPE-STANDARD-HOLE-TAG
 70
     0
 40
2.0
 41
1.0
 50
0.0
 71
     0
 42
3.5
  3
Noto Sans
  4

1001
ACAD
1000
Noto Sans
1071
        0
  0
STYLE
  5
EE
330
3
100
AcDbSymbolTableRecord
100
AcDbTextStyleTableRecord
  2
ONSHAPE-STANDARD-REVISIONT
 70
     0
 40
0.0
 41
1.0
 50
0.0
 71
     0
 42
3.5
  3
Noto Sans
  4

1001
ACAD
1000
Noto Sans
1071
        0
  0
STYLE
  5
EF
330
3
100
AcDbSymbolTableRecord
100
AcDbTextStyleTableRecord
  2
ONSHAPE-STANDARD-REVISION0
 70
     0
 40
0.0
 41
1.0
 50
0.0
 71
     0
 42
3.5
  3
Noto Sans
  4

1001
ACAD
1000
Noto Sans
1071
 33554432
  0
STYLE
  5
F0
330
3
100
AcDbSymbolTableRecord
100
AcDbTextStyleTableRecord
  2
ONSHAPE-STANDARD-REVISION1
 70
     0
 40
0.0
 41
1.0
 50
0.0
 71
     0
 42
3.5
  3
Noto Sans
  4

1001
ACAD
1000
Noto Sans
1071
 33554432
  0
STYLE
  5
F1
330
3
100
AcDbSymbolTableRecord
100
AcDbTextStyleTableRecord
  2
ONSHAPE-STANDARD-REVISION-
 70
     0
 40
2.0
 41
1.0
 50
0.0
 71
     0
 42
3.5
  3
Noto Sans
  4

1001
ACAD
1000
Noto Sans
1071
        0
  0
ENDTAB
  0
TABLE
  2
VIEW
  5
6
330
0
100
AcDbSymbolTable
 70
     0
  0
ENDTAB
  0
TABLE
  2
UCS
  5
7
330
0
100
AcDbSymbolTable
 70
     0
  0
ENDTAB
  0
TABLE
  2
APPID
  5
9
330
0
100
AcDbSymbolTable
 70
     1
  0
APPID
  5
12
330
9
100
AcDbSymbolTableRecord
100
AcDbRegAppTableRecord
  2
ACAD
 70
     0
  0
ENDTAB
  0
TABLE
  2
DIMSTYLE
  5
A
330
0
100
AcDbSymbolTable
 70
    18
  0
DIMSTYLE
105
27
330
A
100
AcDbSymbolTableRecord
100
AcDbDimStyleTableRecord
  2
ISO-25
 70
     0
  3

  4

  5

  6

  7

 40
1.0
 41
2.5
 42
0.625
 43
3.75
 44
1.25
 45
0.0
 46
0.0
 47
0.0
 48
0.0
140
2.5
141
2.5
142
0.0
143
0.03937007874016
144
1.0
145
0.0
146
1.0
147
0.625
 71
     0
 72
     0
 73
     0
 74
     0
 75
     0
 76
     0
 77
     1
 78
     8
170
     0
171
     3
172
     1
173
     0
174
     0
175
     0
176
     0
177
     0
178
     0
270
     2
271
     2
272
     2
273
     2
274
     3
340
11
275
     0
280
     0
281
     0
282
     0
283
     0
284
     8
285
     0
286
     0
287
     3
288
     0
  0
DIMSTYLE
105
70
330
A
100
AcDbSymbolTableRecord
100
AcDbDimStyleTableRecord
  2
ONSHAPE-ISO-25
 70
     0
  3

  4

  5

  6

  7

 40
1.0
 41
2.5
 42
0.625
 43
3.75
 44
1.25
 45
0.0
 46
0.0
 47
0.0
 48
0.0
140
2.5
141
2.5
142
0.0
143
0.03937
144
1.0
145
0.0
146
1.0
147
0.625
 71
     0
 72
     0
 73
     0
 74
     0
 75
     0
 76
     0
 77
     1
 78
     8
170
     0
171
     3
172
     1
173
     0
174
     0
175
     0
176
     7
177
     7
178
     7
179
     1
270
     2
271
     2
272
     3
273
     2
274
     3
340
71
275
     0
280
     0
281
     0
282
     0
283
     0
284
     8
285
     8
286
     0
287
     3
288
     1
  0
DIMSTYLE
105
F4
330
A
100
AcDbSymbolTableRecord
100
AcDbDimStyleTableRecord
  2
ISO
 70
     0
  3

  4
"
  5

  6

  7

 40
1.0
 41
3.5
 42
1.0
 43
10.0
 44
1.0
 45
0.0
 46
0.0
 47
0.1
 48
0.1
140
2.5
141
0.0
142
0.0
143
0.03937
144
1.0
145
0.0
146
0.71
147
1.5
 71
     0
 72
     0
 73
     0
 74
     0
 75
     0
 76
     0
 77
     1
 78
     8
170
     0
171
     3
172
     1
173
     0
174
     0
175
     0
176
     7
177
     7
178
     7
270
     2
271
     2
272
     3
273
     2
274
     3
340
11
275
     0
280
     0
281
     0
282
     0
283
     0
284
     8
285
     8
286
     0
287
     3
288
     1
  0
DIMSTYLE
105
F5
330
A
100
AcDbSymbolTableRecord
100
AcDbDimStyleTableRecord
  2
ISO$3
 70
     0
  3

  4
"
  5

  6

  7

 40
1.0
 41
3.5
 42
1.0
 43
10.0
 44
1.0
 45
0.0
 46
0.0
 47
0.1
 48
0.1
140
2.5
141
0.0
142
0.0
143
0.03937
144
1.0
145
0.0
146
0.71
147
1.5
 71
     0
 72
     0
 73
     0
 74
     0
 75
     0
 76
     0
 77
     1
 78
     8
170
     0
171
     3
172
     0
173
     0
174
     0
175
     0
176
     7
177
     7
178
     7
270
     2
271
     2
272
     3
273
     2
274
     3
340
11
275
     0
280
     0
281
     0
282
     0
283
     0
284
     8
285
     8
286
     0
288
     1
  0
DIMSTYLE
105
F6
330
A
100
AcDbSymbolTableRecord
100
AcDbDimStyleTableRecord
  2
ISO$4
 70
     0
  3

  4
"
  5

  6

  7

 40
1.0
 41
3.5
 42
1.0
 43
10.0
 44
1.0
 45
0.0
 46
0.0
 47
0.1
 48
0.1
140
2.5
141
0.0
142
0.0
143
0.03937
144
1.0
145
0.0
146
0.71
147
1.5
 71
     0
 72
     0
 73
     0
 74
     0
 75
     0
 76
     0
 77
     1
 78
     8
170
     0
171
     3
172
     1
173
     0
174
     0
175
     0
176
     7
177
     7
178
     7
270
     2
271
     2
272
     3
273
     2
274
     3
340
11
275
     0
280
     0
281
     0
282
     0
283
     0
284
     8
285
     8
286
     0
287
     3
288
     1
  0
DIMSTYLE
105
F7
330
A
100
AcDbSymbolTableRecord
100
AcDbDimStyleTableRecord
  2
ISO$6
 70
     0
  3

  4
"
  5

  6

  7

 40
1.0
 41
0.5
 42
1.0
 43
10.0
 44
1.0
 45
0.0
 46
0.0
 47
0.1
 48
0.1
140
2.5
141
0.0
142
0.0
143
0.03937
144
1.0
145
0.0
146
0.71
147
1.5
 71
     0
 72
     0
 73
     0
 74
     0
 75
     0
 76
     0
 77
     0
 78
     8
170
     0
171
     3
172
     1
173
     0
174
     0
175
     0
176
     7
177
     7
178
     7
270
     2
271
     2
272
     3
273
     2
274
     3
340
11
275
     0
280
     0
281
     0
282
     0
283
     0
284
     8
285
     8
286
     0
287
     3
288
     1
  0
DIMSTYLE
105
F8
330
A
100
AcDbSymbolTableRecord
100
AcDbDimStyleTableRecord
  2
ISO$7
 70
     0
  3

  4
"
  5

  6

  7

 40
1.0
 41
3.5
 42
1.0
 43
10.0
 44
1.0
 45
0.0
 46
0.0
 47
0.1
 48
0.1
140
2.5
141
0.0
142
0.0
143
0.03937
144
1.0
145
0.0
146
0.71
147
1.5
 71
     0
 72
     0
 73
     0
 74
     0
 75
     0
 76
     0
 77
     1
 78
     8
170
     0
171
     3
172
     1
173
     0
174
     0
175
     0
176
     7
177
     7
178
     7
270
     2
271
     2
272
     3
273
     2
274
     3
340
11
275
     0
280
     0
281
     0
282
     0
283
     0
284
     8
285
     8
286
     0
287
     3
288
     1
  0
DIMSTYLE
105
F9
330
A
100
AcDbSymbolTableRecord
100
AcDbDimStyleTableRecord
  2
ISO$SF
 70
     0
  3

  4
"
  5

  6

  7

 40
1.0
 41
3.5
 42
1.0
 43
10.0
 44
1.0
 45
0.0
 46
0.0
 47
0.1
 48
0.1
140
2.5
141
0.0
142
0.0
143
0.03937
144
1.0
145
0.0
146
0.71
147
1.5
 71
     0
 72
     0
 73
     0
 74
     0
 75
     1
 76
     1
 77
     1
 78
     8
170
     0
171
     3
172
     1
173
     0
174
     0
175
     0
176
     7
177
     7
178
     7
270
     2
271
     2
272
     3
273
     2
274
     3
340
11
275
     0
280
     0
281
     0
282
     0
283
     0
284
     8
285
     8
286
     0
287
     3
288
     1
  0
DIMSTYLE
105
FA
330
A
100
AcDbSymbolTableRecord
100
AcDbDimStyleTableRecord
  2
ISO$SH
 70
     0
  3

  4
"
  5

  6

  7

 40
1.0
 41
3.5
 42
1.0
 43
10.0
 44
1.0
 45
0.0
 46
0.0
 47
0.1
 48
0.1
140
2.5
141
0.0
142
0.0
143
0.03937
144
1.0
145
0.0
146
0.71
147
1.5
 71
     0
 72
     0
 73
     0
 74
     0
 75
     1
 76
     1
 77
     1
 78
     8
170
     0
171
     3
172
     1
173
     0
174
     0
175
     0
176
     7
177
     7
178
     7
270
     2
271
     2
272
     3
273
     2
274
     3
340
11
275
     0
280
     0
281
     0
282
     0
283
     0
284
     8
285
     8
286
     0
287
     3
288
     1
  0
DIMSTYLE
105
FD
330
A
100
AcDbSymbolTableRecord
100
AcDbDimStyleTableRecord
  2
ONSHAPE-ISO-25$0
 70
     0
  3

  4

  5

  6

  7

 40
1.0
 41
2.5
 42
0.625
 43
3.75
 44
1.25
 45
0.0
 46
0.0
 47
0.0
 48
0.0
140
2.5
141
2.5
142
0.0
143
0.03937
144
1.0
145
0.0
146
1.0
147
0.625
 71
     0
 72
     0
 73
     0
 74
     0
 75
     0
 76
     0
 77
     1
 78
     8
170
     0
171
     3
172
     1
173
     0
174
     0
175
     0
176
     7
177
     7
178
     7
179
     1
270
     2
271
     2
272
     3
273
     2
274
     3
340
71
275
     0
280
     0
281
     0
282
     0
283
     0
284
     8
285
     8
286
     0
287
     3
288
     1
  0
DIMSTYLE
105
FE
330
A
100
AcDbSymbolTableRecord
100
AcDbDimStyleTableRecord
  2
ONSHAPE-ISO-25$2
 70
     0
  3

  4

  5

  6

  7

 40
1.0
 41
2.5
 42
0.625
 43
3.75
 44
1.25
 45
0.0
 46
0.0
 47
0.0
 48
0.0
140
2.5
141
2.5
142
0.0
143
0.03937
144
1.0
145
0.0
146
1.0
147
0.625
 71
     0
 72
     0
 73
     0
 74
     0
 75
     0
 76
     0
 77
     1
 78
     8
170
     0
171
     3
172
     1
173
     0
174
     0
175
     0
176
     7
177
     7
178
     7
179
     1
270
     2
271
     2
272
     3
273
     2
274
     3
340
71
275
     0
280
     0
281
     0
282
     0
283
     0
284
     8
285
     8
286
     0
287
     3
288
     1
  0
DIMSTYLE
105
FF
330
A
100
AcDbSymbolTableRecord
100
AcDbDimStyleTableRecord
  2
ONSHAPE-ISO-25$3
 70
     0
  3

  4

  5

  6

  7

 40
1.0
 41
2.5
 42
0.625
 43
3.75
 44
1.25
 45
0.0
 46
0.0
 47
0.0
 48
0.0
140
2.5
141
0.0
142
0.0
143
0.03937
144
1.0
145
0.0
146
1.0
147
0.625
 71
     0
 72
     0
 73
     0
 74
     0
 75
     0
 76
     0
 77
     1
 78
     8
170
     0
171
     3
172
     1
173
     0
174
     0
175
     0
176
     7
177
     7
178
     7
179
     1
270
     2
271
     2
272
     3
273
     2
274
     3
340
71
275
     0
280
     0
281
     0
282
     0
283
     0
284
     8
285
     8
286
     0
287
     3
288
     1
  0
DIMSTYLE
105
100
330
A
100
AcDbSymbolTableRecord
100
AcDbDimStyleTableRecord
  2
ONSHAPE-ISO-25$4
 70
     0
  3

  4

  5

  6

  7

 40
1.0
 41
2.5
 42
0.625
 43
3.75
 44
1.25
 45
0.0
 46
0.0
 47
0.0
 48
0.0
140
2.5
141
0.0
142
0.0
143
0.03937
144
1.0
145
0.0
146
1.0
147
0.625
 71
     0
 72
     0
 73
     0
 74
     0
 75
     0
 76
     0
 77
     1
 78
     8
170
     0
171
     3
172
     1
173
     0
174
     0
175
     0
176
     7
177
     7
178
     7
179
     1
270
     2
271
     2
272
     3
273
     2
274
     3
340
71
275
     0
280
     0
281
     0
282
     0
283
     0
284
     8
285
     8
286
     0
287
     3
288
     1
  0
DIMSTYLE
105
101
330
A
100
AcDbSymbolTableRecord
100
AcDbDimStyleTableRecord
  2
ONSHAPE-ISO-25$6
 70
     0
  3

  4

  5

  6

  7

 40
1.0
 41
0.5
 42
0.625
 43
3.75
 44
1.25
 45
0.0
 46
0.0
 47
0.0
 48
0.0
140
2.5
141
2.5
142
0.0
143
0.03937
144
1.0
145
0.0
146
1.0
147
0.625
 71
     0
 72
     0
 73
     0
 74
     0
 75
     0
 76
     0
 77
     1
 78
     8
170
     0
171
     3
172
     1
173
     0
174
     0
175
     0
176
     7
177
     7
178
     7
179
     1
270
     2
271
     2
272
     3
273
     2
274
     3
340
71
275
     0
280
     0
281
     0
282
     0
283
     0
284
     8
285
     8
286
     0
287
     3
288
     1
  0
DIMSTYLE
105
102
330
A
100
AcDbSymbolTableRecord
100
AcDbDimStyleTableRecord
  2
ONSHAPE-ISO-25$7
 70
     0
  3

  4

  5

  6

  7

 40
1.0
 41
2.5
 42
0.625
 43
3.75
 44
1.25
 45
0.0
 46
0.0
 47
0.0
 48
0.0
140
2.5
141
2.5
142
0.0
143
0.03937
144
1.0
145
0.0
146
1.0
147
0.625
 71
     0
 72
     0
 73
     0
 74
     0
 75
     0
 76
     0
 77
     1
 78
     8
170
     0
171
     3
172
     1
173
     0
174
     0
175
     0
176
     7
177
     7
178
     7
179
     1
270
     2
271
     2
272
     3
273
     2
274
     3
340
71
275
     0
280
     0
281
     0
282
     0
283
     0
284
     8
285
     8
286
     0
287
     3
288
     1
  0
DIMSTYLE
105
103
330
A
100
AcDbSymbolTableRecord
100
AcDbDimStyleTableRecord
  2
ONSHAPE-STANDARD-GTOLERANC
 70
     0
  3

  4

  5

  6

  7

 40
1.0
 41
2.5
 42
0.625
 43
3.75
 44
1.25
 45
0.0
 46
0.0
 47
0.0
 48
0.0
140
2.5
141
2.5
142
0.0
143
0.03937
144
1.0
145
0.0
146
1.0
147
0.625
 71
     0
 72
     0
 73
     0
 74
     0
 75
     0
 76
     0
 77
     1
 78
     8
170
     0
171
     3
172
     1
173
     0
174
     0
175
     0
176
     7
177
     7
178
     7
179
     1
270
     2
271
     2
272
     3
273
     2
274
     3
340
E0
275
     0
280
     0
281
     0
282
     0
283
     0
284
     8
285
     8
286
     0
287
     3
288
     1
  0
DIMSTYLE
105
105
330
A
100
AcDbSymbolTableRecord
100
AcDbDimStyleTableRecord
  2
ONSHAPE-ORDINATESTYLE
 70
     0
  3

  4

  5

  6

  7

 40
1.0
 41
2.5
 42
0.625
 43
3.75
 44
1.25
 45
0.0
 46
0.0
 47
0.0
 48
0.0
140
2.5
141
2.5
142
0.0
143
0.03937
144
1.0
145
0.0
146
1.0
147
0.625
 71
     0
 72
     0
 73
     0
 74
     0
 75
     0
 76
     0
 77
     1
 78
     8
170
     0
171
     3
172
     1
173
     0
174
     0
175
     0
176
     7
177
     7
178
     7
179
     1
270
     2
271
     2
272
     3
273
     2
274
     3
340
71
275
     0
280
     0
281
     0
282
     0
283
     0
284
     8
285
     8
286
     0
287
     3
288
     1
  0
DIMSTYLE
105
106
330
A
100
AcDbSymbolTableRecord
100
AcDbDimStyleTableRecord
  2
ONSHAPE-CHAMFERDIMSTYLE
 70
     0
  3

  4

  5

  6

  7

 40
1.0
 41
2.5
 42
0.625
 43
3.75
 44
1.25
 45
0.0
 46
0.0
 47
0.0
 48
0.0
140
2.5
141
2.5
142
0.0
143
0.03937
144
1.0
145
0.0
146
1.0
147
0.625
 71
     0
 72
     0
 73
     0
 74
     0
 75
     0
 76
     0
 77
     1
 78
     8
170
     0
171
     3
172
     1
173
     0
174
     0
175
     0
176
     7
177
     7
178
     7
179
     1
270
     2
271
     2
272
     3
273
     2
274
     3
340
71
275
     0
280
     0
281
     0
282
     0
283
     0
284
     8
285
     8
286
     0
287
     3
288
     1
  0
ENDTAB
  0
TABLE
  2
BLOCK_RECORD
  5
1
330
0
100
AcDbSymbolTable
 70
     1
  0
BLOCK_RECORD
  5
1F
330
1
100
AcDbSymbolTableRecord
100
AcDbBlockTableRecord
  2
*MODEL_SPACE
  0
BLOCK_RECORD
  5
1B
330
1
100
AcDbSymbolTableRecord
100
AcDbBlockTableRecord
  2
*PAPER_SPACE
  0
ENDTAB
  0
ENDSEC
  0
SECTION
  2
BLOCKS
  0
BLOCK
  5
20
330
1F
100
AcDbEntity
  8
0
100
AcDbBlockBegin
  2
*MODEL_SPACE
 70
     0
 10
0.0
 20
0.0
 30
0.0
  3
*MODEL_SPACE
  1

  0
ENDBLK
  5
21
330
1F
100
AcDbEntity
  8
0
100
AcDbBlockEnd
  0
BLOCK
  5
1C
330
1B
100
AcDbEntity
 67
     1
  8
0
100
AcDbBlockBegin
  2
*PAPER_SPACE
 70
     0
 10
0.0
 20
0.0
 30
0.0
  3
*PAPER_SPACE
  1

  0
ENDBLK
  5
1D
330
1B
100
AcDbEntity
 67
     1
  8
0
100
AcDbBlockEnd
  0
ENDSEC
  0
SECTION
  2
ENTITIES
  0
MTEXT
  5
72
102
{ACAD_XDICTIONARY
360
73
102
}
330
1F
100
AcDbEntity
  8
ANNOTATION_TEXT
 62
     7
 60
     1
100
AcDbMText
 10
405.304981433753
 20
79.42328117637621
 30
0.0
 40
2.5
 41
0.0
 71
     2
 72
     1
  1

  7
ONSHAPE-STANDARD-VIEW-LABE
1001
ACAD
1000
ACAD_MTEXT_DEFINED_HEIGHT_BEGIN
1070
    46
1040
2.5
1000
ACAD_MTEXT_DEFINED_HEIGHT_END
  0
CIRCLE
  5
7A
330
1F
100
AcDbEntity
  8
VISIBLE
100
AcDbCircle
 10
331.9745669761263
 20
216.1216755359541
 30
0.0
 40
3.2
  0
CIRCLE
  5
7B
330
1F
100
AcDbEntity
  8
VISIBLE
100
AcDbCircle
 10
361.455279007435
 20
195.4604166650877
 30
0.0
 40
3.2
  0
ARC
  5
7C
330
1F
100
AcDbEntity
  8
VISIBLE
100
AcDbCircle
 10
388.6089650770115
 20
189.3627401086679
 30
-0.0000000000000001
 40
10.0
100
AcDbArc
 50
94.97569593554617
 51
158.5878959742177
  0
ARC
  5
7D
330
1F
100
AcDbEntity
  8
VISIBLE
100
AcDbCircle
 10
346.7149229917807
 20
205.7910461005209
 30
0.0
 40
35.0
100
AcDbArc
 50
317.8152843424112
 51
338.5878959742641
  0
ARC
  5
7E
330
1F
100
AcDbEntity
  8
VISIBLE
100
AcDbCircle
 10
380.0591921702089
 20
175.5725134929015
 30
0.0000000000000004
 40
10.0
100
AcDbArc
 50
137.8152843423919
 51
214.9756959354264
  0
LINE
  5
7F
330
1F
100
AcDbEntity
  8
VISIBLE
100
AcDbLine
 10
371.865239433711
 20
169.8402243731838
 30
0.0
 11
404.017351328419
 21
123.8807691292355
 31
0.0
  0
SPLINE
  5
80
330
1F
100
AcDbEntity
  8
VISIBLE
100
AcDbSpline
210
0.0
220
0.0
230
1.0
 70
     8
 71
     3
 72
    11
 73
     7
 74
     0
 42
0.000000001
 43
0.000000031883287
 40
-2.09532589621931
 40
-2.09532589621931
 40
-2.09532589621931
 40
-2.09532589621931
 40
-0.8979968126654171
 40
-0.8979968126654171
 40
-0.8979968126654171
 40
0.0
 40
0.0
 40
0.0
 40
0.0
 10
404.0173513284269
 20
123.8807691292237
 30
0.0
 10
406.2994100566636
 20
120.6187073297397
 30
0.0
 10
409.239064827777
 20
117.818734017984
 30
0.0
 10
412.6063586520796
 20
115.6959224508646
 30
0.0
 10
415.1318290203066
 20
114.1038137755251
 30
0.0
 10
417.8978463559524
 20
112.8926085815437
 30
0.0
 10
420.7804524699087
 20
112.1144350439619
 30
0.0
  0
SPLINE
  5
81
330
1F
100
AcDbEntity
  8
VISIBLE
100
AcDbSpline
210
0.0
220
0.0
230
1.0
 70
     8
 71
     3
 72
    26
 73
    22
 74
     0
 42
0.000000001
 43
0.0000000428515678
 40
0.0
 40
0.0
 40
0.0
 40
0.0
 40
0.0922374947561373
 40
0.0922374947561373
 40
0.0922374947561373
 40
0.269559677962409
 40
0.269559677962409
 40
0.269559677962409
 40
0.412109791452001
 40
0.412109791452001
 40
0.412109791452001
 40
0.597711252831291
 40
0.597711252831291
 40
0.597711252831291
 40
0.74992709301932
 40
0.74992709301932
 40
0.74992709301932
 40
0.94942390243037
 40
0.94942390243037
 40
0.94942390243037
 40
1.0
 40
1.0
 40
1.0
 40
1.0
 10
420.78045246991
 20
112.1144350439712
 30
0.0
 10
424.6925091014406
 20
111.0583563333079
 30
0.0
 10
428.5425047438561
 20
110.2956921150886
 30
0.0
 10
432.2526652246074
 20
109.8551573355618
 30
0.0
 10
439.3852717446766
 20
109.0082502389357
 30
0.0
 10
446.0369581333576
 20
109.3051061258896
 30
0.0
 10
452.8402081677764
 20
110.6804989033371
 30
0.0
 10
458.3093719631274
 20
111.7861834430423
 30
0.0
 10
463.9232938784331
 20
113.6124402945747
 30
0.0
 10
469.5976390879699
 20
116.0797798254146
 30
0.0
 10
476.9856848599401
 20
119.2922769005309
 30
0.0
 10
484.4127325538271
 20
123.574479640067
 30
0.0
 10
491.0666976285009
 20
128.5010339756753
 30
0.0
 10
496.5237607189339
 20
132.5414095301226
 30
0.0
 10
501.4316134756666
 20
136.9944761029093
 30
0.0
 10
505.6091886852512
 20
141.7563036497887
 30
0.0
 10
511.0843936596967
 20
147.9972402132537
 30
0.0
 10
515.3552509165136
 20
154.7907848217187
 30
0.0
 10
518.6674387331407
 20
162.4676558852165
 30
0.0
 10
519.5071390505401
 20
164.4138834017526
 30
0.0
 10
520.2855211111696
 20
166.4205723182194
 30
0.0
 10
521.0032506311542
 20
168.4818240253034
 30
0.0
  0
SPLINE
  5
82
330
1F
100
AcDbEntity
  8
VISIBLE
100
AcDbSpline
210
0.0
220
0.0
230
1.0
 70
     8
 71
     3
 72
    17
 73
    13
 74
     0
 42
0.000000001
 43
0.0000000447682028
 40
-5.99412774992948
 40
-5.99412774992948
 40
-5.99412774992948
 40
-5.99412774992948
 40
-4.2815198213782
 40
-4.2815198213782
 40
-4.2815198213782
 40
-2.56891189282692
 40
-2.56891189282692
 40
-2.56891189282692
 40
-0.8563039642756409
 40
-0.8563039642756409
 40
-0.8563039642756409
 40
0.0
 40
0.0
 40
0.0
 40
0.0
 10
521.0032506311646
 20
168.4818240252998
 30
0.0
 10
522.8754657131351
 20
173.8586497323338
 30
0.0
 10
523.1741639571567
 20
179.77784307101
 30
0.0
 10
521.8535014061931
 20
185.3127843022075
 30
0.0
 10
520.5328388552301
 20
190.8477255334049
 30
0.0
 10
517.5928155092827
 20
195.9984146571236
 30
0.0
 10
513.4971050914037
 20
199.9480841776908
 30
0.0
 10
509.4013946735246
 20
203.8977536982579
 30
0.0
 10
504.1499971837146
 20
206.6464036156736
 30
0.0
 10
498.5690200724216
 20
207.7670813788204
 30
0.0
 10
495.7785315167752
 20
208.327420260394
 30
0.0
 10
492.9056480557591
 20
208.4807661034
 30
0.0
 10
490.0696476048728
 20
208.2338603688354
 30
0.0
  0
LINE
  5
83
330
1F
100
AcDbEntity
  8
VISIBLE
100
AcDbLine
 10
490.0696476048612
 20
208.2338603688274
 30
0.0
 11
387.7416334457259
 21
199.3250558957537
 31
0.0
  0
SPLINE
  5
84
330
1F
100
AcDbEntity
  8
VISIBLE
100
AcDbSpline
210
0.0
220
0.0
230
1.0
 70
     8
 71
     3
 72
    20
 73
    16
 74
     0
 42
0.000000001
 43
0.0000000473636241
 40
-6.34766432874691
 40
-6.34766432874691
 40
-6.34766432874691
 40
-6.34766432874691
 40
-5.44085513892593
 40
-5.44085513892593
 40
-5.44085513892593
 40
-4.53404594910494
 40
-4.53404594910494
 40
-4.53404594910494
 40
-2.72042756946296
 40
-2.72042756946296
 40
-2.72042756946296
 40
-0.906809189820988
 40
-0.906809189820988
 40
-0.906809189820988
 40
0.0
 40
0.0
 40
0.0
 40
0.0
 10
484.5080183028392
 20
227.8253115089549
 30
0.0
 10
487.511097164214
 20
228.0867632982138
 30
0.0
 10
490.4706026443583
 20
228.8086829615132
 30
0.0
 10
493.2614197047525
 20
229.9489230602238
 30
0.0
 10
496.0522367651467
 20
231.0891631589344
 30
0.0
 10
498.6743654057917
 20
232.6477236930561
 30
0.0
 10
500.9987499474796
 20
234.5662586262105
 30
0.0
 10
505.6475190308552
 20
238.4033284925194
 30
0.0
 10
509.1053117184057
 20
243.6802959549589
 30
0.0
 10
510.7596447649942
 20
249.4724147656297
 30
0.0
 10
512.4139778115821
 20
255.2645335763004
 30
0.0
 10
512.2648512172091
 20
261.5718037352021
 30
0.0
 10
510.3444457948492
 20
267.2854327052145
 30
0.0
 10
509.3842430836687
 20
270.1422471902208
 30
0.0
 10
507.9812206654926
 20
272.8506513780046
 30
0.0
 10
506.2146636332286
 20
275.293214772781
 30
0.0
  0
SPLINE
  5
85
330
1F
100
AcDbEntity
  8
VISIBLE
100
AcDbSpline
210
0.0
220
0.0
230
1.0
 70
     8
 71
     3
 72
    26
 73
    22
 74
     0
 42
0.000000001
 43
0.0000000505162517
 40
0.0
 40
0.0
 40
0.0
 40
0.0
 40
0.0061496796457194
 40
0.0061496796457194
 40
0.0061496796457194
 40
0.20005535844914
 40
0.20005535844914
 40
0.20005535844914
 40
0.367221477567173
 40
0.367221477567173
 40
0.367221477567173
 40
0.546310621207152
 40
0.546310621207152
 40
0.546310621207152
 40
0.753018316449342
 40
0.753018316449342
 40
0.753018316449342
 40
0.916830967719208
 40
0.916830967719208
 40
0.916830967719208
 40
1.0
 40
1.0
 40
1.0
 40
1.0
 10
506.2146636332167
 20
275.2932147727731
 30
0.0
 10
506.0459473254311
 20
275.5264935574219
 30
0.0
 10
505.8763530115351
 20
275.7595055908031
 30
0.0
 10
505.7058910669127
 20
275.992242643823
 30
0.0
 10
500.3310518904841
 20
283.3306795784931
 30
0.0
 10
494.1434006387638
 20
290.3405068298047
 30
0.0
 10
487.7258323594793
 20
296.5132212317595
 30
0.0
 10
482.1932456397764
 20
301.834719381614
 30
0.0
 10
476.5081372232549
 20
306.5225484465382
 30
0.0
 10
470.6391887789234
 20
310.5930054510113
 30
0.0
 10
464.3516410598751
 20
314.9537853925473
 30
0.0
 10
457.7949041740977
 20
318.6458248776362
 30
0.0
 10
450.7962443615515
 20
321.7952448727492
 30
0.0
 10
442.7182737474096
 20
325.4303582878209
 30
0.0
 10
434.0562466609073
 20
328.3298732341387
 30
0.0
 10
425.4036724285002
 20
330.3455821957043
 30
0.0
 10
418.5466411812636
 20
331.9430003701735
 30
0.0
 10
411.7473751610365
 20
332.9756089447714
 30
0.0
 10
405.0725507016327
 20
333.4295553885048
 30
0.0
 10
401.6836873468836
 20
333.6600277368861
 30
0.0
 10
398.3122893371972
 20
333.7430258328505
 30
0.0
 10
394.9357065153384
 20
333.6822214065481
 30
0.0
  0
SPLINE
  5
86
330
1F
100
AcDbEntity
  8
VISIBLE
100
AcDbSpline
210
0.0
220
0.0
230
1.0
 70
     8
 71
     3
 72
    17
 73
    13
 74
     0
 42
0.000000001
 43
0.0000000427942014
 40
-4.407693424896911
 40
-4.407693424896911
 40
-4.407693424896911
 40
-4.407693424896911
 40
-3.14835244635494
 40
-3.14835244635494
 40
-3.14835244635494
 40
-1.88901146781296
 40
-1.88901146781296
 40
-1.88901146781296
 40
-0.629670489270987
 40
-0.629670489270987
 40
-0.629670489270987
 40
0.0
 40
0.0
 40
0.0
 40
0.0
 10
394.9357065153432
 20
333.6822214065563
 30
0.0
 10
390.7503852229756
 20
333.6068534758693
 30
0.0
 10
386.5823044072742
 20
332.6423132369341
 30
0.0
 10
382.78950341261
 20
330.8725501857674
 30
0.0
 10
378.9967024179459
 20
329.1027871346004
 30
0.0
 10
375.579181244319
 20
326.5278012712008
 30
0.0
 10
372.8333574695155
 20
323.3693363611736
 30
0.0
 10
370.0875336947122
 20
320.2108714511473
 30
0.0
 10
368.0134073187127
 20
316.4689274944964
 30
0.0
 10
366.7878440758956
 20
312.4666954703259
 30
0.0
 10
366.175062454487
 20
310.4655794582408
 30
0.0
 10
365.7744216163691
 20
308.3993914292764
 30
0.0
 10
365.5911202275624
 20
306.3144335730619
 30
0.0
  0
LINE
  5
87
330
1F
100
AcDbEntity
  8
VISIBLE
100
AcDbLine
 10
365.5911202275703
 20
306.3144335730503
 30
0.0
 11
360.2068937823328
 21
245.0716612202831
 31
0.0
  0
ARC
  5
88
330
1F
100
AcDbEntity
  8
VISIBLE
100
AcDbCircle
 10
370.1684701646153
 20
244.1958781534381
 30
0.0000000000000007
 40
10.0
100
AcDbArc
 50
174.9756959355579
 51
238.5878959742301
  0
ARC
  5
89
330
1F
100
AcDbEntity
  8
VISIBLE
100
AcDbCircle
 10
346.7149229917807
 20
205.7910461005209
 30
0.0
 40
35.0
100
AcDbArc
 50
31.36349589675008
 51
58.58789597426402
  0
ARC
  5
8A
330
1F
100
AcDbEntity
  8
VISIBLE
100
AcDbCircle
 10
385.1396385519042
 20
229.2120032569837
 30
0.0000000000000007
 40
10.0
100
AcDbArc
 50
211.3634958967538
 51
274.975695935436
  0
LINE
  5
8B
330
1F
100
AcDbEntity
  8
VISIBLE
100
AcDbLine
 10
386.0069701831703
 20
219.2496874699018
 30
0.0
 11
484.5080183028273
 21
227.825311508947
 31
0.0
  0
SPLINE
  5
8C
330
1F
100
AcDbEntity
  8
VISIBLE
100
AcDbSpline
210
0.0
220
0.0
230
1.0
 70
     8
 71
     3
 72
    14
 73
    10
 74
     0
 42
0.000000001
 43
0.0000000280467486
 40
-1.98944128142742
 40
-1.98944128142742
 40
-1.98944128142742
 40
-1.98944128142742
 40
-1.42102948673387
 40
-1.42102948673387
 40
-1.42102948673387
 40
-0.852617692040322
 40
-0.852617692040322
 40
-0.852617692040322
 40
0.0
 40
0.0
 40
0.0
 40
0.0
 10
284.0363618995291
 20
222.6662046211986
 30
0.0
 10
284.3376638745628
 20
220.8003699755411
 30
0.0
 10
284.9964704553661
 20
218.9943391085869
 30
0.0
 10
285.9649578001714
 20
217.3714635223648
 30
0.0
 10
286.9334451449809
 20
215.7485879361624
 30
0.0
 10
288.2116132537965
 20
214.3088676307118
 30
0.0
 10
289.7109737407256
 20
213.1592940634613
 30
0.0
 10
291.9600144711196
 20
211.4349337125857
 30
0.0
 10
294.7067380522691
 20
210.3634035226605
 30
0.0
 10
297.530853576198
 20
210.1151182654099
 30
0.0
  0
LINE
  5
8D
330
1F
100
AcDbEntity
  8
VISIBLE
100
AcDbLine
 10
297.5308535762098
 20
210.1151182654177
 30
0.0
 11
303.0086839934247
 21
209.6335287118782
 31
0.0
  0
ARC
  5
8E
330
1F
100
AcDbEntity
  8
VISIBLE
100
AcDbCircle
 10
303.8844670602696
 20
219.5951050941607
 30
0.0000000000000001
 40
10.0
100
AcDbArc
 50
264.9756959355581
 51
342.1361075285526
  0
ARC
  5
8F
330
1F
100
AcDbEntity
  8
VISIBLE
100
AcDbCircle
 10
346.7149229917807
 20
205.7910461005209
 30
0.0
 40
35.0
100
AcDbArc
 50
111.3634958967501
 51
162.136107528603
  0
ARC
  5
90
330
1F
100
AcDbEntity
  8
VISIBLE
100
AcDbCircle
 10
330.3221646355128
 20
247.6990104208533
 30
-0.0000000000000001
 40
10.0
100
AcDbArc
 50
291.3634958967677
 51
354.975695935444
  0
LINE
  5
91
330
1F
100
AcDbEntity
  8
VISIBLE
100
AcDbLine
 10
340.2837410177914
 20
246.8232273539888
 30
0.0
 11
344.4581389166375
 21
294.3048299257067
 31
0.0
  0
SPLINE
  5
92
330
1F
100
AcDbEntity
  8
VISIBLE
100
AcDbSpline
210
0.0
220
0.0
230
1.0
 70
     8
 71
     3
 72
    20
 73
    16
 74
     0
 42
0.000000001
 43
0.0000000379532055
 40
-3.56900147070539
 40
-3.56900147070539
 40
-3.56900147070539
 40
-3.56900147070539
 40
-3.05914411774747
 40
-3.05914411774747
 40
-3.05914411774747
 40
-2.54928676478956
 40
-2.54928676478956
 40
-2.54928676478956
 40
-1.52957205887374
 40
-1.52957205887374
 40
-1.52957205887374
 40
-0.509857352957913
 40
-0.509857352957913
 40
-0.509857352957913
 40
0.0
 40
0.0
 40
0.0
 40
0.0
 10
344.4581389166297
 20
294.3048299257185
 30
0.0
 10
344.6065717747353
 20
295.993176400573
 30
0.0
 10
344.4621922782973
 20
297.7040164594167
 30
0.0
 10
344.0416464334822
 20
299.3462234939511
 30
0.0
 10
343.6211005886672
 20
300.9884305284854
 30
0.0
 10
342.9243883954749
 20
302.5620045387103
 30
0.0
 10
341.9807527707655
 20
303.9693153357766
 30
0.0
 10
340.0934815213466
 20
306.7839369299094
 30
0.0
 10
337.2185165458587
 20
308.9335056714083
 30
0.0
 10
333.9872120352592
 20
309.9426038562701
 30
0.0
 10
330.7559075246598
 20
310.9517020411321
 30
0.0
 10
327.1682634789489
 20
310.8203296693571
 30
0.0
 10
324.0147672851954
 20
309.5797803450221
 30
0.0
 10
322.4380191883185
 20
308.9595056828547
 30
0.0
 10
320.9698080544312
 20
308.0619367825473
 30
0.0
 10
319.6892711034376
 20
306.9516344590074
 30
0.0
  0
SPLINE
  5
93
330
1F
100
AcDbEntity
  8
VISIBLE
100
AcDbSpline
210
0.0
220
0.0
230
1.0
 70
     8
 71
     3
 72
    26
 73
    22
 74
     0
 42
0.000000001
 43
0.0000000362421662
 40
-8.96968362414535
 40
-8.96968362414535
 40
-8.96968362414535
 40
-8.96968362414535
 40
-8.705154555174099
 40
-8.705154555174099
 40
-8.705154555174099
 40
-7.25828154151069
 40
-7.25828154151069
 40
-7.25828154151069
 40
-6.09852576178689
 40
-6.09852576178689
 40
-6.09852576178689
 40
-4.77294997315
 40
-4.77294997315
 40
-4.77294997315
 40
-3.23067101300687
 40
-3.23067101300687
 40
-3.23067101300687
 40
-1.98058700893017
 40
-1.98058700893017
 40
-1.98058700893017
 40
-1.3269239589315
 40
-1.3269239589315
 40
-1.3269239589315
 40
-1.3269239589315
 10
319.6892711034376
 20
306.9516344590074
 30
0.0
 10
318.7556460467616
 20
306.1421255503121
 30
0.0
 10
317.8266054385973
 20
305.3114078182966
 30
0.0
 10
316.9010943735823
 20
304.4596982117208
 30
0.0
 10
311.8389021955177
 20
299.8011718349229
 30
0.0
 10
306.93704559946
 20
294.5546779961618
 30
0.0
 10
302.7981966609538
 20
289.2898279533931
 30
0.0
 10
299.4806601995591
 20
285.0697338547271
 30
0.0
 10
296.6814414678523
 20
280.8672633664908
 30
0.0
 10
294.3755302888105
 20
276.6720275913432
 30
0.0
 10
291.7399236523748
 20
271.8769637784399
 30
0.0
 10
289.6990444645762
 20
267.0291340092916
 30
0.0
 10
288.0467670723506
 20
261.9619659179779
 30
0.0
 10
286.1243778131366
 20
256.0664246733854
 30
0.0
 10
284.7313659871803
 20
249.8994625272176
 30
0.0
 10
283.928681881217
 20
243.9268024403393
 30
0.0
 10
283.2780715914299
 20
239.0857023350114
 30
0.0
 10
283.0316079187932
 20
234.435189045548
 30
0.0
 10
283.2666644058658
 20
229.8592621927816
 30
0.0
 10
283.389574338127
 20
227.4665315495644
 30
0.0
 10
283.6480208766067
 20
225.0710349739282
 30
0.0
 10
284.0363618995303
 20
222.666204621191
 30
0.0
  0
ARC
  5
94
330
1F
100
AcDbEntity
  8
VISIBLE
100
AcDbCircle
 10
361.139636501028
 20
337.5867965579108
 30
0.0
 40
0.7
100
AcDbArc
 50
74.68465071550533
 51
194.6846507174318
  0
LINE
  5
95
330
1F
100
AcDbEntity
  8
VISIBLE
100
AcDbLine
 10
360.4625015119555
 20
337.409347391762
 30
0.0
 11
360.9409315111448
 21
335.5836882504523
 31
0.0
  0
ARC
  5
96
330
1F
100
AcDbEntity
  8
VISIBLE
100
AcDbCircle
 10
399.4093757417169
 20
188.7904959747773
 30
-0.0000000000000056
 40
151.75
100
AcDbArc
 50
104.6846507163892
 51
114.2718209203676
  0
ARC
  5
97
330
1F
100
AcDbEntity
  8
VISIBLE
100
AcDbCircle
 10
337.7494660558474
 20
325.5313294428337
 30
0.0
 40
1.75
100
AcDbArc
 50
114.271820920277
 51
294.2718209204568
  0
ARC
  5
98
330
1F
100
AcDbEntity
  8
VISIBLE
100
AcDbCircle
 10
399.4093757417169
 20
188.7904959747773
 30
0.0
 40
148.25
100
AcDbArc
 50
104.6846507163892
 51
114.2718209203676
  0
LINE
  5
99
330
1F
100
AcDbEntity
  8
VISIBLE
100
AcDbLine
 10
361.8281773418332
 20
332.1980133050499
 30
0.0
 11
362.3066073410227
 21
330.3723541637414
 31
0.0
  0
ARC
  5
9A
330
1F
100
AcDbEntity
  8
VISIBLE
100
AcDbCircle
 10
362.9837423300953
 20
330.5498033298909
 30
0.0
 40
0.7
100
AcDbArc
 50
194.6846507174938
 51
314.6846507161599
  0
LINE
  5
9B
330
1F
100
AcDbEntity
  8
VISIBLE
100
AcDbLine
 10
363.475985310399
 20
330.0521118106129
 30
0.0
 11
368.64814729759
 21
335.1676509198628
 31
0.0
  0
ARC
  5
9C
330
1F
100
AcDbEntity
  8
VISIBLE
100
AcDbCircle
 10
368.1559043172861
 20
335.6653424391397
 30
0.0
 40
0.7
100
AcDbArc
 50
314.6846507162289
 51
74.68465071551553
  0
LINE
  5
9D
330
1F
100
AcDbEntity
  8
VISIBLE
100
AcDbLine
 10
368.3407963260786
 20
336.3404831245323
 30
0.0
 11
361.3245285098207
 21
338.2619372433031
 31
0.0
  0
LINE
  5
9E
330
1F
100
AcDbEntity
  8
VISIBLE
100
AcDbLine
 10
353.5406493379699
 20
317.2281592085101
 30
0.0
 11
357.0230091773087
 21
314.521035385205
 31
0.0
  0
LINE
  5
9F
330
1F
100
AcDbEntity
  8
VISIBLE
100
AcDbLine
 10
357.0230091773087
 20
314.521035385205
 30
0.0
 11
359.48810870265
 21
315.3929192449849
 31
0.0
  0
LINE
  5
A0
330
1F
100
AcDbEntity
  8
VISIBLE
100
AcDbLine
 10
359.48810870265
 20
315.3929192449849
 30
0.0
 11
354.1872255304663
 21
319.3757518174153
 31
0.0
  0
LINE
  5
A1
330
1F
100
AcDbEntity
  8
VISIBLE
100
AcDbLine
 10
354.1872255304663
 20
319.3757518174153
 30
0.0
 11
355.5970408677009
 21
325.4058075656013
 31
0.0
  0
LINE
  5
A2
330
1F
100
AcDbEntity
  8
VISIBLE
100
AcDbLine
 10
355.5970408677009
 20
325.4058075656013
 30
0.0
 11
353.2286119119808
 21
324.5681152297345
 31
0.0
  0
LINE
  5
A3
330
1F
100
AcDbEntity
  8
VISIBLE
100
AcDbLine
 10
353.2286119119808
 20
324.5681152297345
 30
0.0
 11
352.3902607485574
 21
320.6124725741267
 31
0.0
  0
LINE
  5
A4
330
1F
100
AcDbEntity
  8
VISIBLE
100
AcDbLine
 10
352.3902607485574
 20
320.6124725741267
 30
0.0
 11
349.2098782320129
 21
323.1467247356405
 31
0.0
  0
LINE
  5
A5
330
1F
100
AcDbEntity
  8
VISIBLE
100
AcDbLine
 10
349.2098782320129
 20
323.1467247356405
 30
0.0
 11
346.8207341542312
 21
322.3017056446495
 31
0.0
  0
LINE
  5
A6
330
1F
100
AcDbEntity
  8
VISIBLE
100
AcDbLine
 10
346.8207341542312
 20
322.3017056446495
 30
0.0
 11
351.6676410735876
 21
318.5700543983631
 31
0.0
  0
LINE
  5
A7
330
1F
100
AcDbEntity
  8
VISIBLE
100
AcDbLine
 10
351.6676410735876
 20
318.5700543983631
 30
0.0
 11
350.0765382459554
 21
312.064130166892
 31
0.0
  0
LINE
  5
A8
330
1F
100
AcDbEntity
  8
VISIBLE
100
AcDbLine
 10
350.0765382459554
 20
312.064130166892
 30
0.0
 11
352.5278276899219
 21
312.9311295232542
 31
0.0
  0
LINE
  5
A9
330
1F
100
AcDbEntity
  8
VISIBLE
100
AcDbLine
 10
352.5278276899219
 20
312.9311295232542
 30
0.0
 11
353.5406493379699
 21
317.2281592085101
 31
0.0
  0
LINE
  5
AA
330
1F
100
AcDbEntity
  8
VISIBLE
100
AcDbLine
 10
367.1156810299361
 20
320.0096283307444
 30
0.0
 11
362.0335710841347
 21
318.212131073608
 31
0.0
  0
LINE
  5
AB
330
1F
100
AcDbEntity
  8
VISIBLE
100
AcDbLine
 10
362.0335710841347
 20
318.212131073608
 30
0.0
 11
359.0857732724999
 21
326.5465151830952
 31
0.0
  0
LINE
  5
AC
330
1F
100
AcDbEntity
  8
VISIBLE
100
AcDbLine
 10
359.0857732724999
 20
326.5465151830952
 30
0.0
 11
357.0418812290798
 21
325.8236086775078
 31
0.0
  0
LINE
  5
AD
330
1F
100
AcDbEntity
  8
VISIBLE
100
AcDbLine
 10
357.0418812290798
 20
325.8236086775078
 30
0.0
 11
360.5929152126067
 21
315.7836795182748
 31
0.0
  0
LINE
  5
AE
330
1F
100
AcDbEntity
  8
VISIBLE
100
AcDbLine
 10
360.5929152126067
 20
315.7836795182748
 30
0.0
 11
367.7189172018283
 21
318.3040832809984
 31
0.0
  0
LINE
  5
AF
330
1F
100
AcDbEntity
  8
VISIBLE
100
AcDbLine
 10
367.7189172018283
 20
318.3040832809984
 30
0.0
 11
367.1156810299361
 21
320.0096283307444
 31
0.0
  0
SPLINE
  5
B0
330
1F
100
AcDbEntity
  8
VISIBLE
100
AcDbSpline
210
0.0
220
0.0
230
1.0
 70
     8
 71
     3
 72
    11
 73
     7
 74
     0
 42
0.000000001
 43
0.0000000379296229
 40
-0.297916670017078
 40
-0.297916670017078
 40
-0.297916670017078
 40
-0.297916670017078
 40
-0.146067675528103
 40
-0.146067675528103
 40
-0.146067675528103
 40
0.0
 40
0.0
 40
0.0
 40
0.0
 10
342.2037027890217
 20
309.0853569371558
 30
0.0
 10
342.6511815340788
 20
309.2841309651727
 30
0.0
 10
343.098660279136
 20
309.4829049931898
 30
0.0
 10
343.451612823411
 20
309.7908723372507
 30
0.0
 10
343.7911274700997
 20
310.087114497015
 30
0.0
 10
344.0431766540211
 20
310.4843936585827
 30
0.0
 10
344.2952258379424
 20
310.8816728201493
 30
0.0
  0
SPLINE
  5
B1
330
1F
100
AcDbEntity
  8
VISIBLE
100
AcDbSpline
210
0.0
220
0.0
230
1.0
 70
     8
 71
     3
 72
    11
 73
     7
 74
     0
 42
0.000000001
 43
0.0000000381666127
 40
-0.27737726986169
 40
-0.27737726986169
 40
-0.27737726986169
 40
-0.27737726986169
 40
-0.138104473996556
 40
-0.138104473996556
 40
-0.138104473996556
 40
0.0
 40
0.0
 40
0.0
 40
0.0
 10
344.2952258379424
 20
310.8816728201493
 30
0.0
 10
344.4630119181107
 20
311.3105950197129
 30
0.0
 10
344.630797998279
 20
311.7395172192768
 30
0.0
 10
344.6584855714804
 20
312.1774233015342
 30
0.0
 10
344.685940881108
 20
312.6116559079403
 30
0.0
 10
344.5756383219982
 20
313.0547223025127
 30
0.0
 10
344.4653357628884
 20
313.4977886970851
 30
0.0
  0
SPLINE
  5
B2
330
1F
100
AcDbEntity
  8
VISIBLE
100
AcDbSpline
210
0.0
220
0.0
230
1.0
 70
     8
 71
     3
 72
    11
 73
     7
 74
     0
 42
0.000000001
 43
0.0000000382677563
 40
-0.189430521594265
 40
-0.189430521594265
 40
-0.189430521594265
 40
-0.189430521594265
 40
-0.0921843132495055
 40
-0.0921843132495055
 40
-0.0921843132495055
 40
0.0
 40
0.0
 40
0.0
 40
0.0
 10
344.4653357628884
 20
313.4977886970851
 30
0.0
 10
344.3428109631182
 20
313.7827976644612
 30
0.0
 10
344.2202861633477
 20
314.0678066318362
 30
0.0
 10
344.033995596898
 20
314.3027374607972
 30
0.0
 10
343.8574018949392
 20
314.5254395845864
 30
0.0
 10
343.6235079741055
 20
314.7031412568574
 30
0.0
 10
343.3896140532717
 20
314.8808429291274
 30
0.0
  0
SPLINE
  5
B3
330
1F
100
AcDbEntity
  8
VISIBLE
100
AcDbSpline
210
0.0
220
0.0
230
1.0
 70
     8
 71
     3
 72
    11
 73
     7
 74
     0
 42
0.000000001
 43
0.0000000382379126
 40
-0.17827593841988
 40
-0.17827593841988
 40
-0.17827593841988
 40
-0.17827593841988
 40
-0.0907559957294145
 40
-0.0907559957294145
 40
-0.0907559957294145
 40
0.0
 40
0.0
 40
0.0
 40
0.0
 10
343.3896140532717
 20
314.8808429291274
 30
0.0
 10
343.1288662517655
 20
315.0109524063614
 30
0.0
 10
342.8681184502593
 20
315.1410618835952
 30
0.0
 10
342.5924433982617
 20
315.1990338904436
 30
0.0
 10
342.306575251269
 20
315.2591494143362
 30
0.0
 10
342.0046555746941
 20
315.2416942737221
 30
0.0
 10
341.7027358981189
 20
315.2242391331073
 30
0.0
  0
SPLINE
  5
B4
330
1F
100
AcDbEntity
  8
VISIBLE
100
AcDbSpline
210
0.0
220
0.0
230
1.0
 70
     8
 71
     3
 72
    11
 73
     7
 74
     0
 42
0.000000001
 43
0.0000000384065274
 40
-0.24073136644044
 40
-0.24073136644044
 40
-0.24073136644044
 40
-0.24073136644044
 40
-0.112214834947731
 40
-0.112214834947731
 40
-0.112214834947731
 40
0.0
 40
0.0
 40
0.0
 40
0.0
 10
341.7027358981189
 20
315.2242391331073
 30
0.0
 10
342.031543997438
 20
315.6444576545604
 30
0.0
 10
342.3603520967571
 20
316.0646761760123
 30
0.0
 10
342.4669757321384
 20
316.5394534383418
 30
0.0
 10
342.5600746782962
 20
316.954007515629
 30
0.0
 10
342.4837803176682
 20
317.4101571454025
 30
0.0
 10
342.4074859570404
 20
317.8663067751762
 30
0.0
  0
SPLINE
  5
B5
330
1F
100
AcDbEntity
  8
VISIBLE
100
AcDbSpline
210
0.0
220
0.0
230
1.0
 70
     8
 71
     3
 72
     9
 73
     5
 74
     0
 42
0.000000001
 43
0.000000038516699
 40
0.0
 40
0.0
 40
0.0
 40
0.0
 40
0.487055201630304
 40
1.0
 40
1.0
 40
1.0
 40
1.0
 10
342.407485957048
 20
317.8663067751643
 30
0.0
 10
342.2659560603879
 20
318.1627986318691
 30
0.0
 10
341.9753731938333
 20
318.7715424779727
 30
0.0
 10
341.3970204044385
 20
319.1205587140668
 30
0.0
 10
341.1003573494958
 20
319.2995847769182
 30
0.0
  0
SPLINE
  5
B6
330
1F
100
AcDbEntity
  8
VISIBLE
100
AcDbSpline
210
0.0
220
0.0
230
1.0
 70
     8
 71
     3
 72
    11
 73
     7
 74
     0
 42
0.000000001
 43
0.0000000384730524
 40
-0.275526826666344
 40
-0.275526826666344
 40
-0.275526826666344
 40
-0.275526826666344
 40
-0.142819702855741
 40
-0.142819702855741
 40
-0.142819702855741
 40
0.0
 40
0.0
 40
0.0
 40
0.0
 10
341.1003573494878
 20
319.2995847769299
 30
0.0
 10
340.6868776382779
 20
319.4523300976824
 30
0.0
 10
340.273397927068
 20
319.6050754184348
 30
0.0
 10
339.8538910103973
 20
319.6278361814419
 30
0.0
 10
339.4024167303101
 20
319.6523313653942
 30
0.0
 10
338.9439616730864
 20
319.5262769729803
 30
0.0
 10
338.4855066158627
 20
319.4002225805665
 30
0.0
  0
SPLINE
  5
B7
330
1F
100
AcDbEntity
  8
VISIBLE
100
AcDbSpline
210
0.0
220
0.0
230
1.0
 70
     8
 71
     3
 72
    11
 73
     7
 74
     0
 42
0.000000001
 43
0.0000000383071301
 40
-0.174163990076356
 40
-0.174163990076356
 40
-0.174163990076356
 40
-0.174163990076356
 40
-0.0844356790143244
 40
-0.0844356790143244
 40
-0.0844356790143244
 40
0.0
 40
0.0
 40
0.0
 40
0.0
 10
338.4855066158627
 20
319.4002225805665
 30
0.0
 10
338.2214417716165
 20
319.2939712352037
 30
0.0
 10
337.95737692737
 20
319.18771988984
 30
0.0
 10
337.7183444199245
 20
319.0405135148578
 30
0.0
 10
337.4934112652294
 20
318.9019901204052
 30
0.0
 10
337.2906444718245
 20
318.7272006757445
 30
0.0
 10
337.0878776784199
 20
318.5524112310848
 30
0.0
  0
SPLINE
  5
B8
330
1F
100
AcDbEntity
  8
VISIBLE
100
AcDbSpline
210
0.0
220
0.0
230
1.0
 70
     8
 71
     3
 72
     9
 73
     5
 74
     0
 42
0.000000001
 43
0.0000000381593442
 40
0.0
 40
0.0
 40
0.0
 40
0.0
 40
0.514487745631097
 40
1.0
 40
1.0
 40
1.0
 40
1.0
 10
337.0878776784274
 20
318.5524112310729
 30
0.0
 10
336.9172956637269
 20
318.3663861917547
 30
0.0
 10
336.5857386613511
 20
318.0048128775238
 30
0.0
 10
336.4227338102219
 20
317.5425117487648
 30
0.0
 10
336.3435929574771
 20
317.318058885544
 30
0.0
  0
SPLINE
  5
B9
330
1F
100
AcDbEntity
  8
VISIBLE
100
AcDbSpline
210
0.0
220
0.0
230
1.0
 70
     8
 71
     3
 72
    11
 73
     7
 74
     0
 42
0.000000001
 43
0.0000000380153246
 40
-0.169726061162404
 40
-0.169726061162404
 40
-0.169726061162404
 40
-0.169726061162404
 40
-0.0922675657144817
 40
-0.0922675657144817
 40
-0.0922675657144817
 40
0.0
 40
0.0
 40
0.0
 40
0.0
 10
336.3435929574692
 20
317.3180588855557
 30
0.0
 10
336.2981037079028
 20
317.0659207241092
 30
0.0
 10
336.2526144583367
 20
316.8137825626637
 30
0.0
 10
336.2415645221263
 20
316.560440994132
 30
0.0
 10
336.2284019799219
 20
316.2586637689548
 30
0.0
 10
336.2641063046729
 20
315.955178997133
 30
0.0
 10
336.2998106294236
 20
315.6516942253114
 30
0.0
  0
LINE
  5
BA
330
1F
100
AcDbEntity
  8
VISIBLE
100
AcDbLine
 10
336.2998106294315
 20
315.6516942252998
 30
0.0
 11
338.1956752425791
 21
315.9804156274507
 31
0.0
  0
SPLINE
  5
BB
330
1F
100
AcDbEntity
  8
VISIBLE
100
AcDbSpline
210
0.0
220
0.0
230
1.0
 70
     8
 71
     3
 72
    11
 73
     7
 74
     0
 42
0.000000001
 43
0.0000000381067709
 40
-0.132174608158142
 40
-0.132174608158142
 40
-0.132174608158142
 40
-0.132174608158142
 40
-0.0606862612744106
 40
-0.0606862612744106
 40
-0.0606862612744106
 40
0.0
 40
0.0
 40
0.0
 40
0.0
 10
338.1956752425713
 20
315.9804156274625
 30
0.0
 10
338.1555753843799
 20
316.1934960120302
 30
0.0
 10
338.1154755261887
 20
316.406576396599
 30
0.0
 10
338.1343108276716
 20
316.6151788514031
 30
0.0
 10
338.1503000633552
 20
316.7922609022062
 30
0.0
 10
338.2087595395788
 20
316.9661160379528
 30
0.0
 10
338.267219015802
 20
317.1399711736981
 30
0.0
  0
SPLINE
  5
BC
330
1F
100
AcDbEntity
  8
VISIBLE
100
AcDbSpline
210
0.0
220
0.0
230
1.0
 70
     8
 71
     3
 72
    11
 73
     7
 74
     0
 42
0.000000001
 43
0.0000000382008295
 40
-0.10171384744367
 40
-0.10171384744367
 40
-0.10171384744367
 40
-0.10171384744367
 40
-0.0509718520806197
 40
-0.0509718520806197
 40
-0.0509718520806197
 40
0.0
 40
0.0
 40
0.0
 40
0.0
 10
338.267219015802
 20
317.1399711736981
 30
0.0
 10
338.3552169675577
 20
317.2843907386114
 30
0.0
 10
338.4432149193137
 20
317.4288103035253
 30
0.0
 10
338.5640431154062
 20
317.5362868580481
 30
0.0
 10
338.6854186524605
 20
317.6442502717862
 30
0.0
 10
338.8399225436943
 20
317.7149352199689
 30
0.0
 10
338.994426434928
 20
317.7856201681518
 30
0.0
  0
SPLINE
  5
BD
330
1F
100
AcDbEntity
  8
VISIBLE
100
AcDbSpline
210
0.0
220
0.0
230
1.0
 70
     8
 71
     3
 72
     9
 73
     5
 74
     0
 42
0.000000001
 43
0.0000000382626839
 40
0.0
 40
0.0
 40
0.0
 40
0.0
 40
0.522364923420993
 40
1.0
 40
1.0
 40
1.0
 40
1.0
 10
338.994426434936
 20
317.7856201681402
 30
0.0
 10
339.1552135443408
 20
317.8309735770923
 30
0.0
 10
339.4630196434787
 20
317.9177968052963
 30
0.0
 10
339.7653646771741
 20
317.8161106854063
 30
0.0
 10
339.9097752704965
 20
317.7675418277453
 30
0.0
  0
SPLINE
  5
BE
330
1F
100
AcDbEntity
  8
VISIBLE
100
AcDbSpline
210
0.0
220
0.0
230
1.0
 70
     8
 71
     3
 72
    11
 73
     7
 74
     0
 42
0.000000001
 43
0.0000000382831845
 40
-0.0968731051983285
 40
-0.0968731051983285
 40
-0.0968731051983285
 40
-0.0968731051983285
 40
-0.0507865771772394
 40
-0.0507865771772394
 40
-0.0507865771772394
 40
0.0
 40
0.0
 40
0.0
 40
0.0
 10
339.9097752704888
 20
317.7675418277569
 30
0.0
 10
340.0385454897176
 20
317.6851704887713
 30
0.0
 10
340.1673157089466
 20
317.6027991497857
 30
0.0
 10
340.2634175761327
 20
317.4925265387305
 30
0.0
 10
340.3693202141551
 20
317.371007979787
 30
0.0
 10
340.4355514882169
 20
317.2156070408029
 30
0.0
 10
340.5017827622787
 20
317.0602061018192
 30
0.0
  0
SPLINE
  5
BF
330
1F
100
AcDbEntity
  8
VISIBLE
100
AcDbSpline
210
0.0
220
0.0
230
1.0
 70
     8
 71
     3
 72
    11
 73
     7
 74
     0
 42
0.000000001
 43
0.0000000382302222
 40
-0.12247658366583
 40
-0.12247658366583
 40
-0.12247658366583
 40
-0.12247658366583
 40
-0.0597065543266178
 40
-0.0597065543266178
 40
-0.0597065543266178
 40
0.0
 40
0.0
 40
0.0
 40
0.0
 10
340.5017827622787
 20
317.0602061018192
 30
0.0
 10
340.5530618805975
 20
316.8660161967056
 30
0.0
 10
340.6043409989164
 20
316.6718262915917
 30
0.0
 10
340.5896186295897
 20
316.4823897623357
 30
0.0
 10
340.5756147816822
 20
316.3021986337911
 30
0.0
 10
340.5018946080011
 20
316.1263082286288
 30
0.0
 10
340.4281744343199
 20
315.9504178234661
 30
0.0
  0
SPLINE
  5
C0
330
1F
100
AcDbEntity
  8
VISIBLE
100
AcDbSpline
210
0.0
220
0.0
230
1.0
 70
     8
 71
     3
 72
    11
 73
     7
 74
     0
 42
0.000000001
 43
0.000000038128369
 40
-0.139219886465061
 40
-0.139219886465061
 40
-0.139219886465061
 40
-0.139219886465061
 40
-0.0764363239935753
 40
-0.0764363239935753
 40
-0.0764363239935753
 40
0.0
 40
0.0
 40
0.0
 40
0.0
 10
340.4281744343199
 20
315.9504178234661
 30
0.0
 10
340.3005917353361
 20
315.7879312195179
 30
0.0
 10
340.1730090363521
 20
315.6254446155689
 30
0.0
 10
340.0149859160325
 20
315.5042051263787
 30
0.0
 10
339.8225994704765
 20
315.3566011913401
 30
0.0
 10
339.5850941423838
 20
315.2701338517929
 30
0.0
 10
339.347588814291
 20
315.1836665122448
 30
0.0
  0
LINE
  5
C1
330
1F
100
AcDbEntity
  8
VISIBLE
100
AcDbLine
 10
339.3475888142989
 20
315.1836665122328
 30
0.0
 11
339.6928081941419
 21
313.5267023919077
 31
0.0
  0
SPLINE
  5
C2
330
1F
100
AcDbEntity
  8
VISIBLE
100
AcDbSpline
210
0.0
220
0.0
230
1.0
 70
     8
 71
     3
 72
    11
 73
     7
 74
     0
 42
0.000000001
 43
0.0000000379716625
 40
-0.106641414926522
 40
-0.106641414926522
 40
-0.106641414926522
 40
-0.106641414926522
 40
-0.0484261692582597
 40
-0.0484261692582597
 40
-0.0484261692582597
 40
0.0
 40
0.0
 40
0.0
 40
0.0
 10
339.692808194134
 20
313.5267023919196
 30
0.0
 10
339.8375033073303
 20
313.6253378008491
 30
0.0
 10
339.9821984205269
 20
313.7239732097797
 30
0.0
 10
340.1359693176663
 20
313.8058038393812
 30
0.0
 10
340.2638831554657
 20
313.873874391589
 30
0.0
 10
340.3980771561913
 20
313.9303165541399
 30
0.0
 10
340.5322711569173
 20
313.9867587166917
 30
0.0
  0
SPLINE
  5
C3
330
1F
100
AcDbEntity
  8
VISIBLE
100
AcDbSpline
210
0.0
220
0.0
230
1.0
 70
     8
 71
     3
 72
    11
 73
     7
 74
     0
 42
0.000000001
 43
0.0000000380418596
 40
-0.117396502271295
 40
-0.117396502271295
 40
-0.117396502271295
 40
-0.117396502271295
 40
-0.0591442745738317
 40
-0.0591442745738317
 40
-0.0591442745738317
 40
0.0
 40
0.0
 40
0.0
 40
0.0
 10
340.5322711569173
 20
313.9867587166917
 30
0.0
 10
340.7208050370307
 20
314.0327688682157
 30
0.0
 10
340.9093389171443
 20
314.0787790197405
 30
0.0
 10
341.09318289045
 20
314.0647311529257
 30
0.0
 10
341.2798421628201
 20
314.0504681637681
 30
0.0
 10
341.4616667905811
 20
313.974293672636
 30
0.0
 10
341.6434914183424
 20
313.8981191815047
 30
0.0
  0
SPLINE
  5
C4
330
1F
100
AcDbEntity
  8
VISIBLE
100
AcDbSpline
210
0.0
220
0.0
230
1.0
 70
     8
 71
     3
 72
    11
 73
     7
 74
     0
 42
0.000000001
 43
0.0000000380723786
 40
-0.135956861098637
 40
-0.135956861098637
 40
-0.135956861098637
 40
-0.135956861098637
 40
-0.0722929810035229
 40
-0.0722929810035229
 40
-0.0722929810035229
 40
0.0
 40
0.0
 40
0.0
 40
0.0
 10
341.6434914183424
 20
313.8981191815047
 30
0.0
 10
341.815559669715
 20
313.7763999564214
 30
0.0
 10
341.9876279210877
 20
313.6546807313388
 30
0.0
 10
342.11696628241
 20
313.4984574718559
 30
0.0
 10
342.2638353655406
 20
313.3210594698302
 30
0.0
 10
342.3556061950052
 20
313.0991700816205
 30
0.0
 10
342.4473770244695
 20
312.8772806934098
 30
0.0
  0
SPLINE
  5
C5
330
1F
100
AcDbEntity
  8
VISIBLE
100
AcDbSpline
210
0.0
220
0.0
230
1.0
 70
     8
 71
     3
 72
    11
 73
     7
 74
     0
 42
0.000000001
 43
0.000000037996448
 40
-0.155408817321501
 40
-0.155408817321501
 40
-0.155408817321501
 40
-0.155408817321501
 40
-0.0727558265032195
 40
-0.0727558265032195
 40
-0.0727558265032195
 40
0.0
 40
0.0
 40
0.0
 40
0.0
 10
342.4473770244695
 20
312.8772806934098
 30
0.0
 10
342.5195762489299
 20
312.6339820314973
 30
0.0
 10
342.5917754733906
 20
312.3906833695859
 30
0.0
 10
342.5901108409075
 20
312.146995610186
 30
0.0
 10
342.5886455374632
 20
311.9324878934252
 30
0.0
 10
342.5299467225389
 20
311.7176786839383
 30
0.0
 10
342.4712479076148
 20
311.5028694744527
 30
0.0
  0
SPLINE
  5
C6
330
1F
100
AcDbEntity
  8
VISIBLE
100
AcDbSpline
210
0.0
220
0.0
230
1.0
 70
     8
 71
     3
 72
    11
 73
     7
 74
     0
 42
0.000000001
 43
0.0000000378764962
 40
-0.125486343888914
 40
-0.125486343888914
 40
-0.125486343888914
 40
-0.125486343888914
 40
-0.0623642744136003
 40
-0.0623642744136003
 40
-0.0623642744136003
 40
0.0
 40
0.0
 40
0.0
 40
0.0
 10
342.4712479076148
 20
311.5028694744527
 30
0.0
 10
342.3740101568983
 20
311.3189286743798
 30
0.0
 10
342.2767724061818
 20
311.1349878743069
 30
0.0
 10
342.1338172915492
 20
310.998965503312
 30
0.0
 10
341.9925783861729
 20
310.8645761123807
 30
0.0
 10
341.8067132229203
 20
310.7769615131218
 30
0.0
 10
341.620848059668
 20
310.6893469138637
 30
0.0
  0
SPLINE
  5
C7
330
1F
100
AcDbEntity
  8
VISIBLE
100
AcDbSpline
210
0.0
220
0.0
230
1.0
 70
     8
 71
     3
 72
    11
 73
     7
 74
     0
 42
0.000000001
 43
0.0000000377647378
 40
-0.115037358197285
 40
-0.115037358197285
 40
-0.115037358197285
 40
-0.115037358197285
 40
-0.0571593180992483
 40
-0.0571593180992483
 40
-0.0571593180992483
 40
0.0
 40
0.0
 40
0.0
 40
0.0
 10
341.620848059668
 20
310.6893469138637
 30
0.0
 10
341.4362768972333
 20
310.641420204748
 30
0.0
 10
341.2517057347985
 20
310.5934934956322
 30
0.0
 10
341.0693890471399
 20
310.6011223452088
 30
0.0
 10
340.8893363444733
 20
310.6086564607198
 30
0.0
 10
340.71148247268
 20
310.6703749383344
 30
0.0
 10
340.5336286008865
 20
310.7320934159482
 30
0.0
  0
SPLINE
  5
C8
330
1F
100
AcDbEntity
  8
VISIBLE
100
AcDbSpline
210
0.0
220
0.0
230
1.0
 70
     8
 71
     3
 72
    11
 73
     7
 74
     0
 42
0.000000001
 43
0.0000000377794873
 40
-0.132350797757059
 40
-0.132350797757059
 40
-0.132350797757059
 40
-0.132350797757059
 40
-0.0711896269329404
 40
-0.0711896269329404
 40
-0.0711896269329404
 40
0.0
 40
0.0
 40
0.0
 40
0.0
 10
340.5336286008865
 20
310.7320934159482
 30
0.0
 10
340.3616834223133
 20
310.8385034915311
 30
0.0
 10
340.1897382437398
 20
310.9449135671131
 30
0.0
 10
340.0517553019066
 20
311.084113823594
 30
0.0
 10
339.8911476153652
 20
311.2461384250572
 30
0.0
 10
339.7765526732816
 20
311.4525878453551
 30
0.0
 10
339.661957731198
 20
311.6590372656532
 30
0.0
  0
LINE
  5
C9
330
1F
100
AcDbEntity
  8
VISIBLE
100
AcDbLine
 10
339.6619577312059
 20
311.6590372656414
 30
0.0
 11
337.8643809706456
 21
310.7668784583699
 31
0.0
  0
SPLINE
  5
CA
330
1F
100
AcDbEntity
  8
VISIBLE
100
AcDbSpline
210
0.0
220
0.0
230
1.0
 70
     8
 71
     3
 72
     9
 73
     5
 74
     0
 42
0.000000001
 43
0.0000000376556927
 40
0.0
 40
0.0
 40
0.0
 40
0.0
 40
0.5093880397774619
 40
1.0
 40
1.0
 40
1.0
 40
1.0
 10
337.8643809706459
 20
310.7668784583698
 30
0.0
 10
338.083965763744
 20
310.3911925375485
 30
0.0
 10
338.5150414387721
 20
309.6536685058013
 30
0.0
 10
339.2733609297342
 20
309.2621330229219
 30
0.0
 10
339.6454015416701
 20
309.0700410321697
 30
0.0
  0
SPLINE
  5
CB
330
1F
100
AcDbEntity
  8
VISIBLE
100
AcDbSpline
210
0.0
220
0.0
230
1.0
 70
     8
 71
     3
 72
    11
 73
     7
 74
     0
 42
0.000000001
 43
0.0000000376626329
 40
-0.266281978642782
 40
-0.266281978642782
 40
-0.266281978642782
 40
-0.266281978642782
 40
-0.138059646229044
 40
-0.138059646229044
 40
-0.138059646229044
 40
0.0
 40
0.0
 40
0.0
 40
0.0
 10
339.6454015416622
 20
309.0700410321817
 30
0.0
 10
340.0559255713114
 20
308.9558903072781
 30
0.0
 10
340.4664496009607
 20
308.8417395823748
 30
0.0
 10
340.8770759288024
 20
308.8385239159593
 30
0.0
 10
341.3192058174649
 20
308.8350615411971
 30
0.0
 10
341.7614543032433
 20
308.9602092391764
 30
0.0
 10
342.2037027890217
 20
309.0853569371558
 30
0.0
  0
ARC
  5
CC
330
1F
100
AcDbEntity
  8
VISIBLE
100
AcDbCircle
 10
346.7149229917761
 20
205.7910461005227
 30
-0.0000000000000005
 40
8.0
100
AcDbArc
 50
52.02725467328954
 51
114.5241371977144
  0
LINE
  5
CD
330
1F
100
AcDbEntity
  8
VISIBLE
100
AcDbLine
 10
336.5107009554214
 20
154.6857006467104
 30
0.0
 11
343.3943106039196
 21
213.0693380271779
 31
0.0
  0
ARC
  5
CE
330
1F
100
AcDbEntity
  8
VISIBLE
100
AcDbCircle
 10
333.8213600027327
 20
246.0421811730307
 30
0.0
 40
91.3960562
100
AcDbArc
 50
271.458985646328
 51
271.686179220453
  0
ARC
  5
CF
330
1F
100
AcDbEntity
  8
VISIBLE
100
AcDbCircle
 10
338.7326716694928
 20
140.2831139409159
 30
0.0
 40
14.47698703619154
100
AcDbArc
 50
31.60259269100132
 51
65.55324645177608
  0
LINE
  5
D0
330
1F
100
AcDbEntity
  8
VISIBLE
100
AcDbLine
 10
344.7239353043099
 20
153.4621849895208
 30
0.0
 11
351.6372154857531
 21
212.0974742975086
 31
0.0
  0
SPLINE
  5
D1
330
1F
100
AcDbEntity
  8
VISIBLE
100
AcDbSpline
210
0.0
220
0.0
230
1.0
 70
     8
 71
     3
 72
  1061
 73
  1057
 74
     0
 42
0.000000001
 43
0.0000000542404689
 40
-38.479491826652
 40
-38.479491826652
 40
-38.479491826652
 40
-38.479491826652
 40
-38.3207954037433
 40
-38.3207954037433
 40
-38.3207954037433
 40
-38.1711047966975
 40
-38.1711047966975
 40
-38.1711047966975
 40
-38.0437567009362
 40
-38.0437567009362
 40
-38.0437567009362
 40
-37.9268147268127
 40
-37.9268147268127
 40
-37.9268147268127
 40
-37.8169374173884
 40
-37.8169374173884
 40
-37.8169374173884
 40
-37.7145869483449
 40
-37.7145869483449
 40
-37.7145869483449
 40
-37.6178684794821
 40
-37.6178684794821
 40
-37.6178684794821
 40
-37.5249504936321
 40
-37.5249504936321
 40
-37.5249504936321
 40
-37.4300578581429
 40
-37.4300578581429
 40
-37.4300578581429
 40
-37.3290560245703
 40
-37.3290560245703
 40
-37.3290560245703
 40
-37.2185567137423
 40
-37.2185567137423
 40
-37.2185567137423
 40
-37.0789375159962
 40
-37.0789375159962
 40
-37.0789375159962
 40
-36.9340979163243
 40
-36.9340979163243
 40
-36.9340979163243
 40
-36.8303874594561
 40
-36.8303874594561
 40
-36.8303874594561
 40
-36.7376159020764
 40
-36.7376159020764
 40
-36.7376159020764
 40
-36.6511524406747
 40
-36.6511524406747
 40
-36.6511524406747
 40
-36.5688727145122
 40
-36.5688727145122
 40
-36.5688727145122
 40
-36.4882362405795
 40
-36.4882362405795
 40
-36.4882362405795
 40
-36.4082170258244
 40
-36.4082170258244
 40
-36.4082170258244
 40
-36.3287844949017
 40
-36.3287844949017
 40
-36.3287844949017
 40
-36.2496109810022
 40
-36.2496109810022
 40
-36.2496109810022
 40
-36.1672362864992
 40
-36.1672362864992
 40
-36.1672362864992
 40
-36.0774727796935
 40
-36.0774727796935
 40
-36.0774727796935
 40
-35.9734762545238
 40
-35.9734762545238
 40
-35.9734762545238
 40
-35.8329548629045
 40
-35.8329548629045
 40
-35.8329548629045
 40
-35.7245602909219
 40
-35.7245602909219
 40
-35.7245602909219
 40
-35.631056603089
 40
-35.631056603089
 40
-35.631056603089
 40
-35.5456615542553
 40
-35.5456615542553
 40
-35.5456615542553
 40
-35.4661396877624
 40
-35.4661396877624
 40
-35.4661396877624
 40
-35.3906718038187
 40
-35.3906718038187
 40
-35.3906718038187
 40
-35.3182247684298
 40
-35.3182247684298
 40
-35.3182247684298
 40
-35.2465869568615
 40
-35.2465869568615
 40
-35.2465869568615
 40
-35.1730713074697
 40
-35.1730713074697
 40
-35.1730713074697
 40
-35.0969907978692
 40
-35.0969907978692
 40
-35.0969907978692
 40
-35.0177090234921
 40
-35.0177090234921
 40
-35.0177090234921
 40
-34.9340828550351
 40
-34.9340828550351
 40
-34.9340828550351
 40
-34.8433584769534
 40
-34.8433584769534
 40
-34.8433584769534
 40
-34.7393534966171
 40
-34.7393534966171
 40
-34.7393534966171
 40
-34.603652897021
 40
-34.603652897021
 40
-34.603652897021
 40
-34.501137732339
 40
-34.501137732339
 40
-34.501137732339
 40
-34.4126307074908
 40
-34.4126307074908
 40
-34.4126307074908
 40
-34.3310632030757
 40
-34.3310632030757
 40
-34.3310632030757
 40
-34.2535305781242
 40
-34.2535305781242
 40
-34.2535305781242
 40
-34.1787333267618
 40
-34.1787333267618
 40
-34.1787333267618
 40
-34.1061709571733
 40
-34.1061709571733
 40
-34.1061709571733
 40
-34.0354756625454
 40
-34.0354756625454
 40
-34.0354756625454
 40
-33.964989880821
 40
-33.964989880821
 40
-33.964989880821
 40
-33.892125269281
 40
-33.892125269281
 40
-33.892125269281
 40
-33.8159254850911
 40
-33.8159254850911
 40
-33.8159254850911
 40
-33.7352279725013
 40
-33.7352279725013
 40
-33.7352279725013
 40
-33.6481786521344
 40
-33.6481786521344
 40
-33.6481786521344
 40
-33.5528380637302
 40
-33.5528380637302
 40
-33.5528380637302
 40
-33.4410951681452
 40
-33.4410951681452
 40
-33.4410951681452
 40
-33.31046589014461
 40
-33.31046589014461
 40
-33.31046589014461
 40
-33.2104932420696
 40
-33.2104932420696
 40
-33.2104932420696
 40
-33.1243149496955
 40
-33.1243149496955
 40
-33.1243149496955
 40
-33.0447963782106
 40
-33.0447963782106
 40
-33.0447963782106
 40
-32.9677518333947
 40
-32.9677518333947
 40
-32.9677518333947
 40
-32.8914622082563
 40
-32.8914622082563
 40
-32.8914622082563
 40
-32.81587495632539
 40
-32.81587495632539
 40
-32.81587495632539
 40
-32.74093474184509
 40
-32.74093474184509
 40
-32.74093474184509
 40
-32.6652829907038
 40
-32.6652829907038
 40
-32.6652829907038
 40
-32.58685978134159
 40
-32.58685978134159
 40
-32.58685978134159
 40
-32.50479915828
 40
-32.50479915828
 40
-32.50479915828
 40
-32.4178164563762
 40
-32.4178164563762
 40
-32.4178164563762
 40
-32.3247729479104
 40
-32.3247729479104
 40
-32.3247729479104
 40
-32.2250564996493
 40
-32.2250564996493
 40
-32.2250564996493
 40
-32.1146151157587
 40
-32.1146151157587
 40
-32.1146151157587
 40
-31.9697787670196
 40
-31.9697787670196
 40
-31.9697787670196
 40
-31.8448968187109
 40
-31.8448968187109
 40
-31.8448968187109
 40
-31.7471926640754
 40
-31.7471926640754
 40
-31.7471926640754
 40
-31.6555419028786
 40
-31.6555419028786
 40
-31.6555419028786
 40
-31.5669178503009
 40
-31.5669178503009
 40
-31.5669178503009
 40
-31.4808026105213
 40
-31.4808026105213
 40
-31.4808026105213
 40
-31.396052050842
 40
-31.396052050842
 40
-31.396052050842
 40
-31.3091371861342
 40
-31.3091371861342
 40
-31.3091371861342
 40
-31.2190212412914
 40
-31.2190212412914
 40
-31.2190212412914
 40
-31.1248522612576
 40
-31.1248522612576
 40
-31.1248522612576
 40
-31.0262425705411
 40
-31.0262425705411
 40
-31.0262425705411
 40
-30.9232846153634
 40
-30.9232846153634
 40
-30.9232846153634
 40
-30.8145540449994
 40
-30.8145540449994
 40
-30.8145540449994
 40
-30.6962679799413
 40
-30.6962679799413
 40
-30.6962679799413
 40
-30.549987370529
 40
-30.549987370529
 40
-30.549987370529
 40
-30.3932048927586
 40
-30.3932048927586
 40
-30.3932048927586
 40
-30.2714071675684
 40
-30.2714071675684
 40
-30.2714071675684
 40
-30.15315948332
 40
-30.15315948332
 40
-30.15315948332
 40
-30.0425637358214
 40
-30.0425637358214
 40
-30.0425637358214
 40
-29.9252099712284
 40
-29.9252099712284
 40
-29.9252099712284
 40
-29.8072155566194
 40
-29.8072155566194
 40
-29.8072155566194
 40
-29.6866056208412
 40
-29.6866056208412
 40
-29.6866056208412
 40
-29.5638704278317
 40
-29.5638704278317
 40
-29.5638704278317
 40
-29.4395351360444
 40
-29.4395351360444
 40
-29.4395351360444
 40
-29.3142119495104
 40
-29.3142119495104
 40
-29.3142119495104
 40
-29.1892212683013
 40
-29.1892212683013
 40
-29.1892212683013
 40
-29.0671035022721
 40
-29.0671035022721
 40
-29.0671035022721
 40
-28.9489148383385
 40
-28.9489148383385
 40
-28.9489148383385
 40
-28.8319663918048
 40
-28.8319663918048
 40
-28.8319663918048
 40
-28.7105458222501
 40
-28.7105458222501
 40
-28.7105458222501
 40
-28.5822265976375
 40
-28.5822265976375
 40
-28.5822265976375
 40
-28.4395993325439
 40
-28.4395993325439
 40
-28.4395993325439
 40
-28.2741503227463
 40
-28.2741503227463
 40
-28.2741503227463
 40
-28.1345440838753
 40
-28.1345440838753
 40
-28.1345440838753
 40
-28.0101892631307
 40
-28.0101892631307
 40
-28.0101892631307
 40
-27.8948602076748
 40
-27.8948602076748
 40
-27.8948602076748
 40
-27.7858959099886
 40
-27.7858959099886
 40
-27.7858959099886
 40
-27.6773572540902
 40
-27.6773572540902
 40
-27.6773572540902
 40
-27.5758402690915
 40
-27.5758402690915
 40
-27.5758402690915
 40
-27.4773366442176
 40
-27.4773366442176
 40
-27.4773366442176
 40
-27.3810514226632
 40
-27.3810514226632
 40
-27.3810514226632
 40
-27.2867155866061
 40
-27.2867155866061
 40
-27.2867155866061
 40
-27.1927386115735
 40
-27.1927386115735
 40
-27.1927386115735
 40
-27.0949500341931
 40
-27.0949500341931
 40
-27.0949500341931
 40
-26.9885972293474
 40
-26.9885972293474
 40
-26.9885972293474
 40
-26.8737299017082
 40
-26.8737299017082
 40
-26.8737299017082
 40
-26.7450926847665
 40
-26.7450926847665
 40
-26.7450926847665
 40
-26.5923278318635
 40
-26.5923278318635
 40
-26.5923278318635
 40
-26.4420282450192
 40
-26.4420282450192
 40
-26.4420282450192
 40
-26.3211449375745
 40
-26.3211449375745
 40
-26.3211449375745
 40
-26.2118208241389
 40
-26.2118208241389
 40
-26.2118208241389
 40
-26.1094308990446
 40
-26.1094308990446
 40
-26.1094308990446
 40
-26.0074409345952
 40
-26.0074409345952
 40
-26.0074409345952
 40
-25.912077787463
 40
-25.912077787463
 40
-25.912077787463
 40
-25.8196649073346
 40
-25.8196649073346
 40
-25.8196649073346
 40
-25.7297114730388
 40
-25.7297114730388
 40
-25.7297114730388
 40
-25.6418068011273
 40
-25.6418068011273
 40
-25.6418068011273
 40
-25.5526667501325
 40
-25.5526667501325
 40
-25.5526667501325
 40
-25.4604046993201
 40
-25.4604046993201
 40
-25.4604046993201
 40
-25.3609499934634
 40
-25.3609499934634
 40
-25.3609499934634
 40
-25.25672896807
 40
-25.25672896807
 40
-25.25672896807
 40
-25.1448248770091
 40
-25.1448248770091
 40
-25.1448248770091
 40
-25.0204884799464
 40
-25.0204884799464
 40
-25.0204884799464
 40
-24.8718944618446
 40
-24.8718944618446
 40
-24.8718944618446
 40
-24.7304837742822
 40
-24.7304837742822
 40
-24.7304837742822
 40
-24.6126606308055
 40
-24.6126606308055
 40
-24.6126606308055
 40
-24.5057964897532
 40
-24.5057964897532
 40
-24.5057964897532
 40
-24.4056553885383
 40
-24.4056553885383
 40
-24.4056553885383
 40
-24.3100093649213
 40
-24.3100093649213
 40
-24.3100093649213
 40
-24.2150483908396
 40
-24.2150483908396
 40
-24.2150483908396
 40
-24.1204583580629
 40
-24.1204583580629
 40
-24.1204583580629
 40
-24.0321204744361
 40
-24.0321204744361
 40
-24.0321204744361
 40
-23.9382450038328
 40
-23.9382450038328
 40
-23.9382450038328
 40
-23.8447362342866
 40
-23.8447362342866
 40
-23.8447362342866
 40
-23.7483336885681
 40
-23.7483336885681
 40
-23.7483336885681
 40
-23.6484179709767
 40
-23.6484179709767
 40
-23.6484179709767
 40
-23.5443393992689
 40
-23.5443393992689
 40
-23.5443393992689
 40
-23.4348029258741
 40
-23.4348029258741
 40
-23.4348029258741
 40
-23.3170030085822
 40
-23.3170030085822
 40
-23.3170030085822
 40
-23.1845225699243
 40
-23.1845225699243
 40
-23.1845225699243
 40
-23.0164670164596
 40
-23.0164670164596
 40
-23.0164670164596
 40
-22.8625352811544
 40
-22.8625352811544
 40
-22.8625352811544
 40
-22.736642146362
 40
-22.736642146362
 40
-22.736642146362
 40
-22.624384216532
 40
-22.624384216532
 40
-22.624384216532
 40
-22.5201160966563
 40
-22.5201160966563
 40
-22.5201160966563
 40
-22.4202610737635
 40
-22.4202610737635
 40
-22.4202610737635
 40
-22.3214054474558
 40
-22.3214054474558
 40
-22.3214054474558
 40
-22.2231034364839
 40
-22.2231034364839
 40
-22.2231034364839
 40
-22.1248961802677
 40
-22.1248961802677
 40
-22.1248961802677
 40
-22.0241091534067
 40
-22.0241091534067
 40
-22.0241091534067
 40
-21.9190887886807
 40
-21.9190887886807
 40
-21.9190887886807
 40
-21.8086459377122
 40
-21.8086459377122
 40
-21.8086459377122
 40
-21.6924903644862
 40
-21.6924903644862
 40
-21.6924903644862
 40
-21.5696449497321
 40
-21.5696449497321
 40
-21.5696449497321
 40
-21.4370916868274
 40
-21.4370916868274
 40
-21.4370916868274
 40
-21.2871911099272
 40
-21.2871911099272
 40
-21.2871911099272
 40
-21.1293946659457
 40
-21.1293946659457
 40
-21.1293946659457
 40
-20.9912878736903
 40
-20.9912878736903
 40
-20.9912878736903
 40
-20.8659026527931
 40
-20.8659026527931
 40
-20.8659026527931
 40
-20.7495316592977
 40
-20.7495316592977
 40
-20.7495316592977
 40
-20.640012605971
 40
-20.640012605971
 40
-20.640012605971
 40
-20.5353093688027
 40
-20.5353093688027
 40
-20.5353093688027
 40
-20.430835430534
 40
-20.430835430534
 40
-20.430835430534
 40
-20.3240007949045
 40
-20.3240007949045
 40
-20.3240007949045
 40
-20.2144225835375
 40
-20.2144225835375
 40
-20.2144225835375
 40
-20.1006186999208
 40
-20.1006186999208
 40
-20.1006186999208
 40
-19.9804369405937
 40
-19.9804369405937
 40
-19.9804369405937
 40
-19.8510797782248
 40
-19.8510797782248
 40
-19.8510797782248
 40
-19.7079499234849
 40
-19.7079499234849
 40
-19.7079499234849
 40
-19.5303354571771
 40
-19.5303354571771
 40
-19.5303354571771
 40
-19.3705607261945
 40
-19.3705607261945
 40
-19.3705607261945
 40
-19.2192282205211
 40
-19.2192282205211
 40
-19.2192282205211
 40
-19.0909654933945
 40
-19.0909654933945
 40
-19.0909654933945
 40
-18.9712967600974
 40
-18.9712967600974
 40
-18.9712967600974
 40
-18.857661253855
 40
-18.857661253855
 40
-18.857661253855
 40
-18.7487507679576
 40
-18.7487507679576
 40
-18.7487507679576
 40
-18.6435863603729
 40
-18.6435863603729
 40
-18.6435863603729
 40
-18.5397212007655
 40
-18.5397212007655
 40
-18.5397212007655
 40
-18.4328083680759
 40
-18.4328083680759
 40
-18.4328083680759
 40
-18.3219318633697
 40
-18.3219318633697
 40
-18.3219318633697
 40
-18.2059894623652
 40
-18.2059894623652
 40
-18.2059894623652
 40
-18.0830654868744
 40
-18.0830654868744
 40
-18.0830654868744
 40
-17.9498955190534
 40
-17.9498955190534
 40
-17.9498955190534
 40
-17.7979971250786
 40
-17.7979971250786
 40
-17.7979971250786
 40
-17.6309340668092
 40
-17.6309340668092
 40
-17.6309340668092
 40
-17.4903336460008
 40
-17.4903336460008
 40
-17.4903336460008
 40
-17.3536904143915
 40
-17.3536904143915
 40
-17.3536904143915
 40
-17.2318856335987
 40
-17.2318856335987
 40
-17.2318856335987
 40
-17.1171944292923
 40
-17.1171944292923
 40
-17.1171944292923
 40
-17.0076880387796
 40
-17.0076880387796
 40
-17.0076880387796
 40
-16.9020338123701
 40
-16.9020338123701
 40
-16.9020338123701
 40
-16.79938293086
 40
-16.79938293086
 40
-16.79938293086
 40
-16.6992855369462
 40
-16.6992855369462
 40
-16.6992855369462
 40
-16.5994385240294
 40
-16.5994385240294
 40
-16.5994385240294
 40
-16.4967684625579
 40
-16.4967684625579
 40
-16.4967684625579
 40
-16.3906722273677
 40
-16.3906722273677
 40
-16.3906722273677
 40
-16.2804485591876
 40
-16.2804485591876
 40
-16.2804485591876
 40
-16.16526566262
 40
-16.16526566262
 40
-16.16526566262
 40
-16.0389336463018
 40
-16.0389336463018
 40
-16.0389336463018
 40
-15.9002839851145
 40
-15.9002839851145
 40
-15.9002839851145
 40
-15.7475171878183
 40
-15.7475171878183
 40
-15.7475171878183
 40
-15.571365558997
 40
-15.571365558997
 40
-15.571365558997
 40
-15.4294767710231
 40
-15.4294767710231
 40
-15.4294767710231
 40
-15.302047592834
 40
-15.302047592834
 40
-15.302047592834
 40
-15.1825003460149
 40
-15.1825003460149
 40
-15.1825003460149
 40
-15.0638870620617
 40
-15.0638870620617
 40
-15.0638870620617
 40
-14.9537767402646
 40
-14.9537767402646
 40
-14.9537767402646
 40
-14.8485300059701
 40
-14.8485300059701
 40
-14.8485300059701
 40
-14.7470592479885
 40
-14.7470592479885
 40
-14.7470592479885
 40
-14.6460480229404
 40
-14.6460480229404
 40
-14.6460480229404
 40
-14.5435791158459
 40
-14.5435791158459
 40
-14.5435791158459
 40
-14.4395378639855
 40
-14.4395378639855
 40
-14.4395378639855
 40
-14.3329485127858
 40
-14.3329485127858
 40
-14.3329485127858
 40
-14.2196978149721
 40
-14.2196978149721
 40
-14.2196978149721
 40
-14.1008912929826
 40
-14.1008912929826
 40
-14.1008912929826
 40
-13.9761241368417
 40
-13.9761241368417
 40
-13.9761241368417
 40
-13.8448767948559
 40
-13.8448767948559
 40
-13.8448767948559
 40
-13.7078862306956
 40
-13.7078862306956
 40
-13.7078862306956
 40
-13.5710345012479
 40
-13.5710345012479
 40
-13.5710345012479
 40
-13.4407184118309
 40
-13.4407184118309
 40
-13.4407184118309
 40
-13.3170434061109
 40
-13.3170434061109
 40
-13.3170434061109
 40
-13.1990168601553
 40
-13.1990168601553
 40
-13.1990168601553
 40
-13.0863997373679
 40
-13.0863997373679
 40
-13.0863997373679
 40
-12.978782642092
 40
-12.978782642092
 40
-12.978782642092
 40
-12.8750456457476
 40
-12.8750456457476
 40
-12.8750456457476
 40
-12.7726197858616
 40
-12.7726197858616
 40
-12.7726197858616
 40
-12.6695219742775
 40
-12.6695219742775
 40
-12.6695219742775
 40
-12.5656095534969
 40
-12.5656095534969
 40
-12.5656095534969
 40
-12.4599101998656
 40
-12.4599101998656
 40
-12.4599101998656
 40
-12.350712658996
 40
-12.350712658996
 40
-12.350712658996
 40
-12.2370758167109
 40
-12.2370758167109
 40
-12.2370758167109
 40
-12.1183775755796
 40
-12.1183775755796
 40
-12.1183775755796
 40
-11.9942237485294
 40
-11.9942237485294
 40
-11.9942237485294
 40
-11.8631221680211
 40
-11.8631221680211
 40
-11.8631221680211
 40
-11.7220836261479
 40
-11.7220836261479
 40
-11.7220836261479
 40
-11.5699714597152
 40
-11.5699714597152
 40
-11.5699714597152
 40
-11.4183545000028
 40
-11.4183545000028
 40
-11.4183545000028
 40
-11.2776064533267
 40
-11.2776064533267
 40
-11.2776064533267
 40
-11.1473154986238
 40
-11.1473154986238
 40
-11.1473154986238
 40
-11.0255311560998
 40
-11.0255311560998
 40
-11.0255311560998
 40
-10.9098447005927
 40
-10.9098447005927
 40
-10.9098447005927
 40
-10.7976342512706
 40
-10.7976342512706
 40
-10.7976342512706
 40
-10.6877975542039
 40
-10.6877975542039
 40
-10.6877975542039
 40
-10.5797774362012
 40
-10.5797774362012
 40
-10.5797774362012
 40
-10.4700239527796
 40
-10.4700239527796
 40
-10.4700239527796
 40
-10.35683697466
 40
-10.35683697466
 40
-10.35683697466
 40
-10.2399790997169
 40
-10.2399790997169
 40
-10.2399790997169
 40
-10.1202795421007
 40
-10.1202795421007
 40
-10.1202795421007
 40
-9.998402336237179
 40
-9.998402336237179
 40
-9.998402336237179
 40
-9.87510385334944
 40
-9.87510385334944
 40
-9.87510385334944
 40
-9.751500577139959
 40
-9.751500577139959
 40
-9.751500577139959
 40
-9.629181801628919
 40
-9.629181801628919
 40
-9.629181801628919
 40
-9.50923624499959
 40
-9.50923624499959
 40
-9.50923624499959
 40
-9.39210196079981
 40
-9.39210196079981
 40
-9.39210196079981
 40
-9.27790856117172
 40
-9.27790856117172
 40
-9.27790856117172
 40
-9.166806106239001
 40
-9.166806106239001
 40
-9.166806106239001
 40
-9.05860953262353
 40
-9.05860953262353
 40
-9.05860953262353
 40
-8.9529732680218
 40
-8.9529732680218
 40
-8.9529732680218
 40
-8.84919101904543
 40
-8.84919101904543
 40
-8.84919101904543
 40
-8.747031062685519
 40
-8.747031062685519
 40
-8.747031062685519
 40
-8.64616905228623
 40
-8.64616905228623
 40
-8.64616905228623
 40
-8.543263538347
 40
-8.543263538347
 40
-8.543263538347
 40
-8.43653591097926
 40
-8.43653591097926
 40
-8.43653591097926
 40
-8.32503269771964
 40
-8.32503269771964
 40
-8.32503269771964
 40
-8.20786398485977
 40
-8.20786398485977
 40
-8.20786398485977
 40
-8.07889347030204
 40
-8.07889347030204
 40
-8.07889347030204
 40
-7.93937797777242
 40
-7.93937797777242
 40
-7.93937797777242
 40
-7.792931741783041
 40
-7.792931741783041
 40
-7.792931741783041
 40
-7.65476441261252
 40
-7.65476441261252
 40
-7.65476441261252
 40
-7.52834879274236
 40
-7.52834879274236
 40
-7.52834879274236
 40
-7.410402905407801
 40
-7.410402905407801
 40
-7.410402905407801
 40
-7.29461536001081
 40
-7.29461536001081
 40
-7.29461536001081
 40
-7.18063699501064
 40
-7.18063699501064
 40
-7.18063699501064
 40
-7.07474287151943
 40
-7.07474287151943
 40
-7.07474287151943
 40
-6.97241585211186
 40
-6.97241585211186
 40
-6.97241585211186
 40
-6.87364744754909
 40
-6.87364744754909
 40
-6.87364744754909
 40
-6.77780915290831
 40
-6.77780915290831
 40
-6.77780915290831
 40
-6.68370395107535
 40
-6.68370395107535
 40
-6.68370395107535
 40
-6.58747863664369
 40
-6.58747863664369
 40
-6.58747863664369
 40
-6.48454928294613
 40
-6.48454928294613
 40
-6.48454928294613
 40
-6.37978395241548
 40
-6.37978395241548
 40
-6.37978395241548
 40
-6.26893505607218
 40
-6.26893505607218
 40
-6.26893505607218
 40
-6.15103354144679
 40
-6.15103354144679
 40
-6.15103354144679
 40
-6.02893295506906
 40
-6.02893295506906
 40
-6.02893295506906
 40
-5.90959545540987
 40
-5.90959545540987
 40
-5.90959545540987
 40
-5.79665597069653
 40
-5.79665597069653
 40
-5.79665597069653
 40
-5.69019929494498
 40
-5.69019929494498
 40
-5.69019929494498
 40
-5.58918040980234
 40
-5.58918040980234
 40
-5.58918040980234
 40
-5.49245506008486
 40
-5.49245506008486
 40
-5.49245506008486
 40
-5.39898413079853
 40
-5.39898413079853
 40
-5.39898413079853
 40
-5.30804105279034
 40
-5.30804105279034
 40
-5.30804105279034
 40
-5.219276051507641
 40
-5.219276051507641
 40
-5.219276051507641
 40
-5.132519980547969
 40
-5.132519980547969
 40
-5.132519980547969
 40
-5.04793649429421
 40
-5.04793649429421
 40
-5.04793649429421
 40
-4.96536183397741
 40
-4.96536183397741
 40
-4.96536183397741
 40
-4.88454389340639
 40
-4.88454389340639
 40
-4.88454389340639
 40
-4.804707280943609
 40
-4.804707280943609
 40
-4.804707280943609
 40
-4.72384684325761
 40
-4.72384684325761
 40
-4.72384684325761
 40
-4.64126785105274
 40
-4.64126785105274
 40
-4.64126785105274
 40
-4.55672809480234
 40
-4.55672809480234
 40
-4.55672809480234
 40
-4.469707609343709
 40
-4.469707609343709
 40
-4.469707609343709
 40
-4.37873829336279
 40
-4.37873829336279
 40
-4.37873829336279
 40
-4.28220154594627
 40
-4.28220154594627
 40
-4.28220154594627
 40
-4.17730722460499
 40
-4.17730722460499
 40
-4.17730722460499
 40
-4.058416437884071
 40
-4.058416437884071
 40
-4.058416437884071
 40
-3.90443766355451
 40
-3.90443766355451
 40
-3.90443766355451
 40
-3.78242398656843
 40
-3.78242398656843
 40
-3.78242398656843
 40
-3.67539298991864
 40
-3.67539298991864
 40
-3.67539298991864
 40
-3.57802100042365
 40
-3.57802100042365
 40
-3.57802100042365
 40
-3.48651909076318
 40
-3.48651909076318
 40
-3.48651909076318
 40
-3.39875698899744
 40
-3.39875698899744
 40
-3.39875698899744
 40
-3.31392074125137
 40
-3.31392074125137
 40
-3.31392074125137
 40
-3.23150460828758
 40
-3.23150460828758
 40
-3.23150460828758
 40
-3.15141339157843
 40
-3.15141339157843
 40
-3.15141339157843
 40
-3.0737432213434
 40
-3.0737432213434
 40
-3.0737432213434
 40
-2.99811822598598
 40
-2.99811822598598
 40
-2.99811822598598
 40
-2.92425022544572
 40
-2.92425022544572
 40
-2.92425022544572
 40
-2.85153409563812
 40
-2.85153409563812
 40
-2.85153409563812
 40
-2.77825371422928
 40
-2.77825371422928
 40
-2.77825371422928
 40
-2.70420393789697
 40
-2.70420393789697
 40
-2.70420393789697
 40
-2.62933433016166
 40
-2.62933433016166
 40
-2.62933433016166
 40
-2.55357524451875
 40
-2.55357524451875
 40
-2.55357524451875
 40
-2.47377601812754
 40
-2.47377601812754
 40
-2.47377601812754
 40
-2.39183750082959
 40
-2.39183750082959
 40
-2.39183750082959
 40
-2.30615390562408
 40
-2.30615390562408
 40
-2.30615390562408
 40
-2.21574126151559
 40
-2.21574126151559
 40
-2.21574126151559
 40
-2.11978605290897
 40
-2.11978605290897
 40
-2.11978605290897
 40
-2.01584765441405
 40
-2.01584765441405
 40
-2.01584765441405
 40
-1.89727488456245
 40
-1.89727488456245
 40
-1.89727488456245
 40
-1.76903448069428
 40
-1.76903448069428
 40
-1.76903448069428
 40
-1.65846982565089
 40
-1.65846982565089
 40
-1.65846982565089
 40
-1.55481546154771
 40
-1.55481546154771
 40
-1.55481546154771
 40
-1.45763949520098
 40
-1.45763949520098
 40
-1.45763949520098
 40
-1.36653702675092
 40
-1.36653702675092
 40
-1.36653702675092
 40
-1.28110839333298
 40
-1.28110839333298
 40
-1.28110839333298
 40
-1.19465133428566
 40
-1.19465133428566
 40
-1.19465133428566
 40
-1.10612270518243
 40
-1.10612270518243
 40
-1.10612270518243
 40
-1.01518783523094
 40
-1.01518783523094
 40
-1.01518783523094
 40
-0.921652864801745
 40
-0.921652864801745
 40
-0.921652864801745
 40
-0.8260260347806729
 40
-0.8260260347806729
 40
-0.8260260347806729
 40
-0.728130927680956
 40
-0.728130927680956
 40
-0.728130927680956
 40
-0.625984931746991
 40
-0.625984931746991
 40
-0.625984931746991
 40
-0.519827343687575
 40
-0.519827343687575
 40
-0.519827343687575
 40
-0.50277210542148
 40
-0.50277210542148
 40
-0.50277210542148
 40
-0.50277210542148
 10
336.1484271098223
 20
154.675754946346
 30
0.0
 10
335.4589535046724
 20
154.6581943235439
 30
0.0
 10
334.7689945491117
 20
154.6568361136644
 30
0.0
 10
334.0785558214003
 20
154.6717127257047
 30
0.0
 10
333.4272985946476
 20
154.6857451093356
 30
0.0
 10
332.7756130188354
 20
154.7142269104203
 30
0.0
 10
332.1235278759503
 20
154.7571953854855
 30
0.0
 10
331.5687716166266
 20
154.7937504745813
 30
0.0
 10
331.0137261254201
 20
154.8407918633075
 30
0.0
 10
330.4584352116436
 20
154.898312299224
 30
0.0
 10
329.9485193367213
 20
154.9511325105377
 30
0.0
 10
329.4383965168464
 20
155.0127896302357
 30
0.0
 10
328.9281244637161
 20
155.0832400428276
 30
0.0
 10
328.4486788181926
 20
155.1494344254812
 30
0.0
 10
327.9691014171312
 20
155.2233920506075
 30
0.0
 10
327.4894621424318
 20
155.3050365355282
 30
0.0
 10
327.042679226156
 20
155.3810881914181
 30
0.0
 10
326.5958425733826
 20
155.4638099667353
 30
0.0
 10
326.149028528344
 20
155.5531004965628
 30
0.0
 10
325.7268011491593
 20
155.6374776704984
 30
0.0
 10
325.3045938942948
 20
155.7277208591605
 30
0.0
 10
324.8824905536512
 20
155.8237032142823
 30
0.0
 10
324.4769734616802
 20
155.9159140114537
 30
0.0
 10
324.0715522091886
 20
156.013422055578
 30
0.0
 10
323.6663204804694
 20
156.1160717448611
 30
0.0
 10
323.2524769563094
 20
156.2209028974
 30
0.0
 10
322.8388310190978
 20
156.3310967783063
 30
0.0
 10
322.425505136669
 20
156.4464358917373
 30
0.0
 10
321.9855692894548
 20
156.5692005497015
 30
0.0
 10
321.5459961659869
 20
156.6977939540095
 30
0.0
 10
321.1069580071953
 20
156.831897632675
 30
0.0
 10
320.6266358956288
 20
156.9786114451661
 30
0.0
 10
320.1469542857851
 20
157.1319200723601
 30
0.0
 10
319.6681647987161
 20
157.2913470705543
 30
0.0
 10
319.0631999028006
 20
157.4927878706837
 30
0.0
 10
318.4596596888913
 20
157.703995607257
 30
0.0
 10
317.8580894649182
 20
157.9239244975425
 30
0.0
 10
317.2340263573988
 20
158.1520765922361
 30
0.0
 10
316.6120865278755
 20
158.3896064224091
 30
0.0
 10
315.992882932312
 20
158.6353435892062
 30
0.0
 10
315.5495104848884
 20
158.8113003986409
 30
0.0
 10
315.1075411629638
 20
158.9914647662014
 30
0.0
 10
314.6671866881071
 20
159.1754413216119
 30
0.0
 10
314.2732787672936
 20
159.3400128805671
 30
0.0
 10
313.8806632273439
 20
159.5076343747357
 30
0.0
 10
313.4894763822452
 20
159.6780605218765
 30
0.0
 10
313.1248886827677
 20
159.8368983705811
 30
0.0
 10
312.7615421404228
 20
159.9981721023755
 30
0.0
 10
312.3995305767523
 20
160.1617233587729
 30
0.0
 10
312.0550357827248
 20
160.3173608080693
 30
0.0
 10
311.711750017164
 20
160.4750604468157
 30
0.0
 10
311.3697367349174
 20
160.6347277432236
 30
0.0
 10
311.0345539820717
 20
160.7912062390232
 30
0.0
 10
310.7005934983317
 20
160.9495743320215
 30
0.0
 10
310.3678959831015
 20
161.1097887140465
 30
0.0
 10
310.0377452135888
 20
161.2687766808666
 30
0.0
 10
309.7088381566845
 20
161.4295827377987
 30
0.0
 10
309.3811950894029
 20
161.5922116149046
 30
0.0
 10
309.0559542312776
 20
161.7536481317362
 30
0.0
 10
308.7319589017895
 20
161.9168807982421
 30
0.0
 10
308.4092095656164
 20
162.0819613833023
 30
0.0
 10
308.0875126644007
 20
162.2465036664699
 30
0.0
 10
307.7670536619929
 20
162.4128817671029
 30
0.0
 10
307.4478135060896
 20
162.581194815276
 30
0.0
 10
307.1156656826521
 20
162.7563131754605
 30
0.0
 10
306.7848373047067
 20
162.9335259383843
 30
0.0
 10
306.4552845718162
 20
163.1130001338481
 30
0.0
 10
306.0961717500917
 20
163.3085727337003
 30
0.0
 10
305.7385734171914
 20
163.5068310354432
 30
0.0
 10
305.3824087879211
 20
163.708053749589
 30
0.0
 10
304.9697702318908
 20
163.941182598952
 30
0.0
 10
304.5590555105833
 20
164.1782911859208
 30
0.0
 10
304.150114190231
 20
164.41988613006
 30
0.0
 10
303.5975476181006
 20
164.7463322079763
 30
0.0
 10
303.0482153770681
 20
165.080973790699
 30
0.0
 10
302.5017338334271
 20
165.425153405187
 30
0.0
 10
302.0801920856779
 20
165.6906446700233
 30
0.0
 10
301.660345732166
 20
165.9618144821752
 30
0.0
 10
301.2420403825873
 20
166.2392649150434
 30
0.0
 10
300.881200424364
 20
166.4786001344137
 30
0.0
 10
300.5215070239308
 20
166.7226095879588
 30
0.0
 10
300.1628839939235
 20
166.9716481954566
 30
0.0
 10
299.8353607499728
 20
167.1990901770687
 30
0.0
 10
299.5087301888854
 20
167.4307272400953
 30
0.0
 10
299.1829563553574
 20
167.6667946879944
 30
0.0
 10
298.8795881431423
 20
167.8866262160697
 30
0.0
 10
298.5769627385766
 20
168.1103000233888
 30
0.0
 10
298.275072789958
 20
168.3379692218149
 30
0.0
 10
297.9885730306985
 20
168.5540319653358
 30
0.0
 10
297.7027355512591
 20
168.7736933783399
 30
0.0
 10
297.4175759613582
 20
168.9970455296307
 30
0.0
 10
297.1438308154567
 20
169.2114572815333
 30
0.0
 10
296.8707102910568
 20
169.429270425913
 30
0.0
 10
296.5982502657577
 20
169.6505263228418
 30
0.0
 10
296.3288335829704
 20
169.8693108206126
 30
0.0
 10
296.0600625638129
 20
170.0914619332356
 30
0.0
 10
295.7919959142396
 20
170.3169752754768
 30
0.0
 10
295.5169024490392
 20
170.5483999859539
 30
0.0
 10
295.2425508214665
 20
170.783365455182
 30
0.0
 10
294.9690313816628
 20
171.0218164890921
 30
0.0
 10
294.6859692236322
 20
171.2685867526305
 30
0.0
 10
294.4037984490386
 20
171.519089897595
 30
0.0
 10
294.1226461586498
 20
171.7732131412985
 30
0.0
 10
293.8296637303081
 20
172.0380292128141
 30
0.0
 10
293.5377874432152
 20
172.3067762741113
 30
0.0
 10
293.2471879404071
 20
172.5792738918578
 30
0.0
 10
292.940664490771
 20
172.8667035295624
 30
0.0
 10
292.6355617711583
 20
173.158305828724
 30
0.0
 10
292.3321067793178
 20
173.4538141369111
 30
0.0
 10
292.002894453577
 20
173.774405262547
 30
0.0
 10
291.675621762526
 20
174.0995933060216
 30
0.0
 10
291.3506056076748
 20
174.4289781410448
 30
0.0
 10
290.9780122704806
 20
174.8065796635244
 30
0.0
 10
290.6083851671042
 20
175.1896959817541
 30
0.0
 10
290.2422281414562
 20
175.5776553320744
 30
0.0
 10
289.7644844048955
 20
176.0838456730287
 30
0.0
 10
289.2926516710347
 20
176.5982774144478
 30
0.0
 10
288.8278589709063
 20
177.1193724495681
 30
0.0
 10
288.4767308230687
 20
177.5130342572483
 30
0.0
 10
288.129621458434
 20
177.9104956298251
 30
0.0
 10
287.7869933097402
 20
178.3110862196867
 30
0.0
 10
287.4911834345457
 20
178.6569382836306
 30
0.0
 10
287.1987139733837
 20
179.0051220957407
 30
0.0
 10
286.9098558862946
 20
179.3552343462887
 30
0.0
 10
286.6436461324994
 20
179.6778955428586
 30
0.0
 10
286.3805038011956
 20
180.0021942232411
 30
0.0
 10
286.120614189776
 20
180.3278476580331
 30
0.0
 10
285.8735804731573
 20
180.6373920753222
 30
0.0
 10
285.6294857722249
 20
180.9481602283254
 30
0.0
 10
285.3884617500623
 20
181.2599454598264
 30
0.0
 10
285.1559411255978
 20
181.5607308175553
 30
0.0
 10
284.9262784092379
 20
181.8624625759528
 30
0.0
 10
284.6995641201163
 20
182.164993003493
 30
0.0
 10
284.4796238717979
 20
182.4584840649297
 30
0.0
 10
284.2624585564121
 20
182.7527266319906
 30
0.0
 10
284.0481232268714
 20
183.0476244486663
 30
0.0
 10
283.8393028788454
 20
183.3349343608601
 30
0.0
 10
283.633168816204
 20
183.6228661062439
 30
0.0
 10
283.4297444149013
 20
183.9113699483904
 30
0.0
 10
283.2269228830992
 20
184.1990187792102
 30
0.0
 10
283.0267951266757
 20
184.4872360645473
 30
0.0
 10
282.8293548306647
 20
184.7760151967909
 30
0.0
 10
282.6252511076266
 20
185.0745403571428
 30
0.0
 10
282.4240192328273
 20
185.3736660108033
 30
0.0
 10
282.2256192473444
 20
185.6734330949814
 30
0.0
 10
282.0181380605578
 20
185.9869211742945
 30
0.0
 10
281.8137537969275
 20
186.3011109293206
 30
0.0
 10
281.6123870925728
 20
186.6160987850263
 30
0.0
 10
281.3991346229943
 20
186.9496789482997
 30
0.0
 10
281.1892662636619
 20
187.2841544440259
 30
0.0
 10
280.9826533142202
 20
187.619691104642
 30
0.0
 10
280.7597775866955
 20
187.9816382988919
 30
0.0
 10
280.5406896212713
 20
188.3448206422389
 30
0.0
 10
280.3251925469866
 20
188.709499890446
 30
0.0
 10
280.0891698213053
 20
189.1089140841046
 30
0.0
 10
279.8574542462653
 20
189.510124335645
 30
0.0
 10
279.6297520289204
 20
189.9135297170053
 30
0.0
 10
279.3628761314342
 20
190.3863365893168
 30
0.0
 10
279.1015125918209
 20
190.8621595293688
 30
0.0
 10
278.8451496903871
 20
191.3417065132787
 30
0.0
 10
278.5454572531622
 20
191.9023048040922
 30
0.0
 10
278.2525955198121
 20
192.4679962219471
 30
0.0
 10
277.9657285938848
 20
193.0399594182201
 30
0.0
 10
277.7461848080732
 20
193.4776918791822
 30
0.0
 10
277.5301508041159
 20
193.9191002195883
 30
0.0
 10
277.3172706911745
 20
194.3646962443419
 30
0.0
 10
277.1337640524396
 20
194.7488083514169
 30
0.0
 10
276.9526006667679
 20
195.1360328088544
 30
0.0
 10
276.7735776353268
 20
195.5266677613468
 30
0.0
 10
276.6083892180245
 20
195.887115068186
 30
0.0
 10
276.4450229049236
 20
196.2504664804959
 30
0.0
 10
276.2833460122606
 20
196.6169228051259
 30
0.0
 10
276.1266993023177
 20
196.9719777337895
 30
0.0
 10
275.9716383068808
 20
197.3299476965845
 30
0.0
 10
275.8180721564477
 20
197.6909771537934
 30
0.0
 10
275.6660107213585
 20
198.0484690699338
 30
0.0
 10
275.5154149622207
 20
198.4089608677137
 30
0.0
 10
275.3662276259809
 20
198.7725526529887
 30
0.0
 10
275.2184138079315
 20
199.1327969696142
 30
0.0
 10
275.0719825809169
 20
199.4960845029772
 30
0.0
 10
274.9269090771668
 20
199.8624722853046
 30
0.0
 10
274.7830774229033
 20
200.2257237369605
 30
0.0
 10
274.6405803285668
 20
200.5920226346092
 30
0.0
 10
274.4994242627708
 20
200.9613840203805
 30
0.0
 10
274.356927959074
 20
201.3342523906054
 30
0.0
 10
274.2157981854946
 20
201.7102418162075
 30
0.0
 10
274.0760740514694
 20
202.0893245669563
 30
0.0
 10
273.9312312044726
 20
202.4822947953917
 30
0.0
 10
273.7878990019667
 20
202.8785890124406
 30
0.0
 10
273.6461555918065
 20
203.2781298088934
 30
0.0
 10
273.4978378597575
 20
203.6962020474832
 30
0.0
 10
273.3512598915527
 20
204.1178288411214
 30
0.0
 10
273.2065460938131
 20
204.5428738206563
 30
0.0
 10
273.0531522166951
 20
204.9934134262698
 30
0.0
 10
272.9018530770833
 20
205.4477933438327
 30
0.0
 10
272.7528321032012
 20
205.9058017419926
 30
0.0
 10
272.5934276015993
 20
206.3957233854791
 30
0.0
 10
272.4366301627458
 20
206.8897964294584
 30
0.0
 10
272.2826987248295
 20
207.3877113101063
 30
0.0
 10
272.1177275568473
 20
207.9213358934141
 30
0.0
 10
271.9560485498222
 20
208.4593728783063
 30
0.0
 10
271.7980133436828
 20
209.0013899844309
 30
0.0
 10
271.6229807670738
 20
209.6017033764201
 30
0.0
 10
271.4524185339125
 20
210.2068986894457
 30
0.0
 10
271.2868364734076
 20
210.816332581852
 30
0.0
 10
271.0696868849527
 20
211.6155636007375
 30
0.0
 10
270.8611047775705
 20
212.4220835198823
 30
0.0
 10
270.6622737970229
 20
213.2343523379181
 30
0.0
 10
270.4908361679257
 20
213.9347132171432
 30
0.0
 10
270.3266513688214
 20
214.6393429813358
 30
0.0
 10
270.1704506430145
 20
215.3472545698931
 30
0.0
 10
270.0482435500351
 20
215.9011048601344
 30
0.0
 10
269.9309235304179
 20
216.4569634041148
 30
0.0
 10
269.8188087950916
 20
217.014382912828
 30
0.0
 10
269.7136402802793
 20
217.5372667397247
 30
0.0
 10
269.6130522418317
 20
218.0615237384484
 30
0.0
 10
269.5172731437099
 20
218.586816683413
 30
0.0
 10
269.4246570899317
 20
219.0947621599739
 30
0.0
 10
269.3365376808139
 20
219.6036761334424
 30
0.0
 10
269.2530868681775
 20
220.1132875902829
 30
0.0
 10
269.1719984217464
 20
220.6084727180644
 30
0.0
 10
269.0953180659113
 20
221.1043162668354
 30
0.0
 10
269.0231691429482
 20
221.6006042442097
 30
0.0
 10
268.9521635739334
 20
222.0890274774522
 30
0.0
 10
268.8855470726552
 20
222.5778809985175
 30
0.0
 10
268.8234018565751
 20
223.0669971941531
 30
0.0
 10
268.7596696161239
 20
223.5686041231328
 30
0.0
 10
268.7006398760071
 20
224.0704873917821
 30
0.0
 10
268.6463625362409
 20
224.572506484689
 30
0.0
 10
268.5900861585117
 20
225.0930149735252
 30
0.0
 10
268.53891856181
 20
225.6136696253796
 30
0.0
 10
268.4928759147762
 20
226.1343545915171
 30
0.0
 10
268.4447624636351
 20
226.6784577717659
 30
0.0
 10
268.4022451687979
 20
227.2225942406959
 30
0.0
 10
268.3653023183198
 20
227.7666729919244
 30
0.0
 10
268.3266173600829
 20
228.3364087729086
 30
0.0
 10
268.2940447844023
 20
228.9060815012006
 30
0.0
 10
268.2675195966216
 20
229.4756273272619
 30
0.0
 10
268.2398247618164
 20
230.070287681688
 30
0.0
 10
268.2187222385862
 20
230.6648098737985
 30
0.0
 10
268.2040980239663
 20
231.2591615347466
 30
0.0
 10
268.1886538633473
 20
231.8868371230979
 30
0.0
 10
268.1804346121668
 20
232.5143227560613
 30
0.0
 10
268.1792651225741
 20
233.1416211894675
 30
0.0
 10
268.1779928555237
 20
233.824048064047
 30
0.0
 10
268.1850636005198
 20
234.5062537348879
 30
0.0
 10
268.200208269036
 20
235.1882848116485
 30
0.0
 10
268.2189371982535
 20
236.0317309225461
 30
0.0
 10
268.2500133322678
 20
236.8749109411375
 30
0.0
 10
268.2928686796188
 20
237.7179685998161
 30
0.0
 10
268.3388007246822
 20
238.6215515775056
 30
0.0
 10
268.3982599134928
 20
239.5249985007829
 30
0.0
 10
268.4705264163509
 20
240.4284975419133
 30
0.0
 10
268.5266672286455
 20
241.1303880177248
 30
0.0
 10
268.5905363745738
 20
241.8323107368097
 30
0.0
 10
268.6618135628419
 20
242.5343313097051
 30
0.0
 10
268.731013233355
 20
243.2158900737126
 30
0.0
 10
268.8071944732513
 20
243.897541999639
 30
0.0
 10
268.8900952093163
 20
244.5793113016527
 30
0.0
 10
268.9676313482398
 20
245.2169625677819
 30
0.0
 10
269.0510453741254
 20
245.8547164405159
 30
0.0
 10
269.1401579038846
 20
246.4925541867482
 30
0.0
 10
269.2347157062974
 20
247.1693673772451
 30
0.0
 10
269.3356893648661
 20
247.8462749056969
 30
0.0
 10
269.4429083563816
 20
248.523211661474
 30
0.0
 10
269.5507126708208
 20
249.2038439062275
 30
0.0
 10
269.6648307348016
 20
249.8845051647023
 30
0.0
 10
269.7851339559165
 20
250.5650927769775
 30
0.0
 10
269.9081038763204
 20
251.2607666228951
 30
0.0
 10
270.0375360771237
 20
251.9563630336559
 30
0.0
 10
270.173340519128
 20
252.6517420726342
 30
0.0
 10
270.3115379594418
 20
253.3593743254266
 30
0.0
 10
270.4563340734068
 20
254.0667808995142
 30
0.0
 10
270.6076842674343
 20
254.7737914735893
 30
0.0
 10
270.7610076140231
 20
255.4900193449012
 30
0.0
 10
270.921056969013
 20
256.2058401641123
 30
0.0
 10
271.0878385634352
 20
256.9210630984675
 30
0.0
 10
271.2559453058392
 20
257.6419687715642
 30
0.0
 10
271.4308917370179
 20
258.3622663674494
 30
0.0
 10
271.612737523361
 20
259.0817565700106
 30
0.0
 10
271.794100839589
 20
259.7993378335311
 30
0.0
 10
271.9823270904449
 20
260.5161153285148
 30
0.0
 10
272.1775267120753
 20
261.2318972735968
 30
0.0
 10
272.3682396635743
 20
261.9312269456314
 30
0.0
 10
272.5656093257352
 20
262.6296056743079
 30
0.0
 10
272.7697845256528
 20
263.3268694375187
 30
0.0
 10
272.9673904504194
 20
264.0016989505606
 30
0.0
 10
273.1713712026693
 20
264.6754835108192
 30
0.0
 10
273.3819024199724
 20
265.3480975492129
 30
0.0
 10
273.590224419655
 20
266.0136534857031
 30
0.0
 10
273.8049601573096
 20
266.6780627464248
 30
0.0
 10
274.0263190704313
 20
267.3412354027208
 30
0.0
 10
274.256142775695
 20
268.0297678631953
 30
0.0
 10
274.4931061339747
 20
268.7169671453361
 30
0.0
 10
274.7374855714058
 20
269.4027749954988
 30
0.0
 10
274.9957497192141
 20
270.1275478399098
 30
0.0
 10
275.2622970947774
 20
270.8507666065771
 30
0.0
 10
275.5374937693845
 20
271.5724102570919
 30
0.0
 10
275.8433758317224
 20
272.3745196881291
 30
0.0
 10
276.1599444234689
 20
273.1746829158238
 30
0.0
 10
276.4877404238723
 20
273.9729322088572
 30
0.0
 10
276.8679869612141
 20
274.8989091251034
 30
0.0
 10
277.2633450129479
 20
275.8223119843043
 30
0.0
 10
277.6746723350452
 20
276.7432623496471
 30
0.0
 10
278.021751235385
 20
277.5203622963293
 30
0.0
 10
278.3802021076679
 20
278.2957185492461
 30
0.0
 10
278.7505110660528
 20
279.0694182420922
 30
0.0
 10
279.0803652653526
 20
279.7585943662543
 30
0.0
 10
279.4196286287678
 20
280.4464568320001
 30
0.0
 10
279.7686068192415
 20
281.1330613264919
 30
0.0
 10
280.0922559133504
 20
281.7698315566076
 30
0.0
 10
280.424261065323
 20
282.4055201759471
 30
0.0
 10
280.7648266737424
 20
283.0401590832719
 30
0.0
 10
281.0865972127519
 20
283.6397736604283
 30
0.0
 10
281.4160096451839
 20
284.2384514688279
 30
0.0
 10
281.7531963719471
 20
284.8362033832336
 30
0.0
 10
282.0890659630589
 20
285.4316203292234
 30
0.0
 10
282.432649798435
 20
286.026119011582
 30
0.0
 10
282.7840314537248
 20
286.6196884851446
 30
0.0
 10
283.1126812415228
 20
287.1748582801325
 30
0.0
 10
283.4481525197584
 20
287.7292152842733
 30
0.0
 10
283.7904693687248
 20
288.2827284728614
 30
0.0
 10
284.1226251205824
 20
288.8198115579444
 30
0.0
 10
284.4612261840292
 20
289.3561003005199
 30
0.0
 10
284.8062504240146
 20
289.8915431688794
 30
0.0
 10
285.1435043619398
 20
290.4149273110946
 30
0.0
 10
285.4868955008491
 20
290.937503341964
 30
0.0
 10
285.8363590797749
 20
291.459199148215
 30
0.0
 10
286.1787474375857
 20
291.9703327287963
 30
0.0
 10
286.5269649126232
 20
292.4806214469272
 30
0.0
 10
286.8809066580832
 20
292.9899729202714
 30
0.0
 10
287.2335019809885
 20
293.4973867800937
 30
0.0
 10
287.5917781837326
 20
294.0038705929647
 30
0.0
 10
287.9555858600853
 20
294.5093068749943
 30
0.0
 10
288.3341491741124
 20
295.0352430945734
 30
0.0
 10
288.7187015370059
 20
295.5600450058827
 30
0.0
 10
289.1090261653835
 20
296.0835518985874
 30
0.0
 10
289.5335350409628
 20
296.6529070102642
 30
0.0
 10
289.9648714636326
 20
297.2207303953621
 30
0.0
 10
290.4027020558194
 20
297.7867823238614
 30
0.0
 10
290.8755850245025
 20
298.398151929262
 30
0.0
 10
291.3560431761268
 20
299.0074549659674
 30
0.0
 10
291.8435994251523
 20
299.6143528902293
 30
0.0
 10
292.3896021943133
 20
300.2940035929067
 30
0.0
 10
292.9445061858956
 20
300.9706379102669
 30
0.0
 10
293.5075808604726
 20
301.6437374391808
 30
0.0
 10
294.1762677450324
 20
302.4430858157107
 30
0.0
 10
294.8564755770718
 20
303.2374486817699
 30
0.0
 10
295.5469215092024
 20
304.0259025997557
 30
0.0
 10
296.2262252650438
 20
304.8016327226675
 30
0.0
 10
296.9154347142129
 20
305.5716407421605
 30
0.0
 10
297.6133326952805
 20
306.3350222650312
 30
0.0
 10
298.1746397353178
 20
306.9489965630599
 30
0.0
 10
298.7415662752433
 20
307.5586834486048
 30
0.0
 10
299.3135115699851
 20
308.1636156006014
 30
0.0
 10
299.8307658841088
 20
308.7107024780511
 30
0.0
 10
300.352124593717
 20
309.2539001162006
 30
0.0
 10
300.8771807400045
 20
309.792873149381
 30
0.0
 10
301.3689337284276
 20
310.2976603071357
 30
0.0
 10
301.8639296679391
 20
310.7987415591508
 30
0.0
 10
302.3618740243173
 20
311.2958547584105
 30
0.0
 10
302.8578732855535
 20
311.7910261092358
 30
0.0
 10
303.3567973190196
 20
312.2822600280514
 30
0.0
 10
303.8584034953187
 20
312.7693152366477
 30
0.0
 10
304.3274177150128
 20
313.2247239405302
 30
0.0
 10
304.7987768595398
 20
313.676479268041
 30
0.0
 10
305.2723287626926
 20
314.1244018564287
 30
0.0
 10
305.7312303046053
 20
314.5584669823423
 30
0.0
 10
306.1921908989231
 20
314.988932760736
 30
0.0
 10
306.6551181006205
 20
315.4156544136575
 30
0.0
 10
307.1057251108527
 20
315.8310194376165
 30
0.0
 10
307.558195330195
 20
316.2428368988525
 30
0.0
 10
308.0124895989902
 20
316.6509922245488
 30
0.0
 10
308.4564369475524
 20
317.0498514818428
 30
0.0
 10
308.9021260962775
 20
317.4452134524564
 30
0.0
 10
309.3495667676002
 20
317.8369906119237
 30
0.0
 10
309.8032956012513
 20
318.2342736597321
 30
0.0
 10
310.2588255954351
 20
318.6278704192412
 30
0.0
 10
310.7162169266397
 20
319.0177110121238
 30
0.0
 10
311.1896277197657
 20
319.4212052011871
 30
0.0
 10
311.6650327123894
 20
319.8206755370774
 30
0.0
 10
312.1425493090595
 20
320.2160669356712
 30
0.0
 10
312.6572926108323
 20
320.6422826429873
 30
0.0
 10
313.1744895636012
 20
321.0637585386273
 30
0.0
 10
313.6943442447017
 20
321.4804520316437
 30
0.0
 10
314.2391127144601
 20
321.9171153623805
 30
0.0
 10
314.7868001813977
 20
322.3485269775463
 30
0.0
 10
315.3376982612202
 20
322.7746659895179
 30
0.0
 10
315.929207974899
 20
323.232219526536
 30
0.0
 10
316.5244195435722
 20
323.6836944031547
 30
0.0
 10
317.1237515550654
 20
324.1290963541223
 30
0.0
 10
317.7896680756043
 20
324.6239815125018
 30
0.0
 10
318.4606721960845
 20
325.1113693068847
 30
0.0
 10
319.1373979237892
 20
325.5913066744351
 30
0.0
 10
319.946150609311
 20
326.1648782396906
 30
0.0
 10
320.7630775190374
 20
326.7278083243457
 30
0.0
 10
321.5893195681176
 20
327.2802355277614
 30
0.0
 10
322.3756194323107
 20
327.8059573008254
 30
0.0
 10
323.1703598157829
 20
328.3221687614839
 30
0.0
 10
323.9745178236823
 20
328.8290239296824
 30
0.0
 10
324.6445409030972
 20
329.2513347905801
 30
0.0
 10
325.3211028877092
 20
329.6671512807029
 30
0.0
 10
326.0047351847926
 20
330.0765706697902
 30
0.0
 10
326.6247812646008
 20
330.4479090168581
 30
0.0
 10
327.2506440661788
 20
330.8139852991094
 30
0.0
 10
327.8826803287213
 20
331.1748717480925
 30
0.0
 10
328.4749539081979
 20
331.5130540986823
 30
0.0
 10
329.072648945065
 20
331.8466792873136
 30
0.0
 10
329.6760166372526
 20
332.1758026710154
 30
0.0
 10
330.2523006988075
 20
332.4901525488234
 30
0.0
 10
330.8337598498873
 20
332.8003958431452
 30
0.0
 10
331.4205686913954
 20
333.1065744941958
 30
0.0
 10
332.0031746072722
 20
333.4105601890235
 30
0.0
 10
332.5910542921595
 20
333.7105394067797
 30
0.0
 10
333.1843284917596
 20
334.0065446664241
 30
0.0
 10
333.7752852140173
 20
334.3013936555224
 30
0.0
 10
334.3715948354754
 20
334.5922998214647
 30
0.0
 10
334.9733201538036
 20
334.8792845792018
 30
0.0
 10
335.5352730317694
 20
335.1473004090669
 30
0.0
 10
336.1019491288034
 20
335.4118960893103
 30
0.0
 10
336.6733495799788
 20
335.6730788351292
 30
0.0
 10
337.2805690882433
 20
335.9506341960968
 30
0.0
 10
337.8931242391482
 20
336.2243354371004
 30
0.0
 10
338.5109535766595
 20
336.4941777429224
 30
0.0
 10
339.1263695183214
 20
336.7629659772388
 30
0.0
 10
339.7470180403048
 20
337.0279252820669
 30
0.0
 10
340.3727802306881
 20
337.2890380942059
 30
0.0
 10
341.0179076177782
 20
337.5582314536317
 30
0.0
 10
341.6684698661423
 20
337.823336546949
 30
0.0
 10
342.3242795232424
 20
338.0843211673277
 30
0.0
 10
343.003988674117
 20
338.3548167795657
 30
0.0
 10
343.689334439103
 20
338.6208861101512
 30
0.0
 10
344.3800509945245
 20
338.8824798391148
 30
0.0
 10
345.0995453271094
 20
339.1549725192907
 30
0.0
 10
345.8248670891119
 20
339.4226088889428
 30
0.0
 10
346.5556581927729
 20
339.6853189171972
 30
0.0
 10
347.324772132077
 20
339.9618055133162
 30
0.0
 10
348.0999438039872
 20
340.2328355525872
 30
0.0
 10
348.8806969376993
 20
340.4983117826222
 30
0.0
 10
349.7203501758057
 20
340.7838155693688
 30
0.0
 10
350.5664583968447
 20
341.062896016615
 30
0.0
 10
351.4183675376761
 20
341.3354140574937
 30
0.0
 10
352.3764437338953
 20
341.6418939806348
 30
0.0
 10
353.3418560280428
 20
341.9400740487516
 30
0.0
 10
354.3136071262048
 20
342.2297328166073
 30
0.0
 10
355.5463035928381
 20
342.5971739652099
 30
0.0
 10
356.789197475159
 20
342.9509035569977
 30
0.0
 10
358.0401751846024
 20
343.2904253740882
 30
0.0
 10
359.1860175306169
 20
343.6014129100625
 30
0.0
 10
360.3386371214258
 20
343.9004792207097
 30
0.0
 10
361.4964193808535
 20
344.1872185915809
 30
0.0
 10
362.4433120911673
 20
344.4217285072654
 30
0.0
 10
363.3936571625894
 20
344.647992588251
 30
0.0
 10
364.3466076576731
 20
344.8657825961603
 30
0.0
 10
365.1963462076334
 20
345.0599842535096
 30
0.0
 10
366.0481558407506
 20
345.2474478279881
 30
0.0
 10
366.901475975497
 20
345.4280105931318
 30
0.0
 10
367.6940621761943
 20
345.5957220418421
 30
0.0
 10
368.487951138989
 20
345.7574799179204
 30
0.0
 10
369.2827365250528
 20
345.9131552074048
 30
0.0
 10
370.0438830098549
 20
346.0622416166908
 30
0.0
 10
370.805851276763
 20
346.2057493443588
 30
0.0
 10
371.5683306511962
 20
346.3435677948607
 30
0.0
 10
372.3231787692244
 20
346.4800068927299
 30
0.0
 10
373.0785277064015
 20
346.6108699731709
 30
0.0
 10
373.8341267705146
 20
346.7360535166147
 30
0.0
 10
374.5854942977561
 20
346.8605360020366
 30
0.0
 10
375.3371091324644
 20
346.9794023423709
 30
0.0
 10
376.0887758220324
 20
347.0925551944501
 30
0.0
 10
376.839717969011
 20
347.2055989768288
 30
0.0
 10
377.5907118064591
 20
347.3129402339631
 30
0.0
 10
378.3416142764477
 20
347.4144870314209
 30
0.0
 10
379.1122419299293
 20
347.5187013247162
 30
0.0
 10
379.8827733411895
 20
347.6168126802492
 30
0.0
 10
380.6531103866255
 20
347.7087280085915
 30
0.0
 10
381.4558037489889
 20
347.8045040385738
 30
0.0
 10
382.2582863017499
 20
347.8935525512259
 30
0.0
 10
383.0605053312347
 20
347.9757757987647
 30
0.0
 10
383.9041451048026
 20
348.0622444555621
 30
0.0
 10
384.7474937405049
 20
348.1411647522467
 30
0.0
 10
385.5905491095205
 20
348.212432356802
 30
0.0
 10
386.4772120197086
 20
348.287386320656
 30
0.0
 10
387.3635509187121
 20
348.3538753192568
 30
0.0
 10
388.2496212902918
 20
348.4117896412907
 30
0.0
 10
389.1867238267862
 20
348.4730394695417
 30
0.0
 10
390.1235263875419
 20
348.5246982995909
 30
0.0
 10
391.0601524327929
 20
348.5666515082094
 30
0.0
 10
392.0707952693053
 20
348.6119200654678
 30
0.0
 10
393.0812331585622
 20
348.6458880947289
 30
0.0
 10
394.0916795631372
 20
348.6684329055847
 30
0.0
 10
395.2343636106914
 20
348.6939281674839
 30
0.0
 10
396.3770601028875
 20
348.7048138587851
 30
0.0
 10
397.5201343961431
 20
348.7009481825114
 30
0.0
 10
398.7234190159382
 20
348.6968788855007
 30
0.0
 10
399.9271260327395
 20
348.6764627405533
 30
0.0
 10
401.1316968932837
 20
348.6395815616052
 30
0.0
 10
402.1859628412137
 20
348.6073023720958
 30
0.0
 10
403.240892257272
 20
348.5624114401081
 30
0.0
 10
404.2967549386848
 20
348.5048611772984
 30
0.0
 10
405.2553578675053
 20
348.4526121003544
 30
0.0
 10
406.2147307308559
 20
348.389928806394
 30
0.0
 10
407.1750376442665
 20
348.3167974413518
 30
0.0
 10
408.0663059195422
 20
348.2489236557108
 30
0.0
 10
408.9583791752596
 20
348.1720502456582
 30
0.0
 10
409.8513473874121
 20
348.0861825561217
 30
0.0
 10
410.6917375079076
 20
348.0053707680037
 30
0.0
 10
411.5329206419385
 20
347.9165927863738
 30
0.0
 10
412.374928352449
 20
347.8198663722732
 30
0.0
 10
413.1799109589738
 20
347.7273932512188
 30
0.0
 10
413.9856474933508
 20
347.6276554094015
 30
0.0
 10
414.7921201634414
 20
347.5206798581318
 30
0.0
 10
415.5968266675486
 20
347.4139385821045
 30
0.0
 10
416.4022663429927
 20
347.299991281326
 30
0.0
 10
417.2083699756818
 20
347.1788761969061
 30
0.0
 10
418.0326883588605
 20
347.0550243911085
 30
0.0
 10
418.8577009340099
 20
346.9236772750577
 30
0.0
 10
419.6832796181142
 20
346.7848869654443
 30
0.0
 10
420.5300596442154
 20
346.6425324397524
 30
0.0
 10
421.3774351065817
 20
346.4923475908649
 30
0.0
 10
422.225213292269
 20
346.3343993355878
 30
0.0
 10
423.1056844075852
 20
346.1703601106661
 30
0.0
 10
423.986589760356
 20
345.9979472573651
 30
0.0
 10
424.8676570286789
 20
345.8172459863038
 30
0.0
 10
425.7981016763267
 20
345.6264177300208
 30
0.0
 10
426.7287266076004
 20
345.4263461443894
 30
0.0
 10
427.6591527723415
 20
345.2171411082508
 30
0.0
 10
428.6606133029445
 20
344.9919640932058
 30
0.0
 10
429.6618431432734
 20
344.7562059920933
 30
0.0
 10
430.6623091171542
 20
344.5100119242003
 30
0.0
 10
431.7692949762405
 20
344.2376055067277
 30
0.0
 10
432.8753450352456
 20
343.952422958395
 30
0.0
 10
433.9796737449382
 20
343.6546657203816
 30
0.0
 10
435.3500709605071
 20
343.2851691327187
 30
0.0
 10
436.7178160685885
 20
342.8963099540457
 30
0.0
 10
438.081327559848
 20
342.4884665685685
 30
0.0
 10
439.3078868949992
 20
342.1215872903643
 30
0.0
 10
440.5310162697922
 20
341.7393465871078
 30
0.0
 10
441.7495548176275
 20
341.3420002735458
 30
0.0
 10
442.9037078590339
 20
340.9656490640546
 30
0.0
 10
444.0537399203758
 20
340.5757469039163
 30
0.0
 10
445.1986995877713
 20
340.1724839954258
 30
0.0
 10
446.169116675208
 20
339.8306962204733
 30
0.0
 10
447.1358897811684
 20
339.4793105191042
 30
0.0
 10
448.0984797840974
 20
339.1184220172552
 30
0.0
 10
448.9965733216011
 20
338.781714145488
 30
0.0
 10
449.8910251894984
 20
338.4367342591081
 30
0.0
 10
450.7814397177393
 20
338.0835410388557
 30
0.0
 10
451.6269630461354
 20
337.7481544321887
 30
0.0
 10
452.4688456093571
 20
337.4053618058218
 30
0.0
 10
453.3067922811301
 20
337.0551957486083
 30
0.0
 10
454.1098967173812
 20
336.7195897686038
 30
0.0
 10
454.9093855536522
 20
336.3772108196227
 30
0.0
 10
455.7050435514619
 20
336.0280705509944
 30
0.0
 10
456.4733341461671
 20
335.6909392893741
 30
0.0
 10
457.2380527219856
 20
335.3475038600081
 30
0.0
 10
457.9990508387936
 20
334.9977580979597
 30
0.0
 10
458.7506472455869
 20
334.6523332509838
 30
0.0
 10
459.4986143136873
 20
334.3007530825387
 30
0.0
 10
460.2428576079325
 20
333.9429943470727
 30
0.0
 10
461.0089389300888
 20
333.5747380427197
 30
0.0
 10
461.7710748726291
 20
333.1999351517069
 30
0.0
 10
462.5292153957174
 20
332.8185421861403
 30
0.0
 10
463.3154631188523
 20
332.4230095089331
 30
0.0
 10
464.0974138450042
 20
332.0203889181678
 30
0.0
 10
464.8750655897139
 20
331.6106146466117
 30
0.0
 10
465.6882478835278
 20
331.1821179778187
 30
0.0
 10
466.4967295872116
 20
330.7457988107718
 30
0.0
 10
467.3005634942438
 20
330.3015659436069
 30
0.0
 10
468.1528009727732
 20
329.8305832004307
 30
0.0
 10
468.9998143424665
 20
329.3507047238031
 30
0.0
 10
469.8417234399718
 20
328.8618078436797
 30
0.0
 10
470.7538075714468
 20
328.3321602990582
 30
0.0
 10
471.6599014875792
 20
327.7919278220003
 30
0.0
 10
472.560217199143
 20
327.2409443383901
 30
0.0
 10
473.5871492686961
 20
326.6124730123349
 30
0.0
 10
474.6065643714385
 20
325.9700130445665
 30
0.0
 10
475.6188432413221
 20
325.3133174813561
 30
0.0
 10
476.7321822266725
 20
324.5910612002269
 30
0.0
 10
477.8368918683267
 20
323.8515828506387
 30
0.0
 10
478.9335238477545
 20
323.094579843108
 30
0.0
 10
479.8564503126274
 20
322.457485427894
 30
0.0
 10
480.7736575320691
 20
321.8079782626364
 30
0.0
 10
481.6854690173469
 20
321.1459085923353
 30
0.0
 10
482.5716176309195
 20
320.5024728274883
 30
0.0
 10
483.4526713812825
 20
319.8471711511222
 30
0.0
 10
484.3288982553387
 20
319.1799036870958
 30
0.0
 10
485.1099733299113
 20
318.5850965661828
 30
0.0
 10
485.8872132572791
 20
317.9807814941668
 30
0.0
 10
486.6607740587242
 20
317.3669198685552
 30
0.0
 10
487.3891577834382
 20
316.7889086553628
 30
0.0
 10
488.1142798941117
 20
316.2024333468523
 30
0.0
 10
488.8362341893494
 20
315.6074916115593
 30
0.0
 10
489.5255512949174
 20
315.0394452439998
 30
0.0
 10
490.21198076925
 20
314.4636805775427
 30
0.0
 10
490.8955659298349
 20
313.8802244100474
 30
0.0
 10
491.5551042543881
 20
313.3172927881383
 30
0.0
 10
492.2119950516432
 20
312.7472012369298
 30
0.0
 10
492.8662374713691
 20
312.1700020528938
 30
0.0
 10
493.5018822854821
 20
311.6092104304308
 30
0.0
 10
494.1350272998872
 20
311.0417094810417
 30
0.0
 10
494.7656310564428
 20
310.4675748873017
 30
0.0
 10
495.3805482563236
 20
309.9077221540018
 30
0.0
 10
495.9930491867322
 20
309.3415616669897
 30
0.0
 10
496.6030540907132
 20
308.7691908755044
 30
0.0
 10
497.2115331444202
 20
308.1982517973115
 30
0.0
 10
497.8175287880211
 20
307.6211333941428
 30
0.0
 10
498.4209174945216
 20
307.0379609396188
 30
0.0
 10
499.0413662568607
 20
306.4383000183213
 30
0.0
 10
499.6590584709161
 20
305.8322379797543
 30
0.0
 10
500.2738129827292
 20
305.2199405275423
 30
0.0
 10
500.9090822942961
 20
304.5872102694207
 30
0.0
 10
501.5412144369557
 20
303.9478216312386
 30
0.0
 10
502.1699619825216
 20
303.3019866031909
 30
0.0
 10
502.8231695228951
 20
302.6310268306513
 30
0.0
 10
503.4727238492852
 20
301.9531095200165
 30
0.0
 10
504.1182992141977
 20
301.268500929142
 30
0.0
 10
504.7929205701287
 20
300.553090148371
 30
0.0
 10
505.4631966941001
 20
299.8303726395442
 30
0.0
 10
506.1287065384861
 20
299.1006798921501
 30
0.0
 10
506.8586343578596
 20
298.3003565905307
 30
0.0
 10
507.5828286162651
 20
297.4916425281401
 30
0.0
 10
508.3006758295942
 20
296.6750049523469
 30
0.0
 10
509.0885146990506
 20
295.7787434463846
 30
0.0
 10
509.8687082110112
 20
294.8729385188905
 30
0.0
 10
510.6403798420631
 20
293.9582367221109
 30
0.0
 10
511.4906221191152
 20
292.950401125698
 30
0.0
 10
512.3305177864377
 20
291.9317659576386
 30
0.0
 10
513.1588283376386
 20
290.9032150844586
 30
0.0
 10
514.1139328194126
 20
289.7172184226001
 30
0.0
 10
515.0536312546747
 20
288.5180413157702
 30
0.0
 10
515.9759695203827
 20
287.3070262170206
 30
0.0
 10
516.7189059297651
 20
286.331562829431
 30
0.0
 10
517.4505765408067
 20
285.3484193416404
 30
0.0
 10
518.1699630518951
 20
284.3582667549379
 30
0.0
 10
518.8160382860082
 20
283.4690186881446
 30
0.0
 10
519.4522047889826
 20
282.5741175593928
 30
0.0
 10
520.0777444603622
 20
281.6740167411205
 30
0.0
 10
520.6645923593452
 20
280.8295902430984
 30
0.0
 10
521.2420869595717
 20
279.9805875666817
 30
0.0
 10
521.8096612537356
 20
279.1273497825679
 30
0.0
 10
522.3728013737261
 20
278.2807779186431
 30
0.0
 10
522.9261750076987
 20
277.4300372812235
 30
0.0
 10
523.4692622634822
 20
276.5754225034216
 30
0.0
 10
523.9734175360221
 20
275.7820720028707
 30
0.0
 10
524.4687082419812
 20
274.9853828807106
 30
0.0
 10
524.9547518422041
 20
274.1855556489222
 30
0.0
 10
525.4193268322086
 20
273.4210568919324
 30
0.0
 10
525.8754533731496
 20
272.653691237078
 30
0.0
 10
526.3228315775201
 20
271.883599335688
 30
0.0
 10
526.7541590273091
 20
271.1411363084667
 30
0.0
 10
527.1773544559932
 20
270.3961392446928
 30
0.0
 10
527.5921841539086
 20
269.6486998860915
 30
0.0
 10
528.0051352031212
 20
268.9046454731421
 30
0.0
 10
528.4097960368437
 20
268.1581708359564
 30
0.0
 10
528.8059741809332
 20
267.4093301513323
 30
0.0
 10
529.2078695289042
 20
266.6496830279086
 30
0.0
 10
529.6010355917862
 20
265.8876009569743
 30
0.0
 10
529.9853109435667
 20
265.1231044489057
 30
0.0
 10
530.3754828483127
 20
264.3468770449282
 30
0.0
 10
530.7564890949691
 20
263.5681604059478
 30
0.0
 10
531.1282012159621
 20
262.7869410143545
 30
0.0
 10
531.5090170279732
 20
261.986588590622
 30
0.0
 10
531.8800778952801
 20
261.1836091389159
 30
0.0
 10
532.2412881888797
 20
260.3779537617992
 30
0.0
 10
532.6250724726486
 20
259.5219486109208
 30
0.0
 10
532.9977363566156
 20
258.662922405504
 30
0.0
 10
533.3592136170007
 20
257.8007812239928
 30
0.0
 10
533.7384241376747
 20
256.8963453377984
 30
0.0
 10
534.1053235821792
 20
255.9884808808127
 30
0.0
 10
534.4598877266361
 20
255.077047220142
 30
0.0
 10
534.8322406853182
 20
254.1198860816058
 30
0.0
 10
535.1909896173667
 20
253.1587879912408
 30
0.0
 10
535.5361615723046
 20
252.1935642808289
 30
0.0
 10
535.8992611492687
 20
251.1782085547578
 30
0.0
 10
536.2473369053737
 20
250.158286672373
 30
0.0
 10
536.5804786370857
 20
249.1335626007678
 30
0.0
 10
536.9281982410187
 20
248.0639978647981
 30
0.0
 10
537.2596485768022
 20
246.989200221489
 30
0.0
 10
537.5749901269617
 20
245.9089002988651
 30
0.0
 10
537.8900120904851
 20
244.8296952190149
 30
0.0
 10
538.1889588043412
 20
243.7449975257279
 30
0.0
 10
538.4720371044476
 20
242.654558624308
 30
0.0
 10
538.7415964093797
 20
241.6161959090198
 30
0.0
 10
538.9967677585537
 20
240.5726262998115
 30
0.0
 10
539.2377580592872
 20
239.5236704804454
 30
0.0
 10
539.4664671692296
 20
238.5281708645464
 30
0.0
 10
539.6824044375617
 20
237.5278195486623
 30
0.0
 10
539.8857612392292
 20
236.5225059263859
 30
0.0
 10
540.0798303703177
 20
235.563106783861
 30
0.0
 10
540.2624423905767
 20
234.5991879751178
 30
0.0
 10
540.4337694818097
 20
233.6306984560393
 30
0.0
 10
540.5972442655032
 20
232.7065969989882
 30
0.0
 10
540.7504451689176
 20
231.7783340402501
 30
0.0
 10
540.8935217823947
 20
230.8459102971468
 30
0.0
 10
541.0302460136936
 20
229.9548847380184
 30
0.0
 10
541.1577252817167
 20
229.0600594470637
 30
0.0
 10
541.2760858502227
 20
228.1614799160662
 30
0.0
 10
541.3901789674077
 20
227.2952983741537
 30
0.0
 10
541.4957992852651
 20
226.4256282476873
 30
0.0
 10
541.5930523568746
 20
225.552555805422
 30
0.0
 10
541.6890762426357
 20
224.6905181641457
 30
0.0
 10
541.7769432518561
 20
223.8251633874451
 30
0.0
 10
541.8567444269667
 20
222.956623476521
 30
0.0
 10
541.9370691274362
 20
222.0823856210675
 30
0.0
 10
542.0092218849117
 20
221.2049207440062
 30
0.0
 10
542.0732827592872
 20
220.3244153331756
 30
0.0
 10
542.1378497993782
 20
219.4369527639506
 30
0.0
 10
542.1941966435996
 20
218.5464014814922
 30
0.0
 10
542.2423913374166
 20
217.6530041135183
 30
0.0
 10
542.2914148126331
 20
216.7442434127161
 30
0.0
 10
542.3320034407627
 20
215.8325378956724
 30
0.0
 10
542.3642132418722
 20
214.9181959281612
 30
0.0
 10
542.3974890468066
 20
213.973593232534
 30
0.0
 10
542.4218222873371
 20
213.0261768687473
 30
0.0
 10
542.4372570225241
 20
212.0763420323475
 30
0.0
 10
542.4533192392562
 20
211.0878927445588
 30
0.0
 10
542.4597447835921
 20
210.0968245929216
 30
0.0
 10
542.4565636425351
 20
209.1036384367254
 30
0.0
 10
542.4532408130661
 20
208.0662156477264
 30
0.0
 10
542.4394365478806
 20
207.0264823280957
 30
0.0
 10
542.4151629559136
 20
205.9850639794164
 30
0.0
 10
542.3897737057422
 20
204.8957801592304
 30
0.0
 10
542.3529307736502
 20
203.8046532012987
 30
0.0
 10
542.3046227105297
 20
202.7124519996981
 30
0.0
 10
542.2536112872267
 20
201.5591302925477
 30
0.0
 10
542.1898158441667
 20
200.4046112325096
 30
0.0
 10
542.1131924409922
 20
199.2498517065221
 30
0.0
 10
542.0307612985526
 20
198.0075661510921
 30
0.0
 10
541.9334842451217
 20
196.7650031549234
 30
0.0
 10
541.8212674349771
 20
195.5234021197963
 30
0.0
 10
541.7002399351567
 20
194.1843169251398
 30
0.0
 10
541.5618350347231
 20
192.8463524811696
 30
0.0
 10
541.4058845814797
 20
191.5110960950628
 30
0.0
 10
541.2504418306412
 20
190.1801866849488
 30
0.0
 10
541.0775673616116
 20
188.8519700817749
 30
0.0
 10
540.8870457227741
 20
187.5280161469121
 30
0.0
 10
540.7101819433751
 20
186.2989720440987
 30
0.0
 10
540.5181098280891
 20
185.0736026913095
 30
0.0
 10
540.3106215707556
 20
183.8531371444847
 30
0.0
 10
540.1185489716956
 20
182.7233479571165
 30
0.0
 10
539.9132654368847
 20
181.5977616399516
 30
0.0
 10
539.6945816221166
 20
180.4773162424079
 30
0.0
 10
539.4901755322006
 20
179.4300240003256
 30
0.0
 10
539.2740615863022
 20
178.3872237599238
 30
0.0
 10
539.0460673671867
 20
177.3496402612814
 30
0.0
 10
538.8294890900546
 20
176.3640098036796
 30
0.0
 10
538.6021903224012
 20
175.3830870772908
 30
0.0
 10
538.3640093360676
 20
174.4074491866952
 30
0.0
 10
538.1329849228877
 20
173.4611260791242
 30
0.0
 10
537.8917223021286
 20
172.5197752454483
 30
0.0
 10
537.6400621754926
 20
171.5838761084933
 30
0.0
 10
537.3937257847182
 20
170.6677754190147
 30
0.0
 10
537.1374270185936
 20
169.7568983477689
 30
0.0
 10
536.8710069191006
 20
168.8516460811884
 30
0.0
 10
536.6089931172077
 20
167.9613656988402
 30
0.0
 10
536.3371899017582
 20
167.0765257495982
 30
0.0
 10
536.0554383802197
 20
166.1974583475899
 30
0.0
 10
535.7691656791707
 20
165.3042848229102
 30
0.0
 10
535.4726226456542
 20
164.4170706665666
 30
0.0
 10
535.1656363908907
 20
163.5361095770126
 30
0.0
 10
534.8490464712122
 20
162.6275887678411
 30
0.0
 10
534.5213493563676
 20
161.7257182200307
 30
0.0
 10
534.1823532988782
 20
160.8307638233396
 30
0.0
 10
533.8323628710887
 20
159.9067841332218
 30
0.0
 10
533.4703282771356
 20
158.9901762494665
 30
0.0
 10
533.0960424033947
 20
158.0811767764735
 30
0.0
 10
532.7126548607871
 20
157.1500727764762
 30
0.0
 10
532.3164124743382
 20
156.2269514581702
 30
0.0
 10
531.9071039010671
 20
155.3120134883089
 30
0.0
 10
531.4903489335492
 20
154.380430402074
 30
0.0
 10
531.0600475192057
 20
153.4573308056679
 30
0.0
 10
530.6159956922037
 20
152.5428759699249
 30
0.0
 10
530.1667655330036
 20
151.6177571741862
 30
0.0
 10
529.7034618389816
 20
150.7014855156281
 30
0.0
 10
529.2259009331192
 20
149.794182414661
 30
0.0
 10
528.7471594987412
 20
148.8846364643134
 30
0.0
 10
528.2540897182987
 20
147.9841028838827
 30
0.0
 10
527.7465423570196
 20
147.0926661803531
 30
0.0
 10
527.2442694913686
 20
146.2104933984882
 30
0.0
 10
526.7278179324362
 20
145.3372287727572
 30
0.0
 10
526.1970855122566
 20
144.4729263941721
 30
0.0
 10
525.6766503191002
 20
143.6253931396714
 30
0.0
 10
525.1424827221231
 20
142.7864771582333
 30
0.0
 10
524.5945330456176
 20
141.9562115666935
 30
0.0
 10
524.0594261609731
 20
141.1454056602996
 30
0.0
 10
523.5111754621321
 20
140.3428489217309
 30
0.0
 10
522.9497833592266
 20
139.5485626188693
 30
0.0
 10
522.4024860995637
 20
138.7742184221938
 30
0.0
 10
521.8426988878457
 20
138.0077341816477
 30
0.0
 10
521.2704733167436
 20
137.2491267942104
 30
0.0
 10
520.7137365357066
 20
136.5110531108899
 30
0.0
 10
520.1452255213027
 20
135.7804352886391
 30
0.0
 10
519.5650369050556
 20
135.0572915835527
 30
0.0
 10
519.0000231043541
 20
134.3530616799983
 30
0.0
 10
518.4239344761177
 20
133.6559197466115
 30
0.0
 10
517.8369090322376
 20
132.9658898653389
 30
0.0
 10
517.2637746616601
 20
132.2921885022972
 30
0.0
 10
516.6802148793797
 20
131.6252663414616
 30
0.0
 10
516.0864064978326
 20
130.9651566147139
 30
0.0
 10
515.5030200109061
 20
130.3166324334458
 30
0.0
 10
514.9097414673627
 20
129.6746834675158
 30
0.0
 10
514.3067868481506
 20
129.0393549859855
 30
0.0
 10
513.7132574325401
 20
128.4139577664462
 30
0.0
 10
513.1103520519101
 20
127.7949755093702
 30
0.0
 10
512.4983244758666
 20
127.1824673768932
 30
0.0
 10
511.8940727324336
 20
126.5777411825133
 30
0.0
 10
511.2809290709266
 20
125.9793254987696
 30
0.0
 10
510.6591852413546
 20
125.3872952728402
 30
0.0
 10
510.0248446400992
 20
124.7832702843865
 30
0.0
 10
509.3815519341431
 20
124.1858920351526
 30
0.0
 10
508.7296679353956
 20
123.5952613935327
 30
0.0
 10
508.0535716812507
 20
122.9826935668169
 30
0.0
 10
507.3682343285651
 20
122.377383859514
 30
0.0
 10
506.6741096979952
 20
121.779468138612
 30
0.0
 10
505.9489260822802
 20
121.1547983526969
 30
0.0
 10
505.2141515237232
 20
120.5381989967303
 30
0.0
 10
504.4703542865261
 20
119.9298507872652
 30
0.0
 10
503.6887645693921
 20
119.2905922888786
 30
0.0
 10
502.8972123949727
 20
118.6604446221345
 30
0.0
 10
502.0964062646972
 20
118.0396465346473
 30
0.0
 10
501.2149390524886
 20
117.3563186493663
 30
0.0
 10
500.3222601482321
 20
116.6843182524493
 30
0.0
 10
499.4193671467402
 20
116.0240026799374
 30
0.0
 10
498.4426511722662
 20
115.3096979209011
 30
0.0
 10
497.4539837340697
 20
114.6090665122642
 30
0.0
 10
496.4546741345878
 20
113.9226105412865
 30
0.0
 10
495.4057216005102
 20
113.2020533379297
 30
0.0
 10
494.3450455207732
 20
112.4971149256989
 30
0.0
 10
493.2741820631073
 20
111.8084314508535
 30
0.0
 10
492.2638567184341
 20
111.1586806687977
 30
0.0
 10
491.2444652487137
 20
110.5233996986503
 30
0.0
 10
490.2172854644854
 20
109.9031638213759
 30
0.0
 10
489.2774716176008
 20
109.3356815999125
 30
0.0
 10
488.3311389646996
 20
108.7807946375224
 30
0.0
 10
487.3792361806534
 20
108.2389692408466
 30
0.0
 10
486.4911100247573
 20
107.7334456571551
 30
0.0
 10
485.5981356774622
 20
107.2392923987406
 30
0.0
 10
484.7010459162332
 20
106.7569051598548
 30
0.0
 10
483.8203723819473
 20
106.2833453301423
 30
0.0
 10
482.9357333612674
 20
105.8211250097204
 30
0.0
 10
482.0477751310137
 20
105.3706319740786
 30
0.0
 10
481.1736912481088
 20
104.9271778921184
 30
0.0
 10
480.2963916143361
 20
104.4950876450358
 30
0.0
 10
479.4164377869802
 20
104.0747417373925
 30
0.0
 10
478.5988972014455
 20
103.6842100654127
 30
0.0
 10
477.7790654691521
 20
103.3038160018774
 30
0.0
 10
476.9573431329113
 20
102.9338713228369
 30
0.0
 10
476.1633009832999
 20
102.5763884417873
 30
0.0
 10
475.3674936250237
 20
102.2286629162283
 30
0.0
 10
474.5702334946363
 20
101.8909805108923
 30
0.0
 10
473.800699587016
 20
101.5650416472657
 30
0.0
 10
473.02981237622
 20
101.2484595784327
 30
0.0
 10
472.2578036923811
 20
100.941494352013
 30
0.0
 10
471.5086977810889
 20
100.6436357003084
 30
0.0
 10
470.7585361033381
 20
100.3548318097107
 30
0.0
 10
470.0074809297132
 20
100.0753223838974
 30
0.0
 10
469.2700074702084
 20
99.80086746972175
 30
0.0
 10
468.5316726960806
 20
99.53537395468734
 30
0.0
 10
467.7925791537833
 20
99.27907016809515
 30
0.0
 10
467.0368344434306
 20
99.01699206853755
 30
0.0
 10
466.2802962504207
 20
98.76452259589836
 30
0.0
 10
465.5230197240543
 20
98.52190576710156
 30
0.0
 10
464.7129835720334
 20
98.26238576935775
 30
0.0
 10
463.9021028138561
 20
98.01413936456797
 30
0.0
 10
463.0903824449946
 20
97.77746182105015
 30
0.0
 10
462.264183215258
 20
97.53656260051595
 30
0.0
 10
461.4371137549538
 20
97.30764891212334
 30
0.0
 10
460.6091190824988
 20
97.09102462254376
 30
0.0
 10
459.733043999694
 20
96.86182128495635
 30
0.0
 10
458.8559326905367
 20
96.64637654018576
 30
0.0
 10
457.9776587120041
 20
96.44503595292075
 30
0.0
 10
457.0435056826008
 20
96.23088533007095
 30
0.0
 10
456.1080364752171
 20
96.03269144593875
 30
0.0
 10
455.1710418329276
 20
95.85084412705395
 30
0.0
 10
454.2006760524723
 20
95.66252030154916
 30
0.0
 10
453.2286727263414
 20
95.49172900171375
 30
0.0
 10
452.2547591012139
 20
95.33886351435297
 30
0.0
 10
451.3028847461856
 20
95.18945731093534
 30
0.0
 10
450.3491840109722
 20
95.05717518504335
 30
0.0
 10
449.3933879764596
 20
94.94233833080476
 30
0.0
 10
448.4888348231156
 20
94.83365819940555
 30
0.0
 10
447.582403882224
 20
94.74060293958915
 30
0.0
 10
446.6738733228524
 20
94.66340056357835
 30
0.0
 10
445.8174930815671
 20
94.59062966037195
 30
0.0
 10
444.9592466138999
 20
94.53194387881395
 30
0.0
 10
444.0989664383615
 20
94.48749407022315
 30
0.0
 10
443.2826292417537
 20
94.44531475101235
 30
0.0
 10
442.4644602709179
 20
94.41595416061175
 30
0.0
 10
441.6443422094609
 20
94.39950465012375
 30
0.0
 10
440.8590810556469
 20
94.38375428174075
 30
0.0
 10
440.0720325992269
 20
94.37984078828634
 30
0.0
 10
439.2831244435262
 20
94.38781128906855
 30
0.0
 10
438.520759886042
 20
94.39551361443775
 30
0.0
 10
437.7566583720687
 20
94.41431368663375
 30
0.0
 10
436.990788588021
 20
94.44422176341155
 30
0.0
 10
436.24563117869
 20
94.47332099865255
 30
0.0
 10
435.4987996467381
 20
94.51293554007074
 30
0.0
 10
434.7503014933092
 20
94.56304381075695
 30
0.0
 10
434.0197297884101
 20
94.61195199386614
 30
0.0
 10
433.2875701666335
 20
94.67085727518875
 30
0.0
 10
432.5538674184234
 20
94.73970968320674
 30
0.0
 10
431.8367698375397
 20
94.80700382289476
 30
0.0
 10
431.1181980485989
 20
94.88379993221736
 30
0.0
 10
430.3982326914818
 20
94.97002248899015
 30
0.0
 10
429.6962970319556
 20
95.05408582156035
 30
0.0
 10
428.9930365941988
 20
95.14710938640694
 30
0.0
 10
428.2885652575442
 20
95.24899558293755
 30
0.0
 10
427.6008248497695
 20
95.34846202067976
 30
0.0
 10
426.9119302271637
 20
95.45637513388975
 30
0.0
 10
426.2220273467206
 20
95.57261731753395
 30
0.0
 10
425.5468016809108
 20
95.68638652776816
 30
0.0
 10
424.8706100698712
 20
95.80813420163655
 30
0.0
 10
424.1936301972663
 20
95.93772389058915
 30
0.0
 10
423.5248705214768
 20
96.06574004273295
 30
0.0
 10
422.8553414392252
 20
96.20140897069635
 30
0.0
 10
422.1852568490265
 20
96.34457279017634
 30
0.0
 10
421.5065790898049
 20
96.48957254338275
 30
0.0
 10
420.8273314193856
 20
96.64226067571974
 30
0.0
 10
420.1477829217097
 20
96.80244486424836
 30
0.0
 10
419.4537917475546
 20
96.96603350208414
 30
0.0
 10
418.7594869292103
 20
97.13744017108554
 30
0.0
 10
418.0652027352097
 20
97.31643109129175
 30
0.0
 10
417.3544333862242
 20
97.49967199023314
 30
0.0
 10
416.6436857722709
 20
97.69086153086874
 30
0.0
 10
415.9333662651779
 20
97.88971956067493
 30
0.0
 10
415.2022031878338
 20
98.09441286780775
 30
0.0
 10
414.471493830774
 20
98.30723127229356
 30
0.0
 10
413.7417295918158
 20
98.52783917645475
 30
0.0
 10
412.978849985991
 20
98.75845786394875
 30
0.0
 10
412.2170034412035
 20
98.99758897063616
 30
0.0
 10
411.4568011298992
 20
99.24481730491556
 30
0.0
 10
410.6500735237772
 20
99.50717631029214
 30
0.0
 10
409.8451979108486
 20
99.77865389776515
 30
0.0
 10
409.0429551371005
 20
100.0587200604934
 30
0.0
 10
408.1712589845445
 20
100.3630326757017
 30
0.0
 10
407.3026718069302
 20
100.6774852146147
 30
0.0
 10
406.4382465439156
 20
101.0013604172964
 30
0.0
 10
405.4584775891514
 20
101.368451572984
 30
0.0
 10
404.4840563372273
 20
101.7476476107013
 30
0.0
 10
403.5165670156388
 20
102.1378598897004
 30
0.0
 10
402.263544607226
 20
102.6432346971668
 30
0.0
 10
401.0221534082872
 20
103.1670874759276
 30
0.0
 10
399.7958806988262
 20
103.7069820119922
 30
0.0
 10
398.8241750665372
 20
104.1347975847343
 30
0.0
 10
397.8619650681514
 20
104.5726834887774
 30
0.0
 10
396.9109617060736
 20
105.0194159506027
 30
0.0
 10
396.0767368865718
 20
105.4112918599767
 30
0.0
 10
395.2511363043283
 20
105.8099743469774
 30
0.0
 10
394.4352749173057
 20
106.2146443750994
 30
0.0
 10
393.6930409019909
 20
106.582794975959
 30
0.0
 10
392.9588679228402
 20
106.9559008657485
 30
0.0
 10
392.2335525684102
 20
107.3333582089823
 30
0.0
 10
391.5519629204978
 20
107.6880604996554
 30
0.0
 10
390.8781953856866
 20
108.0466051960047
 30
0.0
 10
390.2128668959287
 20
108.4085067585423
 30
0.0
 10
389.5747312893339
 20
108.755616910434
 30
0.0
 10
388.9443591689321
 20
109.105815002123
 30
0.0
 10
388.3222497974585
 20
109.4586898145222
 30
0.0
 10
387.7208805993464
 20
109.799800321287
 30
0.0
 10
387.1272325446513
 20
110.1434119413314
 30
0.0
 10
386.5417112767517
 20
110.4891713605398
 30
0.0
 10
385.9728931129312
 20
110.8250673368947
 30
0.0
 10
385.4117448114092
 20
111.1629902310037
 30
0.0
 10
384.858592766462
 20
111.5026349454914
 30
0.0
 10
384.3210448530646
 20
111.8326984591978
 30
0.0
 10
383.7910485237859
 20
112.1643879465036
 30
0.0
 10
383.2688581264833
 20
112.4974425937497
 30
0.0
 10
382.7624528211315
 20
112.8204294606255
 30
0.0
 10
382.2633887942551
 20
113.1447001177085
 30
0.0
 10
381.7718530103328
 20
113.4700361897917
 30
0.0
 10
381.2932601185618
 20
113.7868056634062
 30
0.0
 10
380.821804350076
 20
114.1045851113654
 30
0.0
 10
380.3576130390261
 20
114.4231928609099
 30
0.0
 10
379.9042062804095
 20
114.7343983995581
 30
0.0
 10
379.4577304576457
 20
115.0463941367307
 30
0.0
 10
379.0182587971801
 20
115.359030996714
 30
0.0
 10
378.5856400979403
 20
115.6667927112171
 30
0.0
 10
378.1598089459649
 20
115.9751756421773
 30
0.0
 10
377.7407888037372
 20
116.2840584304126
 30
0.0
 10
377.3185172125277
 20
116.5953380404855
 30
0.0
 10
376.9031626949424
 20
116.9071253006392
 30
0.0
 10
376.4947008780961
 20
117.2193179662869
 30
0.0
 10
376.0819504857503
 20
117.5347884458253
 30
0.0
 10
375.6762382318827
 20
117.8506728972039
 30
0.0
 10
375.2774906419619
 20
118.1668880230282
 30
0.0
 10
374.8743283756939
 20
118.4866040789442
 30
0.0
 10
374.4782857803748
 20
118.8066581806543
 30
0.0
 10
374.089238695269
 20
119.1269866816576
 30
0.0
 10
373.6955695906591
 20
119.4511208006337
 30
0.0
 10
373.3090631357901
 20
119.7755358858504
 30
0.0
 10
372.9295425653647
 20
120.1001887290138
 30
0.0
 10
372.5297826202375
 20
120.442154917099
 30
0.0
 10
372.1377736104217
 20
120.784384818925
 30
0.0
 10
371.7532547946047
 20
121.1268539844564
 30
0.0
 10
371.3584276381766
 20
121.4785042060551
 30
0.0
 10
370.9714973622535
 20
121.8304067826475
 30
0.0
 10
370.5921282614131
 20
122.1825616513026
 30
0.0
 10
370.1954197348028
 20
122.5508120933479
 30
0.0
 10
369.8069791059958
 20
122.9193384668941
 30
0.0
 10
369.4263689090376
 20
123.2881682185256
 30
0.0
 10
369.0247520744602
 20
123.6773544214495
 30
0.0
 10
368.6318535162407
 20
124.066878483292
 30
0.0
 10
368.2471056246619
 20
124.4568017576624
 30
0.0
 10
367.8387715408462
 20
124.8706284906568
 30
0.0
 10
367.439617678328
 20
125.2849049286766
 30
0.0
 10
367.0489129690685
 20
125.6997353308451
 30
0.0
 10
366.6257027822056
 20
126.1490783969954
 30
0.0
 10
366.2124055406247
 20
126.5990714671406
 30
0.0
 10
365.8080395767782
 20
127.0498819339698
 30
0.0
 10
365.346739488829
 20
127.5641658415926
 30
0.0
 10
364.8970615870293
 20
128.0795134625366
 30
0.0
 10
364.4574958458364
 20
128.5962179734437
 30
0.0
 10
363.9820908414014
 20
129.155051129169
 30
0.0
 10
363.5185101395782
 20
129.7154725575795
 30
0.0
 10
363.0648266504626
 20
130.2778941583675
 30
0.0
 10
362.6736756796303
 20
130.7627955498509
 30
0.0
 10
362.2898794579112
 20
131.249185129255
 30
0.0
 10
361.912233817381
 20
131.7373366181736
 30
0.0
 10
361.5581910293841
 20
132.1949786390347
 30
0.0
 10
361.2095527360377
 20
132.6541698804411
 30
0.0
 10
360.8653786901666
 20
133.1151320038909
 30
0.0
 10
360.5427155221623
 20
133.5472839946252
 30
0.0
 10
360.2239757570626
 20
133.9809926687009
 30
0.0
 10
359.9084418131709
 20
134.4164311073866
 30
0.0
 10
359.6126287407724
 20
134.8246546436544
 30
0.0
 10
359.3196332638332
 20
135.2343986017034
 30
0.0
 10
359.0289175930793
 20
135.645794514083
 30
0.0
 10
358.7563076090885
 20
136.0315688096234
 30
0.0
 10
358.485702388712
 20
136.4187957531989
 30
0.0
 10
358.2167065291485
 20
136.8075725797733
 30
0.0
 10
357.9444723848894
 20
137.2010296644364
 30
0.0
 10
357.6738864454524
 20
137.5960742325926
 30
0.0
 10
357.4045920110274
 20
137.9927937988256
 30
0.0
 10
357.1288450984272
 20
138.3990190362327
 30
0.0
 10
356.8544524615475
 20
138.8070004585597
 30
0.0
 10
356.5810856530173
 20
139.2168183777874
 30
0.0
 10
356.300288633629
 20
139.6377752994779
 30
0.0
 10
356.0205741241585
 20
140.0606698582907
 30
0.0
 10
355.7416407505336
 20
140.4855755717319
 30
0.0
 10
355.4547318357506
 20
140.9226306130283
 30
0.0
 10
355.1686495676614
 20
141.3618134006605
 30
0.0
 10
354.8831201678635
 20
141.8031906947872
 30
0.0
 10
354.591205055738
 20
142.2544391560521
 30
0.0
 10
354.2998679545542
 20
142.7079813485274
 30
0.0
 10
354.0088693208155
 20
143.1638757484259
 30
0.0
 10
353.7109681730995
 20
143.6305840048261
 30
0.0
 10
353.4134218872651
 20
144.099757350411
 30
0.0
 10
353.1160263209686
 20
144.5714456351951
 30
0.0
 10
352.805716978595
 20
145.0636159902523
 30
0.0
 10
352.4955717653332
 20
145.5585244362913
 30
0.0
 10
352.1854144701469
 20
146.0562139326946
 30
0.0
 10
351.8630763297728
 20
146.5734492492392
 30
0.0
 10
351.5407253921085
 20
147.093688284154
 30
0.0
 10
351.2182207338254
 20
147.6169652262928
 30
0.0
 10
351.1664072564331
 20
147.7010347034774
 30
0.0
 10
351.1145898198406
 20
147.7851825913986
 30
0.0
 10
351.0627680426203
 20
147.8694089819741
 30
0.0
  0
ENDSEC
  0
SECTION
  2
OBJECTS
  0
DICTIONARY
  5
C
330
0
100
AcDbDictionary
  3
ACAD_GROUP
350
D
  3
ACAD_LAYOUT
350
1A
  3
ACAD_MATERIAL
350
43
  3
ACAD_MLEADERSTYLE
350
13A
  3
ACAD_MLINESTYLE
350
17
  3
ACAD_PLOTSETTINGS
350
19
  3
ACAD_SCALELIST
350
47
  3
ACAD_VISUALSTYLE
350
2A
  3
ACDBHEADERROUNDTRIPXREC
350
119
  3
ACDBVARIABLEDICTIONARY
350
6C
  3
ONSHAPE_DATA
350
D2
  0
DICTIONARY
  5
73
330
72
100
AcDbDictionary
280
     1
  3
ONSHAPE_VIEW_ID
360
74
  0
DICTIONARY
  5
D
102
{ACAD_REACTORS
330
C
102
}
330
C
100
AcDbDictionary
  0
DICTIONARY
  5
1A
102
{ACAD_REACTORS
330
C
102
}
330
C
100
AcDbDictionary
  0
DICTIONARY
  5
43
102
{ACAD_REACTORS
330
C
102
}
330
C
100
AcDbDictionary
  3
BYBLOCK
350
45
  3
BYLAYER
350
44
  3
GLOBAL
350
46
  0
DICTIONARY
  5
13A
102
{ACAD_REACTORS
330
C
102
}
330
C
100
AcDbDictionary
  0
DICTIONARY
  5
17
102
{ACAD_REACTORS
330
C
102
}
330
C
100
AcDbDictionary
  3
STANDARD
350
18
  0
DICTIONARY
  5
19
102
{ACAD_REACTORS
330
C
102
}
330
C
100
AcDbDictionary
  0
DICTIONARY
  5
47
102
{ACAD_REACTORS
330
C
102
}
330
C
100
AcDbDictionary
  3
A0
350
48
  3
A1
350
49
  3
A2
350
4A
  3
A3
350
4B
  3
A4
350
4C
  3
A5
350
4D
  3
A6
350
4E
  3
A7
350
4F
  3
A8
350
50
  3
A9
350
51
  3
B0
350
52
  3
B1
350
53
  3
B2
350
54
  3
B3
350
55
  3
B4
350
56
  3
B5
350
57
  3
B6
350
58
  3
B7
350
59
  3
B8
350
5A
  3
B9
350
5B
  3
C0
350
5C
  3
C1
350
5D
  3
C2
350
5E
  3
C3
350
5F
  3
C4
350
60
  3
C5
350
61
  3
C6
350
62
  3
C7
350
63
  3
C8
350
64
  3
C9
350
65
  3
D0
350
66
  3
D1
350
67
  3
D2
350
68
  0
DICTIONARY
  5
2A
102
{ACAD_REACTORS
330
C
102
}
330
C
100
AcDbDictionary
  3
2DWIREFRAME
350
2F
  3
BASIC
350
32
  3
BRIGHTEN
350
36
  3
COLORCHANGE
350
3A
  3
CONCEPTUAL
350
34
  3
DIM
350
35
  3
EDGECOLOROFF
350
3D
  3
FACEPATTERN
350
39
  3
FLAT
350
2B
  3
FLATWITHEDGES
350
2C
  3
GOURAUD
350
2D
  3
GOURAUDWITHEDGES
350
2E
  3
HIDDEN
350
31
  3
JITTEROFF
350
3B
  3
LINEPATTERN
350
38
  3
OVERHANGOFF
350
3C
  3
REALISTIC
350
33
  3
SHADED
350
42
  3
SHADED_WITH_EDGES
350
41
  3
SHADES_OF_GRAY
350
3E
  3
SKETCHY
350
3F
  3
THICKEN
350
37
  3
WIREFRAME
350
30
  3
X-RAY
350
40
  0
DICTIONARY
  5
119
102
{ACAD_REACTORS
330
C
102
}
330
C
100
AcDbDictionary
  3
CEPSNTYPE
350
122
  3
DIMSTYLEDATA
350
138
  3
FINGERPRINTGUID
350
123
  3
HYPERLINKBASE
350
11C
  3
INSUNITS
350
121
  3
LAYOUTDICT
350
11E
  3
LWETCUNION
350
120
  3
PLOTSETDICT
350
11F
  3
PSVPSCALE
350
125
  3
PUCSBASE
350
128
  3
PUCSORGBACK
350
12E
  3
PUCSORGBOTTOM
350
12A
  3
PUCSORGFRONT
350
12D
  3
PUCSORGLEFT
350
12B
  3
PUCSORGRIGHT
350
12C
  3
PUCSORGTOP
350
129
  3
PUCSORTHOREF
350
126
  3
PUCSORTHOVIEW
350
127
  3
STYLESHEET
350
11D
  3
TSTACKALIGN
350
11A
  3
TSTACKSIZE
350
11B
  3
UCSBASE
350
131
  3
UCSORGBACK
350
137
  3
UCSORGBOTTOM
350
133
  3
UCSORGFRONT
350
136
  3
UCSORGLEFT
350
134
  3
UCSORGRIGHT
350
135
  3
UCSORGTOP
350
132
  3
UCSORTHOREF
350
12F
  3
UCSORTHOVIEW
350
130
  3
VERSIONGUID
350
124
  0
DICTIONARY
  5
6C
102
{ACAD_REACTORS
330
C
102
}
330
C
100
AcDbDictionary
  3
CANNOSCALE
350
141
  3
CTABLESTYLE
350
139
  3
DIMASSOC
350
13F
  3
HIDETEXT
350
140
  3
MSLTSCALE
350
142
  3
OLEFRAME
350
6D
  3
PSOLHEIGHT
350
13C
  3
PSOLWIDTH
350
13B
  0
DICTIONARY
  5
D2
102
{ACAD_REACTORS
330
C
102
}
330
C
100
AcDbDictionary
280
     1
  3
DIM_UNITS
360
D3
  3
ONSHAPE_ANG_TOL_PRECISION
360
D6
  3
ONSHAPE_VSHARP_EXTENSION
360
D5
  3
ONSHAPE_WELD_STANDARD
360
D4
  0
XRECORD
  5
74
102
{ACAD_REACTORS
330
73
102
}
330
73
100
AcDbXrecord
330
0
  0
MATERIAL
  5
45
102
{ACAD_REACTORS
330
43
102
}
102
{ACAD_XDICTIONARY
360
145
102
}
330
43
100
AcDbMaterial
  1
BYBLOCK
  0
MATERIAL
  5
44
102
{ACAD_REACTORS
330
43
102
}
102
{ACAD_XDICTIONARY
360
143
102
}
330
43
100
AcDbMaterial
  1
BYLAYER
  0
MATERIAL
  5
46
102
{ACAD_REACTORS
330
43
102
}
102
{ACAD_XDICTIONARY
360
147
102
}
330
43
100
AcDbMaterial
  1
GLOBAL
  0
MLINESTYLE
  5
18
102
{ACAD_REACTORS
330
17
102
}
330
17
100
AcDbMlineStyle
  2
Standard
 70
     0
  3

 62
   256
 51
90.0
 52
90.0
 71
     2
 49
0.5
 62
   256
  6
BYLAYER
 49
-0.5
 62
   256
  6
BYLAYER
  0
ACAD_PROXY_OBJECT
  5
48
102
{ACAD_REACTORS
330
47
102
}
330
47
100
AcDbProxyObject
 90
      499
 91
      503
 93
       41
310
903313A31580
  0
ACAD_PROXY_OBJECT
  5
49
102
{ACAD_REACTORS
330
47
102
}
330
47
100
AcDbProxyObject
 90
      499
 91
      503
 93
      105
310
903313A324000000000000004000
  0
ACAD_PROXY_OBJECT
  5
4A
102
{ACAD_REACTORS
330
47
102
}
330
47
100
AcDbProxyObject
 90
      499
 91
      503
 93
      105
310
903313A344000000000000104000
  0
ACAD_PROXY_OBJECT
  5
4B
102
{ACAD_REACTORS
330
47
102
}
330
47
100
AcDbProxyObject
 90
      499
 91
      503
 93
      105
310
903313A354000000000000144000
  0
ACAD_PROXY_OBJECT
  5
4C
102
{ACAD_REACTORS
330
47
102
}
330
47
100
AcDbProxyObject
 90
      499
 91
      503
 93
      105
310
903313A384000000000000204000
  0
ACAD_PROXY_OBJECT
  5
4D
102
{ACAD_REACTORS
330
47
102
}
330
47
100
AcDbProxyObject
 90
      499
 91
      503
 93
      113
310
904313A31304000000000000244000
  0
ACAD_PROXY_OBJECT
  5
4E
102
{ACAD_REACTORS
330
47
102
}
330
47
100
AcDbProxyObject
 90
      499
 91
      503
 93
      113
310
904313A31364000000000000304000
  0
ACAD_PROXY_OBJECT
  5
4F
102
{ACAD_REACTORS
330
47
102
}
330
47
100
AcDbProxyObject
 90
      499
 91
      503
 93
      113
310
904313A32304000000000000344000
  0
ACAD_PROXY_OBJECT
  5
50
102
{ACAD_REACTORS
330
47
102
}
330
47
100
AcDbProxyObject
 90
      499
 91
      503
 93
      113
310
904313A333040000000000003E4000
  0
ACAD_PROXY_OBJECT
  5
51
102
{ACAD_REACTORS
330
47
102
}
330
47
100
AcDbProxyObject
 90
      499
 91
      503
 93
      113
310
904313A34304000000000000444000
  0
ACAD_PROXY_OBJECT
  5
52
102
{ACAD_REACTORS
330
47
102
}
330
47
100
AcDbProxyObject
 90
      499
 91
      503
 93
      113
310
904313A35304000000000000494000
  0
ACAD_PROXY_OBJECT
  5
53
102
{ACAD_REACTORS
330
47
102
}
330
47
100
AcDbProxyObject
 90
      499
 91
      503
 93
      121
310
905313A3130304000000000000594000
  0
ACAD_PROXY_OBJECT
  5
54
102
{ACAD_REACTORS
330
47
102
}
330
47
100
AcDbProxyObject
 90
      499
 91
      503
 93
      105
310
903323A310000000000000010100
  0
ACAD_PROXY_OBJECT
  5
55
102
{ACAD_REACTORS
330
47
102
}
330
47
100
AcDbProxyObject
 90
      499
 91
      503
 93
      105
310
903343A310000000000000410100
  0
ACAD_PROXY_OBJECT
  5
56
102
{ACAD_REACTORS
330
47
102
}
330
47
100
AcDbProxyObject
 90
      499
 91
      503
 93
      105
310
903383A310000000000000810100
  0
ACAD_PROXY_OBJECT
  5
57
102
{ACAD_REACTORS
330
47
102
}
330
47
100
AcDbProxyObject
 90
      499
 91
      503
 93
      113
310
90431303A310000000000000910100
  0
ACAD_PROXY_OBJECT
  5
58
102
{ACAD_REACTORS
330
47
102
}
330
47
100
AcDbProxyObject
 90
      499
 91
      503
 93
      121
310
9053130303A310000000000001650100
  0
ACAD_PROXY_OBJECT
  5
59
102
{ACAD_REACTORS
330
47
102
}
330
47
100
AcDbProxyObject
 90
      499
 91
      503
 93
      257
310
90E312F31323822203D2031272D3022000000000000200FC000000000000284000
  0
ACAD_PROXY_OBJECT
  5
5A
102
{ACAD_REACTORS
330
47
102
}
330
47
100
AcDbProxyObject
 90
      499
 91
      503
 93
      249
310
90D312F363422203D2031272D3022000000000000240FC000000000000284000
  0
ACAD_PROXY_OBJECT
  5
5B
102
{ACAD_REACTORS
330
47
102
}
330
47
100
AcDbProxyObject
 90
      499
 91
      503
 93
      249
310
90D312F333222203D2031272D3022000000000000280FC000000000000284000
  0
ACAD_PROXY_OBJECT
  5
5C
102
{ACAD_REACTORS
330
47
102
}
330
47
100
AcDbProxyObject
 90
      499
 91
      503
 93
      249
310
90D312F313622203D2031272D30220000000000002C0FC000000000000284000
  0
ACAD_PROXY_OBJECT
  5
5D
102
{ACAD_REACTORS
330
47
102
}
330
47
100
AcDbProxyObject
 90
      499
 91
      503
 93
      249
310
90D332F333222203D2031272D30220000000000002E0FC000000000000284000
  0
ACAD_PROXY_OBJECT
  5
5E
102
{ACAD_REACTORS
330
47
102
}
330
47
100
AcDbProxyObject
 90
      499
 91
      503
 93
      241
310
90C312F3822203D2031272D3022000000000000300FC000000000000284000
  0
ACAD_PROXY_OBJECT
  5
5F
102
{ACAD_REACTORS
330
47
102
}
330
47
100
AcDbProxyObject
 90
      499
 91
      503
 93
      249
310
90D332F313622203D2031272D3022000000000000320FC000000000000284000
  0
ACAD_PROXY_OBJECT
  5
60
102
{ACAD_REACTORS
330
47
102
}
330
47
100
AcDbProxyObject
 90
      499
 91
      503
 93
      241
310
90C312F3422203D2031272D3022000000000000340FC000000000000284000
  0
ACAD_PROXY_OBJECT
  5
61
102
{ACAD_REACTORS
330
47
102
}
330
47
100
AcDbProxyObject
 90
      499
 91
      503
 93
      241
310
90C332F3822203D2031272D3022000000000000360FC000000000000284000
  0
ACAD_PROXY_OBJECT
  5
62
102
{ACAD_REACTORS
330
47
102
}
330
47
100
AcDbProxyObject
 90
      499
 91
      503
 93
      241
310
90C312F3222203D2031272D3022000000000000380FC000000000000284000
  0
ACAD_PROXY_OBJECT
  5
63
102
{ACAD_REACTORS
330
47
102
}
330
47
100
AcDbProxyObject
 90
      499
 91
      503
 93
      241
310
90C332F3422203D2031272D30220000000000003A0FC000000000000284000
  0
ACAD_PROXY_OBJECT
  5
64
102
{ACAD_REACTORS
330
47
102
}
330
47
100
AcDbProxyObject
 90
      499
 91
      503
 93
      161
310
90A3122203D2031272D30224000000000000284000
  0
ACAD_PROXY_OBJECT
  5
65
102
{ACAD_REACTORS
330
47
102
}
330
47
100
AcDbProxyObject
 90
      499
 91
      503
 93
      257
310
90E312D312F3222203D2031272D30220000000000003E0FC000000000000284000
  0
ACAD_PROXY_OBJECT
  5
66
102
{ACAD_REACTORS
330
47
102
}
330
47
100
AcDbProxyObject
 90
      499
 91
      503
 93
      225
310
90A3322203D2031272D302200000000000002100000000000000284000
  0
ACAD_PROXY_OBJECT
  5
67
102
{ACAD_REACTORS
330
47
102
}
330
47
100
AcDbProxyObject
 90
      499
 91
      503
 93
      225
310
90A3622203D2031272D302200000000000006100000000000000284000
  0
ACAD_PROXY_OBJECT
  5
68
102
{ACAD_REACTORS
330
47
102
}
330
47
100
AcDbProxyObject
 90
      499
 91
      503
 93
      249
310
90D31272D3022203D2031272D30220000000000000A100000000000000284000
  0
ACAD_PROXY_OBJECT
  5
2F
102
{ACAD_REACTORS
330
2A
102
}
330
2A
100
AcDbProxyObject
 90
      499
 91
      501
 93
      436
310
42CC9915DA5C99599C985B595049028333333333333E33F0000000000000F90107901411070040501600405405064090741402480A0340
1001
ACAD
1000
AcDbSavedByObjectVersion
1070
     0
  0
ACAD_PROXY_OBJECT
  5
32
102
{ACAD_REACTORS
330
2A
102
}
330
2A
100
AcDbProxyObject
 90
      499
 91
      501
 93
      388
310
4150985CDA58D07406404333333333333E33F0000000000000F90107A41107004050150841D405064090741402480A0350
1001
ACAD
1000
AcDbSavedByObjectVersion
1070
     0
  0
ACAD_PROXY_OBJECT
  5
36
102
{ACAD_REACTORS
330
2A
102
}
330
2A
100
AcDbProxyObject
 90
      499
 91
      501
 93
      428
310
42109C9A59DA1D195B90C409028333333333333E33F0000000000000F9010790141107004050150841D405064090741402480A029950
1001
ACAD
1000
AcDbSavedByObjectVersion
1070
     0
  0
ACAD_PROXY_OBJECT
  5
3A
102
{ACAD_REACTORS
330
2A
102
}
330
2A
100
AcDbProxyObject
 90
      499
 91
      501
 93
      452
310
42D0DBDB1BDC90DA185B99D95104090240C333333333333E33F0000000000000F90108901411070040501508421405064090741402480A0350
1001
ACAD
1000
AcDbSavedByObjectVersion
1070
     0
  0
ACAD_PROXY_OBJECT
  5
34
102
{ACAD_REACTORS
330
2A
102
}
330
2A
100
AcDbProxyObject
 90
      499
 91
      501
 93
      500
310
4290DBDB98D95C1D1D585B10940D028333333333333E33F0000000000000F90107902409070040501000000000018199010841D405064090740C02480A0340
1001
ACAD
1000
AcDbSavedByObjectVersion
1070
     0
  0
ACAD_PROXY_OBJECT
  5
35
102
{ACAD_REACTORS
330
2A
102
}
330
2A
100
AcDbProxyObject
 90
      499
 91
      501
 93
      412
310
40D11A5B50B409028333333333333E33F0000000000000F9010790141107004050150841D405064090741402480A02677FFFFFD0
1001
ACAD
1000
AcDbSavedByObjectVersion
1070
     0
  0
ACAD_PROXY_OBJECT
  5
3D
102
{ACAD_REACTORS
330
2A
102
}
330
2A
100
AcDbProxyObject
 90
      499
 91
      501
 93
      452
310
43115919D950DBDB1BDC93D999916409028333333333333E33F0000000000000F9010790141107004050150841D405064090741402480A0350
1001
ACAD
1000
AcDbSavedByObjectVersion
1070
     0
  0
ACAD_PROXY_OBJECT
  5
39
102
{ACAD_REACTORS
330
2A
102
}
330
2A
100
AcDbProxyObject
 90
      499
 91
      501
 93
      444
310
42D19858D95C185D1D195C9B90F409028333333333333E33F0000000000000F9010790141107004050150841D405064090741402480A0350
1001
ACAD
1000
AcDbSavedByObjectVersion
1070
     0
  0
ACAD_PROXY_OBJECT
  5
2B
102
{ACAD_REACTORS
330
2A
102
}
330
2A
100
AcDbProxyObject
 90
      499
 91
      501
 93
      380
310
41119B185D240901404333333333333E33F0000000000000F9010740A907004050150841D405064090741402480A1B50
1001
ACAD
1000
AcDbSavedByObjectVersion
1070
     0
  0
ACAD_PROXY_OBJECT
  5
2C
102
{ACAD_REACTORS
330
2A
102
}
330
2A
100
AcDbProxyObject
 90
      499
 91
      501
 93
      468
310
43519B185D15DA5D1A115919D95CD0140901404333333333333E33F0000000000000F90107409019070040501600405405064090741402480A1B50
1001
ACAD
1000
AcDbSavedByObjectVersion
1070
     0
  0
ACAD_PROXY_OBJECT
  5
2D
102
{ACAD_REACTORS
330
2A
102
}
330
2A
100
AcDbProxyObject
 90
      499
 91
      501
 93
      404
310
41D1DBDD5C985D5910240902404333333333333E33F0000000000000F9010740A9070040501641D405064090741402480A1B50
1001
ACAD
1000
AcDbSavedByObjectVersion
1070
     0
  0
ACAD_PROXY_OBJECT
  5
2E
102
{ACAD_REACTORS
330
2A
102
}
330
2A
100
AcDbProxyObject
 90
      499
 91
      501
 93
      492
310
4411DBDD5C985D5915DA5D1A115919D95CD0340902404333333333333E33F0000000000000F90107409019070040501600405405064090741402480A1B50
1001
ACAD
1000
AcDbSavedByObjectVersion
1070
     0
  0
ACAD_PROXY_OBJECT
  5
31
102
{ACAD_REACTORS
330
2A
102
}
330
2A
100
AcDbProxyObject
 90
      499
 91
      501
 93
      476
310
41921A5919195B90640502408333333333333E33F0000000000000F901079024090700405020000000000001110200405405064090740C02480A0340
1001
ACAD
1000
AcDbSavedByObjectVersion
1070
     0
  0
ACAD_PROXY_OBJECT
  5
3B
102
{ACAD_REACTORS
330
2A
102
}
330
2A
100
AcDbProxyObject
 90
      499
 91
      501
 93
      428
310
42529A5D1D195C93D999914409028333333333333E33F0000000000000F9010790141107004050150A41D405064090741402480A0350
1001
ACAD
1000
AcDbSavedByObjectVersion
1070
     0
  0
ACAD_PROXY_OBJECT
  5
38
102
{ACAD_REACTORS
330
2A
102
}
330
2A
100
AcDbProxyObject
 90
      499
 91
      501
 93
      444
310
42D31A5B995C185D1D195C9B90E409028333333333333E33F0000000000000F9010790141107004050750841D405064090741402483A0350
1001
ACAD
1000
AcDbSavedByObjectVersion
1070
     0
  0
ACAD_PROXY_OBJECT
  5
3C
102
{ACAD_REACTORS
330
2A
102
}
330
2A
100
AcDbProxyObject
 90
      499
 91
      501
 93
      444
310
42D3DD995C9A185B99D3D999915409028333333333333E33F0000000000000F9010790141107004050150941D405064090741402480A0350
1001
ACAD
1000
AcDbSavedByObjectVersion
1070
     0
  0
ACAD_PROXY_OBJECT
  5
33
102
{ACAD_REACTORS
330
2A
102
}
330
2A
100
AcDbProxyObject
 90
      499
 91
      501
 93
      428
310
425499585B1A5CDD1A58D08409038333333333333E33F0000000000000F9010740A907004050150800405405064090740C02480A1B40
1001
ACAD
1000
AcDbSavedByObjectVersion
1070
     0
  0
ACAD_PROXY_OBJECT
  5
42
102
{ACAD_REACTORS
330
2A
102
}
330
2A
100
AcDbProxyObject
 90
      499
 91
      501
 93
      420
310
4194DA1859195911B40902404333333333333E33F0000000000000F9010740A41107004050150800405405064090840C02480A0B40
1001
ACAD
1000
AcDbSavedByObjectVersion
1070
     0
  0
ACAD_PROXY_OBJECT
  5
41
102
{ACAD_REACTORS
330
2A
102
}
330
2A
100
AcDbProxyObject
 90
      499
 91
      501
 93
      516
310
4454DA18591959081DDA5D1A08195919D95CD1A40902404333333333333E33F0000000000000F901074090142907004050250800405405064090740C02480A0B40
1001
ACAD
1000
AcDbSavedByObjectVersion
1070
     0
  0
ACAD_PROXY_OBJECT
  5
3E
102
{ACAD_REACTORS
330
2A
102
}
330
2A
100
AcDbProxyObject
 90
      499
 91
      501
 93
      532
310
4394DA1859195CC81BD98811DC985E5174090240C333333333333E33F0000000000000F901079024090741D01000000000000111010841D405064090740C02480A0340
1001
ACAD
1000
AcDbSavedByObjectVersion
1070
     0
  0
ACAD_PROXY_OBJECT
  5
3F
102
{ACAD_REACTORS
330
2A
102
}
330
2A
100
AcDbProxyObject
 90
      499
 91
      501
 93
      476
310
41D4DAD95D18DA1E51840502408333333333333E33F0000000000000F901079024090741D01000000000000111010B41D405064090741802480A0340
1001
ACAD
1000
AcDbSavedByObjectVersion
1070
     0
  0
ACAD_PROXY_OBJECT
  5
37
102
{ACAD_REACTORS
330
2A
102
}
330
2A
100
AcDbProxyObject
 90
      499
 91
      501
 93
      412
310
41D51A1A58DAD95B90D409028333333333333E33F0000000000000F9010790141107004050150C41D405064090741402480A0350
1001
ACAD
1000
AcDbSavedByObjectVersion
1070
     0
  0
ACAD_PROXY_OBJECT
  5
30
102
{ACAD_REACTORS
330
2A
102
}
330
2A
100
AcDbProxyObject
 90
      499
 91
      501
 93
      420
310
4255DA5C99599C985B595059028333333333333E33F0000000000000F90107901411070040501600405405064090740C02480A0340
1001
ACAD
1000
AcDbSavedByObjectVersion
1070
     0
  0
ACAD_PROXY_OBJECT
  5
40
102
{ACAD_REACTORS
330
2A
102
}
330
2A
100
AcDbProxyObject
 90
      499
 91
      501
 93
      404
310
41560B54985E51940902404000000000000E03F0000000000000F9010740501907004050150841D405064090740C02480A1B40
1001
ACAD
1000
AcDbSavedByObjectVersion
1070
     0
  0
XRECORD
  5
122
102
{ACAD_REACTORS
330
119
102
}
330
119
100
AcDbXrecord
 90
        0
  0
XRECORD
  5
138
102
{ACAD_REACTORS
330
119
102
}
330
119
100
AcDbXrecord
1000
DSTYLE
1002
{
1070
   179
 70
     1
1070
   143
 40
0.03937
1070
   285
 70
     8
1070
   176
 70
     7
1070
   177
 70
     7
1070
   178
 70
     7
1070
   371
 70
    13
1070
   372
 70
    13
1070
   272
 70
     3
1070
   340
340
71
1070
   288
 70
     1
1002
}
  0
XRECORD
  5
123
102
{ACAD_REACTORS
330
119
102
}
330
119
100
AcDbXrecord
  1
{7646D060-CA17-FE23-C1C0-C84DE8E180B7}
  0
XRECORD
  5
11C
102
{ACAD_REACTORS
330
119
102
}
330
119
100
AcDbXrecord
  1

  0
XRECORD
  5
121
102
{ACAD_REACTORS
330
119
102
}
330
119
100
AcDbXrecord
 90
        4
  0
XRECORD
  5
11E
102
{ACAD_REACTORS
330
119
102
}
330
119
100
AcDbXrecord
340
1A
  0
XRECORD
  5
120
102
{ACAD_REACTORS
330
119
102
}
330
119
100
AcDbXrecord
 90
    10269
  0
XRECORD
  5
11F
102
{ACAD_REACTORS
330
119
102
}
330
119
100
AcDbXrecord
340
19
  0
XRECORD
  5
125
102
{ACAD_REACTORS
330
119
102
}
330
119
100
AcDbXrecord
 40
0.0
  0
XRECORD
  5
128
102
{ACAD_REACTORS
330
119
102
}
330
119
100
AcDbXrecord
340
0
  0
XRECORD
  5
12E
102
{ACAD_REACTORS
330
119
102
}
330
119
100
AcDbXrecord
 10
0.0
 20
0.0
 30
0.0
  0
XRECORD
  5
12A
102
{ACAD_REACTORS
330
119
102
}
330
119
100
AcDbXrecord
 10
0.0
 20
0.0
 30
0.0
  0
XRECORD
  5
12D
102
{ACAD_REACTORS
330
119
102
}
330
119
100
AcDbXrecord
 10
0.0
 20
0.0
 30
0.0
  0
XRECORD
  5
12B
102
{ACAD_REACTORS
330
119
102
}
330
119
100
AcDbXrecord
 10
0.0
 20
0.0
 30
0.0
  0
XRECORD
  5
12C
102
{ACAD_REACTORS
330
119
102
}
330
119
100
AcDbXrecord
 10
0.0
 20
0.0
 30
0.0
  0
XRECORD
  5
129
102
{ACAD_REACTORS
330
119
102
}
330
119
100
AcDbXrecord
 10
0.0
 20
0.0
 30
0.0
  0
XRECORD
  5
126
102
{ACAD_REACTORS
330
119
102
}
330
119
100
AcDbXrecord
340
0
  0
XRECORD
  5
127
102
{ACAD_REACTORS
330
119
102
}
330
119
100
AcDbXrecord
 70
     0
  0
XRECORD
  5
11D
102
{ACAD_REACTORS
330
119
102
}
330
119
100
AcDbXrecord
  1

  0
XRECORD
  5
11A
102
{ACAD_REACTORS
330
119
102
}
330
119
100
AcDbXrecord
 90
        1
  0
XRECORD
  5
11B
102
{ACAD_REACTORS
330
119
102
}
330
119
100
AcDbXrecord
 90
       70
  0
XRECORD
  5
131
102
{ACAD_REACTORS
330
119
102
}
330
119
100
AcDbXrecord
340
0
  0
XRECORD
  5
137
102
{ACAD_REACTORS
330
119
102
}
330
119
100
AcDbXrecord
 10
0.0
 20
0.0
 30
0.0
  0
XRECORD
  5
133
102
{ACAD_REACTORS
330
119
102
}
330
119
100
AcDbXrecord
 10
0.0
 20
0.0
 30
0.0
  0
XRECORD
  5
136
102
{ACAD_REACTORS
330
119
102
}
330
119
100
AcDbXrecord
 10
0.0
 20
0.0
 30
0.0
  0
XRECORD
  5
134
102
{ACAD_REACTORS
330
119
102
}
330
119
100
AcDbXrecord
 10
0.0
 20
0.0
 30
0.0
  0
XRECORD
  5
135
102
{ACAD_REACTORS
330
119
102
}
330
119
100
AcDbXrecord
 10
0.0
 20
0.0
 30
0.0
  0
XRECORD
  5
132
102
{ACAD_REACTORS
330
119
102
}
330
119
100
AcDbXrecord
 10
0.0
 20
0.0
 30
0.0
  0
XRECORD
  5
12F
102
{ACAD_REACTORS
330
119
102
}
330
119
100
AcDbXrecord
340
0
  0
XRECORD
  5
130
102
{ACAD_REACTORS
330
119
102
}
330
119
100
AcDbXrecord
 70
     0
  0
XRECORD
  5
124
102
{ACAD_REACTORS
330
119
102
}
330
119
100
AcDbXrecord
  1
{FAEB1C32-E019-11D5-929B-00C0DF256EC4}
  0
DICTIONARYVAR
  5
141
102
{ACAD_REACTORS
330
6C
102
}
330
6C
100
DictionaryVariables
280
     0
  1
1:1
  0
DICTIONARYVAR
  5
139
102
{ACAD_REACTORS
330
6C
102
}
330
6C
100
DictionaryVariables
280
     0
  1
Onshape-Standard
  0
DICTIONARYVAR
  5
13F
102
{ACAD_REACTORS
330
6C
102
}
330
6C
100
DictionaryVariables
280
     0
  1
2
  0
DICTIONARYVAR
  5
140
102
{ACAD_REACTORS
330
6C
102
}
330
6C
100
DictionaryVariables
280
     0
  1
1
  0
DICTIONARYVAR
  5
142
102
{ACAD_REACTORS
330
6C
102
}
330
6C
100
DictionaryVariables
280
     0
  1
1
  0
DICTIONARYVAR
  5
6D
102
{ACAD_REACTORS
330
6C
102
}
330
6C
100
DictionaryVariables
280
     0
  1
0
  0
DICTIONARYVAR
  5
13C
102
{ACAD_REACTORS
330
6C
102
}
330
6C
100
DictionaryVariables
280
     0
  1
80.000000
  0
DICTIONARYVAR
  5
13B
102
{ACAD_REACTORS
330
6C
102
}
330
6C
100
DictionaryVariables
280
     0
  1
5.000000
  0
XRECORD
  5
D3
102
{ACAD_REACTORS
330
D2
102
}
330
D2
100
AcDbXrecord
 70
     4
  0
XRECORD
  5
D6
102
{ACAD_REACTORS
330
D2
102
}
330
D2
100
AcDbXrecord
 90
        0
  0
XRECORD
  5
D5
102
{ACAD_REACTORS
330
D2
102
}
330
D2
100
AcDbXrecord
 90
        0
  0
XRECORD
  5
D4
102
{ACAD_REACTORS
330
D2
102
}
330
D2
100
AcDbXrecord
 90
        1
  0
DICTIONARY
  5
145
330
45
100
AcDbDictionary
280
     1
  3
ACAD_XREC_ROUNDTRIP
360
146
  0
DICTIONARY
  5
143
330
44
100
AcDbDictionary
280
     1
  3
ACAD_XREC_ROUNDTRIP
360
144
  0
DICTIONARY
  5
147
330
46
100
AcDbDictionary
280
     1
  3
ACAD_XREC_ROUNDTRIP
360
148
  0
XRECORD
  5
146
102
{ACAD_REACTORS
330
145
102
}
330
145
100
AcDbXrecord
102
MATERIAL
148
0.0
149
0.0
149
0.0
 93
        0
 94
      127
282
     0
 72
     1
 77
     1
171
     1
175
     1
179
     1
273
     0
  0
XRECORD
  5
144
102
{ACAD_REACTORS
330
143
102
}
330
143
100
AcDbXrecord
102
MATERIAL
148
0.0
149
0.0
149
0.0
 93
        0
 94
      127
282
     0
 72
     1
 77
     1
171
     1
175
     1
179
     1
273
     0
  0
XRECORD
  5
148
102
{ACAD_REACTORS
330
147
102
}
330
147
100
AcDbXrecord
102
MATERIAL
148
0.0
149
0.0
149
0.0
 93
        0
 94
      127
282
     0
 72
     1
 77
     1
171
     1
175
     1
179
     1
273
     0
  0
ENDSEC
  0
EOF
