  0
SECTION
  2
HEADER
  9
$ACADVER
  1
AC1014
  9
$ACADMAINTVER
 70
     9
  9
$DWGCODEPAGE
  3
ANSI_1252
  9
$INSBASE
 10
0.0
 20
0.0
 30
0.0
  9
$EXTMIN
 10
1.000000000000000E+20
 20
1.000000000000000E+20
 30
1.000000000000000E+20
  9
$EXTMAX
 10
-1.000000000000000E+20
 20
-1.000000000000000E+20
 30
-1.000000000000000E+20
  9
$LIMMIN
 10
0.0
 20
0.0
  9
$LIMMAX
 10
420.0
 20
297.0
  9
$ORTHOMODE
 70
     0
  9
$REGENMODE
 70
     1
  9
$FILLMODE
 70
     1
  9
$QTEXTMODE
 70
     0
  9
$MIRRTEXT
 70
     1
  9
$DRAGMODE
 70
     2
  9
$LTSCALE
 40
12.7
  9
$OSMODE
 70
    23
  9
$ATTMODE
 70
     1
  9
$TEXTSIZE
 40
3.5
  9
$TRACEWID
 40
1.0
  9
$TEXTSTYLE
  7
ONSHAPE-STANDARD
  9
$CLAYER
  8
0
  9
$CELTYPE
  6
BYLAYER
  9
$CECOLOR
 62
   256
  9
$CELTSCALE
 40
1.0
  9
$DELOBJ
 70
     1
  9
$DISPSILH
 70
     0
  9
$DIMSCALE
 40
1.0
  9
$DIMASZ
 40
2.5
  9
$DIMEXO
 40
0.625
  9
$DIMDLI
 40
3.75
  9
$DIMRND
 40
0.0
  9
$DIMDLE
 40
0.0
  9
$DIMEXE
 40
1.25
  9
$DIMTP
 40
0.0
  9
$DIMTM
 40
0.0
  9
$DIMTXT
 40
2.5
  9
$DIMCEN
 40
2.5
  9
$DIMTSZ
 40
0.0
  9
$DIMTOL
 70
     0
  9
$DIMLIM
 70
     0
  9
$DIMTIH
 70
     0
  9
$DIMTOH
 70
     0
  9
$DIMSE1
 70
     0
  9
$DIMSE2
 70
     0
  9
$DIMTAD
 70
     1
  9
$DIMZIN
 70
     8
  9
$DIMBLK
  1

  9
$DIMASO
 70
     1
  9
$DIMSHO
 70
     1
  9
$DIMPOST
  1

  9
$DIMAPOST
  1

  9
$DIMALT
 70
     0
  9
$DIMALTD
 70
     3
  9
$DIMALTF
 40
0.03937
  9
$DIMLFAC
 40
1.0
  9
$DIMTOFL
 70
     1
  9
$DIMTVP
 40
0.0
  9
$DIMTIX
 70
     0
  9
$DIMSOXD
 70
     0
  9
$DIMSAH
 70
     0
  9
$DIMBLK1
  1

  9
$DIMBLK2
  1

  9
$DIMSTYLE
  2
ONSHAPE-ISO-25
  9
$DIMCLRD
 70
     7
  9
$DIMCLRE
 70
     7
  9
$DIMCLRT
 70
     7
  9
$DIMTFAC
 40
1.0
  9
$DIMGAP
 40
0.625
  9
$DIMJUST
 70
     0
  9
$DIMSD1
 70
     0
  9
$DIMSD2
 70
     0
  9
$DIMTOLJ
 70
     0
  9
$DIMTZIN
 70
     8
  9
$DIMALTZ
 70
     8
  9
$DIMALTTZ
 70
     0
  9
$DIMFIT
 70
     3
  9
$DIMUPT
 70
     1
  9
$DIMUNIT
 70
     2
  9
$DIMDEC
 70
     2
  9
$DIMTDEC
 70
     3
  9
$DIMALTU
 70
     2
  9
$DIMALTTD
 70
     3
  9
$DIMTXSTY
  7
ONSHAPE-STANDARD-DIMENSION
  9
$DIMAUNIT
 70
     0
  9
$LUNITS
 70
     2
  9
$LUPREC
 70
     4
  9
$SKETCHINC
 40
1.0
  9
$FILLETRAD
 40
10.0
  9
$AUNITS
 70
     0
  9
$AUPREC
 70
     0
  9
$MENU
  1
.
  9
$ELEVATION
 40
0.0
  9
$PELEVATION
 40
0.0
  9
$THICKNESS
 40
0.0
  9
$LIMCHECK
 70
     0
  9
$CHAMFERA
 40
0.0
  9
$CHAMFERB
 40
0.0
  9
$CHAMFERC
 40
0.0
  9
$CHAMFERD
 40
0.0
  9
$SKPOLY
 70
     0
  9
$TDCREATE
 40
2458999.760659711
  9
$TDUPDATE
 40
2458999.760659711
  9
$TDINDWG
 40
0.0
  9
$TDUSRTIMER
 40
0.0
  9
$USRTIMER
 70
     1
  9
$ANGBASE
 50
0.0
  9
$ANGDIR
 70
     0
  9
$PDMODE
 70
     0
  9
$PDSIZE
 40
0.0
  9
$PLINEWID
 40
0.0
  9
$COORDS
 70
     1
  9
$SPLFRAME
 70
     0
  9
$SPLINETYPE
 70
     6
  9
$SPLINESEGS
 70
     8
  9
$ATTDIA
 70
     0
  9
$ATTREQ
 70
     1
  9
$HANDLING
 70
     1
  9
$HANDSEED
  5
142
  9
$SURFTAB1
 70
     6
  9
$SURFTAB2
 70
     6
  9
$SURFTYPE
 70
     6
  9
$SURFU
 70
     6
  9
$SURFV
 70
     6
  9
$UCSNAME
  2

  9
$UCSORG
 10
0.0
 20
0.0
 30
0.0
  9
$UCSXDIR
 10
1.0
 20
0.0
 30
0.0
  9
$UCSYDIR
 10
0.0
 20
1.0
 30
0.0
  9
$PUCSNAME
  2

  9
$PUCSORG
 10
0.0
 20
0.0
 30
0.0
  9
$PUCSXDIR
 10
1.0
 20
0.0
 30
0.0
  9
$PUCSYDIR
 10
0.0
 20
1.0
 30
0.0
  9
$USERI1
 70
     0
  9
$USERI2
 70
     0
  9
$USERI3
 70
     0
  9
$USERI4
 70
     0
  9
$USERI5
 70
     0
  9
$USERR1
 40
0.0
  9
$USERR2
 40
0.0
  9
$USERR3
 40
0.0
  9
$USERR4
 40
0.0
  9
$USERR5
 40
0.0
  9
$WORLDVIEW
 70
     1
  9
$SHADEDGE
 70
     3
  9
$SHADEDIF
 70
    70
  9
$TILEMODE
 70
     1
  9
$MAXACTVP
 70
    64
  9
$PINSBASE
 10
0.0
 20
0.0
 30
0.0
  9
$PLIMCHECK
 70
     0
  9
$PEXTMIN
 10
1.000000000000000E+20
 20
1.000000000000000E+20
 30
1.000000000000000E+20
  9
$PEXTMAX
 10
-1.000000000000000E+20
 20
-1.000000000000000E+20
 30
-1.000000000000000E+20
  9
$PLIMMIN
 10
0.0
 20
0.0
  9
$PLIMMAX
 10
420.0
 20
297.0
  9
$UNITMODE
 70
     0
  9
$VISRETAIN
 70
     1
  9
$PLINEGEN
 70
     0
  9
$PSLTSCALE
 70
     1
  9
$TREEDEPTH
 70
  3020
  9
$PICKSTYLE
 70
     1
  9
$CMLSTYLE
  2
STANDARD
  9
$CMLJUST
 70
     0
  9
$CMLSCALE
 40
20.0
  9
$PROXYGRAPHICS
 70
     1
  9
$MEASUREMENT
 70
     1
  0
ENDSEC
  0
SECTION
  2
CLASSES
  0
CLASS
  1
ACDBDICTIONARYWDFLT
  2
AcDbDictionaryWithDefault
  3
ObjectDBX Classes
 90
        0
280
     0
281
     0
  0
CLASS
  1
VISUALSTYLE
  2
AcDbVisualStyle
  3
ObjectDBX Classes
 90
     4095
280
     0
281
     0
  0
CLASS
  1
MATERIAL
  2
AcDbMaterial
  3
ObjectDBX Classes
 90
     1153
280
     0
281
     0
  0
CLASS
  1
SCALE
  2
AcDbScale
  3
ObjectDBX Classes
 90
     1153
280
     0
281
     0
  0
CLASS
  1
SUN
  2
AcDbSun
  3
SCENEOE
 90
     1153
280
     0
281
     0
  0
CLASS
  1
TABLESTYLE
  2
AcDbTableStyle
  3
ObjectDBX Classes
 90
     4095
280
     0
281
     0
  0
CLASS
  1
DICTIONARYVAR
  2
AcDbDictionaryVar
  3
ObjectDBX Classes
 90
        0
280
     0
281
     0
  0
CLASS
  1
XRECORD
  2
AcDbXrecord
  3
ObjectDBX Classes
 90
        0
280
     0
281
     0
  0
CLASS
  1
LWPOLYLINE
  2
AcDbPolyline
  3
ObjectDBX Classes
 90
        0
280
     0
281
     1
  0
CLASS
  1
HATCH
  2
AcDbHatch
  3
ObjectDBX Classes
 90
        0
280
     0
281
     1
  0
CLASS
  1
ACDBPLACEHOLDER
  2
AcDbPlaceHolder
  3
ObjectDBX Classes
 90
        0
280
     0
281
     0
  0
CLASS
  1
LAYOUT
  2
AcDbLayout
  3
ObjectDBX Classes
 90
        0
280
     0
281
     0
  0
ENDSEC
  0
SECTION
  2
TABLES
  0
TABLE
  2
VPORT
  5
8
330
0
100
AcDbSymbolTable
 70
     1
  0
VPORT
  5
29
330
8
100
AcDbSymbolTableRecord
100
AcDbViewportTableRecord
  2
*ACTIVE
 70
     0
 10
0.0
 20
0.0
 11
1.0
 21
1.0
 12
430.215318454397
 22
210.1925779442958
 13
0.0
 23
0.0
 14
10.0
 24
10.0
 15
10.0
 25
10.0
 16
0.0
 26
0.0
 36
1.0
 17
0.0
 27
0.0
 37
0.0
 40
233.9801130810656
 41
1.03035525442398
 42
50.0
 43
0.0
 44
0.0
 50
0.0
 51
0.0
 71
     0
 72
   100
 73
     1
 74
     3
 75
     0
 76
     0
 77
     0
 78
     0
  0
ENDTAB
  0
TABLE
  2
LTYPE
  5
5
330
0
100
AcDbSymbolTable
 70
     1
  0
LTYPE
  5
14
330
5
100
AcDbSymbolTableRecord
100
AcDbLinetypeTableRecord
  2
BYBLOCK
 70
     0
  3

 72
    65
 73
     0
 40
0.0
  0
LTYPE
  5
15
330
5
100
AcDbSymbolTableRecord
100
AcDbLinetypeTableRecord
  2
BYLAYER
 70
     0
  3

 72
    65
 73
     0
 40
0.0
  0
LTYPE
  5
16
330
5
100
AcDbSymbolTableRecord
100
AcDbLinetypeTableRecord
  2
CONTINUOUS
 70
     0
  3
Solid line
 72
    65
 73
     0
 40
0.0
  0
ENDTAB
  0
TABLE
  2
LAYER
  5
2
330
0
100
AcDbSymbolTable
 70
     4
  0
LAYER
  5
10
330
2
100
AcDbSymbolTableRecord
100
AcDbLayerTableRecord
  2
0
 70
     0
 62
     7
  6
CONTINUOUS
  0
LAYER
  5
6E
330
2
100
AcDbSymbolTableRecord
100
AcDbLayerTableRecord
  2
DEFPOINTS
 70
     0
 62
     7
  6
CONTINUOUS
  0
LAYER
  5
75
330
2
100
AcDbSymbolTableRecord
100
AcDbLayerTableRecord
  2
ANNOTATION_TEXT
 70
     0
 62
     7
  6
CONTINUOUS
  0
LAYER
  5
78
330
2
100
AcDbSymbolTableRecord
100
AcDbLayerTableRecord
  2
VISIBLE
 70
     0
 62
     7
  6
CONTINUOUS
  0
ENDTAB
  0
TABLE
  2
STYLE
  5
3
330
0
100
AcDbSymbolTable
 70
    27
  0
STYLE
  5
11
330
3
100
AcDbSymbolTableRecord
100
AcDbTextStyleTableRecord
  2
STANDARD
 70
     0
 40
0.0
 41
1.0
 50
0.0
 71
     0
 42
3.5
  3
txt
  4

  0
STYLE
  5
6F
330
3
100
AcDbSymbolTableRecord
100
AcDbTextStyleTableRecord
  2
ONSHAPE-STANDARD
 70
     0
 40
0.0
 41
1.0
 50
0.0
 71
     0
 42
3.5
  3
NotoSans-Regular.ttf
  4

1001
ACAD
1000
Noto Sans
1071
        0
  0
STYLE
  5
71
330
3
100
AcDbSymbolTableRecord
100
AcDbTextStyleTableRecord
  2
ONSHAPE-STANDARD-DIMENSION
 70
     0
 40
0.0
 41
1.0
 50
0.0
 71
     0
 42
3.5
  3

  4

1001
ACAD
1000
Noto Sans
1071
        0
  0
STYLE
  5
77
330
3
100
AcDbSymbolTableRecord
100
AcDbTextStyleTableRecord
  2
ONSHAPE-STANDARD-VIEW-LABE
 70
     0
 40
2.5
 41
1.0
 50
0.0
 71
     0
 42
3.5
  3
Noto Sans
  4

1001
ACAD
1000
Noto Sans
1071
        0
  0
STYLE
  5
D2
330
3
100
AcDbSymbolTableRecord
100
AcDbTextStyleTableRecord
  2
ONSHAPE-STANDARD-BOLD
 70
     0
 40
0.0
 41
1.0
 50
0.0
 71
     0
 42
3.5
  3
NotoSans-Bold.ttf
  4

1001
ACAD
1000
Noto Sans
1071
 33554432
  0
STYLE
  5
D3
330
3
100
AcDbSymbolTableRecord
100
AcDbTextStyleTableRecord
  2
ONSHAPE-STANDARD-FIELDS
 70
     0
 40
0.0
 41
1.0
 50
0.0
 71
     0
 42
3.5
  3

  4

1001
ACAD
1000
Noto Sans
1071
        0
  0
STYLE
  5
D4
330
3
100
AcDbSymbolTableRecord
100
AcDbTextStyleTableRecord
  2
ONSHAPE-STANDARD-TCFIELDS
 70
     0
 40
0.0
 41
1.0
 50
0.0
 71
     0
 42
3.5
  3
NotoSansTC-Regular.otf
  4

1001
ACAD
1000
Noto Sans TC
1071
        0
  0
STYLE
  5
D5
330
3
100
AcDbSymbolTableRecord
100
AcDbTextStyleTableRecord
  2
ONSHAPE-STANDARD-SCFIELDS
 70
     0
 40
0.0
 41
1.0
 50
0.0
 71
     0
 42
3.5
  3
NotoSansSC-Regular.otf
  4

1001
ACAD
1000
Noto Sans SC
1071
        0
  0
STYLE
  5
D6
330
3
100
AcDbSymbolTableRecord
100
AcDbTextStyleTableRecord
  2
ONSHAPE-STANDARD-KOREANFIE
 70
     0
 40
0.0
 41
1.0
 50
0.0
 71
     0
 42
3.5
  3
NotoSansKR-Regular.otf
  4

1001
ACAD
1000
Noto Sans KR
1071
        0
  0
STYLE
  5
D8
330
3
100
AcDbSymbolTableRecord
100
AcDbTextStyleTableRecord
  2
TTFSTYLE
 70
     0
 40
0.0
 41
1.0
 50
0.0
 71
     0
 42
3.5
  3
Verdana.ttf
  4

1001
ACAD
1000
Verdana
1071
       34
  0
STYLE
  5
D9
330
3
100
AcDbSymbolTableRecord
100
AcDbTextStyleTableRecord
  2
ONSHAPE-STANDARD-GTOLERANC
 70
     0
 40
2.5
 41
1.0
 50
0.0
 71
     0
 42
3.5
  3

  4

1001
ACAD
1000
Noto Sans
1071
        0
  0
STYLE
  5
DA
330
3
100
AcDbSymbolTableRecord
100
AcDbTextStyleTableRecord
  2
ONSHAPE-STANDARD-TABLE-DAT
 70
     0
 40
0.0
 41
1.0
 50
0.0
 71
     0
 42
3.5
  3
Noto Sans
  4

1001
ACAD
1000
Noto Sans
1071
        0
  0
STYLE
  5
DB
330
3
100
AcDbSymbolTableRecord
100
AcDbTextStyleTableRecord
  2
ONSHAPE-STANDARD-TABLE-TIT
 70
     0
 40
0.0
 41
1.0
 50
0.0
 71
     0
 42
3.5
  3
Noto Sans
  4

1001
ACAD
1000
Noto Sans
1071
 33554432
  0
STYLE
  5
DC
330
3
100
AcDbSymbolTableRecord
100
AcDbTextStyleTableRecord
  2
ONSHAPE-STANDARD-TABLE-HEA
 70
     0
 40
0.0
 41
1.0
 50
0.0
 71
     0
 42
3.5
  3
Noto Sans
  4

1001
ACAD
1000
Noto Sans
1071
 33554432
  0
STYLE
  5
DD
330
3
100
AcDbSymbolTableRecord
100
AcDbTextStyleTableRecord
  2
ONSHAPE-STANDARD-BOMTABLE-
 70
     0
 40
0.0
 41
1.0
 50
0.0
 71
     0
 42
3.5
  3
Noto Sans
  4

1001
ACAD
1000
Noto Sans
1071
        0
  0
STYLE
  5
DE
330
3
100
AcDbSymbolTableRecord
100
AcDbTextStyleTableRecord
  2
ONSHAPE-STANDARD-BOMTABLE0
 70
     0
 40
0.0
 41
1.0
 50
0.0
 71
     0
 42
3.5
  3
Noto Sans
  4

1001
ACAD
1000
Noto Sans
1071
 33554432
  0
STYLE
  5
DF
330
3
100
AcDbSymbolTableRecord
100
AcDbTextStyleTableRecord
  2
ONSHAPE-STANDARD-BOMTABLE1
 70
     0
 40
0.0
 41
1.0
 50
0.0
 71
     0
 42
3.5
  3
Noto Sans
  4

1001
ACAD
1000
Noto Sans
1071
 33554432
  0
STYLE
  5
E0
330
3
100
AcDbSymbolTableRecord
100
AcDbTextStyleTableRecord
  2
ONSHAPE-STANDARD-NOTESTYLE
 70
     0
 40
2.5
 41
1.0
 50
0.0
 71
     0
 42
3.5
  3
Noto Sans
  4

1001
ACAD
1000
Noto Sans
1071
        0
  0
STYLE
  5
E2
330
3
100
AcDbSymbolTableRecord
100
AcDbTextStyleTableRecord
  2
ONSHAPE-STANDARD-HOLE-CALL
 70
     0
 40
2.5
 41
1.0
 50
0.0
 71
     0
 42
3.5
  3
Noto Sans
  4

1001
ACAD
1000
Noto Sans
1071
        0
  0
STYLE
  5
E3
330
3
100
AcDbSymbolTableRecord
100
AcDbTextStyleTableRecord
  2
ONSHAPE-STANDARD-HOLETABLE
 70
     0
 40
0.0
 41
1.0
 50
0.0
 71
     0
 42
3.5
  3
Noto Sans
  4

1001
ACAD
1000
Noto Sans
1071
        0
  0
STYLE
  5
E4
330
3
100
AcDbSymbolTableRecord
100
AcDbTextStyleTableRecord
  2
ONSHAPE-STANDARD-HOLETABL0
 70
     0
 40
0.0
 41
1.0
 50
0.0
 71
     0
 42
3.5
  3
Noto Sans
  4

1001
ACAD
1000
Noto Sans
1071
 33554432
  0
STYLE
  5
E5
330
3
100
AcDbSymbolTableRecord
100
AcDbTextStyleTableRecord
  2
ONSHAPE-STANDARD-HOLETABL1
 70
     0
 40
0.0
 41
1.0
 50
0.0
 71
     0
 42
3.5
  3
Noto Sans
  4

1001
ACAD
1000
Noto Sans
1071
 33554432
  0
STYLE
  5
E6
330
3
100
AcDbSymbolTableRecord
100
AcDbTextStyleTableRecord
  2
ONSHAPE-STANDARD-HOLE-TAG
 70
     0
 40
2.0
 41
1.0
 50
0.0
 71
     0
 42
3.5
  3
Noto Sans
  4

1001
ACAD
1000
Noto Sans
1071
        0
  0
STYLE
  5
E7
330
3
100
AcDbSymbolTableRecord
100
AcDbTextStyleTableRecord
  2
ONSHAPE-STANDARD-REVISIONT
 70
     0
 40
0.0
 41
1.0
 50
0.0
 71
     0
 42
3.5
  3
Noto Sans
  4

1001
ACAD
1000
Noto Sans
1071
        0
  0
STYLE
  5
E8
330
3
100
AcDbSymbolTableRecord
100
AcDbTextStyleTableRecord
  2
ONSHAPE-STANDARD-REVISION0
 70
     0
 40
0.0
 41
1.0
 50
0.0
 71
     0
 42
3.5
  3
Noto Sans
  4

1001
ACAD
1000
Noto Sans
1071
 33554432
  0
STYLE
  5
E9
330
3
100
AcDbSymbolTableRecord
100
AcDbTextStyleTableRecord
  2
ONSHAPE-STANDARD-REVISION1
 70
     0
 40
0.0
 41
1.0
 50
0.0
 71
     0
 42
3.5
  3
Noto Sans
  4

1001
ACAD
1000
Noto Sans
1071
 33554432
  0
STYLE
  5
EA
330
3
100
AcDbSymbolTableRecord
100
AcDbTextStyleTableRecord
  2
ONSHAPE-STANDARD-REVISION-
 70
     0
 40
2.0
 41
1.0
 50
0.0
 71
     0
 42
3.5
  3
Noto Sans
  4

1001
ACAD
1000
Noto Sans
1071
        0
  0
ENDTAB
  0
TABLE
  2
VIEW
  5
6
330
0
100
AcDbSymbolTable
 70
     0
  0
ENDTAB
  0
TABLE
  2
UCS
  5
7
330
0
100
AcDbSymbolTable
 70
     0
  0
ENDTAB
  0
TABLE
  2
APPID
  5
9
330
0
100
AcDbSymbolTable
 70
     1
  0
APPID
  5
12
330
9
100
AcDbSymbolTableRecord
100
AcDbRegAppTableRecord
  2
ACAD
 70
     0
  0
ENDTAB
  0
TABLE
  2
DIMSTYLE
  5
A
330
0
100
AcDbSymbolTable
 70
    18
  0
DIMSTYLE
105
27
330
A
100
AcDbSymbolTableRecord
100
AcDbDimStyleTableRecord
  2
ISO-25
 70
     0
  3

  4

  5

  6

  7

 40
1.0
 41
2.5
 42
0.625
 43
3.75
 44
1.25
 45
0.0
 46
0.0
 47
0.0
 48
0.0
140
2.5
141
2.5
142
0.0
143
0.03937007874016
144
1.0
145
0.0
146
1.0
147
0.625
 71
     0
 72
     0
 73
     0
 74
     0
 75
     0
 76
     0
 77
     1
 78
     8
170
     0
171
     3
172
     1
173
     0
174
     0
175
     0
176
     0
177
     0
178
     0
270
     2
271
     2
272
     2
273
     2
274
     3
340
11
275
     0
280
     0
281
     0
282
     0
283
     0
284
     8
285
     0
286
     0
287
     3
288
     0
  0
DIMSTYLE
105
70
330
A
100
AcDbSymbolTableRecord
100
AcDbDimStyleTableRecord
  2
ONSHAPE-ISO-25
 70
     0
  3

  4

  5

  6

  7

 40
1.0
 41
2.5
 42
0.625
 43
3.75
 44
1.25
 45
0.0
 46
0.0
 47
0.0
 48
0.0
140
2.5
141
2.5
142
0.0
143
0.03937
144
1.0
145
0.0
146
1.0
147
0.625
 71
     0
 72
     0
 73
     0
 74
     0
 75
     0
 76
     0
 77
     1
 78
     8
170
     0
171
     3
172
     1
173
     0
174
     0
175
     0
176
     7
177
     7
178
     7
179
     1
270
     2
271
     2
272
     3
273
     2
274
     3
340
71
275
     0
280
     0
281
     0
282
     0
283
     0
284
     8
285
     8
286
     0
287
     3
288
     1
  0
DIMSTYLE
105
ED
330
A
100
AcDbSymbolTableRecord
100
AcDbDimStyleTableRecord
  2
ISO
 70
     0
  3

  4
"
  5

  6

  7

 40
1.0
 41
3.5
 42
1.0
 43
10.0
 44
1.0
 45
0.0
 46
0.0
 47
0.1
 48
0.1
140
2.5
141
0.0
142
0.0
143
0.03937
144
1.0
145
0.0
146
0.71
147
1.5
 71
     0
 72
     0
 73
     0
 74
     0
 75
     0
 76
     0
 77
     1
 78
     8
170
     0
171
     3
172
     1
173
     0
174
     0
175
     0
176
     7
177
     7
178
     7
270
     2
271
     2
272
     3
273
     2
274
     3
340
11
275
     0
280
     0
281
     0
282
     0
283
     0
284
     8
285
     8
286
     0
287
     3
288
     1
  0
DIMSTYLE
105
EE
330
A
100
AcDbSymbolTableRecord
100
AcDbDimStyleTableRecord
  2
ISO$3
 70
     0
  3

  4
"
  5

  6

  7

 40
1.0
 41
3.5
 42
1.0
 43
10.0
 44
1.0
 45
0.0
 46
0.0
 47
0.1
 48
0.1
140
2.5
141
0.0
142
0.0
143
0.03937
144
1.0
145
0.0
146
0.71
147
1.5
 71
     0
 72
     0
 73
     0
 74
     0
 75
     0
 76
     0
 77
     1
 78
     8
170
     0
171
     3
172
     0
173
     0
174
     0
175
     0
176
     7
177
     7
178
     7
270
     2
271
     2
272
     3
273
     2
274
     3
340
11
275
     0
280
     0
281
     0
282
     0
283
     0
284
     8
285
     8
286
     0
288
     1
  0
DIMSTYLE
105
EF
330
A
100
AcDbSymbolTableRecord
100
AcDbDimStyleTableRecord
  2
ISO$4
 70
     0
  3

  4
"
  5

  6

  7

 40
1.0
 41
3.5
 42
1.0
 43
10.0
 44
1.0
 45
0.0
 46
0.0
 47
0.1
 48
0.1
140
2.5
141
0.0
142
0.0
143
0.03937
144
1.0
145
0.0
146
0.71
147
1.5
 71
     0
 72
     0
 73
     0
 74
     0
 75
     0
 76
     0
 77
     1
 78
     8
170
     0
171
     3
172
     1
173
     0
174
     0
175
     0
176
     7
177
     7
178
     7
270
     2
271
     2
272
     3
273
     2
274
     3
340
11
275
     0
280
     0
281
     0
282
     0
283
     0
284
     8
285
     8
286
     0
287
     3
288
     1
  0
DIMSTYLE
105
F0
330
A
100
AcDbSymbolTableRecord
100
AcDbDimStyleTableRecord
  2
ISO$6
 70
     0
  3

  4
"
  5

  6

  7

 40
1.0
 41
0.5
 42
1.0
 43
10.0
 44
1.0
 45
0.0
 46
0.0
 47
0.1
 48
0.1
140
2.5
141
0.0
142
0.0
143
0.03937
144
1.0
145
0.0
146
0.71
147
1.5
 71
     0
 72
     0
 73
     0
 74
     0
 75
     0
 76
     0
 77
     0
 78
     8
170
     0
171
     3
172
     1
173
     0
174
     0
175
     0
176
     7
177
     7
178
     7
270
     2
271
     2
272
     3
273
     2
274
     3
340
11
275
     0
280
     0
281
     0
282
     0
283
     0
284
     8
285
     8
286
     0
287
     3
288
     1
  0
DIMSTYLE
105
F1
330
A
100
AcDbSymbolTableRecord
100
AcDbDimStyleTableRecord
  2
ISO$7
 70
     0
  3

  4
"
  5

  6

  7

 40
1.0
 41
3.5
 42
1.0
 43
10.0
 44
1.0
 45
0.0
 46
0.0
 47
0.1
 48
0.1
140
2.5
141
0.0
142
0.0
143
0.03937
144
1.0
145
0.0
146
0.71
147
1.5
 71
     0
 72
     0
 73
     0
 74
     0
 75
     0
 76
     0
 77
     1
 78
     8
170
     0
171
     3
172
     1
173
     0
174
     0
175
     0
176
     7
177
     7
178
     7
270
     2
271
     2
272
     3
273
     2
274
     3
340
11
275
     0
280
     0
281
     0
282
     0
283
     0
284
     8
285
     8
286
     0
287
     3
288
     1
  0
DIMSTYLE
105
F2
330
A
100
AcDbSymbolTableRecord
100
AcDbDimStyleTableRecord
  2
ISO$SF
 70
     0
  3

  4
"
  5

  6

  7

 40
1.0
 41
3.5
 42
1.0
 43
10.0
 44
1.0
 45
0.0
 46
0.0
 47
0.1
 48
0.1
140
2.5
141
0.0
142
0.0
143
0.03937
144
1.0
145
0.0
146
0.71
147
1.5
 71
     0
 72
     0
 73
     0
 74
     0
 75
     1
 76
     1
 77
     1
 78
     8
170
     0
171
     3
172
     1
173
     0
174
     0
175
     0
176
     7
177
     7
178
     7
270
     2
271
     2
272
     3
273
     2
274
     3
340
11
275
     0
280
     0
281
     0
282
     0
283
     0
284
     8
285
     8
286
     0
287
     3
288
     1
  0
DIMSTYLE
105
F3
330
A
100
AcDbSymbolTableRecord
100
AcDbDimStyleTableRecord
  2
ISO$SH
 70
     0
  3

  4
"
  5

  6

  7

 40
1.0
 41
3.5
 42
1.0
 43
10.0
 44
1.0
 45
0.0
 46
0.0
 47
0.1
 48
0.1
140
2.5
141
0.0
142
0.0
143
0.03937
144
1.0
145
0.0
146
0.71
147
1.5
 71
     0
 72
     0
 73
     0
 74
     0
 75
     1
 76
     1
 77
     1
 78
     8
170
     0
171
     3
172
     1
173
     0
174
     0
175
     0
176
     7
177
     7
178
     7
270
     2
271
     2
272
     3
273
     2
274
     3
340
11
275
     0
280
     0
281
     0
282
     0
283
     0
284
     8
285
     8
286
     0
287
     3
288
     1
  0
DIMSTYLE
105
F6
330
A
100
AcDbSymbolTableRecord
100
AcDbDimStyleTableRecord
  2
ONSHAPE-ISO-25$0
 70
     0
  3

  4

  5

  6

  7

 40
1.0
 41
2.5
 42
0.625
 43
3.75
 44
1.25
 45
0.0
 46
0.0
 47
0.0
 48
0.0
140
2.5
141
2.5
142
0.0
143
0.03937
144
1.0
145
0.0
146
1.0
147
0.625
 71
     0
 72
     0
 73
     0
 74
     0
 75
     0
 76
     0
 77
     1
 78
     8
170
     0
171
     3
172
     1
173
     0
174
     0
175
     0
176
     7
177
     7
178
     7
179
     1
270
     2
271
     2
272
     3
273
     2
274
     3
340
71
275
     0
280
     0
281
     0
282
     0
283
     0
284
     8
285
     8
286
     0
287
     3
288
     1
  0
DIMSTYLE
105
F7
330
A
100
AcDbSymbolTableRecord
100
AcDbDimStyleTableRecord
  2
ONSHAPE-ISO-25$2
 70
     0
  3

  4

  5

  6

  7

 40
1.0
 41
2.5
 42
0.625
 43
3.75
 44
1.25
 45
0.0
 46
0.0
 47
0.0
 48
0.0
140
2.5
141
2.5
142
0.0
143
0.03937
144
1.0
145
0.0
146
1.0
147
0.625
 71
     0
 72
     0
 73
     0
 74
     0
 75
     0
 76
     0
 77
     1
 78
     8
170
     0
171
     3
172
     1
173
     0
174
     0
175
     0
176
     7
177
     7
178
     7
179
     1
270
     2
271
     2
272
     3
273
     2
274
     3
340
71
275
     0
280
     0
281
     0
282
     0
283
     0
284
     8
285
     8
286
     0
287
     3
288
     1
  0
DIMSTYLE
105
F8
330
A
100
AcDbSymbolTableRecord
100
AcDbDimStyleTableRecord
  2
ONSHAPE-ISO-25$3
 70
     0
  3

  4

  5

  6

  7

 40
1.0
 41
2.5
 42
0.625
 43
3.75
 44
1.25
 45
0.0
 46
0.0
 47
0.0
 48
0.0
140
2.5
141
0.0
142
0.0
143
0.03937
144
1.0
145
0.0
146
1.0
147
0.625
 71
     0
 72
     0
 73
     0
 74
     0
 75
     0
 76
     0
 77
     1
 78
     8
170
     0
171
     3
172
     1
173
     0
174
     0
175
     0
176
     7
177
     7
178
     7
179
     1
270
     2
271
     2
272
     3
273
     2
274
     3
340
71
275
     0
280
     0
281
     0
282
     0
283
     0
284
     8
285
     8
286
     0
287
     3
288
     1
  0
DIMSTYLE
105
F9
330
A
100
AcDbSymbolTableRecord
100
AcDbDimStyleTableRecord
  2
ONSHAPE-ISO-25$4
 70
     0
  3

  4

  5

  6

  7

 40
1.0
 41
2.5
 42
0.625
 43
3.75
 44
1.25
 45
0.0
 46
0.0
 47
0.0
 48
0.0
140
2.5
141
0.0
142
0.0
143
0.03937
144
1.0
145
0.0
146
1.0
147
0.625
 71
     0
 72
     0
 73
     0
 74
     0
 75
     0
 76
     0
 77
     1
 78
     8
170
     0
171
     3
172
     1
173
     0
174
     0
175
     0
176
     7
177
     7
178
     7
179
     1
270
     2
271
     2
272
     3
273
     2
274
     3
340
71
275
     0
280
     0
281
     0
282
     0
283
     0
284
     8
285
     8
286
     0
287
     3
288
     1
  0
DIMSTYLE
105
FA
330
A
100
AcDbSymbolTableRecord
100
AcDbDimStyleTableRecord
  2
ONSHAPE-ISO-25$6
 70
     0
  3

  4

  5

  6

  7

 40
1.0
 41
0.5
 42
0.625
 43
3.75
 44
1.25
 45
0.0
 46
0.0
 47
0.0
 48
0.0
140
2.5
141
2.5
142
0.0
143
0.03937
144
1.0
145
0.0
146
1.0
147
0.625
 71
     0
 72
     0
 73
     0
 74
     0
 75
     0
 76
     0
 77
     1
 78
     8
170
     0
171
     3
172
     1
173
     0
174
     0
175
     0
176
     7
177
     7
178
     7
179
     1
270
     2
271
     2
272
     3
273
     2
274
     3
340
71
275
     0
280
     0
281
     0
282
     0
283
     0
284
     8
285
     8
286
     0
287
     3
288
     1
  0
DIMSTYLE
105
FB
330
A
100
AcDbSymbolTableRecord
100
AcDbDimStyleTableRecord
  2
ONSHAPE-ISO-25$7
 70
     0
  3

  4

  5

  6

  7

 40
1.0
 41
2.5
 42
0.625
 43
3.75
 44
1.25
 45
0.0
 46
0.0
 47
0.0
 48
0.0
140
2.5
141
2.5
142
0.0
143
0.03937
144
1.0
145
0.0
146
1.0
147
0.625
 71
     0
 72
     0
 73
     0
 74
     0
 75
     0
 76
     0
 77
     1
 78
     8
170
     0
171
     3
172
     1
173
     0
174
     0
175
     0
176
     7
177
     7
178
     7
179
     1
270
     2
271
     2
272
     3
273
     2
274
     3
340
71
275
     0
280
     0
281
     0
282
     0
283
     0
284
     8
285
     8
286
     0
287
     3
288
     1
  0
DIMSTYLE
105
FC
330
A
100
AcDbSymbolTableRecord
100
AcDbDimStyleTableRecord
  2
ONSHAPE-STANDARD-GTOLERANC
 70
     0
  3

  4

  5

  6

  7

 40
1.0
 41
2.5
 42
0.625
 43
3.75
 44
1.25
 45
0.0
 46
0.0
 47
0.0
 48
0.0
140
2.5
141
2.5
142
0.0
143
0.03937
144
1.0
145
0.0
146
1.0
147
0.625
 71
     0
 72
     0
 73
     0
 74
     0
 75
     0
 76
     0
 77
     1
 78
     8
170
     0
171
     3
172
     1
173
     0
174
     0
175
     0
176
     7
177
     7
178
     7
179
     1
270
     2
271
     2
272
     3
273
     2
274
     3
340
D9
275
     0
280
     0
281
     0
282
     0
283
     0
284
     8
285
     8
286
     0
287
     3
288
     1
  0
DIMSTYLE
105
FE
330
A
100
AcDbSymbolTableRecord
100
AcDbDimStyleTableRecord
  2
ONSHAPE-ORDINATESTYLE
 70
     0
  3

  4

  5

  6

  7

 40
1.0
 41
2.5
 42
0.625
 43
3.75
 44
1.25
 45
0.0
 46
0.0
 47
0.0
 48
0.0
140
2.5
141
2.5
142
0.0
143
0.03937
144
1.0
145
0.0
146
1.0
147
0.625
 71
     0
 72
     0
 73
     0
 74
     0
 75
     0
 76
     0
 77
     1
 78
     8
170
     0
171
     3
172
     1
173
     0
174
     0
175
     0
176
     7
177
     7
178
     7
179
     1
270
     2
271
     2
272
     3
273
     2
274
     3
340
71
275
     0
280
     0
281
     0
282
     0
283
     0
284
     8
285
     8
286
     0
287
     3
288
     1
  0
DIMSTYLE
105
FF
330
A
100
AcDbSymbolTableRecord
100
AcDbDimStyleTableRecord
  2
ONSHAPE-CHAMFERDIMSTYLE
 70
     0
  3

  4

  5

  6

  7

 40
1.0
 41
2.5
 42
0.625
 43
3.75
 44
1.25
 45
0.0
 46
0.0
 47
0.0
 48
0.0
140
2.5
141
2.5
142
0.0
143
0.03937
144
1.0
145
0.0
146
1.0
147
0.625
 71
     0
 72
     0
 73
     0
 74
     0
 75
     0
 76
     0
 77
     1
 78
     8
170
     0
171
     3
172
     1
173
     0
174
     0
175
     0
176
     7
177
     7
178
     7
179
     1
270
     2
271
     2
272
     3
273
     2
274
     3
340
71
275
     0
280
     0
281
     0
282
     0
283
     0
284
     8
285
     8
286
     0
287
     3
288
     1
  0
ENDTAB
  0
TABLE
  2
BLOCK_RECORD
  5
1
330
0
100
AcDbSymbolTable
 70
     1
  0
BLOCK_RECORD
  5
1F
330
1
100
AcDbSymbolTableRecord
100
AcDbBlockTableRecord
  2
*MODEL_SPACE
  0
BLOCK_RECORD
  5
1B
330
1
100
AcDbSymbolTableRecord
100
AcDbBlockTableRecord
  2
*PAPER_SPACE
  0
ENDTAB
  0
ENDSEC
  0
SECTION
  2
BLOCKS
  0
BLOCK
  5
20
330
1F
100
AcDbEntity
  8
0
100
AcDbBlockBegin
  2
*MODEL_SPACE
 70
     0
 10
0.0
 20
0.0
 30
0.0
  3
*MODEL_SPACE
  1

  0
ENDBLK
  5
21
330
1F
100
AcDbEntity
  8
0
100
AcDbBlockEnd
  0
BLOCK
  5
1C
330
1B
100
AcDbEntity
 67
     1
  8
0
100
AcDbBlockBegin
  2
*PAPER_SPACE
 70
     0
 10
0.0
 20
0.0
 30
0.0
  3
*PAPER_SPACE
  1

  0
ENDBLK
  5
1D
330
1B
100
AcDbEntity
 67
     1
  8
0
100
AcDbBlockEnd
  0
ENDSEC
  0
SECTION
  2
ENTITIES
  0
MTEXT
  5
72
102
{ACAD_XDICTIONARY
360
73
102
}
330
1F
100
AcDbEntity
  8
ANNOTATION_TEXT
 62
     7
 60
     1
100
AcDbMText
 10
430.2153184543971
 20
82.42866766221502
 30
0.0
 40
2.5
 41
0.0
 71
     2
 72
     1
  1

  7
ONSHAPE-STANDARD-VIEW-LABE
1001
ACAD
1000
ACAD_MTEXT_DEFINED_HEIGHT_BEGIN
1070
    46
1040
2.5
1000
ACAD_MTEXT_DEFINED_HEIGHT_END
  0
CIRCLE
  5
7A
330
1F
100
AcDbEntity
  8
VISIBLE
100
AcDbCircle
 10
415.7531980306593
 20
157.0143494168362
 30
0.0
 40
3.2
  0
CIRCLE
  5
7B
330
1F
100
AcDbEntity
  8
VISIBLE
100
AcDbCircle
 10
445.2339100619703
 20
136.3530905459707
 30
0.0
 40
3.2
  0
ARC
  5
7C
330
1F
100
AcDbEntity
  8
VISIBLE
100
AcDbCircle
 10
475.4041541557472
 20
143.8485836863359
 30
0.0
 40
10.0
100
AcDbArc
 50
176.3877999611896
 51
239.9999999999218
  0
LINE
  5
7D
330
1F
100
AcDbEntity
  8
VISIBLE
100
AcDbLine
 10
472.2641503378246
 20
134.1144603520814
 30
0.0
 11
470.4041541557372
 21
135.1883296485015
 31
0.0
  0
SPLINE
  5
7E
330
1F
100
AcDbEntity
  8
VISIBLE
100
AcDbSpline
210
0.0
220
0.0
230
1.0
 70
     8
 71
     3
 72
    17
 73
    13
 74
     0
 42
0.000000001
 43
0.0000000384049984
 40
0.0
 40
0.0
 40
0.0
 40
0.0
 40
1.11225926461569
 40
1.11225926461569
 40
1.11225926461569
 40
1.66838889692353
 40
1.66838889692353
 40
1.66838889692353
 40
2.78064816153922
 40
2.78064816153922
 40
2.78064816153922
 40
3.8929074261549
 40
3.8929074261549
 40
3.8929074261549
 40
3.8929074261549
 10
472.2641503378346
 20
134.1144603520714
 30
0.0
 10
475.4669146757794
 20
132.2653434994081
 30
0.0
 10
479.0268826680129
 20
131.0393637930837
 30
0.0
 10
482.6880688644977
 20
130.5179292347061
 30
0.0
 10
484.5186619627402
 20
130.2572119555174
 30
0.0
 10
486.3745596120455
 20
130.1726309633154
 30
0.0
 10
488.2212699894212
 20
130.2661744305713
 30
0.0
 10
491.9146907441726
 20
130.4532613650827
 30
0.0
 10
495.5713624112056
 20
131.3528461374252
 30
0.0
 10
498.927965514943
 20
132.9033949573553
 30
0.0
 10
502.2845686186803
 20
134.4539437772854
 30
0.0
 10
505.341103159122
 20
136.6554566448031
 30
0.0
 10
507.8764826098589
 20
139.3478131553706
 30
0.0
  0
SPLINE
  5
7F
330
1F
100
AcDbEntity
  8
VISIBLE
100
AcDbSpline
210
0.0
220
0.0
230
1.0
 70
     8
 71
     3
 72
    20
 73
    16
 74
     0
 42
0.000000001
 43
0.0000000426374335
 40
-0.5093032529261871
 40
-0.5093032529261871
 40
-0.5093032529261871
 40
-0.5093032529261871
 40
-0.505794035643945
 40
-0.505794035643945
 40
-0.505794035643945
 40
-0.47359063683898
 40
-0.47359063683898
 40
-0.47359063683898
 40
-0.451623816358583
 40
-0.451623816358583
 40
-0.451623816358583
 40
-0.426191694964288
 40
-0.426191694964288
 40
-0.426191694964288
 40
-0.420978548175434
 40
-0.420978548175434
 40
-0.420978548175434
 40
-0.420978548175434
 10
531.8771128868327
 20
189.6416206958496
 30
0.0
 10
531.7319538496997
 20
188.8516816480218
 30
0.0
 10
531.5774399305087
 20
188.0604471113703
 30
0.0
 10
531.4139242045708
 20
187.2674679651933
 30
0.0
 10
529.9133724547729
 20
179.9904538522229
 30
0.0
 10
527.6798200127798
 20
172.5851618802321
 30
0.0
 10
524.99512533879
 20
165.9560093805389
 30
0.0
 10
523.1638215591678
 20
161.4340828665127
 30
0.0
 10
521.1231370784805
 20
157.3075875976018
 30
0.0
 10
518.8667821727349
 20
153.5782127437701
 30
0.0
 10
516.2544836872648
 20
149.2605230675551
 30
0.0
 10
513.3145678357412
 20
145.394182651198
 30
0.0
 10
509.9763158949215
 20
141.6412073642535
 30
0.0
 10
509.2920317522084
 20
140.8719120796623
 30
0.0
 10
508.5909858242289
 20
140.1065545660385
 30
0.0
 10
507.8764826098589
 20
139.3478131553706
 30
0.0
  0
SPLINE
  5
80
330
1F
100
AcDbEntity
  8
VISIBLE
100
AcDbSpline
210
0.0
220
0.0
230
1.0
 70
     8
 71
     3
 72
    26
 73
    22
 74
     0
 42
0.000000001
 43
0.0000000443397464
 40
0.0
 40
0.0
 40
0.0
 40
0.0
 40
1.16314859454834
 40
1.16314859454834
 40
1.16314859454834
 40
2.32629718909667
 40
2.32629718909667
 40
2.32629718909667
 40
3.48944578364501
 40
3.48944578364501
 40
3.48944578364501
 40
4.65259437819334
 40
4.65259437819334
 40
4.65259437819334
 40
5.815742972741679
 40
5.815742972741679
 40
5.815742972741679
 40
6.97889156729001
 40
6.97889156729001
 40
6.97889156729001
 40
8.14204016183835
 40
8.14204016183835
 40
8.14204016183835
 40
8.14204016183835
 10
531.8771128868327
 20
189.6416206958496
 30
0.0
 10
532.5758813436528
 20
193.4442395360844
 30
0.0
 10
532.5048590635838
 20
197.3883011332229
 30
0.0
 10
531.6678625559358
 20
201.1622051210628
 30
0.0
 10
530.8308660482868
 20
204.9361091089027
 30
0.0
 10
529.2278953130582
 20
208.5398554874435
 30
0.0
 10
526.9873829231219
 20
211.6904608605888
 30
0.0
 10
524.7468705331858
 20
214.8410662337341
 30
0.0
 10
521.8688164885418
 20
217.5385306014836
 30
0.0
 10
518.5786889759119
 20
219.5677257282908
 30
0.0
 10
515.2885614632819
 20
221.5969208550981
 30
0.0
 10
511.5863604826659
 20
222.9578467409627
 30
0.0
 10
507.7652678816629
 20
223.545874358141
 30
0.0
 10
503.94417528066
 20
224.1339019753194
 30
0.0
 10
500.0041910592702
 20
223.9490313238111
 30
0.0
 10
496.2561010111858
 20
223.0029183200355
 30
0.0
 10
492.5080109631015
 20
222.0568053162598
 30
0.0
 10
488.9518150883226
 20
220.3494499602168
 30
0.0
 10
485.8680849049005
 20
218.0180488178964
 30
0.0
 10
482.7843547214783
 20
215.686647675576
 30
0.0
 10
480.1730902294129
 20
212.7312007469785
 30
0.0
 10
478.239945938345
 20
209.382896616487
 30
0.0
  0
LINE
  5
81
330
1F
100
AcDbEntity
  8
VISIBLE
100
AcDbLine
 10
459.3094524549056
 20
176.5943200908257
 30
0.0
 11
478.239945938335
 21
209.382896616477
 31
0.0
  0
ARC
  5
82
330
1F
100
AcDbEntity
  8
VISIBLE
100
AcDbCircle
 10
467.96970649276
 20
171.5943200908357
 30
0.0
 40
10.0
100
AcDbArc
 50
150.0000000000784
 51
213.6122000387726
  0
ARC
  5
83
330
1F
100
AcDbEntity
  8
VISIBLE
100
AcDbCircle
 10
430.4935540463048
 20
146.6837199813934
 30
-0.0000000000000025
 40
35.0
100
AcDbArc
 50
356.3877999612604
 51
33.61220003876161
  0
ARC
  5
84
330
1F
100
AcDbEntity
  8
VISIBLE
100
AcDbCircle
 10
433.3286903413824
 20
191.5943200908359
 30
0.0
 40
10.0
100
AcDbArc
 50
266.3877999611891
 51
329.9999999999217
  0
LINE
  5
85
330
1F
100
AcDbEntity
  8
VISIBLE
100
AcDbLine
 10
484.4393010793007
 20
260.1204946947935
 30
0.0
 11
441.9889443792168
 21
186.5943200908258
 31
0.0
  0
SPLINE
  5
86
330
1F
100
AcDbEntity
  8
VISIBLE
100
AcDbSpline
210
0.0
220
0.0
230
1.0
 70
     8
 71
     3
 72
    17
 73
    13
 74
     0
 42
0.000000001
 43
0.0000000453198043
 40
0.0
 40
0.0
 40
0.0
 40
0.0
 40
0.697016346898702
 40
0.697016346898702
 40
0.697016346898702
 40
2.0910490406961
 40
2.0910490406961
 40
2.0910490406961
 40
3.48508173449351
 40
3.48508173449351
 40
3.48508173449351
 40
4.87911442829091
 40
4.87911442829091
 40
4.87911442829091
 40
4.87911442829091
 10
484.4393010793107
 20
260.1204946948035
 30
0.0
 10
485.5979792625307
 20
262.1273841777614
 30
0.0
 10
486.5176555999597
 20
264.2729975670375
 30
0.0
 10
487.1659878060029
 20
266.4974732838444
 30
0.0
 10
488.4626522180892
 20
270.9464247174585
 30
0.0
 10
488.673940104632
 20
275.7108254611994
 30
0.0
 10
487.7734284289231
 20
280.2555350562295
 30
0.0
 10
486.8729167532142
 20
284.8002446512605
 30
0.0
 10
484.8606055152536
 20
289.1252630975805
 30
0.0
 10
481.9650422964018
 20
292.7425301075124
 30
0.0
 10
479.06947907755
 20
296.3597971174445
 30
0.0
 10
475.290663877807
 20
299.2693126909894
 30
0.0
 10
471.0518131944069
 20
301.1435343961674
 30
0.0
  0
SPLINE
  5
87
330
1F
100
AcDbEntity
  8
VISIBLE
100
AcDbSpline
210
0.0
220
0.0
230
1.0
 70
     8
 71
     3
 72
    17
 73
    13
 74
     0
 42
0.000000001
 43
0.0000000446512304
 40
-0.801492259657984
 40
-0.801492259657984
 40
-0.801492259657984
 40
-0.801492259657984
 40
-0.771747339149326
 40
-0.771747339149326
 40
-0.771747339149326
 40
-0.739950262067662
 40
-0.739950262067662
 40
-0.739950262067662
 40
-0.7092137985136969
 40
-0.7092137985136969
 40
-0.7092137985136969
 40
-0.69378924224182
 40
-0.69378924224182
 40
-0.69378924224182
 40
-0.69378924224182
 10
390.309085301416
 20
301.6131367994515
 30
0.0
 10
397.4171458224491
 20
304.5925832257784
 30
0.0
 10
404.920149248024
 20
306.8408936923774
 30
0.0
 10
412.4877076976979
 20
308.2583209994845
 30
0.0
 10
420.5773658722504
 20
309.7735392139234
 30
0.0
 10
428.6803252121895
 20
310.3191434925474
 30
0.0
 10
436.6442662077145
 20
309.8236160873785
 30
0.0
 10
444.3425644357432
 20
309.3446173419954
 30
0.0
 10
451.9759441366645
 20
307.8942389332404
 30
0.0
 10
459.6098521342598
 20
305.4810238547404
 30
0.0
 10
463.440795250943
 20
304.2699941047134
 30
0.0
 10
467.276791679919
 20
302.8126725160064
 30
0.0
 10
471.0518131944059
 20
301.1435343961684
 30
0.0
  0
SPLINE
  5
88
330
1F
100
AcDbEntity
  8
VISIBLE
100
AcDbSpline
210
0.0
220
0.0
230
1.0
 70
     8
 71
     3
 72
    17
 73
    13
 74
     0
 42
0.000000001
 43
0.0000000385642245
 40
0.0
 40
0.0
 40
0.0
 40
0.0
 40
0.705083943062378
 40
0.705083943062378
 40
0.705083943062378
 40
2.11525182918713
 40
2.11525182918713
 40
2.11525182918713
 40
3.52541971531189
 40
3.52541971531189
 40
3.52541971531189
 40
4.93558760143665
 40
4.93558760143665
 40
4.93558760143665
 40
4.93558760143665
 10
390.3090853014161
 20
301.6131367994515
 30
0.0
 10
388.147189794553
 20
300.7069470135095
 30
0.0
 10
386.0939670305053
 20
299.5397436427804
 30
0.0
 10
384.2135974948
 20
298.1406115456155
 30
0.0
 10
380.4528584233895
 20
295.3423473512844
 30
0.0
 10
377.3835322653492
 20
291.6163682512064
 30
0.0
 10
375.3604415393106
 20
287.3889980122734
 30
0.0
 10
373.3373508132721
 20
283.1616277733405
 30
0.0
 10
372.3604955192355
 20
278.4328663955524
 30
0.0
 10
372.5413969064444
 20
273.7494210456015
 30
0.0
 10
372.7222982936533
 20
269.0659756956514
 30
0.0
 10
374.0609563621077
 20
264.4278463735365
 30
0.0
 10
376.4050920473315
 20
260.3676842668934
 30
0.0
  0
LINE
  5
89
330
1F
100
AcDbEntity
  8
VISIBLE
100
AcDbLine
 10
418.9981637134128
 20
186.5943200908258
 30
0.0
 11
376.4050920473415
 21
260.3676842668834
 31
0.0
  0
ARC
  5
8A
330
1F
100
AcDbEntity
  8
VISIBLE
100
AcDbCircle
 10
427.6584177512472
 20
191.5943200908359
 30
0.0
 40
10.0
100
AcDbArc
 50
210.0000000000788
 51
273.6122000388109
  0
ARC
  5
8B
330
1F
100
AcDbEntity
  8
VISIBLE
100
AcDbCircle
 10
430.4935540463048
 20
146.6837199813934
 30
-0.0000000000000021
 40
35.0
100
AcDbArc
 50
86.38779996122769
 51
93.61220003873967
  0
ARC
  5
8C
330
1F
100
AcDbEntity
  8
VISIBLE
100
AcDbCircle
 10
393.0174015998697
 20
171.5943200908359
 30
0.0
 40
10.0
100
AcDbArc
 50
326.3877999612267
 51
29.99999999992199
  0
LINE
  5
8D
330
1F
100
AcDbEntity
  8
VISIBLE
100
AcDbLine
 10
381.6707173235565
 20
211.2473537548609
 30
0.0
 11
401.677655637724
 21
176.5943200908258
 31
0.0
  0
SPLINE
  5
8E
330
1F
100
AcDbEntity
  8
VISIBLE
100
AcDbSpline
210
0.0
220
0.0
230
1.0
 70
     8
 71
     3
 72
    26
 73
    22
 74
     0
 42
0.000000001
 43
0.0000000323644918
 40
0.0
 40
0.0
 40
0.0
 40
0.0
 40
1.13887432920297
 40
1.13887432920297
 40
1.13887432920297
 40
2.27774865840595
 40
2.27774865840595
 40
2.27774865840595
 40
3.41662298760892
 40
3.41662298760892
 40
3.41662298760892
 40
4.55549731681189
 40
4.55549731681189
 40
4.55549731681189
 40
5.69437164601487
 40
5.69437164601487
 40
5.69437164601487
 40
6.83324597521784
 40
6.83324597521784
 40
6.83324597521784
 40
7.972120304420811
 40
7.972120304420811
 40
7.972120304420811
 40
7.972120304420811
 10
381.6707173235465
 20
211.2473537548709
 30
0.0
 10
379.777911448013
 20
214.5257897001597
 30
0.0
 10
377.2356180584645
 20
217.4292375349783
 30
0.0
 10
374.2352232725152
 20
219.7365837326166
 30
0.0
 10
371.2348284865658
 20
222.0439299302548
 30
0.0
 10
367.7763323042157
 20
223.7551744907128
 30
0.0
 10
364.1220930117823
 20
224.7429262239766
 30
0.0
 10
360.4678537193492
 20
225.7306779572405
 30
0.0
 10
356.6178713168328
 20
225.9949368633104
 30
0.0
 10
352.8637086898571
 20
225.5131113778371
 30
0.0
 10
349.1095460628814
 20
225.0312858923637
 30
0.0
 10
345.4512032114463
 20
223.8033760153471
 30
0.0
 10
342.1647470587468
 20
221.9249218928521
 30
0.0
 10
338.8782909060472
 20
220.0464677703571
 30
0.0
 10
335.9637214520833
 20
217.5174694023838
 30
0.0
 10
333.643245362396
 20
214.5271625814887
 30
0.0
 10
331.3227692727087
 20
211.5368557605934
 30
0.0
 10
329.5963865472978
 20
208.0852404867765
 30
0.0
 10
328.5933335106728
 20
204.4353395584146
 30
0.0
 10
327.5902804740488
 20
200.7854386300529
 30
0.0
 10
327.3105571262088
 20
196.9372520471462
 30
0.0
 10
327.7761832688438
 20
193.1803851843055
 30
0.0
  0
ELLIPSE
  5
8F
330
1F
100
AcDbEntity
  8
VISIBLE
100
AcDbEllipse
 10
366.6841710554384
 20
205.7601940438942
 30
0.0000000000000035
 11
-0.6416294137113688
 21
-62.55690037580079
 31
-3.869793860877236E-15
210
6.123233995736760E-17
220
6.123233995736766E-17
230
-1.0
 40
0.6336179380706111
 41
1.143103374272561
 42
1.361827433946909
  0
SPLINE
  5
90
330
1F
100
AcDbEntity
  8
VISIBLE
100
AcDbSpline
210
0.0
220
0.0
230
1.0
 70
     8
 71
     3
 72
    17
 73
    13
 74
     0
 42
0.000000001
 43
0.0000000271639369
 40
-0.0796552843358423
 40
-0.0796552843358423
 40
-0.0796552843358423
 40
-0.0796552843358423
 40
-0.0705730294735502
 40
-0.0705730294735502
 40
-0.0705730294735502
 40
-0.0507110307953935
 40
-0.0507110307953935
 40
-0.0507110307953935
 40
-0.0280486372531765
 40
-0.0280486372531765
 40
-0.0280486372531765
 40
0.0
 40
0.0
 40
0.0
 40
0.0
 10
353.2755533386987
 20
138.8012164602839
 30
0.0
 10
352.0414879013439
 20
140.0609143399811
 30
0.0
 10
350.8992526141725
 20
141.3055598756081
 30
0.0
 10
349.8426075446336
 20
142.5395944655016
 30
0.0
 10
347.5318286364578
 20
145.238306818865
 30
0.0
 10
345.5770548761239
 20
147.9273334927605
 30
0.0
 10
343.6323788702057
 20
150.9760712415706
 30
0.0
 10
341.4135179351935
 20
154.4546584567904
 30
0.0
 10
339.190385978016
 20
158.4162822288143
 30
0.0
 10
337.0762005085298
 20
162.7468732179198
 30
0.0
 10
334.4595298020977
 20
168.1067296478693
 30
0.0
 10
332.0714818478665
 20
173.9893768325105
 30
0.0
 10
330.3511821890278
 20
180.1832297448551
 30
0.0
  0
SPLINE
  5
91
330
1F
100
AcDbEntity
  8
VISIBLE
100
AcDbSpline
210
0.0
220
0.0
230
1.0
 70
     8
 71
     3
 72
    17
 73
    13
 74
     0
 42
0.000000001
 43
0.000000027594364
 40
0.0
 40
0.0
 40
0.0
 40
0.0
 40
0.82186927407109
 40
0.82186927407109
 40
0.82186927407109
 40
1.64373854814218
 40
1.64373854814218
 40
1.64373854814218
 40
2.73956424690363
 40
2.73956424690363
 40
2.73956424690363
 40
3.83538994566509
 40
3.83538994566509
 40
3.83538994566509
 40
3.83538994566509
 10
353.2755533386987
 20
138.8012164602839
 30
0.0
 10
355.187960554701
 20
136.8490871467206
 30
0.0
 10
357.3780737006793
 20
135.169575546281
 30
0.0
 10
359.7589824550889
 20
133.8282835160433
 30
0.0
 10
362.1398912094985
 20
132.4869914858053
 30
0.0
 10
364.7115955723394
 20
131.4839190257692
 30
0.0
 10
367.3721720790979
 20
130.8607466626927
 30
0.0
 10
370.9196074214426
 20
130.0298501785907
 30
0.0
 10
374.6250376863077
 20
129.8743316446393
 30
0.0
 10
378.2290814605462
 20
130.4065875543778
 30
0.0
 10
381.8331252347847
 20
130.9388434641161
 30
0.0
 10
385.3357825183967
 20
132.1588738175446
 30
0.0
 10
388.491330060254
 20
133.9807300402765
 30
0.0
  0
LINE
  5
92
330
1F
100
AcDbEntity
  8
VISIBLE
100
AcDbLine
 10
390.5829539368924
 20
135.1883296485015
 30
0.0
 11
388.491330060264
 21
133.9807300402865
 31
0.0
  0
ARC
  5
93
330
1F
100
AcDbEntity
  8
VISIBLE
100
AcDbCircle
 10
385.5829539368824
 20
143.8485836863358
 30
0.0
 40
10.0
100
AcDbArc
 50
300.0000000000782
 51
3.61220003881059
  0
ARC
  5
94
330
1F
100
AcDbEntity
  8
VISIBLE
100
AcDbCircle
 10
430.4935540463048
 20
146.6837199813934
 30
0.0000000000000014
 40
35.0
100
AcDbArc
 50
146.3877999612203
 51
183.6122000387417
  0
ARC
  5
95
330
1F
100
AcDbEntity
  8
VISIBLE
100
AcDbCircle
 10
409.2796482256123
 20
216.4606509217116
 30
0.0000000000000002
 40
80.0
100
AcDbArc
 50
127.6732890272519
 51
145.2639386387244
  0
LINE
  5
96
330
1F
100
AcDbEntity
  8
VISIBLE
100
AcDbLine
 10
361.5227996174628
 20
278.3103634479625
 30
0.0
 11
360.3869994456759
 21
279.7813339193945
 31
0.0
  0
ARC
  5
97
330
1F
100
AcDbEntity
  8
VISIBLE
100
AcDbCircle
 10
362.1164310205402
 20
278.7687320302714
 30
0.0
 40
0.75
100
AcDbArc
 50
217.6732890282834
 51
337.6732890264333
  0
LINE
  5
98
330
1F
100
AcDbEntity
  8
VISIBLE
100
AcDbLine
 10
365.5518070461124
 20
285.1596650469525
 30
0.0
 11
362.81020555866
 21
278.4838164458484
 31
0.0
  0
ARC
  5
99
330
1F
100
AcDbEntity
  8
VISIBLE
100
AcDbCircle
 10
364.8580325160373
 20
285.4445806280714
 30
0.0
 40
0.75
100
AcDbArc
 50
337.6732890264446
 51
97.67328902616637
  0
LINE
  5
9A
330
1F
100
AcDbEntity
  8
VISIBLE
100
AcDbLine
 10
357.6056341580888
 20
285.2242370207864
 30
0.0
 11
364.7578893821896
 21
286.1878647861515
 31
0.0
  0
ARC
  5
9B
330
1F
100
AcDbEntity
  8
VISIBLE
100
AcDbCircle
 10
357.7057772931025
 20
284.4809528540525
 30
0.0
 40
0.75
100
AcDbArc
 50
97.67328902617068
 51
217.6732890283424
  0
LINE
  5
9C
330
1F
100
AcDbEntity
  8
VISIBLE
100
AcDbLine
 10
358.2479460617831
 20
282.5516138002885
 30
0.0
 11
357.1121458899964
 21
284.0225842717205
 31
0.0
  0
ARC
  5
9D
330
1F
100
AcDbEntity
  8
VISIBLE
100
AcDbCircle
 10
409.2796482256123
 20
216.4606509217116
 30
0.0
 40
83.5
100
AcDbArc
 50
127.673289027234
 51
145.263938638742
  0
ARC
  5
9E
330
1F
100
AcDbEntity
  8
VISIBLE
100
AcDbCircle
 10
342.0986770877544
 20
263.0415441823674
 30
0.0
 40
1.75
100
AcDbArc
 50
145.2639386392345
 51
325.2639386390564
  0
SPLINE
  5
9F
330
1F
100
AcDbEntity
  8
VISIBLE
100
AcDbSpline
210
0.0
220
0.0
230
1.0
 70
     8
 71
     3
 72
     9
 73
     5
 74
     0
 42
0.000000001
 43
0.0000000328189701
 40
0.0
 40
0.0
 40
0.0
 40
0.0
 40
0.181524047050167
 40
0.33187529686657
 40
0.33187529686657
 40
0.33187529686657
 40
0.33187529686657
 10
358.4954053767075
 20
253.4504805082684
 30
0.0
 10
358.0537032405559
 20
253.0177519380114
 30
0.0
 10
357.2461516795144
 20
252.2266064944724
 30
0.0
 10
356.1538746486442
 20
251.9545655702404
 30
0.0
 10
355.6590345135463
 20
251.8313214079134
 30
0.0
  0
SPLINE
  5
A0
330
1F
100
AcDbEntity
  8
VISIBLE
100
AcDbSpline
210
0.0
220
0.0
230
1.0
 70
     8
 71
     3
 72
     9
 73
     5
 74
     0
 42
0.000000001
 43
0.0000000330548189
 40
0.0
 40
0.0
 40
0.0
 40
0.0
 40
0.109310322609803
 40
0.238040532005273
 40
0.238040532005273
 40
0.238040532005273
 40
0.238040532005273
 10
359.8205358688063
 20
255.4142670713284
 30
0.0
 10
359.6634844378719
 20
255.0833071708614
 30
0.0
 10
359.3214800847675
 20
254.3625895945295
 30
0.0
 10
358.7853433628695
 20
253.7706150784834
 30
0.0
 10
358.4954053767075
 20
253.4504805082684
 30
0.0
  0
SPLINE
  5
A1
330
1F
100
AcDbEntity
  8
VISIBLE
100
AcDbSpline
210
0.0
220
0.0
230
1.0
 70
     8
 71
     3
 72
     9
 73
     5
 74
     0
 42
0.000000001
 43
0.0000000332181075
 40
0.0
 40
0.0
 40
0.0
 40
0.0
 40
0.0936018697387987
 40
0.190368605854931
 40
0.190368605854931
 40
0.190368605854931
 40
0.190368605854931
 10
359.9511693276712
 20
257.2904416321275
 30
0.0
 10
360.002489719465
 20
256.9780708224854
 30
0.0
 10
360.1068657481167
 20
256.3427673215274
 30
0.0
 10
359.9170311580424
 20
255.7271785300084
 30
0.0
 10
359.8205358688063
 20
255.4142670713284
 30
0.0
  0
SPLINE
  5
A2
330
1F
100
AcDbEntity
  8
VISIBLE
100
AcDbSpline
210
0.0
220
0.0
230
1.0
 70
     8
 71
     3
 72
     9
 73
     5
 74
     0
 42
0.000000001
 43
0.0000000333294456
 40
0.0
 40
0.0
 40
0.0
 40
0.0
 40
0.0902700675622567
 40
0.182194848720377
 40
0.182194848720377
 40
0.182194848720377
 40
0.182194848720377
 10
359.0511201946823
 20
258.8526625856214
 30
0.0
 10
359.2562287982726
 20
258.6272867980655
 30
0.0
 10
359.6702057898884
 20
258.1724039268335
 30
0.0
 10
359.8569494728745
 20
257.5862037085844
 30
0.0
 10
359.9511693276712
 20
257.2904416321275
 30
0.0
  0
SPLINE
  5
A3
330
1F
100
AcDbEntity
  8
VISIBLE
100
AcDbSpline
210
0.0
220
0.0
230
1.0
 70
     8
 71
     3
 72
     9
 73
     5
 74
     0
 42
0.000000001
 43
0.000000033340338
 40
0.0
 40
0.0
 40
0.0
 40
0.0
 40
0.0837708019819267
 40
0.178039803338274
 40
0.178039803338274
 40
0.178039803338274
 40
0.178039803338274
 10
357.5161190346769
 20
259.7199322346065
 30
0.0
 10
357.7857336814784
 20
259.6360073145574
 30
0.0
 10
358.3587512193075
 20
259.4576399609314
 30
0.0
 10
358.8114330058971
 20
259.0620961846474
 30
0.0
 10
359.0511201946823
 20
258.8526625856214
 30
0.0
  0
SPLINE
  5
A4
330
1F
100
AcDbEntity
  8
VISIBLE
100
AcDbSpline
210
0.0
220
0.0
230
1.0
 70
     8
 71
     3
 72
     9
 73
     5
 74
     0
 42
0.000000001
 43
0.0000000332529118
 40
0.0
 40
0.0
 40
0.0
 40
0.0
 40
0.0824432245960893
 40
0.162693779004271
 40
0.162693779004271
 40
0.162693779004271
 40
0.162693779004271
 10
355.9077031890232
 20
259.6113468673635
 30
0.0
 10
356.1757588539913
 20
259.6849127066434
 30
0.0
 10
356.7047409423417
 20
259.8300878190535
 30
0.0
 10
357.2481006749566
 20
259.7563193632905
 30
0.0
 10
357.5161190346769
 20
259.7199322346065
 30
0.0
  0
SPLINE
  5
A5
330
1F
100
AcDbEntity
  8
VISIBLE
100
AcDbSpline
210
0.0
220
0.0
230
1.0
 70
     8
 71
     3
 72
     9
 73
     5
 74
     0
 42
0.000000001
 43
0.0000000331356354
 40
0.0
 40
0.0
 40
0.0
 40
0.0
 40
0.14275282125182
 40
0.246851541298344
 40
0.246851541298344
 40
0.246851541298344
 40
0.246851541298344
 10
353.7357543717623
 20
258.4469917631064
 30
0.0
 10
354.1359890527754
 20
258.7066105488524
 30
0.0
 10
354.8280842914036
 20
259.1555494689354
 30
0.0
 10
355.587467082204
 20
259.4761484332744
 30
0.0
 10
355.9077031890232
 20
259.6113468673635
 30
0.0
  0
SPLINE
  5
A6
330
1F
100
AcDbEntity
  8
VISIBLE
100
AcDbSpline
210
0.0
220
0.0
230
1.0
 70
     8
 71
     3
 72
     9
 73
     5
 74
     0
 42
0.000000001
 43
0.0000000329095891
 40
0.0
 40
0.0
 40
0.0
 40
0.0
 40
0.078611764833977
 40
0.212618950449185
 40
0.212618950449185
 40
0.212618950449185
 40
0.212618950449185
 10
351.8432478689687
 20
257.4970291956224
 30
0.0
 10
352.0934910118222
 20
257.5780630950014
 30
0.0
 10
352.7703163509175
 20
257.7972331221995
 30
0.0
 10
353.3625117953996
 20
258.1957922206084
 30
0.0
 10
353.7357543717623
 20
258.4469917631064
 30
0.0
  0
SPLINE
  5
A7
330
1F
100
AcDbEntity
  8
VISIBLE
100
AcDbSpline
210
0.0
220
0.0
230
1.0
 70
     8
 71
     3
 72
     9
 73
     5
 74
     0
 42
0.000000001
 43
0.0000000327348979
 40
0.0
 40
0.0
 40
0.0
 40
0.0
 40
0.036246096384398
 40
0.0746515681937915
 40
0.0746515681937915
 40
0.0746515681937915
 40
0.0746515681937915
 10
351.148693449848
 20
257.7123541688044
 30
0.0
 10
351.2485771994584
 20
257.6380376719404
 30
0.0
 10
351.4542953122839
 20
257.4849772437294
 30
0.0
 10
351.7111207015625
 20
257.4929351480635
 30
0.0
 10
351.8432478689687
 20
257.4970291956224
 30
0.0
  0
SPLINE
  5
A8
330
1F
100
AcDbEntity
  8
VISIBLE
100
AcDbSpline
210
0.0
220
0.0
230
1.0
 70
     8
 71
     3
 72
     9
 73
     5
 74
     0
 42
0.000000001
 43
0.0000000327480077
 40
0.0
 40
0.0
 40
0.0
 40
0.0
 40
0.0389123893398007
 40
0.0774229128309125
 40
0.0774229128309125
 40
0.0774229128309125
 40
0.0774229128309125
 10
350.9025747376357
 20
258.4209817372945
 30
0.0
 10
350.8984275609394
 20
258.2864354502894
 30
0.0
 10
350.8901760373164
 20
258.0187323966545
 30
0.0
 10
351.0628196829348
 20
257.8141262400475
 30
0.0
 10
351.148693449848
 20
257.7123541688044
 30
0.0
  0
SPLINE
  5
A9
330
1F
100
AcDbEntity
  8
VISIBLE
100
AcDbSpline
210
0.0
220
0.0
230
1.0
 70
     8
 71
     3
 72
     9
 73
     5
 74
     0
 42
0.000000001
 43
0.0000000328839643
 40
0.0
 40
0.0
 40
0.0
 40
0.0
 40
0.0847857411858049
 40
0.154842429539331
 40
0.154842429539331
 40
0.154842429539331
 40
0.154842429539331
 10
351.6401456707271
 20
259.7609715708335
 30
0.0
 10
351.4488619588241
 20
259.5464823147844
 30
0.0
 10
351.0995245081147
 20
259.1547650631325
 30
0.0
 10
350.9639251280731
 20
258.6495572437655
 30
0.0
 10
350.9025747376357
 20
258.4209817372945
 30
0.0
  0
SPLINE
  5
AA
330
1F
100
AcDbEntity
  8
VISIBLE
100
AcDbSpline
210
0.0
220
0.0
230
1.0
 70
     8
 71
     3
 72
     9
 73
     5
 74
     0
 42
0.000000001
 43
0.0000000330170409
 40
0.0
 40
0.0
 40
0.0
 40
0.0
 40
0.0633525076318282
 40
0.143972267298389
 40
0.143972267298389
 40
0.143972267298389
 40
0.143972267298389
 10
352.8488492468219
 20
260.5068975266134
 30
0.0
 10
352.6439924729908
 20
260.4442258656844
 30
0.0
 10
352.1784435104889
 20
260.3018008622124
 30
0.0
 10
351.8333735562272
 20
259.9551081485245
 30
0.0
 10
351.6401456707271
 20
259.7609715708335
 30
0.0
  0
SPLINE
  5
AB
330
1F
100
AcDbEntity
  8
VISIBLE
100
AcDbSpline
210
0.0
220
0.0
230
1.0
 70
     8
 71
     3
 72
     9
 73
     5
 74
     0
 42
0.000000001
 43
0.000000033095466
 40
0.0
 40
0.0
 40
0.0
 40
0.0
 40
0.0744256723913983
 40
0.135437035551668
 40
0.135437035551668
 40
0.135437035551668
 40
0.135437035551668
 10
354.1228627974178
 20
260.1199231534684
 30
0.0
 10
353.9075572328493
 20
260.2544879104115
 30
0.0
 10
353.5157522754202
 20
260.4993637870364
 30
0.0
 10
353.0559706239229
 20
260.5045577583874
 30
0.0
 10
352.8488492468219
 20
260.5068975266134
 30
0.0
  0
LINE
  5
AC
330
1F
100
AcDbEntity
  8
VISIBLE
100
AcDbLine
 10
355.5470247401968
 20
261.7572737964834
 30
0.0
 11
354.1228627974278
 21
260.1199231534584
 31
0.0
  0
SPLINE
  5
AD
330
1F
100
AcDbEntity
  8
VISIBLE
100
AcDbSpline
210
0.0
220
0.0
230
1.0
 70
     8
 71
     3
 72
     9
 73
     5
 74
     0
 42
0.000000001
 43
0.0000000333487533
 40
0.0
 40
0.0
 40
0.0
 40
0.0
 40
0.129510751748534
 40
0.265833879977388
 40
0.265833879977388
 40
0.265833879977388
 40
0.265833879977388
 10
353.0928531041835
 20
262.6087490315584
 30
0.0
 10
353.5361511537894
 20
262.6018169910434
 30
0.0
 10
354.4460651101376
 20
262.5875882787465
 30
0.0
 10
355.1738215937555
 20
262.0387336873434
 30
0.0
 10
355.5470247401868
 20
261.7572737964935
 30
0.0
  0
SPLINE
  5
AE
330
1F
100
AcDbEntity
  8
VISIBLE
100
AcDbSpline
210
0.0
220
0.0
230
1.0
 70
     8
 71
     3
 72
     9
 73
     5
 74
     0
 42
0.000000001
 43
0.0000000331980515
 40
0.0
 40
0.0
 40
0.0
 40
0.0
 40
0.178534616194717
 40
0.322024273678661
 40
0.322024273678661
 40
0.322024273678661
 40
0.322024273678661
 10
350.35432006995
 20
261.0128211002844
 30
0.0
 10
350.7860684816379
 20
261.4412901456515
 30
0.0
 10
351.5648164446327
 20
262.2141230901474
 30
0.0
 10
352.6218522549624
 20
262.4871098337234
 30
0.0
 10
353.0928531041835
 20
262.6087490315584
 30
0.0
  0
SPLINE
  5
AF
330
1F
100
AcDbEntity
  8
VISIBLE
100
AcDbSpline
210
0.0
220
0.0
230
1.0
 70
     8
 71
     3
 72
     9
 73
     5
 74
     0
 42
0.000000001
 43
0.00000003290449
 40
0.0
 40
0.0
 40
0.0
 40
0.0
 40
0.100568959738444
 40
0.215664001929852
 40
0.215664001929852
 40
0.215664001929852
 40
0.215664001929852
 10
349.1697738386767
 20
259.2236021185705
 30
0.0
 10
349.3106803465988
 20
259.5299131301534
 30
0.0
 10
349.6128457610115
 20
260.1867784170664
 30
0.0
 10
350.0963074218065
 20
260.7253809858975
 30
0.0
 10
350.35432006995
 20
261.0128211002844
 30
0.0
  0
SPLINE
  5
B0
330
1F
100
AcDbEntity
  8
VISIBLE
100
AcDbSpline
210
0.0
220
0.0
230
1.0
 70
     8
 71
     3
 72
     9
 73
     5
 74
     0
 42
0.000000001
 43
0.0000000326904382
 40
0.0
 40
0.0
 40
0.0
 40
0.0
 40
0.0847230903420546
 40
0.174581854275024
 40
0.174581854275024
 40
0.174581854275024
 40
0.174581854275024
 10
349.0351583455816
 20
257.5027466632844
 30
0.0
 10
348.9929895442953
 20
257.7858341548834
 30
0.0
 10
348.9060957885152
 20
258.3691690994165
 30
0.0
 10
349.0801742006774
 20
258.9332598274165
 30
0.0
 10
349.1697738386767
 20
259.2236021185705
 30
0.0
  0
SPLINE
  5
B1
330
1F
100
AcDbEntity
  8
VISIBLE
100
AcDbSpline
210
0.0
220
0.0
230
1.0
 70
     8
 71
     3
 72
     9
 73
     5
 74
     0
 42
0.000000001
 43
0.0000000325944177
 40
0.0
 40
0.0
 40
0.0
 40
0.0
 40
0.0802232891956255
 40
0.162092219907441
 40
0.162092219907441
 40
0.162092219907441
 40
0.162092219907441
 10
349.8272811705751
 20
256.1087220363684
 30
0.0
 10
349.645271066739
 20
256.3094311697104
 30
0.0
 10
349.2775172377428
 20
256.7149666358495
 30
0.0
 10
349.1164895874591
 20
257.2383819957195
 30
0.0
 10
349.0351583455816
 20
257.5027466632844
 30
0.0
  0
SPLINE
  5
B2
330
1F
100
AcDbEntity
  8
VISIBLE
100
AcDbSpline
210
0.0
220
0.0
230
1.0
 70
     8
 71
     3
 72
     9
 73
     5
 74
     0
 42
0.000000001
 43
0.0000000326231338
 40
0.0
 40
0.0
 40
0.0
 40
0.0
 40
0.123157179301661
 40
0.243460955961765
 40
0.243460955961765
 40
0.243460955961765
 40
0.243460955961765
 10
352.074759198826
 20
255.3374292975994
 30
0.0
 10
351.6520836627833
 20
255.3412070871145
 30
0.0
 10
350.8165254708038
 20
255.3486751393374
 30
0.0
 10
350.1544426974752
 20
255.8573603623204
 30
0.0
 10
349.8272811705751
 20
256.1087220363684
 30
0.0
  0
SPLINE
  5
B3
330
1F
100
AcDbEntity
  8
VISIBLE
100
AcDbSpline
210
0.0
220
0.0
230
1.0
 70
     8
 71
     3
 72
     9
 73
     5
 74
     0
 42
0.000000001
 43
0.000000032796923
 40
0.0
 40
0.0
 40
0.0
 40
0.0
 40
0.155937609720287
 40
0.268389564077579
 40
0.268389564077579
 40
0.268389564077579
 40
0.268389564077579
 10
354.5296007678692
 20
256.3795194755435
 30
0.0
 10
354.0855716995312
 20
256.0997266084095
 30
0.0
 10
353.321338053121
 20
255.6181655162724
 30
0.0
 10
352.4428394149801
 20
255.4203229289935
 30
0.0
 10
352.074759198826
 20
255.3374292975994
 30
0.0
  0
SPLINE
  5
B4
330
1F
100
AcDbEntity
  8
VISIBLE
100
AcDbSpline
210
0.0
220
0.0
230
1.0
 70
     8
 71
     3
 72
     9
 73
     5
 74
     0
 42
0.000000001
 43
0.0000000329658719
 40
0.0
 40
0.0
 40
0.0
 40
0.0
 40
0.0650684290391325
 40
0.179825317063043
 40
0.179825317063043
 40
0.179825317063043
 40
0.179825317063043
 10
356.0650060624569
 20
257.3151460607804
 30
0.0
 10
355.8767230684399
 20
257.2074229609664
 30
0.0
 10
355.3563778012088
 20
256.9097157492664
 30
0.0
 10
354.8516784690925
 20
256.5860617356104
 30
0.0
 10
354.5296007678692
 20
256.3795194755435
 30
0.0
  0
SPLINE
  5
B5
330
1F
100
AcDbEntity
  8
VISIBLE
100
AcDbSpline
210
0.0
220
0.0
230
1.0
 70
     8
 71
     3
 72
     9
 73
     5
 74
     0
 42
0.000000001
 43
0.0000000330397122
 40
0.0
 40
0.0
 40
0.0
 40
0.0
 40
0.0395645541475909
 40
0.0915576413752775
 40
0.0915576413752775
 40
0.0915576413752775
 40
0.0915576413752775
 10
356.9394400779682
 20
257.5603349726545
 30
0.0
 10
356.8067755442155
 20
257.5506670781795
 30
0.0
 10
356.4997721654024
 20
257.5282942842924
 30
0.0
 10
356.2224753566505
 20
257.3923468822974
 30
0.0
 10
356.0650060624569
 20
257.3151460607804
 30
0.0
  0
SPLINE
  5
B6
330
1F
100
AcDbEntity
  8
VISIBLE
100
AcDbSpline
210
0.0
220
0.0
230
1.0
 70
     8
 71
     3
 72
     9
 73
     5
 74
     0
 42
0.000000001
 43
0.0000000330788186
 40
0.0
 40
0.0
 40
0.0
 40
0.0
 40
0.0356874860322594
 40
0.0696753828676802
 40
0.0696753828676802
 40
0.0696753828676802
 40
0.0696753828676802
 10
357.5632377960159
 20
257.2758467711095
 30
0.0
 10
357.4696962493474
 20
257.3531729966494
 30
0.0
 10
357.287068000547
 20
257.5041428454464
 30
0.0
 10
357.0534162323361
 20
257.5419113589314
 30
0.0
 10
356.9394400779682
 20
257.5603349726545
 30
0.0
  0
SPLINE
  5
B7
330
1F
100
AcDbEntity
  8
VISIBLE
100
AcDbSpline
210
0.0
220
0.0
230
1.0
 70
     8
 71
     3
 72
     9
 73
     5
 74
     0
 42
0.000000001
 43
0.0000000330809003
 40
0.0
 40
0.0
 40
0.0
 40
0.0
 40
0.0624205710426462
 40
0.119556666077502
 40
0.119556666077502
 40
0.119556666077502
 40
0.119556666077502
 10
357.9488769162058
 20
256.1770624971774
 30
0.0
 10
357.94730786787
 20
256.3920522197195
 30
0.0
 10
357.9443026055854
 20
256.8038308055064
 30
0.0
 10
357.6864604738264
 20
257.1232137549125
 30
0.0
 10
357.5632377960159
 20
257.2758467711095
 30
0.0
  0
SPLINE
  5
B8
330
1F
100
AcDbEntity
  8
VISIBLE
100
AcDbSpline
210
0.0
220
0.0
230
1.0
 70
     8
 71
     3
 72
     9
 73
     5
 74
     0
 42
0.000000001
 43
0.0000000329955183
 40
0.0
 40
0.0
 40
0.0
 40
0.0
 40
0.0924931860843359
 40
0.166396717296361
 40
0.166396717296361
 40
0.166396717296361
 40
0.166396717296361
 10
357.1830295859732
 20
254.7275528829334
 30
0.0
 10
357.3934542543178
 20
254.9616185672564
 30
0.0
 10
357.7720115895446
 20
255.3827064673714
 30
0.0
 10
357.8944825813253
 20
255.9327609785294
 30
0.0
 10
357.9488769162058
 20
256.1770624971774
 30
0.0
  0
SPLINE
  5
B9
330
1F
100
AcDbEntity
  8
VISIBLE
100
AcDbSpline
210
0.0
220
0.0
230
1.0
 70
     8
 71
     3
 72
     9
 73
     5
 74
     0
 42
0.000000001
 43
0.0000000328347276
 40
0.0
 40
0.0
 40
0.0
 40
0.0
 40
0.0779260068038559
 40
0.16751011178299
 40
0.16751011178299
 40
0.16751011178299
 40
0.16751011178299
 10
355.7398869428819
 20
253.9315804286745
 30
0.0
 10
355.9973901255818
 20
253.9919989418104
 30
0.0
 10
356.5509201816915
 20
254.1218748626254
 30
0.0
 10
356.962771985687
 20
254.5165052598545
 30
0.0
 10
357.1830295859732
 20
254.7275528829334
 30
0.0
  0
SPLINE
  5
BA
330
1F
100
AcDbEntity
  8
VISIBLE
100
AcDbSpline
210
0.0
220
0.0
230
1.0
 70
     8
 71
     3
 72
     9
 73
     5
 74
     0
 42
0.000000001
 43
0.0000000327219497
 40
0.0
 40
0.0
 40
0.0
 40
0.0
 40
0.0965115645936172
 40
0.176694461262504
 40
0.176694461262504
 40
0.176694461262504
 40
0.176694461262504
 10
354.0766468166914
 20
254.4458646266854
 30
0.0
 10
354.356989423822
 20
254.2751463616124
 30
0.0
 10
354.8702438316687
 20
253.9625934359435
 30
0.0
 10
355.4684324858338
 20
253.9412609734194
 30
0.0
 10
355.7398869428819
 20
253.9315804286745
 30
0.0
  0
LINE
  5
BB
330
1F
100
AcDbEntity
  8
VISIBLE
100
AcDbLine
 10
352.7724919961462
 20
252.7753257519404
 30
0.0
 11
354.0766468167014
 21
254.4458646266754
 31
0.0
  0
SPLINE
  5
BC
330
1F
100
AcDbEntity
  8
VISIBLE
100
AcDbSpline
210
0.0
220
0.0
230
1.0
 70
     8
 71
     3
 72
     9
 73
     5
 74
     0
 42
0.000000001
 43
0.0000000325871146
 40
0.0
 40
0.0
 40
0.0
 40
0.0
 40
0.144800222624898
 40
0.309240581145297
 40
0.309240581145297
 40
0.309240581145297
 40
0.309240581145297
 10
355.6590345135463
 20
251.8313214079134
 30
0.0
 10
355.1667216934202
 20
251.8454330848965
 30
0.0
 10
354.1153206676397
 20
251.8755704915374
 30
0.0
 10
353.2386606968008
 20
252.4629718757154
 30
0.0
 10
352.7724919961362
 20
252.7753257519504
 30
0.0
  0
LINE
  5
BD
330
1F
100
AcDbEntity
  8
VISIBLE
100
AcDbLine
 10
341.4153430671662
 20
251.4013862077824
 30
0.0
 11
342.5655048089162
 21
252.6120748698334
 31
0.0
  0
SPLINE
  5
BE
330
1F
100
AcDbEntity
  8
VISIBLE
100
AcDbSpline
210
0.0
220
0.0
230
1.0
 70
     8
 71
     3
 72
     9
 73
     5
 74
     0
 42
0.000000001
 43
0.0000000316225062
 40
0.0
 40
0.0
 40
0.0
 40
0.0
 40
0.112708109355529
 40
0.217420626261201
 40
0.217420626261201
 40
0.217420626261201
 40
0.217420626261201
 10
341.7676582555824
 20
249.2785580427785
 30
0.0
 10
341.7852792145357
 20
249.6588312194634
 30
0.0
 10
341.8192710892362
 20
250.3924007265575
 30
0.0
 10
341.5466438064248
 20
251.0734056460204
 30
0.0
 10
341.4153430671562
 20
251.4013862077924
 30
0.0
  0
SPLINE
  5
BF
330
1F
100
AcDbEntity
  8
VISIBLE
100
AcDbSpline
210
0.0
220
0.0
230
1.0
 70
     8
 71
     3
 72
     9
 73
     5
 74
     0
 42
0.000000001
 43
0.000000031450856
 40
0.0
 40
0.0
 40
0.0
 40
0.0
 40
0.0923100846545386
 40
0.202312933320051
 40
0.202312933320051
 40
0.202312933320051
 40
0.202312933320051
 10
341.286826440195
 20
247.3208752884844
 30
0.0
 10
341.3990839986693
 20
247.6087015632014
 30
0.0
 10
341.6451151449656
 20
248.2395208083854
 30
0.0
 10
341.7244965198338
 20
248.9125917284084
 30
0.0
 10
341.7676582555824
 20
249.2785580427785
 30
0.0
  0
LINE
  5
C0
330
1F
100
AcDbEntity
  8
VISIBLE
100
AcDbLine
 10
342.6408861280249
 20
246.0345101825696
 30
0.0
 11
341.286826440205
 21
247.3208752884744
 31
0.0
  0
SPLINE
  5
C1
330
1F
100
AcDbEntity
  8
VISIBLE
100
AcDbSpline
210
0.0
220
0.0
230
1.0
 70
     8
 71
     3
 72
     9
 73
     5
 74
     0
 42
0.000000001
 43
0.0000000315279169
 40
0.0
 40
0.0
 40
0.0
 40
0.0
 40
0.153332873759238
 40
0.310116710847786
 40
0.310116710847786
 40
0.310116710847786
 40
0.310116710847786
 10
343.3410265983589
 20
249.0365471795844
 30
0.0
 10
343.3075448643268
 20
248.5227778949005
 30
0.0
 10
343.2398278446366
 20
247.4836762541725
 30
0.0
 10
342.8420090029813
 20
246.5211359068094
 30
0.0
 10
342.6408861280149
 20
246.0345101825797
 30
0.0
  0
LINE
  5
C2
330
1F
100
AcDbEntity
  8
VISIBLE
100
AcDbLine
 10
348.9643568313151
 20
243.6943485632887
 30
0.0
 11
343.3410265983689
 21
249.0365471795744
 31
0.0
  0
LINE
  5
C3
330
1F
100
AcDbEntity
  8
VISIBLE
100
AcDbLine
 10
350.3818807323315
 20
245.1864692388864
 30
0.0
 11
348.9643568313151
 21
243.6943485632887
 31
0.0
  0
LINE
  5
C4
330
1F
100
AcDbEntity
  8
VISIBLE
100
AcDbLine
 10
342.5655048089162
 20
252.6120748698334
 30
0.0
 11
350.3818807323315
 21
245.1864692388864
 31
0.0
  0
LINE
  5
C5
330
1F
100
AcDbEntity
  8
VISIBLE
100
AcDbLine
 10
427.1729416584583
 20
153.9620119080586
 30
0.0
 11
420.3487058058055
 21
96.08195598318694
 31
0.0
  0
SPLINE
  5
C6
330
1F
100
AcDbEntity
  8
VISIBLE
100
AcDbSpline
210
0.0
220
0.0
230
1.0
 70
     8
 71
     5
 72
    39
 73
    33
 74
     0
 42
0.000000001
 43
0.0000000322683982
 40
0.0
 40
0.0
 40
0.0
 40
0.0
 40
0.0
 40
0.0
 40
0.0083333333333333
 40
0.0166666666666667
 40
0.025
 40
0.0333333333333333
 40
0.0416666666666667
 40
0.05
 40
0.0583333333333333
 40
0.0666666666666667
 40
0.075
 40
0.0833333333333333
 40
0.0916666666666667
 40
0.1
 40
0.108333333333333
 40
0.116666666666667
 40
0.125
 40
0.133333333333333
 40
0.141666666666667
 40
0.15
 40
0.158333333333333
 40
0.166666666666667
 40
0.175
 40
0.183333333333333
 40
0.191666666666667
 40
0.2
 40
0.208333333333333
 40
0.216666666666667
 40
0.225
 40
0.230253653341247
 40
0.230253653341247
 40
0.230253653341247
 40
0.230253653341247
 40
0.230253653341247
 40
0.230253653341247
 10
315.8982841538268
 20
176.1690376238843
 30
0.0
 10
316.2570616635388
 20
174.8772771378569
 30
0.0
 10
317.0129648304978
 20
172.3182802356584
 30
0.0
 10
318.2559937241438
 20
168.5600739007541
 30
0.0
 10
320.0997545763757
 20
163.7343411462244
 30
0.0
 10
322.6173913129728
 20
158.0557290241811
 30
0.0
 10
325.2563111422708
 20
152.7535848416281
 30
0.0
 10
327.9563763501388
 20
147.8229190621936
 30
0.0
 10
330.7107407223854
 20
143.2265099910937
 30
0.0
 10
333.5971206568851
 20
138.8863683989491
 30
0.0
 10
336.7426321495328
 20
134.7048205121791
 30
0.0
 10
340.2707389824209
 20
130.5938117224019
 30
0.0
 10
344.2577633921107
 20
126.4994270249499
 30
0.0
 10
348.6774116217147
 20
122.4329902390528
 30
0.0
 10
353.3747081107485
 20
118.4854298009441
 30
0.0
 10
358.1403011157362
 20
114.7838394365307
 30
0.0
 10
362.7718805804114
 20
111.4556597997099
 30
0.0
 10
367.1348272706332
 20
108.592847389417
 30
0.0
 10
371.2369998564937
 20
106.209000281002
 30
0.0
 10
375.2527801729634
 20
104.2221992345915
 30
0.0
 10
379.3961920493571
 20
102.5128981422
 30
0.0
 10
383.8323832344693
 20
100.9642998294404
 30
0.0
 10
388.551471337257
 20
99.51735841069915
 30
0.0
 10
393.3321425924749
 20
98.19450936864075
 30
0.0
 10
397.9041609843603
 20
97.05930203863394
 30
0.0
 10
402.0576007183719
 20
96.18985541667544
 30
0.0
 10
405.8022713561899
 20
95.64466780145634
 30
0.0
 10
409.4132125710309
 20
95.43863557207644
 30
0.0
 10
412.9385139973585
 20
95.5308625752672
 30
0.0
 10
415.9758372997389
 20
95.74474993404846
 30
0.0
 10
418.3000130463231
 20
95.9273277684895
 30
0.0
 10
419.7744311341065
 20
96.03942119376674
 30
0.0
 10
420.3487058057185
 20
96.08195598437246
 30
0.0
  0
SPLINE
  5
C7
330
1F
100
AcDbEntity
  8
VISIBLE
100
AcDbSpline
210
0.0
220
0.0
230
1.0
 70
     8
 71
     5
 72
   102
 73
    96
 74
     0
 42
0.000000001
 43
0.0000000514328572
 40
0.248166845204222
 40
0.248166845204222
 40
0.248166845204222
 40
0.248166845204222
 40
0.248166845204222
 40
0.248166845204222
 40
0.25
 40
0.258333333333333
 40
0.266666666666667
 40
0.275
 40
0.283333333333333
 40
0.291666666666667
 40
0.3
 40
0.308333333333333
 40
0.316666666666667
 40
0.325
 40
0.333333333333334
 40
0.341666666666667
 40
0.35
 40
0.358333333333334
 40
0.366666666666667
 40
0.375
 40
0.383333333333334
 40
0.391666666666667
 40
0.4
 40
0.408333333333334
 40
0.416666666666667
 40
0.425
 40
0.433333333333334
 40
0.441666666666667
 40
0.45
 40
0.458333333333334
 40
0.466666666666667
 40
0.475
 40
0.483333333333334
 40
0.491666666666667
 40
0.5
 40
0.5083333333333341
 40
0.516666666666667
 40
0.525
 40
0.533333333333334
 40
0.5416666666666671
 40
0.55
 40
0.558333333333334
 40
0.5666666666666671
 40
0.575
 40
0.583333333333334
 40
0.591666666666667
 40
0.6
 40
0.6083333333333341
 40
0.616666666666667
 40
0.625
 40
0.6333333333333341
 40
0.641666666666667
 40
0.65
 40
0.658333333333333
 40
0.6666666666666671
 40
0.675
 40
0.683333333333333
 40
0.6916666666666671
 40
0.7
 40
0.708333333333333
 40
0.716666666666667
 40
0.725
 40
0.7333333333333331
 40
0.7416666666666659
 40
0.75
 40
0.7583333333333331
 40
0.7666666666666659
 40
0.775
 40
0.783333333333333
 40
0.791666666666666
 40
0.8
 40
0.808333333333333
 40
0.816666666666666
 40
0.825
 40
0.833333333333333
 40
0.8416666666666659
 40
0.85
 40
0.8583333333333331
 40
0.8666666666666659
 40
0.875
 40
0.8833333333333331
 40
0.8916666666666659
 40
0.9
 40
0.908333333333333
 40
0.916666666666666
 40
0.925
 40
0.933333333333332
 40
0.941666666666666
 40
0.95
 40
0.958333333333332
 40
0.9666666666666659
 40
0.975
 40
0.9833333333333321
 40
0.9916666666666659
 40
1.0
 40
1.0
 40
1.0
 40
1.0
 40
1.0
 40
1.0
 10
430.2471771360832
 20
96.49514695050723
 30
0.0
 10
430.4448184679757
 20
96.49397284747374
 30
0.0
 10
431.5379019542791
 20
96.48426498539294
 30
0.0
 10
433.4955613126162
 20
96.43443309071944
 30
0.0
 10
436.240432491397
 20
96.28052691985704
 30
0.0
 10
439.6742453709344
 20
95.97437840265835
 30
0.0
 10
443.6224492523827
 20
95.61637379534254
 30
0.0
 10
447.5954470701938
 20
95.42879841464693
 30
0.0
 10
451.6717674269241
 20
95.51559237686834
 30
0.0
 10
455.8621052776323
 20
95.91428947830894
 30
0.0
 10
460.1438014829801
 20
96.61805302235604
 30
0.0
 10
464.4855723045582
 20
97.58939785557774
 30
0.0
 10
468.87225903193
 20
98.77717939292005
 30
0.0
 10
473.2960326473366
 20
100.1334596298084
 30
0.0
 10
477.7521775062391
 20
101.6292803037242
 30
0.0
 10
482.2324134693312
 20
103.2741814153386
 30
0.0
 10
486.7213127027514
 20
105.1237638538999
 30
0.0
 10
491.1996998985117
 20
107.249935593611
 30
0.0
 10
495.646845878058
 20
109.718298405438
 30
0.0
 10
500.0432712094539
 20
112.561412129152
 30
0.0
 10
504.3729012598952
 20
115.7574540249972
 30
0.0
 10
508.6206155516288
 20
119.2539622016962
 30
0.0
 10
512.7699126716616
 20
122.989622958273
 30
0.0
 10
516.8009082426549
 20
126.9145210942312
 30
0.0
 10
520.6872873229768
 20
131.0164906906341
 30
0.0
 10
524.3971268770945
 20
135.3241155755615
 30
0.0
 10
527.8978402608741
 20
139.8841093316926
 30
0.0
 10
531.1603221514678
 20
144.7445924218034
 30
0.0
 10
534.1627957533728
 20
149.9378590106335
 30
0.0
 10
536.8963414159798
 20
155.4586629609711
 30
0.0
 10
539.3626031758608
 20
161.2659704654056
 30
0.0
 10
541.5664840529448
 20
167.3002113807243
 30
0.0
 10
543.5101329983738
 20
173.4962089165911
 30
0.0
 10
545.1868773983848
 20
179.7970895365091
 30
0.0
 10
546.5740315444318
 20
186.1696870409392
 30
0.0
 10
547.6297661152838
 20
192.6133296311133
 30
0.0
 10
548.3041345222757
 20
199.1450661446392
 30
0.0
 10
548.5474918263108
 20
205.7891210302894
 30
0.0
 10
548.3204287611738
 20
212.5641469947831
 30
0.0
 10
547.6019357795278
 20
219.4726636019381
 30
0.0
 10
546.4011814643977
 20
226.4864023501401
 30
0.0
 10
544.7536919437669
 20
233.5489351820451
 30
0.0
 10
542.7088343978028
 20
240.5878519248166
 30
0.0
 10
540.3202306546439
 20
247.5237934099515
 30
0.0
 10
537.6344254067437
 20
254.2812143209764
 30
0.0
 10
534.6815436570307
 20
260.7974024844324
 30
0.0
 10
531.4619992533038
 20
267.0347432433765
 30
0.0
 10
527.947770157529
 20
272.9812158561114
 30
0.0
 10
524.0961184874795
 20
278.6409046181375
 30
0.0
 10
519.8595819276519
 20
284.0274510652764
 30
0.0
 10
515.1979557739548
 20
289.1560442248564
 30
0.0
 10
510.0883460721
 20
294.0366457568115
 30
0.0
 10
504.5387996964926
 20
298.6651417844045
 30
0.0
 10
498.5858313855052
 20
303.0235703528455
 30
0.0
 10
492.2844273914036
 20
307.0845419751095
 30
0.0
 10
485.7005628989155
 20
310.8142988812335
 30
0.0
 10
478.9024012909079
 20
314.1764100588804
 30
0.0
 10
471.9527112840304
 20
317.1350216710895
 30
0.0
 10
464.8991705506956
 20
319.6587150975774
 30
0.0
 10
457.771277126135
 20
321.7226128204504
 30
0.0
 10
450.5866639060579
 20
323.3080523012354
 30
0.0
 10
443.3551025590711
 20
324.4028339817514
 30
0.0
 10
436.0835158320741
 20
325.0012700244205
 30
0.0
 10
428.7803747868598
 20
325.1042547039244
 30
0.0
 10
421.4607953355167
 20
324.7194896676244
 30
0.0
 10
414.150020086771
 20
323.8611600283984
 30
0.0
 10
406.8800082220436
 20
322.5470518906984
 30
0.0
 10
399.686973718176
 20
320.7960240694704
 30
0.0
 10
392.6085645296114
 20
318.6253548438194
 30
0.0
 10
385.6811789790781
 20
316.0481148800785
 30
0.0
 10
378.9372624286457
 20
313.0705915850895
 30
0.0
 10
372.4025015667906
 20
309.6895115705864
 30
0.0
 10
366.0977051670099
 20
305.8970334395594
 30
0.0
 10
360.0408609709236
 20
301.6860521001785
 30
0.0
 10
354.2490745572779
 20
297.0552547832725
 30
0.0
 10
348.74067317586
 20
292.0145870129564
 30
0.0
 10
343.5369675029691
 20
286.5898397402825
 30
0.0
 10
338.6648596538571
 20
280.8294429552594
 30
0.0
 10
334.1547766531481
 20
274.7990868581464
 30
0.0
 10
330.0368913458938
 20
268.5719146741415
 30
0.0
 10
326.3380066690408
 20
262.2203847891444
 30
0.0
 10
323.0779380669538
 20
255.8069718724744
 30
0.0
 10
320.2666270761978
 20
249.3764433870654
 30
0.0
 10
317.8996545480928
 20
242.9447847079089
 30
0.0
 10
315.9594441580238
 20
236.499960018484
 30
0.0
 10
314.4225367317168
 20
230.0151775009512
 30
0.0
 10
313.2650879792348
 20
223.4586456334397
 30
0.0
 10
312.4694203071438
 20
216.80511322578
 30
0.0
 10
312.0293563647678
 20
210.0458197408663
 30
0.0
 10
311.9580766123968
 20
203.201284294932
 30
0.0
 10
312.2805858190078
 20
196.3174822856141
 30
0.0
 10
313.0220427076588
 20
189.4576040524482
 30
0.0
 10
313.9624042066608
 20
184.0477661153649
 30
0.0
 10
314.8602997722248
 20
180.0688431518234
 30
0.0
 10
315.5395066441138
 20
177.4607981099119
 30
0.0
 10
315.8982841538268
 20
176.1690376238843
 30
0.0
  0
LINE
  5
C8
330
1F
100
AcDbEntity
  8
VISIBLE
100
AcDbLine
 10
430.2471771360932
 20
96.49514695051724
 30
0.0
 11
428.7485039486908
 21
96.44078933374703
 31
0.0
  0
LINE
  5
C9
330
1F
100
AcDbEntity
  8
VISIBLE
100
AcDbLine
 10
435.4158465402917
 20
152.9901481783893
 30
0.0
 11
428.7485039486908
 21
96.44078933374703
 31
0.0
  0
ARC
  5
CA
330
1F
100
AcDbEntity
  8
VISIBLE
100
AcDbCircle
 10
430.4935540463148
 20
146.6837199814034
 30
0.0
 40
8.0
100
AcDbArc
 50
52.02725467328954
 51
114.5241371977147
  0
ENDSEC
  0
SECTION
  2
OBJECTS
  0
DICTIONARY
  5
C
330
0
100
AcDbDictionary
  3
ACAD_GROUP
350
D
  3
ACAD_LAYOUT
350
1A
  3
ACAD_MATERIAL
350
43
  3
ACAD_MLEADERSTYLE
350
133
  3
ACAD_MLINESTYLE
350
17
  3
ACAD_PLOTSETTINGS
350
19
  3
ACAD_SCALELIST
350
47
  3
ACAD_VISUALSTYLE
350
2A
  3
ACDBHEADERROUNDTRIPXREC
350
112
  3
ACDBVARIABLEDICTIONARY
350
6C
  3
ONSHAPE_DATA
350
CB
  0
DICTIONARY
  5
73
330
72
100
AcDbDictionary
280
     1
  3
ONSHAPE_VIEW_ID
360
74
  0
DICTIONARY
  5
D
102
{ACAD_REACTORS
330
C
102
}
330
C
100
AcDbDictionary
  0
DICTIONARY
  5
1A
102
{ACAD_REACTORS
330
C
102
}
330
C
100
AcDbDictionary
  0
DICTIONARY
  5
43
102
{ACAD_REACTORS
330
C
102
}
330
C
100
AcDbDictionary
  3
BYBLOCK
350
45
  3
BYLAYER
350
44
  3
GLOBAL
350
46
  0
DICTIONARY
  5
133
102
{ACAD_REACTORS
330
C
102
}
330
C
100
AcDbDictionary
  0
DICTIONARY
  5
17
102
{ACAD_REACTORS
330
C
102
}
330
C
100
AcDbDictionary
  3
STANDARD
350
18
  0
DICTIONARY
  5
19
102
{ACAD_REACTORS
330
C
102
}
330
C
100
AcDbDictionary
  0
DICTIONARY
  5
47
102
{ACAD_REACTORS
330
C
102
}
330
C
100
AcDbDictionary
  3
A0
350
48
  3
A1
350
49
  3
A2
350
4A
  3
A3
350
4B
  3
A4
350
4C
  3
A5
350
4D
  3
A6
350
4E
  3
A7
350
4F
  3
A8
350
50
  3
A9
350
51
  3
B0
350
52
  3
B1
350
53
  3
B2
350
54
  3
B3
350
55
  3
B4
350
56
  3
B5
350
57
  3
B6
350
58
  3
B7
350
59
  3
B8
350
5A
  3
B9
350
5B
  3
C0
350
5C
  3
C1
350
5D
  3
C2
350
5E
  3
C3
350
5F
  3
C4
350
60
  3
C5
350
61
  3
C6
350
62
  3
C7
350
63
  3
C8
350
64
  3
C9
350
65
  3
D0
350
66
  3
D1
350
67
  3
D2
350
68
  0
DICTIONARY
  5
2A
102
{ACAD_REACTORS
330
C
102
}
330
C
100
AcDbDictionary
  3
2DWIREFRAME
350
2F
  3
BASIC
350
32
  3
BRIGHTEN
350
36
  3
COLORCHANGE
350
3A
  3
CONCEPTUAL
350
34
  3
DIM
350
35
  3
EDGECOLOROFF
350
3D
  3
FACEPATTERN
350
39
  3
FLAT
350
2B
  3
FLATWITHEDGES
350
2C
  3
GOURAUD
350
2D
  3
GOURAUDWITHEDGES
350
2E
  3
HIDDEN
350
31
  3
JITTEROFF
350
3B
  3
LINEPATTERN
350
38
  3
OVERHANGOFF
350
3C
  3
REALISTIC
350
33
  3
SHADED
350
42
  3
SHADED_WITH_EDGES
350
41
  3
SHADES_OF_GRAY
350
3E
  3
SKETCHY
350
3F
  3
THICKEN
350
37
  3
WIREFRAME
350
30
  3
X-RAY
350
40
  0
DICTIONARY
  5
112
102
{ACAD_REACTORS
330
C
102
}
330
C
100
AcDbDictionary
  3
CEPSNTYPE
350
11B
  3
DIMSTYLEDATA
350
131
  3
FINGERPRINTGUID
350
11C
  3
HYPERLINKBASE
350
115
  3
INSUNITS
350
11A
  3
LAYOUTDICT
350
117
  3
LWETCUNION
350
119
  3
PLOTSETDICT
350
118
  3
PSVPSCALE
350
11E
  3
PUCSBASE
350
121
  3
PUCSORGBACK
350
127
  3
PUCSORGBOTTOM
350
123
  3
PUCSORGFRONT
350
126
  3
PUCSORGLEFT
350
124
  3
PUCSORGRIGHT
350
125
  3
PUCSORGTOP
350
122
  3
PUCSORTHOREF
350
11F
  3
PUCSORTHOVIEW
350
120
  3
STYLESHEET
350
116
  3
TSTACKALIGN
350
113
  3
TSTACKSIZE
350
114
  3
UCSBASE
350
12A
  3
UCSORGBACK
350
130
  3
UCSORGBOTTOM
350
12C
  3
UCSORGFRONT
350
12F
  3
UCSORGLEFT
350
12D
  3
UCSORGRIGHT
350
12E
  3
UCSORGTOP
350
12B
  3
UCSORTHOREF
350
128
  3
UCSORTHOVIEW
350
129
  3
VERSIONGUID
350
11D
  0
DICTIONARY
  5
6C
102
{ACAD_REACTORS
330
C
102
}
330
C
100
AcDbDictionary
  3
CANNOSCALE
350
13A
  3
CTABLESTYLE
350
132
  3
DIMASSOC
350
138
  3
HIDETEXT
350
139
  3
MSLTSCALE
350
13B
  3
OLEFRAME
350
6D
  3
PSOLHEIGHT
350
135
  3
PSOLWIDTH
350
134
  0
DICTIONARY
  5
CB
102
{ACAD_REACTORS
330
C
102
}
330
C
100
AcDbDictionary
280
     1
  3
DIM_UNITS
360
CC
  3
ONSHAPE_ANG_TOL_PRECISION
360
CF
  3
ONSHAPE_VSHARP_EXTENSION
360
CE
  3
ONSHAPE_WELD_STANDARD
360
CD
  0
XRECORD
  5
74
102
{ACAD_REACTORS
330
73
102
}
330
73
100
AcDbXrecord
330
0
  0
MATERIAL
  5
45
102
{ACAD_REACTORS
330
43
102
}
102
{ACAD_XDICTIONARY
360
13E
102
}
330
43
100
AcDbMaterial
  1
BYBLOCK
  0
MATERIAL
  5
44
102
{ACAD_REACTORS
330
43
102
}
102
{ACAD_XDICTIONARY
360
13C
102
}
330
43
100
AcDbMaterial
  1
BYLAYER
  0
MATERIAL
  5
46
102
{ACAD_REACTORS
330
43
102
}
102
{ACAD_XDICTIONARY
360
140
102
}
330
43
100
AcDbMaterial
  1
GLOBAL
  0
MLINESTYLE
  5
18
102
{ACAD_REACTORS
330
17
102
}
330
17
100
AcDbMlineStyle
  2
Standard
 70
     0
  3

 62
   256
 51
90.0
 52
90.0
 71
     2
 49
0.5
 62
   256
  6
BYLAYER
 49
-0.5
 62
   256
  6
BYLAYER
  0
ACAD_PROXY_OBJECT
  5
48
102
{ACAD_REACTORS
330
47
102
}
330
47
100
AcDbProxyObject
 90
      499
 91
      503
 93
       41
310
903313A31580
  0
ACAD_PROXY_OBJECT
  5
49
102
{ACAD_REACTORS
330
47
102
}
330
47
100
AcDbProxyObject
 90
      499
 91
      503
 93
      105
310
903313A324000000000000004000
  0
ACAD_PROXY_OBJECT
  5
4A
102
{ACAD_REACTORS
330
47
102
}
330
47
100
AcDbProxyObject
 90
      499
 91
      503
 93
      105
310
903313A344000000000000104000
  0
ACAD_PROXY_OBJECT
  5
4B
102
{ACAD_REACTORS
330
47
102
}
330
47
100
AcDbProxyObject
 90
      499
 91
      503
 93
      105
310
903313A354000000000000144000
  0
ACAD_PROXY_OBJECT
  5
4C
102
{ACAD_REACTORS
330
47
102
}
330
47
100
AcDbProxyObject
 90
      499
 91
      503
 93
      105
310
903313A384000000000000204000
  0
ACAD_PROXY_OBJECT
  5
4D
102
{ACAD_REACTORS
330
47
102
}
330
47
100
AcDbProxyObject
 90
      499
 91
      503
 93
      113
310
904313A31304000000000000244000
  0
ACAD_PROXY_OBJECT
  5
4E
102
{ACAD_REACTORS
330
47
102
}
330
47
100
AcDbProxyObject
 90
      499
 91
      503
 93
      113
310
904313A31364000000000000304000
  0
ACAD_PROXY_OBJECT
  5
4F
102
{ACAD_REACTORS
330
47
102
}
330
47
100
AcDbProxyObject
 90
      499
 91
      503
 93
      113
310
904313A32304000000000000344000
  0
ACAD_PROXY_OBJECT
  5
50
102
{ACAD_REACTORS
330
47
102
}
330
47
100
AcDbProxyObject
 90
      499
 91
      503
 93
      113
310
904313A333040000000000003E4000
  0
ACAD_PROXY_OBJECT
  5
51
102
{ACAD_REACTORS
330
47
102
}
330
47
100
AcDbProxyObject
 90
      499
 91
      503
 93
      113
310
904313A34304000000000000444000
  0
ACAD_PROXY_OBJECT
  5
52
102
{ACAD_REACTORS
330
47
102
}
330
47
100
AcDbProxyObject
 90
      499
 91
      503
 93
      113
310
904313A35304000000000000494000
  0
ACAD_PROXY_OBJECT
  5
53
102
{ACAD_REACTORS
330
47
102
}
330
47
100
AcDbProxyObject
 90
      499
 91
      503
 93
      121
310
905313A3130304000000000000594000
  0
ACAD_PROXY_OBJECT
  5
54
102
{ACAD_REACTORS
330
47
102
}
330
47
100
AcDbProxyObject
 90
      499
 91
      503
 93
      105
310
903323A310000000000000010100
  0
ACAD_PROXY_OBJECT
  5
55
102
{ACAD_REACTORS
330
47
102
}
330
47
100
AcDbProxyObject
 90
      499
 91
      503
 93
      105
310
903343A310000000000000410100
  0
ACAD_PROXY_OBJECT
  5
56
102
{ACAD_REACTORS
330
47
102
}
330
47
100
AcDbProxyObject
 90
      499
 91
      503
 93
      105
310
903383A310000000000000810100
  0
ACAD_PROXY_OBJECT
  5
57
102
{ACAD_REACTORS
330
47
102
}
330
47
100
AcDbProxyObject
 90
      499
 91
      503
 93
      113
310
90431303A310000000000000910100
  0
ACAD_PROXY_OBJECT
  5
58
102
{ACAD_REACTORS
330
47
102
}
330
47
100
AcDbProxyObject
 90
      499
 91
      503
 93
      121
310
9053130303A310000000000001650100
  0
ACAD_PROXY_OBJECT
  5
59
102
{ACAD_REACTORS
330
47
102
}
330
47
100
AcDbProxyObject
 90
      499
 91
      503
 93
      257
310
90E312F31323822203D2031272D3022000000000000200FC000000000000284000
  0
ACAD_PROXY_OBJECT
  5
5A
102
{ACAD_REACTORS
330
47
102
}
330
47
100
AcDbProxyObject
 90
      499
 91
      503
 93
      249
310
90D312F363422203D2031272D3022000000000000240FC000000000000284000
  0
ACAD_PROXY_OBJECT
  5
5B
102
{ACAD_REACTORS
330
47
102
}
330
47
100
AcDbProxyObject
 90
      499
 91
      503
 93
      249
310
90D312F333222203D2031272D3022000000000000280FC000000000000284000
  0
ACAD_PROXY_OBJECT
  5
5C
102
{ACAD_REACTORS
330
47
102
}
330
47
100
AcDbProxyObject
 90
      499
 91
      503
 93
      249
310
90D312F313622203D2031272D30220000000000002C0FC000000000000284000
  0
ACAD_PROXY_OBJECT
  5
5D
102
{ACAD_REACTORS
330
47
102
}
330
47
100
AcDbProxyObject
 90
      499
 91
      503
 93
      249
310
90D332F333222203D2031272D30220000000000002E0FC000000000000284000
  0
ACAD_PROXY_OBJECT
  5
5E
102
{ACAD_REACTORS
330
47
102
}
330
47
100
AcDbProxyObject
 90
      499
 91
      503
 93
      241
310
90C312F3822203D2031272D3022000000000000300FC000000000000284000
  0
ACAD_PROXY_OBJECT
  5
5F
102
{ACAD_REACTORS
330
47
102
}
330
47
100
AcDbProxyObject
 90
      499
 91
      503
 93
      249
310
90D332F313622203D2031272D3022000000000000320FC000000000000284000
  0
ACAD_PROXY_OBJECT
  5
60
102
{ACAD_REACTORS
330
47
102
}
330
47
100
AcDbProxyObject
 90
      499
 91
      503
 93
      241
310
90C312F3422203D2031272D3022000000000000340FC000000000000284000
  0
ACAD_PROXY_OBJECT
  5
61
102
{ACAD_REACTORS
330
47
102
}
330
47
100
AcDbProxyObject
 90
      499
 91
      503
 93
      241
310
90C332F3822203D2031272D3022000000000000360FC000000000000284000
  0
ACAD_PROXY_OBJECT
  5
62
102
{ACAD_REACTORS
330
47
102
}
330
47
100
AcDbProxyObject
 90
      499
 91
      503
 93
      241
310
90C312F3222203D2031272D3022000000000000380FC000000000000284000
  0
ACAD_PROXY_OBJECT
  5
63
102
{ACAD_REACTORS
330
47
102
}
330
47
100
AcDbProxyObject
 90
      499
 91
      503
 93
      241
310
90C332F3422203D2031272D30220000000000003A0FC000000000000284000
  0
ACAD_PROXY_OBJECT
  5
64
102
{ACAD_REACTORS
330
47
102
}
330
47
100
AcDbProxyObject
 90
      499
 91
      503
 93
      161
310
90A3122203D2031272D30224000000000000284000
  0
ACAD_PROXY_OBJECT
  5
65
102
{ACAD_REACTORS
330
47
102
}
330
47
100
AcDbProxyObject
 90
      499
 91
      503
 93
      257
310
90E312D312F3222203D2031272D30220000000000003E0FC000000000000284000
  0
ACAD_PROXY_OBJECT
  5
66
102
{ACAD_REACTORS
330
47
102
}
330
47
100
AcDbProxyObject
 90
      499
 91
      503
 93
      225
310
90A3322203D2031272D302200000000000002100000000000000284000
  0
ACAD_PROXY_OBJECT
  5
67
102
{ACAD_REACTORS
330
47
102
}
330
47
100
AcDbProxyObject
 90
      499
 91
      503
 93
      225
310
90A3622203D2031272D302200000000000006100000000000000284000
  0
ACAD_PROXY_OBJECT
  5
68
102
{ACAD_REACTORS
330
47
102
}
330
47
100
AcDbProxyObject
 90
      499
 91
      503
 93
      249
310
90D31272D3022203D2031272D30220000000000000A100000000000000284000
  0
ACAD_PROXY_OBJECT
  5
2F
102
{ACAD_REACTORS
330
2A
102
}
330
2A
100
AcDbProxyObject
 90
      499
 91
      501
 93
      436
310
42CC9915DA5C99599C985B595049028333333333333E33F0000000000000F90107901411070040501600405405064090741402480A0340
1001
ACAD
1000
AcDbSavedByObjectVersion
1070
     0
  0
ACAD_PROXY_OBJECT
  5
32
102
{ACAD_REACTORS
330
2A
102
}
330
2A
100
AcDbProxyObject
 90
      499
 91
      501
 93
      388
310
4150985CDA58D07406404333333333333E33F0000000000000F90107A41107004050150841D405064090741402480A0350
1001
ACAD
1000
AcDbSavedByObjectVersion
1070
     0
  0
ACAD_PROXY_OBJECT
  5
36
102
{ACAD_REACTORS
330
2A
102
}
330
2A
100
AcDbProxyObject
 90
      499
 91
      501
 93
      428
310
42109C9A59DA1D195B90C409028333333333333E33F0000000000000F9010790141107004050150841D405064090741402480A029950
1001
ACAD
1000
AcDbSavedByObjectVersion
1070
     0
  0
ACAD_PROXY_OBJECT
  5
3A
102
{ACAD_REACTORS
330
2A
102
}
330
2A
100
AcDbProxyObject
 90
      499
 91
      501
 93
      452
310
42D0DBDB1BDC90DA185B99D95104090240C333333333333E33F0000000000000F90108901411070040501508421405064090741402480A0350
1001
ACAD
1000
AcDbSavedByObjectVersion
1070
     0
  0
ACAD_PROXY_OBJECT
  5
34
102
{ACAD_REACTORS
330
2A
102
}
330
2A
100
AcDbProxyObject
 90
      499
 91
      501
 93
      500
310
4290DBDB98D95C1D1D585B10940D028333333333333E33F0000000000000F90107902409070040501000000000018199010841D405064090740C02480A0340
1001
ACAD
1000
AcDbSavedByObjectVersion
1070
     0
  0
ACAD_PROXY_OBJECT
  5
35
102
{ACAD_REACTORS
330
2A
102
}
330
2A
100
AcDbProxyObject
 90
      499
 91
      501
 93
      412
310
40D11A5B50B409028333333333333E33F0000000000000F9010790141107004050150841D405064090741402480A02677FFFFFD0
1001
ACAD
1000
AcDbSavedByObjectVersion
1070
     0
  0
ACAD_PROXY_OBJECT
  5
3D
102
{ACAD_REACTORS
330
2A
102
}
330
2A
100
AcDbProxyObject
 90
      499
 91
      501
 93
      452
310
43115919D950DBDB1BDC93D999916409028333333333333E33F0000000000000F9010790141107004050150841D405064090741402480A0350
1001
ACAD
1000
AcDbSavedByObjectVersion
1070
     0
  0
ACAD_PROXY_OBJECT
  5
39
102
{ACAD_REACTORS
330
2A
102
}
330
2A
100
AcDbProxyObject
 90
      499
 91
      501
 93
      444
310
42D19858D95C185D1D195C9B90F409028333333333333E33F0000000000000F9010790141107004050150841D405064090741402480A0350
1001
ACAD
1000
AcDbSavedByObjectVersion
1070
     0
  0
ACAD_PROXY_OBJECT
  5
2B
102
{ACAD_REACTORS
330
2A
102
}
330
2A
100
AcDbProxyObject
 90
      499
 91
      501
 93
      380
310
41119B185D240901404333333333333E33F0000000000000F9010740A907004050150841D405064090741402480A1B50
1001
ACAD
1000
AcDbSavedByObjectVersion
1070
     0
  0
ACAD_PROXY_OBJECT
  5
2C
102
{ACAD_REACTORS
330
2A
102
}
330
2A
100
AcDbProxyObject
 90
      499
 91
      501
 93
      468
310
43519B185D15DA5D1A115919D95CD0140901404333333333333E33F0000000000000F90107409019070040501600405405064090741402480A1B50
1001
ACAD
1000
AcDbSavedByObjectVersion
1070
     0
  0
ACAD_PROXY_OBJECT
  5
2D
102
{ACAD_REACTORS
330
2A
102
}
330
2A
100
AcDbProxyObject
 90
      499
 91
      501
 93
      404
310
41D1DBDD5C985D5910240902404333333333333E33F0000000000000F9010740A9070040501641D405064090741402480A1B50
1001
ACAD
1000
AcDbSavedByObjectVersion
1070
     0
  0
ACAD_PROXY_OBJECT
  5
2E
102
{ACAD_REACTORS
330
2A
102
}
330
2A
100
AcDbProxyObject
 90
      499
 91
      501
 93
      492
310
4411DBDD5C985D5915DA5D1A115919D95CD0340902404333333333333E33F0000000000000F90107409019070040501600405405064090741402480A1B50
1001
ACAD
1000
AcDbSavedByObjectVersion
1070
     0
  0
ACAD_PROXY_OBJECT
  5
31
102
{ACAD_REACTORS
330
2A
102
}
330
2A
100
AcDbProxyObject
 90
      499
 91
      501
 93
      476
310
41921A5919195B90640502408333333333333E33F0000000000000F901079024090700405020000000000001110200405405064090740C02480A0340
1001
ACAD
1000
AcDbSavedByObjectVersion
1070
     0
  0
ACAD_PROXY_OBJECT
  5
3B
102
{ACAD_REACTORS
330
2A
102
}
330
2A
100
AcDbProxyObject
 90
      499
 91
      501
 93
      428
310
42529A5D1D195C93D999914409028333333333333E33F0000000000000F9010790141107004050150A41D405064090741402480A0350
1001
ACAD
1000
AcDbSavedByObjectVersion
1070
     0
  0
ACAD_PROXY_OBJECT
  5
38
102
{ACAD_REACTORS
330
2A
102
}
330
2A
100
AcDbProxyObject
 90
      499
 91
      501
 93
      444
310
42D31A5B995C185D1D195C9B90E409028333333333333E33F0000000000000F9010790141107004050750841D405064090741402483A0350
1001
ACAD
1000
AcDbSavedByObjectVersion
1070
     0
  0
ACAD_PROXY_OBJECT
  5
3C
102
{ACAD_REACTORS
330
2A
102
}
330
2A
100
AcDbProxyObject
 90
      499
 91
      501
 93
      444
310
42D3DD995C9A185B99D3D999915409028333333333333E33F0000000000000F9010790141107004050150941D405064090741402480A0350
1001
ACAD
1000
AcDbSavedByObjectVersion
1070
     0
  0
ACAD_PROXY_OBJECT
  5
33
102
{ACAD_REACTORS
330
2A
102
}
330
2A
100
AcDbProxyObject
 90
      499
 91
      501
 93
      428
310
425499585B1A5CDD1A58D08409038333333333333E33F0000000000000F9010740A907004050150800405405064090740C02480A1B40
1001
ACAD
1000
AcDbSavedByObjectVersion
1070
     0
  0
ACAD_PROXY_OBJECT
  5
42
102
{ACAD_REACTORS
330
2A
102
}
330
2A
100
AcDbProxyObject
 90
      499
 91
      501
 93
      420
310
4194DA1859195911B40902404333333333333E33F0000000000000F9010740A41107004050150800405405064090840C02480A0B40
1001
ACAD
1000
AcDbSavedByObjectVersion
1070
     0
  0
ACAD_PROXY_OBJECT
  5
41
102
{ACAD_REACTORS
330
2A
102
}
330
2A
100
AcDbProxyObject
 90
      499
 91
      501
 93
      516
310
4454DA18591959081DDA5D1A08195919D95CD1A40902404333333333333E33F0000000000000F901074090142907004050250800405405064090740C02480A0B40
1001
ACAD
1000
AcDbSavedByObjectVersion
1070
     0
  0
ACAD_PROXY_OBJECT
  5
3E
102
{ACAD_REACTORS
330
2A
102
}
330
2A
100
AcDbProxyObject
 90
      499
 91
      501
 93
      532
310
4394DA1859195CC81BD98811DC985E5174090240C333333333333E33F0000000000000F901079024090741D01000000000000111010841D405064090740C02480A0340
1001
ACAD
1000
AcDbSavedByObjectVersion
1070
     0
  0
ACAD_PROXY_OBJECT
  5
3F
102
{ACAD_REACTORS
330
2A
102
}
330
2A
100
AcDbProxyObject
 90
      499
 91
      501
 93
      476
310
41D4DAD95D18DA1E51840502408333333333333E33F0000000000000F901079024090741D01000000000000111010B41D405064090741802480A0340
1001
ACAD
1000
AcDbSavedByObjectVersion
1070
     0
  0
ACAD_PROXY_OBJECT
  5
37
102
{ACAD_REACTORS
330
2A
102
}
330
2A
100
AcDbProxyObject
 90
      499
 91
      501
 93
      412
310
41D51A1A58DAD95B90D409028333333333333E33F0000000000000F9010790141107004050150C41D405064090741402480A0350
1001
ACAD
1000
AcDbSavedByObjectVersion
1070
     0
  0
ACAD_PROXY_OBJECT
  5
30
102
{ACAD_REACTORS
330
2A
102
}
330
2A
100
AcDbProxyObject
 90
      499
 91
      501
 93
      420
310
4255DA5C99599C985B595059028333333333333E33F0000000000000F90107901411070040501600405405064090740C02480A0340
1001
ACAD
1000
AcDbSavedByObjectVersion
1070
     0
  0
ACAD_PROXY_OBJECT
  5
40
102
{ACAD_REACTORS
330
2A
102
}
330
2A
100
AcDbProxyObject
 90
      499
 91
      501
 93
      404
310
41560B54985E51940902404000000000000E03F0000000000000F9010740501907004050150841D405064090740C02480A1B40
1001
ACAD
1000
AcDbSavedByObjectVersion
1070
     0
  0
XRECORD
  5
11B
102
{ACAD_REACTORS
330
112
102
}
330
112
100
AcDbXrecord
 90
        0
  0
XRECORD
  5
131
102
{ACAD_REACTORS
330
112
102
}
330
112
100
AcDbXrecord
1000
DSTYLE
1002
{
1070
   179
 70
     1
1070
   143
 40
0.03937
1070
   285
 70
     8
1070
   176
 70
     7
1070
   177
 70
     7
1070
   178
 70
     7
1070
   371
 70
    13
1070
   372
 70
    13
1070
   272
 70
     3
1070
   340
340
71
1070
   288
 70
     1
1002
}
  0
XRECORD
  5
11C
102
{ACAD_REACTORS
330
112
102
}
330
112
100
AcDbXrecord
  1
{D2140470-7BD5-8AD1-5329-58426400D982}
  0
XRECORD
  5
115
102
{ACAD_REACTORS
330
112
102
}
330
112
100
AcDbXrecord
  1

  0
XRECORD
  5
11A
102
{ACAD_REACTORS
330
112
102
}
330
112
100
AcDbXrecord
 90
        4
  0
XRECORD
  5
117
102
{ACAD_REACTORS
330
112
102
}
330
112
100
AcDbXrecord
340
1A
  0
XRECORD
  5
119
102
{ACAD_REACTORS
330
112
102
}
330
112
100
AcDbXrecord
 90
    10269
  0
XRECORD
  5
118
102
{ACAD_REACTORS
330
112
102
}
330
112
100
AcDbXrecord
340
19
  0
XRECORD
  5
11E
102
{ACAD_REACTORS
330
112
102
}
330
112
100
AcDbXrecord
 40
0.0
  0
XRECORD
  5
121
102
{ACAD_REACTORS
330
112
102
}
330
112
100
AcDbXrecord
340
0
  0
XRECORD
  5
127
102
{ACAD_REACTORS
330
112
102
}
330
112
100
AcDbXrecord
 10
0.0
 20
0.0
 30
0.0
  0
XRECORD
  5
123
102
{ACAD_REACTORS
330
112
102
}
330
112
100
AcDbXrecord
 10
0.0
 20
0.0
 30
0.0
  0
XRECORD
  5
126
102
{ACAD_REACTORS
330
112
102
}
330
112
100
AcDbXrecord
 10
0.0
 20
0.0
 30
0.0
  0
XRECORD
  5
124
102
{ACAD_REACTORS
330
112
102
}
330
112
100
AcDbXrecord
 10
0.0
 20
0.0
 30
0.0
  0
XRECORD
  5
125
102
{ACAD_REACTORS
330
112
102
}
330
112
100
AcDbXrecord
 10
0.0
 20
0.0
 30
0.0
  0
XRECORD
  5
122
102
{ACAD_REACTORS
330
112
102
}
330
112
100
AcDbXrecord
 10
0.0
 20
0.0
 30
0.0
  0
XRECORD
  5
11F
102
{ACAD_REACTORS
330
112
102
}
330
112
100
AcDbXrecord
340
0
  0
XRECORD
  5
120
102
{ACAD_REACTORS
330
112
102
}
330
112
100
AcDbXrecord
 70
     0
  0
XRECORD
  5
116
102
{ACAD_REACTORS
330
112
102
}
330
112
100
AcDbXrecord
  1

  0
XRECORD
  5
113
102
{ACAD_REACTORS
330
112
102
}
330
112
100
AcDbXrecord
 90
        1
  0
XRECORD
  5
114
102
{ACAD_REACTORS
330
112
102
}
330
112
100
AcDbXrecord
 90
       70
  0
XRECORD
  5
12A
102
{ACAD_REACTORS
330
112
102
}
330
112
100
AcDbXrecord
340
0
  0
XRECORD
  5
130
102
{ACAD_REACTORS
330
112
102
}
330
112
100
AcDbXrecord
 10
0.0
 20
0.0
 30
0.0
  0
XRECORD
  5
12C
102
{ACAD_REACTORS
330
112
102
}
330
112
100
AcDbXrecord
 10
0.0
 20
0.0
 30
0.0
  0
XRECORD
  5
12F
102
{ACAD_REACTORS
330
112
102
}
330
112
100
AcDbXrecord
 10
0.0
 20
0.0
 30
0.0
  0
XRECORD
  5
12D
102
{ACAD_REACTORS
330
112
102
}
330
112
100
AcDbXrecord
 10
0.0
 20
0.0
 30
0.0
  0
XRECORD
  5
12E
102
{ACAD_REACTORS
330
112
102
}
330
112
100
AcDbXrecord
 10
0.0
 20
0.0
 30
0.0
  0
XRECORD
  5
12B
102
{ACAD_REACTORS
330
112
102
}
330
112
100
AcDbXrecord
 10
0.0
 20
0.0
 30
0.0
  0
XRECORD
  5
128
102
{ACAD_REACTORS
330
112
102
}
330
112
100
AcDbXrecord
340
0
  0
XRECORD
  5
129
102
{ACAD_REACTORS
330
112
102
}
330
112
100
AcDbXrecord
 70
     0
  0
XRECORD
  5
11D
102
{ACAD_REACTORS
330
112
102
}
330
112
100
AcDbXrecord
  1
{FAEB1C32-E019-11D5-929B-00C0DF256EC4}
  0
DICTIONARYVAR
  5
13A
102
{ACAD_REACTORS
330
6C
102
}
330
6C
100
DictionaryVariables
280
     0
  1
1:1
  0
DICTIONARYVAR
  5
132
102
{ACAD_REACTORS
330
6C
102
}
330
6C
100
DictionaryVariables
280
     0
  1
Onshape-Standard
  0
DICTIONARYVAR
  5
138
102
{ACAD_REACTORS
330
6C
102
}
330
6C
100
DictionaryVariables
280
     0
  1
2
  0
DICTIONARYVAR
  5
139
102
{ACAD_REACTORS
330
6C
102
}
330
6C
100
DictionaryVariables
280
     0
  1
1
  0
DICTIONARYVAR
  5
13B
102
{ACAD_REACTORS
330
6C
102
}
330
6C
100
DictionaryVariables
280
     0
  1
1
  0
DICTIONARYVAR
  5
6D
102
{ACAD_REACTORS
330
6C
102
}
330
6C
100
DictionaryVariables
280
     0
  1
0
  0
DICTIONARYVAR
  5
135
102
{ACAD_REACTORS
330
6C
102
}
330
6C
100
DictionaryVariables
280
     0
  1
80.000000
  0
DICTIONARYVAR
  5
134
102
{ACAD_REACTORS
330
6C
102
}
330
6C
100
DictionaryVariables
280
     0
  1
5.000000
  0
XRECORD
  5
CC
102
{ACAD_REACTORS
330
CB
102
}
330
CB
100
AcDbXrecord
 70
     4
  0
XRECORD
  5
CF
102
{ACAD_REACTORS
330
CB
102
}
330
CB
100
AcDbXrecord
 90
        0
  0
XRECORD
  5
CE
102
{ACAD_REACTORS
330
CB
102
}
330
CB
100
AcDbXrecord
 90
        0
  0
XRECORD
  5
CD
102
{ACAD_REACTORS
330
CB
102
}
330
CB
100
AcDbXrecord
 90
        1
  0
DICTIONARY
  5
13E
330
45
100
AcDbDictionary
280
     1
  3
ACAD_XREC_ROUNDTRIP
360
13F
  0
DICTIONARY
  5
13C
330
44
100
AcDbDictionary
280
     1
  3
ACAD_XREC_ROUNDTRIP
360
13D
  0
DICTIONARY
  5
140
330
46
100
AcDbDictionary
280
     1
  3
ACAD_XREC_ROUNDTRIP
360
141
  0
XRECORD
  5
13F
102
{ACAD_REACTORS
330
13E
102
}
330
13E
100
AcDbXrecord
102
MATERIAL
148
0.0
149
0.0
149
0.0
 93
        0
 94
      127
282
     0
 72
     1
 77
     1
171
     1
175
     1
179
     1
273
     0
  0
XRECORD
  5
13D
102
{ACAD_REACTORS
330
13C
102
}
330
13C
100
AcDbXrecord
102
MATERIAL
148
0.0
149
0.0
149
0.0
 93
        0
 94
      127
282
     0
 72
     1
 77
     1
171
     1
175
     1
179
     1
273
     0
  0
XRECORD
  5
141
102
{ACAD_REACTORS
330
140
102
}
330
140
100
AcDbXrecord
102
MATERIAL
148
0.0
149
0.0
149
0.0
 93
        0
 94
      127
282
     0
 72
     1
 77
     1
171
     1
175
     1
179
     1
273
     0
  0
ENDSEC
  0
EOF
